<svg version="1.1" xmlns:x="&amp;ns_extend;" xmlns:i="&amp;ns_ai;" xmlns:graph="&amp;ns_graphs;" xmlns="http://www.w3.org/2000/svg" xmlns:xlink="http://www.w3.org/1999/xlink" x="0px" y="0px" viewBox="-1291 1292.1 252.6 252.6" style="enable-background:new -1291 1292.1 252.6 252.6;" xml:space="preserve">
<style type="text/css">
	.A{fill:#DEB569;}
	.B{fill:#2C485F;}
	.C{fill:#9E5D31;}
	.D{fill:#F5F4F4;}
</style>
<metadata>
	<sfw xmlns="&amp;ns_sfw;">
		<slices></slices>
		<slicesourcebounds width="253.9" height="252.3" bottomleftorigin="true" x="-0.6" y="0.3"></slicesourcebounds>
	</sfw>
</metadata>
<g id="Layer_1">
	<rect x="-1291.6" y="1292.1" class="A" width="253.9" height="252.1"></rect>
	<path class="B" d="M-1087.9,1532l-9.2,8.3v3.9h35c0-0.8,0-1.8,0-2.6v-0.2l0,0c1.7-2.6,3.3-5.1,5.4-7.5l0,0
		c0.6-2.4,0.8-5.1,0.8-7.7c2.5,0,5.2-0.2,7.7-0.8l0,0c2.3-2,4.8-3.7,7.5-5.3l0,0h0.2c0.8,0,1.9,0,2.7,0l0,0v-34.7h-4l-8.3,9.1
		c0.8,1.4,1.5,3,1.5,4.7c0,4.9-4,8.7-8.9,8.7c-4.4,0-8.1-3.2-8.7-7.7l0,0l-13.7,2l-2.1,13.6c4.4,0.6,7.7,4.3,7.7,8.7
		c0,4.9-4,8.7-8.9,8.7C-1085,1533.4-1086.4,1532.8-1087.9,1532L-1087.9,1532z"></path>
	<path class="B" d="M-1260.2,1389l-31.4,31.2v16l8.9,8.7l-8.9,8.7v18.3l27.3-27.2l-17.1-16.8l37.5-37.1
		c-4.8-6.5-7.5-14.2-7.5-22.3c0-9.7,4-19.1,10.8-26c6.9-6.9,16.4-10.7,26.2-10.7c8.1,0,16,2.6,22.5,7.5l0,0l37.5-37.1l17.1,16.8
		l27.3-27h-18.5l-8.9,8.7l-8.5-8.7h-16.2l-31.6,31.2c-6.5-2.8-13.3-4.3-20.2-4.3c-13.3,0-26,5.3-35.4,14.6l0,0
		c-9.4,9.3-14.8,22.1-14.8,35.3C-1264.3,1375.8-1262.9,1382.7-1260.2,1389L-1260.2,1389z"></path>
	<path class="A" d="M-1107.4,1475c8.1,7.3,18.7,11.2,29.5,11.2c5,0,10.2-0.8,15-2.6l0,0c14.1-5.5,23.7-18.5,25-33.5l0,0v-6.5
		c-0.2-13.6-11.4-24.3-25-24.3c-1.9,0-4,0.2-5.8,0.6l0,0c-12.7,2-21.8,13-21.8,25.8c0,3.7,0.8,7.3,2.3,10.7l0,0
		c-16.9-13.4-26.6-33.7-26.6-55.2c0-15,4.8-29.8,13.9-42l0,0c12.9-17.2,33.1-27.6,54.7-27.6c2.7,0,5.6,0.2,8.3,0.4l0,0v-26
		c-3.1-0.4-6.2-0.6-9.4-0.6c-40.8,0-76.2,28.2-84.9,67.7l0,0c-2.1,9.3-3.1,18.7-3.1,28.2c0,9.5,1,18.9,3.1,28.2l0,0
		C-1128.3,1447-1119.7,1462.6-1107.4,1475L-1107.4,1475z"></path>
	<path class="A" d="M-1277,1544.1h26c-0.4-2.6-0.4-5.5-0.4-8.3c0-21.5,10.2-41.8,27.7-54.4l0,0c12.3-8.9,27.1-13.8,42.2-13.8
		c21.6,0,42,9.7,55.6,26.4l0,0c-3.3-1.4-7.1-2.2-10.8-2.2c-12.9,0-23.7,9.3-25.8,21.9l0,0c-0.4,1.8-0.6,3.9-0.6,5.7
		c0,13.6,10.8,24.5,24.6,24.7l0,0h6.5c15-1.2,28.1-11,33.7-24.9l0,0c1.7-4.7,2.5-9.7,2.5-14.8c0-11-4-21.3-11.2-29.4l0,0
		c-12.5-12.4-28.1-20.7-45.4-24.5l0,0c-9.4-2-18.7-3-28.3-3c-9.6,0-19.1,1-28.3,3l0,0c-40.2,8.7-68.5,43.8-68.5,84.4
		C-1277.7,1537.8-1277.5,1541.1-1277,1544.1L-1277,1544.1z"></path>
	<path class="C" d="M-1217.5,1406.4c19.8,7.9,38.7,18,56.2,30.4l0,0c-12.5-6.3-26.4-9.5-40.6-9.5c-6.5,0-12.7,0.6-18.9,2l0,0
		c-1.2,0.2-2.5,0.4-3.7,0.4c-2.9,0-5.8-0.8-8.5-2l0,0c0,0.2,0,0.4,0,0.6c0,3.7,1,7.3,2.9,10.3l0,0c-4,3.4-7.5,7.1-10.6,11.4l0,0
		c-3.5,4.9-5.6,11-5.6,17c0,0.4,0,1,0,1.4l0,0c10.6-8.9,23.3-15,37-18l0,0c9.4-2,18.7-3,28.3-3c9.6,0,19.1,1,28.3,3l0,0
		c17.1,3.7,32.9,12.2,45.4,24.5l0,0c-12.3-12.4-20.8-28-24.6-45l0,0c-2.1-9.3-3.1-18.7-3.1-28.2s1-18.9,3.1-28.2l0,0
		c2.9-13.6,9.2-26.2,18.1-36.7l0,0c-0.4,0-1,0-1.5,0c-6.2,0-12.1,2-17.1,5.5l0,0c-4.2,3-8.1,6.7-11.4,10.5l0,0c-3.1-2-6.9-3-10.4-3
		c-0.2,0-0.4,0-0.6,0l0,0c1.5,2.6,2.1,5.5,2.1,8.5c0,1.2-0.2,2.6-0.4,3.9l0,0c-1.2,6.1-2.1,12.6-2.1,18.9c0,14,3.3,27.8,9.6,40.4
		l0,0c-12.5-17.4-22.7-36.1-30.6-55.8l0,0c-4,2.6-7.3,6.1-9.8,10.1l0,0c-7.7-6.1-17.3-9.5-27.1-9.5c-1,0-2.3,0-3.3,0.2l0,0
		c0,1.2-0.2,2.2-0.2,3.4c0,9.7,3.3,19.3,9.6,27l0,0C-1211.3,1399.3-1214.8,1402.6-1217.5,1406.4L-1217.5,1406.4z"></path>
	<path class="A" d="M-1249.6,1333.6c9.4-9.3,22.3-14.6,35.4-14.6c6.9,0,13.9,1.4,20.2,4.3l0,0l31.6-31.2h-24.1
		c0,9.5-7.7,17.2-17.3,17.2s-17.3-7.7-17.3-17.2l0,0h-18.7l-12.5,15.6L-1249.6,1333.6z"></path>
	<path class="A" d="M-1291.6,1362c9.6,0,17.3,7.7,17.3,17.2c0,9.5-7.7,17.2-17.3,17.2l0,0v23.9l31.4-31.2
		c-2.7-6.3-4.2-13.2-4.2-20.1c0-13.2,5.2-26,14.8-35.3l0,0l-26.2-2.8l-15.8,12.4V1362z"></path>
	<path class="D" d="M-1281.2,1428.3l17.1,16.8l-27.5,27.2v71.8h14.4c-0.4-3-0.4-6.3-0.4-9.3c0-25.6,11.4-49.9,31.2-66.3l0,0
		c0-0.4,0-1,0-1.4c0-6.1,1.9-12.2,5.6-17l0,0c3.1-4.3,6.7-8.1,10.6-11.4l0,0c-1.9-3-2.9-6.7-2.9-10.3c0-0.2,0-0.4,0-0.6l0,0
		c2.7,1.4,5.6,2,8.5,2c1.2,0,2.5-0.2,3.7-0.4l0,0c6.2-1.4,12.5-2,18.9-2c14.1,0,28.1,3.2,40.6,9.5l0,0
		c-17.5-12.2-36.2-22.5-56.2-30.4l0,0c2.7-3.9,6.2-7.3,10.2-9.7l0,0c-6.2-7.7-9.6-17-9.6-27c0-1.2,0-2.2,0.2-3.4l0,0
		c1,0,2.3-0.2,3.3-0.2c9.8,0,19.4,3.2,27.1,9.5l0,0c2.5-4.1,5.8-7.5,9.8-10.1l0,0c7.9,19.7,18.3,38.3,30.6,55.8l0,0
		c-6.5-12.6-9.6-26.4-9.6-40.4c0-6.3,0.6-12.6,2.1-18.9l0,0c0.2-1.2,0.4-2.4,0.4-3.9c0-3-0.6-5.9-2.1-8.5l0,0c0.2,0,0.4,0,0.6,0
		c3.7,0,7.3,1,10.4,3l0,0c3.3-3.9,7.3-7.5,11.4-10.5l0,0c5-3.7,11-5.5,17.1-5.5c0.4,0,1,0,1.5,0l0,0c16.4-19.7,41-31,66.8-31
		c3.1,0,6.2,0.2,9.4,0.6l0,0v-14.2h-72.2l-27.3,27.2l-17.1-16.8l-37.5,37.1c-6.5-4.9-14.4-7.5-22.5-7.5c-9.8,0-19.4,3.9-26.2,10.7
		c-6.9,6.9-10.8,16.2-10.8,26c0,8.1,2.7,15.8,7.5,22.3l0,0L-1281.2,1428.3z"></path>
	<path class="D" d="M-1158,1534.6c-3.3-4.3-5.2-9.7-5.2-15.2c0-2,0.2-3.9,0.6-5.7l0,0c2.1-12.6,13.1-21.9,25.8-21.9
		c3.7,0,7.3,0.8,10.8,2.2l0,0c-13.5-16.6-33.9-26.4-55.6-26.4c-15.2,0-30,4.9-42.2,13.8l0,0c-17.5,12.8-27.7,32.9-27.7,54.4
		c0,2.8,0.2,5.5,0.4,8.3l0,0h8.1c-1.2-2.4-1.9-4.9-1.9-7.5c0-1.6,0.2-3,0.6-4.7l0,0c1-3.9,4.6-6.5,8.5-6.5c0.6,0,1.2,0,1.9,0.2l0,0
		c13.1,2.6,26.4,4.5,40,5.1l0,0c-10.6-3.4-21.2-7.7-31.2-12.6l0,0c-4.4-2-7.1-6.5-7.1-11.2c0-1.8,0.4-3.9,1.2-5.5l0,0
		c1.5-3.2,4.8-5.3,8.3-5.3c2.9,0,5.4,1.2,7.3,3.4l0,0c7.1,8.9,16.2,16,26.6,20.7l0,0c-5.4-5.7-10.2-11.8-14.6-18.5l0,0
		c-2.9-4.7-4.6-9.9-4.6-15.4l0,0l0,0c0-4.5,3.5-8.1,8.1-8.1c4.4,0,7.9,3.2,8.1,7.5l0,0c0.6,11.2,5.4,21.5,13.3,29.2l0,0
		c-2.9-5.5-4.4-11.6-4.4-17.8s1.5-12.4,4.4-17.8l0,0c2.1,1.6,4.4,3.4,6.5,5.1l0,0c3.5-2,7.5-3,11.4-3c2.5,0,5.2,0.4,7.7,1.2l0,0
		c-8.9,6.7-14.1,17-14.1,28.2C-1167,1520-1163.8,1528.1-1158,1534.6L-1158,1534.6z"></path>
	<path class="D" d="M-1088.1,1456.5c-1.5-3.4-2.3-7.1-2.3-10.7c0-12.8,9.4-23.5,21.8-25.8l0,0c1.9-0.4,3.7-0.6,5.8-0.6
		c5.6,0,11,1.8,15.4,5.3l0,0c-6.5-5.7-14.8-8.7-23.3-8.7c-11.2,0-21.6,5.3-28.3,14l0,0c-0.8-2.4-1.2-5.1-1.2-7.5
		c0-4.1,1-7.9,2.9-11.4l0,0c-1.9-2-3.5-4.3-5.2-6.3l0,0c5.6-2.8,11.7-4.5,17.9-4.5s12.5,1.4,17.9,4.5l0,0
		c-7.9-7.9-18.3-12.6-29.5-13.2l0,0c-4.4-0.2-7.7-3.9-7.7-8.1c0-4.5,3.5-8.1,8.1-8.1l0,0l0,0c5.6,0,11,1.6,15.6,4.7l0,0
		c6.7,4.3,12.9,8.9,18.5,14.4l0,0c-4.8-10.3-11.9-19.5-20.8-26.4l0,0c-2.3-1.8-3.5-4.5-3.5-7.3c0-3.4,2.1-6.7,5.2-8.3l0,0
		c1.7-0.8,3.5-1.2,5.4-1.2c4.8,0,9.2,2.6,11.2,7.1l0,0c5,10.1,9.2,20.5,12.7,31l0,0c-0.8-13.4-2.5-26.6-5.2-39.7l0,0
		c-0.2-0.6-0.2-1.2-0.2-1.8c0-4.1,2.7-7.5,6.5-8.5l0,0c1.5-0.4,3.1-0.6,4.6-0.6c2.7,0,5.2,0.6,7.7,1.8l0,0v-8.1
		c-2.7-0.4-5.6-0.4-8.3-0.4c-21.6,0-42,10.1-54.7,27.6l0,0c-8.9,12.2-13.9,27-13.9,42C-1114.7,1422.7-1104.9,1442.9-1088.1,1456.5
		L-1088.1,1456.5z"></path>
	<path class="D" d="M-1098.7,1519.2c-5.4,14-18.5,23.7-33.7,24.9l0,0h35.2v-3.9l9.2-8.3c1.5,0.8,3.1,1.4,4.8,1.4
		c5,0,8.9-3.9,8.9-8.7c0-4.5-3.3-8.1-7.7-8.7l0,0l2.1-13.6l13.7-2c0.6,4.5,4.4,7.7,8.7,7.7c5,0,8.9-3.9,8.9-8.7
		c0-1.6-0.4-3.2-1.5-4.7l0,0l8.3-9.1h4v-35.3c-1.2,15-11,28-25,33.5l0,0c-4.8,1.6-9.8,2.6-15,2.6c-11,0-21.4-4.1-29.5-11.2l0,0
		c7.3,8.1,11.2,18.7,11.2,29.4C-1096,1509.5-1097,1514.5-1098.7,1519.2L-1098.7,1519.2z"></path>
	<polygon class="D" points="-1252.3,1307.7 -1240,1292.1 -1291.6,1292.1 	"></polygon>
	<polygon class="D" points="-1275.8,1331 -1249.6,1333.6 -1291.6,1292.1 	"></polygon>
	<path class="C" d="M-1280.6,1379.3c0,6.1-5,11-11,11v6.1c9.6,0,17.3-7.7,17.3-17.2c0-9.5-7.7-17.2-17.3-17.2v6.1
		C-1285.4,1368.3-1280.6,1373.2-1280.6,1379.3L-1280.6,1379.3z"></path>
	<path class="C" d="M-1186.5,1292.1h-6.2c0,6.1-5,11-11,11s-11-4.9-11-11l0,0h-6.2c0,9.5,7.7,17.2,17.3,17.2
		S-1186.5,1301.6-1186.5,1292.1L-1186.5,1292.1z"></path>
	<path class="B" d="M-1047.3,1424.7c6,4.7,9.6,11.6,9.6,19.3l0,0v-103.4c-2.3-1.2-5-1.8-7.7-1.8c-1.5,0-3.1,0.2-4.6,0.6l0,0
		c-4,1-6.5,4.7-6.5,8.5c0,0.6,0,1.2,0.2,1.8l0,0c2.7,13.2,4.4,26.4,5.2,39.7l0,0c-3.5-10.5-7.7-21.1-12.7-31l0,0
		c-2.1-4.3-6.5-7.1-11.2-7.1c-1.9,0-3.7,0.4-5.4,1.2l0,0c-3.1,1.6-5.2,4.9-5.2,8.3c0,2.8,1.2,5.5,3.5,7.3l0,0
		c8.9,7.1,16,16.2,20.8,26.4l0,0c-5.6-5.5-11.9-10.1-18.5-14.4l0,0c-4.6-3-10-4.5-15.6-4.7l0,0l0,0c-4.6,0-8.1,3.7-8.1,8.1
		c0,4.3,3.3,7.7,7.7,8.1l0,0c11,0.6,21.6,5.5,29.5,13.2l0,0c-5.6-2.8-11.7-4.5-17.9-4.5s-12.5,1.4-17.9,4.5l0,0
		c1.7,2.2,3.3,4.3,5.2,6.3l0,0c-1.9,3.4-2.9,7.5-2.9,11.4c0,2.6,0.4,5.1,1.2,7.5l0,0c6.7-8.9,17.3-14,28.3-14
		C-1062.1,1416-1053.8,1419-1047.3,1424.7L-1047.3,1424.7z"></path>
	<path class="B" d="M-1193.8,1530.9c-13.3-0.8-26.8-2.4-40-5.1l0,0c-0.6-0.2-1.2-0.2-1.9-0.2c-4,0-7.5,2.6-8.5,6.5l0,0
		c-0.4,1.4-0.6,3-0.6,4.7c0,2.6,0.6,5.3,1.9,7.5l0,0h104.2c-7.5-0.2-14.6-3.7-19.4-9.5l0,0c-5.6-6.5-8.7-14.6-8.7-23.1
		c0-11.2,5.2-21.5,14.1-28.2l0,0c-2.5-0.8-5-1.2-7.7-1.2c-4,0-7.9,1-11.4,3l0,0c-2.1-1.8-4.2-3.4-6.5-5.1l0,0
		c-2.9,5.5-4.4,11.6-4.4,17.8c0,6.3,1.5,12.4,4.4,17.8l0,0c-7.9-7.9-12.7-18.3-13.3-29.2l0,0c-0.2-4.3-3.7-7.5-8.1-7.5
		c-4.6,0-8.1,3.7-8.1,8.1l0,0l0,0c0,5.5,1.7,11,4.6,15.4l0,0c4.2,6.5,9.2,12.8,14.6,18.5l0,0c-10.4-4.7-19.6-11.8-26.6-20.7l0,0
		c-1.7-2.2-4.4-3.4-7.3-3.4c-3.5,0-6.9,2-8.3,5.3l0,0c-0.8,1.6-1.2,3.7-1.2,5.5c0,4.9,2.7,9.1,7.1,11.2l0,0
		C-1215,1523.2-1204.4,1527.3-1193.8,1530.9L-1193.8,1530.9z"></path>
	<polygon class="D" points="-1137.4,1300.8 -1128.5,1292.1 -1146.1,1292.1 	"></polygon>
	<polygon class="D" points="-1291.6,1454.1 -1282.7,1445.2 -1291.6,1436.4 	"></polygon>
	<polygon class="C" points="-1291.6,1343.4 -1275.8,1331 -1291.6,1292.1 	"></polygon>
	<polygon class="C" points="-1249.6,1333.6 -1252.3,1307.7 -1291.6,1292.1 	"></polygon>
	<path class="D" d="M-1291.6,1390.2c6,0,11-4.9,11-11c0-6.1-5-11-11-11l0,0V1390.2z"></path>
	<path class="D" d="M-1192.8,1292.1h-22.1c0,6.1,5,11,11,11S-1192.8,1298.1-1192.8,1292.1L-1192.8,1292.1z"></path>
</g>
<g id="Camada_1">
</g>
</svg>