<svg version="1.1" xmlns:x="&amp;ns_extend;" xmlns:i="&amp;ns_ai;" xmlns:graph="&amp;ns_graphs;" xmlns="http://www.w3.org/2000/svg" xmlns:xlink="http://www.w3.org/1999/xlink" x="0px" y="0px" viewBox="-1291 1292.1 252.6 252.6" style="enable-background:new -1291 1292.1 252.6 252.6;" xml:space="preserve">
<style type="text/css">
	.A{fill:#FFFFFF;}
	.B{fill:#F5F4F4;}
	.C{fill:#005177;}
	.D{fill:#7D2534;}
	.E{fill:#1B5936;}
</style>
<metadata>
	<sfw xmlns="&amp;ns_sfw;">
		<slices></slices>
		<slicesourcebounds width="253.4" height="252.3" bottomleftorigin="true" x="-0.1" y="0.5"></slicesourcebounds>
	</sfw>
</metadata>
<g id="Layer_1">
	<path class="A" d="M-1290.9,1381.5c3.1,3.7,7.8,5.7,12.5,5.7c0.8,0,1.6,0,2.7-0.2l0,0c-0.6-2.6-0.8-5.5-0.8-8.3
		c0-1.4,0-2.8,0.2-4.3l0,0c1.8,2.4,4.3,4.3,7.4,5.1l0,0c4.9,1.4,10,2.2,15.1,2.2c1.2,0,2.2,0,3.5-0.2l0,0c0.2,0,0.4,0,0.8,0
		c4.3,0,8.2,2.4,10.2,6.1l0,0c1.4,2.4,3.7,4.5,6.5,5.3l0,0c9,5.5,19,9.1,29.3,10.8l0,0c6.1,1.2,12.3,2,18.4,2.6l0,0
		c-5.9-8.7-13.9-16.1-23.1-21.1l0,0c-0.8-0.4-1.6-0.6-2.5-0.6c-0.8,0-1.6,0.2-2.2,0.6l0,0c-1.2,0.6-2.7,0.8-4.1,0.8
		c-4.1,0-7.8-2.2-9.6-5.9l0,0c-4.1-7.7-10.8-13.8-19-16.9l0,0c5.1-4.1,11.7-6.3,18.2-6.3c0.6,0,1.2,0,1.8,0l0,0c0-0.6,0-1.2,0-1.8
		c0-6.5,2.3-13,6.3-18.1l0,0c3.1,8.1,9,14.8,17,18.9l0,0c3.7,1.8,5.9,5.5,5.9,9.5c0,1.4-0.2,2.8-0.8,4.1l0,0
		c-0.4,0.8-0.6,1.6-0.6,2.4c0,0.8,0.2,1.6,0.6,2.4l0,0c5.1,9.1,12.5,17.1,21.3,23l0,0c-0.6-6.1-1.6-12.2-2.7-18.3l0,0
		c-1.6-10.4-5.3-20.3-10.8-29.3l0,0c-0.8-2.8-2.7-5.1-5.3-6.5l0,0c-3.7-2-6.1-5.9-6.1-10.2c0-0.2,0-0.4,0-0.8l0,0
		c0-1.2,0.2-2.2,0.2-3.5c0-5.1-0.8-10.2-2.3-15l0,0c-0.8-2.8-2.7-5.5-5.1-7.3l0,0c1.4-0.2,2.9-0.2,4.3-0.2c2.9,0,5.5,0.2,8.4,0.6
		l0,0c0.2-0.8,0.2-1.6,0.2-2.6c0-4.9-2-9.3-5.7-12.4l0,0l-90,0.6V1381.5z"></path>
	<rect x="-1290.9" y="1292.5" class="B" width="253" height="251.5"></rect>
	<path class="C" d="M-1225.6,1323.7c-0.8,8.7-8.2,15.4-17.2,15.4c-0.4,0-0.8,0-1.2,0l0,0c0,0.4,0,0.8,0,1.2
		c0,8.7-6.8,16.3-15.5,17.1l0,0c-0.8,0-1.6,0.2-2.5,0.2c-4.1,0-8.2-1-11.9-2.8l0,0c-2.5-1.2-5.3-2.2-8.2-2.8l0,0
		c2.7-4.1,6.5-7.3,11-9.1l0,0c-5.9-2.4-9.8-8.1-9.8-14.4c0-1.6,0.2-3.5,0.8-5.1l0,0c1.4-4.3,5.5-7.1,10-7.1c1,0,2,0.2,2.9,0.4l0,0
		c-0.2-1-0.4-2-0.4-2.8c0-4.5,2.9-8.5,7.2-10l0,0c1.6-0.6,3.3-0.8,5.1-0.8c6.3,0,12.3,3.9,14.5,9.8l0,0c1.8-4.5,5.1-8.3,9.2-11l0,0
		c0.6,2.8,1.4,5.5,2.9,8.1l0,0c1.8,3.7,2.9,7.7,2.9,11.8C-1225.4,1322.1-1225.4,1322.9-1225.6,1323.7L-1225.6,1323.7z"></path>
	<path class="D" d="M-1088.8,1460.5c3.9,7.9,8.6,15.4,14.5,22.1l0,0c1.8,2,4.3,3.3,7.2,3.3c1.2,0,2.5-0.2,3.7-0.8l0,0
		c3.9-1.6,7.4-4.5,9.6-7.9l0,0c3.3,6.7,4.9,13.8,4.9,21.3c0,2-0.2,4.1-0.4,6.1l0,0c1.6-0.2,3.5-0.4,5.1-0.4c2.2,0,4.3,0.2,6.3,0.6
		l0,0v-191.4c-4.3,2.8-8.2,5.9-12.1,9.3l0,0c-8.4,7.7-13.1,18.3-13.5,29.7l0,0c-2-2-4.3-3.9-6.8-5.7l0,0c-3.3,8.7-5.1,18.1-5.5,27.6
		l0,0c0,0.4,0,0.6,0,1c0,6.9,2,13.6,6.1,19.1l0,0c3.9,5.5,7,11.6,9.2,18.1l0,0c0.2,0.4,0.2,1,0.2,1.4c0,2.4-2,4.5-4.5,4.5
		c-1.8,0-3.7-1.2-4.3-3l0,0c-4.7-15-15.3-27.8-29.5-35.1l0,0c-0.2,3.5-0.4,6.7-0.4,10.2c0,11.8,1.8,23.6,5.5,34.9l0,0
		c1,3.5,1.6,7.1,1.6,10.6l0,0c-1.8-1-3.9-1.8-6.1-2.2l0,0C-1095.8,1442.8-1092.9,1452-1088.8,1460.5L-1088.8,1460.5z"></path>
	<path class="D" d="M-1170,1521.8c-6.5-2.2-12.7-5.3-18.2-9.1l0,0c-5.7-3.9-12.3-6.1-19.2-6.1c-0.4,0-0.6,0-1,0l0,0
		c-9.4,0.2-18.8,2-27.8,5.5l0,0c1.8,2.2,3.7,4.5,5.7,6.7l0,0c-11.3,0.2-22.1,5.1-29.7,13.4l0,0c-3.5,3.7-6.5,7.7-9.4,12l0,0h192.5
		c-0.4-2-0.6-4.3-0.6-6.3c0-1.6,0.2-3.5,0.4-5.1l0,0c-2,0.2-4.1,0.4-6.1,0.4c-7.4,0-14.7-1.6-21.3-4.9l0,0c3.5-2.4,6.3-5.7,8-9.5
		l0,0c0.4-1.2,0.8-2.4,0.8-3.7c0-2.6-1.2-5.3-3.3-7.1l0,0c-6.8-5.7-14.1-10.6-22.3-14.4l0,0c-8.6-4.1-17.8-6.9-27.2-8.5l0,0
		c0.4,2,1.2,4.3,2.3,6.1l0,0c-3.7,0-7.2-0.6-10.6-1.6l0,0c-11.5-3.7-23.3-5.5-35.2-5.5c-3.5,0-6.8,0.2-10.2,0.4l0,0
		c7.6,14,20.3,24.4,35.4,29.3l0,0c1.8,0.6,3.1,2.2,3.1,4.3c0,2.4-2,4.5-4.5,4.5C-1169.2,1522-1169.6,1522-1170,1521.8L-1170,1521.8z
		"></path>
	<path class="E" d="M-1139.1,1454.6c-15.5-4.9-31.7-7.3-47.9-7.3c-5.7,0-11.3,0.2-17,0.8l0,0c-0.2,0-0.6,0-0.8,0
		c-2.9,0-5.5-1.4-7-3.9l0,0c-3.1-4.7-8.2-7.5-13.7-7.5c-1.6,0-3.3,0.2-4.7,0.6l0,0c-5.1,1.4-10,3.5-14.7,5.7l0,0
		c-2,1-4.5,1.6-6.8,1.6c-2.9,0-5.7-0.8-8.2-2.2l0,0c0.8,7.1,4.7,13.4,10.6,17.3l0,0c-4.3,5.3-6.5,11.8-6.5,18.5c0,0.6,0,1.4,0,2l0,0
		c4.3-4.3,10-6.5,16-6.5c0.8,0,1.8,0,2.7,0.2l0,0c2,0.2,4.1,0.4,6.1,0.4s4.1-0.2,6.1-0.4l0,0c8.4-1,15.1-6.7,17.8-14.6l0,0
		c6.1-0.8,12.3-1.2,18.6-1.2c46.4,0,90,22.8,116.2,60.7l0,0c-3.7,5.5-5.7,12-5.7,18.5c0,2.2,0.2,4.3,0.6,6.3l0,0h18.2
		c2.2-5.3,3.9-10.6,5.1-16.1l0,0c5.5-1,11-2.8,16.2-5.1l0,0v-18.1c-2-0.4-4.3-0.6-6.3-0.6c-6.5,0-13.1,2-18.6,5.7l0,0
		c-38.5-26-61.4-69.3-61.4-115.4c0-6.1,0.4-12.4,1.2-18.5l0,0c8-2.4,13.7-9.3,14.7-17.7l0,0c0.2-2,0.4-4.1,0.4-6.1s-0.2-4.1-0.4-6.1
		l0,0c-0.2-0.8-0.2-1.8-0.2-2.6c0-5.9,2.5-11.6,6.5-15.8l0,0c-0.6,0-1.4,0-2,0c-6.8,0-13.3,2.2-18.6,6.5l0,0
		c-3.9-5.9-10.2-9.8-17.4-10.6l0,0c1.4,2.4,2.2,5.3,2.2,8.1c0,2.4-0.6,4.7-1.6,6.7l0,0c-2.2,4.7-4.1,9.5-5.7,14.6l0,0
		c-0.4,1.4-0.6,3-0.6,4.7c0,5.5,2.9,10.8,7.6,13.6l0,0c2.5,1.6,3.9,4.3,3.9,6.9c0,0.2,0,0.6,0,0.8l0,0c-0.6,5.7-0.8,11.2-0.8,16.9
		c0,16.3,2.5,32.3,7.4,47.7l0,0c-27.6-24.2-44.4-57.9-47.3-94.3l0,0c0-0.2,0-0.6,0-0.8c0-2.6,1-5.1,2.7-7.1l0,0
		c1.8-2,2.9-4.9,2.9-7.7c0-1.6-0.4-3.3-1-4.7l0,0c-2.7-5.7-4.1-11.8-4.5-18.1l0,0c0-0.4,0-0.6,0-1c0-2.6,0.8-5.3,2.3-7.7l0,0
		c-4.1,1.2-8,2.8-11.7,4.9l0,0c-1.4-2.8-2.2-6.1-2.2-9.1c0-1.8,0.2-3.5,0.6-5.3l0,0h-15.5c3.7,3,5.7,7.7,5.7,12.4
		c0,0.8,0,1.6-0.2,2.6l0,0c-2.9-0.4-5.5-0.6-8.4-0.6c-1.4,0-2.9,0-4.3,0.2l0,0c2.5,1.8,4.3,4.5,5.1,7.3l0,0c1.4,4.9,2.3,10,2.3,15
		c0,1.2,0,2.2-0.2,3.5l0,0c0,0.2,0,0.4,0,0.8c0,4.3,2.5,8.1,6.1,10.2l0,0c2.5,1.4,4.5,3.7,5.3,6.5l0,0c5.5,8.9,9.2,18.9,10.8,29.3
		l0,0c1.2,6.1,2,12.2,2.7,18.3l0,0c-8.8-5.9-16.2-13.8-21.3-23l0,0c-0.4-0.8-0.6-1.6-0.6-2.4c0-0.8,0.2-1.6,0.6-2.4l0,0
		c0.6-1.2,0.8-2.6,0.8-4.1c0-4.1-2.2-7.7-5.9-9.5l0,0c-7.8-4.1-13.9-10.8-17-18.9l0,0c-4.1,5.1-6.3,11.6-6.3,18.1c0,0.6,0,1.2,0,1.8
		c-0.6,0-1.2,0-1.8,0c-6.5,0-13.1,2.2-18.2,6.3l0,0c8.2,3,14.9,9.1,19,16.9l0,0c1.8,3.7,5.5,5.9,9.6,5.9c1.4,0,2.9-0.2,4.1-0.8l0,0
		c0.8-0.4,1.6-0.6,2.2-0.6c0.8,0,1.6,0.2,2.5,0.6l0,0c9.2,5.1,17.2,12.4,23.1,21.1l0,0c-6.1-0.6-12.3-1.6-18.4-2.6l0,0
		c-10.4-1.6-20.5-5.3-29.3-10.8l0,0c-2.9-0.8-5.1-2.6-6.5-5.3l0,0c-2-3.7-5.9-6.1-10.2-6.1c-0.2,0-0.4,0-0.8,0l0,0
		c-1.2,0-2.2,0.2-3.5,0.2c-5.1,0-10.2-0.8-15.1-2.2l0,0c-2.9-0.8-5.5-2.6-7.4-5.1l0,0c0.6,1,0.4,2.4,0.4,3.9c0,2.8,0.2,5.5,0.6,8.3
		l0,0c-0.8,0.2-1.6,0.2-2.7,0.2c-4.7,0-9.4-2-12.5-5.7l0,0v15.4c1.6-0.4,3.5-0.6,5.3-0.6c3.3,0,6.3,0.8,9.2,2.2l0,0
		c-2,3.7-3.7,7.5-4.9,11.6l0,0c2.2-1.4,4.9-2.2,7.8-2.2c0.4,0,0.6,0,1,0l0,0c6.3,0.4,12.5,2,18,4.5l0,0c1.4,0.6,3.1,1,4.7,1
		c2.9,0,5.5-1,7.8-2.8l0,0c2-1.6,4.5-2.6,7.2-2.6c0.2,0,0.6,0,0.8,0l0,0C-1197.6,1410.5-1163.5,1427.4-1139.1,1454.6L-1139.1,1454.6
		z"></path>
	<path class="B" d="M-1290.9,1544h21.1c2.9-4.3,5.9-8.1,9.4-12l0,0c7.8-8.3,18.4-13,29.7-13.4l0,0c-2-2-3.9-4.3-5.7-6.7l0,0
		c8.8-3.3,18.2-5.1,27.8-5.5l0,0c0.4,0,0.6,0,1,0c7,0,13.7,2,19.2,6.1l0,0c5.5,3.9,11.7,6.9,18.2,9.1l0,0c0.4,0.2,1,0.2,1.4,0.2
		c2.5,0,4.5-2,4.5-4.5c0-1.8-1.2-3.7-3.1-4.3l0,0c-15.1-4.7-27.8-15.2-35.4-29.3l0,0c3.5-0.2,6.8-0.4,10.2-0.4
		c11.9,0,23.7,1.8,35.2,5.5l0,0c3.5,1,7.2,1.6,10.6,1.6l0,0c-1-1.8-1.8-3.9-2.2-6.1l0,0c9.4,2,18.4,4.9,27,8.9l0,0
		c8,3.9,15.5,8.7,22.3,14.4l0,0c2,1.8,3.3,4.3,3.3,7.1c0,1.2-0.2,2.4-0.8,3.7l0,0c-1.6,3.9-4.5,7.3-8,9.5l0,0
		c6.8,3.3,13.9,4.9,21.3,4.9c2,0,4.1-0.2,6.1-0.4l0,0c0.8-4.9,2.5-9.3,5.3-13.4l0,0c-26.4-38.2-69.8-61-116.2-61
		c-6.1,0-12.5,0.4-18.6,1.2l0,0c-2.5,7.9-9.4,13.6-17.8,14.6l0,0c-2,0.2-4.1,0.4-6.1,0.4c-2,0-4.1-0.2-6.1-0.4l0,0
		c-0.8-0.2-1.8-0.2-2.7-0.2c-5.9,0-11.7,2.4-16,6.5l0,0c0-0.6,0-1.4,0-2c0-6.7,2.2-13.2,6.5-18.5l0,0c-5.9-3.9-9.8-10.2-10.6-17.3
		l0,0c2.5,1.4,5.3,2.2,8.2,2.2c2.5,0,4.7-0.6,6.8-1.6l0,0c4.7-2.2,9.6-4.1,14.7-5.7l0,0c1.4-0.4,3.1-0.6,4.7-0.6
		c5.5,0,10.8,2.8,13.7,7.5l0,0c1.6,2.4,4.3,3.9,7,3.9c0.2,0,0.6,0,0.8,0l0,0c5.7-0.6,11.3-0.8,17-0.8c16.2,0,32.3,2.4,47.9,7.3l0,0
		c-24.1-27.4-58.3-44.3-94.7-47.1l0,0c-0.2,0-0.6,0-0.8,0c-2.7,0-5.1,1-7.2,2.6l0,0c-2,1.8-4.9,2.8-7.8,2.8c-1.6,0-3.3-0.4-4.7-1
		l0,0c-5.7-2.6-11.9-4.1-18-4.5l0,0c-0.4,0-0.6,0-1,0c-2.7,0-5.3,0.8-7.8,2.2l0,0c1.2-4.1,2.9-7.9,4.9-11.6l0,0
		c-2.9-1.4-5.9-2.2-9.2-2.2c-1.8,0-3.5,0.2-5.3,0.6l0,0V1544z"></path>
	<path class="B" d="M-1170.4,1328.6c0.6,1.4,1,3,1,4.7c0,2.8-1,5.5-2.9,7.7l0,0c-1.6,2-2.7,4.5-2.7,7.1c0,0.2,0,0.6,0,0.8l0,0
		c2.9,36.4,19.8,70.3,47.3,94.5l0,0c-4.9-15.4-7.4-31.5-7.4-47.7c0-5.7,0.2-11.2,0.8-16.9l0,0c0-0.2,0-0.6,0-0.8
		c0-2.8-1.4-5.5-3.9-6.9l0,0c-4.7-3-7.6-8.1-7.6-13.6c0-1.6,0.2-3.3,0.6-4.7l0,0c1.4-5.1,3.5-10,5.7-14.6l0,0c1-2,1.6-4.5,1.6-6.7
		c0-2.8-0.8-5.7-2.2-8.1l0,0c7.2,0.8,13.5,4.7,17.4,10.6l0,0c5.3-4.3,11.9-6.5,18.6-6.5c0.6,0,1.4,0,2,0l0,0
		c-4.3,4.3-6.5,10-6.5,15.8c0,0.8,0,1.8,0.2,2.6l0,0c0.2,2,0.4,4.1,0.4,6.1s-0.2,4.1-0.4,6.1l0,0c-1,8.3-6.8,15.2-14.7,17.7l0,0
		c-0.8,6.1-1.2,12.4-1.2,18.5c0,46.1,22.9,89.4,61.2,115.6l0,0c4.1-2.6,8.6-4.5,13.5-5.3l0,0c0.2-2,0.4-4.1,0.4-6.1
		c0-7.3-1.6-14.6-4.9-21.3l0,0c-2.5,3.5-5.7,6.3-9.6,7.9l0,0c-1.2,0.4-2.5,0.8-3.7,0.8c-2.7,0-5.3-1.2-7.2-3.3l0,0
		c-5.7-6.7-10.6-14-14.5-22.1l0,0c-4.1-8.5-7-17.7-8.6-27l0,0c2,0.4,4.1,1.2,6.1,2.2l0,0c0-3.7-0.6-7.1-1.6-10.6l0,0
		c-3.7-11.4-5.5-23.2-5.5-34.9c0-3.5,0.2-6.7,0.4-10.2l0,0c14.1,7.5,24.5,20.1,29.5,35.1l0,0c0.6,1.8,2.2,3,4.3,3
		c2.5,0,4.5-2,4.5-4.5c0-0.4,0-1-0.2-1.4l0,0c-2.2-6.5-5.3-12.6-9.2-18.1l0,0c-3.9-5.7-6.1-12.4-6.1-19.1c0-0.4,0-0.6,0-1l0,0
		c0.2-9.3,2-18.7,5.5-27.6l0,0c2.2,1.8,4.5,3.7,6.8,5.7l0,0c0.2-11.2,5.1-21.9,13.5-29.7l0,0c3.7-3.5,7.8-6.5,12.1-9.3l0,0v-20.7
		h-147.9c-0.8,1.6-1,3.5-1,5.3c0,3.3,0.8,6.3,2.2,9.1l0,0c3.7-2,7.6-3.7,11.7-4.9l0,0c-1.4,2.2-2.3,4.9-2.3,7.7c0,0.4,0,0.6,0,1l0,0
		C-1174.5,1316.8-1173.1,1322.9-1170.4,1328.6L-1170.4,1328.6z"></path>
</g>
<g id="Camada_1">
</g>
</svg>