<?xml version="1.0" encoding="utf-8"?>
<!-- Generator: Adobe Illustrator 23.0.3, SVG Export Plug-In . SVG Version: 6.00 Build 0)  -->
<svg version="1.1" id="Layer_1" xmlns="http://www.w3.org/2000/svg" xmlns:xlink="http://www.w3.org/1999/xlink" x="0px" y="0px"
	 viewBox="0 0 500 500" style="enable-background:new 0 0 500 500;" xml:space="preserve">
<style type="text/css">
	.st0{fill-rule:evenodd;clip-rule:evenodd;fill:#D1D3D4;}
	.st1{fill-rule:evenodd;clip-rule:evenodd;fill:#A7A9AC;}
	.st2{fill-rule:evenodd;clip-rule:evenodd;fill:#808285;}
	.st3{fill-rule:evenodd;clip-rule:evenodd;fill:#58595B;}
</style>
<path class="st0" d="M0,499C0,332.6,0,166.3,0,0c166.7,0,333.4,0,500,0c0,166.7,0,333.3,0,500c-165.7,0-331.3,0-497,0
	C1.6,500,0.1,500.1,0,499z"/>
<path class="st0" d="M4,499c165,0,330,0,495,0c0-166,0-332,0-498C333,1,167,1,1,1c0,165.7,0,331.3,0,497C1.1,499.1,2.6,499,4,499z"
	/>
<path class="st0" d="M1,498C1,332.3,1,166.6,1,1c166,0,332,0,498,0c0,166,0,332,0,498c-165,0-330,0-495,0C2.6,499,1.1,499.1,1,498z"
	/>
<path class="st0" d="M5,498c164.3,0,328.7,0,493,0c0-165.3,0-330.7,0-496C332.7,2,167.3,2,2,2c0,165,0,330,0,495
	C2.1,498.1,3.6,498,5,498z"/>
<path class="st0" d="M5,498c164.3,0,328.7,0,493,0c0-165.3,0-330.7,0-496C332.7,2,167.3,2,2,2c0,165,0,330,0,495
	C2.1,498.1,3.6,498,5,498z"/>
<path class="st1" d="M73,388c0-0.3,0-0.7,0-1c4.8-6.4,6.4-19.1,10-27c10.6-23.4,27.3-42.5,54-53c-3.4-6.3-11.7-7.6-14-15
	c30.1-21.2,80.9,3.6,115,11c10,2.2,21.2,5.8,31,0c-0.9-17.8-20.5-20.6-33-25c-35.9-12.6-64.3-31.1-90-55c-4.6-4.3-11.1-8.4-13-15
	c6.3-2.8,15.9-7.3,25-4c-0.8-5-6.2-9-10-15c-10-15.5-17-36.6-19-61c30.8,4.6,57.1,13.6,75,31c-3-10.3,0.8-20.7,5-27
	c26.6,24.2,50.2,52.8,65,91c6.9,17.8,8.2,41.3,28,46c7.5-7.6,3.7-19.6,2-28c-5.3-25.8-17.9-53.2-20-81c-1.2-15.4-0.1-28.7,8-37
	c6.9,2.4,10.1,8.6,14,14c10.2-22.2,25.1-38.7,47-50c10.4-5.3,22-8.4,33-14c0.7,0,1.3,0,2,0c-1.1,5.1-5.7,8.5-9,12
	c-25.2,27.2-44.1,57.4-55,98c-12.4,46.5-8.5,109.6,8,149c-45.5-17.3-102.9-20-149-8c-35.6,9.3-61.1,25-85,44c-8.4,6.6-16,16.7-24,20
	C73.7,388.1,73.3,387.9,73,388z"/>
<path class="st1" d="M500,500c0-33.3,0-66.7,0-100c-1.7,1.6-6.2,0.5-7,3c9.2,22,3,47.7-19,48c-16.7,0.3-29.3-14.2-28-36
	c-12.6,0.6-22.8-1.2-33-3c-0.5,8.3,3.4,20.5,2,33c18.7,0.1,36.3,9.9,36,29c-0.4,21.4-26.3,28.9-47,18c-2.5,1.1-2.9,4.4-3,8
	C434,500,467,500,500,500z"/>
<path class="st2" d="M0,368c0-11.3,0-22.7,0-34c7.5-3.7,7.5-9.3,0-13c0-17.7,0-35.3,0-53c21.3-19.7,40.7-41.2,62-61
	c-9.2-16.2-17.1-33.5-17-57c0.5-78.3,87.9-133.1,161-89c22.1-18.9,41.6-40.4,62-61c18,0,36,0,54,0c0.3,3.3,3,4.3,5,6
	c3.7-0.7,5-3.7,7-6c11.3,0,22.7,0,34,0c-6.6,7-13.2,14.2-20,21c-6.9,6.9-13.7,14.7-22,19c-10.6-12.1-22-23.3-34-34
	c-29.2,24.7-57,58.4-87,84C157.3,40.8,66.2,79.9,68,152c0.6,23.7,10.9,40.8,22,54c-21.5,21.9-41,42-63,64c-5,5-21.2,16.8-21,22
	c0.2,3.7,11.9,12.9,17,18c2.7,2.7,18.1,15.2,18,18c0-0.1-6.9,6.9-10,10C21.1,347.8,5.4,362.8,0,368z"/>
<path class="st2" d="M171,500c-5.5-4-14.2-9.3-24-14c-11.3-5.4-27.2-13.7-42-10c-10.7,2.7-15.1,12.6-19,24
	C114.3,500,142.7,500,171,500z"/>
<path class="st2" d="M281,426c9.3-13.2,24-19.5,39-23c-10.3-10.7-33.4-6.4-43,2c-0.3-7.3-1.8-13.5-6-17c-5.5,7.8-8.9,20-10,34
	c-1.2,15.8,4.2,34.5-5,44c-9.7-1.3-11.2-13.7-12-24c-2-26.4,3.1-80.4-29-69c-21.4,7.6-27.1,30.7-16,55c4,8.8,9.6,16.6,16,22
	c9.6,8,24.6,11,25,25c-12.3,4.4-20-5-27-11c-6.5-5.6-13.2-11.7-19-20c-10-14.3-18-46.3-40-44c-17.3,1.8-24.8,29.1-20,47
	c6,22.2,31.9,30.6,56,36c15.5,3.5,34.3,5,43,17c16.7,0,33.3,0,50,0C266.8,481.9,267.7,444.9,281,426z"/>
<path class="st2" d="M483,189c-3.5-15.5-7.5-32.4-17-43c-3.5-3.9-11.3-10-17-12c-16.9-5.9-47.2,2-49,20c-2.2,21.9,30.4,30,44,39
	c7.9,5.3,15.1,13.1,21,20c5.8,6.7,15.3,16.2,10,27c-9.8,0.2-13.3-7.8-17-13c-8.7-12.2-14.6-22.2-31-29c-10-4.1-24.3-8.1-36-3
	c-15.6,6.8-29.3,34.8-6,44c10,4,31.9,4.4,44,5c11,0.5,38.5-0.1,37,11c-1.3,10-31.5,5.2-44,6c-13.5,0.9-25.2,3.6-33,10
	c2.4,4.6,9.5,4.5,15,6c3.1,1.3-1.7,4.4-3,7c-4.3,8.1-6.4,26.2,1,36c7.5-29.8,31.4-53.7,71-49c10.9,1.3,17.8,6.3,27,11
	c0-16.3,0-32.7,0-49C488.4,223.4,486.7,205.1,483,189z"/>
<path class="st2" d="M477,122c2.4,12.2,10.4,27,16,38c2,4,4.4,8.3,7,10c0-28,0-56,0-84C483,90.4,472.5,99.5,477,122z"/>
<path class="st3" d="M0,83C0,55.3,0,27.6,0,0c27.7,0,55.3,0,83,0c-3,7.8-12.5,6.8-15,16c-4.3,15.7,5.9,39.2,0,53
	c-18,0-35.5-0.5-52-2C9.2,70.8,6.8,79.2,0,83z"/>
<path class="st3" d="M67,500c11.3-72.5,64.3-115,133-131c60.3-14,135.7-13.1,154,36c3.9,10.6,4.1,37.7-4,40c-0.7,0.2-6.1-3.5-8-4
	c-32.5-8.9-52,38.4-29,59c20.3,0,40.7,0,61,0c11-11.3,24.1-23.8,26-45c2-22.2-3.7-46.8-10-66c17.1,7.6,42.5,13.6,66,11
	c20.1-2.2,34-14.8,44-25c0-21,0-42,0-63c-23.2-24.9-75.3,2.5-56,38c-17.7,13.1-45.1,3.5-57-7c-26.3-23.2-30.2-71.6-23-119
	c12.2-79.7,57.5-144.9,136-157c0-17,0-34,0-51c-71,12.8-123.6,58.6-156,117c-14.7,26.4-24.9,58.1-27,95c-2,35.7,2.5,71.5,15,104
	c-27.5-9.8-55.4-16-91-16c-62.8,0-110.4,24.1-148,56c-37.7,32-67.7,73.4-76,128C33.6,500,50.3,500,67,500z"/>
</svg>
