<?xml version="1.0" encoding="utf-8"?>
<!-- Generator: Adobe Illustrator 23.0.3, SVG Export Plug-In . SVG Version: 6.00 Build 0)  -->
<svg version="1.1" id="Layer_1" xmlns="http://www.w3.org/2000/svg" xmlns:xlink="http://www.w3.org/1999/xlink" x="0px" y="0px"
	 viewBox="0 0 500 500" style="enable-background:new 0 0 500 500;" xml:space="preserve">
<style type="text/css">
	.st0{fill-rule:evenodd;clip-rule:evenodd;fill:#D1D3D4;}
	.st1{fill-rule:evenodd;clip-rule:evenodd;fill:#A7A9AC;}
	.st2{fill-rule:evenodd;clip-rule:evenodd;fill:#808285;}
	.st3{fill-rule:evenodd;clip-rule:evenodd;fill:#58595B;}
</style>
<path class="st0" d="M1,0c166.3,0,332.6,0,499,0c0,166.7,0,333.3,0,500c-166.6,0-333.3,0-500,0C0,334.3,0,168.7,0,3
	C-0.1,1.6-0.2,0.2,1,0z"/>
<path class="st1" d="M250,37c6.6,9.8,16.1,24.4,27,37c10.2,11.8,20.7,24,24,38c6.3,27.2-9.5,45.3-8,72c-2.9,4.8-9,9.1-12,18
	c-1.9,5.7-0.8,12-4,16c-3.3,4.2-12.4,8.1-19,2c2.8-17.3,22.7-17.2,15-38c-4.7-12.8-20-24-23-38c-3.8,5.8-5,12.5-9,19
	c-6.4,10.4-16.8,17-16,29c1,13.7,15.9,12.6,17,28c-6.5,6.1-15.7,2.3-19-2c-3-4-2.6-12-5-18c-3-7.5-7.1-10.7-10-15
	c-1.4-31.6-14.5-47.4-9-72c3.2-14.5,13.4-26.8,23-38C233,62.2,242,50.5,250,37z"/>
<path class="st1" d="M218,223c-4.1-3.2-14-2.8-21-6c-6.5-3-9.5-8-13-9c-3.3-0.9-7.8,0.3-11,0c-14-1.5-26-9.1-40-10
	c-47.2-2.9-62.6,37.8-96,51c4.6,5.8,11.7,8.4,18,13c17.7,12.7,34.3,33.7,57,39c27.2,6.3,45.3-9.5,72-8c4.7-3.5,10.1-9.1,19-12
	c4.8-1.6,10.6-0.8,14-3c5.4-3.5,8.9-12.8,3-20c-15.5,1.2-14.1,16-28,17c-14.5,1.1-19.9-10.3-29-16c-7.1-4.4-14.5-4.4-19-10
	c19.9-1.5,29.7-26.2,49-24c12.7,1.5,11.7,16.2,27,17C226,236.8,222.4,226.4,218,223z"/>
<path class="st1" d="M379,198c-23.5-2.1-37.9,10.8-62,9c-4.7,2.3-8.7,7.8-17,11c-8.4,3.2-17.5,2.4-21,8c-2.1,3.3-3.7,11.4,1,16
	c14.7-1.1,13.7-13.2,25-16c18.7-4.6,32.5,20.4,51,24c-14,3-25.2,18.3-38,23c-20.8,7.7-20.5-12.4-38-15c-5.9,7.2-2.4,16.6,3,20
	c4.6,2.9,13.6,2,20,5c7.5,3.4,9.8,8.9,15,11c0.4-3.5,5-2.1,7-2c14.5,0.6,26.7,9,41,10c40.7,2.9,56.2-24.2,78-40
	c6.5-4.7,14.6-6.4,19-13C433.2,237.6,417,201.4,379,198z"/>
<path class="st1" d="M222,283c-2.6,4.1-1.6,12.1-4,18c-3.2,7.7-9.9,11.9-11,17c-0.5,2.3,1.2,6.5,1,9c-1.3,13.4-9.1,26.1-10,41
	c-2.9,46.7,37.5,61.2,51,95c6-4.7,8.5-11.6,13-18c16.3-23.1,43.3-40,40-80c-1.2-14.1-10.1-26.6-10-41c0-2.9-0.8-5.4,2-7
	c-3.6-4.3-7.8-7.6-11-15c-2.7-6.3-2.2-14.7-5-19c-3.4-5.4-12.8-8.9-20-3c1.2,15.4,15.9,14.3,17,28c1.1,14.8-11.4,21.7-17,31
	c-3.8,6.4-3.8,13-9,17c-1.3-20.7-30.4-31.3-23-53c3.1-9.2,15.7-9,16-23C235.9,273.5,224.8,278.6,222,283z"/>
<path class="st2" d="M97,346c0-0.3,0-0.7,0-1c11.8-8.2,27-11,40-18c14.9-8,30.8-18.2,43-29c7.8-6.9,12.7-13.1,20-16
	c5.2-2,13.8-1.8,18-5c3.3-2.5,9.4-12.5,1-18c-14.5,2.2-18.3,21.8-38,14c-12.5-5-23.4-20.5-37-23c14-3,25.1-18.3,38-23
	c20.8-7.7,20.8,12.2,38,15c5.9-6,2-16-2-19c-4.3-3.2-11.4-2-17-4c-7.5-2.7-15.9-10.7-24-18c-7.6-6.8-16.1-12.9-24-18
	c-14.7-9.4-27-14.4-42-21c-4.3-1.9-11.4-2.9-13-9c5-5.6,12.6,1.4,20,4c7.6,2.7,16.5,6.3,23,1c-0.7-16-13.7-19.6-21-29
	c5.9-0.4,6.8-5.9,10-9c7.9,8.4,12.7,20,28,21c5.4-6.5,1.8-15.1-1-23c-2.6-7.3-10.6-16.1-3-20c8.2,7.4,10.2,18.5,14,28
	c7.5,18.6,20.3,36.8,33,51c7.5,8.4,15.1,16.7,18,25c1.9,5.5,1,12,4,16c3,4,13,7.9,19,2c-1.2-15.4-16-14.1-17-28
	c-1.1-15,11.1-21.2,17-31c3.8-6.4,3.8-13,9-17c1.9,19.7,27.1,29.7,24,50c-1.8,11.5-17.4,12.9-16,26c5.1,6.5,15.4,1.3,18-2
	c3.6-4.7,2.6-13.3,5-19c3-7.3,11.3-15,18-23c12.9-15.5,24.7-32.7,32-51c2-5,3.9-10.1,6-15c1.8-4.1,3.5-10.5,9-12
	c5.8,5.1-1.4,12.6-4,20c-2.6,7.6-6.2,16.5-1,23c16-0.7,19.6-13.7,29-21c-0.1,6.4,5,7.7,9,10c-8.2,8.1-20.1,12.6-21,28
	c6.5,5.2,15,1.8,23-1c7.3-2.6,16.1-10.6,20-3c-7.3,8.5-18.4,10.2-28,14c-18.5,7.4-36.9,20.4-51,33c-8.4,7.5-16.6,15.1-25,18
	c-5.5,1.9-12,1-16,4c-4,3-7.9,13-2,19c15.4-1.3,14.2-15.9,28-17c15-1.2,21.2,11.1,31,17c6.4,3.9,13,3.8,17,9
	c-20.5,1.8-31.4,30.1-53,23c-9-3-10.5-17.1-23-15c-6.2,5.9-1.9,15,2,18c4.3,3.3,12.3,2.3,19,5c8.2,3.4,11.2,9.9,17,11
	c2.3,5.7,6.2,8.3,11,12c15.1,11.8,34.1,23.1,52,30c8,3.1,18.2,4.5,21,12c-4.9,6-12.7-1.5-20-4c-7.6-2.6-16.4-6-23-1
	c0.7,16,13.7,19.6,21,29c-4.8,1.2-7,5-9,9c-9.3-7.4-13.2-20.2-29-21c-5,6.7-1.8,15,1,23c2.5,7.1,11.1,16.1,3,20
	c-6.5-5.6-9.1-14.3-12-22c-9.4-25-23.8-46.7-41-63c-2.4-4.8-7.8-8.9-11-17c-2.5-6.3-1.9-14-5-18c-2.7-3.5-13.4-9.2-18-1
	c-0.9,11.8,12.2,13.2,15,23c3.9,13.8-6.9,22.9-13,32c-2.4,3.6-4.4,6.8-6,10c-1.9,3.6-2.5,8.3-6,10c-2-19.5-26.3-29.5-24-49
	c1.5-12.7,16-12,17-27c-4.2-4.5-12.5-3.3-16-1c-5.5,3.6-4.4,12.8-7,20c-2.8,7.8-10.9,16.1-18,24c-13.4,15-25.9,34.4-33,53
	c-1.8,4.6-3.9,10.4-6,15c-1.6,3.5-4.3,11.7-10,10c-3.2-5.2,2.5-12.9,5-20c2.6-7.5,6.7-15.5,1-22c-15.9,0.7-19.5,13.8-29,21
	c-1.3-4.7-4.7-7.3-9-9c7.3-9.4,20.3-13,21-29c-13.3-7.4-27.8,5.8-41,8C100.2,347.5,98.5,346.9,97,346z"/>
<path class="st3" d="M204,48c-8-5.2-13.1-12.8-24-13c-20.2-0.3-32.2,25.1-30,48c0.6,5.8,3.8,10.3,3,16c-4.1,0.3-7-5.6-9-9
	c-4.5-7.5-9.7-17.8-11-29c-3.1-27.6,18.9-58.4,49-49C195.6,16.3,201.5,30.5,204,48z"/>
<path class="st3" d="M356,90c2.4-4,5.5-9,7-13c10.6-27.4-0.5-62.8-30-66c-22.1-2.4-35.8,15.1-37,36c6.7-3.5,14.9-12.5,26-12
	c14.4,0.7,26,16.9,28,34c1.3,10.7-2,20.5-3,30C351,99.3,353.9,93.4,356,90z"/>
<path class="st3" d="M115,93c-7.3-8.5-13.4-15-19-24c-12-19.6-19.7-42-36-50c-9.1-4.5-34.3-8.7-42-2c-12.1,10.5,0.3,44.5,7,52
	c11.4,12.8,31.2,19,48,30c16.3,10.7,26.7,28.9,49,30C137.4,120.5,123.1,102.4,115,93z"/>
<path class="st3" d="M407,115c7.5-6.5,15.1-13.7,24-19c19.7-11.7,41.3-18.8,50-36c4.7-9.3,8.9-34.1,2-42c-7.3-8.3-33.7-3.7-43,1
	c-20.5,10.3-28.1,40.8-43,61c-10.9,14.8-25.8,21.1-26,42c2.2,2.4,4.6,4.8,7,7C390.9,130.3,399.2,121.7,407,115z"/>
<path class="st3" d="M233,39c-16.2,19.2-41.9,37.8-48,63c-7.1,29.5,10.6,56.7,19,75c1.1,2.5,0.8,6.1,4,7c0.5-26.1-12-38.4-10-62
	c1.7-19.9,13.8-35.1,25-48c10.6-12.3,20-24.2,28-36c10.6,27.9,43.1,43.8,50,76c5.7,26.6-10.1,43.8-8,71c9.1-26.1,30-49.3,22-84
	c-4.1-17.5-17.4-31.4-30-44c-13.3-13.3-24.9-27.3-34-41c-0.1-0.6-0.1-1.2-1-1C243.7,21.6,239.8,31,233,39z"/>
<path class="st3" d="M92,146c-3.2-2.2-6.6-4.4-10-6c-28.5-13.5-67.1-4.7-71,27c-3.1,25.2,14.8,34,36,37c-3.4-6.7-12.3-13.5-12-25
	c0.4-15.6,17.5-27.5,36-29c9.9-0.8,18.9,2.6,28,3C100,149.1,94.5,147.7,92,146z"/>
<path class="st3" d="M482,149c-15-20-46.5-17.8-67-7c-5.4,2.8-13.5,5.3-14,11c9.6-0.7,19.3-4.2,30-3c17.9,2,34.3,14.5,34,30
	c-0.1,7.9-4.2,11.8-7,16c-1.9,2.9-7.1,7.6-4,8C483.6,204.4,499.1,171.8,482,149z"/>
<path class="st3" d="M170,201c-15.2-7.2-29.2-15.9-49-17c-52.2-2.9-69.9,49.4-106,65c5.5,6.5,13.6,11,21,17
	c21.4,17.4,41.2,46.9,73,50c31.5,3.1,52.7-13.6,76-24c-28.7-0.2-44.9,15.3-72,9c-14.7-3.4-27.8-14.3-39-24
	c-11.8-10.3-23.6-19.8-36-27c29.4-12.4,46.9-49.4,85-52c23.4-1.6,35.2,10.5,61,10C180.4,203.7,174.4,203.1,170,201z"/>
<path class="st3" d="M464,234c-20.6-16.4-38.3-42.5-66-49c-29.7-7-56.8,10.7-75,19c-2.2,1-6.2,0.9-7,4c26.6,0.7,39.7-12.8,64-10
	c17.2,1.9,31.8,12.8,44,23c12.6,10.6,24.3,22,38,29c-13.2,7.6-25.4,18.2-38,29c-12.1,10.4-26.4,21.2-44,23c-21.5,2.2-34.1-6.8-50-9
	c-3.1-0.4-9.2-3.1-12,1c23.6,9.5,50.2,29,81,21c36.7-9.6,55.8-50.3,86-64C479.4,244.6,471.2,239.8,464,234z"/>
<path class="st3" d="M46,296c-19,2.9-33.5,12.8-35,29c-2.6,28.3,27.5,48.4,56,41c12.2-3.1,24-9.3,33-18c-5.7-3-10.2,1.3-16,2
	c-22.7,2.6-48.7-8.9-49-29c-0.2-11.9,7.8-16.5,13-25C47.3,296,46.7,296,46,296z"/>
<path class="st3" d="M417,350c-5.8-0.6-10.5-4.1-16-3c2.3,5.3,9.6,9.9,16,13c22.8,11.2,53.6,7.6,66-10c16.1-22.9,0.4-54.9-30-54
	c-0.6,0.1-1.2,0.1-1,1C482.3,321.7,452.9,353.9,417,350z"/>
<path class="st3" d="M193,347c-4.2,9.8-8.2,19.7-9,32c-2.9,42.8,31.4,61.3,50,84c6,7.3,9.7,16.5,17,22c14.8-30.5,54.8-50.2,64-88
	c6.3-25.9-7.2-50.2-15-66c-2.4-4.8-4.2-10.3-7-13c-1.4,23.9,11.8,39,9,63c-3.1,26.5-26.3,43.5-39,61c-4.9,6.8-7.6,15-14,20
	c-11.1-29.6-47.6-46.1-51-83c-2.2-23.9,10.2-36.2,10-62c-0.2-0.8-0.8-1.2-2-1C202.6,328,197.3,337,193,347z"/>
<path class="st3" d="M90,388c-6.5,5.5-13.2,10.6-22,16c-18.1,11-36.4,19-45,30c-8.7,11.2-13.4,43.5-4,50c12.3,8.5,41.9-2.3,48-7
	c12.6-9.7,20.5-32.5,31-49c3.6-5.7,11-13.8,18-22c5.5-6.4,15.8-16.5,13-27c-1.5-5.6-7.4-8.2-15-7C104.9,373.5,97.3,381.8,90,388z"/>
<path class="st3" d="M387,408c6.7,7.7,11,15.1,17,25c11.4,18.8,21.5,40.6,36,48c9.1,4.6,35.8,9.1,43,2c9.7-9.5,0.1-42.7-7-51
	c-9.9-11.6-31.9-20-48-30c-7.5-4.7-15.2-11.1-22-17c-8.3-7.2-16.2-16.7-27-13C359.8,378.5,380,400,387,408z"/>
<path class="st3" d="M321,489c12,2.4,23.6-2.3,29-6c24.8-17.1,19.1-59.3,1-81c-1.9-0.8-0.7-3-3-1c-1,0-1.2,0.8-2,1
	c11.5,26.1-1.1,63.5-26,63c-10.9-0.2-16.2-7.6-24-13C298.7,470.3,305.3,485.8,321,489z"/>
<path class="st3" d="M150,401c-8.8,14.1-18.4,31.1-17,50c1.6,21.6,22,45,49,37c13.7-4.1,19.7-17.5,22-35c-6.7,4.5-15.9,13.5-28,12
	c-17.1-2.1-27.5-25.4-26-46c0.5-6.4,3.9-12.1,3-18C152,401,151,401,150,401z"/>
</svg>
