<?xml version="1.0" encoding="utf-8"?>
<!-- Generator: Adobe Illustrator 23.0.3, SVG Export Plug-In . SVG Version: 6.00 Build 0)  -->
<svg version="1.1" id="Layer_1" xmlns="http://www.w3.org/2000/svg" xmlns:xlink="http://www.w3.org/1999/xlink" x="0px" y="0px"
	 viewBox="0 0 500 500" style="enable-background:new 0 0 500 500;" xml:space="preserve">
<style type="text/css">
	.st0{fill:#D1D3D4;}
	.st1{fill-rule:evenodd;clip-rule:evenodd;fill:#A7A9AC;}
	.st2{fill-rule:evenodd;clip-rule:evenodd;fill:#808285;}
	.st3{fill-rule:evenodd;clip-rule:evenodd;fill:#58595B;}
	.st4{fill-rule:evenodd;clip-rule:evenodd;fill:#D1D3D4;}
</style>
<rect x="0" class="st0" width="500" height="500"/>
<path class="st1" d="M112.9,0c-1.7,15.9-19.5,15.8-30,22.9c-0.6,7.5,1.8,18-2.9,21.4c-24.6-0.8-33.5-30.4-58.6-21.4
	C15.6,49,46.8,57.2,42.9,81.4c-3.9,2.8-12.5,0.9-18.6,1.4c-9.9,8.2-7.3,28.8-24.3,30C0,75.2,0,37.6,0,0C37.6,0,75.2,0,112.9,0z"/>
<path class="st1" d="M417.1,22.9c0.7,6.9-2,17.3,2.9,20c23,3.2,31.7-27.1,57.1-21.4c10.7,25.2-23.3,36.1-20,58.6
	c2.1,6.5,17.2,0,21.4,4.3c6,10.7,6.3,27.1,21.4,28.6c0-37.6,0-75.2,0-112.9c-37.6,0-75.2,0-112.9,0
	C389.1,15.6,406.6,15.7,417.1,22.9z"/>
<path class="st1" d="M262.9,58.6c-3.6-2.8-12.5-7.6-15.7-5.7c-16.4,9.8-31.9,31.4-40,52.9c-8.2-0.9-23.9-8.6-28.6,0
	c-0.1,8.6,9.8,9.1,14.3,12.9c20.3,16.8,8.9,53.2,27.1,74.3c4.4,5.1,10.5,7.1,15.7,11.4c-5.8,5.2-4.8,17.1-10,22.9
	c-7.3,3.1-16.6,4.4-22.9,8.6c-1.9-5.9-5.2-11.5-10-15.7c-13.5-11.8-30.6-9.4-48.6-12.9c-10.2-2-21.3-8.9-25.7-14.3
	c-4.2-5.1-3.3-14.8-14.3-14.3c-6,7.5,0.7,20.5,1.4,30c-20.9,5.9-66.3,30.6-47.1,54.3c10.1,12.5,31.2,23.1,47.1,30
	c-1.4,9.6-6.9,21.8-1.4,30c10.1-1.4,10.5-11.7,15.7-17.1c9.8-10.2,22.8-10.9,41.4-12.9c21-2.2,33.9-12.4,42.9-28.6
	c4.4,7.6,12.7,3.3,18.6,7.1c8.8,5.8,6.6,16.8,12.9,25.7c-37,7.3-18.5,70-45.7,87.1c-6,2.1-12.7,3.5-12.9,11.4
	c8.3,6.1,22.3,0.3,31.4-1.4c5.1,17,16.2,37.3,28.6,47.1c26.4,20.9,47.9-30.6,55.7-47.1c8.1,2.4,22.4,7.2,30,1.4
	c-4.5-11.7-16.6-13.3-22.9-22.9c-6.1-9.2-5.6-20.4-7.1-34.3c-2.3-20.6-14.3-35.3-28.6-42.9c7.6-4.4,3.2-12.8,7.1-18.6
	c5.9-8.8,17.4-6.2,25.7-12.9c3.1,7.1,6.8,14,12.9,18.6c16.8,12.7,45.7,4.6,64.3,17.1c12.2,8.3,6.2,16.8,21.4,22.9
	c6.1-8.3,0.3-22.3-1.4-31.4c21-5.9,66.8-30,47.1-54.3c-10.1-12.5-31.3-23-47.1-30c2.4-8.1,7.2-22.4,1.4-30
	c-11.9,2.7-8.4,8.9-12.9,14.3c-7.7,9.4-17.9,13.9-28.6,15.7c-9.3,1.6-19.7-0.5-30,2.9c-14.3,4.6-21.6,15.8-28.6,25.7
	c-9.3-6.4-18.3-4.8-24.3-14.3c-3.4-5.4-1.3-13.2-7.1-18.6c35.6-7.6,21.3-65.3,42.9-84.3c5.1-4.5,15.2-4.7,15.7-14.3
	c-8.6-5.6-21.3,0.2-31.4,1.4C286.4,89,275.5,68.4,262.9,58.6z"/>
<path class="st1" d="M267.1,250c-6.2,20.8-28.5,21.1-34.3-1.4c4.1-6.4,9.3-11.6,15.7-15.7C257.8,235.5,263.6,241.7,267.1,250z"/>
<path class="st1" d="M0,500c37.6,0,75.2,0,112.9,0c-1.5-15.2-17.9-15.5-28.6-21.4c-4.3-4.3,2.2-19.4-4.3-21.4
	c-22.4-3.3-33.4,30.7-58.6,20c-5.6-25.4,24.5-34.3,21.4-57.1c-2.1-6.5-17.2,0-21.4-4.3c-5.6-11-6.5-26.9-21.4-28.6
	C0,424.8,0,462.4,0,500z"/>
<path class="st1" d="M478.6,417.1c-7.3,0.8-18.4-2.2-21.4,2.9c-3.5,22.6,30.5,33.6,20,58.6c-25.8,5.1-32.4-20.8-55.7-22.9
	c-6.3,2.7-3.8,14.3-4.3,22.9c-11.8,5.3-27.8,6.5-30,21.4c37.6,0,75.2,0,112.9,0c0-37.6,0-75.2,0-112.9
	C485.1,389.4,483.9,405.3,478.6,417.1z"/>
<path class="st2" d="M202.9,0c14.8,0,29.5,0,44.3,0c-5.1,10.7-14.8,19-22.9,27.1c-23.5,23.5-49.4,47.3-72.9,72.9
	c0,17.1,0,34.3,0,51.4c-18.9,3.2-33.8-4.4-50,0c-8.1,2.2-18.6,17.2-25.7,24.3C58,193.4,44,207.5,27.1,224.3
	C19,232.4,11.2,242.5,0,245.7c0-14.3,0-28.6,0-42.9c14.1-12,26.9-26.9,42.9-42.9c9.5-9.5,32.8-38.3,45.7-41.4
	c10.4-2.5,19.6,1.9,30,0c2.2-10.6-3-20.7,0-31.4c1.8-6.7,13.1-14.5,20-21.4C159.7,44.6,187.3,16.1,202.9,0z"/>
<path class="st2" d="M264.3,14.3c20.2,19.8,40.3,38.9,62.9,61.4c6.7,6.7,20.9,18.8,22.9,25.7c4.3,15.7-1.9,31.1-1.4,48.6
	c18.7,6,34.7-3.2,51.4,1.4c8,2.2,18.5,17.1,25.7,24.3c21.7,21.7,40.3,38.4,61.4,60c3.9,3.9,6.7,10.5,12.9,11.4c0-14.8,0-29.5,0-44.3
	c-20.7-18.6-43.2-43.2-64.3-64.3c-6.4-6.4-16.6-18.3-22.9-20c-10.8-3-20.8,2.2-31.4,0c0-11,0-21.9,0-32.9
	c-27.3-29.4-57-56.3-84.3-85.7c-14.8,0-29.5,0-44.3,0C254.9,5.7,260,10.1,264.3,14.3z"/>
<path class="st2" d="M205.7,232.9c8.3-0.7,14.7-3.4,21.4-5.7c2.4-6.7,5-13.1,5.7-21.4c-12.3-0.6-21.8-3.9-32.9-5.7
	C202.3,210.6,205,220.8,205.7,232.9z"/>
<path class="st2" d="M267.1,205.7c0.9,17.2,9.1,27.1,27.1,27.1c0.9-7.7,2.9-14.2,2.9-22.9c0.4-2.6,6.8-10.7,1.4-10
	C289.1,202.9,278.6,204.7,267.1,205.7z"/>
<path class="st2" d="M400,350c-16.3-0.9-36.1,1.8-50-1.4c-3.1,15.5,4.1,35,0,50c-2.2,7.9-16.9,18.3-24.3,25.7
	c-24.6,24.6-51.9,51.7-72.9,75.7c14.8,0,29.5,0,44.3,0c18.6-20.7,43.2-43.2,64.3-64.3c6.4-6.4,18.3-16.6,20-22.9
	c3-10.8-2.2-20.8,0-31.4c11,0,21.9,0,32.9,0c29.4-27.3,56.3-57,85.7-84.3c0-14.8,0-29.5,0-44.3C464.4,283,434.4,318.7,400,350z"/>
<path class="st2" d="M0,297.1c20.8,18.7,43.1,43.1,64.3,64.3c6.5,6.5,16.5,18.3,22.9,20c11.2,3.1,20.5-3.5,31.4,1.4
	c0,10.5,0,21,0,31.4c27.3,29.4,57,56.3,84.3,85.7c14.8,0,29.5,0,44.3,0c-1-6.2-7.6-9.1-11.4-12.9c-27.3-26.8-56.1-57.4-84.3-85.7
	c0-17.1,0-34.3,0-51.4c-14.9-2.6-34.3,3.5-48.6,0c-8.1-2-19.7-15.4-27.1-22.9c-18.1-18.1-32.8-32.8-50-50
	C17.5,268.9,10.9,258,0,254.3C0,268.6,0,282.9,0,297.1z"/>
<path class="st2" d="M200,300c10.8-2.1,21.2-4.5,32.9-5.7c-0.1-18-9.9-26.3-27.1-27.1C205.2,279.4,201.8,289,200,300z"/>
<path class="st2" d="M294.3,268.6c-0.3-1.1-1.2-1.7-2.9-1.4c-15.7,1.4-23.6,10.7-24.3,27.1c11.6,1.2,22.1,3.6,32.9,5.7
	C297.9,289.8,295.6,279.6,294.3,268.6z"/>
<path class="st3" d="M147.1,0c19.5,0,39,0,58.6,0c-18.8,20.9-42.6,42.6-65.7,65.7c-6,6-18.3,16.9-20,22.9c-3,10.7,2.2,21,0,31.4
	c-10.2,1.9-19.6-2.5-30,0c-14.1,3.4-35.7,32.9-45.7,42.9C27.7,179.5,13.7,192.6,0,205.7c0-19.5,0-39,0-58.6
	C49.6,98.7,98.7,49.6,147.1,0z"/>
<path class="st3" d="M360,65.7c6,6,18.3,16.8,20,22.9c3,10.8-2.2,20.8,0,31.4c10.2,1.9,19.6-2.5,30,0c14.1,3.4,35.7,32.9,45.7,42.9
	c16.6,16.6,30.6,29.7,44.3,42.9c0-19.5,0-39,0-58.6C450.4,98.7,401.3,49.6,352.9,0c-19.5,0-39,0-58.6,0
	C313.1,20.9,336.9,42.6,360,65.7z"/>
<path class="st3" d="M235.7,60c-12,10.6-23.7,31-27.1,47.1c7.3,0.8,7.6,8.6,14.3,10c2.6-2.2,4.4-5.2,10-4.3
	c14.2,5.4,5.7,33.3,17.1,41.4c12.6-7.4,2-38,18.6-41.4c5.4-0.6,6.7,2.8,10,4.3c4.2-4.3,9.9-7.3,12.9-12.9
	C283.9,82.5,260.7,37.9,235.7,60z"/>
<path class="st3" d="M233.7,196.2c-5.4,7-2,19.9-6.5,26.1c-8.8,12-21.4,4.4-32.6,13.1c-6.3,6.7-6.3,22.7,0,29.4
	c10.4,7.8,23.1,2.7,31,11.4c8,8.8,2,24.9,13.1,32.6c6.6,1.5,16.5,2.9,22.8,0c10.3-7.8,5.4-20.3,11.4-29.4c8.3-12.5,25.5-6.5,35.9-18
	c2.1-7.1,2.1-15.7,0-22.8c-7.3-9-25-7.6-34.3-14.7c-4.8-9.4-4.6-23.7-11.4-31C248.5,187.6,240.1,187.9,233.7,196.2z"/>
<path class="st4" d="M247.1,234.3c5.2-1.1,19.4,5.6,20,14.3c0.5,6.5-10,18.2-15.7,18.6C234.3,268.4,225.6,238.9,247.1,234.3z"/>
<path class="st3" d="M104.3,208.6c-18.6,6.8-64.3,28.7-47.1,52.9c9.4,13.2,31.1,24.6,48.6,30c3.4-5.2,9.1-8,11.4-14.3
	c-3.3-1.4-4.6-4.9-4.3-10c5.2-14.8,36.1-3.9,41.4-18.6c-10.5-9-37.4-1.7-41.4-17.1c-0.8-5.5,3.6-5.9,4.3-10
	C112.6,217.4,109.7,211.7,104.3,208.6z"/>
<path class="st3" d="M394.3,208.6c-2.4,4.8-6.2,8.1-10,11.4c-0.7,6,4.2,6.3,2.9,12.9c-5.2,14.3-33.2,5.8-41.4,17.1
	c7.6,12.4,37.9,2.1,41.4,18.6c0.9,5.7-3.8,5.7-2.9,11.4c4,3.6,6.4,8.8,11.4,11.4c23.7-7.2,41.3-20.7,52.9-40
	C439.1,228.5,418.8,216.5,394.3,208.6z"/>
<path class="st3" d="M0,352.9c49.6,48.5,98.7,97.5,147.1,147.1c19.5,0,39,0,58.6,0c-18.8-20.9-42.6-42.6-65.7-65.7
	c-6-6-18.3-16.8-20-22.9c-3-10.8,2.2-20.8,0-31.4c-10.4-1.9-19.6,2.5-30,0c-14.1-3.4-35.7-32.8-45.7-42.9
	C27.7,320.5,13.7,307.4,0,294.3C0,313.8,0,333.3,0,352.9z"/>
<path class="st3" d="M434.3,360c-6,6-16.8,18.3-22.9,20c-10.8,3-20.8-2.2-31.4,0c-1.9,10.4,2.5,19.6,0,30
	c-3.4,14.1-32.8,35.7-42.9,45.7c-16.6,16.6-29.7,30.6-42.9,44.3c19.5,0,39,0,58.6,0c48.5-49.6,97.5-98.7,147.1-147.1
	c0-19.5,0-39,0-58.6C479.1,313.1,457.4,336.9,434.3,360z"/>
<path class="st3" d="M231.4,387.1c-5.7,0.9-5.7-3.8-11.4-2.9c-2.5,5.1-9,6.3-11.4,11.4c7.9,23.1,20.6,41.3,40,52.9
	c23-9.4,35.2-29.5,42.9-54.3c-5.2-2.4-6.8-8.4-12.9-10c-4.7,0.1-5.5,4.1-11.4,2.9c-14.2-5.3-5.2-33.8-17.1-41.4
	C238.2,353.9,248,383.7,231.4,387.1z"/>
</svg>
