<?xml version="1.0" encoding="utf-8"?>
<!-- Generator: Adobe Illustrator 23.0.3, SVG Export Plug-In . SVG Version: 6.00 Build 0)  -->
<svg version="1.1" id="Layer_1" xmlns="http://www.w3.org/2000/svg" xmlns:xlink="http://www.w3.org/1999/xlink" x="0px" y="0px"
	 viewBox="0 0 500 500" style="enable-background:new 0 0 500 500;" xml:space="preserve">
<style type="text/css">
	.st0{fill-rule:evenodd;clip-rule:evenodd;fill:#D1D3D4;}
	.st1{fill-rule:evenodd;clip-rule:evenodd;fill:#A7A9AC;}
	.st2{fill-rule:evenodd;clip-rule:evenodd;fill:#808285;}
	.st3{fill-rule:evenodd;clip-rule:evenodd;fill:#58595B;}
</style>
<path class="st0" d="M74,0c108.7,0,217.3,0,326,0c-7.2,19.7-30.6,27.7-58,24c10.1,11.7,21.9,26.7,18,49c-34.6-2.4-55.4-17.8-74-38
	c-4.7-5.1-11.2-18.3-20-18c-5.1,0.2-11.3,6.3-10,14c1.5,8.8,16.1,15,22,21c16.5,16.7,31.1,40.5,32,69c-11.8,1.5-22.9-0.5-32-5
	c-7.2-3.6-11.5-12.4-17-11c5.5,22.1-8.9,56.2-24,56c-15.9-0.2-29.4-36.8-24-58c-10.9,10.1-28.7,22.9-49,17c1-31.8,19.1-54.1,38-72
	c4.6-4.4,17.2-12.5,17-20c-0.1-5.5-7-10.7-10-11c-9-0.8-15.5,12.1-20,17c-19.6,21.3-40.2,36.7-75,39c-1.8-11.7,0.5-23,5-32
	c3.6-7.1,12.4-11.6,11-17C103.5,27.7,81.4,18.7,74,0z"/>
<path class="st0" d="M0,400c19.7-7.2,27.7-30.7,24-58c11.5,9.8,26.3,21.7,48,18c-0.2-32.9-16.2-54.8-37-74c-4.6-4.2-17.8-11.2-18-19
	c-0.2-5.3,4.8-11.8,13-11c9.6,0.9,14.4,14.3,20,20c16.5,17,41.2,32.9,70,34c6.9-20.3-9.7-38.6-16-49c20.6,5.5,56.3-7.8,57-23
	c0.7-16.1-34.8-30.5-58-25c10.3-11.6,21.3-27,18-49c-32.1,0.7-54.1,18.1-73,38c-4.2,4.5-12.6,17.2-20,17c-5.3-0.1-10.7-6.8-11-10
	c-0.7-8.4,12.4-16.6,17-21c19.8-18.8,37.1-38,39-73c-20.4-7.1-38.6,9.8-49,16c3.8-27-5-49.5-24-57C0,182.7,0,291.3,0,400z"/>
<path class="st0" d="M403,259c-47.7,0-95.3,0-143,0c-2.3,45.7-0.3,95.7-1,143c-36.6,18.4-64,46-67,98c42.3,0,84.7,0,127,0
	c3.2-27,29.4-40.2,57-40c14.2,0.1,31.9,9,35-4c2.8-11.9-15.1-25.1-23-30c-19-11.8-43.3-13.6-64-10c-0.7-19.1,9.5-27.1,22-33
	c-16.4-6.6-24.1-32.8-13-50c18.1-11.7,42.8-2.1,51,13c3.7-13.7,15.9-24,33-21c-5.4,22.8-2.4,45.6,9,64c4.5,7.2,19.6,25.6,31,22
	c11.7-3.7,2.9-22.7,3-36c0.2-28.4,14.1-52.8,40-56c0-42.3,0-84.7,0-127C448.6,195.3,419.9,221.2,403,259z"/>
<path class="st1" d="M400,1c6.4,57.2,36.6,90.8,93,98c-64.8,4.6-107.8,30.9-141,67c-61.7,0-123.3,0-185,0c-1.8,44.4-1,91.4-1,139
	c0,14,3.4,34.7,0,46c-2.4,8-18,18.2-25,27c-23.6,29.8-38,65.1-41,113c-10.6-52.4-39.8-86.2-99-90c17.4-9.5,27.5-30.9,23-59
	c11.5,10.2,26.7,21.9,49,18c0.3-30.2-17.7-53.4-37-72c-4.5-4.3-17.1-12.6-18-19c-1.2-8.3,4-13.9,12-13c8.8,1,14.1,13.7,19,19
	c16.9,18,40.3,32.3,71,36c6.3-21-7.3-38.4-17-50c21.4,5.6,58.2-7.6,58-24c-0.2-15.5-35.1-29.4-58-24c10.5-11.3,21.4-27.1,18-49
	c-34.7,1.8-53.3,17.6-73,38c-4.1,4.3-12.4,16.7-19,17c-6.3,0.3-11.7-5.5-11-13c0.7-7.8,12.7-14.1,18-19c19.3-17.7,35-41.3,38-72
	c-21-6.3-38.4,7.3-50,17c3.8-26.4-4.1-49.1-22-57c41.5-6.8,68-28.6,72-73c9.3,16.9,30.8,26.3,58,22c-9.9,11.9-21.7,26.8-18,49
	c26.6-0.1,52-15.1,69-32c6.1-6,12.6-21.5,22-23c7.4-1.1,13.8,3.2,14,10c0.2,7.5-12.4,15.6-17,20c-19.4,18.7-36,37.7-38,72
	c20.2,5.9,38.2-6.9,49-17c-5.2,20.8,7.5,56.8,23,58c16.4,1.3,30.8-34.5,25-58c11.9,9.9,26.8,21.7,49,18c-1-30-16.3-54-34-71
	c-5.1-4.9-18.7-11-20-19c-1.2-7.4,3.4-13.7,12-13c8.1,0.7,14.1,12.8,19,18c18.1,19.2,41.7,35.3,73,38c4-22.8-7.6-38.3-18-50
	C369.2,27.9,391.9,19.5,400,1z"/>
<path class="st1" d="M464,405c-8.4,15.8-25.9-0.6-34-11c-14.5-18.6-18.5-43.3-14-70c-18.2-0.2-27.6,8.4-32,22
	c-7.4-13.1-34.5-27.3-50-13c-7.9,7.3-7.8,23.4-4,33c3.8,9.6,13.5,12.8,15,19c-13.9,3.5-20.8,13.8-21,31c26.7-4.6,53.9,0.3,71,14
	c7,5.6,28.3,29.4,9,34c-5,1.2-11.8-2.5-17-3c-33.1-3.4-63.6,8.6-68,39c37.3,0,74.7,0,112,0c3.5-42.5,26.5-65.5,69-69
	c0-37.3,0-74.7,0-112C464.1,323.3,455.4,365.6,464,405z"/>
<path class="st2" d="M51,0C49,32,31.8,48.8,0,51C0,34,0,17,0,0C17,0,34,0,51,0z"/>
<path class="st2" d="M500,69c0-23,0-46,0-69c-23,0-46,0-69,0C434.6,42.4,457.3,65.7,500,69z"/>
<path class="st2" d="M366,197c-56.3,0-112.7,0-169,0c0,42.1,0,83,0,126c0,13.1,2.9,29.9,0,41c-2.2,8.3-17.9,18-25,26
	c-24.9,28.2-40.4,61.2-42,110c10.7,0,21.3,0,32,0c1.2-60.1,30.4-92.3,67-117c0-50.7,0-106.7,0-154c51.3,0,102.7,0,154,0
	c24.8-36.5,56.8-65.8,117-67c0-10.7,0-21.3,0-32C434.8,131.8,396.6,160.6,366,197z"/>
<path class="st2" d="M0,500c23,0,46,0,69,0c-3.3-42.7-26.6-65.4-69-69C0,454,0,477,0,500z"/>
<path class="st2" d="M431,500c23,0,46,0,69,0c0-23,0-46,0-69C457.5,434.5,434.5,457.5,431,500z"/>
<path class="st3" d="M51,0c7.7,0,15.3,0,23,0C70.2,45.6,45.2,69.9,0,74c0-7.7,0-15.3,0-23C31.7,48.7,48.8,31.8,51,0z"/>
<path class="st3" d="M490,99c-63.5,5.2-105.3,32.1-139,67c-61.7,0-123.3,0-185,0c0,45.8,0,90.7,0,138c0,14.7,3.3,33.9,0,46
	c-2.1,7.8-17.5,19.8-24,28c-23.8,29.8-39.5,63.7-42,112c-11.3-51.7-40-86-100-89c0,10,0,20,0,30c42.3,3.7,65.6,26.4,69,69
	c20.3,0,40.7,0,61,0c2-47.1,16.5-82.5,42-111c6.8-7.6,22.5-15.6,25-24c3.1-10.2,0-29.4,0-42c0-43.2,0-84.5,0-126
	c56.3,0,112.7,0,169,0c30.5-36.5,68.9-65.1,134-67c0-20.3,0-40.7,0-61c-42.6-3.4-65.3-26.7-69-69c-10,0-20,0-30,0
	C404.6,59.1,436.8,89.5,490,99z"/>
<path class="st3" d="M383,229c-51.3,0-102.7,0-154,0c0,47.3,0,103.3,0,154c-36.6,24.8-65.8,56.8-67,117c10,0,20,0,30,0
	c3.1-51.6,29.1-80.2,67-97c0-48,0-96,0-144c48,0,96,0,144,0c16.7-37.9,45.5-63.9,97-67c0-10,0-20,0-30
	C439.8,163.1,407.8,192.5,383,229z"/>
</svg>
