<svg version="1.1" id="Camada_1" xmlns:x="&amp;ns_extend;" xmlns:i="&amp;ns_ai;" xmlns:graph="&amp;ns_graphs;" xmlns="http://www.w3.org/2000/svg" xmlns:xlink="http://www.w3.org/1999/xlink" x="0px" y="0px" viewBox="-599 582.7 218.5 252.6" style="enable-background:new -599 582.7 218.5 252.6;" xml:space="preserve">
<style type="text/css">
	.A{fill:#C2BFC0;}
	.B{fill:#7B786F;}
</style>
<switch>
	
	<g i:extraneous="self">
		<polygon class="A" points="-599,646 -489.7,582.9 -380.3,646 -380.3,772.2 -489.7,835.3 -599,772.2 		"></polygon>
		<polygon points="-489.7,590.7 -592.2,649.9 -592.2,768.3 -489.7,827.5 -387.2,768.3 -387.2,649.9 		"></polygon>
		<polygon class="A" points="-585.3,764.3 -585.3,653.9 -489.7,598.6 -394,653.9 -394,764.3 -489.7,819.6 		"></polygon>
		<path class="B" d="M-489.7,606.5l88.8,51.3v102.6l-88.8,51.3l-88.8-51.3V657.8L-489.7,606.5 M-489.7,590.7l-102.5,59.2v118.4
			l102.5,59.2l102.5-59.2V649.9L-489.7,590.7L-489.7,590.7z"></path>
	</g>
</switch>

</svg>