<?xml version="1.0" encoding="utf-8"?>
<!-- Generator: Adobe Illustrator 23.0.3, SVG Export Plug-In . SVG Version: 6.00 Build 0)  -->
<svg version="1.1" id="Layer_1" xmlns="http://www.w3.org/2000/svg" xmlns:xlink="http://www.w3.org/1999/xlink" x="0px" y="0px"
	 viewBox="0 0 500 500" style="enable-background:new 0 0 500 500;" xml:space="preserve">
<style type="text/css">
	.st0{fill:#D1D3D4;}
	.st1{fill:#939598;}
	.st2{fill:#58595B;}
</style>
<polygon class="st0" points="43.2,125 260.3,0 477.3,125 477.3,375 260.3,500 43.2,375 "/>
<path class="st1" d="M255.9,1.7c-0.9,5.3-6.4,6.4-9.5,9.5c-9.7,9.8-16.1,23.2-22.6,37.3c-10.6,23-24.1,47.7-46,59.9
	c-22.7,12.6-49.4,10-78.1,7.8c-20.2-1.6-37.4,1.1-52.1,6.9c15.2-8.5,26.8-19.7,46.9-21.7c19.4-1.9,34.4,2.8,48.6,1.7
	c30.9-2.3,48.6-23.5,59-46c7.1-15.2,12.4-29.1,26-39.1C236.9,11.8,246.7,9.8,255.9,1.7z"/>
<path class="st1" d="M106.6,89.4c15.9-1.2,27,3.2,39.9,1.7c30.9-3.6,38.4-32.2,52.1-53.8c-0.1-1.1-0.3-2.1-1.7-1.7
	C168.1,54.9,135.5,70.3,106.6,89.4z"/>
<path class="st1" d="M375.7,91.1c12.3,1.3,25-2.2,39.1-2.6c-31-16.8-60.7-34.8-91.1-52.1c-0.5,0-1,0.1-0.9,0.9
	C335.7,59.5,344.6,88,375.7,91.1z"/>
<path class="st1" d="M43.2,166.7c7.4,31.5,32.8,43.6,37.3,76.4c5.6,40.9-29.6,57-37.3,92c0,10.7,0,21.4,0,32.1
	c4.3-8.5,5-17.4,8.7-25.2c13.6-28.4,41-46.4,43.4-86.8c1.1-18.6-5.9-36.3-13-49.5c-8.3-15.3-21.3-27.8-29.5-44.3
	c-4.3-8.5-5.7-18.4-9.5-28.6C43.2,144.1,43.2,155.4,43.2,166.7z"/>
<path class="st1" d="M469.5,159.7c-6.6,13.7-16.7,24.4-24.3,36.5c-9.4,14.9-18.9,31-19.1,53.8c-0.5,50.1,42.1,71.6,51.2,113.7
	c0-11,0-22,0-33c-2.7-4.6-3-9.4-5.2-13.9c-10.1-20.5-32.1-36.3-32.1-66c0-16.7,8.1-31.2,15.6-42.5c7.8-11.9,17.4-22.4,21.7-37.3
	c0-10.7,0-21.4,0-32.1C474,143.3,472.6,153.2,469.5,159.7z"/>
<path class="st1" d="M43.2,303c11.1-17.3,30.1-34.8,24.3-62.5c-2.6-12.3-11-22.6-17.4-32.1c-2.1-3.2-3.7-7.1-6.9-9.5
	C43.2,233.5,43.2,268.2,43.2,303z"/>
<path class="st1" d="M453,254.3c1.5,20.7,15.5,32.6,24.3,46.9c0-33.6,0-67.1,0-100.7C466.9,215.6,451.3,231.1,453,254.3z"/>
<path class="st1" d="M82.3,397.6c20.5,6.9,48-2.6,70.3,1.7c21.3,4.1,36.1,19.4,45.1,35.6c7,12.5,10.3,26.7,19.1,37.3
	c9.5,11.5,21.9,13.9,34.7,23.4c-27.5-25.6-32.2-67.2-59.9-92c-14.1-12.6-32.2-19.3-53-20.8c-22.3-1.6-44.1,6.2-70.3,1.7
	c-3.9-0.7-9-4-13.9-2.6C65.6,385.7,70.7,393.7,82.3,397.6z"/>
<path class="st1" d="M298.5,478.3c17.8-14.9,21.7-45.5,39.9-63.4c8.9-8.7,23.1-15.3,38.2-16.5c20.2-1.7,42.7,5.8,61.6-0.9
	c5.3-1.9,9.5-5.3,13.9-7.8c4.5-2.6,9.6-4.7,13.9-8.7c-0.6,0-1.2,0-1.7,0c-26.7,10-53.9-0.5-82.5,1.7c-27.4,2.1-49.3,15.4-62.5,31.3
	c-17.6,21.1-24.7,53.9-42.5,72.9c-2.3,2.5-6.5,4.6-6.9,8.7C278.2,487.9,290.2,485.2,298.5,478.3z"/>
<path class="st1" d="M147.4,410.6c-11.8-1.5-24.9,1.4-38.2,2.6c29.4,16.6,58.2,33.8,87.7,50.3C186.1,441.8,176.3,414.1,147.4,410.6z
	"/>
<path class="st1" d="M389.6,410.6c-34-1.9-48,16.3-58.2,38.2c-2.3,4.9-5.7,9.4-6.1,14.8c21.3-12.9,43.6-26.4,64.2-38.2
	c7.5-4.3,15.4-7.1,21.7-13C402.6,412.9,396.3,411,389.6,410.6z"/>
<path class="st1" d="M305.4,66c8.3,15.6,20.5,32.2,36.5,41.7c23.6,13.9,50.1,10.7,81.6,8.7c7.5-0.5,16-0.8,24.3,0
	c8.3,0.8,16.4,4.5,23.4,5.2c-15-7.6-25.3-18-44.3-20c-20.1-2.1-33.3,3.3-50.3,1.7c-10-0.9-20.1-4-26.9-7.8
	c-29-16.3-30.7-58-57.3-77.3c-4.2-3.1-9.1-5.1-13.9-7.8c-3.9-2.3-8.1-6-13.9-6.9C286.4,17.2,294,44.5,305.4,66z"/>
<path class="st2" d="M260.3,4.3c3.3,20.3,13.1,37.3,24.3,53c14,19.5,30.9,43.2,27.8,74.7c-4.9,49.4-44.5,63.6-51.2,112.8
	c-2.1-2-2.9-5.5-3.5-7.8c-0.8-3.1-0.7-6.5-1.7-9.5c-12.3-37-48-56.7-47.7-102.4c0.2-38.3,26.9-60.6,40.8-86.8
	C254.1,28.6,257.6,17,260.3,4.3z"/>
<path class="st0" d="M259.4,41.7c-5.3,32.8-38.1,48.9-37.3,85.1c0.1,3.5,1,8.1,1.7,11.3c4.9,22,22,35.6,30.4,53
	c3,6.3,3.2,13.5,6.9,20.8c4.3-36.9,37.6-48.3,37.3-86.8c-0.3-37.9-32.2-50.5-38.2-85.9C259,39.2,259.6,40.5,259.4,41.7z"/>
<path class="st2" d="M235.1,120.7c-1.4,23.2,13.1,36.7,24.3,57.3c3.8-2.7,5.9-7.3,8.7-11.3c7.8-11.3,18.5-25.7,18.2-43.4
	c-0.4-22.8-17.7-34.5-26-51.2C251.6,88.7,236.3,101,235.1,120.7z"/>
<path class="st2" d="M45,128.5c0-0.3,0-0.6,0-0.9c10.5,1.6,20,6.1,29.5,6.9c25.1,2.2,45.6-4,65.1-2.6c41,3,62.7,27.1,77.3,55.6
	c9,17.7,17.5,39.8,31.3,53c2.9,2.7,8.7,4.1,8.7,8.7c-10.9-4.4-21.4-7.5-34.7-7.8c-18.7-0.5-35.4,4.3-51.2,3.5
	c-15.6-0.8-31.4-3.3-44.3-10.4c-14.5-8-26.8-23.4-34.7-37.3C78.2,173.3,72.5,143.5,45,128.5z"/>
<path class="st0" d="M91.9,161.5c4.8,7.1,7.7,14.9,11.3,22.6c10.7,23.3,27.5,43,59,45.1c12.8,0.9,26-2.9,40.8-2.6
	c9.2,0.2,19,4.1,26,5.2c-28.4-22.8-28.4-60.2-56.4-76.4c-5.1-2.9-12.9-5.7-20-6.9c-21.4-3.9-58.7,6.5-76.4-4.3
	C82.2,150,87.6,155.1,91.9,161.5z"/>
<path class="st2" d="M475.5,127.6c0,0.6,0,1.2,0,1.7c-10.2,5.1-17.7,14-23.4,22.6c-6.4,9.5-11.2,20.5-15.6,30.4
	c-9.1,20.2-20.9,39.5-40.8,51.2c-13.5,8-32.5,11-49.5,11.3c-15,0.3-30.3-4.3-48.6-3.5c-12.5,0.6-24.4,4.7-33.9,6.9
	c7.4-8.1,14.1-12.4,20-20.8c10.7-15.3,15.4-32.7,24.3-47.7c8.3-14,18.9-28.5,34.7-37.3c11.8-6.5,26.9-9.6,39.9-10.4
	c19.5-1.2,40.1,5,65.1,2.6C457.2,133.6,465.7,129.4,475.5,127.6z"/>
<path class="st0" d="M368.8,148.4c-29.2,5.3-40.6,25.2-50.3,46.9c-5.6,12.3-14.1,25.5-22.6,33.9c-0.1,0.1-5,1.2-1.7,2.6
	c17.9-9.3,46.1-1.2,66-2.6c8.9-0.6,18.9-2.7,26.9-6.9c27.5-14.4,30.2-49.4,50.3-70.3c2.3-2.4,6.3-4,6.9-7.8
	C424.5,155.1,389.8,144.6,368.8,148.4z"/>
<path class="st2" d="M147.4,159.7c-12.9-1.5-26.9,2.1-41.7,2.6c10.5,13,12.4,30.8,24.3,41.7c15.4,14.1,41.8,14.8,69.4,10.4
	C186.2,192.7,178.3,163.3,147.4,159.7z"/>
<path class="st2" d="M367.9,160.6c-26.9,6.6-34,33.4-46,54.7c30.9,2.7,54.9,2.9,70.3-12.2c9.5-9.3,14.9-26.7,20.8-37.3
	c0.2-0.3,4.2-3.5,0.9-4.3C396.2,162.3,381.4,157.3,367.9,160.6z"/>
<path class="st2" d="M256.8,252.6c0.8,0,0.7,1.1,0.9,1.7c-19.7,12.2-27.9,32.8-36.5,52.1c-8.5,19.1-21.4,38.9-38.2,50.3
	c-13.6,9.3-30.1,11.1-46,12.2c-27.8,1.9-64.7-8.1-90.3,5.2c6-7.1,12-10.1,17.4-16.5c10.8-13,15.5-29.2,22.6-43.4
	c6.9-13.9,16.1-27.9,27.8-38.2c14-12.3,32.7-17.9,52.1-19.1c20.1-1.3,41.5,4.9,65.1,2.6C239.9,258.7,247.8,255.7,256.8,252.6z"/>
<path class="st0" d="M163,272.6c-29.4,2-46.2,18.5-57.3,39.9c-4.9,9.5-8.2,21.7-16.5,32.1c-1.6,2.1-4.9,4-6.9,6.1
	c-2.1,2-5.4,4.2-5.2,6.9c16.9-11.2,45.5-2,66-3.5c9.2-0.7,19.7-2.7,27.8-6.9c26.4-14,31-49.7,49.5-69.4c2.2-2.4,6.5-4.6,6.9-8.7
	C211.1,279,180,271.4,163,272.6z"/>
<path class="st2" d="M475.5,372.4c0,0.6,0,1.2,0,1.7c-12.5-3.6-25.1-7.7-38.2-7.8c-17.4-0.2-33.4,4-49.5,3.5
	c-15.1-0.5-31.4-3-45.1-10.4c-15-8.1-26.3-22.6-34.7-36.5c-9.1-14.9-13.2-33.1-23.4-47.7c-4.6-6.5-10.7-12.6-15.6-17.4
	c-1.4-1.3-6.1-1.8-4.3-5.2c24,13.8,61.9,2.4,90.3,4.3c11.6,0.8,26.2,3.3,37.3,8.7c16.4,7.9,27.9,24.4,36.5,38.2
	c11.6,18.7,18.5,43,33,58.2C465.6,366.1,470.4,370.2,475.5,372.4z"/>
<path class="st0" d="M314.1,297.7c5.6,11.4,9.8,23.5,17.4,33c9.2,11.4,23.2,20,39.1,22.6c22.6,3.6,55.9-7.3,74.6,4.3
	c-7.9-8.4-15.4-15.7-20.8-26c-5.6-10.7-8.9-22.6-15.6-32.1c-8.4-11.9-21.8-22.7-39.1-26c-22.2-4.3-55,6.8-77.3-4.3
	C301.7,278.1,308.7,286.9,314.1,297.7z"/>
<path class="st2" d="M260.3,256.1c0.7-0.2,0.8,0.3,0.9,0.9c7.2,46.9,46,66.2,51.2,112c4.9,42.4-27.5,69.2-41.7,97.2
	c-3.6,7-6.7,14-8.7,22.6c-0.5,2.1,1.6,7-2.6,7.8c-2-25.8-15.9-41.4-27.8-58.2c-11.2-15.9-23.2-36.3-23.4-61.6
	c-0.2-25.5,12-45.4,23.4-61.6c11.7-16.6,24.6-32,27.8-56.4C259.3,257.5,259.3,256.2,260.3,256.1z"/>
<path class="st0" d="M223.8,363.7c-9.5,45.4,29.8,57.5,35.6,99c2.3,0.2,2.3-3.2,2.6-4.3c0.6-2.2,1.1-4.1,1.7-6.1
	c4.8-14.5,11.8-22.3,19.1-33c4.7-7,10.6-17.4,13-25.2c14.6-46.9-30.4-66.9-35.6-104.2C256.2,320.2,229.9,334.9,223.8,363.7z"/>
<path class="st2" d="M172.6,284.7c-22.6-1.3-41,6.3-51.2,23.4c-6.1,10.3-7.8,21.9-15.6,32.1c17.2-1.7,29.1,3.6,42.5,1.7
	c26.2-3.7,36.1-27.2,46-46c2-3.7,5.7-8.4,3.5-10.4C188.7,288,180.1,285.1,172.6,284.7z"/>
<path class="st2" d="M394.8,301.2c-7.6-8.9-20.6-15.4-35.6-16.5c-13.1-1-22.1,2.7-37.3,1.7c12.2,23,21.2,51.8,52.1,55.6
	c13,1.6,26.4-2.6,41.7-2.6C405.9,327.6,403.9,311.9,394.8,301.2z"/>
<path class="st2" d="M235.1,373.3c-1.9,26.9,16.7,37.3,24.3,56.4c3.1-1.3,4.5-5.2,6.1-7.8c5.5-8.7,13.8-17.6,17.4-26.9
	c11.7-30.6-10.8-52.1-22.6-72C251.5,339.5,236.5,353.5,235.1,373.3z"/>
</svg>
