<svg version="1.0" id="Camada_1" xmlns="http://www.w3.org/2000/svg" xmlns:xlink="http://www.w3.org/1999/xlink" x="0px" y="0px" viewBox="-1291 1292.1 252.6 252.6" style="enable-background:new -1291 1292.1 252.6 252.6;" xml:space="preserve">
<style type="text/css">
	.ladsvg-5756-st0{fill:#A58A58;}
	.ladsvg-5756-st1{fill:#D8CDBF;}
	.ladsvg-5756-st2{fill:#FFFFFF;stroke:#1D1D1B;}
	.ladsvg-5756-st3{fill:#7D2534;}
	.ladsvg-5756-st4{fill:#1B5936;}
	.ladsvg-5756-st5{fill:#005177;}
</style>
<rect x="-1290.8" y="1292.2" class="ladsvg-5756-st0" width="252.6" height="252.6"></rect>
<path class="ladsvg-5756-st1" d="M-1164.5,1324.6c-19.4,0-35.2,15.8-35.2,35.2h-23.4v23.4c-19.4,0-35.2,15.8-35.2,35.2
	c0,19.4,15.8,35.2,35.2,35.2l0,0v23.4h23.4c0,19.4,15.8,35.2,35.2,35.2s35.2-15.8,35.2-35.2h23.4v-23.4c19.4,0,35.2-15.8,35.2-35.2
	c0-19.4-15.8-35.2-35.2-35.2l0,0v-23.3h-23.4C-1129.3,1340.3-1145.1,1324.6-1164.5,1324.6L-1164.5,1324.6z"></path>
<path class="ladsvg-5756-st2" d="M-1164.5,1434.3c8.8,0,16-7.2,16-16s-7.2-16-16-16s-16,7.2-16,16C-1180.5,1427.3-1173.3,1434.3-1164.5,1434.3
	L-1164.5,1434.3z"></path>
<path class="ladsvg-5756-st1" d="M-1290.8,1398.8v39.3c10.9,0,19.7-8.8,19.7-19.7C-1271.1,1407.6-1279.9,1398.8-1290.8,1398.8L-1290.8,1398.8z"></path>
<path class="ladsvg-5756-st1" d="M-1057.9,1418.5c0,10.8,8.8,19.7,19.7,19.7v-39.3C-1049.1,1398.8-1057.9,1407.6-1057.9,1418.5L-1057.9,1418.5z"></path>
<path class="ladsvg-5756-st1" d="M-1184.2,1292.2c0,10.9,8.8,19.7,19.7,19.7s19.7-8.9,19.7-19.7l0,0H-1184.2z"></path>
<path class="ladsvg-5756-st1" d="M-1184.2,1544.8h39.4c0-10.9-8.8-19.7-19.7-19.7S-1184.2,1533.9-1184.2,1544.8L-1184.2,1544.8z"></path>
<path class="ladsvg-5756-st3" d="M-1239.5,1406.5c-0.1,0-0.1,0-0.2,0l0,0c-0.9,0.1-1.5,0.8-1.5,1.6c0,0.6,0.3,1.2,0.9,1.5l0,0
	c0.2,0.3,0.2,0.7,0.2,1.1c0,0.7-0.3,1.4-0.9,1.8l0,0c-1.7,0.3-3.3,1.2-4.5,2.4l0,0c0,0.8-0.6,1.5-1.5,1.7l0,0
	c-0.9,0.3-1.5,1-1.6,1.9l0,0c0.1,0.9,0.7,1.6,1.6,1.9l0,0c0.8,0.1,1.4,0.8,1.5,1.7l0,0c1.2,1.2,2.8,2.1,4.5,2.4l0,0
	c0.6,0.4,0.9,1.1,0.9,1.8c0,0.4-0.1,0.7-0.2,1.1l0,0c-0.6,0.3-0.9,0.8-0.9,1.5c0,0.9,0.7,1.6,1.5,1.6l0,0c0.2,0,0.5,0,0.7,0
	c2.5,0,5-0.4,7.4-1.3l0,0c1.4-0.7,2.8-1.5,4.2-2.3l0,0c1.9-3.5,4.8-6.4,8.3-8.3l0,0c-3.5-1.9-6.4-4.8-8.3-8.3l0,0
	c-1.3-0.9-2.7-1.6-4.2-2.3l0,0c-2.4-0.9-4.9-1.3-7.4-1.3C-1239.1,1406.5-1239.3,1406.5-1239.5,1406.5L-1239.5,1406.5z"></path>
<path class="ladsvg-5756-st3" d="M-1164.5,1473.1c-1.9,3.5-4.8,6.4-8.3,8.3l0,0c-0.9,1.3-1.6,2.7-2.3,4.2l0,0c-0.9,2.4-1.3,4.9-1.3,7.4
	c0,0.2,0,0.5,0,0.7l0,0c0.1,0.9,0.8,1.5,1.6,1.5c0.6,0,1.2-0.3,1.5-0.9l0,0c0.3-0.2,0.7-0.2,1.1-0.2c0.7,0,1.4,0.3,1.8,0.9l0,0
	c0.3,1.7,1.2,3.3,2.4,4.5l0,0c0.8,0,1.5,0.6,1.7,1.5l0,0c0.3,0.9,1,1.5,1.9,1.6l0,0c0.9-0.1,1.6-0.7,1.9-1.6l0,0
	c0.1-0.8,0.8-1.4,1.7-1.5l0,0c1.2-1.2,2.1-2.8,2.4-4.5l0,0c0.4-0.6,1.1-0.9,1.8-0.9c0.4,0,0.7,0.1,1.1,0.2l0,0
	c0.3,0.5,0.8,0.9,1.5,0.9c0.9,0,1.6-0.7,1.6-1.5l0,0c0-0.2,0-0.5,0-0.7c0-2.5-0.5-5-1.3-7.4l0,0c-0.7-1.4-1.5-2.8-2.3-4.2l0,0
	C-1159.7,1479.5-1162.6,1476.6-1164.5,1473.1L-1164.5,1473.1z"></path>
<path class="ladsvg-5756-st3" d="M-1089.3,1406.5c-0.2,0-0.5,0-0.7,0c-2.5,0-5,0.5-7.4,1.3l0,0c-1.4,0.7-2.8,1.5-4.2,2.3l0,0
	c-1.9,3.5-4.8,6.4-8.3,8.3l0,0c3.5,1.9,6.4,4.8,8.3,8.3l0,0c1.3,0.9,2.7,1.6,4.2,2.3l0,0c2.4,0.9,4.9,1.3,7.4,1.3c0.2,0,0.3,0,0.5,0
	l0,0c0.1,0,0.1,0,0.2,0l0,0c0.9-0.1,1.5-0.8,1.5-1.6c0-0.6-0.3-1.2-0.9-1.5l0,0c-0.2-0.3-0.2-0.7-0.2-1.1c0-0.7,0.3-1.4,0.9-1.8l0,0
	c1.7-0.3,3.3-1.2,4.5-2.4l0,0c0-0.8,0.6-1.5,1.5-1.7l0,0c0.9-0.3,1.5-1,1.6-1.9l0,0c-0.1-0.9-0.7-1.6-1.6-1.9l0,0
	c-0.8-0.1-1.4-0.8-1.5-1.7l0,0c-1.2-1.2-2.8-2.1-4.5-2.4l0,0c-0.5-0.4-0.9-1.1-0.9-1.8c0-0.4,0.1-0.7,0.2-1.1l0,0
	c0.5-0.3,0.9-0.8,0.9-1.5C-1087.8,1407.3-1088.5,1406.6-1089.3,1406.5L-1089.3,1406.5z"></path>
<path class="ladsvg-5756-st3" d="M-1162.6,1336.1c-0.3-0.9-1-1.5-1.9-1.6l0,0c-0.9,0.1-1.6,0.7-1.9,1.6l0,0c-0.1,0.8-0.8,1.4-1.7,1.5l0,0
	c-1.2,1.2-2.1,2.8-2.4,4.5l0,0c-0.4,0.6-1.1,0.9-1.8,0.9c-0.4,0-0.7-0.1-1.1-0.2l0,0c-0.3-0.6-0.8-0.9-1.5-0.9
	c-0.9,0-1.6,0.7-1.6,1.5l0,0c0,0.2,0,0.5,0,0.7c0,2.5,0.5,5,1.3,7.4l0,0c0.7,1.4,1.5,2.8,2.3,4.2l0,0c3.5,1.9,6.4,4.8,8.3,8.3l0,0
	c1.9-3.5,4.8-6.4,8.3-8.3l0,0c0.9-1.3,1.6-2.7,2.3-4.2l0,0c0.9-2.4,1.3-4.9,1.3-7.4c0-0.2,0-0.3,0-0.5c0-0.1,0-0.1,0-0.2l0,0
	c-0.1-0.9-0.8-1.5-1.6-1.5c-0.6,0-1.2,0.3-1.5,0.9l0,0c-0.3,0.2-0.7,0.2-1.1,0.2c-0.7,0-1.4-0.3-1.8-0.9l0,0
	c-0.3-1.7-1.2-3.3-2.4-4.5l0,0C-1161.8,1337.5-1162.5,1336.9-1162.6,1336.1L-1162.6,1336.1z"></path>
<path class="ladsvg-5756-st4" d="M-1219.1,1408.8C-1219.1,1408.9-1219.1,1408.9-1219.1,1408.8c0,0.9-0.7,1.6-1.5,1.6c-0.6,0-1.2-0.4-1.4-1l0,0
	c-1.3-1.2-2-2.8-2-4.5c0-1.2,0.4-2.4,1-3.4l0,0c1.8-1.5,3.7-2.7,5.8-3.7l0,0c1.2-0.4,2-1.5,2-2.7c0-0.8-0.4-1.6-1-2.2l0,0
	c-1.1-2.4-3.5-3.9-6.2-3.9c-2.9,0-5.4,1.8-6.4,4.5l0,0c-0.7,2.2-1.1,4.4-1.1,6.7c0,7.6,4.2,14.6,10.8,18.3l0,0
	c-3.5,1.9-6.4,4.8-8.3,8.3c-1.7,3-2.5,6.5-2.5,9.9c0,2.3,0.4,4.6,1.1,6.7l0,0c1,2.7,3.6,4.5,6.4,4.5c2.6,0,5.1-1.5,6.2-3.9l0,0
	c0.6-0.5,1-1.3,1-2.2c0-1.2-0.8-2.3-2-2.7l0,0c-2.1-1-4-2.2-5.8-3.7l0,0c-0.7-1-1-2.2-1-3.4c0-1.7,0.7-3.4,2-4.5l0,0
	c0.2-0.6,0.8-1,1.4-1c0.8,0,1.5,0.7,1.5,1.5v0.1l0,0c0.9,1.5,2.6,2.4,4.4,2.4c1.4,0,2.8-0.6,3.8-1.7l0,0c3.1-1.9,6.4-3.3,9.9-4.5
	l0,0c0.3-0.2,0.7-0.3,1.1-0.3l0,0c2-0.6,4.1-1.1,6.2-1.4l0,0c2.1-0.4,4.2-0.6,6.3-0.7l0,0c1.6-0.5,2.7-1.8,3.1-3.4l0,0
	c-0.3-1.6-1.5-2.9-3.1-3.4l0,0c-2.1-0.1-4.2-0.4-6.2-0.7l0,0c-2.1-0.3-4.1-0.8-6.2-1.4l0,0c-0.4,0-0.7-0.1-1.1-0.3l0,0
	c-3.5-1.1-6.8-2.6-9.9-4.5l0,0c-1-1.1-2.3-1.7-3.8-1.7C-1216.5,1406.3-1218.2,1407.3-1219.1,1408.8L-1219.1,1408.8z"></path>
<path class="ladsvg-5756-st4" d="M-1167.9,1441.5c-0.1,2.1-0.4,4.2-0.7,6.2l0,0c-0.3,2.1-0.8,4.1-1.4,6.2l0,0c0,0.4-0.1,0.7-0.3,1.1l0,0
	c-1.1,3.5-2.6,6.8-4.5,9.9l0,0c-1.1,1-1.7,2.3-1.7,3.8c0,1.8,0.9,3.4,2.4,4.4l0,0h0.1c0.8,0,1.5,0.7,1.5,1.5c0,0.6-0.4,1.2-1,1.4
	l0,0c-1.2,1.3-2.8,2-4.5,2c-1.2,0-2.4-0.4-3.4-1l0,0c-1.5-1.8-2.7-3.7-3.7-5.8l0,0c-0.4-1.2-1.5-2-2.7-2c-0.8,0-1.6,0.4-2.2,1l0,0
	c-2.4,1.1-3.9,3.5-3.9,6.2c0,2.9,1.8,5.4,4.5,6.4l0,0c2.2,0.7,4.4,1.1,6.7,1.1c7.6,0,14.6-4.2,18.3-10.8l0,0
	c1.9,3.5,4.8,6.4,8.3,8.3c3,1.7,6.5,2.5,9.9,2.5c2.3,0,4.6-0.4,6.7-1.1l0,0c2.7-1,4.5-3.6,4.5-6.4c0-2.6-1.5-5.1-3.9-6.2l0,0
	c-0.5-0.6-1.3-1-2.2-1c-1.2,0-2.3,0.8-2.7,2l0,0c-1,2.1-2.2,4-3.7,5.8l0,0c-1,0.7-2.2,1-3.4,1c-1.7,0-3.4-0.7-4.5-2l0,0
	c-0.6-0.2-1-0.8-1-1.4c0-0.8,0.7-1.5,1.5-1.5h0.1l0,0c1.5-0.9,2.4-2.6,2.4-4.4c0-1.4-0.6-2.8-1.7-3.8l0,0c-1.9-3.1-3.3-6.4-4.5-9.9
	l0,0c-0.2-0.3-0.3-0.7-0.3-1.1l0,0c-0.6-2-1.1-4.1-1.4-6.2l0,0c-0.4-2.1-0.6-4.2-0.7-6.2l0,0c-0.5-1.6-1.8-2.7-3.4-3.1l0,0
	C-1166.1,1438.8-1167.4,1439.9-1167.9,1441.5L-1167.9,1441.5z"></path>
<path class="ladsvg-5756-st4" d="M-1118.1,1408.1c-3.1,1.9-6.4,3.3-9.9,4.5l0,0c-0.3,0.2-0.7,0.3-1.1,0.3l0,0c-2,0.6-4.1,1.1-6.2,1.4l0,0
	c-2.1,0.4-4.2,0.6-6.2,0.7l0,0c-1.6,0.5-2.7,1.8-3.1,3.4l0,0c0.3,1.6,1.5,2.9,3.1,3.4l0,0c2.1,0.1,4.2,0.4,6.2,0.7l0,0
	c2.1,0.3,4.1,0.8,6.2,1.4l0,0c0.4,0,0.7,0.1,1.1,0.3l0,0c3.5,1.1,6.8,2.6,9.9,4.5l0,0c1,1.1,2.3,1.7,3.8,1.7c1.8,0,3.4-0.9,4.4-2.4
	l0,0v-0.1c0-0.8,0.7-1.5,1.5-1.5c0.6,0,1.2,0.4,1.4,1l0,0c1.3,1.2,2,2.8,2,4.5c0,1.2-0.4,2.4-1,3.4l0,0c-1.8,1.5-3.7,2.7-5.8,3.7
	l0,0c-1.2,0.4-2,1.5-2,2.7c0,0.8,0.4,1.6,1,2.2l0,0c1.1,2.4,3.5,3.9,6.2,3.9c2.9,0,5.4-1.8,6.4-4.5l0,0c0.7-2.2,1.1-4.4,1.1-6.7
	c0-7.6-4.2-14.6-10.8-18.3l0,0c3.5-1.9,6.4-4.8,8.3-8.3c1.7-3,2.5-6.5,2.5-9.9c0-2.3-0.4-4.6-1.1-6.7l0,0c-1-2.7-3.6-4.5-6.4-4.5
	c-2.6,0-5.1,1.5-6.2,3.9l0,0c-0.6,0.5-1,1.3-1,2.2c0,1.2,0.8,2.3,2,2.7l0,0c2.1,1,4,2.2,5.8,3.7l0,0c0.7,1,1,2.2,1,3.4
	c0,1.7-0.7,3.4-2,4.5l0,0c-0.2,0.6-0.8,1-1.4,1c-0.8,0-1.5-0.7-1.5-1.5v-0.1l0,0c-0.9-1.5-2.6-2.4-4.4-2.4
	C-1115.7,1406.3-1117.1,1407-1118.1,1408.1L-1118.1,1408.1z"></path>
<path class="ladsvg-5756-st4" d="M-1172.8,1355.5c-3-1.7-6.5-2.5-9.9-2.5c-2.3,0-4.6,0.4-6.7,1.1l0,0c-2.7,1-4.5,3.6-4.5,6.4
	c0,2.6,1.5,5.1,3.9,6.2l0,0c0.5,0.6,1.3,1,2.2,1c1.2,0,2.3-0.8,2.7-2l0,0c1-2.1,2.2-4,3.7-5.8l0,0c1-0.7,2.2-1,3.4-1
	c1.7,0,3.4,0.7,4.5,2l0,0c0.6,0.2,1,0.8,1,1.4c0,0.8-0.7,1.5-1.5,1.5h-0.1l0,0c-1.5,0.9-2.4,2.6-2.4,4.4c0,1.4,0.6,2.8,1.7,3.8l0,0
	c1.9,3.1,3.3,6.4,4.5,9.9l0,0c0.2,0.3,0.3,0.7,0.3,1.1l0,0c0.6,2,1.1,4.1,1.4,6.2l0,0c0.4,2.1,0.6,4.2,0.7,6.2l0,0
	c0.5,1.6,1.8,2.7,3.4,3.1l0,0c1.6-0.3,2.9-1.5,3.4-3.1l0,0c0.1-2.1,0.4-4.2,0.7-6.2l0,0c0.3-2.1,0.8-4.1,1.4-6.2l0,0
	c0-0.4,0.1-0.7,0.3-1.1l0,0c1.1-3.5,2.6-6.8,4.5-9.9l0,0c1.1-1,1.7-2.3,1.7-3.8c0-1.8-0.9-3.4-2.4-4.4l0,0h-0.1
	c-0.8,0-1.5-0.7-1.5-1.5c0-0.6,0.4-1.2,1-1.4l0,0c1.2-1.3,2.8-2,4.5-2c1.2,0,2.4,0.4,3.4,1l0,0c1.5,1.8,2.7,3.7,3.7,5.8l0,0
	c0.4,1.2,1.5,2,2.7,2c0.8,0,1.6-0.4,2.2-1l0,0c2.4-1.1,3.9-3.5,3.9-6.2c0-2.9-1.8-5.4-4.5-6.4l0,0c-2.2-0.7-4.4-1.1-6.7-1.1
	c-3.5,0-6.9,0.9-9.9,2.5c-3.5,1.9-6.4,4.8-8.3,8.3l0,0C-1166.4,1360.3-1169.3,1357.5-1172.8,1355.5L-1172.8,1355.5z"></path>
<path class="ladsvg-5756-st5" d="M-1235.9,1310.7c-6.9-3.8-14.6-5.7-22.4-5.7c-3.8,0-7.6,0.5-11.3,1.4l0,0c-0.6,0.1-1.1,0.1-1.7,0.1
	c-2.3,0-4.5-0.7-6.4-2l0,0c-0.6-0.4-1.3-0.6-2-0.6s-1.3,0.2-1.9,0.5l0,0c-1.1,1.3-1.7,2.9-1.7,4.6c0,2.5,1.2,4.8,3.3,6.1l0,0
	c0.1,0,0.3-0.1,0.4-0.1c0.8,0,1.5,0.7,1.5,1.5c0,0.6-0.3,1.1-0.8,1.3l0,0c-2.8,4.2-4.3,9.2-4.3,14.2c0,1.6,0.2,3.2,0.5,4.8l0,0
	c2.4,9.9,7,19.1,13.4,27l0,0c1,1.2,1.6,2.7,1.6,4.2c0,1.8-0.8,3.6-2.2,4.8l0,0c-1.2,1-2.8,1.6-4.4,1.6c-1.9,0-3.7-0.8-4.9-2.2l0,0
	c-0.6-0.6-1.3-1-2.2-1c-0.2,0-0.5,0-0.7,0.1l0,0c-1.6,1.3-2.5,3.2-2.5,5.2c0,1.2,0.3,2.5,1,3.5l0,0c1.5,2.4,4.1,3.8,6.9,3.8
	c2.1,0,4-0.8,5.6-2.2l0,0c0.6-1.1,1.8-1.7,3-1.7c0.9,0,1.8,0.4,2.4,1l0,0c0.2,0.9,1,1.6,1.9,1.6c1,0,1.9-0.8,1.9-1.8l0,0
	c-0.1-0.3-0.1-0.7-0.1-1c0-1.4,0.5-2.7,1.4-3.7l0,0c0.8-1.5,1.2-3.1,1.2-4.8s-0.4-3.4-1.3-5l0,0c-0.2-0.4-0.3-0.8-0.3-1.2
	c0-1,0.6-1.9,1.5-2.3l0,0c0.4,0,0.8,0,1.1,0c3.3,0,6.5-1.1,9-3.2l0,0c0.6-0.6,0.9-1.3,0.9-2.2c0-0.3,0-0.5-0.1-0.8l0,0
	c-0.8-0.6-1.7-0.9-2.6-0.9c-0.6,0-1.2,0.1-1.8,0.4l0,0c-0.2,0-0.3,0-0.5,0c-1.5,0-2.7-1.2-2.7-2.7c0-0.4,0.1-0.8,0.3-1.2l0,0
	c1.2-1.9,2.8-3.5,4.6-4.8l0,0c3.4-2.4,5.4-6.4,5.4-10.6s-2-8.1-5.4-10.6l0,0c-1.2-0.9-2.6-1.3-4.1-1.3c-3.9,0-7,3.2-7,7
	c0,1.7,0.6,3.3,1.6,4.5l0,0c1.8,0.4,3.2,2,3.4,3.9l0,0c0,0.1,0,0.2,0,0.3c0,1.8-1.5,3.3-3.3,3.3c-0.4,0-0.8-0.1-1.2-0.2l0,0
	c-5-1.9-8.9-5.9-10.6-11l0,0c-0.5-1.5-0.8-3.1-0.8-4.7c0-8.1,6.6-14.6,14.6-14.6c0.4,0,0.7,0,1.1,0l0,0c14.5,1.4,25.7,13.5,25.7,28
	c0,1.7-0.2,3.4-0.5,5.1l0,0h-4.3v26.8c-12.3,3.7-22.5,12.1-28.4,23.5l0,0c-0.3,0.5-0.8,0.8-1.4,0.8c-0.4,0-0.9-0.2-1.2-0.5l0,0
	c-6-6.5-14.4-10.2-23.3-10.2v-94.6h94.6c0,8.8,3.7,17.3,10.2,23.3l0,0c0.3,0.3,0.5,0.7,0.5,1.2c0,0.6-0.3,1.1-0.8,1.4l0,0
	c-11.4,5.9-19.9,16.2-23.5,28.4l0,0h-13.4c-0.5-2.1-0.8-4.3-0.8-6.4c0-5.3,1.5-10.5,4.4-15l0,0c1.2-2.7,3.8-4.4,6.7-4.4
	c0.4,0,0.7,0,1.1,0.1l0,0c1.3,1.3,3,2,4.8,2c0.2,0,0.3,0,0.5,0l0,0c3.2-0.4,5.7-3.1,5.7-6.4c0-0.5,0-0.9-0.1-1.4l0,0
	c-0.5-4.4-4.2-7.7-8.7-7.7c-0.2,0-0.5,0-0.7,0l0,0h-0.1c-2.4,0-4.7,1.1-6.2,3.1l0,0c-0.1,0.6-0.6,1-1.2,1c-0.3,0-0.6-0.1-0.9-0.4
	l0,0c-1.5-1.6-2.9-3.4-4.1-5.2l0,0c-0.2-0.9-1-1.6-1.9-1.6c-0.5,0-0.9,0.2-1.3,0.5l0,0c-2.9,1.7-4.7,4.7-5,8l0,0
	c0,0.1,0.1,0.2,0.1,0.3c0,0.6-0.5,1-1,1c-0.4,0-0.7-0.2-0.9-0.5l0,0C-1233.4,1312.2-1234.6,1311.2-1235.9,1310.7L-1235.9,1310.7z"></path>
<path class="ladsvg-5756-st5" d="M-1235.9,1526.3c-6.9,3.8-14.6,5.7-22.4,5.7c-3.8,0-7.6-0.5-11.3-1.4l0,0c-0.6-0.1-1.1-0.1-1.7-0.1
	c-2.3,0-4.5,0.7-6.4,2l0,0c-0.6,0.4-1.3,0.6-2,0.6s-1.3-0.2-1.9-0.5l0,0c-1.1-1.3-1.7-2.9-1.7-4.6c0-2.5,1.2-4.8,3.3-6.1l0,0
	c0.1,0,0.3,0.1,0.4,0.1c0.8,0,1.5-0.7,1.5-1.5c0-0.6-0.3-1.1-0.8-1.3l0,0c-2.8-4.2-4.3-9.2-4.3-14.2c0-1.6,0.2-3.2,0.5-4.8l0,0
	c2.4-9.9,7-19.1,13.4-27l0,0c1-1.2,1.6-2.7,1.6-4.2c0-1.8-0.8-3.6-2.2-4.8l0,0c-1.2-1-2.8-1.6-4.4-1.6c-1.9,0-3.7,0.8-4.9,2.2l0,0
	c-0.6,0.6-1.3,1-2.2,1c-0.2,0-0.5,0-0.7-0.1l0,0c-1.6-1.3-2.5-3.2-2.5-5.2c0-1.2,0.3-2.5,1-3.5l0,0c1.5-2.4,4.1-3.8,6.9-3.8
	c2.1,0,4,0.8,5.6,2.2l0,0c0.6,1.1,1.8,1.7,3,1.7c0.9,0,1.8-0.4,2.4-1l0,0c0.2-0.9,1-1.6,1.9-1.6c1,0,1.9,0.8,1.9,1.8l0,0
	c-0.1,0.3-0.1,0.7-0.1,1c0,1.4,0.5,2.7,1.4,3.7l0,0c0.8,1.5,1.2,3.1,1.2,4.8s-0.4,3.4-1.3,5l0,0c-0.2,0.4-0.3,0.8-0.3,1.2
	c0,1,0.6,1.9,1.5,2.3l0,0c0.4,0,0.8,0,1.1,0c3.3,0,6.5,1.1,9,3.2l0,0c0.6,0.6,0.9,1.3,0.9,2.2c0,0.3,0,0.5-0.1,0.8l0,0
	c-0.8,0.6-1.7,0.9-2.6,0.9c-0.6,0-1.2-0.1-1.8-0.4l0,0c-0.2,0-0.3,0-0.5,0c-1.5,0-2.7,1.2-2.7,2.7c0,0.4,0.1,0.8,0.3,1.2l0,0
	c1.2,1.9,2.8,3.5,4.6,4.8l0,0c3.4,2.4,5.4,6.4,5.4,10.6s-2,8.1-5.4,10.6l0,0c-1.2,0.9-2.6,1.3-4.1,1.3c-3.9,0-7-3.2-7-7
	c0-1.7,0.6-3.3,1.6-4.5l0,0c1.8-0.4,3.2-2,3.4-3.9l0,0c0-0.1,0-0.2,0-0.3c0-1.8-1.5-3.3-3.3-3.3c-0.4,0-0.8,0.1-1.2,0.2l0,0
	c-5,1.9-8.9,5.9-10.6,11l0,0c-0.5,1.5-0.8,3.1-0.8,4.7c0,8.1,6.6,14.6,14.6,14.6c0.4,0,0.7,0,1.1,0l0,0
	c14.5-1.1,25.7-13.2,25.7-27.7c0-1.7-0.2-3.4-0.5-5.1l0,0h-4.3v-26.8c-12.3-3.7-22.5-12.2-28.4-23.5l0,0c-0.3-0.5-0.8-0.8-1.4-0.8
	c-0.4,0-0.9,0.2-1.2,0.5l0,0c-6,6.5-14.4,10.2-23.3,10.2v94.6h94.6c0-8.8,3.7-17.3,10.2-23.3l0,0c0.3-0.3,0.5-0.7,0.5-1.2
	c0-0.6-0.3-1.1-0.8-1.4l0,0c-11.4-5.9-19.9-16.2-23.5-28.4l0,0h-13.4c-0.5,2.1-0.8,4.3-0.8,6.4c0,5.3,1.5,10.5,4.4,15l0,0
	c1.2,2.7,3.8,4.4,6.7,4.4c0.4,0,0.7,0,1.1-0.1l0,0c1.3-1.3,3-2,4.8-2c0.2,0,0.3,0,0.5,0l0,0c3.2,0.4,5.7,3.1,5.7,6.4
	c0,0.5,0,0.9-0.1,1.4l0,0c-0.5,4.4-4.2,7.7-8.7,7.7c-0.2,0-0.5,0-0.7,0l0,0h-0.1c-2.4,0-4.7-1.1-6.2-3.1l0,0c-0.1-0.6-0.6-1-1.2-1
	c-0.3,0-0.6,0.1-0.9,0.4l0,0c-1.5,1.6-2.9,3.4-4.1,5.2l0,0c-0.2,0.9-1,1.6-1.9,1.6c-0.5,0-0.9-0.2-1.3-0.5l0,0c-2.9-1.7-4.7-4.7-5-8
	l0,0c0-0.1,0.1-0.2,0.1-0.3c0-0.6-0.5-1-1-1c-0.4,0-0.7,0.2-0.9,0.5l0,0C-1233.4,1524.7-1234.6,1525.7-1235.9,1526.3L-1235.9,1526.3
	z"></path>
<path class="ladsvg-5756-st5" d="M-1093.1,1310.7c6.9-3.8,14.6-5.7,22.4-5.7c3.8,0,7.6,0.5,11.3,1.4l0,0c0.6,0.1,1.1,0.1,1.7,0.1
	c2.3,0,4.5-0.7,6.4-2l0,0c0.6-0.4,1.3-0.6,2-0.6s1.3,0.2,1.9,0.5l0,0c1.1,1.3,1.7,2.9,1.7,4.6c0,2.5-1.2,4.8-3.3,6.1l0,0
	c-0.1,0-0.3-0.1-0.4-0.1c-0.8,0-1.5,0.7-1.5,1.5c0,0.6,0.3,1.1,0.8,1.3l0,0c2.8,4.2,4.3,9.2,4.3,14.2c0,1.6-0.2,3.2-0.5,4.8l0,0
	c-2.4,9.9-7,19.1-13.4,27l0,0c-1,1.2-1.6,2.7-1.6,4.2c0,1.8,0.8,3.6,2.2,4.8l0,0c1.2,1,2.8,1.6,4.4,1.6c1.9,0,3.7-0.8,4.9-2.2l0,0
	c0.6-0.6,1.3-1,2.2-1c0.3,0,0.5,0,0.7,0.1l0,0c1.6,1.3,2.5,3.2,2.5,5.2c0,1.2-0.3,2.5-1,3.5l0,0c-1.5,2.4-4.1,3.8-6.9,3.8
	c-2.1,0-4-0.8-5.6-2.2l0,0c-0.6-1.1-1.8-1.7-3-1.7c-0.9,0-1.8,0.4-2.4,1l0,0c-0.2,0.9-1,1.6-1.9,1.6c-1,0-1.9-0.8-1.9-1.8l0,0
	c0.1-0.3,0.1-0.7,0.1-1c0-1.4-0.5-2.7-1.4-3.7l0,0c-0.8-1.5-1.2-3.1-1.2-4.8s0.4-3.4,1.3-5l0,0c0.2-0.4,0.3-0.8,0.3-1.2
	c0-1-0.6-1.9-1.5-2.3l0,0c-0.4,0-0.8,0-1.1,0c-3.3,0-6.5-1.1-9-3.2l0,0c-0.6-0.6-0.9-1.3-0.9-2.2c0-0.3,0-0.5,0.1-0.8l0,0
	c0.8-0.6,1.7-0.9,2.6-0.9c0.6,0,1.2,0.1,1.8,0.4l0,0c0.2,0,0.3,0,0.5,0c1.5,0,2.7-1.2,2.7-2.7c0-0.4-0.1-0.8-0.3-1.2l0,0
	c-1.2-1.9-2.8-3.5-4.6-4.8l0,0c-3.4-2.4-5.4-6.4-5.4-10.6s2-8.1,5.4-10.6l0,0c1.2-0.9,2.6-1.3,4.1-1.3c3.9,0,7,3.2,7,7
	c0,1.7-0.6,3.3-1.6,4.5l0,0c-1.8,0.4-3.2,2-3.4,3.9l0,0c0,0.1,0,0.2,0,0.3c0,1.8,1.5,3.3,3.3,3.3c0.4,0,0.8-0.1,1.2-0.2l0,0
	c5-1.9,8.9-5.9,10.6-11l0,0c0.5-1.5,0.8-3.1,0.8-4.7c0-8.1-6.6-14.6-14.6-14.6c-0.4,0-0.7,0-1.1,0l0,0
	c-14.5,1.1-25.7,13.2-25.7,27.7c0,1.7,0.2,3.4,0.5,5.1l0,0h4.3v26.8c12.3,3.7,22.5,12.1,28.4,23.5l0,0c0.3,0.5,0.8,0.8,1.4,0.8
	c0.4,0,0.9-0.2,1.2-0.5l0,0c6-6.5,14.4-10.2,23.3-10.2v-94.3h-94.8c0,8.8-3.7,17.3-10.2,23.3l0,0c-0.3,0.3-0.5,0.7-0.5,1.2
	c0,0.6,0.3,1.1,0.8,1.4l0,0c11.4,5.9,19.9,16.2,23.5,28.4l0,0h13.4c0.5-2.1,0.8-4.3,0.8-6.4c0-5.3-1.5-10.5-4.4-15l0,0
	c-1.2-2.7-3.8-4.4-6.7-4.4c-0.4,0-0.7,0-1.1,0.1l0,0c-1.3,1.3-3,2-4.8,2c-0.2,0-0.3,0-0.5,0l0,0c-3.2-0.4-5.7-3.1-5.7-6.4
	c0-0.5,0-0.9,0.1-1.4l0,0c0.5-4.4,4.2-7.7,8.7-7.7c0.2,0,0.5,0,0.7,0l0,0h0.1c2.4,0,4.7,1.1,6.2,3.1l0,0c0.1,0.6,0.6,1,1.2,1
	c0.3,0,0.7-0.1,0.9-0.4l0,0c1.5-1.6,2.9-3.4,4.1-5.2l0,0c0.2-0.9,1-1.6,1.9-1.6c0.5,0,0.9,0.2,1.3,0.5l0,0c2.9,1.7,4.7,4.7,5,8l0,0
	c0,0.1-0.1,0.2-0.1,0.3c0,0.6,0.5,1,1,1c0.4,0,0.7-0.2,0.9-0.5l0,0C-1095.6,1312.2-1094.4,1311.2-1093.1,1310.7L-1093.1,1310.7z"></path>
<path class="ladsvg-5756-st5" d="M-1093.1,1526.3c6.9,3.8,14.6,5.7,22.4,5.7c3.8,0,7.6-0.5,11.3-1.4l0,0c0.6-0.1,1.1-0.1,1.7-0.1
	c2.3,0,4.5,0.7,6.4,2l0,0c0.6,0.4,1.3,0.6,2,0.6s1.3-0.2,1.9-0.5l0,0c1.1-1.3,1.7-2.9,1.7-4.6c0-2.5-1.2-4.8-3.3-6.1l0,0
	c-0.1,0-0.3,0.1-0.4,0.1c-0.8,0-1.5-0.7-1.5-1.5c0-0.6,0.3-1.1,0.8-1.3l0,0c2.8-4.2,4.3-9.2,4.3-14.2c0-1.6-0.2-3.2-0.5-4.8l0,0
	c-2.4-9.9-7-19.1-13.4-27l0,0c-1-1.2-1.6-2.7-1.6-4.2c0-1.8,0.8-3.6,2.2-4.8l0,0c1.2-1,2.8-1.6,4.4-1.6c1.9,0,3.7,0.8,4.9,2.2l0,0
	c0.6,0.6,1.3,1,2.2,1c0.3,0,0.5,0,0.7-0.1l0,0c1.6-1.3,2.5-3.2,2.5-5.2c0-1.2-0.3-2.5-1-3.5l0,0c-1.5-2.4-4.1-3.8-6.9-3.8
	c-2.1,0-4,0.8-5.6,2.2l0,0c-0.6,1.1-1.8,1.7-3,1.7c-0.9,0-1.8-0.4-2.4-1l0,0c-0.2-0.9-1-1.6-1.9-1.6c-1,0-1.9,0.8-1.9,1.8l0,0
	c0.1,0.3,0.1,0.7,0.1,1c0,1.4-0.5,2.7-1.4,3.7l0,0c-0.8,1.5-1.2,3.1-1.2,4.8s0.4,3.4,1.3,5l0,0c0.2,0.4,0.3,0.8,0.3,1.2
	c0,1-0.6,1.9-1.5,2.3l0,0c-0.4,0-0.8,0-1.1,0c-3.3,0-6.5,1.1-9,3.2l0,0c-0.6,0.6-0.9,1.3-0.9,2.2c0,0.3,0,0.5,0.1,0.8l0,0
	c0.8,0.6,1.7,0.9,2.6,0.9c0.6,0,1.2-0.1,1.8-0.4l0,0c0.2,0,0.3,0,0.5,0c1.5,0,2.7,1.2,2.7,2.7c0,0.4-0.1,0.8-0.3,1.2l0,0
	c-1.2,1.9-2.8,3.5-4.6,4.8l0,0c-3.4,2.4-5.4,6.4-5.4,10.6s2,8.1,5.4,10.6l0,0c1.2,0.9,2.6,1.3,4.1,1.3c3.9,0,7-3.2,7-7
	c0-1.7-0.6-3.3-1.6-4.5l0,0c-1.8-0.4-3.2-2-3.4-3.9l0,0c0-0.1,0-0.2,0-0.3c0-1.8,1.5-3.3,3.3-3.3c0.4,0,0.8,0.1,1.2,0.2l0,0
	c5,1.9,8.9,5.9,10.6,11l0,0c0.5,1.5,0.8,3.1,0.8,4.7c0,8.1-6.6,14.6-14.6,14.6c-0.4,0-0.7,0-1.1,0l0,0
	c-14.5-1.1-25.7-13.2-25.7-27.7c0-1.7,0.2-3.4,0.5-5.1l0,0h4.3v-26.8c12.3-3.7,22.5-12.2,28.4-23.5l0,0c0.3-0.5,0.8-0.8,1.4-0.8
	c0.4,0,0.9,0.2,1.2,0.5l0,0c6,6.5,14.4,10.2,23.3,10.2v94.6h-94.8c0-8.8-3.7-17.3-10.2-23.3l0,0c-0.3-0.3-0.5-0.7-0.5-1.2
	c0-0.6,0.3-1.1,0.8-1.4l0,0c11.4-5.9,19.9-16.2,23.5-28.4l0,0h13.4c0.5,2.1,0.8,4.3,0.8,6.4c0,5.3-1.5,10.5-4.4,15l0,0
	c-1.2,2.7-3.8,4.4-6.7,4.4c-0.4,0-0.7,0-1.1-0.1l0,0c-1.3-1.3-3-2-4.8-2c-0.2,0-0.3,0-0.5,0l0,0c-3.2,0.4-5.7,3.1-5.7,6.4
	c0,0.5,0,0.9,0.1,1.4l0,0c0.5,4.4,4.2,7.7,8.7,7.7c0.2,0,0.5,0,0.7,0l0,0h0.1c2.4,0,4.7-1.1,6.2-3.1l0,0c0.1-0.6,0.6-1,1.2-1
	c0.3,0,0.7,0.1,0.9,0.4l0,0c1.5,1.6,2.9,3.4,4.1,5.2l0,0c0.2,0.9,1,1.6,1.9,1.6c0.5,0,0.9-0.2,1.3-0.5l0,0c2.9-1.7,4.7-4.7,5-8l0,0
	c0-0.1-0.1-0.2-0.1-0.3c0-0.6,0.5-1,1-1c0.4,0,0.7,0.2,0.9,0.5l0,0C-1095.6,1524.7-1094.4,1525.7-1093.1,1526.3L-1093.1,1526.3z"></path>
<path class="ladsvg-5756-st3" d="M-1187.6,1421.9c-0.2,0.1-0.4,0.1-0.6,0.2l0,0c-1.9,0.1-3.8,0.3-5.6,0.6l0,0c-2.1,0.4-4.1,0.8-6.2,1.4l0,0
	c-0.4,0.1-0.7,0.2-1.1,0.3l0,0c-0.8,0.5-1.3,1.3-1.3,2.2c0,0.7,0.3,1.4,0.8,1.8l0,0c0.4,0.2,0.6,0.6,0.6,1c0,0.5-0.4,1-0.9,1.1l0,0
	c-2.4,1.8-4.5,4.1-6.1,6.7l0,0c-0.3,0.4-0.4,0.8-0.4,1.2c0,1,0.7,1.8,1.7,2l0,0c0.3,0.4,0.5,0.8,0.5,1.3c0,0.6-0.3,1.2-0.8,1.6l0,0
	c-2.7,2.8-4.8,6-6.2,9.6l0,0c-0.3,0.4-0.5,0.9-0.5,1.4c0,1.2,1,2.3,2.3,2.3c0.2,0,0.4,0,0.6-0.1l0,0c0.6,0.3,0.9,0.9,0.9,1.5
	c0,0.4-0.1,0.7-0.3,1l0,0c-0.9,1.6-1.7,3.2-2.5,4.9l0,0c-0.3,0.6-0.4,1.3-0.4,2.1c0,0.3,0,0.6,0.1,0.9l0,0c0.3,0.1,0.6,0.1,0.9,0.1
	c0.7,0,1.4-0.2,2.1-0.4l0,0c1.6-0.8,3.3-1.6,4.9-2.5l0,0c0.3-0.2,0.6-0.3,1-0.3c0.6,0,1.2,0.3,1.5,0.9l0,0c-0.1,0.2-0.1,0.4-0.1,0.6
	c0,1.2,1,2.3,2.3,2.3c0.5,0,1-0.2,1.4-0.5l0,0c3.6-1.4,6.9-3.5,9.6-6.2l0,0c0.4-0.5,1-0.8,1.6-0.8c0.5,0,1,0.2,1.3,0.5l0,0
	c0.2,1,1,1.7,2,1.7c0.4,0,0.9-0.1,1.2-0.4l0,0c2.6-1.6,4.9-3.6,6.7-6.1l0,0c0.1-0.5,0.6-0.9,1.1-0.9c0.4,0,0.8,0.2,1,0.6l0,0
	c0.5,0.5,1.1,0.8,1.8,0.8c0.9,0,1.8-0.5,2.2-1.3l0,0c0.1-0.4,0.2-0.7,0.3-1.1l0,0c0.6-2,1.1-4.1,1.4-6.2l0,0
	c0.3-1.9,0.5-3.7,0.6-5.6l0,0c0.3-1.9,1.7-3.3,3.6-3.7l0,0c1.6,0.3,2.9,1.5,3.4,3.1c0.1,0.2,0.1,0.4,0.2,0.6l0,0
	c0.1,1.9,0.3,3.8,0.6,5.6l0,0c0.4,2.1,0.8,4.1,1.4,6.2l0,0c0.1,0.4,0.2,0.7,0.3,1.1l0,0c0.5,0.8,1.3,1.3,2.2,1.3
	c0.7,0,1.4-0.3,1.8-0.8l0,0c0.2-0.4,0.6-0.6,1-0.6c0.5,0,1,0.4,1.1,0.9l0,0c1.8,2.4,4.1,4.5,6.7,6.1l0,0c0.4,0.3,0.8,0.4,1.2,0.4
	c1,0,1.8-0.7,2-1.7l0,0c0.4-0.3,0.8-0.5,1.3-0.5c0.6,0,1.2,0.3,1.6,0.8l0,0c2.8,2.7,6,4.8,9.6,6.2l0,0c0.4,0.3,0.9,0.5,1.4,0.5
	c1.2,0,2.3-1,2.3-2.3c0-0.2,0-0.4-0.1-0.6l0,0c0.3-0.6,0.9-0.9,1.5-0.9c0.4,0,0.7,0.1,1,0.3l0,0c1.6,0.9,3.2,1.7,4.9,2.5l0,0
	c0.6,0.3,1.3,0.4,2.1,0.4c0.3,0,0.6,0,0.9-0.1l0,0c0.1-0.3,0.1-0.6,0.1-0.9c0-0.7-0.2-1.4-0.4-2.1l0,0c-0.8-1.6-1.6-3.3-2.5-4.9l0,0
	c-0.2-0.3-0.3-0.6-0.3-1c0-0.6,0.3-1.2,0.9-1.5l0,0c0.2,0.1,0.4,0.1,0.6,0.1c1.2,0,2.3-1,2.3-2.3c0-0.5-0.2-1-0.5-1.4l0,0
	c-1.4-3.6-3.5-6.9-6.2-9.6l0,0c-0.5-0.4-0.8-1-0.8-1.6c0-0.5,0.2-1,0.5-1.3l0,0c1-0.2,1.7-1,1.7-2c0-0.4-0.1-0.9-0.4-1.2l0,0
	c-1.6-2.6-3.6-4.9-6.1-6.7l0,0c-0.5-0.1-0.9-0.6-0.9-1.1c0-0.4,0.2-0.8,0.6-1l0,0c0.5-0.5,0.8-1.1,0.8-1.8c0-0.9-0.5-1.8-1.3-2.2
	l0,0c-0.4-0.1-0.7-0.2-1.1-0.3l0,0c-2-0.6-4.1-1.1-6.2-1.4l0,0c-1.9-0.3-3.7-0.5-5.6-0.6l0,0c-1.9-0.3-3.3-1.7-3.7-3.6l0,0
	c0.3-1.6,1.5-2.9,3.1-3.4c0.2-0.1,0.4-0.1,0.6-0.2l0,0c1.9-0.1,3.8-0.3,5.6-0.6l0,0c2.1-0.4,4.1-0.8,6.2-1.4l0,0
	c0.4-0.1,0.7-0.2,1.1-0.3l0,0c0.8-0.5,1.3-1.3,1.3-2.2c0-0.7-0.3-1.4-0.8-1.8l0,0c-0.4-0.2-0.6-0.6-0.6-1c0-0.5,0.4-1,0.9-1.1l0,0
	c2.4-1.8,4.5-4.1,6.1-6.7l0,0c0.3-0.4,0.4-0.8,0.4-1.2c0-1-0.7-1.8-1.7-2l0,0c-0.3-0.4-0.5-0.8-0.5-1.3c0-0.6,0.3-1.2,0.8-1.6l0,0
	c2.7-2.8,4.8-6,6.2-9.6l0,0c0.3-0.4,0.5-0.9,0.5-1.4c0-1.2-1-2.3-2.3-2.3c-0.2,0-0.4,0-0.6,0.1l0,0c-0.6-0.3-0.9-0.9-0.9-1.5
	c0-0.4,0.1-0.7,0.3-1l0,0c0.9-1.6,1.7-3.2,2.5-4.9l0,0c0.3-0.6,0.4-1.3,0.4-2.1c0-0.3,0-0.6-0.1-0.9l0,0c-0.3-0.1-0.6-0.1-0.9-0.1
	c-0.7,0-1.4,0.2-2.1,0.4l0,0c-1.6,0.8-3.3,1.6-4.9,2.5l0,0c-0.3,0.2-0.6,0.3-1,0.3c-0.6,0-1.2-0.3-1.5-0.9l0,0
	c0.1-0.2,0.1-0.4,0.1-0.6c0-1.2-1-2.3-2.3-2.3c-0.5,0-1,0.2-1.4,0.5l0,0c-3.6,1.4-6.9,3.5-9.6,6.2l0,0c-0.4,0.5-1,0.8-1.6,0.8
	c-0.5,0-1-0.2-1.3-0.5l0,0c-0.2-1-1-1.7-2-1.7c-0.4,0-0.9,0.1-1.2,0.4l0,0c-2.6,1.6-4.9,3.6-6.7,6.1l0,0c-0.1,0.5-0.6,0.9-1.1,0.9
	c-0.4,0-0.8-0.2-1-0.6l0,0c-0.5-0.5-1.1-0.8-1.8-0.8c-0.9,0-1.8,0.5-2.2,1.3l0,0c-0.1,0.4-0.2,0.7-0.3,1.1l0,0
	c-0.6,2-1.1,4.1-1.4,6.2l0,0c-0.3,1.9-0.5,3.7-0.6,5.6l0,0c-0.3,1.9-1.7,3.3-3.6,3.7l0,0c-1.6-0.3-2.9-1.5-3.4-3.1
	c-0.1-0.2-0.1-0.4-0.2-0.6l0,0c-0.1-1.9-0.3-3.8-0.6-5.6l0,0c-0.4-2.1-0.8-4.1-1.4-6.2l0,0c-0.1-0.4-0.2-0.7-0.3-1.1l0,0
	c-0.5-0.8-1.3-1.3-2.2-1.3c-0.7,0-1.4,0.3-1.8,0.8l0,0c-0.2,0.4-0.6,0.6-1,0.6c-0.5,0-1-0.4-1.1-0.9l0,0c-1.8-2.4-4.1-4.5-6.7-6.1
	l0,0c-0.4-0.3-0.8-0.4-1.2-0.4c-1,0-1.8,0.7-2,1.7l0,0c-0.4,0.3-0.8,0.5-1.3,0.5c-0.6,0-1.2-0.3-1.6-0.8l0,0c-2.8-2.7-6-4.8-9.6-6.2
	l0,0c-0.4-0.3-0.9-0.5-1.4-0.5c-1.2,0-2.3,1-2.3,2.3c0,0.2,0,0.4,0.1,0.6l0,0c-0.3,0.6-0.9,0.9-1.5,0.9c-0.4,0-0.7-0.1-1-0.3l0,0
	c-1.6-0.9-3.2-1.7-4.9-2.5l0,0c-0.6-0.3-1.3-0.4-2.1-0.4c-0.3,0-0.6,0-0.9,0.1l0,0c-0.1,0.3-0.1,0.6-0.1,0.9c0,0.7,0.1,1.4,0.4,2.1
	l0,0c0.8,1.6,1.6,3.3,2.5,4.9l0,0c0.2,0.3,0.3,0.6,0.3,1c0,0.6-0.3,1.2-0.9,1.5l0,0c-0.2-0.1-0.4-0.1-0.6-0.1c-1.2,0-2.3,1-2.3,2.3
	c0,0.5,0.2,1,0.5,1.4l0,0c1.4,3.6,3.5,6.9,6.2,9.6l0,0c0.5,0.4,0.8,1,0.8,1.6c0,0.5-0.2,1-0.5,1.3l0,0c-1,0.2-1.7,1-1.7,2
	c0,0.4,0.1,0.9,0.4,1.2l0,0c1.6,2.6,3.6,4.9,6.1,6.7l0,0c0.5,0.1,0.9,0.6,0.9,1.1c0,0.4-0.2,0.8-0.6,1l0,0c-0.5,0.5-0.8,1.1-0.8,1.8
	c0,0.9,0.5,1.8,1.3,2.2l0,0c0.4,0.1,0.7,0.2,1.1,0.3l0,0c2,0.6,4.1,1.1,6.2,1.4l0,0c1.9,0.3,3.7,0.5,5.6,0.6l0,0
	c1.9,0.3,3.3,1.7,3.7,3.6l0,0C-1184.8,1420.1-1186,1421.3-1187.6,1421.9L-1187.6,1421.9z"></path>
<path class="ladsvg-5756-st1" d="M-1257.7,1313.2c-0.4,0-0.7,0-1.1,0c-8.1,0-14.6,6.6-14.6,14.6c0,1.6,0.3,3.2,0.8,4.7l0,0
	c1.7,5.1,5.6,9.1,10.6,11l0,0c0.4,0.1,0.8,0.2,1.2,0.2c1.8,0,3.3-1.5,3.3-3.3c0-0.1,0-0.2,0-0.3l0,0c-0.2-1.9-1.6-3.4-3.4-3.9l0,0
	c-1.1-1.3-1.6-2.9-1.6-4.5c0-3.9,3.2-7,7-7c1.5,0,2.9,0.5,4.1,1.3l0,0c3.4,2.4,5.4,6.4,5.4,10.6s-2,8.1-5.4,10.6l0,0
	c-1.8,1.3-3.4,3-4.6,4.8l0,0c-0.2,0.4-0.3,0.8-0.3,1.2c0,1.5,1.2,2.7,2.7,2.7c0.2,0,0.3,0,0.5,0l0,0c0.6-0.3,1.2-0.4,1.8-0.4
	c1,0,1.9,0.3,2.6,0.9l0,0c0.1,0.2,0.1,0.5,0.1,0.8c0,0.8-0.3,1.6-0.9,2.2l0,0c-2.5,2.1-5.7,3.2-9,3.2c-0.4,0-0.8,0-1.1,0l0,0
	c-0.9,0.4-1.5,1.3-1.5,2.3c0,0.4,0.1,0.9,0.3,1.3l0,0c0.8,1.5,1.3,3.2,1.3,5c0,1.7-0.4,3.3-1.2,4.8l0,0c-0.9,1-1.4,2.4-1.4,3.7
	c0,0.3,0,0.7,0.1,1l0,0c0,1-0.9,1.8-1.9,1.8c-0.9,0-1.7-0.7-1.9-1.6l0,0c-0.6-0.6-1.5-1-2.4-1c-1.2,0-2.4,0.7-3,1.7l0,0
	c-1.5,1.4-3.5,2.2-5.6,2.2c-2.8,0-5.4-1.4-6.9-3.8l0,0c-0.7-1.1-1-2.3-1-3.5c0-2,0.9-4,2.5-5.2l0,0c0.2-0.1,0.5-0.1,0.7-0.1
	c0.8,0,1.6,0.4,2.2,1l0,0c1.3,1.4,3.1,2.2,4.9,2.2c1.6,0,3.1-0.6,4.4-1.6l0,0c1.4-1.2,2.2-3,2.2-4.8c0-1.6-0.6-3-1.6-4.2l0,0
	c-6.5-7.8-11.1-17.1-13.4-27l0,0c-0.3-1.6-0.5-3.2-0.5-4.8c0-5.1,1.5-10,4.3-14.2l0,0c0.5-0.3,0.8-0.8,0.8-1.3
	c0-0.8-0.7-1.5-1.5-1.5c-0.1,0-0.3,0-0.4,0.1l0,0c-2.1-1.3-3.3-3.6-3.3-6.1c0-1.7,0.6-3.3,1.7-4.6l0,0c0.6-0.3,1.2-0.5,1.9-0.5
	c0.7,0,1.4,0.2,2,0.6l0,0c1.9,1.3,4.2,2,6.4,2c0.6,0,1.1,0,1.7-0.1l0,0c3.7-0.9,7.5-1.4,11.3-1.4c7.8,0,15.5,2,22.4,5.7l0,0
	c1.4,0.6,2.5,1.6,3.3,2.8l0,0c0.2,0.3,0.5,0.5,0.9,0.5c0.6,0,1-0.5,1-1c0-0.1,0-0.2-0.1-0.3l0,0c0.2-3.3,2.1-6.3,5-8l0,0
	c0.4-0.3,0.8-0.5,1.3-0.5c0.9,0,1.7,0.7,1.9,1.6l0,0c1.2,1.8,2.6,3.6,4.1,5.2l0,0c0.2,0.2,0.5,0.4,0.9,0.4c0.6,0,1.1-0.4,1.2-1l0,0
	c1.5-1.9,3.7-3.1,6.2-3.1h0.1l0,0c0.2,0,0.5,0,0.7,0c4.4,0,8.1,3.3,8.7,7.7l0,0c0.1,0.4,0.1,0.9,0.1,1.4c0,3.3-2.4,6-5.7,6.4l0,0
	c-0.2,0-0.3,0-0.5,0c-1.8,0-3.5-0.7-4.8-2l0,0c-0.4-0.1-0.7-0.1-1.1-0.1c-2.9,0-5.6,1.7-6.7,4.4l0,0c-2.9,4.5-4.4,9.7-4.4,15
	c0,2.2,0.3,4.3,0.8,6.4l0,0h-9.1c0.3-1.7,0.5-3.4,0.5-5.1C-1232,1326.3-1243.2,1314.3-1257.7,1313.2L-1257.7,1313.2z"></path>
<path class="ladsvg-5756-st1" d="M-1258.2,1524c-0.4,0-0.7,0-1.1,0c-8.1,0-14.6-6.6-14.6-14.6c0-1.6,0.3-3.2,0.8-4.7l0,0
	c1.7-5.1,5.6-9.1,10.6-11l0,0c0.4-0.1,0.8-0.2,1.2-0.2c1.8,0,3.3,1.5,3.3,3.3c0,0.1,0,0.2,0,0.3l0,0c-0.2,1.9-1.6,3.4-3.4,3.9l0,0
	c-1.1,1.3-1.6,2.9-1.6,4.5c0,3.9,3.2,7,7,7c1.5,0,2.9-0.5,4.1-1.3l0,0c3.4-2.4,5.4-6.4,5.4-10.6s-2-8.1-5.4-10.6l0,0
	c-1.8-1.3-3.4-3-4.6-4.8l0,0c-0.2-0.4-0.3-0.8-0.3-1.2c0-1.5,1.2-2.7,2.7-2.7c0.2,0,0.3,0,0.5,0l0,0c0.6,0.3,1.2,0.4,1.8,0.4
	c1,0,1.9-0.3,2.6-0.9l0,0c0.1-0.2,0.1-0.5,0.1-0.7c0-0.8-0.3-1.6-0.9-2.2l0,0c-2.5-2.1-5.7-3.2-9-3.2c-0.4,0-0.8,0-1.1,0l0,0
	c-0.9-0.4-1.5-1.3-1.5-2.3c0-0.4,0.1-0.9,0.3-1.3l0,0c0.8-1.5,1.3-3.2,1.3-5c0-1.7-0.4-3.3-1.2-4.8l0,0c-0.9-1-1.4-2.4-1.4-3.7
	c0-0.3,0-0.7,0.1-1l0,0c0-1-0.9-1.8-1.9-1.8c-0.9,0-1.7,0.7-1.9,1.6l0,0c-0.6,0.6-1.5,1-2.4,1c-1.2,0-2.4-0.7-3-1.7l0,0
	c-1.5-1.4-3.5-2.2-5.6-2.2c-2.8,0-5.4,1.4-6.9,3.8l0,0c-0.7,1.1-1,2.3-1,3.5c0,2,0.9,4,2.5,5.2l0,0c0.2,0.1,0.5,0.1,0.7,0.1
	c0.8,0,1.6-0.4,2.2-1l0,0c1.3-1.4,3.1-2.2,4.9-2.2c1.6,0,3.1,0.6,4.4,1.6l0,0c1.4,1.2,2.2,2.9,2.2,4.8c0,1.6-0.6,3-1.6,4.2l0,0
	c-6.5,7.8-11.1,17.1-13.4,27l0,0c-0.3,1.6-0.5,3.2-0.5,4.8c0,5.1,1.5,10,4.3,14.2l0,0c0.5,0.3,0.8,0.8,0.8,1.3
	c0,0.8-0.7,1.5-1.5,1.5c-0.1,0-0.3,0-0.4-0.1l0,0c-2.1,1.3-3.3,3.6-3.3,6.1c0,1.7,0.6,3.3,1.7,4.6l0,0c0.6,0.3,1.2,0.5,1.9,0.5
	c0.7,0,1.4-0.2,2-0.6l0,0c1.9-1.3,4.2-2,6.4-2c0.6,0,1.1,0,1.7,0.1l0,0c3.7,0.9,7.5,1.4,11.3,1.4c7.8,0,15.5-2,22.4-5.7l0,0
	c1.4-0.6,2.5-1.6,3.3-2.8l0,0c0.2-0.3,0.5-0.5,0.9-0.5c0.6,0,1,0.5,1,1c0,0.1,0,0.2-0.1,0.3l0,0c0.2,3.3,2.1,6.3,5,8l0,0
	c0.4,0.3,0.8,0.5,1.3,0.5c0.9,0,1.7-0.7,1.9-1.6l0,0c1.2-1.8,2.6-3.6,4.1-5.2l0,0c0.2-0.2,0.5-0.4,0.9-0.4c0.6,0,1.1,0.4,1.2,1l0,0
	c1.5,1.9,3.7,3.1,6.2,3.1h0.1l0,0c0.2,0,0.5,0,0.7,0c4.4,0,8.1-3.3,8.7-7.7l0,0c0.1-0.4,0.1-0.9,0.1-1.4c0-3.3-2.4-6-5.7-6.4l0,0
	c-0.2,0-0.3,0-0.5,0c-1.8,0-3.5,0.7-4.8,2l0,0c-0.4,0.1-0.7,0.1-1.1,0.1c-2.9,0-5.6-1.7-6.7-4.4l0,0c-2.9-4.5-4.4-9.7-4.4-15
	c0-2.2,0.3-4.3,0.8-6.4l0,0h-9.1c0.3,1.7,0.5,3.4,0.5,5.1C-1232.5,1510.9-1243.7,1522.9-1258.2,1524L-1258.2,1524z"></path>
<path class="ladsvg-5756-st1" d="M-1071.4,1313.3c0.4,0,0.7,0,1.1,0c8.1,0,14.6,6.6,14.6,14.6c0,1.6-0.3,3.2-0.8,4.7l0,0
	c-1.7,5.1-5.6,9.1-10.6,11l0,0c-0.4,0.1-0.8,0.2-1.2,0.2c-1.8,0-3.3-1.5-3.3-3.3c0-0.1,0-0.2,0-0.3l0,0c0.2-1.9,1.6-3.4,3.4-3.9l0,0
	c1.1-1.3,1.6-2.9,1.6-4.5c0-3.9-3.2-7-7-7c-1.5,0-2.9,0.5-4.1,1.3l0,0c-3.4,2.4-5.4,6.4-5.4,10.6s2,8.1,5.4,10.6l0,0
	c1.8,1.3,3.4,3,4.6,4.8l0,0c0.2,0.4,0.3,0.8,0.3,1.2c0,1.5-1.2,2.7-2.7,2.7c-0.2,0-0.3,0-0.5,0l0,0c-0.6-0.3-1.2-0.4-1.8-0.4
	c-1,0-1.9,0.3-2.6,0.9l0,0c-0.1,0.2-0.1,0.5-0.1,0.8c0,0.8,0.3,1.6,0.9,2.2l0,0c2.5,2.1,5.7,3.2,9,3.2c0.4,0,0.8,0,1.1,0l0,0
	c0.9,0.4,1.5,1.3,1.5,2.3c0,0.4-0.1,0.9-0.3,1.3l0,0c-0.8,1.5-1.3,3.2-1.3,5c0,1.7,0.4,3.3,1.2,4.8l0,0c0.9,1,1.4,2.4,1.4,3.7
	c0,0.3,0,0.7-0.1,1l0,0c0,1,0.9,1.8,1.9,1.8c0.9,0,1.7-0.7,1.9-1.6l0,0c0.6-0.6,1.5-1,2.4-1c1.2,0,2.4,0.7,3,1.7l0,0
	c1.5,1.4,3.5,2.2,5.6,2.2c2.8,0,5.4-1.4,6.9-3.8l0,0c0.7-1.1,1-2.3,1-3.5c0-2-0.9-4-2.5-5.2l0,0c-0.2-0.1-0.5-0.1-0.7-0.1
	c-0.8,0-1.6,0.4-2.2,1l0,0c-1.3,1.4-3.1,2.2-4.9,2.2c-1.6,0-3.1-0.6-4.4-1.6l0,0c-1.4-1.2-2.2-3-2.2-4.8c0-1.6,0.6-3,1.6-4.2l0,0
	c6.5-7.8,11.1-17.1,13.4-27l0,0c0.3-1.6,0.5-3.2,0.5-4.8c0-5.1-1.5-10-4.3-14.2l0,0c-0.5-0.3-0.8-0.8-0.8-1.3c0-0.8,0.7-1.5,1.5-1.5
	c0.1,0,0.3,0,0.4,0.1l0,0c2.1-1.3,3.3-3.6,3.3-6.1c0-1.7-0.6-3.3-1.7-4.6l0,0c-0.6-0.3-1.2-0.5-1.9-0.5s-1.4,0.2-2,0.6l0,0
	c-1.9,1.3-4.2,2-6.4,2c-0.6,0-1.1,0-1.7-0.1l0,0c-3.7-0.9-7.5-1.4-11.3-1.4c-7.8,0-15.5,2-22.4,5.7l0,0c-1.4,0.6-2.5,1.6-3.3,2.8
	l0,0c-0.2,0.3-0.5,0.5-0.9,0.5c-0.6,0-1-0.5-1-1c0-0.1,0-0.2,0.1-0.3l0,0c-0.2-3.3-2.1-6.3-5-8l0,0c-0.4-0.3-0.8-0.5-1.3-0.5
	c-0.9,0-1.7,0.7-1.9,1.6l0,0c-1.2,1.8-2.6,3.6-4.1,5.2l0,0c-0.2,0.2-0.5,0.4-0.9,0.4c-0.6,0-1.1-0.4-1.2-1l0,0
	c-1.5-1.9-3.7-3.1-6.2-3.1h-0.1l0,0c-0.2,0-0.5,0-0.7,0c-4.4,0-8.1,3.3-8.7,7.7l0,0c-0.1,0.4-0.1,0.9-0.1,1.4c0,3.3,2.4,6,5.7,6.4
	l0,0c0.2,0,0.3,0,0.5,0c1.8,0,3.5-0.7,4.8-2l0,0c0.4-0.1,0.7-0.1,1.1-0.1c2.9,0,5.6,1.7,6.7,4.4l0,0c2.9,4.5,4.4,9.7,4.4,15
	c0,2.2-0.3,4.3-0.8,6.4l0,0h9.1c-0.3-1.7-0.5-3.4-0.5-5.1C-1097.1,1326.5-1085.9,1314.3-1071.4,1313.3L-1071.4,1313.3z"></path>
<path class="ladsvg-5756-st1" d="M-1071.2,1523.8c0.4,0,0.7,0,1.1,0c8.1,0,14.6-6.6,14.6-14.6c0-1.6-0.3-3.2-0.8-4.7l0,0
	c-1.7-5.1-5.6-9.1-10.6-11l0,0c-0.4-0.1-0.8-0.2-1.2-0.2c-1.8,0-3.3,1.5-3.3,3.3c0,0.1,0,0.2,0,0.3l0,0c0.2,1.9,1.6,3.4,3.4,3.9l0,0
	c1.1,1.3,1.6,2.9,1.6,4.5c0,3.9-3.2,7-7,7c-1.5,0-2.9-0.5-4.1-1.3l0,0c-3.4-2.4-5.4-6.4-5.4-10.6s2-8.1,5.4-10.6l0,0
	c1.8-1.3,3.4-3,4.6-4.8l0,0c0.2-0.4,0.3-0.8,0.3-1.2c0-1.5-1.2-2.7-2.7-2.7c-0.2,0-0.3,0-0.5,0l0,0c-0.6,0.3-1.2,0.4-1.8,0.4
	c-1,0-1.9-0.3-2.6-0.9l0,0c-0.1-0.2-0.1-0.5-0.1-0.7c0-0.8,0.3-1.6,0.9-2.2l0,0c2.5-2.1,5.7-3.2,9-3.2c0.4,0,0.8,0,1.1,0l0,0
	c0.9-0.4,1.5-1.3,1.5-2.3c0-0.4-0.1-0.9-0.3-1.3l0,0c-0.8-1.5-1.3-3.2-1.3-5c0-1.7,0.4-3.3,1.2-4.8l0,0c0.9-1,1.4-2.4,1.4-3.7
	c0-0.3,0-0.7-0.1-1l0,0c0-1,0.9-1.8,1.9-1.8c0.9,0,1.7,0.7,1.9,1.6l0,0c0.6,0.6,1.5,1,2.4,1c1.2,0,2.4-0.7,3-1.7l0,0
	c1.5-1.4,3.5-2.2,5.6-2.2c2.8,0,5.4,1.4,6.9,3.8l0,0c0.7,1.1,1,2.3,1,3.5c0,2-0.9,4-2.5,5.2l0,0c-0.2,0.1-0.5,0.1-0.7,0.1
	c-0.8,0-1.6-0.4-2.2-1l0,0c-1.3-1.4-3.1-2.2-4.9-2.2c-1.6,0-3.1,0.6-4.4,1.6l0,0c-1.4,1.2-2.2,2.9-2.2,4.8c0,1.6,0.6,3,1.6,4.2l0,0
	c6.5,7.8,11.1,17.1,13.4,27l0,0c0.3,1.6,0.5,3.2,0.5,4.8c0,5.1-1.5,10-4.3,14.2l0,0c-0.5,0.3-0.8,0.8-0.8,1.3c0,0.8,0.7,1.5,1.5,1.5
	c0.1,0,0.3,0,0.4-0.1l0,0c2.1,1.3,3.3,3.6,3.3,6.1c0,1.7-0.6,3.3-1.7,4.6l0,0c-0.6,0.3-1.2,0.5-1.9,0.5s-1.4-0.2-2-0.6l0,0
	c-1.9-1.3-4.2-2-6.4-2c-0.6,0-1.1,0-1.7,0.1l0,0c-3.7,0.9-7.5,1.4-11.3,1.4c-7.8,0-15.5-2-22.4-5.7l0,0c-1.4-0.6-2.5-1.6-3.3-2.8
	l0,0c-0.2-0.3-0.5-0.5-0.9-0.5c-0.6,0-1,0.5-1,1c0,0.1,0,0.2,0.1,0.3l0,0c-0.2,3.3-2.1,6.3-5,8l0,0c-0.4,0.3-0.8,0.5-1.3,0.5
	c-0.9,0-1.7-0.7-1.9-1.6l0,0c-1.2-1.8-2.6-3.6-4.1-5.2l0,0c-0.2-0.2-0.5-0.4-0.9-0.4c-0.6,0-1.1,0.4-1.2,1l0,0
	c-1.5,1.9-3.7,3.1-6.2,3.1h-0.1l0,0c-0.2,0-0.5,0-0.7,0c-4.4,0-8.1-3.3-8.7-7.7l0,0c-0.1-0.4-0.1-0.9-0.1-1.4c0-3.3,2.4-6,5.7-6.4
	l0,0c0.2,0,0.3,0,0.5,0c1.8,0,3.5,0.7,4.8,2l0,0c0.4,0.1,0.7,0.1,1.1,0.1c2.9,0,5.6-1.7,6.7-4.4l0,0c2.9-4.5,4.4-9.7,4.4-15
	c0-2.2-0.3-4.3-0.8-6.4l0,0h9.1c-0.3,1.7-0.5,3.4-0.5,5.1C-1096.9,1510.7-1085.7,1522.7-1071.2,1523.8L-1071.2,1523.8z"></path>
<path class="ladsvg-5756-st1" d="M-1164.5,1402.5c8.8,0,16,7.2,16,16s-7.2,16-16,16s-16-7.2-16-16C-1180.5,1409.6-1173.3,1402.5-1164.5,1402.5
	L-1164.5,1402.5z"></path>
</svg>