<svg version="1.1" id="Camada_1" xmlns:x="&amp;ns_extend;" xmlns:i="&amp;ns_ai;" xmlns:graph="&amp;ns_graphs;" xmlns="http://www.w3.org/2000/svg" xmlns:xlink="http://www.w3.org/1999/xlink" x="0px" y="0px" viewBox="-1291 1292.1 252.6 252.6" style="enable-background:new -1291 1292.1 252.6 252.6;" xml:space="preserve">
<style type="text/css">
	.ladsvg-9841-st0{fill:#1E3748;}
	.ladsvg-9841-st1{fill:#AC6C41;}
	.ladsvg-9841-st2{fill:#DBC17D;}
	.ladsvg-9841-st3{fill:#F9F7DD;}
	.ladsvg-9841-st4{fill:#B0B461;}
</style>
<switch>
	
	<g i:extraneous="self">
		<g id="Camada_1_1_">
		</g>
		<rect x="-1291" y="1292.2" class="ladsvg-9841-st0" width="252.5" height="252.5"></rect>
		<path class="ladsvg-9841-st1" d="M-1111.4,1418.3c-0.3-3.7-2.3-7-5.4-9l0,0c-1-0.9-1.5-2.2-1.5-3.6c0-0.7,0.1-1.3,0.4-1.9l0,0
			c1.6-1.6,2.6-3.7,2.6-6l0,0c0-0.1,0-0.2,0-0.2c0-0.5-0.4-0.8-0.8-0.8s-0.8,0.3-0.8,0.8l0,0c-1.7,1.5-3.9,2.3-6.2,2.3
			c-0.4,0-0.7,0-1.1-0.1l0,0c-0.9-0.1-1.8-0.1-2.7-0.1c-6.2,0-12.3,2-17.4,5.6l0,0c-2.3,1.5-4.3,3.4-5.9,5.6l0,0
			c-0.1,0.2-0.2,0.4-0.2,0.7c0,0.6,0.5,1.1,1.1,1.1c0.3,0,0.5-0.1,0.7-0.3l0,0c1.2-0.4,2.5-0.5,3.7-0.5c2.3,0,4.6,0.6,6.6,1.8l0,0
			c1.6,1.2,2.9,2.8,3.6,4.7l0,0c-0.7,1.9-2,3.5-3.6,4.7l0,0c-2,1.2-4.3,1.8-6.6,1.8c-1.3,0-2.5-0.2-3.7-0.5l0,0
			c-0.2-0.2-0.4-0.3-0.7-0.3c-0.6,0-1.1,0.5-1.1,1.1c0,0.2,0.1,0.5,0.2,0.7l0,0c1.6,2.2,3.6,4.1,5.9,5.6l0,0
			c5.1,3.6,11.1,5.6,17.4,5.6c0.9,0,1.8,0,2.7-0.1l0,0c0.4,0,0.7-0.1,1.1-0.1c2.3,0,4.5,0.8,6.2,2.3l0,0c0,0.4,0.4,0.8,0.8,0.8
			c0.5,0,0.8-0.4,0.8-0.8c0-0.1,0-0.2,0-0.2l0,0c0-2.3-0.9-4.4-2.6-6l0,0c-0.3-0.6-0.4-1.3-0.4-1.9c0-1.3,0.5-2.6,1.5-3.6l0,0
			C-1113.7,1425.3-1111.7,1422.1-1111.4,1418.3L-1111.4,1418.3z"></path>
		<path class="ladsvg-9841-st1" d="M-1218.1,1418.7c0.2-3.7,2.2-7,5.3-9l0,0c1-0.9,1.5-2.2,1.5-3.6c0-0.7-0.1-1.3-0.4-1.9l0,0
			c-1.7-1.6-2.6-3.7-2.6-6l0,0c0-0.1,0-0.2,0-0.3c0-0.5,0.4-0.8,0.8-0.8s0.8,0.3,0.8,0.8l0,0c1.7,1.5,3.9,2.3,6.1,2.3
			c0.4,0,0.8,0,1.1-0.1l0,0c1-0.1,1.9-0.1,2.9-0.1c6.2,0,12.2,1.9,17.2,5.5l0,0c2.3,1.4,4.3,3.3,5.9,5.6l0,0
			c0.1,0.2,0.2,0.4,0.2,0.7c0,0.6-0.5,1.1-1.1,1.1c-0.3,0-0.5-0.1-0.7-0.3l0,0c-1.2-0.3-2.4-0.5-3.6-0.5c-2.4,0-4.7,0.6-6.7,1.8l0,0
			c-1.6,1.2-2.9,2.8-3.6,4.7l0,0c0.7,1.9,2,3.5,3.6,4.7l0,0c2,1.1,4.3,1.7,6.6,1.7c1.3,0,2.6-0.2,3.8-0.6l0,0
			c0.2-0.2,0.5-0.3,0.7-0.3c0.6,0,1.1,0.5,1.1,1.1c0,0.2-0.1,0.5-0.2,0.7l0,0c-1.6,2.2-3.6,4.1-5.9,5.6l0,0
			c-5.1,3.7-11.2,5.7-17.5,5.7c-0.8,0-1.7,0-2.5-0.1l0,0c-0.3,0-0.7-0.1-1-0.1c-2.3,0-4.5,0.8-6.2,2.4l0,0c0,0.4-0.4,0.8-0.8,0.8
			c-0.5,0-0.8-0.4-0.8-0.8c0-0.1,0-0.2,0-0.2l0,0l0,0c0-2.3,0.9-4.4,2.6-6l0,0c0.2-0.6,0.4-1.2,0.4-1.9c0-1.4-0.6-2.7-1.5-3.6l0,0
			C-1215.8,1425.7-1217.9,1422.3-1218.1,1418.7L-1218.1,1418.7z"></path>
		<path class="ladsvg-9841-st1" d="M-1164.8,1471.8c-3.7-0.3-7-2.3-9-5.4l0,0c-0.9-1-2.2-1.5-3.6-1.5c-0.7,0-1.3,0.1-1.9,0.4l0,0
			c-1.6,1.6-3.7,2.6-6,2.6l0,0c-0.1,0-0.2,0-0.2,0c-0.5,0-0.8-0.4-0.8-0.8s0.3-0.8,0.8-0.8l0,0c1.5-1.7,2.3-3.9,2.3-6.2
			c0-0.4,0-0.7-0.1-1.1l0,0c-0.1-0.9-0.1-1.8-0.1-2.7c0-6.2,2-12.3,5.6-17.4l0,0c1.5-2.3,3.4-4.3,5.6-5.9l0,0
			c0.2-0.1,0.4-0.2,0.7-0.2c0.6,0,1.1,0.5,1.1,1.1c0,0.3-0.1,0.5-0.3,0.7l0,0c-0.4,1.2-0.5,2.5-0.5,3.7c0,2.3,0.6,4.6,1.8,6.6l0,0
			c1.2,1.6,2.8,2.9,4.7,3.6l0,0c1.9-0.7,3.5-2,4.7-3.6l0,0c1.2-2,1.8-4.3,1.8-6.6c0-1.3-0.2-2.5-0.5-3.7l0,0
			c-0.2-0.2-0.3-0.4-0.3-0.7c0-0.6,0.5-1.1,1.1-1.1c0.2,0,0.5,0.1,0.7,0.2l0,0c2.2,1.6,4.1,3.6,5.6,5.9l0,0
			c3.6,5.1,5.6,11.1,5.6,17.4c0,0.9,0,1.8-0.1,2.7l0,0c0,0.4-0.1,0.7-0.1,1.1c0,2.3,0.8,4.5,2.3,6.2l0,0c0.4,0,0.8,0.4,0.8,0.8
			c0,0.5-0.4,0.8-0.8,0.8c-0.1,0-0.2,0-0.2,0l0,0c-2.3,0-4.4-0.9-6-2.6l0,0c-0.6-0.3-1.3-0.4-1.9-0.4c-1.3,0-2.6,0.5-3.6,1.5l0,0
			C-1157.8,1469.5-1161.1,1471.5-1164.8,1471.8L-1164.8,1471.8z"></path>
		<path class="ladsvg-9841-st1" d="M-1164.8,1365c-3.7,0.3-7,2.3-9,5.4l0,0c-0.9,1-2.2,1.5-3.6,1.5c-0.7,0-1.3-0.1-1.9-0.4l0,0
			c-1.6-1.6-3.7-2.6-6-2.6l0,0c-0.1,0-0.2,0-0.2,0c-0.5,0-0.8,0.4-0.8,0.8s0.3,0.8,0.8,0.8l0,0c1.5,1.7,2.3,3.9,2.3,6.2
			c0,0.4,0,0.7-0.1,1.1l0,0c-0.1,0.9-0.1,1.8-0.1,2.7c0,6.2,2,12.3,5.6,17.4l0,0c1.5,2.3,3.4,4.3,5.6,5.9l0,0
			c0.2,0.1,0.4,0.2,0.7,0.2c0.6,0,1.1-0.5,1.1-1.1c0-0.3-0.1-0.5-0.3-0.7l0,0c-0.4-1.2-0.5-2.5-0.5-3.7c0-2.3,0.6-4.6,1.8-6.6l0,0
			c1.2-1.6,2.8-2.9,4.7-3.6l0,0c1.9,0.7,3.5,2,4.7,3.6l0,0c1.2,2,1.8,4.3,1.8,6.6c0,1.3-0.2,2.5-0.5,3.7l0,0
			c-0.2,0.2-0.3,0.4-0.3,0.7c0,0.6,0.5,1.1,1.1,1.1c0.2,0,0.5-0.1,0.7-0.2l0,0c2.2-1.6,4.1-3.6,5.6-5.9l0,0
			c3.6-5.1,5.6-11.1,5.6-17.4c0-0.9,0-1.8-0.1-2.7l0,0c0-0.4-0.1-0.7-0.1-1.1c0-2.3,0.8-4.5,2.3-6.2l0,0c0.4,0,0.8-0.4,0.8-0.8
			c0-0.5-0.4-0.8-0.8-0.8c-0.1,0-0.2,0-0.2,0l0,0c-2.3,0-4.4,0.9-6,2.6l0,0c-0.6,0.3-1.3,0.4-1.9,0.4c-1.3,0-2.6-0.5-3.6-1.5l0,0
			C-1157.8,1367.3-1161.1,1365.3-1164.8,1365L-1164.8,1365z"></path>
		<path class="ladsvg-9841-st2" d="M-1106.1,1385.1c-0.4-0.8-1.3-1.3-2.2-1.3c-0.5,0-0.9,0.1-1.3,0.4l0,0l-1,0.6c-0.7,0.5-1.2,1.3-1.2,2.1
			c0,0.4,0.1,0.9,0.3,1.2l0,0c5.2,9.2,7.9,19.6,7.9,30.1c0,10.6-2.7,20.9-7.9,30.1l0,0c-0.2,0.4-0.3,0.8-0.3,1.2
			c0,0.9,0.5,1.7,1.2,2.1l0,0l1,0.6c0.4,0.2,0.9,0.4,1.3,0.4c0.9,0,1.7-0.5,2.2-1.3l0,0c5.8-10.1,8.8-21.6,8.8-33.3
			C-1097.4,1406.7-1100.4,1395.3-1106.1,1385.1L-1106.1,1385.1z"></path>
		<path class="ladsvg-9841-st2" d="M-1053.7,1514.9c-2.6-3.1-6.5-4.9-10.5-4.9c-2.5,0-4.9,0.7-7,1.9l0,0c-1.3,2.1-1.9,4.5-1.9,7
			c0,4.1,1.8,7.9,4.9,10.5l0,0c5.7,4.8,12.8,7.5,20.2,7.7l0,0c0,0,0,0,0.1,0c0.5,0,1-0.3,1.3-0.7l0,0c0.5-0.3,0.7-0.8,0.7-1.3
			c0,0,0,0,0-0.1l0,0C-1046.2,1527.7-1048.9,1520.6-1053.7,1514.9L-1053.7,1514.9z"></path>
		<path class="ladsvg-9841-st2" d="M-1223.6,1385.5c0.4-0.8,1.3-1.3,2.2-1.3c0.5,0,0.9,0.1,1.3,0.4l0,0l1,0.6c0.7,0.5,1.2,1.3,1.2,2.2
			c0,0.4-0.1,0.9-0.3,1.2l0,0c-5.1,9.1-7.8,19.4-7.8,29.8c0,10.7,2.8,21.2,8.1,30.4l0,0c0.2,0.4,0.3,0.8,0.3,1.3
			c0,0.9-0.4,1.7-1.2,2.1l0,0l-1,0.6c-0.4,0.3-0.9,0.4-1.3,0.4c-0.9,0-1.7-0.5-2.2-1.3l0,0c-5.9-10.2-9-21.8-9-33.6
			C-1232.2,1406.9-1229.2,1395.5-1223.6,1385.5L-1223.6,1385.5z"></path>
		<path class="ladsvg-9841-st2" d="M-1275.9,1514.9c2.6-3.1,6.5-4.9,10.5-4.9c2.5,0,4.9,0.7,7,1.9l0,0c1.3,2.1,1.9,4.5,1.9,7
			c0,4.1-1.8,7.9-4.9,10.5l0,0c-5.7,4.8-12.8,7.5-20.2,7.7l0,0c0,0,0,0-0.1,0c-0.5,0-1-0.3-1.3-0.7l0,0c-0.5-0.3-0.7-0.8-0.7-1.3
			c0,0,0,0,0-0.1l0,0C-1283.4,1527.7-1280.7,1520.6-1275.9,1514.9L-1275.9,1514.9z"></path>
		<path class="ladsvg-9841-st2" d="M-1198,1477c-0.8-0.4-1.3-1.3-1.3-2.2c0-0.5,0.1-0.9,0.4-1.3l0,0l0.6-1c0.5-0.7,1.3-1.2,2.1-1.2
			c0.4,0,0.9,0.1,1.2,0.3l0,0c9.2,5.2,19.6,7.9,30.1,7.9c10.6,0,20.9-2.7,30.1-7.9l0,0c0.4-0.2,0.8-0.3,1.2-0.3
			c0.9,0,1.7,0.5,2.1,1.2l0,0l0.6,1c0.2,0.4,0.4,0.9,0.4,1.3c0,0.9-0.5,1.7-1.3,2.2l0,0c-10.1,5.8-21.6,8.8-33.3,8.8
			C-1176.4,1485.8-1187.9,1482.8-1198,1477L-1198,1477z"></path>
		<path class="ladsvg-9841-st2" d="M-1053.7,1321.8c-2.6,3.1-6.5,4.9-10.5,4.9c-2.5,0-4.9-0.7-7-1.9l0,0c-1.3-2.1-1.9-4.5-1.9-7
			c0-4.1,1.8-7.9,4.9-10.5l0,0c5.7-4.8,12.8-7.5,20.2-7.7l0,0c0,0,0,0,0.1,0c0.5,0,1,0.3,1.3,0.7l0,0c0.5,0.3,0.7,0.8,0.7,1.3l0,0
			l0,0C-1046.2,1309-1048.9,1316.1-1053.7,1321.8L-1053.7,1321.8z"></path>
		<path class="ladsvg-9841-st2" d="M-1275.9,1321.8c2.6,3.1,6.5,4.9,10.5,4.9c2.5,0,4.9-0.7,7-1.9l0,0c1.3-2.1,1.9-4.5,1.9-7
			c0-4.1-1.8-7.9-4.9-10.5l0,0c-5.7-4.8-12.8-7.5-20.2-7.7l0,0c0,0,0,0-0.1,0c-0.5,0-1,0.3-1.3,0.7l0,0c-0.5,0.3-0.7,0.8-0.7,1.3
			l0,0l0,0C-1283.4,1309-1280.7,1316.1-1275.9,1321.8L-1275.9,1321.8z"></path>
		<path class="ladsvg-9841-st2" d="M-1198,1359.7c-0.8,0.4-1.3,1.3-1.3,2.2c0,0.5,0.1,0.9,0.4,1.3l0,0l0.6,1c0.5,0.7,1.3,1.2,2.1,1.2
			c0.4,0,0.9-0.1,1.2-0.3l0,0c9.2-5.2,19.6-7.9,30.1-7.9c10.6,0,20.9,2.7,30.1,7.9l0,0c0.4,0.2,0.8,0.3,1.2,0.3
			c0.9,0,1.7-0.5,2.1-1.2l0,0l0.6-1c0.2-0.4,0.4-0.9,0.4-1.3c0-0.9-0.5-1.7-1.3-2.2l0,0c-10.1-5.7-21.6-8.8-33.3-8.8
			C-1176.4,1351-1187.9,1354-1198,1359.7L-1198,1359.7z"></path>
		<path class="ladsvg-9841-st3" d="M-1155.2,1418.5c0-5.3-4.3-9.7-9.7-9.7c-5.3,0-9.7,4.3-9.7,9.7c0,5.4,4.3,9.7,9.7,9.7
			C-1159.6,1428.1-1155.2,1423.8-1155.2,1418.5"></path>
		<path class="ladsvg-9841-st3" d="M-1051.7,1418.3c-0.9-3.8-3.2-7-6.4-9.2l0,0c-0.9-0.7-2-1.1-3.2-1.1c-1.6,0-3.1,0.8-4.1,2.1l0,0
			c-3.4,3.4-8,5.3-12.8,5.3c-1.2,0-2.3-0.1-3.4-0.3l0,0c-0.4-0.6-0.6-1.2-0.6-1.9c0-1.6,1.2-3,2.8-3.2l0,0c4.9-0.9,8.4-5.1,8.4-10.1
			v-0.1l0,0c-1.1-1.8-3-2.9-5.1-2.9c-2.6,0-4.9,1.7-5.7,4.2l0,0c-2.9,6.5-6.9,12.3-12,17.3l0,0c5,5,9.1,10.8,12,17.3l0,0
			c0.8,2.5,3.1,4.2,5.7,4.2c2.1,0,4-1.1,5.1-2.9l0,0v-0.1c0-4.9-3.5-9.2-8.4-10.1l0,0c-1.6-0.2-2.8-1.6-2.8-3.2
			c0-0.7,0.2-1.4,0.6-1.9l0,0c1.1-0.2,2.3-0.3,3.4-0.3c4.8,0,9.4,1.9,12.8,5.3l0,0c0.9,1.3,2.4,2.1,4.1,2.1c1.2,0,2.3-0.4,3.2-1.1
			l0,0C-1054.9,1425.3-1052.6,1422.1-1051.7,1418.3L-1051.7,1418.3z"></path>
		<path class="ladsvg-9841-st3" d="M-1277.9,1419c0.9-3.8,3.2-7.1,6.4-9.3l0,0c0.9-0.7,2-1.2,3.2-1.2c1.6,0,3.1,0.8,4,2.1l0,0
			c3.4,3.3,8,5.2,12.7,5.2c1.2,0,2.4-0.1,3.5-0.3l0,0c0.4-0.6,0.6-1.2,0.6-1.9c0-1.6-1.2-3-2.8-3.2l0,0c-4.9-0.9-8.4-5.1-8.4-10.1
			l0,0l0,0c1.1-1.8,3-2.9,5.1-2.9c2.6,0,4.9,1.7,5.7,4.2l0,0c2.9,6.4,7,12.3,12.1,17.2l0,0c-5,5-9.1,10.9-11.9,17.3l0,0
			c-0.8,2.5-3.1,4.2-5.7,4.2c-2.1,0-4-1.1-5.1-2.9l0,0c0-0.1,0-0.1,0-0.2c0-4.9,3.5-9.1,8.3-10.1l0,0c1.6-0.2,2.8-1.6,2.8-3.2
			c0-0.7-0.2-1.4-0.7-1.9l0,0c-1.1-0.2-2.2-0.3-3.3-0.3c-4.8,0-9.5,1.9-12.9,5.3l0,0c-0.9,1.3-2.5,2.1-4.1,2.1
			c-1.1,0-2.3-0.4-3.1-1.1l0,0C-1274.6,1426.1-1276.9,1422.8-1277.9,1419L-1277.9,1419z"></path>
		<path class="ladsvg-9841-st3" d="M-1164.8,1531.5c-3.8-0.9-7-3.2-9.2-6.4l0,0c-0.7-0.9-1.1-2-1.1-3.2c0-1.6,0.8-3.1,2.1-4.1l0,0
			c3.4-3.4,5.3-8,5.3-12.8c0-1.2-0.1-2.3-0.3-3.4l0,0c-0.6-0.4-1.2-0.6-1.9-0.6c-1.6,0-3,1.2-3.2,2.8l0,0c-0.9,4.9-5.1,8.4-10.1,8.4
			h-0.1l0,0c-1.8-1.1-2.9-3-2.9-5.1c0-2.6,1.7-4.9,4.2-5.7l0,0c6.5-2.9,12.3-6.9,17.3-12l0,0c5,5,10.8,9.1,17.3,12l0,0
			c2.5,0.8,4.2,3.1,4.2,5.7c0,2.1-1.1,4-2.9,5.1l0,0h-0.1c-4.9,0-9.2-3.5-10.1-8.4l0,0c-0.2-1.6-1.6-2.8-3.2-2.8
			c-0.7,0-1.4,0.2-1.9,0.6l0,0c-0.2,1.1-0.3,2.3-0.3,3.4c0,4.8,1.9,9.4,5.3,12.8l0,0c1.3,0.9,2.1,2.4,2.1,4.1c0,1.2-0.4,2.3-1.1,3.2
			l0,0C-1157.7,1528.3-1161,1530.5-1164.8,1531.5L-1164.8,1531.5z"></path>
		<path class="ladsvg-9841-st3" d="M-1164.8,1305.3c-3.8,0.9-7,3.2-9.2,6.4l0,0c-0.7,0.9-1.1,2-1.1,3.2c0,1.6,0.8,3.1,2.1,4.1l0,0
			c3.4,3.4,5.3,8,5.3,12.8c0,1.2-0.1,2.3-0.3,3.4l0,0c-0.6,0.4-1.2,0.6-1.9,0.6c-1.6,0-3-1.2-3.2-2.8l0,0c-0.9-4.9-5.1-8.4-10.1-8.4
			h-0.1l0,0c-1.8,1.1-2.9,3-2.9,5.1c0,2.6,1.7,4.9,4.2,5.7l0,0c6.5,2.9,12.3,6.9,17.3,12l0,0c5-5,10.8-9.1,17.3-12l0,0
			c2.5-0.8,4.2-3.1,4.2-5.7c0-2.1-1.1-4-2.9-5.1l0,0h-0.1c-4.9,0-9.2,3.5-10.1,8.4l0,0c-0.2,1.6-1.6,2.8-3.2,2.8
			c-0.7,0-1.4-0.2-1.9-0.6l0,0c-0.2-1.1-0.3-2.3-0.3-3.4c0-4.8,1.9-9.4,5.3-12.8l0,0c1.3-0.9,2.1-2.4,2.1-4.1c0-1.2-0.4-2.3-1.1-3.2
			l0,0C-1157.7,1308.5-1161,1306.2-1164.8,1305.3L-1164.8,1305.3z"></path>
		<path class="ladsvg-9841-st4" d="M-1097,1457.9c0-0.1,0-0.2,0-0.3c0-0.6-0.5-1.2-1.2-1.2c-0.2,0-0.3,0-0.5,0.1l0,0c-2.9,1.4-4.8,4.3-4.8,7.6
			c0,1.1,0.2,2.2,0.7,3.3l0,0c0.1,0.2,0.1,0.4,0.1,0.6c0,0.8-0.7,1.5-1.5,1.5s-1.4-0.6-1.5-1.4l0,0c-3.9-6.9-10.3-12-17.9-14.3l0,0
			c-0.2,0-0.4,0-0.6,0c-1.1,0-2.2-0.5-2.9-1.4l0,0c-0.7-1.2-2-2-3.4-2c-0.7,0-1.3,0.2-1.9,0.5l0,0c-0.3,0.6-0.5,1.2-0.5,1.9
			c0,1.4,0.8,2.7,2,3.4l0,0c0.9,0.7,1.4,1.7,1.4,2.9c0,0.2,0,0.4,0,0.6l0,0c2.3,7.6,7.4,14,14.3,17.9l0,0c0.8,0,1.4,0.7,1.4,1.5
			s-0.7,1.5-1.5,1.5c-0.2,0-0.4,0-0.6-0.1l0,0c-1-0.4-2.1-0.7-3.3-0.7c-3.2,0-6.2,1.9-7.6,4.8l0,0c-0.1,0.2-0.1,0.3-0.1,0.5
			c0,0.6,0.5,1.2,1.2,1.2c0.1,0,0.2,0,0.3,0l0,0c2.4-0.5,4.9-0.8,7.3-0.8c7,0,13.9,2.2,19.6,6.4l0,0c0.7,0.5,1.6,0.8,2.6,0.8
			c1.4,0,2.6-0.6,3.5-1.7l0,0c1.1-0.8,1.7-2.1,1.7-3.5c0-0.9-0.3-1.8-0.8-2.6l0,0c-4.2-5.7-6.4-12.5-6.4-19.6
			C-1097.8,1462.8-1097.6,1460.3-1097,1457.9L-1097,1457.9z"></path>
		<path class="ladsvg-9841-st4" d="M-1090.6,1469.3c-0.1-0.9-0.2-1.8-0.2-2.7c0-5,1.8-9.9,5.1-13.7l0,0c1.9-2.2,4.7-3.5,7.6-3.5
			c4.1,0,7.9,2.5,9.4,6.4l0,0c0.4,0.9,0.5,1.9,0.5,2.9c0,3.8-2.6,7-6.3,7.8l0,0c-0.4,0.1-0.8,0.1-1.1,0.1c-3.1,0-5.6-2.5-5.6-5.6
			c0-0.8,0.2-1.5,0.5-2.2l0,0c0.1-0.3,0.2-0.5,0.2-0.8c0-0.9-0.6-1.7-1.4-1.9l0,0c-0.2-0.1-0.4-0.1-0.6-0.1c-1.2,0-2.1,0.9-2.1,2.1
			c0,0.3,0.1,0.6,0.2,0.9l0,0c-0.4,1.9-0.7,3.9-0.7,5.9c0,3.8,0.8,7.6,2.4,11.1l0,0c1.7,2.8,4.7,4.5,8,4.5c0.6,0,1.2-0.1,1.9-0.2
			l0,0c0.3-0.1,0.7-0.2,1-0.2c1.5,0,2.7,1.2,2.7,2.7c0,0.6-0.2,1.2-0.6,1.7l0,0c-1.4,0.8-2.2,2.3-2.2,3.9c0,2.2,1.6,4.1,3.8,4.4l0,0
			c0.3,0,0.5,0.1,0.8,0.1c3,0,5.4-2.4,5.4-5.4c0-2-1.1-3.9-2.9-4.8l0,0c-2.9-1.6-4.7-4.7-4.7-8.1c0-1.4,0.3-2.8,0.9-4l0,0
			c0.3-0.7,0.9-1.2,1.7-1.2c1,0,1.8,0.8,1.8,1.8c0,0.1,0,0.2,0,0.3l0,0c0.7,1.7,2.2,3,4,3.4l0,0c1.1,0.9,1.7,2.2,1.8,3.6l0,0
			c0,0.1,0,0.2,0,0.4c0,0.9,0.7,1.6,1.6,1.6c0.7,0,1.3-0.4,1.5-1.1l0,0c1-1.2,2.5-2,4.2-2.2l0,0c0.2-0.2,0.6-0.4,0.9-0.4
			c0.7,0,1.3,0.6,1.3,1.3c0,0.4-0.2,0.8-0.5,1l0,0c0.3,1.7,0.5,3.4,0.5,5.1l0,0c0,0.4,0.1,0.9,0.1,1.3c0,8-6.3,14.5-14.3,14.8l0,0
			C-1078.5,1496-1088.8,1483.9-1090.6,1469.3L-1090.6,1469.3z"></path>
		<path class="ladsvg-9841-st4" d="M-1232.5,1457.9c0-0.1,0-0.2,0-0.3c0-0.6,0.5-1.2,1.2-1.2c0.2,0,0.3,0,0.5,0.1l0,0c2.9,1.4,4.8,4.3,4.8,7.6
			c0,1.1-0.2,2.2-0.7,3.3l0,0c-0.1,0.2-0.1,0.4-0.1,0.6c0,0.8,0.7,1.5,1.5,1.5s1.4-0.6,1.5-1.4l0,0c3.9-6.9,10.3-12,17.9-14.3l0,0
			c0.2,0,0.4,0,0.6,0c1.1,0,2.2-0.5,2.9-1.4l0,0c0.7-1.2,2-2,3.4-2c0.7,0,1.3,0.2,1.9,0.5l0,0c0.3,0.6,0.5,1.2,0.5,1.9
			c0,1.4-0.8,2.7-2,3.4l0,0c-0.9,0.7-1.4,1.7-1.4,2.9c0,0.2,0,0.4,0,0.6l0,0c-2.3,7.6-7.4,14-14.3,17.9l0,0c-0.8,0-1.4,0.7-1.4,1.5
			s0.7,1.5,1.5,1.5c0.2,0,0.4,0,0.6-0.1l0,0c1-0.4,2.1-0.7,3.3-0.7c3.2,0,6.2,1.9,7.6,4.8l0,0c0.1,0.2,0.1,0.3,0.1,0.5
			c0,0.6-0.5,1.2-1.2,1.2c-0.1,0-0.2,0-0.3,0l0,0c-2.4-0.5-4.9-0.8-7.3-0.8c-7,0-13.9,2.2-19.6,6.4l0,0c-0.7,0.5-1.6,0.8-2.6,0.8
			c-1.4,0-2.6-0.6-3.5-1.7l0,0c-1.1-0.8-1.7-2.1-1.7-3.5c0-0.9,0.3-1.8,0.8-2.6l0,0c4.2-5.7,6.4-12.5,6.4-19.6
			C-1231.7,1462.8-1232,1460.3-1232.5,1457.9L-1232.5,1457.9z"></path>
		<path class="ladsvg-9841-st4" d="M-1238.9,1469.3c0.1-0.9,0.2-1.8,0.2-2.7c0-5-1.8-9.9-5.1-13.7l0,0c-1.9-2.2-4.7-3.5-7.6-3.5
			c-4.1,0-7.8,2.5-9.4,6.4l0,0c-0.4,0.9-0.5,1.9-0.5,2.9c0,3.8,2.6,7,6.3,7.8l0,0c0.4,0.1,0.8,0.1,1.1,0.1c3.1,0,5.6-2.5,5.6-5.6
			c0-0.8-0.2-1.5-0.5-2.2l0,0c-0.1-0.3-0.2-0.5-0.2-0.8c0-0.9,0.6-1.7,1.4-1.9l0,0c0.2-0.1,0.4-0.1,0.6-0.1c1.2,0,2.1,0.9,2.1,2.1
			c0,0.3-0.1,0.6-0.2,0.9l0,0c0.4,1.9,0.7,3.9,0.7,5.9c0,3.8-0.8,7.6-2.4,11.1l0,0c-1.7,2.8-4.7,4.5-8,4.5c-0.6,0-1.2-0.1-1.9-0.2
			l0,0c-0.3-0.1-0.7-0.2-1-0.2c-1.5,0-2.7,1.2-2.7,2.7c0,0.6,0.2,1.2,0.6,1.7l0,0c1.4,0.8,2.2,2.3,2.2,3.9c0,2.2-1.6,4.1-3.8,4.4
			l0,0c-0.3,0-0.5,0.1-0.8,0.1c-3,0-5.4-2.4-5.4-5.4c0-2,1.1-3.9,2.9-4.8l0,0c2.9-1.6,4.7-4.7,4.7-8.1c0-1.4-0.3-2.8-0.9-4l0,0
			c-0.3-0.7-0.9-1.2-1.7-1.2c-1,0-1.8,0.8-1.8,1.8c0,0.1,0,0.2,0,0.3l0,0c-0.7,1.7-2.2,3-4,3.4l0,0c-1.1,0.9-1.7,2.2-1.8,3.6l0,0
			c0,0.1,0,0.2,0,0.4c0,0.9-0.7,1.6-1.6,1.6c-0.7,0-1.3-0.4-1.5-1.1l0,0c-1-1.2-2.5-2-4.2-2.2l0,0c-0.3-0.2-0.6-0.4-0.9-0.4
			c-0.7,0-1.3,0.6-1.3,1.3c0,0.4,0.2,0.8,0.5,1l0,0c-0.3,1.7-0.5,3.4-0.5,5.1l0,0c0,0.4-0.1,0.9-0.1,1.3c0,8,6.3,14.5,14.3,14.8l0,0
			C-1251,1496-1240.7,1483.9-1238.9,1469.3L-1238.9,1469.3z"></path>
		<path class="ladsvg-9841-st4" d="M-1113.9,1492.6c-0.9-0.1-1.8-0.2-2.7-0.2c-5,0-9.9,1.8-13.7,5.1l0,0c-2.2,1.9-3.5,4.7-3.5,7.6
			c0,4.1,2.5,7.9,6.4,9.4l0,0c0.9,0.4,1.9,0.5,2.9,0.5c3.8,0,7-2.6,7.8-6.3l0,0c0.1-0.4,0.1-0.8,0.1-1.1c0-3.1-2.5-5.6-5.6-5.6
			c-0.8,0-1.5,0.2-2.2,0.5l0,0c-0.3,0.1-0.5,0.2-0.8,0.2c-0.9,0-1.7-0.6-1.9-1.4l0,0c-0.1-0.2-0.1-0.4-0.1-0.6
			c0-1.2,0.9-2.1,2.1-2.1c0.3,0,0.6,0.1,0.9,0.2l0,0c1.9-0.4,3.9-0.7,5.9-0.7c3.8,0,7.6,0.8,11.1,2.4l0,0c2.8,1.7,4.5,4.7,4.5,8
			c0,0.6-0.1,1.2-0.2,1.9l0,0c-0.1,0.3-0.2,0.7-0.2,1c0,1.5,1.2,2.7,2.7,2.7c0.6,0,1.2-0.2,1.7-0.6l0,0c0.8-1.4,2.3-2.2,3.9-2.2
			c2.2,0,4.1,1.6,4.4,3.8l0,0c0,0.3,0.1,0.5,0.1,0.8c0,3-2.4,5.4-5.4,5.4c-2,0-3.9-1.1-4.8-2.9l0,0c-1.6-2.9-4.7-4.7-8.1-4.7
			c-1.4,0-2.8,0.3-4,0.9l0,0c-0.7,0.3-1.2,0.9-1.2,1.7c0,1,0.8,1.8,1.8,1.8c0.1,0,0.2,0,0.3,0l0,0c1.7,0.7,3,2.2,3.4,4l0,0
			c0.9,1.1,2.2,1.7,3.6,1.8l0,0c0.1,0,0.2,0,0.4,0c0.9,0,1.6,0.7,1.6,1.6c0,0.7-0.4,1.3-1.1,1.5l0,0c-1.2,1-2,2.5-2.2,4.2l0,0
			c-0.2,0.2-0.4,0.6-0.4,0.9c0,0.7,0.6,1.3,1.3,1.3c0.4,0,0.8-0.2,1-0.5l0,0c1.7,0.3,3.4,0.5,5.1,0.5l0,0c0.4,0,0.9,0.1,1.3,0.1
			c8,0,14.5-6.3,14.8-14.3l0,0C-1087.2,1504.6-1099.3,1494.3-1113.9,1492.6L-1113.9,1492.6z"></path>
		<path class="ladsvg-9841-st4" d="M-1215.7,1492.6c0.9-0.1,1.8-0.2,2.7-0.2c5,0,9.9,1.8,13.7,5.1l0,0c2.2,1.9,3.5,4.7,3.5,7.6
			c0,4.1-2.5,7.9-6.4,9.4l0,0c-0.9,0.4-1.9,0.5-2.9,0.5c-3.8,0-7-2.6-7.8-6.3l0,0c-0.1-0.4-0.1-0.8-0.1-1.1c0-3.1,2.5-5.6,5.6-5.6
			c0.8,0,1.5,0.2,2.2,0.5l0,0c0.3,0.1,0.5,0.2,0.8,0.2c0.9,0,1.7-0.6,1.9-1.4l0,0c0.1-0.2,0.1-0.4,0.1-0.6c0-1.2-0.9-2.1-2.1-2.1
			c-0.3,0-0.6,0.1-0.9,0.2l0,0c-1.9-0.4-3.9-0.7-5.9-0.7c-3.8,0-7.6,0.8-11.1,2.4l0,0c-2.8,1.7-4.5,4.7-4.5,8c0,0.6,0.1,1.2,0.2,1.9
			l0,0c0.1,0.3,0.2,0.7,0.2,1c0,1.5-1.2,2.7-2.7,2.7c-0.6,0-1.2-0.2-1.7-0.6l0,0c-0.8-1.4-2.3-2.2-3.9-2.2c-2.2,0-4.1,1.6-4.4,3.8
			l0,0c0,0.3-0.1,0.5-0.1,0.8c0,3,2.4,5.4,5.4,5.4c2,0,3.9-1.1,4.8-2.9l0,0c1.6-2.9,4.7-4.7,8.1-4.7c1.4,0,2.8,0.3,4,0.9l0,0
			c0.7,0.3,1.2,0.9,1.2,1.7c0,1-0.8,1.8-1.8,1.8c-0.1,0-0.2,0-0.3,0l0,0c-1.7,0.7-3,2.2-3.4,4l0,0c-0.9,1.1-2.2,1.7-3.6,1.8l0,0
			c-0.1,0-0.2,0-0.4,0c-0.9,0-1.6,0.7-1.6,1.6c0,0.7,0.4,1.3,1.1,1.5l0,0c1.2,1,2,2.5,2.2,4.2l0,0c0.2,0.2,0.4,0.6,0.4,0.9
			c0,0.7-0.6,1.3-1.3,1.3c-0.4,0-0.8-0.2-1-0.5l0,0c-1.7,0.3-3.4,0.5-5.1,0.5l0,0c-0.4,0-0.9,0.1-1.3,0.1c-8,0-14.5-6.3-14.8-14.3
			l0,0C-1242.4,1504.6-1230.2,1494.3-1215.7,1492.6L-1215.7,1492.6z"></path>
		<path class="ladsvg-9841-st4" d="M-1097,1378.9c0,0.1,0,0.2,0,0.3c0,0.6-0.5,1.2-1.2,1.2c-0.2,0-0.3,0-0.5-0.1l0,0c-2.9-1.4-4.8-4.3-4.8-7.6
			c0-1.1,0.2-2.2,0.7-3.3l0,0c0.1-0.2,0.1-0.4,0.1-0.6c0-0.8-0.7-1.5-1.5-1.5s-1.4,0.6-1.5,1.4l0,0c-3.9,6.9-10.3,12-17.9,14.3l0,0
			c-0.2,0-0.4,0-0.6,0c-1.1,0-2.2,0.5-2.9,1.4l0,0c-0.7,1.2-2,2-3.4,2c-0.7,0-1.3-0.2-1.9-0.5l0,0c-0.3-0.6-0.5-1.2-0.5-1.9
			c0-1.4,0.8-2.7,2-3.4l0,0c0.9-0.7,1.4-1.7,1.4-2.9c0-0.2,0-0.4,0-0.6l0,0c2.3-7.6,7.4-14,14.3-17.9l0,0c0.8,0,1.4-0.7,1.4-1.5
			s-0.7-1.5-1.5-1.5c-0.2,0-0.4,0-0.6,0.1l0,0c-1,0.4-2.1,0.7-3.3,0.7c-3.2,0-6.2-1.9-7.6-4.8l0,0c-0.1-0.2-0.1-0.3-0.1-0.5
			c0-0.6,0.5-1.2,1.2-1.2c0.1,0,0.2,0,0.3,0l0,0c2.4,0.5,4.9,0.8,7.3,0.8c7,0,13.9-2.2,19.6-6.4l0,0c0.7-0.5,1.6-0.8,2.6-0.8
			c1.4,0,2.6,0.6,3.5,1.7l0,0c1.1,0.8,1.7,2.1,1.7,3.5c0,0.9-0.3,1.8-0.8,2.6l0,0c-4.2,5.7-6.4,12.5-6.4,19.6
			C-1097.8,1374-1097.6,1376.5-1097,1378.9L-1097,1378.9z"></path>
		<path class="ladsvg-9841-st4" d="M-1090.6,1367.5c-0.1,0.9-0.2,1.8-0.2,2.7c0,5,1.8,9.9,5.1,13.7l0,0c1.9,2.2,4.7,3.5,7.6,3.5
			c4.1,0,7.9-2.5,9.4-6.4l0,0c0.4-0.9,0.5-1.9,0.5-2.9c0-3.8-2.6-7-6.3-7.8l0,0c-0.4-0.1-0.8-0.1-1.1-0.1c-3.1,0-5.6,2.5-5.6,5.6
			c0,0.8,0.2,1.5,0.5,2.2l0,0c0.1,0.2,0.2,0.5,0.2,0.8c0,0.9-0.6,1.7-1.4,1.9l0,0c-0.2,0.1-0.4,0.1-0.6,0.1c-1.2,0-2.1-0.9-2.1-2.1
			c0-0.3,0.1-0.6,0.2-0.9l0,0c-0.4-1.9-0.7-3.9-0.7-5.9c0-3.8,0.8-7.6,2.4-11.1l0,0c1.7-2.8,4.7-4.5,8-4.5c0.6,0,1.2,0.1,1.9,0.2
			l0,0c0.3,0.1,0.7,0.2,1,0.2c1.5,0,2.7-1.2,2.7-2.7c0-0.6-0.2-1.2-0.6-1.7l0,0c-1.4-0.8-2.2-2.3-2.2-3.9c0-2.2,1.6-4.1,3.8-4.4l0,0
			c0.3,0,0.5-0.1,0.8-0.1c3,0,5.4,2.4,5.4,5.4c0,2-1.1,3.9-2.9,4.8l0,0c-2.9,1.6-4.7,4.7-4.7,8.1c0,1.4,0.3,2.8,0.9,4l0,0
			c0.3,0.7,0.9,1.2,1.7,1.2c1,0,1.8-0.8,1.8-1.8c0-0.1,0-0.2,0-0.3l0,0c0.7-1.7,2.2-3,4-3.4l0,0c1.1-0.9,1.7-2.2,1.8-3.6l0,0
			c0-0.1,0-0.2,0-0.4c0-0.9,0.7-1.6,1.6-1.6c0.7,0,1.3,0.4,1.5,1.1l0,0c1,1.2,2.5,2,4.2,2.2l0,0c0.2,0.2,0.6,0.4,0.9,0.4
			c0.7,0,1.3-0.6,1.3-1.3c0-0.4-0.2-0.8-0.5-1l0,0c0.3-1.7,0.5-3.4,0.5-5.1l0,0c0-0.4,0.1-0.9,0.1-1.3c0-8-6.3-14.5-14.3-14.8l0,0
			C-1078.5,1340.8-1088.8,1352.9-1090.6,1367.5L-1090.6,1367.5z"></path>
		<path class="ladsvg-9841-st4" d="M-1232.5,1378.9c0,0.1,0,0.2,0,0.3c0,0.6,0.5,1.2,1.2,1.2c0.2,0,0.3,0,0.5-0.1l0,0c2.9-1.4,4.8-4.3,4.8-7.6
			c0-1.1-0.2-2.2-0.7-3.3l0,0c-0.1-0.2-0.1-0.4-0.1-0.6c0-0.8,0.7-1.5,1.5-1.5s1.4,0.6,1.5,1.4l0,0c3.9,6.9,10.3,12,17.9,14.3l0,0
			c0.2,0,0.4,0,0.6,0c1.1,0,2.2,0.5,2.9,1.4l0,0c0.7,1.2,2,2,3.4,2c0.7,0,1.3-0.2,1.9-0.5l0,0c0.3-0.6,0.5-1.2,0.5-1.9
			c0-1.4-0.8-2.7-2-3.4l0,0c-0.9-0.7-1.4-1.7-1.4-2.9c0-0.2,0-0.4,0-0.6l0,0c-2.3-7.6-7.4-14-14.3-17.9l0,0c-0.8,0-1.4-0.7-1.4-1.5
			s0.7-1.5,1.5-1.5c0.2,0,0.4,0,0.6,0.1l0,0c1,0.4,2.1,0.7,3.3,0.7c3.2,0,6.2-1.9,7.6-4.8l0,0c0.1-0.2,0.1-0.3,0.1-0.5
			c0-0.6-0.5-1.2-1.2-1.2c-0.1,0-0.2,0-0.3,0l0,0c-2.4,0.5-4.9,0.8-7.3,0.8c-7,0-13.9-2.2-19.6-6.4l0,0c-0.7-0.5-1.6-0.8-2.6-0.8
			c-1.4,0-2.6,0.6-3.5,1.7l0,0c-1.1,0.8-1.7,2.1-1.7,3.5c0,0.9,0.3,1.8,0.8,2.6l0,0c4.2,5.7,6.4,12.5,6.4,19.6
			C-1231.7,1374-1232,1376.5-1232.5,1378.9L-1232.5,1378.9z"></path>
		<path class="ladsvg-9841-st4" d="M-1238.9,1367.5c0.1,0.9,0.2,1.8,0.2,2.7c0,5-1.8,9.9-5.1,13.7l0,0c-1.9,2.2-4.7,3.5-7.6,3.5
			c-4.1,0-7.8-2.5-9.4-6.4l0,0c-0.4-0.9-0.5-1.9-0.5-2.9c0-3.8,2.6-7,6.3-7.8l0,0c0.4-0.1,0.8-0.1,1.1-0.1c3.1,0,5.6,2.5,5.6,5.6
			c0,0.8-0.2,1.5-0.5,2.2l0,0c-0.1,0.2-0.2,0.5-0.2,0.8c0,0.9,0.6,1.7,1.4,1.9l0,0c0.2,0.1,0.4,0.1,0.6,0.1c1.2,0,2.1-0.9,2.1-2.1
			c0-0.3-0.1-0.6-0.2-0.9l0,0c0.4-1.9,0.7-3.9,0.7-5.9c0-3.8-0.8-7.6-2.4-11.1l0,0c-1.7-2.8-4.7-4.5-8-4.5c-0.6,0-1.2,0.1-1.9,0.2
			l0,0c-0.3,0.1-0.7,0.2-1,0.2c-1.5,0-2.7-1.2-2.7-2.7c0-0.6,0.2-1.2,0.6-1.7l0,0c1.4-0.8,2.2-2.3,2.2-3.9c0-2.2-1.6-4.1-3.8-4.4
			l0,0c-0.3,0-0.5-0.1-0.8-0.1c-3,0-5.4,2.4-5.4,5.4c0,2,1.1,3.9,2.9,4.8l0,0c2.9,1.6,4.7,4.7,4.7,8.1c0,1.4-0.3,2.8-0.9,4l0,0
			c-0.3,0.7-0.9,1.2-1.7,1.2c-1,0-1.8-0.8-1.8-1.8c0-0.1,0-0.2,0-0.3l0,0c-0.7-1.7-2.2-3-4-3.4l0,0c-1.1-0.9-1.7-2.2-1.8-3.6l0,0
			c0-0.1,0-0.2,0-0.4c0-0.9-0.7-1.6-1.6-1.6c-0.7,0-1.3,0.4-1.5,1.1l0,0c-1,1.2-2.5,2-4.2,2.2l0,0c-0.3,0.2-0.6,0.4-0.9,0.4
			c-0.7,0-1.3-0.6-1.3-1.3c0-0.4,0.2-0.8,0.5-1l0,0c-0.3-1.7-0.5-3.4-0.5-5.1l0,0c0-0.4-0.1-0.9-0.1-1.3c0-8,6.3-14.5,14.3-14.8l0,0
			C-1251,1340.8-1240.7,1352.9-1238.9,1367.5L-1238.9,1367.5z"></path>
		<path class="ladsvg-9841-st4" d="M-1113.9,1344.2c-0.9,0.1-1.8,0.2-2.7,0.2c-5,0-9.9-1.8-13.7-5.1l0,0c-2.2-1.9-3.5-4.7-3.5-7.6
			c0-4.1,2.5-7.9,6.4-9.4l0,0c0.9-0.4,1.9-0.5,2.9-0.5c3.8,0,7,2.6,7.8,6.3l0,0c0.1,0.4,0.1,0.8,0.1,1.1c0,3.1-2.5,5.6-5.6,5.6
			c-0.8,0-1.5-0.2-2.2-0.5l0,0c-0.3-0.1-0.5-0.2-0.8-0.2c-0.9,0-1.7,0.6-1.9,1.4l0,0c-0.1,0.2-0.1,0.4-0.1,0.6
			c0,1.2,0.9,2.1,2.1,2.1c0.3,0,0.6-0.1,0.9-0.2l0,0c1.9,0.4,3.9,0.7,5.9,0.7c3.8,0,7.6-0.8,11.1-2.4l0,0c2.8-1.7,4.5-4.7,4.5-8
			c0-0.6-0.1-1.2-0.2-1.9l0,0c-0.1-0.3-0.2-0.7-0.2-1c0-1.5,1.2-2.7,2.7-2.7c0.6,0,1.2,0.2,1.7,0.6l0,0c0.8,1.4,2.3,2.2,3.9,2.2
			c2.2,0,4.1-1.6,4.4-3.8l0,0c0-0.3,0.1-0.5,0.1-0.8c0-3-2.4-5.4-5.4-5.4c-2,0-3.9,1.1-4.8,2.9l0,0c-1.6,2.9-4.7,4.7-8.1,4.7
			c-1.4,0-2.8-0.3-4-0.9l0,0c-0.7-0.3-1.2-0.9-1.2-1.7c0-1,0.8-1.8,1.8-1.8c0.1,0,0.2,0,0.3,0l0,0c1.7-0.7,3-2.2,3.4-4l0,0
			c0.9-1.1,2.2-1.7,3.6-1.8l0,0c0.1,0,0.2,0,0.4,0c0.9,0,1.6-0.7,1.6-1.6c0-0.7-0.4-1.3-1.1-1.5l0,0c-1.2-1-2-2.5-2.2-4.2l0,0
			c-0.2-0.2-0.4-0.6-0.4-0.9c0-0.7,0.6-1.3,1.3-1.3c0.4,0,0.8,0.2,1,0.5l0,0c1.7-0.3,3.4-0.5,5.1-0.5l0,0c0.4,0,0.9-0.1,1.3-0.1
			c8,0,14.5,6.3,14.8,14.3l0,0C-1087.2,1332.1-1099.3,1342.3-1113.9,1344.2L-1113.9,1344.2z"></path>
		<path class="ladsvg-9841-st4" d="M-1215.7,1344.2c0.9,0.1,1.8,0.2,2.7,0.2c5,0,9.9-1.8,13.7-5.1l0,0c2.2-1.9,3.5-4.7,3.5-7.6
			c0-4.1-2.5-7.9-6.4-9.4l0,0c-0.9-0.4-1.9-0.5-2.9-0.5c-3.8,0-7,2.6-7.8,6.3l0,0c-0.1,0.4-0.1,0.8-0.1,1.1c0,3.1,2.5,5.6,5.6,5.6
			c0.8,0,1.5-0.2,2.2-0.5l0,0c0.3-0.1,0.5-0.2,0.8-0.2c0.9,0,1.7,0.6,1.9,1.4l0,0c0.1,0.2,0.1,0.4,0.1,0.6c0,1.2-0.9,2.1-2.1,2.1
			c-0.3,0-0.6-0.1-0.9-0.2l0,0c-1.9,0.4-3.9,0.7-5.9,0.7c-3.8,0-7.6-0.8-11.1-2.4l0,0c-2.8-1.7-4.5-4.7-4.5-8c0-0.6,0.1-1.2,0.2-1.9
			l0,0c0.1-0.3,0.2-0.7,0.2-1c0-1.5-1.2-2.7-2.7-2.7c-0.6,0-1.2,0.2-1.7,0.6l0,0c-0.8,1.4-2.3,2.2-3.9,2.2c-2.2,0-4.1-1.6-4.4-3.8
			l0,0c0-0.3-0.1-0.5-0.1-0.8c0-3,2.4-5.4,5.4-5.4c2,0,3.9,1.1,4.8,2.9l0,0c1.6,2.9,4.7,4.7,8.1,4.7c1.4,0,2.8-0.3,4-0.9l0,0
			c0.7-0.3,1.2-0.9,1.2-1.7c0-1-0.8-1.8-1.8-1.8c-0.1,0-0.2,0-0.3,0l0,0c-1.7-0.7-3-2.2-3.4-4l0,0c-0.9-1.1-2.2-1.7-3.6-1.8l0,0
			c-0.1,0-0.2,0-0.4,0c-0.9,0-1.6-0.7-1.6-1.6c0-0.7,0.4-1.3,1.1-1.5l0,0c1.2-1,2-2.5,2.2-4.2l0,0c0.2-0.2,0.4-0.6,0.4-0.9
			c0-0.7-0.6-1.3-1.3-1.3c-0.4,0-0.8,0.2-1,0.5l0,0c-1.7-0.3-3.4-0.5-5.1-0.5l0,0c-0.4,0-0.9-0.1-1.3-0.1c-8,0-14.5,6.3-14.8,14.3
			l0,0C-1242.4,1332.1-1230.2,1342.3-1215.7,1344.2L-1215.7,1344.2z"></path>
	</g>
</switch>

</svg>