<svg version="1.0" id="Camada_1" xmlns="http://www.w3.org/2000/svg" xmlns:xlink="http://www.w3.org/1999/xlink" x="0px" y="0px" viewBox="-1291 1292.1 252.6 252.6" style="enable-background:new -1291 1292.1 252.6 252.6;" xml:space="preserve">
<style type="text/css">
	.A{fill:#F5F4F4;}
	.B{fill:#DEB569;}
	.C{fill:#005177;}
</style>
<rect x="-1291.1" y="1292.2" class="A" width="252.6" height="252.6"></rect>
<path class="B" d="M-1055.1,1496.2v-63.5l-12.2-14.3l12.2-14.3v-63.5c-15.8-3.8-28.1-16.2-31.9-31.9l0,0h-63.5l-14.3,12.2
	l-14.3-12.1h-63.5c-3.8,15.8-16.2,28.1-31.9,31.9l0,0v63.5l12.2,14.3l-12.2,14.3v63.5c15.8,3.8,28.1,16.2,31.9,31.9l0,0h63.5
	l14.3-12.2l14.3,12.2h63.5C-1083.2,1512.4-1070.9,1500-1055.1,1496.2L-1055.1,1496.2z"></path>
<path class="C" d="M-1291.1,1522.9v21.9h21.9c0.2-1.1,0.3-2.2,0.3-3.2c0-10.4-8.5-18.9-18.9-18.9
	C-1288.9,1522.6-1290,1522.7-1291.1,1522.9L-1291.1,1522.9z"></path>
<path class="C" d="M-1269.2,1292.2h-21.9v21.9c1.1,0.2,2.2,0.3,3.2,0.3c10.4,0,18.9-8.5,18.9-18.9
	C-1268.9,1294.3-1269,1293.2-1269.2,1292.2L-1269.2,1292.2z"></path>
<path class="C" d="M-1038.5,1292.2h-21.9c-0.2,1.1-0.3,2.2-0.3,3.2c0,10.4,8.5,18.9,18.9,18.9c1.1,0,2.2-0.1,3.2-0.3l0,0
	L-1038.5,1292.2L-1038.5,1292.2z"></path>
<path class="C" d="M-1038.5,1522.9c-1.1-0.2-2.2-0.3-3.2-0.3c-10.4,0-18.9,8.5-18.9,18.9c0,1.1,0.1,2.2,0.3,3.2l0,0h21.9
	L-1038.5,1522.9z"></path>
<path class="A" d="M-1099.5,1511.4h-43.3l-22-20.4l-22,20.4h-43.3c-4.4-13-14.7-23.2-27.7-27.7l0,0v-43.3l20.4-22l-20.4-22v-43.3
	c13-4.4,23.2-14.7,27.7-27.7l0,0h43.3l22,20.4l22-20.4h43.3c4.4,13,14.7,23.2,27.7,27.7l0,0v43.3l-20.4,22l20.4,22v43.3
	C-1084.9,1488.2-1095.1,1498.4-1099.5,1511.4L-1099.5,1511.4z"></path>
<path class="C" d="M-1104.5,1478.8c-7.6-2.4-15.6-3.7-23.5-3.7c-7.6,0-15.2,1.1-22.5,3.3l0,0c1.3-4.3,2-8.7,2-13.2
	c0-11-4.1-21.6-11.5-29.7l0,0c-1.6-0.1-3.2-0.2-4.8-0.2c-1.6,0-3.2,0.1-4.8,0.2l0,0c-7.4,8.1-11.5,18.7-11.5,29.7
	c0,4.5,0.7,8.9,2,13.2l0,0c-7.3-2.2-14.9-3.3-22.5-3.3c-8,0-15.9,1.2-23.6,3.7l0,0c2.4-7.6,3.7-15.6,3.7-23.5
	c0-7.6-1.1-15.2-3.3-22.5l0,0c4.3,1.3,8.7,2,13.2,2c11,0,21.6-4.1,29.7-11.5l0,0c0.1-1.6,0.2-3.2,0.2-4.8c0-1.6-0.1-3.2-0.2-4.8l0,0
	c-8.1-7.4-18.7-11.5-29.7-11.5c-4.5,0-8.9,0.7-13.2,2l0,0c2.2-7.3,3.3-14.9,3.3-22.5c0-8-1.2-15.9-3.7-23.5l0,0
	c7.6,2.4,15.6,3.7,23.6,3.7c7.6,0,15.2-1.1,22.5-3.3l0,0c-1.3,4.3-2,8.7-2,13.2c0,11,4.1,21.6,11.5,29.7l0,0
	c1.6,0.1,3.2,0.2,4.8,0.2c1.6,0,3.2-0.1,4.8-0.2l0,0c7.4-8.1,11.5-18.7,11.5-29.7c0-4.5-0.7-8.9-2-13.2l0,0
	c7.3,2.2,14.9,3.3,22.5,3.3c8,0,15.9-1.2,23.5-3.7l0,0c-2.4,7.6-3.7,15.6-3.7,23.5c0,7.6,1.1,15.2,3.3,22.5l0,0
	c-4.3-1.3-8.7-2-13.2-2c-11,0-21.6,4.1-29.7,11.5l0,0c-0.1,1.6-0.2,3.2-0.2,4.8c0,1.6,0.1,3.2,0.2,4.8l0,0
	c8.1,7.4,18.7,11.5,29.7,11.5c4.5,0,8.9-0.7,13.2-2l0,0c-2.2,7.3-3.3,14.9-3.3,22.5C-1108.2,1463.2-1106.9,1471.2-1104.5,1478.8
	L-1104.5,1478.8z"></path>
<path class="B" d="M-1143.4,1397c-6.7,3-14,4.6-21.4,4.6s-14.7-1.6-21.4-4.6l0,0c3,6.7,4.6,14,4.6,21.4s-1.6,14.7-4.6,21.4l0,0
	c6.7-3,14-4.6,21.4-4.6s14.7,1.6,21.4,4.6l0,0c-3-6.7-4.6-14-4.6-21.4C-1148,1411.1-1146.4,1403.8-1143.4,1397L-1143.4,1397z"></path>
</svg>