<svg version="1.1" id="Camada_1" xmlns:x="&amp;ns_extend;" xmlns:i="&amp;ns_ai;" xmlns:graph="&amp;ns_graphs;" xmlns="http://www.w3.org/2000/svg" xmlns:xlink="http://www.w3.org/1999/xlink" x="0px" y="0px" viewBox="-1291 1292.1 252.6 252.6" style="enable-background:new -1291 1292.1 252.6 252.6;" xml:space="preserve">
<style type="text/css">
	.ladsvg-6846-st0{fill:#F5F4F4;}
	.ladsvg-6846-st1{fill:#2D2E27;}
</style>
<switch>
	
	<g i:extraneous="self">
		<rect x="-1291" y="1292.2" class="ladsvg-6846-st0" width="253.1" height="253.1"></rect>
		<path class="ladsvg-6846-st1" d="M-1285.5,1435.8c10,15.4,15.4,33.4,15.4,51.8c0,14.3-3.2,28.5-9.5,41.3l0,0c29.8-30.1,70.4-47,112.7-47
			c41.4,0,81.2,16.2,110.8,45.1l0,0c-28.9-29.6-45.1-69.4-45.1-110.8c0-42.3,16.9-82.9,47-112.7l0,0c-12.9,6.2-27,9.5-41.3,9.5
			c-18.4,0-36.4-5.3-51.8-15.4l0,0c-1.5,11.2-2.3,22.5-2.3,33.8c0,59,20.9,116.1,59,161.1l0,0c-45-38.1-102.1-59-161.1-59
			C-1263,1433.5-1274.3,1434.2-1285.5,1435.8L-1285.5,1435.8z"></path>
	</g>
</switch>

</svg>