<svg version="1.1" id="Camada_1" xmlns:x="&amp;ns_extend;" xmlns:i="&amp;ns_ai;" xmlns:graph="&amp;ns_graphs;" xmlns="http://www.w3.org/2000/svg" xmlns:xlink="http://www.w3.org/1999/xlink" x="0px" y="0px" viewBox="-1291 1292.1 252.6 252.6" style="enable-background:new -1291 1292.1 252.6 252.6;" xml:space="preserve">
<style type="text/css">
	.ladsvg-3408-st0{fill:#F0EFEF;}
	.ladsvg-3408-st1{fill:#C2BFC1;}
	.ladsvg-3408-st2{fill:#5D5953;}
</style>
<switch>
	
	<g i:extraneous="self">
		<rect x="-1291" y="1292.2" class="ladsvg-3408-st0" width="253.1" height="253.1"></rect>
		<path class="ladsvg-3408-st1" d="M-1150.9,1418.5c0-7.5-6.1-13.5-13.5-13.5c-7.5,0-13.5,6.1-13.5,13.5c0,7.5,6.1,13.5,13.5,13.5
			C-1157,1432.1-1150.9,1426.1-1150.9,1418.5"></path>
		<path class="ladsvg-3408-st2" d="M-1177.4,1438.8l-3.7-3.7l-3.7-3.7l-32.6,11.9c-4.5,3.7-7.1,9.1-7.1,14.9c0,5.3,2.2,10.3,6,14l0,0
			c3.6,3.8,8.7,6,14,6c5.8,0,11.3-2.6,14.9-7.1l0,0L-1177.4,1438.8z"></path>
		<path class="ladsvg-3408-st2" d="M-1187.9,1413.4l-31.5-14.4c-0.7-0.1-1.3-0.1-2-0.1c-10.6,0-19.3,8.6-19.3,19.3c0,0.2,0,0.3,0,0.5l0,0
			c0,0.2,0,0.3,0,0.5c0,10.6,8.6,19.3,19.3,19.3c0.7,0,1.3,0,2-0.1l0,0l31.5-14.4v-5.2V1413.4z"></path>
		<path class="ladsvg-3408-st2" d="M-1189.3,1365.8c-3.7-4.5-9.1-7.1-14.9-7.1c-5.3,0-10.3,2.2-14,6l0,0c-3.8,3.6-6,8.7-6,14
			c0,5.8,2.6,11.3,7.1,14.9l0,0l32.6,11.9l3.7-3.7l3.7-3.7L-1189.3,1365.8z"></path>
		<path class="ladsvg-3408-st2" d="M-1144.7,1363.7c0.1-0.7,0.1-1.3,0.1-2c0-10.6-8.6-19.3-19.3-19.3c-0.2,0-0.3,0-0.5,0l0,0c-0.2,0-0.3,0-0.5,0
			c-10.6,0-19.3,8.6-19.3,19.3c0,0.7,0,1.3,0.1,2l0,0l14.4,31.5h5.2h5.2L-1144.7,1363.7z"></path>
		<path class="ladsvg-3408-st2" d="M-1110.5,1364.7c-3.6-3.8-8.7-6-14-6c-5.8,0-11.3,2.6-14.9,7.1l0,0l-11.9,32.6l3.7,3.7l3.7,3.7l32.6-11.9
			c4.5-3.7,7.1-9.1,7.1-14.9C-1104.5,1373.4-1106.7,1368.4-1110.5,1364.7L-1110.5,1364.7z"></path>
		<path class="ladsvg-3408-st2" d="M-1088.3,1418.5c0-0.2,0-0.3,0-0.5c0-10.6-8.6-19.3-19.3-19.3c-0.7,0-1.3,0-2,0.1l0,0l-31.5,14.4v5.2v5.2
			l31.5,14.4c0.7,0.1,1.3,0.1,2,0.1c10.6,0,19.3-8.6,19.3-19.3C-1088.3,1418.9-1088.3,1418.8-1088.3,1418.5L-1088.3,1418.5z"></path>
		<path class="ladsvg-3408-st2" d="M-1111.6,1443.5l-32.6-12l-3.7,3.7l-3.7,3.7l11.9,32.6c3.7,4.5,9.1,7.1,14.9,7.1c5.3,0,10.3-2.2,14-6l0,0
			c3.8-3.6,6-8.7,6-14C-1104.5,1452.6-1107.1,1447.2-1111.6,1443.5L-1111.6,1443.5z"></path>
		<path class="ladsvg-3408-st2" d="M-1159.1,1442.1h-5.3h-5.3l-14.4,31.5c-0.1,0.7-0.1,1.3-0.1,2c0,10.6,8.6,19.3,19.3,19.3c0.2,0,0.3,0,0.5,0
			l0,0c0.2,0,0.3,0,0.5,0c10.6,0,19.3-8.6,19.3-19.3c0-0.7,0-1.3-0.1-2l0,0L-1159.1,1442.1z"></path>
		<polygon class="ladsvg-3408-st1" points="-1193.6,1512.5 -1258.3,1512.5 -1291,1545.1 -1164.6,1545.1 		"></polygon>
		<polygon class="ladsvg-3408-st1" points="-1037.9,1418.5 -1070.7,1447.8 -1070.7,1512.5 -1037.9,1545.1 		"></polygon>
		<polygon class="ladsvg-3408-st1" points="-1037.9,1292.2 -1164.6,1292.2 -1135.4,1324.7 -1070.7,1324.7 		"></polygon>
		<polygon class="ladsvg-3408-st1" points="-1258.3,1324.7 -1291,1292.2 -1291,1418.5 -1258.3,1389.4 		"></polygon>
		<polygon class="ladsvg-3408-st2" points="-1071.1,1512.1 -1135.7,1512.1 -1164.8,1544.6 -1038.4,1544.6 		"></polygon>
		<polygon class="ladsvg-3408-st2" points="-1038.4,1292.2 -1071.1,1324.7 -1071.1,1389.3 -1038.4,1418.4 		"></polygon>
		<polygon class="ladsvg-3408-st2" points="-1164.8,1292.2 -1291,1292.2 -1258.4,1324.7 -1193.8,1324.7 		"></polygon>
		<polygon class="ladsvg-3408-st2" points="-1258.4,1447.5 -1291,1418.4 -1291,1544.6 -1258.4,1512.1 		"></polygon>
	</g>
</switch>

</svg>