<svg version="1.1" id="Camada_1" xmlns:x="&amp;ns_extend;" xmlns:i="&amp;ns_ai;" xmlns:graph="&amp;ns_graphs;" xmlns="http://www.w3.org/2000/svg" xmlns:xlink="http://www.w3.org/1999/xlink" x="0px" y="0px" viewBox="-1291 1292.1 252.6 252.6" style="enable-background:new -1291 1292.1 252.6 252.6;" xml:space="preserve">
<style type="text/css">
	.ladsvg-9243-st0{fill:#F6F6F6;}
	.ladsvg-9243-st1{fill:none;}
	.ladsvg-9243-st2{fill:#2D2E27;}
</style>
<switch>
	
	<g i:extraneous="self">
		<g id="Camada_1_1_">
		</g>
		<rect x="-1291" y="1292.1" class="ladsvg-9243-st0" width="252.5" height="252.7"></rect>
		<rect x="-1291" y="1292.1" class="ladsvg-9243-st0" width="252.5" height="252.7"></rect>
		<path class="ladsvg-9243-st1" d="M-1288.6,1293.6c16.4-0.4,32.2,6,43.7,17.6c11.6,11.7,17.9,27.6,17.5,44.1c-16.4,0.4-32.2-6-43.7-17.6
			C-1282.7,1326-1289,1310.1-1288.6,1293.6L-1288.6,1293.6z"></path>
		<path class="ladsvg-9243-st1" d="M-1226,1355.7c16.4-0.4,32.2,6,43.7,17.6c11.6,11.7,17.9,27.6,17.5,44.1c-16.4,0.4-32.2-6-43.7-17.6
			C-1220.1,1388.2-1226.4,1372.2-1226,1355.7L-1226,1355.7z"></path>
		<path class="ladsvg-9243-st1" d="M-1226.1,1354.8c-0.4-16.5,5.9-32.4,17.5-44.1s27.4-18,43.7-17.6c0.4,16.5-5.9,32.4-17.5,44.1
			C-1193.9,1348.8-1209.7,1355.2-1226.1,1354.8L-1226.1,1354.8z"></path>
		<path class="ladsvg-9243-st1" d="M-1288.7,1417.9c-0.4-16.5,5.9-32.4,17.5-44.1s27.4-18,43.7-17.6c0.4,16.5-5.9,32.4-17.5,44.1
			C-1256.5,1411.9-1272.3,1418.3-1288.7,1417.9L-1288.7,1417.9z"></path>
		<path class="ladsvg-9243-st1" d="M-1164.5,1293.1c16.4-0.4,32.2,6,43.7,17.6c11.6,11.7,17.9,27.6,17.5,44.1c-16.4,0.4-32.2-6-43.7-17.6
			C-1158.6,1325.5-1164.9,1309.6-1164.5,1293.1z"></path>
		<path class="ladsvg-9243-st1" d="M-1101.9,1355.3c16.4-0.4,32.2,6,43.7,17.6c11.6,11.7,17.9,27.6,17.5,44.1c-16.4,0.4-32.2-6-43.7-17.6
			C-1096,1387.7-1102.3,1371.8-1101.9,1355.3L-1101.9,1355.3z"></path>
		<path class="ladsvg-9243-st1" d="M-1102,1354.3c-0.4-16.5,5.9-32.4,17.5-44.1s27.4-18,43.7-17.6c0.4,16.5-5.9,32.4-17.5,44.1
			C-1069.8,1348.3-1085.6,1354.7-1102,1354.3L-1102,1354.3z"></path>
		<path class="ladsvg-9243-st1" d="M-1164.6,1417.3c-0.4-16.5,5.9-32.4,17.5-44.1s27.4-18,43.7-17.6c0.4,16.5-5.9,32.4-17.5,44.1
			C-1132.4,1411.3-1148.2,1417.8-1164.6,1417.3L-1164.6,1417.3z"></path>
		<path class="ladsvg-9243-st1" d="M-1289,1419.1c16.4-0.4,32.2,6,43.7,17.6c11.6,11.7,17.9,27.6,17.5,44.1c-16.4,0.4-32.2-6-43.7-17.6
			C-1283,1451.5-1289.4,1435.6-1289,1419.1L-1289,1419.1z"></path>
		<path class="ladsvg-9243-st1" d="M-1226.4,1481.3c16.4-0.4,32.2,6,43.7,17.6c11.6,11.7,17.9,27.6,17.5,44.1c-16.4,0.4-32.2-6-43.7-17.6
			C-1220.5,1513.7-1226.8,1497.7-1226.4,1481.3z"></path>
		<path class="ladsvg-9243-st1" d="M-1226.5,1480.3c-0.4-16.5,5.9-32.4,17.5-44.1s27.4-18,43.7-17.6c0.4,16.5-5.9,32.4-17.5,44.1
			C-1194.3,1474.3-1210.1,1480.7-1226.5,1480.3L-1226.5,1480.3z"></path>
		<path class="ladsvg-9243-st1" d="M-1289.1,1543.3c-0.4-16.5,5.9-32.4,17.5-44.1s27.4-18,43.7-17.6c0.4,16.5-5.9,32.4-17.5,44.1
			C-1256.9,1537.3-1272.7,1543.8-1289.1,1543.3L-1289.1,1543.3z"></path>
		<path class="ladsvg-9243-st1" d="M-1164.9,1418.6c16.4-0.4,32.2,6,43.7,17.6c11.6,11.7,17.9,27.6,17.5,44.1c-16.4,0.4-32.2-6-43.7-17.6
			S-1165.3,1435.1-1164.9,1418.6L-1164.9,1418.6z"></path>
		<path class="ladsvg-9243-st1" d="M-1100.3,1480.8c16.4-0.4,32.2,6,43.7,17.6c6.5,6.6,17.8,32.7,17.5,44.1c-16.4,0.4-32.2-6-43.7-17.6
			C-1094.4,1513.2-1100.7,1497.3-1100.3,1480.8L-1100.3,1480.8z"></path>
		<path class="ladsvg-9243-st1" d="M-1102.3,1479.9c-0.4-16.5,5.9-32.4,17.5-44.1s27.4-18,43.7-17.6c0.4,16.5-5.9,32.4-17.5,44.1
			C-1070.2,1473.9-1086,1480.3-1102.3,1479.9L-1102.3,1479.9z"></path>
		<path class="ladsvg-9243-st2" d="M-1288.6,1293.6c16.4-0.4,32.2,6,43.7,17.6c11.6,11.7,17.9,27.6,17.5,44.1c-16.4,0.4-32.2-6-43.7-17.6
			C-1282.7,1326-1289,1310.1-1288.6,1293.6L-1288.6,1293.6z"></path>
		<path class="ladsvg-9243-st2" d="M-1226,1355.7c16.4-0.4,32.2,6,43.7,17.6c11.6,11.7,17.9,27.6,17.5,44.1c-16.4,0.4-32.2-6-43.7-17.6
			C-1220.1,1388.2-1226.4,1372.2-1226,1355.7L-1226,1355.7z"></path>
		<path class="ladsvg-9243-st2" d="M-1226.1,1354.8c-0.4-16.5,5.9-32.4,17.5-44.1s27.4-18,43.7-17.6c0.4,16.5-5.9,32.4-17.5,44.1
			C-1193.9,1348.8-1209.7,1355.2-1226.1,1354.8L-1226.1,1354.8z"></path>
		<path class="ladsvg-9243-st2" d="M-1288.7,1417.9c-0.4-16.5,5.9-32.4,17.5-44.1s27.4-18,43.7-17.6c0.4,16.5-5.9,32.4-17.5,44.1
			C-1256.5,1411.9-1272.3,1418.3-1288.7,1417.9L-1288.7,1417.9z"></path>
		<path class="ladsvg-9243-st2" d="M-1164.5,1293.1c16.4-0.4,32.2,6,43.7,17.6c11.6,11.7,17.9,27.6,17.5,44.1c-16.4,0.4-32.2-6-43.7-17.6
			C-1158.6,1325.5-1164.9,1309.6-1164.5,1293.1"></path>
		<path class="ladsvg-9243-st2" d="M-1101.9,1355.3c16.4-0.4,32.2,6,43.7,17.6c11.6,11.7,17.9,27.6,17.5,44.1c-16.4,0.4-32.2-6-43.7-17.6
			C-1096,1387.7-1102.3,1371.8-1101.9,1355.3L-1101.9,1355.3z"></path>
		<path class="ladsvg-9243-st2" d="M-1102,1354.3c-0.4-16.5,5.9-32.4,17.5-44.1s27.4-18,43.7-17.6c0.4,16.5-5.9,32.4-17.5,44.1
			C-1069.8,1348.3-1085.6,1354.7-1102,1354.3L-1102,1354.3z"></path>
		<path class="ladsvg-9243-st2" d="M-1164.6,1417.3c-0.4-16.5,5.9-32.4,17.5-44.1s27.4-18,43.7-17.6c0.4,16.5-5.9,32.4-17.5,44.1
			C-1132.4,1411.3-1148.2,1417.8-1164.6,1417.3L-1164.6,1417.3z"></path>
		<path class="ladsvg-9243-st2" d="M-1289,1419.1c16.4-0.4,32.2,6,43.7,17.6c11.6,11.7,17.9,27.6,17.5,44.1c-16.4,0.4-32.2-6-43.7-17.6
			C-1283,1451.5-1289.4,1435.6-1289,1419.1L-1289,1419.1z"></path>
		<path class="ladsvg-9243-st2" d="M-1226.4,1481.3c16.4-0.4,32.2,6,43.7,17.6c11.6,11.7,17.9,27.6,17.5,44.1c-16.4,0.4-32.2-6-43.7-17.6
			C-1220.5,1513.7-1226.8,1497.7-1226.4,1481.3"></path>
		<path class="ladsvg-9243-st2" d="M-1226.5,1480.3c-0.4-16.5,5.9-32.4,17.5-44.1s27.4-18,43.7-17.6c0.4,16.5-5.9,32.4-17.5,44.1
			C-1194.3,1474.3-1210.1,1480.7-1226.5,1480.3L-1226.5,1480.3z"></path>
		<path class="ladsvg-9243-st2" d="M-1289.1,1543.3c-0.4-16.5,5.9-32.4,17.5-44.1s27.4-18,43.7-17.6c0.4,16.5-5.9,32.4-17.5,44.1
			C-1256.9,1537.3-1272.7,1543.8-1289.1,1543.3L-1289.1,1543.3z"></path>
		<path class="ladsvg-9243-st2" d="M-1164.9,1418.6c16.4-0.4,32.2,6,43.7,17.6c11.6,11.7,17.9,27.6,17.5,44.1c-16.4,0.4-32.2-6-43.7-17.6
			S-1165.3,1435.1-1164.9,1418.6L-1164.9,1418.6z"></path>
		<path class="ladsvg-9243-st2" d="M-1100.3,1480.8c16.4-0.4,32.2,6,43.7,17.6c6.5,6.6,17.8,32.7,17.5,44.1c-16.4,0.4-32.2-6-43.7-17.6
			C-1094.4,1513.2-1100.7,1497.3-1100.3,1480.8L-1100.3,1480.8z"></path>
		<path class="ladsvg-9243-st2" d="M-1102.3,1479.9c-0.4-16.5,5.9-32.4,17.5-44.1s27.4-18,43.7-17.6c0.4,16.5-5.9,32.4-17.5,44.1
			C-1070.2,1473.9-1086,1480.3-1102.3,1479.9L-1102.3,1479.9z"></path>
		<path class="ladsvg-9243-st2" d="M-1164.9,1542.9c-0.4-16.5,5.9-32.4,17.5-44.1s27.4-18,43.7-17.6c0.4,16.5-5.9,32.4-17.5,44.1
			S-1148.6,1543.3-1164.9,1542.9L-1164.9,1542.9z"></path>
		<path class="ladsvg-9243-st1" d="M-1164.9,1542.9c-0.4-16.5,5.9-32.4,17.5-44.1s27.4-18,43.7-17.6c0.4,16.5-5.9,32.4-17.5,44.1
			S-1148.6,1543.3-1164.9,1542.9L-1164.9,1542.9z"></path>
	</g>
</switch>

</svg>