<svg version="1.1" id="Camada_1" xmlns:x="&amp;ns_extend;" xmlns:i="&amp;ns_ai;" xmlns:graph="&amp;ns_graphs;" xmlns="http://www.w3.org/2000/svg" xmlns:xlink="http://www.w3.org/1999/xlink" x="0px" y="0px" viewBox="-1291 1292.1 252.6 252.6" style="enable-background:new -1291 1292.1 252.6 252.6;" xml:space="preserve">
<style type="text/css">
	.ladsvg-1147-st0{fill:#005177;}
	.ladsvg-1147-st1{fill:#F6F6F6;}
</style>
<switch>
	
	<g i:extraneous="self">
		<rect x="-1291" y="1292.2" class="ladsvg-1147-st0" width="252.6" height="252.6"></rect>
		<polygon class="ladsvg-1147-st0" points="-1164.7,1502.6 -1206.8,1544.8 -1122.6,1544.8 		"></polygon>
		<polygon class="ladsvg-1147-st0" points="-1080.6,1418.5 -1038.4,1376.3 -1038.4,1334.3 -1122.6,1418.5 -1038.4,1502.6 -1038.4,1460.5 		"></polygon>
		<polygon class="ladsvg-1147-st0" points="-1291,1334.3 -1291,1376.3 -1248.8,1418.5 -1291,1460.5 -1291,1502.6 -1206.8,1418.5 		"></polygon>
		<polygon class="ladsvg-1147-st0" points="-1164.7,1418.5 -1291,1544.8 -1248.8,1544.8 -1164.7,1460.5 -1080.6,1544.8 -1038.4,1544.8 		"></polygon>
		<polygon class="ladsvg-1147-st0" points="-1038.4,1292.2 -1080.6,1292.2 -1164.7,1376.3 -1248.8,1292.2 -1291,1292.2 -1164.7,1418.5 		"></polygon>
		<polygon class="ladsvg-1147-st1" points="-1038.4,1376.3 -1080.6,1418.5 -1038.4,1460.5 		"></polygon>
		<polygon class="ladsvg-1147-st1" points="-1248.8,1418.5 -1291,1376.3 -1291,1460.5 		"></polygon>
		<polygon class="ladsvg-1147-st1" points="-1164.7,1460.5 -1248.8,1544.8 -1206.8,1544.8 -1164.7,1502.6 -1122.6,1544.8 -1080.6,1544.8 		"></polygon>
		<polygon class="ladsvg-1147-st1" points="-1206.8,1292.2 -1248.8,1292.2 -1164.7,1376.3 -1080.6,1292.2 -1122.6,1292.2 -1164.7,1334.3 		"></polygon>
		<polygon class="ladsvg-1147-st1" points="-1038.4,1334.3 -1038.4,1292.2 -1164.7,1418.5 -1038.4,1544.8 -1038.4,1502.6 -1122.6,1418.5 		"></polygon>
		<polygon class="ladsvg-1147-st1" points="-1291,1292.2 -1291,1334.3 -1206.8,1418.5 -1291,1502.6 -1291,1544.8 -1164.7,1418.5 		"></polygon>
	</g>
</switch>

</svg>