<svg version="1.1" id="Camada_1" xmlns:x="&amp;ns_extend;" xmlns:i="&amp;ns_ai;" xmlns:graph="&amp;ns_graphs;" xmlns="http://www.w3.org/2000/svg" xmlns:xlink="http://www.w3.org/1999/xlink" x="0px" y="0px" viewBox="-1291 1292.1 252.6 252.6" style="enable-background:new -1291 1292.1 252.6 252.6;" xml:space="preserve">
<style type="text/css">
	.ladsvg-6394-st0{fill:#E6BB7B;}
	.ladsvg-6394-st1{fill:#35221B;}
	.ladsvg-6394-st2{fill:#F6F6F6;}
	.ladsvg-6394-st3{fill:#FFFFFF;}
</style>
<switch>
	
	<g i:extraneous="self">
		<rect x="-1290.6" y="1292.2" class="ladsvg-6394-st0" width="252.2" height="252.2"></rect>
		<polygon class="ladsvg-6394-st1" points="-1181.7,1497.2 -1164.5,1497.2 -1147.3,1497.2 -1147.3,1512.7 -1131.7,1512.7 -1131.7,1528.3 
			-1054.4,1528.3 -1054.4,1451.1 -1070,1451.1 -1070,1435.5 -1085.6,1435.5 -1085.6,1418.3 -1085.6,1401 -1070,1401 -1070,1385.5 
			-1054.4,1385.5 -1054.4,1308.2 -1131.7,1308.2 -1131.7,1323.8 -1147.3,1323.8 -1147.3,1339.3 -1164.5,1339.3 -1181.7,1339.3 
			-1181.7,1323.8 -1197.3,1323.8 -1197.3,1308.2 -1274.5,1308.2 -1274.5,1385.5 -1259,1385.5 -1259,1401 -1243.4,1401 
			-1243.4,1418.3 -1243.4,1435.5 -1259,1435.5 -1259,1451.1 -1274.5,1451.1 -1274.5,1528.3 -1197.3,1528.3 -1197.3,1512.7 
			-1181.7,1512.7 		"></polygon>
		<polygon class="ladsvg-6394-st2" points="-1212.9,1497.2 -1243.4,1497.2 -1243.4,1466.7 -1227.8,1466.7 -1227.8,1451.1 -1212.2,1451.1 
			-1212.2,1435.5 -1227.8,1435.5 -1227.8,1418.3 -1227.8,1401 -1212.2,1401 -1212.2,1385.5 -1227.8,1385.5 -1227.8,1369.9 
			-1243.4,1369.9 -1243.4,1339.3 -1212.9,1339.3 -1212.9,1355 -1197.3,1355 -1197.3,1370.5 -1181.7,1370.5 -1181.7,1355 
			-1164.5,1355 -1147.3,1355 -1147.3,1370.5 -1131.7,1370.5 -1131.7,1355 -1116.1,1355 -1116.1,1339.3 -1085.6,1339.3 
			-1085.6,1369.9 -1101.2,1369.9 -1101.2,1385.5 -1116.8,1385.5 -1116.8,1401 -1101.2,1401 -1101.2,1418.3 -1101.2,1435.5 
			-1116.8,1435.5 -1116.8,1451.1 -1101.2,1451.1 -1101.2,1466.7 -1085.6,1466.7 -1085.6,1497.2 -1116.1,1497.2 -1116.1,1481.6 
			-1131.7,1481.6 -1131.7,1466 -1147.3,1466 -1147.3,1481.6 -1164.5,1481.6 -1181.7,1481.6 -1181.7,1466 -1197.3,1466 
			-1197.3,1481.6 -1212.9,1481.6 		"></polygon>
		<polygon class="ladsvg-6394-st3" points="-1147.3,1292.2 -1181.7,1292.2 -1181.7,1308.2 -1164.5,1308.2 -1147.3,1308.2 		"></polygon>
		<polygon class="ladsvg-6394-st0" points="-1180.1,1451.1 -1180.1,1435.5 -1195.7,1435.5 -1195.7,1418.3 -1195.7,1401 -1180.1,1401 
			-1180.1,1385.5 -1164.5,1385.5 -1148.9,1385.5 -1148.9,1401 -1133.3,1401 -1133.3,1418.3 -1133.3,1435.5 -1148.9,1435.5 
			-1148.9,1451.1 -1164.5,1451.1 		"></polygon>
		<polygon class="ladsvg-6394-st1" points="-1038.4,1401 -1054.4,1401 -1054.4,1418.3 -1054.4,1435.5 -1038.4,1435.5 		"></polygon>
		<polygon class="ladsvg-6394-st1" points="-1147.3,1528.3 -1164.5,1528.3 -1181.7,1528.3 -1181.7,1544.3 -1147.3,1544.3 		"></polygon>
		<polygon class="ladsvg-6394-st1" points="-1274.5,1401 -1290.6,1401 -1290.6,1435.5 -1274.5,1435.5 -1274.5,1418.3 		"></polygon>
		<polygon class="ladsvg-6394-st1" points="-1147.3,1292.2 -1181.7,1292.2 -1181.7,1308.2 -1164.5,1308.2 -1147.3,1308.2 		"></polygon>
	</g>
</switch>

</svg>