<svg version="1.1" id="Camada_1" xmlns:x="&amp;ns_extend;" xmlns:i="&amp;ns_ai;" xmlns:graph="&amp;ns_graphs;" xmlns="http://www.w3.org/2000/svg" xmlns:xlink="http://www.w3.org/1999/xlink" x="0px" y="0px" viewBox="-1291 1292.1 252.6 252.6" style="enable-background:new -1291 1292.1 252.6 252.6;" xml:space="preserve">
<style type="text/css">
	.A{fill:#9AB3B6;}
	.B{fill:#F6F6F6;}
</style>
<switch>
	
	<g i:extraneous="self">
		<rect x="-1291" y="1291.9" class="A" width="252.8" height="252.8"></rect>
		<polygon class="B" points="-1042.6,1377.6 -1051.7,1368.6 -1038.2,1355.1 -1051.7,1341.6 -1042.6,1332.5 -1078.8,1296.2 
			-1087.9,1305.4 -1101.4,1291.9 -1114.9,1305.4 -1123.9,1296.2 -1160.1,1332.5 -1151.1,1341.6 -1164.6,1355.1 -1151.1,1368.6 
			-1160.1,1377.6 -1123.9,1413.9 -1114.9,1404.9 -1101.4,1418.3 -1087.9,1404.9 -1078.8,1413.9 		"></polygon>
		<polygon class="B" points="-1038.2,1481.5 -1051.7,1468 -1042.6,1458.9 -1078.8,1422.7 -1087.9,1431.9 -1101.4,1418.3 
			-1114.9,1431.9 -1123.9,1422.7 -1160.1,1458.9 -1151.1,1468 -1164.6,1481.5 -1151.1,1495 -1160.1,1504 -1123.9,1540.2 
			-1114.9,1531.2 -1101.4,1544.7 -1087.9,1531.2 -1078.8,1540.2 -1042.6,1504 -1051.7,1495 		"></polygon>
		<polygon class="B" points="-1178.1,1495 -1164.6,1481.5 -1178.1,1468 -1169,1458.9 -1205.2,1422.7 -1214.3,1431.9 
			-1227.8,1418.3 -1241.3,1431.9 -1250.3,1422.7 -1286.5,1458.9 -1277.5,1468 -1291,1481.5 -1277.5,1495 -1286.5,1504 
			-1250.3,1540.2 -1241.3,1531.2 -1227.8,1544.7 -1214.3,1531.2 -1205.2,1540.2 -1169,1504 		"></polygon>
		<polygon class="B" points="-1178.1,1368.6 -1164.6,1355.1 -1178.1,1341.6 -1169,1332.5 -1205.2,1296.2 -1214.3,1305.4 
			-1227.8,1291.9 -1241.3,1305.4 -1250.3,1296.2 -1286.5,1332.5 -1277.5,1341.6 -1291,1355.1 -1277.5,1368.6 -1286.5,1377.6 
			-1250.3,1413.9 -1241.3,1404.9 -1227.8,1418.3 -1214.3,1404.9 -1205.2,1413.9 -1169,1377.6 		"></polygon>
	</g>
</switch>

</svg>