<svg version="1.1" id="Camada_1" xmlns:x="&amp;ns_extend;" xmlns:i="&amp;ns_ai;" xmlns:graph="&amp;ns_graphs;" xmlns="http://www.w3.org/2000/svg" xmlns:xlink="http://www.w3.org/1999/xlink" x="0px" y="0px" viewBox="-1291 1292.1 252.6 252.6" style="enable-background:new -1291 1292.1 252.6 252.6;" xml:space="preserve">
<style type="text/css">
	.ladsvg-3804-st0{fill:#9E5D31;}
	.ladsvg-3804-st1{fill:#F9F7DD;}
	.ladsvg-3804-st2{fill:#7D2534;}
	.ladsvg-3804-st3{fill:#412B25;}
</style>
<switch>
	
	<g i:extraneous="self">
		<rect x="-1290.8" y="1292.2" class="ladsvg-3804-st0" width="252.5" height="252.5"></rect>
		<path class="ladsvg-3804-st0" d="M-1038.3,1292.2h-106c0.6,4.7,3.6,8.7,8,10.6l0,0c9.1,4,19,6,29,6c2.3,0,4.7-0.1,7-0.3l0,0
			c-4.3,2.5-7.4,6.8-8.4,11.6l0,0c0.1,0.4,0.1,0.8,0.1,1.1c0,0.7-0.1,1.5-0.3,2.2l0,0c1.8,0.3,3.6,0.4,5.4,0.4
			c4.2,0,8.3-0.8,12.3-2.2l0,0c-14.4,10.8-22.8,27.8-22.8,45.8c0,0.4,0,0.8,0,1.1l0,0c0.2,0,0.4,0,0.6,0c18.2,0,35.3-8.6,46.1-23.3
			l0,0c-1.4,3.8-2.1,7.9-2.1,12c0,1.9,0.2,3.8,0.5,5.7l0,0c0.7-0.2,1.5-0.4,2.2-0.4c0.4,0,0.7,0,1.1,0.1l0,0
			c4.9-1.1,9.1-4.2,11.6-8.5l0,0c-0.2,2.1-0.3,4.2-0.3,6.3c0,10.2,2.2,20.3,6.3,29.6l0,0c1.8,4,5.4,6.9,9.7,7.7l0,0v-105.7h0V1292.2
			z"></path>
		<path class="ladsvg-3804-st0" d="M-1237.6,1321.3c3.8,1.4,7.9,2.1,12,2.1c1.9,0,3.8-0.2,5.7-0.5l0,0c-0.2-0.7-0.4-1.5-0.4-2.2
			c0-0.4,0-0.7,0.1-1.1l0,0c-1.1-4.9-4.2-9.1-8.5-11.6l0,0c2.1,0.2,4.2,0.3,6.3,0.3c10.2,0,20.3-2.2,29.6-6.3l0,0
			c4-1.8,6.9-5.4,7.7-9.7l0,0h-105.8v106c4.7-0.6,8.7-3.6,10.6-8l0,0c4-9.1,6-19,6-29c0-2.3-0.1-4.7-0.3-7l0,0
			c2.5,4.3,6.8,7.4,11.6,8.4l0,0c0.4-0.1,0.8-0.1,1.1-0.1c0.7,0,1.5,0.1,2.2,0.3l0,0c0.3-1.8,0.4-3.6,0.4-5.4
			c0-4.2-0.8-8.3-2.2-12.3l0,0c10.8,14.4,27.8,22.8,45.8,22.8c0.4,0,0.8,0,1.1,0l0,0c0-0.2,0-0.4,0-0.6
			C-1214.3,1349.2-1223,1332.1-1237.6,1321.3L-1237.6,1321.3z"></path>
		<path class="ladsvg-3804-st0" d="M-1220.4,1516.6c-0.1-0.4-0.1-0.8-0.1-1.1c0-0.7,0.1-1.5,0.3-2.2l0,0c-1.8-0.3-3.6-0.4-5.4-0.4
			c-4.2,0-8.3,0.8-12.3,2.2l0,0c14.4-10.8,22.8-27.8,22.8-45.8c0-0.4,0-0.8,0-1.1l0,0c-0.2,0-0.4,0-0.6,0
			c-18.2,0-35.3,8.6-46.1,23.3l0,0c1.4-3.8,2.1-7.9,2.1-12c0-1.9-0.2-3.8-0.5-5.7l0,0c-0.7,0.2-1.5,0.4-2.2,0.4
			c-0.4,0-0.7,0-1.1-0.1l0,0c-4.9,1.1-9.1,4.2-11.6,8.5l0,0c0.2-2.1,0.3-4.2,0.3-6.3c0-10.2-2.2-20.3-6.3-29.6l0,0
			c-1.8-4-5.4-6.9-9.7-7.7l0,0v105.8h106c-0.6-4.7-3.6-8.7-8-10.6l0,0c-9.1-4-19-6-29-6c-2.3,0-4.7,0.1-7,0.3l0,0
			C-1224.6,1525.8-1221.5,1521.6-1220.4,1516.6L-1220.4,1516.6z"></path>
		<path class="ladsvg-3804-st1" d="M-1114.8,1469c0.4,0,0.8,0,1.1,0c18,0,34.9,8.4,45.8,22.8l0,0c-1.5-3.9-2.2-8.1-2.2-12.3
			c0-1.8,0.1-3.6,0.4-5.4l0,0c0.7,0.2,1.4,0.3,2.2,0.3c0.4,0,0.8,0,1.1-0.1l0,0c4.9,1.1,9.1,4.1,11.6,8.4l0,0
			c-0.2-2.3-0.3-4.7-0.3-7c0-9.9,2.1-19.9,6-29l0,0c1.9-4.3,5.9-7.4,10.6-8l0,0V1398c-4.3-0.9-7.9-3.7-9.7-7.7l0,0
			c-4.2-9.3-6.3-19.4-6.3-29.6c0-2.1,0.1-4.2,0.3-6.3l0,0c-2.5,4.3-6.7,7.4-11.6,8.5l0,0c-0.4-0.1-0.7-0.1-1.1-0.1
			c-0.8,0-1.5,0.1-2.2,0.4l0,0c-0.3-1.9-0.5-3.8-0.5-5.7c0-4.1,0.7-8.1,2.1-12l0,0c-10.8,14.7-27.9,23.3-46.1,23.3
			c-0.2,0-0.4,0-0.6,0l0,0c0-0.4,0-0.8,0-1.1c0-18,8.4-34.9,22.8-45.8l0,0c-3.9,1.5-8.1,2.2-12.3,2.2c-1.8,0-3.6-0.1-5.4-0.4l0,0
			c0.2-0.7,0.3-1.4,0.3-2.2c0-0.4,0-0.8-0.1-1.1l0,0c1.1-4.9,4.1-9.1,8.4-11.6l0,0c-2.3,0.2-4.7,0.3-7,0.3c-9.9,0-19.9-2.1-29-6.1
			l0,0c-4.3-1.9-7.4-5.9-8-10.6l0,0h-40.7c-0.9,4.3-3.7,7.9-7.7,9.7l0,0c-9.3,4.2-19.4,6.3-29.6,6.3c-2.1,0-4.2-0.1-6.3-0.3l0,0
			c4.3,2.5,7.4,6.7,8.5,11.6l0,0c-0.1,0.4-0.1,0.7-0.1,1.1c0,0.8,0.1,1.5,0.4,2.2l0,0c-1.9,0.3-3.8,0.5-5.7,0.5
			c-4.1,0-8.1-0.7-12-2.1l0,0c14.7,10.8,23.3,27.9,23.3,46.1c0,0.2,0,0.4,0,0.6l0,0c-0.4,0-0.8,0-1.1,0c-18,0-34.9-8.4-45.8-22.8
			l0,0c1.5,3.9,2.2,8.1,2.2,12.3c0,1.8-0.1,3.6-0.4,5.4l0,0c-0.7-0.2-1.4-0.3-2.2-0.3c-0.4,0-0.8,0-1.1,0.1l0,0
			c-4.9-1.1-9.1-4.1-11.6-8.4l0,0c0.2,2.3,0.3,4.7,0.3,7c0,9.9-2.1,19.9-6,29l0,0c-1.9,4.3-5.9,7.4-10.6,8l0,0v40.7
			c4.3,0.9,7.9,3.7,9.7,7.7l0,0c4.2,9.3,6.3,19.4,6.3,29.6c0,2.1-0.1,4.2-0.3,6.3l0,0c2.5-4.3,6.7-7.4,11.6-8.5l0,0
			c0.4,0.1,0.7,0.1,1.1,0.1c0.8,0,1.5-0.1,2.2-0.4l0,0c0.3,1.9,0.5,3.8,0.5,5.7c0,4.1-0.7,8.1-2.1,12l0,0
			c10.8-14.7,27.9-23.3,46.1-23.3c0.2,0,0.4,0,0.6,0l0,0c0,0.4,0,0.8,0,1.1c0,18-8.4,34.9-22.8,45.8l0,0c3.9-1.5,8.1-2.2,12.3-2.2
			c1.8,0,3.6,0.1,5.4,0.4l0,0c-0.2,0.7-0.3,1.4-0.3,2.2c0,0.4,0,0.8,0.1,1.1l0,0c-1.1,4.9-4.1,9.1-8.4,11.6l0,0
			c2.3-0.2,4.7-0.3,7-0.3c9.9,0,19.9,2.1,29,6l0,0c4.3,1.9,7.4,5.9,8,10.6l0,0h40.7c0.9-4.3,3.7-7.9,7.7-9.7l0,0
			c9.3-4.2,19.4-6.3,29.6-6.3c2.1,0,4.2,0.1,6.3,0.3l0,0c-4.3-2.5-7.4-6.7-8.5-11.6l0,0c0.1-0.4,0.1-0.7,0.1-1.1
			c0-0.8-0.1-1.5-0.4-2.2l0,0c1.9-0.3,3.8-0.5,5.7-0.5c4.1,0,8.1,0.7,12,2.1l0,0c-14.7-10.8-23.3-27.9-23.3-46.1
			C-1114.8,1469.4-1114.8,1469.2-1114.8,1469L-1114.8,1469z"></path>
		<path class="ladsvg-3804-st2" d="M-1164.8,1486.2c-0.3,0-0.7,0-1,0c-9.9,0-17.9-8-17.9-17.9c0-2.3,0.5-4.6,1.3-6.8l0,0
			c-2.8,5.4-8.4,8.8-14.6,8.8c-5.2,0-10.1-2.5-13.2-6.6l0,0c-4.1-3.1-6.5-7.9-6.5-13.1c0-6.2,3.5-11.8,8.9-14.7l0,0
			c-2.1,0.8-4.4,1.3-6.6,1.3c-9.9,0-17.9-8-17.9-17.9c0-0.4,0-0.8,0-1.2l0,0c0-0.3,0-0.7,0-1c0-9.9,8-17.9,17.9-17.9
			c2.3,0,4.6,0.5,6.8,1.3l0,0c-5.4-2.8-8.8-8.4-8.8-14.6c0-5.2,2.5-10.1,6.6-13.2l0,0c3.1-4.1,7.9-6.5,13.1-6.5
			c6.2,0,11.8,3.5,14.7,8.9l0,0c-0.8-2.1-1.3-4.4-1.3-6.6c0-9.9,8-17.9,17.9-17.9c0.4,0,0.8,0,1.2,0l0,0c0.3,0,0.7,0,1,0
			c9.9,0,17.9,8,17.9,17.9c0,2.3-0.5,4.6-1.3,6.8l0,0c2.8-5.4,8.4-8.8,14.6-8.8c5.2,0,10.1,2.5,13.2,6.6l0,0
			c4.1,3.1,6.5,7.9,6.5,13.1c0,6.2-3.5,11.8-8.9,14.7l0,0c2.1-0.8,4.4-1.3,6.6-1.3c9.9,0,17.9,8,17.9,17.9c0,0.4,0,0.8,0,1.2l0,0
			c0,0.3,0,0.7,0,1c0,9.9-8,17.9-17.9,17.9c-2.3,0-4.6-0.5-6.8-1.3l0,0c5.4,2.8,8.8,8.4,8.8,14.6c0,5.2-2.5,10.1-6.6,13.2l0,0
			c-3.1,4.1-7.9,6.5-13.1,6.5c-6.2,0-11.8-3.5-14.7-8.9l0,0c0.8,2.1,1.3,4.4,1.3,6.6c0,9.9-8,17.9-17.9,17.9
			C-1164,1486.3-1164.4,1486.3-1164.8,1486.2L-1164.8,1486.2z"></path>
		<path class="ladsvg-3804-st1" d="M-1196.7,1418.5c0-17.8,14.5-32.1,32.1-32.1c17.8,0,32.1,14.5,32.1,32.1c0,17.8-14.5,32.1-32.1,32.1
			C-1182.3,1450.6-1196.7,1436.3-1196.7,1418.5L-1196.7,1418.5z"></path>
		<path class="ladsvg-3804-st3" d="M-1183.1,1418.5c0-10.2,8.3-18.6,18.6-18.6s18.6,8.3,18.6,18.6c0,10.2-8.3,18.6-18.6,18.6
			S-1183.1,1428.7-1183.1,1418.5L-1183.1,1418.5z"></path>
	</g>
</switch>

</svg>