<svg version="1.1" id="Camada_1" xmlns:x="&amp;ns_extend;" xmlns:i="&amp;ns_ai;" xmlns:graph="&amp;ns_graphs;" xmlns="http://www.w3.org/2000/svg" xmlns:xlink="http://www.w3.org/1999/xlink" x="0px" y="0px" viewBox="-1291 1292.1 252.6 252.6" style="enable-background:new -1291 1292.1 252.6 252.6;" xml:space="preserve">
<style type="text/css">
	.ladsvg-5294-st0{fill:#7B7970;}
	.ladsvg-5294-st1{fill:#F5F4F4;}
</style>
<switch>
	
	<g i:extraneous="self">
		<rect x="-1291" y="1292.7" class="ladsvg-5294-st0" width="252.5" height="252.1"></rect>
		<polygon class="ladsvg-5294-st1" points="-1181.5,1428.4 -1164.8,1438 -1148,1428.4 -1148,1409 -1164.8,1399.3 -1181.5,1409 		"></polygon>
		<polygon class="ladsvg-5294-st1" points="-1111.9,1428.4 -1128.7,1438 -1145.5,1428.4 -1145.5,1409 -1128.7,1399.3 -1111.9,1409 		"></polygon>
		<polygon class="ladsvg-5294-st1" points="-1199.6,1440.6 -1182.8,1430.9 -1166,1440.6 -1166,1459.9 -1182.8,1469.6 -1199.6,1459.9 		"></polygon>
		<polygon class="ladsvg-5294-st1" points="-1130,1440.6 -1146.8,1430.9 -1163.5,1440.6 -1163.5,1459.9 -1146.8,1469.6 -1130,1459.9 		"></polygon>
		<polygon class="ladsvg-5294-st1" points="-1057.9,1440.6 -1074.6,1430.9 -1091.4,1440.6 -1091.4,1459.9 -1074.6,1469.6 -1057.9,1459.9 		"></polygon>
		<polygon class="ladsvg-5294-st1" points="-1127.5,1440.6 -1110.6,1430.9 -1093.9,1440.6 -1093.9,1459.9 -1110.6,1469.6 -1127.5,1459.9 		"></polygon>
		<polygon class="ladsvg-5294-st1" points="-1039.8,1428.4 -1056.6,1438 -1073.4,1428.4 -1073.4,1409 -1056.6,1399.3 -1039.8,1409 		"></polygon>
		<polygon class="ladsvg-5294-st1" points="-1109.4,1428.4 -1092.6,1438 -1075.9,1428.4 -1075.9,1409 -1092.6,1399.3 -1109.4,1409 		"></polygon>
		<polygon class="ladsvg-5294-st1" points="-1181.5,1491.4 -1164.8,1501.1 -1148,1491.4 -1148,1472.1 -1164.8,1462.4 -1181.5,1472.1 		"></polygon>
		<polygon class="ladsvg-5294-st1" points="-1111.9,1491.4 -1128.7,1501.1 -1145.5,1491.4 -1145.5,1472.1 -1128.7,1462.4 -1111.9,1472.1 		"></polygon>
		<polygon class="ladsvg-5294-st1" points="-1039.8,1491.4 -1056.6,1501.1 -1073.4,1491.4 -1073.4,1472.1 -1056.6,1462.4 -1039.8,1472.1 		"></polygon>
		<polygon class="ladsvg-5294-st1" points="-1109.4,1491.4 -1092.6,1501.1 -1075.9,1491.4 -1075.9,1472.1 -1092.6,1462.4 -1109.4,1472.1 		"></polygon>
		<polygon class="ladsvg-5294-st1" points="-1199.6,1503.6 -1182.8,1493.9 -1166,1503.6 -1166,1522.9 -1182.8,1532.6 -1199.6,1522.9 		"></polygon>
		<polygon class="ladsvg-5294-st1" points="-1130,1503.6 -1146.8,1493.9 -1163.5,1503.6 -1163.5,1522.9 -1146.8,1532.6 -1130,1522.9 		"></polygon>
		<polygon class="ladsvg-5294-st1" points="-1057.9,1503.6 -1074.6,1493.9 -1091.4,1503.6 -1091.4,1522.9 -1074.6,1532.6 -1057.9,1522.9 		"></polygon>
		<polygon class="ladsvg-5294-st1" points="-1127.5,1503.6 -1110.6,1493.9 -1093.9,1503.6 -1093.9,1522.9 -1110.6,1532.6 -1127.5,1522.9 		"></polygon>
		<polygon class="ladsvg-5294-st1" points="-1199.6,1440.6 -1182.8,1430.9 -1166,1440.6 -1166,1459.9 -1182.8,1469.6 -1199.6,1459.9 		"></polygon>
		<polygon class="ladsvg-5294-st1" points="-1271.7,1440.6 -1254.9,1430.9 -1238.1,1440.6 -1238.1,1459.9 -1254.9,1469.6 -1271.7,1459.9 		"></polygon>
		<polygon class="ladsvg-5294-st1" points="-1202.1,1440.6 -1218.9,1430.9 -1235.6,1440.6 -1235.6,1459.9 -1218.9,1469.6 -1202.1,1459.9 		"></polygon>
		<polygon class="ladsvg-5294-st1" points="-1217.6,1491.4 -1200.9,1501.1 -1184,1491.4 -1184,1472.1 -1200.9,1462.4 -1217.6,1472.1 		"></polygon>
		<polygon class="ladsvg-5294-st1" points="-1289.7,1491.4 -1273,1501.1 -1256.2,1491.4 -1256.2,1472.1 -1273,1462.4 -1289.7,1472.1 		"></polygon>
		<polygon class="ladsvg-5294-st1" points="-1220.1,1491.4 -1236.9,1501.1 -1253.6,1491.4 -1253.6,1472.1 -1236.9,1462.4 -1220.1,1472.1 		"></polygon>
		<polygon class="ladsvg-5294-st1" points="-1199.6,1503.6 -1182.8,1493.9 -1166,1503.6 -1166,1522.9 -1182.8,1532.6 -1199.6,1522.9 		"></polygon>
		<polygon class="ladsvg-5294-st1" points="-1271.7,1503.6 -1254.9,1493.9 -1238.1,1503.6 -1238.1,1522.9 -1254.9,1532.6 -1271.7,1522.9 		"></polygon>
		<polygon class="ladsvg-5294-st1" points="-1202.1,1503.6 -1218.9,1493.9 -1235.6,1503.6 -1235.6,1522.9 -1218.9,1532.6 -1202.1,1522.9 		"></polygon>
		<polygon class="ladsvg-5294-st1" points="-1130,1396.8 -1146.8,1406.5 -1163.5,1396.8 -1163.5,1377.5 -1146.8,1367.8 -1130,1377.5 		"></polygon>
		<polygon class="ladsvg-5294-st1" points="-1057.9,1396.8 -1074.6,1406.5 -1091.4,1396.8 -1091.4,1377.5 -1074.6,1367.8 -1057.9,1377.5 		"></polygon>
		<polygon class="ladsvg-5294-st1" points="-1127.5,1396.8 -1110.6,1406.5 -1093.9,1396.8 -1093.9,1377.5 -1110.6,1367.8 -1127.5,1377.5 		"></polygon>
		<polygon class="ladsvg-5294-st1" points="-1111.9,1346 -1128.7,1336.3 -1145.5,1346 -1145.5,1365.3 -1128.7,1375 -1111.9,1365.3 		"></polygon>
		<polygon class="ladsvg-5294-st1" points="-1039.8,1346 -1056.6,1336.3 -1073.4,1346 -1073.4,1365.3 -1056.6,1375 -1039.8,1365.3 		"></polygon>
		<polygon class="ladsvg-5294-st1" points="-1109.4,1346 -1092.6,1336.3 -1075.9,1346 -1075.9,1365.3 -1092.6,1375 -1109.4,1365.3 		"></polygon>
		<polygon class="ladsvg-5294-st1" points="-1130,1333.8 -1146.8,1343.5 -1163.5,1333.8 -1163.5,1314.5 -1146.8,1304.8 -1130,1314.5 		"></polygon>
		<polygon class="ladsvg-5294-st1" points="-1057.9,1333.8 -1074.6,1343.5 -1091.4,1333.8 -1091.4,1314.5 -1074.6,1304.8 -1057.9,1314.5 		"></polygon>
		<polygon class="ladsvg-5294-st1" points="-1127.5,1333.8 -1110.6,1343.5 -1093.9,1333.8 -1093.9,1314.5 -1110.6,1304.8 -1127.5,1314.5 		"></polygon>
		<polygon class="ladsvg-5294-st1" points="-1181.5,1346 -1164.8,1336.3 -1148,1346 -1148,1365.3 -1164.8,1375 -1181.5,1365.3 		"></polygon>
		<polygon class="ladsvg-5294-st1" points="-1217.6,1428.4 -1200.9,1438 -1184,1428.4 -1184,1409 -1200.9,1399.3 -1217.6,1409 		"></polygon>
		<polygon class="ladsvg-5294-st1" points="-1289.7,1428.4 -1273,1438 -1256.2,1428.4 -1256.2,1409 -1273,1399.3 -1289.7,1409 		"></polygon>
		<polygon class="ladsvg-5294-st1" points="-1220.1,1428.4 -1236.9,1438 -1253.6,1428.4 -1253.6,1409 -1236.9,1399.3 -1220.1,1409 		"></polygon>
		<polygon class="ladsvg-5294-st1" points="-1199.6,1396.8 -1182.8,1406.5 -1166,1396.8 -1166,1377.5 -1182.8,1367.8 -1199.6,1377.5 		"></polygon>
		<polygon class="ladsvg-5294-st1" points="-1271.7,1396.8 -1254.9,1406.5 -1238.1,1396.8 -1238.1,1377.5 -1254.9,1367.8 -1271.7,1377.5 		"></polygon>
		<polygon class="ladsvg-5294-st1" points="-1202.1,1396.8 -1218.9,1406.5 -1235.6,1396.8 -1235.6,1377.5 -1218.9,1367.8 -1202.1,1377.5 		"></polygon>
		<polygon class="ladsvg-5294-st1" points="-1217.6,1346 -1200.9,1336.3 -1184,1346 -1184,1365.3 -1200.9,1375 -1217.6,1365.3 		"></polygon>
		<polygon class="ladsvg-5294-st1" points="-1289.7,1346 -1273,1336.3 -1256.2,1346 -1256.2,1365.3 -1273,1375 -1289.7,1365.3 		"></polygon>
		<polygon class="ladsvg-5294-st1" points="-1220.1,1346 -1236.9,1336.3 -1253.6,1346 -1253.6,1365.3 -1236.9,1375 -1220.1,1365.3 		"></polygon>
		<polygon class="ladsvg-5294-st1" points="-1199.6,1333.8 -1182.8,1343.5 -1166,1333.8 -1166,1314.5 -1182.8,1304.8 -1199.6,1314.5 		"></polygon>
		<polygon class="ladsvg-5294-st1" points="-1271.7,1333.8 -1254.9,1343.5 -1238.1,1333.8 -1238.1,1314.5 -1254.9,1304.8 -1271.7,1314.5 		"></polygon>
		<polygon class="ladsvg-5294-st1" points="-1202.1,1333.8 -1218.9,1343.5 -1235.6,1333.8 -1235.6,1314.5 -1218.9,1304.8 -1202.1,1314.5 		"></polygon>
		<polygon class="ladsvg-5294-st1" points="-1274.3,1440.6 -1291,1430.9 -1291,1469.6 -1274.3,1459.9 		"></polygon>
		<polygon class="ladsvg-5294-st1" points="-1274.3,1377.5 -1291,1367.8 -1291,1406.5 -1274.3,1396.8 		"></polygon>
		<polygon class="ladsvg-5294-st1" points="-1274.3,1314.5 -1291,1304.8 -1291,1343.5 -1274.3,1333.8 		"></polygon>
		<polygon class="ladsvg-5294-st1" points="-1256.2,1292.7 -1289.7,1292.7 -1289.7,1302.3 -1273,1312 -1256.2,1302.3 		"></polygon>
		<polygon class="ladsvg-5294-st1" points="-1220.1,1292.7 -1253.6,1292.7 -1253.6,1302.3 -1236.9,1312 -1220.1,1302.3 		"></polygon>
		<polygon class="ladsvg-5294-st1" points="-1184,1292.7 -1217.6,1292.7 -1217.6,1302.3 -1200.9,1312 -1184,1302.3 		"></polygon>
		<polygon class="ladsvg-5294-st1" points="-1148,1292.7 -1181.5,1292.7 -1181.5,1302.3 -1164.8,1312 -1148,1302.3 		"></polygon>
		<polygon class="ladsvg-5294-st1" points="-1111.9,1292.7 -1145.5,1292.7 -1145.5,1302.3 -1128.7,1312 -1111.9,1302.3 		"></polygon>
		<polygon class="ladsvg-5294-st1" points="-1075.9,1292.7 -1109.4,1292.7 -1109.4,1302.3 -1092.6,1312 -1075.9,1302.3 		"></polygon>
		<polygon class="ladsvg-5294-st1" points="-1039.8,1292.7 -1073.4,1292.7 -1073.4,1302.3 -1056.6,1312 -1039.8,1302.3 		"></polygon>
		<polygon class="ladsvg-5294-st1" points="-1038.5,1304.8 -1055.4,1314.5 -1055.4,1333.8 -1038.5,1343.5 		"></polygon>
		<polygon class="ladsvg-5294-st1" points="-1038.5,1367.8 -1055.4,1377.5 -1055.4,1396.8 -1038.5,1406.5 		"></polygon>
		<polygon class="ladsvg-5294-st1" points="-1038.5,1430.9 -1055.4,1440.6 -1055.4,1459.9 -1038.5,1469.6 		"></polygon>
		<polygon class="ladsvg-5294-st1" points="-1038.5,1493.9 -1055.4,1503.6 -1055.4,1522.9 -1038.5,1532.6 		"></polygon>
		<polygon class="ladsvg-5294-st1" points="-1039.8,1535.1 -1056.6,1525.4 -1073.4,1535.1 -1073.4,1544.7 -1039.8,1544.7 		"></polygon>
		<polygon class="ladsvg-5294-st1" points="-1075.9,1535.1 -1092.6,1525.4 -1109.4,1535.1 -1109.4,1544.7 -1075.9,1544.7 		"></polygon>
		<polygon class="ladsvg-5294-st1" points="-1111.9,1535.1 -1128.7,1525.4 -1145.5,1535.1 -1145.5,1544.7 -1111.9,1544.7 		"></polygon>
		<polygon class="ladsvg-5294-st1" points="-1148,1535.1 -1164.8,1525.4 -1181.5,1535.1 -1181.5,1544.7 -1148,1544.7 		"></polygon>
		<polygon class="ladsvg-5294-st1" points="-1184,1535.1 -1200.9,1525.4 -1217.6,1535.1 -1217.6,1544.7 -1184,1544.7 		"></polygon>
		<polygon class="ladsvg-5294-st1" points="-1220.1,1535.1 -1236.9,1525.4 -1253.6,1535.1 -1253.6,1544.7 -1220.1,1544.7 		"></polygon>
		<polygon class="ladsvg-5294-st1" points="-1256.2,1535.1 -1273,1525.4 -1289.7,1535.1 -1289.7,1544.7 -1256.2,1544.7 		"></polygon>
		<polygon class="ladsvg-5294-st1" points="-1274.3,1503.6 -1291,1493.9 -1291,1532.6 -1274.3,1522.9 		"></polygon>
	</g>
</switch>

</svg>