<svg version="1.1" id="Camada_1" xmlns:x="&amp;ns_extend;" xmlns:i="&amp;ns_ai;" xmlns:graph="&amp;ns_graphs;" xmlns="http://www.w3.org/2000/svg" xmlns:xlink="http://www.w3.org/1999/xlink" x="0px" y="0px" viewBox="-1291 1292.1 252.6 252.6" style="enable-background:new -1291 1292.1 252.6 252.6;" xml:space="preserve">
<style type="text/css">
	.A{fill:#2D2E27;}
	.B{fill:#F5F4F4;}
	.C{fill:#7B7970;}
</style>
<switch>
	
	<g i:extraneous="self">
		<rect x="-1291" y="1292.2" class="A" width="252.6" height="252.6"></rect>
		<polygon class="B" points="-1042.7,1313.2 -1059.7,1296.2 -1101.7,1296.2 -1118.7,1313.2 -1118.7,1355.2 -1101.7,1372.2 
			-1059.7,1372.2 -1042.7,1355.2 		"></polygon>
		<polygon class="B" points="-1126.8,1313.2 -1143.8,1296.2 -1185.9,1296.2 -1202.9,1313.2 -1202.9,1355.2 -1185.9,1372.2 
			-1143.8,1372.2 -1126.8,1355.2 		"></polygon>
		<polygon class="B" points="-1210.9,1313.2 -1227.9,1296.2 -1270,1296.2 -1287,1313.2 -1287,1355.2 -1270,1372.2 -1227.9,1372.2 
			-1210.9,1355.2 		"></polygon>
		<polygon class="B" points="-1210.9,1397.3 -1227.9,1380.3 -1270,1380.3 -1287,1397.3 -1287,1439.3 -1270,1456.3 -1227.9,1456.3 
			-1210.9,1439.3 		"></polygon>
		<polygon class="B" points="-1126.8,1397.3 -1143.8,1380.3 -1185.9,1380.3 -1202.9,1397.3 -1202.9,1439.3 -1185.9,1456.3 
			-1143.8,1456.3 -1126.8,1439.3 		"></polygon>
		<polygon class="B" points="-1042.7,1397.3 -1059.7,1380.3 -1101.7,1380.3 -1118.7,1397.3 -1118.7,1439.3 -1101.7,1456.3 
			-1059.7,1456.3 -1042.7,1439.3 		"></polygon>
		<polygon class="B" points="-1210.9,1481.3 -1227.9,1464.3 -1270,1464.3 -1287,1481.3 -1287,1523.5 -1270,1540.5 -1227.9,1540.5 
			-1210.9,1523.5 		"></polygon>
		<polygon class="B" points="-1126.8,1481.3 -1143.8,1464.3 -1185.9,1464.3 -1202.9,1481.3 -1202.9,1523.5 -1185.9,1540.5 
			-1143.8,1540.5 -1126.8,1523.5 		"></polygon>
		<polygon class="B" points="-1042.7,1481.3 -1059.7,1464.3 -1101.7,1464.3 -1118.7,1481.3 -1118.7,1523.5 -1101.7,1540.5 
			-1059.7,1540.5 -1042.7,1523.5 		"></polygon>
		
			<rect x="-1137.7" y="1361.2" transform="matrix(-0.7071 0.7071 -0.7071 -0.7071 -943.754 3143.1062)" class="C" width="29.7" height="29.7"></rect>
		
			<rect x="-1221.8" y="1361.2" transform="matrix(-0.7071 -0.7071 0.7071 -0.7071 -3033.3601 1495.6831)" class="C" width="29.7" height="29.7"></rect>
		
			<rect x="-1137.5" y="1445.3" transform="matrix(-0.7071 -0.7071 0.7071 -0.7071 -2949.064 1698.8163)" class="C" width="29.7" height="29.7"></rect>
		
			<rect x="-1221.8" y="1445.4" transform="matrix(-0.7071 0.7071 -0.7071 -0.7071 -1027.8115 3346.2793)" class="C" width="29.7" height="29.7"></rect>
		<polygon class="C" points="-1122.8,1523.5 -1144.1,1544.8 -1101.5,1544.8 		"></polygon>
		<polygon class="C" points="-1038.4,1523.2 -1059.9,1544.8 -1038.4,1544.8 		"></polygon>
		<polygon class="C" points="-1038.4,1439.1 -1059.7,1460.3 -1038.4,1481.7 		"></polygon>
		<polygon class="C" points="-1038.4,1355 -1059.7,1376.3 -1038.4,1397.6 		"></polygon>
		<polygon class="C" points="-1038.4,1292.2 -1059.7,1292.2 -1038.4,1313.3 		"></polygon>
		<polygon class="C" points="-1101.7,1292.2 -1143.8,1292.2 -1122.8,1313.2 		"></polygon>
		<polygon class="C" points="-1185.9,1292.2 -1227.9,1292.2 -1206.9,1313.2 		"></polygon>
		<polygon class="C" points="-1270,1292.2 -1291,1292.2 -1291,1313.2 		"></polygon>
		<polygon class="C" points="-1291,1355.2 -1291,1397.3 -1270,1376.3 		"></polygon>
		<polygon class="C" points="-1291,1439.3 -1291,1481.3 -1270,1460.3 		"></polygon>
		<polygon class="C" points="-1291,1523.5 -1291,1544.8 -1269.7,1544.8 		"></polygon>
		<polygon class="C" points="-1206.9,1523.5 -1228.2,1544.8 -1185.6,1544.8 		"></polygon>
	</g>
</switch>

</svg>