<svg version="1.0" id="Camada_1" xmlns:x="&amp;ns_extend;" xmlns:i="&amp;ns_ai;" xmlns:graph="&amp;ns_graphs;" xmlns="http://www.w3.org/2000/svg" xmlns:xlink="http://www.w3.org/1999/xlink" x="0px" y="0px" viewBox="-1291 1292.1 252.6 252.6" style="enable-background:new -1291 1292.1 252.6 252.6;" xml:space="preserve">
<style type="text/css">
	.ladsvg-8585-st0{fill:#F5F4F4;}
	.ladsvg-8585-st1{fill:#4A949D;}
	.ladsvg-8585-st2{fill:#155D64;}
	.ladsvg-8585-st3{fill:#B0B461;}
	.ladsvg-8585-st4{fill:#7D2534;}
</style>
<metadata>
	<sfw xmlns="&amp;ns_sfw;">
		<slices></slices>
		<slicesourcebounds width="252.7" height="252.7" bottomleftorigin="true" y="-0.1" x="0"></slicesourcebounds>
	</sfw>
</metadata>
<switch>
	
	<g i:extraneous="self">
		<rect x="-1291" y="1292.2" class="ladsvg-8585-st0" width="252.6" height="252.6"></rect>
		<path class="ladsvg-8585-st1" d="M-1188.8,1529.3c-5.8-1.9-10.3-6.6-12.2-12.4l0,0c-1.1-3.7-2.7-7.2-4.6-10.5l0,0c-1.8-2.8-5-4.5-8.4-4.5
			c-0.1,0-0.3,0-0.4,0l0,0c-5,0.5-9.4,3.6-11.6,8.2l0,0c-0.3,0.7-1,1.1-1.7,1.1s-1.4-0.4-1.7-1.1l0,0c-2.2-4.6-6.6-7.7-11.6-8.2l0,0
			c-0.1,0-0.3,0-0.4,0c-3.4,0-6.5,1.7-8.4,4.5l0,0c-1.9,3.3-3.5,6.9-4.6,10.5l0,0c-1.8,5.9-6.3,10.5-12.2,12.4l0,0
			c0.3,6,3.2,11.6,7.9,15.3l0,0h62.5C-1191.9,1540.8-1189.2,1535.2-1188.8,1529.3L-1188.8,1529.3z"></path>
		<path class="ladsvg-8585-st1" d="M-1197.1,1418.4c4.9-3.6,8-9.2,8.3-15.3l0,0c-5.8-1.9-10.3-6.6-12.2-12.4l0,0c-1.1-3.7-2.7-7.2-4.6-10.5l0,0
			c-1.8-2.8-5-4.5-8.4-4.5c-0.1,0-0.3,0-0.4,0l0,0c-5,0.5-9.4,3.6-11.6,8.2l0,0c-0.3,0.7-1,1.1-1.7,1.1s-1.4-0.4-1.7-1.1l0,0
			c-2.2-4.6-6.6-7.7-11.6-8.2l0,0c-0.1,0-0.3,0-0.4,0c-3.4,0-6.5,1.7-8.4,4.5l0,0c-1.9,3.3-3.5,6.9-4.6,10.5l0,0
			c-1.8,5.9-6.3,10.5-12.2,12.4l0,0c0.3,6.1,3.3,11.8,8.3,15.3l0,0c-4.9,3.6-8,9.2-8.3,15.3l0,0c5.8,1.9,10.3,6.6,12.2,12.4l0,0
			c1.1,3.7,2.7,7.2,4.6,10.5l0,0c1.8,2.8,5,4.5,8.4,4.5c0.1,0,0.3,0,0.4,0l0,0c5-0.5,9.4-3.6,11.6-8.2l0,0c0.3-0.7,1-1.1,1.7-1.1
			s1.4,0.4,1.7,1.1l0,0c2.2,4.6,6.6,7.7,11.6,8.2l0,0c0.1,0,0.3,0,0.4,0c3.4,0,6.5-1.7,8.4-4.5l0,0c1.9-3.3,3.5-6.9,4.6-10.5l0,0
			c1.8-5.9,6.3-10.5,12.2-12.4l0,0C-1189.1,1427.6-1192.1,1422-1197.1,1418.4L-1197.1,1418.4z"></path>
		<path class="ladsvg-8585-st2" d="M-1038.4,1324.8c-3.6-6.6-10.4-10.7-17.9-10.7c-0.1,0-0.1,0-0.2,0l0,0c-5,0-9.4,3.3-10.9,8.1l0,0
			c-1.3,4.2-3.1,8.3-5.3,12.2l0,0c-2.1,3.6-5.5,6.2-9.5,7.3l0,0c1,5.7,4.4,10.6,9.3,13.5l0,0c-5,2.9-8.4,7.8-9.3,13.5l0,0
			c4,1.1,7.5,3.7,9.5,7.3l0,0c2.2,3.8,4,7.9,5.3,12.2l0,0c1.5,4.8,5.9,8,10.9,8.1l0,0c7.3,0,14.2-3.8,18.2-9.9l0,0L-1038.4,1324.8
			L-1038.4,1324.8z"></path>
		<path class="ladsvg-8585-st3" d="M-1038.4,1450.5c-3.9-6.3-10.8-10.1-18.2-10.1l0,0c-5,0-9.4,3.3-10.9,8.1l0,0c-1.3,4.2-3.1,8.3-5.3,12.2l0,0
			c-2.1,3.6-5.5,6.2-9.5,7.3l0,0c1,5.7,4.4,10.6,9.3,13.5l0,0c-5,2.9-8.4,7.8-9.3,13.5l0,0c4,1.1,7.5,3.7,9.5,7.3l0,0
			c2.2,3.8,4,7.9,5.3,12.2l0,0c1.5,4.8,5.9,8,10.9,8.1l0,0c7.3-0.1,14.1-3.7,18.2-9.8l0,0V1450.5z"></path>
		<path class="ladsvg-8585-st1" d="M-1074.7,1516.9c-1.1-3.7-2.7-7.2-4.6-10.5l0,0c-1.8-2.8-5-4.5-8.4-4.5c-0.1,0-0.3,0-0.4,0l0,0
			c-5,0.5-9.4,3.6-11.6,8.2l0,0c-0.3,0.7-1,1.1-1.7,1.1s-1.4-0.4-1.7-1.1l0,0c-2.2-4.6-6.6-7.7-11.6-8.2l0,0c-0.1,0-0.3,0-0.4,0
			c-3.4,0-6.5,1.7-8.4,4.5l0,0c-1.9,3.3-3.5,6.9-4.6,10.5l0,0c-1.8,5.9-6.3,10.5-12.2,12.4l0,0c0.4,5.9,3,11.4,7.4,15.3l0,0h63.1
			c4.4-3.9,7.1-9.4,7.5-15.3l0,0C-1068.4,1527.4-1072.9,1522.7-1074.7,1516.9L-1074.7,1516.9z"></path>
		<path class="ladsvg-8585-st1" d="M-1062.6,1403.1c-5.8-1.9-10.3-6.6-12.2-12.4l0,0c-1.1-3.7-2.7-7.2-4.6-10.5l0,0c-1.8-2.8-5-4.5-8.4-4.5
			c-0.1,0-0.3,0-0.4,0l0,0c-5,0.5-9.4,3.6-11.6,8.2l0,0c-0.3,0.7-1,1.1-1.7,1.1s-1.4-0.4-1.7-1.1l0,0c-2.2-4.6-6.6-7.7-11.6-8.2l0,0
			c-0.1,0-0.3,0-0.4,0c-3.4,0-6.5,1.7-8.4,4.5l0,0c-1.9,3.3-3.5,6.9-4.6,10.5l0,0c-1.8,5.9-6.3,10.5-12.2,12.4l0,0
			c0.3,6.1,3.3,11.8,8.3,15.3l0,0c-4.9,3.6-8,9.2-8.3,15.3l0,0c5.8,1.9,10.3,6.6,12.2,12.4l0,0c1.1,3.7,2.7,7.2,4.6,10.5l0,0
			c1.8,2.8,5,4.5,8.4,4.5c0.1,0,0.3,0,0.4,0l0,0c5-0.5,9.4-3.6,11.6-8.2l0,0c0.3-0.7,1-1.1,1.7-1.1s1.4,0.4,1.7,1.1l0,0
			c2.2,4.6,6.6,7.7,11.6,8.2l0,0c0.1,0,0.3,0,0.4,0c3.4,0,6.5-1.7,8.4-4.5l0,0c1.9-3.3,3.5-6.9,4.6-10.5l0,0
			c1.8-5.9,6.3-10.5,12.2-12.4l0,0c-0.3-6.1-3.3-11.8-8.3-15.3l0,0C-1065.9,1414.8-1062.8,1409.2-1062.6,1403.1L-1062.6,1403.1z"></path>
		<path class="ladsvg-8585-st3" d="M-1120.7,1341.7c-4-1.1-7.5-3.7-9.5-7.3l0,0c-2.2-3.8-4-7.9-5.3-12.2l0,0c-1.5-4.8-5.9-8-10.9-8.1l0,0h-0.1
			c-7.5,0-14.4,4.1-18.1,10.6l0,0c-3.6-6.5-10.5-10.6-18-10.6h-0.1l0,0c-5,0-9.4,3.3-10.9,8.1l0,0c-1.3,4.2-3.1,8.3-5.3,12.2l0,0
			c-2.1,3.6-5.5,6.2-9.5,7.3l0,0c1,5.7,4.4,10.6,9.3,13.5l0,0c-5,2.9-8.4,7.8-9.3,13.5l0,0c4,1.1,7.5,3.7,9.5,7.3l0,0
			c2.2,3.8,4,7.9,5.3,12.2l0,0c1.5,4.8,5.9,8,10.9,8.1l0,0h0.1c7.5,0,14.4-4.1,18-10.6l0,0c3.6,6.5,10.5,10.6,18.1,10.6h0.1l0,0
			c5,0,9.4-3.3,10.9-8.1l0,0c1.3-4.2,3.1-8.3,5.3-12.2l0,0c2.1-3.6,5.5-6.2,9.5-7.3l0,0c-1-5.7-4.4-10.6-9.3-13.5l0,0
			C-1125.1,1352.3-1121.7,1347.4-1120.7,1341.7L-1120.7,1341.7z"></path>
		<path class="ladsvg-8585-st2" d="M-1120.7,1468c-4-1.1-7.5-3.7-9.5-7.3l0,0c-2.2-3.8-4-7.9-5.3-12.2l0,0c-1.5-4.8-5.9-8-10.9-8.1l0,0h-0.1
			c-7.5,0-14.4,4.1-18.1,10.6l0,0c-3.6-6.5-10.5-10.6-18-10.6h-0.1l0,0c-5,0-9.4,3.3-10.9,8.1l0,0c-1.3,4.2-3.1,8.3-5.3,12.2l0,0
			c-2.1,3.6-5.5,6.2-9.5,7.3l0,0c1,5.7,4.4,10.6,9.3,13.5l0,0c-5,2.9-8.4,7.8-9.3,13.5l0,0c4,1.1,7.5,3.7,9.5,7.3l0,0
			c2.2,3.8,4,7.9,5.3,12.2l0,0c1.5,4.8,5.9,8,10.9,8.1l0,0h0.1c7.5,0,14.4-4.1,18-10.6l0,0c3.6,6.5,10.5,10.6,18.1,10.6h0.1l0,0
			c5,0,9.4-3.3,10.9-8.1l0,0c1.3-4.2,3.1-8.3,5.3-12.2l0,0c2.1-3.6,5.5-6.2,9.5-7.3l0,0c-1-5.7-4.4-10.6-9.3-13.5l0,0
			C-1125.1,1478.7-1121.7,1473.7-1120.7,1468L-1120.7,1468z"></path>
		<path class="ladsvg-8585-st3" d="M-1247,1468c-4-1.1-7.5-3.7-9.5-7.3l0,0c-2.2-3.8-4-7.9-5.3-12.2l0,0c-1.5-4.8-5.9-8-10.9-8.1l0,0
			c-7.4,0-14.2,3.8-18.2,10.1l0,0v62.4c4,6.1,10.8,9.8,18.2,9.8l0,0c5,0,9.4-3.3,10.9-8.1l0,0c1.3-4.2,3.1-8.3,5.3-12.2l0,0
			c2.1-3.6,5.5-6.2,9.5-7.3l0,0c-1-5.7-4.4-10.6-9.3-13.5l0,0C-1251.4,1478.7-1248,1473.7-1247,1468L-1247,1468z"></path>
		<path class="ladsvg-8585-st2" d="M-1256.6,1334.4c-2.2-3.8-4-7.9-5.3-12.2l0,0c-1.5-4.8-5.9-8-10.9-8.1l0,0c-0.1,0-0.1,0-0.2,0
			c-7.5,0-14.4,4.1-17.9,10.7l0,0v61.6c4,6.2,10.8,9.9,18.2,9.9l0,0c5,0,9.4-3.3,10.9-8.1l0,0c1.3-4.2,3.1-8.3,5.3-12.2l0,0
			c2.1-3.6,5.5-6.2,9.5-7.3l0,0c-1-5.7-4.4-10.6-9.3-13.5l0,0c5-2.9,8.4-7.8,9.3-13.5l0,0C-1251.1,1340.6-1254.5,1338-1256.6,1334.4
			L-1256.6,1334.4z"></path>
		<path class="ladsvg-8585-st1" d="M-1196.4,1292.2h-62.5c-4.7,3.8-7.6,9.3-7.9,15.3l0,0c5.8,1.9,10.3,6.6,12.2,12.4l0,0
			c1.1,3.7,2.7,7.2,4.6,10.5l0,0c1.8,2.8,5,4.5,8.4,4.5c0.1,0,0.3,0,0.4,0l0,0c5-0.5,9.4-3.6,11.6-8.2l0,0c0.3-0.7,1-1.1,1.7-1.1
			s1.4,0.4,1.7,1.1l0,0c2.2,4.6,6.6,7.7,11.6,8.2l0,0c0.1,0,0.3,0,0.4,0c3.4,0,6.5-1.7,8.4-4.5l0,0c1.9-3.3,3.5-6.9,4.6-10.5l0,0
			c1.8-5.9,6.3-10.5,12.2-12.4l0,0C-1189.3,1301.6-1192,1296.1-1196.4,1292.2L-1196.4,1292.2z"></path>
		<path class="ladsvg-8585-st1" d="M-1070.4,1292.2h-62.8c-4.3,4-6.9,9.5-7.4,15.3l0,0c5.8,1.9,10.3,6.6,12.2,12.4l0,0c1.1,3.7,2.7,7.2,4.6,10.5
			l0,0c1.8,2.8,5,4.5,8.4,4.5c0.1,0,0.3,0,0.4,0l0,0c5-0.5,9.4-3.6,11.6-8.2l0,0c0.3-0.7,1-1.1,1.7-1.1s1.4,0.4,1.7,1.1l0,0
			c2.2,4.6,6.6,7.7,11.6,8.2l0,0c0.1,0,0.3,0,0.4,0c3.4,0,6.5-1.7,8.4-4.5l0,0c1.9-3.3,3.5-6.9,4.6-10.5l0,0
			c1.8-5.9,6.3-10.5,12.2-12.4l0,0C-1063.1,1301.6-1065.9,1296.1-1070.4,1292.2L-1070.4,1292.2z"></path>
		<path class="ladsvg-8585-st4" d="M-1216.2,1468.8c-4.6-0.6-8.7-2.9-11.6-6.5l0,0c-2.9,3.6-7,5.9-11.6,6.5l0,0c-0.7,4.6-2.6,9-5.5,12.7l0,0
			c2.9,3.7,4.8,8.1,5.5,12.7l0,0c4.6,0.6,8.7,2.9,11.6,6.5l0,0c2.9-3.6,7-5.9,11.6-6.5l0,0c0.7-4.6,2.6-9,5.5-12.7l0,0
			C-1213.6,1477.9-1215.5,1473.5-1216.2,1468.8L-1216.2,1468.8z"></path>
		<path class="ladsvg-8585-st4" d="M-1038.4,1418.4v-20.7c-4.8,3.7-10.5,5.8-16.5,6.2l0,0c-0.3,5.2-2.1,10.2-5.2,14.4l0,0
			c3.1,4.2,4.9,9.2,5.2,14.4l0,0c6.1,0.3,11.9,2.6,16.5,6.6l0,0V1418.4z"></path>
		<path class="ladsvg-8585-st4" d="M-1038.4,1524c-4.8,3.7-10.5,5.8-16.5,6.2l0,0c-0.3,5.2-2.2,10.2-5.3,14.4l0,0h21.9L-1038.4,1524
			L-1038.4,1524z"></path>
		<path class="ladsvg-8585-st4" d="M-1084.4,1481.6c-2.9-3.7-4.8-8.1-5.5-12.7l0,0c-4.6-0.6-8.7-2.9-11.6-6.5l0,0c-2.9,3.6-7,5.9-11.6,6.5l0,0
			c-0.7,4.6-2.6,9-5.5,12.7l0,0c2.9,3.7,4.8,8.1,5.5,12.7l0,0c4.6,0.6,8.7,2.9,11.6,6.5l0,0c2.9-3.6,7-5.9,11.6-6.5l0,0
			C-1089.2,1489.6-1087.3,1485.3-1084.4,1481.6L-1084.4,1481.6z"></path>
		<path class="ladsvg-8585-st4" d="M-1084.4,1355.2c-2.9-3.7-4.8-8.1-5.5-12.7l0,0c-4.6-0.6-8.7-2.9-11.6-6.5l0,0c-2.9,3.6-7,5.9-11.6,6.5l0,0
			c-0.7,4.6-2.6,9-5.5,12.7l0,0c2.9,3.7,4.8,8.1,5.5,12.7l0,0c4.6,0.6,8.7,2.9,11.6,6.5l0,0c2.9-3.6,7-5.9,11.6-6.5l0,0
			C-1089.2,1363.3-1087.3,1358.9-1084.4,1355.2L-1084.4,1355.2z"></path>
		<path class="ladsvg-8585-st4" d="M-1142.9,1418.4c-3.1-4.2-4.9-9.2-5.2-14.4l0,0c-6.1-0.3-11.9-2.6-16.5-6.5l0,0c-4.7,3.9-10.5,6.2-16.5,6.5
			l0,0c-0.3,5.2-2.1,10.2-5.2,14.4l0,0c3.1,4.2,4.9,9.2,5.2,14.4l0,0c6.1,0.3,11.9,2.6,16.5,6.5l0,0c4.7-3.9,10.5-6.2,16.5-6.5l0,0
			C-1147.8,1427.6-1146,1422.6-1142.9,1418.4L-1142.9,1418.4z"></path>
		<path class="ladsvg-8585-st4" d="M-1148.1,1530.2c-6.1-0.3-11.9-2.6-16.5-6.5l0,0c-4.7,3.9-10.5,6.2-16.5,6.5l0,0c-0.4,5.2-2.1,10.1-5.1,14.4
			l0,0h43.8C-1145.9,1540.5-1147.8,1535.5-1148.1,1530.2L-1148.1,1530.2z"></path>
		<path class="ladsvg-8585-st4" d="M-1210.7,1355.2c-2.9-3.7-4.8-8.1-5.5-12.7l0,0c-4.6-0.6-8.7-2.9-11.6-6.5l0,0c-2.9,3.6-7,5.9-11.6,6.5l0,0
			c-0.7,4.6-2.6,9-5.5,12.7l0,0c2.9,3.7,4.8,8.1,5.5,12.7l0,0c4.6,0.6,8.7,2.9,11.6,6.5l0,0c2.9-3.6,7-5.9,11.6-6.5l0,0
			C-1215.5,1363.3-1213.6,1358.9-1210.7,1355.2L-1210.7,1355.2z"></path>
		<path class="ladsvg-8585-st4" d="M-1274.5,1530.2c-6-0.4-11.8-2.5-16.5-6.2l0,0v20.7h21.9C-1272.2,1540.4-1274.1,1535.4-1274.5,1530.2
			L-1274.5,1530.2z"></path>
		<path class="ladsvg-8585-st4" d="M-1269.1,1418.4c-3.1-4.2-4.9-9.2-5.2-14.4l0,0c-6-0.4-11.8-2.5-16.5-6.2l0,0v41.7c4.6-4,10.4-6.3,16.5-6.6
			l0,0C-1274.1,1427.6-1272.2,1422.6-1269.1,1418.4L-1269.1,1418.4z"></path>
		<path class="ladsvg-8585-st4" d="M-1269.1,1292.2h-21.9v21.2c4.6-4.1,10.4-6.5,16.5-6.8l0,0C-1273.9,1301.4-1272,1296.5-1269.1,1292.2
			L-1269.1,1292.2z"></path>
		<path class="ladsvg-8585-st4" d="M-1142.6,1292.2h-43.8c3,4.3,4.7,9.2,5.1,14.4l0,0c6.1,0.3,11.9,2.6,16.5,6.5l0,0c4.7-3.9,10.5-6.2,16.5-6.5
			l0,0C-1147.5,1301.4-1145.6,1296.5-1142.6,1292.2L-1142.6,1292.2z"></path>
		<path class="ladsvg-8585-st4" d="M-1038.4,1292.2h-22.1c3.2,4.1,5.1,9.2,5.4,14.4l0,0c6.1,0.3,12,2.6,16.5,6.8l0,0v-21.3L-1038.4,1292.2
			L-1038.4,1292.2z"></path>
	</g>
</switch>

</svg>