<svg version="1.1" id="Camada_1" xmlns:x="&amp;ns_extend;" xmlns:i="&amp;ns_ai;" xmlns:graph="&amp;ns_graphs;" xmlns="http://www.w3.org/2000/svg" xmlns:xlink="http://www.w3.org/1999/xlink" x="0px" y="0px" viewBox="-1291 1292.1 252.6 252.6" style="enable-background:new -1291 1292.1 252.6 252.6;" xml:space="preserve">
<style type="text/css">
	.ladsvg-9642-st0{fill:#2D2E27;}
	.ladsvg-9642-st1{fill:#7B7970;}
	.ladsvg-9642-st2{fill:#F5F4F4;}
</style>
<switch>
	
	<g i:extraneous="self">
		<rect x="-1290.9" y="1292.2" class="ladsvg-9642-st0" width="252.6" height="252.6"></rect>
		<path class="ladsvg-9642-st1" d="M-1038.3,1529.7c-2.9,2.7-6.7,4.3-10.7,4.4l0,0c-0.1,4-1.7,7.8-4.4,10.7l0,0h15.1V1529.7z"></path>
		<path class="ladsvg-9642-st1" d="M-1038.3,1292.2h-15.1c2.7,2.9,4.3,6.7,4.4,10.7l0,0c4,0.1,7.8,1.7,10.7,4.4l0,0V1292.2z"></path>
		<path class="ladsvg-9642-st1" d="M-1191.6,1460.6c-2.7-2.9-4.3-6.7-4.4-10.7l0,0c-4-0.1-7.8-1.7-10.7-4.4l0,0c-2.9,2.7-6.7,4.3-10.7,4.4l0,0
			c-0.1,4-1.7,7.8-4.4,10.7l0,0c2.7,2.9,4.3,6.7,4.4,10.7l0,0c4,0.1,7.8,1.7,10.7,4.4l0,0c2.9-2.7,6.7-4.3,10.7-4.4l0,0
			C-1195.9,1467.3-1194.3,1463.5-1191.6,1460.6L-1191.6,1460.6z"></path>
		<path class="ladsvg-9642-st1" d="M-1107.4,1460.6c-2.7-2.9-4.3-6.7-4.4-10.7l0,0c-4-0.1-7.8-1.7-10.7-4.4l0,0c-2.9,2.7-6.7,4.3-10.7,4.4l0,0
			c-0.1,4-1.7,7.8-4.4,10.7l0,0c2.7,2.9,4.3,6.7,4.4,10.7l0,0c4,0.1,7.8,1.7,10.7,4.4l0,0c2.9-2.7,6.7-4.3,10.7-4.4l0,0
			C-1111.7,1467.3-1110.1,1463.5-1107.4,1460.6L-1107.4,1460.6z"></path>
		<path class="ladsvg-9642-st1" d="M-1149.5,1418.5c-2.7-2.9-4.3-6.7-4.4-10.7l0,0c-4-0.1-7.8-1.7-10.7-4.4l0,0c-2.9,2.7-6.7,4.3-10.7,4.4l0,0
			c-0.1,4-1.7,7.8-4.4,10.7l0,0c2.7,2.9,4.3,6.7,4.4,10.7l0,0c4,0.1,7.8,1.7,10.7,4.4l0,0c2.9-2.7,6.7-4.3,10.7-4.4l0,0
			C-1153.8,1425.2-1152.2,1421.4-1149.5,1418.5L-1149.5,1418.5z"></path>
		<path class="ladsvg-9642-st1" d="M-1275.8,1376.3c-2.7-2.9-4.3-6.7-4.4-10.7l0,0c-4-0.1-7.8-1.7-10.7-4.4l0,0v30.2c2.9-2.7,6.7-4.3,10.7-4.4
			l0,0C-1280.1,1383.1-1278.5,1379.3-1275.8,1376.3L-1275.8,1376.3z"></path>
		<path class="ladsvg-9642-st1" d="M-1191.6,1376.3c-2.7-2.9-4.3-6.7-4.4-10.7l0,0c-4-0.1-7.8-1.7-10.7-4.4l0,0c-2.9,2.7-6.7,4.3-10.7,4.4l0,0
			c-0.1,4-1.7,7.8-4.4,10.7l0,0c2.7,2.9,4.3,6.7,4.4,10.7l0,0c4,0.1,7.8,1.7,10.7,4.4l0,0c2.9-2.7,6.7-4.3,10.7-4.4l0,0
			C-1195.9,1383.1-1194.3,1379.3-1191.6,1376.3L-1191.6,1376.3z"></path>
		<path class="ladsvg-9642-st1" d="M-1111.8,1365.7c-4-0.1-7.8-1.7-10.7-4.4l0,0c-2.9,2.7-6.7,4.3-10.7,4.4l0,0c-0.1,4-1.7,7.8-4.4,10.7l0,0
			c2.7,2.9,4.3,6.7,4.4,10.7l0,0c4,0.1,7.8,1.7,10.7,4.4l0,0c2.9-2.7,6.7-4.3,10.7-4.4l0,0c0.1-4,1.7-7.8,4.4-10.7l0,0
			C-1110.1,1373.5-1111.7,1369.7-1111.8,1365.7L-1111.8,1365.7z"></path>
		<path class="ladsvg-9642-st1" d="M-1153.9,1323.6c-4-0.1-7.8-1.7-10.7-4.4l0,0c-2.9,2.7-6.7,4.3-10.7,4.4l0,0c-0.1,4-1.7,7.8-4.4,10.7l0,0
			c2.7,2.9,4.3,6.7,4.4,10.7l0,0c4,0.1,7.8,1.7,10.7,4.4l0,0c2.9-2.7,6.7-4.3,10.7-4.4l0,0c0.1-4,1.7-7.8,4.4-10.7l0,0
			C-1152.2,1331.3-1153.8,1327.6-1153.9,1323.6L-1153.9,1323.6z"></path>
		<path class="ladsvg-9642-st1" d="M-1233.7,1334.3c-2.7-2.9-4.3-6.7-4.4-10.7l0,0c-4-0.1-7.8-1.7-10.7-4.4l0,0c-2.9,2.7-6.7,4.3-10.7,4.4l0,0
			c-0.1,4-1.7,7.8-4.4,10.7l0,0c2.7,2.9,4.3,6.7,4.4,10.7l0,0c4,0.1,7.8,1.7,10.7,4.4l0,0c2.9-2.7,6.7-4.3,10.7-4.4l0,0
			C-1238,1341-1236.4,1337.2-1233.7,1334.3L-1233.7,1334.3z"></path>
		<path class="ladsvg-9642-st1" d="M-1275.8,1292.2h-15.1v15.1c2.9-2.7,6.7-4.3,10.7-4.4l0,0C-1280.1,1298.9-1278.5,1295.1-1275.8,1292.2
			L-1275.8,1292.2z"></path>
		<path class="ladsvg-9642-st1" d="M-1191.6,1292.2h-30.2c2.7,2.9,4.3,6.7,4.4,10.7l0,0c4,0.1,7.8,1.7,10.7,4.4l0,0c2.9-2.7,6.7-4.3,10.7-4.4
			l0,0C-1195.9,1298.9-1194.3,1295.1-1191.6,1292.2L-1191.6,1292.2z"></path>
		<path class="ladsvg-9642-st1" d="M-1107.4,1292.2h-30.2c2.7,2.9,4.3,6.7,4.4,10.7l0,0c4,0.1,7.8,1.7,10.7,4.4l0,0c2.9-2.7,6.7-4.3,10.7-4.4
			l0,0C-1111.7,1298.9-1110.1,1295.1-1107.4,1292.2L-1107.4,1292.2z"></path>
		<path class="ladsvg-9642-st1" d="M-1065.3,1334.3c-2.7-2.9-4.3-6.7-4.4-10.7l0,0c-4-0.1-7.8-1.7-10.7-4.4l0,0c-2.9,2.7-6.7,4.3-10.7,4.4l0,0
			c-0.1,4-1.7,7.8-4.4,10.7l0,0c2.7,2.9,4.3,6.7,4.4,10.7l0,0c4,0.1,7.8,1.7,10.7,4.4l0,0c2.9-2.7,6.7-4.3,10.7-4.4l0,0
			C-1069.6,1341-1068,1337.2-1065.3,1334.3L-1065.3,1334.3z"></path>
		<path class="ladsvg-9642-st1" d="M-1038.3,1361.3c-2.9,2.7-6.7,4.3-10.7,4.4l0,0c-0.1,4-1.7,7.8-4.4,10.7l0,0c2.7,2.9,4.3,6.7,4.4,10.7l0,0
			c4,0.1,7.8,1.7,10.7,4.4l0,0V1361.3z"></path>
		<path class="ladsvg-9642-st1" d="M-1065.3,1418.5c-2.7-2.9-4.3-6.7-4.4-10.7l0,0c-4-0.1-7.8-1.7-10.7-4.4l0,0c-2.9,2.7-6.7,4.3-10.7,4.4l0,0
			c-0.1,4-1.7,7.8-4.4,10.7l0,0c2.7,2.9,4.3,6.7,4.4,10.7l0,0c4,0.1,7.8,1.7,10.7,4.4l0,0c2.9-2.7,6.7-4.3,10.7-4.4l0,0
			C-1069.6,1425.2-1068,1421.4-1065.3,1418.5L-1065.3,1418.5z"></path>
		<path class="ladsvg-9642-st1" d="M-1038.3,1445.5c-2.9,2.7-6.7,4.3-10.7,4.4l0,0c-0.1,4-1.7,7.8-4.4,10.7l0,0c2.7,2.9,4.3,6.7,4.4,10.7l0,0
			c4,0.1,7.8,1.7,10.7,4.4l0,0V1445.5z"></path>
		<path class="ladsvg-9642-st1" d="M-1065.3,1502.7c-2.7-2.9-4.3-6.7-4.4-10.7l0,0c-4-0.1-7.8-1.7-10.7-4.4l0,0c-2.9,2.7-6.7,4.3-10.7,4.4l0,0
			c-0.1,4-1.7,7.8-4.4,10.7l0,0c2.7,2.9,4.3,6.7,4.4,10.7l0,0c4,0.1,7.8,1.7,10.7,4.4l0,0c2.9-2.7,6.7-4.3,10.7-4.4l0,0
			C-1069.6,1509.4-1068,1505.6-1065.3,1502.7L-1065.3,1502.7z"></path>
		<path class="ladsvg-9642-st1" d="M-1111.8,1534.1c-4-0.1-7.8-1.7-10.7-4.4l0,0c-2.9,2.7-6.7,4.3-10.7,4.4l0,0c-0.1,4-1.7,7.8-4.4,10.7l0,0
			h30.2C-1110.1,1541.9-1111.7,1538.1-1111.8,1534.1L-1111.8,1534.1z"></path>
		<path class="ladsvg-9642-st1" d="M-1196,1534.1c-4-0.1-7.8-1.7-10.7-4.4l0,0c-2.9,2.7-6.7,4.3-10.7,4.4l0,0c-0.1,4-1.7,7.8-4.4,10.7l0,0h30.2
			C-1194.3,1541.9-1195.9,1538.1-1196,1534.1L-1196,1534.1z"></path>
		<path class="ladsvg-9642-st1" d="M-1149.5,1502.7c-2.7-2.9-4.3-6.7-4.4-10.7l0,0c-4-0.1-7.8-1.7-10.7-4.4l0,0c-2.9,2.7-6.7,4.3-10.7,4.4l0,0
			c-0.1,4-1.7,7.8-4.4,10.7l0,0c2.7,2.9,4.3,6.7,4.4,10.7l0,0c4,0.1,7.8,1.7,10.7,4.4l0,0c2.9-2.7,6.7-4.3,10.7-4.4l0,0
			C-1153.8,1509.4-1152.2,1505.6-1149.5,1502.7L-1149.5,1502.7z"></path>
		<path class="ladsvg-9642-st1" d="M-1238.1,1492c-4-0.1-7.8-1.7-10.7-4.4l0,0c-2.9,2.7-6.7,4.3-10.7,4.4l0,0c-0.1,4-1.7,7.8-4.4,10.7l0,0
			c2.7,2.9,4.3,6.7,4.4,10.7l0,0c4,0.1,7.8,1.7,10.7,4.4l0,0c2.9-2.7,6.7-4.3,10.7-4.4l0,0c0.1-4,1.7-7.8,4.4-10.7l0,0
			C-1236.4,1499.8-1238,1496-1238.1,1492L-1238.1,1492z"></path>
		<path class="ladsvg-9642-st1" d="M-1233.7,1418.5c-2.7-2.9-4.3-6.7-4.4-10.7l0,0c-4-0.1-7.8-1.7-10.7-4.4l0,0c-2.9,2.7-6.7,4.3-10.7,4.4l0,0
			c-0.1,4-1.7,7.8-4.4,10.7l0,0c2.7,2.9,4.3,6.7,4.4,10.7l0,0c4,0.1,7.8,1.7,10.7,4.4l0,0c2.9-2.7,6.7-4.3,10.7-4.4l0,0
			C-1238,1425.2-1236.4,1421.4-1233.7,1418.5L-1233.7,1418.5z"></path>
		<path class="ladsvg-9642-st1" d="M-1275.8,1460.6c-2.7-2.9-4.3-6.7-4.4-10.7l0,0c-4-0.1-7.8-1.7-10.7-4.4l0,0v30.2c2.9-2.7,6.7-4.3,10.7-4.4
			l0,0C-1280.1,1467.3-1278.5,1463.5-1275.8,1460.6L-1275.8,1460.6z"></path>
		<path class="ladsvg-9642-st1" d="M-1280.2,1534.1c-4-0.1-7.8-1.7-10.7-4.4l0,0v15.1h15.1C-1278.5,1541.9-1280.1,1538.1-1280.2,1534.1
			L-1280.2,1534.1z"></path>
		<path class="ladsvg-9642-st2" d="M-1094.8,1491.5c-4.2-1.2-7.4-4.7-8.4-8.9l0,0c-0.4-4.3-4-7.6-8.2-7.6c0,0,0,0-0.1,0l0,0
			c-4.6,0.1-8.9,2.7-11,6.8l0,0c-2.1-4.1-6.3-6.7-11-6.8l0,0c0,0,0,0-0.1,0c-4.3,0-7.9,3.3-8.2,7.6l0,0c-1,4.3-4.2,7.7-8.4,8.9l0,0
			c0,4.7,2.7,9,6.8,11.2l0,0c-4.2,2.2-6.8,6.5-6.8,11.2l0,0c4.2,1.2,7.4,4.7,8.4,8.9l0,0c0.4,4.3,4,7.6,8.2,7.6c0,0,0,0,0.1,0l0,0
			c4.6-0.1,8.9-2.7,11-6.8l0,0c2.1,4.1,6.3,6.7,11,6.8l0,0c0,0,0,0,0.1,0c4.3,0,7.9-3.3,8.2-7.6l0,0c1-4.3,4.2-7.7,8.4-8.9l0,0
			c0-4.7-2.7-9-6.8-11.2l0,0C-1097.5,1500.5-1094.9,1496.2-1094.8,1491.5L-1094.8,1491.5z"></path>
		<path class="ladsvg-9642-st2" d="M-1143.8,1460.6c4.2-2.2,6.8-6.5,6.8-11.2l0,0c-4.2-1.2-7.4-4.7-8.4-8.9l0,0c-0.4-4.3-4-7.6-8.2-7.6
			c-0.2,0-0.4,0-0.6,0l0,0c-4.4,0.3-8.4,2.9-10.5,6.8l0,0c-2-4-6-6.5-10.5-6.8l0,0c-0.2,0-0.4,0-0.6,0c-4.3,0-7.9,3.3-8.2,7.6l0,0
			c-1,4.3-4.2,7.7-8.4,8.9l0,0c0,4.7,2.7,9,6.8,11.2l0,0c-4.2,2.2-6.8,6.5-6.8,11.2l0,0c4.2,1.2,7.4,4.7,8.4,8.9l0,0
			c0.4,4.3,4,7.6,8.2,7.6c0.2,0,0.4,0,0.6,0l0,0c4.4-0.3,8.4-2.9,10.5-6.8l0,0c2,4,6,6.5,10.5,6.8l0,0c0.2,0,0.4,0,0.6,0
			c4.3,0,7.9-3.3,8.2-7.6l0,0c1-4.3,4.2-7.7,8.4-8.9l0,0C-1137,1467-1139.6,1462.7-1143.8,1460.6L-1143.8,1460.6z"></path>
		<path class="ladsvg-9642-st2" d="M-1101.7,1418.5c4.2-2.2,6.8-6.5,6.8-11.2l0,0c-4.2-1.2-7.4-4.7-8.4-8.9l0,0c-0.4-4.3-4-7.6-8.2-7.6
			c0,0,0,0-0.1,0l0,0c-4.6,0.1-8.9,2.7-11,6.8l0,0c-2.1-4.1-6.3-6.7-11-6.8l0,0c0,0,0,0-0.1,0c-4.3,0-7.9,3.3-8.2,7.6l0,0
			c-1,4.3-4.2,7.7-8.4,8.9l0,0c0,4.7,2.7,9,6.8,11.2l0,0c-4.2,2.2-6.8,6.5-6.8,11.2l0,0c4.2,1.2,7.4,4.7,8.4,8.9l0,0
			c0.4,4.3,4,7.6,8.2,7.6c0,0,0,0,0.1,0l0,0c4.6-0.1,8.9-2.7,11-6.8l0,0c2.1,4.1,6.3,6.7,11,6.8l0,0c0,0,0,0,0.1,0
			c4.3,0,7.9-3.3,8.2-7.6l0,0c1-4.3,4.2-7.7,8.4-8.9l0,0C-1094.9,1424.9-1097.5,1420.6-1101.7,1418.5L-1101.7,1418.5z"></path>
		<path class="ladsvg-9642-st2" d="M-1179,1407.3c-4.2-1.2-7.4-4.7-8.4-8.9l0,0c-0.4-4.3-4-7.6-8.2-7.6c0,0,0,0-0.1,0l0,0
			c-4.6,0.1-8.9,2.7-11,6.8l0,0c-2.1-4.1-6.3-6.7-11-6.8l0,0c0,0,0,0-0.1,0c-4.3,0-7.9,3.3-8.2,7.6l0,0c-1,4.3-4.2,7.7-8.4,8.9l0,0
			c0,4.7,2.7,9,6.8,11.2l0,0c-4.2,2.2-6.8,6.5-6.8,11.2l0,0c4.2,1.2,7.4,4.7,8.4,8.9l0,0c0.4,4.3,4,7.6,8.2,7.6c0,0,0,0,0.1,0l0,0
			c4.6-0.1,8.9-2.7,11-6.8l0,0c2.1,4.1,6.3,6.7,11,6.8l0,0c0,0,0,0,0.1,0c4.3,0,7.9-3.3,8.2-7.6l0,0c1-4.3,4.2-7.7,8.4-8.9l0,0
			c0-4.7-2.7-9-6.8-11.2l0,0C-1181.7,1416.3-1179.1,1412-1179,1407.3L-1179,1407.3z"></path>
		<path class="ladsvg-9642-st2" d="M-1228,1376.3c4.2-2.2,6.8-6.5,6.8-11.2l0,0c-4.2-1.2-7.4-4.7-8.4-8.9l0,0c-0.4-4.3-4-7.6-8.2-7.6
			c-0.2,0-0.4,0-0.6,0l0,0c-4.4,0.3-8.4,2.9-10.5,6.8l0,0c-2-4-6-6.5-10.5-6.8l0,0c-0.2,0-0.4,0-0.6,0c-4.3,0-7.9,3.3-8.2,7.6l0,0
			c-1,4.3-4.2,7.7-8.4,8.9l0,0c0,4.7,2.7,9,6.8,11.2l0,0c-4.2,2.2-6.8,6.5-6.8,11.2l0,0c4.2,1.2,7.4,4.7,8.4,8.9l0,0
			c0.4,4.3,4,7.6,8.2,7.6c0.2,0,0.4,0,0.6,0l0,0c4.4-0.3,8.4-2.9,10.5-6.8l0,0c2,4,6,6.5,10.5,6.8l0,0c0.2,0,0.4,0,0.6,0
			c4.3,0,7.9-3.3,8.2-7.6l0,0c1-4.3,4.2-7.7,8.4-8.9l0,0C-1221.2,1382.8-1223.8,1378.5-1228,1376.3L-1228,1376.3z"></path>
		<path class="ladsvg-9642-st2" d="M-1136.9,1365.2c-4.2-1.2-7.4-4.7-8.4-8.9l0,0c-0.4-4.3-4-7.6-8.2-7.6c-0.2,0-0.4,0-0.6,0l0,0
			c-4.4,0.3-8.4,2.9-10.5,6.8l0,0c-2-4-6-6.5-10.5-6.8l0,0c-0.2,0-0.4,0-0.6,0c-4.3,0-7.9,3.3-8.2,7.6l0,0c-1,4.3-4.2,7.7-8.4,8.9
			l0,0c0,4.7,2.7,9,6.8,11.2l0,0c-4.2,2.2-6.8,6.5-6.8,11.2l0,0c4.2,1.2,7.4,4.7,8.4,8.9l0,0c0.4,4.3,4,7.6,8.2,7.6
			c0.2,0,0.4,0,0.6,0l0,0c4.4-0.3,8.4-2.9,10.5-6.8l0,0c2,4,6,6.5,10.5,6.8l0,0c0.2,0,0.4,0,0.6,0c4.3,0,7.9-3.3,8.2-7.6l0,0
			c1-4.3,4.2-7.7,8.4-8.9l0,0c0-4.7-2.7-9-6.8-11.2l0,0C-1139.6,1374.2-1137,1369.9-1136.9,1365.2L-1136.9,1365.2z"></path>
		<path class="ladsvg-9642-st2" d="M-1179,1323.1c-4.2-1.2-7.4-4.7-8.4-8.9l0,0c-0.4-4.3-4-7.6-8.2-7.6c0,0,0,0-0.1,0l0,0
			c-4.6,0.1-8.9,2.7-11,6.8l0,0c-2.1-4.1-6.3-6.7-11-6.8l0,0c0,0,0,0-0.1,0c-4.3,0-7.9,3.3-8.2,7.6l0,0c-1,4.3-4.2,7.7-8.4,8.9l0,0
			c0,4.7,2.7,9,6.8,11.2l0,0c-4.2,2.2-6.8,6.5-6.8,11.2l0,0c4.2,1.2,7.4,4.7,8.4,8.9l0,0c0.4,4.3,4,7.6,8.2,7.6c0,0,0,0,0.1,0l0,0
			c4.6-0.1,8.9-2.7,11-6.8l0,0c2.1,4.1,6.3,6.7,11,6.8l0,0c0,0,0,0,0.1,0c4.3,0,7.9-3.3,8.2-7.6l0,0c1-4.3,4.2-7.7,8.4-8.9l0,0
			c0-4.7-2.7-9-6.8-11.2l0,0C-1181.7,1332.1-1179.1,1327.8-1179,1323.1L-1179,1323.1z"></path>
		<path class="ladsvg-9642-st2" d="M-1270.1,1334.3c4.2-2.2,6.8-6.5,6.8-11.2l0,0c-4.2-1.2-7.4-4.7-8.4-8.9l0,0c-0.4-4.3-4-7.6-8.2-7.6
			c0,0,0,0-0.1,0l0,0c-4.6,0.1-8.9,2.7-11,6.8l0,0v41.6c2.1,4.1,6.3,6.7,11,6.8l0,0c0,0,0,0,0.1,0c4.3,0,7.9-3.3,8.2-7.6l0,0
			c1-4.3,4.2-7.7,8.4-8.9l0,0C-1263.3,1340.7-1265.9,1336.3-1270.1,1334.3L-1270.1,1334.3z"></path>
		<path class="ladsvg-9642-st2" d="M-1228,1292.2h-41.6c-4.2,2.2-6.8,6.5-6.8,11.2l0,0c4.2,1.2,7.4,4.7,8.4,8.9l0,0c0.4,4.3,4,7.6,8.2,7.6
			c0.2,0,0.4,0,0.6,0l0,0c4.4-0.3,8.4-2.9,10.5-6.8l0,0c2,4,6,6.5,10.5,6.8l0,0c0.2,0,0.4,0,0.6,0c4.3,0,7.9-3.3,8.2-7.6l0,0
			c1-4.3,4.2-7.7,8.4-8.9l0,0C-1221.2,1298.6-1223.8,1294.3-1228,1292.2L-1228,1292.2z"></path>
		<path class="ladsvg-9642-st2" d="M-1136.9,1303.3c0-4.7-2.7-9-6.8-11.2l0,0h-41.6c-4.2,2.2-6.8,6.5-6.8,11.2l0,0c4.2,1.2,7.4,4.7,8.4,8.9l0,0
			c0.4,4.3,4,7.6,8.2,7.6c0.2,0,0.4,0,0.6,0l0,0c4.4-0.3,8.4-2.9,10.5-6.8l0,0c2,4,6,6.5,10.5,6.8l0,0c0.2,0,0.4,0,0.6,0
			c4.3,0,7.9-3.3,8.2-7.6l0,0C-1144.4,1308-1141.2,1304.6-1136.9,1303.3L-1136.9,1303.3z"></path>
		<path class="ladsvg-9642-st2" d="M-1101.7,1334.3c4.2-2.2,6.8-6.5,6.8-11.2l0,0c-4.2-1.2-7.4-4.7-8.4-8.9l0,0c-0.4-4.3-4-7.6-8.2-7.6
			c0,0,0,0-0.1,0l0,0c-4.6,0.1-8.9,2.7-11,6.8l0,0c-2.1-4.1-6.3-6.7-11-6.8l0,0c0,0,0,0-0.1,0c-4.3,0-7.9,3.3-8.2,7.6l0,0
			c-1,4.3-4.2,7.7-8.4,8.9l0,0c0,4.7,2.7,9,6.8,11.2l0,0c-4.2,2.2-6.8,6.5-6.8,11.2l0,0c4.2,1.2,7.4,4.7,8.4,8.9l0,0
			c0.4,4.3,4,7.6,8.2,7.6c0,0,0,0,0.1,0l0,0c4.6-0.1,8.9-2.7,11-6.8l0,0c2.1,4.1,6.3,6.7,11,6.8l0,0c0,0,0,0,0.1,0
			c4.3,0,7.9-3.3,8.2-7.6l0,0c1-4.3,4.2-7.7,8.4-8.9l0,0C-1094.9,1340.7-1097.5,1336.3-1101.7,1334.3L-1101.7,1334.3z"></path>
		<path class="ladsvg-9642-st2" d="M-1052.7,1303.3c0-4.7-2.7-9-6.8-11.2l0,0h-41.6c-4.2,2.2-6.8,6.5-6.8,11.2l0,0c4.2,1.2,7.4,4.7,8.4,8.9l0,0
			c0.4,4.3,4,7.6,8.2,7.6c0.2,0,0.4,0,0.6,0l0,0c4.4-0.3,8.4-2.9,10.5-6.8l0,0c2,4,6,6.5,10.5,6.8l0,0c0.2,0,0.4,0,0.6,0
			c4.3,0,7.9-3.3,8.2-7.6l0,0C-1060.2,1308-1057,1304.6-1052.7,1303.3L-1052.7,1303.3z"></path>
		<path class="ladsvg-9642-st2" d="M-1038.3,1313.3c-2.1-4.1-6.3-6.7-11-6.8l0,0c0,0,0,0-0.1,0c-4.3,0-7.9,3.3-8.2,7.6l0,0
			c-1,4.3-4.2,7.7-8.4,8.9l0,0c0,4.7,2.7,9,6.8,11.2l0,0c-4.2,2.2-6.8,6.5-6.8,11.2l0,0c4.2,1.2,7.4,4.7,8.4,8.9l0,0
			c0.4,4.3,4,7.6,8.2,7.6c0,0,0,0,0.1,0l0,0c4.6-0.1,8.9-2.7,11-6.8l0,0V1313.3z"></path>
		<path class="ladsvg-9642-st2" d="M-1059.6,1376.3c4.2-2.2,6.8-6.5,6.8-11.2l0,0c-4.2-1.2-7.4-4.7-8.4-8.9l0,0c-0.4-4.3-4-7.6-8.2-7.6
			c-0.2,0-0.4,0-0.6,0l0,0c-4.4,0.3-8.4,2.9-10.5,6.8l0,0c-2-4-6-6.5-10.5-6.8l0,0c-0.2,0-0.4,0-0.6,0c-4.3,0-7.9,3.3-8.2,7.6l0,0
			c-1,4.3-4.2,7.7-8.4,8.9l0,0c0,4.7,2.7,9,6.8,11.2l0,0c-4.2,2.2-6.8,6.5-6.8,11.2l0,0c4.2,1.2,7.4,4.7,8.4,8.9l0,0
			c0.4,4.3,4,7.6,8.2,7.6c0.2,0,0.4,0,0.6,0l0,0c4.4-0.3,8.4-2.9,10.5-6.8l0,0c2,4,6,6.5,10.5,6.8l0,0c0.2,0,0.4,0,0.6,0
			c4.3,0,7.9-3.3,8.2-7.6l0,0c1-4.3,4.2-7.7,8.4-8.9l0,0C-1052.8,1382.8-1055.4,1378.5-1059.6,1376.3L-1059.6,1376.3z"></path>
		<path class="ladsvg-9642-st2" d="M-1038.3,1397.6c-2.1-4.1-6.3-6.7-11-6.8l0,0c0,0,0,0-0.1,0c-4.3,0-7.9,3.3-8.2,7.6l0,0
			c-1,4.3-4.2,7.7-8.4,8.9l0,0c0,4.7,2.7,9,6.8,11.2l0,0c-4.2,2.2-6.8,6.5-6.8,11.2l0,0c4.2,1.2,7.4,4.7,8.4,8.9l0,0
			c0.4,4.3,4,7.6,8.2,7.6c0,0,0,0,0.1,0l0,0c4.6-0.1,8.9-2.7,11-6.8l0,0V1397.6z"></path>
		<path class="ladsvg-9642-st2" d="M-1059.6,1460.6c4.2-2.2,6.8-6.5,6.8-11.2l0,0c-4.2-1.2-7.4-4.7-8.4-8.9l0,0c-0.4-4.3-4-7.6-8.2-7.6
			c-0.2,0-0.4,0-0.6,0l0,0c-4.4,0.3-8.4,2.9-10.5,6.8l0,0c-2-4-6-6.5-10.5-6.8l0,0c-0.2,0-0.4,0-0.6,0c-4.3,0-7.9,3.3-8.2,7.6l0,0
			c-1,4.3-4.2,7.7-8.4,8.9l0,0c0,4.7,2.7,9,6.8,11.2l0,0c-4.2,2.2-6.8,6.5-6.8,11.2l0,0c4.2,1.2,7.4,4.7,8.4,8.9l0,0
			c0.4,4.3,4,7.6,8.2,7.6c0.2,0,0.4,0,0.6,0l0,0c4.4-0.3,8.4-2.9,10.5-6.8l0,0c2,4,6,6.5,10.5,6.8l0,0c0.2,0,0.4,0,0.6,0
			c4.3,0,7.9-3.3,8.2-7.6l0,0c1-4.3,4.2-7.7,8.4-8.9l0,0C-1052.8,1467-1055.4,1462.7-1059.6,1460.6L-1059.6,1460.6z"></path>
		<path class="ladsvg-9642-st2" d="M-1038.3,1481.8c-2.1-4.1-6.3-6.7-11-6.8l0,0c0,0,0,0-0.1,0c-4.3,0-7.9,3.3-8.2,7.6l0,0
			c-1,4.3-4.2,7.7-8.4,8.9l0,0c0,4.7,2.7,9,6.8,11.2l0,0c-4.2,2.2-6.8,6.5-6.8,11.2l0,0c4.2,1.2,7.4,4.7,8.4,8.9l0,0
			c0.4,4.3,4,7.6,8.2,7.6c0,0,0,0,0.1,0l0,0c4.6-0.1,8.9-2.7,11-6.8l0,0V1481.8z"></path>
		<path class="ladsvg-9642-st2" d="M-1052.7,1533.6c-4.2-1.2-7.4-4.7-8.4-8.9l0,0c-0.4-4.3-4-7.6-8.2-7.6c-0.2,0-0.4,0-0.6,0l0,0
			c-4.4,0.3-8.4,2.9-10.5,6.8l0,0c-2-4-6-6.5-10.5-6.8l0,0c-0.2,0-0.4,0-0.6,0c-4.3,0-7.9,3.3-8.2,7.6l0,0c-1,4.3-4.2,7.7-8.4,8.9
			l0,0c0,4.7,2.7,9,6.8,11.2l0,0h41.6C-1055.4,1542.6-1052.8,1538.3-1052.7,1533.6L-1052.7,1533.6z"></path>
		<path class="ladsvg-9642-st2" d="M-1136.9,1533.6c-4.2-1.2-7.4-4.7-8.4-8.9l0,0c-0.4-4.3-4-7.6-8.2-7.6c-0.2,0-0.4,0-0.6,0l0,0
			c-4.4,0.3-8.4,2.9-10.5,6.8l0,0c-2-4-6-6.5-10.5-6.8l0,0c-0.2,0-0.4,0-0.6,0c-4.3,0-7.9,3.3-8.2,7.6l0,0c-1,4.3-4.2,7.7-8.4,8.9
			l0,0c0,4.7,2.7,9,6.8,11.2l0,0h41.6C-1139.6,1542.6-1137,1538.3-1136.9,1533.6L-1136.9,1533.6z"></path>
		<path class="ladsvg-9642-st2" d="M-1185.9,1502.7c4.2-2.2,6.8-6.5,6.8-11.2l0,0c-4.2-1.2-7.4-4.7-8.4-8.9l0,0c-0.4-4.3-4-7.6-8.2-7.6
			c0,0,0,0-0.1,0l0,0c-4.6,0.1-8.9,2.7-11,6.8l0,0c-2.1-4.1-6.3-6.7-11-6.8l0,0c0,0,0,0-0.1,0c-4.3,0-7.9,3.3-8.2,7.6l0,0
			c-1,4.3-4.2,7.7-8.4,8.9l0,0c0,4.7,2.7,9,6.8,11.2l0,0c-4.2,2.2-6.8,6.5-6.8,11.2l0,0c4.2,1.2,7.4,4.7,8.4,8.9l0,0
			c0.4,4.3,4,7.6,8.2,7.6c0,0,0,0,0.1,0l0,0c4.6-0.1,8.9-2.7,11-6.8l0,0c2.1,4.1,6.3,6.7,11,6.8l0,0c0,0,0,0,0.1,0
			c4.3,0,7.9-3.3,8.2-7.6l0,0c1-4.3,4.2-7.7,8.4-8.9l0,0C-1179.1,1509.1-1181.7,1504.8-1185.9,1502.7L-1185.9,1502.7z"></path>
		<path class="ladsvg-9642-st2" d="M-1221.1,1449.4c-4.2-1.2-7.4-4.7-8.4-8.9l0,0c-0.4-4.3-4-7.6-8.2-7.6c-0.2,0-0.4,0-0.6,0l0,0
			c-4.4,0.3-8.4,2.9-10.5,6.8l0,0c-2-4-6-6.5-10.5-6.8l0,0c-0.2,0-0.4,0-0.6,0c-4.3,0-7.9,3.3-8.2,7.6l0,0c-1,4.3-4.2,7.7-8.4,8.9
			l0,0c0,4.7,2.7,9,6.8,11.2l0,0c-4.2,2.2-6.8,6.5-6.8,11.2l0,0c4.2,1.2,7.4,4.7,8.4,8.9l0,0c0.4,4.3,4,7.6,8.2,7.6
			c0.2,0,0.4,0,0.6,0l0,0c4.4-0.3,8.4-2.9,10.5-6.8l0,0c2,4,6,6.5,10.5,6.8l0,0c0.2,0,0.4,0,0.6,0c4.3,0,7.9-3.3,8.2-7.6l0,0
			c1-4.3,4.2-7.7,8.4-8.9l0,0c0-4.7-2.7-9-6.8-11.2l0,0C-1223.8,1458.4-1221.2,1454.1-1221.1,1449.4L-1221.1,1449.4z"></path>
		<path class="ladsvg-9642-st2" d="M-1263.2,1407.3c-4.2-1.2-7.4-4.7-8.4-8.9l0,0c-0.4-4.3-4-7.6-8.2-7.6c0,0,0,0-0.1,0l0,0
			c-4.6,0.1-8.9,2.7-11,6.8l0,0v41.7c2.1,4.1,6.3,6.7,11,6.8l0,0c0,0,0,0,0.1,0c4.3,0,7.9-3.3,8.2-7.6l0,0c1-4.3,4.2-7.7,8.4-8.9
			l0,0c0-4.7-2.7-9-6.8-11.2l0,0C-1265.9,1416.3-1263.3,1412-1263.2,1407.3L-1263.2,1407.3z"></path>
		<path class="ladsvg-9642-st2" d="M-1270.1,1502.7c4.2-2.2,6.8-6.5,6.8-11.2l0,0c-4.2-1.2-7.4-4.7-8.4-8.9l0,0c-0.4-4.3-4-7.6-8.2-7.6
			c0,0,0,0-0.1,0l0,0c-4.6,0.1-8.9,2.7-11,6.8l0,0v41.6c2.1,4.1,6.3,6.7,11,6.8l0,0c0,0,0,0,0.1,0c4.3,0,7.9-3.3,8.2-7.6l0,0
			c1-4.3,4.2-7.7,8.4-8.9l0,0C-1263.3,1509.1-1265.9,1504.8-1270.1,1502.7L-1270.1,1502.7z"></path>
		<path class="ladsvg-9642-st2" d="M-1221.1,1533.6c-4.2-1.2-7.4-4.7-8.4-8.9l0,0c-0.4-4.3-4-7.6-8.2-7.6c-0.2,0-0.4,0-0.6,0l0,0
			c-4.4,0.3-8.4,2.9-10.5,6.8l0,0c-2-4-6-6.5-10.5-6.8l0,0c-0.2,0-0.4,0-0.6,0c-4.3,0-7.9,3.3-8.2,7.6l0,0c-1,4.3-4.2,7.7-8.4,8.9
			l0,0c0,4.7,2.7,9,6.8,11.2l0,0h41.6C-1223.8,1542.6-1221.2,1538.3-1221.1,1533.6L-1221.1,1533.6z"></path>
	</g>
</switch>

</svg>