<svg version="1.1" id="Camada_1" xmlns:x="&amp;ns_extend;" xmlns:i="&amp;ns_ai;" xmlns:graph="&amp;ns_graphs;" xmlns="http://www.w3.org/2000/svg" xmlns:xlink="http://www.w3.org/1999/xlink" x="0px" y="0px" viewBox="-1291 1292.1 252.6 252.6" style="enable-background:new -1291 1292.1 252.6 252.6;" xml:space="preserve">
<style type="text/css">
	.ladsvg-5181-st0{fill:#9AB3B6;}
	.ladsvg-5181-st1{fill:#2C485F;}
	.ladsvg-5181-st2{fill:#F5F4F4;}
</style>
<switch>
	
	<g i:extraneous="self">
		<rect x="-1291" y="1292.2" class="ladsvg-5181-st0" width="252.6" height="252.6"></rect>
		<polygon class="ladsvg-5181-st0" points="-1143.7,1523.7 -1155.9,1523.7 -1164.7,1515 -1173.4,1523.7 -1185.8,1523.7 -1185.8,1536.1 
			-1194.4,1544.8 -1134.9,1544.8 -1143.7,1536.1 		"></polygon>
		<polygon class="ladsvg-5181-st0" points="-1269.9,1536.1 -1269.9,1523.7 -1282.3,1523.7 -1291,1515 -1291,1544.8 -1261.3,1544.8 		"></polygon>
		<polygon class="ladsvg-5181-st0" points="-1198.1,1481.6 -1206.8,1472.9 -1206.8,1460.6 -1219.2,1460.6 -1227.8,1451.9 -1236.5,1460.6 
			-1248.9,1460.6 -1248.9,1472.9 -1257.6,1481.6 -1248.9,1490.4 -1248.9,1502.7 -1236.5,1502.7 -1227.8,1511.4 -1219.2,1502.7 
			-1206.8,1502.7 -1206.8,1490.4 		"></polygon>
		<polygon class="ladsvg-5181-st0" points="-1071.7,1481.6 -1080.5,1472.9 -1080.5,1460.6 -1092.8,1460.6 -1101.6,1451.9 -1110.2,1460.6 
			-1122.6,1460.6 -1122.6,1472.9 -1131.3,1481.6 -1122.6,1490.4 -1122.6,1502.7 -1110.2,1502.7 -1101.6,1511.4 -1092.8,1502.7 
			-1080.5,1502.7 -1080.5,1490.4 		"></polygon>
		<polygon class="ladsvg-5181-st0" points="-1038.4,1388.7 -1047.1,1397.4 -1059.4,1397.4 -1059.4,1409.8 -1068.1,1418.5 -1059.4,1427.2 
			-1059.4,1439.5 -1047.1,1439.5 -1038.4,1448.3 		"></polygon>
		<polygon class="ladsvg-5181-st0" points="-1143.7,1409.8 -1143.7,1397.4 -1155.9,1397.4 -1164.7,1388.7 -1173.4,1397.4 -1185.8,1397.4 
			-1185.8,1409.8 -1194.4,1418.5 -1185.8,1427.2 -1185.8,1439.5 -1173.4,1439.5 -1164.7,1448.3 -1155.9,1439.5 -1143.7,1439.5 
			-1143.7,1427.2 -1134.9,1418.5 		"></polygon>
		<polygon class="ladsvg-5181-st0" points="-1269.9,1409.8 -1269.9,1397.4 -1282.3,1397.4 -1291,1388.7 -1291,1448.3 -1282.3,1439.5 
			-1269.9,1439.5 -1269.9,1427.2 -1261.3,1418.5 		"></polygon>
		<polygon class="ladsvg-5181-st0" points="-1269.9,1300.8 -1261.3,1292.2 -1291,1292.2 -1291,1321.9 -1282.3,1313.2 -1269.9,1313.2 		"></polygon>
		<polygon class="ladsvg-5181-st0" points="-1038.4,1292.2 -1068.1,1292.2 -1059.4,1300.8 -1059.4,1313.2 -1047.1,1313.2 -1038.4,1321.9 		"></polygon>
		<polygon class="ladsvg-5181-st0" points="-1143.7,1300.8 -1134.9,1292.2 -1194.4,1292.2 -1185.8,1300.8 -1185.8,1313.2 -1173.4,1313.2 
			-1164.7,1321.9 -1155.9,1313.2 -1143.7,1313.2 		"></polygon>
		<polygon class="ladsvg-5181-st0" points="-1080.5,1346.6 -1080.5,1334.3 -1092.8,1334.3 -1101.6,1325.6 -1110.2,1334.3 -1122.6,1334.3 
			-1122.6,1346.6 -1131.3,1355.3 -1122.6,1364.1 -1122.6,1376.3 -1110.2,1376.3 -1101.6,1385.1 -1092.8,1376.3 -1080.5,1376.3 
			-1080.5,1364.1 -1071.7,1355.3 		"></polygon>
		<polygon class="ladsvg-5181-st0" points="-1206.8,1346.6 -1206.8,1334.3 -1219.2,1334.3 -1227.8,1325.6 -1236.5,1334.3 -1248.9,1334.3 
			-1248.9,1346.6 -1257.6,1355.3 -1248.9,1364.1 -1248.9,1376.3 -1236.5,1376.3 -1227.8,1385.1 -1219.2,1376.3 -1206.8,1376.3 
			-1206.8,1364.1 -1198.1,1355.3 		"></polygon>
		
			<rect x="-1188.3" y="1458" transform="matrix(-0.7071 -0.7071 0.7071 -0.7071 -3035.9346 1705.6183)" class="ladsvg-5181-st1" width="47.2" height="47.2"></rect>
		
			<rect x="-1125.1" y="1394.8" transform="matrix(-0.7071 0.7071 -0.7071 -0.7071 -877.3062 3200.2815)" class="ladsvg-5181-st1" width="47.2" height="47.2"></rect>
		
			<rect x="-1251.4" y="1394.8" transform="matrix(-0.7071 0.7071 -0.7071 -0.7071 -1093.0123 3289.52)" class="ladsvg-5181-st1" width="47.2" height="47.2"></rect>
		
			<rect x="-1188.3" y="1331.6" transform="matrix(-0.7071 -0.7071 0.7071 -0.7071 -2946.5237 1489.8411)" class="ladsvg-5181-st1" width="47.2" height="47.2"></rect>
		<polygon class="ladsvg-5181-st1" points="-1257.6,1355.3 -1291,1321.9 -1291,1388.7 		"></polygon>
		<polygon class="ladsvg-5181-st1" points="-1257.6,1481.6 -1291,1448.3 -1291,1515 		"></polygon>
		<polygon class="ladsvg-5181-st1" points="-1227.8,1511.4 -1261.3,1544.8 -1194.4,1544.8 		"></polygon>
		<polygon class="ladsvg-5181-st1" points="-1101.6,1511.4 -1134.9,1544.8 -1068.1,1544.8 		"></polygon>
		<polygon class="ladsvg-5181-st1" points="-1038.4,1448.3 -1071.7,1481.6 -1038.4,1515 		"></polygon>
		<polygon class="ladsvg-5181-st1" points="-1038.4,1321.9 -1071.7,1355.3 -1038.4,1388.7 		"></polygon>
		<polygon class="ladsvg-5181-st1" points="-1068.1,1292.2 -1134.9,1292.2 -1101.6,1325.6 		"></polygon>
		<polygon class="ladsvg-5181-st1" points="-1194.4,1292.2 -1261.3,1292.2 -1227.8,1325.6 		"></polygon>
		<polygon class="ladsvg-5181-st2" points="-1038.4,1448.3 -1047.1,1439.5 -1059.4,1439.5 -1059.4,1427.2 -1068.1,1418.5 -1101.6,1451.9 
			-1092.8,1460.6 -1080.5,1460.6 -1080.5,1472.9 -1071.7,1481.6 		"></polygon>
		<polygon class="ladsvg-5181-st2" points="-1071.7,1481.6 -1080.5,1490.4 -1080.5,1502.7 -1092.8,1502.7 -1101.6,1511.4 -1068.1,1544.8 
			-1059.4,1536.1 -1059.4,1523.7 -1047.1,1523.7 -1038.4,1515 		"></polygon>
		<polygon class="ladsvg-5181-st2" points="-1101.6,1511.4 -1110.2,1502.7 -1122.6,1502.7 -1122.6,1490.4 -1131.3,1481.6 -1164.7,1515 
			-1155.9,1523.7 -1143.7,1523.7 -1143.7,1536.1 -1134.9,1544.8 		"></polygon>
		<polygon class="ladsvg-5181-st2" points="-1198.1,1481.6 -1206.8,1490.4 -1206.8,1502.7 -1219.2,1502.7 -1227.8,1511.4 -1194.4,1544.8 
			-1185.8,1536.1 -1185.8,1523.7 -1173.4,1523.7 -1164.7,1515 		"></polygon>
		<polygon class="ladsvg-5181-st2" points="-1227.8,1511.4 -1236.5,1502.7 -1248.9,1502.7 -1248.9,1490.4 -1257.6,1481.6 -1291,1515 
			-1282.3,1523.7 -1269.9,1523.7 -1269.9,1536.1 -1261.3,1544.8 		"></polygon>
		<polygon class="ladsvg-5181-st2" points="-1261.3,1418.5 -1269.9,1427.2 -1269.9,1439.5 -1282.3,1439.5 -1291,1448.3 -1257.6,1481.6 
			-1248.9,1472.9 -1248.9,1460.6 -1236.5,1460.6 -1227.8,1451.9 		"></polygon>
		<polygon class="ladsvg-5181-st2" points="-1164.7,1448.3 -1173.4,1439.5 -1185.8,1439.5 -1185.8,1427.2 -1194.4,1418.5 -1227.8,1451.9 
			-1219.2,1460.6 -1206.8,1460.6 -1206.8,1472.9 -1198.1,1481.6 		"></polygon>
		<polygon class="ladsvg-5181-st2" points="-1134.9,1418.5 -1143.7,1427.2 -1143.7,1439.5 -1155.9,1439.5 -1164.7,1448.3 -1131.3,1481.6 
			-1122.6,1472.9 -1122.6,1460.6 -1110.2,1460.6 -1101.6,1451.9 		"></polygon>
		<polygon class="ladsvg-5181-st2" points="-1047.1,1313.2 -1059.4,1313.2 -1059.4,1300.8 -1068.1,1292.2 -1101.6,1325.6 -1092.8,1334.3 
			-1080.5,1334.3 -1080.5,1346.6 -1071.7,1355.3 -1038.4,1321.9 		"></polygon>
		<polygon class="ladsvg-5181-st2" points="-1071.7,1355.3 -1080.5,1364.1 -1080.5,1376.3 -1092.8,1376.3 -1101.6,1385.1 -1068.1,1418.5 
			-1059.4,1409.8 -1059.4,1397.4 -1047.1,1397.4 -1038.4,1388.7 		"></polygon>
		<polygon class="ladsvg-5181-st2" points="-1110.2,1376.3 -1122.6,1376.3 -1122.6,1364.1 -1131.3,1355.3 -1164.7,1388.7 -1155.9,1397.4 
			-1143.7,1397.4 -1143.7,1409.8 -1134.9,1418.5 -1101.6,1385.1 		"></polygon>
		<polygon class="ladsvg-5181-st2" points="-1134.9,1292.2 -1143.7,1300.8 -1143.7,1313.2 -1155.9,1313.2 -1164.7,1321.9 -1131.3,1355.3 
			-1122.6,1346.6 -1122.6,1334.3 -1110.2,1334.3 -1101.6,1325.6 		"></polygon>
		<polygon class="ladsvg-5181-st2" points="-1164.7,1321.9 -1173.4,1313.2 -1185.8,1313.2 -1185.8,1300.8 -1194.4,1292.2 -1227.8,1325.6 
			-1219.2,1334.3 -1206.8,1334.3 -1206.8,1346.6 -1198.1,1355.3 		"></polygon>
		<polygon class="ladsvg-5181-st2" points="-1164.7,1388.7 -1198.1,1355.3 -1206.8,1364.1 -1206.8,1376.3 -1219.2,1376.3 -1227.8,1385.1 
			-1194.4,1418.5 -1185.8,1409.8 -1185.8,1397.4 -1173.4,1397.4 		"></polygon>
		<polygon class="ladsvg-5181-st2" points="-1236.5,1376.3 -1248.9,1376.3 -1248.9,1364.1 -1257.6,1355.3 -1291,1388.7 -1282.3,1397.4 
			-1269.9,1397.4 -1269.9,1409.8 -1261.3,1418.5 -1227.8,1385.1 		"></polygon>
		<polygon class="ladsvg-5181-st2" points="-1261.3,1292.2 -1269.9,1300.8 -1269.9,1313.2 -1282.3,1313.2 -1291,1321.9 -1257.6,1355.3 
			-1248.9,1346.6 -1248.9,1334.3 -1236.5,1334.3 -1227.8,1325.6 		"></polygon>
	</g>
</switch>

</svg>