<svg version="1.1" id="Camada_1" xmlns:x="&amp;ns_extend;" xmlns:i="&amp;ns_ai;" xmlns:graph="&amp;ns_graphs;" xmlns="http://www.w3.org/2000/svg" xmlns:xlink="http://www.w3.org/1999/xlink" x="0px" y="0px" viewBox="-1291 1292.1 252.6 252.6" style="enable-background:new -1291 1292.1 252.6 252.6;" xml:space="preserve">
<style type="text/css">
	.ladsvg-1562-st0{fill:#DEB569;}
	.ladsvg-1562-st1{fill:#571E24;}
</style>
<switch>
	
	<g i:extraneous="self">
		<rect x="-1291" y="1292.3" class="ladsvg-1562-st0" width="252.5" height="252.5"></rect>
		<path class="ladsvg-1562-st0" d="M-1038.5,1418.5c-1.8-16.1-8.3-31.3-18.7-43.8l0,0c-10.3-12.3-25.6-19.4-41.7-19.4c-0.9,0-1.8,0-2.8,0.1l0,0
			c0,0.6,0,1.2,0,1.7c0,33.9-27.5,61.4-61.4,61.4c-0.6,0-1.2,0-1.7,0l0,0c0,0.6,0,1.2,0,1.7c0,33.9,27.5,61.4,61.4,61.4
			c0.6,0,1.2,0,1.7,0l0,0c0-0.6,0-1.2,0-1.8c0-33.9,27.5-61.4,61.4-61.4C-1039.7,1418.5-1039.1,1418.5-1038.5,1418.5L-1038.5,1418.5
			z"></path>
		<path class="ladsvg-1562-st0" d="M-1208.5,1311c12.4-10.4,27.6-16.9,43.8-18.7l0,0H-1291c1.8,16.1,8.3,31.3,18.7,43.8l0,0
			c10.3,12.2,25.6,19.4,41.7,19.4c0.9,0,1.8,0,2.8-0.1l0,0c0-0.9-0.1-1.8-0.1-2.8C-1227.9,1336.6-1220.8,1321.3-1208.5,1311
			L-1208.5,1311z"></path>
		<path class="ladsvg-1562-st0" d="M-1227.9,1355.3c0,0.6,0,1.2,0,1.8c0,33.9-27.5,61.4-61.4,61.4c-0.6,0-1.2,0-1.8,0l0,0
			c1.8,16.1,8.3,31.3,18.7,43.8l0,0c10.3,12.3,25.6,19.4,41.7,19.4c0.9,0,1.8,0,2.8-0.1l0,0c0-0.6,0-1.2,0-1.7
			c0-33.9,27.5-61.4,61.4-61.4c0.6,0,1.2,0,1.7,0l0,0c0-0.6,0-1.2,0-1.7c0-33.9-27.5-61.4-61.4-61.4
			C-1226.7,1355.3-1227.3,1355.3-1227.9,1355.3L-1227.9,1355.3z"></path>
		<path class="ladsvg-1562-st0" d="M-1038.5,1292.3h-126.2c0,0.6,0,1.2,0,1.8c0,33.9,27.5,61.4,61.4,61.4c0.6,0,1.2,0,1.8,0l0,0
			c0-0.9-0.1-1.8-0.1-2.8c0-16.1,7.1-31.3,19.4-41.7l0,0C-1069.8,1300.6-1054.6,1294.1-1038.5,1292.3L-1038.5,1292.3z"></path>
		<path class="ladsvg-1562-st0" d="M-1227.9,1481.6c0,0.9,0.1,1.8,0.1,2.8c0,16.1-7.1,31.3-19.4,41.7l0,0c-12.4,10.4-27.6,16.9-43.8,18.7l0,0
			h126.2c0-0.6,0-1.2,0-1.8c0-33.9-27.5-61.4-61.4-61.4C-1226.7,1481.6-1227.3,1481.6-1227.9,1481.6L-1227.9,1481.6z"></path>
		<path class="ladsvg-1562-st1" d="M-1272.3,1462.3c-10.4-12.4-16.9-27.6-18.7-43.8l0,0v126.2c16.1-1.8,31.3-8.3,43.8-18.7l0,0
			c12.3-10.3,19.4-25.6,19.4-41.7c0-0.9,0-1.8-0.1-2.8l0,0c-0.9,0-1.8,0.1-2.8,0.1C-1246.7,1481.7-1262,1474.6-1272.3,1462.3
			L-1272.3,1462.3z"></path>
		<path class="ladsvg-1562-st1" d="M-1164.7,1418.5c-0.6,0-1.2,0-1.7,0c-33.9,0-61.4,27.5-61.4,61.4c0,0.6,0,1.2,0,1.7l0,0c0.6,0,1.2,0,1.8,0
			c33.9,0,61.4,27.5,61.4,61.4c0,0.6,0,1.2,0,1.8l0,0c16.1-1.8,31.3-8.3,43.8-18.7l0,0c12.3-10.3,19.4-25.6,19.4-41.7
			c0-0.9,0-1.8-0.1-2.8l0,0c-0.6,0-1.2,0-1.7,0c-33.9,0-61.4-27.5-61.4-61.4C-1164.8,1419.7-1164.8,1419.1-1164.7,1418.5
			L-1164.7,1418.5z"></path>
		<path class="ladsvg-1562-st1" d="M-1038.5,1418.5c-0.6,0-1.2,0-1.8,0c-33.9,0-61.4,27.5-61.4,61.4c0,0.6,0,1.2,0,1.8l0,0
			c0.9,0,1.8-0.1,2.8-0.1c16.1,0,31.3,7.1,41.7,19.4l0,0c10.4,12.4,16.9,27.6,18.7,43.8l0,0L-1038.5,1418.5L-1038.5,1418.5z"></path>
		<path class="ladsvg-1562-st1" d="M-1038.5,1292.3c-16.1,1.8-31.3,8.3-43.8,18.7l0,0c-12.3,10.3-19.4,25.6-19.4,41.7c0,0.9,0,1.8,0.1,2.8l0,0
			c0.9,0,1.8-0.1,2.8-0.1c16.1,0,31.3,7.1,41.7,19.4l0,0c10.4,12.4,16.9,27.6,18.7,43.8l0,0L-1038.5,1292.3z"></path>
		<path class="ladsvg-1562-st1" d="M-1208.5,1311c-12.3,10.3-19.4,25.6-19.4,41.6c0,0.9,0,1.8,0.1,2.8l0,0c0.6,0,1.2,0,1.7,0
			c33.9,0,61.4,27.5,61.4,61.4c0,0.6,0,1.2,0,1.7l0,0c0.6,0,1.2,0,1.7,0c33.9,0,61.4-27.5,61.4-61.4c0-0.6,0-1.2,0-1.7l0,0
			c-0.6,0-1.2,0-1.8,0c-33.9,0-61.4-27.5-61.4-61.4c0-0.6,0-1.2,0-1.8l0,0C-1180.9,1294.1-1196.1,1300.6-1208.5,1311L-1208.5,1311z"></path>
		<path class="ladsvg-1562-st1" d="M-1227.9,1355.3c-0.9,0-1.8,0.1-2.8,0.1c-16.1,0-31.3-7.1-41.7-19.4l0,0c-10.3-12.5-16.8-27.7-18.6-43.8l0,0
			v126.2c0.6,0,1.2,0,1.8,0c33.9,0,61.4-27.5,61.4-61.4C-1227.8,1356.6-1227.9,1356-1227.9,1355.3L-1227.9,1355.3z"></path>
	</g>
</switch>

</svg>