<svg version="1.1" id="Camada_1" xmlns:x="&amp;ns_extend;" xmlns:i="&amp;ns_ai;" xmlns:graph="&amp;ns_graphs;" xmlns="http://www.w3.org/2000/svg" xmlns:xlink="http://www.w3.org/1999/xlink" x="0px" y="0px" viewBox="-1291 1292.1 252.6 252.6" style="enable-background:new -1291 1292.1 252.6 252.6;" xml:space="preserve">
<style type="text/css">
	.ladsvg-6120-st0{fill:#A2C0B0;}
	.ladsvg-6120-st1{fill:#155D64;}
</style>
<switch>
	
	<g i:extraneous="self">
		<rect x="-1291" y="1292" class="ladsvg-6120-st0" width="252.8" height="252.8"></rect>
		<polygon class="ladsvg-6120-st0" points="-1259.4,1292 -1291,1292 -1291,1355.1 		"></polygon>
		<polygon class="ladsvg-6120-st0" points="-1196.2,1292 -1259.4,1292 -1227.8,1355.1 		"></polygon>
		<polygon class="ladsvg-6120-st0" points="-1291,1355.1 -1291,1481.6 -1259.4,1418.3 		"></polygon>
		<polygon class="ladsvg-6120-st0" points="-1196.2,1418.3 -1227.8,1355.1 -1259.4,1418.3 -1227.8,1481.6 		"></polygon>
		<polygon class="ladsvg-6120-st0" points="-1164.6,1355.2 -1196.2,1418.3 -1164.6,1481.5 -1133,1418.3 		"></polygon>
		<polygon class="ladsvg-6120-st0" points="-1133,1292 -1196.2,1292 -1164.6,1355.2 		"></polygon>
		<polygon class="ladsvg-6120-st0" points="-1069.8,1292 -1133,1292 -1101.4,1355.1 		"></polygon>
		<polygon class="ladsvg-6120-st0" points="-1038.2,1292 -1069.8,1292 -1038.2,1355.1 		"></polygon>
		<polygon class="ladsvg-6120-st0" points="-1038.2,1355.1 -1069.8,1418.3 -1038.2,1481.6 		"></polygon>
		<polygon class="ladsvg-6120-st0" points="-1069.8,1418.3 -1101.4,1355.1 -1133,1418.3 -1101.4,1481.6 		"></polygon>
		<polygon class="ladsvg-6120-st0" points="-1101.4,1481.6 -1133,1544.8 -1069.8,1544.8 		"></polygon>
		<polygon class="ladsvg-6120-st0" points="-1164.6,1481.5 -1196.2,1544.8 -1133,1544.8 		"></polygon>
		<polygon class="ladsvg-6120-st0" points="-1227.8,1481.6 -1259.4,1544.8 -1196.2,1544.8 		"></polygon>
		<polygon class="ladsvg-6120-st0" points="-1291,1481.6 -1291,1544.8 -1259.4,1544.8 		"></polygon>
		<polygon class="ladsvg-6120-st1" points="-1069.8,1292 -1101.4,1355.1 -1069.8,1418.3 -1038.2,1355.1 		"></polygon>
		<polygon class="ladsvg-6120-st1" points="-1133,1292 -1164.6,1355.2 -1133,1418.3 -1101.4,1355.1 		"></polygon>
		<polygon class="ladsvg-6120-st1" points="-1164.6,1355.2 -1196.2,1292 -1227.8,1355.1 -1196.2,1418.3 		"></polygon>
		<polygon class="ladsvg-6120-st1" points="-1227.8,1355.1 -1259.4,1292 -1291,1355.1 -1259.4,1418.3 		"></polygon>
		<polygon class="ladsvg-6120-st1" points="-1227.8,1481.6 -1259.4,1418.3 -1291,1481.6 -1259.4,1544.8 		"></polygon>
		<polygon class="ladsvg-6120-st1" points="-1164.6,1481.5 -1196.2,1418.3 -1227.8,1481.6 -1196.2,1544.8 		"></polygon>
		<polygon class="ladsvg-6120-st1" points="-1101.4,1481.6 -1133,1418.3 -1164.6,1481.5 -1133,1544.8 		"></polygon>
		<polygon class="ladsvg-6120-st1" points="-1038.2,1481.6 -1069.8,1418.3 -1101.4,1481.6 -1069.8,1544.8 		"></polygon>
	</g>
</switch>

</svg>