<svg version="1.1" id="Camada_1" xmlns:x="&amp;ns_extend;" xmlns:i="&amp;ns_ai;" xmlns:graph="&amp;ns_graphs;" xmlns="http://www.w3.org/2000/svg" xmlns:xlink="http://www.w3.org/1999/xlink" x="0px" y="0px" viewBox="0 0 252.6 252.6" style="enable-background:new 0 0 252.6 252.6;" xml:space="preserve">
<style type="text/css">
	.A{fill:none;}
	.B{fill:#1D1D1B;}
	.C{fill:#551D23;}
	.D{fill:#F5F3F3;}
	.E{fill:#D7B068;}
</style>
<switch>
	
	<g i:extraneous="self">
		<polygon class="A" points="-0.6,80.2 -0.6,82.7 -0.6,80.3 		"></polygon>
		<polygon class="A" points="118.2,-0.4 -0.6,-0.4 90.4,-0.4 		"></polygon>
		<path class="A" d="M125.9,91.9L125.9,91.9c0.1,0,0.1-0.1,0.1-0.1S126,91.8,125.9,91.9z"></path>
		<path class="A" d="M125.9,24.8L125.9,24.8c0.1,0,0.1-0.1,0.1-0.1S126,24.8,125.9,24.8z"></path>
		<path class="B" d="M-0.6,80.3l0,2.4c0,0,0,0,0.1,0L-0.6,80.3z"></path>
		<path class="C" d="M-0.6,80.3l0-73.6v76c7.1-0.2,7.1-17.6,7.1-17.6c5.4-1,6-5,6-5c0.2-2.3-5.1-5.3-5.1-5.3
			c6.4-4.9,7.1-6.9,7.4-8.2c-13.8-18.5-2.9-20.8-2.9-20.8c8.5-1.9,11.2,18.2,11.2,17.6c6.2,4,11.1,0.9,11.1,0.9
			c-0.8,6.1,1.7,8.2,1.7,8.2c4.6,1.7,7.4-1.7,7.4-1.7c7,10.1,16.4,9.2,19.1,8.7l0-0.1c2.7-5.5-8.3-16.3-8.3-16.3
			c3.1-4.4,0.7-7.7,0.7-7.7c-1.6-1.8-7.4-0.2-7.4-0.2c1-7.9,0.1-9.8-0.7-11c-23.1-3.5-17-12.8-17-12.8c4.6-7.2,21,5.1,20.6,4.6
			c4-5.7,8.5-7,8.5-7c3.8,4.8,7.2,4.6,7.2,4.6c4.5-2,4-6.4,4-6.4C84.6,10,90.4-0.4,90.4-0.4l-91,0L-0.6,80.3L-0.6,80.3z"></path>
		<polygon class="C" points="-0.5,6.7 -0.6,80.3 -0.5,82.7 		"></polygon>
		<path class="D" d="M112.6,10.6L112.6,10.6c-0.3,0.3-38.8,20.9-36.5,60.1l0.3,4.5l-4.6-0.2c-40-1.6-60.3,36.5-60.5,36.9
			c0,0,0,0,0,0l-0.1,0l-7.2,0.2c-4.7,0.3-4.4,4.5-4.4,4.5c0,2.3,2.1,3.2,3,3.2l15.8,0l0.2-0.6c0,0,17.9-40.8,60.4-33.4
			c0,0,17.1,4,11.8,21.6c0,0-2.7,7-13.1,3.9c0,0-7.8-2.2-1.7-14.2c0,0-5.1-2.5-10.2,5.9c0,0-9.5-5.6-14.6,0.6c0,0,7.7,1.5,13.2,9.5
			s13.4,14,24.2,9.9c10.8-4,10.8-24.7,10.8-24.7l0.1,0c0,0,18.2,0,22.3-10.6c4.1-10.6,0.9-18.3-7.2-23.7s-9.7-13-9.7-13
			c-6.3,5-0.6,14.4-0.6,14.4c-8.5,5-6,10.1-6,10.1c12.2-6,14.5,1.7,14.5,1.7c3.1,10.2-4,12.8-4,12.8c-17.9,5.2-22-11.6-22-11.6
			c-7.5-41.8,34-59.3,34-59.3l0.3-0.1l0-15c0-2.3-1.9-4.2-4.2-4.3c-1.1,0.1-3.9,0.7-4,4.4L112.6,10.6z"></path>
		<path class="D" d="M70.3,7.3c0,0,0.4,4.4-4,6.4c0,0-3.4,0.2-7.2-4.6c0,0-4.5,1.3-8.5,7c0.4,0.4-16-11.9-20.6-4.6
			c0,0-6.1,9.3,17,12.8c0.8,1.2,1.7,3,0.7,11c0,0,5.8-1.5,7.4,0.2c0,0,2.5,3.3-0.7,7.7c0,0,11,10.8,8.3,16.3l0,0.1
			c-2.6,0.5-12.1,1.4-19.1-8.7c0,0-2.9,3.4-7.4,1.7c0,0-2.5-2.2-1.7-8.2c0,0-4.9,3-11.1-0.9c0,0.6-2.8-19.5-11.2-17.6
			c0,0-11,2.4,2.9,20.8c-0.3,1.4-1,3.3-7.4,8.2c0,0,5.2,3,5.1,5.3c0,0-0.6,4-6,5c0,0,0,17.3-7.1,17.6v29.8c0,0,0,0,0-0.1l0-0.2
			c2.5-2.3,3.9-4.3,3.9-4.3l0,0c1.7-3.1,22.2-40.3,63.8-41.5c0.5-40.8,38-61.6,41.2-63.3l0,0c0,0,2.3-1,4.5-3.6l5.4,0l-27.8,0
			C90.4-0.4,84.6,10,70.3,7.3z"></path>
		<path class="E" d="M125.9,24.8C125.9,24.8,125.9,24.8,125.9,24.8c-0.1,0-0.1-0.1-0.1-0.1S125.9,24.8,125.9,24.8L125.9,24.8z"></path>
		<polygon class="E" points="125.9,24.8 125.9,24.8 125.9,24.8 		"></polygon>
		<path class="E" d="M125.9,91.9C125.9,91.9,125.9,91.9,125.9,91.9c-0.1,0-0.1-0.1-0.1-0.1S125.9,91.8,125.9,91.9L125.9,91.9z"></path>
		<polygon class="E" points="125.9,91.9 125.9,91.9 125.9,91.9 		"></polygon>
		<polygon class="E" points="116.7,-0.4 116.7,-0.4 116.7,-0.4 		"></polygon>
		<path class="E" d="M3.8,112.3L11,112l0.1,0c0,0,0,0,0,0c0.2-0.5,20.6-38.5,60.5-36.9l4.6,0.2L76,70.8
			c-2.3-39.3,36.2-59.9,36.6-60.1l0-0.1l0.1-6.6c0.2-3.7,2.9-4.3,4-4.4l-3.8,0c-2.3,2.5-4.5,3.6-4.5,3.6l0,0
			c-3.1,1.7-40.7,22.5-41.2,63.3C25.6,67.7,5.1,104.9,3.4,108l0,0c0,0-1.5,2.1-4,4.4v0.1v3.9h0C-0.5,115.4-0.1,112.5,3.8,112.3z"></path>
		<path class="A" d="M126.2,91.9L126.2,91.9c-0.1,0-0.1-0.1-0.1-0.1S126.2,91.8,126.2,91.9z"></path>
		<path class="A" d="M126.2,24.8L126.2,24.8c-0.1,0-0.1-0.1-0.1-0.1S126.2,24.8,126.2,24.8z"></path>
		<path class="E" d="M126.2,24.8C126.2,24.8,126.2,24.8,126.2,24.8c0.1,0,0.1-0.1,0.1-0.1S126.3,24.8,126.2,24.8L126.2,24.8z"></path>
		<polygon class="E" points="126.2,24.8 126.2,24.8 126.2,24.8 		"></polygon>
		<path class="E" d="M126.2,91.9C126.2,91.9,126.2,91.9,126.2,91.9c0.1,0,0.1-0.1,0.1-0.1S126.3,91.8,126.2,91.9L126.2,91.9z"></path>
		<polygon class="E" points="126.2,91.9 126.2,91.9 126.2,91.9 		"></polygon>
		<path class="A" d="M252.4,117.6l0-5c0,0,0,0,0,0.1V82.7c0,0,0,0,0.1,0v43.5h-0.1L252.4,117.6
			C252.5,117.5,252.4,117.5,252.4,117.6z"></path>
		<polygon class="A" points="252.5,80.2 252.5,82.7 252.5,80.3 		"></polygon>
		<polygon class="A" points="133.7,-0.4 252.5,-0.4 161.5,-0.4 		"></polygon>
		<path class="A" d="M126,91.9L126,91.9c-0.1,0-0.1-0.1-0.1-0.1S125.9,91.8,126,91.9z"></path>
		<path class="A" d="M126,24.8L126,24.8c-0.1,0-0.1-0.1-0.1-0.1S125.9,24.8,126,24.8z"></path>
		<path class="B" d="M252.5,80.3l0,2.4c0,0,0,0-0.1,0L252.5,80.3z"></path>
		<path class="C" d="M252.5,80.3l0-73.6v76c-7.1-0.2-7.1-17.6-7.1-17.6c-5.4-1-6-5-6-5c-0.2-2.3,5.1-5.3,5.1-5.3
			c-6.4-4.9-7.1-6.9-7.4-8.2c13.8-18.5,2.9-20.8,2.9-20.8c-8.5-1.9-11.2,18.2-11.2,17.6c-6.2,4-11.1,0.9-11.1,0.9
			c0.8,6.1-1.7,8.2-1.7,8.2c-4.6,1.7-7.4-1.7-7.4-1.7c-7,10.1-16.4,9.2-19.1,8.7l0-0.1c-2.7-5.5,8.3-16.3,8.3-16.3
			c-3.1-4.4-0.7-7.7-0.7-7.7c1.6-1.8,7.4-0.2,7.4-0.2c-1-7.9-0.1-9.8,0.7-11c23.1-3.5,17-12.8,17-12.8c-4.6-7.2-21,5.1-20.6,4.6
			c-4-5.7-8.5-7-8.5-7c-3.8,4.8-7.2,4.6-7.2,4.6c-4.5-2-4-6.4-4-6.4c-14.3,2.6-20.2-7.7-20.2-7.7l91,0L252.5,80.3L252.5,80.3z"></path>
		<polygon class="C" points="252.5,6.7 252.5,80.3 252.5,82.7 		"></polygon>
		<path class="D" d="M139.4,10.6L139.4,10.6c0.3,0.3,38.8,20.9,36.5,60.1l-0.3,4.5l4.6-0.2c40-1.6,60.3,36.5,60.5,36.9
			c0,0,0,0,0,0l0.1,0l7.2,0.2c4.7,0.3,4.4,4.5,4.4,4.5c0,2.3-2.1,3.2-3,3.2l-15.8,0l-0.2-0.6c0,0-17.9-40.8-60.4-33.4
			c0,0-17.1,4-11.8,21.6c0,0,2.7,7,13.1,3.9c0,0,7.8-2.2,1.7-14.2c0,0,5.1-2.5,10.2,5.9c0,0,9.5-5.6,14.6,0.6c0,0-7.7,1.5-13.2,9.5
			s-13.4,14-24.2,9.9c-10.8-4-10.8-24.7-10.8-24.7l-0.1,0c0,0-18.2,0-22.3-10.6c-4.1-10.6-0.9-18.3,7.2-23.7s9.7-13,9.7-13
			c6.3,5,0.6,14.4,0.6,14.4c8.5,5,6,10.1,6,10.1c-12.2-6-14.5,1.7-14.5,1.7c-3.1,10.2,4,12.8,4,12.8c17.9,5.2,22-11.6,22-11.6
			c7.5-41.8-34-59.3-34-59.3L131,19l0-15c0-2.3,1.9-4.2,4.2-4.3c1.1,0.1,3.9,0.7,4,4.4L139.4,10.6z"></path>
		<path class="D" d="M181.7,7.3c0,0-0.4,4.4,4,6.4c0,0,3.4,0.2,7.2-4.6c0,0,4.5,1.3,8.5,7c-0.4,0.4,16-11.9,20.6-4.6
			c0,0,6.1,9.3-17,12.8c-0.8,1.2-1.7,3-0.7,11c0,0-5.8-1.5-7.4,0.2c0,0-2.5,3.3,0.7,7.7c0,0-11,10.8-8.3,16.3l0,0.1
			c2.6,0.5,12.1,1.4,19.1-8.7c0,0,2.9,3.4,7.4,1.7c0,0,2.5-2.2,1.7-8.2c0,0,4.9,3,11.1-0.9c0,0.6,2.8-19.5,11.2-17.6
			c0,0,11,2.4-2.9,20.8c0.3,1.4,1,3.3,7.4,8.2c0,0-5.2,3-5.1,5.3c0,0,0.6,4,6,5c0,0,0,17.3,7.1,17.6v29.8c0,0,0,0,0-0.1l0-0.2
			c-2.5-2.3-3.9-4.3-3.9-4.3l0,0c-1.7-3.1-22.2-40.3-63.8-41.5c-0.5-40.8-38-61.6-41.2-63.3l0,0c0,0-2.3-1-4.5-3.6l-5.4,0l27.8,0
			C161.5-0.4,167.3,10,181.7,7.3z"></path>
		<path class="E" d="M126,24.8C126,24.8,126,24.8,126,24.8c0.1,0,0.1-0.1,0.1-0.1S126.1,24.8,126,24.8L126,24.8z"></path>
		<polygon class="E" points="126,24.8 126,24.8 126,24.8 		"></polygon>
		<path class="E" d="M126,91.9C126,91.9,126,91.9,126,91.9c0.1,0,0.1-0.1,0.1-0.1S126.1,91.8,126,91.9L126,91.9z"></path>
		<polygon class="E" points="126,91.9 126,91.9 126,91.9 		"></polygon>
		<polygon class="E" points="135.2,-0.4 135.3,-0.4 135.2,-0.4 		"></polygon>
		<path class="E" d="M248.1,112.3l-7.2-0.2l-0.1,0c0,0,0,0,0,0c-0.2-0.5-20.6-38.5-60.5-36.9l-4.6,0.2l0.3-4.5
			c2.3-39.3-36.2-59.9-36.6-60.1l0-0.1L139.3,4c-0.2-3.7-2.9-4.3-4-4.4l3.8,0c2.3,2.5,4.5,3.6,4.5,3.6l0,0
			c3.1,1.7,40.7,22.5,41.2,63.3c41.6,1.2,62.1,38.4,63.8,41.5l0,0c0,0,1.5,2.1,4,4.4v0.1v3.9h0C252.5,115.4,252,112.5,248.1,112.3z"></path>
		<path class="A" d="M125.7,91.9L125.7,91.9c0.1,0,0.1-0.1,0.1-0.1S125.8,91.8,125.7,91.9z"></path>
		<path class="A" d="M125.7,24.8L125.7,24.8c0.1,0,0.1-0.1,0.1-0.1S125.8,24.8,125.7,24.8z"></path>
		<path class="E" d="M125.7,24.8C125.7,24.8,125.7,24.8,125.7,24.8c-0.1,0-0.1-0.1-0.1-0.1S125.7,24.8,125.7,24.8L125.7,24.8z"></path>
		<polygon class="E" points="125.7,24.8 125.7,24.8 125.7,24.8 		"></polygon>
		<path class="E" d="M125.7,91.9C125.7,91.9,125.7,91.9,125.7,91.9c-0.1,0-0.1-0.1-0.1-0.1S125.7,91.8,125.7,91.9L125.7,91.9z"></path>
		<polygon class="E" points="125.7,91.9 125.7,91.9 125.7,91.9 		"></polygon>
		<path class="A" d="M252.4,135l0,5c0,0,0,0,0-0.1v29.8c0,0,0,0,0.1,0v-43.5h-0.1L252.4,135C252.5,135,252.4,135,252.4,135z"></path>
		<polygon class="A" points="252.5,172.3 252.5,169.8 252.5,172.2 		"></polygon>
		<polygon class="A" points="133.7,252.9 252.5,252.9 161.5,252.9 		"></polygon>
		<path class="A" d="M126,160.7L126,160.7c-0.1,0-0.1,0.1-0.1,0.1S125.9,160.7,126,160.7z"></path>
		<path class="A" d="M126,227.7L126,227.7c-0.1,0-0.1,0.1-0.1,0.1S125.9,227.8,126,227.7z"></path>
		<path class="B" d="M252.5,172.2l0-2.4c0,0,0,0-0.1,0L252.5,172.2z"></path>
		<path class="C" d="M252.5,172.2l0,73.6v-76c-7.1,0.2-7.1,17.6-7.1,17.6c-5.4,1-6,5-6,5c-0.2,2.3,5.1,5.3,5.1,5.3
			c-6.4,4.9-7.1,6.9-7.4,8.2c13.8,18.5,2.9,20.8,2.9,20.8c-8.5,1.9-11.2-18.2-11.2-17.6c-6.2-4-11.1-0.9-11.1-0.9
			c0.8-6.1-1.7-8.2-1.7-8.2c-4.6-1.7-7.4,1.7-7.4,1.7c-7-10.1-16.4-9.2-19.1-8.7l0,0.1c-2.7,5.5,8.3,16.3,8.3,16.3
			c-3.1,4.4-0.7,7.7-0.7,7.7c1.6,1.8,7.4,0.2,7.4,0.2c-1,7.9-0.1,9.8,0.7,11c23.1,3.5,17,12.8,17,12.8c-4.6,7.2-21-5.1-20.6-4.6
			c-4,5.7-8.5,7-8.5,7c-3.8-4.8-7.2-4.6-7.2-4.6c-4.5,2-4,6.4-4,6.4c-14.3-2.6-20.2,7.7-20.2,7.7l91,0L252.5,172.2L252.5,172.2z"></path>
		<polygon class="C" points="252.5,245.8 252.5,172.2 252.5,169.8 		"></polygon>
		<path class="D" d="M139.4,241.9L139.4,241.9c0.3-0.3,38.8-20.9,36.5-60.1l-0.3-4.5l4.6,0.2c40,1.6,60.3-36.5,60.5-36.9
			c0,0,0,0,0,0l0.1,0l7.2-0.2c4.7-0.3,4.4-4.5,4.4-4.5c0-2.3-2.1-3.2-3-3.2l-15.8,0l-0.2,0.6c0,0-17.9,40.8-60.4,33.4
			c0,0-17.1-4-11.8-21.6c0,0,2.7-7,13.1-3.9c0,0,7.8,2.2,1.7,14.2c0,0,5.1,2.5,10.2-5.9c0,0,9.5,5.6,14.6-0.6c0,0-7.7-1.5-13.2-9.5
			c-5.5-8-13.4-14-24.2-9.9c-10.8,4-10.8,24.7-10.8,24.7l-0.1,0c0,0-18.2,0-22.3,10.6c-4.1,10.6-0.9,18.3,7.2,23.7
			c8.1,5.4,9.7,13,9.7,13c6.3-5,0.6-14.4,0.6-14.4c8.5-5,6-10.1,6-10.1c-12.2,6-14.5-1.7-14.5-1.7c-3.1-10.2,4-12.8,4-12.8
			c17.9-5.2,22,11.6,22,11.6c7.5,41.8-34,59.3-34,59.3l-0.3,0.1l0,15c0,2.3,1.9,4.2,4.2,4.3c1.1-0.1,3.9-0.7,4-4.4L139.4,241.9z"></path>
		<path class="D" d="M181.7,245.2c0,0-0.4-4.4,4-6.4c0,0,3.4-0.2,7.2,4.6c0,0,4.5-1.3,8.5-7c-0.4-0.4,16,11.9,20.6,4.6
			c0,0,6.1-9.3-17-12.8c-0.8-1.2-1.7-3-0.7-11c0,0-5.8,1.5-7.4-0.2c0,0-2.5-3.3,0.7-7.7c0,0-11-10.8-8.3-16.3l0-0.1
			c2.6-0.5,12.1-1.4,19.1,8.7c0,0,2.9-3.4,7.4-1.7c0,0,2.5,2.2,1.7,8.2c0,0,4.9-3,11.1,0.9c0-0.6,2.8,19.5,11.2,17.6
			c0,0,11-2.4-2.9-20.8c0.3-1.4,1-3.3,7.4-8.2c0,0-5.2-3-5.1-5.3c0,0,0.6-4,6-5c0,0,0-17.3,7.1-17.6V140c0,0,0,0,0,0.1l0,0.2
			c-2.5,2.3-3.9,4.3-3.9,4.3l0,0c-1.7,3.1-22.2,40.3-63.8,41.5c-0.5,40.8-38,61.6-41.2,63.3l0,0c0,0-2.3,1-4.5,3.6l-5.4,0l27.8,0
			C161.5,252.9,167.3,242.6,181.7,245.2z"></path>
		<path class="E" d="M126,227.7C126,227.7,126,227.7,126,227.7c0.1,0,0.1,0.1,0.1,0.1S126.1,227.8,126,227.7L126,227.7z"></path>
		<polygon class="E" points="126,227.7 126,227.7 126,227.7 		"></polygon>
		<path class="E" d="M126,160.7C126,160.7,126,160.7,126,160.7c0.1,0,0.1,0.1,0.1,0.1S126.1,160.7,126,160.7L126,160.7z"></path>
		<polygon class="E" points="126,160.7 126,160.7 126,160.7 		"></polygon>
		<polygon class="E" points="135.2,252.9 135.3,252.9 135.2,252.9 		"></polygon>
		<path class="E" d="M248.1,140.3l-7.2,0.2l-0.1,0c0,0,0,0,0,0c-0.2,0.5-20.6,38.5-60.5,36.9l-4.6-0.2l0.3,4.5
			c2.3,39.3-36.2,59.9-36.6,60.1l0,0.1l-0.1,6.6c-0.2,3.7-2.9,4.3-4,4.4l3.8,0c2.3-2.5,4.5-3.6,4.5-3.6l0,0
			c3.1-1.7,40.7-22.5,41.2-63.3c41.6-1.2,62.1-38.4,63.8-41.5l0,0c0,0,1.5-2.1,4-4.4V140v-3.9h0C252.5,137.1,252,140,248.1,140.3z"></path>
		<path class="A" d="M125.7,160.7L125.7,160.7c0.1,0,0.1,0.1,0.1,0.1S125.8,160.7,125.7,160.7z"></path>
		<path class="A" d="M125.7,227.7L125.7,227.7c0.1,0,0.1,0.1,0.1,0.1S125.8,227.8,125.7,227.7z"></path>
		<path class="E" d="M125.7,227.7C125.7,227.7,125.7,227.7,125.7,227.7c-0.1,0-0.1,0.1-0.1,0.1S125.7,227.8,125.7,227.7
			L125.7,227.7z"></path>
		<polygon class="E" points="125.7,227.7 125.7,227.7 125.7,227.7 		"></polygon>
		<path class="E" d="M125.7,160.7C125.7,160.7,125.7,160.7,125.7,160.7c-0.1,0-0.1,0.1-0.1,0.1S125.7,160.7,125.7,160.7
			L125.7,160.7z"></path>
		<polygon class="E" points="125.7,160.7 125.7,160.7 125.7,160.7 		"></polygon>
		<polygon class="A" points="-0.6,172.3 -0.6,169.8 -0.6,172.2 		"></polygon>
		<polygon class="A" points="118.2,252.9 -0.6,252.9 90.4,252.9 		"></polygon>
		<path class="A" d="M125.9,160.7L125.9,160.7c0.1,0,0.1,0.1,0.1,0.1S126,160.7,125.9,160.7z"></path>
		<path class="A" d="M125.9,227.7L125.9,227.7c0.1,0,0.1,0.1,0.1,0.1S126,227.8,125.9,227.7z"></path>
		<path class="B" d="M-0.6,172.2l0-2.4c0,0,0,0,0.1,0L-0.6,172.2z"></path>
		<path class="C" d="M-0.6,172.2l0,73.6v-76c7.1,0.2,7.1,17.6,7.1,17.6c5.4,1,6,5,6,5c0.2,2.3-5.1,5.3-5.1,5.3
			c6.4,4.9,7.1,6.9,7.4,8.2c-13.8,18.5-2.9,20.8-2.9,20.8c8.5,1.9,11.2-18.2,11.2-17.6c6.2-4,11.1-0.9,11.1-0.9
			c-0.8-6.1,1.7-8.2,1.7-8.2c4.6-1.7,7.4,1.7,7.4,1.7c7-10.1,16.4-9.2,19.1-8.7l0,0.1c2.7,5.5-8.3,16.3-8.3,16.3
			c3.1,4.4,0.7,7.7,0.7,7.7c-1.6,1.8-7.4,0.2-7.4,0.2c1,7.9,0.1,9.8-0.7,11C23.9,231.7,30,241,30,241c4.6,7.2,21-5.1,20.6-4.6
			c4,5.7,8.5,7,8.5,7c3.8-4.8,7.2-4.6,7.2-4.6c4.5,2,4,6.4,4,6.4c14.3-2.6,20.2,7.7,20.2,7.7l-91,0L-0.6,172.2L-0.6,172.2z"></path>
		<polygon class="C" points="-0.5,245.8 -0.6,172.2 -0.5,169.8 		"></polygon>
		<path class="D" d="M112.6,241.9L112.6,241.9c-0.3-0.3-38.8-20.9-36.5-60.1l0.3-4.5l-4.6,0.2c-40,1.6-60.3-36.5-60.5-36.9
			c0,0,0,0,0,0l-0.1,0l-7.2-0.2c-4.7-0.3-4.4-4.5-4.4-4.5c0-2.3,2.1-3.2,3-3.2l15.8,0l0.2,0.6c0,0,17.9,40.8,60.4,33.4
			c0,0,17.1-4,11.8-21.6c0,0-2.7-7-13.1-3.9c0,0-7.8,2.2-1.7,14.2c0,0-5.1,2.5-10.2-5.9c0,0-9.5,5.6-14.6-0.6c0,0,7.7-1.5,13.2-9.5
			c5.5-8,13.4-14,24.2-9.9c10.8,4,10.8,24.7,10.8,24.7l0.1,0c0,0,18.2,0,22.3,10.6c4.1,10.6,0.9,18.3-7.2,23.7
			c-8.1,5.4-9.7,13-9.7,13c-6.3-5-0.6-14.4-0.6-14.4c-8.5-5-6-10.1-6-10.1c12.2,6,14.5-1.7,14.5-1.7c3.1-10.2-4-12.8-4-12.8
			c-17.9-5.2-22,11.6-22,11.6c-7.5,41.8,34,59.3,34,59.3l0.3,0.1l0,15c0,2.3-1.9,4.2-4.2,4.3c-1.1-0.1-3.9-0.7-4-4.4L112.6,241.9z"></path>
		<path class="D" d="M130,192.2h-8.1c-1.8,15.5-12.1,22.1-12.1,22.1c3.9,4.5,8.8,3.5,8.8,3.5c1.5,7.4,7.3,10,7.3,10s0,0,0.1,0v0
			c0,0,0,0,0,0s0,0,0.1,0c0,0,0.1,0,0.1,0s0,0,0,0v0c0,0,0.1,0,0.1,0s5.8-2.5,7.3-10c0,0,4.8,1.1,8.8-3.5
			C142.1,214.3,131.8,207.7,130,192.2z"></path>
		<path class="D" d="M70.3,245.2c0,0,0.4-4.4-4-6.4c0,0-3.4-0.2-7.2,4.6c0,0-4.5-1.3-8.5-7c0.4-0.4-16,11.9-20.6,4.6
			c0,0-6.1-9.3,17-12.8c0.8-1.2,1.7-3,0.7-11c0,0,5.8,1.5,7.4-0.2c0,0,2.5-3.3-0.7-7.7c0,0,11-10.8,8.3-16.3l0-0.1
			c-2.6-0.5-12.1-1.4-19.1,8.7c0,0-2.9-3.4-7.4-1.7c0,0-2.5,2.2-1.7,8.2c0,0-4.9-3-11.1,0.9c0-0.6-2.8,19.5-11.2,17.6
			c0,0-11-2.4,2.9-20.8c-0.3-1.4-1-3.3-7.4-8.2c0,0,5.2-3,5.1-5.3c0,0-0.6-4-6-5c0,0,0-17.3-7.1-17.6V140c0,0,0,0,0,0.1l0,0.2
			c2.5,2.3,3.9,4.3,3.9,4.3l0,0c1.7,3.1,22.2,40.3,63.8,41.5c0.5,40.8,38,61.6,41.2,63.3l0,0c0,0,2.3,1,4.5,3.6l5.4,0l-27.8,0
			C90.4,252.9,84.6,242.6,70.3,245.2z"></path>
		<path class="E" d="M125.9,227.7C125.9,227.7,125.9,227.7,125.9,227.7c-0.1,0-0.1,0.1-0.1,0.1S125.9,227.8,125.9,227.7
			L125.9,227.7z"></path>
		<polygon class="E" points="125.9,227.7 125.9,227.7 125.9,227.7 		"></polygon>
		<path class="E" d="M125.9,160.7C125.9,160.7,125.9,160.7,125.9,160.7c-0.1,0-0.1,0.1-0.1,0.1S125.9,160.7,125.9,160.7
			L125.9,160.7z"></path>
		<polygon class="E" points="125.9,160.7 125.9,160.7 125.9,160.7 		"></polygon>
		<polygon class="E" points="116.7,252.9 116.7,252.9 116.7,252.9 		"></polygon>
		<path class="E" d="M3.8,140.3l7.2,0.2l0.1,0c0,0,0,0,0,0c0.2,0.5,20.6,38.5,60.5,36.9l4.6-0.2l-0.3,4.5
			c-2.3,39.3,36.2,59.9,36.6,60.1l0,0.1l0.1,6.6c0.2,3.7,2.9,4.3,4,4.4l-3.8,0c-2.3-2.5-4.5-3.6-4.5-3.6l0,0
			c-3.1-1.7-40.7-22.5-41.2-63.3c-41.6-1.2-62.1-38.4-63.8-41.5l0,0c0,0-1.5-2.1-4-4.4V140v-3.9h0C-0.5,137.1-0.1,140,3.8,140.3z"></path>
		<path class="A" d="M126.2,160.7L126.2,160.7c-0.1,0-0.1,0.1-0.1,0.1S126.2,160.7,126.2,160.7z"></path>
		<path class="A" d="M126.2,227.7L126.2,227.7c-0.1,0-0.1,0.1-0.1,0.1S126.2,227.8,126.2,227.7z"></path>
		<path class="E" d="M126.2,227.7C126.2,227.7,126.2,227.7,126.2,227.7c0.1,0,0.1,0.1,0.1,0.1S126.3,227.8,126.2,227.7
			L126.2,227.7z"></path>
		<polygon class="E" points="126.2,227.7 126.2,227.7 126.2,227.7 		"></polygon>
		<path class="E" d="M126.2,160.7C126.2,160.7,126.2,160.7,126.2,160.7c0.1,0,0.1,0.1,0.1,0.1S126.3,160.7,126.2,160.7
			L126.2,160.7z"></path>
		<polygon class="E" points="126.2,160.7 126.2,160.7 126.2,160.7 		"></polygon>
		<path class="D" d="M133.4,34.7c-1.5-7.4-7.3-10-7.3-10s0,0-0.1,0v0c0,0,0,0,0,0s0,0-0.1,0c0,0-0.1,0-0.1,0s0,0,0,0v0
			c0,0-0.1,0-0.1,0s-5.8,2.5-7.3,10c0,0-4.8-1.1-8.8,3.5c0,0,10.3,6.7,12.1,22.1h8.1c1.8-15.5,12.1-22.1,12.1-22.1
			C138.2,33.7,133.4,34.7,133.4,34.7z"></path>
		<path class="E" d="M252.5,135l-0.1-8.8v0l0.1-8.8c0,0,0-0.1,0-0.1v-0.8h0c0,0.1,0,0.1,0,0.1c0,0.2,0,0.4-0.1,0.6
			c-0.3,1.9-2.1,2.6-3,2.6l-15.8,0l-0.2-0.6c0,0-17.9-40.8-60.4-33.4c0,0-17.1,4-11.8,21.6c0,0,2.7,7,13.1,3.9c0,0,7.8-2.2,1.7-14.2
			c0,0,5.1-2.5,10.2,5.9c0,0,9.5-5.6,14.6,0.6c0,0-7.7,1.5-13.2,9.5c-5.5,8-13.4,14-24.2,9.9c-10.8-4-10.8-24.7-10.8-24.7l-0.1,0
			c0,0-18.2,0-22.3-10.6c-4.1-10.6-0.9-18.3,7.2-23.7s9.7-13,9.7-13c6.3,5,0.6,14.4,0.6,14.4c8.5,5,6,10.1,6,10.1
			c-12.2-6-14.5,1.7-14.5,1.7c-3.1,10.2,4,12.8,4,12.8c17.9,5.2,22-11.6,22-11.6c7.5-41.8-34-59.3-34-59.3L131,19l0-15
			c0-2.3,1.8-4.2,4.1-4.3v0l-1.4,0h-15.5l-1.4,0v0c2.3,0.2,4.1,2,4.1,4.3l0,15l-0.3,0.1c0,0-41.5,17.6-34,59.3c0,0,4.1,16.8,22,11.6
			c0,0,7.1-2.7,4-12.8c0,0-2.3-7.7-14.5-1.7c0,0-2.6-5,6-10.1c0,0-5.7-9.4,0.6-14.4c0,0,1.6,7.5,9.7,13s11.3,13.1,7.2,23.7
			c-4.1,10.6-22.3,10.6-22.3,10.6l-0.1,0c0,0,0,20.6-10.8,24.7c-10.8,4-18.6-2-24.2-9.9c-5.5-8-13.2-9.5-13.2-9.5
			c5.1-6.1,14.6-0.6,14.6-0.6c5.1-8.4,10.2-5.9,10.2-5.9c-6.1,12,1.7,14.2,1.7,14.2c10.4,3.1,13.1-3.9,13.1-3.9
			C96,90,78.9,86,78.9,86c-42.5-7.4-60.4,33.4-60.4,33.4l-0.2,0.6l-15.8,0c-0.9,0-2.7-0.7-3-2.6c0-0.2,0-0.4-0.1-0.6c0,0,0,0,0-0.1
			h0v0.8c0,0,0,0.1,0,0.1l0.1,8.8v0l-0.1,8.8c0,0,0,0.1,0,0.1v0.8h0c0-0.1,0-0.1,0-0.1c0-0.2,0-0.4,0.1-0.6c0.3-1.9,2.1-2.6,3-2.6
			l15.8,0l0.2,0.6c0,0,17.9,40.8,60.4,33.4c0,0,17.1-4,11.8-21.6c0,0-2.7-7-13.1-3.9c0,0-7.8,2.2-1.7,14.2c0,0-5.1,2.5-10.2-5.9
			c0,0-9.5,5.6-14.6-0.6c0,0,7.7-1.5,13.2-9.5c5.5-8,13.4-14,24.2-9.9c10.8,4,10.8,24.7,10.8,24.7l0.1,0c0,0,18.2,0,22.3,10.6
			c4.1,10.6,0.9,18.3-7.2,23.7s-9.7,13-9.7,13c-6.3-5-0.6-14.4-0.6-14.4c-8.5-5-6-10.1-6-10.1c12.2,6,14.5-1.7,14.5-1.7
			c3.1-10.2-4-12.8-4-12.8c-17.9-5.2-22,11.6-22,11.6c-7.5,41.8,34,59.3,34,59.3l0.3,0.1l0,15c0,2.3-1.8,4.2-4.1,4.3v0l1.4,0h15.5
			l1.4,0v0c-2.3-0.2-4.1-2-4.1-4.3l0-15l0.3-0.1c0,0,41.5-17.6,34-59.3c0,0-4.1-16.8-22-11.6c0,0-7.1,2.7-4,12.8
			c0,0,2.3,7.7,14.5,1.7c0,0,2.6,5-6,10.1c0,0,5.7,9.4-0.6,14.4c0,0-1.6-7.5-9.7-13s-11.3-13.1-7.2-23.7
			c4.1-10.6,22.3-10.6,22.3-10.6l0.1,0c0,0,0-20.6,10.8-24.7c10.8-4,18.6,2,24.2,9.9c5.5,8,13.2,9.5,13.2,9.5
			c-5.1,6.1-14.6,0.6-14.6,0.6c-5.1,8.4-10.2,5.9-10.2,5.9c6.1-12-1.7-14.2-1.7-14.2c-10.4-3.1-13.1,3.9-13.1,3.9
			c-5.3,17.6,11.8,21.6,11.8,21.6c42.5,7.4,60.4-33.4,60.4-33.4l0.2-0.6l15.8,0c0.9,0,2.7,0.7,3,2.6c0,0.2,0,0.4,0.1,0.6
			c0,0,0,0,0,0.1h0V135C252.5,135.1,252.5,135,252.5,135z M121.9,60.4c-1.8-15.5-12.1-22.1-12.1-22.1c3.9-4.5,8.8-3.5,8.8-3.5
			c1.5-7.4,7.3-10,7.3-10s0,0,0.1,0.1c0,0,0,0,0,0v0c0,0,0,0,0,0c0,0,0,0,0,0v0c0,0,0,0,0,0c0.1,0,0.1-0.1,0.1-0.1s5.8,2.5,7.3,10
			c0,0,4.8-1.1,8.8,3.5c0,0-10.3,6.7-12.1,22.1H121.9z M130,192.2c1.8,15.5,12.1,22.1,12.1,22.1c-3.9,4.5-8.8,3.5-8.8,3.5
			c-1.5,7.4-7.3,10-7.3,10s0,0-0.1-0.1c0,0,0,0,0,0v0c0,0,0,0,0,0c0,0,0,0,0,0v0c0,0,0,0,0,0c-0.1,0-0.1,0.1-0.1,0.1
			s-5.8-2.5-7.3-10c0,0-4.8,1.1-8.8-3.5c0,0,10.3-6.7,12.1-22.1H130z M161.2,126.3c0,0,0,0.1-0.1,0.1c0.1,0.2,0.2,0.3,0.2,0.3h-0.4
			c0,0,0,0,0,0c-0.1,0.1-0.1,0.2-0.2,0.3c0,0,0,0,0,0c-0.1,0.1-0.2,0.2-0.2,0.3c0,0,0,0,0,0c-0.3,0.3-0.6,0.6-1,0.9
			c0,0-0.1,0.1-0.1,0.1c-0.1,0.1-0.2,0.1-0.3,0.2c-0.1,0.1-0.2,0.1-0.3,0.2c-0.1,0.1-0.2,0.1-0.3,0.2c-0.1,0.1-0.2,0.1-0.3,0.2
			c-0.1,0.1-0.2,0.1-0.3,0.2c-0.1,0.1-0.2,0.2-0.4,0.2c-0.1,0.1-0.2,0.1-0.3,0.2c-0.1,0.1-0.3,0.2-0.4,0.2c-0.1,0.1-0.2,0.1-0.4,0.2
			c-0.2,0.1-0.3,0.2-0.5,0.2c-0.1,0.1-0.3,0.1-0.4,0.2c-0.2,0.1-0.4,0.2-0.5,0.2c-0.1,0.1-0.3,0.1-0.4,0.2c-0.2,0.1-0.4,0.2-0.6,0.2
			c-0.2,0.1-0.3,0.1-0.5,0.2c-0.2,0.1-0.5,0.2-0.7,0.2c-0.2,0.1-0.3,0.1-0.5,0.2c-0.3,0.1-0.6,0.2-0.8,0.2c-0.1,0-0.3,0.1-0.4,0.1
			c-0.4,0.1-0.9,0.2-1.4,0.3c0,0,0.8,8.2-2.5,4.6c-8.6-9.4-14.2-6.8-15.2-5.6l-0.3,0.3c-0.9,1.2-3.8,6.5,5.8,14.9
			c3.6,3.2-4.7,2.4-4.7,2.4c-2,9.3-6.6,11.5-6.6,11.5s0,0-0.1-0.1c0,0,0,0,0,0v0c0,0,0,0,0,0c0,0,0,0,0,0v0c0,0,0,0,0,0
			c-0.1,0-0.1,0.1-0.1,0.1s-4.6-2.3-6.6-11.5c0,0-8.3,0.8-4.7-2.4c9.6-8.4,6.7-13.7,5.8-14.9l-0.3-0.3c-1-1.2-6.6-3.7-15.2,5.6
			c-3.3,3.6-2.5-4.6-2.5-4.6c-0.5-0.1-0.9-0.2-1.4-0.3c-0.2,0-0.3-0.1-0.4-0.1c-0.3-0.1-0.6-0.2-0.8-0.2c-0.2,0-0.3-0.1-0.5-0.2
			c-0.2-0.1-0.5-0.2-0.7-0.2c-0.2-0.1-0.3-0.1-0.5-0.2c-0.2-0.1-0.4-0.2-0.6-0.2c-0.2-0.1-0.3-0.1-0.4-0.2c-0.2-0.1-0.4-0.2-0.5-0.2
			c-0.1-0.1-0.3-0.1-0.4-0.2c-0.2-0.1-0.3-0.2-0.5-0.2c-0.1-0.1-0.3-0.1-0.4-0.2c-0.1-0.1-0.3-0.2-0.4-0.2c-0.1-0.1-0.2-0.1-0.3-0.2
			c-0.1-0.1-0.3-0.2-0.4-0.2c-0.1-0.1-0.2-0.1-0.3-0.2c-0.1-0.1-0.2-0.1-0.3-0.2c-0.1-0.1-0.2-0.1-0.3-0.2c-0.1-0.1-0.2-0.1-0.3-0.2
			c-0.1-0.1-0.2-0.1-0.3-0.2c-0.1,0-0.1-0.1-0.1-0.1c-0.4-0.3-0.7-0.6-1-0.9c0,0,0,0,0,0c-0.1-0.1-0.2-0.2-0.2-0.3c0,0,0,0,0,0
			c-0.1-0.1-0.1-0.2-0.2-0.3c0,0,0,0,0,0h-0.4c0,0,0.1-0.1,0.2-0.3c0-0.1-0.1-0.1-0.1-0.1v0c0,0,0-0.1,0.1-0.1
			c-0.1-0.2-0.2-0.3-0.2-0.3h0.4c0,0,0,0,0,0c0.1-0.1,0.1-0.2,0.2-0.3c0,0,0,0,0,0c0.1-0.1,0.2-0.2,0.2-0.3c0,0,0,0,0,0
			c0.3-0.3,0.6-0.6,1-0.9c0,0,0.1-0.1,0.1-0.1c0.1-0.1,0.2-0.1,0.3-0.2c0.1-0.1,0.2-0.1,0.3-0.2c0.1-0.1,0.2-0.1,0.3-0.2
			c0.1-0.1,0.2-0.1,0.3-0.2c0.1-0.1,0.2-0.1,0.3-0.2c0.1-0.1,0.2-0.2,0.4-0.2c0.1-0.1,0.2-0.1,0.3-0.2c0.1-0.1,0.3-0.2,0.4-0.2
			c0.1-0.1,0.2-0.1,0.4-0.2c0.2-0.1,0.3-0.2,0.5-0.2c0.1-0.1,0.3-0.1,0.4-0.2c0.2-0.1,0.4-0.2,0.5-0.2c0.1-0.1,0.3-0.1,0.4-0.2
			c0.2-0.1,0.4-0.2,0.6-0.2c0.2-0.1,0.3-0.1,0.5-0.2c0.2-0.1,0.5-0.2,0.7-0.2c0.2-0.1,0.3-0.1,0.5-0.2c0.3-0.1,0.6-0.2,0.8-0.2
			c0.1,0,0.3-0.1,0.4-0.1c0.4-0.1,0.9-0.2,1.4-0.3c0,0-0.8-8.2,2.5-4.6c8.6,9.4,14.2,6.8,15.2,5.6l0.3-0.3c0.9-1.2,3.8-6.5-5.8-14.9
			c-3.6-3.2,4.7-2.4,4.7-2.4c2-9.3,6.6-11.5,6.6-11.5s0,0,0.1,0.1c0,0,0,0,0,0v0c0,0,0,0,0,0c0,0,0,0,0,0v0c0,0,0,0,0,0
			c0.1,0,0.1-0.1,0.1-0.1s4.6,2.3,6.6,11.5c0,0,8.3-0.8,4.7,2.4c-9.6,8.4-6.7,13.7-5.8,14.9l0.3,0.3c1,1.2,6.6,3.7,15.2-5.6
			c3.3-3.6,2.5,4.6,2.5,4.6c0.5,0.1,0.9,0.2,1.4,0.3c0.2,0,0.3,0.1,0.4,0.1c0.3,0.1,0.6,0.2,0.8,0.2c0.2,0,0.3,0.1,0.5,0.2
			c0.2,0.1,0.5,0.2,0.7,0.2c0.2,0.1,0.3,0.1,0.5,0.2c0.2,0.1,0.4,0.2,0.6,0.2c0.2,0.1,0.3,0.1,0.4,0.2c0.2,0.1,0.4,0.2,0.5,0.2
			c0.1,0.1,0.3,0.1,0.4,0.2c0.2,0.1,0.3,0.2,0.5,0.2c0.1,0.1,0.3,0.1,0.4,0.2c0.1,0.1,0.3,0.2,0.4,0.2c0.1,0.1,0.2,0.1,0.3,0.2
			c0.1,0.1,0.3,0.2,0.4,0.2c0.1,0.1,0.2,0.1,0.3,0.2c0.1,0.1,0.2,0.1,0.3,0.2c0.1,0.1,0.2,0.1,0.3,0.2c0.1,0.1,0.2,0.1,0.3,0.2
			c0.1,0.1,0.2,0.1,0.3,0.2c0.1,0,0.1,0.1,0.1,0.1c0.4,0.3,0.7,0.6,1,0.9c0,0,0,0,0,0c0.1,0.1,0.2,0.2,0.2,0.3c0,0,0,0,0,0
			c0.1,0.1,0.1,0.2,0.2,0.3c0,0,0,0,0,0h0.4c0,0-0.1,0.1-0.2,0.3C161.1,126.2,161.2,126.2,161.2,126.3L161.2,126.3z"></path>
		<path class="D" d="M60.1,126.3v-4c-15.8-1.7-21.8-11.9-21.8-11.9c-4.6,3.9-3.5,8.6-3.5,8.6c-0.4,0.1-0.9,0.2-1.3,0.3
			c-0.1,0-0.3,0.1-0.4,0.1c-0.3,0.1-0.5,0.2-0.8,0.3c-0.1,0.1-0.3,0.1-0.4,0.2c-0.2,0.1-0.5,0.2-0.7,0.3c-0.1,0.1-0.3,0.1-0.4,0.2
			c-0.2,0.1-0.4,0.2-0.6,0.3c-0.1,0.1-0.2,0.1-0.3,0.2c-0.2,0.1-0.4,0.3-0.6,0.4c-0.1,0.1-0.2,0.1-0.2,0.2c-0.2,0.2-0.5,0.3-0.7,0.5
			c0,0,0,0-0.1,0c-0.3,0.2-0.5,0.4-0.7,0.6c0,0-0.1,0-0.1,0.1c-0.2,0.2-0.4,0.3-0.5,0.5c-0.1,0.1-0.1,0.1-0.2,0.2
			c-0.1,0.1-0.3,0.3-0.4,0.4c-0.1,0.1-0.1,0.1-0.2,0.2c-0.1,0.1-0.2,0.2-0.3,0.4c0,0.1-0.1,0.1-0.1,0.2c-0.1,0.1-0.2,0.2-0.2,0.3
			c0,0.1-0.1,0.1-0.1,0.2c-0.1,0.1-0.1,0.2-0.2,0.3c0,0-0.1,0.1-0.1,0.1c-0.1,0.1-0.1,0.2-0.2,0.3c-0.1,0.1-0.1,0.2-0.2,0.3
			c0,0,0,0,0,0h0c-0.1,0.2-0.1,0.3-0.2,0.3c0,0,0,0.1,0.1,0.1v0c0,0.1-0.1,0.1-0.1,0.1c0,0,0.1,0.1,0.2,0.3h0c0,0,0,0,0,0
			c0,0.1,0.1,0.2,0.2,0.3c0.1,0.1,0.1,0.2,0.2,0.3c0,0,0.1,0.1,0.1,0.1c0.1,0.1,0.1,0.2,0.2,0.3c0,0,0.1,0.1,0.1,0.2
			c0.1,0.1,0.2,0.2,0.2,0.3c0,0.1,0.1,0.1,0.1,0.2c0.1,0.1,0.2,0.2,0.3,0.4c0,0.1,0.1,0.1,0.2,0.2c0.1,0.1,0.2,0.3,0.4,0.4
			c0.1,0.1,0.1,0.1,0.2,0.2c0.2,0.2,0.3,0.3,0.5,0.5c0,0,0.1,0,0.1,0.1c0.2,0.2,0.5,0.4,0.7,0.6c0,0,0,0,0.1,0
			c0.2,0.2,0.5,0.3,0.7,0.5c0.1,0.1,0.2,0.1,0.2,0.2c0.2,0.1,0.4,0.3,0.6,0.4c0.1,0.1,0.2,0.1,0.3,0.2c0.2,0.1,0.4,0.2,0.6,0.3
			c0.1,0.1,0.3,0.1,0.4,0.2c0.2,0.1,0.5,0.2,0.7,0.3c0.1,0.1,0.3,0.1,0.4,0.2c0.3,0.1,0.5,0.2,0.8,0.3c0.1,0,0.3,0.1,0.4,0.1
			c0.4,0.1,0.8,0.2,1.3,0.3c0,0-1.1,4.7,3.5,8.6c0,0,6-10.2,21.8-11.9V126.3L60.1,126.3z"></path>
		<path class="D" d="M227.2,126.3L227.2,126.3c0-0.1,0.1-0.1,0.1-0.1c0,0-0.1-0.1-0.2-0.3h0c0,0,0,0,0,0c0-0.1-0.1-0.2-0.2-0.3
			c-0.1-0.1-0.1-0.2-0.2-0.3c0,0-0.1-0.1-0.1-0.1c-0.1-0.1-0.1-0.2-0.2-0.3c0,0-0.1-0.1-0.1-0.2c-0.1-0.1-0.2-0.2-0.2-0.3
			c0-0.1-0.1-0.1-0.1-0.2c-0.1-0.1-0.2-0.2-0.3-0.4c0-0.1-0.1-0.1-0.2-0.2c-0.1-0.1-0.2-0.3-0.4-0.4c-0.1-0.1-0.1-0.1-0.2-0.2
			c-0.2-0.2-0.3-0.3-0.5-0.5c0,0-0.1,0-0.1-0.1c-0.2-0.2-0.5-0.4-0.7-0.6c0,0,0,0-0.1,0c-0.2-0.2-0.5-0.3-0.7-0.5
			c-0.1-0.1-0.2-0.1-0.2-0.2c-0.2-0.1-0.4-0.3-0.6-0.4c-0.1-0.1-0.2-0.1-0.3-0.2c-0.2-0.1-0.4-0.2-0.6-0.3c-0.1-0.1-0.3-0.1-0.4-0.2
			c-0.2-0.1-0.5-0.2-0.7-0.3c-0.1-0.1-0.3-0.1-0.4-0.2c-0.3-0.1-0.5-0.2-0.8-0.3c-0.1,0-0.3-0.1-0.4-0.1c-0.4-0.1-0.8-0.2-1.3-0.3
			c0,0,1.1-4.7-3.5-8.6c0,0-6,10.2-21.8,11.9v4v0v4c15.8,1.7,21.8,11.9,21.8,11.9c4.6-3.9,3.5-8.6,3.5-8.6c0.4-0.1,0.9-0.2,1.3-0.3
			c0.1,0,0.3-0.1,0.4-0.1c0.3-0.1,0.5-0.2,0.8-0.3c0.1-0.1,0.3-0.1,0.4-0.2c0.2-0.1,0.5-0.2,0.7-0.3c0.1-0.1,0.3-0.1,0.4-0.2
			c0.2-0.1,0.4-0.2,0.6-0.3c0.1-0.1,0.2-0.1,0.3-0.2c0.2-0.1,0.4-0.3,0.6-0.4c0.1-0.1,0.2-0.1,0.2-0.2c0.2-0.2,0.5-0.3,0.7-0.5
			c0,0,0,0,0.1,0c0.3-0.2,0.5-0.4,0.7-0.6c0,0,0.1,0,0.1-0.1c0.2-0.2,0.4-0.3,0.5-0.5c0.1-0.1,0.1-0.1,0.2-0.2
			c0.1-0.1,0.3-0.3,0.4-0.4c0.1-0.1,0.1-0.1,0.2-0.2c0.1-0.1,0.2-0.2,0.3-0.4c0-0.1,0.1-0.1,0.1-0.2c0.1-0.1,0.2-0.2,0.2-0.3
			c0-0.1,0.1-0.1,0.1-0.2c0.1-0.1,0.1-0.2,0.2-0.3c0,0,0.1-0.1,0.1-0.1c0.1-0.1,0.1-0.2,0.2-0.3c0.1-0.1,0.1-0.2,0.2-0.3
			c0,0,0,0,0,0h0c0.1-0.2,0.1-0.3,0.2-0.3C227.3,126.4,227.3,126.3,227.2,126.3z"></path>
		<path class="D" d="M161,126.3c0,0,0.1-0.1,0.1-0.1c-0.1-0.1-0.1-0.2-0.2-0.3c-0.1-0.1-0.1-0.2-0.2-0.3c0,0,0,0,0,0
			c-0.1-0.1-0.2-0.2-0.2-0.3c0,0,0,0,0,0c-0.3-0.3-0.6-0.6-1-0.9c0,0-0.1-0.1-0.1-0.1c-0.1-0.1-0.2-0.1-0.3-0.2
			c-0.1-0.1-0.2-0.1-0.3-0.2c-0.1-0.1-0.2-0.1-0.3-0.2c-0.1-0.1-0.2-0.1-0.3-0.2c-0.1-0.1-0.2-0.1-0.3-0.2c-0.1-0.1-0.2-0.2-0.4-0.2
			c-0.1-0.1-0.2-0.1-0.3-0.2c-0.1-0.1-0.3-0.2-0.4-0.2c-0.1-0.1-0.2-0.1-0.4-0.2c-0.2-0.1-0.3-0.2-0.5-0.2c-0.1-0.1-0.3-0.1-0.4-0.2
			c-0.2-0.1-0.4-0.2-0.5-0.2c-0.1-0.1-0.3-0.1-0.4-0.2c-0.2-0.1-0.4-0.2-0.6-0.2c-0.2-0.1-0.3-0.1-0.5-0.2c-0.2-0.1-0.5-0.2-0.7-0.2
			c-0.2-0.1-0.3-0.1-0.5-0.2c-0.3-0.1-0.6-0.2-0.8-0.2c-0.1,0-0.3-0.1-0.4-0.1c-0.4-0.1-0.9-0.2-1.4-0.3c0,0,0.8-8.2-2.5-4.6
			c-8.6,9.4-14.2,6.8-15.2,5.6l-0.3-0.3c-0.9-1.2-3.8-6.5,5.8-14.9c3.6-3.2-4.7-2.4-4.7-2.4c-2-9.3-6.6-11.5-6.6-11.5s0,0-0.1,0v0
			l0,0c0,0,0,0-0.1,0c0,0-0.1,0-0.1,0l0,0v0c0,0-0.1,0-0.1,0s-4.6,2.3-6.6,11.5c0,0-8.3-0.8-4.7,2.4c9.6,8.4,6.7,13.7,5.8,14.9
			L120,121c-1,1.2-6.6,3.7-15.2-5.6c-3.3-3.6-2.5,4.6-2.5,4.6c-0.5,0.1-0.9,0.2-1.4,0.3c-0.2,0-0.3,0.1-0.4,0.1
			c-0.3,0.1-0.6,0.2-0.8,0.2c-0.2,0-0.3,0.1-0.5,0.2c-0.2,0.1-0.5,0.2-0.7,0.2c-0.2,0.1-0.3,0.1-0.5,0.2c-0.2,0.1-0.4,0.2-0.6,0.2
			c-0.1,0.1-0.3,0.1-0.4,0.2c-0.2,0.1-0.4,0.2-0.5,0.2c-0.1,0.1-0.3,0.1-0.4,0.2c-0.2,0.1-0.3,0.2-0.5,0.2c-0.1,0.1-0.3,0.1-0.4,0.2
			c-0.1,0.1-0.3,0.2-0.4,0.2c-0.1,0.1-0.2,0.1-0.3,0.2c-0.1,0.1-0.3,0.2-0.4,0.2c-0.1,0.1-0.2,0.1-0.3,0.2c-0.1,0.1-0.2,0.1-0.3,0.2
			c-0.1,0.1-0.2,0.1-0.3,0.2c-0.1,0.1-0.2,0.1-0.3,0.2c-0.1,0.1-0.2,0.1-0.3,0.2c-0.1,0-0.1,0.1-0.1,0.1c-0.4,0.3-0.7,0.6-1,0.9
			c0,0,0,0,0,0c-0.1,0.1-0.2,0.2-0.2,0.3c0,0,0,0,0,0c-0.1,0.1-0.1,0.2-0.2,0.3c-0.1,0.1-0.2,0.2-0.2,0.3c0,0,0.1,0.1,0.1,0.1v0
			c0,0-0.1,0.1-0.1,0.1c0.1,0.1,0.1,0.2,0.2,0.3c0.1,0.1,0.1,0.2,0.2,0.3c0,0,0,0,0,0c0.1,0.1,0.2,0.2,0.2,0.3c0,0,0,0,0,0
			c0.3,0.3,0.6,0.6,1,0.9c0,0,0.1,0.1,0.1,0.1c0.1,0.1,0.2,0.1,0.3,0.2c0.1,0.1,0.2,0.1,0.3,0.2c0.1,0.1,0.2,0.1,0.3,0.2
			c0.1,0.1,0.2,0.1,0.3,0.2c0.1,0.1,0.2,0.1,0.3,0.2c0.1,0.1,0.2,0.2,0.4,0.2c0.1,0.1,0.2,0.1,0.3,0.2c0.1,0.1,0.3,0.2,0.4,0.2
			c0.1,0.1,0.2,0.1,0.4,0.2c0.2,0.1,0.3,0.2,0.5,0.2c0.1,0.1,0.3,0.1,0.4,0.2c0.2,0.1,0.4,0.2,0.5,0.2c0.1,0.1,0.3,0.1,0.4,0.2
			c0.2,0.1,0.4,0.2,0.6,0.2c0.2,0.1,0.3,0.1,0.5,0.2c0.2,0.1,0.5,0.2,0.7,0.2c0.2,0.1,0.3,0.1,0.5,0.2c0.3,0.1,0.6,0.2,0.8,0.2
			c0.1,0,0.3,0.1,0.4,0.1c0.4,0.1,0.9,0.2,1.4,0.3c0,0-0.8,8.2,2.5,4.6c8.6-9.4,14.2-6.8,15.2-5.6l0.3,0.3c0.9,1.2,3.8,6.5-5.8,14.9
			c-3.6,3.2,4.7,2.4,4.7,2.4c2,9.3,6.6,11.5,6.6,11.5s0,0,0.1,0v0l0,0c0,0,0,0,0.1,0c0,0,0.1,0,0.1,0l0,0v0c0,0,0.1,0,0.1,0
			s4.6-2.3,6.6-11.5c0,0,8.3,0.8,4.7-2.4c-9.6-8.4-6.7-13.7-5.8-14.9l0.3-0.3c1-1.2,6.6-3.7,15.2,5.6c3.3,3.6,2.5-4.6,2.5-4.6
			c0.5-0.1,0.9-0.2,1.4-0.3c0.2,0,0.3-0.1,0.4-0.1c0.3-0.1,0.6-0.2,0.8-0.2c0.2,0,0.3-0.1,0.5-0.2c0.2-0.1,0.5-0.2,0.7-0.2
			c0.2-0.1,0.3-0.1,0.5-0.2c0.2-0.1,0.4-0.2,0.6-0.2c0.1-0.1,0.3-0.1,0.4-0.2c0.2-0.1,0.4-0.2,0.5-0.2c0.1-0.1,0.3-0.1,0.4-0.2
			c0.2-0.1,0.3-0.2,0.5-0.2c0.1-0.1,0.3-0.1,0.4-0.2c0.1-0.1,0.3-0.2,0.4-0.2c0.1-0.1,0.2-0.1,0.3-0.2c0.1-0.1,0.3-0.2,0.4-0.2
			c0.1-0.1,0.2-0.1,0.3-0.2c0.1-0.1,0.2-0.1,0.3-0.2c0.1-0.1,0.2-0.1,0.3-0.2c0.1-0.1,0.2-0.1,0.3-0.2c0.1-0.1,0.2-0.1,0.3-0.2
			c0.1,0,0.1-0.1,0.1-0.1c0.4-0.3,0.7-0.6,1-0.9c0,0,0,0,0,0c0.1-0.1,0.2-0.2,0.2-0.3c0,0,0,0,0,0c0.1-0.1,0.1-0.2,0.2-0.3
			c0.1-0.1,0.2-0.2,0.2-0.3C161.1,126.4,161,126.3,161,126.3L161,126.3z"></path>
	</g>
</switch>

</svg>