<svg version="1.0" id="Camada_1" xmlns:x="&amp;ns_extend;" xmlns:i="&amp;ns_ai;" xmlns:graph="&amp;ns_graphs;" xmlns="http://www.w3.org/2000/svg" xmlns:xlink="http://www.w3.org/1999/xlink" x="0px" y="0px" viewBox="0 0 252.6 252.6" style="enable-background:new 0 0 252.6 252.6;" xml:space="preserve">
<switch>
	
	<g i:extraneous="self">
		<polygon id="XMLID_13_" style="fill:#D8D4CE;" points="0,0 0,0 0,0 		"></polygon>
		<path id="XMLID_12_" style="fill:#F5F3DA;" d="M0.2,0C46,0,89,12.3,126.1,33.7C161.4,13.2,202.2,1.1,245.7,0H0c0,0,0,0,0,0
			C0.1,0,0.1,0,0.2,0z"></path>
		<path id="XMLID_11_" style="fill:#F5F3DA;" d="M33.7,126.1C12.3,89,0,45.9,0,0h0v252.1h0.1c0,0,0-0.1,0-0.1
			C0.1,206.1,12.3,163.1,33.7,126.1z"></path>
		<path id="XMLID_10_" style="fill:#DDAD64;" d="M126.1,33.7C89,12.3,46,0,0.2,0C0.1,0,0.1,0,0,0c0,45.9,12.3,89,33.7,126.1
			C55.9,87.8,87.8,55.8,126.1,33.7z"></path>
		<path id="XMLID_9_" style="fill:#F5F3DA;" d="M252.1,243V6.5C251,50,238.9,90.7,218.5,126C238.5,160.6,250.6,200.5,252.1,243z"></path>
		<path id="XMLID_8_" style="fill:#F5F3DA;" d="M6.6,252.1h245.5c-45.9,0-88.9-12.3-125.9-33.7C90.8,238.9,50.1,251,6.6,252.1z"></path>
		<path id="XMLID_7_" style="fill:#DDAD64;" d="M218.5,126c-22.1,38.3-54.1,70.2-92.3,92.4c37.1,21.4,80.1,33.7,125.9,33.7V243
			C250.6,200.5,238.5,160.6,218.5,126z"></path>
		<path id="XMLID_6_" style="fill:#DDAD64;" d="M218.5,126C238.9,90.7,251,50,252.1,6.5V0h-6.4c-43.5,1.1-84.3,13.2-119.6,33.7
			C164.4,55.8,196.3,87.7,218.5,126z"></path>
		<path id="XMLID_5_" style="fill:#DDAD64;" d="M33.7,126.1C12.3,163.1,0.1,206.1,0.1,252c0,0,0,0.1,0,0.1h6.5
			c43.5-1.1,84.2-13.2,119.5-33.7C87.8,196.3,55.9,164.4,33.7,126.1z"></path>
		<path id="XMLID_2_" style="fill:#2C465C;" d="M126.1,33.7c-38.3,22.2-70.2,54.1-92.3,92.4c22.2,38.3,54.1,70.2,92.4,92.3
			c38.3-22.2,70.2-54.1,92.3-92.4C196.3,87.7,164.4,55.8,126.1,33.7z"></path>
	</g>
</switch>

</svg>