<svg version="1.1" id="Camada_1" xmlns:x="&amp;ns_extend;" xmlns:i="&amp;ns_ai;" xmlns:graph="&amp;ns_graphs;" xmlns="http://www.w3.org/2000/svg" xmlns:xlink="http://www.w3.org/1999/xlink" x="0px" y="0px" viewBox="0 0 252.6 252.6" style="enable-background:new 0 0 252.6 252.6;" xml:space="preserve">
<style type="text/css">
	.ladsvg-6058-st0{fill:#DBD3D4;}
	.ladsvg-6058-st1{fill:#7E4950;}
	.ladsvg-6058-st2{fill:#E9DCAB;}
	.ladsvg-6058-st3{fill:#7D9582;}
</style>
<switch>
	
	<g i:extraneous="self">
		<path class="ladsvg-6058-st0" d="M193.2,86.9V59.5h-27.7l-0.6-3.6c-3-18.8-19-32.5-38.1-32.5c-19.1,0-35.1,13.7-38.1,32.5l-0.6,3.6H60v27.3
			l-3.6,0.5c-18.8,2.8-32.9,19.2-32.9,38.2c0,19,14.1,35.4,32.9,38.2l3.6,0.5v28.5h28.2l0.6,3.6C91.6,215,108,229,126.9,229
			c18.8,0,35.2-14,38.1-32.6l0.6-3.6h27.7v-28.6l3.6-0.6c18.7-3.1,32.2-19.1,32.2-38c0-18.9-13.5-34.9-32.2-38L193.2,86.9z
			 M206.9,126.2c-5.1,6.2-11.9,11-19.6,13.8v10c-4.3,2.6-9.3,4.2-14.7,4.2c-9.2,0-17.5-4.4-22.5-11.3c-0.9-0.9-2.2-1.4-3.5-1.4
			c-2.8,0-5.1,2.3-5.1,5.1c0,1.7,0.8,3.2,2.1,4.2c0,0,0,0,0,0c6.5,5.1,10.6,13,10.6,21.9c0,5.4-1.6,10.4-4.2,14.7h-10
			c-2.7,7.7-7.5,14.5-13.8,19.6c-6.2-5.1-11-11.9-13.8-19.6h-10c-2.6-4.3-4.2-9.3-4.2-14.7c0-9.2,4.5-17.3,11.3-22.4l0,0
			c0.8-0.9,1.3-2.2,1.3-3.6c0-2.8-2.3-5.1-5.1-5.1c-1.5,0-2.9,0.6-3.8,1.6c0,0,0,0,0,0c-5.1,6.7-13.1,11-22.1,11
			c-5.4,0-10.4-1.6-14.7-4.2v-10c-7.7-2.7-14.5-7.5-19.6-13.8c5.1-6.2,11.9-11,19.6-13.8v-10c4.3-2.6,9.3-4.2,14.7-4.2
			c8.9,0,16.8,4.2,21.9,10.7c0,0,0,0,0,0c0.9,1.2,2.4,2,4.1,2c2.8,0,5.1-2.3,5.1-5.1c0-1.6-0.7-3-1.9-3.9c0,0,0,0,0,0
			c-6.6-5.1-10.8-13.1-10.8-22.1c0-5.4,1.6-10.4,4.2-14.7h10c2.7-7.7,7.5-14.5,13.8-19.6c6.2,5.1,11,11.9,13.8,19.6h10
			c2.6,4.3,4.2,9.3,4.2,14.7c0,8.1-3.5,15.5-9.1,20.6c0,0-0.1,0.1-0.1,0.1c-1.5,1.1-3.4,3.1-3.5,5.3c-0.1,2.8,2.3,5.1,5.1,5.1
			c1.7,0,3.2-0.8,4.2-2.1l0,0c5.1-6.4,13-10.5,21.8-10.5c5.4,0,10.4,1.6,14.7,4.2v10C195,115.2,201.8,120,206.9,126.2z"></path>
		<path class="ladsvg-6058-st0" d="M0,0v252.5h252.5V0H0z M245.4,63.3c0,0-0.7,4-6.3,7.3c0,0,2.5,17.7-13.7,14.9c0,0,7.4-19.1-11.9-20.9
			c0,0-6.5,0.3-11.7,2v13.3c20.9,5.1,35.8,23.8,35.8,45.7s-14.8,40.6-35.8,45.7v14.6c5.2,1.7,11.7,2,11.7,2
			c19.2-1.7,11.9-20.9,11.9-20.9c16.2-2.9,13.7,14.9,13.7,14.9c5.6,3.2,6.3,7.3,6.3,7.3c-1.2,4-6.3,7.3-6.3,7.3
			c15.2,26.5,2.4,44.8,2.4,44.8c-31.5,8.9-43-5.1-43-5.1s-6-6.2-16-6.2c-10,0-5.9,10.4-5.9,10.4c5.2,8.2-1,7.4-1,7.4
			c-9.4-2.9-4.7-11.6-3.6-17.9c1.2-6.2-1.3-9.1-1.3-9.1h16.6c0.1-8.4,6.6-12.6,6.6-12.6c-0.1,3.2,5.2,6.3,5.2,6.3
			c3.7-11.4,24.5-18.8,26.6-5.3c2.1,13.3-13.7,12-13.7,12c3.4,11.8,12.4,9.7,15.6,8.4c6.2-2.5,16-16.2,1.9-29.4
			c-11.8-11.1-23.4-8.4-27.7-6.9v7.9h-29c-5,21.2-23.7,36.2-45.8,36.2c-22.2,0-40.9-15-45.8-36.2H51.5v-7.6
			c-3.5-1.5-15.9-5.3-28.5,6.6c-14,13.2-4.3,26.9,1.9,29.4c3.2,1.3,12.2,3.4,15.6-8.4c0,0-15.8,1.3-13.7-12
			c2.1-13.5,22.9-6.1,26.6,5.3c0,0,5.3-3.1,5.2-6.3c0,0,6.5,4.1,6.6,12.6h16.6c0,0-2.4,2.9-1.3,9.1c1.2,6.2,5.9,15-3.6,17.9
			c0,0-6.2,0.8-1-7.4c0,0,4.1-10.4-5.9-10.4s-16,6.2-16,6.2s-13.2,13.3-43,5.1c0,0-12.8-18.3,2.4-44.8c0,0-5.2-3.2-6.3-7.3
			c0,0,0.7-4,6.3-7.3c0,0-2.5-17.7,13.7-14.9c0,0-7.4,19.1,11.9,20.9c0,0,7.2-0.3,12.5-2.2v-14.2c-21.1-4.8-36.5-24-36.5-45.9
			c0-21.9,15.5-41.1,36.5-45.9V66.8C46.1,64.9,39,64.6,39,64.6c-19.2,1.7-11.9,20.9-11.9,20.9c-16.2,2.9-13.7-14.9-13.7-14.9
			C7.7,67.3,7,63.3,7,63.3c1.2-4,6.3-7.3,6.3-7.3C-1.8,29.5,11,11.2,11,11.2c29.1-8.8,43,5.1,43,5.1s6,6.2,16,6.2s5.9-10.4,5.9-10.4
			c-5.2-8.2,1-7.4,1-7.4c9.4,2.9,4.7,11.6,3.6,17.9c-1.2,6.2,1.3,9.1,1.3,9.1H65.1c-0.1,8.4-6.6,12.6-6.6,12.6
			c0.1-3.2-5.2-6.3-5.2-6.3c-3.7,11.4-24.5,18.8-26.6,5.3c-2.1-13.3,13.7-12,13.7-12c-3.4-11.8-12.4-9.7-15.6-8.4
			c-6.2,2.5-16,16.2-1.9,29.4c12.6,11.9,25,8,28.5,6.6V51h29.6c5-21.1,23.7-36.1,45.8-36.1c22.1,0,40.8,15,45.8,36.1h29.1v8.1
			c4.3,1.6,16,4.3,27.7-6.9c14-13.2,4.3-26.9-1.9-29.4c-3.2-1.3-12.2-3.4-15.6,8.4c0,0,15.8-1.3,13.7,12
			c-2.1,13.5-22.9,6.1-26.6-5.3c0,0-5.3,3.1-5.2,6.3c0,0-6.5-4.1-6.6-12.6h-16.6c0,0,2.4-2.9,1.3-9.1c-1.2-6.2-5.9-15,3.6-17.9
			c0,0,6.2-0.8,1,7.4c0,0-4.1,10.4,5.9,10.4c10,0,16-6.2,16-6.2s11.8-14.8,43-5.1c0,0,12.8,18.3-2.4,44.8
			C239.1,56,244.3,59.3,245.4,63.3z"></path>
		<path class="ladsvg-6058-st1" d="M187.3,102.5c-4.3-2.6-9.3-4.2-14.7-4.2c-8.8,0-16.7,4.1-21.8,10.5l0,0c-0.9,1.3-2.5,2.1-4.2,2.1
			c-2.8,0-5.3-2.3-5.1-5.1c0.1-2.2,2-4.2,3.5-5.3c0,0,0.1-0.1,0.1-0.1c5.6-5.1,9.1-12.4,9.1-20.6c0-5.4-1.6-10.4-4.2-14.7h-10
			c-2.7-7.7-7.5-14.5-13.8-19.6c-6.2,5.1-11,11.9-13.8,19.6h-10c-2.6,4.3-4.2,9.3-4.2,14.7c0,9,4.2,17,10.8,22.1c0,0,0,0,0,0
			c1.1,0.9,1.9,2.4,1.9,3.9c0,2.8-2.3,5.1-5.1,5.1c-1.7,0-3.2-0.8-4.1-2c0,0,0,0,0,0c-5.1-6.5-13-10.7-21.9-10.7
			c-5.4,0-10.4,1.6-14.7,4.2v10c-7.7,2.7-14.5,7.5-19.6,13.8c5.1,6.2,11.9,11,19.6,13.8v10c4.3,2.6,9.3,4.2,14.7,4.2
			c9,0,17-4.3,22.1-11c0,0,0,0,0,0c0.9-1,2.3-1.6,3.8-1.6c2.8,0,5.1,2.3,5.1,5.1c0,1.3-0.5,2.6-1.3,3.6l0,0
			c-6.9,5.1-11.3,13.2-11.3,22.4c0,5.4,1.6,10.4,4.2,14.7h10c2.7,7.7,7.5,14.5,13.8,19.6c6.2-5.1,11-11.9,13.8-19.6h10
			c2.6-4.3,4.2-9.3,4.2-14.7c0-8.9-4.2-16.8-10.6-21.9c0,0,0,0,0,0c-1.3-0.9-2.1-2.5-2.1-4.2c0-2.8,2.3-5.1,5.1-5.1
			c1.4,0,2.6,0.5,3.5,1.4c5.1,6.9,13.3,11.3,22.5,11.3c5.4,0,10.4-1.6,14.7-4.2v-10c7.7-2.7,14.5-7.5,19.6-13.8
			c-5.1-6.2-11.9-11-19.6-13.8V102.5z M126.2,143c-9.3,0-16.8-7.5-16.8-16.8c0-9.3,7.5-16.8,16.8-16.8c9.3,0,16.8,7.5,16.8,16.8
			C143,135.5,135.5,143,126.2,143z"></path>
		<circle class="ladsvg-6058-st2" cx="126.2" cy="126.2" r="16.8"></circle>
		<path class="ladsvg-6058-st3" d="M241.5,11.2c-31.2-9.7-43,5.1-43,5.1s-6,6.2-16,6.2c-10,0-5.9-10.4-5.9-10.4c5.2-8.2-1-7.4-1-7.4
			c-9.4,2.9-4.7,11.6-3.6,17.9c1.2,6.2-1.3,9.1-1.3,9.1h16.6c0.1,8.4,6.6,12.6,6.6,12.6c-0.1-3.2,5.2-6.3,5.2-6.3
			c3.7,11.4,24.5,18.8,26.6,5.3c2.1-13.3-13.7-12-13.7-12c3.4-11.8,12.4-9.7,15.6-8.4c6.2,2.5,16,16.2,1.9,29.4
			c-11.8,11.1-23.4,8.4-27.7,6.9V51h-29.1c-5-21.1-23.7-36.1-45.8-36.1c-22.1,0-40.8,15-45.8,36.1H51.5v7.8
			c-3.5,1.5-15.9,5.3-28.5-6.6c-14-13.2-4.3-26.9,1.9-29.4c3.2-1.3,12.2-3.4,15.6,8.4c0,0-15.8-1.3-13.7,12
			c2.1,13.5,22.9,6.1,26.6-5.3c0,0,5.3,3.1,5.2,6.3c0,0,6.5-4.1,6.6-12.6h16.6c0,0-2.4-2.9-1.3-9.1c1.2-6.2,5.9-15-3.6-17.9
			c0,0-6.2-0.8-1,7.4c0,0,4.1,10.4-5.9,10.4s-16-6.2-16-6.2S40.1,2.4,11,11.2c0,0-12.8,18.3,2.4,44.8c0,0-5.2,3.2-6.3,7.3
			c0,0,0.7,4,6.3,7.3c0,0-2.5,17.7,13.7,14.9c0,0-7.4-19.1,11.9-20.9c0,0,7.2,0.3,12.5,2.2v12.9c-21.1,4.8-36.5,24-36.5,45.9
			c0,21.9,15.5,41.1,36.5,45.9v14.2c-5.4,1.9-12.5,2.2-12.5,2.2C19.7,186.2,27.1,167,27.1,167c-16.2-2.9-13.7,14.9-13.7,14.9
			c-5.6,3.2-6.3,7.3-6.3,7.3c1.2,4,6.3,7.3,6.3,7.3c-15.2,26.5-2.4,44.8-2.4,44.8c29.8,8.3,43-5.1,43-5.1s6-6.2,16-6.2
			s5.9,10.4,5.9,10.4c-5.2,8.2,1,7.4,1,7.4c9.4-2.9,4.7-11.6,3.6-17.9c-1.2-6.2,1.3-9.1,1.3-9.1H65.1c-0.1-8.4-6.6-12.6-6.6-12.6
			c0.1,3.2-5.2,6.3-5.2,6.3c-3.7-11.4-24.5-18.8-26.6-5.3c-2.1,13.3,13.7,12,13.7,12c-3.4,11.8-12.4,9.7-15.6,8.4
			c-6.2-2.5-16-16.2-1.9-29.4c12.6-11.9,25-8,28.5-6.6v7.6H81c5,21.2,23.7,36.2,45.8,36.2c22.2,0,40.9-15,45.8-36.2h29v-7.9
			c4.3-1.6,16-4.3,27.7,6.9c14,13.2,4.3,26.9-1.9,29.4c-3.2,1.3-12.2,3.4-15.6-8.4c0,0,15.8,1.3,13.7-12
			c-2.1-13.5-22.9-6.1-26.6,5.3c0,0-5.3-3.1-5.2-6.3c0,0-6.5,4.1-6.6,12.6h-16.6c0,0,2.4,2.9,1.3,9.1c-1.2,6.2-5.9,15,3.6,17.9
			c0,0,6.2,0.8,1-7.4c0,0-4.1-10.4,5.9-10.4c10,0,16,6.2,16,6.2s11.5,14,43,5.1c0,0,12.8-18.3-2.4-44.8c0,0,5.2-3.2,6.3-7.3
			c0,0-0.7-4-6.3-7.3c0,0,2.5-17.7-13.7-14.9c0,0,7.4,19.1-11.9,20.9c0,0-6.5-0.3-11.7-2v-14.6c20.9-5.1,35.8-23.8,35.8-45.7
			S222.7,85,201.8,79.9V66.5c5.2-1.7,11.7-2,11.7-2c19.2,1.7,11.9,20.9,11.9,20.9c16.2,2.9,13.7-14.9,13.7-14.9
			c5.6-3.2,6.3-7.3,6.3-7.3c-1.2-4-6.3-7.3-6.3-7.3C254.3,29.5,241.5,11.2,241.5,11.2z M229,125.6c0,18.9-13.5,34.9-32.2,38
			l-3.6,0.6v28.6h-27.7l-0.6,3.6c-2.9,18.6-19.3,32.6-38.1,32.6c-18.8,0-35.2-14-38.1-32.6l-0.6-3.6H60v-28.5l-3.6-0.5
			c-18.8-2.8-32.9-19.2-32.9-38.2c0-19,14.1-35.4,32.9-38.2l3.6-0.5V59.5h28.2l0.6-3.6c3-18.8,19-32.5,38.1-32.5
			c19.1,0,35.1,13.7,38.1,32.5l0.6,3.6h27.7v27.4l3.6,0.6C215.4,90.6,229,106.6,229,125.6z"></path>
	</g>
</switch>

</svg>