<svg version="1.1" id="Camada_1" xmlns:x="&amp;ns_extend;" xmlns:i="&amp;ns_ai;" xmlns:graph="&amp;ns_graphs;" xmlns="http://www.w3.org/2000/svg" xmlns:xlink="http://www.w3.org/1999/xlink" x="0px" y="0px" viewBox="-1291 1292.1 252.6 252.6" style="enable-background:new -1291 1292.1 252.6 252.6;" xml:space="preserve">
<style type="text/css">
	.A{fill:#F6F6F6;}
	.B{fill:#2D2E27;}
</style>
<switch>
	
	<g i:extraneous="self">
		<rect x="-1291.3" y="1292" class="A" width="252.6" height="252.6"></rect>
		<path class="A" d="M-1194,1509.1c-5.5-12.4-17.8-20.5-31.4-20.5c-1.6,0-3.2,0.1-4.7,0.3l0,0h-0.1c-1.8,0-3.2,1.4-3.2,3.2
			c0,1.6,1.2,3,2.8,3.2l0,0c10,0.7,19.1,6.1,24.3,14.7l0,0c-1.1,0.9-2.6,1.4-4,1.4c-0.1,0-0.3,0-0.4,0l0,0c-0.1,0-0.2,0-0.3,0
			c-1,0-2,0.3-2.8,0.9l0,0c2,3,3.1,6.6,3.1,10.2c0,0.1,0,0.1,0,0.2l0,0c-0.1,3.1-1.8,5.9-4.4,7.5l0,0c-1.5,0.9-3.1,1.3-4.8,1.3
			c-1.3,0-2.7-0.3-3.9-0.8l0,0c-3.3-1.6-6.1-4.3-7.9-7.5l0,0c-1,0.5-1.8,1.4-2.2,2.4l0,0c-0.6,1.5-1.8,2.7-3.3,3.3l0,0
			c-3-4.8-4.5-10.2-4.5-15.8c0-2.3,0.3-4.7,0.8-6.9l0,0v-0.1c0-1.5-1.2-2.7-2.7-2.7s-2.7,1.2-2.7,2.7c0,0.1,0,0.2,0,0.2l0,0
			c0.4,1.9,0.6,3.9,0.6,5.9c0,8-3.2,15.7-8.9,21.3l0,0c-1.3-1-2.1-2.4-2.4-4l0,0c-0.2-1.1-0.8-2.1-1.6-2.8l0,0
			c-2.5,2.7-5.8,4.6-9.4,5.5l0,0c-0.6,0.1-1.2,0.2-1.8,0.2c-2.4,0-4.8-1-6.5-2.7l0,0c-1.7-1.8-2.7-4.1-2.7-6.5
			c0-0.6,0.1-1.2,0.2-1.8l0,0c0.8-3.6,2.7-6.9,5.5-9.4l0,0c-0.7-0.8-1.7-1.4-2.8-1.6l0,0c-1.6-0.3-3-1.1-4-2.4l0,0
			c5.6-5.7,13.3-8.9,21.3-8.9c2,0,4,0.2,5.9,0.6l0,0c0.1,0,0.2,0,0.2,0c1.5,0,2.7-1.2,2.7-2.7s-1.2-2.7-2.7-2.7h-0.1l0,0
			c-2.3,0.5-4.6,0.8-6.9,0.8c-5.6,0-11.1-1.6-15.8-4.5l0,0c0.7-1.5,1.8-2.6,3.3-3.3l0,0c1-0.4,1.9-1.2,2.4-2.2l0,0
			c-3.2-1.8-5.9-4.5-7.5-7.9l0,0c-0.6-1.2-0.8-2.6-0.8-3.9c0-1.7,0.5-3.3,1.3-4.8l0,0c1.6-2.6,4.5-4.2,7.5-4.4l0,0
			c0.1,0,0.1,0,0.2,0c3.6,0,7.2,1.1,10.2,3.1l0,0c0.6-0.8,0.9-1.8,0.9-2.8c0-0.1,0-0.2,0-0.3l0,0c0-0.1,0-0.3,0-0.4
			c0-1.5,0.5-2.9,1.4-4l0,0c8.5,5.3,14,14.3,14.7,24.3l0,0c0.2,1.6,1.5,2.8,3.2,2.8c1.8,0,3.2-1.4,3.2-3.2v-0.1l0,0
			c0.2-1.6,0.3-3.2,0.3-4.7c0-13.6-8-25.9-20.5-31.4l0,0c-11-4.9-22.9-7.4-34.9-7.4c-0.2,0-0.4,0-0.6,0l0,0v104.6h104.6
			c0-0.2,0-0.4,0-0.6C-1186.7,1532-1189.2,1520.1-1194,1509.1L-1194,1509.1z"></path>
		<path class="A" d="M-1186.7,1292h-104.6v104.6c0.2,0,0.4,0,0.6,0c12,0,23.9-2.5,34.9-7.4l0,0c12.4-5.5,20.5-17.8,20.5-31.4
			c0-1.6-0.1-3.2-0.3-4.7l0,0v-0.1c0-1.8-1.4-3.2-3.2-3.2c-1.6,0-3,1.2-3.2,2.8l0,0c-0.7,10-6.1,19.1-14.7,24.3l0,0
			c-0.9-1.1-1.4-2.6-1.4-4c0-0.1,0-0.3,0-0.4l0,0c0-0.1,0-0.2,0-0.3c0-1-0.3-2-0.9-2.8l0,0c-3,2-6.6,3.1-10.2,3.1
			c-0.1,0-0.1,0-0.2,0l0,0c-3.1-0.1-5.9-1.8-7.5-4.4l0,0c-0.9-1.5-1.4-3.1-1.4-4.8c0-1.3,0.3-2.7,0.8-3.9l0,0
			c1.6-3.3,4.3-6.1,7.5-7.9l0,0c-0.5-1-1.4-1.8-2.4-2.2l0,0c-1.5-0.6-2.7-1.8-3.3-3.3l0,0c4.8-3,10.2-4.5,15.8-4.5
			c2.3,0,4.7,0.3,6.9,0.8l0,0h0.1c1.5,0,2.7-1.2,2.7-2.7s-1.2-2.7-2.7-2.7c-0.1,0-0.2,0-0.2,0l0,0c-1.9,0.4-3.9,0.6-5.9,0.6
			c-8,0-15.7-3.2-21.3-8.9l0,0c1-1.3,2.4-2.1,4-2.4l0,0c1.1-0.2,2.1-0.8,2.8-1.6l0,0c-2.7-2.5-4.6-5.8-5.5-9.4l0,0
			c-0.1-0.6-0.2-1.2-0.2-1.8c0-2.4,1-4.8,2.7-6.5l0,0c1.8-1.7,4.1-2.7,6.5-2.7c0.6,0,1.2,0.1,1.8,0.2l0,0c3.6,0.8,6.9,2.7,9.4,5.5
			l0,0c0.8-0.7,1.4-1.7,1.6-2.8l0,0c0.3-1.6,1.1-3,2.4-4l0,0c5.7,5.6,8.9,13.3,8.9,21.3c0,2-0.2,4-0.6,5.9l0,0c0,0.1,0,0.2,0,0.2
			c0,1.5,1.2,2.7,2.7,2.7s2.7-1.2,2.7-2.7v-0.1l0,0c-0.5-2.3-0.8-4.6-0.8-6.9c0-5.6,1.6-11.1,4.5-15.8l0,0c1.5,0.7,2.6,1.8,3.3,3.3
			l0,0c0.4,1,1.2,1.9,2.2,2.4l0,0c1.8-3.2,4.5-5.9,7.9-7.5l0,0c1.2-0.6,2.5-0.8,3.9-0.8c1.7,0,3.3,0.5,4.8,1.3l0,0
			c2.6,1.6,4.2,4.5,4.4,7.5l0,0c0,0.1,0,0.1,0,0.2c0,3.6-1.1,7.2-3.1,10.2l0,0c0.8,0.6,1.8,0.9,2.8,0.9c0.1,0,0.2,0,0.3,0l0,0
			c0.1,0,0.3,0,0.4,0c1.5,0,2.9,0.5,4,1.4l0,0c-5.3,8.5-14.3,14-24.3,14.7l0,0c-1.6,0.2-2.8,1.5-2.8,3.2c0,1.8,1.4,3.2,3.2,3.2h0.1
			l0,0c1.6,0.2,3.2,0.3,4.7,0.3c13.6,0,25.9-8,31.4-20.5l0,0c4.9-11,7.4-22.9,7.4-34.9C-1186.7,1292.4-1186.7,1292.2-1186.7,1292
			L-1186.7,1292z"></path>
		<path class="A" d="M-1038.7,1292h-104.6c0,0.2,0,0.4,0,0.6c0,12,2.5,23.9,7.4,34.9l0,0c5.5,12.4,17.8,20.5,31.4,20.5
			c1.6,0,3.2-0.1,4.7-0.3l0,0h0.1c1.8,0,3.2-1.4,3.2-3.2c0-1.6-1.2-3-2.8-3.2l0,0c-10-0.7-19.1-6.1-24.3-14.7l0,0
			c1.1-0.9,2.6-1.4,4-1.4c0.1,0,0.3,0,0.4,0l0,0c0.1,0,0.2,0,0.3,0c1,0,2-0.3,2.8-0.9l0,0c-2-3-3.1-6.6-3.1-10.2c0-0.1,0-0.1,0-0.2
			l0,0c0.1-3.1,1.8-5.9,4.4-7.5l0,0c1.5-0.9,3.1-1.3,4.8-1.3c1.3,0,2.7,0.3,3.9,0.8l0,0c3.3,1.6,6.1,4.3,7.9,7.5l0,0
			c1-0.5,1.8-1.4,2.2-2.4l0,0c0.6-1.5,1.8-2.7,3.3-3.3l0,0c3,4.8,4.5,10.2,4.5,15.8c0,2.3-0.3,4.7-0.8,6.9l0,0v0.1
			c0,1.5,1.2,2.7,2.7,2.7s2.7-1.2,2.7-2.7c0-0.1,0-0.2,0-0.2l0,0c-0.4-1.9-0.6-3.9-0.6-5.9c0-8,3.2-15.7,8.9-21.3l0,0
			c1.3,1,2.1,2.4,2.4,4l0,0c0.2,1.1,0.8,2.1,1.6,2.8l0,0c2.5-2.7,5.8-4.6,9.4-5.5l0,0c0.6-0.1,1.2-0.2,1.8-0.2c2.4,0,4.8,1,6.5,2.7
			l0,0c1.7,1.8,2.7,4.1,2.7,6.5c0,0.6-0.1,1.2-0.2,1.8l0,0c-0.8,3.6-2.7,6.9-5.5,9.4l0,0c0.7,0.8,1.7,1.4,2.8,1.6l0,0
			c1.6,0.3,3,1.1,4,2.4l0,0c-5.6,5.7-13.3,8.9-21.3,8.9c-2,0-4-0.2-5.9-0.6l0,0c-0.1,0-0.2,0-0.2,0c-1.5,0-2.7,1.2-2.7,2.7
			s1.2,2.7,2.7,2.7h0.1l0,0c2.3-0.5,4.6-0.8,6.9-0.8c5.6,0,11.1,1.6,15.8,4.5l0,0c-0.7,1.5-1.8,2.6-3.3,3.3l0,0
			c-1,0.4-1.9,1.2-2.4,2.2l0,0c3.2,1.8,5.9,4.5,7.5,7.9l0,0c0.6,1.2,0.8,2.6,0.8,3.9c0,1.7-0.5,3.3-1.3,4.8l0,0
			c-1.6,2.6-4.5,4.2-7.5,4.4l0,0c-0.1,0-0.1,0-0.2,0c-3.6,0-7.2-1.1-10.2-3.1l0,0c-0.6,0.8-0.9,1.8-0.9,2.8c0,0.1,0,0.2,0,0.3l0,0
			c0,0.1,0,0.3,0,0.4c0,1.5-0.5,2.9-1.4,4l0,0c-8.5-5.3-14-14.3-14.7-24.3l0,0c-0.2-1.6-1.5-2.8-3.2-2.8c-1.8,0-3.2,1.4-3.2,3.2v0.1
			l0,0c-0.2,1.6-0.3,3.2-0.3,4.7c0,13.6,8,25.9,20.5,31.4l0,0c11,4.9,22.9,7.4,34.9,7.4c0.2,0,0.4,0,0.6,0l0,0L-1038.7,1292
			L-1038.7,1292z"></path>
		<path class="A" d="M-1038.7,1440c-0.2,0-0.4,0-0.6,0c-12,0-23.9,2.5-34.9,7.4l0,0c-12.4,5.5-20.5,17.8-20.5,31.4
			c0,1.6,0.1,3.2,0.3,4.7l0,0v0.1c0,1.8,1.4,3.2,3.2,3.2c1.6,0,3-1.2,3.2-2.8l0,0c0.7-10,6.1-19.1,14.7-24.3l0,0
			c0.9,1.1,1.4,2.6,1.4,4c0,0.1,0,0.3,0,0.4l0,0c0,0.1,0,0.2,0,0.3c0,1,0.3,2,0.9,2.8l0,0c3-2,6.6-3.1,10.2-3.1c0.1,0,0.1,0,0.2,0
			l0,0c3.1,0.1,5.9,1.8,7.5,4.4l0,0c0.9,1.5,1.3,3.1,1.3,4.8c0,1.3-0.3,2.7-0.8,3.9l0,0c-1.6,3.3-4.3,6.1-7.5,7.9l0,0
			c0.5,1,1.4,1.8,2.4,2.2l0,0c1.5,0.6,2.7,1.8,3.3,3.3l0,0c-4.8,3-10.2,4.5-15.8,4.5c-2.3,0-4.7-0.3-6.9-0.8l0,0h-0.1
			c-1.5,0-2.7,1.2-2.7,2.7s1.2,2.7,2.7,2.7c0.1,0,0.2,0,0.2,0l0,0c1.9-0.4,3.9-0.6,5.9-0.6c8,0,15.7,3.2,21.3,8.9l0,0
			c-1,1.3-2.4,2.1-4,2.4l0,0c-1.1,0.2-2.1,0.8-2.8,1.6l0,0c2.7,2.5,4.6,5.8,5.5,9.4l0,0c0.1,0.6,0.2,1.2,0.2,1.8
			c0,2.4-1,4.8-2.7,6.5l0,0c-1.8,1.7-4.1,2.7-6.5,2.7c-0.6,0-1.2-0.1-1.8-0.2l0,0c-3.6-0.8-6.9-2.7-9.4-5.5l0,0
			c-0.8,0.7-1.4,1.7-1.6,2.8l0,0c-0.3,1.6-1.1,3-2.4,4l0,0c-5.7-5.6-8.9-13.3-8.9-21.3c0-2,0.2-4,0.6-5.9l0,0c0-0.1,0-0.2,0-0.2
			c0-1.5-1.2-2.7-2.7-2.7s-2.7,1.2-2.7,2.7v0.1l0,0c0.5,2.3,0.8,4.6,0.8,6.9c0,5.6-1.6,11.1-4.5,15.8l0,0c-1.5-0.7-2.6-1.8-3.3-3.3
			l0,0c-0.4-1-1.2-1.9-2.2-2.4l0,0c-1.8,3.2-4.5,5.9-7.9,7.5l0,0c-1.2,0.6-2.5,0.8-3.9,0.8c-1.7,0-3.3-0.5-4.8-1.3l0,0
			c-2.6-1.6-4.2-4.5-4.4-7.5l0,0c0-0.1,0-0.1,0-0.2c0-3.6,1.1-7.2,3.1-10.2l0,0c-0.8-0.6-1.8-0.9-2.8-0.9c-0.1,0-0.2,0-0.3,0l0,0
			c-0.1,0-0.3,0-0.4,0c-1.5,0-2.9-0.5-4-1.4l0,0c5.3-8.5,14.3-14,24.3-14.7l0,0c1.6-0.2,2.8-1.5,2.8-3.2c0-1.8-1.4-3.2-3.2-3.2h-0.1
			l0,0c-1.6-0.2-3.2-0.3-4.7-0.3c-13.6,0-25.9,8-31.4,20.5l0,0c-4.9,11-7.4,22.9-7.4,34.9c0,0.2,0,0.4,0,0.6l0,0h104.6L-1038.7,1440
			L-1038.7,1440z"></path>
		<path class="B" d="M-1228.3,1418.3c27.9-13,50.3-35.4,63.3-63.3l0,0c13,27.9,35.4,50.3,63.3,63.3l0,0
			c-27.9,13-50.3,35.4-63.3,63.3l0,0C-1178,1453.7-1200.4,1431.3-1228.3,1418.3L-1228.3,1418.3z"></path>
		<path class="B" d="M-1074.2,1447.3c11-4.9,22.9-7.4,34.9-7.4c0.2,0,0.4,0,0.6,0l0,0v-5.7c-60.9,0-110.4,49.5-110.4,110.4l0,0
			h5.7c0-0.2,0-0.4,0-0.6c0-12,2.5-23.9,7.4-34.9l0,0c5.5-12.4,17.8-20.5,31.4-20.5c1.6,0,3.2,0.1,4.7,0.3l0,0h0.1
			c1.8,0,3.2,1.4,3.2,3.2c0,1.7-1.4,3.1-3.1,3.2l0,0c-9.9,0.7-18.9,6.2-24.1,14.7l0,0c1.1,0.9,2.6,1.4,4,1.4c0.1,0,0.3,0,0.4,0l0,0
			c0.1,0,0.2,0,0.3,0c1,0,2,0.3,2.8,0.9l0,0c-2,3-3.1,6.6-3.1,10.2c0,0.1,0,0.1,0,0.2l0,0c0.1,3.1,1.8,5.9,4.4,7.5l0,0
			c1.5,0.9,3.1,1.3,4.8,1.3c1.3,0,2.7-0.3,3.9-0.8l0,0c3.3-1.6,6.1-4.3,7.9-7.5l0,0c1,0.5,1.8,1.4,2.2,2.4l0,0
			c0.6,1.5,1.8,2.7,3.3,3.3l0,0c3-4.8,4.5-10.2,4.5-15.8c0-2.3-0.3-4.7-0.8-6.9l0,0v-0.1c0-1.5,1.2-2.7,2.7-2.7s2.7,1.2,2.7,2.7
			c0,0.1,0,0.2,0,0.2l0,0c-0.4,1.9-0.6,3.9-0.6,5.9c0,8,3.2,15.7,8.9,21.3l0,0c1.3-1,2.1-2.4,2.4-4l0,0c0.2-1.1,0.8-2.1,1.6-2.8l0,0
			c2.5,2.7,5.8,4.6,9.4,5.5l0,0c0.6,0.1,1.2,0.2,1.8,0.2c2.4,0,4.8-1,6.5-2.7l0,0c1.7-1.8,2.7-4.1,2.7-6.5c0-0.6-0.1-1.2-0.2-1.8
			l0,0c-0.8-3.6-2.7-6.9-5.5-9.4l0,0c0.7-0.8,1.7-1.4,2.8-1.6l0,0c1.6-0.3,3-1.1,4-2.4l0,0c-5.6-5.7-13.3-8.9-21.3-8.9
			c-2,0-4,0.2-5.9,0.6l0,0c-0.1,0-0.2,0-0.2,0c-1.5,0-2.7-1.2-2.7-2.7s1.2-2.7,2.7-2.7h0.1l0,0c2.3,0.5,4.6,0.8,6.9,0.8
			c5.6,0,11.1-1.6,15.8-4.5l0,0c-0.7-1.5-1.8-2.6-3.3-3.3l0,0c-1-0.4-1.9-1.2-2.4-2.2l0,0c3.2-1.8,5.9-4.5,7.5-7.9l0,0
			c0.6-1.2,0.8-2.5,0.8-3.9c0-1.7-0.5-3.3-1.3-4.8l0,0c-1.6-2.6-4.5-4.2-7.5-4.4l0,0c-0.1,0-0.1,0-0.2,0c-3.6,0-7.2,1.1-10.2,3.1
			l0,0c-0.6-0.8-0.9-1.8-0.9-2.8c0-0.1,0-0.2,0-0.3l0,0c0-0.1,0-0.3,0-0.4c0-1.5-0.5-2.9-1.4-4l0,0c-8.5,5.2-13.9,14.2-14.7,24.1
			l0,0c-0.1,1.7-1.5,3.1-3.2,3.1c-1.8,0-3.2-1.4-3.2-3.2v-0.1l0,0c-0.2-1.6-0.3-3.2-0.3-4.7
			C-1094.6,1465.1-1086.6,1452.8-1074.2,1447.3L-1074.2,1447.3z"></path>
		<path class="B" d="M-1094.3,1353.1L-1094.3,1353.1c0-1.9,1.4-3.3,3.2-3.3c1.7,0,3.1,1.4,3.2,3.1l0,0c0.7,9.9,6.2,18.9,14.7,24.1
			l0,0c0.9-1.1,1.4-2.6,1.4-4c0-0.1,0-0.3,0-0.4l0,0c0-0.1,0-0.2,0-0.3c0-1,0.3-2,0.9-2.8l0,0c3,2,6.6,3.1,10.2,3.1
			c0.1,0,0.1,0,0.2,0l0,0c3.1-0.1,5.9-1.8,7.5-4.4l0,0c0.9-1.5,1.3-3.1,1.3-4.8c0-1.3-0.3-2.7-0.8-3.9l0,0c-1.6-3.3-4.3-6.1-7.5-7.9
			l0,0c0.5-1,1.4-1.8,2.4-2.2l0,0c1.5-0.6,2.7-1.8,3.3-3.3l0,0c-4.8-3-10.2-4.5-15.8-4.5c-2.3,0-4.7,0.3-6.9,0.8l0,0h-0.1
			c-1.5,0-2.7-1.2-2.7-2.7s1.2-2.7,2.7-2.7c0.1,0,0.2,0,0.2,0l0,0c1.9,0.4,3.9,0.6,5.9,0.6c8,0,15.7-3.2,21.3-8.9l0,0
			c-1-1.3-2.4-2.1-4-2.4l0,0c-1.1-0.2-2.1-0.8-2.8-1.6l0,0c2.7-2.5,4.6-5.8,5.5-9.4l0,0c0.1-0.6,0.2-1.2,0.2-1.8
			c0-2.4-1-4.8-2.7-6.5l0,0c-1.8-1.7-4.1-2.7-6.5-2.7c-0.6,0-1.2,0.1-1.8,0.2l0,0c-3.6,0.8-6.9,2.7-9.4,5.5l0,0
			c-0.8-0.7-1.4-1.7-1.6-2.8l0,0c-0.3-1.6-1.1-3-2.4-4l0,0c-5.7,5.6-8.9,13.3-8.9,21.3c0,2,0.2,4,0.6,5.9l0,0c0,0.1,0,0.2,0,0.2
			c0,1.5-1.2,2.7-2.7,2.7s-2.7-1.2-2.7-2.7v-0.1l0,0c0.5-2.3,0.8-4.6,0.8-6.9c0-5.6-1.6-11.1-4.5-15.8l0,0c-1.5,0.7-2.6,1.8-3.3,3.3
			l0,0c-0.4,1-1.2,1.9-2.2,2.4l0,0c-1.8-3.2-4.5-5.9-7.9-7.5l0,0c-1.2-0.6-2.5-0.8-3.9-0.8c-1.7,0-3.3,0.5-4.8,1.3l0,0
			c-2.6,1.6-4.2,4.5-4.4,7.5l0,0c0,0.1,0,0.1,0,0.2c0,3.6,1.1,7.2,3.1,10.2l0,0c-0.8,0.6-1.8,0.9-2.8,0.9c-0.1,0-0.2,0-0.3,0l0,0
			c-0.1,0-0.3,0-0.4,0c-1.5,0-2.9,0.5-4,1.4l0,0c5.2,8.5,14.2,13.9,24.1,14.7l0,0c1.7,0.1,3.1,1.5,3.1,3.2c0,1.8-1.4,3.2-3.2,3.2
			h-0.1l0,0c-1.6,0.2-3.2,0.3-4.7,0.3c-13.6,0-25.9-8-31.4-20.5l0,0c-4.9-11-7.4-22.9-7.4-34.9c0-0.2,0-0.4,0-0.6l0,0h-5.7
			c0,60.9,49.5,110.4,110.4,110.4l0,0v-5.7c-0.2,0-0.4,0-0.6,0c-12,0-23.9-2.5-34.9-7.4l0,0c-12.4-5.5-20.5-17.8-20.5-31.4
			C-1094.6,1356.2-1094.5,1354.6-1094.3,1353.1L-1094.3,1353.1z"></path>
		<path class="B" d="M-1180.9,1292h-5.7c0,0.2,0,0.4,0,0.6c0,12-2.5,23.9-7.4,34.9l0,0c-5.5,12.4-17.8,20.5-31.4,20.5
			c-1.6,0-3.2-0.1-4.7-0.3l0,0h-0.1c-1.8,0-3.2-1.4-3.2-3.2c0-1.7,1.4-3.1,3.1-3.2l0,0c9.9-0.7,18.9-6.2,24.1-14.7l0,0
			c-1.1-0.9-2.6-1.4-4-1.4c-0.1,0-0.3,0-0.4,0l0,0c-0.1,0-0.2,0-0.3,0c-1,0-2-0.3-2.8-0.9l0,0c2-3,3.1-6.6,3.1-10.2
			c0-0.1,0-0.1,0-0.2l0,0c-0.1-3.1-1.8-5.9-4.4-7.5l0,0c-1.7-0.9-3.3-1.4-5-1.4c-1.3,0-2.7,0.3-3.9,0.8l0,0
			c-3.3,1.6-6.1,4.3-7.9,7.5l0,0c-1-0.5-1.8-1.4-2.2-2.4l0,0c-0.6-1.5-1.8-2.7-3.3-3.3l0,0c-3,4.8-4.5,10.2-4.5,15.8
			c0,2.3,0.3,4.7,0.8,6.9l0,0v0.1c0,1.5-1.2,2.7-2.7,2.7s-2.7-1.2-2.7-2.7c0-0.1,0-0.2,0-0.2l0,0c0.4-1.9,0.6-3.9,0.6-5.9
			c0-8-3.2-15.7-8.9-21.3l0,0c-1.3,1-2.1,2.4-2.4,4l0,0c-0.2,1.1-0.8,2.1-1.6,2.8l0,0c-2.5-2.7-5.8-4.6-9.4-5.5l0,0
			c-0.6-0.1-1.2-0.2-1.8-0.2c-2.4,0-4.8,1-6.5,2.7l0,0c-1.7,1.8-2.7,4.1-2.7,6.5c0,0.6,0.1,1.2,0.2,1.8l0,0c0.8,3.6,2.7,6.9,5.5,9.4
			l0,0c-0.7,0.8-1.7,1.4-2.8,1.6l0,0c-1.6,0.3-3,1.1-4,2.4l0,0c5.6,5.7,13.3,8.9,21.3,8.9c2,0,4-0.2,5.9-0.6l0,0c0.1,0,0.2,0,0.2,0
			c1.5,0,2.7,1.2,2.7,2.7s-1.2,2.7-2.7,2.7h-0.1l0,0c-2.3-0.5-4.6-0.8-6.9-0.8c-5.6,0-11.1,1.6-15.8,4.5l0,0
			c0.7,1.5,1.8,2.6,3.3,3.3l0,0c1,0.4,1.9,1.2,2.4,2.2l0,0c-3.2,1.8-5.9,4.5-7.5,7.9l0,0c-0.6,1.2-0.8,2.6-0.8,3.9
			c0,1.7,0.5,3.3,1.3,4.8l0,0c1.6,2.6,4.5,4.2,7.5,4.4l0,0c0.1,0,0.1,0,0.2,0c3.6,0,7.2-1.1,10.2-3.1l0,0c0.6,0.8,0.9,1.8,0.9,2.8
			c0,0.1,0,0.2,0,0.3l0,0c0,0.1,0,0.3,0,0.4c0,1.5,0.5,2.9,1.4,4l0,0c8.5-5.2,13.9-14.2,14.7-24.1l0,0c0.1-1.7,1.5-3.1,3.2-3.1
			c1.8,0,3.2,1.4,3.2,3.2v0.1l0,0c0.2,1.6,0.3,3.2,0.3,4.7c0,13.6-8,25.9-20.5,31.4l0,0c-11,4.9-22.9,7.4-34.9,7.4
			c-0.2,0-0.4,0-0.6,0l0,0v5.7C-1230.4,1402.4-1180.9,1352.9-1180.9,1292L-1180.9,1292z"></path>
		<path class="B" d="M-1291.3,1434.2v5.7c0.2,0,0.4,0,0.6,0c12,0,23.9,2.5,34.9,7.4l0,0c12.4,5.5,20.5,17.8,20.5,31.4
			c0,1.6-0.1,3.2-0.3,4.7l0,0v0.1c0,1.8-1.4,3.2-3.2,3.2c-1.7,0-3.1-1.4-3.2-3.1l0,0c-0.7-9.9-6.2-18.9-14.7-24.1l0,0
			c-0.9,1.1-1.4,2.6-1.4,4c0,0.1,0,0.3,0,0.4l0,0c0,0.1,0,0.2,0,0.3c0,1-0.3,2-0.9,2.8l0,0c-3-2-6.6-3.1-10.2-3.1
			c-0.1,0-0.1,0-0.2,0l0,0c-3.1,0.1-5.9,1.8-7.5,4.4l0,0c-0.9,1.5-1.3,3.1-1.3,4.8c0,1.3,0.3,2.7,0.8,3.9l0,0
			c1.6,3.3,4.3,6.1,7.5,7.9l0,0c-0.5,1-1.4,1.8-2.4,2.2l0,0c-1.5,0.6-2.7,1.8-3.3,3.3l0,0c4.8,3,10.2,4.5,15.8,4.5
			c2.3,0,4.7-0.3,6.9-0.8l0,0h0.1c1.5,0,2.7,1.2,2.7,2.7s-1.2,2.7-2.7,2.7c-0.1,0-0.2,0-0.2,0l0,0c-1.9-0.4-3.9-0.6-5.9-0.6
			c-8,0-15.7,3.2-21.3,8.9l0,0c1,1.3,2.4,2.1,4,2.4l0,0c1.1,0.2,2.1,0.8,2.8,1.6l0,0c-2.7,2.5-4.6,5.8-5.5,9.4l0,0
			c-0.1,0.6-0.2,1.2-0.2,1.8c0,2.4,1,4.8,2.7,6.5l0,0c1.8,1.7,4.1,2.7,6.5,2.7c0.6,0,1.2-0.1,1.8-0.2l0,0c3.6-0.8,6.9-2.7,9.4-5.5
			l0,0c0.8,0.7,1.4,1.7,1.6,2.8l0,0c0.3,1.6,1.1,3,2.4,4l0,0c5.7-5.6,8.9-13.3,8.9-21.3c0-2-0.2-4-0.6-5.9l0,0c0-0.1,0-0.2,0-0.2
			c0-1.5,1.2-2.7,2.7-2.7s2.7,1.2,2.7,2.7v0.1l0,0c-0.5,2.3-0.8,4.6-0.8,6.9c0,5.6,1.6,11.1,4.5,15.8l0,0c1.5-0.7,2.6-1.8,3.3-3.3
			l0,0c0.4-1,1.2-1.9,2.2-2.4l0,0c1.8,3.2,4.5,5.9,7.9,7.5l0,0c1.2,0.6,2.5,0.8,3.9,0.8c1.7,0,3.3-0.5,4.8-1.3l0,0
			c2.6-1.6,4.2-4.5,4.4-7.5l0,0c0-0.1,0-0.1,0-0.2c0-3.6-1.1-7.2-3.1-10.2l0,0c0.8-0.6,1.8-0.9,2.8-0.9c0.1,0,0.2,0,0.3,0l0,0
			c0.1,0,0.3,0,0.4,0c1.5,0,2.9-0.5,4-1.4l0,0c-5.2-8.5-14.2-13.9-24.1-14.7l0,0c-1.7-0.1-3.1-1.5-3.1-3.2c0-1.8,1.4-3.2,3.2-3.2
			h0.1l0,0c1.6-0.2,3.2-0.3,4.7-0.3c13.6,0,25.9,8,31.4,20.5l0,0c4.9,11,7.4,22.9,7.4,34.9c0,0.2,0,0.4,0,0.6l0,0h5.7
			C-1180.9,1483.7-1230.4,1434.2-1291.3,1434.2L-1291.3,1434.2z"></path>
		<path class="A" d="M-1176.3,1418.3c0-6.3,5.1-11.3,11.3-11.3c6.3,0,11.3,5.1,11.3,11.3c0,6.3-5.1,11.3-11.3,11.3
			C-1171.3,1429.6-1176.3,1424.6-1176.3,1418.3L-1176.3,1418.3z"></path>
		<path class="A" d="M-1174.4,1400.1l-4.2-3.7l13.6-17.1l13.6,17.1l-4.2,3.7c-2.9-1.5-6-2.3-9.3-2.3l0,0
			C-1168.2,1397.9-1171.4,1398.6-1174.4,1400.1L-1174.4,1400.1z"></path>
		<path class="A" d="M-1146.8,1427.7c1.5-2.9,2.3-6,2.3-9.3l0,0c-0.1-3.3-0.8-6.6-2.3-9.5l0,0l3.7-4.2l17.1,13.6l-17.1,13.6
			L-1146.8,1427.7z"></path>
		<path class="A" d="M-1186.9,1431.9l-17.1-13.6l17.1-13.6l3.7,4.2c-1.5,2.9-2.3,6-2.3,9.3l0,0c0.1,3.3,0.8,6.6,2.3,9.5l0,0
			L-1186.9,1431.9z"></path>
		<path class="A" d="M-1178.6,1440.2l4.2-3.7c2.9,1.5,6,2.3,9.3,2.3l0,0c3.3-0.1,6.6-0.8,9.5-2.3l0,0l4.2,3.7l-13.6,17.1
			L-1178.6,1440.2z"></path>
	</g>
</switch>

</svg>