<svg version="1.1" id="Camada_1" xmlns:x="&amp;ns_extend;" xmlns:i="&amp;ns_ai;" xmlns:graph="&amp;ns_graphs;" xmlns="http://www.w3.org/2000/svg" xmlns:xlink="http://www.w3.org/1999/xlink" x="0px" y="0px" viewBox="-1291 1292.1 252.6 252.6" style="enable-background:new -1291 1292.1 252.6 252.6;" xml:space="preserve">
<style type="text/css">
	.A{fill:#F5F4F4;}
	.B{fill:#2D2E27;}
</style>
<switch>
	
	<g i:extraneous="self">
		<rect x="-1291" y="1292.3" class="A" width="252.4" height="252.4"></rect>
		
			<rect x="-1272.4" y="1373.6" transform="matrix(-0.7071 -0.7071 0.7071 -0.7071 -3098.7334 1552.8202)" class="A" width="89.2" height="89.2"></rect>
		<polygon class="A" points="-1227.9,1481.5 -1291,1544.6 -1164.8,1544.6 		"></polygon>
		<polygon class="A" points="-1038.6,1292.2 -1164.8,1292.2 -1101.7,1355.3 		"></polygon>
		
			<rect x="-1146.2" y="1373.6" transform="matrix(-0.7071 -0.7071 0.7071 -0.7071 -2883.3003 1642.0343)" class="A" width="89.2" height="89.2"></rect>
		<polygon class="A" points="-1101.7,1481.5 -1164.8,1544.6 -1038.6,1544.6 		"></polygon>
		<polygon class="B" points="-1038.6,1292.3 -1101.7,1355.3 -1038.6,1418.6 		"></polygon>
		<polygon class="B" points="-1227.9,1355.3 -1291,1292.3 -1291,1418.6 		"></polygon>
		<polygon class="B" points="-1227.9,1481.7 -1291,1418.6 -1291,1544.8 		"></polygon>
		<polygon class="B" points="-1038.6,1418.6 -1101.7,1481.7 -1038.6,1544.8 		"></polygon>
		
			<rect x="-1209.4" y="1436.8" transform="matrix(-0.7071 0.7071 -0.7071 -0.7071 -940.9434 3352.5532)" class="B" width="89.2" height="89.2"></rect>
		
			<rect x="-1209.4" y="1310.6" transform="matrix(-0.7071 -0.7071 0.7071 -0.7071 -2946.6636 1489.8832)" class="B" width="89.2" height="89.2"></rect>
	</g>
</switch>

</svg>