<svg version="1.1" id="Camada_1" xmlns:x="&amp;ns_extend;" xmlns:i="&amp;ns_ai;" xmlns:graph="&amp;ns_graphs;" xmlns="http://www.w3.org/2000/svg" xmlns:xlink="http://www.w3.org/1999/xlink" x="0px" y="0px" viewBox="-1291 1292.1 252.6 252.6" style="enable-background:new -1291 1292.1 252.6 252.6;" xml:space="preserve">
<style type="text/css">
	.ladsvg-3367-st0{fill:#F5F4F4;}
	.ladsvg-3367-st1{fill:#7B7970;}
</style>
<switch>
	
	<g i:extraneous="self">
		<rect x="-1291.2" y="1292" class="ladsvg-3367-st0" width="252.8" height="252.8"></rect>
		<polygon class="ladsvg-3367-st1" points="-1119.9,1418.3 -1133,1386.6 -1164.8,1373.5 -1196.5,1386.6 -1209.7,1418.3 -1196.5,1450.1 
			-1164.8,1463.3 -1133,1450.1 		"></polygon>
		<polygon class="ladsvg-3367-st1" points="-1246.3,1292 -1291.2,1292 -1291.2,1336.9 -1259.4,1323.7 		"></polygon>
		<polygon class="ladsvg-3367-st1" points="-1094.8,1292 -1234.8,1292 -1249.1,1326.5 -1199.4,1376.3 -1164.8,1362 -1130.2,1376.3 
			-1080.5,1326.5 		"></polygon>
		<polygon class="ladsvg-3367-st1" points="-1038.4,1292 -1083.3,1292 -1070.1,1323.7 -1038.4,1336.9 		"></polygon>
		<polygon class="ladsvg-3367-st1" points="-1038.4,1499.9 -1070.1,1513 -1083.3,1544.8 -1038.4,1544.8 		"></polygon>
		<polygon class="ladsvg-3367-st1" points="-1038.4,1348.3 -1072.9,1334.1 -1122.7,1383.8 -1108.4,1418.3 -1122.7,1453 -1072.9,1502.7 
			-1038.4,1488.3 		"></polygon>
		<polygon class="ladsvg-3367-st1" points="-1221.2,1418.3 -1206.9,1383.8 -1256.6,1334.1 -1291.2,1348.3 -1291.2,1488.3 -1256.6,1502.7 
			-1206.9,1453 		"></polygon>
		<polygon class="ladsvg-3367-st1" points="-1080.5,1510.2 -1130.2,1460.5 -1164.8,1474.8 -1199.4,1460.5 -1249.1,1510.2 -1234.8,1544.8 
			-1094.8,1544.8 		"></polygon>
		<polygon class="ladsvg-3367-st1" points="-1259.4,1513 -1291.2,1499.9 -1291.2,1544.8 -1246.3,1544.8 		"></polygon>
		<polygon class="ladsvg-3367-st0" points="-1185.8,1418.3 -1179.7,1403.5 -1164.8,1397.3 -1149.9,1403.5 -1143.7,1418.3 -1149.9,1433.3 
			-1164.8,1439.3 -1179.7,1433.3 		"></polygon>
	</g>
</switch>

</svg>