<svg version="1.1" id="Camada_1" xmlns:x="&amp;ns_extend;" xmlns:i="&amp;ns_ai;" xmlns:graph="&amp;ns_graphs;" xmlns="http://www.w3.org/2000/svg" xmlns:xlink="http://www.w3.org/1999/xlink" x="0px" y="0px" viewBox="0 0 252.6 252.6" style="enable-background:new 0 0 252.6 252.6;" xml:space="preserve">
<style type="text/css">
	.A{fill:#C48349;}
	.B{fill:#025278;}
	.C{fill:#B1B461;}
	.D{fill:#F9F8DE;}
	.E{fill:#DDB56A;}
</style>
<switch>
	
	<g i:extraneous="self">
		<rect id="XMLID_39_" x="0" y="0" class="A" width="252.6" height="252.6"></rect>
		<path id="XMLID_36_" class="B" d="M243.6,219c-12.6-28.3-19.6-59.6-19.6-92.6s7-64.3,19.6-92.6c0,0,5.3-13.8-3-22.3
			c-8.2-8.4-21.7-2.8-21.7-2.8c-28.3,12.6-59.6,19.6-92.6,19.6S62,21.4,33.7,8.8c0,0-13.9-4.9-22,2.5c-8.3,7.7-3.2,22.5-3.2,22.5
			c12.6,28.3,19.6,59.6,19.6,92.6s-7,64.3-19.6,92.6c0,0-4.8,12.9,3.3,21.9c7.4,8.2,21.9,2.9,21.9,2.9
			c28.3-12.6,59.6-19.6,92.6-19.6s64.3,7,92.6,19.6c0,0,14.3,5.4,22.1-2.5C249.2,232.9,243.6,219,243.6,219z"></path>
		<path id="XMLID_27_" class="C" d="M228.4,228.4c2.3-1.6,0.1-10.4-3.5-21.4c-3.1-9.4-6.8-26.9-23.2-46.7c-1-1.2-3.7-5.1-4.4-6.4
			c-0.6-1.2-1.1-3.4,1.8-4.9c0.4-0.2,2.4-1.1,3.9,0.6c0.1,0.2,2.9,3.7,6.6,3.7c0.1,0,0.1,0,0.2,0c0.2,0,0.4,0,0.6,0
			c4-0.1,8.6-0.2,8.6-26.6v-0.3c0-26.5-4.6-26.6-8.6-26.6c-0.2,0-0.4,0-0.6,0c-0.1,0-0.1,0-0.2,0c-3.7,0-6.5,3.6-6.6,3.7
			c-1.5,1.7-3.5,0.8-3.9,0.6c-2.9-1.5-2.3-3.7-1.8-4.9c0.6-1.3,3.4-5.2,4.4-6.4c15.4-19.9,20.7-36,23.2-45.7
			c3-11.5,5.3-20.7,3.5-22.4c-2.6-2.3-11.7-0.8-22.6,2.8c-9.4,3.1-25.7,8-45.4,23.8c-1.2,1-5.1,3.7-6.4,4.4
			c-1.2,0.6-3.4,1.1-4.9-1.8c-0.2-0.4-1.1-2.4,0.6-3.9c0.2-0.1,3.9-3,3.7-6.8c0-0.2,0-0.4,0-0.6c-0.1-4-0.2-8.6-26.6-8.6l-0.4,0
			c-26.5,0-26.6,4.6-26.6,8.6c0,0.2,0,0.4,0,0.6c-0.1,3.8,3.6,6.7,3.7,6.8c1.7,1.5,0.8,3.5,0.6,3.9c-1.5,2.9-3.7,2.3-4.9,1.8
			c-1.3-0.6-5.2-3.4-6.4-4.4c-20.1-15.9-36.4-20.9-45.9-24C35.8,23.8,27,22,24.6,24.7c-1.7,2-0.4,11.4,3.2,22.4
			c3.1,9.4,8.2,25,23.5,45.6c0.9,1.3,3.7,5.1,4.4,6.4c0.6,1.2,1.1,3.4-1.8,4.9c-0.4,0.2-2.4,1.1-3.9-0.6c-0.1-0.2-2.9-3.7-6.6-3.7
			c-0.1,0-0.1,0-0.2,0c-0.2,0-0.4,0-0.6,0c-4,0.1-8.6,0.2-8.6,26.6v0.3c0,26.5,4.6,26.6,8.6,26.6c0.2,0,0.4,0,0.6,0
			c0.1,0,0.1,0,0.2,0c3.7,0,6.5-3.6,6.6-3.7c1.5-1.7,3.5-0.8,3.9-0.6c2.9,1.5,2.3,3.7,1.8,4.9c-0.6,1.3-3.4,5.2-4.4,6.4
			c-16.3,19.8-20.7,35.6-23.8,45c-3.6,10.9-5.9,20.5-2.8,23l0,0c2,1.9,11,0,21.9-3.6c9.4-3.1,25.8-8.6,46.1-23.1
			c1.3-0.9,5.1-3.7,6.4-4.4c1.2-0.6,3.4-1.1,4.9,1.8c0.2,0.4,1.1,2.4-0.6,3.9c-0.2,0.1-3.9,3-3.7,6.8c0,0.2,0,0.4,0,0.6
			c0.1,4,0.2,8.6,26.6,8.6h0.3c26.5,0,26.6-4.6,26.6-8.6c0-0.2,0-0.4,0-0.6c0.1-3.8-3.6-6.7-3.7-6.8c-1.7-1.5-0.8-3.5-0.6-3.9
			c1.5-2.9,3.7-2.3,4.9-1.8c1.3,0.6,5.2,3.4,6.4,4.4c19.8,16.3,37.6,20,47,23.1C212.8,226.6,226.3,230.2,228.4,228.4L228.4,228.4z"></path>
		<path id="XMLID_20_" class="D" d="M183.4,149c-0.7-1-1.2-2.2-1.2-3.5c0-3.2,2.6-5.8,5.8-5.8c1.6,0,3.1,0.7,4.1,1.7
			c1.4,2,3.1,3.1,4.9,3.1c4.8,0,8.7-8.1,8.7-18.1c0-10-3.9-18.1-8.7-18.1c-1.7,0-3.2,1-4.6,2.7l0,0c-1.1,1.3-2.7,2.1-4.5,2.1
			c-3.2,0-5.8-2.6-5.8-5.8c0-1.4,0.5-2.7,1.3-3.7l-0.2,0.1l0,0c24.9-30.1,36-59.9,30.5-65.3c-5.5-5.5-34.9,5.5-64.8,30.1l0,0
			c-1,0.8-2.3,1.3-3.7,1.3c-3.2,0-5.8-2.6-5.8-5.8c0-1.6,0.7-3.1,1.7-4.1c2-1.4,3.1-3.1,3.1-4.9c0-4.8-8.1-8.7-18.1-8.7
			c-10,0-18.1,3.9-18.1,8.7c0,1.7,1,3.2,2.7,4.6l0,0c1.3,1.1,2.1,2.7,2.1,4.5c0,3.2-2.6,5.8-5.8,5.8c-1.4,0-2.7-0.5-3.7-1.3l0,0
			c-30-24.6-59.4-35.5-64.8-30.1c-5.5,5.5,5.6,35.1,30.4,65.2c0.8,1,1.3,2.3,1.3,3.6c0,3.2-2.6,5.8-5.8,5.8c-1.8,0-3.4-0.8-4.5-2.1
			l0,0c-1.3-1.7-2.9-2.7-4.6-2.7c-4.8,0-8.7,8.1-8.7,18.1c0,10,3.9,18.1,8.7,18.1c1.8,0,3.5-1.2,4.9-3.1c1.1-1.1,2.5-1.7,4.1-1.7
			c3.2,0,5.8,2.6,5.8,5.8c0,1.4-0.5,2.7-1.3,3.7l0,0c-24.8,30.1-35.9,59.8-30.5,65.2c5.6,5.6,35.2-5.6,65.4-30.6
			c0.9-0.5,1.9-0.8,3-0.8c3.2,0,5.8,2.6,5.8,5.8c0,1.8-0.8,3.4-2.1,4.5l0,0c-1.7,1.3-2.7,2.9-2.7,4.6c0,4.8,8.1,8.7,18.1,8.7
			c10,0,18.1-3.9,18.1-8.7c0-1.8-1.2-3.5-3.1-4.9c-1.1-1.1-1.7-2.5-1.7-4.1c0-3.2,2.6-5.8,5.8-5.8c1.4,0,2.7,0.5,3.7,1.3l0-0.1
			c30,24.7,59.5,35.7,65,30.2C219.3,208.7,208.2,179.1,183.4,149z"></path>
		<path id="XMLID_5_" class="A" d="M174.2,140.1c5.7-3.2,10.3-8,13.3-13.9c-3-6-7.8-10.9-13.6-14.1l0,0c-1.4-0.9-2.4-2.5-2.4-4.4
			c0-2.9,2.3-5.2,5.2-5.2l1,0.1c-2.6-0.7-5.3-1-8.1-1c-7.7,0-14.8,2.7-20.4,7.1l-0.1-0.1c-0.7,0.6-1.5,0.9-2.5,0.9
			c-2.1,0-3.8-1.7-3.8-3.8c0-0.8,0.2-1.5,0.7-2.1c4.6-5.7,7.4-12.9,7.4-20.7c0-2.7-0.3-5.3-0.9-7.7l0,0.6c0,2.9-2.3,5.2-5.2,5.2
			c-2,0-3.7-1.1-4.6-2.7c-3.2-5.7-8-10.3-13.9-13.3c-6,3-10.9,7.8-14.1,13.6l0,0c-0.9,1.4-2.5,2.4-4.4,2.4c-2.9,0-5.2-2.3-5.2-5.2
			l0.1-1c-0.7,2.6-1,5.3-1,8.1c0,7.7,2.7,14.7,7.1,20.3l-0.1,0.1c0.6,0.7,0.9,1.5,0.9,2.5c0,2.1-1.7,3.8-3.8,3.8
			c-0.9,0-1.8-0.3-2.5-0.9l0,0c-5.6-4.4-12.6-7.1-20.3-7.1c-2.7,0-5.3,0.3-7.7,0.9l0.6,0c2.9,0,5.2,2.3,5.2,5.2c0,2-1.1,3.7-2.7,4.6
			c-5.7,3.2-10.3,8-13.3,13.9c3,6,7.8,10.9,13.6,14.1l0,0c1.4,0.9,2.4,2.5,2.4,4.4c0,2.9-2.3,5.2-5.2,5.2l-1-0.1
			c2.6,0.7,5.3,1,8.1,1c7.6,0,14.6-2.6,20.2-7l0,0.1c0.7-0.6,1.6-1,2.6-1c2.1,0,3.8,1.7,3.8,3.8c0,0.9-0.3,1.7-0.8,2.4l0,0
			c-4.4,5.6-7.1,12.7-7.1,20.4c0,2.7,0.3,5.3,0.9,7.7l0-0.6c0-2.9,2.3-5.2,5.2-5.2c2,0,3.7,1.1,4.6,2.7c3.2,5.7,8,10.3,13.9,13.3
			c6-3,10.9-7.8,14.1-13.6l0,0c0.9-1.4,2.5-2.4,4.4-2.4c2.9,0,5.2,2.3,5.2,5.2l-0.1,1c0.7-2.6,1-5.3,1-8.1c0-8-2.9-15.3-7.7-21
			c-0.3-0.5-0.4-1.1-0.4-1.7c0-2.1,1.7-3.8,3.8-3.8c0.9,0,1.8,0.3,2.5,0.9l0.1-0.2c5.6,4.4,12.7,7.1,20.4,7.1c2.7,0,5.3-0.3,7.7-0.9
			l-0.6,0c-2.9,0-5.2-2.3-5.2-5.2C171.5,142.8,172.6,141,174.2,140.1z"></path>
		<path id="XMLID_2_" class="E" d="M126.3,152.1c0,0,0-0.1,0-0.1c0-13.9,11-25.1,24.7-25.7c-13.7-0.6-24.7-11.8-24.7-25.7
			c0,0,0-0.1,0-0.1h-0.2c0,0,0,0.1,0,0.1c0,13.9-11,25.1-24.7,25.7c13.7,0.6,24.7,11.8,24.7,25.7c0,0,0,0.1,0,0.1H126.3z"></path>
	</g>
</switch>

</svg>