<svg version="1.1" id="Camada_1" xmlns:x="&amp;ns_extend;" xmlns:i="&amp;ns_ai;" xmlns:graph="&amp;ns_graphs;" xmlns="http://www.w3.org/2000/svg" xmlns:xlink="http://www.w3.org/1999/xlink" x="0px" y="0px" viewBox="-1291 1292.1 252.6 252.6" style="enable-background:new -1291 1292.1 252.6 252.6;" xml:space="preserve">
<style type="text/css">
	.ladsvg-8312-st0{fill:#F5F3F3;}
	.ladsvg-8312-st1{fill:none;}
	.ladsvg-8312-st2{fill:#E6BB7B;}
	.ladsvg-8312-st3{fill:#7B7970;}
</style>
<switch>
	
	<g i:extraneous="self">
		<rect x="-1291" y="1291.4" class="ladsvg-8312-st0" width="252.6" height="253.4"></rect>
		<rect x="-1291" y="1291.4" class="ladsvg-8312-st1" width="252.6" height="253.4"></rect>
		<polygon class="ladsvg-8312-st2" points="-1291,1363.9 -1220.6,1291.4 -1291,1291.4 		"></polygon>
		<polygon class="ladsvg-8312-st1" points="-1291,1363.9 -1220.6,1291.4 -1291,1291.4 		"></polygon>
		<polygon class="ladsvg-8312-st2" points="-1038.3,1473.2 -1110.2,1544.8 -1038.3,1544.8 		"></polygon>
		<polygon class="ladsvg-8312-st1" points="-1038.3,1473.2 -1110.2,1544.8 -1038.3,1544.8 		"></polygon>
		<polygon class="ladsvg-8312-st3" points="-1220,1544.8 -1291,1473.2 -1291,1544.8 		"></polygon>
		<polygon class="ladsvg-8312-st1" points="-1220,1544.8 -1291,1473.2 -1291,1544.8 		"></polygon>
		<polygon class="ladsvg-8312-st3" points="-1110.2,1291.4 -1038.3,1363.9 -1038.3,1291.4 		"></polygon>
		<polygon class="ladsvg-8312-st1" points="-1110.2,1291.4 -1038.3,1363.9 -1038.3,1291.4 		"></polygon>
		<polygon class="ladsvg-8312-st2" points="-1220.3,1292.1 -1216.6,1362.2 -1168.7,1408.6 -1168.7,1349.2 		"></polygon>
		<polygon class="ladsvg-8312-st2" points="-1160.7,1427.8 -1160.7,1492.6 -1111.7,1544.7 -1114.2,1474.9 		"></polygon>
		<polygon class="ladsvg-8312-st3" points="-1108.6,1367.9 -1155,1414 -1096.8,1414 -1039.8,1364 		"></polygon>
		<polygon class="ladsvg-8312-st3" points="-1231.9,1422 -1292.8,1472.9 -1221.7,1469.2 -1174.4,1422 		"></polygon>
		<polygon class="ladsvg-8312-st3" points="-1160.7,1349.1 -1160.7,1408.4 -1114.2,1362.2 -1110.5,1292.1 		"></polygon>
		<polygon class="ladsvg-8312-st3" points="-1216,1474.9 -1221.2,1544.7 -1168.7,1492.5 -1168.7,1427.7 		"></polygon>
		<polygon class="ladsvg-8312-st2" points="-1040.4,1472.3 -1096.8,1422 -1155.1,1422 -1108.5,1469.2 		"></polygon>
		<polygon class="ladsvg-8312-st2" points="-1174.6,1414 -1222.2,1367.9 -1291,1364 -1231.9,1414 		"></polygon>
	</g>
</switch>

</svg>