<svg version="1.1" id="Camada_1" xmlns:x="&amp;ns_extend;" xmlns:i="&amp;ns_ai;" xmlns:graph="&amp;ns_graphs;" xmlns="http://www.w3.org/2000/svg" xmlns:xlink="http://www.w3.org/1999/xlink" x="0px" y="0px" viewBox="-1291 1292.1 252.6 252.6" style="enable-background:new -1291 1292.1 252.6 252.6;" xml:space="preserve">
<style type="text/css">
	.A{fill:#FFFFFF;}
	.B{fill:#F5F4F4;}
	.C{fill:#2D2E27;}
	.D{fill:#7B7970;}
</style>
<switch>
	
	<g i:extraneous="self">
		<g id="Camada_1_1_">
		</g>
		<rect x="-1291" y="1292.3" class="A" width="252.5" height="252.5"></rect>
		<polygon class="B" points="-1038.8,1292.3 -1122.9,1292.3 -1080.8,1313.3 		"></polygon>
		<polygon class="B" points="-1122.9,1292.3 -1206.9,1292.3 -1164.9,1313.3 		"></polygon>
		<polygon class="B" points="-1206.9,1292.3 -1291,1292.3 -1249,1313.3 		"></polygon>
		<polygon class="B" points="-1291,1334.3 -1291,1376.3 -1249,1355.3 		"></polygon>
		<polygon class="B" points="-1206.9,1334.3 -1249,1355.3 -1206.9,1376.3 -1164.9,1355.3 		"></polygon>
		<polygon class="B" points="-1080.8,1355.3 -1122.9,1334.3 -1164.9,1355.3 -1122.9,1376.3 		"></polygon>
		<polygon class="B" points="-1038.5,1334.2 -1080.8,1355.3 -1038.5,1376.5 		"></polygon>
		<polygon class="B" points="-1080.8,1397.3 -1122.6,1418.2 -1080.8,1439 -1039.3,1418.1 		"></polygon>
		<polygon class="B" points="-1123.1,1418.2 -1164.9,1397.3 -1206.9,1418.3 -1164.8,1439.3 		"></polygon>
		<polygon class="B" points="-1206.9,1418.3 -1249,1397.3 -1291,1418.3 -1291,1418.6 -1248.9,1439.5 		"></polygon>
		<polygon class="B" points="-1249,1481.3 -1291,1460.3 -1291,1502.3 		"></polygon>
		<polygon class="B" points="-1164.9,1481.3 -1206.9,1460.3 -1249,1481.3 -1206.9,1502.3 		"></polygon>
		<polygon class="B" points="-1122.9,1460.3 -1164.9,1481.3 -1122.9,1502.3 -1080.8,1481.3 		"></polygon>
		<polygon class="B" points="-1038.5,1460.3 -1080.8,1481.3 -1038.5,1502.6 		"></polygon>
		<polygon class="B" points="-1080.8,1523.7 -1122.9,1544.7 -1038.8,1544.7 		"></polygon>
		<polygon class="B" points="-1164.9,1523.7 -1206.9,1544.7 -1122.9,1544.7 		"></polygon>
		<polygon class="B" points="-1249,1523.7 -1291,1544.7 -1206.9,1544.7 		"></polygon>
		<polygon class="C" points="-1038.5,1376.5 -1080.8,1355.3 -1080.8,1397.3 -1039.3,1418.1 -1038.5,1417.7 		"></polygon>
		<polygon class="C" points="-1080.8,1313.3 -1122.9,1292.3 -1122.9,1334.3 -1080.8,1355.3 		"></polygon>
		<polygon class="C" points="-1038.5,1502.6 -1080.8,1481.3 -1080.8,1523.7 -1038.8,1544.7 -1038.5,1544.7 		"></polygon>
		<polygon class="C" points="-1080.8,1439 -1122.4,1418.3 -1122.9,1418.3 -1122.9,1460.3 -1080.8,1481.3 		"></polygon>
		<polygon class="C" points="-1122.9,1376.3 -1164.9,1355.3 -1164.9,1397.3 -1123.1,1418.2 -1122.9,1418.1 		"></polygon>
		<polygon class="C" points="-1164.9,1313.3 -1206.9,1292.3 -1206.9,1334.3 -1164.9,1355.3 		"></polygon>
		<polygon class="C" points="-1206.9,1502.3 -1249,1481.3 -1249,1523.7 -1206.9,1544.7 		"></polygon>
		<polygon class="C" points="-1249,1439.5 -1291,1418.6 -1291,1460.3 -1249,1481.3 		"></polygon>
		<polygon class="C" points="-1122.9,1502.3 -1164.9,1481.3 -1164.9,1523.7 -1122.9,1544.7 		"></polygon>
		<polygon class="C" points="-1164.9,1439.2 -1206.9,1418.3 -1206.9,1460.3 -1164.9,1481.3 		"></polygon>
		<polygon class="C" points="-1206.9,1376.3 -1249,1355.3 -1249,1397.3 -1206.9,1418.3 		"></polygon>
		<polygon class="C" points="-1249,1313.3 -1291,1292.3 -1291,1334.3 -1249,1355.3 		"></polygon>
		<polygon class="D" points="-1038.5,1292.3 -1038.8,1292.3 -1080.8,1313.3 -1080.8,1355.3 -1038.5,1334.2 		"></polygon>
		<polygon class="D" points="-1122.9,1292.3 -1164.9,1313.3 -1164.9,1355.3 -1122.9,1334.3 		"></polygon>
		<polygon class="D" points="-1080.8,1355.3 -1122.9,1376.3 -1122.9,1418.1 -1122.6,1418.2 -1080.8,1397.3 		"></polygon>
		<polygon class="D" points="-1038.5,1418.5 -1038.8,1418.3 -1039.8,1418.3 -1080.8,1439 -1080.8,1481.3 -1038.5,1460.3 		"></polygon>
		<polygon class="D" points="-1080.8,1481.3 -1122.9,1502.3 -1122.9,1544.7 -1080.8,1523.7 		"></polygon>
		<polygon class="D" points="-1122.9,1418.3 -1123.4,1418.3 -1164.9,1439.3 -1164.9,1481.3 -1122.9,1460.3 		"></polygon>
		<polygon class="D" points="-1164.9,1355.3 -1206.9,1376.3 -1206.9,1418.3 -1164.9,1397.3 		"></polygon>
		<polygon class="D" points="-1206.9,1292.3 -1249,1313.3 -1249,1355.3 -1206.9,1334.3 		"></polygon>
		<polygon class="D" points="-1249,1355.3 -1291,1376.3 -1291,1418.3 -1249,1397.3 		"></polygon>
		<polygon class="D" points="-1206.9,1418.3 -1249,1439.5 -1249,1481.3 -1206.9,1460.3 		"></polygon>
		<polygon class="D" points="-1164.9,1481.3 -1206.9,1502.3 -1206.9,1544.7 -1164.9,1523.7 		"></polygon>
		<polygon class="D" points="-1249,1481.3 -1291,1502.3 -1291,1544.7 -1249,1523.7 		"></polygon>
	</g>
</switch>

</svg>