<svg version="1.0" xmlns:x="&amp;ns_extend;" xmlns:i="&amp;ns_ai;" xmlns:graph="&amp;ns_graphs;" xmlns="http://www.w3.org/2000/svg" xmlns:xlink="http://www.w3.org/1999/xlink" x="0px" y="0px" viewBox="-1308.7 1292.1 219.5 252.6" style="enable-background:new -1308.7 1292.1 219.5 252.6;" xml:space="preserve">
<style type="text/css">
	.A{fill:#2D2E27;}
	.B{fill:#F6F6F6;}
</style>
<metadata>
	<sfw xmlns="&amp;ns_sfw;">
		<slices></slices>
		<slicesourcebounds width="219.1" height="253" y="0" x="-1.1" bottomleftorigin="true"></slicesourcebounds>
	</sfw>
</metadata>
<g id="Camada_1">
</g>
<g id="Layer_1">
	<path class="A" d="M-1199.6,1291.6l-109.6,63.3v126.5l109.6,63.3l109.6-63.3v-126.5L-1199.6,1291.6z M-1204.7,1529.8l-94.2-54.4
		v-12.3l94.2,54.3V1529.8z M-1204.7,1505.6l-94.2-54.3V1439l94.2,54.3V1505.6z M-1204.7,1481.5l-94.2-54.3v-12.4l94.2,54.3V1481.5z
		 M-1204.7,1457.3l-94.2-54.3v-12.6l94.2,54.3V1457.3z M-1204.7,1432.9l-94.2-54.3v-11.8l94.2,54.3V1432.9z M-1293.7,1357.8
		l10.7-6.2l94.2,54.3l-10.7,6.2L-1293.7,1357.8z M-1183.8,1523.7l-10.7,6.2V1421l10.7-6.1V1523.7z M-1272.8,1345.7l10.6-6.1
		l94.2,54.3l-10.7,6.1L-1272.8,1345.7z M-1162.9,1511.6l-10.7,6.2V1409l10.7-6.1V1511.6z M-1251.9,1333.7l10.6-6.1l94.2,54.3
		l-10.6,6.1L-1251.9,1333.7z M-1142,1499.6l-10.6,6.1v-108.8l10.6-6.1V1499.6z M-1231,1321.6l10.6-6.1l94.2,54.3l-10.7,6.1
		L-1231,1321.6z M-1121.1,1487.5l-10.7,6.2v-108.8l10.7-6.1V1487.5z M-1210.1,1309.6l10.6-6.1l94.2,54.4l-10.5,6.1L-1210.1,1309.6z
		 M-1100.3,1475.5l-10.6,6.1v-108.8l10.6-6.1V1475.5z"></path>
	<path class="B" d="M-1194.4,1529.8l10.7-6.2v-108.8l-10.7,6.1V1529.8z M-1173.5,1517.8l10.7-6.2v-108.8l-10.7,6.1V1517.8z
		 M-1131.7,1493.6l10.7-6.2v-108.8l-10.7,6.1V1493.6z M-1110.8,1372.8v108.8l10.6-6.1v-108.7L-1110.8,1372.8z M-1152.6,1505.7
		l10.6-6.1v-108.8l-10.6,6.1V1505.7z"></path>
	<path class="B" d="M-1298.9,1378.5l94.2,54.3V1421l-94.2-54.3V1378.5z M-1298.9,1403l94.2,54.3v-12.6l-94.2-54.3V1403z
		 M-1298.9,1451.3l94.2,54.3v-12.3l-94.2-54.3V1451.3z M-1298.9,1427.2l94.2,54.3v-12.4l-94.2-54.3V1427.2z M-1298.9,1475.5
		l94.2,54.4v-12.4l-94.2-54.3V1475.5z"></path>
	<path class="B" d="M-1283.1,1351.7l-10.7,6.2l94.2,54.3l10.7-6.2L-1283.1,1351.7z M-1262.2,1339.6l-10.6,6.1l94.2,54.3l10.7-6.1
		L-1262.2,1339.6z M-1199.6,1303.5l-10.6,6.1l94.2,54.3l10.5-6.1L-1199.6,1303.5z M-1241.3,1327.6l-10.6,6.1l94.2,54.3l10.6-6.1
		L-1241.3,1327.6z M-1220.4,1315.5l-10.6,6.1l94.2,54.3l10.7-6.1L-1220.4,1315.5z"></path>
</g>
</svg>