<svg version="1.1" id="Camada_1" xmlns:x="&amp;ns_extend;" xmlns:i="&amp;ns_ai;" xmlns:graph="&amp;ns_graphs;" xmlns="http://www.w3.org/2000/svg" xmlns:xlink="http://www.w3.org/1999/xlink" x="0px" y="0px" viewBox="-582 582.7 252.6 252.6" style="enable-background:new -582 582.7 252.6 252.6;" xml:space="preserve">
<style type="text/css">
	.ladsvg-9739-st0{fill:#9C9174;}
	.ladsvg-9739-st1{fill:#D5AD92;}
	.ladsvg-9739-st2{fill:#3A2F2E;}
	.ladsvg-9739-st3{fill:#F5F3F3;}
	.ladsvg-9739-st4{fill:#404D56;}
</style>
<switch>
	
	<g i:extraneous="self">
		<path class="ladsvg-9739-st0" d="M-582.5,582.7v253.1h253.1V582.7H-582.5z M-461.7,591.7c1.5-2.7,3.4-5.1,5.7-7.2c2.3,2,4.2,4.4,5.7,7.2
			c3,0.5,5.8,1.5,8.4,2.8c-3.8,2.5-7.3,5.4-10.6,8.6c-1.3,1.3-2.5,2.6-3.6,3.9c-1.2-1.3-2.4-2.6-3.7-3.9c-3.2-3.2-6.7-6.1-10.5-8.6
			C-467.5,593.3-464.7,592.3-461.7,591.7z M-580.7,710.4c2-2.3,4.4-4.2,7.2-5.7c0.5-3,1.5-5.8,2.8-8.4c2.5,3.8,5.4,7.3,8.6,10.6
			c1.3,1.3,2.6,2.5,3.9,3.6c-1.3,1.2-2.6,2.4-3.9,3.7c-3.2,3.2-6.1,6.7-8.6,10.5c-1.3-2.7-2.3-5.5-2.9-8.5
			C-576.2,714.6-578.6,712.7-580.7,710.4z M-450.3,826.8c-1.5,2.7-3.4,5.1-5.7,7.2c-2.3-2-4.2-4.4-5.7-7.2c-3-0.5-5.8-1.5-8.4-2.8
			c3.8-2.5,7.3-5.4,10.6-8.6c1.3-1.3,2.5-2.6,3.6-3.9c1.2,1.3,2.4,2.6,3.7,3.9c3.2,3.2,6.7,6.1,10.5,8.6
			C-444.5,825.3-447.3,826.3-450.3,826.8z M-335.1,790.1c-2.2,8.7-7.7,17.6-15.3,25.3c-7.6,7.6-16.6,13.1-25.3,15.3
			c-7.2,1.9-13.6,1.4-18.4-1.4c-8.7,2.4-18.4,2.3-28-0.5c-9.9-2.8-18.9-8.2-26.3-15.5c-2.8-2.8-5.4-5.9-7.6-9
			c-2.3,3.2-4.8,6.2-7.6,9c-7.3,7.3-16.4,12.7-26.3,15.5c-9.3,2.7-18.7,2.9-27.2,0.7c-4.9,2.9-11.4,3.5-18.8,1.6
			c-8.7-2.2-17.6-7.7-25.3-15.3c-7.6-7.6-13.1-16.6-15.3-25.3c-1.9-7.2-1.4-13.6,1.4-18.4c-2.4-8.7-2.3-18.4,0.5-28
			c2.8-9.9,8.2-18.9,15.5-26.3c2.8-2.8,5.9-5.4,9-7.6c-3.2-2.3-6.2-4.8-9-7.6c-7.3-7.3-12.7-16.4-15.5-26.3
			c-2.8-9.6-2.9-19.3-0.5-28c-2.7-4.8-3.2-11.2-1.4-18.4c2.2-8.7,7.7-17.6,15.3-25.3c7.6-7.6,16.6-13.1,25.3-15.3
			c7.4-1.9,13.9-1.3,18.8,1.6c8.5-2.2,17.9-2,27.2,0.7c9.9,2.8,18.9,8.2,26.3,15.5c2.8,2.8,5.4,5.9,7.6,9c2.3-3.2,4.8-6.2,7.6-9
			c7.3-7.3,16.4-12.7,26.3-15.5c9.6-2.8,19.3-2.9,28-0.5c4.8-2.7,11.2-3.2,18.4-1.4c8.7,2.2,17.6,7.7,25.3,15.3s13.1,16.6,15.3,25.3
			c1.9,7.4,1.3,13.9-1.6,18.8c2.2,8.5,2,17.9-0.7,27.2c-2.8,9.9-8.2,18.9-15.5,26.3c-2.8,2.8-5.9,5.4-9,7.6c3.2,2.3,6.2,4.8,9,7.6
			c7.3,7.3,12.7,16.4,15.5,26.3c2.7,9.3,2.9,18.7,0.7,27.2C-333.8,776.2-333.2,782.7-335.1,790.1z M-338.4,716.2
			c-0.5,3-1.5,5.8-2.8,8.4c-2.5-3.8-5.4-7.3-8.6-10.6c-1.3-1.3-2.6-2.5-3.9-3.6c1.3-1.2,2.6-2.4,3.9-3.7c3.2-3.2,6.1-6.7,8.6-10.5
			c1.3,2.7,2.3,5.5,2.9,8.5c2.7,1.5,5.1,3.4,7.2,5.7C-333.3,712.8-335.7,714.7-338.4,716.2z"></path>
		<path class="ladsvg-9739-st1" d="M-568.4,651.9c-0.5,0.5-1.3,0.8-2,0.8c-3.1,15.4,2.8,33.4,15.3,45.9c3.2,3.2,6.6,6,10.1,8.3
			c6.4-3.7,13.1-6.2,19.9-7.3c11.3-1.8,21.4,0.5,28.8,6.6c5.3-6.9,6.8-16.6,4.1-27.4c-6,0.7-12.3-4.3-12.3-4.3
			c-26.5,33.2-53.9,6.6-53.9,6.6c13.5-6,8.2-16.9,8.2-16.9l14.7-0.8c13.5,14.1,25.8,5.1,26.2,4.8c-0.1,0.1-1,0.8-2.6,1.5
			c-14.4,6.2-24.5-7.4-24.5-7.4c-18.1-27.3-30.5-17.7-30.5-17.7s-1.6-6,6-10.4c0,0,2.2-0.6,1-3.4s0-2.8,2.4-2.8
			c2.4,0,2.4-1.6,1.8-4.2c-0.6-2.6-3.8-7.8-0.2-13.3l0,0l0,0l0,0l0,0c5.6-3.6,10.7-0.4,13.3,0.2c2.6,0.6,4.2,0.6,4.2-1.8
			c0-2.4,0-3.6,2.8-2.4c2.8,1.2,3.4-1,3.4-1c4.4-7.6,10.4-6,10.4-6s-9.6,12.3,17.7,30.5c0,0,13.6,10,7.5,24.3
			c2-4.4,4.1-13.6-6.3-23.5l0.8-14.7c0,0,10.9,5.4,16.9-8.2c0,0,26.7,27.5-6.6,53.9c0,0,5,6.4,4.3,12.3c10.8,2.7,20.5,1.2,27.4-4.1
			c-6.1-7.4-8.5-17.5-6.6-28.8c1.1-6.7,3.6-13.5,7.3-19.9c-2.3-3.5-5.1-6.9-8.3-10.1c-12.3-12.3-30.1-18.2-45.4-15.4
			c-0.1,0.6-0.3,1.2-0.8,1.6c-1.1,1.1-2.9,1.1-4,0c-7.6-7.6-25.6-2.5-39.3,11.2c-13.7,13.7-18.8,31.7-11.2,39.3
			C-567.3,649-567.3,650.8-568.4,651.9z M-496.7,654.3C-496.7,654.3-496.6,654.2-496.7,654.3c0,0.1-0.1,0.2-0.1,0.3
			C-496.7,654.5-496.7,654.4-496.7,654.3z M-539.3,710.2c14.2,7.3,29.3,7.7,39,0C-510,702.5-525.1,702.9-539.3,710.2z M-452,670
			c6.9,5.3,16.6,6.8,27.4,4.1c-0.7-6,4.3-12.3,4.3-12.3c-33.2-26.5-6.6-53.9-6.6-53.9c6,13.5,16.9,8.2,16.9,8.2l0.8,14.7
			c-10.5,10-8.2,19.3-6.2,23.7c-6.2-14.4,7.4-24.5,7.4-24.5c27.3-18.1,17.7-30.5,17.7-30.5s6-1.6,10.4,6c0,0,0.6,2.2,3.4,1
			c2.8-1.2,2.8,0,2.8,2.4s1.6,2.4,4.2,1.8c2.6-0.6,7.8-3.8,13.3-0.2l0,0l0,0l0,0l0,0c3.6,5.6,0.4,10.7-0.2,13.3
			c-0.6,2.6-0.6,4.2,1.8,4.2c2.4,0,3.6,0,2.4,2.8s1,3.4,1,3.4c7.6,4.4,6,10.4,6,10.4s-12.3-9.6-30.5,17.7c0,0-10,13.6-24.3,7.5
			c4.4,2,13.6,4.1,23.5-6.3l14.7,0.8c0,0-5.4,10.9,8.2,16.9c0,0-27.5,26.7-53.9-6.6c0,0-6.4,5-12.3,4.3c-2.7,10.8-1.2,20.5,4.1,27.4
			c7.4-6.1,17.5-8.5,28.8-6.6c6.7,1.1,13.5,3.6,19.9,7.3c3.5-2.3,6.9-5.1,10.1-8.3c12.3-12.3,18.2-30.1,15.4-45.4
			c-0.6-0.1-1.2-0.3-1.6-0.8c-1.1-1.1-1.1-2.9,0-4c7.6-7.6,2.5-25.6-11.2-39.3c-13.7-13.7-31.7-18.8-39.3-11.2c-1.1,1.1-2.9,1.1-4,0
			c-0.5-0.5-0.8-1.3-0.8-2c-15.4-3.1-33.4,2.8-45.9,15.3c-3.2,3.2-6,6.6-8.3,10.1c3.7,6.4,6.2,13.1,7.3,19.9
			C-443.5,652.5-445.9,662.6-452,670z M-400.1,669.6C-400,669.6-400,669.6-400.1,669.6c-0.1,0-0.2-0.1-0.3-0.1
			C-400.3,669.5-400.2,669.6-400.1,669.6z M-419.7,710.2c-3.3-4.1-5.6-9.1-6.5-14.7c-0.8-4.8-0.7-10,0.3-15.4
			c-5.3,1-10.6,1.1-15.4,0.3c-5.6-1-10.6-3.2-14.7-6.5c-4.1,3.3-9.1,5.6-14.7,6.5c-4.8,0.8-10,0.7-15.4-0.3c1,5.3,1.1,10.6,0.3,15.4
			c-1,5.6-3.2,10.6-6.5,14.7c3.3,4.1,5.6,9.1,6.5,14.7c0.8,4.8,0.7,10-0.3,15.4c5.3-1,10.6-1.1,15.4-0.3c5.6,1,10.6,3.2,14.7,6.5
			c4.1-3.3,9.1-5.6,14.7-6.5c4.8-0.8,10-0.7,15.4,0.3c-1-5.3-1.1-10.6-0.3-15.4C-425.3,719.4-423.1,714.3-419.7,710.2z M-456,666
			c7.7-9.7,7.3-24.8,0-39C-463.4,641.2-463.7,656.3-456,666z M-411.8,710.2c9.7,7.7,24.8,7.3,39,0
			C-387,702.9-402.1,702.5-411.8,710.2z M-456,754.5c-7.7,9.7-7.3,24.8,0,39C-448.7,779.3-448.3,764.2-456,754.5z M-460.1,750.5
			c-6.9-5.3-16.6-6.8-27.4-4.1c0.7,6-4.3,12.3-4.3,12.3c33.2,26.5,6.6,53.9,6.6,53.9c-6-13.5-16.9-8.2-16.9-8.2l-0.8-14.7
			c10.4-9.9,8.3-19.1,6.3-23.5c6.1,14.3-7.5,24.3-7.5,24.3c-27.3,18.1-17.7,30.5-17.7,30.5s-6,1.6-10.4-6c0,0-0.6-2.2-3.4-1
			c-2.8,1.2-2.8,0-2.8-2.4c0-2.4-1.6-2.4-4.2-1.8c-2.6,0.6-7.8,3.8-13.3,0.2l0,0c0,0,0,0,0,0l0,0l0,0c-3.6-5.6-0.4-10.7,0.2-13.3
			c0.6-2.6,0.6-4.2-1.8-4.2c-2.4,0-3.6,0-2.4-2.8s-1-3.4-1-3.4c-7.6-4.4-6-10.4-6-10.4s12.3,9.6,30.5-17.7c0,0,10.1-13.6,24.5-7.4
			c1.5,0.7,2.5,1.4,2.6,1.5c-0.4-0.3-12.7-9.4-26.2,4.8l-14.7-0.8c0,0,5.4-10.9-8.2-16.9c0,0,27.5-26.7,53.9,6.6c0,0,6.4-5,12.3-4.3
			c2.7-10.8,1.2-20.5-4.1-27.4c-7.4,6.1-17.5,8.5-28.8,6.6c-6.7-1.1-13.5-3.6-19.9-7.3c-3.5,2.3-6.9,5.1-10.1,8.3
			c-12.4,12.4-18.3,30.5-15.3,45.9c0.7,0,1.4,0.3,2,0.8c1.1,1.1,1.1,2.9,0,4c-7.6,7.6-2.5,25.6,11.2,39.3
			c13.7,13.7,31.7,18.8,39.3,11.2c1.1-1.1,2.9-1.1,4,0c0.5,0.5,0.7,1,0.8,1.6c15.3,2.9,33.1-3,45.4-15.4c3.2-3.2,6-6.6,8.3-10.1
			c-3.7-6.4-6.2-13.1-7.3-19.9C-468.5,768-466.2,757.9-460.1,750.5z M-496.8,765.9c0,0.1,0.1,0.2,0.1,0.3c0,0,0,0,0,0
			C-496.7,766.1-496.7,766-496.8,765.9z M-343.2,768.1c0.5-0.5,1-0.7,1.6-0.8c2.9-15.3-3-33.1-15.4-45.4c-3.2-3.2-6.6-6-10.1-8.3
			c-6.4,3.7-13.1,6.2-19.9,7.3c-11.3,1.8-21.4-0.5-28.8-6.6c-5.3,6.9-6.8,16.6-4.1,27.4c6-0.7,12.3,4.3,12.3,4.3
			c26.5-33.2,53.9-6.6,53.9-6.6c-13.5,6-8.2,16.9-8.2,16.9l-14.7,0.8c-9.9-10.4-19.1-8.3-23.5-6.3c14.3-6.1,24.3,7.5,24.3,7.5
			c18.1,27.3,30.5,17.7,30.5,17.7s1.6,6-6,10.4c0,0-2.2,0.6-1,3.4c1.2,2.8,0,2.8-2.4,2.8c-2.4,0-2.4,1.6-1.8,4.2
			c0.6,2.6,3.8,7.8,0.2,13.3l0,0l0,0l0,0l0,0c-5.6,3.6-10.7,0.4-13.3-0.2c-2.6-0.6-4.2-0.6-4.2,1.8c0,2.4,0,3.6-2.8,2.4
			c-2.8-1.2-3.4,1-3.4,1c-4.4,7.6-10.4,6-10.4,6s9.6-12.3-17.7-30.5c0,0-13.6-10.1-7.4-24.5c-2,4.4-4.2,13.7,6.2,23.7l-0.8,14.7
			c0,0-10.9-5.4-16.9,8.2c0,0-26.7-27.5,6.6-53.9c0,0-5-6.4-4.3-12.3c-10.8-2.7-20.5-1.2-27.4,4.1c6.1,7.4,8.5,17.5,6.6,28.8
			c-1.1,6.7-3.6,13.5-7.3,19.9c2.3,3.5,5.1,6.9,8.3,10.1c12.4,12.4,30.5,18.3,45.9,15.3c0-0.7,0.3-1.4,0.8-2c1.1-1.1,2.9-1.1,4,0
			c7.6,7.6,25.6,2.5,39.3-11.2c13.7-13.7,18.8-31.7,11.2-39.3C-344.3,771-344.3,769.2-343.2,768.1z M-400.4,751
			c0.1,0,0.2-0.1,0.3-0.2c0,0,0,0,0,0C-400.2,750.9-400.3,751-400.4,751z"></path>
		<path class="ladsvg-9739-st2" d="M-337.4,744.2c-2.8-9.9-8.2-18.9-15.5-26.3c-2.8-2.8-5.9-5.4-9-7.6c3.2-2.3,6.2-4.8,9-7.6
			c7.3-7.3,12.7-16.4,15.5-26.3c2.7-9.3,2.9-18.7,0.7-27.2c2.9-4.9,3.5-11.4,1.6-18.8c-2.2-8.7-7.7-17.6-15.3-25.3
			s-16.6-13.1-25.3-15.3c-7.2-1.9-13.6-1.4-18.4,1.4c-8.7-2.4-18.4-2.3-28,0.5c-9.9,2.8-18.9,8.2-26.3,15.5c-2.8,2.8-5.4,5.9-7.6,9
			c-2.3-3.2-4.8-6.2-7.6-9c-7.3-7.3-16.4-12.7-26.3-15.5c-9.3-2.7-18.7-2.9-27.2-0.7c-4.9-2.9-11.4-3.5-18.8-1.6
			c-8.7,2.2-17.6,7.7-25.3,15.3c-7.6,7.6-13.1,16.6-15.3,25.3c-1.9,7.2-1.4,13.6,1.4,18.4c-2.4,8.7-2.3,18.4,0.5,28
			c2.8,9.9,8.2,18.9,15.5,26.3c2.8,2.8,5.9,5.4,9,7.6c-3.2,2.3-6.2,4.8-9,7.6c-7.3,7.3-12.7,16.4-15.5,26.3
			c-2.8,9.6-2.9,19.3-0.5,28c-2.7,4.8-3.2,11.2-1.4,18.4c2.2,8.7,7.7,17.6,15.3,25.3c7.6,7.6,16.6,13.1,25.3,15.3
			c7.4,1.9,13.9,1.3,18.8-1.6c8.5,2.2,17.9,2,27.2-0.7c9.9-2.8,18.9-8.2,26.3-15.5c2.8-2.8,5.4-5.9,7.6-9c2.3,3.2,4.8,6.2,7.6,9
			c7.3,7.3,16.4,12.7,26.3,15.5c9.6,2.8,19.3,2.9,28,0.5c4.8,2.7,11.2,3.2,18.4,1.4c8.7-2.2,17.6-7.7,25.3-15.3
			c7.6-7.6,13.1-16.6,15.3-25.3c1.9-7.4,1.3-13.9-1.6-18.8C-334.5,762.8-334.7,753.5-337.4,744.2z M-444.4,611.2
			c12.4-12.4,30.5-18.3,45.9-15.3c0,0.7,0.3,1.4,0.8,2c1.1,1.1,2.9,1.1,4,0c7.6-7.6,25.6-2.5,39.3,11.2
			c13.7,13.7,18.8,31.7,11.2,39.3c-1.1,1.1-1.1,2.9,0,4c0.5,0.5,1,0.7,1.6,0.8c2.9,15.3-3,33.1-15.4,45.4c-3.2,3.2-6.6,6-10.1,8.3
			c-6.4-3.7-13.1-6.2-19.9-7.3c-11.3-1.8-21.4,0.5-28.8,6.6c-5.3-6.9-6.8-16.6-4.1-27.4c6,0.7,12.3-4.3,12.3-4.3
			c26.5,33.2,53.9,6.6,53.9,6.6c-13.5-6-8.2-16.9-8.2-16.9l-14.7-0.8c-10.1,10.6-19.6,8.2-23.9,6.1c0,0,0,0,0,0
			c-0.1,0-0.2-0.1-0.3-0.1c0,0,0,0,0,0c-0.1,0-0.2-0.1-0.2-0.1c0,0,0,0,0,0c-0.1,0-0.1-0.1-0.2-0.1c0,0,0,0,0,0
			c-0.1,0-0.1-0.1-0.2-0.1c0,0,0,0,0,0c-0.4-0.2-0.7-0.4-0.9-0.5c0,0,0,0,0,0c0,0-0.1,0-0.1-0.1c0,0,0,0,0,0c0,0-0.1,0-0.1-0.1
			c0,0,0,0,0,0c0,0,0,0-0.1,0c0,0,0,0,0,0c0,0,0,0,0,0c0,0,0,0,0,0c0,0,0,0,0,0c0,0,0,0,0,0c0,0,0,0,0,0
			c5.2-12.7,25.3-11.7,25.3-11.7c4-13.9-10.9-13.7-10.9-13.7l0,0l0,0c0,0,0.2-14.9-13.7-10.9c0,0,1,20.1-11.7,25.3c0,0,0,0,0,0
			c0,0,0,0,0,0c-0.1-0.1-0.8-1-1.5-2.6l0,0l0,0c-2-4.4-4.2-13.7,6.2-23.7l-0.8-14.7c0,0-10.9,5.4-16.9-8.2c0,0-26.7,27.5,6.6,53.9
			c0,0-5,6.4-4.3,12.3c-10.8,2.7-20.5,1.2-27.4-4.1c6.1-7.4,8.5-17.5,6.6-28.8c-1.1-6.7-3.6-13.5-7.3-19.9
			C-450.4,617.8-447.6,614.4-444.4,611.2z M-372.8,710.2c-14.2,7.3-29.3,7.7-39,0C-402.1,702.5-387,702.9-372.8,710.2z M-426,740.3
			c-5.3-1-10.6-1.1-15.4-0.3c-5.6,1-10.6,3.2-14.7,6.5c-4.1-3.3-9.1-5.6-14.7-6.5c-4.8-0.8-10-0.7-15.4,0.3c1-5.3,1.1-10.6,0.3-15.4
			c-1-5.6-3.2-10.6-6.5-14.7c3.3-4.1,5.6-9.1,6.5-14.7c0.8-4.8,0.7-10-0.3-15.4c5.3,1,10.6,1.1,15.4,0.3c5.6-1,10.6-3.2,14.7-6.5
			c4.1,3.3,9.1,5.6,14.7,6.5c4.8,0.8,10,0.7,15.4-0.3c-1,5.3-1.1,10.6-0.3,15.4c1,5.6,3.2,10.6,6.5,14.7c-3.3,4.1-5.6,9.1-6.5,14.7
			C-427.1,729.8-427,735-426,740.3z M-456,666c-7.7-9.7-7.3-24.8,0-39C-448.7,641.2-448.3,656.3-456,666z M-555.1,698.6
			c-12.4-12.4-18.3-30.5-15.3-45.9c0.7,0,1.4-0.3,2-0.8c1.1-1.1,1.1-2.9,0-4c-7.6-7.6-2.5-25.6,11.2-39.3
			c13.7-13.7,31.7-18.8,39.3-11.2c1.1,1.1,2.9,1.1,4,0c0.5-0.5,0.7-1,0.8-1.6c15.3-2.9,33.1,3,45.4,15.4c3.2,3.2,6,6.6,8.3,10.1
			c-3.7,6.4-6.2,13.1-7.3,19.9c-1.8,11.3,0.5,21.4,6.6,28.8c-6.9,5.3-16.6,6.8-27.4,4.1c0.7-6-4.3-12.3-4.3-12.3
			c33.2-26.5,6.6-53.9,6.6-53.9c-6,13.5-16.9,8.2-16.9,8.2l-0.8,14.7c10.6,10.1,8.2,19.6,6.1,23.9c0,0,0,0,0,0
			c0,0.1-0.1,0.2-0.1,0.3c0,0,0,0,0,0c0,0.1-0.1,0.2-0.1,0.2c0,0,0,0,0,0c0,0.1-0.1,0.1-0.1,0.2c0,0,0,0,0,0c0,0.1-0.1,0.1-0.1,0.2
			c0,0,0,0,0,0c-0.2,0.4-0.4,0.7-0.5,0.9c0,0,0,0,0,0c0,0,0,0.1-0.1,0.1c0,0,0,0,0,0c0,0,0,0.1-0.1,0.1c0,0,0,0,0,0c0,0,0,0,0,0.1
			c0,0,0,0,0,0c0,0,0,0,0,0c0,0,0,0,0,0c0,0,0,0,0,0c0,0,0,0,0,0c0,0,0,0,0,0c-12.7-5.2-11.7-25.3-11.7-25.3
			c-13.9-4-13.7,10.9-13.7,10.9l0,0l0,0c0,0-14.9-0.2-10.9,13.7c0,0,20.1-1,25.3,11.7c0,0,0,0,0,0c0,0,0,0,0,0
			c-0.4,0.3-12.7,9.4-26.2-4.8l-14.7,0.8c0,0,5.4,10.9-8.2,16.9c0,0,27.5,26.7,53.9-6.6c0,0,6.4,5,12.3,4.3
			c2.7,10.8,1.2,20.5-4.1,27.4c-7.4-6.1-17.5-8.5-28.8-6.6c-6.7,1.1-13.5,3.6-19.9,7.3C-548.5,704.6-551.9,701.8-555.1,698.6z
			 M-500.3,710.2c-9.7,7.7-24.8,7.3-39,0C-525.1,702.9-510,702.5-500.3,710.2z M-467.7,809.3c-12.3,12.3-30.1,18.2-45.4,15.4
			c-0.1-0.6-0.3-1.2-0.8-1.6c-1.1-1.1-2.9-1.1-4,0c-7.6,7.6-25.6,2.5-39.3-11.2c-13.7-13.7-18.8-31.7-11.2-39.3c1.1-1.1,1.1-2.9,0-4
			c-0.5-0.5-1.3-0.8-2-0.8c-3.1-15.4,2.8-33.4,15.3-45.9c3.2-3.2,6.6-6,10.1-8.3c6.4,3.7,13.1,6.2,19.9,7.3
			c11.3,1.8,21.4-0.5,28.8-6.6c5.3,6.9,6.8,16.6,4.1,27.4c-6-0.7-12.3,4.3-12.3,4.3c-26.5-33.2-53.9-6.6-53.9-6.6
			c13.5,6,8.2,16.9,8.2,16.9l14.7,0.8c13.5-14.1,25.8-5.1,26.2-4.8c0,0,0,0,0,0c0,0,0,0,0,0c-5.2,12.7-25.3,11.7-25.3,11.7
			c-4,13.9,10.9,13.7,10.9,13.7l0,0l0,0c0,0-0.2,14.9,13.7,10.9c0,0-1-20.1,11.7-25.3c0,0,0,0,0,0c0,0,0,0,0,0c0,0,0,0,0,0
			c0,0,0,0,0,0c0,0,0,0,0,0c0,0,0,0,0,0c0,0,0,0,0,0.1c0,0,0,0,0,0c0,0,0,0.1,0.1,0.1c0,0,0,0,0,0c0,0,0,0.1,0.1,0.1c0,0,0,0,0,0
			c0.1,0.2,0.3,0.5,0.5,0.9c0,0,0,0,0,0c0,0.1,0.1,0.1,0.1,0.2c0,0,0,0,0,0c0,0.1,0.1,0.1,0.1,0.2c0,0,0,0,0,0
			c0,0.1,0.1,0.2,0.1,0.2c0,0,0,0,0,0c0,0.1,0.1,0.2,0.1,0.3c0,0,0,0,0,0c2,4.3,4.5,13.7-6.1,23.9l0.8,14.7c0,0,10.9-5.4,16.9,8.2
			c0,0,26.7-27.5-6.6-53.9c0,0,5-6.4,4.3-12.3c10.8-2.7,20.5-1.2,27.4,4.1c-6.1,7.4-8.5,17.5-6.6,28.8c1.1,6.7,3.6,13.5,7.3,19.9
			C-461.7,802.7-464.5,806.1-467.7,809.3z M-456,793.5c-7.3-14.2-7.7-29.3,0-39C-448.3,764.2-448.7,779.3-456,793.5z M-354.4,811.4
			c-13.7,13.7-31.7,18.8-39.3,11.2c-1.1-1.1-2.9-1.1-4,0c-0.5,0.5-0.8,1.3-0.8,2c-15.4,3.1-33.4-2.8-45.9-15.3
			c-3.2-3.2-6-6.6-8.3-10.1c3.7-6.4,6.2-13.1,7.3-19.9c1.8-11.3-0.5-21.4-6.6-28.8c6.9-5.3,16.6-6.8,27.4-4.1
			c-0.7,6,4.3,12.3,4.3,12.3c-33.2,26.5-6.6,53.9-6.6,53.9c6-13.5,16.9-8.2,16.9-8.2l0.8-14.7c-10.5-10-8.2-19.3-6.2-23.7l0,0l0,0
			c0.7-1.5,1.4-2.5,1.5-2.6c0,0,0,0,0,0c0,0,0,0,0,0c12.7,5.2,11.7,25.3,11.7,25.3c13.9,4,13.7-10.9,13.7-10.9l0,0l0,0
			c0,0,14.9,0.2,10.9-13.7c0,0-20.1,1-25.3-11.7c0,0,0,0,0,0c0,0,0,0,0,0c0,0,0,0,0,0c0,0,0,0,0,0c0,0,0,0,0,0c0,0,0,0,0,0
			c0,0,0,0,0.1,0c0,0,0,0,0,0c0,0,0.1,0,0.1-0.1c0,0,0,0,0,0c0,0,0.1,0,0.1-0.1c0,0,0,0,0,0c0.2-0.1,0.5-0.3,0.9-0.5c0,0,0,0,0,0
			c0.1,0,0.1-0.1,0.2-0.1c0,0,0,0,0,0c0.1,0,0.1-0.1,0.2-0.1c0,0,0,0,0,0c0.1,0,0.2-0.1,0.2-0.1c0,0,0,0,0,0c0.1,0,0.2-0.1,0.3-0.1
			c0,0,0,0,0,0c4.3-2,13.7-4.5,23.9,6.1l14.7-0.8c0,0-5.4-10.9,8.2-16.9c0,0-27.5-26.7-53.9,6.6c0,0-6.4-5-12.3-4.3
			c-2.7-10.8-1.2-20.5,4.1-27.4c7.4,6.1,17.5,8.5,28.8,6.6c6.7-1.1,13.5-3.6,19.9-7.3c3.5,2.3,6.9,5.1,10.1,8.3
			c12.3,12.3,18.2,30.1,15.4,45.4c-0.6,0.1-1.2,0.3-1.6,0.8c-1.1,1.1-1.1,2.9,0,4C-335.6,779.7-340.7,797.7-354.4,811.4z"></path>
		<path class="ladsvg-9739-st3" d="M-415.4,654.4c0.7,1.5,1.4,2.5,1.5,2.6c0,0,0,0,0,0c0,0,0,0,0,0c12.7-5.2,11.7-25.3,11.7-25.3
			c13.9-4,13.7,10.9,13.7,10.9l0,0l0,0c0,0,14.9-0.2,10.9,13.7c0,0-20.1-1-25.3,11.7c0,0,0,0,0,0c0,0,0,0,0,0c0,0,0,0,0,0
			c0,0,0,0,0,0c0,0,0,0,0,0c0,0,0,0,0,0c0,0,0,0,0.1,0c0,0,0,0,0,0c0,0,0.1,0,0.1,0.1c0,0,0,0,0,0c0,0,0.1,0,0.1,0.1c0,0,0,0,0,0
			c0.2,0.1,0.5,0.3,0.9,0.5c0,0,0,0,0,0c0.1,0,0.1,0.1,0.2,0.1c0,0,0,0,0,0c0.1,0,0.1,0.1,0.2,0.1c0,0,0,0,0,0
			c0.1,0,0.2,0.1,0.2,0.1c0,0,0,0,0,0c0.1,0,0.2,0.1,0.3,0.1c0,0,0,0,0,0c0.1,0,0.2,0.1,0.3,0.1c14.3,6.1,24.4-7.5,24.4-7.5
			c18.1-27.3,30.5-17.7,30.5-17.7s1.6-6-6-10.4c0,0-2.2-0.6-1-3.4s0-2.8-2.4-2.8c-2.4,0-2.4-1.6-1.8-4.2c0.6-2.6,3.8-7.8,0.2-13.3
			l0,0l0,0l0,0l0,0c-5.6-3.6-10.7-0.4-13.3,0.2c-2.6,0.6-4.2,0.6-4.2-1.8s0-3.6-2.8-2.4c-2.8,1.2-3.4-1-3.4-1
			c-4.4-7.6-10.4-6-10.4-6s9.6,12.3-17.7,30.5C-407.9,629.9-421.6,640-415.4,654.4L-415.4,654.4z M-496.8,765.9
			C-496.8,765.9-496.8,765.9-496.8,765.9c-0.1-0.1-0.1-0.2-0.1-0.3c0,0,0,0,0,0c0-0.1-0.1-0.2-0.1-0.2c0,0,0,0,0,0
			c0-0.1-0.1-0.2-0.1-0.2c0,0,0,0,0,0c0-0.1-0.1-0.1-0.1-0.2c0,0,0,0,0,0c-0.2-0.4-0.4-0.7-0.5-0.9c0,0,0,0,0,0c0,0,0-0.1-0.1-0.1
			c0,0,0,0,0,0c0,0,0-0.1-0.1-0.1c0,0,0,0,0,0c0,0,0,0,0-0.1c0,0,0,0,0,0c0,0,0,0,0,0c0,0,0,0,0,0c0,0,0,0,0,0c0,0,0,0,0,0
			c0,0,0,0,0,0c-12.7,5.2-11.7,25.3-11.7,25.3c-13.9,4-13.7-10.9-13.7-10.9l0,0l0,0c0,0-14.9,0.2-10.9-13.7c0,0,20.1,1,25.3-11.7
			c0,0,0,0,0,0c0,0,0,0,0,0c-0.1-0.1-1-0.8-2.6-1.5c-14.4-6.2-24.5,7.4-24.5,7.4c-18.1,27.3-30.5,17.7-30.5,17.7s-1.6,6,6,10.4
			c0,0,2.2,0.6,1,3.4s0,2.8,2.4,2.8c2.4,0,2.4,1.6,1.8,4.2c-0.6,2.6-3.8,7.8-0.2,13.3l0,0l0,0c0,0,0,0,0,0l0,0
			c5.6,3.6,10.7,0.4,13.3-0.2c2.6-0.6,4.2-0.6,4.2,1.8c0,2.4,0,3.6,2.8,2.4c2.8-1.2,3.4,1,3.4,1c4.4,7.6,10.4,6,10.4,6
			s-9.6-12.3,17.7-30.5c0,0,13.6-10,7.5-24.4C-496.7,766.1-496.7,766-496.8,765.9z M-504.1,629.9c-27.3-18.1-17.7-30.5-17.7-30.5
			s-6-1.6-10.4,6c0,0-0.6,2.2-3.4,1c-2.8-1.2-2.8,0-2.8,2.4c0,2.4-1.6,2.4-4.2,1.8c-2.6-0.6-7.8-3.8-13.3-0.2l0,0l0,0l0,0l0,0
			c-3.6,5.6-0.4,10.7,0.2,13.3c0.6,2.6,0.6,4.2-1.8,4.2c-2.4,0-3.6,0-2.4,2.8s-1,3.4-1,3.4c-7.6,4.4-6,10.4-6,10.4
			s12.3-9.6,30.5,17.7c0,0,10.1,13.6,24.5,7.4c1.5-0.7,2.5-1.4,2.6-1.5c0,0,0,0,0,0c0,0,0,0,0,0c-5.2-12.7-25.3-11.7-25.3-11.7
			c-4-13.9,10.9-13.7,10.9-13.7l0,0l0,0c0,0-0.2-14.9,13.7-10.9c0,0-1,20.1,11.7,25.3c0,0,0,0,0,0c0,0,0,0,0,0c0,0,0,0,0,0
			c0,0,0,0,0,0c0,0,0,0,0,0c0,0,0,0,0,0c0,0,0,0,0-0.1c0,0,0,0,0,0c0,0,0-0.1,0.1-0.1c0,0,0,0,0,0c0,0,0-0.1,0.1-0.1c0,0,0,0,0,0
			c0.1-0.2,0.3-0.5,0.5-0.9c0,0,0,0,0,0c0-0.1,0.1-0.1,0.1-0.2c0,0,0,0,0,0c0-0.1,0.1-0.1,0.1-0.2c0,0,0,0,0,0
			c0-0.1,0.1-0.2,0.1-0.2c0,0,0,0,0,0c0-0.1,0.1-0.2,0.1-0.3c0,0,0,0,0,0c0-0.1,0.1-0.2,0.1-0.3
			C-490.5,639.9-504.1,629.9-504.1,629.9z M-375.7,758.3c0,0-10-13.6-24.4-7.5c-0.1,0-0.2,0.1-0.3,0.1c0,0,0,0,0,0
			c-0.1,0-0.2,0.1-0.3,0.1c0,0,0,0,0,0c-0.1,0-0.2,0.1-0.2,0.1c0,0,0,0,0,0c-0.1,0-0.1,0.1-0.2,0.1c0,0,0,0,0,0
			c-0.1,0-0.1,0.1-0.2,0.1c0,0,0,0,0,0c-0.4,0.2-0.7,0.4-0.9,0.5c0,0,0,0,0,0c0,0-0.1,0-0.1,0.1c0,0,0,0,0,0c0,0-0.1,0-0.1,0.1
			c0,0,0,0,0,0c0,0,0,0-0.1,0c0,0,0,0,0,0c0,0,0,0,0,0c0,0,0,0,0,0c0,0,0,0,0,0c0,0,0,0,0,0c0,0,0,0,0,0
			c5.2,12.7,25.3,11.7,25.3,11.7c4,13.9-10.9,13.7-10.9,13.7l0,0l0,0c0,0,0.2,14.9-13.7,10.9c0,0,1-20.1-11.7-25.3c0,0,0,0,0,0
			c0,0,0,0,0,0c-0.1,0.1-0.8,1-1.5,2.6l0,0c-6.2,14.4,7.4,24.5,7.4,24.5c27.3,18.1,17.7,30.5,17.7,30.5s6,1.6,10.4-6
			c0,0,0.6-2.2,3.4-1c2.8,1.2,2.8,0,2.8-2.4c0-2.4,1.6-2.4,4.2-1.8c2.6,0.6,7.8,3.8,13.3,0.2l0,0l0,0l0,0l0,0
			c3.6-5.6,0.4-10.7-0.2-13.3c-0.6-2.6-0.6-4.2,1.8-4.2c2.4,0,3.6,0,2.4-2.8c-1.2-2.8,1-3.4,1-3.4c7.6-4.4,6-10.4,6-10.4
			S-357.6,785.6-375.7,758.3z"></path>
		<path class="ladsvg-9739-st4" d="M-570.7,696.2c-1.3,2.6-2.3,5.5-2.8,8.4c-2.7,1.5-5.1,3.4-7.2,5.7c2,2.3,4.4,4.2,7.2,5.7
			c0.6,3,1.5,5.9,2.9,8.5c2.5-3.8,5.3-7.3,8.6-10.5c1.3-1.3,2.6-2.5,3.9-3.7c-1.3-1.2-2.6-2.4-3.9-3.6
			C-565.3,703.6-568.2,700-570.7,696.2z M-456,811.5c-1.2,1.3-2.4,2.6-3.6,3.9c-3.2,3.2-6.8,6.1-10.6,8.6c2.6,1.3,5.5,2.3,8.4,2.8
			c1.5,2.7,3.4,5.1,5.7,7.2c2.3-2,4.2-4.4,5.7-7.2c3-0.6,5.9-1.5,8.5-2.9c-3.8-2.5-7.3-5.3-10.5-8.6
			C-453.6,814.1-454.8,812.8-456,811.5z M-338.4,704.7c-0.6-3-1.5-5.9-2.9-8.5c-2.5,3.8-5.3,7.3-8.6,10.5c-1.3,1.3-2.6,2.5-3.9,3.7
			c1.3,1.2,2.6,2.4,3.9,3.6c3.2,3.2,6.1,6.8,8.6,10.6c1.3-2.6,2.3-5.5,2.8-8.4c2.7-1.5,5.1-3.4,7.2-5.7
			C-333.3,708.1-335.7,706.2-338.4,704.7z M-456,584.6c-2.3,2-4.2,4.4-5.7,7.2c-3,0.6-5.9,1.5-8.5,2.9c3.8,2.5,7.3,5.3,10.5,8.6
			c1.3,1.3,2.5,2.6,3.7,3.9c1.2-1.3,2.4-2.6,3.6-3.9c3.2-3.2,6.8-6.1,10.6-8.6c-2.6-1.3-5.5-2.3-8.4-2.8
			C-451.7,589-453.7,586.6-456,584.6z"></path>
	</g>
</switch>

</svg>