<svg version="1.1" id="Camada_1" xmlns:x="&amp;ns_extend;" xmlns:i="&amp;ns_ai;" xmlns:graph="&amp;ns_graphs;" xmlns="http://www.w3.org/2000/svg" xmlns:xlink="http://www.w3.org/1999/xlink" x="0px" y="0px" viewBox="-15 15.9 252.6 252.6" style="enable-background:new -15 15.9 252.6 252.6;" xml:space="preserve">
<style type="text/css">
	.ladsvg-1822-st0{fill:#F8FBF8;}
	.ladsvg-1822-st1{fill:#344A64;}
	.ladsvg-1822-st2{fill:#494F66;}
</style>
<switch>
	
	<g i:extraneous="self">
		<polygon class="ladsvg-1822-st0" points="237.5,15.9 184.2,15.9 111.3,88.8 38.3,15.9 -15,15.9 111.3,142.1 		"></polygon>
		<polygon class="ladsvg-1822-st0" points="18.4,142.1 -15,108.8 -15,175.5 		"></polygon>
		<polygon class="ladsvg-1822-st0" points="111.3,38.6 88.6,15.9 60.7,15.9 111.3,66.5 161.9,15.9 134,15.9 		"></polygon>
		<polygon class="ladsvg-1822-st0" points="181.9,142.1 237.5,86.4 237.5,71.7 167.1,142.1 237.5,212.6 237.5,197.8 		"></polygon>
		<polygon class="ladsvg-1822-st0" points="111.3,142.1 -15,268.4 38.3,268.4 111.3,195.5 184.2,268.4 237.5,268.4 		"></polygon>
		<polygon class="ladsvg-1822-st0" points="204.2,142.1 237.5,175.5 237.5,108.8 		"></polygon>
		<polygon class="ladsvg-1822-st0" points="40.7,142.1 -15,197.8 -15,212.6 55.5,142.1 -15,71.7 -15,86.4 		"></polygon>
		<polygon class="ladsvg-1822-st0" points="111.3,245.7 134,268.4 161.9,268.4 111.3,217.8 60.7,268.4 88.6,268.4 		"></polygon>
		<polygon class="ladsvg-1822-st1" points="111.3,142.1 111.3,142.1 237.5,268.4 237.5,268.4 237.5,212.6 167.1,142.1 237.5,71.7 237.5,15.9 
			237.5,15.9 111.3,142.1 		"></polygon>
		<polygon class="ladsvg-1822-st1" points="237.5,197.8 237.5,175.5 204.2,142.1 237.5,108.8 237.5,86.4 181.9,142.1 		"></polygon>
		<polygon class="ladsvg-1822-st1" points="111.3,142.1 111.3,142.1 -15,15.9 -15,15.9 -15,71.7 55.5,142.1 -15,212.6 -15,268.4 -15,268.4 
			111.3,142.1 		"></polygon>
		<rect x="111.3" y="142.1" class="ladsvg-1822-st2" width="0" height="0"></rect>
		<polygon class="ladsvg-1822-st1" points="-15,86.4 -15,108.8 18.4,142.1 -15,175.5 -15,197.8 40.7,142.1 		"></polygon>
		<polygon class="ladsvg-1822-st1" points="184.2,15.9 161.9,15.9 111.3,66.5 60.7,15.9 38.3,15.9 111.3,88.8 		"></polygon>
		<polygon class="ladsvg-1822-st1" points="134,15.9 88.6,15.9 111.3,38.6 		"></polygon>
		<polygon class="ladsvg-1822-st1" points="38.3,268.4 60.7,268.4 111.3,217.8 161.9,268.4 184.2,268.4 111.3,195.5 		"></polygon>
		<polygon class="ladsvg-1822-st1" points="88.6,268.4 134,268.4 111.3,245.7 		"></polygon>
	</g>
</switch>

</svg>