<svg version="1.1" id="Camada_1" xmlns:x="&amp;ns_extend;" xmlns:i="&amp;ns_ai;" xmlns:graph="&amp;ns_graphs;" xmlns="http://www.w3.org/2000/svg" xmlns:xlink="http://www.w3.org/1999/xlink" x="0px" y="0px" viewBox="-1291 1292.1 252.6 252.6" style="enable-background:new -1291 1292.1 252.6 252.6;" xml:space="preserve">
<style type="text/css">
	.A{fill:#FFFFFF;}
	.B{fill:#F6F6F6;}
	.C{fill:#E6BB7B;}
	.D{fill:#35221B;}
	.E{fill:#ECC051;}
</style>
<switch>
	
	<g i:extraneous="self">
		<rect x="-1291" y="1292.3" class="A" width="252.6" height="252.6"></rect>
		<rect x="-1291" y="1292.3" class="B" width="252.6" height="252.6"></rect>
		<polygon class="C" points="-1038.4,1440.8 -1038.4,1396.3 -1142.4,1292.3 -1187,1292.3 -1291,1396.3 -1291,1440.8 -1187,1544.9 
			-1142.4,1544.9 		"></polygon>
		
			<rect x="-1245.3" y="1337.8" transform="matrix(0.7071 -0.7071 0.7071 0.7071 -1344.0817 -408.1607)" class="B" width="161.1" height="161.1"></rect>
		<path class="D" d="M-1275.5,1501.3c-0.2-8.9-6.7-16.5-15.5-18.1l0,0v48.6c7.2,0,13,5.8,13,13l0,0h48.6
			c-1.6-8.8-9.1-15.3-18.1-15.5l0,0c0-0.2,0-0.5,0-0.7c0-5.3-4.3-9.5-9.5-9.5c-4.1,0-7.7,2.6-9,6.4l0,0c-0.8,2.3-2.9,3.8-5.3,3.8
			c-1.1,0-2.2-0.3-3.2-1l0,0c-0.6-0.9-1-2-1-3.2c0-2.4,1.5-4.5,3.8-5.3l0,0c3.8-1.3,6.4-4.9,6.4-9c0-5.3-4.3-9.5-9.5-9.5
			C-1275.1,1501.3-1275.3,1501.3-1275.5,1501.3L-1275.5,1501.3z"></path>
		<path class="D" d="M-1229.4,1292.3h-48.6c0,7.2-5.8,13-13,13v48.6c8.8-1.6,15.3-9.1,15.5-18.1l0,0c0.2,0,0.5,0,0.7,0
			c5.3,0,9.5-4.3,9.5-9.5c0-4.1-2.6-7.7-6.4-9l0,0c-2.3-0.8-3.8-2.9-3.8-5.3c0-1.1,0.3-2.2,1-3.2l0,0c0.9-0.6,2-1,3.2-1
			c2.4,0,4.5,1.5,5.3,3.8l0,0c1.3,3.8,4.9,6.4,9,6.4c5.3,0,9.5-4.3,9.5-9.5c0-0.2,0-0.5,0-0.7l0,0
			C-1238.6,1307.5-1231,1301.1-1229.4,1292.3L-1229.4,1292.3z"></path>
		<path class="D" d="M-1038.4,1305.2c-7.2,0-13-5.8-13-13h-48.6c1.6,8.8,9.1,15.3,18.1,15.5l0,0c0,0.2,0,0.5,0,0.7
			c0,5.3,4.3,9.5,9.5,9.5c4.1,0,7.7-2.6,9-6.4l0,0c0.8-2.3,2.9-3.8,5.3-3.8c1.1,0,2.2,0.3,3.2,1l0,0c0.6,0.9,1,2,1,3.2
			c0,2.4-1.5,4.5-3.8,5.3l0,0c-3.8,1.3-6.4,4.9-6.4,9c0,5.3,4.3,9.5,9.5,9.5c0.2,0,0.5,0,0.7,0l0,0c0.2,8.9,6.7,16.5,15.5,18.1l0,0
			L-1038.4,1305.2L-1038.4,1305.2z"></path>
		<path class="D" d="M-1038.4,1531.9v-48.6c-8.8,1.6-15.3,9.1-15.5,18.1l0,0c-0.2,0-0.5,0-0.7,0c-5.3,0-9.5,4.3-9.5,9.5
			c0,4.1,2.6,7.7,6.4,9l0,0c2.3,0.8,3.8,2.9,3.8,5.3c0,1.1-0.3,2.2-1,3.2l0,0c-0.9,0.6-2,1-3.2,1c-2.4,0-4.5-1.5-5.3-3.8l0,0
			c-1.3-3.8-4.9-6.4-9-6.4c-5.3,0-9.5,4.3-9.5,9.5c0,0.2,0,0.5,0,0.7l0,0c-8.9,0.2-16.5,6.7-18.1,15.5l0,0h48.6
			C-1051.4,1537.7-1045.6,1531.9-1038.4,1531.9L-1038.4,1531.9z"></path>
		<path class="D" d="M-1184.2,1468.5c-0.4,0-0.8,0.1-1.1,0.1c-5.3,0-9.7-4.3-9.7-9.7c0-4.5,3.2-8.5,7.6-9.4l0,0
			c3.9-0.9,6.6-4.3,6.6-8.2c0-1.8-0.6-3.6-1.6-5l0,0c-1.4-1.1-3.2-1.6-5-1.6c-4,0-7.4,2.7-8.2,6.6l0,0c-1,4.4-4.9,7.6-9.4,7.6
			c-5.3,0-9.7-4.3-9.7-9.7c0-0.4,0-0.8,0.1-1.1l0,0c-0.3,0-0.6,0-1,0c-10.1,0-18.3-8.2-18.3-18.3c0-0.4,0-0.8,0-1.2l0,0
			c0-0.4,0-0.8,0-1.2c0-10.1,8.2-18.3,18.3-18.3c0.3,0,0.6,0,1,0l0,0c0-0.4-0.1-0.8-0.1-1.1c0-5.3,4.3-9.7,9.7-9.7
			c4.5,0,8.5,3.2,9.4,7.6l0,0c0.9,3.9,4.3,6.6,8.2,6.6c1.8,0,3.6-0.6,5-1.6l0,0c1.1-1.4,1.6-3.2,1.6-5c0-4-2.7-7.4-6.6-8.2l0,0
			c-4.4-1-7.6-4.9-7.6-9.4c0-5.3,4.3-9.7,9.7-9.7c0.4,0,0.8,0,1.1,0.1l0,0c0-0.3,0-0.6,0-1c0-10.1,8.2-18.3,18.3-18.3
			c0.4,0,0.8,0,1.2,0l0,0c0.4,0,0.8,0,1.2,0c10.1,0,18.3,8.2,18.3,18.3c0,0.3,0,0.6,0,1l0,0c0.4,0,0.8-0.1,1.1-0.1
			c5.3,0,9.7,4.3,9.7,9.7c0,4.5-3.2,8.5-7.6,9.4l0,0c-3.9,0.9-6.6,4.3-6.6,8.2c0,1.8,0.6,3.6,1.6,5l0,0c1.4,1.1,3.2,1.6,5,1.6
			c4,0,7.4-2.7,8.2-6.6l0,0c1-4.4,4.9-7.6,9.4-7.6c5.3,0,9.7,4.3,9.7,9.7c0,0.4,0,0.8-0.1,1.1l0,0c0.3,0,0.6,0,1,0
			c10.1,0,18.3,8.2,18.3,18.3c0,0.4,0,0.8,0,1.2l0,0c0,0.4,0,0.8,0,1.2c0,10.1-8.2,18.3-18.3,18.3c-0.3,0-0.6,0-1,0l0,0
			c0,0.4,0.1,0.8,0.1,1.1c0,5.3-4.3,9.7-9.7,9.7c-4.5,0-8.5-3.2-9.4-7.6l0,0c-0.9-3.9-4.3-6.6-8.2-6.6c-1.8,0-3.6,0.6-5,1.6l0,0
			c-1.1,1.4-1.6,3.2-1.6,5c0,4,2.7,7.4,6.6,8.2l0,0c4.4,1,7.6,4.9,7.6,9.4c0,5.3-4.3,9.7-9.7,9.7c-0.4,0-0.8,0-1.1-0.1l0,0
			c0,0.3,0,0.6,0,1c0,10.1-8.2,18.3-18.3,18.3c-0.4,0-0.8,0-1.2,0l0,0c-0.4,0-0.8,0-1.2,0c-10.1,0-18.3-8.2-18.3-18.3
			C-1184.2,1469.2-1184.2,1468.9-1184.2,1468.5L-1184.2,1468.5z"></path>
		<path class="E" d="M-1038.4,1292.3h-13c0,7.2,5.8,13,13,13V1292.3z"></path>
		<path class="E" d="M-1278,1292.3h-13v13C-1283.8,1305.2-1278,1299.3-1278,1292.3L-1278,1292.3z"></path>
		<path class="E" d="M-1291,1531.9v13h13C-1278,1537.7-1283.8,1531.9-1291,1531.9L-1291,1531.9z"></path>
		<path class="E" d="M-1038.4,1531.9c-7.2,0-13,5.8-13,13h13V1531.9z"></path>
		<path class="E" d="M-1179.6,1418.6c0-8.2,6.7-14.9,14.9-14.9c8.2,0,14.9,6.7,14.9,14.9c0,8.2-6.7,14.9-14.9,14.9
			C-1172.9,1433.3-1179.6,1426.8-1179.6,1418.6L-1179.6,1418.6z"></path>
	</g>
</switch>

</svg>