<svg version="1.1" id="Camada_1" xmlns:x="&amp;ns_extend;" xmlns:i="&amp;ns_ai;" xmlns:graph="&amp;ns_graphs;" xmlns="http://www.w3.org/2000/svg" xmlns:xlink="http://www.w3.org/1999/xlink" x="0px" y="0px" viewBox="-1291 1292.1 252.6 252.6" style="enable-background:new -1291 1292.1 252.6 252.6;" xml:space="preserve">
<style type="text/css">
	.A{fill:#F5F4F4;}
	.B{fill:#DEB569;}
	.C{fill:#005177;}
	.D{fill:#AECBE1;}
</style>
<switch>
	
	<g i:extraneous="self">
		<rect x="-1291" y="1292.2" class="A" width="252.8" height="252.8"></rect>
		<path class="B" d="M-1226.1,1329.2c-23.5-3.3-44.2-16.9-56.6-37l0,0h-8.3v8.2c20.1,12.5,33.6,33.3,36.8,56.8l0,0
			c2.6-6.3,6.3-12.1,10.9-17.1l0,0C-1238.3,1335.3-1232.4,1331.8-1226.1,1329.2L-1226.1,1329.2z"></path>
		<path class="B" d="M-1038.2,1300.3v-8.2h-8.2c-12.6,20.1-33.4,33.6-56.8,36.8l0,0c6.3,2.6,12.1,6.3,17.1,10.9l0,0
			c4.6,5,8.3,10.8,10.9,17.1l0,0C-1072,1333.6-1058.4,1312.8-1038.2,1300.3L-1038.2,1300.3z"></path>
		<path class="B" d="M-1075,1479.9c-2.6,6.3-6.3,12.1-10.9,17.1l0,0c-5,4.6-10.8,8.3-17.1,10.9l0,0c23.5,3.3,44.2,16.9,56.6,37
			l0,0h8.2v-8.2C-1058.3,1524.2-1071.8,1503.3-1075,1479.9L-1075,1479.9z"></path>
		<path class="B" d="M-1243.1,1497.2c-4.6-5-8.3-10.8-10.9-17.1l0,0c-3.3,23.5-16.9,44.2-37,56.6l0,0v8.2h8.2
			c12.5-20.1,33.3-33.6,56.8-36.8l0,0C-1232.3,1505.5-1238.1,1501.8-1243.1,1497.2L-1243.1,1497.2z"></path>
		<path class="A" d="M-1143.2,1418.6c0-11.8-9.6-21.4-21.4-21.4s-21.4,9.6-21.4,21.4s9.6,21.4,21.4,21.4
			C-1152.8,1440-1143.2,1430.3-1143.2,1418.6L-1143.2,1418.6z"></path>
		<path class="C" d="M-1135,1329c-2.8,6-8.5,10.3-15.1,11.3l0,0c0.5-3,0.7-5.9,0.7-8.9c0-14.5-5.4-28.5-15.2-39.2
			c-9.8,10.7-15.2,24.7-15.2,39.2c0,3,0.2,6,0.7,8.9l0,0c-6.6-1-12.2-5.2-15.1-11.3l0,0c-0.4,3.6-0.6,7.2-0.6,10.8
			c0,15.2,3.4,30.1,10.1,43.8l0,0c0.1-11,9.1-19.8,20.1-19.8s19.9,8.8,20.1,19.8l0,0c6.6-13.6,10.1-28.6,10.1-43.8
			C-1134.4,1336.2-1134.6,1332.6-1135,1329L-1135,1329z"></path>
		<path class="C" d="M-1038.2,1418.6c-10.7-9.8-24.7-15.2-39.2-15.2c-3,0-6,0.2-8.9,0.7l0,0c1-6.6,5.2-12.2,11.3-15.1l0,0
			c-3.6-0.4-7.2-0.6-10.8-0.6c-15.2,0-30.1,3.4-43.8,10.1l0,0c11,0.1,19.8,9.1,19.8,20.1s-8.8,19.9-19.8,20.1l0,0
			c13.6,6.6,28.6,10.1,43.8,10.1c3.6,0,7.2-0.2,10.8-0.6l0,0c-6-2.8-10.3-8.5-11.3-15.1l0,0c3,0.5,5.9,0.7,8.9,0.7
			C-1062.9,1433.8-1048.9,1428.3-1038.2,1418.6L-1038.2,1418.6z"></path>
		<path class="C" d="M-1199.6,1398.5c-13.6-6.6-28.6-10.1-43.8-10.1c-3.6,0-7.2,0.2-10.8,0.6l0,0c6,2.8,10.3,8.5,11.3,15.1l0,0
			c-3-0.5-5.9-0.7-8.9-0.7c-14.5,0-28.5,5.4-39.2,15.2l0,0c10.7,9.8,24.7,15.2,39.2,15.2c3,0,6-0.2,8.9-0.7l0,0
			c-1,6.6-5.2,12.2-11.3,15.1l0,0c3.6,0.4,7.2,0.6,10.8,0.6c15.2,0,30.1-3.4,43.8-10.1l0,0c-11-0.1-19.8-9.1-19.8-20.1
			S-1210.6,1398.6-1199.6,1398.5L-1199.6,1398.5z"></path>
		<path class="C" d="M-1144.5,1453.5c-0.1,11-9.1,19.8-20.1,19.8s-19.9-8.8-20.1-19.8l0,0c-6.6,13.6-10.1,28.6-10.1,43.8
			c0,3.6,0.2,7.2,0.6,10.8l0,0c2.8-6,8.5-10.3,15.1-11.3l0,0c-0.5,3-0.7,5.9-0.7,8.9c0,14.5,5.4,28.5,15.2,39.2l0,0
			c9.8-10.7,15.2-24.7,15.2-39.2c0-3-0.2-6-0.7-8.9l0,0c6.6,1,12.2,5.2,15.1,11.3l0,0c0.4-3.6,0.6-7.2,0.6-10.8
			C-1134.4,1482.1-1137.9,1467.1-1144.5,1453.5L-1144.5,1453.5z"></path>
		<path class="C" d="M-1268.3,1321.6c-6.1-8.5-13.8-15.7-22.7-21.2l0,0v54.6C-1285,1342.9-1277.4,1331.6-1268.3,1321.6
			L-1268.3,1321.6z"></path>
		<path class="C" d="M-1228.2,1292.2h-54.6c5.5,8.9,12.7,16.6,21.2,22.8l0,0C-1251.6,1305.8-1240.3,1298.1-1228.2,1292.2
			L-1228.2,1292.2z"></path>
		<path class="C" d="M-1046.5,1292.2h-54.6c12.1,6,23.3,13.6,33.3,22.7l0,0C-1059.2,1308.7-1052,1301-1046.5,1292.2
			L-1046.5,1292.2z"></path>
		<path class="C" d="M-1038.2,1300.3c-8.9,5.5-16.6,12.7-22.8,21.2l0,0c9.1,10,16.8,21.3,22.8,33.4l0,0V1300.3z"></path>
		<path class="D" d="M-1137.2,1363.2c-1.7,7-4.1,13.9-7.3,20.4c-2.8,5.7-6.1,11.1-9.9,16.2l0,0c3.6,2,6.6,4.9,8.5,8.5l0,0
			c10.9-8.1,23.3-14,36.6-17.2l0,0c8.6-3.1,14.2-11.3,14.2-20.4c0-12-9.7-21.8-21.8-21.8C-1125.9,1349-1134.1,1354.7-1137.2,1363.2
			L-1137.2,1363.2z"></path>
		<path class="D" d="M-1192,1363.2c-3.1-8.6-11.3-14.2-20.4-14.2c-12,0-21.8,9.7-21.8,21.8c0,9.1,5.7,17.3,14.2,20.4l0,0
			c7,1.7,13.9,4.1,20.4,7.3l0,0c5.7,2.8,11.1,6.1,16.2,9.9l0,0c2-3.6,4.9-6.6,8.5-8.5l0,0C-1183,1388.9-1188.8,1376.5-1192,1363.2
			L-1192,1363.2z"></path>
		<path class="D" d="M-1184.7,1453.5c2.8-5.7,6.1-11.1,9.9-16.2l0,0c-3.6-2-6.6-4.9-8.5-8.5l0,0c-10.9,8.1-23.3,14-36.6,17.2l0,0
			c-8.6,3.1-14.2,11.3-14.2,20.4c0,12,9.7,21.8,21.8,21.8c9.1,0,17.3-5.7,20.4-14.2l0,0C-1190.3,1466.8-1187.9,1460-1184.7,1453.5
			L-1184.7,1453.5z"></path>
		<path class="D" d="M-1109.3,1445.9c-7-1.7-13.9-4.1-20.4-7.3c-5.7-2.8-11.1-6.1-16.2-9.9l0,0c-2,3.6-4.9,6.6-8.5,8.5l0,0
			c8.1,10.9,14,23.3,17.2,36.6l0,0c3.1,8.6,11.3,14.2,20.4,14.2c12,0,21.8-9.7,21.8-21.8C-1095,1457.2-1100.7,1449.1-1109.3,1445.9
			L-1109.3,1445.9z"></path>
		<path class="C" d="M-1038.2,1482.1c-6,12.1-13.6,23.3-22.7,33.3l0,0c6.1,8.5,13.8,15.7,22.7,21.2l0,0V1482.1z"></path>
		<path class="C" d="M-1067.6,1522.2c-10,9.1-21.3,16.8-33.4,22.8l0,0h54.6C-1051.9,1536-1059.1,1528.3-1067.6,1522.2
			L-1067.6,1522.2z"></path>
		<path class="C" d="M-1261.5,1522.3c-8.5,6.1-15.7,13.8-21.2,22.7l0,0h54.6C-1240.3,1539-1251.5,1531.3-1261.5,1522.3
			L-1261.5,1522.3z"></path>
		<path class="C" d="M-1268.2,1515.6c-9.1-10.1-16.8-21.3-22.8-33.5l0,0v54.6C-1282.1,1531.2-1274.4,1524-1268.2,1515.6
			L-1268.2,1515.6z"></path>
		<path class="B" d="M-1144.5,1383.6c-0.1-11-9.1-19.8-20.1-19.8s-19.9,8.8-20.1,19.8l0,0c2.8,5.7,6.1,11.1,9.9,16.2l0,0
			c3.1-1.7,6.7-2.6,10.2-2.6c3.6,0,7.1,0.9,10.2,2.6l0,0C-1150.6,1394.7-1147.3,1389.3-1144.5,1383.6L-1144.5,1383.6z"></path>
		<path class="B" d="M-1129.7,1398.5c-5.7,2.8-11.1,6.1-16.2,9.9l0,0c1.7,3.1,2.6,6.7,2.6,10.2c0,3.6-0.9,7.1-2.6,10.2l0,0
			c5.1,3.8,10.5,7.1,16.2,9.9l0,0c11-0.1,19.8-9.1,19.8-20.1C-1109.8,1407.6-1118.7,1398.6-1129.7,1398.5L-1129.7,1398.5z"></path>
		<path class="B" d="M-1186,1418.6c0-3.6,0.9-7.1,2.6-10.2l0,0c-5.1-3.8-10.5-7.1-16.2-9.9l0,0c-11,0.1-19.8,9.1-19.8,20.1
			s8.8,19.9,19.8,20.1l0,0c5.7-2.8,11.1-6.1,16.2-9.9l0,0C-1185.1,1425.6-1186,1422.1-1186,1418.6L-1186,1418.6z"></path>
		<path class="B" d="M-1144.5,1453.5c-2.8-5.7-6.1-11.1-9.9-16.2l0,0c-3.1,1.7-6.7,2.6-10.2,2.6c-3.6,0-7.1-0.9-10.2-2.6l0,0
			c-3.8,5.1-7.1,10.5-9.9,16.2l0,0c0.1,11,9.1,19.8,20.1,19.8S-1144.7,1464.5-1144.5,1453.5L-1144.5,1453.5z"></path>
	</g>
</switch>

</svg>