<svg version="1.1" id="Camada_1" xmlns:x="&amp;ns_extend;" xmlns:i="&amp;ns_ai;" xmlns:graph="&amp;ns_graphs;" xmlns="http://www.w3.org/2000/svg" xmlns:xlink="http://www.w3.org/1999/xlink" x="0px" y="0px" viewBox="0 0 252.6 252.6" style="enable-background:new 0 0 252.6 252.6;" xml:space="preserve">
<style type="text/css">
	.A{fill:#E1E1E1;}
	.B{fill:#1C1C1F;}
</style>
<switch>
	
	<g i:extraneous="self">
		<path class="A" d="M126.4,126.2c0-69.6,56.4-126.1,126-126.2v0H0v0c69.4,0.3,125.6,56.7,125.6,126.2S69.4,252.1,0,252.4v0h252.4
			v0C182.8,252.3,126.4,195.8,126.4,126.2z"></path>
		<path class="B" d="M126.4,126.2c0,69.6,56.4,126.1,126,126.2V0C182.8,0.1,126.4,56.6,126.4,126.2z"></path>
		<path class="B" d="M125.6,126.2C125.6,56.7,69.4,0.3,0,0v252.4C69.4,252.1,125.6,195.7,125.6,126.2z"></path>
	</g>
</switch>

</svg>