<svg version="1.0" id="Camada_1" xmlns:x="&amp;ns_extend;" xmlns:i="&amp;ns_ai;" xmlns:graph="&amp;ns_graphs;" xmlns="http://www.w3.org/2000/svg" xmlns:xlink="http://www.w3.org/1999/xlink" x="0px" y="0px" viewBox="0 0 252.6 252.6" style="enable-background:new 0 0 252.6 252.6;" xml:space="preserve">
<style type="text/css">
	.A{fill:#F7F5DC;}
	.B{fill:2B465C;}
	.C{fill:#AAC0CF;}
	.D{fill:#ABC5D9;}
</style>
	<g i:extraneous="self">
		<path class="A" d="M0,0C2.4,4.8,4.8,2.4,0,0l0,252.6h252.6V0H0z"></path>
		<path class="B" d="M238.4,238.4c-2.3,4.1-2.1,9.4,0.2,14.2h14v-14C247.8,236.2,242.5,236.1,238.4,238.4z"></path>
		<path class="C" d="M60.8,252.6c-0.1-4.2-3.5-7.5-7.7-7.5h-0.4c2.7-1.2,4.6-3.9,4.6-7c0-4.2-3.4-7.7-7.7-7.7H22.1v-27
			c0-4.2-3.4-7.7-7.7-7.7h0c-3.1,0-5.8,1.9-7,4.6v-0.4c0-4.2-3.3-7.6-7.5-7.7v60.4H60.8z"></path>
		<path class="B" d="M96.5,243.5c1.3-1.6,1.9-3.2,1.9-4.7c1.6-0.4,3.1-1.3,4.3-2.5c3.8-3.8,3.7-10-0.1-13.8
			c-0.1-0.1-0.3-0.2-0.4-0.3c2.6-3.8,2.1-9-1.3-12.4c-1.5-1.5-3.4-2.4-5.4-2.7c0.5-3-0.4-6.3-2.8-8.6c-5-4.9-6.6-3.5-10.1-2.3
			c-0.4-1.6-1.3-3.1-2.5-4.3c-3.8-3.8-10-3.7-13.8,0.1c-1,1-1.8,2.3-2.2,3.6c-2.6,0.3-5.2,0.9-7.7,1.8c0,0,0,0,0-0.1l0.1-0.1
			c0,0-0.1,0-0.1,0c0,0,0-0.1,0-0.1l-0.1,0.1c0,0,0,0-0.1,0c0.9-2.5,1.5-5.1,1.8-7.7c1.3-0.5,2.5-1.2,3.6-2.2
			c3.8-3.8,3.9-10,0.1-13.8c-1.2-1.3-2.7-2.1-4.3-2.5c1.2-3.4,2.6-5.1-2.3-10.1c-2.3-2.4-5.5-3.3-8.6-2.8c-0.3-2-1.2-3.9-2.7-5.4
			c-3.3-3.4-8.5-3.8-12.4-1.3c-0.1-0.1-0.2-0.3-0.3-0.4c-3.8-3.8-10-3.9-13.8-0.1c-1.3,1.2-2.1,2.7-2.5,4.3c-1.5,0-3.1,0.6-4.7,1.9
			c-1.5,1.2-1.9,2.6-2.1,2.8c0.8-0.1,1.6-0.2,2.4-0.3c0.1,0,0.5,0,1-0.1c2.2-0.2,4-0.4,5.6-0.4c5.7,0,14.2,1.3,21.6,8.8
			c10.3,10.3,10.3,27.3-0.4,37.7c-20,19.3-31.5,22.4-31.7,24.1c-0.6,5.2,10.7,1.5,12.4,3.1c0,0,0,0,0,0l0,0c0,0,0,0,0,0c0,0,0,0,0,0
			l0,0c0,0,0,0,0,0c1.6,1.7-2.2,13,3.1,12.4c1.7-0.2,6.6-10.5,25.9-29.9c10.5-10.5,27.4-10.7,37.7-0.4c7.4,7.4,8.8,15.9,8.8,21.6
			c-0.1,1.5-0.2,3.4-0.4,5.6c-0.1,0.5-0.1,0.8-0.1,1c-0.1,0.8-0.2,1.6-0.3,2.4C93.8,245.4,95.3,245,96.5,243.5z"></path>
		<path class="D" d="M98.2,174.8c0.2-0.2,0.4-0.4,0.6-0.6c3.9-3.9,7.8-8.5,0.4-14.3c-0.5-2.9-0.2-4.6,0.2-5.5l0,0
			c0,0,0,0,0,0c0,0,0,0,0,0l0,0c-0.9,0.4-2.6,0.7-5.5,0.2c-5.8-7.4-10.4-3.6-14.3,0.4c-0.2,0.2-0.4,0.4-0.6,0.6
			c-25.7-1.4,3,10-10.2,23.2c-0.1,0.1-0.2,0.2-0.3,0.3l-17.2,17.2c-2.2,2.2-3.1,5-1.1,7.2l0,0c0,0,0,0,0,0c0,0,0,0,0,0l0,0
			c2.2,2,5,1.1,7.2-1.1l17.2-17.2c0.1-0.1,0.2-0.2,0.3-0.3C88.1,171.8,99.6,200.5,98.2,174.8z"></path>
		<path class="C" d="M191.8,0c0.1,4.2,3.5,7.5,7.7,7.5h0.4c-2.7,1.2-4.6,3.9-4.6,7c0,4.2,3.4,7.7,7.7,7.7h27.5v27
			c0,4.2,3.4,7.7,7.7,7.7h0c3.1,0,5.8-1.9,7-4.6v0.4c0,4.2,3.3,7.6,7.5,7.7V0L191.8,0z"></path>
		<path class="B" d="M156.1,9.1c-1.3,1.6-1.9,3.2-1.9,4.7c-1.6,0.4-3.1,1.3-4.3,2.5c-3.8,3.8-3.7,10,0.1,13.8
			c0.1,0.1,0.3,0.2,0.4,0.3c-2.6,3.8-2.1,9,1.3,12.4c1.5,1.5,3.4,2.4,5.4,2.7c-0.5,3,0.4,6.3,2.8,8.6c5,4.9,6.6,3.5,10.1,2.3
			c0.4,1.6,1.3,3.1,2.5,4.3c3.8,3.8,10,3.7,13.8-0.1c1-1,1.8-2.3,2.2-3.6c2.6-0.3,5.2-0.9,7.7-1.8c0,0,0,0,0,0.1l-0.1,0.1
			c0,0,0.1,0,0.1,0c0,0,0,0.1,0,0.1l0.1-0.1c0,0,0,0,0.1,0c-0.9,2.5-1.5,5.1-1.8,7.7c-1.3,0.5-2.5,1.2-3.6,2.2
			c-3.8,3.8-3.9,10-0.1,13.8c1.2,1.3,2.7,2.1,4.3,2.5c-1.2,3.4-2.6,5.1,2.3,10.1c2.3,2.4,5.5,3.3,8.6,2.8c0.3,2,1.2,3.9,2.7,5.4
			c3.3,3.4,8.5,3.8,12.4,1.3c0.1,0.1,0.2,0.3,0.3,0.4c3.8,3.8,10,3.9,13.8,0.1c1.3-1.2,2.1-2.7,2.5-4.3c1.5,0,3.1-0.6,4.7-1.9
			c1.5-1.2,1.9-2.6,2.1-2.8c-0.8,0.1-1.6,0.2-2.4,0.3c-0.1,0-0.5,0-1,0.1c-2.2,0.2-4,0.4-5.6,0.4c-5.7,0-14.2-1.3-21.6-8.8
			c-10.3-10.3-10.3-27.3,0.4-37.7c20-19.3,31.5-22.4,31.7-24.1c0.6-5.2-10.7-1.5-12.4-3.1c0,0,0,0,0,0l0,0c0,0,0,0,0,0c0,0,0,0,0,0
			l0,0c0,0,0,0,0,0c-1.6-1.7,2.2-13-3.1-12.4c-1.7,0.2-6.6,10.5-25.9,29.9c-10.5,10.5-27.4,10.7-37.7,0.4
			c-7.4-7.4-8.8-15.9-8.8-21.6c0.1-1.5,0.2-3.4,0.4-5.6c0.1-0.5,0.1-0.8,0.1-1c0.1-0.8,0.2-1.6,0.3-2.4
			C158.8,7.2,157.3,7.6,156.1,9.1z"></path>
		<path class="D" d="M154.4,77.8c-0.2,0.2-0.4,0.4-0.6,0.6c-3.9,3.9-7.8,8.5-0.4,14.3c0.5,2.9,0.2,4.6-0.2,5.5l0,0
			c0,0,0,0,0,0c0,0,0,0,0,0l0,0c0.9-0.4,2.6-0.7,5.5-0.2c5.8,7.4,10.4,3.6,14.3-0.4c0.2-0.2,0.4-0.4,0.6-0.6
			c25.7,1.4-3-10,10.2-23.2c0.1-0.1,0.2-0.2,0.3-0.3l17.2-17.2c2.2-2.2,3.1-5,1.1-7.2l0,0c0,0,0,0,0,0c0,0,0,0,0,0l0,0
			c-2.2-2-5-1.1-7.2,1.1L178,67.3c-0.1,0.1-0.2,0.2-0.3,0.3C164.5,80.8,153,52.1,154.4,77.8z"></path>
		<path class="D" d="M238.4,213C238.4,213,238.3,213,238.4,213h-0.1H213v23.9l0,0c0,0.1,0,0.3,0,0.4
			c0,4.9,4,8.8,8.8,8.8c4.9,0,8.8-4,8.8-8.8c0-4.9-4-8.8-8.8-8.8c-1,0-1.9,0.2-2.8,0.5V219h11c-0.3,0.9-0.5,1.8-0.5,2.8
			c0,4.9,4,8.8,8.8,8.8s8.8-4,8.8-8.8C247.2,216.9,243.3,213,238.4,213z"></path>
		<path class="B" d="M14.3,14.3C16.6,10.2,16.4,4.8,14,0H0l0,14C4.8,16.4,10.2,16.6,14.3,14.3z"></path>
		<path class="D" d="M14.3,39.6C14.3,39.6,14.3,39.6,14.3,39.6h0.1h25.3V15.8l0,0c0-0.1,0-0.3,0-0.4
			c0-4.9-4-8.8-8.8-8.8c-4.9,0-8.8,4-8.8,8.8c0,4.9,4,8.8,8.8,8.8c1,0,1.9-0.2,2.8-0.5v9.9h-11c0.3-0.9,0.5-1.8,0.5-2.8
			c0-4.9-4-8.8-8.8-8.8s-8.8,4-8.8,8.8C5.4,35.7,9.4,39.6,14.3,39.6z"></path>
	</g>

</svg>