<svg version="1.1" id="Camada_1" xmlns:x="&amp;ns_extend;" xmlns:i="&amp;ns_ai;" xmlns:graph="&amp;ns_graphs;" xmlns="http://www.w3.org/2000/svg" xmlns:xlink="http://www.w3.org/1999/xlink" x="0px" y="0px" viewBox="0 0 252.6 252.6" style="enable-background:new 0 0 252.6 252.6;" xml:space="preserve">
<style type="text/css">
	.A{fill:#C2BFC1;}
	.B{fill:none;}
	.C{fill:#AECBE1;}
	.D{fill:#2D2E27;}
</style>
<switch>
	
	<g i:extraneous="self">
		<path class="A" d="M126.3,252.6L126.3,252.6c0,0.1,0,0.2,0,0.4C126.3,252.9,126.3,252.7,126.3,252.6L126.3,252.6z"></path>
		<path class="B" d="M126.3,0.2L126.3,0.2c0-0.1,0-0.1,0-0.2C126.3,0.1,126.3,0.1,126.3,0.2L126.3,0.2z"></path>
		<polygon class="A" points="126.3,252.6 126.3,252.6 126.3,252.6 		"></polygon>
		<path class="A" d="M0,126.4C0,126.4,0,126.4,0,126.4l0,0.2c0,0,0,0,0,0C0.1,126.5,0,126.5,0,126.4z"></path>
		<polygon class="B" points="126.3,0.2 126.3,0.2 126.3,0.2 		"></polygon>
		<polygon class="A" points="126.3,252.6 126.3,252.6 126.3,252.6 		"></polygon>
		<polygon class="B" points="126.3,0.2 126.3,0.2 126.3,0.2 		"></polygon>
		<path class="A" d="M67.1,63c33,2.1,59.1,29.5,59.1,63c0,0.1,0,0.3,0,0.4c0,0,0,0,0,0c0,0,0.1,0,0.1,0c0-0.1,0-0.3,0-0.4
			c0-33.5,26.1-60.9,59.1-63c-33-2-59.1-29.4-59.1-62.8c0,0,0,0,0,0s0,0,0,0C126.2,33.6,100.1,60.9,67.1,63z"></path>
		<path class="A" d="M59.2,63C26.2,60.9,0.1,33.6,0,0.2c0,0,0,0,0,0V126C0,92.4,26.2,65,59.2,63z"></path>
		<path class="A" d="M0,126v0.4c0,0,0,0,0,0C0,126.2,0,126.1,0,126z"></path>
		<path class="A" d="M0,252.6C0.2,218,28.3,190,63,189.9c0-0.1,0-0.1,0-0.2c0-0.2,0-0.4,0-0.6c-34.5-0.1-62.6-28-62.9-62.5
			c0,0,0,0,0,0L0,252.6L0,252.6z"></path>
		<path class="A" d="M189.4,189.1C189.4,189.1,189.4,189.1,189.4,189.1c-0.1,0.1-0.1,0.3-0.1,0.4c0,0.1,0,0.2,0,0.4c0,0,0,0,0,0
			c34.7,0,62.9,28.1,63.1,62.8h0V128.5C251.2,162.2,223.4,189.1,189.4,189.1z"></path>
		<path class="A" d="M193.4,63c32.2,2,57.8,28.1,59.1,60.4V0.2c0,0,0,0,0,0C252.4,33.6,226.3,60.9,193.4,63z"></path>
		<path class="A" d="M63,62.8c0.1,0,0.1,0,0.2,0c0,0,0,0,0,0c0.2-34.7,28.4-62.7,63.1-62.7v0H0c0,0,0,0,0,0
			C34.7,0.3,62.7,28.3,63,62.8z"></path>
		<path class="C" d="M126.3,0.2c-34.7,0-62.9,28-63.1,62.7c1.3,0,2.7,0.1,4,0.1C100.1,60.9,126.2,33.6,126.3,0.2z"></path>
		<path class="C" d="M0,0.2C0.1,33.6,26.2,60.9,59.2,63c1.3-0.1,2.5-0.1,3.8-0.1C62.7,28.3,34.7,0.3,0,0.2z"></path>
		<path class="A" d="M63.2,189.1c0.2-34.6,28.4-62.7,63.1-62.7l0,0c-34.9,0-63.1-28.3-63.1-63.1c0-0.1,0-0.1,0-0.2c0,0,0,0,0,0
			c-0.1,0-0.1,0-0.2,0c0,0.1,0,0.1,0,0.2c0,34.8-28.2,63-62.9,63.1c0,0.1,0,0.1,0,0.2c34.5,0.1,62.6,28,62.9,62.5
			C63,189.1,63.1,189.1,63.2,189.1C63.2,189.1,63.2,189.1,63.2,189.1z"></path>
		<path class="C" d="M67.1,63c-1.3,0.1-2.7,0.1-4,0.1c0,0.1,0,0.1,0,0.2c0,34.9,28.3,63.1,63.1,63.1c0-0.1,0-0.3,0-0.4
			C126.3,92.4,100.1,65,67.1,63z"></path>
		<path class="C" d="M63,63.3c0-0.1,0-0.1,0-0.2c-1.3,0-2.5-0.1-3.8-0.1C26.2,65,0,92.4,0,126c0,0.1,0,0.3,0,0.4
			C34.8,126.3,63,98.1,63,63.3z"></path>
		<path class="C" d="M0.1,126.6c0.3,34.5,28.3,62.4,62.9,62.5C62.6,154.6,34.6,126.7,0.1,126.6z"></path>
		<path class="A" d="M252.5,126.6C252.5,126.6,252.5,126.6,252.5,126.6c0-0.1,0.1-0.1,0.1-0.2c0,0,0,0-0.1,0V126.6z"></path>
		<path class="A" d="M189.6,63.3c0-0.1,0-0.1,0-0.2c-0.1,0-0.1,0-0.2,0c0,0,0,0,0,0c0,0.1,0,0.1,0,0.2c0,34.8-28.2,63.1-63,63.1
			c0,0,0,0,0,0c33.7,0,61.3,26.6,63,59.9c1.8-33.3,29.3-59.7,63-59.7c0.1,0,0.1,0,0.2,0v-0.2C217.7,126.3,189.6,98.1,189.6,63.3z"></path>
		<path class="C" d="M189.4,63.3c0-0.1,0-0.1,0-0.2c-1.3,0-2.7-0.1-4-0.1c-33,2.1-59.1,29.5-59.1,63c0,0.1,0,0.3,0,0.4
			C161.2,126.4,189.4,98.1,189.4,63.3z"></path>
		<path class="A" d="M252.5,128.5c0-0.6,0-1.3,0-1.9c0,0,0,0,0,0V128.5z"></path>
		<path class="C" d="M252.3,126.6c-33.7,0-61.2,26.4-63,59.7c0,0.9,0.1,1.8,0.1,2.8c0,0,0.1,0,0.1,0c34,0,61.7-26.9,63.1-60.6
			v-1.9C252.4,126.6,252.4,126.6,252.3,126.6z"></path>
		<path class="A" d="M252.5,123.4v3c0,0,0,0,0.1,0c0-0.1,0-0.3,0-0.4C252.6,125.1,252.5,124.3,252.5,123.4z"></path>
		<path class="C" d="M189.6,63.3c0,34.8,28.2,63,62.9,63.1v-3C251.2,91.1,225.6,65,193.4,63c-1.3,0.1-2.5,0.1-3.8,0.1
			C189.6,63.2,189.6,63.2,189.6,63.3z"></path>
		<path class="A" d="M126.3,0.2c34.7,0,62.9,28,63.1,62.7c0,0,0.1,0,0.1,0c0,0,0.1,0,0.1,0c0.2-34.6,28.3-62.6,62.9-62.7
			c0,0,0,0,0,0L126.3,0.2L126.3,0.2z"></path>
		<path class="C" d="M185.4,63c1.3-0.1,2.6-0.1,4-0.1C189.1,28.2,161,0.2,126.3,0.2C126.4,33.6,152.5,60.9,185.4,63z"></path>
		<path class="C" d="M252.5,0.2c-34.6,0.1-62.7,28.1-62.9,62.7c1.3,0,2.6,0.1,3.8,0.1C226.3,60.9,252.4,33.6,252.5,0.2z"></path>
		<path class="A" d="M63.2,189.9C63.2,189.9,63.2,189.9,63.2,189.9c-0.1,0-0.1,0-0.2,0c-0.1,33.2-25.8,60.4-58.5,62.8h121.8v0
			C91.5,252.6,63.4,224.6,63.2,189.9z"></path>
		<path class="C" d="M63,189.9C28.3,190,0.2,218,0,252.6h4.4C37.1,250.3,62.9,223.1,63,189.9z"></path>
		<path class="A" d="M189.3,192.9c-1.8,33.3-29.3,59.7-63,59.7v0h121.4C216.1,250.3,190.9,224.7,189.3,192.9z"></path>
		<path class="C" d="M189.4,189.9C189.4,189.9,189.4,189.9,189.4,189.9c0,1,0,2-0.1,3.1c1.6,31.8,26.8,57.4,58.4,59.7h4.8
			C252.3,217.9,224.1,189.9,189.4,189.9z"></path>
		<path class="A" d="M189.2,189.9c0-0.1,0-0.1,0-0.2c0-0.2,0-0.4,0-0.6c-34.6-0.1-62.6-28.1-62.9-62.7c0,0-0.1,0-0.1,0
			c0,0,0,0,0,0c-0.2,34.6-28.4,62.7-63.1,62.7c0,0.1,0,0.3,0,0.4c0,0.1,0,0.2,0,0.4c34.7,0,62.9,28.1,63.1,62.8c0,0,0,0,0,0s0,0,0,0
			C126.5,218,154.6,190,189.2,189.9z"></path>
		<path class="C" d="M63.2,189.1c34.7,0,62.9-28,63.1-62.7C91.6,126.4,63.4,154.4,63.2,189.1z"></path>
		<path class="C" d="M126.3,126.4c0.2,34.6,28.3,62.5,62.9,62.7c0-0.9,0-1.9,0.1-2.8C187.6,152.9,160.1,126.4,126.3,126.4z"></path>
		<path class="C" d="M126.3,252.6c-0.2-34.7-28.4-62.8-63.1-62.8C63.4,224.6,91.5,252.6,126.3,252.6z"></path>
		<path class="C" d="M126.3,252.6c33.7,0,61.2-26.4,63-59.7c-0.1-1-0.1-2-0.1-3.1C154.6,190,126.5,218,126.3,252.6z"></path>
		<path class="D" d="M0,233.6v19h19.9c20.6-6.6,36.9-23.2,43.1-43.8c6.4,20.9,22.9,37.4,43.7,43.8h39
			c20.6-6.4,36.9-22.5,43.4-43.2c6.4,20.4,22.5,36.6,42.9,43.2h20.3v-19.2c-6.6-21.1-23.5-37.7-44.8-43.9
			c21.3-6.1,38.2-22.5,44.8-43.7V106C246,85.5,230,69.4,209.5,63c20.5-6.6,36.6-22.9,43-43.4V0.2h-19.3
			c-20.8,6.5-37.4,23.1-43.7,43.9c-6.4-20.9-22.9-37.5-43.8-43.9h-38.9c-20.9,6.5-37.4,23-43.8,44c-6.4-20.9-22.9-37.5-43.7-44H0
			v19.2C6.4,40,22.5,56.4,43.1,63C22.5,69.5,6.3,86,0,106.6v38.7c6.6,21.3,23.6,38,45,44.2C23.6,195.6,6.6,212.3,0,233.6z
			 M66.2,192.9c30.5,1.6,55.3,26.1,57,56.7C92.6,248,67.9,223.5,66.2,192.9z M81.3,189.5c21.4-6.2,38.4-22.9,45-44.1
			c6.6,21.2,23.6,38,45,44.1c-21.4,6.1-38.4,22.8-45,44C119.7,212.3,102.7,195.6,81.3,189.5z M66.2,186c1.8-30.5,26.5-55,57-56.6
			C121.4,159.9,96.7,184.5,66.2,186z M129.4,129.4c30.5,1.6,55.1,25.8,56.9,56.6C155.9,184.4,131.2,159.9,129.4,129.4z M129.3,249.6
			c1.7-30.5,26.4-55.1,57-56.7C184.6,223.7,159.9,248,129.3,249.6z M249.4,249.7h-1.6c-30.1-2.2-53.9-26.6-55.5-56.7v0
			C222.9,194.4,247.7,219,249.4,249.7z M192.3,186c1.8-30.8,26.6-55,57.2-56.4C247.6,160.4,223,184.6,192.3,186z M249.4,3.2
			c-1.6,30.1-25.7,54.8-56,56.8c-0.3,0-0.5,0-0.8,0C194.3,29.5,219,4.9,249.4,3.2z M193.4,65.9c30.8,2,54.9,26.7,56.1,57.4
			c-30.8-1.6-55.5-26.5-56.9-57.3C192.9,66,193.1,66,193.4,65.9z M233.2,126.4c-20.8,6.3-37.3,22.5-43.9,43.3
			c-6.5-20.7-22.8-36.9-43.5-43.3c20.8-6.5,37.2-23,43.6-43.8C195.9,103.4,212.4,120,233.2,126.4z M129.4,123.3
			c1.3-30.4,25.4-55.4,56.1-57.4c0.3,0,0.6,0,0.9,0.1C185,96.9,160.2,121.8,129.4,123.3z M186.3,60c-0.3,0-0.6,0-0.9,0.1
			c-30.4-2-54.5-26.6-56.1-56.8C159.9,4.8,184.6,29.4,186.3,60z M169.4,63c-20.6,6.6-36.8,23-43.1,43.5c-6.4-20.6-22.5-37-43.1-43.5
			c20.6-6.6,36.7-22.9,43.1-43.5C132.6,40.1,148.8,56.4,169.4,63z M123.2,3.2C121.6,33.4,97.5,58,67.1,60c-0.3,0-0.6,0-0.9-0.1
			C67.9,29.4,92.6,4.8,123.2,3.2z M67.1,66c30.6,2,54.7,26.9,56.1,57.4C92.4,121.8,67.5,96.9,66.2,66C66.5,66,66.8,66,67.1,66z
			 M106.7,126.4c-20.8,6.5-37.3,23.1-43.7,44c-6.4-20.9-23.1-37.5-44-44c21-6.4,37.6-23,44-44C69.4,103.4,85.9,119.9,106.7,126.4z
			 M3.1,3.2C33.6,4.9,58.2,29.5,59.9,60c-0.2,0-0.5,0-0.7,0C28.8,58,4.7,33.4,3.1,3.2z M59.2,66c0.3,0,0.5,0,0.8,0
			c-1.4,30.8-26.1,55.7-56.9,57.3C4.4,92.9,28.5,68,59.2,66z M3.1,129.6c30.3,1.7,54.9,26.1,56.7,56.4C29.6,184.3,5,159.9,3.1,129.6
			z M59.9,192.9c-1.6,29.9-25.4,54.5-55.5,56.7H3.1C4.8,219.2,29.4,194.6,59.9,192.9z"></path>
	</g>
</switch>

</svg>