<svg version="1.1" id="Layer_1" xmlns="http://www.w3.org/2000/svg" xmlns:xlink="http://www.w3.org/1999/xlink" x="0px" y="0px" width="500px" height="500px" viewBox="0 0 500 500" enable-background="new 0 0 500 500" xml:space="preserve">
<g id="B">
	<path class="paintable" fill="#D1D3D4" d="M286.525,165.106l70.922-40.851l70.922,40.851v81.702l-70.922,40.851l-70.922-40.851V165.106z
		 M143.262,165.106l70.923-40.851l70.922,40.851v81.702l-70.922,40.851l-70.923-40.851V165.106z M0,165.106l70.922-40.851
		l70.922,40.851v81.702l-70.922,40.851L0,246.809V165.106z M358.156,289.361l70.922-40.852L500,289.361v81.701l-70.922,40.853
		l-70.922-40.853V289.361z M214.894,289.361l70.922-40.852l70.922,40.852v81.701l-70.922,40.853l-70.922-40.853V289.361
		L214.894,289.361z M71.631,289.361l70.922-40.852l70.922,40.852v81.701l-70.922,40.853l-70.922-40.853V289.361z M358.156,40.851
		L429.078,0L500,40.851v81.702l-70.922,40.851l-70.922-40.851V40.851z M214.894,40.851L285.816,0l70.922,40.851v81.702
		l-70.922,40.851l-70.922-40.851V40.851L214.894,40.851z M71.631,40.851L142.553,0l70.922,40.851v81.702l-70.922,40.851
		l-70.922-40.851V40.851z"></path>
</g>
<g id="C">
	<path class="paintable" fill="#939598" d="M356.029,124.823c-0.299,1.729-2.104,2.088-3.121,3.12c-3.174,3.217-5.26,7.587-7.377,12.198
		c-3.449,7.52-7.861,15.587-15.035,19.574c-7.408,4.118-16.129,3.277-25.531,2.554c-6.617-0.51-12.225,0.359-17.021,2.27
		c4.984-2.787,8.767-6.437,15.318-7.093c6.347-0.634,11.24,0.92,15.888,0.568c10.084-0.766,15.877-7.685,19.29-15.036
		c2.312-4.972,4.062-9.524,8.513-12.766C349.816,128.125,353.018,127.46,356.029,124.823z M212.766,124.823
		c-0.298,1.729-2.103,2.088-3.12,3.12c-3.174,3.217-5.261,7.587-7.376,12.198c-3.45,7.52-7.862,15.587-15.036,19.574
		c-7.408,4.118-16.13,3.277-25.532,2.554c-6.617-0.51-12.225,0.359-17.021,2.27c4.983-2.787,8.766-6.437,15.319-7.093
		c6.346-0.634,11.239,0.92,15.887,0.568c10.083-0.766,15.875-7.685,19.291-15.036c2.31-4.972,4.062-9.524,8.511-12.766
		C206.554,128.125,209.755,127.46,212.766,124.823z M69.503,124.823c-0.298,1.729-2.102,2.088-3.121,3.12
		c-3.174,3.217-5.26,7.587-7.375,12.198c-3.45,7.52-7.862,15.587-15.036,19.574c-7.408,4.118-16.13,3.277-25.532,2.554
		c-6.617-0.51-12.226,0.359-17.021,2.27c4.983-2.787,8.766-6.437,15.319-7.093c6.345-0.634,11.239,0.92,15.886,0.568
		c10.083-0.766,15.876-7.685,19.291-15.036c2.31-4.972,4.062-9.524,8.511-12.766C63.292,128.125,66.493,127.46,69.503,124.823z
		 M427.66,249.078c-0.299,1.731-2.103,2.089-3.121,3.12c-3.174,3.217-5.26,7.588-7.375,12.199
		c-3.451,7.52-7.863,15.586-15.037,19.574c-7.406,4.117-16.129,3.277-25.531,2.553c-6.617-0.51-12.225,0.359-17.021,2.27
		c4.983-2.787,8.766-6.437,15.319-7.092c6.347-0.635,11.238,0.92,15.888,0.567c10.082-0.765,15.875-7.685,19.289-15.036
		c2.311-4.972,4.062-9.524,8.512-12.766C421.447,252.38,424.648,251.716,427.66,249.078z M284.396,249.078
		c-0.297,1.731-2.103,2.089-3.119,3.12c-3.174,3.217-5.26,7.588-7.377,12.199c-3.449,7.52-7.861,15.586-15.035,19.574
		c-7.408,4.117-16.13,3.277-25.532,2.553c-6.617-0.51-12.225,0.359-17.021,2.27c4.983-2.787,8.766-6.437,15.319-7.092
		c6.345-0.635,11.239,0.92,15.886,0.567c10.084-0.765,15.877-7.685,19.292-15.036c2.312-4.972,4.062-9.524,8.512-12.766
		C278.186,252.38,281.387,251.716,284.396,249.078z M141.135,249.078c-0.298,1.731-2.102,2.089-3.121,3.12
		c-3.174,3.217-5.26,7.588-7.376,12.199c-3.45,7.52-7.862,15.586-15.035,19.574c-7.408,4.117-16.131,3.277-25.532,2.553
		c-6.617-0.51-12.225,0.359-17.021,2.27c4.983-2.787,8.766-6.437,15.319-7.092c6.346-0.635,11.239,0.92,15.887,0.567
		c10.083-0.765,15.875-7.685,19.291-15.036c2.31-4.972,4.062-9.524,8.511-12.766C134.922,252.38,138.124,251.716,141.135,249.078z
		 M427.66,0.567c-0.299,1.731-2.103,2.088-3.121,3.121c-3.174,3.217-5.26,7.587-7.375,12.199
		c-3.451,7.52-7.863,15.587-15.037,19.574c-7.406,4.118-16.129,3.277-25.531,2.553c-6.617-0.51-12.225,0.359-17.021,2.27
		c4.983-2.787,8.766-6.437,15.319-7.092c6.347-0.634,11.238,0.92,15.888,0.567c10.082-0.765,15.875-7.684,19.289-15.035
		c2.311-4.973,4.062-9.525,8.512-12.766C421.447,3.87,424.648,3.205,427.66,0.567z M284.396,0.567
		c-0.297,1.731-2.103,2.088-3.119,3.121c-3.174,3.217-5.26,7.587-7.377,12.199c-3.449,7.52-7.861,15.587-15.035,19.574
		c-7.408,4.118-16.13,3.277-25.532,2.553c-6.617-0.51-12.225,0.359-17.021,2.27c4.983-2.787,8.766-6.437,15.319-7.092
		c6.345-0.634,11.239,0.92,15.886,0.567c10.084-0.765,15.877-7.684,19.292-15.035c2.312-4.973,4.062-9.525,8.512-12.766
		C278.186,3.87,281.387,3.205,284.396,0.567z M141.135,0.567c-0.298,1.731-2.102,2.088-3.121,3.121
		c-3.174,3.217-5.26,7.587-7.376,12.199c-3.45,7.52-7.862,15.587-15.035,19.574c-7.408,4.118-16.131,3.277-25.532,2.553
		c-6.617-0.51-12.225,0.359-17.021,2.27c4.983-2.787,8.766-6.437,15.319-7.092c6.346-0.634,11.239,0.92,15.887,0.567
		c10.083-0.765,15.875-7.684,19.291-15.035c2.31-4.973,4.062-9.525,8.511-12.766C134.922,3.87,138.124,3.205,141.135,0.567z
		 M307.234,153.476c5.207-0.396,8.832,1.06,13.049,0.566c10.086-1.178,12.559-10.516,17.021-17.588
		c-0.03-0.346-0.084-0.672-0.565-0.567C327.34,142.187,316.674,147.218,307.234,153.476z M163.972,153.476
		c5.207-0.396,8.832,1.06,13.05,0.566c10.085-1.178,12.559-10.516,17.021-17.588c-0.032-0.346-0.084-0.672-0.567-0.567
		C184.078,142.187,173.412,147.218,163.972,153.476z M20.709,153.476c5.208-0.396,8.832,1.06,13.05,0.566
		c10.086-1.178,12.559-10.516,17.021-17.588c-0.032-0.346-0.085-0.672-0.567-0.567C40.815,142.187,30.149,147.218,20.709,153.476z
		 M378.865,277.73c5.207-0.396,8.832,1.06,13.051,0.567c10.084-1.179,12.559-10.516,17.02-17.589
		c-0.03-0.346-0.084-0.671-0.565-0.567C398.971,266.442,388.305,271.474,378.865,277.73z M235.603,277.73
		c5.207-0.396,8.831,1.06,13.049,0.567c10.086-1.179,12.559-10.516,17.022-17.589c-0.031-0.346-0.084-0.671-0.566-0.567
		C255.709,266.442,245.042,271.474,235.603,277.73z M92.34,277.73c5.208-0.396,8.832,1.06,13.05,0.567
		c10.085-1.179,12.559-10.516,17.021-17.589c-0.032-0.346-0.084-0.671-0.567-0.567C112.446,266.442,101.78,271.474,92.34,277.73z
		 M378.865,29.22c5.207-0.396,8.832,1.061,13.051,0.567c10.084-1.178,12.559-10.516,17.02-17.588
		c-0.03-0.346-0.084-0.672-0.565-0.567C398.971,17.931,388.305,22.962,378.865,29.22z M235.603,29.22
		c5.207-0.396,8.831,1.061,13.049,0.567c10.086-1.178,12.559-10.516,17.022-17.588c-0.031-0.346-0.084-0.672-0.566-0.567
		C255.709,17.931,245.042,22.962,235.603,29.22z M92.34,29.22c5.208-0.396,8.832,1.061,13.05,0.567
		c10.085-1.178,12.559-10.516,17.021-17.588c-0.032-0.346-0.084-0.672-0.567-0.567C112.446,17.931,101.78,22.962,92.34,29.22z
		 M395.178,154.042c4.013,0.412,8.156-0.716,12.767-0.851c-10.115-5.487-19.826-11.38-29.787-17.021
		c-0.174,0.016-0.336,0.041-0.283,0.283C382.105,143.688,385,153,395.178,154.042z M251.916,154.042
		c4.012,0.412,8.156-0.716,12.766-0.851c-10.115-5.487-19.827-11.38-29.788-17.021c-0.174,0.016-0.336,0.041-0.284,0.283
		C238.842,143.688,241.736,153,251.916,154.042z M108.652,154.042c4.013,0.412,8.157-0.716,12.766-0.851
		c-10.116-5.487-19.826-11.38-29.787-17.021c-0.173,0.016-0.336,0.041-0.284,0.283C95.58,143.688,98.474,153,108.652,154.042z
		 M466.809,278.298c4.015,0.411,8.156-0.717,12.767-0.852c-10.115-5.486-19.826-11.379-29.787-17.021
		c-0.172,0.016-0.336,0.042-0.283,0.283C453.736,267.942,456.631,277.255,466.809,278.298z M323.547,278.298
		c4.012,0.411,8.156-0.717,12.766-0.852c-10.114-5.486-19.825-11.379-29.786-17.021c-0.175,0.016-0.336,0.042-0.283,0.283
		C310.475,267.942,313.367,277.255,323.547,278.298z M180.284,278.298c4.013,0.411,8.157-0.717,12.766-0.852
		c-10.116-5.486-19.826-11.379-29.788-17.021c-0.173,0.016-0.335,0.042-0.284,0.283
		C167.211,267.942,170.105,277.255,180.284,278.298z M466.809,29.787c4.015,0.411,8.156-0.716,12.767-0.851
		c-10.115-5.487-19.826-11.38-29.787-17.021c-0.172,0.016-0.336,0.042-0.283,0.284C453.736,19.432,456.631,28.745,466.809,29.787z
		 M323.547,29.787c4.012,0.411,8.156-0.716,12.766-0.851c-10.114-5.487-19.825-11.38-29.786-17.021
		c-0.175,0.016-0.336,0.042-0.283,0.284C310.475,19.432,313.367,28.745,323.547,29.787z M180.284,29.787
		c4.013,0.411,8.157-0.716,12.766-0.851c-10.116-5.487-19.826-11.38-29.788-17.021c-0.173,0.016-0.335,0.042-0.284,0.284
		C167.211,19.432,170.105,28.745,180.284,29.787z M286.525,178.724c2.426,10.287,10.721,14.264,12.199,24.965
		c1.844,13.352-9.685,18.63-12.199,30.07c0,3.499,0,6.998,0,10.496c1.41-2.777,1.619-5.685,2.836-8.227
		c4.44-9.271,13.385-15.18,14.186-28.369c0.367-6.076-1.926-11.855-4.256-16.17c-2.697-4.996-6.953-9.098-9.645-14.468
		c-1.4-2.794-1.855-5.999-3.121-9.362C286.525,171.348,286.525,175.036,286.525,178.724z M143.262,178.724
		c2.425,10.287,10.721,14.264,12.199,24.965c1.844,13.352-9.683,18.63-12.199,30.07c0,3.499,0,6.998,0,10.496
		c1.412-2.777,1.62-5.685,2.837-8.227c4.441-9.271,13.384-15.18,14.185-28.369c0.369-6.076-1.926-11.855-4.255-16.17
		c-2.697-4.996-6.954-9.098-9.646-14.468c-1.4-2.794-1.854-5.999-3.121-9.362C143.262,171.348,143.262,175.036,143.262,178.724z
		 M0,178.724c2.425,10.287,10.721,14.264,12.199,24.965c1.844,13.352-9.684,18.63-12.199,30.07c0,3.499,0,6.998,0,10.496
		c1.411-2.777,1.619-5.685,2.837-8.227c4.441-9.271,13.384-15.18,14.185-28.369c0.368-6.076-1.926-11.855-4.255-16.17
		c-2.697-4.996-6.954-9.098-9.646-14.468c-1.4-2.794-1.855-5.999-3.121-9.362C0,171.348,0,175.036,0,178.724z M358.156,302.979
		c2.426,10.289,10.721,14.265,12.199,24.965c1.844,13.354-9.685,18.632-12.199,30.072c0,3.498,0,6.996,0,10.496
		c1.412-2.777,1.619-5.687,2.836-8.229c4.44-9.271,13.385-15.18,14.186-28.368c0.369-6.076-1.926-11.854-4.256-16.17
		c-2.697-4.996-6.953-9.099-9.645-14.47c-1.4-2.793-1.855-5.998-3.121-9.36C358.156,295.604,358.156,299.291,358.156,302.979z
		 M214.894,302.979c2.425,10.289,10.721,14.265,12.198,24.965c1.844,13.354-9.684,18.632-12.198,30.072c0,3.498,0,6.996,0,10.496
		c1.41-2.777,1.619-5.687,2.836-8.229c4.441-9.271,13.385-15.18,14.186-28.368c0.367-6.076-1.927-11.854-4.256-16.17
		c-2.697-4.996-6.953-9.099-9.646-14.47c-1.399-2.793-1.854-5.998-3.12-9.36C214.894,295.604,214.894,299.291,214.894,302.979z
		 M71.631,302.979c2.425,10.289,10.721,14.265,12.198,24.965c1.844,13.354-9.683,18.632-12.198,30.072c0,3.498,0,6.996,0,10.496
		c1.411-2.777,1.619-5.687,2.837-8.229c4.44-9.271,13.384-15.18,14.184-28.368c0.369-6.076-1.926-11.854-4.255-16.17
		c-2.697-4.996-6.953-9.099-9.645-14.47c-1.4-2.793-1.855-5.998-3.121-9.36C71.631,295.604,71.631,299.291,71.631,302.979z
		 M358.156,54.468c2.426,10.288,10.721,14.264,12.199,24.964c1.844,13.353-9.685,18.63-12.199,30.071c0,3.499,0,6.998,0,10.497
		c1.412-2.777,1.619-5.685,2.836-8.227c4.44-9.271,13.385-15.179,14.186-28.369c0.369-6.076-1.926-11.855-4.256-16.17
		c-2.697-4.996-6.953-9.097-9.645-14.468c-1.4-2.793-1.855-6-3.121-9.362C358.156,47.092,358.156,50.78,358.156,54.468z
		 M214.894,54.468c2.425,10.288,10.721,14.264,12.198,24.964c1.844,13.353-9.684,18.63-12.198,30.071c0,3.499,0,6.998,0,10.497
		c1.41-2.777,1.619-5.685,2.836-8.227c4.441-9.271,13.385-15.179,14.186-28.369c0.367-6.076-1.927-11.855-4.256-16.17
		c-2.697-4.996-6.953-9.097-9.646-14.468c-1.399-2.793-1.854-6-3.12-9.362C214.894,47.092,214.894,50.78,214.894,54.468z
		 M71.631,54.468c2.425,10.288,10.721,14.264,12.198,24.964c1.844,13.353-9.683,18.63-12.198,30.071c0,3.499,0,6.998,0,10.497
		c1.411-2.777,1.619-5.685,2.837-8.227c4.44-9.271,13.384-15.179,14.184-28.369c0.369-6.076-1.926-11.855-4.255-16.17
		c-2.697-4.996-6.953-9.097-9.645-14.468c-1.4-2.793-1.855-6-3.121-9.362C71.631,47.092,71.631,50.78,71.631,54.468z
		 M425.816,176.454c-2.146,4.477-5.468,7.979-7.943,11.914c-3.072,4.879-6.162,10.129-6.242,17.59
		c-0.172,16.374,13.756,23.412,16.738,37.162c0-3.593,0-7.186,0-10.779c-0.898-1.494-0.978-3.07-1.703-4.539
		c-3.309-6.703-10.496-11.879-10.496-21.561c0-5.463,2.656-10.195,5.107-13.9c2.562-3.876,5.696-7.307,7.092-12.199
		c0-3.498,0-6.998,0-10.496C427.285,171.089,426.844,174.308,425.816,176.454z M282.553,176.454
		c-2.145,4.477-5.465,7.979-7.943,11.914c-3.069,4.879-6.161,10.129-6.239,17.59c-0.175,16.374,13.756,23.412,16.737,37.162
		c0-3.593,0-7.186,0-10.779c-0.897-1.494-0.979-3.07-1.702-4.539c-3.31-6.703-10.496-11.879-10.496-21.561
		c0-5.463,2.655-10.195,5.104-13.9c2.564-3.876,5.699-7.307,7.094-12.199c0-3.498,0-6.998,0-10.496
		C284.021,171.089,283.582,174.308,282.553,176.454z M139.291,176.454c-2.145,4.477-5.466,7.979-7.943,11.914
		c-3.072,4.879-6.163,10.129-6.241,17.59c-0.173,16.374,13.755,23.412,16.737,37.162c0-3.593,0-7.186,0-10.779
		c-0.898-1.494-0.977-3.07-1.702-4.539c-3.31-6.703-10.497-11.879-10.497-21.561c0-5.463,2.656-10.195,5.106-13.9
		c2.562-3.876,5.698-7.307,7.092-12.199c0-3.498,0-6.998,0-10.496C140.76,171.089,140.318,174.308,139.291,176.454z
		 M497.447,300.709c-2.146,4.479-5.465,7.979-7.943,11.915c-3.072,4.878-6.162,10.128-6.242,17.589
		c-0.172,16.375,13.756,23.412,16.738,37.163c0-3.594,0-7.187,0-10.78c-0.898-1.494-0.977-3.068-1.701-4.539
		c-3.311-6.701-10.498-11.879-10.498-21.561c0-5.462,2.656-10.194,5.107-13.9c2.562-3.875,5.697-7.307,7.092-12.197
		c0-3.5,0-6.998,0-10.498C498.916,295.346,498.475,298.562,497.447,300.709z M354.186,300.709
		c-2.145,4.479-5.467,7.979-7.942,11.915c-3.072,4.878-6.164,10.128-6.242,17.589c-0.172,16.375,13.756,23.412,16.738,37.163
		c0-3.594,0-7.187,0-10.78c-0.898-1.494-0.978-3.068-1.703-4.539c-3.31-6.701-10.496-11.879-10.496-21.561
		c0-5.462,2.656-10.194,5.107-13.9c2.562-3.875,5.696-7.307,7.092-12.197c0-3.5,0-6.998,0-10.498
		C355.654,295.346,355.213,298.562,354.186,300.709z M210.921,300.709c-2.144,4.479-5.465,7.979-7.943,11.915
		c-3.071,4.878-6.162,10.128-6.24,17.589c-0.173,16.375,13.755,23.412,16.737,37.163c0-3.594,0-7.187,0-10.78
		c-0.897-1.494-0.977-3.068-1.702-4.539c-3.309-6.701-10.497-11.879-10.497-21.561c0-5.462,2.657-10.194,5.106-13.9
		c2.563-3.875,5.699-7.307,7.093-12.197c0-3.5,0-6.998,0-10.498C212.39,295.346,211.95,298.562,210.921,300.709z M497.447,52.199
		c-2.146,4.477-5.465,7.979-7.943,11.915c-3.072,4.878-6.162,10.128-6.242,17.589c-0.172,16.375,13.756,23.413,16.738,37.163
		c0-3.593,0-7.187,0-10.78c-0.898-1.494-0.977-3.069-1.701-4.539c-3.311-6.702-10.498-11.878-10.498-21.56
		c0-5.463,2.656-10.195,5.107-13.901c2.562-3.875,5.697-7.307,7.092-12.198c0-3.499,0-6.998,0-10.497
		C498.916,46.834,498.475,50.053,497.447,52.199z M354.186,52.199c-2.145,4.477-5.467,7.979-7.942,11.915
		c-3.072,4.878-6.164,10.128-6.242,17.589c-0.172,16.375,13.756,23.413,16.738,37.163c0-3.593,0-7.187,0-10.78
		c-0.898-1.494-0.978-3.069-1.703-4.539c-3.31-6.702-10.496-11.878-10.496-21.56c0-5.463,2.656-10.195,5.107-13.901
		c2.562-3.875,5.696-7.307,7.092-12.198c0-3.499,0-6.998,0-10.497C355.654,46.834,355.213,50.053,354.186,52.199z M210.921,52.199
		c-2.144,4.477-5.465,7.979-7.943,11.915c-3.071,4.878-6.162,10.128-6.24,17.589c-0.173,16.375,13.755,23.413,16.737,37.163
		c0-3.593,0-7.187,0-10.78c-0.897-1.494-0.977-3.069-1.702-4.539c-3.309-6.702-10.497-11.878-10.497-21.56
		c0-5.463,2.657-10.195,5.106-13.901c2.563-3.875,5.699-7.307,7.093-12.198c0-3.499,0-6.998,0-10.497
		C212.39,46.834,211.95,50.053,210.921,52.199z M286.525,223.263c3.623-5.668,9.846-11.377,7.942-20.426
		c-0.846-4.02-3.606-7.379-5.674-10.496c-0.696-1.051-1.203-2.336-2.271-3.121C286.525,200.567,286.525,211.915,286.525,223.263z
		 M143.262,223.263c3.624-5.668,9.847-11.377,7.943-20.426c-0.845-4.02-3.606-7.379-5.674-10.496
		c-0.697-1.051-1.203-2.336-2.27-3.121C143.262,200.567,143.262,211.915,143.262,223.263z M0,223.263
		c3.624-5.668,9.847-11.377,7.943-20.426c-0.846-4.02-3.606-7.379-5.674-10.496c-0.697-1.051-1.203-2.336-2.27-3.121
		C0,200.567,0,211.915,0,223.263z M358.156,347.518c3.623-5.668,9.848-11.375,7.942-20.426c-0.846-4.02-3.606-7.379-5.674-10.496
		c-0.697-1.051-1.203-2.336-2.27-3.119C358.156,324.822,358.156,336.17,358.156,347.518z M214.894,347.518
		c3.623-5.668,9.846-11.375,7.943-20.426c-0.846-4.02-3.607-7.379-5.674-10.496c-0.697-1.051-1.203-2.336-2.27-3.119
		C214.894,324.822,214.894,336.17,214.894,347.518z M71.631,347.518c3.624-5.668,9.847-11.375,7.943-20.426
		c-0.846-4.02-3.607-7.379-5.674-10.496c-0.697-1.051-1.203-2.336-2.27-3.119C71.631,324.822,71.631,336.17,71.631,347.518z
		 M358.156,99.007c3.623-5.668,9.848-11.376,7.942-20.426c-0.846-4.02-3.606-7.379-5.674-10.497
		c-0.697-1.051-1.203-2.336-2.27-3.121C358.156,76.312,358.156,87.66,358.156,99.007z M214.894,99.007
		c3.623-5.668,9.846-11.376,7.943-20.426c-0.846-4.02-3.607-7.379-5.674-10.497c-0.697-1.051-1.203-2.336-2.27-3.121
		C214.894,76.312,214.894,87.66,214.894,99.007z M71.631,99.007c3.624-5.668,9.847-11.376,7.943-20.426
		c-0.846-4.02-3.607-7.379-5.674-10.497c-0.697-1.051-1.203-2.336-2.27-3.121C71.631,76.312,71.631,87.66,71.631,99.007z
		 M420.426,207.376c0.486,6.768,5.058,10.645,7.943,15.318c0-10.969,0-21.938,0-32.907
		C424.984,194.728,419.881,199.784,420.426,207.376z M277.164,207.376c0.484,6.768,5.055,10.645,7.943,15.318
		c0-10.969,0-21.938,0-32.907C281.723,194.728,276.619,199.784,277.164,207.376z M133.901,207.376
		c0.485,6.768,5.056,10.645,7.943,15.318c0-10.969,0-21.938,0-32.907C138.46,194.728,133.356,199.784,133.901,207.376z
		 M492.057,331.631c0.486,6.768,5.058,10.646,7.943,15.319c0-10.97,0-21.938,0-32.907
		C496.617,318.982,491.512,324.04,492.057,331.631z M348.795,331.631c0.484,6.768,5.055,10.646,7.943,15.319
		c0-10.97,0-21.938,0-32.907C353.354,318.982,348.25,324.04,348.795,331.631z M205.532,331.631
		c0.485,6.768,5.056,10.646,7.943,15.319c0-10.97,0-21.938,0-32.907C210.091,318.982,204.987,324.04,205.532,331.631z
		 M492.057,83.121c0.486,6.768,5.058,10.645,7.943,15.319c0-10.969,0-21.938,0-32.908C496.617,70.472,491.512,75.529,492.057,83.121
		z M348.795,83.121c0.484,6.768,5.055,10.645,7.943,15.319c0-10.969,0-21.938,0-32.908C353.354,70.472,348.25,75.529,348.795,83.121
		z M205.532,83.121c0.485,6.768,5.056,10.645,7.943,15.319c0-10.969,0-21.938,0-32.908
		C210.091,70.472,204.987,75.529,205.532,83.121z M299.291,254.185c6.703,2.266,15.689-0.85,22.979,0.567
		c6.947,1.351,11.796,6.334,14.753,11.631c2.272,4.07,3.356,8.724,6.239,12.198c3.109,3.746,7.158,4.542,11.349,7.66
		c-8.972-8.365-10.533-21.96-19.574-30.07c-4.604-4.133-10.529-6.324-17.305-6.809c-7.283-0.522-14.415,2.027-22.979,0.566
		c-1.258-0.215-2.938-1.321-4.539-0.851C293.832,250.317,295.506,252.904,299.291,254.185z M156.028,254.185
		c6.703,2.266,15.689-0.85,22.979,0.567c6.946,1.351,11.794,6.334,14.751,11.631c2.273,4.07,3.356,8.724,6.241,12.198
		c3.109,3.746,7.158,4.542,11.347,7.66c-8.971-8.365-10.534-21.96-19.574-30.07c-4.605-4.133-10.53-6.324-17.305-6.809
		c-7.284-0.522-14.415,2.027-22.979,0.566c-1.259-0.215-2.937-1.321-4.539-0.851C150.57,250.317,152.243,252.904,156.028,254.185z
		 M12.766,254.185c6.703,2.266,15.689-0.85,22.979,0.567c6.947,1.351,11.794,6.334,14.752,11.631
		c2.272,4.07,3.356,8.724,6.241,12.198c3.108,3.746,7.157,4.542,11.347,7.66c-8.972-8.365-10.535-21.96-19.574-30.07
		c-4.605-4.133-10.53-6.324-17.305-6.809c-7.284-0.522-14.415,2.027-22.979,0.566c-1.259-0.215-2.938-1.321-4.539-0.851
		C7.307,250.317,8.98,252.904,12.766,254.185z M370.922,378.439c6.703,2.267,15.689-0.851,22.979,0.566
		c6.946,1.352,11.795,6.335,14.752,11.633c2.272,4.069,3.356,8.723,6.241,12.197c3.107,3.745,7.156,4.541,11.349,7.659
		c-8.974-8.365-10.535-21.959-19.576-30.07c-4.604-4.133-10.529-6.323-17.305-6.809c-7.283-0.521-14.414,2.028-22.979,0.567
		c-1.258-0.216-2.938-1.322-4.539-0.853C365.463,374.572,367.137,377.16,370.922,378.439z M227.66,378.439
		c6.703,2.267,15.689-0.851,22.979,0.566c6.947,1.352,11.795,6.335,14.752,11.633c2.273,4.069,3.355,8.723,6.24,12.197
		c3.109,3.745,7.158,4.541,11.348,7.659c-8.971-8.365-10.535-21.959-19.574-30.07c-4.604-4.133-10.528-6.323-17.304-6.809
		c-7.283-0.521-14.414,2.028-22.979,0.567c-1.259-0.216-2.938-1.322-4.539-0.853C222.201,374.572,223.875,377.16,227.66,378.439z
		 M84.397,378.439c6.703,2.267,15.689-0.851,22.979,0.566c6.946,1.352,11.794,6.335,14.751,11.633
		c2.273,4.069,3.357,8.723,6.241,12.197c3.108,3.745,7.158,4.541,11.348,7.659c-8.972-8.365-10.535-21.959-19.575-30.07
		c-4.605-4.133-10.529-6.323-17.305-6.809c-7.284-0.521-14.415,2.028-22.979,0.567c-1.259-0.216-2.938-1.322-4.539-0.853
		C78.938,374.572,80.611,377.16,84.397,378.439z M370.922,129.929c6.703,2.267,15.689-0.85,22.979,0.568
		c6.946,1.35,11.795,6.334,14.752,11.631c2.272,4.07,3.356,8.723,6.241,12.198c3.107,3.745,7.156,4.542,11.349,7.659
		c-8.974-8.365-10.535-21.959-19.576-30.07c-4.604-4.133-10.529-6.323-17.305-6.809c-7.283-0.521-14.414,2.028-22.979,0.567
		c-1.258-0.215-2.938-1.322-4.539-0.851C365.463,126.062,367.137,128.649,370.922,129.929z M227.66,129.929
		c6.703,2.267,15.689-0.85,22.979,0.568c6.947,1.35,11.795,6.334,14.752,11.631c2.273,4.07,3.355,8.723,6.24,12.198
		c3.109,3.745,7.158,4.542,11.348,7.659c-8.971-8.365-10.535-21.959-19.574-30.07c-4.604-4.133-10.528-6.323-17.304-6.809
		c-7.283-0.521-14.414,2.028-22.979,0.567c-1.259-0.215-2.938-1.322-4.539-0.851C222.201,126.062,223.875,128.649,227.66,129.929z
		 M84.397,129.929c6.703,2.267,15.689-0.85,22.979,0.568c6.946,1.35,11.794,6.334,14.751,11.631
		c2.273,4.07,3.357,8.723,6.241,12.198c3.108,3.745,7.158,4.542,11.348,7.659c-8.972-8.365-10.535-21.959-19.575-30.07
		c-4.605-4.133-10.529-6.323-17.305-6.809c-7.284-0.521-14.415,2.028-22.979,0.567c-1.259-0.215-2.938-1.322-4.539-0.851
		C78.938,126.062,80.611,128.649,84.397,129.929z M369.93,280.567c5.812-4.861,7.086-14.857,13.049-20.709
		c2.896-2.84,7.546-4.984,12.482-5.391c6.598-0.541,13.959,1.908,20.143-0.283c1.748-0.619,3.107-1.743,4.539-2.553
		c1.478-0.837,3.127-1.523,4.539-2.838c-0.188,0-0.379,0-0.567,0c-8.724,3.271-17.621-0.15-26.949,0.568
		c-8.941,0.688-16.096,5.016-20.426,10.212c-5.746,6.894-8.09,17.608-13.9,23.83c-0.762,0.815-2.127,1.511-2.27,2.837
		C363.307,283.694,367.229,282.827,369.93,280.567z M226.667,280.567c5.812-4.861,7.087-14.857,13.05-20.709
		c2.894-2.84,7.543-4.984,12.483-5.391c6.598-0.541,13.959,1.908,20.141-0.283c1.748-0.619,3.109-1.743,4.539-2.553
		c1.478-0.837,3.129-1.523,4.539-2.838c-0.188,0-0.377,0-0.565,0c-8.724,3.271-17.623-0.15-26.951,0.568
		c-8.94,0.688-16.095,5.016-20.425,10.212c-5.745,6.894-8.089,17.608-13.9,23.83c-0.763,0.815-2.127,1.511-2.27,2.837
		C220.043,283.694,223.965,282.827,226.667,280.567z M83.404,280.567c5.811-4.861,7.086-14.857,13.05-20.709
		c2.893-2.84,7.543-4.984,12.482-5.391c6.598-0.541,13.959,1.908,20.142-0.283c1.748-0.619,3.108-1.743,4.539-2.553
		c1.476-0.837,3.128-1.523,4.539-2.838c-0.189,0-0.378,0-0.567,0c-8.723,3.271-17.622-0.15-26.951,0.568
		c-8.941,0.688-16.096,5.016-20.425,10.212c-5.745,6.894-8.088,17.608-13.901,23.83c-0.762,0.815-2.126,1.511-2.27,2.837
		C76.781,283.694,80.703,282.827,83.404,280.567z M441.561,404.822c5.812-4.861,7.087-14.856,13.05-20.709
		c2.895-2.84,7.545-4.984,12.481-5.391c6.601-0.541,13.959,1.908,20.144-0.283c1.748-0.619,3.106-1.742,4.539-2.554
		c1.477-0.837,3.127-1.522,4.539-2.837c-0.189,0-0.38,0-0.568,0c-8.723,3.271-17.621-0.15-26.949,0.566
		c-8.94,0.688-16.096,5.018-20.426,10.214c-5.744,6.894-8.088,17.606-13.9,23.829c-0.762,0.814-2.127,1.511-2.27,2.837
		C434.938,407.949,438.859,407.083,441.561,404.822z M298.299,404.822c5.811-4.861,7.086-14.856,13.049-20.709
		c2.894-2.84,7.543-4.984,12.482-5.391c6.598-0.541,13.959,1.908,20.143-0.283c1.746-0.619,3.107-1.742,4.539-2.554
		c1.476-0.837,3.127-1.522,4.539-2.837c-0.188,0-0.379,0-0.567,0c-8.724,3.271-17.621-0.15-26.951,0.566
		c-8.939,0.688-16.097,5.018-20.425,10.214c-5.746,6.894-8.09,17.606-13.901,23.829c-0.763,0.814-2.125,1.511-2.271,2.837
		C291.674,407.949,295.598,407.083,298.299,404.822z M155.036,404.822c5.811-4.861,7.086-14.856,13.049-20.709
		c2.894-2.84,7.543-4.984,12.482-5.391c6.598-0.541,13.959,1.908,20.142-0.283c1.748-0.619,3.109-1.742,4.539-2.554
		c1.477-0.837,3.129-1.522,4.539-2.837c-0.188,0-0.377,0-0.566,0c-8.723,3.271-17.622-0.15-26.951,0.566
		c-8.941,0.688-16.096,5.018-20.426,10.214c-5.745,6.894-8.088,17.606-13.9,23.829c-0.762,0.814-2.126,1.511-2.27,2.837
		C148.412,407.949,152.334,407.083,155.036,404.822z M441.561,156.312c5.812-4.861,7.087-14.856,13.05-20.709
		c2.895-2.84,7.545-4.984,12.481-5.39c6.601-0.542,13.959,1.907,20.144-0.284c1.748-0.619,3.106-1.742,4.539-2.553
		c1.477-0.836,3.127-1.523,4.539-2.837c-0.189,0-0.38,0-0.568,0c-8.723,3.271-17.621-0.151-26.949,0.567
		c-8.94,0.688-16.096,5.017-20.426,10.213c-5.744,6.894-8.088,17.607-13.9,23.83c-0.762,0.814-2.127,1.51-2.27,2.836
		C434.938,159.438,438.859,158.572,441.561,156.312z M298.299,156.312c5.811-4.861,7.086-14.856,13.049-20.709
		c2.894-2.84,7.543-4.984,12.482-5.39c6.598-0.542,13.959,1.907,20.143-0.284c1.746-0.619,3.107-1.742,4.539-2.553
		c1.476-0.836,3.127-1.523,4.539-2.837c-0.188,0-0.379,0-0.567,0c-8.724,3.271-17.621-0.151-26.951,0.567
		c-8.939,0.688-16.097,5.017-20.425,10.213c-5.746,6.894-8.09,17.607-13.901,23.83c-0.763,0.814-2.125,1.51-2.271,2.836
		C291.674,159.438,295.598,158.572,298.299,156.312z M155.036,156.312c5.811-4.861,7.086-14.856,13.049-20.709
		c2.894-2.84,7.543-4.984,12.482-5.39c6.598-0.542,13.959,1.907,20.142-0.284c1.748-0.619,3.109-1.742,4.539-2.553
		c1.477-0.836,3.129-1.523,4.539-2.837c-0.188,0-0.377,0-0.566,0c-8.723,3.271-17.622-0.151-26.951,0.567
		c-8.941,0.688-16.096,5.017-20.426,10.213c-5.745,6.894-8.088,17.607-13.9,23.83c-0.762,0.814-2.126,1.51-2.27,2.836
		C148.412,159.438,152.334,158.572,155.036,156.312z M320.568,258.44c-3.865-0.475-8.148,0.465-12.482,0.851
		c9.605,5.43,19.027,11.043,28.652,16.454C333.225,268.632,330.014,259.599,320.568,258.44z M177.305,258.44
		c-3.865-0.475-8.148,0.465-12.482,0.851c9.605,5.43,19.027,11.043,28.652,16.454C189.962,268.632,186.75,259.599,177.305,258.44z
		 M34.042,258.44c-3.865-0.475-8.147,0.465-12.482,0.851c9.606,5.43,19.028,11.043,28.653,16.454
		C46.7,268.632,43.488,259.599,34.042,258.44z M392.199,382.695c-3.865-0.475-8.148,0.466-12.482,0.851
		c9.605,5.431,19.027,11.044,28.652,16.454C404.857,392.889,401.645,383.854,392.199,382.695z M248.936,382.695
		c-3.865-0.475-8.147,0.466-12.481,0.851c9.605,5.431,19.027,11.044,28.652,16.454C261.594,392.889,258.383,383.854,248.936,382.695
		z M105.674,382.695c-3.865-0.475-8.147,0.466-12.482,0.851c9.606,5.431,19.027,11.044,28.652,16.454
		C118.332,392.889,115.12,383.854,105.674,382.695z M392.199,134.185c-3.865-0.475-8.148,0.467-12.482,0.852
		c9.605,5.43,19.027,11.043,28.652,16.453C404.857,144.378,401.645,135.344,392.199,134.185z M248.936,134.185
		c-3.865-0.475-8.147,0.467-12.481,0.852c9.605,5.43,19.027,11.043,28.652,16.453C261.594,144.378,258.383,135.344,248.936,134.185z
		 M105.674,134.185c-3.865-0.475-8.147,0.467-12.482,0.852c9.606,5.43,19.027,11.043,28.652,16.453
		C118.332,144.378,115.12,135.344,105.674,134.185z M399.717,258.44c-11.108-0.633-15.682,5.322-19.008,12.481
		c-0.744,1.604-1.855,3.06-1.984,4.823c6.943-4.201,14.261-8.613,20.992-12.482c2.447-1.408,5.041-2.329,7.092-4.256
		C403.947,259.191,401.898,258.563,399.717,258.44z M256.455,258.44c-11.112-0.633-15.682,5.322-19.008,12.481
		c-0.745,1.604-1.855,3.06-1.986,4.823c6.945-4.201,14.261-8.613,20.995-12.482c2.446-1.408,5.041-2.329,7.092-4.256
		C260.686,259.191,258.635,258.563,256.455,258.44z M113.191,258.44c-11.11-0.633-15.682,5.322-19.007,12.481
		c-0.746,1.604-1.856,3.06-1.986,4.823c6.945-4.201,14.26-8.613,20.993-12.482c2.449-1.408,5.042-2.329,7.092-4.256
		C117.423,259.191,115.373,258.563,113.191,258.44z M471.348,382.695c-11.108-0.633-15.682,5.322-19.008,12.481
		c-0.744,1.604-1.854,3.06-1.983,4.822c6.944-4.2,14.26-8.613,20.991-12.481c2.449-1.408,5.043-2.33,7.093-4.256
		C475.58,383.445,473.529,382.818,471.348,382.695z M328.086,382.695c-11.111-0.633-15.682,5.322-19.008,12.481
		c-0.744,1.604-1.855,3.06-1.986,4.822c6.945-4.2,14.262-8.613,20.994-12.481c2.447-1.408,5.041-2.33,7.092-4.256
		C332.316,383.445,330.268,382.818,328.086,382.695z M184.823,382.695c-11.11-0.633-15.682,5.322-19.007,12.481
		c-0.745,1.604-1.855,3.06-1.986,4.822c6.945-4.2,14.261-8.613,20.993-12.481c2.448-1.408,5.042-2.33,7.092-4.256
		C189.054,383.445,187.004,382.818,184.823,382.695z M471.348,134.185c-11.108-0.633-15.682,5.322-19.008,12.482
		c-0.744,1.604-1.854,3.059-1.983,4.822c6.944-4.2,14.26-8.613,20.991-12.482c2.449-1.407,5.043-2.328,7.093-4.255
		C475.58,134.937,473.529,134.309,471.348,134.185z M328.086,134.185c-11.111-0.633-15.682,5.322-19.008,12.482
		c-0.744,1.604-1.855,3.059-1.986,4.822c6.945-4.2,14.262-8.613,20.994-12.482c2.447-1.407,5.041-2.328,7.092-4.255
		C332.316,134.937,330.268,134.309,328.086,134.185z M184.823,134.185c-11.11-0.633-15.682,5.322-19.007,12.482
		c-0.745,1.604-1.855,3.059-1.986,4.822c6.945-4.2,14.261-8.613,20.993-12.482c2.448-1.407,5.042-2.328,7.092-4.255
		C189.054,134.937,187.004,134.309,184.823,134.185z M372.199,145.815c2.705,5.108,6.692,10.537,11.914,13.617
		c7.723,4.555,16.358,3.512,26.668,2.837c2.459-0.161,5.227-0.247,7.942,0c2.717,0.247,5.373,1.481,7.658,1.702
		c-4.896-2.482-8.274-5.871-14.467-6.525c-6.586-0.695-10.896,1.072-16.455,0.568c-3.275-0.298-6.568-1.302-8.795-2.554
		c-9.461-5.321-10.045-18.944-18.723-25.248c-1.377-1-2.986-1.663-4.539-2.554c-1.289-0.738-2.654-1.959-4.539-2.27
		C365.98,129.879,368.475,138.786,372.199,145.815z M228.936,145.815c2.706,5.108,6.693,10.537,11.915,13.617
		c7.723,4.555,16.36,3.512,26.667,2.837c2.461-0.161,5.229-0.247,7.943,0c2.719,0.247,5.375,1.481,7.66,1.702
		c-4.896-2.482-8.275-5.871-14.469-6.525c-6.584-0.695-10.896,1.072-16.453,0.568c-3.276-0.298-6.569-1.302-8.795-2.554
		c-9.462-5.321-10.046-18.944-18.723-25.248c-1.377-1-2.986-1.663-4.539-2.554c-1.289-0.738-2.655-1.959-4.539-2.27
		C222.718,129.879,225.212,138.786,228.936,145.815z M85.674,145.815c2.706,5.108,6.693,10.537,11.915,13.617
		c7.723,4.555,16.359,3.512,26.667,2.837c2.46-0.161,5.228-0.247,7.943,0c2.718,0.247,5.374,1.481,7.66,1.702
		c-4.897-2.482-8.276-5.871-14.468-6.525c-6.584-0.695-10.896,1.072-16.454,0.568c-3.275-0.298-6.568-1.302-8.794-2.554
		c-9.462-5.321-10.046-18.944-18.723-25.248c-1.377-1-2.986-1.663-4.539-2.554c-1.289-0.738-2.655-1.959-4.539-2.27
		C79.456,129.879,81.95,138.786,85.674,145.815z M443.83,270.071c2.705,5.106,6.693,10.537,11.914,13.617
		c7.723,4.555,16.358,3.512,26.668,2.836c2.459-0.16,5.227-0.246,7.943,0c2.717,0.247,5.372,1.482,7.657,1.703
		c-4.896-2.483-8.274-5.871-14.467-6.525c-6.584-0.695-10.896,1.072-16.455,0.567c-3.274-0.298-6.567-1.302-8.793-2.554
		c-9.463-5.321-10.047-18.944-18.725-25.248c-1.377-1-2.986-1.663-4.539-2.553c-1.289-0.738-2.654-1.96-4.539-2.27
		C437.611,254.134,440.107,263.042,443.83,270.071z M300.568,270.071c2.705,5.106,6.69,10.537,11.914,13.617
		c7.723,4.555,16.358,3.512,26.666,2.836c2.461-0.16,5.229-0.246,7.942,0c2.719,0.247,5.375,1.482,7.66,1.703
		c-4.896-2.483-8.275-5.871-14.469-6.525c-6.584-0.695-10.896,1.072-16.453,0.567c-3.275-0.298-6.568-1.302-8.795-2.554
		c-9.464-5.321-10.048-18.944-18.724-25.248c-1.377-1-2.985-1.663-4.539-2.553c-1.289-0.738-2.653-1.96-4.539-2.27
		C294.35,254.134,296.844,263.042,300.568,270.071z M157.305,270.071c2.706,5.106,6.693,10.537,11.915,13.617
		c7.723,4.555,16.359,3.512,26.667,2.836c2.46-0.16,5.227-0.246,7.943,0c2.719,0.247,5.375,1.482,7.66,1.703
		c-4.897-2.483-8.275-5.871-14.468-6.525c-6.584-0.695-10.896,1.072-16.454,0.567c-3.275-0.298-6.568-1.302-8.794-2.554
		c-9.462-5.321-10.046-18.944-18.723-25.248c-1.377-1-2.986-1.663-4.539-2.553c-1.289-0.738-2.655-1.96-4.539-2.27
		C151.087,254.134,153.582,263.042,157.305,270.071z M443.83,21.56c2.705,5.108,6.693,10.538,11.914,13.617
		c7.723,4.555,16.358,3.512,26.668,2.837c2.459-0.161,5.227-0.247,7.943,0c2.717,0.247,5.372,1.482,7.657,1.702
		c-4.896-2.483-8.274-5.87-14.467-6.525c-6.584-0.696-10.896,1.072-16.455,0.567c-3.274-0.297-6.567-1.301-8.793-2.553
		c-9.463-5.322-10.047-18.945-18.725-25.248c-1.377-1-2.986-1.663-4.539-2.553c-1.289-0.739-2.654-1.96-4.539-2.27
		C437.611,5.624,440.107,14.531,443.83,21.56z M300.568,21.56c2.705,5.108,6.69,10.538,11.914,13.617
		c7.723,4.555,16.358,3.512,26.666,2.837c2.461-0.161,5.229-0.247,7.942,0c2.719,0.247,5.375,1.482,7.66,1.702
		c-4.896-2.483-8.275-5.87-14.469-6.525c-6.584-0.696-10.896,1.072-16.453,0.567c-3.275-0.297-6.568-1.301-8.795-2.553
		c-9.464-5.322-10.048-18.945-18.724-25.248c-1.377-1-2.985-1.663-4.539-2.553c-1.289-0.739-2.653-1.96-4.539-2.27
		C294.35,5.624,296.844,14.531,300.568,21.56z M157.305,21.56c2.706,5.108,6.693,10.538,11.915,13.617
		c7.723,4.555,16.359,3.512,26.667,2.837c2.46-0.161,5.227-0.247,7.943,0c2.719,0.247,5.375,1.482,7.66,1.702
		c-4.897-2.483-8.275-5.87-14.468-6.525c-6.584-0.696-10.896,1.072-16.454,0.567c-3.275-0.297-6.568-1.301-8.794-2.553
		c-9.462-5.322-10.046-18.945-18.723-25.248c-1.377-1-2.986-1.663-4.539-2.553c-1.289-0.739-2.655-1.96-4.539-2.27
		C151.087,5.624,153.582,14.531,157.305,21.56z"></path>
</g>
<g id="A">
	<path class="paintable" fill="#58595B" d="M357.447,125.674c1.071,6.636,4.283,12.205,7.942,17.305c4.568,6.366,10.101,14.106,9.078,24.397
		c-1.604,16.158-14.551,20.792-16.737,36.879c-0.689-0.662-0.943-1.803-1.136-2.553c-0.254-1.002-0.235-2.124-0.565-3.121
		c-4.009-12.088-15.687-18.529-15.604-33.475c0.07-12.516,8.783-19.816,13.334-28.369
		C355.43,133.599,356.57,129.823,357.447,125.674z M214.185,125.674c1.072,6.636,4.283,12.205,7.942,17.305
		c4.569,6.366,10.101,14.106,9.078,24.397c-1.605,16.158-14.55,20.792-16.737,36.879c-0.689-0.662-0.944-1.803-1.135-2.553
		c-0.255-1.002-0.236-2.124-0.567-3.121c-4.008-12.088-15.686-18.529-15.603-33.475c0.069-12.516,8.784-19.816,13.333-28.369
		C212.167,133.599,213.308,129.823,214.185,125.674z M70.922,125.674c1.073,6.636,4.284,12.205,7.943,17.305
		c4.568,6.366,10.1,14.106,9.078,24.397c-1.606,16.158-14.55,20.792-16.738,36.879c-0.689-0.662-0.944-1.803-1.135-2.553
		c-0.254-1.002-0.237-2.124-0.567-3.121c-4.007-12.088-15.686-18.529-15.603-33.475c0.069-12.516,8.783-19.816,13.333-28.369
		C68.904,133.599,70.045,129.823,70.922,125.674z M429.078,249.929c1.074,6.635,4.285,12.205,7.943,17.305
		c4.567,6.367,10.1,14.107,9.077,24.397c-1.604,16.158-14.551,20.792-16.737,36.881c-0.689-0.664-0.943-1.805-1.136-2.555
		c-0.254-1.002-0.235-2.123-0.565-3.12c-4.008-12.088-15.687-18.53-15.604-33.476c0.07-12.515,8.783-19.816,13.334-28.368
		C427.061,257.854,428.201,254.078,429.078,249.929z M285.816,249.929c1.072,6.635,4.283,12.205,7.942,17.305
		c4.568,6.367,10.101,14.107,9.078,24.397c-1.606,16.158-14.551,20.792-16.737,36.881c-0.689-0.664-0.943-1.805-1.136-2.555
		c-0.256-1.002-0.235-2.123-0.567-3.12c-4.006-12.088-15.687-18.53-15.603-33.476c0.067-12.515,8.783-19.816,13.332-28.368
		C283.799,257.854,284.939,254.078,285.816,249.929z M142.553,249.929c1.073,6.635,4.284,12.205,7.943,17.305
		c4.568,6.367,10.1,14.107,9.078,24.397c-1.606,16.158-14.55,20.792-16.738,36.881c-0.689-0.664-0.944-1.805-1.135-2.555
		c-0.255-1.002-0.237-2.123-0.567-3.12c-4.008-12.088-15.686-18.53-15.603-33.476c0.07-12.515,8.784-19.816,13.333-28.368
		C140.535,257.854,141.676,254.078,142.553,249.929z M429.078,1.418c1.074,6.635,4.285,12.205,7.943,17.305
		c4.567,6.366,10.1,14.106,9.077,24.397c-1.604,16.158-14.55,20.793-16.737,36.88c-0.689-0.663-0.943-1.803-1.136-2.553
		c-0.254-1.002-0.235-2.124-0.565-3.121c-4.008-12.088-15.687-18.53-15.604-33.475c0.07-12.515,8.783-19.816,13.334-28.369
		C427.061,9.344,428.201,5.567,429.078,1.418z M285.816,1.418c1.072,6.635,4.283,12.205,7.942,17.305
		c4.568,6.366,10.101,14.106,9.078,24.397C301.23,59.278,288.287,63.913,286.1,80c-0.688-0.663-0.942-1.803-1.135-2.553
		c-0.256-1.002-0.236-2.124-0.568-3.121c-4.006-12.088-15.686-18.53-15.602-33.475c0.068-12.515,8.783-19.816,13.332-28.369
		C283.799,9.344,284.939,5.567,285.816,1.418z M142.553,1.418c1.073,6.635,4.284,12.205,7.943,17.305
		c4.568,6.366,10.1,14.106,9.078,24.397c-1.606,16.158-14.55,20.792-16.738,36.879c-0.689-0.663-0.944-1.803-1.135-2.553
		c-0.255-1.002-0.237-2.124-0.567-3.121c-4.008-12.088-15.686-18.53-15.603-33.475c0.07-12.515,8.784-19.816,13.333-28.369
		C140.535,9.344,141.676,5.567,142.553,1.418z M357.164,137.872c-1.734,10.73-12.457,15.971-12.199,27.802
		c0.025,1.146,0.336,2.64,0.566,3.688c1.592,7.194,7.184,11.631,9.93,17.305c0.994,2.051,1.045,4.418,2.271,6.809
		c1.409-12.072,12.284-15.789,12.198-28.369c-0.084-12.384-10.508-16.51-12.481-28.085
		C357.049,137.058,357.227,137.483,357.164,137.872z M213.901,137.872c-1.734,10.73-12.457,15.971-12.199,27.802
		c0.025,1.146,0.336,2.64,0.567,3.688c1.59,7.194,7.183,11.631,9.929,17.305c0.992,2.051,1.045,4.418,2.27,6.809
		c1.41-12.072,12.284-15.789,12.198-28.369c-0.085-12.384-10.507-16.51-12.481-28.085
		C213.787,137.058,213.963,137.483,213.901,137.872z M70.638,137.872c-1.734,10.73-12.456,15.971-12.198,27.802
		c0.025,1.146,0.335,2.64,0.567,3.688c1.59,7.194,7.183,11.631,9.929,17.305c0.993,2.051,1.045,4.418,2.27,6.809
		c1.411-12.072,12.284-15.789,12.199-28.369c-0.084-12.384-10.507-16.51-12.482-28.085
		C70.525,137.058,70.701,137.483,70.638,137.872z M428.795,262.128c-1.734,10.73-12.457,15.97-12.199,27.802
		c0.025,1.146,0.336,2.639,0.568,3.688c1.59,7.193,7.182,11.632,9.928,17.305c0.994,2.053,1.045,4.418,2.271,6.809
		c1.412-12.07,12.285-15.789,12.198-28.369c-0.084-12.383-10.508-16.509-12.481-28.084
		C428.682,261.313,428.857,261.739,428.795,262.128z M285.531,262.128c-1.732,10.73-12.455,15.97-12.197,27.802
		c0.025,1.146,0.336,2.639,0.566,3.688c1.59,7.193,7.184,11.632,9.93,17.305c0.992,2.053,1.045,4.418,2.27,6.809
		c1.41-12.07,12.283-15.789,12.199-28.369c-0.086-12.383-10.508-16.509-12.482-28.084
		C285.418,261.313,285.596,261.739,285.531,262.128z M142.27,262.128c-1.734,10.73-12.456,15.97-12.199,27.802
		c0.025,1.146,0.336,2.639,0.567,3.688c1.59,7.193,7.183,11.632,9.929,17.305c0.993,2.053,1.044,4.418,2.27,6.809
		c1.411-12.07,12.284-15.789,12.199-28.369c-0.084-12.383-10.507-16.509-12.482-28.084
		C142.156,261.313,142.332,261.739,142.27,262.128z M428.795,13.617c-1.734,10.73-12.457,15.97-12.199,27.801
		c0.025,1.146,0.336,2.639,0.568,3.688c1.59,7.194,7.182,11.632,9.928,17.305c0.994,2.051,1.045,4.418,2.271,6.809
		c1.412-12.071,12.285-15.789,12.198-28.369c-0.084-12.383-10.508-16.51-12.481-28.085
		C428.682,12.803,428.857,13.229,428.795,13.617z M285.531,13.617c-1.732,10.73-12.455,15.97-12.197,27.801
		c0.025,1.146,0.336,2.639,0.566,3.688c1.59,7.194,7.184,11.632,9.93,17.305c0.992,2.051,1.045,4.418,2.27,6.809
		c1.41-12.071,12.283-15.789,12.199-28.369c-0.086-12.383-10.508-16.51-12.482-28.085C285.418,12.803,285.596,13.229,285.531,13.617
		z M142.27,13.617c-1.734,10.73-12.456,15.97-12.199,27.801c0.025,1.146,0.336,2.639,0.567,3.688
		c1.59,7.194,7.183,11.632,9.929,17.305c0.993,2.051,1.044,4.418,2.27,6.809c1.411-12.071,12.284-15.789,12.199-28.369
		c-0.084-12.383-10.507-16.51-12.482-28.085C142.156,12.803,142.332,13.229,142.27,13.617z M349.221,163.688
		c-0.473,7.584,4.285,12.006,7.943,18.723c1.256-0.87,1.943-2.391,2.836-3.688c2.553-3.707,6.051-8.383,5.957-14.185
		c-0.119-7.443-5.791-11.276-8.51-16.737C354.607,153.231,349.619,157.276,349.221,163.688z M205.958,163.688
		c-0.472,7.584,4.286,12.006,7.943,18.723c1.257-0.87,1.944-2.391,2.837-3.688c2.552-3.707,6.051-8.383,5.957-14.185
		c-0.119-7.443-5.792-11.276-8.51-16.737C211.344,153.231,206.357,157.276,205.958,163.688z M62.695,163.688
		c-0.472,7.584,4.287,12.006,7.943,18.723c1.257-0.87,1.944-2.391,2.837-3.688c2.552-3.707,6.051-8.383,5.958-14.185
		c-0.119-7.443-5.792-11.276-8.511-16.737C68.082,153.231,63.094,157.276,62.695,163.688z M420.852,287.943
		c-0.473,7.584,4.285,12.006,7.943,18.724c1.256-0.871,1.943-2.392,2.836-3.688c2.553-3.705,6.051-8.383,5.959-14.185
		c-0.119-7.443-5.793-11.276-8.512-16.737C426.238,277.486,421.25,281.531,420.852,287.943z M277.59,287.943
		c-0.473,7.584,4.285,12.006,7.941,18.724c1.258-0.871,1.945-2.392,2.838-3.688c2.551-3.705,6.051-8.383,5.957-14.185
		c-0.119-7.443-5.793-11.276-8.51-16.737C282.977,277.486,277.988,281.531,277.59,287.943z M134.326,287.943
		c-0.472,7.584,4.287,12.006,7.943,18.724c1.257-0.871,1.944-2.392,2.837-3.688c2.552-3.705,6.05-8.383,5.958-14.185
		c-0.119-7.443-5.792-11.276-8.511-16.737C139.713,277.486,134.725,281.531,134.326,287.943z M420.852,39.433
		c-0.473,7.584,4.285,12.006,7.943,18.724c1.256-0.871,1.943-2.392,2.836-3.688c2.553-3.706,6.051-8.383,5.959-14.185
		c-0.119-7.443-5.793-11.276-8.512-16.738C426.238,28.976,421.25,33.021,420.852,39.433z M277.59,39.433
		c-0.473,7.584,4.285,12.006,7.941,18.724c1.258-0.871,1.945-2.392,2.838-3.688c2.551-3.706,6.051-8.383,5.957-14.185
		c-0.119-7.443-5.793-11.276-8.51-16.738C282.977,28.976,277.988,33.021,277.59,39.433z M134.326,39.433
		c-0.472,7.584,4.287,12.006,7.943,18.724c1.257-0.871,1.944-2.392,2.837-3.688c2.552-3.706,6.05-8.383,5.958-14.185
		c-0.119-7.443-5.792-11.276-8.511-16.738C139.713,28.976,134.725,33.021,134.326,39.433z M287.092,166.241c0-0.095,0-0.189,0-0.283
		c3.441,0.519,6.549,1.999,9.646,2.27c8.201,0.715,14.891-1.316,21.274-0.852c13.392,0.975,20.506,8.849,25.248,18.156
		c2.955,5.795,5.728,13,10.213,17.305c0.935,0.896,2.853,1.326,2.839,2.837c-3.568-1.431-7-2.441-11.349-2.554
		c-6.102-0.156-11.559,1.394-16.738,1.135c-5.082-0.253-10.262-1.076-14.467-3.404c-4.752-2.629-8.747-7.66-11.348-12.198
		C297.955,180.875,296.088,171.142,287.092,166.241z M143.83,166.241c0-0.095,0-0.189,0-0.283c3.441,0.519,6.547,1.999,9.646,2.27
		c8.201,0.715,14.89-1.316,21.277-0.852c13.39,0.975,20.505,8.849,25.248,18.156c2.953,5.795,5.725,13,10.212,17.305
		c0.934,0.896,2.852,1.326,2.838,2.837c-3.568-1.431-7.001-2.441-11.348-2.554c-6.101-0.156-11.559,1.394-16.738,1.135
		c-5.082-0.253-10.263-1.076-14.468-3.404c-4.75-2.629-8.747-7.66-11.348-12.198C154.692,180.875,152.826,171.142,143.83,166.241z
		 M0.567,166.241c0-0.095,0-0.189,0-0.283c3.441,0.519,6.547,1.999,9.646,2.27c8.201,0.715,14.89-1.316,21.276-0.852
		c13.391,0.975,20.506,8.849,25.249,18.156c2.953,5.795,5.725,13,10.212,17.305c0.934,0.896,2.852,1.326,2.837,2.837
		c-3.568-1.431-7-2.441-11.347-2.554c-6.101-0.156-11.559,1.394-16.738,1.135c-5.082-0.253-10.263-1.076-14.468-3.404
		c-4.75-2.629-8.747-7.66-11.347-12.198C11.43,180.875,9.563,171.142,0.567,166.241z M358.725,290.496c0-0.094,0-0.188,0-0.283
		c3.439,0.52,6.548,1.999,9.646,2.27c8.201,0.716,14.891-1.315,21.277-0.852c13.389,0.975,20.504,8.85,25.247,18.156
		c2.953,5.795,5.726,13,10.214,17.305c0.934,0.896,2.85,1.327,2.836,2.838c-3.568-1.431-7-2.44-11.349-2.554
		c-6.1-0.157-11.559,1.394-16.735,1.136c-5.082-0.254-10.265-1.078-14.47-3.404c-4.75-2.629-8.748-7.66-11.348-12.198
		C369.586,305.131,367.719,295.396,358.725,290.496z M215.46,290.496c0-0.094,0-0.188,0-0.283c3.441,0.52,6.548,1.999,9.646,2.27
		c8.2,0.716,14.89-1.315,21.275-0.852c13.391,0.975,20.506,8.85,25.249,18.156c2.953,5.795,5.728,13,10.213,17.305
		c0.935,0.896,2.853,1.327,2.839,2.838c-3.568-1.431-7.002-2.44-11.349-2.554c-6.103-0.157-11.56,1.394-16.737,1.136
		c-5.082-0.254-10.263-1.078-14.469-3.404c-4.75-2.629-8.747-7.66-11.347-12.198C226.324,305.131,224.457,295.396,215.46,290.496z
		 M72.199,290.496c0-0.094,0-0.188,0-0.283c3.441,0.52,6.547,1.999,9.645,2.27c8.201,0.716,14.891-1.315,21.277-0.852
		c13.39,0.975,20.505,8.85,25.248,18.156c2.954,5.795,5.726,13,10.213,17.305c0.934,0.896,2.851,1.327,2.837,2.838
		c-3.568-1.431-7-2.44-11.348-2.554c-6.101-0.157-11.558,1.394-16.737,1.136c-5.082-0.254-10.263-1.078-14.468-3.404
		c-4.75-2.629-8.747-7.66-11.348-12.198C83.061,305.131,81.195,295.396,72.199,290.496z M358.725,41.986c0-0.095,0-0.189,0-0.284
		c3.439,0.519,6.548,2,9.646,2.27c8.201,0.715,14.891-1.316,21.277-0.851c13.389,0.975,20.504,8.849,25.247,18.156
		c2.953,5.795,5.726,13,10.214,17.305c0.934,0.896,2.85,1.327,2.836,2.837c-3.568-1.43-7-2.441-11.349-2.553
		c-6.1-0.157-11.559,1.393-16.735,1.135c-5.082-0.253-10.265-1.077-14.47-3.404c-4.75-2.629-8.748-7.66-11.348-12.199
		C369.586,56.62,367.719,46.887,358.725,41.986z M215.46,41.986c0-0.095,0-0.189,0-0.284c3.441,0.519,6.548,2,9.646,2.27
		c8.2,0.715,14.89-1.316,21.275-0.851c13.391,0.975,20.506,8.849,25.249,18.156c2.953,5.795,5.728,13,10.213,17.305
		c0.935,0.896,2.853,1.327,2.839,2.837c-3.568-1.43-7.002-2.441-11.349-2.553c-6.103-0.157-11.56,1.393-16.737,1.135
		c-5.082-0.253-10.263-1.077-14.469-3.404c-4.75-2.629-8.747-7.66-11.347-12.199C226.324,56.62,224.457,46.887,215.46,41.986z
		 M72.199,41.986c0-0.095,0-0.189,0-0.284c3.441,0.519,6.547,2,9.645,2.27c8.201,0.715,14.891-1.316,21.277-0.851
		c13.39,0.975,20.505,8.849,25.248,18.156c2.954,5.795,5.726,13,10.213,17.305c0.934,0.896,2.851,1.327,2.837,2.837
		c-3.568-1.43-7-2.441-11.348-2.553c-6.101-0.157-11.558,1.393-16.737,1.135c-5.082-0.253-10.263-1.077-14.468-3.404
		c-4.75-2.629-8.747-7.66-11.348-12.199C83.061,56.62,81.195,46.887,72.199,41.986z M302.412,177.021
		c1.574,2.327,2.531,4.859,3.688,7.376c3.504,7.623,8.984,14.061,19.291,14.752c4.188,0.28,8.482-0.963,13.334-0.852
		c3.009,0.069,6.203,1.346,8.511,1.702c-9.295-7.442-9.267-19.685-18.439-24.964c-1.658-0.954-4.211-1.85-6.524-2.27
		c-7-1.272-19.172,2.131-24.965-1.419C299.264,173.267,301.014,174.955,302.412,177.021z M159.149,177.021
		c1.574,2.327,2.532,4.859,3.688,7.376c3.503,7.623,8.985,14.061,19.291,14.752c4.188,0.28,8.482-0.963,13.333-0.852
		c3.009,0.069,6.205,1.346,8.511,1.702c-9.295-7.442-9.266-19.685-18.44-24.964c-1.657-0.954-4.21-1.85-6.524-2.27
		c-7-1.272-19.173,2.131-24.965-1.419C156,173.267,157.752,174.955,159.149,177.021z M15.887,177.021
		c1.574,2.327,2.532,4.859,3.688,7.376c3.503,7.623,8.985,14.061,19.291,14.752c4.188,0.28,8.482-0.963,13.333-0.852
		c3.009,0.069,6.205,1.346,8.51,1.702c-9.294-7.442-9.265-19.685-18.439-24.964c-1.657-0.954-4.21-1.85-6.525-2.27
		c-7-1.272-19.172,2.131-24.964-1.419C12.738,173.267,14.489,174.955,15.887,177.021z M374.043,301.275
		c1.574,2.328,2.531,4.86,3.688,7.377c3.504,7.623,8.983,14.061,19.29,14.752c4.188,0.281,8.482-0.963,13.334-0.852
		c3.009,0.069,6.203,1.346,8.511,1.701c-9.295-7.441-9.267-19.684-18.439-24.964c-1.658-0.954-4.211-1.851-6.524-2.271
		c-6.998-1.271-19.172,2.131-24.966-1.418C370.895,297.521,372.646,299.211,374.043,301.275z M230.781,301.275
		c1.573,2.328,2.531,4.86,3.688,7.377c3.504,7.623,8.984,14.061,19.292,14.752c4.188,0.281,8.479-0.963,13.331-0.852
		c3.011,0.069,6.205,1.346,8.513,1.701c-9.295-7.441-9.267-19.684-18.439-24.964c-1.658-0.954-4.211-1.851-6.525-2.271
		c-7-1.271-19.171,2.131-24.965-1.418C227.631,297.521,229.382,299.211,230.781,301.275z M87.518,301.275
		c1.574,2.328,2.532,4.86,3.688,7.377c3.503,7.623,8.985,14.061,19.291,14.752c4.188,0.281,8.481-0.963,13.333-0.852
		c3.01,0.069,6.205,1.346,8.511,1.701c-9.294-7.441-9.266-19.684-18.439-24.964c-1.657-0.954-4.21-1.851-6.525-2.271
		c-7-1.271-19.172,2.131-24.965-1.418C84.369,297.521,86.121,299.211,87.518,301.275z M374.043,52.766
		c1.574,2.328,2.531,4.86,3.688,7.375c3.504,7.624,8.983,14.061,19.29,14.752c4.188,0.281,8.482-0.963,13.334-0.851
		c3.009,0.07,6.203,1.346,8.511,1.702c-9.295-7.442-9.267-19.684-18.439-24.964c-1.658-0.954-4.211-1.849-6.524-2.271
		c-6.998-1.271-19.172,2.131-24.966-1.418C370.895,49.011,372.646,50.7,374.043,52.766z M230.781,52.766
		c1.573,2.328,2.531,4.86,3.688,7.375c3.504,7.624,8.984,14.061,19.292,14.752c4.188,0.281,8.479-0.963,13.331-0.851
		c3.011,0.07,6.205,1.346,8.513,1.702c-9.295-7.442-9.267-19.684-18.439-24.964c-1.658-0.954-4.211-1.849-6.525-2.271
		c-7-1.271-19.171,2.131-24.965-1.418C227.631,49.011,229.382,50.7,230.781,52.766z M87.518,52.766
		c1.574,2.328,2.532,4.86,3.688,7.375c3.503,7.624,8.985,14.061,19.291,14.752c4.188,0.281,8.481-0.963,13.333-0.851
		c3.01,0.07,6.205,1.346,8.511,1.702c-9.294-7.442-9.266-19.684-18.439-24.964c-1.657-0.954-4.21-1.849-6.525-2.271
		c-7-1.271-19.172,2.131-24.965-1.418C84.369,49.011,86.121,50.7,87.518,52.766z M427.801,165.958c0,0.188,0,0.377,0,0.566
		c-3.317,1.674-5.789,4.578-7.658,7.377c-2.077,3.106-3.649,6.709-5.106,9.928c-2.984,6.6-6.842,12.908-13.332,16.738
		c-4.426,2.61-10.607,3.584-16.172,3.688c-4.912,0.092-9.902-1.408-15.885-1.135c-4.099,0.188-7.966,1.543-11.064,2.27
		c2.404-2.644,4.609-4.066,6.525-6.809c3.481-4.983,5.041-10.678,7.942-15.603c2.697-4.582,6.185-9.323,11.347-12.198
		c3.842-2.139,8.776-3.139,13.051-3.404c6.385-0.396,13.119,1.646,21.276,0.852C421.795,167.927,424.596,166.552,427.801,165.958z
		 M284.539,165.958c0,0.188,0,0.377,0,0.566c-3.32,1.674-5.789,4.578-7.66,7.377c-2.076,3.106-3.648,6.709-5.105,9.928
		c-2.985,6.6-6.842,12.908-13.334,16.738c-4.424,2.61-10.605,3.584-16.169,3.688c-4.913,0.092-9.903-1.408-15.887-1.135
		c-4.096,0.188-7.963,1.543-11.062,2.27c2.402-2.644,4.607-4.066,6.523-6.809c3.484-4.983,5.043-10.678,7.943-15.603
		c2.699-4.582,6.184-9.323,11.348-12.198c3.84-2.139,8.777-3.139,13.051-3.404c6.385-0.396,13.117,1.646,21.275,0.852
		C278.533,167.927,281.334,166.552,284.539,165.958z M141.276,165.958c0,0.188,0,0.377,0,0.566
		c-3.319,1.674-5.789,4.578-7.659,7.377c-2.078,3.106-3.65,6.709-5.106,9.928c-2.986,6.6-6.842,12.908-13.333,16.738
		c-4.425,2.61-10.606,3.584-16.17,3.688c-4.914,0.092-9.904-1.408-15.887-1.135c-4.096,0.188-7.963,1.543-11.064,2.27
		c2.404-2.644,4.609-4.066,6.525-6.809c3.484-4.983,5.042-10.678,7.943-15.603c2.699-4.582,6.184-9.323,11.348-12.198
		c3.84-2.139,8.776-3.139,13.049-3.404c6.385-0.396,13.119,1.646,21.277,0.852C135.27,167.927,138.072,166.552,141.276,165.958z
		 M499.434,290.213c0,0.189,0,0.378,0,0.566c-3.319,1.674-5.789,4.578-7.659,7.377c-2.078,3.107-3.65,6.71-5.107,9.929
		c-2.984,6.601-6.842,12.908-13.332,16.737c-4.426,2.611-10.604,3.585-16.17,3.688c-4.914,0.092-9.904-1.408-15.887-1.135
		c-4.099,0.188-7.963,1.543-11.064,2.27c2.404-2.645,4.609-4.066,6.525-6.809c3.483-4.984,5.043-10.679,7.942-15.604
		c2.697-4.582,6.185-9.323,11.349-12.198c3.84-2.138,8.774-3.14,13.049-3.404c6.385-0.396,13.119,1.647,21.277,0.853
		C493.426,292.184,496.229,290.807,499.434,290.213z M356.17,290.213c0,0.189,0,0.378,0,0.566c-3.318,1.674-5.789,4.578-7.658,7.377
		c-2.078,3.107-3.649,6.71-5.106,9.929c-2.986,6.601-6.842,12.908-13.334,16.737c-4.424,2.611-10.605,3.585-16.17,3.688
		c-4.912,0.092-9.902-1.408-15.888-1.135c-4.096,0.188-7.963,1.543-11.062,2.27c2.401-2.645,4.606-4.066,6.522-6.809
		c3.484-4.984,5.043-10.679,7.943-15.604c2.699-4.582,6.184-9.323,11.348-12.198c3.841-2.138,8.777-3.14,13.052-3.404
		c6.385-0.396,13.118,1.647,21.274,0.853C350.164,292.184,352.965,290.807,356.17,290.213z M212.908,290.213
		c0,0.189,0,0.378,0,0.566c-3.32,1.674-5.789,4.578-7.66,7.377c-2.077,3.107-3.649,6.71-5.106,9.929
		c-2.985,6.601-6.842,12.908-13.333,16.737c-4.425,2.611-10.606,3.585-16.17,3.688c-4.914,0.092-9.903-1.408-15.886-1.135
		c-4.097,0.188-7.963,1.543-11.064,2.27c2.403-2.645,4.609-4.066,6.525-6.809c3.484-4.984,5.042-10.679,7.943-15.604
		c2.698-4.582,6.183-9.323,11.347-12.198c3.84-2.138,8.777-3.14,13.05-3.404c6.385-0.396,13.119,1.647,21.276,0.853
		C206.901,292.184,209.703,290.807,212.908,290.213z M499.434,41.702c0,0.189,0,0.378,0,0.567c-3.319,1.673-5.789,4.579-7.659,7.376
		c-2.078,3.107-3.65,6.71-5.107,9.929c-2.984,6.599-6.842,12.908-13.332,16.737c-4.426,2.61-10.604,3.584-16.17,3.688
		c-4.914,0.091-9.904-1.409-15.887-1.135c-4.099,0.188-7.963,1.543-11.064,2.27c2.404-2.644,4.609-4.067,6.525-6.809
		c3.483-4.984,5.043-10.678,7.942-15.603c2.697-4.583,6.185-9.324,11.349-12.199c3.84-2.138,8.774-3.139,13.049-3.404
		c6.385-0.396,13.119,1.647,21.277,0.851C493.426,43.672,496.229,42.296,499.434,41.702z M356.17,41.702c0,0.189,0,0.378,0,0.567
		c-3.318,1.673-5.789,4.579-7.658,7.376c-2.078,3.107-3.649,6.71-5.106,9.929c-2.986,6.599-6.842,12.908-13.334,16.737
		c-4.424,2.61-10.605,3.584-16.17,3.688c-4.912,0.091-9.902-1.409-15.888-1.135c-4.096,0.188-7.963,1.543-11.062,2.27
		c2.401-2.644,4.606-4.067,6.522-6.809c3.484-4.984,5.043-10.678,7.943-15.603c2.699-4.583,6.184-9.324,11.348-12.199
		c3.841-2.138,8.777-3.139,13.052-3.404c6.385-0.396,13.118,1.647,21.274,0.851C350.164,43.672,352.965,42.296,356.17,41.702z
		 M212.908,41.702c0,0.189,0,0.378,0,0.567c-3.32,1.673-5.789,4.579-7.66,7.376c-2.077,3.107-3.649,6.71-5.106,9.929
		c-2.985,6.599-6.842,12.908-13.333,16.737c-4.425,2.61-10.606,3.584-16.17,3.688c-4.914,0.091-9.903-1.409-15.886-1.135
		c-4.097,0.188-7.963,1.543-11.064,2.27c2.403-2.644,4.609-4.067,6.525-6.809c3.484-4.984,5.042-10.678,7.943-15.603
		c2.698-4.583,6.183-9.324,11.347-12.199c3.84-2.138,8.777-3.139,13.05-3.404c6.385-0.396,13.119,1.647,21.276,0.851
		C206.901,43.672,209.703,42.296,212.908,41.702z M392.908,172.767c-9.549,1.734-13.26,8.234-16.453,15.318
		c-1.818,4.029-4.611,8.32-7.377,11.064c-0.045,0.045-1.617,0.379-0.566,0.851c5.853-3.05,15.076-0.38,21.56-0.851
		c2.914-0.213,6.168-0.893,8.795-2.27c8.985-4.711,9.858-16.151,16.455-22.979c0.764-0.792,2.073-1.301,2.27-2.554
		C411.115,174.942,399.777,171.519,392.908,172.767z M249.646,172.767c-9.549,1.734-13.26,8.234-16.455,15.318
		c-1.816,4.029-4.61,8.32-7.375,11.064c-0.046,0.045-1.617,0.379-0.568,0.851c5.854-3.05,15.078-0.38,21.561-0.851
		c2.914-0.213,6.167-0.893,8.794-2.27c8.986-4.711,9.859-16.151,16.453-22.979c0.764-0.792,2.074-1.301,2.271-2.554
		C267.854,174.942,256.514,171.519,249.646,172.767z M106.383,172.767c-9.548,1.734-13.259,8.234-16.454,15.318
		c-1.817,4.029-4.611,8.32-7.376,11.064c-0.045,0.045-1.617,0.379-0.567,0.851c5.852-3.05,15.078-0.38,21.56-0.851
		c2.915-0.213,6.167-0.893,8.794-2.27c8.986-4.711,9.859-16.151,16.454-22.979c0.764-0.792,2.074-1.301,2.27-2.554
		C124.591,174.942,113.252,171.519,106.383,172.767z M464.539,297.021c-9.547,1.733-13.258,8.234-16.453,15.318
		c-1.818,4.029-4.611,8.32-7.377,11.062c-0.045,0.046-1.617,0.381-0.566,0.852c5.853-3.049,15.076-0.379,21.562-0.852
		c2.914-0.211,6.166-0.893,8.793-2.27c8.986-4.711,9.859-16.15,16.455-22.979c0.764-0.791,2.074-1.301,2.27-2.555
		C482.748,299.197,471.408,295.773,464.539,297.021z M321.277,297.021c-9.55,1.733-13.261,8.234-16.455,15.318
		c-1.816,4.029-4.609,8.32-7.375,11.062c-0.045,0.046-1.617,0.381-0.568,0.852c5.854-3.049,15.078-0.379,21.562-0.852
		c2.914-0.211,6.168-0.893,8.795-2.27c8.985-4.711,9.858-16.15,16.453-22.979c0.766-0.791,2.073-1.301,2.27-2.555
		C339.484,299.197,328.146,295.773,321.277,297.021z M178.014,297.021c-9.548,1.733-13.259,8.234-16.454,15.318
		c-1.817,4.029-4.611,8.32-7.375,11.062c-0.045,0.046-1.618,0.381-0.567,0.852c5.852-3.049,15.078-0.379,21.56-0.852
		c2.914-0.211,6.167-0.893,8.794-2.27c8.986-4.711,9.859-16.15,16.454-22.979c0.764-0.791,2.074-1.301,2.269-2.555
		C196.222,299.197,184.883,295.773,178.014,297.021z M464.539,48.511c-9.547,1.734-13.258,8.235-16.453,15.319
		c-1.818,4.03-4.611,8.32-7.377,11.064c-0.045,0.045-1.617,0.379-0.566,0.851c5.853-3.049,15.076-0.379,21.562-0.851
		c2.914-0.212,6.166-0.893,8.793-2.27c8.986-4.71,9.859-16.15,16.455-22.979c0.764-0.792,2.074-1.3,2.27-2.553
		C482.748,50.687,471.408,47.263,464.539,48.511z M321.277,48.511c-9.55,1.734-13.261,8.235-16.455,15.319
		c-1.816,4.03-4.609,8.32-7.375,11.064c-0.045,0.045-1.617,0.379-0.568,0.851c5.854-3.049,15.078-0.379,21.562-0.851
		c2.914-0.212,6.168-0.893,8.795-2.27c8.985-4.71,9.858-16.15,16.453-22.979c0.766-0.792,2.073-1.3,2.27-2.553
		C339.484,50.687,328.146,47.263,321.277,48.511z M178.014,48.511c-9.548,1.734-13.259,8.235-16.454,15.319
		c-1.817,4.03-4.611,8.32-7.375,11.064c-0.045,0.045-1.618,0.379-0.567,0.851c5.852-3.049,15.078-0.379,21.56-0.851
		c2.914-0.212,6.167-0.893,8.794-2.27c8.986-4.71,9.859-16.15,16.454-22.979c0.764-0.792,2.074-1.3,2.269-2.553
		C196.222,50.687,184.883,47.263,178.014,48.511z M320.568,176.454c-4.205-0.48-8.795,0.687-13.617,0.852
		c3.428,4.248,4.059,10.055,7.942,13.616c5.021,4.604,13.646,4.841,22.695,3.404C333.244,187.224,330.676,177.61,320.568,176.454z
		 M177.305,176.454c-4.204-0.48-8.795,0.687-13.617,0.852c3.428,4.248,4.059,10.055,7.943,13.616
		c5.021,4.604,13.645,4.841,22.695,3.404C189.98,187.224,187.413,177.61,177.305,176.454z M34.042,176.454
		c-4.204-0.48-8.795,0.687-13.617,0.852c3.428,4.248,4.059,10.055,7.943,13.616c5.021,4.604,13.646,4.841,22.695,3.404
		C46.718,187.224,44.15,177.61,34.042,176.454z M392.199,300.709c-4.205-0.48-8.795,0.688-13.617,0.852
		c3.428,4.248,4.059,10.057,7.943,13.617c5.021,4.604,13.645,4.842,22.694,3.404C404.875,311.479,402.307,301.865,392.199,300.709z
		 M248.936,300.709c-4.204-0.48-8.795,0.688-13.616,0.852c3.428,4.248,4.059,10.057,7.942,13.617
		c5.021,4.604,13.646,4.842,22.695,3.404C261.611,311.479,259.045,301.865,248.936,300.709z M105.674,300.709
		c-4.204-0.48-8.795,0.688-13.617,0.852c3.429,4.248,4.059,10.057,7.943,13.617c5.021,4.604,13.646,4.842,22.695,3.404
		C118.349,311.479,115.782,301.865,105.674,300.709z M392.199,52.199c-4.205-0.48-8.795,0.687-13.617,0.851
		c3.428,4.248,4.059,10.056,7.943,13.617c5.021,4.604,13.645,4.841,22.694,3.404C404.875,62.968,402.307,53.354,392.199,52.199z
		 M248.936,52.199c-4.204-0.48-8.795,0.687-13.616,0.851c3.428,4.248,4.059,10.056,7.942,13.617
		c5.021,4.604,13.646,4.841,22.695,3.404C261.611,62.968,259.045,53.354,248.936,52.199z M105.674,52.199
		c-4.204-0.48-8.795,0.687-13.617,0.851c3.429,4.248,4.059,10.056,7.943,13.617c5.021,4.604,13.646,4.841,22.695,3.404
		C118.349,62.968,115.782,53.354,105.674,52.199z M392.625,176.737c-8.787,2.168-11.121,10.913-15.035,17.873
		c10.105,0.898,17.941,0.952,22.979-3.973c3.121-3.051,4.864-8.736,6.809-12.197c0.057-0.102,1.377-1.144,0.283-1.419
		C401.881,177.282,397.035,175.649,392.625,176.737z M249.362,176.737c-8.787,2.168-11.121,10.913-15.036,17.873
		c10.107,0.898,17.941,0.952,22.979-3.973c3.121-3.051,4.865-8.736,6.809-12.197c0.058-0.102,1.378-1.144,0.283-1.419
		C258.617,177.282,253.771,175.649,249.362,176.737z M106.099,176.737c-8.787,2.168-11.121,10.913-15.035,17.873
		c10.107,0.898,17.941,0.952,22.979-3.973c3.121-3.051,4.865-8.736,6.809-12.197c0.057-0.102,1.377-1.144,0.284-1.419
		C115.355,177.282,110.509,175.649,106.099,176.737z M464.256,300.993c-8.787,2.167-11.121,10.913-15.035,17.872
		c10.107,0.898,17.941,0.951,22.979-3.973c3.121-3.051,4.865-8.736,6.809-12.197c0.058-0.102,1.377-1.145,0.283-1.42
		C473.512,301.537,468.666,299.904,464.256,300.993z M320.994,300.993c-8.787,2.167-11.123,10.913-15.037,17.872
		c10.107,0.898,17.941,0.951,22.979-3.973c3.121-3.051,4.865-8.736,6.81-12.197c0.057-0.102,1.377-1.145,0.285-1.42
		C330.248,301.537,325.402,299.904,320.994,300.993z M177.73,300.993c-8.787,2.167-11.121,10.913-15.036,17.872
		c10.107,0.898,17.942,0.951,22.979-3.973c3.121-3.051,4.865-8.736,6.809-12.197c0.056-0.102,1.377-1.145,0.284-1.42
		C186.986,301.537,182.141,299.904,177.73,300.993z M464.256,52.482c-8.787,2.167-11.121,10.913-15.035,17.872
		c10.107,0.898,17.941,0.953,22.979-3.972c3.121-3.051,4.865-8.737,6.809-12.198c0.058-0.101,1.377-1.143,0.283-1.418
		C473.512,53.026,468.666,51.395,464.256,52.482z M320.994,52.482c-8.787,2.167-11.123,10.913-15.037,17.872
		c10.107,0.898,17.941,0.953,22.979-3.972c3.121-3.051,4.865-8.737,6.81-12.198c0.057-0.101,1.377-1.143,0.285-1.418
		C330.248,53.026,325.402,51.395,320.994,52.482z M177.73,52.482c-8.787,2.167-11.121,10.913-15.036,17.872
		c10.107,0.898,17.942,0.953,22.979-3.972c3.121-3.051,4.865-8.737,6.809-12.198c0.056-0.101,1.377-1.143,0.284-1.418
		C186.986,53.026,182.141,51.395,177.73,52.482z M356.312,206.809c0.274,0.008,0.221,0.347,0.282,0.567
		c-6.44,3.984-9.127,10.723-11.914,17.021c-2.766,6.248-7.008,12.721-12.481,16.453c-4.457,3.039-9.832,3.617-15.035,3.973
		c-9.09,0.619-21.135-2.65-29.504,1.701c1.955-2.332,3.928-3.294,5.674-5.39c3.533-4.24,5.055-9.542,7.375-14.185
		c2.27-4.541,5.254-9.128,9.078-12.482c4.592-4.026,10.686-5.847,17.021-6.24c6.58-0.41,13.55,1.598,21.277,0.851
		C350.803,208.815,353.387,207.813,356.312,206.809z M213.05,206.809c0.275,0.008,0.219,0.347,0.283,0.567
		c-6.443,3.984-9.127,10.723-11.915,17.021c-2.766,6.248-7.007,12.721-12.482,16.453c-4.457,3.039-9.832,3.617-15.035,3.973
		c-9.089,0.619-21.135-2.65-29.504,1.701c1.956-2.332,3.928-3.294,5.674-5.39c3.534-4.24,5.056-9.542,7.376-14.185
		c2.27-4.541,5.254-9.128,9.078-12.482c4.591-4.026,10.684-5.847,17.021-6.24c6.581-0.41,13.55,1.598,21.277,0.851
		C207.541,208.815,210.125,207.813,213.05,206.809z M69.787,206.809c0.276,0.008,0.22,0.347,0.284,0.567
		c-6.442,3.984-9.126,10.723-11.915,17.021c-2.766,6.248-7.007,12.721-12.482,16.453c-4.458,3.039-9.832,3.617-15.036,3.973
		c-9.089,0.619-21.135-2.65-29.503,1.701c1.956-2.332,3.927-3.294,5.674-5.39c3.534-4.24,5.056-9.542,7.376-14.185
		c2.27-4.541,5.253-9.128,9.078-12.482c4.591-4.026,10.685-5.847,17.021-6.24c6.58-0.41,13.549,1.598,21.276,0.851
		C64.277,208.815,66.862,207.813,69.787,206.809z M427.943,331.062c0.274,0.008,0.221,0.349,0.282,0.567
		c-6.44,3.983-9.127,10.724-11.914,17.021c-2.766,6.248-7.008,12.722-12.481,16.455c-4.457,3.039-9.832,3.615-15.035,3.972
		c-9.09,0.618-21.135-2.65-29.504,1.702c1.955-2.332,3.928-3.295,5.674-5.391c3.533-4.24,5.058-9.543,7.375-14.185
		c2.271-4.542,5.254-9.128,9.078-12.481c4.592-4.027,10.686-5.849,17.021-6.242c6.579-0.408,13.551,1.6,21.276,0.852
		C422.434,333.07,425.018,332.068,427.943,331.062z M284.682,331.062c0.275,0.008,0.219,0.349,0.283,0.567
		c-6.443,3.983-9.127,10.724-11.914,17.021c-2.768,6.248-7.008,12.722-12.482,16.455c-4.457,3.039-9.832,3.615-15.036,3.972
		c-9.089,0.618-21.135-2.65-29.503,1.702c1.955-2.332,3.927-3.295,5.674-5.391c3.533-4.24,5.056-9.543,7.375-14.185
		c2.27-4.542,5.254-9.128,9.078-12.481c4.592-4.027,10.685-5.849,17.022-6.242c6.58-0.408,13.549,1.6,21.277,0.852
		C279.172,333.07,281.756,332.068,284.682,331.062z M141.418,331.062c0.276,0.008,0.22,0.349,0.284,0.567
		c-6.442,3.983-9.127,10.724-11.915,17.021c-2.766,6.248-7.007,12.722-12.482,16.455c-4.458,3.039-9.832,3.615-15.036,3.972
		c-9.089,0.618-21.135-2.65-29.503,1.702c1.956-2.332,3.927-3.295,5.674-5.391c3.533-4.24,5.056-9.543,7.375-14.185
		c2.27-4.542,5.254-9.128,9.078-12.481c4.591-4.027,10.685-5.849,17.021-6.242c6.58-0.408,13.549,1.6,21.276,0.852
		C135.909,333.07,138.494,332.068,141.418,331.062z M427.943,82.553c0.274,0.008,0.221,0.347,0.282,0.567
		c-6.44,3.984-9.127,10.722-11.914,17.021c-2.766,6.249-7.008,12.721-12.481,16.454c-4.457,3.039-9.832,3.617-15.035,3.972
		c-9.09,0.62-21.135-2.65-29.504,1.702c1.955-2.332,3.928-3.294,5.674-5.39c3.533-4.24,5.058-9.542,7.375-14.185
		c2.271-4.542,5.254-9.127,9.078-12.482c4.592-4.026,10.686-5.847,17.021-6.241c6.579-0.409,13.551,1.599,21.276,0.851
		C422.434,84.56,425.018,83.558,427.943,82.553z M284.682,82.553c0.275,0.008,0.219,0.347,0.283,0.567
		c-6.443,3.984-9.127,10.722-11.914,17.021c-2.768,6.249-7.008,12.721-12.482,16.454c-4.457,3.039-9.832,3.617-15.036,3.972
		c-9.089,0.62-21.135-2.65-29.503,1.702c1.955-2.332,3.927-3.294,5.674-5.39c3.533-4.24,5.056-9.542,7.375-14.185
		c2.27-4.542,5.254-9.127,9.078-12.482c4.592-4.026,10.685-5.847,17.022-6.241c6.58-0.409,13.549,1.599,21.277,0.851
		C279.172,84.56,281.756,83.558,284.682,82.553z M141.418,82.553c0.276,0.008,0.22,0.347,0.284,0.567
		c-6.442,3.984-9.127,10.722-11.915,17.021c-2.766,6.249-7.007,12.721-12.482,16.454c-4.458,3.039-9.832,3.617-15.036,3.972
		c-9.089,0.62-21.135-2.65-29.503,1.702c1.956-2.332,3.927-3.294,5.674-5.39c3.533-4.24,5.056-9.542,7.375-14.185
		c2.27-4.542,5.254-9.127,9.078-12.482c4.591-4.026,10.685-5.847,17.021-6.241c6.58-0.409,13.549,1.599,21.276,0.851
		C135.909,84.56,138.494,83.558,141.418,82.553z M325.674,213.333c-9.613,0.641-15.104,6.041-18.723,13.05
		c-1.607,3.11-2.678,7.095-5.391,10.497c-0.537,0.674-1.595,1.322-2.271,1.985c-0.676,0.663-1.763,1.376-1.701,2.27
		c5.527-3.667,14.875-0.648,21.56-1.135c2.993-0.218,6.43-0.87,9.077-2.27c8.644-4.563,10.136-16.233,16.171-22.694
		c0.729-0.781,2.116-1.504,2.27-2.838C341.375,215.427,331.213,212.965,325.674,213.333z M182.411,213.333
		c-9.613,0.641-15.104,6.041-18.723,13.05c-1.606,3.11-2.678,7.095-5.39,10.497c-0.538,0.674-1.594,1.322-2.27,1.985
		c-0.675,0.663-1.761,1.376-1.702,2.27c5.527-3.667,14.876-0.648,21.561-1.135c2.992-0.218,6.429-0.87,9.078-2.27
		c8.643-4.563,10.134-16.233,16.17-22.694c0.729-0.781,2.117-1.504,2.269-2.838C198.111,215.427,187.951,212.965,182.411,213.333z
		 M39.149,213.333c-9.613,0.641-15.104,6.041-18.723,13.05c-1.607,3.11-2.678,7.095-5.39,10.497
		c-0.538,0.674-1.594,1.322-2.27,1.985c-0.676,0.663-1.761,1.376-1.702,2.27c5.527-3.667,14.875-0.648,21.56-1.135
		c2.993-0.218,6.43-0.87,9.078-2.27c8.642-4.563,10.134-16.233,16.17-22.694c0.729-0.781,2.116-1.504,2.269-2.838
		C54.849,215.427,44.688,212.965,39.149,213.333z M397.305,337.589c-9.612,0.64-15.104,6.041-18.723,13.05
		c-1.607,3.11-2.678,7.094-5.391,10.496c-0.537,0.674-1.595,1.322-2.271,1.985c-0.676,0.664-1.762,1.376-1.701,2.271
		c5.527-3.666,14.875-0.647,21.562-1.136c2.992-0.218,6.428-0.87,9.078-2.271c8.641-4.562,10.133-16.231,16.17-22.693
		c0.729-0.78,2.115-1.504,2.27-2.837C413.006,339.684,402.844,337.221,397.305,337.589z M254.043,337.589
		c-9.614,0.64-15.104,6.041-18.723,13.05c-1.607,3.11-2.679,7.094-5.391,10.496c-0.537,0.674-1.594,1.322-2.27,1.985
		c-0.676,0.664-1.762,1.376-1.702,2.271c5.527-3.666,14.876-0.647,21.56-1.136c2.993-0.218,6.43-0.87,9.079-2.271
		c8.644-4.562,10.135-16.231,16.17-22.693c0.729-0.78,2.117-1.504,2.271-2.837C269.742,339.684,259.582,337.221,254.043,337.589z
		 M110.78,337.589c-9.613,0.64-15.104,6.041-18.724,13.05c-1.606,3.11-2.678,7.094-5.39,10.496c-0.537,0.674-1.594,1.322-2.27,1.985
		c-0.675,0.664-1.761,1.376-1.702,2.271c5.527-3.666,14.876-0.647,21.561-1.136c2.993-0.218,6.43-0.87,9.078-2.271
		c8.642-4.562,10.134-16.231,16.17-22.693c0.729-0.78,2.116-1.504,2.27-2.837C126.48,339.684,116.319,337.221,110.78,337.589z
		 M397.305,89.078c-9.612,0.64-15.104,6.041-18.723,13.049c-1.607,3.111-2.678,7.094-5.391,10.497
		c-0.537,0.674-1.595,1.322-2.271,1.986c-0.676,0.663-1.762,1.376-1.701,2.27c5.527-3.667,14.875-0.648,21.562-1.135
		c2.992-0.218,6.428-0.871,9.078-2.27c8.641-4.564,10.133-16.233,16.17-22.695c0.729-0.781,2.115-1.503,2.27-2.837
		C413.006,91.171,402.844,88.709,397.305,89.078z M254.043,89.078c-9.614,0.64-15.104,6.041-18.723,13.049
		c-1.607,3.111-2.679,7.094-5.391,10.497c-0.537,0.674-1.594,1.322-2.27,1.986c-0.676,0.663-1.762,1.376-1.702,2.27
		c5.527-3.667,14.876-0.648,21.56-1.135c2.993-0.218,6.43-0.871,9.079-2.27c8.644-4.564,10.135-16.233,16.17-22.695
		c0.729-0.781,2.117-1.503,2.271-2.837C269.742,91.171,259.582,88.709,254.043,89.078z M110.78,89.078
		c-9.613,0.64-15.104,6.041-18.724,13.049c-1.606,3.111-2.678,7.094-5.39,10.497c-0.537,0.674-1.594,1.322-2.27,1.986
		c-0.675,0.663-1.761,1.376-1.702,2.27c5.527-3.667,14.876-0.648,21.561-1.135c2.993-0.218,6.43-0.871,9.078-2.27
		c8.642-4.564,10.134-16.233,16.17-22.695c0.729-0.781,2.116-1.503,2.27-2.837C126.48,91.171,116.319,88.709,110.78,89.078z
		 M427.801,245.958c0,0.188,0,0.377,0,0.566c-4.094-1.17-8.199-2.504-12.479-2.553c-5.701-0.064-10.927,1.309-16.172,1.135
		c-4.935-0.164-10.267-0.969-14.753-3.404c-4.895-2.659-8.59-7.391-11.346-11.915c-2.971-4.874-4.312-10.814-7.66-15.603
		c-1.491-2.135-3.494-4.119-5.106-5.674c-0.447-0.432-1.992-0.592-1.418-1.702c7.856,4.521,20.225,0.796,29.504,1.419
		c3.783,0.254,8.559,1.088,12.199,2.836c5.346,2.568,9.129,7.977,11.914,12.482c3.774,6.107,6.041,14.061,10.778,19.008
		C424.545,243.892,426.109,245.242,427.801,245.958z M284.539,245.958c0,0.188,0,0.377,0,0.566
		c-4.096-1.17-8.199-2.504-12.482-2.553c-5.699-0.064-10.924,1.309-16.17,1.135c-4.934-0.164-10.266-0.969-14.752-3.404
		c-4.896-2.659-8.59-7.391-11.348-11.915c-2.97-4.874-4.312-10.814-7.659-15.603c-1.492-2.135-3.493-4.119-5.106-5.674
		c-0.447-0.432-1.992-0.592-1.418-1.702c7.855,4.521,20.225,0.796,29.504,1.419c3.781,0.254,8.559,1.088,12.199,2.836
		c5.348,2.568,9.131,7.977,11.916,12.482c3.774,6.107,6.041,14.061,10.778,19.008C281.283,243.892,282.846,245.242,284.539,245.958z
		 M141.276,245.958c0,0.188,0,0.377,0,0.566c-4.095-1.17-8.199-2.504-12.482-2.553c-5.7-0.064-10.925,1.309-16.17,1.135
		c-4.934-0.164-10.265-0.969-14.751-3.404c-4.896-2.659-8.59-7.391-11.348-11.915c-2.971-4.874-4.312-10.814-7.66-15.603
		c-1.492-2.135-3.493-4.119-5.106-5.674c-0.448-0.432-1.993-0.592-1.418-1.702c7.856,4.521,20.225,0.796,29.503,1.419
		c3.783,0.254,8.559,1.088,12.199,2.836c5.347,2.568,9.129,7.977,11.915,12.482c3.776,6.107,6.041,14.061,10.78,19.008
		C138.021,243.892,139.584,245.242,141.276,245.958z M499.434,370.213c0,0.189,0,0.378,0,0.566c-4.096-1.17-8.2-2.504-12.481-2.553
		c-5.699-0.063-10.926,1.309-16.17,1.135c-4.935-0.163-10.267-0.969-14.752-3.404c-4.896-2.658-8.59-7.391-11.349-11.914
		c-2.971-4.874-4.312-10.814-7.66-15.604c-1.491-2.135-3.491-4.119-5.104-5.674c-0.449-0.433-1.994-0.592-1.42-1.703
		c7.856,4.521,20.225,0.797,29.504,1.42c3.783,0.254,8.559,1.088,12.199,2.836c5.346,2.568,9.129,7.978,11.914,12.482
		c3.774,6.107,6.041,14.061,10.78,19.008C496.176,368.146,497.74,369.497,499.434,370.213z M356.17,370.213c0,0.189,0,0.378,0,0.566
		c-4.094-1.17-8.199-2.504-12.481-2.553c-5.699-0.063-10.925,1.309-16.171,1.135c-4.934-0.163-10.266-0.969-14.752-3.404
		c-4.896-2.658-8.59-7.391-11.348-11.914c-2.969-4.874-4.312-10.814-7.658-15.604c-1.492-2.135-3.494-4.119-5.107-5.674
		c-0.446-0.433-1.991-0.592-1.418-1.703c7.855,4.521,20.226,0.797,29.505,1.42c3.78,0.254,8.559,1.088,12.196,2.836
		c5.349,2.568,9.132,7.978,11.916,12.482c3.775,6.107,6.041,14.061,10.779,19.008C352.914,368.146,354.479,369.497,356.17,370.213z
		 M212.908,370.213c0,0.189,0,0.378,0,0.566c-4.096-1.17-8.199-2.504-12.482-2.553c-5.7-0.063-10.925,1.309-16.17,1.135
		c-4.934-0.163-10.266-0.969-14.752-3.404c-4.896-2.658-8.59-7.391-11.347-11.914c-2.971-4.874-4.312-10.814-7.66-15.604
		c-1.493-2.135-3.493-4.119-5.106-5.674c-0.448-0.433-1.993-0.592-1.418-1.703c7.856,4.521,20.224,0.797,29.503,1.42
		c3.783,0.254,8.559,1.088,12.199,2.836c5.347,2.568,9.129,7.978,11.915,12.482c3.775,6.107,6.042,14.061,10.78,19.008
		C209.652,368.146,211.215,369.497,212.908,370.213z M499.434,121.702c0,0.189,0,0.378,0,0.567c-4.096-1.171-8.2-2.505-12.481-2.553
		c-5.699-0.064-10.926,1.309-16.17,1.135c-4.935-0.164-10.267-0.968-14.752-3.404c-4.896-2.659-8.59-7.39-11.349-11.915
		c-2.971-4.874-4.312-10.814-7.66-15.603c-1.491-2.135-3.491-4.12-5.104-5.674c-0.449-0.432-1.994-0.591-1.42-1.702
		c7.856,4.521,20.225,0.796,29.504,1.418c3.783,0.254,8.559,1.088,12.199,2.837c5.346,2.569,9.129,7.977,11.914,12.482
		c3.774,6.107,6.041,14.061,10.78,19.007C496.176,119.637,497.74,120.987,499.434,121.702z M356.17,121.702c0,0.189,0,0.378,0,0.567
		c-4.094-1.171-8.199-2.505-12.481-2.553c-5.699-0.064-10.925,1.309-16.171,1.135c-4.934-0.164-10.266-0.968-14.752-3.404
		c-4.896-2.659-8.59-7.39-11.348-11.915c-2.969-4.874-4.312-10.814-7.658-15.603c-1.492-2.135-3.494-4.12-5.107-5.674
		c-0.446-0.432-1.991-0.591-1.418-1.702c7.855,4.521,20.226,0.796,29.505,1.418c3.78,0.254,8.559,1.088,12.196,2.837
		c5.349,2.569,9.132,7.977,11.916,12.482c3.775,6.107,6.041,14.061,10.779,19.007C352.914,119.637,354.479,120.987,356.17,121.702z
		 M212.908,121.702c0,0.189,0,0.378,0,0.567c-4.096-1.171-8.199-2.505-12.482-2.553c-5.7-0.064-10.925,1.309-16.17,1.135
		c-4.934-0.164-10.266-0.968-14.752-3.404c-4.896-2.659-8.59-7.39-11.347-11.915c-2.971-4.874-4.312-10.814-7.66-15.603
		c-1.493-2.135-3.493-4.12-5.106-5.674c-0.448-0.432-1.993-0.591-1.418-1.702c7.856,4.521,20.224,0.796,29.503,1.418
		c3.783,0.254,8.559,1.088,12.199,2.837c5.347,2.569,9.129,7.977,11.915,12.482c3.775,6.107,6.042,14.061,10.78,19.007
		C209.652,119.637,211.215,120.987,212.908,121.702z M375.035,221.56c1.846,3.738,3.19,7.695,5.674,10.781
		c2.994,3.72,7.588,6.544,12.766,7.375c7.4,1.189,18.271-2.369,24.398,1.419c-2.576-2.746-5.039-5.131-6.809-8.511
		c-1.824-3.484-2.912-7.378-5.107-10.496c-2.734-3.887-7.113-7.42-12.766-8.511c-7.254-1.4-17.976,2.217-25.248-1.419
		C370.998,215.134,373.287,218.017,375.035,221.56z M231.773,221.56c1.846,3.738,3.191,7.695,5.674,10.781
		c2.993,3.72,7.587,6.544,12.766,7.375c7.4,1.189,18.27-2.369,24.396,1.419c-2.573-2.746-5.039-5.131-6.809-8.511
		c-1.822-3.484-2.91-7.378-5.105-10.496c-2.733-3.887-7.112-7.42-12.765-8.511c-7.256-1.4-17.976,2.217-25.248-1.419
		C227.736,215.134,230.023,218.017,231.773,221.56z M88.511,221.56c1.845,3.738,3.19,7.695,5.674,10.781
		c2.993,3.72,7.587,6.544,12.766,7.375c7.401,1.189,18.27-2.369,24.397,1.419c-2.576-2.746-5.04-5.131-6.809-8.511
		c-1.824-3.484-2.912-7.378-5.106-10.496c-2.735-3.887-7.114-7.42-12.766-8.511c-7.255-1.4-17.975,2.217-25.248-1.419
		C84.473,215.134,86.761,218.017,88.511,221.56z M446.666,345.814c1.846,3.737,3.191,7.694,5.674,10.781
		c2.994,3.719,7.588,6.543,12.769,7.375c7.399,1.188,18.27-2.369,24.396,1.418c-2.576-2.744-5.039-5.13-6.809-8.51
		c-1.824-3.484-2.912-7.379-5.105-10.497c-2.736-3.886-7.115-7.42-12.768-8.511c-7.254-1.398-17.976,2.217-25.248-1.418
		C442.629,339.391,444.918,342.271,446.666,345.814z M303.404,345.814c1.846,3.737,3.19,7.694,5.674,10.781
		c2.994,3.719,7.588,6.543,12.766,7.375c7.4,1.188,18.271-2.369,24.398,1.418c-2.576-2.744-5.041-5.13-6.81-8.51
		c-1.823-3.484-2.911-7.379-5.106-10.497c-2.734-3.886-7.113-7.42-12.767-8.511c-7.256-1.398-17.975,2.217-25.247-1.418
		C299.367,339.391,301.654,342.271,303.404,345.814z M160.142,345.814c1.845,3.737,3.19,7.694,5.673,10.781
		c2.993,3.719,7.587,6.543,12.766,7.375c7.4,1.188,18.27-2.369,24.396,1.418c-2.575-2.744-5.039-5.13-6.808-8.51
		c-1.824-3.484-2.912-7.379-5.106-10.497c-2.735-3.886-7.114-7.42-12.766-8.511c-7.255-1.398-17.976,2.217-25.248-1.418
		C156.104,339.391,158.393,342.271,160.142,345.814z M446.666,97.305c1.846,3.737,3.191,7.694,5.674,10.78
		c2.994,3.72,7.588,6.544,12.769,7.376c7.399,1.188,18.27-2.37,24.396,1.418c-2.576-2.746-5.039-5.131-6.809-8.511
		c-1.824-3.484-2.912-7.378-5.105-10.496c-2.736-3.886-7.115-7.42-12.768-8.511c-7.254-1.4-17.976,2.217-25.248-1.418
		C442.629,90.879,444.918,93.762,446.666,97.305z M303.404,97.305c1.846,3.737,3.19,7.694,5.674,10.78
		c2.994,3.72,7.588,6.544,12.766,7.376c7.4,1.188,18.271-2.37,24.398,1.418c-2.576-2.746-5.041-5.131-6.81-8.511
		c-1.823-3.484-2.911-7.378-5.106-10.496c-2.734-3.886-7.113-7.42-12.767-8.511c-7.256-1.4-17.975,2.217-25.247-1.418
		C299.367,90.879,301.654,93.762,303.404,97.305z M160.142,97.305c1.845,3.737,3.19,7.694,5.673,10.78
		c2.993,3.72,7.587,6.544,12.766,7.376c7.4,1.188,18.27-2.37,24.396,1.418c-2.575-2.746-5.039-5.131-6.808-8.511
		c-1.824-3.484-2.912-7.378-5.106-10.496c-2.735-3.886-7.114-7.42-12.766-8.511c-7.255-1.4-17.976,2.217-25.248-1.418
		C156.104,90.879,158.393,93.762,160.142,97.305z M357.447,207.943c0.242-0.052,0.268,0.11,0.283,0.284
		c2.338,15.338,15.02,21.636,16.737,36.596c1.594,13.869-8.979,22.603-13.617,31.771c-1.161,2.298-2.176,4.581-2.838,7.376
		c-0.16,0.679,0.521,2.282-0.85,2.553c-0.656-8.439-5.203-13.522-9.078-19.007c-3.67-5.192-7.596-11.868-7.66-20.142
		c-0.063-8.345,3.933-14.848,7.66-20.143c3.816-5.422,8.047-10.455,9.078-18.439C357.139,208.392,357.117,207.991,357.447,207.943z
		 M214.185,207.943c0.24-0.052,0.268,0.11,0.283,0.284c2.337,15.338,15.018,21.636,16.737,36.596
		c1.595,13.869-8.979,22.603-13.616,31.771c-1.162,2.298-2.176,4.581-2.838,7.376c-0.16,0.679,0.519,2.282-0.851,2.553
		c-0.656-8.439-5.202-13.522-9.078-19.007c-3.67-5.192-7.595-11.868-7.66-20.142c-0.065-8.345,3.932-14.848,7.66-20.143
		c3.816-5.422,8.047-10.455,9.078-18.439C213.876,208.392,213.854,207.991,214.185,207.943z M70.922,207.943
		c0.242-0.052,0.268,0.11,0.284,0.284c2.337,15.338,15.019,21.636,16.738,36.596c1.594,13.869-8.979,22.603-13.617,31.771
		c-1.162,2.298-2.175,4.581-2.837,7.376c-0.161,0.679,0.518,2.282-0.851,2.553c-0.656-8.439-5.202-13.522-9.078-19.007
		c-3.669-5.192-7.595-11.868-7.659-20.142c-0.065-8.345,3.932-14.848,7.659-20.143c3.817-5.422,8.047-10.455,9.078-18.439
		C70.614,208.392,70.591,207.991,70.922,207.943z M429.078,332.198c0.242-0.052,0.268,0.11,0.283,0.284
		c2.338,15.338,15.02,21.636,16.737,36.596c1.595,13.87-8.979,22.604-13.616,31.772c-1.162,2.298-2.175,4.581-2.836,7.375
		c-0.162,0.68,0.518,2.283-0.853,2.555c-0.656-8.439-5.203-13.523-9.078-19.007c-3.67-5.192-7.596-11.869-7.66-20.144
		c-0.063-8.345,3.935-14.847,7.66-20.142c3.816-5.422,8.047-10.455,9.078-18.439C428.77,332.646,428.748,332.246,429.078,332.198z
		 M285.816,332.198c0.24-0.052,0.268,0.11,0.283,0.284c2.338,15.338,15.018,21.636,16.737,36.596
		c1.595,13.87-8.979,22.604-13.616,31.772c-1.162,2.298-2.177,4.581-2.839,7.375c-0.159,0.68,0.519,2.283-0.853,2.555
		c-0.653-8.439-5.2-13.523-9.075-19.007c-3.67-5.192-7.597-11.869-7.66-20.144c-0.063-8.345,3.933-14.847,7.66-20.142
		c3.815-5.422,8.047-10.455,9.075-18.439C285.508,332.646,285.486,332.246,285.816,332.198z M142.553,332.198
		c0.242-0.052,0.268,0.11,0.284,0.284c2.337,15.338,15.018,21.636,16.738,36.596c1.594,13.87-8.979,22.604-13.617,31.772
		c-1.162,2.298-2.175,4.581-2.837,7.375c-0.161,0.68,0.518,2.283-0.851,2.555c-0.656-8.439-5.202-13.523-9.078-19.007
		c-3.67-5.192-7.595-11.869-7.66-20.144c-0.064-8.345,3.933-14.847,7.66-20.142c3.816-5.422,8.047-10.455,9.078-18.439
		C142.245,332.646,142.223,332.246,142.553,332.198z M429.078,83.688c0.242-0.052,0.268,0.111,0.283,0.284
		c2.338,15.338,15.02,21.636,16.737,36.596c1.595,13.87-8.979,22.604-13.616,31.773c-1.162,2.297-2.175,4.581-2.836,7.375
		c-0.162,0.68,0.518,2.283-0.853,2.554c-0.656-8.439-5.203-13.522-9.078-19.007c-3.67-5.192-7.596-11.868-7.66-20.142
		c-0.063-8.345,3.935-14.847,7.66-20.142c3.816-5.422,8.047-10.455,9.078-18.439C428.77,84.137,428.748,83.735,429.078,83.688z
		 M285.816,83.688c0.24-0.052,0.268,0.111,0.283,0.284c2.338,15.338,15.018,21.636,16.737,36.596
		c1.595,13.87-8.979,22.604-13.616,31.773c-1.162,2.297-2.177,4.581-2.839,7.375c-0.159,0.68,0.519,2.283-0.853,2.554
		c-0.653-8.439-5.2-13.522-9.075-19.007c-3.67-5.192-7.597-11.868-7.66-20.142c-0.063-8.345,3.933-14.847,7.66-20.142
		c3.815-5.422,8.047-10.455,9.075-18.439C285.508,84.137,285.486,83.735,285.816,83.688z M142.553,83.688
		c0.242-0.052,0.268,0.111,0.284,0.284c2.337,15.338,15.018,21.636,16.738,36.596c1.594,13.87-8.979,22.604-13.617,31.773
		c-1.162,2.297-2.175,4.581-2.837,7.375c-0.161,0.68,0.518,2.283-0.851,2.554c-0.656-8.439-5.202-13.522-9.078-19.007
		c-3.67-5.192-7.595-11.868-7.66-20.142c-0.064-8.345,3.933-14.847,7.66-20.142c3.816-5.422,8.047-10.455,9.078-18.439
		C142.245,84.137,142.223,83.735,142.553,83.688z M345.531,243.12c-3.115,14.85,9.725,18.8,11.633,32.341
		c0.746,0.062,0.75-1.06,0.85-1.419c0.205-0.729,0.355-1.338,0.568-1.985c1.561-4.753,3.861-7.289,6.24-10.78
		c1.553-2.275,3.463-5.674,4.256-8.227c4.762-15.33-9.92-21.854-11.631-34.043C356.127,228.884,347.508,233.708,345.531,243.12z
		 M202.27,243.12c-3.116,14.85,9.724,18.8,11.631,32.341c0.746,0.062,0.75-1.06,0.851-1.419c0.205-0.729,0.355-1.338,0.568-1.985
		c1.561-4.753,3.86-7.289,6.24-10.78c1.552-2.275,3.463-5.674,4.256-8.227c4.76-15.33-9.921-21.854-11.631-34.043
		C212.865,228.884,204.245,233.708,202.27,243.12z M59.007,243.12c-3.117,14.85,9.723,18.8,11.631,32.341
		c0.746,0.062,0.75-1.06,0.851-1.419c0.205-0.729,0.354-1.338,0.567-1.985c1.562-4.753,3.861-7.289,6.241-10.78
		c1.551-2.275,3.463-5.674,4.255-8.227c4.761-15.33-9.921-21.854-11.631-34.043C69.602,228.884,60.982,233.708,59.007,243.12z
		 M417.164,367.376c-3.117,14.849,9.723,18.8,11.631,32.341c0.746,0.062,0.75-1.061,0.853-1.419
		c0.204-0.729,0.354-1.339,0.565-1.984c1.562-4.753,3.861-7.29,6.242-10.78c1.551-2.276,3.461-5.676,4.254-8.229
		c4.762-15.328-9.92-21.853-11.631-34.041C427.758,353.141,419.139,357.963,417.164,367.376z M273.9,367.376
		c-3.115,14.849,9.725,18.8,11.631,32.341c0.746,0.062,0.752-1.061,0.852-1.419c0.205-0.729,0.355-1.339,0.568-1.984
		c1.561-4.753,3.859-7.29,6.24-10.78c1.553-2.276,3.463-5.676,4.256-8.229c4.76-15.328-9.922-21.853-11.631-34.041
		C284.496,353.141,275.877,357.963,273.9,367.376z M130.638,367.376c-3.116,14.849,9.724,18.8,11.631,32.341
		c0.746,0.062,0.75-1.061,0.851-1.419c0.205-0.729,0.354-1.339,0.567-1.984c1.562-4.753,3.861-7.29,6.241-10.78
		c1.551-2.276,3.462-5.676,4.255-8.229c4.76-15.328-9.921-21.853-11.631-34.041C141.233,353.141,132.614,357.963,130.638,367.376z
		 M417.164,118.865c-3.117,14.849,9.723,18.8,11.631,32.341c0.746,0.062,0.75-1.061,0.853-1.419
		c0.204-0.729,0.354-1.339,0.565-1.985c1.562-4.752,3.861-7.289,6.242-10.78c1.551-2.276,3.461-5.675,4.254-8.228
		c4.762-15.329-9.92-21.853-11.631-34.042C427.758,104.629,419.139,109.453,417.164,118.865z M273.9,118.865
		c-3.115,14.849,9.725,18.8,11.631,32.341c0.746,0.062,0.752-1.061,0.852-1.419c0.205-0.729,0.355-1.339,0.568-1.985
		c1.561-4.752,3.859-7.289,6.24-10.78c1.553-2.276,3.463-5.675,4.256-8.228c4.76-15.329-9.922-21.853-11.631-34.042
		C284.496,104.629,275.877,109.453,273.9,118.865z M130.638,118.865c-3.116,14.849,9.724,18.8,11.631,32.341
		c0.746,0.062,0.75-1.061,0.851-1.419c0.205-0.729,0.354-1.339,0.567-1.985c1.562-4.752,3.861-7.289,6.241-10.78
		c1.551-2.276,3.462-5.675,4.255-8.228c4.76-15.329-9.921-21.853-11.631-34.042C141.233,104.629,132.614,109.453,130.638,118.865z
		 M328.795,217.306c-7.375-0.42-13.404,2.07-16.738,7.658c-2.006,3.362-2.534,7.16-5.104,10.497
		c5.619-0.542,9.498,1.185,13.899,0.567c8.564-1.201,11.793-8.897,15.035-15.035c0.644-1.215,1.865-2.754,1.136-3.404
		C334.061,218.39,331.238,217.444,328.795,217.306z M185.532,217.306c-7.374-0.42-13.403,2.07-16.737,7.658
		c-2.006,3.362-2.535,7.16-5.106,10.497c5.619-0.542,9.499,1.185,13.901,0.567c8.564-1.201,11.794-8.897,15.035-15.035
		c0.642-1.215,1.866-2.754,1.135-3.404C190.798,218.39,187.976,217.444,185.532,217.306z M42.27,217.306
		c-7.374-0.42-13.403,2.07-16.738,7.658c-2.005,3.362-2.535,7.16-5.106,10.497c5.619-0.542,9.499,1.185,13.9,0.567
		c8.564-1.201,11.794-8.897,15.036-15.035c0.642-1.215,1.866-2.754,1.135-3.404C47.535,218.39,44.713,217.444,42.27,217.306z
		 M400.426,341.561c-7.375-0.42-13.401,2.07-16.738,7.66c-2.006,3.36-2.534,7.158-5.104,10.496c5.619-0.543,9.498,1.186,13.9,0.566
		c8.563-1.201,11.795-8.896,15.034-15.035c0.644-1.215,1.867-2.754,1.136-3.404C405.691,342.645,402.869,341.699,400.426,341.561z
		 M257.164,341.561c-7.375-0.42-13.405,2.07-16.739,7.66c-2.006,3.36-2.535,7.158-5.105,10.496c5.618-0.543,9.498,1.186,13.9,0.566
		c8.565-1.201,11.793-8.896,15.036-15.035c0.641-1.215,1.865-2.754,1.135-3.404C262.43,342.645,259.607,341.699,257.164,341.561z
		 M113.901,341.561c-7.375-0.42-13.403,2.07-16.738,7.66c-2.005,3.36-2.535,7.158-5.106,10.496c5.619-0.543,9.5,1.186,13.901,0.566
		c8.564-1.201,11.794-8.896,15.036-15.035c0.642-1.215,1.866-2.754,1.134-3.404C119.167,342.645,116.345,341.699,113.901,341.561z
		 M400.426,93.05c-7.375-0.419-13.401,2.07-16.738,7.659c-2.006,3.362-2.534,7.16-5.104,10.497c5.619-0.542,9.498,1.185,13.9,0.567
		c8.563-1.201,11.795-8.897,15.034-15.035c0.644-1.215,1.867-2.754,1.136-3.404C405.691,94.134,402.869,93.188,400.426,93.05z
		 M257.164,93.05c-7.375-0.419-13.405,2.07-16.739,7.659c-2.006,3.362-2.535,7.16-5.105,10.497c5.618-0.542,9.498,1.185,13.9,0.567
		c8.565-1.201,11.793-8.897,15.036-15.035c0.641-1.215,1.865-2.754,1.135-3.404C262.43,94.134,259.607,93.188,257.164,93.05z
		 M113.901,93.05c-7.375-0.419-13.403,2.07-16.738,7.659c-2.005,3.362-2.535,7.16-5.106,10.497c5.619-0.542,9.5,1.185,13.901,0.567
		c8.564-1.201,11.794-8.897,15.036-15.035c0.642-1.215,1.866-2.754,1.134-3.404C119.167,94.134,116.345,93.188,113.901,93.05z
		 M401.418,222.694c-2.484-2.911-6.727-5.018-11.631-5.389c-4.285-0.326-7.211,0.889-12.197,0.566
		c3.984,7.517,6.938,16.919,17.021,18.156c4.235,0.52,8.633-0.855,13.616-0.852C405.053,231.314,404.4,226.188,401.418,222.694z
		 M258.156,222.694c-2.486-2.911-6.729-5.018-11.631-5.389c-4.287-0.326-7.211,0.889-12.199,0.566
		c3.986,7.517,6.938,16.919,17.021,18.156c4.236,0.52,8.631-0.855,13.617-0.852C261.791,231.314,261.139,226.188,258.156,222.694z
		 M114.894,222.694c-2.486-2.911-6.728-5.018-11.631-5.389c-4.286-0.326-7.21,0.889-12.198,0.566
		c3.985,7.517,6.938,16.919,17.021,18.156c4.237,0.52,8.631-0.855,13.617-0.852C118.528,231.314,117.875,226.188,114.894,222.694z
		 M473.051,346.95c-2.485-2.911-6.729-5.019-11.633-5.39c-4.285-0.326-7.209,0.889-12.197,0.566
		c3.984,7.516,6.938,16.919,17.021,18.155c4.235,0.521,8.631-0.855,13.617-0.851C476.684,355.57,476.031,350.441,473.051,346.95z
		 M329.787,346.95c-2.486-2.911-6.728-5.019-11.631-5.39c-4.287-0.326-7.211,0.889-12.199,0.566
		c3.986,7.516,6.938,16.919,17.021,18.155c4.236,0.521,8.634-0.855,13.617-0.851C333.422,355.57,332.77,350.441,329.787,346.95z
		 M186.525,346.95c-2.486-2.911-6.728-5.019-11.631-5.39c-4.286-0.326-7.21,0.889-12.199,0.566
		c3.986,7.516,6.938,16.919,17.021,18.155c4.236,0.521,8.631-0.855,13.617-0.851C190.159,355.57,189.507,350.441,186.525,346.95z
		 M473.051,98.44c-2.485-2.912-6.729-5.018-11.633-5.39c-4.285-0.325-7.209,0.889-12.197,0.567
		c3.984,7.516,6.938,16.918,17.021,18.156c4.235,0.52,8.631-0.855,13.617-0.851C476.684,107.059,476.031,101.932,473.051,98.44z
		 M329.787,98.44c-2.486-2.912-6.728-5.018-11.631-5.39c-4.287-0.325-7.211,0.889-12.199,0.567
		c3.986,7.516,6.938,16.918,17.021,18.156c4.236,0.52,8.634-0.855,13.617-0.851C333.422,107.059,332.77,101.932,329.787,98.44z
		 M186.525,98.44c-2.486-2.912-6.728-5.018-11.631-5.39c-4.286-0.325-7.21,0.889-12.199,0.567
		c3.986,7.516,6.938,16.918,17.021,18.156c4.236,0.52,8.631-0.855,13.617-0.851C190.159,107.059,189.507,101.932,186.525,98.44z
		 M349.221,246.241c-0.637,8.8,5.465,12.195,7.943,18.439c1.01-0.426,1.453-1.707,1.984-2.553c1.795-2.858,4.514-5.766,5.674-8.795
		c3.834-10-3.537-17.022-7.375-23.546C354.594,235.196,349.688,239.786,349.221,246.241z M205.958,246.241
		c-0.637,8.8,5.466,12.195,7.943,18.439c1.009-0.426,1.454-1.707,1.985-2.553c1.795-2.858,4.514-5.766,5.674-8.795
		c3.833-10-3.537-17.022-7.375-23.546C211.332,235.196,206.424,239.786,205.958,246.241z M62.695,246.241
		c-0.636,8.8,5.465,12.195,7.943,18.439c1.01-0.426,1.455-1.707,1.986-2.553c1.795-2.858,4.513-5.766,5.674-8.795
		c3.833-10-3.537-17.022-7.376-23.546C68.069,235.196,63.162,239.786,62.695,246.241z M420.852,370.496
		c-0.637,8.8,5.466,12.195,7.943,18.439c1.01-0.427,1.455-1.707,1.986-2.554c1.793-2.858,4.512-5.765,5.674-8.794
		c3.832-10.001-3.539-17.021-7.377-23.546C426.225,359.451,421.318,364.041,420.852,370.496z M277.59,370.496
		c-0.637,8.8,5.465,12.195,7.941,18.439c1.01-0.427,1.455-1.707,1.986-2.554c1.795-2.858,4.514-5.765,5.674-8.794
		c3.832-10.001-3.537-17.021-7.375-23.546C282.963,359.451,278.057,364.041,277.59,370.496z M134.326,370.496
		c-0.637,8.8,5.465,12.195,7.943,18.439c1.009-0.427,1.455-1.707,1.986-2.554c1.794-2.858,4.513-5.765,5.674-8.794
		c3.833-10.001-3.537-17.021-7.376-23.546C139.7,359.451,134.793,364.041,134.326,370.496z M420.852,121.986
		c-0.637,8.8,5.466,12.195,7.943,18.44c1.01-0.427,1.455-1.708,1.986-2.554c1.793-2.857,4.512-5.766,5.674-8.794
		c3.832-10-3.539-17.023-7.377-23.546C426.225,110.94,421.318,115.531,420.852,121.986z M277.59,121.986
		c-0.637,8.8,5.465,12.195,7.941,18.44c1.01-0.427,1.455-1.708,1.986-2.554c1.795-2.857,4.514-5.766,5.674-8.794
		c3.832-10-3.537-17.023-7.375-23.546C282.963,110.94,278.057,115.531,277.59,121.986z M134.326,121.986
		c-0.637,8.8,5.465,12.195,7.943,18.44c1.009-0.427,1.455-1.708,1.986-2.554c1.794-2.857,4.513-5.766,5.674-8.794
		c3.833-10-3.537-17.023-7.376-23.546C139.7,110.94,134.793,115.531,134.326,121.986z"></path>
</g>
</svg>