<svg width="432" height="216" viewBox="0 0 432 216" fill="none" xmlns="http://www.w3.org/2000/svg">

<style type="text/css">
	.A{fill:#005177;}
	.B{fill:#E6BB7B;}
	.C{fill:#F9F7DD;}
	.D{fill:#AC6C41;}
	.E{fill:#B0B461;}
</style>


<g clip-path="url(#clip0_60_2)">
<path d="M214.639 0H0V214.639H214.639V0Z" class="A"/>
<path d="M214.639 180.454H180.539V214.554H193.294V193.124H214.639V180.454Z" class="B"/>
<path d="M37.0771 36.9921H214.639V24.4064H24.4062V214.554H37.0771V36.9921Z" class="B"/>
<path d="M214.639 36.9921H37.0771V214.554H180.539V180.454H214.639V36.9921Z" class="C"/>
<path d="M214.639 193.124H193.294V214.639H214.639V193.124Z" class="A"/>
<path d="M185.386 116.334C185.896 116.844 186.236 117.524 186.236 118.205C186.236 118.375 186.236 118.375 186.236 118.545C186.236 122.372 185.216 126.198 183.09 129.26C182.239 130.62 181.389 132.066 180.454 133.597C180.113 134.107 179.943 134.787 179.943 135.468C179.943 136.828 180.624 138.104 181.814 138.784C183.005 139.465 184.45 139.975 185.811 139.975C187.512 139.975 189.298 139.294 190.658 138.274C192.359 136.743 194.315 135.468 196.186 134.447C197.546 133.767 198.992 133.427 200.523 133.427C200.693 133.427 200.863 133.427 201.033 133.427C201.713 133.427 202.394 133.937 202.734 134.617C202.904 135.128 203.074 135.808 203.074 136.488C203.074 137.679 202.734 138.954 201.884 139.975C199.077 143.461 196.526 146.863 193.72 150.35C193.21 151.03 192.869 151.88 192.869 152.816C192.869 153.156 192.869 153.496 193.039 153.836C193.72 156.472 196.186 158.513 198.907 158.513C199.247 158.513 199.588 158.684 199.758 158.854C200.268 159.364 200.608 160.044 200.948 160.554C203.584 166.082 208.772 169.909 214.81 170.759V117.269C208.261 125.433 198.567 130.28 188.107 130.45C188.277 121.436 192.444 112.932 199.332 107.065C192.444 101.367 188.277 92.863 188.107 83.6788C198.482 84.0189 208.176 88.8662 214.81 96.8599V43.5402C208.772 44.3906 203.584 48.2174 200.948 53.7449C200.608 54.4253 200.268 54.9355 199.758 55.4457C199.588 55.6158 199.247 55.7858 198.907 55.7858C196.101 55.9559 193.72 57.8268 193.039 60.463C192.869 60.8031 192.869 61.1434 192.869 61.4835C192.869 62.3339 193.21 63.1843 193.72 63.9497C196.526 67.4363 199.077 70.8378 201.884 74.3244C202.564 75.3449 203.074 76.5354 203.074 77.811C203.074 78.4913 202.904 79.0016 202.734 79.682C202.564 80.3623 201.884 80.8724 201.033 80.8724C200.863 80.8724 200.693 80.8724 200.523 80.8724C198.992 80.8724 197.546 80.5323 196.186 79.852C194.145 78.8315 192.359 77.641 190.658 76.0252C189.298 74.8347 187.682 74.3244 185.811 74.3244C184.45 74.3244 183.005 74.6646 181.814 75.515C180.624 76.1953 179.943 77.3859 179.943 78.8316C179.943 79.5119 180.113 80.0221 180.454 80.7024C181.134 82.063 181.984 83.6787 183.09 85.0394C185.131 88.1858 186.236 91.9275 186.236 95.7543C186.236 95.9244 186.236 95.9244 186.236 96.0945C186.236 96.7748 185.896 97.4552 185.386 97.9654C185.216 98.1355 184.876 98.3055 184.536 98.3055C184.195 98.3055 183.855 98.1355 183.685 97.9654C181.049 95.3292 178.498 92.948 175.351 90.652C172.715 88.7811 169.484 87.6756 166.167 87.6756C165.487 87.6756 164.806 87.6756 163.956 87.8457C163.956 92.0126 161.49 95.8394 157.918 97.8803C154.772 99.5811 152.221 102.047 150.435 105.024C150.095 105.704 149.924 106.384 149.754 107.065C149.754 107.745 150.095 108.425 150.435 109.106C152.306 112.082 154.772 114.463 157.918 116.249C161.575 118.29 163.956 122.117 163.956 126.283C164.636 126.454 165.317 126.454 166.167 126.454C169.484 126.454 172.715 125.433 175.351 123.477C178.328 121.266 181.049 118.8 183.685 116.164C183.855 115.994 184.195 115.824 184.536 115.824C184.791 115.994 185.216 115.994 185.386 116.334Z" class="D"/>
<path d="M117.609 105.109C116.929 97.9653 115.738 91.0772 113.612 84.3591C111.572 77.0457 105.109 71.8583 97.54 71.3481C93.203 71.0079 88.8661 70.8378 84.5291 70.8378C82.8283 70.8378 81.0424 70.8378 79.5117 70.8378C79.3417 70.8378 79.0015 70.8378 78.8314 70.8378C74.6644 70.8378 70.4976 69.4772 67.011 67.0111C69.4771 70.4977 70.8378 74.4946 70.8378 78.8316C70.8378 79.0016 70.8378 79.3417 70.8378 79.5118C70.8378 81.2126 70.8378 82.9985 70.8378 84.5292C70.8378 88.8662 71.0078 93.2032 71.348 97.5402C72.0283 105.194 77.2156 111.402 84.3589 113.613C91.077 115.654 98.0503 116.929 105.109 117.61C104.938 118.97 104.939 120.586 104.939 121.946C104.939 145.843 122.967 165.912 146.693 168.718C146.693 169.058 146.693 169.398 146.693 169.739C146.693 173.055 144.652 175.776 141.505 176.627C139.975 177.647 138.699 179.093 137.509 180.624C138.019 180.964 138.359 181.304 138.699 181.814C139.379 183.005 139.89 184.45 139.89 185.811C139.89 187.342 139.379 188.957 138.529 190.148C139.379 190.318 140.06 190.318 140.995 190.318C146.523 190.318 151.88 188.107 155.877 183.94C160.044 180.284 165.231 178.413 170.589 178.413C174.075 178.413 177.477 179.263 180.453 180.879C178.923 177.732 177.987 174.331 177.987 171.014C177.987 165.657 180.028 160.299 183.515 156.302C187.682 152.476 189.893 147.118 189.893 141.421C189.893 140.57 189.893 139.89 189.723 138.954C188.532 139.805 186.916 140.315 185.386 140.315C184.025 140.315 182.579 139.975 181.389 139.124C180.879 138.784 180.539 138.444 180.198 137.934C178.668 138.954 177.392 140.4 176.201 141.931C175.351 145.077 172.545 147.118 169.313 147.118C168.973 147.118 168.633 147.118 168.293 147.118C165.487 123.392 145.417 105.364 121.521 105.364C120.586 104.939 119.14 104.939 117.609 105.109Z" class="E"/>
<path d="M116.419 157.748C114.718 154.602 112.252 152.05 109.276 150.265C108.595 149.924 107.915 149.584 107.235 149.584C106.554 149.584 105.874 149.924 105.194 150.265C102.217 152.135 99.8362 154.602 98.0504 157.748C96.0094 161.405 92.1826 163.786 88.0157 163.786C87.8456 164.466 87.8457 165.147 87.8457 165.997C87.8457 169.313 88.8661 172.545 90.822 175.181C93.0331 178.157 95.4992 180.879 98.1354 183.515C98.3055 183.685 98.4756 184.025 98.4756 184.365C98.4756 184.706 98.3055 185.046 98.1354 185.216C97.6252 185.726 96.9448 186.066 96.2645 186.066C96.0944 186.066 96.0945 186.066 95.9244 186.066C92.0976 186.066 88.2708 185.046 85.2094 182.92C83.8487 182.069 82.4031 181.219 80.8724 180.283C80.3621 179.943 79.6819 179.773 79.0015 179.773C77.6409 179.773 76.3653 180.454 75.685 181.644C75.0047 182.835 74.4944 184.28 74.4944 185.641C74.4944 187.342 75.1747 189.128 76.1952 190.488C77.7259 192.189 79.0015 194.145 80.022 196.016C80.7023 197.376 81.0425 198.822 81.0425 200.353C81.0425 200.523 81.0425 200.693 81.0425 200.863C81.0425 201.543 80.5323 202.224 79.8519 202.564C79.3417 202.734 78.6613 202.904 77.981 202.904C76.7905 202.904 75.5149 202.564 74.4944 201.713C71.0078 198.907 67.6063 196.356 64.1197 193.55C63.4393 193.039 62.5889 192.699 61.6535 192.699C61.3133 192.699 60.9732 192.699 60.6331 192.869C57.9968 193.55 55.9559 196.016 55.9559 198.737C55.9559 199.077 55.7858 199.417 55.6157 199.587C55.1055 200.098 54.4252 200.438 53.9149 200.778C48.3874 203.414 44.5606 208.602 43.7102 214.639H97.2C89.0362 208.091 84.189 198.397 84.0189 187.937C93.0331 188.107 101.537 192.274 107.405 199.162C113.102 192.274 121.606 188.107 130.791 187.937C130.45 198.312 125.603 208.006 117.609 214.639H171.099C170.249 208.602 166.422 203.414 160.894 200.778C160.214 200.438 159.704 200.098 159.194 199.587C159.024 199.417 158.854 199.077 158.854 198.737C158.683 195.931 156.813 193.55 154.176 192.869C153.836 192.699 153.496 192.699 153.156 192.699C152.305 192.699 151.455 193.039 150.69 193.55C147.203 196.356 143.802 198.907 140.315 201.713C139.294 202.394 138.104 202.904 136.828 202.904C136.148 202.904 135.638 202.734 134.957 202.564C134.277 202.394 133.767 201.713 133.767 200.863C133.767 200.693 133.767 200.523 133.767 200.353C133.767 198.822 134.107 197.376 134.787 196.016C135.808 194.145 136.998 192.189 138.614 190.488C139.805 189.128 140.315 187.512 140.315 185.641C140.315 184.28 139.975 182.835 139.124 181.644C138.444 180.454 137.253 179.773 135.808 179.773C135.127 179.773 134.617 179.943 133.937 180.283C132.576 181.134 130.961 181.814 129.6 182.92C126.454 184.961 122.712 186.066 118.885 186.066C118.715 186.066 118.715 186.066 118.545 186.066C117.865 186.066 117.184 185.726 116.674 185.216C116.504 185.046 116.334 184.706 116.334 184.365C116.334 184.025 116.504 183.685 116.674 183.515C119.31 180.879 121.691 178.328 123.987 175.181C125.858 172.545 126.964 169.313 126.964 165.997C126.964 165.317 126.964 164.636 126.794 163.786C122.287 163.871 118.46 161.405 116.419 157.748Z" class="D"/>
<path d="M130.621 187.937C121.606 188.107 113.102 192.274 107.235 199.162C101.537 192.274 93.0331 188.107 83.8489 187.937C84.189 198.312 89.0363 208.006 97.03 214.639H117.269C125.433 208.006 130.28 198.312 130.621 187.937Z" class="B"/>
<path d="M214.639 97.115C208.091 88.9513 198.397 84.104 187.937 83.9339C188.107 92.9481 192.274 101.452 199.162 107.32C192.274 113.017 188.107 121.521 187.937 130.706C198.312 130.365 208.006 125.518 214.639 117.524V97.115Z" class="B"/>
<path d="M152.986 50.0032C148.819 49.493 144.822 49.1528 140.655 49.1528C134.447 49.1528 128.154 49.8331 122.117 51.0236C116.589 52.5543 110.891 53.2346 104.939 53.2346C93.5434 53.2346 82.0631 50.2583 72.1985 44.5607C78.4064 56.126 90.5669 63.4394 103.918 63.4394C104.428 63.4394 104.769 63.4394 105.279 63.4394C104.769 64.6299 104.428 65.9055 104.428 67.0961C104.428 71.9433 108.425 75.7701 113.102 75.7701C113.272 75.7701 113.443 75.7701 113.443 75.7701C117.099 75.6 120.756 74.9198 124.158 73.7292C126.369 78.7465 131.471 82.063 136.998 82.063C139.209 82.063 141.506 81.5528 143.547 80.3622C143.547 79.852 143.376 79.3418 143.376 78.8316C143.376 72.9638 148.224 68.1165 154.091 68.1165H154.261C163.956 68.2866 173.14 71.9433 180.113 78.6614C180.284 77.4709 180.964 76.4505 181.814 75.8552C183.005 75.1749 184.45 74.6646 185.811 74.6646C187.512 74.6646 189.298 75.3449 190.658 76.3654C191.169 76.8756 191.679 77.2158 192.189 77.556C185.896 61.4835 170.419 50.3434 152.986 50.0032Z" class="E"/>
<path d="M171.014 158.939C169.143 159.619 167.017 160.129 164.976 160.129C162.935 160.129 160.809 159.789 159.109 158.939C159.789 160.809 160.299 162.935 160.299 164.806C160.299 166.847 159.959 168.973 159.109 170.844C160.98 170.164 163.105 169.654 165.146 169.654C167.187 169.654 169.313 169.994 171.014 170.844C170.334 168.973 169.824 166.847 169.824 164.976C169.739 162.935 170.249 160.895 171.014 158.939Z" class="C"/>
<path d="M119.735 119.65C119.735 119.821 119.735 119.82 119.735 119.991C119.735 137.849 134.277 152.561 152.135 152.561C152.305 152.561 152.305 152.561 152.476 152.561C152.476 152.391 152.476 152.391 152.476 152.22C152.476 134.362 137.934 119.82 120.075 119.82C120.075 119.65 119.905 119.65 119.735 119.65Z" class="C"/>
<path d="M97.54 86.9103C95.329 84.4442 92.0126 83.0835 88.696 83.0835C87.1653 83.0835 85.5496 83.4237 84.0189 83.9339C83.3385 85.2946 83.1685 87.0804 83.1685 88.6111C83.1685 91.9276 84.5291 95.159 86.9952 97.4551C91.6724 101.792 97.8802 104.173 104.343 104.173C104.258 97.7953 101.877 91.7575 97.54 86.9103Z" class="C"/>
<path d="M73.8143 124.157C75.0048 120.671 75.6851 117.014 75.8552 113.443C75.8552 113.272 75.8552 113.102 75.8552 113.102C75.8552 108.255 71.8583 104.428 67.1812 104.428C65.9906 104.428 64.5449 104.769 63.5244 105.279C63.5244 104.769 63.5244 104.428 63.5244 103.918C63.5244 90.7371 56.2111 78.6614 44.6458 72.1985C50.3434 82.2331 53.3197 93.5433 53.3197 104.939C53.3197 110.636 52.6394 116.504 51.1087 122.117C49.9182 128.154 49.2379 134.447 49.2379 140.655C49.2379 144.822 49.5781 148.989 50.0883 152.986C50.4284 170.504 61.3135 185.896 77.8111 192.274C77.4709 191.764 76.9607 191.254 76.6205 190.743C75.43 189.383 74.9197 187.767 74.9197 185.896C74.9197 184.535 75.2599 183.09 76.1103 181.899C76.7906 180.879 77.8111 180.198 78.9167 180.198C72.3686 173.31 68.5418 164.126 68.3718 154.346V154.176C68.3718 148.309 73.219 143.461 79.0867 143.461C79.5969 143.461 80.1072 143.461 80.6174 143.632C81.6379 141.591 82.3182 139.295 82.3182 137.084C82.1482 131.471 78.8316 126.454 73.8143 124.157Z" class="E"/>
<path d="M432 0H216.85V215.15H432V0Z" class="A"/>
<path d="M432 24.4064H216.85V37.0772H432V24.4064Z" class="B"/>
<path d="M432 180.879H216.85V193.55H432V180.879Z" class="B"/>
<path d="M432 37.0771H216.85V181.049H432V37.0771Z" class="C"/>
<path d="M291.345 155.537C292.025 154.006 292.535 152.221 292.535 150.35C292.535 146.523 290.835 143.036 287.858 140.825C286.498 144.822 283.181 147.969 279.014 149.159C277.653 149.499 276.038 149.839 274.677 149.839C271.701 149.839 268.979 148.989 266.343 147.543C260.646 144.057 255.543 139.72 251.376 134.532C251.546 134.873 251.546 135.383 251.546 135.723C251.546 137.083 250.866 138.359 249.676 139.039C248.485 139.72 247.039 140.23 245.679 140.23C245.338 140.23 244.998 140.23 244.658 140.23C246.529 141.761 248.655 143.547 250.526 145.247C254.523 148.734 258.179 152.561 261.666 156.387C263.027 157.918 263.707 160.044 263.707 162.085C263.707 164.721 262.516 167.102 260.561 168.888C259.2 169.909 258.094 171.524 257.584 173.055C257.414 173.395 257.414 173.735 257.414 173.906C257.414 175.096 258.094 176.202 259.285 176.542C260.646 177.052 262.261 177.222 263.792 177.222C264.983 177.222 266.088 177.052 267.109 176.882C268.639 176.542 269.915 175.691 270.765 174.416C271.956 172.885 273.742 171.78 275.783 171.78C276.803 171.78 277.653 171.95 278.589 172.46C279.95 172.63 281.565 172.63 282.926 172.63C285.732 172.63 288.624 172.29 291.43 171.78C295.427 169.143 300.104 167.783 304.951 167.783C310.649 167.783 316.261 169.654 320.598 173.31C317.452 162.51 307.587 155.282 296.447 155.282C294.831 155.027 293.131 155.197 291.345 155.537Z" class="D"/>
<path d="M370.176 50.1732C366.009 49.663 362.013 49.3228 357.846 49.3228C351.553 49.3228 345.345 50.0032 339.307 51.1938C333.779 52.7245 327.997 53.4898 322.129 53.4898C310.649 53.4898 299.169 50.5134 289.304 44.8158C295.597 56.4662 307.672 63.7795 320.939 63.7795C321.449 63.7795 321.789 63.7795 322.299 63.7795C321.789 64.9701 321.449 66.2457 321.449 67.4363C321.449 72.2835 325.446 76.1102 330.123 76.1102C330.293 76.1102 330.463 76.1102 330.463 76.1102C334.12 75.9402 337.776 75.2598 341.263 74.0693C343.559 79.0866 348.576 82.4032 354.104 82.4032C356.4 82.4032 358.611 81.8929 360.737 80.7024C360.737 80.1921 360.567 79.6819 360.567 79.1716C360.567 73.3039 365.414 68.3717 371.367 68.3717H371.537C381.231 68.5418 390.501 72.1984 397.389 79.0016C397.559 77.811 398.239 76.7055 399.09 76.1953C400.28 75.5149 401.726 75.0048 403.087 75.0048C404.787 75.0048 406.573 75.6851 407.934 76.7056C408.444 77.2158 408.954 77.5559 409.465 77.896C403.342 61.5685 387.694 50.5134 370.176 50.1732Z" class="D"/>
<path d="M432 97.3701C425.367 89.2063 415.672 84.3591 405.298 84.189C405.468 93.2032 409.635 101.707 416.608 107.66C409.635 113.357 405.468 121.861 405.298 131.131C415.757 130.791 425.452 125.943 432 117.95V97.3701Z" class="B"/>
<path d="M243.638 84.189C233.178 84.5291 223.484 89.3764 216.936 97.3701V117.695C223.569 125.858 233.263 130.706 243.638 130.876C243.468 121.861 239.301 113.358 232.328 107.405C239.301 101.707 243.298 93.2032 243.638 84.189Z" class="B"/>
<path d="M375.024 98.2205C371.877 99.9213 369.326 102.387 367.54 105.364C367.2 106.044 366.86 106.724 366.86 107.405C366.86 108.085 367.2 108.765 367.54 109.446C369.411 112.422 371.877 114.803 375.024 116.589C378.68 118.63 381.062 122.457 381.062 126.624C381.742 126.794 382.422 126.794 383.358 126.794C386.674 126.794 389.991 125.773 392.542 123.817C395.518 121.521 398.239 119.14 400.876 116.504C401.046 116.334 401.386 116.164 401.726 116.164C402.066 116.164 402.406 116.334 402.576 116.504C403.087 117.014 403.427 117.695 403.427 118.375C403.427 118.545 403.427 118.545 403.427 118.715C403.427 122.542 402.406 126.369 400.28 129.515C399.43 130.876 398.58 132.321 397.644 133.852C397.304 134.362 397.134 135.043 397.134 135.723C397.134 137.083 397.814 138.359 399.005 139.039C400.195 139.72 401.641 140.23 403.002 140.23C404.702 140.23 406.488 139.55 407.849 138.529C409.55 136.998 411.506 135.723 413.376 134.702C414.737 134.022 416.183 133.682 417.713 133.682C417.884 133.682 418.054 133.682 418.224 133.682C418.904 133.682 419.584 134.192 419.924 134.872C420.095 135.383 420.265 136.063 420.265 136.743C420.265 137.934 419.924 139.209 419.074 140.23C416.268 143.717 413.717 147.203 410.91 150.69C410.4 151.37 410.06 152.22 410.06 153.156C410.06 153.496 410.06 153.836 410.23 154.176C410.91 156.813 413.376 158.854 416.098 158.854C416.438 158.854 416.778 159.024 416.948 159.194C417.458 159.704 417.798 160.384 418.139 160.895C420.775 166.422 425.962 170.249 432 171.099V117.439C425.367 125.603 415.673 130.45 405.298 130.62C405.468 121.606 409.635 113.102 416.608 107.15C409.635 101.452 405.468 92.9481 405.298 83.6788C415.758 84.0189 425.452 88.8662 432 96.8599V43.2C425.962 44.0504 420.69 47.8772 418.139 53.4048C417.798 54.0851 417.458 54.5953 416.948 55.1056C416.778 55.2756 416.438 55.4457 416.098 55.4457C413.291 55.6158 410.91 57.4867 410.23 60.1229C410.06 60.4631 410.06 60.8032 410.06 61.1433C410.06 61.9937 410.4 62.8441 410.91 63.6095C413.717 67.0961 416.268 70.5827 419.074 74.0693C419.754 75.0897 420.265 76.3654 420.265 77.556C420.265 78.2363 420.095 78.7465 419.924 79.4268C419.754 80.1071 419.074 80.6174 418.224 80.6174C418.054 80.6174 417.884 80.6174 417.713 80.6174C416.183 80.6174 414.737 80.2771 413.376 79.5968C411.336 78.5764 409.55 77.3008 407.849 75.7701C406.488 74.5795 404.872 74.0693 403.002 74.0693C401.641 74.0693 400.195 74.4095 399.005 75.2598C397.814 75.9402 397.134 77.1307 397.134 78.5764C397.134 79.2567 397.304 79.7669 397.644 80.4472C398.495 81.8079 399.175 83.4237 400.28 84.7843C402.321 87.9308 403.427 91.7575 403.427 95.5843C403.427 95.7544 403.427 95.7544 403.427 95.9245C403.427 96.6048 403.087 97.285 402.576 97.7953C402.406 97.9654 402.066 98.1355 401.726 98.1355C401.386 98.1355 401.046 97.9654 400.876 97.7953C398.239 95.1591 395.688 92.778 392.542 90.4819C389.906 88.611 386.674 87.5055 383.358 87.5055C382.677 87.5055 381.997 87.5055 381.062 87.6756C381.147 92.5228 378.85 96.3496 375.024 98.2205Z" class="E"/>
<path d="M285.137 84.5292C293.471 93.2032 298.148 104.854 298.148 117.014C298.148 124.838 296.277 132.491 292.62 139.21C304.611 140.57 315.751 146.353 323.66 155.367C332.334 164.891 344.494 170.504 357.505 170.504C366.69 170.504 375.704 167.698 383.357 162.34C392.542 155.877 400.535 148.139 407.168 139.039C405.978 139.89 404.532 140.23 403.172 140.23C401.811 140.23 400.365 139.89 399.175 139.039C397.984 138.359 397.304 137.168 397.304 135.723C397.304 135.553 397.304 135.553 397.304 135.383C388.46 143.887 377.32 149.584 365.159 152.05C363.798 152.391 362.183 152.391 360.822 152.391C356.315 152.391 351.978 151.2 348.151 148.734C342.453 145.077 338.117 139.55 335.65 133.087C335.14 131.726 334.8 130.11 334.8 128.58C334.8 127.899 334.8 127.219 334.97 126.539C335.31 124.243 335.48 121.861 335.48 119.565C335.48 117.694 335.31 115.739 335.14 114.038C335.14 113.868 335.14 113.698 335.14 113.528C335.14 112.507 335.48 111.657 336.161 110.891C337.691 109.361 338.627 107.065 338.627 105.024C338.627 104.003 338.457 102.983 338.117 101.877C327.657 101.707 318.132 96.5197 312.605 87.8457C303.42 73.6441 288.283 64.2048 271.446 62.3339C271.786 60.9733 272.126 59.5276 272.126 58.1669C272.126 50.5134 266.088 44.3055 258.605 44.1355C259.625 46.0063 260.306 48.3024 260.306 50.7686C260.306 53.4048 259.625 55.7858 258.265 57.9118C254.268 64.2047 249.761 69.9024 244.573 75.0898C244.913 75.0898 245.254 75.0898 245.594 75.0898C246.954 75.0898 248.4 75.43 249.59 76.2804C250.781 76.9607 251.461 78.1512 251.461 79.5968C251.461 79.7669 251.461 80.1071 251.461 80.2772C255.628 77.641 260.476 76.4504 265.493 76.4504C272.806 76.0252 279.865 79.1717 285.137 84.5292Z" class="D"/>
<path d="M247.975 116.674C250.611 119.31 253.162 121.691 256.309 123.987C258.945 125.858 262.176 126.964 265.493 126.964C266.173 126.964 266.854 126.964 267.789 126.794C267.789 122.627 270.255 118.8 273.827 116.759C276.973 115.058 279.524 112.592 281.31 109.616C281.65 108.935 281.991 108.255 281.991 107.575C281.991 106.894 281.65 106.214 281.31 105.534C279.439 102.557 276.973 100.176 273.827 98.3906C270.17 96.3497 267.789 92.5229 267.789 88.3559C267.109 88.1858 266.428 88.1859 265.493 88.1859C262.176 88.1859 258.86 89.2064 256.309 91.1623C253.332 93.4583 250.611 95.8394 247.975 98.4756C247.805 98.6457 247.465 98.8158 247.124 98.8158C246.784 98.8158 246.444 98.6457 246.274 98.4756C245.764 97.9654 245.424 97.285 245.424 96.6047C245.424 96.4346 245.424 96.4347 245.424 96.2646C245.424 92.4379 246.444 88.611 248.57 85.4646C249.42 84.1039 250.271 82.6583 251.206 81.1276C251.546 80.6173 251.716 79.9371 251.716 79.2568C251.716 77.8961 251.036 76.6205 249.846 75.9402C248.655 75.2599 247.209 74.7496 245.849 74.7496C244.148 74.7496 242.362 75.4299 241.002 76.4504C239.301 77.9811 237.345 79.2567 235.474 80.2772C234.113 80.9575 232.668 81.2976 231.137 81.2976C230.967 81.2976 230.797 81.2976 230.627 81.2976C229.946 81.2976 229.266 80.7875 228.926 80.1071C228.756 79.5969 228.586 78.9165 228.586 78.2362C228.586 77.0457 228.926 75.7701 229.776 74.7496C232.583 71.263 235.134 67.7764 237.94 64.2897C238.45 63.6094 238.791 62.7591 238.791 61.8237C238.791 61.4835 238.791 61.1433 238.621 60.8032C237.94 58.1669 235.474 56.126 232.753 56.126C232.413 56.126 232.072 55.9559 231.902 55.7858C231.392 55.2756 231.052 54.5953 230.712 54.085C228.076 48.5575 222.888 44.7307 216.85 43.8803V97.5402C223.483 89.3764 233.178 84.5292 243.553 84.3591C243.383 93.3733 239.216 101.877 232.243 107.83C239.216 113.528 243.383 122.032 243.553 131.301C233.093 130.961 223.398 126.113 216.85 118.12V171.78C222.888 170.929 228.161 167.102 230.712 161.575C231.052 160.894 231.392 160.384 231.902 159.874C232.072 159.704 232.413 159.534 232.753 159.534C235.559 159.364 237.94 157.493 238.621 154.857C238.791 154.517 238.791 154.176 238.791 153.836C238.791 152.986 238.45 152.135 237.94 151.37C235.134 147.883 232.583 144.397 229.776 140.91C229.096 139.89 228.586 138.614 228.586 137.424C228.586 136.743 228.756 136.233 228.926 135.553C229.096 134.872 229.776 134.362 230.627 134.362C230.797 134.362 230.967 134.362 231.137 134.362C232.668 134.362 234.113 134.702 235.474 135.383C237.345 136.403 239.301 137.679 241.002 139.21C242.362 140.4 243.978 140.91 245.849 140.91C247.209 140.91 248.655 140.57 249.846 139.72C251.036 139.039 251.716 137.849 251.716 136.403C251.716 136.063 251.717 135.553 251.546 135.213C251.546 135.043 251.376 134.873 251.206 134.532C250.526 133.172 249.676 131.556 248.57 130.195C246.444 127.049 245.424 123.222 245.424 119.395C245.424 119.225 245.424 119.225 245.424 119.055C245.424 118.375 245.764 117.695 246.274 117.184C246.444 117.014 246.784 116.844 247.124 116.844C247.465 116.249 247.805 116.249 247.975 116.674Z" class="E"/>
<path d="M324 109.191L307.162 102.898L309.968 130.365L327.657 138.869L324 109.191Z" class="C"/>
</g>

</svg>
