<svg width="500" height="500" viewBox="0 0 500 500" fill="none" xmlns="http://www.w3.org/2000/svg">
<g clip-path="url(#clip0_64_85)">
<path d="M123.402 0H0V123.402H123.402V0Z" fill="#1B5936"/>
<path d="M123.305 109.479H109.479V123.305H123.305V109.479Z" fill="#1B5936"/>
<path d="M101.125 101.077H123.5V92.625H92.625V123.353H101.125V101.077Z" fill="#B0B461"/>
<path d="M22.3747 22.2772H123.5V13.7769H13.9231V123.354H22.3747V22.2772Z" fill="#B0B461"/>
<path d="M123.5 22.2773H22.3745V123.354H92.6249V92.6254H123.5V22.2773Z" fill="#F6F6F6"/>
<path d="M109.479 109.479H123.5V101.076H101.125V123.353H109.479V109.479Z" fill="#F9F7DD"/>
<path d="M123.5 5.42285H5.52026V123.354H13.9229V13.7767H123.5V5.42285Z" fill="#F9F7DD"/>
<path d="M78.3109 70.592C72.302 65.7556 68.3449 58.8674 67.1725 51.1487C67.0747 50.5624 67.0748 49.9761 67.0748 49.3899C67.0748 44.1626 70.5433 39.6194 75.5751 38.2515C75.9659 38.1538 76.4545 38.0561 76.8453 38.0561C79.3857 38.0561 81.584 40.2056 81.584 42.7948C81.584 43.0879 81.5841 43.381 81.4864 43.6741C80.9001 46.8496 78.1155 49.0968 74.9889 49.0968C74.8912 49.0968 74.8912 49.0968 74.7935 49.0968C74.5004 49.8784 74.4027 50.7578 74.4027 51.6372C74.4027 56.2782 78.1643 60.0398 82.8054 60.0398C83.8801 60.0398 85.0526 59.8444 86.0785 59.3559C86.4693 65.2671 91.4035 69.7127 97.217 69.7127C98.0963 69.7127 98.9757 69.615 99.9039 69.4196C93.9927 63.313 90.6218 55.3011 90.6218 46.8496C90.6218 46.7519 90.6218 46.6542 90.6218 46.5565V46.4587C90.6218 38.6423 84.3198 32.438 76.6011 32.438C73.9142 32.438 71.3738 33.1219 69.2242 34.4898C63.8016 37.8606 60.5285 43.7719 60.5285 49.9762C60.5285 50.8555 60.6262 51.7349 60.7239 52.6631C56.6691 51.0998 54.031 47.2404 54.031 42.9902C54.031 39.8148 55.4966 36.7859 57.9881 34.7829C56.8156 34.0013 55.3012 33.5127 53.8356 33.5127C50.0739 33.5127 46.8497 36.3951 46.5566 40.2056C45.3841 38.6423 43.8697 37.3233 42.2087 36.2485C40.8408 35.3692 39.2286 34.8806 37.6653 34.8806C36.8837 34.8806 36.102 34.9783 35.4181 35.1737C35.2227 35.8577 35.125 36.6393 35.125 37.421C35.125 38.9842 35.6135 40.6941 36.4928 41.9643C37.5676 43.6253 38.9355 45.042 40.45 46.3122C36.6883 46.6053 33.7571 49.7808 33.7571 53.5913C33.7571 55.0569 34.2456 56.5713 35.0273 57.7438C36.9814 55.2034 40.0591 53.689 43.2346 53.689C47.5825 53.689 51.4419 56.3759 52.9074 60.2841C52.0281 60.1864 51.2464 60.0887 50.3671 60.0887C43.9673 60.0887 38.1538 63.4595 34.783 68.8822C33.4151 71.1294 32.7312 73.6209 32.7312 76.259C32.7312 84.0754 39.0332 90.2798 46.7519 90.2798C46.8496 90.2798 46.8497 90.2798 46.9474 90.2798C47.0451 90.2798 47.2405 90.2798 47.3382 90.2798C55.8386 90.2798 63.8016 93.5529 69.8105 99.4641C70.0059 98.5847 70.1036 97.7054 70.1036 96.7772C70.1036 90.866 65.4626 86.0296 59.7468 85.6387C60.1377 84.6617 60.4307 83.5869 60.4307 82.3656C60.4307 77.7245 56.6691 73.9629 52.0281 73.9629C51.1487 73.9629 50.2694 74.0606 49.3412 74.3538C49.3412 74.4515 49.3412 74.4514 49.3412 74.5491C49.3412 77.7245 47.0939 80.4603 43.9185 81.0466C43.6254 81.1443 43.3323 81.1442 43.0391 81.1442C40.4988 81.1442 38.3004 79.0925 38.3004 76.4055C38.3004 76.0147 38.3982 75.5262 38.4959 75.1354C39.9614 70.1035 44.5047 66.635 49.6343 66.635C50.2205 66.635 50.8068 66.635 51.2953 66.7327C58.9652 67.8074 65.9023 71.8623 70.7387 77.7735C75.966 84.2709 78.8483 92.185 78.8483 100.539C78.8483 104.594 78.1644 108.648 76.8942 112.264C75.9171 115.048 73.2302 116.905 70.299 116.905C67.0259 116.905 64.1924 114.657 63.5085 111.384C60.7239 111.677 58.5744 113.729 58.2813 116.514C58.2813 116.025 58.3789 115.439 58.3789 114.95C58.3789 112.41 57.8904 109.919 56.8157 107.671C56.034 105.815 54.1287 104.594 52.0769 104.594C51.9792 104.594 51.8815 104.594 51.6861 104.594C51.0022 104.594 50.3182 104.691 49.5366 104.691C44.2116 104.691 39.0821 103.323 34.4411 100.734C34.2456 101.418 34.1479 102.102 34.1479 102.884C34.1479 106.45 36.2974 109.577 39.6683 110.896C40.8407 111.286 42.0132 111.58 43.3322 111.58C44.2116 111.58 44.9933 111.482 45.8726 111.286C46.6543 111.091 47.4359 110.993 48.2175 110.993C50.0739 110.993 51.8815 111.482 53.4448 112.459C53.9333 112.752 54.2265 113.338 54.2265 113.925C54.2265 114.608 53.8356 115.195 53.2494 115.488C52.4677 115.879 51.5884 116.074 50.7091 116.074C50.0251 116.074 49.2435 115.976 48.5595 115.683C47.0939 115.097 45.4818 114.804 43.8208 114.804C41.2804 114.804 38.6912 115.586 36.6394 116.953C34.6853 118.224 33.5617 120.422 33.5617 122.767C33.5617 122.865 33.5617 123.06 33.5617 123.158H78.6529C83.6847 116.269 86.3227 108.062 86.3227 99.5618C86.3227 93.3575 84.8572 87.2509 82.0726 81.7305C87.6906 84.5151 93.6995 85.9807 99.9039 85.9807C108.404 85.9807 116.563 83.2938 123.5 78.3108V33.3174C123.402 33.3174 123.304 33.3174 123.207 33.3174C120.862 33.3174 118.663 34.4898 117.393 36.3951C116.025 38.5446 115.244 41.0361 115.244 43.5765C115.244 45.2375 115.537 46.8496 116.123 48.3152C116.416 48.9991 116.514 49.6831 116.514 50.4647C116.514 51.3441 116.318 52.2234 115.928 53.005C115.634 53.5913 115.048 53.9821 114.364 53.9821C113.778 53.9821 113.192 53.689 112.899 53.2004C111.922 51.6372 111.335 49.8296 111.335 47.9732C111.335 47.1916 111.433 46.4099 111.629 45.6283C111.824 44.8466 111.922 43.9673 111.922 43.1856C111.922 41.9154 111.726 40.743 111.238 39.5217C109.968 36.1508 106.792 34.0013 103.226 34.0013C102.542 34.0013 101.76 34.099 101.076 34.2944C103.763 38.9354 105.131 44.1627 105.131 49.5853C105.131 50.2693 105.131 50.9532 105.033 51.5394C105.033 51.6371 105.033 51.7348 105.033 51.8325C105.033 53.8844 106.206 55.7897 108.111 56.5713C110.358 57.5484 112.85 58.0369 115.293 58.0369C115.879 58.0369 116.367 58.0369 116.954 57.9391C114.267 58.2323 112.117 60.4795 111.922 63.1664C115.195 63.8504 117.442 66.7327 117.442 69.957C117.442 72.937 115.586 75.5751 112.801 76.5521C108.942 77.92 104.887 78.6039 100.881 78.6039C92.7225 78.7016 84.8084 75.8193 78.3109 70.592Z" fill="#842D35"/>
<path d="M377.162 499.806L500.564 499.806L500.564 376.403L377.162 376.403L377.162 499.806Z" fill="#1B5936"/>
<path d="M377.26 390.326L391.085 390.326L391.085 376.501L377.26 376.501L377.26 390.326Z" fill="#1B5936"/>
<path d="M399.439 398.729L377.064 398.729L377.064 407.181L407.939 407.181L407.939 376.452L399.439 376.452L399.439 398.729Z" fill="#B0B461"/>
<path d="M478.19 477.528L377.064 477.528L377.064 486.029L486.641 486.029L486.641 376.452L478.19 376.452L478.19 477.528Z" fill="#B0B461"/>
<path d="M377.065 477.528L478.19 477.528L478.19 376.452L407.94 376.452L407.94 407.18L377.065 407.18L377.065 477.528Z" fill="#F6F6F6"/>
<path d="M391.085 390.327L377.065 390.327L377.065 398.729L399.439 398.729L399.439 376.453L391.085 376.453L391.085 390.327Z" fill="#F9F7DD"/>
<path d="M377.065 494.383L495.044 494.383L495.044 376.452L486.642 376.452L486.642 486.029L377.065 486.029L377.065 494.383Z" fill="#F9F7DD"/>
<path d="M422.254 429.214C428.262 434.05 432.22 440.938 433.392 448.657C433.49 449.243 433.49 449.83 433.49 450.416C433.49 455.643 430.021 460.186 424.989 461.554C424.599 461.652 424.11 461.75 423.719 461.75C421.179 461.75 418.98 459.6 418.98 457.011C418.98 456.718 418.98 456.425 419.078 456.132C419.664 452.956 422.449 450.709 425.576 450.709C425.673 450.709 425.673 450.709 425.771 450.709C426.064 449.927 426.162 449.048 426.162 448.168C426.162 443.527 422.4 439.766 417.759 439.766C416.684 439.766 415.512 439.961 414.486 440.45C414.095 434.539 409.161 430.093 403.348 430.093C402.468 430.093 401.589 430.191 400.661 430.386C406.572 436.493 409.943 444.505 409.943 452.956C409.943 453.054 409.943 453.151 409.943 453.249L409.943 453.347C409.943 461.163 416.245 467.368 423.963 467.368C426.65 467.368 429.191 466.684 431.34 465.316C436.763 461.945 440.036 456.034 440.036 449.829C440.036 448.95 439.938 448.071 439.841 447.143C443.895 448.706 446.533 452.565 446.533 456.815C446.533 459.991 445.068 463.02 442.576 465.023C443.749 465.804 445.263 466.293 446.729 466.293C450.491 466.293 453.715 463.411 454.008 459.6C455.18 461.163 456.695 462.482 458.356 463.557C459.724 464.436 461.336 464.925 462.899 464.925C463.681 464.925 464.462 464.827 465.146 464.632C465.342 463.948 465.439 463.166 465.439 462.385C465.439 460.821 464.951 459.112 464.072 457.841C462.997 456.18 461.629 454.764 460.114 453.493C463.876 453.2 466.807 450.025 466.807 446.214C466.807 444.749 466.319 443.234 465.537 442.062C463.583 444.602 460.505 446.117 457.33 446.117C452.982 446.117 449.123 443.43 447.657 439.522C448.536 439.619 449.318 439.717 450.197 439.717C456.597 439.717 462.411 436.346 465.781 430.923C467.149 428.676 467.833 426.185 467.833 423.547C467.833 415.73 461.531 409.526 453.813 409.526C453.715 409.526 453.715 409.526 453.617 409.526C453.519 409.526 453.324 409.526 453.226 409.526C444.726 409.526 436.763 406.253 430.754 400.342C430.559 401.221 430.461 402.1 430.461 403.029C430.461 408.94 435.102 413.776 440.818 414.167C440.427 415.144 440.134 416.219 440.134 417.44C440.134 422.081 443.895 425.843 448.536 425.843C449.416 425.843 450.295 425.745 451.223 425.452C451.223 425.354 451.223 425.354 451.223 425.257C451.223 422.081 453.471 419.345 456.646 418.759C456.939 418.661 457.232 418.661 457.525 418.661C460.066 418.661 462.264 420.713 462.264 423.4C462.264 423.791 462.166 424.279 462.069 424.67C460.603 429.702 456.06 433.171 450.93 433.171C450.344 433.171 449.758 433.171 449.269 433.073C441.599 431.998 434.662 427.943 429.826 422.032C424.598 415.535 421.716 407.621 421.716 399.267C421.716 395.212 422.4 391.157 423.67 387.542C424.647 384.758 427.334 382.901 430.265 382.901C433.539 382.901 436.372 385.148 437.056 388.421C439.841 388.128 441.99 386.077 442.283 383.292C442.283 383.78 442.186 384.367 442.186 384.855C442.186 387.396 442.674 389.887 443.749 392.134C444.53 393.991 446.436 395.212 448.488 395.212C448.585 395.212 448.683 395.212 448.878 395.212C449.562 395.212 450.246 395.114 451.028 395.114C456.353 395.114 461.482 396.482 466.123 399.071C466.319 398.387 466.417 397.704 466.417 396.922C466.417 393.356 464.267 390.229 460.896 388.91C459.724 388.519 458.551 388.226 457.232 388.226C456.353 388.226 455.571 388.324 454.692 388.519C453.91 388.715 453.129 388.812 452.347 388.812C450.491 388.812 448.683 388.324 447.12 387.347C446.631 387.054 446.338 386.467 446.338 385.881C446.338 385.197 446.729 384.611 447.315 384.318C448.097 383.927 448.976 383.732 449.855 383.732C450.539 383.732 451.321 383.829 452.005 384.122C453.471 384.709 455.083 385.002 456.744 385.002C459.284 385.002 461.873 384.22 463.925 382.852C465.879 381.582 467.003 379.384 467.003 377.039C467.003 376.941 467.003 376.746 467.003 376.648L421.912 376.648C416.88 383.536 414.242 391.743 414.242 400.244C414.242 406.448 415.707 412.555 418.492 418.075C412.874 415.291 406.865 413.825 400.661 413.825C392.16 413.825 384.002 416.512 377.065 421.495L377.065 466.488C377.162 466.488 377.26 466.488 377.358 466.488C379.703 466.488 381.901 465.316 383.171 463.411C384.539 461.261 385.321 458.77 385.321 456.229C385.321 454.568 385.028 452.956 384.441 451.49C384.148 450.807 384.051 450.123 384.051 449.341C384.051 448.462 384.246 447.582 384.637 446.801C384.93 446.214 385.516 445.824 386.2 445.824C386.786 445.824 387.373 446.117 387.666 446.605C388.643 448.169 389.229 449.976 389.229 451.832C389.229 452.614 389.131 453.396 388.936 454.177C388.741 454.959 388.643 455.838 388.643 456.62C388.643 457.89 388.838 459.063 389.327 460.284C390.597 463.655 393.772 465.804 397.339 465.804C398.023 465.804 398.804 465.707 399.488 465.511C396.801 460.87 395.433 455.643 395.433 450.22C395.433 449.536 395.433 448.852 395.531 448.266C395.531 448.169 395.531 448.071 395.531 447.973C395.531 445.921 394.359 444.016 392.453 443.234C390.206 442.257 387.715 441.769 385.272 441.769C384.686 441.769 384.197 441.769 383.611 441.867C386.298 441.573 388.447 439.326 388.643 436.639C385.37 435.955 383.122 433.073 383.122 429.849C383.122 426.869 384.979 424.231 387.763 423.254C391.623 421.886 395.678 421.202 399.684 421.202C407.842 421.104 415.756 423.986 422.254 429.214Z" fill="#842D35"/>
<path d="M377.162 0H500.564V123.402H377.162V0Z" fill="#1B5936"/>
<path d="M377.26 109.479H391.085V123.305H377.26V109.479Z" fill="#1B5936"/>
<path d="M399.439 101.077H377.064V92.625H407.939V123.353H399.439V101.077Z" fill="#B0B461"/>
<path d="M478.19 22.2772H377.064V13.7769H486.641V123.354H478.19V22.2772Z" fill="#B0B461"/>
<path d="M377.065 22.2773H478.19V123.354H407.94V92.6254H377.065V22.2773Z" fill="#F6F6F6"/>
<path d="M391.085 109.479H377.065V101.076H399.439V123.353H391.085V109.479Z" fill="#F9F7DD"/>
<path d="M377.065 5.42285H495.044V123.354H486.642V13.7767H377.065V5.42285Z" fill="#F9F7DD"/>
<path d="M422.254 70.592C428.262 65.7556 432.22 58.8674 433.392 51.1487C433.49 50.5624 433.49 49.9761 433.49 49.3899C433.49 44.1626 430.021 39.6194 424.989 38.2515C424.599 38.1538 424.11 38.0561 423.719 38.0561C421.179 38.0561 418.98 40.2056 418.98 42.7948C418.98 43.0879 418.98 43.381 419.078 43.6741C419.664 46.8496 422.449 49.0968 425.576 49.0968C425.673 49.0968 425.673 49.0968 425.771 49.0968C426.064 49.8784 426.162 50.7578 426.162 51.6372C426.162 56.2782 422.4 60.0398 417.759 60.0398C416.684 60.0398 415.512 59.8444 414.486 59.3559C414.095 65.2671 409.161 69.7127 403.348 69.7127C402.468 69.7127 401.589 69.615 400.661 69.4196C406.572 63.313 409.943 55.3011 409.943 46.8496C409.943 46.7519 409.943 46.6542 409.943 46.5565V46.4587C409.943 38.6423 416.245 32.438 423.963 32.438C426.65 32.438 429.191 33.1219 431.34 34.4898C436.763 37.8606 440.036 43.7719 440.036 49.9762C440.036 50.8555 439.938 51.7349 439.841 52.6631C443.895 51.0998 446.533 47.2404 446.533 42.9902C446.533 39.8148 445.068 36.7859 442.576 34.7829C443.749 34.0013 445.263 33.5127 446.729 33.5127C450.491 33.5127 453.715 36.3951 454.008 40.2056C455.18 38.6423 456.695 37.3233 458.356 36.2485C459.724 35.3692 461.336 34.8806 462.899 34.8806C463.681 34.8806 464.462 34.9783 465.146 35.1737C465.342 35.8577 465.439 36.6393 465.439 37.421C465.439 38.9842 464.951 40.6941 464.072 41.9643C462.997 43.6253 461.629 45.042 460.114 46.3122C463.876 46.6053 466.807 49.7808 466.807 53.5913C466.807 55.0569 466.319 56.5713 465.537 57.7438C463.583 55.2034 460.505 53.689 457.33 53.689C452.982 53.689 449.123 56.3759 447.657 60.2841C448.536 60.1864 449.318 60.0887 450.197 60.0887C456.597 60.0887 462.411 63.4595 465.781 68.8822C467.149 71.1294 467.833 73.6209 467.833 76.259C467.833 84.0754 461.531 90.2798 453.813 90.2798C453.715 90.2798 453.715 90.2798 453.617 90.2798C453.519 90.2798 453.324 90.2798 453.226 90.2798C444.726 90.2798 436.763 93.5529 430.754 99.4641C430.559 98.5847 430.461 97.7054 430.461 96.7772C430.461 90.866 435.102 86.0296 440.818 85.6387C440.427 84.6617 440.134 83.5869 440.134 82.3656C440.134 77.7245 443.895 73.9629 448.536 73.9629C449.416 73.9629 450.295 74.0606 451.223 74.3538C451.223 74.4515 451.223 74.4514 451.223 74.5491C451.223 77.7245 453.471 80.4603 456.646 81.0466C456.939 81.1443 457.232 81.1442 457.525 81.1442C460.066 81.1442 462.264 79.0925 462.264 76.4055C462.264 76.0147 462.166 75.5262 462.069 75.1354C460.603 70.1035 456.06 66.635 450.93 66.635C450.344 66.635 449.758 66.635 449.269 66.7327C441.599 67.8074 434.662 71.8623 429.826 77.7735C424.598 84.2709 421.716 92.185 421.716 100.539C421.716 104.594 422.4 108.648 423.67 112.264C424.647 115.048 427.334 116.905 430.265 116.905C433.539 116.905 436.372 114.657 437.056 111.384C439.841 111.677 441.99 113.729 442.283 116.514C442.283 116.025 442.186 115.439 442.186 114.95C442.186 112.41 442.674 109.919 443.749 107.671C444.53 105.815 446.436 104.594 448.488 104.594C448.585 104.594 448.683 104.594 448.878 104.594C449.562 104.594 450.246 104.691 451.028 104.691C456.353 104.691 461.482 103.323 466.123 100.734C466.319 101.418 466.417 102.102 466.417 102.884C466.417 106.45 464.267 109.577 460.896 110.896C459.724 111.286 458.551 111.58 457.232 111.58C456.353 111.58 455.571 111.482 454.692 111.286C453.91 111.091 453.129 110.993 452.347 110.993C450.491 110.993 448.683 111.482 447.12 112.459C446.631 112.752 446.338 113.338 446.338 113.925C446.338 114.608 446.729 115.195 447.315 115.488C448.097 115.879 448.976 116.074 449.855 116.074C450.539 116.074 451.321 115.976 452.005 115.683C453.471 115.097 455.083 114.804 456.744 114.804C459.284 114.804 461.873 115.586 463.925 116.953C465.879 118.224 467.003 120.422 467.003 122.767C467.003 122.865 467.003 123.06 467.003 123.158H421.912C416.88 116.269 414.242 108.062 414.242 99.5618C414.242 93.3575 415.707 87.2509 418.492 81.7305C412.874 84.5151 406.865 85.9807 400.661 85.9807C392.16 85.9807 384.002 83.2938 377.065 78.3108V33.3174C377.162 33.3174 377.26 33.3174 377.358 33.3174C379.703 33.3174 381.901 34.4898 383.171 36.3951C384.539 38.5446 385.321 41.0361 385.321 43.5765C385.321 45.2375 385.028 46.8496 384.441 48.3152C384.148 48.9991 384.051 49.6831 384.051 50.4647C384.051 51.3441 384.246 52.2234 384.637 53.005C384.93 53.5913 385.516 53.9821 386.2 53.9821C386.786 53.9821 387.373 53.689 387.666 53.2004C388.643 51.6372 389.229 49.8296 389.229 47.9732C389.229 47.1916 389.131 46.4099 388.936 45.6283C388.741 44.8466 388.643 43.9673 388.643 43.1856C388.643 41.9154 388.838 40.743 389.327 39.5217C390.597 36.1508 393.772 34.0013 397.339 34.0013C398.023 34.0013 398.804 34.099 399.488 34.2944C396.801 38.9354 395.433 44.1627 395.433 49.5853C395.433 50.2693 395.433 50.9532 395.531 51.5394C395.531 51.6371 395.531 51.7348 395.531 51.8325C395.531 53.8844 394.359 55.7897 392.453 56.5713C390.206 57.5484 387.715 58.0369 385.272 58.0369C384.686 58.0369 384.197 58.0369 383.611 57.9391C386.298 58.2323 388.447 60.4795 388.643 63.1664C385.37 63.8504 383.122 66.7327 383.122 69.957C383.122 72.937 384.979 75.5751 387.763 76.5521C391.623 77.92 395.678 78.6039 399.684 78.6039C407.842 78.7016 415.756 75.8193 422.254 70.592Z" fill="#842D35"/>
<path d="M123.402 499.806L0 499.806L1.07882e-05 376.403L123.402 376.403L123.402 499.806Z" fill="#1B5936"/>
<path d="M123.305 390.326L109.479 390.326L109.479 376.501L123.305 376.501L123.305 390.326Z" fill="#1B5936"/>
<path d="M101.125 398.729L123.5 398.729L123.5 407.181L92.625 407.181L92.625 376.452L101.125 376.452L101.125 398.729Z" fill="#B0B461"/>
<path d="M22.3747 477.528L123.5 477.528L123.5 486.029L13.9231 486.029L13.9231 376.452L22.3747 376.452L22.3747 477.528Z" fill="#B0B461"/>
<path d="M123.5 477.528L22.3745 477.528L22.3745 376.452L92.6249 376.452L92.6249 407.18L123.5 407.18L123.5 477.528Z" fill="#F6F6F6"/>
<path d="M109.479 390.327L123.5 390.327L123.5 398.729L101.125 398.729L101.125 376.453L109.479 376.453L109.479 390.327Z" fill="#F9F7DD"/>
<path d="M123.5 494.383L5.52026 494.383L5.52027 376.452L13.9229 376.452L13.9229 486.029L123.5 486.029L123.5 494.383Z" fill="#F9F7DD"/>
<path d="M78.3109 429.214C72.302 434.05 68.3449 440.938 67.1725 448.657C67.0747 449.243 67.0748 449.83 67.0748 450.416C67.0748 455.643 70.5433 460.186 75.5751 461.554C75.9659 461.652 76.4545 461.75 76.8453 461.75C79.3857 461.75 81.584 459.6 81.584 457.011C81.584 456.718 81.5841 456.425 81.4864 456.132C80.9001 452.956 78.1155 450.709 74.9889 450.709C74.8912 450.709 74.8912 450.709 74.7935 450.709C74.5004 449.927 74.4027 449.048 74.4027 448.168C74.4027 443.527 78.1643 439.766 82.8054 439.766C83.8801 439.766 85.0526 439.961 86.0785 440.45C86.4693 434.539 91.4035 430.093 97.217 430.093C98.0963 430.093 98.9757 430.191 99.9039 430.386C93.9927 436.493 90.6218 444.505 90.6218 452.956C90.6218 453.054 90.6218 453.151 90.6218 453.249L90.6218 453.347C90.6218 461.163 84.3198 467.368 76.6011 467.368C73.9142 467.368 71.3738 466.684 69.2242 465.316C63.8016 461.945 60.5285 456.034 60.5285 449.829C60.5285 448.95 60.6262 448.071 60.7239 447.143C56.6691 448.706 54.031 452.565 54.031 456.815C54.031 459.991 55.4966 463.02 57.9881 465.023C56.8156 465.804 55.3012 466.293 53.8356 466.293C50.0739 466.293 46.8497 463.411 46.5566 459.6C45.3841 461.163 43.8697 462.482 42.2087 463.557C40.8408 464.436 39.2286 464.925 37.6653 464.925C36.8837 464.925 36.102 464.827 35.4181 464.632C35.2227 463.948 35.125 463.166 35.125 462.385C35.125 460.821 35.6135 459.112 36.4928 457.841C37.5676 456.18 38.9355 454.764 40.45 453.493C36.6883 453.2 33.7571 450.025 33.7571 446.214C33.7571 444.749 34.2456 443.234 35.0273 442.062C36.9814 444.602 40.0591 446.117 43.2346 446.117C47.5825 446.117 51.4419 443.43 52.9075 439.522C52.0281 439.619 51.2464 439.717 50.3671 439.717C43.9673 439.717 38.1538 436.346 34.783 430.923C33.4151 428.676 32.7312 426.185 32.7312 423.547C32.7312 415.73 39.0332 409.526 46.7519 409.526C46.8497 409.526 46.8497 409.526 46.9474 409.526C47.0451 409.526 47.2405 409.526 47.3382 409.526C55.8386 409.526 63.8016 406.253 69.8105 400.342C70.0059 401.221 70.1036 402.1 70.1036 403.029C70.1036 408.94 65.4626 413.776 59.7469 414.167C60.1377 415.144 60.4307 416.219 60.4307 417.44C60.4307 422.081 56.6691 425.843 52.0281 425.843C51.1487 425.843 50.2694 425.745 49.3412 425.452C49.3412 425.354 49.3412 425.354 49.3412 425.257C49.3412 422.081 47.094 419.345 43.9185 418.759C43.6254 418.661 43.3323 418.661 43.0391 418.661C40.4988 418.661 38.3004 420.713 38.3004 423.4C38.3004 423.791 38.3982 424.279 38.4959 424.67C39.9614 429.702 44.5047 433.171 49.6343 433.171C50.2205 433.171 50.8068 433.171 51.2953 433.073C58.9652 431.998 65.9023 427.943 70.7387 422.032C75.966 415.535 78.8483 407.621 78.8483 399.267C78.8483 395.212 78.1644 391.157 76.8942 387.542C75.9171 384.758 73.2302 382.901 70.2991 382.901C67.0259 382.901 64.1924 385.148 63.5085 388.421C60.7239 388.128 58.5744 386.077 58.2813 383.292C58.2813 383.78 58.3789 384.367 58.3789 384.855C58.3789 387.396 57.8904 389.887 56.8157 392.134C56.034 393.991 54.1287 395.212 52.0769 395.212C51.9792 395.212 51.8815 395.212 51.6861 395.212C51.0022 395.212 50.3182 395.114 49.5366 395.114C44.2116 395.114 39.0821 396.482 34.4411 399.071C34.2456 398.387 34.148 397.704 34.148 396.922C34.148 393.356 36.2974 390.229 39.6683 388.91C40.8408 388.519 42.0132 388.226 43.3323 388.226C44.2116 388.226 44.9933 388.324 45.8726 388.519C46.6543 388.715 47.4359 388.812 48.2175 388.812C50.0739 388.812 51.8815 388.324 53.4448 387.347C53.9334 387.054 54.2265 386.467 54.2265 385.881C54.2265 385.197 53.8356 384.611 53.2494 384.318C52.4678 383.927 51.5884 383.732 50.7091 383.732C50.0251 383.732 49.2435 383.829 48.5595 384.122C47.094 384.709 45.4818 385.002 43.8208 385.002C41.2804 385.002 38.6913 384.22 36.6394 382.852C34.6853 381.582 33.5617 379.384 33.5617 377.039C33.5617 376.941 33.5617 376.746 33.5617 376.648L78.6529 376.648C83.6847 383.536 86.3227 391.743 86.3227 400.244C86.3227 406.448 84.8572 412.555 82.0726 418.075C87.6907 415.291 93.6996 413.825 99.9039 413.825C108.404 413.825 116.563 416.512 123.5 421.495L123.5 466.488C123.402 466.488 123.304 466.488 123.207 466.488C120.862 466.488 118.663 465.316 117.393 463.411C116.025 461.261 115.244 458.77 115.244 456.229C115.244 454.568 115.537 452.956 116.123 451.491C116.416 450.807 116.514 450.123 116.514 449.341C116.514 448.462 116.318 447.582 115.928 446.801C115.634 446.214 115.048 445.824 114.364 445.824C113.778 445.824 113.192 446.117 112.899 446.605C111.922 448.169 111.335 449.976 111.335 451.832C111.335 452.614 111.433 453.396 111.629 454.177C111.824 454.959 111.922 455.838 111.922 456.62C111.922 457.89 111.726 459.063 111.238 460.284C109.968 463.655 106.792 465.804 103.226 465.804C102.542 465.804 101.76 465.707 101.076 465.511C103.763 460.87 105.131 455.643 105.131 450.22C105.131 449.536 105.131 448.852 105.033 448.266C105.033 448.169 105.033 448.071 105.033 447.973C105.033 445.921 106.206 444.016 108.111 443.234C110.358 442.257 112.85 441.769 115.293 441.769C115.879 441.769 116.367 441.769 116.954 441.867C114.267 441.573 112.117 439.326 111.922 436.639C115.195 435.955 117.442 433.073 117.442 429.849C117.442 426.869 115.586 424.231 112.801 423.254C108.942 421.886 104.887 421.202 100.881 421.202C92.7225 421.104 84.8084 423.986 78.3109 429.214Z" fill="#842D35"/>
<path d="M249 0H125.936V123.064H249V0Z" fill="#1B5936"/>
<path d="M249 109.17H125.936V122.967H249V109.17Z" fill="#1B5936"/>
<path d="M249 92.3706H125.936V100.843H249V92.3706Z" fill="#B0B461"/>
<path d="M249 13.749H125.936V22.2212H249V13.749Z" fill="#B0B461"/>
<path d="M249 22.2217H125.936V92.2744H249V22.2217Z" fill="#F6F6F6"/>
<path d="M249 100.843H125.936V109.315H249V100.843Z" fill="#F9F7DD"/>
<path d="M249 5.37402H125.936V13.8462H249V5.37402Z" fill="#F9F7DD"/>
<path d="M137.216 63.1298C136.925 60.3703 134.844 58.1917 132.181 57.9012C132.665 57.9012 133.246 57.9981 133.875 57.9981C136.344 57.9981 138.813 57.514 141.04 56.5457C142.928 55.7711 144.09 53.883 144.09 51.8013C144.09 51.7045 144.09 51.6077 144.09 51.5108C144.09 50.8331 143.994 50.1553 143.994 49.5259C143.994 44.1038 145.349 39.0205 148.012 34.276C147.334 34.0824 146.559 33.9856 145.833 33.9856C142.299 33.9856 139.152 36.1641 137.845 39.5045C137.458 40.6664 137.167 41.8767 137.167 43.1355C137.167 43.9101 137.264 44.8299 137.458 45.6045C137.651 46.3791 137.748 47.2021 137.748 47.9767C137.748 49.8648 137.264 51.6077 136.151 53.2053C135.86 53.6894 135.279 53.9799 134.698 53.9799C134.021 53.9799 133.44 53.5926 133.101 53.0116C132.713 52.237 132.52 51.3172 132.52 50.4458C132.52 49.768 132.617 48.9934 132.907 48.2672C133.488 46.8149 133.779 45.1204 133.779 43.5228C133.779 40.9569 133.004 38.4879 131.6 36.3577C130.341 34.3728 128.163 33.3078 125.79 33.3078C125.694 33.3078 125.597 33.3078 125.5 33.3078V78.2829C132.181 83.1241 140.169 85.6416 148.447 85.6416C159.873 85.6416 170.862 80.6067 178.27 71.844C178.85 76.4916 180.642 80.8003 183.401 84.5281C184.273 85.4963 185.483 86.1257 186.742 86.1257C186.838 86.1257 186.935 86.1257 187.032 86.1257C187.129 86.1257 187.226 86.1257 187.323 86.1257C188.581 86.1257 189.888 85.5447 190.663 84.5281C193.423 80.8003 195.165 76.3464 195.795 71.844C203.25 80.6067 214.191 85.6416 225.617 85.6416C233.895 85.6416 241.835 83.0757 248.564 78.2829V33.3078C248.467 33.3078 248.371 33.3078 248.274 33.3078C245.902 33.3078 243.771 34.4697 242.464 36.3577C241.109 38.5363 240.286 41.0053 240.286 43.5228C240.286 45.2172 240.576 46.7664 241.157 48.2672C241.448 48.945 241.544 49.6228 241.544 50.4458C241.544 51.3172 241.351 52.237 240.964 53.0116C240.673 53.5926 240.092 53.9799 239.366 53.9799C238.785 53.9799 238.204 53.6894 237.914 53.2053C236.945 51.6077 236.316 49.8648 236.316 47.9767C236.316 47.2021 236.413 46.3791 236.606 45.6045C236.8 44.8299 236.897 43.9101 236.897 43.1355C236.897 41.8767 236.703 40.6664 236.219 39.5045C234.96 36.1641 231.814 33.9856 228.231 33.9856C227.553 33.9856 226.779 34.0824 226.053 34.276C228.715 38.9236 230.071 44.1038 230.071 49.5259C230.071 50.2037 230.071 50.8815 229.974 51.5108C229.974 51.6077 229.974 51.7045 229.974 51.8013C229.974 53.883 231.136 55.7227 233.024 56.5457C235.299 57.514 237.768 57.9981 240.189 57.9981C240.77 57.9981 241.254 57.9981 241.883 57.9012C239.221 58.1917 237.042 60.4671 236.848 63.1298C240.092 63.8076 242.367 66.6639 242.367 69.9075C242.367 72.8607 240.479 75.5234 237.72 76.4916C233.895 77.8472 229.829 78.5734 225.81 78.5734C217.532 78.5734 209.689 75.717 203.202 70.5853C197.199 65.7441 193.277 58.8695 192.067 51.2204C191.97 50.6394 191.97 50.0584 191.97 49.4291C191.97 44.2005 195.407 39.6982 200.442 38.2942C200.83 38.1974 201.314 38.1006 201.701 38.1006C204.267 38.1006 206.445 40.1823 206.445 42.845C206.445 43.1355 206.446 43.426 206.349 43.7165C205.768 46.8633 203.008 49.1386 199.861 49.1386C199.765 49.1386 199.765 49.1386 199.668 49.1386C199.377 49.9132 199.28 50.8331 199.28 51.7045C199.28 56.3521 203.008 60.0798 207.656 60.0798C208.721 60.0798 209.931 59.8862 210.899 59.4021C211.287 65.3084 216.225 69.7139 222.034 69.7139C222.906 69.7139 223.826 69.6171 224.697 69.4234C218.791 63.3235 215.45 55.3354 215.45 46.9117C215.45 46.8148 215.45 46.718 215.45 46.6212V46.5243C215.45 38.7299 209.157 32.5332 201.459 32.5332C198.796 32.5332 196.23 33.2109 194.1 34.6149C190.76 36.6966 188.097 39.8434 186.645 43.5712C185.192 39.8434 182.627 36.6966 179.189 34.6149C176.914 33.2594 174.348 32.5332 171.831 32.5332C164.036 32.5332 157.839 38.8268 157.839 46.5243V46.6212C157.839 46.718 157.839 46.8148 157.839 46.9117C157.839 55.3838 154.499 63.4203 148.593 69.4234C149.464 69.6171 150.384 69.7139 151.255 69.7139C157.162 69.7139 162.003 65.2116 162.39 59.4021C163.358 59.7894 164.569 60.0798 165.634 60.0798C170.281 60.0798 174.009 56.3521 174.009 51.7045C174.009 50.8331 173.912 49.9132 173.622 49.1386C173.525 49.1386 173.525 49.1386 173.428 49.1386C170.281 49.1386 167.522 46.8633 166.941 43.7165C166.844 43.426 166.844 43.1355 166.844 42.845C166.844 40.2791 168.926 38.1006 171.589 38.1006C172.073 38.1006 172.46 38.1974 172.847 38.2942C177.882 39.7466 181.319 44.2974 181.319 49.4291C181.319 50.01 181.319 50.591 181.223 51.2204C180.061 58.9179 176.091 65.6957 170.088 70.5853C163.697 75.8139 155.709 78.5734 147.479 78.5734C143.461 78.5734 139.297 77.8956 135.57 76.4916C132.81 75.5234 130.922 72.8607 130.922 69.9075C131.697 66.5671 134.069 63.8076 137.216 63.1298Z" fill="#842D35"/>
<path d="M251 500.064L374.064 500.064L374.064 377L251 377L251 500.064Z" fill="#1B5936"/>
<path d="M251 390.895L374.064 390.895L374.064 377.097L251 377.097L251 390.895Z" fill="#1B5936"/>
<path d="M251 407.694L374.064 407.694L374.064 399.222L251 399.222L251 407.694Z" fill="#B0B461"/>
<path d="M251 486.315L374.064 486.315L374.064 477.843L251 477.843L251 486.315Z" fill="#B0B461"/>
<path d="M251 477.843L374.064 477.843L374.064 407.79L251 407.79L251 477.843Z" fill="#F6F6F6"/>
<path d="M251 399.221L374.064 399.221L374.064 390.749L251 390.749L251 399.221Z" fill="#F9F7DD"/>
<path d="M251 494.69L374.064 494.69L374.064 486.218L251 486.218L251 494.69Z" fill="#F9F7DD"/>
<path d="M362.784 436.935C363.075 439.694 365.156 441.873 367.819 442.163C367.335 442.163 366.754 442.066 366.125 442.066C363.656 442.066 361.187 442.55 358.96 443.519C357.072 444.293 355.91 446.181 355.91 448.263C355.91 448.36 355.91 448.457 355.91 448.554C355.91 449.231 356.006 449.909 356.006 450.539C356.006 455.961 354.651 461.044 351.988 465.788C352.666 465.982 353.441 466.079 354.167 466.079C357.701 466.079 360.848 463.9 362.155 460.56C362.542 459.398 362.833 458.188 362.833 456.929C362.833 456.154 362.736 455.235 362.542 454.46C362.349 453.685 362.252 452.862 362.252 452.088C362.252 450.2 362.736 448.457 363.849 446.859C364.14 446.375 364.721 446.085 365.302 446.085C365.979 446.085 366.56 446.472 366.899 447.053C367.287 447.827 367.48 448.747 367.48 449.619C367.48 450.296 367.383 451.071 367.093 451.797C366.512 453.25 366.221 454.944 366.221 456.542C366.221 459.108 366.996 461.577 368.4 463.707C369.659 465.692 371.837 466.757 374.21 466.757C374.306 466.757 374.403 466.757 374.5 466.757L374.5 421.782C367.819 416.94 359.831 414.423 351.553 414.423C340.127 414.423 329.138 419.458 321.73 428.22C321.15 423.573 319.358 419.264 316.599 415.536C315.727 414.568 314.517 413.939 313.258 413.939C313.162 413.939 313.065 413.939 312.968 413.939C312.871 413.939 312.774 413.939 312.677 413.939C311.419 413.939 310.112 414.52 309.337 415.536C306.577 419.264 304.835 423.718 304.205 428.22C296.75 419.458 285.809 414.423 274.383 414.423C266.105 414.423 258.165 416.989 251.436 421.782L251.436 466.757C251.533 466.757 251.629 466.757 251.726 466.757C254.098 466.757 256.229 465.595 257.536 463.707C258.891 461.528 259.714 459.059 259.714 456.542C259.714 454.847 259.424 453.298 258.843 451.797C258.552 451.119 258.456 450.442 258.456 449.619C258.456 448.747 258.649 447.827 259.036 447.053C259.327 446.472 259.908 446.085 260.634 446.085C261.215 446.085 261.796 446.375 262.086 446.859C263.055 448.457 263.684 450.2 263.684 452.088C263.684 452.862 263.587 453.685 263.394 454.46C263.2 455.234 263.103 456.154 263.103 456.929C263.103 458.188 263.297 459.398 263.781 460.56C265.04 463.9 268.186 466.079 271.769 466.079C272.447 466.079 273.221 465.982 273.947 465.788C271.285 461.141 269.929 455.961 269.929 450.539C269.929 449.861 269.929 449.183 270.026 448.554C270.026 448.457 270.026 448.36 270.026 448.263C270.026 446.181 268.864 444.342 266.976 443.519C264.701 442.55 262.232 442.066 259.811 442.066C259.23 442.066 258.746 442.066 258.117 442.163C260.779 441.873 262.958 439.597 263.152 436.935C259.908 436.257 257.633 433.401 257.633 430.157C257.633 427.204 259.521 424.541 262.28 423.573C266.105 422.217 270.171 421.491 274.19 421.491C282.468 421.491 290.311 424.347 296.798 429.479C302.801 434.32 306.723 441.195 307.933 448.844C308.03 449.425 308.03 450.006 308.03 450.635C308.03 455.864 304.593 460.366 299.558 461.77C299.17 461.867 298.686 461.964 298.299 461.964C295.733 461.964 293.555 459.882 293.555 457.219C293.555 456.929 293.554 456.638 293.651 456.348C294.232 453.201 296.992 450.926 300.139 450.926C300.235 450.926 300.235 450.926 300.332 450.926C300.623 450.151 300.72 449.231 300.72 448.36C300.72 443.712 296.992 439.985 292.344 439.985C291.279 439.985 290.069 440.178 289.101 440.662C288.713 434.756 283.775 430.351 277.966 430.351C277.094 430.351 276.174 430.447 275.303 430.641C281.209 436.741 284.55 444.729 284.55 453.153C284.55 453.25 284.55 453.346 284.55 453.443L284.55 453.54C284.55 461.335 290.843 467.531 298.541 467.531C301.204 467.531 303.77 466.854 305.9 465.45C309.24 463.368 311.903 460.221 313.355 456.493C314.808 460.221 317.373 463.368 320.811 465.45C323.086 466.805 325.652 467.531 328.169 467.531C335.964 467.531 342.161 461.238 342.161 453.54L342.161 453.443C342.161 453.346 342.161 453.25 342.161 453.153C342.161 444.681 345.501 436.644 351.407 430.641C350.536 430.447 349.616 430.351 348.745 430.351C342.838 430.351 337.997 434.853 337.61 440.662C336.642 440.275 335.431 439.985 334.366 439.985C329.719 439.985 325.991 443.712 325.991 448.36C325.991 449.231 326.088 450.151 326.378 450.926C326.475 450.926 326.475 450.926 326.572 450.926C329.719 450.926 332.478 453.201 333.059 456.348C333.156 456.638 333.156 456.929 333.156 457.219C333.156 459.785 331.074 461.964 328.411 461.964C327.927 461.964 327.54 461.867 327.153 461.77C322.118 460.318 318.681 455.767 318.681 450.635C318.681 450.054 318.681 449.473 318.777 448.844C319.939 441.147 323.909 434.369 329.912 429.479C336.303 424.251 344.291 421.491 352.521 421.491C356.539 421.491 360.703 422.169 364.43 423.573C367.19 424.541 369.078 427.204 369.078 430.157C368.303 433.497 365.931 436.257 362.784 436.935Z" fill="#842D35"/>
<path d="M500.064 248.903L500.064 125.838L377 125.838L377 248.903L500.064 248.903Z" fill="#1B5936"/>
<path d="M390.895 248.903L390.895 125.838L377.097 125.838L377.097 248.903L390.895 248.903Z" fill="#1B5936"/>
<path d="M407.694 248.903L407.694 125.838L399.221 125.838L399.221 248.903L407.694 248.903Z" fill="#B0B461"/>
<path d="M486.315 248.903L486.315 125.838L477.843 125.838L477.843 248.903L486.315 248.903Z" fill="#B0B461"/>
<path d="M477.843 248.903L477.843 125.838L407.791 125.838L407.791 248.903L477.843 248.903Z" fill="#F6F6F6"/>
<path d="M399.222 248.903L399.222 125.838L390.75 125.838L390.749 248.903L399.222 248.903Z" fill="#F9F7DD"/>
<path d="M494.691 248.903L494.691 125.838L486.219 125.838L486.218 248.903L494.691 248.903Z" fill="#F9F7DD"/>
<path d="M436.935 137.118C439.694 136.828 441.873 134.746 442.163 132.083C442.163 132.567 442.067 133.148 442.067 133.778C442.067 136.247 442.551 138.716 443.519 140.943C444.294 142.831 446.182 143.993 448.263 143.993C448.36 143.993 448.457 143.993 448.554 143.993C449.232 143.993 449.909 143.896 450.539 143.896C455.961 143.896 461.044 145.251 465.789 147.914C465.982 147.236 466.079 146.462 466.079 145.736C466.079 142.201 463.901 139.055 460.56 137.748C459.398 137.36 458.188 137.07 456.929 137.07C456.155 137.07 455.235 137.167 454.46 137.36C453.686 137.554 452.863 137.651 452.088 137.651C450.2 137.651 448.457 137.167 446.859 136.053C446.375 135.763 446.085 135.182 446.085 134.601C446.085 133.923 446.472 133.342 447.053 133.003C447.828 132.616 448.747 132.422 449.619 132.422C450.297 132.422 451.071 132.519 451.797 132.809C453.25 133.39 454.944 133.681 456.542 133.681C459.108 133.681 461.577 132.906 463.707 131.502C465.692 130.244 466.757 128.065 466.757 125.693C466.757 125.596 466.757 125.499 466.757 125.402L421.782 125.402C416.941 132.083 414.423 140.071 414.423 148.35C414.423 159.775 419.458 170.765 428.221 178.172C423.573 178.753 419.264 180.544 415.537 183.304C414.568 184.175 413.939 185.385 413.939 186.644C413.939 186.741 413.939 186.838 413.939 186.934C413.939 187.031 413.939 187.128 413.939 187.225C413.939 188.484 414.52 189.791 415.537 190.565C419.264 193.325 423.718 195.068 428.221 195.697C419.458 203.153 414.423 214.094 414.423 225.519C414.423 233.798 416.989 241.737 421.782 248.467L466.757 248.467C466.757 248.37 466.757 248.273 466.757 248.176C466.757 245.804 465.595 243.674 463.707 242.367C461.528 241.011 459.059 240.188 456.542 240.188C454.847 240.188 453.298 240.479 451.797 241.059C451.12 241.35 450.442 241.447 449.619 241.447C448.747 241.447 447.828 241.253 447.053 240.866C446.472 240.575 446.085 239.994 446.085 239.268C446.085 238.687 446.375 238.106 446.859 237.816C448.457 236.848 450.2 236.218 452.088 236.218C452.863 236.218 453.686 236.315 454.46 236.509C455.235 236.702 456.155 236.799 456.929 236.799C458.188 236.799 459.398 236.606 460.56 236.121C463.901 234.863 466.079 231.716 466.079 228.133C466.079 227.456 465.982 226.681 465.789 225.955C461.141 228.618 455.961 229.973 450.539 229.973C449.861 229.973 449.183 229.973 448.554 229.876C448.457 229.876 448.36 229.876 448.263 229.876C446.182 229.876 444.342 231.038 443.519 232.926C442.551 235.202 442.067 237.671 442.067 240.091C442.067 240.672 442.067 241.156 442.163 241.786C441.873 239.123 439.598 236.944 436.935 236.751C436.257 239.994 433.401 242.27 430.157 242.27C427.204 242.27 424.541 240.382 423.573 237.622C422.218 233.798 421.491 229.731 421.491 225.713C421.491 217.434 424.348 209.591 429.479 203.104C434.321 197.101 441.195 193.18 448.844 191.969C449.425 191.873 450.006 191.873 450.636 191.873C455.864 191.873 460.367 195.31 461.77 200.345C461.867 200.732 461.964 201.216 461.964 201.603C461.964 204.169 459.882 206.348 457.22 206.348C456.929 206.348 456.639 206.348 456.348 206.251C453.201 205.67 450.926 202.911 450.926 199.764C450.926 199.667 450.926 199.667 450.926 199.57C450.151 199.28 449.232 199.183 448.36 199.183C443.713 199.183 439.985 202.911 439.985 207.558C439.985 208.623 440.178 209.833 440.663 210.802C434.756 211.189 430.351 216.127 430.351 221.937C430.351 222.808 430.448 223.728 430.641 224.599C436.741 218.693 444.729 215.353 453.153 215.353C453.25 215.353 453.347 215.353 453.443 215.353L453.54 215.353C461.335 215.353 467.531 209.059 467.531 201.361C467.531 198.699 466.854 196.133 465.45 194.003C463.368 190.662 460.221 188 456.493 186.547C460.221 185.095 463.368 182.529 465.45 179.092C466.805 176.816 467.531 174.25 467.531 171.733C467.531 163.939 461.238 157.742 453.54 157.742L453.443 157.742C453.347 157.742 453.25 157.742 453.153 157.742C444.681 157.742 436.644 154.401 430.641 148.495C430.448 149.366 430.351 150.286 430.351 151.158C430.351 157.064 434.853 161.905 440.663 162.293C440.275 163.261 439.985 164.471 439.985 165.536C439.985 170.184 443.713 173.912 448.36 173.912C449.232 173.912 450.151 173.815 450.926 173.524C450.926 173.427 450.926 173.427 450.926 173.331C450.926 170.184 453.201 167.424 456.348 166.843C456.639 166.747 456.929 166.746 457.22 166.746C459.786 166.746 461.964 168.828 461.964 171.491C461.964 171.975 461.867 172.362 461.77 172.75C460.318 177.785 455.767 181.222 450.636 181.222C450.055 181.222 449.474 181.222 448.844 181.125C441.147 179.963 434.369 175.993 429.479 169.99C424.251 163.6 421.491 155.612 421.491 147.382C421.491 143.363 422.169 139.2 423.573 135.472C424.541 132.713 427.204 130.825 430.157 130.825C433.498 131.599 436.257 133.971 436.935 137.118Z" fill="#842D35"/>
<path d="M2.29848e-05 250.903L0 373.967L123.064 373.967L123.064 250.903L2.29848e-05 250.903Z" fill="#1B5936"/>
<path d="M109.17 250.903L109.17 373.967L122.967 373.967L122.967 250.903L109.17 250.903Z" fill="#1B5936"/>
<path d="M92.3709 250.903L92.3708 373.967L100.843 373.967L100.843 250.903L92.3709 250.903Z" fill="#B0B461"/>
<path d="M13.7493 250.903L13.7493 373.967L22.2214 373.967L22.2215 250.903L13.7493 250.903Z" fill="#B0B461"/>
<path d="M22.2212 250.903L22.2212 373.967L92.2739 373.967L92.2739 250.903L22.2212 250.903Z" fill="#F6F6F6"/>
<path d="M100.843 250.903L100.843 373.967L109.315 373.967L109.315 250.903L100.843 250.903Z" fill="#F9F7DD"/>
<path d="M5.3738 250.903L5.37378 373.967L13.8459 373.967L13.846 250.903L5.3738 250.903Z" fill="#F9F7DD"/>
<path d="M63.1296 362.688C60.3701 362.978 58.1915 365.06 57.901 367.722C57.901 367.238 57.9979 366.657 57.9979 366.028C57.9979 363.559 57.5137 361.09 56.5455 358.863C55.7709 356.975 53.8828 355.813 51.8011 355.813C51.7042 355.813 51.6074 355.813 51.5106 355.813C50.8328 355.813 50.1551 355.91 49.5257 355.91C44.1035 355.91 39.0202 354.554 34.2758 351.892C34.0821 352.569 33.9853 353.344 33.9853 354.07C33.9853 357.604 36.1638 360.751 39.5043 362.058C40.6662 362.445 41.8765 362.736 43.1352 362.736C43.9098 362.736 44.8297 362.639 45.6043 362.445C46.3789 362.252 47.2019 362.155 47.9765 362.155C49.8645 362.155 51.6074 362.639 53.205 363.753C53.6892 364.043 53.9796 364.624 53.9796 365.205C53.9796 365.883 53.5923 366.464 53.0114 366.803C52.2368 367.19 51.317 367.384 50.4455 367.384C49.7678 367.384 48.9932 367.287 48.267 366.996C46.8146 366.415 45.1202 366.125 43.5225 366.125C40.9567 366.125 38.4876 366.899 36.3575 368.303C34.3726 369.562 33.3075 371.741 33.3075 374.113C33.3075 374.21 33.3075 374.306 33.3075 374.403L78.2827 374.403C83.1239 367.722 85.6413 359.734 85.6413 351.456C85.6413 340.031 80.6064 329.041 71.8438 321.634C76.4914 321.053 80.8001 319.262 84.5278 316.502C85.4961 315.631 86.1255 314.42 86.1255 313.162C86.1255 313.065 86.1255 312.968 86.1255 312.871C86.1255 312.774 86.1255 312.678 86.1255 312.581C86.1255 311.322 85.5445 310.015 84.5278 309.24C80.8001 306.481 76.3462 304.738 71.8438 304.109C80.6065 296.653 85.6413 285.712 85.6413 274.287C85.6413 266.008 83.0755 258.068 78.2827 251.339L33.3076 251.339C33.3076 251.436 33.3076 251.533 33.3076 251.63C33.3076 254.002 34.4694 256.132 36.3575 257.439C38.5361 258.795 41.0051 259.618 43.5226 259.618C45.217 259.618 46.7662 259.327 48.267 258.746C48.9448 258.456 49.6226 258.359 50.4456 258.359C51.317 258.359 52.2368 258.552 53.0114 258.94C53.5923 259.23 53.9796 259.811 53.9796 260.537C53.9796 261.118 53.6892 261.699 53.205 261.99C51.6074 262.958 49.8646 263.587 47.9765 263.587C47.2019 263.587 46.3789 263.491 45.6043 263.297C44.8297 263.103 43.9098 263.006 43.1352 263.006C41.8765 263.006 40.6662 263.2 39.5043 263.684C36.1639 264.943 33.9854 268.09 33.9853 271.672C33.9853 272.35 34.0822 273.125 34.2758 273.851C38.9234 271.188 44.1035 269.833 49.5257 269.833C50.2035 269.833 50.8813 269.833 51.5106 269.929C51.6074 269.929 51.7042 269.929 51.8011 269.929C53.8828 269.929 55.7225 268.768 56.5455 266.879C57.5138 264.604 57.9979 262.135 57.9979 259.714C57.9979 259.133 57.9978 258.649 57.901 258.02C58.1915 260.683 60.4669 262.861 63.1296 263.055C63.8074 259.811 66.6637 257.536 69.9073 257.536C72.8605 257.536 75.5231 259.424 76.4914 262.183C77.8469 266.008 78.5731 270.075 78.5731 274.093C78.5731 282.371 75.7168 290.214 70.5851 296.701C65.7439 302.705 58.8693 306.626 51.2201 307.836C50.6392 307.933 50.0582 307.933 49.4288 307.933C44.2003 307.933 39.698 304.496 38.294 299.461C38.1972 299.074 38.1004 298.59 38.1004 298.202C38.1004 295.636 40.1821 293.458 42.8448 293.458C43.1353 293.458 43.4257 293.458 43.7162 293.555C46.863 294.136 49.1384 296.895 49.1384 300.042C49.1384 300.139 49.1384 300.139 49.1384 300.236C49.913 300.526 50.8328 300.623 51.7043 300.623C56.3519 300.623 60.0796 296.895 60.0796 292.248C60.0796 291.182 59.886 289.972 59.4019 289.004C65.3082 288.617 69.7137 283.679 69.7137 277.869C69.7137 276.998 69.6168 276.078 69.4232 275.206C63.3232 281.113 55.3352 284.453 46.9114 284.453C46.8146 284.453 46.7178 284.453 46.621 284.453L46.5241 284.453C38.7297 284.453 32.533 290.747 32.533 298.444C32.533 301.107 33.2107 303.673 34.6147 305.803C36.6964 309.143 39.8432 311.806 43.571 313.259C39.8432 314.711 36.6964 317.277 34.6147 320.714C33.2591 322.989 32.533 325.555 32.533 328.073C32.533 335.867 38.8265 342.064 46.5241 342.064L46.621 342.064C46.7178 342.064 46.8146 342.064 46.9114 342.064C55.3836 342.064 63.42 345.404 69.4232 351.311C69.6168 350.439 69.7136 349.519 69.7136 348.648C69.7136 342.742 65.2113 337.9 59.4018 337.513C59.7891 336.545 60.0796 335.335 60.0796 334.27C60.0796 329.622 56.3519 325.894 51.7043 325.894C50.8328 325.894 49.913 325.991 49.1384 326.281C49.1384 326.378 49.1384 326.378 49.1384 326.475C49.1384 329.622 46.863 332.381 43.7162 332.962C43.4257 333.059 43.1352 333.059 42.8448 333.059C40.2789 333.059 38.1004 330.977 38.1004 328.315C38.1004 327.831 38.1972 327.443 38.294 327.056C39.7464 322.021 44.2971 318.584 49.4288 318.584C50.0098 318.584 50.5908 318.584 51.2201 318.681C58.9177 319.843 65.6954 323.812 70.5851 329.816C75.8136 336.206 78.5731 344.194 78.5731 352.424C78.5731 356.442 77.8953 360.606 76.4914 364.334C75.5231 367.093 72.8605 368.981 69.9073 368.981C66.5668 368.207 63.8073 365.834 63.1296 362.688Z" fill="#842D35"/>
<path d="M251 0H374.064V123.064H251V0Z" fill="#1B5936"/>
<path d="M251 109.17H374.064V122.967H251V109.17Z" fill="#1B5936"/>
<path d="M251 92.3706H374.064V100.843H251V92.3706Z" fill="#B0B461"/>
<path d="M251 13.749H374.064V22.2212H251V13.749Z" fill="#B0B461"/>
<path d="M251 22.2217H374.064V92.2744H251V22.2217Z" fill="#F6F6F6"/>
<path d="M251 100.843H374.064V109.315H251V100.843Z" fill="#F9F7DD"/>
<path d="M251 5.37402H374.064V13.8462H251V5.37402Z" fill="#F9F7DD"/>
<path d="M362.784 63.1298C363.075 60.3703 365.156 58.1917 367.819 57.9012C367.335 57.9012 366.754 57.9981 366.125 57.9981C363.656 57.9981 361.187 57.514 358.96 56.5457C357.072 55.7711 355.91 53.883 355.91 51.8013C355.91 51.7045 355.91 51.6077 355.91 51.5108C355.91 50.8331 356.006 50.1553 356.006 49.5259C356.006 44.1038 354.651 39.0205 351.988 34.276C352.666 34.0824 353.441 33.9856 354.167 33.9856C357.701 33.9856 360.848 36.1641 362.155 39.5045C362.542 40.6664 362.833 41.8767 362.833 43.1355C362.833 43.9101 362.736 44.8299 362.542 45.6045C362.349 46.3791 362.252 47.2021 362.252 47.9767C362.252 49.8648 362.736 51.6077 363.849 53.2053C364.14 53.6894 364.721 53.9799 365.302 53.9799C365.979 53.9799 366.56 53.5926 366.899 53.0116C367.287 52.237 367.48 51.3172 367.48 50.4458C367.48 49.768 367.383 48.9934 367.093 48.2672C366.512 46.8149 366.221 45.1204 366.221 43.5228C366.221 40.9569 366.996 38.4879 368.4 36.3577C369.659 34.3728 371.837 33.3078 374.21 33.3078C374.306 33.3078 374.403 33.3078 374.5 33.3078V78.2829C367.819 83.1241 359.831 85.6416 351.553 85.6416C340.127 85.6416 329.138 80.6067 321.73 71.844C321.15 76.4916 319.358 80.8003 316.599 84.5281C315.727 85.4963 314.517 86.1257 313.258 86.1257C313.162 86.1257 313.065 86.1257 312.968 86.1257C312.871 86.1257 312.774 86.1257 312.677 86.1257C311.419 86.1257 310.112 85.5447 309.337 84.5281C306.577 80.8003 304.835 76.3464 304.205 71.844C296.75 80.6067 285.809 85.6416 274.383 85.6416C266.105 85.6416 258.165 83.0757 251.436 78.2829V33.3078C251.533 33.3078 251.629 33.3078 251.726 33.3078C254.098 33.3078 256.229 34.4697 257.536 36.3577C258.891 38.5363 259.714 41.0053 259.714 43.5228C259.714 45.2172 259.424 46.7664 258.843 48.2672C258.552 48.945 258.456 49.6228 258.456 50.4458C258.456 51.3172 258.649 52.237 259.036 53.0116C259.327 53.5926 259.908 53.9799 260.634 53.9799C261.215 53.9799 261.796 53.6894 262.086 53.2053C263.055 51.6077 263.684 49.8648 263.684 47.9767C263.684 47.2021 263.587 46.3791 263.394 45.6045C263.2 44.8299 263.103 43.9101 263.103 43.1355C263.103 41.8767 263.297 40.6664 263.781 39.5045C265.04 36.1641 268.186 33.9856 271.769 33.9856C272.447 33.9856 273.221 34.0824 273.947 34.276C271.285 38.9236 269.929 44.1038 269.929 49.5259C269.929 50.2037 269.929 50.8815 270.026 51.5108C270.026 51.6077 270.026 51.7045 270.026 51.8013C270.026 53.883 268.864 55.7227 266.976 56.5457C264.701 57.514 262.232 57.9981 259.811 57.9981C259.23 57.9981 258.746 57.9981 258.117 57.9012C260.779 58.1917 262.958 60.4671 263.152 63.1298C259.908 63.8076 257.633 66.6639 257.633 69.9075C257.633 72.8607 259.521 75.5234 262.28 76.4916C266.105 77.8472 270.171 78.5734 274.19 78.5734C282.468 78.5734 290.311 75.717 296.798 70.5853C302.801 65.7441 306.723 58.8695 307.933 51.2204C308.03 50.6394 308.03 50.0584 308.03 49.4291C308.03 44.2005 304.593 39.6982 299.558 38.2942C299.17 38.1974 298.686 38.1006 298.299 38.1006C295.733 38.1006 293.555 40.1823 293.555 42.845C293.555 43.1355 293.554 43.426 293.651 43.7165C294.232 46.8633 296.992 49.1386 300.139 49.1386C300.235 49.1386 300.235 49.1386 300.332 49.1386C300.623 49.9132 300.72 50.8331 300.72 51.7045C300.72 56.3521 296.992 60.0798 292.344 60.0798C291.279 60.0798 290.069 59.8862 289.101 59.4021C288.713 65.3084 283.775 69.7139 277.966 69.7139C277.094 69.7139 276.174 69.6171 275.303 69.4234C281.209 63.3235 284.55 55.3354 284.55 46.9117C284.55 46.8148 284.55 46.718 284.55 46.6212V46.5243C284.55 38.7299 290.843 32.5332 298.541 32.5332C301.204 32.5332 303.77 33.2109 305.9 34.6149C309.24 36.6966 311.903 39.8434 313.355 43.5712C314.808 39.8434 317.373 36.6966 320.811 34.6149C323.086 33.2594 325.652 32.5332 328.169 32.5332C335.964 32.5332 342.161 38.8268 342.161 46.5243V46.6212C342.161 46.718 342.161 46.8148 342.161 46.9117C342.161 55.3838 345.501 63.4203 351.407 69.4234C350.536 69.6171 349.616 69.7139 348.745 69.7139C342.838 69.7139 337.997 65.2116 337.61 59.4021C336.642 59.7894 335.431 60.0798 334.366 60.0798C329.719 60.0798 325.991 56.3521 325.991 51.7045C325.991 50.8331 326.088 49.9132 326.378 49.1386C326.475 49.1386 326.475 49.1386 326.572 49.1386C329.719 49.1386 332.478 46.8633 333.059 43.7165C333.156 43.426 333.156 43.1355 333.156 42.845C333.156 40.2791 331.074 38.1006 328.411 38.1006C327.927 38.1006 327.54 38.1974 327.153 38.2942C322.118 39.7466 318.681 44.2974 318.681 49.4291C318.681 50.01 318.681 50.591 318.777 51.2204C319.939 58.9179 323.909 65.6957 329.912 70.5853C336.303 75.8139 344.291 78.5734 352.521 78.5734C356.539 78.5734 360.703 77.8956 364.43 76.4916C367.19 75.5234 369.078 72.8607 369.078 69.9075C368.303 66.5671 365.931 63.8076 362.784 63.1298Z" fill="#842D35"/>
<path d="M249 500.064L125.936 500.064L125.936 377L249 377L249 500.064Z" fill="#1B5936"/>
<path d="M249 390.895L125.936 390.895L125.936 377.097L249 377.097L249 390.895Z" fill="#1B5936"/>
<path d="M249 407.694L125.936 407.694L125.936 399.222L249 399.222L249 407.694Z" fill="#B0B461"/>
<path d="M249 486.315L125.936 486.315L125.936 477.843L249 477.843L249 486.315Z" fill="#B0B461"/>
<path d="M249 477.843L125.936 477.843L125.936 407.79L249 407.79L249 477.843Z" fill="#F6F6F6"/>
<path d="M249 399.221L125.936 399.221L125.936 390.749L249 390.749L249 399.221Z" fill="#F9F7DD"/>
<path d="M249 494.69L125.936 494.69L125.936 486.218L249 486.218L249 494.69Z" fill="#F9F7DD"/>
<path d="M137.216 436.935C136.925 439.694 134.844 441.873 132.181 442.163C132.665 442.163 133.246 442.066 133.875 442.066C136.344 442.066 138.813 442.55 141.04 443.519C142.928 444.293 144.09 446.181 144.09 448.263C144.09 448.36 144.09 448.457 144.09 448.554C144.09 449.231 143.994 449.909 143.994 450.539C143.994 455.961 145.349 461.044 148.012 465.788C147.334 465.982 146.559 466.079 145.833 466.079C142.299 466.079 139.152 463.9 137.845 460.56C137.458 459.398 137.167 458.188 137.167 456.929C137.167 456.154 137.264 455.235 137.458 454.46C137.651 453.685 137.748 452.862 137.748 452.088C137.748 450.2 137.264 448.457 136.151 446.859C135.86 446.375 135.279 446.085 134.698 446.085C134.021 446.085 133.44 446.472 133.101 447.053C132.713 447.827 132.52 448.747 132.52 449.619C132.52 450.296 132.617 451.071 132.907 451.797C133.488 453.25 133.779 454.944 133.779 456.542C133.779 459.108 133.004 461.577 131.6 463.707C130.341 465.692 128.163 466.757 125.79 466.757C125.694 466.757 125.597 466.757 125.5 466.757L125.5 421.782C132.181 416.94 140.169 414.423 148.447 414.423C159.873 414.423 170.862 419.458 178.27 428.22C178.85 423.573 180.642 419.264 183.401 415.536C184.273 414.568 185.483 413.939 186.742 413.939C186.839 413.939 186.935 413.939 187.032 413.939C187.129 413.939 187.226 413.939 187.323 413.939C188.581 413.939 189.888 414.52 190.663 415.536C193.423 419.264 195.165 423.718 195.795 428.22C203.25 419.458 214.191 414.423 225.617 414.423C233.895 414.423 241.835 416.989 248.564 421.782L248.564 466.757C248.467 466.757 248.371 466.757 248.274 466.757C245.902 466.757 243.771 465.595 242.464 463.707C241.109 461.528 240.286 459.059 240.286 456.542C240.286 454.847 240.576 453.298 241.157 451.797C241.448 451.119 241.544 450.442 241.544 449.619C241.544 448.747 241.351 447.827 240.964 447.053C240.673 446.472 240.092 446.085 239.366 446.085C238.785 446.085 238.204 446.375 237.914 446.859C236.945 448.457 236.316 450.2 236.316 452.088C236.316 452.862 236.413 453.685 236.606 454.46C236.8 455.235 236.897 456.154 236.897 456.929C236.897 458.188 236.703 459.398 236.219 460.56C234.96 463.9 231.814 466.079 228.231 466.079C227.553 466.079 226.779 465.982 226.053 465.788C228.715 461.141 230.071 455.961 230.071 450.539C230.071 449.861 230.071 449.183 229.974 448.554C229.974 448.457 229.974 448.36 229.974 448.263C229.974 446.181 231.136 444.342 233.024 443.519C235.299 442.55 237.768 442.066 240.189 442.066C240.77 442.066 241.254 442.066 241.883 442.163C239.221 441.873 237.042 439.597 236.848 436.935C240.092 436.257 242.367 433.401 242.367 430.157C242.367 427.204 240.479 424.541 237.72 423.573C233.895 422.217 229.829 421.491 225.81 421.491C217.532 421.491 209.689 424.347 203.202 429.479C197.199 434.32 193.277 441.195 192.067 448.844C191.97 449.425 191.97 450.006 191.97 450.635C191.97 455.864 195.407 460.366 200.442 461.77C200.83 461.867 201.314 461.964 201.701 461.964C204.267 461.964 206.445 459.882 206.445 457.219C206.445 456.929 206.446 456.638 206.349 456.348C205.768 453.201 203.008 450.926 199.861 450.926C199.765 450.926 199.765 450.926 199.668 450.926C199.377 450.151 199.28 449.231 199.28 448.36C199.28 443.712 203.008 439.985 207.656 439.985C208.721 439.985 209.931 440.178 210.899 440.662C211.287 434.756 216.225 430.351 222.034 430.351C222.906 430.351 223.826 430.447 224.697 430.641C218.791 436.741 215.45 444.729 215.45 453.153C215.45 453.25 215.45 453.346 215.45 453.443L215.45 453.54C215.45 461.335 209.157 467.531 201.459 467.531C198.796 467.531 196.23 466.854 194.1 465.45C190.76 463.368 188.097 460.221 186.645 456.493C185.192 460.221 182.627 463.368 179.189 465.45C176.914 466.805 174.348 467.531 171.831 467.531C164.036 467.531 157.839 461.238 157.839 453.54L157.839 453.443C157.839 453.346 157.839 453.25 157.839 453.153C157.839 444.681 154.499 436.644 148.593 430.641C149.464 430.447 150.384 430.351 151.255 430.351C157.162 430.351 162.003 434.853 162.39 440.662C163.358 440.275 164.569 439.985 165.634 439.985C170.281 439.985 174.009 443.712 174.009 448.36C174.009 449.231 173.912 450.151 173.622 450.926C173.525 450.926 173.525 450.926 173.428 450.926C170.281 450.926 167.522 453.201 166.941 456.348C166.844 456.638 166.844 456.929 166.844 457.219C166.844 459.785 168.926 461.964 171.589 461.964C172.073 461.964 172.46 461.867 172.847 461.77C177.882 460.318 181.319 455.767 181.319 450.635C181.319 450.054 181.319 449.473 181.223 448.844C180.061 441.147 176.091 434.369 170.088 429.479C163.697 424.251 155.709 421.491 147.479 421.491C143.461 421.491 139.297 422.169 135.57 423.573C132.81 424.541 130.922 427.204 130.922 430.157C131.697 433.497 134.069 436.257 137.216 436.935Z" fill="#842D35"/>
<path d="M500.064 250.903L500.064 373.967L377 373.967L377 250.903L500.064 250.903Z" fill="#1B5936"/>
<path d="M390.895 250.903L390.895 373.967L377.097 373.967L377.097 250.903L390.895 250.903Z" fill="#1B5936"/>
<path d="M407.694 250.903L407.694 373.967L399.221 373.967L399.221 250.903L407.694 250.903Z" fill="#B0B461"/>
<path d="M486.315 250.903L486.315 373.967L477.843 373.967L477.843 250.903L486.315 250.903Z" fill="#B0B461"/>
<path d="M477.843 250.903L477.843 373.967L407.791 373.967L407.791 250.903L477.843 250.903Z" fill="#F6F6F6"/>
<path d="M399.222 250.903L399.222 373.967L390.75 373.967L390.75 250.903L399.222 250.903Z" fill="#F9F7DD"/>
<path d="M494.691 250.903L494.691 373.967L486.219 373.967L486.219 250.903L494.691 250.903Z" fill="#F9F7DD"/>
<path d="M436.935 362.688C439.694 362.978 441.873 365.06 442.163 367.722C442.163 367.238 442.067 366.657 442.067 366.028C442.067 363.559 442.551 361.09 443.519 358.863C444.294 356.975 446.182 355.813 448.263 355.813C448.36 355.813 448.457 355.813 448.554 355.813C449.232 355.813 449.909 355.91 450.539 355.91C455.961 355.91 461.044 354.554 465.789 351.892C465.982 352.569 466.079 353.344 466.079 354.07C466.079 357.604 463.901 360.751 460.56 362.058C459.398 362.445 458.188 362.736 456.929 362.736C456.155 362.736 455.235 362.639 454.46 362.445C453.686 362.252 452.863 362.155 452.088 362.155C450.2 362.155 448.457 362.639 446.859 363.753C446.375 364.043 446.085 364.624 446.085 365.205C446.085 365.883 446.472 366.464 447.053 366.803C447.828 367.19 448.747 367.384 449.619 367.384C450.297 367.384 451.071 367.287 451.797 366.996C453.25 366.415 454.944 366.125 456.542 366.125C459.108 366.125 461.577 366.899 463.707 368.303C465.692 369.562 466.757 371.741 466.757 374.113C466.757 374.21 466.757 374.306 466.757 374.403L421.782 374.403C416.941 367.722 414.423 359.734 414.423 351.456C414.423 340.031 419.458 329.041 428.221 321.634C423.573 321.053 419.264 319.262 415.537 316.502C414.568 315.631 413.939 314.42 413.939 313.162C413.939 313.065 413.939 312.968 413.939 312.871C413.939 312.774 413.939 312.678 413.939 312.581C413.939 311.322 414.52 310.015 415.537 309.24C419.264 306.481 423.718 304.738 428.221 304.109C419.458 296.653 414.423 285.712 414.423 274.287C414.423 266.008 416.989 258.068 421.782 251.339L466.757 251.339C466.757 251.436 466.757 251.533 466.757 251.63C466.757 254.002 465.595 256.132 463.707 257.439C461.528 258.795 459.059 259.618 456.542 259.618C454.847 259.618 453.298 259.327 451.797 258.746C451.12 258.456 450.442 258.359 449.619 258.359C448.747 258.359 447.828 258.552 447.053 258.94C446.472 259.23 446.085 259.811 446.085 260.537C446.085 261.118 446.375 261.699 446.859 261.99C448.457 262.958 450.2 263.587 452.088 263.587C452.863 263.587 453.686 263.491 454.46 263.297C455.235 263.103 456.155 263.006 456.929 263.006C458.188 263.006 459.398 263.2 460.56 263.684C463.901 264.943 466.079 268.09 466.079 271.672C466.079 272.35 465.982 273.125 465.789 273.851C461.141 271.188 455.961 269.833 450.539 269.833C449.861 269.833 449.183 269.833 448.554 269.929C448.457 269.929 448.36 269.929 448.263 269.929C446.182 269.929 444.342 268.767 443.519 266.879C442.551 264.604 442.067 262.135 442.067 259.714C442.067 259.133 442.067 258.649 442.163 258.02C441.873 260.683 439.598 262.861 436.935 263.055C436.257 259.811 433.401 257.536 430.157 257.536C427.204 257.536 424.541 259.424 423.573 262.183C422.218 266.008 421.491 270.075 421.491 274.093C421.491 282.371 424.348 290.214 429.479 296.701C434.321 302.705 441.195 306.626 448.844 307.836C449.425 307.933 450.006 307.933 450.636 307.933C455.864 307.933 460.367 304.496 461.77 299.461C461.867 299.074 461.964 298.59 461.964 298.202C461.964 295.636 459.882 293.458 457.22 293.458C456.929 293.458 456.639 293.458 456.348 293.555C453.201 294.136 450.926 296.895 450.926 300.042C450.926 300.139 450.926 300.139 450.926 300.236C450.151 300.526 449.232 300.623 448.36 300.623C443.713 300.623 439.985 296.895 439.985 292.248C439.985 291.182 440.179 289.972 440.663 289.004C434.756 288.617 430.351 283.679 430.351 277.869C430.351 276.998 430.448 276.078 430.641 275.206C436.741 281.113 444.729 284.453 453.153 284.453C453.25 284.453 453.347 284.453 453.444 284.453L453.54 284.453C461.335 284.453 467.532 290.747 467.532 298.444C467.532 301.107 466.854 303.673 465.45 305.803C463.368 309.143 460.221 311.806 456.494 313.259C460.221 314.711 463.368 317.277 465.45 320.714C466.805 322.989 467.531 325.555 467.531 328.073C467.531 335.867 461.238 342.064 453.54 342.064L453.444 342.064C453.347 342.064 453.25 342.064 453.153 342.064C444.681 342.064 436.644 345.404 430.641 351.311C430.448 350.439 430.351 349.519 430.351 348.648C430.351 342.742 434.853 337.9 440.663 337.513C440.275 336.545 439.985 335.335 439.985 334.269C439.985 329.622 443.713 325.894 448.36 325.894C449.232 325.894 450.151 325.991 450.926 326.281C450.926 326.378 450.926 326.378 450.926 326.475C450.926 329.622 453.201 332.381 456.348 332.962C456.639 333.059 456.929 333.059 457.22 333.059C459.786 333.059 461.964 330.977 461.964 328.315C461.964 327.831 461.867 327.443 461.77 327.056C460.318 322.021 455.767 318.584 450.636 318.584C450.055 318.584 449.474 318.584 448.844 318.681C441.147 319.843 434.369 323.812 429.479 329.816C424.251 336.206 421.491 344.194 421.491 352.424C421.491 356.442 422.169 360.606 423.573 364.334C424.541 367.093 427.204 368.981 430.157 368.981C433.498 368.207 436.257 365.834 436.935 362.688Z" fill="#842D35"/>
<path d="M-2.29848e-05 248.903L0 125.838L123.064 125.838L123.064 248.903L-2.29848e-05 248.903Z" fill="#1B5936"/>
<path d="M109.17 248.903L109.17 125.838L122.967 125.838L122.967 248.903L109.17 248.903Z" fill="#1B5936"/>
<path d="M92.3708 248.903L92.3708 125.838L100.843 125.838L100.843 248.903L92.3708 248.903Z" fill="#B0B461"/>
<path d="M13.7492 248.903L13.7493 125.838L22.2214 125.838L22.2214 248.903L13.7492 248.903Z" fill="#B0B461"/>
<path d="M22.2212 248.903L22.2212 125.838L92.2739 125.838L92.2739 248.903L22.2212 248.903Z" fill="#F6F6F6"/>
<path d="M100.843 248.903L100.843 125.838L109.315 125.838L109.315 248.903L100.843 248.903Z" fill="#F9F7DD"/>
<path d="M5.37376 248.903L5.37378 125.838L13.8459 125.838L13.8459 248.903L5.37376 248.903Z" fill="#F9F7DD"/>
<path d="M63.1296 137.118C60.3701 136.828 58.1915 134.746 57.901 132.083C57.901 132.567 57.9979 133.148 57.9979 133.778C57.9979 136.247 57.5137 138.716 56.5455 140.943C55.7709 142.831 53.8828 143.993 51.8011 143.993C51.7042 143.993 51.6074 143.993 51.5106 143.993C50.8328 143.993 50.1551 143.896 49.5257 143.896C44.1035 143.896 39.0202 145.251 34.2758 147.914C34.0821 147.236 33.9853 146.462 33.9853 145.736C33.9853 142.201 36.1638 139.055 39.5043 137.748C40.6662 137.36 41.8765 137.07 43.1352 137.07C43.9098 137.07 44.8297 137.167 45.6043 137.36C46.3789 137.554 47.2019 137.651 47.9765 137.651C49.8645 137.651 51.6074 137.167 53.205 136.053C53.6891 135.763 53.9796 135.182 53.9796 134.601C53.9796 133.923 53.5923 133.342 53.0114 133.003C52.2368 132.616 51.317 132.422 50.4455 132.422C49.7678 132.422 48.9932 132.519 48.267 132.809C46.8146 133.39 45.1202 133.681 43.5225 133.681C40.9567 133.681 38.4876 132.906 36.3575 131.502C34.3726 130.244 33.3075 128.065 33.3075 125.693C33.3075 125.596 33.3075 125.499 33.3075 125.402L78.2827 125.402C83.1239 132.083 85.6413 140.071 85.6413 148.35C85.6413 159.775 80.6064 170.765 71.8438 178.172C76.4914 178.753 80.8001 180.544 84.5278 183.304C85.4961 184.175 86.1254 185.385 86.1254 186.644C86.1254 186.741 86.1254 186.838 86.1254 186.934C86.1254 187.031 86.1254 187.128 86.1254 187.225C86.1254 188.484 85.5445 189.791 84.5278 190.565C80.8001 193.325 76.3461 195.068 71.8438 195.697C80.6064 203.153 85.6413 214.094 85.6413 225.519C85.6413 233.798 83.0755 241.737 78.2826 248.467L33.3075 248.467C33.3075 248.37 33.3075 248.273 33.3075 248.176C33.3075 245.804 34.4694 243.674 36.3575 242.367C38.536 241.011 41.0051 240.188 43.5225 240.188C45.217 240.188 46.7662 240.479 48.267 241.059C48.9447 241.35 49.6225 241.447 50.4455 241.447C51.3169 241.447 52.2367 241.253 53.0113 240.866C53.5923 240.575 53.9796 239.994 53.9796 239.268C53.9796 238.687 53.6891 238.106 53.205 237.816C51.6074 236.848 49.8645 236.218 47.9764 236.218C47.2018 236.218 46.3789 236.315 45.6043 236.509C44.8297 236.702 43.9098 236.799 43.1352 236.799C41.8765 236.799 40.6662 236.606 39.5043 236.121C36.1638 234.863 33.9853 231.716 33.9853 228.133C33.9853 227.456 34.0821 226.681 34.2758 225.955C38.9234 228.618 44.1035 229.973 49.5257 229.973C50.2034 229.973 50.8812 229.973 51.5106 229.876C51.6074 229.876 51.7042 229.876 51.801 229.876C53.8828 229.876 55.7225 231.038 56.5455 232.926C57.5137 235.202 57.9978 237.671 57.9978 240.091C57.9978 240.672 57.9978 241.156 57.901 241.786C58.1915 239.123 60.4669 236.944 63.1295 236.751C63.8073 239.994 66.6636 242.27 69.9073 242.27C72.8604 242.27 75.5231 240.382 76.4914 237.622C77.8469 233.798 78.5731 229.731 78.5731 225.713C78.5731 217.434 75.7168 209.591 70.5851 203.104C65.7438 197.101 58.8693 193.18 51.2201 191.969C50.6392 191.873 50.0582 191.873 49.4288 191.873C44.2003 191.873 39.6979 195.31 38.294 200.345C38.1971 200.732 38.1004 201.216 38.1004 201.603C38.1004 204.169 40.1821 206.348 42.8447 206.348C43.1352 206.348 43.4257 206.348 43.7162 206.251C46.863 205.67 49.1384 202.911 49.1384 199.764C49.1384 199.667 49.1384 199.667 49.1384 199.57C49.913 199.28 50.8328 199.183 51.7042 199.183C56.3518 199.183 60.0795 202.911 60.0795 207.558C60.0795 208.623 59.8859 209.834 59.4018 210.802C65.3081 211.189 69.7136 216.127 69.7136 221.937C69.7136 222.808 69.6168 223.728 69.4232 224.599C63.3232 218.693 55.3352 215.353 46.9114 215.353C46.8146 215.353 46.7178 215.353 46.6209 215.353L46.5241 215.353C38.7297 215.353 32.5329 209.059 32.5329 201.361C32.5329 198.699 33.2107 196.133 34.6146 194.003C36.6964 190.662 39.8432 188 43.5709 186.547C39.8432 185.095 36.6964 182.529 34.6146 179.092C33.2591 176.816 32.5329 174.25 32.533 171.733C32.533 163.939 38.8265 157.742 46.5241 157.742L46.6209 157.742C46.7178 157.742 46.8146 157.742 46.9114 157.742C55.3836 157.742 63.42 154.401 69.4232 148.495C69.6168 149.366 69.7136 150.286 69.7136 151.158C69.7136 157.064 65.2113 161.905 59.4018 162.293C59.7891 163.261 60.0796 164.471 60.0796 165.536C60.0796 170.184 56.3518 173.912 51.7042 173.912C50.8328 173.912 49.913 173.815 49.1384 173.524C49.1384 173.427 49.1384 173.427 49.1384 173.331C49.1384 170.184 46.863 167.424 43.7162 166.843C43.4257 166.747 43.1352 166.746 42.8448 166.746C40.2789 166.746 38.1004 168.828 38.1004 171.491C38.1004 171.975 38.1972 172.362 38.294 172.75C39.7463 177.785 44.2971 181.222 49.4288 181.222C50.0098 181.222 50.5908 181.222 51.2201 181.125C58.9177 179.963 65.6954 175.993 70.5851 169.99C75.8136 163.6 78.5731 155.612 78.5731 147.382C78.5731 143.363 77.8953 139.2 76.4914 135.472C75.5231 132.713 72.8605 130.825 69.9073 130.825C66.5668 131.599 63.8073 133.971 63.1296 137.118Z" fill="#842D35"/>
<path d="M125 125H248.478V248.869H125V125ZM250.574 125H374.052V248.869H250.574V125ZM125 250.825H248.478V374.694H125V250.825ZM250.574 250.825H374.052V374.694H250.574V250.825Z" fill="#D1D3D4"/>
</g>
<defs>
<clipPath id="clip0_64_85">
<rect width="500" height="500" fill="white"/>
</clipPath>
</defs>
</svg>
