<svg width="432px" height="432px" viewBox="0 0 500 500" fill="none" xmlns="http://www.w3.org/2000/svg">
<g clip-path="url(#clip0_65_405)">
<path d="M123.451 0H0V122.868H123.451V0Z" fill="#602626"/>
<path d="M50.4014 53.2689C50.8874 49.7695 52.1997 46.4646 54.1924 43.4512C57.303 45.4439 59.7817 48.2628 61.5314 51.5678C59.0041 52.3455 57.0114 54.3869 56.331 56.9628C55.1159 54.8729 52.9287 53.512 50.4014 53.2689Z" fill="#E6BB7B"/>
<path d="M102.406 41.6528C91.3735 33.925 78.3479 29.8423 64.9335 29.8423C55.1157 29.8423 45.3952 32.0294 36.5494 36.2578C32.2238 45.055 30.0367 54.6784 30.0367 64.3989C30.0367 73.0017 31.7377 81.5558 35.0427 89.4295C31.835 89.7211 28.9188 91.6166 27.4121 94.5328C27.5093 94.5328 27.5093 94.5328 27.6065 94.5328C29.2104 94.5328 30.8143 94.8244 32.2238 95.5534C36.2092 96.8657 39.8545 99.2472 42.4304 102.552C47.3393 109.454 52.637 116.161 58.1777 122.674H67.2179C61.2884 115.967 55.9906 108.725 51.2761 101.143C49.575 98.0322 48.36 94.7272 47.8739 91.2278C47.4851 89.1379 47.2907 86.9993 47.2907 84.9094C47.2907 83.986 47.2907 83.0139 47.3879 82.0904C45.0064 82.5765 42.8678 84.1804 41.6527 86.4161C38.7366 79.4173 37.2299 71.981 37.2299 64.3504C37.2299 56.5253 38.8338 48.7002 41.9444 41.6042C45.541 39.8059 49.575 38.7852 53.5604 38.7852C60.9967 38.7852 67.9955 41.993 72.9044 47.4852C74.4111 50.2069 75.286 53.3175 75.286 56.5253C75.286 60.6565 73.8765 64.642 71.3977 67.8497C72.0782 67.9469 72.71 68.0442 73.3905 68.0442C75.286 68.0442 77.1815 67.6554 78.8826 66.7319C78.9798 67.6554 79.077 68.5302 79.077 69.5508C79.077 72.1754 78.591 74.6542 77.7647 77.1815C76.7441 80.2921 74.3625 82.7708 71.2519 83.8887C70.5715 84.0831 69.7452 84.2776 69.0648 84.2776C67.3637 84.2776 65.7598 83.6943 64.4475 82.5765C62.8436 80.9726 61.9201 78.8827 61.8229 76.6469C61.1425 76.9385 60.3163 77.2301 59.5386 77.3273C58.9554 77.4245 58.4208 77.4246 57.8375 77.4246C57.2543 77.4246 56.7197 77.4245 56.1364 77.3273C56.5252 80.7295 58.3236 83.8401 61.1425 85.8328C63.2325 87.4367 65.7598 88.2144 68.3357 88.2144C69.9396 88.2144 71.5436 87.9228 73.0503 87.1937C76.0636 85.9787 78.4452 83.7915 79.8547 80.8753C81.7502 77.1815 82.868 73.0503 82.9652 68.8705C83.5484 72.0782 85.687 74.8 88.7004 76.0636C91.9082 73.9737 93.8037 70.4743 93.8037 66.7319C93.8037 66.5375 93.8037 66.4403 93.8037 66.2459C96.7199 66.9263 99.636 67.2665 102.504 67.2665C104.885 67.2665 107.315 67.0721 109.697 66.5861C102.795 63.9615 96.6713 59.6845 91.8596 54.1437C88.9434 50.6443 85.5412 47.4365 81.8474 44.7148C77.0357 41.2154 71.8351 38.2992 66.1972 36.2093C77.8133 36.7925 88.8462 40.7293 98.0808 47.4365C106.683 53.6577 115.14 60.0733 123.354 66.6833V57.7404C116.647 52.1996 109.648 46.7561 102.406 41.6528Z" fill="#B0B461"/>
<path d="M63.9128 63.2326C63.4268 62.0175 63.1352 60.608 63.1352 59.3444C63.1352 59.0527 63.1352 58.8583 63.1352 58.5667C63.6212 55.6505 66.1485 53.4634 69.0647 53.3662C67.6552 52.1512 65.7597 51.4707 63.9614 51.4707C60.462 51.4707 57.3514 53.8522 56.3308 57.3031C55.1157 55.2131 52.9285 53.8037 50.4012 53.6092C50.304 53.6092 50.1096 53.6092 50.0124 53.6092C48.3113 53.6092 46.6102 54.1925 45.2979 55.3103C43.9856 56.331 43.3052 57.8377 43.3052 59.4416C44.0828 58.6639 45.2007 58.2265 46.3186 58.2265C48.1169 58.2265 49.7208 59.3444 50.4498 60.9483C50.9359 62.5522 51.2275 64.2533 51.2275 66.0516C51.2275 66.8292 51.1303 67.6555 51.0331 68.4331C50.9358 68.9192 50.9359 69.4538 50.9359 70.037C50.9359 72.1269 51.6163 74.1683 52.9286 75.7722C53.852 76.7928 54.9213 77.4733 56.2335 77.7649C56.8168 77.8621 57.3514 77.8621 57.9346 77.8621C58.5179 77.8621 59.1497 77.8621 59.6357 77.7649C60.4134 77.6677 61.2397 77.4732 61.9201 77.0844C62.6006 76.7928 63.3296 76.3068 63.8156 75.7722C65.2251 74.3627 65.9055 72.4672 65.9055 70.5717C65.9055 70.4745 65.9055 70.3772 65.9055 70.3772C65.8569 67.5097 65.1279 65.2253 63.9128 63.2326Z" fill="#C0834B"/>
<path d="M102.406 41.6526C109.6 46.756 116.744 52.1509 123.452 57.7888V24.0098H24.1558V122.82H58.2265C52.7343 116.307 47.4852 109.6 42.4791 102.698C39.8545 99.3929 36.2579 96.8655 32.2725 95.6991C30.7658 95.1158 29.2591 94.6784 27.6552 94.6784C27.6552 94.6784 27.558 94.6784 27.4608 94.6784C28.9675 91.8595 31.8836 89.9639 35.0914 89.5751C31.7864 81.6528 30.0854 73.1473 30.0854 64.5446C30.0854 54.824 32.2725 45.1034 36.5982 36.4035C45.3953 32.1751 55.1158 29.9879 64.9822 29.9879C78.348 29.8421 91.3736 34.0706 102.406 41.6526Z" fill="white"/>
<path d="M123.354 67.1205C115.14 60.5105 106.732 54.0949 98.0806 47.8738C88.8461 41.1666 77.8618 37.2298 66.2943 36.5493C71.7864 38.6392 77.1327 41.5554 81.9444 45.0548C85.6382 47.7766 88.9432 50.9843 91.9566 54.4837C96.7683 60.0731 102.892 64.3016 109.794 66.9261C107.412 67.4122 104.982 67.6065 102.601 67.6065C99.6845 67.6065 96.6711 67.3149 93.9007 66.5859C93.9007 66.7803 93.9007 66.8775 93.9007 67.0719C93.9007 70.8629 92.0052 74.411 88.7974 76.4037C85.784 75.0914 83.597 72.4182 83.0623 69.2105C82.9651 73.4389 81.8472 77.5215 79.9517 81.2154C78.5422 84.1315 76.0635 86.3187 73.1473 87.5337C71.6406 88.117 70.0367 88.5544 68.4329 88.5544C65.8083 88.5544 63.3295 87.7768 61.2396 86.1729C58.4206 84.1802 56.5251 81.0696 56.2335 77.6674C54.9212 77.3758 53.852 76.6467 52.9285 75.6747C51.6162 74.0708 50.9358 72.078 50.9358 69.9395C50.9358 69.4535 50.9358 68.9188 51.033 68.3356C51.1302 67.5579 51.2274 66.7317 51.2274 65.9541C51.2274 64.253 50.9358 62.5519 50.4498 60.8508C49.7693 59.2469 48.1654 58.129 46.3185 58.129C45.2007 58.129 44.1314 58.5178 43.3051 59.344C43.3051 57.7401 44.0827 56.2335 45.2978 55.2128C46.6101 54.0949 48.3112 53.5117 50.0123 53.5117C50.1095 53.5117 50.3039 53.5117 50.4011 53.5117C50.8872 50.0123 52.1995 46.7073 54.1922 43.6939C57.3028 45.6866 59.7815 48.5056 61.5312 51.8106C62.3088 51.519 63.1351 51.4218 63.9128 51.4218C65.8083 51.4218 67.6066 52.1023 69.0161 53.3173C66.0999 53.5117 63.6212 55.6988 63.0865 58.5178C63.0865 58.8094 63.0865 59.0038 63.0865 59.2954C63.0865 60.7049 63.3781 62.0172 63.8642 63.1837C65.0792 65.1764 65.6625 67.4121 65.7597 69.7937C65.7597 69.8909 65.7597 70.0853 65.7597 70.1825C65.7597 72.078 64.982 73.9735 63.6697 75.383C63.0865 75.869 62.4547 76.4037 61.7742 76.6953C61.8714 78.8824 62.7949 81.021 64.3988 82.6248C65.7111 83.7427 67.315 84.3259 69.0161 84.3259C69.7937 84.3259 70.5228 84.2288 71.2032 83.9372C74.3138 82.8193 76.6953 80.3405 77.716 77.2299C78.6395 74.8484 79.0283 72.2239 79.0283 69.5993C79.0283 68.6758 78.931 67.801 78.8338 66.7803C77.1327 67.558 75.2372 68.0926 73.3417 68.0926C72.6613 68.0926 71.9323 67.9954 71.349 67.8982C73.8764 64.6904 75.2373 60.7049 75.2373 56.5737C75.2373 53.4631 74.4596 50.3525 72.8557 47.5336C67.9468 42.0414 60.948 38.8336 53.5117 38.8336C49.5263 38.8336 45.4922 39.7571 41.8956 41.6526C38.785 48.8459 37.1812 56.5737 37.1812 64.3988C37.1812 71.9322 38.6878 79.4171 41.604 86.4645C42.8191 84.2774 44.8118 82.6734 47.3392 82.1388C47.242 83.0623 47.2419 84.0344 47.2419 84.9578C47.2419 87.0477 47.4364 89.1863 47.8252 91.2762C48.3112 94.7756 49.5263 98.0806 51.2274 101.191C55.9419 108.822 61.2396 116.015 67.1691 122.722H99.3443V98.6638H123.5L123.354 67.1205Z" fill="white"/>
<path d="M123.452 98.7612H99.2959V122.82H123.452V98.7612Z" fill="#E6BB7B"/>
<path d="M123.451 106.294H106.926V122.819H123.451V106.294Z" fill="#602626"/>
<path d="M123.451 16.5249H16.6221V122.82H24.1555V24.0098H123.451V16.5249Z" fill="#E6BB7B"/>
<path d="M376.549 499.868L500 499.868L500 377L376.549 377L376.549 499.868Z" fill="#602626"/>
<path d="M449.599 446.599C449.113 450.099 447.8 453.404 445.808 456.417C442.697 454.424 440.218 451.605 438.469 448.3C440.996 447.523 442.989 445.481 443.669 442.905C444.884 444.995 447.071 446.356 449.599 446.599Z" fill="#E6BB7B"/>
<path d="M397.594 458.215C408.626 465.943 421.652 470.026 435.066 470.026C444.884 470.026 454.605 467.839 463.451 463.61C467.776 454.813 469.963 445.19 469.963 435.469C469.963 426.866 468.262 418.312 464.957 410.439C468.165 410.147 471.081 408.252 472.588 405.335C472.491 405.335 472.491 405.335 472.393 405.335C470.79 405.335 469.186 405.044 467.776 404.315C463.791 403.002 460.146 400.621 457.57 397.316C452.661 390.414 447.363 383.707 441.822 377.194L432.782 377.194C438.712 383.902 444.009 391.143 448.724 398.725C450.425 401.836 451.64 405.141 452.126 408.64C452.515 410.73 452.709 412.869 452.709 414.959C452.709 415.882 452.709 416.854 452.612 417.778C454.994 417.292 457.132 415.688 458.347 413.452C461.263 420.451 462.77 427.887 462.77 435.518C462.77 443.343 461.166 451.168 458.056 458.264C454.459 460.062 450.425 461.083 446.44 461.083C439.003 461.083 432.004 457.875 427.096 452.383C425.589 449.661 424.714 446.551 424.714 443.343C424.714 439.212 426.124 435.226 428.602 432.018C427.922 431.921 427.29 431.824 426.61 431.824C424.714 431.824 422.818 432.213 421.117 433.136C421.02 432.213 420.923 431.338 420.923 430.317C420.923 427.693 421.409 425.214 422.235 422.687C423.256 419.576 425.638 417.097 428.748 415.979C429.429 415.785 430.255 415.591 430.935 415.591C432.636 415.591 434.24 416.174 435.552 417.292C437.156 418.896 438.08 420.986 438.177 423.221C438.858 422.93 439.684 422.638 440.461 422.541C441.045 422.444 441.579 422.444 442.162 422.444C442.746 422.444 443.28 422.444 443.864 422.541C443.475 419.139 441.676 416.028 438.857 414.035C436.768 412.431 434.24 411.654 431.664 411.654C430.06 411.654 428.456 411.945 426.95 412.674C423.936 413.89 421.555 416.077 420.145 418.993C418.25 422.687 417.132 426.818 417.035 430.998C416.452 427.79 414.313 425.068 411.3 423.805C408.092 425.894 406.196 429.394 406.196 433.136C406.196 433.331 406.196 433.428 406.196 433.622C403.28 432.942 400.364 432.602 397.496 432.602C395.115 432.602 392.685 432.796 390.303 433.282C397.205 435.907 403.329 440.184 408.14 445.724C411.057 449.224 414.459 452.432 418.153 455.153C422.964 458.653 428.165 461.569 433.803 463.659C422.187 463.076 411.154 459.139 401.919 452.432C393.317 446.21 384.86 439.795 376.646 433.185L376.646 442.128C383.353 447.669 390.352 453.112 397.594 458.215Z" fill="#B0B461"/>
<path d="M436.087 436.636C436.573 437.851 436.865 439.26 436.865 440.524C436.865 440.815 436.865 441.01 436.865 441.301C436.379 444.218 433.851 446.405 430.935 446.502C432.345 447.717 434.24 448.397 436.039 448.397C439.538 448.397 442.649 446.016 443.669 442.565C444.884 444.655 447.071 446.065 449.599 446.259C449.696 446.259 449.89 446.259 449.988 446.259C451.689 446.259 453.39 445.676 454.702 444.558C456.014 443.537 456.695 442.03 456.695 440.427C455.917 441.204 454.799 441.642 453.681 441.642C451.883 441.642 450.279 440.524 449.55 438.92C449.064 437.316 448.773 435.615 448.773 433.817C448.773 433.039 448.87 432.213 448.967 431.435C449.064 430.949 449.064 430.414 449.064 429.831C449.064 427.741 448.384 425.7 447.071 424.096C446.148 423.075 445.079 422.395 443.766 422.103C443.183 422.006 442.649 422.006 442.065 422.006C441.482 422.006 440.85 422.006 440.364 422.103C439.587 422.201 438.76 422.395 438.08 422.784C437.399 423.075 436.67 423.561 436.184 424.096C434.775 425.505 434.094 427.401 434.094 429.296C434.094 429.394 434.094 429.491 434.094 429.491C434.143 432.358 434.872 434.643 436.087 436.636Z" fill="#C0834B"/>
<path d="M397.594 458.216C390.4 453.112 383.256 447.717 376.548 442.079L376.548 475.858L475.844 475.858L475.844 377.049L441.774 377.049C447.266 383.561 452.515 390.269 457.521 397.17C460.145 400.475 463.742 403.003 467.728 404.169C469.234 404.752 470.741 405.19 472.345 405.19C472.345 405.19 472.442 405.19 472.539 405.19C471.033 408.009 468.116 409.904 464.909 410.293C468.214 418.215 469.915 426.721 469.915 435.324C469.915 445.044 467.728 454.765 463.402 463.465C454.605 467.693 444.884 469.88 435.018 469.88C421.652 470.026 408.626 465.798 397.594 458.216Z" fill="white"/>
<path d="M376.646 432.748C384.86 439.358 393.268 445.773 401.919 451.994C411.154 458.702 422.138 462.638 433.706 463.319C428.214 461.229 422.867 458.313 418.056 454.813C414.362 452.092 411.057 448.884 408.043 445.384C403.232 439.795 397.108 435.567 390.206 432.942C392.588 432.456 395.018 432.262 397.399 432.262C400.316 432.262 403.329 432.553 406.099 433.282C406.099 433.088 406.099 432.991 406.099 432.796C406.099 429.005 407.995 425.457 411.203 423.464C414.216 424.777 416.403 427.45 416.938 430.658C417.035 426.429 418.153 422.347 420.048 418.653C421.458 415.737 423.937 413.55 426.853 412.334C428.359 411.751 429.963 411.314 431.567 411.314C434.192 411.314 436.67 412.091 438.76 413.695C441.579 415.688 443.475 418.799 443.767 422.201C445.079 422.492 446.148 423.221 447.071 424.193C448.384 425.797 449.064 427.79 449.064 429.929C449.064 430.415 449.064 430.949 448.967 431.533C448.87 432.31 448.773 433.136 448.773 433.914C448.773 435.615 449.064 437.316 449.55 439.017C450.231 440.621 451.835 441.739 453.681 441.739C454.799 441.739 455.869 441.35 456.695 440.524C456.695 442.128 455.917 443.635 454.702 444.655C453.39 445.773 451.689 446.356 449.988 446.356C449.89 446.356 449.696 446.356 449.599 446.356C449.113 449.856 447.801 453.161 445.808 456.174C442.697 454.182 440.219 451.363 438.469 448.058C437.691 448.349 436.865 448.446 436.087 448.446C434.192 448.446 432.393 447.766 430.984 446.551C433.9 446.356 436.379 444.169 436.913 441.35C436.913 441.059 436.913 440.864 436.913 440.573C436.913 439.163 436.622 437.851 436.136 436.684C434.921 434.692 434.338 432.456 434.24 430.074C434.24 429.977 434.24 429.783 434.24 429.686C434.24 427.79 435.018 425.895 436.33 424.485C436.913 423.999 437.545 423.464 438.226 423.173C438.129 420.986 437.205 418.847 435.601 417.243C434.289 416.125 432.685 415.542 430.984 415.542C430.206 415.542 429.477 415.639 428.797 415.931C425.686 417.049 423.305 419.528 422.284 422.638C421.361 425.02 420.972 427.644 420.972 430.269C420.972 431.192 421.069 432.067 421.166 433.088C422.867 432.31 424.763 431.776 426.658 431.776C427.339 431.776 428.068 431.873 428.651 431.97C426.124 435.178 424.763 439.163 424.763 443.294C424.763 446.405 425.54 449.516 427.144 452.335C432.053 457.827 439.052 461.035 446.488 461.035C450.474 461.035 454.508 460.111 458.104 458.216C461.215 451.022 462.819 443.294 462.819 435.469C462.819 427.936 461.312 420.451 458.396 413.404C457.181 415.591 455.188 417.195 452.661 417.729C452.758 416.806 452.758 415.834 452.758 414.91C452.758 412.82 452.564 410.682 452.175 408.592C451.689 405.093 450.474 401.788 448.773 398.677C444.058 391.046 438.76 383.853 432.831 377.146L400.656 377.146L400.656 401.204L376.5 401.204L376.646 432.748Z" fill="white"/>
<path d="M376.548 401.107L400.704 401.107L400.704 377.048L376.548 377.048L376.548 401.107Z" fill="#E6BB7B"/>
<path d="M376.549 393.574L393.074 393.574L393.074 377.049L376.549 377.049L376.549 393.574Z" fill="#602626"/>
<path d="M376.549 483.343L483.378 483.343L483.378 377.049L475.844 377.049L475.844 475.858L376.549 475.858L376.549 483.343Z" fill="#E6BB7B"/>
<path d="M376.549 0H500V122.868H376.549V0Z" fill="#602626"/>
<path d="M449.599 53.2689C449.113 49.7695 447.8 46.4646 445.808 43.4512C442.697 45.4439 440.218 48.2628 438.469 51.5678C440.996 52.3455 442.989 54.3869 443.669 56.9628C444.884 54.8729 447.071 53.512 449.599 53.2689Z" fill="#E6BB7B"/>
<path d="M397.594 41.6528C408.626 33.925 421.652 29.8423 435.066 29.8423C444.884 29.8423 454.605 32.0294 463.451 36.2578C467.776 45.055 469.963 54.6784 469.963 64.3989C469.963 73.0017 468.262 81.5558 464.957 89.4295C468.165 89.7211 471.081 91.6166 472.588 94.5328C472.491 94.5328 472.491 94.5328 472.393 94.5328C470.79 94.5328 469.186 94.8244 467.776 95.5534C463.791 96.8657 460.146 99.2472 457.57 102.552C452.661 109.454 447.363 116.161 441.822 122.674H432.782C438.712 115.967 444.009 108.725 448.724 101.143C450.425 98.0322 451.64 94.7272 452.126 91.2278C452.515 89.1379 452.709 86.9993 452.709 84.9094C452.709 83.986 452.709 83.0139 452.612 82.0904C454.994 82.5765 457.132 84.1804 458.347 86.4161C461.263 79.4173 462.77 71.981 462.77 64.3504C462.77 56.5253 461.166 48.7002 458.056 41.6042C454.459 39.8059 450.425 38.7852 446.44 38.7852C439.003 38.7852 432.004 41.993 427.096 47.4852C425.589 50.2069 424.714 53.3175 424.714 56.5253C424.714 60.6565 426.124 64.642 428.602 67.8497C427.922 67.9469 427.29 68.0442 426.61 68.0442C424.714 68.0442 422.818 67.6554 421.117 66.7319C421.02 67.6554 420.923 68.5302 420.923 69.5508C420.923 72.1754 421.409 74.6542 422.235 77.1815C423.256 80.2921 425.637 82.7708 428.748 83.8887C429.429 84.0831 430.255 84.2776 430.935 84.2776C432.636 84.2776 434.24 83.6943 435.552 82.5765C437.156 80.9726 438.08 78.8827 438.177 76.6469C438.858 76.9385 439.684 77.2301 440.461 77.3273C441.045 77.4245 441.579 77.4246 442.162 77.4246C442.746 77.4246 443.28 77.4245 443.864 77.3273C443.475 80.7295 441.676 83.8401 438.857 85.8328C436.768 87.4367 434.24 88.2144 431.664 88.2144C430.06 88.2144 428.456 87.9228 426.95 87.1937C423.936 85.9787 421.555 83.7915 420.145 80.8753C418.25 77.1815 417.132 73.0503 417.035 68.8705C416.452 72.0782 414.313 74.8 411.3 76.0636C408.092 73.9737 406.196 70.4743 406.196 66.7319C406.196 66.5375 406.196 66.4403 406.196 66.2459C403.28 66.9263 400.364 67.2665 397.496 67.2665C395.115 67.2665 392.685 67.0721 390.303 66.5861C397.205 63.9615 403.329 59.6845 408.14 54.1437C411.057 50.6443 414.459 47.4365 418.153 44.7148C422.964 41.2154 428.165 38.2992 433.803 36.2093C422.187 36.7925 411.154 40.7293 401.919 47.4365C393.317 53.6577 384.86 60.0733 376.646 66.6833V57.7404C383.353 52.1996 390.352 46.7561 397.594 41.6528Z" fill="#B0B461"/>
<path d="M436.087 63.2326C436.573 62.0175 436.865 60.608 436.865 59.3444C436.865 59.0527 436.865 58.8583 436.865 58.5667C436.379 55.6505 433.851 53.4634 430.935 53.3662C432.345 52.1512 434.24 51.4707 436.039 51.4707C439.538 51.4707 442.649 53.8522 443.669 57.3031C444.884 55.2131 447.071 53.8037 449.599 53.6092C449.696 53.6092 449.89 53.6092 449.988 53.6092C451.689 53.6092 453.39 54.1925 454.702 55.3103C456.014 56.331 456.695 57.8377 456.695 59.4416C455.917 58.6639 454.799 58.2265 453.681 58.2265C451.883 58.2265 450.279 59.3444 449.55 60.9483C449.064 62.5522 448.773 64.2533 448.773 66.0516C448.773 66.8292 448.87 67.6555 448.967 68.4331C449.064 68.9192 449.064 69.4538 449.064 70.037C449.064 72.1269 448.384 74.1683 447.071 75.7722C446.148 76.7928 445.079 77.4733 443.766 77.7649C443.183 77.8621 442.649 77.8621 442.065 77.8621C441.482 77.8621 440.85 77.8621 440.364 77.7649C439.587 77.6677 438.76 77.4732 438.08 77.0844C437.399 76.7928 436.67 76.3068 436.184 75.7722C434.775 74.3627 434.094 72.4672 434.094 70.5717C434.094 70.4745 434.094 70.3772 434.094 70.3772C434.143 67.5097 434.872 65.2253 436.087 63.2326Z" fill="#C0834B"/>
<path d="M397.594 41.6526C390.4 46.756 383.256 52.1509 376.548 57.7888V24.0098H475.844V122.82H441.774C447.266 116.307 452.515 109.6 457.521 102.698C460.145 99.3929 463.742 96.8655 467.728 95.6991C469.234 95.1158 470.741 94.6784 472.345 94.6784C472.345 94.6784 472.442 94.6784 472.539 94.6784C471.033 91.8595 468.116 89.9639 464.909 89.5751C468.214 81.6528 469.915 73.1473 469.915 64.5446C469.915 54.824 467.728 45.1034 463.402 36.4035C454.605 32.1751 444.884 29.9879 435.018 29.9879C421.652 29.8421 408.626 34.0706 397.594 41.6526Z" fill="white"/>
<path d="M376.646 67.1205C384.86 60.5105 393.268 54.0949 401.919 47.8738C411.154 41.1666 422.138 37.2298 433.706 36.5493C428.214 38.6392 422.867 41.5554 418.056 45.0548C414.362 47.7766 411.057 50.9843 408.043 54.4837C403.232 60.0731 397.108 64.3016 390.206 66.9261C392.588 67.4122 395.018 67.6065 397.399 67.6065C400.316 67.6065 403.329 67.3149 406.099 66.5859C406.099 66.7803 406.099 66.8775 406.099 67.0719C406.099 70.8629 407.995 74.411 411.203 76.4037C414.216 75.0914 416.403 72.4182 416.938 69.2105C417.035 73.4389 418.153 77.5215 420.048 81.2154C421.458 84.1315 423.937 86.3187 426.853 87.5337C428.359 88.117 429.963 88.5544 431.567 88.5544C434.192 88.5544 436.67 87.7768 438.76 86.1729C441.579 84.1802 443.475 81.0696 443.767 77.6674C445.079 77.3758 446.148 76.6467 447.071 75.6747C448.384 74.0708 449.064 72.078 449.064 69.9395C449.064 69.4535 449.064 68.9188 448.967 68.3356C448.87 67.5579 448.773 66.7317 448.773 65.9541C448.773 64.253 449.064 62.5519 449.55 60.8508C450.231 59.2469 451.835 58.129 453.681 58.129C454.799 58.129 455.869 58.5178 456.695 59.344C456.695 57.7401 455.917 56.2335 454.702 55.2128C453.39 54.0949 451.689 53.5117 449.988 53.5117C449.89 53.5117 449.696 53.5117 449.599 53.5117C449.113 50.0123 447.801 46.7073 445.808 43.6939C442.697 45.6866 440.219 48.5056 438.469 51.8106C437.691 51.519 436.865 51.4218 436.087 51.4218C434.192 51.4218 432.393 52.1023 430.984 53.3173C433.9 53.5117 436.379 55.6988 436.913 58.5178C436.913 58.8094 436.913 59.0038 436.913 59.2954C436.913 60.7049 436.622 62.0172 436.136 63.1837C434.921 65.1764 434.338 67.4121 434.24 69.7937C434.24 69.8909 434.24 70.0853 434.24 70.1825C434.24 72.078 435.018 73.9735 436.33 75.383C436.913 75.869 437.545 76.4037 438.226 76.6953C438.129 78.8824 437.205 81.021 435.601 82.6248C434.289 83.7427 432.685 84.3259 430.984 84.3259C430.206 84.3259 429.477 84.2288 428.797 83.9372C425.686 82.8193 423.305 80.3405 422.284 77.2299C421.361 74.8484 420.972 72.2239 420.972 69.5993C420.972 68.6758 421.069 67.801 421.166 66.7803C422.867 67.558 424.763 68.0926 426.658 68.0926C427.339 68.0926 428.068 67.9954 428.651 67.8982C426.124 64.6904 424.763 60.7049 424.763 56.5737C424.763 53.4631 425.54 50.3525 427.144 47.5336C432.053 42.0414 439.052 38.8336 446.488 38.8336C450.474 38.8336 454.508 39.7571 458.104 41.6526C461.215 48.8459 462.819 56.5737 462.819 64.3988C462.819 71.9322 461.312 79.4171 458.396 86.4645C457.181 84.2774 455.188 82.6734 452.661 82.1388C452.758 83.0623 452.758 84.0344 452.758 84.9578C452.758 87.0477 452.564 89.1863 452.175 91.2762C451.689 94.7756 450.474 98.0806 448.773 101.191C444.058 108.822 438.76 116.015 432.831 122.722H400.656V98.6638H376.5L376.646 67.1205Z" fill="white"/>
<path d="M376.548 98.7612H400.704V122.82H376.548V98.7612Z" fill="#E6BB7B"/>
<path d="M376.549 106.294H393.074V122.819H376.549V106.294Z" fill="#602626"/>
<path d="M376.549 16.5249H483.378V122.82H475.844V24.0098H376.549V16.5249Z" fill="#E6BB7B"/>
<path d="M123.451 499.868L0 499.868L1.07415e-05 377L123.451 377L123.451 499.868Z" fill="#602626"/>
<path d="M50.4014 446.599C50.8874 450.099 52.1997 453.404 54.1924 456.417C57.303 454.424 59.7817 451.605 61.5314 448.3C59.0041 447.523 57.0114 445.481 56.331 442.905C55.1159 444.995 52.9287 446.356 50.4014 446.599Z" fill="#E6BB7B"/>
<path d="M102.406 458.215C91.3735 465.943 78.3479 470.026 64.9335 470.026C55.1157 470.026 45.3952 467.839 36.5494 463.61C32.2238 454.813 30.0367 445.19 30.0367 435.469C30.0367 426.866 31.7377 418.312 35.0427 410.439C31.835 410.147 28.9188 408.252 27.4121 405.335C27.5093 405.335 27.5093 405.335 27.6065 405.335C29.2104 405.335 30.8143 405.044 32.2238 404.315C36.2093 403.002 39.8545 400.621 42.4304 397.316C47.3393 390.414 52.637 383.707 58.1777 377.194L67.2179 377.194C61.2884 383.902 55.9906 391.143 51.2761 398.725C49.575 401.836 48.36 405.141 47.8739 408.64C47.4851 410.73 47.2907 412.869 47.2907 414.959C47.2907 415.882 47.2907 416.854 47.3879 417.778C45.0064 417.292 42.8678 415.688 41.6527 413.452C38.7366 420.451 37.2299 427.887 37.2299 435.518C37.2299 443.343 38.8338 451.168 41.9444 458.264C45.541 460.062 49.575 461.083 53.5604 461.083C60.9967 461.083 67.9955 457.875 72.9044 452.383C74.4111 449.661 75.286 446.551 75.286 443.343C75.286 439.212 73.8765 435.226 71.3978 432.018C72.0782 431.921 72.71 431.824 73.3905 431.824C75.286 431.824 77.1815 432.213 78.8826 433.136C78.9798 432.213 79.077 431.338 79.077 430.317C79.077 427.693 78.591 425.214 77.7647 422.687C76.7441 419.576 74.3625 417.097 71.2519 415.979C70.5715 415.785 69.7452 415.591 69.0648 415.591C67.3637 415.591 65.7598 416.174 64.4475 417.292C62.8436 418.896 61.9201 420.986 61.8229 423.221C61.1425 422.93 60.3163 422.638 59.5386 422.541C58.9554 422.444 58.4208 422.444 57.8375 422.444C57.2543 422.444 56.7197 422.444 56.1364 422.541C56.5252 419.139 58.3236 416.028 61.1426 414.035C63.2325 412.431 65.7598 411.654 68.3357 411.654C69.9396 411.654 71.5436 411.945 73.0503 412.674C76.0636 413.89 78.4452 416.077 79.8547 418.993C81.7502 422.687 82.868 426.818 82.9652 430.998C83.5484 427.79 85.687 425.068 88.7004 423.805C91.9082 425.894 93.8037 429.394 93.8037 433.136C93.8037 433.331 93.8037 433.428 93.8037 433.622C96.7199 432.942 99.636 432.602 102.504 432.602C104.885 432.602 107.315 432.796 109.697 433.282C102.795 435.907 96.6713 440.184 91.8596 445.724C88.9434 449.224 85.5412 452.432 81.8474 455.153C77.0357 458.653 71.8351 461.569 66.1972 463.659C77.8133 463.076 88.8462 459.139 98.0808 452.432C106.683 446.21 115.14 439.795 123.354 433.185L123.354 442.128C116.647 447.669 109.648 453.112 102.406 458.215Z" fill="#B0B461"/>
<path d="M63.9128 436.636C63.4268 437.851 63.1352 439.26 63.1352 440.524C63.1352 440.815 63.1352 441.01 63.1352 441.301C63.6212 444.218 66.1485 446.405 69.0647 446.502C67.6552 447.717 65.7597 448.397 63.9614 448.397C60.462 448.397 57.3514 446.016 56.3308 442.565C55.1157 444.655 52.9285 446.065 50.4012 446.259C50.304 446.259 50.1096 446.259 50.0124 446.259C48.3113 446.259 46.6102 445.676 45.2979 444.558C43.9856 443.537 43.3052 442.03 43.3052 440.427C44.0828 441.204 45.2007 441.642 46.3186 441.642C48.1169 441.642 49.7208 440.524 50.4498 438.92C50.9359 437.316 51.2275 435.615 51.2275 433.817C51.2275 433.039 51.1303 432.213 51.0331 431.435C50.9358 430.949 50.9359 430.414 50.9359 429.831C50.9359 427.741 51.6163 425.7 52.9286 424.096C53.852 423.075 54.9213 422.395 56.2335 422.103C56.8168 422.006 57.3514 422.006 57.9346 422.006C58.5179 422.006 59.1497 422.006 59.6357 422.103C60.4134 422.201 61.2397 422.395 61.9201 422.784C62.6006 423.075 63.3296 423.561 63.8156 424.096C65.2251 425.505 65.9055 427.401 65.9055 429.296C65.9055 429.394 65.9055 429.491 65.9055 429.491C65.8569 432.358 65.1279 434.643 63.9128 436.636Z" fill="#C0834B"/>
<path d="M102.406 458.216C109.6 453.112 116.744 447.717 123.452 442.079L123.452 475.858L24.1558 475.858L24.1558 377.049L58.2265 377.049C52.7343 383.561 47.4852 390.269 42.4791 397.17C39.8545 400.475 36.2579 403.003 32.2725 404.169C30.7658 404.752 29.2591 405.19 27.6552 405.19C27.6552 405.19 27.558 405.19 27.4608 405.19C28.9675 408.009 31.8836 409.904 35.0914 410.293C31.7864 418.215 30.0854 426.721 30.0854 435.324C30.0854 445.044 32.2725 454.765 36.5982 463.465C45.3953 467.693 55.1158 469.88 64.9822 469.88C78.348 470.026 91.3736 465.798 102.406 458.216Z" fill="white"/>
<path d="M123.354 432.748C115.14 439.358 106.732 445.773 98.0806 451.994C88.8461 458.702 77.8618 462.638 66.2943 463.319C71.7864 461.229 77.1327 458.313 81.9444 454.813C85.6383 452.092 88.9432 448.884 91.9566 445.384C96.7683 439.795 102.892 435.567 109.794 432.942C107.412 432.456 104.982 432.262 102.601 432.262C99.6845 432.262 96.6711 432.553 93.9007 433.282C93.9007 433.088 93.9007 432.991 93.9007 432.796C93.9007 429.005 92.0052 425.457 88.7974 423.464C85.784 424.777 83.597 427.45 83.0623 430.658C82.9651 426.429 81.8472 422.347 79.9517 418.653C78.5422 415.737 76.0635 413.55 73.1473 412.334C71.6406 411.751 70.0368 411.314 68.4329 411.314C65.8083 411.314 63.3295 412.091 61.2396 413.695C58.4206 415.688 56.5251 418.799 56.2335 422.201C54.9212 422.492 53.852 423.221 52.9285 424.194C51.6162 425.797 50.9358 427.79 50.9358 429.929C50.9358 430.415 50.9358 430.949 51.033 431.533C51.1302 432.31 51.2274 433.136 51.2274 433.914C51.2274 435.615 50.9358 437.316 50.4498 439.017C49.7693 440.621 48.1654 441.739 46.3185 441.739C45.2007 441.739 44.1314 441.35 43.3051 440.524C43.3051 442.128 44.0827 443.635 45.2978 444.655C46.6101 445.773 48.3112 446.356 50.0123 446.356C50.1095 446.356 50.3039 446.356 50.4011 446.356C50.8872 449.856 52.1995 453.161 54.1922 456.174C57.3028 454.182 59.7815 451.363 61.5312 448.058C62.3089 448.349 63.1351 448.446 63.9128 448.446C65.8083 448.446 67.6066 447.766 69.0161 446.551C66.0999 446.356 63.6212 444.169 63.0865 441.35C63.0865 441.059 63.0865 440.864 63.0865 440.573C63.0865 439.163 63.3781 437.851 63.8642 436.684C65.0792 434.692 65.6625 432.456 65.7597 430.075C65.7597 429.977 65.7597 429.783 65.7597 429.686C65.7597 427.79 64.982 425.895 63.6697 424.485C63.0865 423.999 62.4547 423.464 61.7742 423.173C61.8714 420.986 62.7949 418.847 64.3988 417.243C65.7111 416.125 67.315 415.542 69.0161 415.542C69.7937 415.542 70.5228 415.639 71.2032 415.931C74.3138 417.049 76.6953 419.528 77.716 422.638C78.6395 425.02 79.0283 427.644 79.0283 430.269C79.0283 431.192 78.931 432.067 78.8338 433.088C77.1327 432.31 75.2373 431.776 73.3417 431.776C72.6613 431.776 71.9323 431.873 71.349 431.97C73.8764 435.178 75.2373 439.163 75.2373 443.294C75.2373 446.405 74.4596 449.516 72.8557 452.335C67.9468 457.827 60.948 461.035 53.5117 461.035C49.5263 461.035 45.4922 460.111 41.8956 458.216C38.785 451.022 37.1812 443.294 37.1812 435.469C37.1812 427.936 38.6878 420.451 41.604 413.404C42.8191 415.591 44.8118 417.195 47.3392 417.729C47.242 416.806 47.2419 415.834 47.2419 414.91C47.2419 412.82 47.4364 410.682 47.8252 408.592C48.3112 405.093 49.5263 401.788 51.2274 398.677C55.9419 391.046 61.2396 383.853 67.1691 377.146L99.3443 377.146L99.3443 401.204L123.5 401.204L123.354 432.748Z" fill="white"/>
<path d="M123.452 401.107L99.2959 401.107L99.2959 377.048L123.452 377.048L123.452 401.107Z" fill="#E6BB7B"/>
<path d="M123.451 393.574L106.926 393.574L106.926 377.049L123.451 377.049L123.451 393.574Z" fill="#602626"/>
<path d="M123.451 483.343L16.6221 483.343L16.6221 377.049L24.1555 377.049L24.1555 475.858L123.451 475.858L123.451 483.343Z" fill="#E6BB7B"/>
<path d="M249 0H125.549V122.819H249V0Z" fill="white"/>
<path d="M249 0H125.549V122.819H249V0Z" fill="#602626"/>
<path d="M249 98.7808H125.549V106.274H249V98.7808Z" fill="#E6BB7B"/>
<path d="M249 16.4956H125.549V23.9893H249V16.4956Z" fill="#E6BB7B"/>
<path d="M212.408 94.5473C214.597 88.0268 218.928 82.3335 224.621 78.392C229.731 74.8885 235.132 71.9688 240.777 69.5845C243.502 68.4653 246.081 67.3948 248.903 66.4702V98.7321H125.549V66.7622C131.777 71.2876 137.957 75.8617 144.088 80.4844C151.387 86.0804 159.806 89.9246 168.857 91.6277C172.847 92.4062 176.983 92.8442 181.07 92.8442C188.661 92.8442 196.204 91.433 203.308 88.854C205.401 88.0754 207.396 87.1509 209.342 86.0317C209.147 86.713 209.05 87.4428 209.05 88.1241C209.001 90.6544 210.315 93.1361 212.408 94.5473Z" fill="white"/>
<path d="M161.217 47.8819C160.195 45.0595 158.2 42.6752 155.621 41.1667C152.312 43.2591 150.414 46.9573 150.414 50.8988C150.414 51.0934 150.414 51.3854 150.414 51.58C145.597 48.3684 139.904 46.568 134.064 46.568C133.48 46.568 132.945 46.568 132.361 46.568C140.39 51.0935 147.495 56.7867 153.48 63.6965C156.594 67.2 159.903 70.5089 163.407 73.5258C169.927 79.1218 177.859 83.0633 186.374 84.6691C183.893 85.5936 181.265 86.0802 178.637 86.0802C177.323 86.0802 175.912 85.9829 174.647 85.6909C166.618 84.1825 159.027 81.2629 152.215 76.8834C147.787 74.0611 143.602 71.1902 139.368 68.0759C134.746 64.6697 130.172 61.2635 125.549 57.8572V24.0869H249V57.5653C239.706 61.5554 230.266 65.4969 220.826 69.2924C217.225 70.8009 213.332 71.4821 209.293 71.5794C209.196 71.5794 209.001 71.5794 208.904 71.5794C205.011 71.5794 201.167 70.2656 198.101 67.9786C198.101 68.2706 198.101 68.6598 198.101 69.0005C198.101 72.796 200.097 76.2995 203.405 78.2946C200.291 79.9004 196.788 80.679 193.284 80.679C185.985 80.679 179.173 77.1754 174.939 71.2388C172.749 68.2219 171.63 64.621 171.63 60.9229C171.63 58.5385 172.117 56.2028 173.041 54.013C172.36 53.9157 171.728 53.9157 171.046 53.9157C169.051 53.9157 167.056 54.2077 165.012 54.6943C166.132 48.5631 169.538 43.0645 174.647 39.3663C182.141 34.6462 190.9 32.2619 199.805 32.2619C204.914 32.2619 210.023 33.0405 214.841 34.6463C218.052 35.5708 220.972 37.4685 222.967 40.0475C223.551 41.1667 223.891 42.4319 223.891 43.7457C223.891 45.3515 223.405 47.0546 222.383 48.3685C221.166 49.585 219.463 50.2662 217.663 50.2662C217.079 50.2662 216.446 50.1689 215.862 50.0716C215.765 48.4658 215.181 46.9573 214.159 45.7408C212.748 44.135 210.753 43.2591 208.758 43.2591C208.563 43.2591 208.466 43.2591 208.271 43.2591C206.082 43.2591 203.941 43.7457 202.043 44.6703C201.021 45.0596 199.951 45.1569 198.831 45.1569C198.345 45.1569 197.712 45.1568 197.226 45.0595C194.403 44.3783 192.408 41.7507 192.408 38.831V38.7337C190.9 40.2421 190.121 42.2372 190.121 44.3296C190.121 44.9135 190.218 45.5462 190.316 46.1301C186.91 47.5412 183.893 49.7309 181.606 52.7479C184.428 54.9376 187.639 56.4461 191.143 57.2733C191.143 57.5653 191.046 57.9546 191.046 58.2952C191.046 59.8037 191.532 61.3121 192.457 62.626C193.381 63.9398 194.744 64.8157 196.35 64.913C195.766 64.1344 195.425 63.1125 195.425 62.0907C195.425 60.1929 196.642 58.4898 198.442 57.9059C199.659 57.6139 200.924 57.5166 202.238 57.5166C203.551 57.5166 204.719 57.6139 206.033 57.9059C206.714 58.1005 207.542 58.1978 208.32 58.1978C210.121 58.1978 211.921 57.7113 213.429 56.5921C214.549 55.8135 215.23 54.6943 215.619 53.4778C215.814 53.4778 216.008 53.4778 216.203 53.4778C217.517 53.4778 218.928 53.3804 220.193 53.0885C223.989 52.1639 226.811 48.7578 226.908 44.8649C226.908 44.6703 226.908 44.573 226.908 44.3783C226.908 39.8529 224.427 35.6681 220.485 33.5757C213.673 30.1695 206.033 28.4663 198.442 28.4663C189.148 28.4663 179.902 31.094 171.971 36.0574C167.543 38.9283 163.845 43.0645 161.217 47.8819Z" fill="white"/>
<path d="M174.842 71.19C179.026 77.0779 185.839 80.6301 193.187 80.6301C196.69 80.6301 200.194 79.8515 203.308 78.2457C199.999 76.2506 198.004 72.7471 198.004 68.9516C198.004 68.6596 198.004 68.2703 198.004 67.9297C201.118 70.314 204.914 71.5306 208.807 71.5306C208.904 71.5306 209.099 71.5306 209.196 71.5306C213.089 71.4332 217.03 70.606 220.728 69.2435C230.168 65.448 239.56 61.6525 248.903 57.5164V66.6159C246.178 67.5404 243.501 68.611 240.776 69.7301C235.083 72.1145 229.633 75.0341 224.621 78.5377C218.928 82.4305 214.597 88.0751 212.407 94.6929C210.315 93.1844 209.001 90.8001 209.001 88.1724C209.001 87.4912 209.098 86.7613 209.293 86.08C207.395 87.1992 205.4 88.1724 203.259 88.9023C196.155 91.6273 188.612 92.8925 181.021 92.8925C176.934 92.8925 172.798 92.5032 168.808 91.676C159.806 89.8755 151.29 86.08 144.04 80.5327C137.908 75.8127 131.729 71.3359 125.5 66.8105V57.9057C130.123 61.3119 134.697 64.7181 139.32 68.1243C143.407 71.2386 147.738 74.1582 152.166 76.9318C158.978 81.3599 166.618 84.3283 174.598 85.7394C175.912 85.9341 177.226 86.1287 178.588 86.1287C181.216 86.1287 183.892 85.6421 186.325 84.7175C177.81 83.1117 169.878 79.2189 163.358 73.5743C159.854 70.5574 156.545 67.2484 153.431 63.7449C147.397 56.8351 140.293 51.1419 132.312 46.6165C132.896 46.6165 133.432 46.6165 134.016 46.6165C139.806 46.6165 145.548 48.3195 150.365 51.6285C150.365 51.4338 150.365 51.1419 150.365 50.9473C150.365 47.0544 152.36 43.4536 155.572 41.2152C158.2 42.7237 160.195 45.108 161.168 47.9303C163.796 43.2102 167.494 39.1228 171.873 36.0085C179.805 30.9965 189.002 28.4175 198.345 28.4175C205.936 28.4175 213.478 30.2179 220.388 33.5268C224.378 35.7165 226.811 39.8526 226.811 44.3294C226.811 44.524 226.811 44.7187 226.811 44.816C226.714 48.7088 223.891 52.1151 220.096 53.0396C218.782 53.2343 217.468 53.4289 216.106 53.4289C215.911 53.4289 215.716 53.4289 215.522 53.4289C215.716 52.6504 215.814 51.8231 215.814 50.9473C215.814 50.6553 215.814 50.3633 215.814 50.0227C216.398 50.2173 217.03 50.2174 217.614 50.2174C219.317 50.2174 221.02 49.5361 222.334 48.3196C223.259 46.9084 223.843 45.3026 223.843 43.6968C223.843 42.383 223.551 41.0692 222.918 39.9987C220.923 37.371 218.003 35.4732 214.792 34.5973C209.974 32.9915 204.865 32.213 199.756 32.213C190.851 32.213 182.141 34.6947 174.598 39.3174C169.586 43.0156 166.18 48.5142 164.964 54.6454C166.959 54.1588 168.954 53.8669 170.997 53.8669C171.679 53.8669 172.311 53.8669 172.993 53.9642C172.068 56.1539 171.581 58.4896 171.581 60.8739C171.533 64.6208 172.749 68.2217 174.842 71.19Z" fill="#B0B461"/>
<path d="M249 106.274H125.549V122.819H249V106.274Z" fill="#602626"/>
<path d="M215.813 49.9744C215.813 50.2664 215.813 50.5583 215.813 50.8989C215.813 51.6775 215.716 52.6021 215.521 53.3807C215.132 54.6945 214.305 55.6676 213.332 56.4949C211.823 57.5167 210.023 58.1007 208.222 58.1007C207.444 58.1007 206.714 58.0034 205.935 57.8087C204.719 57.5168 203.454 57.4194 202.14 57.4194C200.826 57.4194 199.658 57.5168 198.344 57.8087C196.544 58.3927 195.327 60.0958 195.327 61.9935C195.327 63.0154 195.619 63.9886 196.252 64.8158C194.646 64.7185 193.235 63.7939 192.359 62.5288C191.435 61.3123 190.948 59.8038 190.948 58.198C190.948 57.906 190.948 57.5168 191.045 57.1761C191.337 54.7918 192.943 52.6507 195.23 51.5802C192.116 50.461 190.023 47.4927 190.023 44.1838C190.023 42.0914 190.802 40.0964 192.31 38.5879V38.6852C192.31 41.6048 194.306 44.0865 197.128 44.9137C197.614 45.0111 198.247 45.011 198.734 45.011C199.853 45.011 200.923 44.8164 201.945 44.5244C203.843 43.5999 206.033 43.1133 208.174 43.1133C208.368 43.1133 208.466 43.1133 208.66 43.1133C210.753 43.2106 212.748 44.1352 214.062 45.595C215.132 46.8602 215.716 48.3686 215.813 49.9744Z" fill="#C0834B"/>
<path d="M190.997 57.0788C187.493 56.3002 184.282 54.7917 181.459 52.5533C183.649 49.6337 186.666 47.3467 190.17 45.9355C190.754 48.5632 192.651 50.6556 195.182 51.5315C192.992 52.5534 191.386 54.6944 190.997 57.0788Z" fill="#E6BB7B"/>
<path d="M251 499.868L374.451 499.868L374.451 377.049L251 377.049L251 499.868Z" fill="white"/>
<path d="M251 499.868L374.451 499.868L374.451 377.049L251 377.049L251 499.868Z" fill="#602626"/>
<path d="M251 401.087L374.451 401.087L374.451 393.594L251 393.594L251 401.087Z" fill="#E6BB7B"/>
<path d="M251 483.373L374.451 483.373L374.451 475.879L251 475.879L251 483.373Z" fill="#E6BB7B"/>
<path d="M287.592 405.321C285.403 411.841 281.072 417.535 275.379 421.476C270.269 424.98 264.868 427.899 259.223 430.284C256.498 431.403 253.919 432.473 251.097 433.398L251.097 401.136L374.451 401.136L374.451 433.106C368.223 428.581 362.043 424.006 355.912 419.384C348.613 413.788 340.194 409.944 331.143 408.24C327.153 407.462 323.017 407.024 318.93 407.024C311.339 407.024 303.796 408.435 296.692 411.014C294.599 411.793 292.604 412.717 290.658 413.836C290.853 413.155 290.95 412.425 290.95 411.744C290.999 409.214 289.685 406.732 287.592 405.321Z" fill="white"/>
<path d="M338.783 451.986C339.805 454.809 341.8 457.193 344.379 458.701C347.688 456.609 349.586 452.911 349.586 448.969C349.586 448.775 349.586 448.483 349.586 448.288C354.403 451.5 360.096 453.3 365.936 453.3C366.52 453.3 367.055 453.3 367.639 453.3C359.61 448.775 352.505 443.081 346.52 436.172C343.406 432.668 340.097 429.359 336.593 426.342C330.073 420.746 322.141 416.805 313.626 415.199C316.107 414.275 318.735 413.788 321.363 413.788C322.677 413.788 324.088 413.885 325.353 414.177C333.382 415.686 340.973 418.605 347.785 422.985C352.213 425.807 356.398 428.678 360.632 431.792C365.254 435.198 369.828 438.605 374.451 442.011L374.451 475.781L251 475.781L251 442.303C260.294 438.313 269.734 434.371 279.174 430.576C282.775 429.067 286.668 428.386 290.707 428.289C290.804 428.289 290.999 428.289 291.096 428.289C294.989 428.289 298.833 429.603 301.899 431.89C301.899 431.598 301.899 431.208 301.899 430.868C301.899 427.072 299.903 423.569 296.595 421.574C299.709 419.968 303.212 419.189 306.716 419.189C314.015 419.189 320.827 422.693 325.061 428.629C327.251 431.646 328.37 435.247 328.37 438.945C328.37 441.33 327.883 443.665 326.959 445.855C327.64 445.952 328.272 445.952 328.954 445.952C330.949 445.952 332.944 445.66 334.988 445.174C333.868 451.305 330.462 456.804 325.353 460.502C317.859 465.222 309.1 467.606 300.195 467.606C295.086 467.606 289.977 466.828 285.159 465.222C281.948 464.297 279.028 462.4 277.033 459.821C276.449 458.701 276.109 457.436 276.109 456.122C276.109 454.517 276.595 452.814 277.617 451.5C278.834 450.283 280.537 449.602 282.337 449.602C282.921 449.602 283.554 449.699 284.138 449.797C284.235 451.402 284.819 452.911 285.841 454.127C287.252 455.733 289.247 456.609 291.242 456.609C291.437 456.609 291.534 456.609 291.729 456.609C293.918 456.609 296.059 456.122 297.957 455.198C298.979 454.809 300.049 454.711 301.169 454.711C301.655 454.711 302.288 454.711 302.774 454.809C305.597 455.49 307.592 458.118 307.592 461.037L307.592 461.134C309.1 459.626 309.879 457.631 309.879 455.539C309.879 454.955 309.782 454.322 309.684 453.738C313.09 452.327 316.107 450.137 318.394 447.12C315.572 444.931 312.361 443.422 308.857 442.595C308.857 442.303 308.954 441.914 308.954 441.573C308.954 440.065 308.468 438.556 307.543 437.242C306.619 435.928 305.256 435.052 303.65 434.955C304.234 435.734 304.575 436.756 304.575 437.778C304.575 439.675 303.358 441.378 301.558 441.962C300.341 442.254 299.076 442.352 297.762 442.352C296.449 442.352 295.281 442.254 293.967 441.962C293.286 441.768 292.458 441.67 291.68 441.67C289.879 441.67 288.079 442.157 286.571 443.276C285.451 444.055 284.77 445.174 284.381 446.39C284.186 446.39 283.992 446.39 283.797 446.39C282.483 446.39 281.072 446.488 279.807 446.78C276.011 447.704 273.189 451.11 273.092 455.003C273.092 455.198 273.092 455.295 273.092 455.49C273.092 460.015 275.573 464.2 279.515 466.292C286.327 469.699 293.967 471.402 301.558 471.402C310.852 471.402 320.098 468.774 328.029 463.811C332.457 460.94 336.155 456.804 338.783 451.986Z" fill="white"/>
<path d="M325.158 428.678C320.974 422.79 314.161 419.238 306.813 419.238C303.31 419.238 299.806 420.017 296.692 421.622C300.001 423.618 301.996 427.121 301.996 430.917C301.996 431.209 301.996 431.598 301.996 431.938C298.882 429.554 295.086 428.338 291.193 428.338C291.096 428.338 290.901 428.338 290.804 428.338C286.911 428.435 282.97 429.262 279.272 430.625C269.832 434.42 260.44 438.216 251.097 442.352L251.097 433.252C253.822 432.328 256.499 431.257 259.224 430.138C264.917 427.754 270.367 424.834 275.379 421.33C281.072 417.438 285.403 411.793 287.593 405.175C289.685 406.684 290.999 409.068 290.999 411.696C290.999 412.377 290.902 413.107 290.707 413.788C292.605 412.669 294.6 411.696 296.741 410.966C303.845 408.241 311.388 406.976 318.979 406.976C323.066 406.976 327.202 407.365 331.192 408.192C340.194 409.993 348.71 413.788 355.96 419.335C362.092 424.055 368.271 428.532 374.5 433.058L374.5 441.963C369.877 438.556 365.303 435.15 360.68 431.744C356.593 428.63 352.262 425.71 347.834 422.936C341.022 418.508 333.382 415.54 325.402 414.129C324.088 413.934 322.774 413.739 321.412 413.739C318.784 413.739 316.108 414.226 313.675 415.151C322.19 416.756 330.122 420.649 336.642 426.294C340.146 429.311 343.455 432.62 346.569 436.123C352.603 443.033 359.707 448.726 367.688 453.252C367.104 453.252 366.568 453.252 365.984 453.252C360.194 453.252 354.452 451.549 349.635 448.24C349.635 448.434 349.635 448.726 349.635 448.921C349.635 452.814 347.64 456.415 344.428 458.653C341.8 457.145 339.805 454.76 338.832 451.938C336.204 456.658 332.506 460.745 328.127 463.86C320.195 468.872 310.998 471.451 301.655 471.451C294.064 471.451 286.522 469.65 279.612 466.341C275.622 464.152 273.189 460.016 273.189 455.539C273.189 455.344 273.189 455.149 273.189 455.052C273.286 451.159 276.109 447.753 279.904 446.829C281.218 446.634 282.532 446.439 283.894 446.439C284.089 446.439 284.284 446.439 284.478 446.439C284.284 447.218 284.186 448.045 284.186 448.921C284.186 449.213 284.186 449.505 284.186 449.845C283.602 449.651 282.97 449.651 282.386 449.651C280.683 449.651 278.98 450.332 277.666 451.549C276.741 452.96 276.157 454.566 276.157 456.171C276.157 457.485 276.449 458.799 277.082 459.869C279.077 462.497 281.997 464.395 285.208 465.271C290.026 466.877 295.135 467.655 300.244 467.655C309.149 467.655 317.859 465.173 325.402 460.551C330.414 456.853 333.82 451.354 335.036 445.223C333.041 445.709 331.046 446.001 329.003 446.001C328.321 446.001 327.689 446.001 327.007 445.904C327.932 443.714 328.419 441.379 328.419 438.994C328.467 435.247 327.251 431.646 325.158 428.678Z" fill="#B0B461"/>
<path d="M251 393.594L374.451 393.594L374.451 377.049L251 377.049L251 393.594Z" fill="#602626"/>
<path d="M284.187 449.894C284.187 449.602 284.187 449.31 284.187 448.969C284.187 448.191 284.284 447.266 284.479 446.488C284.868 445.174 285.695 444.201 286.668 443.373C288.177 442.351 289.977 441.767 291.778 441.767C292.556 441.767 293.286 441.865 294.065 442.059C295.281 442.351 296.546 442.449 297.86 442.449C299.174 442.449 300.342 442.351 301.656 442.059C303.456 441.475 304.673 439.772 304.673 437.875C304.673 436.853 304.381 435.88 303.748 435.052C305.354 435.15 306.765 436.074 307.641 437.339C308.565 438.556 309.052 440.064 309.052 441.67C309.052 441.962 309.052 442.351 308.955 442.692C308.663 445.076 307.057 447.217 304.77 448.288C307.884 449.407 309.977 452.375 309.977 455.684C309.977 457.777 309.198 459.772 307.69 461.28L307.69 461.183C307.69 458.263 305.694 455.782 302.872 454.954C302.386 454.857 301.753 454.857 301.266 454.857C300.147 454.857 299.077 455.052 298.055 455.344C296.157 456.268 293.967 456.755 291.826 456.755C291.632 456.755 291.534 456.755 291.34 456.755C289.247 456.658 287.252 455.733 285.938 454.273C284.868 453.008 284.284 451.5 284.187 449.894Z" fill="#C0834B"/>
<path d="M309.003 442.789C312.507 443.568 315.718 445.076 318.541 447.315C316.351 450.234 313.334 452.521 309.83 453.933C309.246 451.305 307.349 449.213 304.818 448.337C307.008 447.315 308.614 445.174 309.003 442.789Z" fill="#E6BB7B"/>
<path d="M499.819 248.5L499.819 125.049L377 125.049L377 248.5L499.819 248.5Z" fill="white"/>
<path d="M499.819 248.5L499.819 125.049L377 125.049L377 248.5L499.819 248.5Z" fill="#602626"/>
<path d="M401.038 248.5L401.038 125.049L393.544 125.049L393.544 248.5L401.038 248.5Z" fill="#E6BB7B"/>
<path d="M483.323 248.5L483.323 125.049L475.83 125.049L475.83 248.5L483.323 248.5Z" fill="#E6BB7B"/>
<path d="M405.272 211.908C411.792 214.097 417.485 218.428 421.427 224.121C424.93 229.231 427.85 234.632 430.234 240.277C431.354 243.002 432.424 245.581 433.349 248.403L401.087 248.403L401.087 125.049L433.057 125.049C428.531 131.277 423.957 137.457 419.334 143.588C413.738 150.887 409.894 159.306 408.191 168.357C407.413 172.347 406.975 176.483 406.975 180.57C406.975 188.161 408.386 195.704 410.965 202.808C411.743 204.901 412.668 206.896 413.787 208.842C413.106 208.647 412.376 208.55 411.695 208.55C409.164 208.501 406.683 209.815 405.272 211.908Z" fill="white"/>
<path d="M451.937 160.717C454.759 159.695 457.144 157.7 458.652 155.121C456.56 151.812 452.862 149.914 448.92 149.914C448.725 149.914 448.433 149.914 448.239 149.914C451.45 145.097 453.251 139.404 453.251 133.564C453.251 132.98 453.251 132.445 453.251 131.861C448.725 139.89 443.032 146.995 436.122 152.98C432.619 156.094 429.31 159.403 426.293 162.907C420.697 169.427 416.756 177.359 415.15 185.874C414.225 183.393 413.739 180.765 413.739 178.137C413.739 176.823 413.836 175.412 414.128 174.147C415.636 166.118 418.556 158.527 422.935 151.715C425.758 147.287 428.629 143.102 431.743 138.868C435.149 134.246 438.555 129.672 441.962 125.049L475.732 125.049L475.732 248.5L442.254 248.5C438.263 239.206 434.322 229.766 430.526 220.326C429.018 216.725 428.337 212.832 428.239 208.793C428.239 208.696 428.239 208.501 428.239 208.404C428.239 204.511 429.553 200.667 431.84 197.601C431.548 197.601 431.159 197.601 430.818 197.601C427.023 197.601 423.519 199.597 421.524 202.905C419.918 199.791 419.14 196.288 419.14 192.784C419.14 185.485 422.643 178.673 428.58 174.439C431.597 172.249 435.198 171.13 438.896 171.13C441.28 171.13 443.616 171.617 445.806 172.541C445.903 171.86 445.903 171.228 445.903 170.546C445.903 168.551 445.611 166.556 445.125 164.512C451.256 165.632 456.754 169.038 460.453 174.147C465.173 181.641 467.557 190.4 467.557 199.305C467.557 204.414 466.778 209.523 465.173 214.341C464.248 217.552 462.35 220.472 459.771 222.467C458.652 223.051 457.387 223.391 456.073 223.391C454.467 223.391 452.764 222.905 451.45 221.883C450.234 220.666 449.553 218.963 449.553 217.163C449.553 216.579 449.65 215.946 449.747 215.362C451.353 215.265 452.862 214.681 454.078 213.659C455.684 212.248 456.56 210.253 456.56 208.258C456.56 208.063 456.56 207.966 456.56 207.771C456.56 205.582 456.073 203.441 455.149 201.543C454.759 200.521 454.662 199.451 454.662 198.331C454.662 197.845 454.662 197.212 454.759 196.726C455.441 193.903 458.068 191.908 460.988 191.908L461.085 191.908C459.577 190.4 457.582 189.621 455.489 189.621C454.905 189.621 454.273 189.718 453.689 189.816C452.278 186.41 450.088 183.393 447.071 181.106C444.881 183.928 443.373 187.139 442.546 190.643C442.254 190.643 441.864 190.546 441.524 190.546C440.015 190.546 438.507 191.032 437.193 191.957C435.879 192.881 435.003 194.244 434.906 195.85C435.684 195.266 436.706 194.925 437.728 194.925C439.626 194.925 441.329 196.142 441.913 197.942C442.205 199.159 442.302 200.424 442.302 201.738C442.302 203.051 442.205 204.219 441.913 205.533C441.718 206.214 441.621 207.042 441.621 207.82C441.621 209.621 442.108 211.421 443.227 212.929C444.005 214.049 445.125 214.73 446.341 215.119C446.341 215.314 446.341 215.508 446.341 215.703C446.341 217.017 446.438 218.428 446.73 219.693C447.655 223.489 451.061 226.311 454.954 226.408C455.149 226.408 455.246 226.408 455.441 226.408C459.966 226.408 464.151 223.927 466.243 219.985C469.649 213.173 471.352 205.533 471.352 197.942C471.352 188.648 468.725 179.402 463.761 171.471C460.891 167.043 456.754 163.345 451.937 160.717Z" fill="white"/>
<path d="M428.629 174.342C422.741 178.526 419.189 185.339 419.189 192.687C419.189 196.19 419.967 199.694 421.573 202.808C423.568 199.499 427.072 197.504 430.867 197.504C431.159 197.504 431.549 197.504 431.889 197.504C429.505 200.618 428.288 204.414 428.288 208.307C428.288 208.404 428.288 208.599 428.288 208.696C428.386 212.589 429.213 216.53 430.575 220.228C434.371 229.668 438.166 239.06 442.302 248.403L433.203 248.403C432.278 245.678 431.208 243.001 430.089 240.276C427.704 234.583 424.785 229.133 421.281 224.121C417.388 218.428 411.744 214.097 405.126 211.907C406.634 209.815 409.019 208.501 411.646 208.501C412.328 208.501 413.058 208.598 413.739 208.793C412.62 206.895 411.646 204.9 410.916 202.759C408.192 195.655 406.926 188.112 406.926 180.521C406.926 176.434 407.316 172.298 408.143 168.308C409.943 159.306 413.739 150.79 419.286 143.54C424.006 137.408 428.483 131.229 433.008 125L441.913 125C438.507 129.623 435.101 134.197 431.695 138.82C428.58 142.907 425.661 147.238 422.887 151.666C418.459 158.478 415.491 166.118 414.079 174.098C413.885 175.412 413.69 176.726 413.69 178.088C413.69 180.716 414.177 183.392 415.101 185.825C416.707 177.31 420.6 169.378 426.245 162.858C429.261 159.354 432.57 156.045 436.074 152.931C442.984 146.897 448.677 139.793 453.202 131.812C453.202 132.396 453.202 132.932 453.202 133.516C453.202 139.306 451.499 145.048 448.19 149.865C448.385 149.865 448.677 149.865 448.872 149.865C452.764 149.865 456.365 151.86 458.604 155.072C457.095 157.7 454.711 159.695 451.889 160.668C456.609 163.296 460.696 166.994 463.81 171.373C468.822 179.305 471.401 188.502 471.401 197.845C471.401 205.436 469.601 212.978 466.292 219.888C464.102 223.878 459.966 226.311 455.489 226.311C455.295 226.311 455.1 226.311 455.003 226.311C451.11 226.214 447.704 223.391 446.779 219.596C446.585 218.282 446.39 216.968 446.39 215.606C446.39 215.411 446.39 215.216 446.39 215.022C447.168 215.216 447.996 215.314 448.872 215.314C449.164 215.314 449.456 215.314 449.796 215.314C449.602 215.898 449.601 216.53 449.601 217.114C449.601 218.817 450.283 220.52 451.499 221.834C452.91 222.759 454.516 223.343 456.122 223.343C457.436 223.343 458.75 223.051 459.82 222.418C462.448 220.423 464.346 217.503 465.222 214.292C466.827 209.474 467.606 204.365 467.606 199.256C467.606 190.351 465.124 181.641 460.501 174.098C456.803 169.086 451.305 165.68 445.173 164.464C445.66 166.459 445.952 168.454 445.952 170.497C445.952 171.179 445.952 171.811 445.855 172.493C443.665 171.568 441.329 171.081 438.945 171.081C435.198 171.033 431.597 172.249 428.629 174.342Z" fill="#B0B461"/>
<path d="M393.544 248.5L393.544 125.049L377 125.049L377 248.5L393.544 248.5Z" fill="#602626"/>
<path d="M449.844 215.313C449.552 215.313 449.261 215.313 448.92 215.313C448.141 215.313 447.217 215.216 446.438 215.021C445.124 214.632 444.151 213.805 443.324 212.832C442.302 211.323 441.718 209.523 441.718 207.722C441.718 206.944 441.815 206.214 442.01 205.435C442.302 204.219 442.399 202.954 442.399 201.64C442.399 200.326 442.302 199.158 442.01 197.844C441.426 196.044 439.723 194.827 437.825 194.827C436.803 194.827 435.83 195.119 435.003 195.752C435.1 194.146 436.025 192.735 437.29 191.859C438.507 190.935 440.015 190.448 441.621 190.448C441.913 190.448 442.302 190.448 442.643 190.545C445.027 190.837 447.168 192.443 448.239 194.73C449.358 191.616 452.326 189.523 455.635 189.523C457.727 189.523 459.722 190.302 461.231 191.81L461.134 191.81C458.214 191.81 455.732 193.806 454.905 196.628C454.808 197.114 454.808 197.747 454.808 198.234C454.808 199.353 455.002 200.423 455.294 201.445C456.219 203.343 456.706 205.533 456.706 207.674C456.706 207.868 456.706 207.966 456.706 208.16C456.608 210.253 455.684 212.248 454.224 213.562C452.959 214.632 451.45 215.216 449.844 215.313Z" fill="#C0834B"/>
<path d="M442.74 190.497C443.519 186.993 445.027 183.782 447.266 180.959C450.185 183.149 452.472 186.166 453.883 189.67C451.256 190.254 449.163 192.151 448.287 194.682C447.265 192.492 445.124 190.886 442.74 190.497Z" fill="#E6BB7B"/>
<path d="M1.00002 250.5L1 373.951L123.819 373.951L123.819 250.5L1.00002 250.5Z" fill="white"/>
<path d="M1.00002 250.5L1 373.951L123.819 373.951L123.819 250.5L1.00002 250.5Z" fill="#602626"/>
<path d="M99.7808 250.5L99.7808 373.951L107.274 373.951L107.274 250.5L99.7808 250.5Z" fill="#E6BB7B"/>
<path d="M17.4956 250.5L17.4956 373.951L24.9893 373.951L24.9893 250.5L17.4956 250.5Z" fill="#E6BB7B"/>
<path d="M95.5473 287.092C89.0268 284.903 83.3335 280.572 79.392 274.879C75.8885 269.769 72.9689 264.368 70.5845 258.723C69.4653 255.998 68.3948 253.419 67.4702 250.597L99.7321 250.597L99.7321 373.951L67.7622 373.951C72.2876 367.723 76.8617 361.543 81.4844 355.412C87.0804 348.113 90.9246 339.694 92.6277 330.643C93.4062 326.653 93.8442 322.517 93.8442 318.43C93.8442 310.839 92.433 303.296 89.854 296.192C89.0754 294.099 88.1509 292.104 87.0317 290.158C87.713 290.353 88.4428 290.45 89.1241 290.45C91.6544 290.499 94.1361 289.185 95.5473 287.092Z" fill="white"/>
<path d="M48.8819 338.283C46.0596 339.305 43.6752 341.3 42.1667 343.879C44.2591 347.188 47.9573 349.086 51.8988 349.086C52.0934 349.086 52.3854 349.086 52.58 349.086C49.3684 353.903 47.568 359.596 47.568 365.436C47.568 366.02 47.568 366.555 47.568 367.139C52.0935 359.11 57.7867 352.005 64.6965 346.02C68.2 342.906 71.5089 339.597 74.5258 336.093C80.1218 329.573 84.0633 321.641 85.6691 313.126C86.5936 315.607 87.0803 318.235 87.0803 320.863C87.0803 322.177 86.9829 323.588 86.6909 324.853C85.1825 332.882 82.2629 340.473 77.8834 347.285C75.0611 351.713 72.1902 355.898 69.0759 360.132C65.6697 364.754 62.2635 369.328 58.8572 373.951L25.0869 373.951L25.0869 250.5L58.5653 250.5C62.5554 259.794 66.4969 269.234 70.2924 278.674C71.8009 282.275 72.4821 286.168 72.5794 290.207C72.5794 290.304 72.5794 290.499 72.5794 290.596C72.5794 294.489 71.2657 298.333 68.9786 301.399C69.2706 301.399 69.6599 301.399 70.0005 301.399C73.796 301.399 77.2995 299.403 79.2946 296.095C80.9004 299.209 81.679 302.712 81.679 306.216C81.679 313.515 78.1754 320.327 72.2388 324.561C69.2219 326.751 65.621 327.87 61.9229 327.87C59.5385 327.87 57.2028 327.383 55.0131 326.459C54.9157 327.14 54.9158 327.772 54.9158 328.454C54.9158 330.449 55.2077 332.444 55.6943 334.488C49.5631 333.368 44.0645 329.962 40.3663 324.853C35.6462 317.359 33.2619 308.6 33.2619 299.695C33.2619 294.586 34.0405 289.477 35.6463 284.659C36.5708 281.448 38.4686 278.528 41.0476 276.533C42.1667 275.949 43.4319 275.609 44.7457 275.609C46.3515 275.609 48.0546 276.095 49.3685 277.117C50.585 278.334 51.2662 280.037 51.2662 281.837C51.2662 282.421 51.1689 283.054 51.0716 283.638C49.4658 283.735 47.9573 284.319 46.7408 285.341C45.135 286.752 44.2591 288.747 44.2591 290.742C44.2591 290.937 44.2591 291.034 44.2591 291.229C44.2591 293.418 44.7457 295.559 45.6703 297.457C46.0596 298.479 46.1569 299.549 46.1569 300.669C46.1569 301.155 46.1569 301.788 46.0595 302.274C45.3783 305.097 42.7507 307.092 39.831 307.092L39.7337 307.092C41.2422 308.6 43.2372 309.379 45.3296 309.379C45.9136 309.379 46.5462 309.282 47.1301 309.184C48.5412 312.59 50.731 315.607 53.7479 317.894C55.9376 315.072 57.4461 311.861 58.2733 308.357C58.5653 308.357 58.9546 308.454 59.2952 308.454C60.8037 308.454 62.3121 307.968 63.626 307.043C64.9398 306.119 65.8157 304.756 65.913 303.15C65.1344 303.734 64.1125 304.075 63.0907 304.075C61.1929 304.075 59.4898 302.858 58.9059 301.058C58.6139 299.841 58.5166 298.576 58.5166 297.262C58.5166 295.949 58.6139 294.781 58.9059 293.467C59.1005 292.786 59.1978 291.958 59.1978 291.18C59.1978 289.379 58.7113 287.579 57.5921 286.071C56.8135 284.951 55.6943 284.27 54.4778 283.881C54.4778 283.686 54.4778 283.492 54.4778 283.297C54.4778 281.983 54.3805 280.572 54.0885 279.307C53.164 275.511 49.7578 272.689 45.8649 272.592C45.6703 272.592 45.573 272.592 45.3783 272.592C40.8529 272.592 36.6681 275.073 34.5757 279.015C31.1695 285.827 29.4664 293.467 29.4664 301.058C29.4664 310.352 32.094 319.598 37.0574 327.529C39.9283 331.957 44.0645 335.655 48.8819 338.283Z" fill="white"/>
<path d="M72.19 324.658C78.0779 320.474 81.6301 313.661 81.6301 306.313C81.6301 302.81 80.8515 299.306 79.2457 296.192C77.2506 299.501 73.7471 301.496 69.9516 301.496C69.6596 301.496 69.2703 301.496 68.9297 301.496C71.314 298.382 72.5306 294.586 72.5306 290.693C72.5306 290.596 72.5306 290.401 72.5306 290.304C72.4333 286.411 71.606 282.47 70.2436 278.772C66.4481 269.332 62.6526 259.94 58.5164 250.597L67.6159 250.597C68.5404 253.322 69.611 255.999 70.7302 258.724C73.1145 264.417 76.0341 269.867 79.5377 274.879C83.4305 280.572 89.0751 284.903 95.6929 287.093C94.1844 289.185 91.8001 290.499 89.1725 290.499C88.4912 290.499 87.7613 290.402 87.08 290.207C88.1992 292.105 89.1725 294.1 89.9024 296.241C92.6273 303.345 93.8925 310.888 93.8925 318.479C93.8925 322.566 93.5032 326.702 92.676 330.692C90.8755 339.694 87.08 348.21 81.5327 355.46C76.8127 361.592 72.3359 367.771 67.8105 374L58.9057 374C62.3119 369.377 65.7181 364.803 69.1243 360.18C72.2386 356.093 75.1582 351.762 77.9319 347.334C82.3599 340.522 85.3283 332.882 86.7394 324.902C86.9341 323.588 87.1287 322.274 87.1287 320.912C87.1287 318.284 86.6421 315.608 85.7175 313.175C84.1117 321.69 80.2189 329.622 74.5743 336.142C71.5574 339.646 68.2485 342.955 64.7449 346.069C57.8351 352.103 52.1419 359.207 47.6165 367.188C47.6165 366.604 47.6165 366.068 47.6165 365.484C47.6165 359.694 49.3196 353.952 52.6285 349.135C52.4338 349.135 52.1419 349.135 51.9473 349.135C48.0544 349.135 44.4536 347.14 42.2152 343.928C43.7237 341.3 46.108 339.305 48.9303 338.332C44.2102 335.704 40.1228 332.006 37.0085 327.627C31.9965 319.695 29.4175 310.498 29.4175 301.155C29.4175 293.564 31.2179 286.022 34.5268 279.112C36.7165 275.122 40.8527 272.689 45.3294 272.689C45.5241 272.689 45.7187 272.689 45.816 272.689C49.7088 272.786 53.1151 275.609 54.0396 279.404C54.2343 280.718 54.4289 282.032 54.4289 283.394C54.4289 283.589 54.4289 283.784 54.4289 283.978C53.6504 283.784 52.8232 283.686 51.9473 283.686C51.6553 283.686 51.3633 283.686 51.0227 283.686C51.2174 283.102 51.2174 282.47 51.2174 281.886C51.2174 280.183 50.5361 278.48 49.3196 277.166C47.9084 276.241 46.3027 275.657 44.6969 275.657C43.383 275.657 42.0692 275.949 40.9987 276.582C38.371 278.577 36.4732 281.497 35.5973 284.708C33.9915 289.526 33.213 294.635 33.213 299.744C33.213 308.649 35.6947 317.359 40.3174 324.902C44.0156 329.914 49.5142 333.32 55.6454 334.536C55.1588 332.541 54.8669 330.546 54.8669 328.503C54.8669 327.821 54.8669 327.189 54.9642 326.507C57.1539 327.432 59.4896 327.919 61.8739 327.919C65.6208 327.967 69.2217 326.751 72.19 324.658Z" fill="#B0B461"/>
<path d="M107.274 250.5L107.274 373.951L123.819 373.951L123.819 250.5L107.274 250.5Z" fill="#602626"/>
<path d="M50.9744 283.687C51.2664 283.687 51.5583 283.687 51.8989 283.687C52.6775 283.687 53.6021 283.784 54.3807 283.979C55.6945 284.368 56.6677 285.195 57.4949 286.168C58.5167 287.677 59.1007 289.477 59.1007 291.278C59.1007 292.056 59.0034 292.786 58.8087 293.565C58.5168 294.781 58.4194 296.046 58.4194 297.36C58.4194 298.674 58.5168 299.842 58.8087 301.156C59.3927 302.956 61.0958 304.173 62.9935 304.173C64.0154 304.173 64.9886 303.881 65.8158 303.248C65.7185 304.854 64.7939 306.265 63.5288 307.141C62.3123 308.065 60.8038 308.552 59.198 308.552C58.906 308.552 58.5168 308.552 58.1761 308.455C55.7918 308.163 53.6507 306.557 52.5802 304.27C51.461 307.384 48.4927 309.477 45.1838 309.477C43.0914 309.477 41.0964 308.698 39.5879 307.19L39.6852 307.19C42.6048 307.19 45.0865 305.194 45.9137 302.372C46.0111 301.886 46.011 301.253 46.011 300.766C46.011 299.647 45.8164 298.577 45.5244 297.555C44.5999 295.657 44.1133 293.467 44.1133 291.326C44.1133 291.132 44.1133 291.034 44.1133 290.84C44.2106 288.747 45.1352 286.752 46.595 285.438C47.8602 284.368 49.3686 283.784 50.9744 283.687Z" fill="#C0834B"/>
<path d="M58.0788 308.503C57.3002 312.007 55.7917 315.218 53.5533 318.041C50.6337 315.851 48.3467 312.834 46.9355 309.33C49.5632 308.746 51.6556 306.849 52.5315 304.318C53.5534 306.508 55.6944 308.114 58.0788 308.503Z" fill="#E6BB7B"/>
<path d="M251 0H374.451V122.819H251V0Z" fill="white"/>
<path d="M251 0H374.451V122.819H251V0Z" fill="#602626"/>
<path d="M251 98.7808H374.451V106.274H251V98.7808Z" fill="#E6BB7B"/>
<path d="M251 16.4956H374.451V23.9893H251V16.4956Z" fill="#E6BB7B"/>
<path d="M287.592 94.5473C285.403 88.0268 281.072 82.3335 275.379 78.392C270.269 74.8885 264.868 71.9688 259.223 69.5845C256.498 68.4653 253.919 67.3948 251.097 66.4702V98.7321H374.451V66.7622C368.223 71.2876 362.043 75.8617 355.912 80.4844C348.613 86.0804 340.194 89.9246 331.143 91.6277C327.153 92.4062 323.017 92.8442 318.93 92.8442C311.339 92.8442 303.796 91.433 296.692 88.854C294.599 88.0754 292.604 87.1509 290.658 86.0317C290.853 86.713 290.95 87.4428 290.95 88.1241C290.999 90.6544 289.685 93.1361 287.592 94.5473Z" fill="white"/>
<path d="M338.783 47.8819C339.805 45.0595 341.8 42.6752 344.379 41.1667C347.688 43.2591 349.586 46.9573 349.586 50.8988C349.586 51.0934 349.586 51.3854 349.586 51.58C354.403 48.3684 360.096 46.568 365.936 46.568C366.52 46.568 367.055 46.568 367.639 46.568C359.61 51.0935 352.505 56.7867 346.52 63.6965C343.406 67.2 340.097 70.5089 336.593 73.5258C330.073 79.1218 322.141 83.0633 313.626 84.6691C316.107 85.5936 318.735 86.0802 321.363 86.0802C322.677 86.0802 324.088 85.9829 325.353 85.6909C333.382 84.1825 340.973 81.2629 347.785 76.8834C352.213 74.0611 356.398 71.1902 360.632 68.0759C365.254 64.6697 369.828 61.2635 374.451 57.8572V24.0869H251V57.5653C260.294 61.5554 269.734 65.4969 279.174 69.2924C282.775 70.8009 286.668 71.4821 290.707 71.5794C290.804 71.5794 290.999 71.5794 291.096 71.5794C294.989 71.5794 298.833 70.2656 301.899 67.9786C301.899 68.2706 301.899 68.6598 301.899 69.0005C301.899 72.796 299.903 76.2995 296.595 78.2946C299.709 79.9004 303.212 80.679 306.716 80.679C314.015 80.679 320.827 77.1754 325.061 71.2388C327.251 68.2219 328.37 64.621 328.37 60.9229C328.37 58.5385 327.883 56.2028 326.959 54.013C327.64 53.9157 328.272 53.9157 328.954 53.9157C330.949 53.9157 332.944 54.2077 334.988 54.6943C333.868 48.5631 330.462 43.0645 325.353 39.3663C317.859 34.6462 309.1 32.2619 300.195 32.2619C295.086 32.2619 289.977 33.0405 285.159 34.6463C281.948 35.5708 279.028 37.4685 277.033 40.0475C276.449 41.1667 276.109 42.4319 276.109 43.7457C276.109 45.3515 276.595 47.0546 277.617 48.3685C278.834 49.585 280.537 50.2662 282.337 50.2662C282.921 50.2662 283.554 50.1689 284.138 50.0716C284.235 48.4658 284.819 46.9573 285.841 45.7408C287.252 44.135 289.247 43.2591 291.242 43.2591C291.437 43.2591 291.534 43.2591 291.729 43.2591C293.918 43.2591 296.059 43.7457 297.957 44.6703C298.979 45.0596 300.049 45.1569 301.169 45.1569C301.655 45.1569 302.288 45.1568 302.774 45.0595C305.597 44.3783 307.592 41.7507 307.592 38.831V38.7337C309.1 40.2421 309.879 42.2372 309.879 44.3296C309.879 44.9135 309.782 45.5462 309.684 46.1301C313.09 47.5412 316.107 49.7309 318.394 52.7479C315.572 54.9376 312.361 56.4461 308.857 57.2733C308.857 57.5653 308.954 57.9546 308.954 58.2952C308.954 59.8037 308.468 61.3121 307.543 62.626C306.619 63.9398 305.256 64.8157 303.65 64.913C304.234 64.1344 304.575 63.1125 304.575 62.0907C304.575 60.1929 303.358 58.4898 301.558 57.9059C300.341 57.6139 299.076 57.5166 297.762 57.5166C296.449 57.5166 295.281 57.6139 293.967 57.9059C293.286 58.1005 292.458 58.1978 291.68 58.1978C289.879 58.1978 288.079 57.7113 286.571 56.5921C285.451 55.8135 284.77 54.6943 284.381 53.4778C284.186 53.4778 283.992 53.4778 283.797 53.4778C282.483 53.4778 281.072 53.3804 279.807 53.0885C276.011 52.1639 273.189 48.7578 273.092 44.8649C273.092 44.6703 273.092 44.573 273.092 44.3783C273.092 39.8529 275.573 35.6681 279.515 33.5757C286.327 30.1695 293.967 28.4663 301.558 28.4663C310.852 28.4663 320.098 31.094 328.029 36.0574C332.457 38.9283 336.155 43.0645 338.783 47.8819Z" fill="white"/>
<path d="M325.158 71.19C320.974 77.0779 314.161 80.6301 306.813 80.6301C303.31 80.6301 299.806 79.8515 296.692 78.2457C300.001 76.2506 301.996 72.7471 301.996 68.9516C301.996 68.6596 301.996 68.2703 301.996 67.9297C298.882 70.314 295.086 71.5306 291.193 71.5306C291.096 71.5306 290.901 71.5306 290.804 71.5306C286.911 71.4332 282.97 70.606 279.272 69.2435C269.832 65.448 260.44 61.6525 251.097 57.5164V66.6159C253.822 67.5404 256.499 68.611 259.224 69.7301C264.917 72.1145 270.367 75.0341 275.379 78.5377C281.072 82.4305 285.403 88.0751 287.593 94.6929C289.685 93.1844 290.999 90.8001 290.999 88.1724C290.999 87.4912 290.902 86.7613 290.707 86.08C292.605 87.1992 294.6 88.1724 296.741 88.9023C303.845 91.6273 311.388 92.8925 318.979 92.8925C323.066 92.8925 327.202 92.5032 331.192 91.676C340.194 89.8755 348.71 86.08 355.96 80.5327C362.092 75.8127 368.271 71.3359 374.5 66.8105V57.9057C369.877 61.3119 365.303 64.7181 360.68 68.1243C356.593 71.2386 352.262 74.1582 347.834 76.9318C341.022 81.3599 333.382 84.3283 325.402 85.7394C324.088 85.9341 322.774 86.1287 321.412 86.1287C318.784 86.1287 316.108 85.6421 313.675 84.7175C322.19 83.1117 330.122 79.2189 336.642 73.5743C340.146 70.5574 343.455 67.2484 346.569 63.7449C352.603 56.8351 359.707 51.1419 367.688 46.6165C367.104 46.6165 366.568 46.6165 365.984 46.6165C360.194 46.6165 354.452 48.3195 349.635 51.6285C349.635 51.4338 349.635 51.1419 349.635 50.9473C349.635 47.0544 347.64 43.4536 344.428 41.2152C341.8 42.7237 339.805 45.108 338.832 47.9303C336.204 43.2102 332.506 39.1228 328.127 36.0085C320.195 30.9965 310.998 28.4175 301.655 28.4175C294.064 28.4175 286.522 30.2179 279.612 33.5268C275.622 35.7165 273.189 39.8526 273.189 44.3294C273.189 44.524 273.189 44.7187 273.189 44.816C273.286 48.7088 276.109 52.1151 279.904 53.0396C281.218 53.2343 282.532 53.4289 283.894 53.4289C284.089 53.4289 284.284 53.4289 284.478 53.4289C284.284 52.6504 284.186 51.8231 284.186 50.9473C284.186 50.6553 284.186 50.3633 284.186 50.0227C283.602 50.2173 282.97 50.2174 282.386 50.2174C280.683 50.2174 278.98 49.5361 277.666 48.3196C276.741 46.9084 276.157 45.3026 276.157 43.6968C276.157 42.383 276.449 41.0692 277.082 39.9987C279.077 37.371 281.997 35.4732 285.208 34.5973C290.026 32.9915 295.135 32.213 300.244 32.213C309.149 32.213 317.859 34.6947 325.402 39.3174C330.414 43.0156 333.82 48.5142 335.036 54.6454C333.041 54.1588 331.046 53.8669 329.003 53.8669C328.321 53.8669 327.689 53.8669 327.007 53.9642C327.932 56.1539 328.419 58.4896 328.419 60.8739C328.467 64.6208 327.251 68.2217 325.158 71.19Z" fill="#B0B461"/>
<path d="M251 106.274H374.451V122.819H251V106.274Z" fill="#602626"/>
<path d="M284.187 49.9744C284.187 50.2664 284.187 50.5583 284.187 50.8989C284.187 51.6775 284.284 52.6021 284.479 53.3807C284.868 54.6945 285.695 55.6676 286.668 56.4949C288.177 57.5167 289.977 58.1007 291.778 58.1007C292.556 58.1007 293.286 58.0034 294.065 57.8087C295.281 57.5168 296.546 57.4194 297.86 57.4194C299.174 57.4194 300.342 57.5168 301.656 57.8087C303.456 58.3927 304.673 60.0958 304.673 61.9935C304.673 63.0154 304.381 63.9886 303.748 64.8158C305.354 64.7185 306.765 63.7939 307.641 62.5288C308.565 61.3123 309.052 59.8038 309.052 58.198C309.052 57.906 309.052 57.5168 308.955 57.1761C308.663 54.7918 307.057 52.6507 304.77 51.5802C307.884 50.461 309.977 47.4927 309.977 44.1838C309.977 42.0914 309.198 40.0964 307.69 38.5879V38.6852C307.69 41.6048 305.694 44.0865 302.872 44.9137C302.386 45.0111 301.753 45.011 301.266 45.011C300.147 45.011 299.077 44.8164 298.055 44.5244C296.157 43.5999 293.967 43.1133 291.826 43.1133C291.632 43.1133 291.534 43.1133 291.34 43.1133C289.247 43.2106 287.252 44.1352 285.938 45.595C284.868 46.8602 284.284 48.3686 284.187 49.9744Z" fill="#C0834B"/>
<path d="M309.003 57.0788C312.507 56.3002 315.718 54.7917 318.541 52.5533C316.351 49.6337 313.334 47.3467 309.83 45.9355C309.246 48.5632 307.349 50.6556 304.818 51.5315C307.008 52.5534 308.614 54.6944 309.003 57.0788Z" fill="#E6BB7B"/>
<path d="M249 499.868L125.549 499.868L125.549 377.049L249 377.049L249 499.868Z" fill="white"/>
<path d="M249 499.868L125.549 499.868L125.549 377.049L249 377.049L249 499.868Z" fill="#602626"/>
<path d="M249 401.087L125.549 401.087L125.549 393.594L249 393.594L249 401.087Z" fill="#E6BB7B"/>
<path d="M249 483.373L125.549 483.373L125.549 475.879L249 475.879L249 483.373Z" fill="#E6BB7B"/>
<path d="M212.408 405.321C214.597 411.841 218.928 417.535 224.621 421.476C229.731 424.98 235.132 427.899 240.777 430.284C243.502 431.403 246.081 432.473 248.903 433.398L248.903 401.136L125.549 401.136L125.549 433.106C131.777 428.581 137.957 424.006 144.088 419.384C151.387 413.788 159.806 409.944 168.857 408.241C172.847 407.462 176.983 407.024 181.07 407.024C188.661 407.024 196.204 408.435 203.308 411.014C205.401 411.793 207.396 412.717 209.342 413.836C209.147 413.155 209.05 412.425 209.05 411.744C209.001 409.214 210.315 406.732 212.408 405.321Z" fill="white"/>
<path d="M161.217 451.986C160.195 454.809 158.2 457.193 155.621 458.701C152.312 456.609 150.414 452.911 150.414 448.969C150.414 448.775 150.414 448.483 150.414 448.288C145.597 451.5 139.904 453.3 134.064 453.3C133.48 453.3 132.945 453.3 132.361 453.3C140.39 448.775 147.495 443.081 153.48 436.172C156.594 432.668 159.903 429.359 163.407 426.342C169.927 420.746 177.859 416.805 186.374 415.199C183.893 414.275 181.265 413.788 178.637 413.788C177.323 413.788 175.912 413.885 174.647 414.177C166.618 415.686 159.027 418.605 152.215 422.985C147.787 425.807 143.602 428.678 139.368 431.792C134.746 435.198 130.172 438.605 125.549 442.011L125.549 475.781L249 475.781L249 442.303C239.706 438.313 230.266 434.371 220.826 430.576C217.225 429.067 213.332 428.386 209.293 428.289C209.196 428.289 209.001 428.289 208.904 428.289C205.011 428.289 201.167 429.603 198.101 431.89C198.101 431.598 198.101 431.208 198.101 430.868C198.101 427.072 200.097 423.569 203.405 421.574C200.291 419.968 196.788 419.189 193.284 419.189C185.985 419.189 179.173 422.693 174.939 428.629C172.749 431.646 171.63 435.247 171.63 438.945C171.63 441.33 172.117 443.665 173.041 445.855C172.36 445.952 171.728 445.952 171.046 445.952C169.051 445.952 167.056 445.66 165.012 445.174C166.132 451.305 169.538 456.804 174.647 460.502C182.141 465.222 190.9 467.606 199.805 467.606C204.914 467.606 210.023 466.828 214.841 465.222C218.052 464.297 220.972 462.4 222.967 459.821C223.551 458.701 223.891 457.436 223.891 456.122C223.891 454.517 223.405 452.814 222.383 451.5C221.166 450.283 219.463 449.602 217.663 449.602C217.079 449.602 216.446 449.699 215.862 449.797C215.765 451.402 215.181 452.911 214.159 454.127C212.748 455.733 210.753 456.609 208.758 456.609C208.563 456.609 208.466 456.609 208.271 456.609C206.082 456.609 203.941 456.122 202.043 455.198C201.021 454.809 199.951 454.711 198.831 454.711C198.345 454.711 197.712 454.711 197.226 454.809C194.403 455.49 192.408 458.118 192.408 461.037L192.408 461.134C190.9 459.626 190.121 457.631 190.121 455.539C190.121 454.955 190.218 454.322 190.316 453.738C186.91 452.327 183.893 450.137 181.606 447.12C184.428 444.931 187.639 443.422 191.143 442.595C191.143 442.303 191.046 441.914 191.046 441.573C191.046 440.065 191.532 438.556 192.457 437.242C193.381 435.928 194.744 435.053 196.35 434.955C195.766 435.734 195.425 436.756 195.425 437.778C195.425 439.675 196.642 441.378 198.442 441.962C199.659 442.254 200.924 442.352 202.238 442.352C203.551 442.352 204.719 442.254 206.033 441.962C206.714 441.768 207.542 441.67 208.32 441.67C210.121 441.67 211.921 442.157 213.429 443.276C214.549 444.055 215.23 445.174 215.619 446.39C215.814 446.39 216.008 446.39 216.203 446.39C217.517 446.39 218.928 446.488 220.193 446.78C223.989 447.704 226.811 451.11 226.908 455.003C226.908 455.198 226.908 455.295 226.908 455.49C226.908 460.015 224.427 464.2 220.485 466.292C213.673 469.699 206.033 471.402 198.442 471.402C189.148 471.402 179.902 468.774 171.971 463.811C167.543 460.94 163.845 456.804 161.217 451.986Z" fill="white"/>
<path d="M174.842 428.678C179.026 422.79 185.839 419.238 193.187 419.238C196.69 419.238 200.194 420.017 203.308 421.622C199.999 423.618 198.004 427.121 198.004 430.917C198.004 431.209 198.004 431.598 198.004 431.938C201.118 429.554 204.914 428.338 208.807 428.338C208.904 428.338 209.099 428.338 209.196 428.338C213.089 428.435 217.03 429.262 220.728 430.625C230.168 434.42 239.56 438.216 248.903 442.352L248.903 433.252C246.178 432.328 243.501 431.257 240.776 430.138C235.083 427.754 229.633 424.834 224.621 421.331C218.928 417.438 214.597 411.793 212.407 405.175C210.315 406.684 209.001 409.068 209.001 411.696C209.001 412.377 209.099 413.107 209.293 413.788C207.395 412.669 205.4 411.696 203.259 410.966C196.155 408.241 188.612 406.976 181.021 406.976C176.934 406.976 172.798 407.365 168.808 408.192C159.806 409.993 151.29 413.788 144.04 419.335C137.908 424.055 131.729 428.532 125.5 433.058L125.5 441.963C130.123 438.556 134.697 435.15 139.32 431.744C143.407 428.63 147.738 425.71 152.166 422.936C158.978 418.508 166.618 415.54 174.598 414.129C175.912 413.934 177.226 413.739 178.588 413.739C181.216 413.739 183.892 414.226 186.325 415.151C177.81 416.756 169.878 420.649 163.358 426.294C159.854 429.311 156.545 432.62 153.431 436.123C147.397 443.033 140.293 448.726 132.312 453.252C132.896 453.252 133.432 453.252 134.016 453.252C139.806 453.252 145.548 451.549 150.365 448.24C150.365 448.434 150.365 448.726 150.365 448.921C150.365 452.814 152.36 456.415 155.572 458.653C158.2 457.145 160.195 454.76 161.168 451.938C163.796 456.658 167.494 460.745 171.873 463.86C179.805 468.872 189.002 471.451 198.345 471.451C205.936 471.451 213.478 469.65 220.388 466.341C224.378 464.152 226.811 460.016 226.811 455.539C226.811 455.344 226.811 455.149 226.811 455.052C226.714 451.159 223.891 447.753 220.096 446.829C218.782 446.634 217.468 446.439 216.106 446.439C215.911 446.439 215.716 446.439 215.522 446.439C215.716 447.218 215.814 448.045 215.814 448.921C215.814 449.213 215.814 449.505 215.814 449.845C216.398 449.651 217.03 449.651 217.614 449.651C219.317 449.651 221.02 450.332 222.334 451.549C223.259 452.96 223.843 454.566 223.843 456.171C223.843 457.485 223.551 458.799 222.918 459.869C220.923 462.497 218.003 464.395 214.792 465.271C209.974 466.877 204.865 467.655 199.756 467.655C190.851 467.655 182.141 465.173 174.598 460.551C169.586 456.853 166.18 451.354 164.964 445.223C166.959 445.709 168.954 446.001 170.997 446.001C171.679 446.001 172.311 446.001 172.993 445.904C172.068 443.714 171.581 441.379 171.581 438.994C171.533 435.247 172.749 431.646 174.842 428.678Z" fill="#B0B461"/>
<path d="M249 393.594L125.549 393.594L125.549 377.049L249 377.049L249 393.594Z" fill="#602626"/>
<path d="M215.813 449.894C215.813 449.602 215.813 449.31 215.813 448.969C215.813 448.191 215.716 447.266 215.521 446.488C215.132 445.174 214.305 444.201 213.332 443.373C211.823 442.351 210.023 441.767 208.222 441.767C207.444 441.767 206.714 441.865 205.935 442.059C204.719 442.351 203.454 442.449 202.14 442.449C200.826 442.449 199.658 442.351 198.344 442.059C196.544 441.476 195.327 439.772 195.327 437.875C195.327 436.853 195.619 435.88 196.252 435.052C194.646 435.15 193.235 436.074 192.359 437.339C191.435 438.556 190.948 440.064 190.948 441.67C190.948 441.962 190.948 442.351 191.045 442.692C191.337 445.076 192.943 447.217 195.23 448.288C192.116 449.407 190.023 452.375 190.023 455.684C190.023 457.777 190.802 459.772 192.31 461.28L192.31 461.183C192.31 458.263 194.306 455.782 197.128 454.954C197.614 454.857 198.247 454.857 198.734 454.857C199.853 454.857 200.923 455.052 201.945 455.344C203.843 456.268 206.033 456.755 208.174 456.755C208.368 456.755 208.466 456.755 208.66 456.755C210.753 456.658 212.748 455.733 214.062 454.273C215.132 453.008 215.716 451.5 215.813 449.894Z" fill="#C0834B"/>
<path d="M190.997 442.789C187.493 443.568 184.282 445.076 181.459 447.315C183.649 450.234 186.666 452.521 190.17 453.933C190.754 451.305 192.651 449.213 195.182 448.337C192.992 447.315 191.386 445.174 190.997 442.789Z" fill="#E6BB7B"/>
<path d="M499.819 250.5L499.819 373.951L377 373.951L377 250.5L499.819 250.5Z" fill="white"/>
<path d="M499.819 250.5L499.819 373.951L377 373.951L377 250.5L499.819 250.5Z" fill="#602626"/>
<path d="M401.038 250.5L401.038 373.951L393.544 373.951L393.544 250.5L401.038 250.5Z" fill="#E6BB7B"/>
<path d="M483.323 250.5L483.323 373.951L475.83 373.951L475.83 250.5L483.323 250.5Z" fill="#E6BB7B"/>
<path d="M405.272 287.092C411.792 284.903 417.485 280.572 421.427 274.879C424.93 269.769 427.85 264.368 430.234 258.723C431.354 255.998 432.424 253.419 433.349 250.597L401.087 250.597L401.087 373.951L433.057 373.951C428.531 367.723 423.957 361.543 419.334 355.412C413.738 348.113 409.894 339.694 408.191 330.643C407.413 326.653 406.975 322.517 406.975 318.43C406.975 310.839 408.386 303.296 410.965 296.192C411.743 294.099 412.668 292.104 413.787 290.158C413.106 290.353 412.376 290.45 411.695 290.45C409.164 290.499 406.683 289.185 405.272 287.092Z" fill="white"/>
<path d="M451.937 338.283C454.759 339.305 457.144 341.3 458.652 343.879C456.56 347.188 452.862 349.086 448.92 349.086C448.725 349.086 448.433 349.086 448.239 349.086C451.45 353.903 453.251 359.596 453.251 365.436C453.251 366.02 453.251 366.555 453.251 367.139C448.725 359.11 443.032 352.005 436.122 346.02C432.619 342.906 429.31 339.597 426.293 336.093C420.697 329.573 416.756 321.641 415.15 313.126C414.225 315.607 413.739 318.235 413.739 320.863C413.739 322.177 413.836 323.588 414.128 324.853C415.636 332.882 418.556 340.473 422.935 347.285C425.758 351.713 428.629 355.898 431.743 360.132C435.149 364.754 438.555 369.328 441.962 373.951L475.732 373.951L475.732 250.5L442.254 250.5C438.263 259.794 434.322 269.234 430.526 278.674C429.018 282.275 428.337 286.168 428.239 290.207C428.239 290.304 428.239 290.499 428.239 290.596C428.239 294.489 429.553 298.333 431.84 301.399C431.548 301.399 431.159 301.399 430.818 301.399C427.023 301.399 423.519 299.403 421.524 296.095C419.918 299.209 419.14 302.712 419.14 306.216C419.14 313.515 422.643 320.327 428.58 324.561C431.597 326.751 435.198 327.87 438.896 327.87C441.28 327.87 443.616 327.383 445.806 326.459C445.903 327.14 445.903 327.772 445.903 328.454C445.903 330.449 445.611 332.444 445.125 334.488C451.256 333.368 456.754 329.962 460.453 324.853C465.173 317.359 467.557 308.6 467.557 299.695C467.557 294.586 466.778 289.477 465.173 284.659C464.248 281.448 462.35 278.528 459.771 276.533C458.652 275.949 457.387 275.609 456.073 275.609C454.467 275.609 452.764 276.095 451.45 277.117C450.234 278.334 449.553 280.037 449.553 281.837C449.553 282.421 449.65 283.054 449.747 283.638C451.353 283.735 452.862 284.319 454.078 285.341C455.684 286.752 456.56 288.747 456.56 290.742C456.56 290.937 456.56 291.034 456.56 291.229C456.56 293.418 456.073 295.559 455.149 297.457C454.759 298.479 454.662 299.549 454.662 300.669C454.662 301.155 454.662 301.788 454.759 302.274C455.441 305.097 458.068 307.092 460.988 307.092L461.085 307.092C459.577 308.6 457.582 309.379 455.489 309.379C454.905 309.379 454.273 309.282 453.689 309.184C452.278 312.59 450.088 315.607 447.071 317.894C444.881 315.072 443.373 311.861 442.546 308.357C442.254 308.357 441.864 308.454 441.524 308.454C440.015 308.454 438.507 307.968 437.193 307.043C435.879 306.119 435.003 304.756 434.906 303.15C435.684 303.734 436.706 304.075 437.728 304.075C439.626 304.075 441.329 302.858 441.913 301.058C442.205 299.841 442.302 298.576 442.302 297.262C442.302 295.949 442.205 294.781 441.913 293.467C441.718 292.786 441.621 291.958 441.621 291.18C441.621 289.379 442.108 287.579 443.227 286.071C444.005 284.951 445.125 284.27 446.341 283.881C446.341 283.686 446.341 283.492 446.341 283.297C446.341 281.983 446.438 280.572 446.73 279.307C447.655 275.511 451.061 272.689 454.954 272.592C455.149 272.592 455.246 272.592 455.441 272.592C459.966 272.592 464.151 275.073 466.243 279.015C469.649 285.827 471.353 293.467 471.353 301.058C471.353 310.352 468.725 319.598 463.761 327.529C460.891 331.957 456.754 335.655 451.937 338.283Z" fill="white"/>
<path d="M428.629 324.658C422.741 320.474 419.189 313.661 419.189 306.313C419.189 302.81 419.967 299.306 421.573 296.192C423.568 299.501 427.072 301.496 430.867 301.496C431.159 301.496 431.549 301.496 431.889 301.496C429.505 298.382 428.288 294.586 428.288 290.693C428.288 290.596 428.288 290.401 428.288 290.304C428.386 286.411 429.213 282.47 430.575 278.772C434.371 269.332 438.166 259.94 442.302 250.597L433.203 250.597C432.278 253.322 431.208 255.999 430.089 258.724C427.704 264.417 424.785 269.867 421.281 274.879C417.388 280.572 411.744 284.903 405.126 287.093C406.634 289.185 409.019 290.499 411.646 290.499C412.328 290.499 413.058 290.401 413.739 290.207C412.62 292.105 411.646 294.1 410.917 296.241C408.192 303.345 406.926 310.888 406.926 318.479C406.926 322.566 407.316 326.702 408.143 330.692C409.943 339.694 413.739 348.21 419.286 355.46C424.006 361.592 428.483 367.771 433.008 374L441.913 374C438.507 369.377 435.101 364.803 431.695 360.18C428.58 356.093 425.661 351.762 422.887 347.334C418.459 340.522 415.491 332.882 414.079 324.902C413.885 323.588 413.69 322.274 413.69 320.912C413.69 318.284 414.177 315.608 415.101 313.175C416.707 321.69 420.6 329.622 426.245 336.142C429.261 339.646 432.57 342.955 436.074 346.069C442.984 352.103 448.677 359.207 453.202 367.188C453.202 366.604 453.202 366.068 453.202 365.484C453.202 359.694 451.499 353.952 448.19 349.135C448.385 349.135 448.677 349.135 448.872 349.135C452.764 349.135 456.365 347.14 458.604 343.928C457.095 341.3 454.711 339.305 451.889 338.332C456.609 335.704 460.696 332.006 463.81 327.627C468.822 319.695 471.401 310.498 471.401 301.155C471.401 293.564 469.601 286.022 466.292 279.112C464.102 275.122 459.966 272.689 455.489 272.689C455.295 272.689 455.1 272.689 455.003 272.689C451.11 272.786 447.704 275.609 446.779 279.404C446.585 280.718 446.39 282.032 446.39 283.394C446.39 283.589 446.39 283.784 446.39 283.978C447.168 283.784 447.996 283.686 448.872 283.686C449.164 283.686 449.456 283.686 449.796 283.686C449.602 283.102 449.602 282.47 449.602 281.886C449.602 280.183 450.283 278.48 451.499 277.166C452.91 276.241 454.516 275.657 456.122 275.657C457.436 275.657 458.75 275.949 459.82 276.582C462.448 278.577 464.346 281.497 465.222 284.708C466.827 289.526 467.606 294.635 467.606 299.744C467.606 308.649 465.124 317.359 460.501 324.902C456.803 329.914 451.305 333.32 445.173 334.536C445.66 332.541 445.952 330.546 445.952 328.503C445.952 327.821 445.952 327.189 445.855 326.507C443.665 327.432 441.329 327.919 438.945 327.919C435.198 327.967 431.597 326.751 428.629 324.658Z" fill="#B0B461"/>
<path d="M393.544 250.5L393.544 373.951L377 373.951L377 250.5L393.544 250.5Z" fill="#602626"/>
<path d="M449.844 283.687C449.552 283.687 449.261 283.687 448.92 283.687C448.141 283.687 447.217 283.784 446.438 283.979C445.124 284.368 444.151 285.195 443.324 286.168C442.302 287.677 441.718 289.477 441.718 291.278C441.718 292.056 441.815 292.786 442.01 293.565C442.302 294.781 442.399 296.046 442.399 297.36C442.399 298.674 442.302 299.842 442.01 301.156C441.426 302.956 439.723 304.173 437.825 304.173C436.803 304.173 435.83 303.881 435.003 303.248C435.1 304.854 436.025 306.265 437.29 307.141C438.507 308.065 440.015 308.552 441.621 308.552C441.913 308.552 442.302 308.552 442.643 308.455C445.027 308.163 447.168 306.557 448.239 304.27C449.358 307.384 452.326 309.477 455.635 309.477C457.727 309.477 459.722 308.698 461.231 307.19L461.134 307.19C458.214 307.19 455.732 305.194 454.905 302.372C454.808 301.886 454.808 301.253 454.808 300.766C454.808 299.647 455.002 298.577 455.294 297.555C456.219 295.657 456.706 293.467 456.706 291.326C456.706 291.132 456.706 291.034 456.706 290.84C456.608 288.747 455.684 286.752 454.224 285.438C452.959 284.368 451.45 283.784 449.844 283.687Z" fill="#C0834B"/>
<path d="M442.74 308.503C443.519 312.007 445.027 315.218 447.266 318.041C450.185 315.851 452.472 312.834 453.883 309.33C451.256 308.746 449.163 306.849 448.287 304.318C447.265 306.508 445.124 308.114 442.74 308.503Z" fill="#E6BB7B"/>
<path d="M0.999984 248.5L1 125.049L123.819 125.049L123.819 248.5L0.999984 248.5Z" fill="white"/>
<path d="M0.999984 248.5L1 125.049L123.819 125.049L123.819 248.5L0.999984 248.5Z" fill="#602626"/>
<path d="M99.7807 248.5L99.7808 125.049L107.274 125.049L107.274 248.5L99.7807 248.5Z" fill="#E6BB7B"/>
<path d="M17.4956 248.5L17.4956 125.049L24.9893 125.049L24.9893 248.5L17.4956 248.5Z" fill="#E6BB7B"/>
<path d="M95.5473 211.908C89.0268 214.097 83.3335 218.428 79.392 224.121C75.8884 229.231 72.9688 234.632 70.5845 240.277C69.4653 243.002 68.3947 245.581 67.4702 248.403L99.7321 248.403L99.7321 125.049L67.7622 125.049C72.2876 131.277 76.8617 137.457 81.4844 143.588C87.0804 150.887 90.9245 159.306 92.6277 168.357C93.4062 172.347 93.8442 176.483 93.8442 180.57C93.8442 188.161 92.433 195.704 89.854 202.808C89.0754 204.901 88.1509 206.896 87.0317 208.842C87.713 208.647 88.4428 208.55 89.1241 208.55C91.6544 208.501 94.1361 209.815 95.5473 211.908Z" fill="white"/>
<path d="M48.8818 160.717C46.0595 159.695 43.6752 157.7 42.1667 155.121C44.2591 151.812 47.9573 149.914 51.8988 149.914C52.0934 149.914 52.3854 149.914 52.58 149.914C49.3684 145.097 47.568 139.404 47.568 133.564C47.568 132.98 47.568 132.445 47.568 131.861C52.0935 139.89 57.7867 146.995 64.6965 152.98C68.2 156.094 71.5089 159.403 74.5258 162.907C80.1218 169.427 84.0633 177.359 85.6691 185.874C86.5936 183.393 87.0802 180.765 87.0802 178.137C87.0802 176.823 86.9829 175.412 86.6909 174.147C85.1825 166.118 82.2629 158.527 77.8834 151.715C75.0611 147.287 72.1902 143.102 69.0759 138.868C65.6697 134.246 62.2635 129.672 58.8572 125.049L25.0869 125.049L25.0869 248.5L58.5653 248.5C62.5554 239.206 66.4969 229.766 70.2924 220.326C71.8009 216.725 72.4821 212.832 72.5794 208.793C72.5794 208.696 72.5794 208.501 72.5794 208.404C72.5794 204.511 71.2656 200.667 68.9786 197.601C69.2706 197.601 69.6598 197.601 70.0005 197.601C73.796 197.601 77.2995 199.597 79.2946 202.905C80.9004 199.791 81.6789 196.288 81.6789 192.784C81.6789 185.485 78.1754 178.673 72.2388 174.439C69.2219 172.249 65.621 171.13 61.9228 171.13C59.5385 171.13 57.2028 171.617 55.013 172.541C54.9157 171.86 54.9157 171.228 54.9157 170.546C54.9157 168.551 55.2077 166.556 55.6943 164.512C49.5631 165.632 44.0645 169.038 40.3663 174.147C35.6462 181.641 33.2619 190.4 33.2619 199.305C33.2619 204.414 34.0404 209.523 35.6462 214.341C36.5708 217.552 38.4685 220.472 41.0475 222.467C42.1667 223.051 43.4319 223.391 44.7457 223.391C46.3515 223.391 48.0546 222.905 49.3684 221.883C50.585 220.666 51.2662 218.963 51.2662 217.163C51.2662 216.579 51.1689 215.946 51.0716 215.362C49.4658 215.265 47.9573 214.681 46.7408 213.659C45.135 212.248 44.2591 210.253 44.2591 208.258C44.2591 208.063 44.2591 207.966 44.2591 207.771C44.2591 205.582 44.7457 203.441 45.6703 201.543C46.0596 200.521 46.1569 199.451 46.1569 198.331C46.1569 197.845 46.1568 197.212 46.0595 196.726C45.3783 193.903 42.7506 191.908 39.831 191.908L39.7337 191.908C41.2421 190.4 43.2372 189.621 45.3296 189.621C45.9135 189.621 46.5462 189.718 47.1301 189.816C48.5412 186.41 50.7309 183.393 53.7479 181.106C55.9376 183.928 57.4461 187.139 58.2733 190.643C58.5653 190.643 58.9546 190.546 59.2952 190.546C60.8036 190.546 62.3121 191.032 63.626 191.957C64.9398 192.881 65.8157 194.244 65.913 195.85C65.1344 195.266 64.1125 194.925 63.0906 194.925C61.1929 194.925 59.4898 196.142 58.9059 197.942C58.6139 199.159 58.5166 200.424 58.5166 201.738C58.5166 203.051 58.6139 204.219 58.9059 205.533C59.1005 206.214 59.1978 207.042 59.1978 207.82C59.1978 209.621 58.7112 211.421 57.5921 212.929C56.8135 214.049 55.6943 214.73 54.4778 215.119C54.4778 215.314 54.4778 215.508 54.4778 215.703C54.4778 217.017 54.3804 218.428 54.0885 219.693C53.1639 223.489 49.7577 226.311 45.8649 226.408C45.6703 226.408 45.573 226.408 45.3783 226.408C40.8529 226.408 36.6681 223.927 34.5757 219.985C31.1694 213.173 29.4663 205.533 29.4663 197.942C29.4663 188.648 32.094 179.402 37.0573 171.471C39.9283 167.043 44.0645 163.345 48.8818 160.717Z" fill="white"/>
<path d="M72.19 174.342C78.0779 178.526 81.6301 185.339 81.6301 192.687C81.6301 196.19 80.8515 199.694 79.2457 202.808C77.2506 199.499 73.7471 197.504 69.9516 197.504C69.6596 197.504 69.2703 197.504 68.9297 197.504C71.314 200.618 72.5305 204.414 72.5305 208.307C72.5305 208.404 72.5305 208.599 72.5305 208.696C72.4332 212.589 71.606 216.53 70.2435 220.228C66.448 229.668 62.6525 239.06 58.5164 248.403L67.6159 248.403C68.5404 245.678 69.6109 243.001 70.7301 240.276C73.1145 234.583 76.0341 229.133 79.5377 224.121C83.4305 218.428 89.0751 214.097 95.6929 211.907C94.1844 209.815 91.8001 208.501 89.1724 208.501C88.4912 208.501 87.7613 208.599 87.08 208.793C88.1992 206.895 89.1724 204.9 89.9023 202.759C92.6273 195.655 93.8925 188.113 93.8925 180.521C93.8925 176.434 93.5032 172.298 92.676 168.308C90.8755 159.306 87.08 150.79 81.5327 143.54C76.8127 137.408 72.3359 131.229 67.8105 125L58.9057 125C62.3119 129.623 65.7181 134.197 69.1243 138.82C72.2386 142.907 75.1582 147.238 77.9318 151.666C82.3599 158.478 85.3283 166.118 86.7394 174.098C86.9341 175.412 87.1287 176.726 87.1287 178.088C87.1287 180.716 86.642 183.392 85.7175 185.825C84.1117 177.31 80.2189 169.378 74.5743 162.858C71.5574 159.354 68.2484 156.045 64.7449 152.931C57.8351 146.897 52.1419 139.793 47.6165 131.812C47.6165 132.396 47.6165 132.932 47.6165 133.516C47.6165 139.306 49.3195 145.048 52.6285 149.865C52.4338 149.865 52.1419 149.865 51.9473 149.865C48.0544 149.865 44.4536 151.86 42.2152 155.072C43.7236 157.7 46.108 159.695 48.9303 160.668C44.2102 163.296 40.1227 166.994 37.0085 171.373C31.9965 179.305 29.4175 188.502 29.4175 197.845C29.4175 205.436 31.2179 212.978 34.5268 219.888C36.7165 223.878 40.8526 226.311 45.3294 226.311C45.524 226.311 45.7187 226.311 45.816 226.311C49.7088 226.214 53.1151 223.391 54.0396 219.596C54.2342 218.282 54.4289 216.968 54.4289 215.606C54.4289 215.411 54.4289 215.216 54.4289 215.022C53.6503 215.216 52.8231 215.314 51.9472 215.314C51.6553 215.314 51.3633 215.314 51.0227 215.314C51.2173 215.898 51.2173 216.53 51.2173 217.114C51.2173 218.817 50.5361 220.52 49.3196 221.834C47.9084 222.759 46.3026 223.343 44.6968 223.343C43.383 223.343 42.0692 223.051 40.9987 222.418C38.371 220.423 36.4732 217.503 35.5973 214.292C33.9915 209.474 33.213 204.365 33.213 199.256C33.213 190.351 35.6947 181.641 40.3174 174.098C44.0156 169.086 49.5142 165.68 55.6454 164.464C55.1588 166.459 54.8669 168.454 54.8669 170.497C54.8669 171.179 54.8668 171.811 54.9642 172.493C57.1539 171.568 59.4896 171.081 61.8739 171.081C65.6208 171.033 69.2217 172.249 72.19 174.342Z" fill="#B0B461"/>
<path d="M107.274 248.5L107.274 125.049L123.819 125.049L123.819 248.5L107.274 248.5Z" fill="#602626"/>
<path d="M50.9744 215.313C51.2664 215.313 51.5583 215.313 51.8989 215.313C52.6775 215.313 53.6021 215.216 54.3807 215.021C55.6945 214.632 56.6676 213.805 57.4949 212.832C58.5167 211.323 59.1007 209.523 59.1007 207.722C59.1007 206.944 59.0034 206.214 58.8087 205.435C58.5168 204.219 58.4194 202.954 58.4194 201.64C58.4194 200.326 58.5168 199.158 58.8087 197.844C59.3927 196.044 61.0958 194.827 62.9935 194.827C64.0154 194.827 64.9886 195.119 65.8158 195.752C65.7185 194.146 64.7939 192.735 63.5288 191.859C62.3123 190.935 60.8038 190.448 59.198 190.448C58.906 190.448 58.5168 190.448 58.1761 190.545C55.7918 190.837 53.6507 192.443 52.5802 194.73C51.461 191.616 48.4927 189.523 45.1838 189.523C43.0914 189.523 41.0964 190.302 39.5879 191.81L39.6852 191.81C42.6048 191.81 45.0865 193.806 45.9137 196.628C46.0111 197.114 46.011 197.747 46.011 198.234C46.011 199.353 45.8164 200.423 45.5244 201.445C44.5999 203.343 44.1133 205.533 44.1133 207.674C44.1133 207.868 44.1133 207.966 44.1133 208.16C44.2106 210.253 45.1352 212.248 46.595 213.562C47.8602 214.632 49.3686 215.216 50.9744 215.313Z" fill="#C0834B"/>
<path d="M58.0788 190.497C57.3002 186.993 55.7917 183.782 53.5533 180.959C50.6337 183.149 48.3467 186.166 46.9355 189.67C49.5632 190.254 51.6556 192.151 52.5315 194.682C53.5534 192.492 55.6944 190.886 58.0788 190.497Z" fill="#E6BB7B"/>
<path d="M125 125H248.478V248.869H125V125ZM250.574 125H374.052V248.869H250.574V125ZM125 250.825H248.478V374.694H125V250.825ZM250.574 250.825H374.052V374.694H250.574V250.825Z" fill="#D1D3D4"/>
</g>
<defs>
<clipPath id="clip0_65_405">
<rect width="500" height="500" fill="white"/>
</clipPath>
</defs>
</svg>
