<svg width="500" height="500" viewBox="0 0 500 500" fill="none" xmlns="http://www.w3.org/2000/svg">
<g clip-path="url(#clip0_65_546)">
<path d="M123.5 0H0V123.111H123.5V0Z" fill="#2D2E27"/>
<path d="M92.6127 61.4824L123.5 92.2723H92.6127V123.062L61.7256 92.2723L92.6127 61.4824Z" fill="#F6F6F6"/>
<path d="M61.7256 30.79H123.5L92.6127 61.4826L61.7256 30.79Z" fill="#F6F6F6"/>
<path d="M30.8872 30.79H61.7257L30.8872 61.4826V30.79Z" fill="#F6F6F6"/>
<path d="M30.8872 61.4824L61.7257 92.2723L30.8872 123.062V61.4824Z" fill="#F6F6F6"/>
<path d="M0 0H123.5V21.2075H21.3535V123.062H0V0Z" fill="#F6F6F6"/>
<path d="M123.5 104.579H104.871V123.111H123.5V104.579Z" fill="white"/>
<path d="M21.3535 21.2075H123.5V30.7899H61.7257H30.8872V61.4825V123.062H21.3535V21.2075Z" fill="#2D2E27"/>
<path d="M92.6128 61.4826L123.5 30.79V92.2725L92.6128 61.4826Z" fill="#2D2E27"/>
<path d="M61.7257 92.2725L92.6129 123.062H30.8872L61.7257 92.2725Z" fill="#2D2E27"/>
<path d="M92.6128 92.2725H123.5V104.579H104.87V123.062H92.6128V92.2725Z" fill="#2D2E27"/>
<path d="M376.5 500.111L500 500.111L500 377L376.5 377L376.5 500.111Z" fill="#2D2E27"/>
<path d="M407.387 438.628L376.5 407.839L407.387 407.839L407.387 377.049L438.274 407.839L407.387 438.628Z" fill="#F6F6F6"/>
<path d="M438.274 469.321L376.5 469.321L407.387 438.628L438.274 469.321Z" fill="#F6F6F6"/>
<path d="M469.113 469.321L438.274 469.321L469.113 438.628L469.113 469.321Z" fill="#F6F6F6"/>
<path d="M469.113 438.628L438.274 407.839L469.113 377.049L469.113 438.628Z" fill="#F6F6F6"/>
<path d="M500 500.111L376.5 500.111L376.5 478.903L478.647 478.903L478.647 377.049L500 377.049L500 500.111Z" fill="#F6F6F6"/>
<path d="M376.5 395.532L395.129 395.532L395.129 377L376.5 377L376.5 395.532Z" fill="white"/>
<path d="M478.646 478.903L376.5 478.903L376.5 469.321L438.274 469.321L469.113 469.321L469.113 438.628L469.113 377.049L478.646 377.049L478.646 478.903Z" fill="#2D2E27"/>
<path d="M407.387 438.628L376.5 469.321L376.5 407.838L407.387 438.628Z" fill="#2D2E27"/>
<path d="M438.274 407.838L407.387 377.049L469.113 377.049L438.274 407.838Z" fill="#2D2E27"/>
<path d="M407.387 407.838L376.5 407.838L376.5 395.532L395.13 395.532L395.13 377.049L407.387 377.049L407.387 407.838Z" fill="#2D2E27"/>
<path d="M376.5 0H500V123.111H376.5V0Z" fill="#2D2E27"/>
<path d="M407.387 61.4824L376.5 92.2723H407.387V123.062L438.274 92.2723L407.387 61.4824Z" fill="#F6F6F6"/>
<path d="M438.274 30.79H376.5L407.387 61.4826L438.274 30.79Z" fill="#F6F6F6"/>
<path d="M469.113 30.79H438.274L469.113 61.4826V30.79Z" fill="#F6F6F6"/>
<path d="M469.113 61.4824L438.274 92.2723L469.113 123.062V61.4824Z" fill="#F6F6F6"/>
<path d="M500 0H376.5V21.2075H478.647V123.062H500V0Z" fill="#F6F6F6"/>
<path d="M376.5 104.579H395.129V123.111H376.5V104.579Z" fill="white"/>
<path d="M478.646 21.2075H376.5V30.7899H438.274H469.113V61.4825V123.062H478.646V21.2075Z" fill="#2D2E27"/>
<path d="M407.387 61.4826L376.5 30.79V92.2725L407.387 61.4826Z" fill="#2D2E27"/>
<path d="M438.274 92.2725L407.387 123.062H469.113L438.274 92.2725Z" fill="#2D2E27"/>
<path d="M407.387 92.2725H376.5V104.579H395.13V123.062H407.387V92.2725Z" fill="#2D2E27"/>
<path d="M123.5 500.111L0 500.111L1.07627e-05 377L123.5 377L123.5 500.111Z" fill="#2D2E27"/>
<path d="M92.6127 438.628L123.5 407.839L92.6127 407.839L92.6127 377.049L61.7256 407.839L92.6127 438.628Z" fill="#F6F6F6"/>
<path d="M61.7256 469.321L123.5 469.321L92.6127 438.628L61.7256 469.321Z" fill="#F6F6F6"/>
<path d="M30.8872 469.321L61.7257 469.321L30.8872 438.628L30.8872 469.321Z" fill="#F6F6F6"/>
<path d="M30.8872 438.628L61.7257 407.839L30.8872 377.049L30.8872 438.628Z" fill="#F6F6F6"/>
<path d="M0 500.111L123.5 500.111L123.5 478.903L21.3535 478.903L21.3535 377.049L1.07584e-05 377.049L0 500.111Z" fill="#F6F6F6"/>
<path d="M123.5 395.532L104.871 395.532L104.871 377L123.5 377L123.5 395.532Z" fill="white"/>
<path d="M21.3535 478.903L123.5 478.903L123.5 469.321L61.7257 469.321L30.8872 469.321L30.8872 438.628L30.8872 377.049L21.3535 377.049L21.3535 478.903Z" fill="#2D2E27"/>
<path d="M92.6128 438.628L123.5 469.321L123.5 407.838L92.6128 438.628Z" fill="#2D2E27"/>
<path d="M61.7257 407.838L92.6129 377.049L30.8872 377.049L61.7257 407.838Z" fill="#2D2E27"/>
<path d="M92.6128 407.838L123.5 407.838L123.5 395.532L104.87 395.532L104.87 377.049L92.6128 377.049L92.6128 407.838Z" fill="#2D2E27"/>
<path d="M249 0H125.5V123.11H249V0Z" fill="#2D2E27"/>
<path d="M156.387 61.4819L187.323 92.2717H125.5L156.387 61.4819Z" fill="#F6F6F6"/>
<path d="M218.21 61.4819L249 92.2717H187.323L218.21 61.4819Z" fill="#F6F6F6"/>
<path d="M187.323 30.7896H249L218.21 61.4819L187.323 30.7896Z" fill="#F6F6F6"/>
<path d="M125.5 30.7896H187.323L156.387 61.4819L125.5 30.7896Z" fill="#F6F6F6"/>
<path d="M249 0H125.5V21.241H249V0Z" fill="#F6F6F6"/>
<path d="M249 104.549H125.5V123.062H249V104.549Z" fill="white"/>
<path d="M125.5 21.1924H249V30.7899H187.323H125.5V21.1924Z" fill="#2D2E27"/>
<path d="M125.5 30.7896L156.387 61.4819L125.5 92.2716V30.7896Z" fill="#2D2E27"/>
<path d="M218.21 61.4819L249 30.7896V92.2716L218.21 61.4819Z" fill="#2D2E27"/>
<path d="M125.5 92.272H187.323H249V104.549H125.5V92.272Z" fill="#2D2E27"/>
<path d="M251 500.111L374.5 500.111L374.5 377.001L251 377.001L251 500.111Z" fill="#2D2E27"/>
<path d="M343.613 438.629L312.677 407.839L374.5 407.839L343.613 438.629Z" fill="#F6F6F6"/>
<path d="M281.79 438.629L251 407.839L312.677 407.839L281.79 438.629Z" fill="#F6F6F6"/>
<path d="M312.677 469.321L251 469.321L281.79 438.629L312.677 469.321Z" fill="#F6F6F6"/>
<path d="M374.5 469.321L312.677 469.321L343.613 438.629L374.5 469.321Z" fill="#F6F6F6"/>
<path d="M251 500.111L374.5 500.111L374.5 478.87L251 478.87L251 500.111Z" fill="#F6F6F6"/>
<path d="M251 395.562L374.5 395.562L374.5 377.049L251 377.049L251 395.562Z" fill="white"/>
<path d="M374.5 478.918L251 478.918L251 469.321L312.677 469.321L374.5 469.321L374.5 478.918Z" fill="#2D2E27"/>
<path d="M374.5 469.321L343.613 438.629L374.5 407.839L374.5 469.321Z" fill="#2D2E27"/>
<path d="M281.79 438.629L251 469.321L251 407.839L281.79 438.629Z" fill="#2D2E27"/>
<path d="M374.5 407.839L312.677 407.839L251 407.839L251 395.562L374.5 395.562L374.5 407.839Z" fill="#2D2E27"/>
<path d="M500.11 248.5L500.11 125L377 125L377 248.5L500.11 248.5Z" fill="#2D2E27"/>
<path d="M438.628 155.887L407.839 186.823L407.839 125L438.628 155.887Z" fill="#F6F6F6"/>
<path d="M438.628 217.71L407.839 248.5L407.839 186.823L438.628 217.71Z" fill="#F6F6F6"/>
<path d="M469.321 186.823L469.321 248.5L438.628 217.71L469.321 186.823Z" fill="#F6F6F6"/>
<path d="M469.321 125L469.321 186.823L438.628 155.887L469.321 125Z" fill="#F6F6F6"/>
<path d="M500.11 248.5L500.11 125L478.869 125L478.869 248.5L500.11 248.5Z" fill="#F6F6F6"/>
<path d="M395.562 248.5L395.562 125L377.049 125L377.049 248.5L395.562 248.5Z" fill="white"/>
<path d="M478.918 125L478.918 248.5L469.32 248.5L469.32 186.823L469.32 125L478.918 125Z" fill="#2D2E27"/>
<path d="M469.321 125L438.628 155.887L407.839 125L469.321 125Z" fill="#2D2E27"/>
<path d="M438.628 217.71L469.321 248.5L407.839 248.5L438.628 217.71Z" fill="#2D2E27"/>
<path d="M407.838 125L407.838 186.823L407.838 248.5L395.561 248.5L395.561 125L407.838 125Z" fill="#2D2E27"/>
<path d="M1.61951e-05 250.5L0 374L123.11 374L123.11 250.5L1.61951e-05 250.5Z" fill="#2D2E27"/>
<path d="M61.4819 343.113L92.2717 312.177L92.2717 374L61.4819 343.113Z" fill="#F6F6F6"/>
<path d="M61.4819 281.29L92.2717 250.5L92.2717 312.177L61.4819 281.29Z" fill="#F6F6F6"/>
<path d="M30.7896 312.177L30.7896 250.5L61.4819 281.29L30.7896 312.177Z" fill="#F6F6F6"/>
<path d="M30.7896 374L30.7896 312.177L61.4819 343.113L30.7896 374Z" fill="#F6F6F6"/>
<path d="M1.61951e-05 250.5L0 374L21.241 374L21.241 250.5L1.61951e-05 250.5Z" fill="#F6F6F6"/>
<path d="M104.549 250.5L104.549 374L123.062 374L123.062 250.5L104.549 250.5Z" fill="white"/>
<path d="M21.1924 374L21.1924 250.5L30.7899 250.5L30.7899 312.177L30.7899 374L21.1924 374Z" fill="#2D2E27"/>
<path d="M30.7896 374L61.4819 343.113L92.2716 374L30.7896 374Z" fill="#2D2E27"/>
<path d="M61.4819 281.29L30.7896 250.5L92.2716 250.5L61.4819 281.29Z" fill="#2D2E27"/>
<path d="M92.272 374L92.272 312.177L92.272 250.5L104.549 250.5L104.549 374L92.272 374Z" fill="#2D2E27"/>
<path d="M251 0H374.5V123.11H251V0Z" fill="#2D2E27"/>
<path d="M343.613 61.4819L312.677 92.2717H374.5L343.613 61.4819Z" fill="#F6F6F6"/>
<path d="M281.79 61.4819L251 92.2717H312.677L281.79 61.4819Z" fill="#F6F6F6"/>
<path d="M312.677 30.7896H251L281.79 61.4819L312.677 30.7896Z" fill="#F6F6F6"/>
<path d="M374.5 30.7896H312.677L343.613 61.4819L374.5 30.7896Z" fill="#F6F6F6"/>
<path d="M251 0H374.5V21.241H251V0Z" fill="#F6F6F6"/>
<path d="M251 104.549H374.5V123.062H251V104.549Z" fill="white"/>
<path d="M374.5 21.1924H251V30.7899H312.677H374.5V21.1924Z" fill="#2D2E27"/>
<path d="M374.5 30.7896L343.613 61.4819L374.5 92.2716V30.7896Z" fill="#2D2E27"/>
<path d="M281.79 61.4819L251 30.7896V92.2716L281.79 61.4819Z" fill="#2D2E27"/>
<path d="M374.5 92.272H312.677H251V104.549H374.5V92.272Z" fill="#2D2E27"/>
<path d="M249 500.111L125.5 500.111L125.5 377.001L249 377.001L249 500.111Z" fill="#2D2E27"/>
<path d="M156.387 438.629L187.323 407.839L125.5 407.839L156.387 438.629Z" fill="#F6F6F6"/>
<path d="M218.21 438.629L249 407.839L187.323 407.839L218.21 438.629Z" fill="#F6F6F6"/>
<path d="M187.323 469.321L249 469.321L218.21 438.629L187.323 469.321Z" fill="#F6F6F6"/>
<path d="M125.5 469.321L187.323 469.321L156.387 438.629L125.5 469.321Z" fill="#F6F6F6"/>
<path d="M249 500.111L125.5 500.111L125.5 478.87L249 478.87L249 500.111Z" fill="#F6F6F6"/>
<path d="M249 395.562L125.5 395.562L125.5 377.049L249 377.049L249 395.562Z" fill="white"/>
<path d="M125.5 478.918L249 478.918L249 469.321L187.323 469.321L125.5 469.321L125.5 478.918Z" fill="#2D2E27"/>
<path d="M125.5 469.321L156.387 438.629L125.5 407.839L125.5 469.321Z" fill="#2D2E27"/>
<path d="M218.21 438.629L249 469.321L249 407.839L218.21 438.629Z" fill="#2D2E27"/>
<path d="M125.5 407.839L187.323 407.839L249 407.839L249 395.562L125.5 395.562L125.5 407.839Z" fill="#2D2E27"/>
<path d="M500.11 250.5L500.11 374L377 374L377 250.5L500.11 250.5Z" fill="#2D2E27"/>
<path d="M438.628 343.113L407.839 312.177L407.839 374L438.628 343.113Z" fill="#F6F6F6"/>
<path d="M438.628 281.29L407.839 250.5L407.839 312.177L438.628 281.29Z" fill="#F6F6F6"/>
<path d="M469.321 312.177L469.321 250.5L438.628 281.29L469.321 312.177Z" fill="#F6F6F6"/>
<path d="M469.321 374L469.321 312.177L438.628 343.113L469.321 374Z" fill="#F6F6F6"/>
<path d="M500.11 250.5L500.11 374L478.869 374L478.869 250.5L500.11 250.5Z" fill="#F6F6F6"/>
<path d="M395.562 250.5L395.562 374L377.049 374L377.049 250.5L395.562 250.5Z" fill="white"/>
<path d="M478.918 374L478.918 250.5L469.321 250.5L469.321 312.177L469.32 374L478.918 374Z" fill="#2D2E27"/>
<path d="M469.321 374L438.628 343.113L407.839 374L469.321 374Z" fill="#2D2E27"/>
<path d="M438.628 281.29L469.321 250.5L407.839 250.5L438.628 281.29Z" fill="#2D2E27"/>
<path d="M407.838 374L407.838 312.177L407.838 250.5L395.561 250.5L395.561 374L407.838 374Z" fill="#2D2E27"/>
<path d="M-1.61951e-05 248.5L0 125L123.11 125L123.11 248.5L-1.61951e-05 248.5Z" fill="#2D2E27"/>
<path d="M61.4819 155.887L92.2716 186.823L92.2717 125L61.4819 155.887Z" fill="#F6F6F6"/>
<path d="M61.4819 217.71L92.2716 248.5L92.2717 186.823L61.4819 217.71Z" fill="#F6F6F6"/>
<path d="M30.7896 186.823L30.7895 248.5L61.4819 217.71L30.7896 186.823Z" fill="#F6F6F6"/>
<path d="M30.7896 125L30.7895 186.823L61.4819 155.887L30.7896 125Z" fill="#F6F6F6"/>
<path d="M-1.61951e-05 248.5L0 125L21.241 125L21.241 248.5L-1.61951e-05 248.5Z" fill="#F6F6F6"/>
<path d="M104.549 248.5L104.549 125L123.062 125L123.062 248.5L104.549 248.5Z" fill="white"/>
<path d="M21.1924 125L21.1924 248.5L30.7898 248.5L30.7898 186.823L30.7899 125L21.1924 125Z" fill="#2D2E27"/>
<path d="M30.7896 125L61.4819 155.887L92.2716 125L30.7896 125Z" fill="#2D2E27"/>
<path d="M61.4819 217.71L30.7895 248.5L92.2716 248.5L61.4819 217.71Z" fill="#2D2E27"/>
<path d="M92.272 125L92.272 186.823L92.272 248.5L104.549 248.5L104.549 125L92.272 125Z" fill="#2D2E27"/>
<path d="M125 125H248.478V248.869H125V125ZM250.574 125H374.052V248.869H250.574V125ZM125 250.825H248.478V374.694H125V250.825ZM250.574 250.825H374.052V374.694H250.574V250.825Z" fill="#D1D3D4"/>
</g>
<defs>
<clipPath id="clip0_65_546">
<rect width="500" height="500" fill="white"/>
</clipPath>
</defs>
</svg>
