<svg width="500" height="500" viewBox="0 0 500 500" fill="none" xmlns="http://www.w3.org/2000/svg">
<g clip-path="url(#clip0_65_703)">
<path d="M123.451 0H0V123.061H123.451V0Z" fill="#C38585"/>
<path d="M123.354 106.185H106.624V122.963H111.355V111.013H123.354V106.185Z" fill="#F6F6F6"/>
<path d="M123.354 11.9014H12.0479V122.964H16.7304V16.7302H123.354V11.9014Z" fill="#F6F6F6"/>
<path d="M21.5591 122.964H101.795V101.502H123.354V21.4614H21.5591V122.964Z" fill="#F6F6F6"/>
<path d="M89.4548 122.964H95.6493C95.6493 112.33 90.6254 102.283 82.0897 95.8931C79.9923 97.1125 77.8949 98.088 75.5537 99.0147C84.1382 103.892 89.4548 113.111 89.4548 122.964Z" fill="#D9CEC0"/>
<path d="M123.354 95.2588V89.1619C107.989 89.1619 95.5516 76.7241 95.5516 61.4573C95.5516 42.825 80.2848 27.6558 61.6525 27.6558C42.8739 27.6558 27.7534 42.825 27.7534 61.4573C27.7534 72.0904 32.7773 82.1382 41.313 88.5278C43.4104 87.3084 45.5077 86.3329 47.849 85.4061C39.2157 80.4798 33.8991 71.3587 33.8991 61.4573C33.8991 46.1905 46.3369 33.7527 61.7013 33.7527C77.0656 33.7527 89.5034 46.1905 89.5034 61.4573C89.4546 80.1384 104.721 95.2588 123.354 95.2588Z" fill="#D9CEC0"/>
<path d="M123.354 33.7527V27.6558C112.623 27.6558 102.575 32.6796 96.1855 41.2154C97.4049 43.3127 98.3805 45.4101 99.3072 47.7513C104.331 39.0692 113.452 33.7527 123.354 33.7527Z" fill="#D9CEC0"/>
<path d="M88.8693 81.6995C87.6499 79.6022 86.6745 77.5048 85.7477 75.1636C80.8214 83.7969 71.6028 89.0159 61.6525 89.0159C42.8739 89.0159 27.7534 104.185 27.7534 122.817H33.9479C33.9479 107.551 46.3857 95.1128 61.75 95.1128C72.4319 95.2592 82.4309 90.2353 88.8693 81.6995Z" fill="#D9CEC0"/>
<path d="M40.1426 122.964H56.9702C54.5802 120.769 53.2632 117.647 53.2632 114.33C53.2632 114.038 53.2632 113.843 53.2632 113.55C56.4824 113.647 59.604 115.062 61.7989 117.354C63.9938 115.062 67.1155 113.647 70.3347 113.55C70.3347 113.843 70.3347 114.038 70.3347 114.33C70.3347 117.647 68.9202 120.769 66.6277 122.964H83.4553C83.4553 111.111 73.749 101.405 61.8965 101.405C49.7514 101.502 40.1426 111.111 40.1426 122.964Z" fill="#F6F6F6"/>
<path d="M83.2602 61.4573C83.2602 49.6048 73.5539 39.8984 61.7014 39.8984C49.7514 39.8984 40.1426 49.5072 40.1426 61.4573C40.1426 73.3098 49.8489 83.0162 61.7014 83.0162C73.6027 83.0162 83.2602 73.3098 83.2602 61.4573Z" fill="#F6F6F6"/>
<path d="M118.671 61.4573C116.281 59.2624 114.964 56.1407 114.964 52.824C114.964 52.5313 114.964 52.3362 114.964 52.0436C118.184 52.1411 121.305 53.5556 123.5 55.8481V39.8984C111.55 39.8984 101.941 49.5072 101.941 61.4573C101.941 73.3098 111.648 83.0162 123.5 83.0162V67.0665C121.305 69.3589 118.184 70.7734 114.964 70.871C114.964 70.5783 114.964 70.3833 114.964 70.0906C114.867 66.7739 116.233 63.6522 118.671 61.4573Z" fill="#F6F6F6"/>
<path d="M106.624 106.184H123.354V101.502H101.795V122.963H106.624V106.184Z" fill="#D9CEC0"/>
<path d="M21.5587 21.4612H123.354V16.73H16.73V122.963H21.5587V21.4612Z" fill="#D9CEC0"/>
<path d="M123.403 111.014H111.355V123.061H123.403V111.014Z" fill="#C38585"/>
<path d="M123.354 39.8987V33.8018C113.403 33.8018 104.185 39.1183 99.2583 47.6541C100.868 52.0439 101.746 56.7751 101.746 61.5063C101.795 49.5075 111.55 39.8987 123.354 39.8987Z" fill="#C38585"/>
<path d="M123.354 21.4614C111.404 21.4614 100.088 26.778 92.4785 35.899C93.893 37.5086 95.0636 39.3133 96.1855 41.118C102.624 32.5823 112.623 27.5584 123.354 27.5584V21.4614Z" fill="#C38585"/>
<path d="M123.354 55.8479C121.159 53.5555 118.037 52.141 114.818 52.0435C114.818 52.3361 114.818 52.5312 114.818 52.8239C114.818 56.1406 116.232 59.2622 118.525 61.4571C116.135 63.652 114.818 66.7737 114.818 70.0905C114.818 70.3831 114.818 70.5782 114.818 70.8709C118.037 70.7733 121.159 69.3588 123.354 67.0663V55.8479Z" fill="#D9CEC0"/>
<path d="M66.4812 61.4571C68.8713 59.2622 70.1882 56.1406 70.1882 52.8239C70.1882 52.5312 70.1882 52.3361 70.1882 52.0435C66.969 52.141 63.8473 53.5555 61.6524 55.8479C59.4575 53.5555 56.3359 52.141 53.1167 52.0435C53.1167 52.3361 53.1167 52.5312 53.1167 52.8239C53.1167 56.1406 54.5312 59.2622 56.8236 61.4571C54.4336 63.652 53.1167 66.7737 53.1167 70.0905C53.1167 70.3831 53.1167 70.5782 53.1167 70.8709C56.3359 70.7733 59.4575 69.3588 61.6524 67.0663C63.8473 69.3588 66.969 70.7733 70.1882 70.8709C70.1882 70.5782 70.1882 70.3831 70.1882 70.0905C70.1882 66.7737 68.92 63.652 66.4812 61.4571Z" fill="#D9CEC0"/>
<path d="M70.1882 113.501C66.969 113.599 63.8473 115.013 61.6524 117.305C59.4575 115.013 56.3359 113.599 53.1167 113.501C53.1167 113.794 53.1167 113.989 53.1167 114.281C53.1167 117.598 54.5312 120.72 56.8236 122.915H66.4324C68.8224 120.72 70.1394 117.598 70.1394 114.281C70.1882 114.135 70.1882 113.794 70.1882 113.501Z" fill="#D9CEC0"/>
<path d="M61.701 89.1621C71.6513 89.1621 80.8699 83.8456 85.7962 75.3098C84.1866 70.92 83.3087 66.1888 83.3087 61.4575C83.3087 73.31 73.6023 83.0164 61.7498 83.0164C39.6056 83.0164 21.6074 100.966 21.6074 123.012H27.8019C27.8019 104.283 42.9224 89.1621 61.701 89.1621Z" fill="#C38585"/>
<path d="M61.7011 101.502C73.6511 101.502 84.9671 96.1857 92.5761 87.0647C91.1616 85.4551 89.9909 83.6504 88.8691 81.8457C82.4307 90.3814 72.4317 95.4053 61.7011 95.4053C46.3367 95.4053 33.8989 107.843 33.8989 123.11H40.0934C40.1422 111.111 49.751 101.502 61.7011 101.502Z" fill="#C38585"/>
<path d="M35.9966 92.2349C37.6062 90.8204 39.4109 89.6498 41.3131 88.528C32.7774 82.0896 27.7535 72.0906 27.7535 61.4575C27.7535 42.8252 43.0203 27.656 61.6526 27.656C80.4312 27.656 95.5517 42.8252 95.5517 61.4575C95.5517 76.7243 107.989 89.1621 123.354 89.1621V83.0651C111.404 83.0651 101.795 73.4563 101.795 61.5062C101.795 56.775 101.015 52.0926 99.3074 47.654C98.527 45.4591 97.4051 43.2642 96.1857 41.118C95.0639 39.3133 93.8933 37.5086 92.4788 35.899C84.8698 26.778 73.5051 21.4614 61.6038 21.4614C39.4597 21.4614 21.4614 39.4109 21.4614 61.4575C21.559 73.31 26.8755 84.6259 35.9966 92.2349Z" fill="#C38585"/>
<path d="M40.1423 61.4572C40.1423 49.6047 49.8486 39.8984 61.7011 39.8984C73.6512 39.8984 83.26 49.5071 83.26 61.4572C83.26 66.1884 84.0404 70.8709 85.7476 75.3095C86.528 77.5044 87.6498 79.6993 88.8692 81.8454C89.991 83.6501 91.1617 85.4548 92.5762 87.0644C100.185 96.1855 111.55 101.502 123.451 101.502V95.405C104.672 95.405 89.552 80.2358 89.552 61.6035C89.552 46.3367 77.1142 33.8989 61.7499 33.8989C46.3856 33.8989 33.9478 46.3367 33.9478 61.6035C33.9478 71.5538 39.2643 80.6748 47.8976 85.5524C52.2874 83.9428 57.0187 83.0648 61.7499 83.0648C49.7511 83.0161 40.1423 73.3097 40.1423 61.4572Z" fill="#C38585"/>
<path d="M87.3571 92.2349C85.7475 93.6494 83.9428 94.82 82.0405 95.9419C90.5763 102.38 95.6002 112.379 95.6002 123.012H101.795C101.795 111.111 96.4781 99.7951 87.3571 92.2349Z" fill="#C38585"/>
<path d="M75.5046 98.9658C71.1148 100.575 66.3836 101.453 61.6523 101.453C73.6024 101.453 83.2112 111.062 83.2112 123.012H89.4057C89.4545 113.111 84.1379 103.892 75.5046 98.9658Z" fill="#C38585"/>
<path d="M376.549 500.11L500 500.11L500 377.049L376.549 377.049L376.549 500.11Z" fill="#C38585"/>
<path d="M376.646 393.925L393.376 393.925L393.376 377.147L388.645 377.147L388.645 389.097L376.646 389.097L376.646 393.925Z" fill="#F6F6F6"/>
<path d="M376.646 488.208L487.952 488.208L487.952 377.146L483.27 377.146L483.27 483.38L376.646 483.38L376.646 488.208Z" fill="#F6F6F6"/>
<path d="M478.441 377.146L398.205 377.146L398.205 398.608L376.646 398.608L376.646 478.648L478.441 478.648L478.441 377.146Z" fill="#F6F6F6"/>
<path d="M410.545 377.146L404.351 377.146C404.351 387.779 409.375 397.827 417.91 404.217C420.008 402.997 422.105 402.022 424.446 401.095C415.862 396.218 410.545 386.999 410.545 377.146Z" fill="#D9CEC0"/>
<path d="M376.646 404.851L376.646 410.948C392.011 410.948 404.448 423.386 404.448 438.653C404.448 457.285 419.715 472.454 438.347 472.454C457.126 472.454 472.247 457.285 472.247 438.653C472.247 428.019 467.223 417.972 458.687 411.582C456.59 412.801 454.492 413.777 452.151 414.704C460.784 419.63 466.101 428.751 466.101 438.653C466.101 453.919 453.663 466.357 438.299 466.357C422.934 466.357 410.497 453.919 410.497 438.653C410.545 419.972 395.279 404.851 376.646 404.851Z" fill="#D9CEC0"/>
<path d="M376.646 466.357L376.646 472.454C387.377 472.454 397.425 467.43 403.814 458.894C402.595 456.797 401.62 454.7 400.693 452.359C395.669 461.041 386.548 466.357 376.646 466.357Z" fill="#D9CEC0"/>
<path d="M411.131 418.41C412.35 420.508 413.326 422.605 414.252 424.946C419.179 416.313 428.397 411.094 438.347 411.094C457.126 411.094 472.247 395.925 472.247 377.292L466.052 377.292C466.052 392.559 453.614 404.997 438.25 404.997C427.568 404.851 417.569 409.875 411.131 418.41Z" fill="#D9CEC0"/>
<path d="M459.857 377.146L443.03 377.146C445.42 379.341 446.737 382.463 446.737 385.78C446.737 386.072 446.737 386.267 446.737 386.56C443.518 386.462 440.396 385.048 438.201 382.755C436.006 385.048 432.885 386.462 429.665 386.56C429.665 386.267 429.665 386.072 429.665 385.78C429.665 382.463 431.08 379.341 433.372 377.146L416.545 377.146C416.545 388.999 426.251 398.705 438.103 398.705C450.249 398.608 459.857 388.999 459.857 377.146Z" fill="#F6F6F6"/>
<path d="M416.74 438.653C416.74 450.505 426.446 460.211 438.299 460.211C450.249 460.211 459.857 450.603 459.857 438.653C459.857 426.8 450.151 417.094 438.299 417.094C426.397 417.094 416.74 426.8 416.74 438.653Z" fill="#F6F6F6"/>
<path d="M381.329 438.653C383.719 440.848 385.036 443.969 385.036 447.286C385.036 447.579 385.036 447.774 385.036 448.066C381.816 447.969 378.695 446.554 376.5 444.262L376.5 460.211C388.45 460.211 398.059 450.603 398.059 438.653C398.059 426.8 388.352 417.094 376.5 417.094L376.5 433.043C378.695 430.751 381.816 429.336 385.036 429.239C385.036 429.532 385.036 429.727 385.036 430.019C385.133 433.336 383.767 436.458 381.329 438.653Z" fill="#F6F6F6"/>
<path d="M393.376 393.925L376.646 393.925L376.646 398.608L398.205 398.608L398.205 377.147L393.376 377.147L393.376 393.925Z" fill="#D9CEC0"/>
<path d="M478.441 478.649L376.646 478.649L376.646 483.38L483.27 483.38L483.27 377.146L478.441 377.146L478.441 478.649Z" fill="#D9CEC0"/>
<path d="M376.597 389.096L388.645 389.096L388.645 377.049L376.597 377.049L376.597 389.096Z" fill="#C38585"/>
<path d="M376.646 460.211L376.646 466.308C386.597 466.308 395.815 460.992 400.742 452.456C399.132 448.066 398.254 443.335 398.254 438.604C398.205 450.602 388.45 460.211 376.646 460.211Z" fill="#C38585"/>
<path d="M376.646 478.648C388.596 478.648 399.912 473.332 407.521 464.211C406.107 462.601 404.936 460.797 403.815 458.992C397.376 467.528 387.377 472.551 376.646 472.551L376.646 478.648Z" fill="#C38585"/>
<path d="M376.646 444.262C378.841 446.554 381.963 447.969 385.182 448.066C385.182 447.774 385.182 447.579 385.182 447.286C385.182 443.969 383.768 440.848 381.475 438.653C383.865 436.458 385.182 433.336 385.182 430.019C385.182 429.727 385.182 429.532 385.182 429.239C381.963 429.337 378.841 430.751 376.646 433.044L376.646 444.262Z" fill="#D9CEC0"/>
<path d="M433.519 438.653C431.129 440.848 429.812 443.969 429.812 447.286C429.812 447.579 429.812 447.774 429.812 448.066C433.031 447.969 436.153 446.554 438.348 444.262C440.542 446.554 443.664 447.969 446.883 448.066C446.883 447.774 446.883 447.579 446.883 447.286C446.883 443.969 445.469 440.848 443.176 438.653C445.566 436.458 446.883 433.336 446.883 430.019C446.883 429.727 446.883 429.532 446.883 429.239C443.664 429.337 440.542 430.751 438.348 433.044C436.153 430.751 433.031 429.337 429.812 429.239C429.812 429.532 429.812 429.727 429.812 430.019C429.812 433.336 431.08 436.458 433.519 438.653Z" fill="#D9CEC0"/>
<path d="M429.812 386.609C433.031 386.511 436.153 385.097 438.348 382.804C440.542 385.097 443.664 386.511 446.883 386.609C446.883 386.316 446.883 386.121 446.883 385.828C446.883 382.512 445.469 379.39 443.176 377.195L433.568 377.195C431.178 379.39 429.861 382.512 429.861 385.828C429.812 385.975 429.812 386.316 429.812 386.609Z" fill="#D9CEC0"/>
<path d="M438.299 410.948C428.349 410.948 419.13 416.264 414.204 424.8C415.813 429.19 416.691 433.921 416.691 438.652C416.691 426.8 426.398 417.093 438.25 417.093C460.394 417.093 478.393 399.144 478.393 377.097L472.198 377.097C472.198 395.827 457.078 410.948 438.299 410.948Z" fill="#C38585"/>
<path d="M438.299 398.608C426.349 398.608 415.033 403.924 407.424 413.045C408.838 414.655 410.009 416.459 411.131 418.264C417.569 409.728 427.568 404.705 438.299 404.705C453.663 404.705 466.101 392.267 466.101 377L459.907 377C459.858 388.999 450.249 398.608 438.299 398.608Z" fill="#C38585"/>
<path d="M464.003 407.875C462.394 409.289 460.589 410.46 458.687 411.582C467.223 418.02 472.247 428.019 472.247 438.652C472.247 457.285 456.98 472.454 438.347 472.454C419.569 472.454 404.448 457.285 404.448 438.652C404.448 423.386 392.011 410.948 376.646 410.948L376.646 417.045C388.596 417.045 398.205 426.654 398.205 438.604C398.205 443.335 398.985 448.017 400.693 452.456C401.473 454.651 402.595 456.846 403.814 458.992C404.936 460.797 406.107 462.601 407.521 464.211C415.13 473.332 426.495 478.648 438.396 478.648C460.54 478.648 478.539 460.699 478.539 438.652C478.441 426.8 473.124 415.484 464.003 407.875Z" fill="#C38585"/>
<path d="M459.858 438.653C459.858 450.505 450.151 460.212 438.299 460.212C426.349 460.212 416.74 450.603 416.74 438.653C416.74 433.921 415.96 429.239 414.252 424.8C413.472 422.605 412.35 420.411 411.131 418.264C410.009 416.46 408.838 414.655 407.424 413.045C399.815 403.924 388.45 398.608 376.549 398.608L376.549 404.705C395.328 404.705 410.448 419.874 410.448 438.506C410.448 453.773 422.886 466.211 438.25 466.211C453.614 466.211 466.052 453.773 466.052 438.506C466.052 428.556 460.736 419.435 452.102 414.557C447.713 416.167 442.981 417.045 438.25 417.045C450.249 417.094 459.858 426.8 459.858 438.653Z" fill="#C38585"/>
<path d="M412.643 407.875C414.253 406.461 416.057 405.29 417.959 404.168C409.424 397.73 404.4 387.731 404.4 377.097L398.205 377.097C398.205 388.999 403.522 400.315 412.643 407.875Z" fill="#C38585"/>
<path d="M424.495 401.144C428.885 399.534 433.616 398.656 438.348 398.656C426.398 398.656 416.789 389.048 416.789 377.098L410.594 377.098C410.546 386.999 415.862 396.218 424.495 401.144Z" fill="#C38585"/>
<path d="M376.549 0H500V123.061H376.549V0Z" fill="#C38585"/>
<path d="M376.646 106.185H393.376V122.963H388.645V111.013H376.646V106.185Z" fill="#F6F6F6"/>
<path d="M376.646 11.9014H487.952V122.964H483.27V16.7302H376.646V11.9014Z" fill="#F6F6F6"/>
<path d="M478.441 122.964H398.205V101.502H376.646V21.4614H478.441V122.964Z" fill="#F6F6F6"/>
<path d="M410.545 122.964H404.351C404.351 112.33 409.375 102.283 417.91 95.8931C420.008 97.1125 422.105 98.088 424.446 99.0147C415.862 103.892 410.545 113.111 410.545 122.964Z" fill="#D9CEC0"/>
<path d="M376.646 95.2588V89.1619C392.011 89.1619 404.448 76.7241 404.448 61.4573C404.448 42.825 419.715 27.6558 438.347 27.6558C457.126 27.6558 472.247 42.825 472.247 61.4573C472.247 72.0904 467.223 82.1382 458.687 88.5278C456.59 87.3084 454.492 86.3329 452.151 85.4061C460.784 80.4798 466.101 71.3587 466.101 61.4573C466.101 46.1905 453.663 33.7527 438.299 33.7527C422.934 33.7527 410.497 46.1905 410.497 61.4573C410.545 80.1384 395.279 95.2588 376.646 95.2588Z" fill="#D9CEC0"/>
<path d="M376.646 33.7527V27.6558C387.377 27.6558 397.425 32.6796 403.814 41.2154C402.595 43.3127 401.62 45.4101 400.693 47.7513C395.669 39.0692 386.548 33.7527 376.646 33.7527Z" fill="#D9CEC0"/>
<path d="M411.131 81.6995C412.35 79.6022 413.326 77.5048 414.252 75.1636C419.179 83.7969 428.397 89.0159 438.347 89.0159C457.126 89.0159 472.247 104.185 472.247 122.817H466.052C466.052 107.551 453.614 95.1128 438.25 95.1128C427.568 95.2592 417.569 90.2353 411.131 81.6995Z" fill="#D9CEC0"/>
<path d="M459.857 122.964H443.03C445.42 120.769 446.737 117.647 446.737 114.33C446.737 114.038 446.737 113.843 446.737 113.55C443.518 113.647 440.396 115.062 438.201 117.354C436.006 115.062 432.885 113.647 429.665 113.55C429.665 113.843 429.665 114.038 429.665 114.33C429.665 117.647 431.08 120.769 433.372 122.964H416.545C416.545 111.111 426.251 101.405 438.103 101.405C450.249 101.502 459.857 111.111 459.857 122.964Z" fill="#F6F6F6"/>
<path d="M416.74 61.4573C416.74 49.6048 426.446 39.8984 438.299 39.8984C450.249 39.8984 459.857 49.5072 459.857 61.4573C459.857 73.3098 450.151 83.0162 438.299 83.0162C426.397 83.0162 416.74 73.3098 416.74 61.4573Z" fill="#F6F6F6"/>
<path d="M381.329 61.4573C383.719 59.2624 385.036 56.1407 385.036 52.824C385.036 52.5313 385.036 52.3362 385.036 52.0436C381.816 52.1411 378.695 53.5556 376.5 55.8481V39.8984C388.45 39.8984 398.059 49.5072 398.059 61.4573C398.059 73.3098 388.352 83.0162 376.5 83.0162V67.0665C378.695 69.3589 381.816 70.7734 385.036 70.871C385.036 70.5783 385.036 70.3833 385.036 70.0906C385.133 66.7739 383.767 63.6522 381.329 61.4573Z" fill="#F6F6F6"/>
<path d="M393.376 106.184H376.646V101.502H398.205V122.963H393.376V106.184Z" fill="#D9CEC0"/>
<path d="M478.441 21.4612H376.646V16.73H483.27V122.963H478.441V21.4612Z" fill="#D9CEC0"/>
<path d="M376.597 111.014H388.645V123.061H376.597V111.014Z" fill="#C38585"/>
<path d="M376.646 39.8987V33.8018C386.597 33.8018 395.815 39.1183 400.742 47.6541C399.132 52.0439 398.254 56.7751 398.254 61.5063C398.205 49.5075 388.45 39.8987 376.646 39.8987Z" fill="#C38585"/>
<path d="M376.646 21.4614C388.596 21.4614 399.912 26.778 407.521 35.899C406.107 37.5086 404.936 39.3133 403.815 41.118C397.376 32.5823 387.377 27.5584 376.646 27.5584V21.4614Z" fill="#C38585"/>
<path d="M376.646 55.8479C378.841 53.5555 381.963 52.141 385.182 52.0435C385.182 52.3361 385.182 52.5312 385.182 52.8239C385.182 56.1406 383.768 59.2622 381.475 61.4571C383.865 63.652 385.182 66.7737 385.182 70.0905C385.182 70.3831 385.182 70.5782 385.182 70.8709C381.963 70.7733 378.841 69.3588 376.646 67.0663V55.8479Z" fill="#D9CEC0"/>
<path d="M433.519 61.4571C431.129 59.2622 429.812 56.1406 429.812 52.8239C429.812 52.5312 429.812 52.3361 429.812 52.0435C433.031 52.141 436.153 53.5555 438.348 55.8479C440.542 53.5555 443.664 52.141 446.883 52.0435C446.883 52.3361 446.883 52.5312 446.883 52.8239C446.883 56.1406 445.469 59.2622 443.176 61.4571C445.566 63.652 446.883 66.7737 446.883 70.0905C446.883 70.3831 446.883 70.5782 446.883 70.8709C443.664 70.7733 440.542 69.3588 438.348 67.0663C436.153 69.3588 433.031 70.7733 429.812 70.8709C429.812 70.5782 429.812 70.3831 429.812 70.0905C429.812 66.7737 431.08 63.652 433.519 61.4571Z" fill="#D9CEC0"/>
<path d="M429.812 113.501C433.031 113.599 436.153 115.013 438.348 117.305C440.542 115.013 443.664 113.599 446.883 113.501C446.883 113.794 446.883 113.989 446.883 114.281C446.883 117.598 445.469 120.72 443.176 122.915H433.568C431.178 120.72 429.861 117.598 429.861 114.281C429.812 114.135 429.812 113.794 429.812 113.501Z" fill="#D9CEC0"/>
<path d="M438.299 89.1621C428.349 89.1621 419.13 83.8456 414.204 75.3098C415.813 70.92 416.691 66.1888 416.691 61.4575C416.691 73.31 426.398 83.0164 438.25 83.0164C460.394 83.0164 478.393 100.966 478.393 123.012H472.198C472.198 104.283 457.078 89.1621 438.299 89.1621Z" fill="#C38585"/>
<path d="M438.299 101.502C426.349 101.502 415.033 96.1857 407.424 87.0647C408.838 85.4551 410.009 83.6504 411.131 81.8457C417.569 90.3814 427.568 95.4053 438.299 95.4053C453.663 95.4053 466.101 107.843 466.101 123.11H459.907C459.858 111.111 450.249 101.502 438.299 101.502Z" fill="#C38585"/>
<path d="M464.003 92.2349C462.394 90.8204 460.589 89.6498 458.687 88.528C467.223 82.0896 472.246 72.0906 472.246 61.4575C472.246 42.8252 456.98 27.656 438.347 27.656C419.569 27.656 404.448 42.8252 404.448 61.4575C404.448 76.7243 392.011 89.1621 376.646 89.1621V83.0651C388.596 83.0651 398.205 73.4563 398.205 61.5062C398.205 56.775 398.985 52.0926 400.693 47.654C401.473 45.4591 402.595 43.2642 403.814 41.118C404.936 39.3133 406.107 37.5086 407.521 35.899C415.13 26.778 426.495 21.4614 438.396 21.4614C460.54 21.4614 478.539 39.4109 478.539 61.4575C478.441 73.31 473.124 84.6259 464.003 92.2349Z" fill="#C38585"/>
<path d="M459.858 61.4572C459.858 49.6047 450.151 39.8984 438.299 39.8984C426.349 39.8984 416.74 49.5071 416.74 61.4572C416.74 66.1884 415.96 70.8709 414.252 75.3095C413.472 77.5044 412.35 79.6993 411.131 81.8454C410.009 83.6501 408.838 85.4548 407.424 87.0644C399.815 96.1855 388.45 101.502 376.549 101.502V95.405C395.328 95.405 410.448 80.2358 410.448 61.6035C410.448 46.3367 422.886 33.8989 438.25 33.8989C453.614 33.8989 466.052 46.3367 466.052 61.6035C466.052 71.5538 460.736 80.6748 452.102 85.5524C447.713 83.9428 442.981 83.0648 438.25 83.0648C450.249 83.0161 459.858 73.3097 459.858 61.4572Z" fill="#C38585"/>
<path d="M412.643 92.2349C414.253 93.6494 416.057 94.82 417.959 95.9419C409.424 102.38 404.4 112.379 404.4 123.012H398.205C398.205 111.111 403.522 99.7951 412.643 92.2349Z" fill="#C38585"/>
<path d="M424.495 98.9658C428.885 100.575 433.616 101.453 438.348 101.453C426.398 101.453 416.789 111.062 416.789 123.012H410.594C410.546 113.111 415.862 103.892 424.495 98.9658Z" fill="#C38585"/>
<path d="M123.451 500.11L0 500.11L1.07583e-05 377.049L123.451 377.049L123.451 500.11Z" fill="#C38585"/>
<path d="M123.354 393.925L106.624 393.925L106.624 377.147L111.355 377.147L111.355 389.097L123.354 389.097L123.354 393.925Z" fill="#F6F6F6"/>
<path d="M123.354 488.209L12.0479 488.208L12.0479 377.146L16.7304 377.146L16.7304 483.38L123.354 483.38L123.354 488.209Z" fill="#F6F6F6"/>
<path d="M21.5591 377.146L101.795 377.146L101.795 398.608L123.354 398.608L123.354 478.648L21.5591 478.648L21.5591 377.146Z" fill="#F6F6F6"/>
<path d="M89.4548 377.146L95.6493 377.146C95.6493 387.779 90.6254 397.827 82.0897 404.217C79.9923 402.997 77.8949 402.022 75.5537 401.095C84.1382 396.218 89.4548 386.999 89.4548 377.146Z" fill="#D9CEC0"/>
<path d="M123.354 404.851L123.354 410.948C107.989 410.948 95.5516 423.386 95.5516 438.653C95.5516 457.285 80.2848 472.454 61.6525 472.454C42.8739 472.454 27.7534 457.285 27.7534 438.653C27.7534 428.019 32.7773 417.972 41.313 411.582C43.4104 412.801 45.5077 413.777 47.849 414.704C39.2157 419.63 33.8991 428.751 33.8991 438.653C33.8991 453.919 46.3369 466.357 61.7013 466.357C77.0656 466.357 89.5034 453.919 89.5034 438.653C89.4546 419.972 104.721 404.851 123.354 404.851Z" fill="#D9CEC0"/>
<path d="M123.354 466.357L123.354 472.454C112.623 472.454 102.575 467.43 96.1855 458.894C97.4049 456.797 98.3805 454.7 99.3072 452.359C104.331 461.041 113.452 466.357 123.354 466.357Z" fill="#D9CEC0"/>
<path d="M88.8693 418.41C87.6499 420.508 86.6745 422.605 85.7477 424.946C80.8214 416.313 71.6028 411.094 61.6525 411.094C42.8739 411.094 27.7534 395.925 27.7534 377.292L33.9479 377.292C33.9479 392.559 46.3857 404.997 61.75 404.997C72.4319 404.851 82.4309 409.875 88.8693 418.41Z" fill="#D9CEC0"/>
<path d="M40.1426 377.146L56.9702 377.146C54.5802 379.341 53.2632 382.463 53.2632 385.78C53.2632 386.072 53.2632 386.267 53.2632 386.56C56.4824 386.462 59.604 385.048 61.7989 382.755C63.9938 385.048 67.1155 386.462 70.3347 386.56C70.3347 386.267 70.3347 386.072 70.3347 385.78C70.3347 382.463 68.9202 379.341 66.6277 377.146L83.4553 377.146C83.4553 388.999 73.749 398.705 61.8965 398.705C49.7514 398.608 40.1426 388.999 40.1426 377.146Z" fill="#F6F6F6"/>
<path d="M83.2602 438.653C83.2602 450.505 73.5539 460.211 61.7014 460.211C49.7514 460.211 40.1426 450.603 40.1426 438.653C40.1426 426.8 49.8489 417.094 61.7014 417.094C73.6027 417.094 83.2602 426.8 83.2602 438.653Z" fill="#F6F6F6"/>
<path d="M118.671 438.653C116.281 440.848 114.964 443.969 114.964 447.286C114.964 447.579 114.964 447.774 114.964 448.066C118.184 447.969 121.305 446.554 123.5 444.262L123.5 460.211C111.55 460.211 101.941 450.603 101.941 438.653C101.941 426.8 111.648 417.094 123.5 417.094L123.5 433.043C121.305 430.751 118.184 429.336 114.964 429.239C114.964 429.532 114.964 429.727 114.964 430.019C114.867 433.336 116.233 436.458 118.671 438.653Z" fill="#F6F6F6"/>
<path d="M106.624 393.925L123.354 393.925L123.354 398.608L101.795 398.608L101.795 377.147L106.624 377.147L106.624 393.925Z" fill="#D9CEC0"/>
<path d="M21.5587 478.649L123.354 478.649L123.354 483.38L16.73 483.38L16.73 377.146L21.5587 377.146L21.5587 478.649Z" fill="#D9CEC0"/>
<path d="M123.403 389.096L111.355 389.096L111.355 377.049L123.403 377.049L123.403 389.096Z" fill="#C38585"/>
<path d="M123.354 460.211L123.354 466.308C113.403 466.308 104.185 460.992 99.2583 452.456C100.868 448.066 101.746 443.335 101.746 438.604C101.795 450.602 111.55 460.211 123.354 460.211Z" fill="#C38585"/>
<path d="M123.354 478.648C111.404 478.648 100.088 473.332 92.4785 464.211C93.893 462.601 95.0636 460.797 96.1855 458.992C102.624 467.528 112.623 472.551 123.354 472.551L123.354 478.648Z" fill="#C38585"/>
<path d="M123.354 444.262C121.159 446.554 118.037 447.969 114.818 448.066C114.818 447.774 114.818 447.579 114.818 447.286C114.818 443.969 116.232 440.848 118.525 438.653C116.135 436.458 114.818 433.336 114.818 430.019C114.818 429.727 114.818 429.532 114.818 429.239C118.037 429.337 121.159 430.751 123.354 433.044L123.354 444.262Z" fill="#D9CEC0"/>
<path d="M66.4812 438.653C68.8713 440.848 70.1882 443.969 70.1882 447.286C70.1882 447.579 70.1882 447.774 70.1882 448.066C66.969 447.969 63.8474 446.554 61.6524 444.262C59.4575 446.554 56.3359 447.969 53.1167 448.066C53.1167 447.774 53.1167 447.579 53.1167 447.286C53.1167 443.969 54.5312 440.848 56.8236 438.653C54.4336 436.458 53.1167 433.336 53.1167 430.019C53.1167 429.727 53.1167 429.532 53.1167 429.239C56.3359 429.337 59.4575 430.751 61.6524 433.044C63.8474 430.751 66.969 429.337 70.1882 429.239C70.1882 429.532 70.1882 429.727 70.1882 430.019C70.1882 433.336 68.92 436.458 66.4812 438.653Z" fill="#D9CEC0"/>
<path d="M70.1882 386.609C66.969 386.511 63.8474 385.097 61.6524 382.804C59.4575 385.097 56.3359 386.511 53.1167 386.609C53.1167 386.316 53.1167 386.121 53.1167 385.828C53.1167 382.512 54.5312 379.39 56.8236 377.195L66.4324 377.195C68.8224 379.39 70.1394 382.512 70.1394 385.828C70.1882 385.975 70.1882 386.316 70.1882 386.609Z" fill="#D9CEC0"/>
<path d="M61.701 410.948C71.6513 410.948 80.8699 416.264 85.7962 424.8C84.1866 429.19 83.3087 433.921 83.3087 438.652C83.3087 426.8 73.6023 417.093 61.7498 417.093C39.6056 417.093 21.6074 399.144 21.6074 377.097L27.8019 377.097C27.8019 395.827 42.9224 410.948 61.701 410.948Z" fill="#C38585"/>
<path d="M61.7011 398.608C73.6511 398.608 84.9671 403.924 92.5761 413.045C91.1616 414.655 89.9909 416.459 88.8691 418.264C82.4307 409.728 72.4317 404.705 61.7011 404.705C46.3367 404.705 33.8989 392.267 33.8989 377L40.0934 377C40.1422 388.999 49.751 398.608 61.7011 398.608Z" fill="#C38585"/>
<path d="M35.9966 407.875C37.6062 409.289 39.4109 410.46 41.3131 411.582C32.7774 418.02 27.7535 428.019 27.7535 438.652C27.7535 457.285 43.0203 472.454 61.6526 472.454C80.4312 472.454 95.5517 457.285 95.5517 438.652C95.5517 423.386 107.99 410.948 123.354 410.948L123.354 417.045C111.404 417.045 101.795 426.654 101.795 438.604C101.795 443.335 101.015 448.017 99.3074 452.456C98.527 454.651 97.4051 456.846 96.1857 458.992C95.0639 460.797 93.8933 462.601 92.4788 464.211C84.8698 473.332 73.5051 478.648 61.6038 478.648C39.4597 478.648 21.4614 460.699 21.4614 438.652C21.559 426.8 26.8756 415.484 35.9966 407.875Z" fill="#C38585"/>
<path d="M40.1423 438.653C40.1423 450.505 49.8486 460.212 61.7011 460.212C73.6512 460.212 83.26 450.603 83.26 438.653C83.26 433.921 84.0404 429.239 85.7476 424.8C86.528 422.605 87.6498 420.411 88.8692 418.264C89.991 416.46 91.1617 414.655 92.5762 413.045C100.185 403.924 111.55 398.608 123.451 398.608L123.451 404.705C104.672 404.705 89.552 419.874 89.552 438.506C89.552 453.773 77.1142 466.211 61.7499 466.211C46.3856 466.211 33.9478 453.773 33.9478 438.506C33.9478 428.556 39.2643 419.435 47.8976 414.557C52.2874 416.167 57.0187 417.045 61.7499 417.045C49.7511 417.094 40.1423 426.8 40.1423 438.653Z" fill="#C38585"/>
<path d="M87.3571 407.875C85.7475 406.461 83.9428 405.29 82.0405 404.168C90.5763 397.73 95.6002 387.731 95.6002 377.097L101.795 377.097C101.795 388.999 96.4781 400.315 87.3571 407.875Z" fill="#C38585"/>
<path d="M75.5046 401.144C71.1148 399.534 66.3836 398.656 61.6523 398.656C73.6024 398.656 83.2112 389.048 83.2112 377.098L89.4057 377.098C89.4545 386.999 84.1379 396.218 75.5046 401.144Z" fill="#C38585"/>
<path d="M248.903 0H125.5V123.013H248.903V0Z" fill="#C38585"/>
<path d="M248.903 106.163H125.5V110.984H248.903V106.163Z" fill="#F6F6F6"/>
<path d="M248.903 11.9312H125.5V16.7523H248.903V11.9312Z" fill="#F6F6F6"/>
<path d="M248.903 21.4272H125.5V101.342H248.903V21.4272Z" fill="#F6F6F6"/>
<path d="M152.674 81.6677C151.456 79.5737 150.482 77.4796 149.557 75.1421C144.639 83.7618 135.435 88.9725 125.5 88.9725V95.1086C136.214 95.206 146.246 90.2387 152.674 81.6677Z" fill="#D9CEC0"/>
<path d="M248.903 95.2061V89.0701C233.563 89.0701 221.144 76.6519 221.144 61.4092C221.144 42.7576 205.902 27.6123 187.25 27.6123C176.536 27.6123 166.504 32.6282 160.076 41.1505C161.294 43.2446 162.268 45.3386 163.193 47.6762C168.111 39.0565 177.315 33.8457 187.25 33.8457C202.59 33.8457 215.008 46.2639 215.008 61.5066C214.911 80.1095 230.154 95.2061 248.903 95.2061Z" fill="#D9CEC0"/>
<path d="M221.729 41.1991C222.946 43.2931 223.92 45.3872 224.845 47.7247C229.764 39.105 238.968 33.8943 248.902 33.8943V27.7582C238.189 27.6608 228.157 32.6768 221.729 41.1991Z" fill="#D9CEC0"/>
<path d="M153.258 61.4579C153.258 80.1095 168.501 95.2547 187.153 95.2547C197.866 95.2547 207.898 90.2388 214.327 81.7165C213.109 79.6225 212.135 77.5284 211.21 75.1909C206.291 83.8106 197.087 89.0213 187.153 89.0213C171.812 89.0213 159.394 76.6031 159.394 61.3604C159.394 42.7088 144.152 27.5635 125.5 27.5635V33.6996C140.84 33.7483 153.258 46.2151 153.258 61.4579Z" fill="#D9CEC0"/>
<path d="M227.329 61.4578C227.329 73.2916 237.069 83.0314 248.903 83.0314V67.1069C246.711 69.3957 243.595 70.808 240.38 70.9054C240.38 70.6132 240.38 70.4184 240.38 70.1262C240.38 66.8147 241.793 63.698 244.081 61.5065C241.695 59.3151 240.38 56.1983 240.38 52.8868C240.38 52.5946 240.38 52.3998 240.38 52.1077C243.595 52.205 246.711 53.6173 248.903 55.9062V39.8843C236.971 39.8843 227.329 49.5267 227.329 61.4578Z" fill="#F6F6F6"/>
<path d="M208.823 61.4578C208.823 49.6241 199.181 39.8843 187.25 39.8843C175.319 39.8843 165.676 49.5267 165.676 61.4578C165.676 73.2916 175.416 83.0314 187.25 83.0314C199.084 82.9827 208.823 73.2916 208.823 61.4578Z" fill="#F6F6F6"/>
<path d="M125.5 39.8843V55.8087C127.691 53.5199 130.808 52.1077 134.022 52.0103C134.022 52.3025 134.022 52.4973 134.022 52.7894C134.022 56.101 132.61 59.2177 130.321 61.4091C132.707 63.6005 134.022 66.7173 134.022 70.0288C134.022 70.321 134.022 70.5158 134.022 70.808C130.808 70.7106 127.691 69.2983 125.5 67.0095V82.934C137.431 82.934 147.074 73.2916 147.074 61.3604C147.074 49.4292 137.431 39.8843 125.5 39.8843Z" fill="#F6F6F6"/>
<path d="M248.903 16.7036H125.5V21.5248H248.903V16.7036Z" fill="#D9CEC0"/>
<path d="M248.903 101.439H125.5V106.261H248.903V101.439Z" fill="#D9CEC0"/>
<path d="M248.903 110.984H125.5V123.013H248.903V110.984Z" fill="#C38585"/>
<path d="M248.903 27.6609V21.5249C236.972 21.5249 225.625 26.8331 218.028 35.9397C219.44 37.5468 220.658 39.3486 221.729 41.1505C228.157 32.6769 238.189 27.6609 248.903 27.6609Z" fill="#C38585"/>
<path d="M248.902 39.8841V33.748C238.968 33.748 229.764 39.0562 224.845 47.5785C226.452 52.0101 227.329 56.6851 227.329 61.4089C227.329 49.5264 236.971 39.8841 248.902 39.8841Z" fill="#C38585"/>
<path d="M125.5 21.4272V27.5633C144.249 27.5633 159.394 42.7086 159.394 61.3602C159.394 76.6029 171.812 89.0211 187.153 89.0211C197.087 89.0211 206.291 83.713 211.21 75.1907C209.603 70.7591 208.726 66.084 208.726 61.3602C208.726 73.194 198.986 82.9338 187.153 82.9338C175.221 82.9338 165.579 73.2914 165.579 61.3602C165.579 39.3971 147.658 21.4272 125.5 21.4272Z" fill="#C38585"/>
<path d="M125.5 33.748V39.8841C137.431 39.8841 147.074 49.5265 147.074 61.4576C147.074 83.5182 165.043 101.439 187.201 101.439C199.132 101.439 210.479 96.1312 218.076 87.0245C216.664 85.4174 215.447 83.6155 214.375 81.8137C207.947 90.336 197.915 95.352 187.201 95.352C168.452 95.352 153.307 80.2066 153.307 61.555C153.258 46.2149 140.84 33.748 125.5 33.748Z" fill="#C38585"/>
<path d="M248.903 55.8087C246.711 53.5199 243.594 52.1077 240.38 52.0103C240.38 52.3024 240.38 52.4972 240.38 52.7894C240.38 56.1009 241.793 59.2176 244.081 61.4091C241.695 63.6005 240.38 66.7173 240.38 70.0288C240.38 70.321 240.38 70.5158 240.38 70.808C243.594 70.7106 246.711 69.2983 248.903 67.0094V55.8087Z" fill="#D9CEC0"/>
<path d="M195.675 52.0103C192.461 52.1077 189.344 53.5199 187.153 55.8087C184.961 53.5199 181.844 52.1077 178.63 52.0103C178.63 52.3024 178.63 52.4972 178.63 52.7894C178.63 56.1009 180.043 59.2176 182.331 61.4091C179.945 63.6005 178.63 66.7173 178.63 70.0288C178.63 70.321 178.63 70.5158 178.63 70.808C181.844 70.7106 184.961 69.2983 187.153 67.0094C189.344 69.2983 192.461 70.7106 195.675 70.808C195.675 70.5158 195.675 70.321 195.675 70.0288C195.675 66.7173 194.263 63.6005 191.974 61.4091C194.36 59.2176 195.675 56.1009 195.675 52.7894C195.772 52.4972 195.772 52.3024 195.675 52.0103Z" fill="#D9CEC0"/>
<path d="M134.022 52.0103C130.808 52.1077 127.691 53.5199 125.5 55.8087V67.0582C127.691 69.347 130.808 70.7592 134.022 70.8566C134.022 70.5645 134.022 70.3697 134.022 70.0775C134.022 66.766 132.61 63.6493 130.321 61.4578C132.707 59.2664 134.022 56.1496 134.022 52.8381C134.022 52.4972 134.022 52.3024 134.022 52.0103Z" fill="#D9CEC0"/>
<path d="M156.375 35.891C157.787 37.4981 159.005 39.2999 160.076 41.1018C166.504 32.5795 176.536 27.5635 187.25 27.5635C205.999 27.5635 221.144 42.7088 221.144 61.3604C221.144 76.6031 233.563 89.0213 248.903 89.0213V82.8853C236.971 82.8853 227.329 73.2429 227.329 61.3117C227.329 56.588 226.55 51.8642 224.845 47.4813C219.05 31.7516 204.002 21.3301 187.25 21.3301C175.319 21.4275 163.972 26.7357 156.375 35.891Z" fill="#C38585"/>
<path d="M208.823 61.4579C208.823 66.1817 209.603 70.9054 211.307 75.2883C212.086 77.4798 213.206 79.7199 214.424 81.814C215.544 83.6158 216.713 85.4177 218.125 87.0248C225.722 96.1314 237.069 101.44 249 101.44V95.3036C230.251 95.3036 215.106 80.1582 215.106 61.5066C215.106 46.2639 202.687 33.8457 187.347 33.8457C177.413 33.8457 168.209 39.1539 163.29 47.6762C164.897 52.1077 165.774 56.7828 165.774 61.5066C165.774 49.6728 175.513 39.933 187.347 39.933C199.084 39.8843 208.823 49.5267 208.823 61.4579Z" fill="#C38585"/>
<path d="M156.375 87.0248C154.963 85.4177 153.745 83.6158 152.674 81.814C146.246 90.3362 136.214 95.3522 125.5 95.3522V101.488C137.431 101.44 148.729 96.1314 156.375 87.0248Z" fill="#C38585"/>
<path d="M125.5 82.9828V89.1189C135.435 89.1189 144.639 83.8107 149.557 75.2884C147.95 70.8568 147.074 66.1818 147.074 61.458C147.025 73.2918 137.431 82.9828 125.5 82.9828Z" fill="#C38585"/>
<path d="M251.097 500.11L374.5 500.11L374.5 377.097L251.097 377.097L251.097 500.11Z" fill="#C38585"/>
<path d="M251.097 393.947L374.5 393.947L374.5 389.126L251.097 389.126L251.097 393.947Z" fill="#F6F6F6"/>
<path d="M251.097 488.179L374.5 488.179L374.5 483.358L251.097 483.358L251.097 488.179Z" fill="#F6F6F6"/>
<path d="M251.097 478.683L374.5 478.683L374.5 398.768L251.097 398.768L251.097 478.683Z" fill="#F6F6F6"/>
<path d="M347.326 418.442C348.544 420.536 349.518 422.63 350.443 424.968C355.361 416.348 364.565 411.137 374.5 411.137L374.5 405.001C363.786 404.904 353.754 409.871 347.326 418.442Z" fill="#D9CEC0"/>
<path d="M251.097 404.904L251.097 411.04C266.437 411.04 278.856 423.458 278.856 438.701C278.856 457.352 294.098 472.498 312.75 472.498C323.464 472.498 333.496 467.482 339.924 458.959C338.706 456.865 337.732 454.771 336.807 452.434C331.889 461.053 322.685 466.264 312.75 466.264C297.41 466.264 284.992 453.846 284.992 438.603C285.089 420 269.846 404.904 251.097 404.904Z" fill="#D9CEC0"/>
<path d="M278.271 458.911C277.054 456.817 276.08 454.723 275.155 452.385C270.236 461.005 261.032 466.216 251.098 466.216L251.098 472.352C261.811 472.449 271.843 467.433 278.271 458.911Z" fill="#D9CEC0"/>
<path d="M346.742 438.652C346.742 420 331.499 404.855 312.847 404.855C302.134 404.855 292.102 409.871 285.673 418.393C286.891 420.487 287.865 422.581 288.79 424.919C293.709 416.299 302.913 411.089 312.847 411.089C328.188 411.089 340.606 423.507 340.606 438.749C340.606 457.401 355.848 472.546 374.5 472.546L374.5 466.41C359.16 466.362 346.742 453.895 346.742 438.652Z" fill="#D9CEC0"/>
<path d="M272.671 438.652C272.671 426.818 262.931 417.079 251.097 417.079L251.097 433.003C253.289 430.714 256.405 429.302 259.62 429.205C259.62 429.497 259.62 429.691 259.62 429.984C259.62 433.295 258.207 436.412 255.919 438.603C258.305 440.795 259.62 443.912 259.62 447.223C259.62 447.515 259.62 447.71 259.62 448.002C256.405 447.905 253.289 446.493 251.097 444.204L251.097 460.226C263.029 460.226 272.671 450.583 272.671 438.652Z" fill="#F6F6F6"/>
<path d="M291.177 438.652C291.177 450.486 300.819 460.226 312.75 460.226C324.681 460.226 334.324 450.583 334.324 438.652C334.324 426.818 324.584 417.079 312.75 417.079C300.916 417.127 291.177 426.818 291.177 438.652Z" fill="#F6F6F6"/>
<path d="M374.5 460.226L374.5 444.301C372.309 446.59 369.192 448.002 365.978 448.1C365.978 447.807 365.978 447.613 365.978 447.32C365.978 444.009 367.39 440.892 369.679 438.701C367.293 436.509 365.978 433.393 365.978 430.081C365.978 429.789 365.978 429.594 365.978 429.302C369.192 429.399 372.309 430.812 374.5 433.1L374.5 417.176C362.569 417.176 352.926 426.818 352.926 438.749C352.926 450.681 362.569 460.226 374.5 460.226Z" fill="#F6F6F6"/>
<path d="M251.097 483.406L374.5 483.406L374.5 478.585L251.097 478.585L251.097 483.406Z" fill="#D9CEC0"/>
<path d="M251.097 398.67L374.5 398.67L374.5 393.849L251.097 393.849L251.097 398.67Z" fill="#D9CEC0"/>
<path d="M251.097 389.125L374.5 389.125L374.5 377.097L251.097 377.097L251.097 389.125Z" fill="#C38585"/>
<path d="M251.097 472.449L251.097 478.585C263.028 478.585 274.375 473.277 281.972 464.17C280.56 462.563 279.342 460.761 278.271 458.959C271.843 467.433 261.811 472.449 251.097 472.449Z" fill="#C38585"/>
<path d="M251.098 460.226L251.098 466.362C261.032 466.362 270.236 461.054 275.155 452.531C273.548 448.1 272.671 443.425 272.671 438.701C272.671 450.583 263.029 460.226 251.098 460.226Z" fill="#C38585"/>
<path d="M374.5 478.683L374.5 472.547C355.751 472.547 340.606 457.401 340.606 438.75C340.606 423.507 328.188 411.089 312.847 411.089C302.913 411.089 293.709 416.397 288.79 424.919C290.397 429.351 291.274 434.026 291.274 438.75C291.274 426.916 301.014 417.176 312.847 417.176C324.779 417.176 334.421 426.818 334.421 438.75C334.421 460.713 352.342 478.683 374.5 478.683Z" fill="#C38585"/>
<path d="M374.5 466.362L374.5 460.226C362.569 460.226 352.926 450.583 352.926 438.652C352.926 416.592 334.957 398.671 312.799 398.671C300.868 398.671 289.521 403.979 281.924 413.085C283.336 414.692 284.553 416.494 285.625 418.296C292.053 409.774 302.085 404.758 312.799 404.758C331.548 404.758 346.693 419.903 346.693 438.555C346.742 453.895 359.16 466.362 374.5 466.362Z" fill="#C38585"/>
<path d="M251.097 444.301C253.289 446.59 256.406 448.002 259.62 448.1C259.62 447.807 259.62 447.613 259.62 447.32C259.62 444.009 258.207 440.892 255.919 438.701C258.305 436.509 259.62 433.393 259.62 430.081C259.62 429.789 259.62 429.594 259.62 429.302C256.406 429.399 253.289 430.812 251.097 433.1L251.097 444.301Z" fill="#D9CEC0"/>
<path d="M304.325 448.1C307.539 448.002 310.656 446.59 312.847 444.301C315.039 446.59 318.156 448.002 321.37 448.1C321.37 447.807 321.37 447.613 321.37 447.32C321.37 444.009 319.957 440.892 317.669 438.701C320.055 436.509 321.37 433.393 321.37 430.081C321.37 429.789 321.37 429.594 321.37 429.302C318.156 429.399 315.039 430.812 312.847 433.1C310.656 430.812 307.539 429.399 304.325 429.302C304.325 429.594 304.325 429.789 304.325 430.081C304.325 433.393 305.737 436.509 308.026 438.701C305.64 440.892 304.325 444.009 304.325 447.32C304.228 447.613 304.228 447.807 304.325 448.1Z" fill="#D9CEC0"/>
<path d="M365.978 448.1C369.192 448.002 372.309 446.59 374.5 444.301L374.5 433.052C372.309 430.763 369.192 429.351 365.978 429.253C365.978 429.545 365.978 429.74 365.978 430.032C365.978 433.344 367.39 436.461 369.679 438.652C367.293 440.843 365.978 443.96 365.978 447.272C365.978 447.613 365.978 447.807 365.978 448.1Z" fill="#D9CEC0"/>
<path d="M343.625 464.219C342.213 462.612 340.995 460.81 339.924 459.008C333.496 467.53 323.464 472.546 312.75 472.546C294.001 472.546 278.856 457.401 278.856 438.749C278.856 423.507 266.438 411.089 251.097 411.089L251.097 417.225C263.029 417.225 272.671 426.867 272.671 438.798C272.671 443.522 273.45 448.246 275.155 452.629C280.95 468.358 295.998 478.78 312.75 478.78C324.681 478.682 336.028 473.374 343.625 464.219Z" fill="#C38585"/>
<path d="M291.177 438.652C291.177 433.928 290.397 429.204 288.693 424.822C287.914 422.63 286.794 420.39 285.576 418.296C284.456 416.494 283.287 414.692 281.875 413.085C274.278 403.978 262.931 398.67 251 398.67L251 404.806C269.749 404.806 284.894 419.952 284.894 438.603C284.894 453.846 297.313 466.264 312.653 466.264C322.587 466.264 331.791 460.956 336.71 452.434C335.103 448.002 334.226 443.327 334.226 438.603C334.226 450.437 324.487 460.177 312.653 460.177C300.916 460.226 291.177 450.583 291.177 438.652Z" fill="#C38585"/>
<path d="M343.625 413.085C345.037 414.692 346.255 416.494 347.326 418.296C353.754 409.774 363.786 404.758 374.5 404.758L374.5 398.622C362.569 398.67 351.271 403.978 343.625 413.085Z" fill="#C38585"/>
<path d="M374.5 417.127L374.5 410.991C364.565 410.991 355.361 416.299 350.443 424.821C352.05 429.253 352.926 433.928 352.926 438.652C352.975 426.818 362.569 417.127 374.5 417.127Z" fill="#C38585"/>
<path d="M500.013 248.403L500.013 125L377 125L377 248.403L500.013 248.403Z" fill="#C38585"/>
<path d="M393.85 248.403L393.85 125L389.029 125L389.029 248.403L393.85 248.403Z" fill="#F6F6F6"/>
<path d="M488.082 248.403L488.082 125L483.261 125L483.261 248.403L488.082 248.403Z" fill="#F6F6F6"/>
<path d="M478.586 248.403L478.586 125L398.671 125L398.671 248.403L478.586 248.403Z" fill="#F6F6F6"/>
<path d="M418.345 152.174C420.439 150.956 422.534 149.982 424.871 149.057C416.251 144.139 411.041 134.935 411.041 125L404.905 125C404.807 135.714 409.774 145.746 418.345 152.174Z" fill="#D9CEC0"/>
<path d="M404.807 248.403L410.943 248.403C410.943 233.063 423.361 220.644 438.604 220.644C457.256 220.644 472.401 205.402 472.401 186.75C472.401 176.036 467.385 166.004 458.863 159.576C456.769 160.794 454.675 161.768 452.337 162.693C460.957 167.611 466.167 176.815 466.167 186.75C466.167 202.09 453.749 214.508 438.507 214.508C419.904 214.411 404.807 229.654 404.807 248.403Z" fill="#D9CEC0"/>
<path d="M458.814 221.229C456.72 222.446 454.626 223.42 452.288 224.345C460.908 229.264 466.119 238.468 466.119 248.402L472.255 248.402C472.352 237.689 467.336 227.657 458.814 221.229Z" fill="#D9CEC0"/>
<path d="M438.555 152.758C419.904 152.758 404.758 168.001 404.758 186.653C404.758 197.366 409.774 207.398 418.297 213.827C420.391 212.609 422.485 211.635 424.822 210.71C416.203 205.791 410.992 196.587 410.992 186.653C410.992 171.312 423.41 158.894 438.653 158.894C457.304 158.894 472.45 143.652 472.45 125L466.314 125C466.265 140.34 453.798 152.758 438.555 152.758Z" fill="#D9CEC0"/>
<path d="M438.555 226.829C426.722 226.829 416.982 236.569 416.982 248.403L432.906 248.403C430.617 246.211 429.205 243.095 429.108 239.88C429.4 239.88 429.595 239.88 429.887 239.88C433.199 239.88 436.315 241.293 438.507 243.581C440.698 241.195 443.815 239.88 447.126 239.88C447.419 239.88 447.613 239.88 447.906 239.88C447.808 243.095 446.396 246.211 444.107 248.403L460.129 248.403C460.129 236.471 450.487 226.829 438.555 226.829Z" fill="#F6F6F6"/>
<path d="M438.555 208.323C450.389 208.323 460.129 198.681 460.129 186.75C460.129 174.819 450.487 165.176 438.555 165.176C426.722 165.176 416.982 174.916 416.982 186.75C417.031 198.584 426.722 208.323 438.555 208.323Z" fill="#F6F6F6"/>
<path d="M460.129 125L444.204 125C446.493 127.191 447.906 130.308 448.003 133.522C447.711 133.522 447.516 133.522 447.224 133.522C443.912 133.522 440.796 132.11 438.604 129.821C436.413 132.207 433.296 133.522 429.984 133.522C429.692 133.522 429.497 133.522 429.205 133.522C429.303 130.308 430.715 127.191 433.004 125L417.079 125C417.079 136.931 426.722 146.574 438.653 146.574C450.584 146.574 460.129 136.931 460.129 125Z" fill="#F6F6F6"/>
<path d="M483.31 248.403L483.31 125L478.488 125L478.488 248.403L483.31 248.403Z" fill="#D9CEC0"/>
<path d="M398.574 248.403L398.574 125L393.753 125L393.753 248.403L398.574 248.403Z" fill="#D9CEC0"/>
<path d="M389.029 248.403L389.029 125L377 125L377 248.403L389.029 248.403Z" fill="#C38585"/>
<path d="M472.352 248.403L478.488 248.403C478.488 236.472 473.18 225.125 464.073 217.528C462.466 218.94 460.665 220.158 458.863 221.229C467.336 227.657 472.352 237.689 472.352 248.403Z" fill="#C38585"/>
<path d="M460.129 248.402L466.265 248.402C466.265 238.468 460.957 229.264 452.435 224.345C448.003 225.952 443.328 226.829 438.604 226.829C450.487 226.829 460.129 236.471 460.129 248.402Z" fill="#C38585"/>
<path d="M478.586 125L472.45 125C472.45 143.749 457.305 158.894 438.653 158.894C423.41 158.894 410.992 171.312 410.992 186.653C410.992 196.587 416.3 205.791 424.823 210.71C429.254 209.103 433.929 208.226 438.653 208.226C426.819 208.226 417.079 198.486 417.079 186.653C417.079 174.721 426.722 165.079 438.653 165.079C460.616 165.079 478.586 147.158 478.586 125Z" fill="#C38585"/>
<path d="M466.265 125L460.129 125C460.129 136.931 450.487 146.574 438.556 146.574C416.495 146.574 398.574 164.543 398.574 186.701C398.574 198.632 403.882 209.979 412.989 217.576C414.596 216.164 416.398 214.947 418.199 213.875C409.677 207.447 404.661 197.415 404.661 186.701C404.661 167.952 419.807 152.807 438.458 152.807C453.798 152.758 466.265 140.34 466.265 125Z" fill="#C38585"/>
<path d="M444.204 248.403C446.493 246.211 447.906 243.094 448.003 239.88C447.711 239.88 447.516 239.88 447.224 239.88C443.912 239.88 440.796 241.293 438.604 243.581C436.413 241.195 433.296 239.88 429.984 239.88C429.692 239.88 429.497 239.88 429.205 239.88C429.303 243.094 430.715 246.211 433.004 248.403L444.204 248.403Z" fill="#D9CEC0"/>
<path d="M448.003 195.175C447.906 191.961 446.493 188.844 444.204 186.653C446.493 184.461 447.906 181.344 448.003 178.13C447.711 178.13 447.516 178.13 447.224 178.13C443.912 178.13 440.796 179.543 438.604 181.831C436.413 179.445 433.296 178.13 429.984 178.13C429.692 178.13 429.497 178.13 429.205 178.13C429.303 181.344 430.715 184.461 433.004 186.653C430.715 188.844 429.303 191.961 429.205 195.175C429.497 195.175 429.692 195.175 429.984 195.175C433.296 195.175 436.413 193.763 438.604 191.474C440.796 193.86 443.912 195.175 447.224 195.175C447.516 195.272 447.711 195.272 448.003 195.175Z" fill="#D9CEC0"/>
<path d="M448.003 133.522C447.906 130.308 446.493 127.191 444.204 125L432.955 125C430.666 127.191 429.254 130.308 429.157 133.522C429.449 133.522 429.644 133.522 429.936 133.522C433.247 133.522 436.364 132.11 438.555 129.821C440.747 132.207 443.864 133.522 447.175 133.522C447.516 133.522 447.711 133.522 448.003 133.522Z" fill="#D9CEC0"/>
<path d="M464.122 155.875C462.515 157.287 460.713 158.505 458.911 159.576C467.434 166.004 472.45 176.036 472.45 186.75C472.45 205.499 457.304 220.644 438.653 220.644C423.41 220.644 410.992 233.062 410.992 248.403L417.128 248.403C417.128 236.471 426.77 226.829 438.701 226.829C443.425 226.829 448.149 226.05 452.532 224.345C468.262 218.55 478.683 203.502 478.683 186.75C478.586 174.819 473.278 163.472 464.122 155.875Z" fill="#C38585"/>
<path d="M438.555 208.323C433.831 208.323 429.108 209.103 424.725 210.807C422.533 211.586 420.293 212.706 418.199 213.924C416.397 215.044 414.595 216.213 412.988 217.625C403.882 225.222 398.574 236.569 398.574 248.5L404.71 248.5C404.71 229.751 419.855 214.606 438.507 214.606C453.749 214.606 466.167 202.187 466.167 186.847C466.167 176.913 460.859 167.709 452.337 162.79C447.905 164.397 443.23 165.274 438.507 165.274C450.34 165.274 460.08 175.013 460.08 186.847C460.129 198.584 450.486 208.323 438.555 208.323Z" fill="#C38585"/>
<path d="M412.988 155.875C414.595 154.463 416.397 153.245 418.199 152.174C409.677 145.746 404.661 135.714 404.661 125L398.525 125C398.574 136.931 403.882 148.229 412.988 155.875Z" fill="#C38585"/>
<path d="M417.03 125L410.894 125C410.894 134.935 416.202 144.139 424.725 149.057C429.156 147.45 433.831 146.574 438.555 146.574C426.721 146.525 417.03 136.931 417.03 125Z" fill="#C38585"/>
<path d="M2.3048e-05 250.597L0 374L123.013 374L123.013 250.597L2.3048e-05 250.597Z" fill="#C38585"/>
<path d="M106.163 250.597L106.163 374L110.984 374L110.984 250.597L106.163 250.597Z" fill="#F6F6F6"/>
<path d="M11.9312 250.597L11.9312 374L16.7523 374L16.7524 250.597L11.9312 250.597Z" fill="#F6F6F6"/>
<path d="M21.4273 250.597L21.4272 374L101.342 374L101.342 250.597L21.4273 250.597Z" fill="#F6F6F6"/>
<path d="M81.6677 346.826C79.5737 348.044 77.4796 349.018 75.1421 349.943C83.7618 354.861 88.9725 364.065 88.9725 374L95.1086 374C95.206 363.286 90.2387 353.254 81.6677 346.826Z" fill="#D9CEC0"/>
<path d="M95.2061 250.597L89.0701 250.597C89.0701 265.937 76.6519 278.356 61.4092 278.356C42.7576 278.356 27.6123 293.598 27.6123 312.25C27.6123 322.964 32.6282 332.996 41.1505 339.424C43.2446 338.206 45.3386 337.232 47.6762 336.307C39.0565 331.389 33.8457 322.185 33.8457 312.25C33.8457 296.91 46.2639 284.492 61.5066 284.492C80.1095 284.589 95.2061 269.346 95.2061 250.597Z" fill="#D9CEC0"/>
<path d="M41.1991 277.771C43.2931 276.554 45.3872 275.58 47.7247 274.655C39.105 269.736 33.8943 260.532 33.8943 250.598L27.7582 250.598C27.6608 261.311 32.6768 271.343 41.1991 277.771Z" fill="#D9CEC0"/>
<path d="M61.4579 346.242C80.1095 346.242 95.2547 330.999 95.2547 312.347C95.2547 301.634 90.2388 291.602 81.7165 285.173C79.6225 286.391 77.5284 287.365 75.1909 288.29C83.8106 293.209 89.0213 302.413 89.0213 312.347C89.0213 327.688 76.6031 340.106 61.3604 340.106C42.7088 340.106 27.5635 355.348 27.5635 374L33.6996 374C33.7483 358.66 46.2151 346.242 61.4579 346.242Z" fill="#D9CEC0"/>
<path d="M61.4578 272.171C73.2916 272.171 83.0314 262.431 83.0314 250.597L67.1069 250.597C69.3957 252.789 70.808 255.905 70.9054 259.12C70.6132 259.12 70.4184 259.12 70.1262 259.12C66.8147 259.12 63.698 257.707 61.5065 255.419C59.3151 257.805 56.1983 259.12 52.8868 259.12C52.5946 259.12 52.3998 259.12 52.1077 259.12C52.2051 255.905 53.6173 252.789 55.9062 250.597L39.8843 250.597C39.8843 262.529 49.5267 272.171 61.4578 272.171Z" fill="#F6F6F6"/>
<path d="M61.4579 290.677C49.6241 290.677 39.8843 300.319 39.8843 312.25C39.8843 324.181 49.5267 333.824 61.4578 333.824C73.2916 333.824 83.0314 324.084 83.0314 312.25C82.9827 300.416 73.2916 290.677 61.4579 290.677Z" fill="#F6F6F6"/>
<path d="M39.8843 374L55.8087 374C53.5199 371.809 52.1077 368.692 52.0103 365.478C52.3025 365.478 52.4973 365.478 52.7894 365.478C56.101 365.478 59.2177 366.89 61.4091 369.179C63.6005 366.793 66.7173 365.478 70.0288 365.478C70.321 365.478 70.5158 365.478 70.808 365.478C70.7106 368.692 69.2983 371.809 67.0095 374L82.934 374C82.934 362.069 73.2916 352.426 61.3604 352.426C49.4292 352.426 39.8843 362.069 39.8843 374Z" fill="#F6F6F6"/>
<path d="M16.7036 250.597L16.7036 374L21.5248 374L21.5248 250.597L16.7036 250.597Z" fill="#D9CEC0"/>
<path d="M101.439 250.597L101.439 374L106.261 374L106.261 250.597L101.439 250.597Z" fill="#D9CEC0"/>
<path d="M110.984 250.597L110.984 374L123.013 374L123.013 250.597L110.984 250.597Z" fill="#C38585"/>
<path d="M27.6609 250.597L21.5249 250.597C21.5249 262.528 26.8331 273.875 35.9397 281.472C37.5468 280.06 39.3486 278.842 41.1505 277.771C32.6769 271.343 27.6609 261.311 27.6609 250.597Z" fill="#C38585"/>
<path d="M39.8841 250.598L33.7481 250.598C33.748 260.532 39.0562 269.736 47.5785 274.655C52.0101 273.048 56.6851 272.171 61.4089 272.171C49.5264 272.171 39.8841 262.529 39.8841 250.598Z" fill="#C38585"/>
<path d="M21.4272 374L27.5633 374C27.5633 355.251 42.7086 340.106 61.3602 340.106C76.6029 340.106 89.0211 327.688 89.0211 312.347C89.0211 302.413 83.713 293.209 75.1907 288.29C70.7591 289.897 66.084 290.774 61.3602 290.774C73.194 290.774 82.9338 300.514 82.9338 312.347C82.9338 324.279 73.2914 333.921 61.3602 333.921C39.3971 333.921 21.4273 351.842 21.4272 374Z" fill="#C38585"/>
<path d="M33.748 374L39.8841 374C39.8841 362.069 49.5265 352.426 61.4576 352.426C83.5182 352.427 101.439 334.457 101.439 312.299C101.439 300.368 96.1312 289.021 87.0245 281.424C85.4174 282.836 83.6156 284.053 81.8137 285.125C90.336 291.553 95.352 301.585 95.352 312.299C95.352 331.048 80.2066 346.193 61.555 346.193C46.2149 346.242 33.748 358.66 33.748 374Z" fill="#C38585"/>
<path d="M55.8087 250.597C53.5199 252.789 52.1077 255.906 52.0103 259.12C52.3024 259.12 52.4972 259.12 52.7894 259.12C56.1009 259.12 59.2176 257.707 61.4091 255.419C63.6005 257.805 66.7173 259.12 70.0288 259.12C70.321 259.12 70.5158 259.12 70.808 259.12C70.7106 255.906 69.2983 252.789 67.0094 250.597L55.8087 250.597Z" fill="#D9CEC0"/>
<path d="M52.0103 303.825C52.1077 307.039 53.5199 310.156 55.8087 312.347C53.5199 314.539 52.1077 317.656 52.0103 320.87C52.3024 320.87 52.4972 320.87 52.7894 320.87C56.1009 320.87 59.2176 319.457 61.4091 317.169C63.6005 319.555 66.7173 320.87 70.0288 320.87C70.321 320.87 70.5158 320.87 70.808 320.87C70.7106 317.656 69.2983 314.539 67.0094 312.347C69.2983 310.156 70.7106 307.039 70.808 303.825C70.5158 303.825 70.321 303.825 70.0288 303.825C66.7173 303.825 63.6005 305.237 61.4091 307.526C59.2176 305.14 56.1009 303.825 52.7894 303.825C52.4972 303.728 52.3024 303.728 52.0103 303.825Z" fill="#D9CEC0"/>
<path d="M52.0103 365.478C52.1077 368.692 53.5199 371.809 55.8087 374L67.0582 374C69.347 371.809 70.7592 368.692 70.8566 365.478C70.5645 365.478 70.3697 365.478 70.0775 365.478C66.766 365.478 63.6493 366.89 61.4578 369.179C59.2664 366.793 56.1496 365.478 52.8381 365.478C52.4972 365.478 52.3024 365.478 52.0103 365.478Z" fill="#D9CEC0"/>
<path d="M35.891 343.125C37.4981 341.713 39.2999 340.495 41.1018 339.424C32.5795 332.996 27.5635 322.964 27.5635 312.25C27.5635 293.501 42.7088 278.356 61.3604 278.356C76.6031 278.356 89.0213 265.938 89.0213 250.597L82.8853 250.597C82.8853 262.529 73.2429 272.171 61.3117 272.171C56.588 272.171 51.8642 272.95 47.4813 274.655C31.7516 280.45 21.3301 295.498 21.3301 312.25C21.4275 324.181 26.7357 335.528 35.891 343.125Z" fill="#C38585"/>
<path d="M61.4579 290.677C66.1817 290.677 70.9054 289.897 75.2883 288.193C77.4798 287.414 79.7199 286.294 81.814 285.076C83.6158 283.956 85.4177 282.787 87.0248 281.375C96.1314 273.778 101.44 262.431 101.44 250.5L95.3036 250.5C95.3036 269.249 80.1582 284.394 61.5066 284.394C46.2639 284.394 33.8457 296.813 33.8457 312.153C33.8457 322.087 39.1539 331.291 47.6762 336.21C52.1077 334.603 56.7828 333.726 61.5066 333.726C49.6728 333.726 39.933 323.987 39.9331 312.153C39.8844 300.416 49.5267 290.677 61.4579 290.677Z" fill="#C38585"/>
<path d="M87.0248 343.125C85.4177 344.537 83.6158 345.755 81.814 346.826C90.3362 353.254 95.3522 363.286 95.3522 374L101.488 374C101.44 362.069 96.1314 350.771 87.0248 343.125Z" fill="#C38585"/>
<path d="M82.9828 374L89.1189 374C89.1189 364.065 83.8107 354.861 75.2884 349.943C70.8568 351.55 66.1818 352.426 61.458 352.426C73.2918 352.475 82.9828 362.069 82.9828 374Z" fill="#C38585"/>
<path d="M251.097 0H374.5V123.013H251.097V0Z" fill="#C38585"/>
<path d="M251.097 106.163H374.5V110.984H251.097V106.163Z" fill="#F6F6F6"/>
<path d="M251.097 11.9312H374.5V16.7523H251.097V11.9312Z" fill="#F6F6F6"/>
<path d="M251.097 21.4272H374.5V101.342H251.097V21.4272Z" fill="#F6F6F6"/>
<path d="M347.326 81.6677C348.544 79.5737 349.518 77.4796 350.443 75.1421C355.361 83.7618 364.565 88.9725 374.5 88.9725V95.1086C363.786 95.206 353.754 90.2387 347.326 81.6677Z" fill="#D9CEC0"/>
<path d="M251.097 95.2061V89.0701C266.437 89.0701 278.856 76.6519 278.856 61.4092C278.856 42.7576 294.098 27.6123 312.75 27.6123C323.464 27.6123 333.496 32.6282 339.924 41.1505C338.706 43.2446 337.732 45.3386 336.807 47.6762C331.889 39.0565 322.685 33.8457 312.75 33.8457C297.41 33.8457 284.992 46.2639 284.992 61.5066C285.089 80.1095 269.846 95.2061 251.097 95.2061Z" fill="#D9CEC0"/>
<path d="M278.271 41.1991C277.054 43.2931 276.08 45.3872 275.155 47.7247C270.236 39.105 261.032 33.8943 251.098 33.8943V27.7582C261.811 27.6608 271.843 32.6768 278.271 41.1991Z" fill="#D9CEC0"/>
<path d="M346.742 61.4579C346.742 80.1095 331.499 95.2547 312.847 95.2547C302.134 95.2547 292.102 90.2388 285.673 81.7165C286.891 79.6225 287.865 77.5284 288.79 75.1909C293.709 83.8106 302.913 89.0213 312.847 89.0213C328.188 89.0213 340.606 76.6031 340.606 61.3604C340.606 42.7088 355.848 27.5635 374.5 27.5635V33.6996C359.16 33.7483 346.742 46.2151 346.742 61.4579Z" fill="#D9CEC0"/>
<path d="M272.671 61.4578C272.671 73.2916 262.931 83.0314 251.097 83.0314V67.1069C253.289 69.3957 256.405 70.808 259.62 70.9054C259.62 70.6132 259.62 70.4184 259.62 70.1262C259.62 66.8147 258.207 63.698 255.919 61.5065C258.305 59.3151 259.62 56.1983 259.62 52.8868C259.62 52.5946 259.62 52.3998 259.62 52.1077C256.405 52.205 253.289 53.6173 251.097 55.9062V39.8843C263.029 39.8843 272.671 49.5267 272.671 61.4578Z" fill="#F6F6F6"/>
<path d="M291.177 61.4578C291.177 49.6241 300.819 39.8843 312.75 39.8843C324.681 39.8843 334.324 49.5267 334.324 61.4578C334.324 73.2916 324.584 83.0314 312.75 83.0314C300.916 82.9827 291.177 73.2916 291.177 61.4578Z" fill="#F6F6F6"/>
<path d="M374.5 39.8843V55.8087C372.309 53.5199 369.192 52.1077 365.978 52.0103C365.978 52.3025 365.978 52.4973 365.978 52.7894C365.978 56.101 367.39 59.2177 369.679 61.4091C367.293 63.6005 365.978 66.7173 365.978 70.0288C365.978 70.321 365.978 70.5158 365.978 70.808C369.192 70.7106 372.309 69.2983 374.5 67.0095V82.934C362.569 82.934 352.926 73.2916 352.926 61.3604C352.926 49.4292 362.569 39.8843 374.5 39.8843Z" fill="#F6F6F6"/>
<path d="M251.097 16.7036H374.5V21.5248H251.097V16.7036Z" fill="#D9CEC0"/>
<path d="M251.097 101.439H374.5V106.261H251.097V101.439Z" fill="#D9CEC0"/>
<path d="M251.097 110.984H374.5V123.013H251.097V110.984Z" fill="#C38585"/>
<path d="M251.097 27.6609V21.5249C263.028 21.5249 274.375 26.8331 281.972 35.9397C280.56 37.5468 279.342 39.3486 278.271 41.1505C271.843 32.6769 261.811 27.6609 251.097 27.6609Z" fill="#C38585"/>
<path d="M251.098 39.8841V33.748C261.032 33.748 270.236 39.0562 275.155 47.5785C273.548 52.0101 272.671 56.6851 272.671 61.4089C272.671 49.5264 263.029 39.8841 251.098 39.8841Z" fill="#C38585"/>
<path d="M374.5 21.4272V27.5633C355.751 27.5633 340.606 42.7086 340.606 61.3602C340.606 76.6029 328.188 89.0211 312.847 89.0211C302.913 89.0211 293.709 83.713 288.79 75.1907C290.397 70.7591 291.274 66.084 291.274 61.3602C291.274 73.194 301.014 82.9338 312.847 82.9338C324.779 82.9338 334.421 73.2914 334.421 61.3602C334.421 39.3971 352.342 21.4272 374.5 21.4272Z" fill="#C38585"/>
<path d="M374.5 33.748V39.8841C362.569 39.8841 352.926 49.5265 352.926 61.4576C352.926 83.5182 334.957 101.439 312.799 101.439C300.868 101.439 289.521 96.1312 281.924 87.0245C283.336 85.4174 284.553 83.6155 285.625 81.8137C292.053 90.336 302.085 95.352 312.799 95.352C331.548 95.352 346.693 80.2066 346.693 61.555C346.742 46.2149 359.16 33.748 374.5 33.748Z" fill="#C38585"/>
<path d="M251.097 55.8087C253.289 53.5199 256.406 52.1077 259.62 52.0103C259.62 52.3024 259.62 52.4972 259.62 52.7894C259.62 56.1009 258.207 59.2176 255.919 61.4091C258.305 63.6005 259.62 66.7173 259.62 70.0288C259.62 70.321 259.62 70.5158 259.62 70.808C256.406 70.7106 253.289 69.2983 251.097 67.0094V55.8087Z" fill="#D9CEC0"/>
<path d="M304.325 52.0103C307.539 52.1077 310.656 53.5199 312.847 55.8087C315.039 53.5199 318.156 52.1077 321.37 52.0103C321.37 52.3024 321.37 52.4972 321.37 52.7894C321.37 56.1009 319.957 59.2176 317.669 61.4091C320.055 63.6005 321.37 66.7173 321.37 70.0288C321.37 70.321 321.37 70.5158 321.37 70.808C318.156 70.7106 315.039 69.2983 312.847 67.0094C310.656 69.2983 307.539 70.7106 304.325 70.808C304.325 70.5158 304.325 70.321 304.325 70.0288C304.325 66.7173 305.737 63.6005 308.026 61.4091C305.64 59.2176 304.325 56.1009 304.325 52.7894C304.228 52.4972 304.228 52.3024 304.325 52.0103Z" fill="#D9CEC0"/>
<path d="M365.978 52.0103C369.192 52.1077 372.309 53.5199 374.5 55.8087V67.0582C372.309 69.347 369.192 70.7592 365.978 70.8566C365.978 70.5645 365.978 70.3697 365.978 70.0775C365.978 66.766 367.39 63.6493 369.679 61.4578C367.293 59.2664 365.978 56.1496 365.978 52.8381C365.978 52.4972 365.978 52.3024 365.978 52.0103Z" fill="#D9CEC0"/>
<path d="M343.625 35.891C342.213 37.4981 340.995 39.2999 339.924 41.1018C333.496 32.5795 323.464 27.5635 312.75 27.5635C294.001 27.5635 278.856 42.7088 278.856 61.3604C278.856 76.6031 266.437 89.0213 251.097 89.0213V82.8853C263.029 82.8853 272.671 73.2429 272.671 61.3117C272.671 56.588 273.45 51.8642 275.155 47.4813C280.95 31.7516 295.998 21.3301 312.75 21.3301C324.681 21.4275 336.028 26.7357 343.625 35.891Z" fill="#C38585"/>
<path d="M291.177 61.4579C291.177 66.1817 290.397 70.9054 288.693 75.2883C287.914 77.4798 286.794 79.7199 285.576 81.814C284.456 83.6158 283.287 85.4177 281.875 87.0248C274.278 96.1314 262.931 101.44 251 101.44V95.3036C269.749 95.3036 284.894 80.1582 284.894 61.5066C284.894 46.2639 297.313 33.8457 312.653 33.8457C322.587 33.8457 331.791 39.1539 336.71 47.6762C335.103 52.1077 334.226 56.7828 334.226 61.5066C334.226 49.6728 324.487 39.933 312.653 39.933C300.916 39.8843 291.177 49.5267 291.177 61.4579Z" fill="#C38585"/>
<path d="M343.625 87.0248C345.037 85.4177 346.255 83.6158 347.326 81.814C353.754 90.3362 363.786 95.3522 374.5 95.3522V101.488C362.569 101.44 351.271 96.1314 343.625 87.0248Z" fill="#C38585"/>
<path d="M374.5 82.9828V89.1189C364.565 89.1189 355.361 83.8107 350.443 75.2884C352.05 70.8568 352.926 66.1818 352.926 61.458C352.975 73.2918 362.569 82.9828 374.5 82.9828Z" fill="#C38585"/>
<path d="M248.903 500.11L125.5 500.11L125.5 377.097L248.903 377.097L248.903 500.11Z" fill="#C38585"/>
<path d="M248.903 393.947L125.5 393.947L125.5 389.126L248.903 389.126L248.903 393.947Z" fill="#F6F6F6"/>
<path d="M248.903 488.179L125.5 488.179L125.5 483.358L248.903 483.358L248.903 488.179Z" fill="#F6F6F6"/>
<path d="M248.903 478.683L125.5 478.683L125.5 398.768L248.903 398.768L248.903 478.683Z" fill="#F6F6F6"/>
<path d="M152.674 418.442C151.456 420.536 150.482 422.63 149.557 424.968C144.639 416.348 135.435 411.137 125.5 411.137L125.5 405.001C136.214 404.904 146.246 409.871 152.674 418.442Z" fill="#D9CEC0"/>
<path d="M248.903 404.904L248.903 411.04C233.563 411.04 221.144 423.458 221.144 438.701C221.144 457.352 205.902 472.498 187.25 472.498C176.536 472.498 166.504 467.482 160.076 458.959C161.294 456.865 162.268 454.771 163.193 452.434C168.111 461.053 177.315 466.264 187.25 466.264C202.59 466.264 215.008 453.846 215.008 438.603C214.911 420 230.154 404.904 248.903 404.904Z" fill="#D9CEC0"/>
<path d="M221.729 458.911C222.946 456.817 223.92 454.723 224.845 452.385C229.764 461.005 238.968 466.216 248.902 466.216L248.902 472.352C238.189 472.449 228.157 467.433 221.729 458.911Z" fill="#D9CEC0"/>
<path d="M153.258 438.652C153.258 420 168.501 404.855 187.153 404.855C197.866 404.855 207.898 409.871 214.327 418.393C213.109 420.487 212.135 422.581 211.21 424.919C206.291 416.299 197.087 411.089 187.153 411.089C171.812 411.089 159.394 423.507 159.394 438.749C159.394 457.401 144.152 472.546 125.5 472.546L125.5 466.41C140.84 466.362 153.258 453.895 153.258 438.652Z" fill="#D9CEC0"/>
<path d="M227.329 438.652C227.329 426.818 237.069 417.079 248.903 417.079L248.903 433.003C246.711 430.714 243.595 429.302 240.38 429.205C240.38 429.497 240.38 429.691 240.38 429.984C240.38 433.295 241.793 436.412 244.081 438.603C241.695 440.795 240.38 443.912 240.38 447.223C240.38 447.515 240.38 447.71 240.38 448.002C243.595 447.905 246.711 446.493 248.903 444.204L248.903 460.226C236.971 460.226 227.329 450.583 227.329 438.652Z" fill="#F6F6F6"/>
<path d="M208.823 438.652C208.823 450.486 199.181 460.226 187.25 460.226C175.319 460.226 165.676 450.583 165.676 438.652C165.676 426.818 175.416 417.079 187.25 417.079C199.084 417.127 208.823 426.818 208.823 438.652Z" fill="#F6F6F6"/>
<path d="M125.5 460.226L125.5 444.301C127.691 446.59 130.808 448.002 134.022 448.1C134.022 447.807 134.022 447.613 134.022 447.32C134.022 444.009 132.61 440.892 130.321 438.701C132.707 436.509 134.022 433.393 134.022 430.081C134.022 429.789 134.022 429.594 134.022 429.302C130.808 429.399 127.691 430.812 125.5 433.1L125.5 417.176C137.431 417.176 147.074 426.818 147.074 438.749C147.074 450.681 137.431 460.226 125.5 460.226Z" fill="#F6F6F6"/>
<path d="M248.903 483.406L125.5 483.406L125.5 478.585L248.903 478.585L248.903 483.406Z" fill="#D9CEC0"/>
<path d="M248.903 398.67L125.5 398.67L125.5 393.849L248.903 393.849L248.903 398.67Z" fill="#D9CEC0"/>
<path d="M248.903 389.125L125.5 389.125L125.5 377.097L248.903 377.097L248.903 389.125Z" fill="#C38585"/>
<path d="M248.903 472.449L248.903 478.585C236.972 478.585 225.625 473.277 218.028 464.17C219.44 462.563 220.658 460.761 221.729 458.959C228.157 467.433 238.189 472.449 248.903 472.449Z" fill="#C38585"/>
<path d="M248.902 460.226L248.902 466.362C238.968 466.362 229.764 461.054 224.845 452.531C226.452 448.1 227.329 443.425 227.329 438.701C227.329 450.583 236.971 460.226 248.902 460.226Z" fill="#C38585"/>
<path d="M125.5 478.683L125.5 472.547C144.249 472.547 159.394 457.401 159.394 438.75C159.394 423.507 171.812 411.089 187.153 411.089C197.087 411.089 206.291 416.397 211.21 424.919C209.603 429.351 208.726 434.026 208.726 438.75C208.726 426.916 198.986 417.176 187.153 417.176C175.221 417.176 165.579 426.818 165.579 438.75C165.579 460.713 147.658 478.683 125.5 478.683Z" fill="#C38585"/>
<path d="M125.5 466.362L125.5 460.226C137.431 460.226 147.074 450.583 147.074 438.652C147.074 416.592 165.043 398.671 187.201 398.671C199.132 398.671 210.479 403.979 218.076 413.085C216.664 414.692 215.447 416.494 214.375 418.296C207.947 409.774 197.915 404.758 187.201 404.758C168.452 404.758 153.307 419.903 153.307 438.555C153.258 453.895 140.84 466.362 125.5 466.362Z" fill="#C38585"/>
<path d="M248.903 444.301C246.711 446.59 243.594 448.002 240.38 448.1C240.38 447.807 240.38 447.613 240.38 447.32C240.38 444.009 241.793 440.892 244.081 438.701C241.695 436.509 240.38 433.393 240.38 430.081C240.38 429.789 240.38 429.594 240.38 429.302C243.594 429.399 246.711 430.812 248.903 433.1L248.903 444.301Z" fill="#D9CEC0"/>
<path d="M195.675 448.1C192.461 448.002 189.344 446.59 187.153 444.301C184.961 446.59 181.844 448.002 178.63 448.1C178.63 447.807 178.63 447.613 178.63 447.32C178.63 444.009 180.043 440.892 182.331 438.701C179.945 436.509 178.63 433.393 178.63 430.081C178.63 429.789 178.63 429.594 178.63 429.302C181.844 429.399 184.961 430.812 187.153 433.1C189.344 430.812 192.461 429.399 195.675 429.302C195.675 429.594 195.675 429.789 195.675 430.081C195.675 433.393 194.263 436.509 191.974 438.701C194.36 440.892 195.675 444.009 195.675 447.32C195.772 447.613 195.772 447.807 195.675 448.1Z" fill="#D9CEC0"/>
<path d="M134.022 448.1C130.808 448.002 127.691 446.59 125.5 444.301L125.5 433.052C127.691 430.763 130.808 429.351 134.022 429.253C134.022 429.545 134.022 429.74 134.022 430.032C134.022 433.344 132.61 436.461 130.321 438.652C132.707 440.843 134.022 443.96 134.022 447.272C134.022 447.613 134.022 447.807 134.022 448.1Z" fill="#D9CEC0"/>
<path d="M156.375 464.219C157.787 462.612 159.005 460.81 160.076 459.008C166.504 467.53 176.536 472.546 187.25 472.546C205.999 472.546 221.144 457.401 221.144 438.749C221.144 423.507 233.563 411.089 248.903 411.089L248.903 417.225C236.971 417.225 227.329 426.867 227.329 438.798C227.329 443.522 226.55 448.246 224.845 452.629C219.05 468.358 204.002 478.78 187.25 478.78C175.319 478.682 163.972 473.374 156.375 464.219Z" fill="#C38585"/>
<path d="M208.823 438.652C208.823 433.928 209.603 429.204 211.307 424.822C212.086 422.63 213.206 420.39 214.424 418.296C215.544 416.494 216.713 414.692 218.125 413.085C225.722 403.978 237.069 398.67 249 398.67L249 404.806C230.251 404.806 215.106 419.952 215.106 438.603C215.106 453.846 202.687 466.264 187.347 466.264C177.413 466.264 168.209 460.956 163.29 452.434C164.897 448.002 165.774 443.327 165.774 438.603C165.774 450.437 175.513 460.177 187.347 460.177C199.084 460.226 208.823 450.583 208.823 438.652Z" fill="#C38585"/>
<path d="M156.375 413.085C154.963 414.692 153.745 416.494 152.674 418.296C146.246 409.774 136.214 404.758 125.5 404.758L125.5 398.622C137.431 398.67 148.729 403.978 156.375 413.085Z" fill="#C38585"/>
<path d="M125.5 417.127L125.5 410.991C135.435 410.991 144.639 416.299 149.557 424.821C147.95 429.253 147.074 433.928 147.074 438.652C147.025 426.818 137.431 417.127 125.5 417.127Z" fill="#C38585"/>
<path d="M500.013 250.597L500.013 374L377 374L377 250.597L500.013 250.597Z" fill="#C38585"/>
<path d="M393.85 250.597L393.85 374L389.029 374L389.029 250.597L393.85 250.597Z" fill="#F6F6F6"/>
<path d="M488.082 250.597L488.082 374L483.261 374L483.261 250.597L488.082 250.597Z" fill="#F6F6F6"/>
<path d="M478.586 250.597L478.586 374L398.671 374L398.671 250.597L478.586 250.597Z" fill="#F6F6F6"/>
<path d="M418.345 346.826C420.439 348.044 422.534 349.018 424.871 349.943C416.251 354.861 411.041 364.065 411.041 374L404.905 374C404.807 363.286 409.774 353.254 418.345 346.826Z" fill="#D9CEC0"/>
<path d="M404.807 250.597L410.943 250.597C410.943 265.937 423.361 278.356 438.604 278.356C457.256 278.356 472.401 293.598 472.401 312.25C472.401 322.964 467.385 332.996 458.863 339.424C456.769 338.206 454.675 337.232 452.337 336.307C460.957 331.389 466.167 322.185 466.167 312.25C466.167 296.91 453.749 284.492 438.507 284.492C419.904 284.589 404.807 269.346 404.807 250.597Z" fill="#D9CEC0"/>
<path d="M458.814 277.771C456.72 276.554 454.626 275.58 452.288 274.655C460.908 269.736 466.119 260.532 466.119 250.598L472.255 250.598C472.352 261.311 467.336 271.343 458.814 277.771Z" fill="#D9CEC0"/>
<path d="M438.555 346.242C419.904 346.242 404.758 330.999 404.758 312.347C404.758 301.634 409.774 291.602 418.297 285.173C420.391 286.391 422.485 287.365 424.822 288.29C416.203 293.209 410.992 302.413 410.992 312.347C410.992 327.688 423.41 340.106 438.653 340.106C457.304 340.106 472.45 355.348 472.45 374L466.314 374C466.265 358.66 453.798 346.242 438.555 346.242Z" fill="#D9CEC0"/>
<path d="M438.555 272.171C426.722 272.171 416.982 262.431 416.982 250.597L432.906 250.597C430.617 252.789 429.205 255.905 429.108 259.12C429.4 259.12 429.595 259.12 429.887 259.12C433.199 259.12 436.315 257.707 438.507 255.419C440.698 257.805 443.815 259.12 447.126 259.12C447.419 259.12 447.613 259.12 447.906 259.12C447.808 255.905 446.396 252.789 444.107 250.597L460.129 250.597C460.129 262.529 450.487 272.171 438.555 272.171Z" fill="#F6F6F6"/>
<path d="M438.555 290.677C450.389 290.677 460.129 300.319 460.129 312.25C460.129 324.181 450.487 333.824 438.555 333.824C426.722 333.824 416.982 324.084 416.982 312.25C417.031 300.416 426.722 290.677 438.555 290.677Z" fill="#F6F6F6"/>
<path d="M460.129 374L444.204 374C446.493 371.809 447.906 368.692 448.003 365.478C447.711 365.478 447.516 365.478 447.224 365.478C443.912 365.478 440.796 366.89 438.604 369.179C436.413 366.793 433.296 365.478 429.984 365.478C429.692 365.478 429.497 365.478 429.205 365.478C429.303 368.692 430.715 371.809 433.004 374L417.079 374C417.079 362.069 426.722 352.426 438.653 352.426C450.584 352.426 460.129 362.069 460.129 374Z" fill="#F6F6F6"/>
<path d="M483.31 250.597L483.31 374L478.488 374L478.488 250.597L483.31 250.597Z" fill="#D9CEC0"/>
<path d="M398.574 250.597L398.574 374L393.753 374L393.753 250.597L398.574 250.597Z" fill="#D9CEC0"/>
<path d="M389.029 250.597L389.029 374L377 374L377 250.597L389.029 250.597Z" fill="#C38585"/>
<path d="M472.352 250.597L478.488 250.597C478.488 262.528 473.18 273.875 464.073 281.472C462.466 280.06 460.665 278.842 458.863 277.771C467.336 271.343 472.352 261.311 472.352 250.597Z" fill="#C38585"/>
<path d="M460.129 250.598L466.265 250.598C466.265 260.532 460.957 269.736 452.435 274.655C448.003 273.048 443.328 272.171 438.604 272.171C450.487 272.171 460.129 262.529 460.129 250.598Z" fill="#C38585"/>
<path d="M478.586 374L472.45 374C472.45 355.251 457.305 340.106 438.653 340.106C423.41 340.106 410.992 327.688 410.992 312.347C410.992 302.413 416.3 293.209 424.823 288.29C429.254 289.897 433.929 290.774 438.653 290.774C426.819 290.774 417.079 300.514 417.079 312.347C417.079 324.279 426.722 333.921 438.653 333.921C460.616 333.921 478.586 351.842 478.586 374Z" fill="#C38585"/>
<path d="M466.265 374L460.129 374C460.129 362.069 450.487 352.426 438.556 352.426C416.495 352.426 398.574 334.457 398.574 312.299C398.574 300.368 403.882 289.021 412.989 281.424C414.596 282.836 416.398 284.053 418.2 285.125C409.677 291.553 404.661 301.585 404.661 312.299C404.661 331.048 419.807 346.193 438.458 346.193C453.798 346.242 466.265 358.66 466.265 374Z" fill="#C38585"/>
<path d="M444.204 250.597C446.493 252.789 447.906 255.906 448.003 259.12C447.711 259.12 447.516 259.12 447.224 259.12C443.912 259.12 440.796 257.707 438.604 255.419C436.413 257.805 433.296 259.12 429.984 259.12C429.692 259.12 429.497 259.12 429.205 259.12C429.303 255.906 430.715 252.789 433.004 250.597L444.204 250.597Z" fill="#D9CEC0"/>
<path d="M448.003 303.825C447.906 307.039 446.493 310.156 444.204 312.347C446.493 314.539 447.906 317.656 448.003 320.87C447.711 320.87 447.516 320.87 447.224 320.87C443.912 320.87 440.796 319.457 438.604 317.169C436.413 319.555 433.296 320.87 429.984 320.87C429.692 320.87 429.497 320.87 429.205 320.87C429.303 317.656 430.715 314.539 433.004 312.347C430.715 310.156 429.303 307.039 429.205 303.825C429.497 303.825 429.692 303.825 429.984 303.825C433.296 303.825 436.413 305.237 438.604 307.526C440.796 305.14 443.912 303.825 447.224 303.825C447.516 303.728 447.711 303.728 448.003 303.825Z" fill="#D9CEC0"/>
<path d="M448.003 365.478C447.906 368.692 446.493 371.809 444.204 374L432.955 374C430.666 371.809 429.254 368.692 429.157 365.478C429.449 365.478 429.644 365.478 429.936 365.478C433.247 365.478 436.364 366.89 438.555 369.179C440.747 366.793 443.864 365.478 447.175 365.478C447.516 365.478 447.711 365.478 448.003 365.478Z" fill="#D9CEC0"/>
<path d="M464.122 343.125C462.515 341.713 460.713 340.495 458.911 339.424C467.434 332.996 472.45 322.964 472.45 312.25C472.45 293.501 457.304 278.356 438.653 278.356C423.41 278.356 410.992 265.937 410.992 250.597L417.128 250.597C417.128 262.529 426.77 272.171 438.701 272.171C443.425 272.171 448.149 272.95 452.532 274.655C468.262 280.45 478.683 295.498 478.683 312.25C478.586 324.181 473.278 335.528 464.122 343.125Z" fill="#C38585"/>
<path d="M438.555 290.677C433.831 290.677 429.108 289.897 424.725 288.193C422.533 287.414 420.293 286.294 418.199 285.076C416.397 283.956 414.595 282.787 412.988 281.375C403.882 273.778 398.574 262.431 398.574 250.5L404.71 250.5C404.71 269.249 419.855 284.394 438.507 284.394C453.749 284.394 466.167 296.813 466.167 312.153C466.167 322.087 460.859 331.291 452.337 336.21C447.905 334.603 443.23 333.726 438.507 333.726C450.34 333.726 460.08 323.987 460.08 312.153C460.129 300.416 450.486 290.677 438.555 290.677Z" fill="#C38585"/>
<path d="M412.988 343.125C414.595 344.537 416.397 345.755 418.199 346.826C409.677 353.254 404.661 363.286 404.661 374L398.525 374C398.574 362.069 403.882 350.771 412.988 343.125Z" fill="#C38585"/>
<path d="M417.03 374L410.894 374C410.894 364.065 416.203 354.861 424.725 349.943C429.156 351.55 433.831 352.426 438.555 352.426C426.721 352.475 417.03 362.069 417.03 374Z" fill="#C38585"/>
<path d="M-2.3048e-05 248.403L0 125L123.013 125L123.013 248.403L-2.3048e-05 248.403Z" fill="#C38585"/>
<path d="M106.163 248.403L106.163 125L110.984 125L110.984 248.403L106.163 248.403Z" fill="#F6F6F6"/>
<path d="M11.9311 248.403L11.9312 125L16.7523 125L16.7523 248.403L11.9311 248.403Z" fill="#F6F6F6"/>
<path d="M21.4272 248.403L21.4272 125L101.342 125L101.342 248.403L21.4272 248.403Z" fill="#F6F6F6"/>
<path d="M81.6677 152.174C79.5737 150.956 77.4796 149.982 75.1421 149.057C83.7618 144.139 88.9725 134.935 88.9725 125L95.1086 125C95.206 135.714 90.2387 145.746 81.6677 152.174Z" fill="#D9CEC0"/>
<path d="M95.2061 248.403L89.0701 248.403C89.0701 233.063 76.6519 220.644 61.4092 220.644C42.7576 220.644 27.6123 205.402 27.6123 186.75C27.6123 176.036 32.6282 166.004 41.1505 159.576C43.2446 160.794 45.3386 161.768 47.6762 162.693C39.0565 167.611 33.8457 176.815 33.8457 186.75C33.8457 202.09 46.2639 214.508 61.5066 214.508C80.1095 214.411 95.2061 229.654 95.2061 248.403Z" fill="#D9CEC0"/>
<path d="M41.1991 221.229C43.2931 222.446 45.3872 223.42 47.7247 224.345C39.105 229.264 33.8943 238.468 33.8943 248.402L27.7582 248.402C27.6608 237.689 32.6768 227.657 41.1991 221.229Z" fill="#D9CEC0"/>
<path d="M61.4578 152.758C80.1095 152.758 95.2547 168.001 95.2547 186.653C95.2547 197.366 90.2388 207.398 81.7165 213.827C79.6225 212.609 77.5284 211.635 75.1909 210.71C83.8105 205.791 89.0213 196.587 89.0213 186.653C89.0213 171.313 76.6031 158.894 61.3604 158.894C42.7088 158.894 27.5635 143.652 27.5635 125L33.6996 125C33.7483 140.34 46.2151 152.758 61.4578 152.758Z" fill="#D9CEC0"/>
<path d="M61.4578 226.829C73.2916 226.829 83.0314 236.569 83.0313 248.403L67.1069 248.403C69.3957 246.211 70.808 243.095 70.9054 239.88C70.6132 239.88 70.4184 239.88 70.1262 239.88C66.8147 239.88 63.698 241.293 61.5065 243.581C59.3151 241.195 56.1983 239.88 52.8868 239.88C52.5946 239.88 52.3998 239.88 52.1076 239.88C52.205 243.095 53.6173 246.211 55.9062 248.403L39.8843 248.403C39.8843 236.471 49.5267 226.829 61.4578 226.829Z" fill="#F6F6F6"/>
<path d="M61.4578 208.323C49.624 208.323 39.8843 198.681 39.8843 186.75C39.8843 174.819 49.5267 165.176 61.4578 165.176C73.2916 165.176 83.0314 174.916 83.0313 186.75C82.9826 198.584 73.2916 208.323 61.4578 208.323Z" fill="#F6F6F6"/>
<path d="M39.8843 125L55.8087 125C53.5199 127.191 52.1077 130.308 52.0103 133.522C52.3025 133.522 52.4973 133.522 52.7894 133.522C56.101 133.522 59.2177 132.11 61.4091 129.821C63.6005 132.207 66.7173 133.522 70.0288 133.522C70.321 133.522 70.5158 133.522 70.808 133.522C70.7106 130.308 69.2983 127.191 67.0095 125L82.934 125C82.934 136.931 73.2916 146.574 61.3604 146.574C49.4292 146.574 39.8843 136.931 39.8843 125Z" fill="#F6F6F6"/>
<path d="M16.7036 248.403L16.7036 125L21.5248 125L21.5248 248.403L16.7036 248.403Z" fill="#D9CEC0"/>
<path d="M101.439 248.403L101.439 125L106.261 125L106.261 248.403L101.439 248.403Z" fill="#D9CEC0"/>
<path d="M110.984 248.403L110.984 125L123.013 125L123.013 248.403L110.984 248.403Z" fill="#C38585"/>
<path d="M27.6609 248.403L21.5249 248.403C21.5249 236.472 26.8331 225.125 35.9397 217.528C37.5468 218.94 39.3486 220.158 41.1505 221.229C32.6769 227.657 27.6609 237.689 27.6609 248.403Z" fill="#C38585"/>
<path d="M39.8841 248.402L33.748 248.402C33.748 238.468 39.0562 229.264 47.5785 224.345C52.0101 225.952 56.6851 226.829 61.4089 226.829C49.5264 226.829 39.8841 236.471 39.8841 248.402Z" fill="#C38585"/>
<path d="M21.4272 125L27.5633 125C27.5633 143.749 42.7086 158.894 61.3602 158.894C76.6029 158.894 89.0211 171.313 89.0211 186.653C89.0211 196.587 83.7129 205.791 75.1907 210.71C70.7591 209.103 66.084 208.226 61.3602 208.226C73.194 208.226 82.9338 198.486 82.9338 186.653C82.9338 174.721 73.2914 165.079 61.3602 165.079C39.3971 165.079 21.4272 147.158 21.4272 125Z" fill="#C38585"/>
<path d="M33.748 125L39.8841 125C39.8841 136.931 49.5264 146.574 61.4576 146.574C83.5182 146.574 101.439 164.543 101.439 186.701C101.439 198.632 96.1311 209.979 87.0245 217.576C85.4174 216.164 83.6155 214.947 81.8137 213.875C90.3359 207.447 95.3519 197.415 95.3519 186.701C95.352 167.952 80.2066 152.807 61.555 152.807C46.2149 152.758 33.748 140.34 33.748 125Z" fill="#C38585"/>
<path d="M55.8087 248.403C53.5199 246.211 52.1077 243.094 52.0103 239.88C52.3024 239.88 52.4972 239.88 52.7894 239.88C56.1009 239.88 59.2176 241.293 61.4091 243.581C63.6005 241.195 66.7173 239.88 70.0288 239.88C70.321 239.88 70.5158 239.88 70.808 239.88C70.7106 243.094 69.2983 246.211 67.0094 248.403L55.8087 248.403Z" fill="#D9CEC0"/>
<path d="M52.0103 195.175C52.1076 191.961 53.5199 188.844 55.8087 186.653C53.5199 184.461 52.1077 181.344 52.0103 178.13C52.3024 178.13 52.4972 178.13 52.7894 178.13C56.1009 178.13 59.2176 179.543 61.4091 181.831C63.6005 179.445 66.7173 178.13 70.0288 178.13C70.321 178.13 70.5158 178.13 70.808 178.13C70.7106 181.344 69.2983 184.461 67.0094 186.653C69.2983 188.844 70.7106 191.961 70.808 195.175C70.5158 195.175 70.321 195.175 70.0288 195.175C66.7173 195.175 63.6005 193.763 61.4091 191.474C59.2176 193.86 56.1009 195.175 52.7894 195.175C52.4972 195.272 52.3024 195.272 52.0103 195.175Z" fill="#D9CEC0"/>
<path d="M52.0103 133.522C52.1077 130.308 53.5199 127.191 55.8087 125L67.0582 125C69.347 127.191 70.7592 130.308 70.8566 133.522C70.5645 133.522 70.3697 133.522 70.0775 133.522C66.766 133.522 63.6493 132.11 61.4578 129.821C59.2664 132.207 56.1496 133.522 52.8381 133.522C52.4972 133.522 52.3024 133.522 52.0103 133.522Z" fill="#D9CEC0"/>
<path d="M35.891 155.875C37.4981 157.287 39.2999 158.505 41.1018 159.576C32.5795 166.004 27.5635 176.036 27.5635 186.75C27.5635 205.499 42.7088 220.644 61.3604 220.644C76.6031 220.644 89.0213 233.063 89.0213 248.403L82.8853 248.403C82.8853 236.471 73.2429 226.829 61.3117 226.829C56.5879 226.829 51.8642 226.05 47.4813 224.345C31.7516 218.55 21.3301 203.502 21.3301 186.75C21.4275 174.819 26.7356 163.472 35.891 155.875Z" fill="#C38585"/>
<path d="M61.4579 208.323C66.1817 208.323 70.9054 209.103 75.2883 210.807C77.4798 211.586 79.7199 212.706 81.814 213.924C83.6158 215.044 85.4177 216.213 87.0248 217.625C96.1314 225.222 101.44 236.569 101.44 248.5L95.3035 248.5C95.3035 229.751 80.1582 214.606 61.5066 214.606C46.2639 214.606 33.8457 202.187 33.8457 186.847C33.8457 176.913 39.1539 167.709 47.6762 162.79C52.1077 164.397 56.7828 165.274 61.5066 165.274C49.6728 165.274 39.933 175.013 39.933 186.847C39.8843 198.584 49.5267 208.323 61.4579 208.323Z" fill="#C38585"/>
<path d="M87.0248 155.875C85.4177 154.463 83.6158 153.245 81.814 152.174C90.3362 145.746 95.3522 135.714 95.3522 125L101.488 125C101.44 136.931 96.1314 148.229 87.0248 155.875Z" fill="#C38585"/>
<path d="M82.9828 125L89.1189 125C89.1189 134.935 83.8107 144.139 75.2884 149.057C70.8568 147.45 66.1818 146.574 61.458 146.574C73.2918 146.525 82.9828 136.931 82.9828 125Z" fill="#C38585"/>
<path d="M125 125H248.478V248.869H125V125ZM250.574 125H374.052V248.869H250.574V125ZM125 250.825H248.478V374.694H125V250.825ZM250.574 250.825H374.052V374.694H250.574V250.825Z" fill="#D1D3D4"/>
</g>
<defs>
<clipPath id="clip0_65_703">
<rect width="500" height="500" fill="white"/>
</clipPath>
</defs>
</svg>
