<svg width="432px" height="432px" viewBox="0 0 500 500" fill="none" xmlns="http://www.w3.org/2000/svg">
<g clip-path="url(#clip0_65_1028)">
<path d="M123.403 0H0V122.965H123.403V0Z" fill="#D9CEC0"/>
<path d="M87.5887 122.965V87.2969H123.403V30.3643H30.4614V122.965H87.5887Z" fill="#F6F6F6"/>
<path d="M123.402 87.2969H87.5884V122.965H101.749V101.311H123.402V87.2969Z" fill="#35221B"/>
<path d="M30.4616 30.3641H123.403V16.3013H16.3501V122.965H30.4616V30.3641Z" fill="#35221B"/>
<path d="M123.5 101.311H101.749V122.965H123.5V101.311Z" fill="#D9CEC0"/>
<path d="M376.597 500L500 500L500 377.035L376.597 377.035L376.597 500Z" fill="#D9CEC0"/>
<path d="M412.411 377.035L412.411 412.703L376.597 412.703L376.597 469.636L469.539 469.636L469.539 377.035L412.411 377.035Z" fill="#F6F6F6"/>
<path d="M376.598 412.703L412.412 412.703L412.412 377.035L398.251 377.035L398.251 398.689L376.598 398.689L376.598 412.703Z" fill="#35221B"/>
<path d="M469.538 469.636L376.597 469.636L376.597 483.699L483.65 483.699L483.65 377.035L469.538 377.035L469.538 469.636Z" fill="#35221B"/>
<path d="M376.5 398.689L398.251 398.689L398.251 377.035L376.5 377.035L376.5 398.689Z" fill="#D9CEC0"/>
<path d="M376.597 0H500V122.965H376.597V0Z" fill="#D9CEC0"/>
<path d="M412.411 122.965V87.2969H376.597V30.3643H469.539V122.965H412.411Z" fill="#F6F6F6"/>
<path d="M376.598 87.2969H412.412V122.965H398.251V101.311H376.598V87.2969Z" fill="#35221B"/>
<path d="M469.538 30.3641H376.597V16.3013H483.65V122.965H469.538V30.3641Z" fill="#35221B"/>
<path d="M376.5 101.311H398.251V122.965H376.5V101.311Z" fill="#D9CEC0"/>
<path d="M123.403 500L0 500L1.07499e-05 377.035L123.403 377.035L123.403 500Z" fill="#D9CEC0"/>
<path d="M87.5887 377.035L87.5887 412.703L123.403 412.703L123.403 469.636L30.4614 469.636L30.4614 377.035L87.5887 377.035Z" fill="#F6F6F6"/>
<path d="M123.403 412.703L87.5889 412.703L87.5889 377.035L101.749 377.035L101.749 398.689L123.403 398.689L123.403 412.703Z" fill="#35221B"/>
<path d="M30.4616 469.636L123.403 469.636L123.403 483.699L16.3501 483.699L16.3501 377.035L30.4616 377.035L30.4616 469.636Z" fill="#35221B"/>
<path d="M123.5 398.689L101.749 398.689L101.749 377.035L123.5 377.035L123.5 398.689Z" fill="#D9CEC0"/>
<path d="M249 0H125.5V123.111H249V0Z" fill="#D9CEC0"/>
<path d="M249 101.426H125.5V123.111H249V101.426Z" fill="#D9CEC0"/>
<path d="M249 30.3887H125.5V87.2765H249V30.3887Z" fill="#F6F6F6"/>
<path d="M249 87.374H125.5V101.523H249V87.374Z" fill="#35221B"/>
<path d="M249 16.3369H125.5V30.486H249V16.3369Z" fill="#35221B"/>
<path d="M251 500.111L374.5 500.111L374.5 377L251 377L251 500.111Z" fill="#D9CEC0"/>
<path d="M251 398.685L374.5 398.685L374.5 377L251 377L251 398.685Z" fill="#D9CEC0"/>
<path d="M251 469.722L374.5 469.722L374.5 412.834L251 412.834L251 469.722Z" fill="#F6F6F6"/>
<path d="M251 412.737L374.5 412.737L374.5 398.588L251 398.588L251 412.737Z" fill="#35221B"/>
<path d="M251 483.774L374.5 483.774L374.5 469.625L251 469.625L251 483.774Z" fill="#35221B"/>
<path d="M500.111 248.5L500.111 125L377 125L377 248.5L500.111 248.5Z" fill="#D9CEC0"/>
<path d="M398.685 248.5L398.685 125L377 125L377 248.5L398.685 248.5Z" fill="#D9CEC0"/>
<path d="M469.722 248.5L469.722 125L412.834 125L412.834 248.5L469.722 248.5Z" fill="#F6F6F6"/>
<path d="M412.737 248.5L412.737 125L398.588 125L398.588 248.5L412.737 248.5Z" fill="#35221B"/>
<path d="M483.774 248.5L483.774 125L469.625 125L469.625 248.5L483.774 248.5Z" fill="#35221B"/>
<path d="M2.30661e-05 250.5L0 374L123.111 374L123.111 250.5L2.30661e-05 250.5Z" fill="#D9CEC0"/>
<path d="M101.426 250.5L101.426 374L123.111 374L123.111 250.5L101.426 250.5Z" fill="#D9CEC0"/>
<path d="M30.3887 250.5L30.3887 374L87.2765 374L87.2765 250.5L30.3887 250.5Z" fill="#F6F6F6"/>
<path d="M87.374 250.5L87.374 374L101.523 374L101.523 250.5L87.374 250.5Z" fill="#35221B"/>
<path d="M16.3369 250.5L16.3369 374L30.486 374L30.486 250.5L16.3369 250.5Z" fill="#35221B"/>
<path d="M251 0H374.5V123.111H251V0Z" fill="#D9CEC0"/>
<path d="M251 101.426H374.5V123.111H251V101.426Z" fill="#D9CEC0"/>
<path d="M251 30.3887H374.5V87.2765H251V30.3887Z" fill="#F6F6F6"/>
<path d="M251 87.374H374.5V101.523H251V87.374Z" fill="#35221B"/>
<path d="M251 16.3369H374.5V30.486H251V16.3369Z" fill="#35221B"/>
<path d="M249 500.111L125.5 500.111L125.5 377L249 377L249 500.111Z" fill="#D9CEC0"/>
<path d="M249 398.685L125.5 398.685L125.5 377L249 377L249 398.685Z" fill="#D9CEC0"/>
<path d="M249 469.722L125.5 469.722L125.5 412.834L249 412.834L249 469.722Z" fill="#F6F6F6"/>
<path d="M249 412.737L125.5 412.737L125.5 398.588L249 398.588L249 412.737Z" fill="#35221B"/>
<path d="M249 483.774L125.5 483.774L125.5 469.625L249 469.625L249 483.774Z" fill="#35221B"/>
<path d="M500.111 250.5L500.111 374L377 374L377 250.5L500.111 250.5Z" fill="#D9CEC0"/>
<path d="M398.685 250.5L398.685 374L377 374L377 250.5L398.685 250.5Z" fill="#D9CEC0"/>
<path d="M469.722 250.5L469.722 374L412.834 374L412.834 250.5L469.722 250.5Z" fill="#F6F6F6"/>
<path d="M412.737 250.5L412.737 374L398.588 374L398.588 250.5L412.737 250.5Z" fill="#35221B"/>
<path d="M483.774 250.5L483.774 374L469.625 374L469.625 250.5L483.774 250.5Z" fill="#35221B"/>
<path d="M-2.30661e-05 248.5L0 125L123.111 125L123.111 248.5L-2.30661e-05 248.5Z" fill="#D9CEC0"/>
<path d="M101.426 248.5L101.426 125L123.111 125L123.111 248.5L101.426 248.5Z" fill="#D9CEC0"/>
<path d="M30.3886 248.5L30.3887 125L87.2765 125L87.2764 248.5L30.3886 248.5Z" fill="#F6F6F6"/>
<path d="M87.374 248.5L87.374 125L101.523 125L101.523 248.5L87.374 248.5Z" fill="#35221B"/>
<path d="M16.3369 248.5L16.3369 125L30.486 125L30.486 248.5L16.3369 248.5Z" fill="#35221B"/>
<path d="M125 125H248.478V248.869H125V125ZM250.574 125H374.052V248.869H250.574V125ZM125 250.825H248.478V374.694H125V250.825ZM250.574 250.825H374.052V374.694H250.574V250.825Z" fill="#D1D3D4"/>
</g>
<defs>
<clipPath id="clip0_65_1028">
<rect width="500" height="500" fill="white"/>
</clipPath>
</defs>
</svg>
