<svg width="500" height="500" viewBox="0 0 500 500" fill="none" xmlns="http://www.w3.org/2000/svg">
<g clip-path="url(#clip0_65_1113)">
<path d="M123.5 0H0V123.111H123.5V0Z" fill="#2D2E27"/>
<path d="M123.5 30.7412L92.6616 61.5311L123.5 92.3209V30.7412Z" fill="#2D2E27"/>
<path d="M92.6615 61.5311L61.7744 30.7412L30.8872 61.5311L61.7744 92.3209L92.6615 61.5311Z" fill="#2D2E27"/>
<path d="M61.7744 92.3208L30.8872 123.111H92.6615L61.7744 92.3208Z" fill="#2D2E27"/>
<path d="M123.5 103.946H104.287V123.111H111.68V111.34H123.5V103.946Z" fill="#7B7970"/>
<path d="M123.5 11.7227H11.7227V123.111H19.1648V19.1162H123.5V11.7227Z" fill="#7B7970"/>
<path d="M123.5 111.34H111.68V123.062H123.5V111.34Z" fill="#2D2E27"/>
<path d="M92.6616 61.5312L61.7744 92.3211L77.1936 107.643L92.6616 92.3211H123.5L92.6616 61.5312Z" fill="#7B7970"/>
<path d="M123.5 30.7412H92.6613L77.1934 46.1118L92.6613 61.5311L123.5 30.7412Z" fill="#7B7970"/>
<path d="M61.7744 92.3211L30.8872 61.5312V92.3211L46.3064 107.643L61.7744 92.3211Z" fill="#7B7970"/>
<path d="M123.5 92.3208H92.6613L77.1934 107.643L92.6613 123.111H104.287V103.946H123.5V92.3208Z" fill="#F6F6F6"/>
<path d="M61.7742 30.7415L77.1935 46.1121L92.6614 30.7415H123.5V19.1162H19.1646V123.111H30.8871L46.3063 107.643L30.8871 92.3212V61.5313L61.7742 30.7415Z" fill="#F6F6F6"/>
<path d="M376.5 500.111L500 500.111L500 377L376.5 377L376.5 500.111Z" fill="#2D2E27"/>
<path d="M376.5 469.37L407.338 438.58L376.5 407.79L376.5 469.37Z" fill="#2D2E27"/>
<path d="M407.338 438.58L438.226 469.37L469.113 438.58L438.226 407.79L407.338 438.58Z" fill="#2D2E27"/>
<path d="M438.226 407.79L469.113 377L407.338 377L438.226 407.79Z" fill="#2D2E27"/>
<path d="M376.5 396.165L395.713 396.165L395.713 377L388.32 377L388.32 388.771L376.5 388.771L376.5 396.165Z" fill="#7B7970"/>
<path d="M376.5 488.388L488.277 488.388L488.277 377L480.835 377L480.835 480.995L376.5 480.995L376.5 488.388Z" fill="#7B7970"/>
<path d="M376.5 388.771L388.32 388.771L388.32 377.048L376.5 377.048L376.5 388.771Z" fill="#2D2E27"/>
<path d="M407.338 438.58L438.226 407.79L422.806 392.468L407.338 407.79L376.5 407.79L407.338 438.58Z" fill="#7B7970"/>
<path d="M376.5 469.37L407.339 469.37L422.807 453.999L407.339 438.58L376.5 469.37Z" fill="#7B7970"/>
<path d="M438.226 407.79L469.113 438.58L469.113 407.79L453.694 392.468L438.226 407.79Z" fill="#7B7970"/>
<path d="M376.5 407.79L407.339 407.79L422.807 392.468L407.339 377L395.713 377L395.713 396.165L376.5 396.165L376.5 407.79Z" fill="#F6F6F6"/>
<path d="M438.226 469.369L422.807 453.999L407.339 469.369L376.5 469.369L376.5 480.995L480.835 480.995L480.835 377L469.113 377L453.694 392.468L469.113 407.79L469.113 438.58L438.226 469.369Z" fill="#F6F6F6"/>
<path d="M376.5 0H500V123.111H376.5V0Z" fill="#2D2E27"/>
<path d="M376.5 30.7412L407.338 61.5311L376.5 92.3209V30.7412Z" fill="#2D2E27"/>
<path d="M407.338 61.5311L438.226 30.7412L469.113 61.5311L438.226 92.3209L407.338 61.5311Z" fill="#2D2E27"/>
<path d="M438.226 92.3208L469.113 123.111H407.338L438.226 92.3208Z" fill="#2D2E27"/>
<path d="M376.5 103.946H395.713V123.111H388.32V111.34H376.5V103.946Z" fill="#7B7970"/>
<path d="M376.5 11.7227H488.277V123.111H480.835V19.1162H376.5V11.7227Z" fill="#7B7970"/>
<path d="M376.5 111.34H388.32V123.062H376.5V111.34Z" fill="#2D2E27"/>
<path d="M407.338 61.5312L438.226 92.3211L422.806 107.643L407.338 92.3211H376.5L407.338 61.5312Z" fill="#7B7970"/>
<path d="M376.5 30.7412H407.339L422.807 46.1118L407.339 61.5311L376.5 30.7412Z" fill="#7B7970"/>
<path d="M438.226 92.3211L469.113 61.5312V92.3211L453.694 107.643L438.226 92.3211Z" fill="#7B7970"/>
<path d="M376.5 92.3208H407.339L422.807 107.643L407.339 123.111H395.713V103.946H376.5V92.3208Z" fill="#F6F6F6"/>
<path d="M438.226 30.7415L422.807 46.1121L407.339 30.7415H376.5V19.1162H480.835V123.111H469.113L453.694 107.643L469.113 92.3212V61.5313L438.226 30.7415Z" fill="#F6F6F6"/>
<path d="M123.5 500.111L0 500.111L1.07627e-05 377L123.5 377L123.5 500.111Z" fill="#2D2E27"/>
<path d="M123.5 469.37L92.6616 438.58L123.5 407.79L123.5 469.37Z" fill="#2D2E27"/>
<path d="M92.6615 438.58L61.7744 469.37L30.8872 438.58L61.7744 407.79L92.6615 438.58Z" fill="#2D2E27"/>
<path d="M61.7744 407.79L30.8872 377L92.6615 377L61.7744 407.79Z" fill="#2D2E27"/>
<path d="M123.5 396.165L104.287 396.165L104.287 377L111.68 377L111.68 388.771L123.5 388.771L123.5 396.165Z" fill="#7B7970"/>
<path d="M123.5 488.388L11.7227 488.388L11.7227 377L19.1648 377L19.1648 480.995L123.5 480.995L123.5 488.388Z" fill="#7B7970"/>
<path d="M123.5 388.771L111.68 388.771L111.68 377.048L123.5 377.048L123.5 388.771Z" fill="#2D2E27"/>
<path d="M92.6616 438.58L61.7744 407.79L77.1937 392.468L92.6616 407.79L123.5 407.79L92.6616 438.58Z" fill="#7B7970"/>
<path d="M123.5 469.37L92.6613 469.37L77.1934 453.999L92.6613 438.58L123.5 469.37Z" fill="#7B7970"/>
<path d="M61.7744 407.79L30.8872 438.58L30.8872 407.79L46.3064 392.468L61.7744 407.79Z" fill="#7B7970"/>
<path d="M123.5 407.79L92.6613 407.79L77.1934 392.468L92.6613 377L104.287 377L104.287 396.165L123.5 396.165L123.5 407.79Z" fill="#F6F6F6"/>
<path d="M61.7742 469.369L77.1935 453.999L92.6614 469.369L123.5 469.369L123.5 480.995L19.1646 480.995L19.1646 377L30.8871 377L46.3063 392.468L30.8871 407.79L30.8871 438.58L61.7742 469.369Z" fill="#F6F6F6"/>
<path d="M249 0H125.5V123.11H249V0Z" fill="#2D2E27"/>
<path d="M249 30.729L218.125 61.5066L249 92.2842V30.729Z" fill="#2D2E27"/>
<path d="M218.125 61.5066L187.25 30.729L156.375 61.5066L187.25 92.2842L218.125 61.5066Z" fill="#2D2E27"/>
<path d="M125.5 30.729V92.2842L156.375 61.5066L125.5 30.729Z" fill="#2D2E27"/>
<path d="M249 103.923H125.5V111.326H249V103.923Z" fill="#7B7970"/>
<path d="M249 11.6875H125.5V19.0897H249V11.6875Z" fill="#7B7970"/>
<path d="M249 111.374H125.5V123.11H249V111.374Z" fill="#2D2E27"/>
<path d="M249 30.729H218.125L202.688 46.0691L218.125 61.5066L249 30.729Z" fill="#7B7970"/>
<path d="M218.125 61.5063L202.688 76.8465L218.125 92.2839H249L218.125 61.5063Z" fill="#7B7970"/>
<path d="M187.25 30.729H156.375L140.938 46.0691L156.375 61.5066L187.25 30.729Z" fill="#7B7970"/>
<path d="M156.375 61.5063L140.938 76.8465L156.375 92.2839H187.25L156.375 61.5063Z" fill="#7B7970"/>
<path d="M249 19.1387H125.5V30.7289L140.937 46.069L156.375 30.7289H187.25L202.688 46.069L218.125 30.7289H249V19.1387Z" fill="#F6F6F6"/>
<path d="M249 92.2842H218.125L202.688 76.8467L187.25 92.2842H156.375L140.937 76.8467L125.5 92.2842V103.923H249V92.2842Z" fill="#F6F6F6"/>
<path d="M251 500.111L374.5 500.111L374.5 377L251 377L251 500.111Z" fill="#2D2E27"/>
<path d="M251 469.382L281.875 438.604L251 407.827L251 469.382Z" fill="#2D2E27"/>
<path d="M281.875 438.604L312.75 469.382L343.625 438.604L312.75 407.827L281.875 438.604Z" fill="#2D2E27"/>
<path d="M374.5 469.382L374.5 407.827L343.625 438.604L374.5 469.382Z" fill="#2D2E27"/>
<path d="M251 396.187L374.5 396.188L374.5 388.785L251 388.785L251 396.187Z" fill="#7B7970"/>
<path d="M251 488.423L374.5 488.423L374.5 481.021L251 481.021L251 488.423Z" fill="#7B7970"/>
<path d="M251 388.737L374.5 388.737L374.5 377L251 377L251 388.737Z" fill="#2D2E27"/>
<path d="M251 469.382L281.875 469.382L297.313 454.042L281.875 438.604L251 469.382Z" fill="#7B7970"/>
<path d="M281.875 438.604L297.313 423.264L281.875 407.827L251 407.827L281.875 438.604Z" fill="#7B7970"/>
<path d="M312.75 469.382L343.625 469.382L359.063 454.042L343.625 438.604L312.75 469.382Z" fill="#7B7970"/>
<path d="M343.625 438.604L359.063 423.264L343.625 407.827L312.75 407.827L343.625 438.604Z" fill="#7B7970"/>
<path d="M251 480.972L374.5 480.972L374.5 469.382L359.063 454.042L343.625 469.382L312.75 469.382L297.312 454.042L281.875 469.382L251 469.382L251 480.972Z" fill="#F6F6F6"/>
<path d="M251 407.827L281.875 407.827L297.312 423.264L312.75 407.827L343.625 407.827L359.063 423.264L374.5 407.827L374.5 396.188L251 396.188L251 407.827Z" fill="#F6F6F6"/>
<path d="M1.61951e-05 250.5L0 374L123.11 374L123.11 250.5L1.61951e-05 250.5Z" fill="#2D2E27"/>
<path d="M30.729 250.5L61.5066 281.375L92.2842 250.5L30.729 250.5Z" fill="#2D2E27"/>
<path d="M61.5067 281.375L30.729 312.25L61.5066 343.125L92.2842 312.25L61.5067 281.375Z" fill="#2D2E27"/>
<path d="M30.729 374L92.2842 374L61.5066 343.125L30.729 374Z" fill="#2D2E27"/>
<path d="M103.923 250.5L103.923 374L111.326 374L111.326 250.5L103.923 250.5Z" fill="#7B7970"/>
<path d="M11.6875 250.5L11.6875 374L19.0897 374L19.0898 250.5L11.6875 250.5Z" fill="#7B7970"/>
<path d="M111.374 250.5L111.374 374L123.11 374L123.11 250.5L111.374 250.5Z" fill="#2D2E27"/>
<path d="M30.729 250.5L30.729 281.375L46.0691 296.813L61.5066 281.375L30.729 250.5Z" fill="#7B7970"/>
<path d="M61.5063 281.375L76.8465 296.813L92.2839 281.375L92.2839 250.5L61.5063 281.375Z" fill="#7B7970"/>
<path d="M30.729 312.25L30.729 343.125L46.0691 358.563L61.5066 343.125L30.729 312.25Z" fill="#7B7970"/>
<path d="M61.5063 343.125L76.8465 358.563L92.2839 343.125L92.2839 312.25L61.5063 343.125Z" fill="#7B7970"/>
<path d="M19.1387 250.5L19.1387 374L30.7289 374L46.069 358.563L30.7289 343.125L30.7289 312.25L46.0691 296.812L30.7289 281.375L30.729 250.5L19.1387 250.5Z" fill="#F6F6F6"/>
<path d="M92.2842 250.5L92.2842 281.375L76.8467 296.812L92.2842 312.25L92.2842 343.125L76.8467 358.563L92.2842 374L103.923 374L103.923 250.5L92.2842 250.5Z" fill="#F6F6F6"/>
<path d="M377 250.5L377 374L500.11 374L500.11 250.5L377 250.5Z" fill="#2D2E27"/>
<path d="M407.729 250.5L438.507 281.375L469.284 250.5L407.729 250.5Z" fill="#2D2E27"/>
<path d="M438.507 281.375L407.729 312.25L438.507 343.125L469.284 312.25L438.507 281.375Z" fill="#2D2E27"/>
<path d="M407.729 374L469.284 374L438.507 343.125L407.729 374Z" fill="#2D2E27"/>
<path d="M480.923 250.5L480.923 374L488.326 374L488.326 250.5L480.923 250.5Z" fill="#7B7970"/>
<path d="M388.688 250.5L388.688 374L396.09 374L396.09 250.5L388.688 250.5Z" fill="#7B7970"/>
<path d="M488.374 250.5L488.374 374L500.11 374L500.11 250.5L488.374 250.5Z" fill="#2D2E27"/>
<path d="M407.729 250.5L407.729 281.375L423.069 296.813L438.507 281.375L407.729 250.5Z" fill="#7B7970"/>
<path d="M438.506 281.375L453.846 296.813L469.284 281.375L469.284 250.5L438.506 281.375Z" fill="#7B7970"/>
<path d="M407.729 312.25L407.729 343.125L423.069 358.563L438.507 343.125L407.729 312.25Z" fill="#7B7970"/>
<path d="M438.506 343.125L453.846 358.563L469.284 343.125L469.284 312.25L438.506 343.125Z" fill="#7B7970"/>
<path d="M396.139 250.5L396.139 374L407.729 374L423.069 358.563L407.729 343.125L407.729 312.25L423.069 296.812L407.729 281.375L407.729 250.5L396.139 250.5Z" fill="#F6F6F6"/>
<path d="M469.284 250.5L469.284 281.375L453.847 296.812L469.284 312.25L469.284 343.125L453.847 358.563L469.284 374L480.923 374L480.923 250.5L469.284 250.5Z" fill="#F6F6F6"/>
<path d="M251 0H374.5V123.11H251V0Z" fill="#2D2E27"/>
<path d="M251 30.729L281.875 61.5066L251 92.2842V30.729Z" fill="#2D2E27"/>
<path d="M281.875 61.5066L312.75 30.729L343.625 61.5066L312.75 92.2842L281.875 61.5066Z" fill="#2D2E27"/>
<path d="M374.5 30.729V92.2842L343.625 61.5066L374.5 30.729Z" fill="#2D2E27"/>
<path d="M251 103.923H374.5V111.326H251V103.923Z" fill="#7B7970"/>
<path d="M251 11.6875H374.5V19.0897H251V11.6875Z" fill="#7B7970"/>
<path d="M251 111.374H374.5V123.11H251V111.374Z" fill="#2D2E27"/>
<path d="M251 30.729H281.875L297.312 46.0691L281.875 61.5066L251 30.729Z" fill="#7B7970"/>
<path d="M281.875 61.5063L297.312 76.8465L281.875 92.2839H251L281.875 61.5063Z" fill="#7B7970"/>
<path d="M312.75 30.729H343.625L359.062 46.0691L343.625 61.5066L312.75 30.729Z" fill="#7B7970"/>
<path d="M343.625 61.5063L359.062 76.8465L343.625 92.2839H312.75L343.625 61.5063Z" fill="#7B7970"/>
<path d="M251 19.1387H374.5V30.7289L359.063 46.069L343.625 30.7289H312.75L297.312 46.069L281.875 30.7289H251V19.1387Z" fill="#F6F6F6"/>
<path d="M251 92.2842H281.875L297.312 76.8467L312.75 92.2842H343.625L359.063 76.8467L374.5 92.2842V103.923H251V92.2842Z" fill="#F6F6F6"/>
<path d="M249 500.111L125.5 500.111L125.5 377L249 377L249 500.111Z" fill="#2D2E27"/>
<path d="M249 469.382L218.125 438.604L249 407.827L249 469.382Z" fill="#2D2E27"/>
<path d="M218.125 438.604L187.25 469.382L156.375 438.604L187.25 407.827L218.125 438.604Z" fill="#2D2E27"/>
<path d="M125.5 469.382L125.5 407.827L156.375 438.604L125.5 469.382Z" fill="#2D2E27"/>
<path d="M249 396.188L125.5 396.188L125.5 388.785L249 388.785L249 396.188Z" fill="#7B7970"/>
<path d="M249 488.423L125.5 488.423L125.5 481.021L249 481.021L249 488.423Z" fill="#7B7970"/>
<path d="M249 388.737L125.5 388.737L125.5 377L249 377L249 388.737Z" fill="#2D2E27"/>
<path d="M249 469.382L218.125 469.382L202.688 454.042L218.125 438.604L249 469.382Z" fill="#7B7970"/>
<path d="M218.125 438.604L202.688 423.264L218.125 407.827L249 407.827L218.125 438.604Z" fill="#7B7970"/>
<path d="M187.25 469.382L156.375 469.382L140.938 454.042L156.375 438.604L187.25 469.382Z" fill="#7B7970"/>
<path d="M156.375 438.604L140.938 423.264L156.375 407.827L187.25 407.827L156.375 438.604Z" fill="#7B7970"/>
<path d="M249 480.972L125.5 480.972L125.5 469.382L140.937 454.042L156.375 469.382L187.25 469.382L202.688 454.042L218.125 469.382L249 469.382L249 480.972Z" fill="#F6F6F6"/>
<path d="M249 407.827L218.125 407.827L202.688 423.264L187.25 407.827L156.375 407.827L140.937 423.264L125.5 407.827L125.5 396.188L249 396.188L249 407.827Z" fill="#F6F6F6"/>
<path d="M-1.61951e-05 248.5L0 125L123.11 125L123.11 248.5L-1.61951e-05 248.5Z" fill="#2D2E27"/>
<path d="M30.729 248.5L61.5066 217.625L92.2842 248.5L30.729 248.5Z" fill="#2D2E27"/>
<path d="M61.5066 217.625L30.729 186.75L61.5066 155.875L92.2842 186.75L61.5066 217.625Z" fill="#2D2E27"/>
<path d="M30.729 125L92.2842 125L61.5066 155.875L30.729 125Z" fill="#2D2E27"/>
<path d="M103.923 248.5L103.923 125L111.326 125L111.326 248.5L103.923 248.5Z" fill="#7B7970"/>
<path d="M11.6875 248.5L11.6875 125L19.0897 125L19.0897 248.5L11.6875 248.5Z" fill="#7B7970"/>
<path d="M111.374 248.5L111.374 125L123.11 125L123.11 248.5L111.374 248.5Z" fill="#2D2E27"/>
<path d="M30.729 248.5L30.729 217.625L46.0691 202.188L61.5066 217.625L30.729 248.5Z" fill="#7B7970"/>
<path d="M61.5063 217.625L76.8465 202.188L92.2839 217.625L92.2839 248.5L61.5063 217.625Z" fill="#7B7970"/>
<path d="M30.729 186.75L30.729 155.875L46.0691 140.438L61.5066 155.875L30.729 186.75Z" fill="#7B7970"/>
<path d="M61.5063 155.875L76.8465 140.438L92.2839 155.875L92.2839 186.75L61.5063 155.875Z" fill="#7B7970"/>
<path d="M19.1387 248.5L19.1387 125L30.7289 125L46.069 140.437L30.7289 155.875L30.7289 186.75L46.069 202.188L30.7289 217.625L30.7289 248.5L19.1387 248.5Z" fill="#F6F6F6"/>
<path d="M92.2841 248.5L92.2841 217.625L76.8467 202.188L92.2841 186.75L92.2842 155.875L76.8467 140.437L92.2842 125L103.923 125L103.923 248.5L92.2841 248.5Z" fill="#F6F6F6"/>
<path d="M377 248.5L377 125L500.11 125L500.11 248.5L377 248.5Z" fill="#2D2E27"/>
<path d="M407.729 248.5L438.507 217.625L469.284 248.5L407.729 248.5Z" fill="#2D2E27"/>
<path d="M438.507 217.625L407.729 186.75L438.507 155.875L469.284 186.75L438.507 217.625Z" fill="#2D2E27"/>
<path d="M407.729 125L469.284 125L438.507 155.875L407.729 125Z" fill="#2D2E27"/>
<path d="M480.923 248.5L480.923 125L488.326 125L488.326 248.5L480.923 248.5Z" fill="#7B7970"/>
<path d="M388.687 248.5L388.688 125L396.09 125L396.09 248.5L388.687 248.5Z" fill="#7B7970"/>
<path d="M488.374 248.5L488.374 125L500.11 125L500.11 248.5L488.374 248.5Z" fill="#2D2E27"/>
<path d="M407.729 248.5L407.729 217.625L423.069 202.188L438.507 217.625L407.729 248.5Z" fill="#7B7970"/>
<path d="M438.506 217.625L453.846 202.188L469.284 217.625L469.284 248.5L438.506 217.625Z" fill="#7B7970"/>
<path d="M407.729 186.75L407.729 155.875L423.069 140.438L438.507 155.875L407.729 186.75Z" fill="#7B7970"/>
<path d="M438.506 155.875L453.846 140.438L469.284 155.875L469.284 186.75L438.506 155.875Z" fill="#7B7970"/>
<path d="M396.139 248.5L396.139 125L407.729 125L423.069 140.437L407.729 155.875L407.729 186.75L423.069 202.188L407.729 217.625L407.729 248.5L396.139 248.5Z" fill="#F6F6F6"/>
<path d="M469.284 248.5L469.284 217.625L453.847 202.188L469.284 186.75L469.284 155.875L453.847 140.437L469.284 125L480.923 125L480.923 248.5L469.284 248.5Z" fill="#F6F6F6"/>
<path d="M125 125H248.478V248.869H125V125ZM250.574 125H374.052V248.869H250.574V125ZM125 250.825H248.478V374.694H125V250.825ZM250.574 250.825H374.052V374.694H250.574V250.825Z" fill="#D1D3D4"/>
</g>
<defs>
<clipPath id="clip0_65_1113">
<rect width="500" height="500" fill="white"/>
</clipPath>
</defs>
</svg>
