<svg width="432px" height="432px" viewBox="0 0 500 500" fill="none" xmlns="http://www.w3.org/2000/svg">
<g clip-path="url(#clip0_65_1467)">
<path d="M123.402 0H0V122.963H123.402V0Z" fill="#2C485F"/>
<path d="M111.55 111.014H123.403V105.892H106.331V122.866H111.55V111.014Z" fill="#F5F4F4"/>
<path d="M64.8716 64.5303C73.2122 73.5538 77.7971 85.3575 77.7971 97.6002C77.7971 101.112 77.4069 104.624 76.6753 108.038C79.2604 106.233 82.3821 105.355 85.5037 105.355C93.5029 105.355 100.234 111.257 101.161 119.208V100.771H119.695C111.794 99.8926 105.746 93.1616 105.746 85.1136C105.746 81.9919 106.624 78.9191 108.428 76.2852C105.014 76.9681 101.502 77.4071 97.9903 77.4071C85.6988 77.3583 73.8463 72.7246 64.8716 64.5303Z" fill="#F5F4F4"/>
<path d="M110.331 64.5302H119.744V75.0657C115.257 76.1875 112.038 80.2847 112.038 84.8696C112.038 90.4788 116.525 95.015 122.281 95.015C122.671 95.015 123.061 95.0149 123.5 94.9174V27.7533C123.11 27.7533 122.72 27.6558 122.281 27.6558C116.672 27.6558 112.038 32.1431 112.038 37.8011C112.038 42.5323 115.257 46.5319 119.744 47.605V58.1406H110.331C109.306 54.3361 106.234 51.4095 102.332 50.6291C101.941 50.6291 101.454 50.6291 101.015 50.6291C90.0888 50.6291 79.4557 54.4336 70.9688 61.3597C79.5045 68.2859 90.0888 72.0904 101.015 72.0904C101.405 72.0904 101.893 72.0904 102.332 72.0904C106.136 71.2612 109.258 68.3347 110.331 64.5302Z" fill="white"/>
<path d="M61.7502 70.627C54.824 79.0651 51.0195 89.6495 51.0195 100.575C51.0195 100.965 51.0195 101.453 51.0195 101.892C51.7999 105.794 54.7265 108.916 58.6285 109.891V119.305H47.9955C46.8736 114.818 42.7764 111.599 38.094 111.599C32.4848 111.599 27.8511 116.086 27.8511 121.744C27.8511 122.134 27.8511 122.524 27.9487 122.963H95.3079C95.3079 122.573 95.4054 122.183 95.4054 121.744C95.4054 116.135 90.918 111.599 85.1625 111.599C80.4313 111.599 76.4317 114.818 75.2611 119.305H64.8231V109.891C68.6276 108.867 71.6516 105.794 72.4321 101.892C72.4321 101.502 72.4321 101.014 72.4321 100.575C72.3833 89.6983 68.6763 79.0651 61.7502 70.627Z" fill="white"/>
<path d="M108.428 46.5806C106.624 43.9955 105.746 40.8738 105.746 37.7522C105.746 29.8505 111.745 23.1195 119.696 22.0952H22.2905V119.11C23.1685 111.208 29.9971 105.258 37.9476 105.258C41.0692 105.258 44.1421 106.136 46.776 107.94C46.0931 104.526 45.6541 101.014 45.6541 97.5024C45.6541 83.7477 51.4584 70.5295 61.7013 61.3109C71.0175 51.1655 84.2357 45.3612 98.0879 45.3612C101.551 45.4587 105.063 45.8977 108.428 46.5806Z" fill="#F5F4F4"/>
<path d="M17.0227 16.9251H123.402V11.7061H11.8037V122.866H17.0227V16.9251Z" fill="#F5F4F4"/>
<path d="M98.8197 83.9429C97.015 84.3331 95.2103 84.5282 93.4056 84.5282C89.6011 84.5282 85.8942 83.7478 82.3823 82.1382C84.0895 85.65 84.8699 89.357 84.8699 93.2591C84.8699 95.0638 84.6748 96.7709 84.3821 98.5756C84.9674 98.478 85.6991 98.478 86.2844 98.478C88.5768 98.478 90.918 98.9658 93.0154 99.8925V92.6737H100.234C99.2099 90.5764 98.7222 88.2839 98.7222 85.9427C98.7222 85.1623 98.8197 84.5769 98.8197 83.9429Z" fill="#DEB569"/>
<path d="M31.8505 50.7754C31.2652 51.9948 30.8262 53.263 30.8262 54.6774C30.8262 57.2626 32.0456 59.7989 34.2405 61.4085C32.1431 63.0181 30.8262 65.5057 30.8262 68.1396C30.8262 69.5541 31.1189 70.8222 31.8505 72.0416C35.5575 66.0422 41.9958 62.0426 49.0683 61.4085C41.9958 60.8232 35.5575 56.9211 31.8505 50.7754Z" fill="#9E5D31"/>
<path d="M72.3834 31.6556C71.164 31.0703 69.8958 30.6313 68.4813 30.6313C65.8962 30.6313 63.3598 31.8507 61.7503 34.0456C60.1407 31.9483 57.6531 30.6313 55.0192 30.6313C53.6047 30.6313 52.3366 30.924 51.1172 31.6556C57.2141 35.3626 61.1162 41.801 61.7503 48.7759C62.3356 41.7522 66.2376 35.3626 72.3834 31.6556Z" fill="#9E5D31"/>
<path d="M97.1125 38.484L98.6246 29.9482C84.3821 30.9725 71.2615 37.7524 62.3355 48.8732H61.6526H60.9698C53.4583 39.4595 42.7277 33.0211 30.924 30.7286C33.2164 42.5324 39.6548 53.1655 49.0685 60.6769V61.3598V62.0427C37.9476 70.8711 31.0215 83.9917 30.1436 98.1367L38.7768 96.6246C38.7768 96.1368 38.7768 95.6003 38.7768 95.015C38.7768 82.2846 43.8983 70.1394 52.9218 61.2622C46.9224 55.3603 42.6789 48.044 40.3864 39.996C48.4832 42.1909 55.7995 46.532 61.7502 52.4338C70.6761 43.4103 82.9188 38.2889 95.6493 38.2889C96.137 38.484 96.6248 38.484 97.1125 38.484Z" fill="#DEB569"/>
<path d="M70.9686 61.4084C79.5043 54.4823 90.0886 50.6778 101.014 50.6778C101.405 50.6778 101.892 50.6778 102.331 50.6778C106.233 51.4582 109.355 54.3847 110.331 58.1892H119.744V47.6537C115.257 46.5318 112.038 42.4346 112.038 37.8497C112.038 32.2405 116.525 27.7044 122.281 27.7044C122.671 27.7044 123.061 27.7044 123.5 27.8019V22.0952H119.793C111.891 22.9732 105.843 29.7042 105.843 37.7522C105.843 40.8738 106.721 43.9467 108.526 46.5806C105.112 45.8977 101.6 45.4588 98.0878 45.4588C84.2355 45.4588 71.1149 51.2631 61.7012 61.4084C62.823 62.4327 63.7985 63.4082 64.8228 64.5301C73.9439 72.8707 85.7476 77.358 98.0878 77.358C101.6 77.358 105.112 76.9679 108.526 76.2362C106.721 78.8213 105.843 81.943 105.843 85.0646C105.843 92.9663 111.843 99.6973 119.793 100.722H123.5V95.0149C123.11 95.0149 122.72 95.1124 122.281 95.1124C116.671 95.1124 112.038 90.6251 112.038 84.9671C112.038 80.2358 115.257 76.2362 119.744 75.1631V64.6276H110.331C109.306 68.4321 106.233 71.3586 102.331 72.1391C101.941 72.1391 101.453 72.1391 101.014 72.1391C89.9911 72.1391 79.358 68.3345 70.9686 61.4084Z" fill="#DEB569"/>
<path d="M95.4053 122.866H101.112V119.159C100.234 111.257 93.4055 105.307 85.455 105.307C82.3334 105.307 79.2605 106.185 76.6266 107.989C77.3095 104.575 77.7485 101.063 77.7485 97.5514C77.7485 85.3087 73.1148 73.505 64.823 64.4815C63.7011 63.4572 62.7256 62.4817 61.7013 61.3599C51.4584 70.676 45.6541 83.7967 45.6541 97.5514C45.6541 101.063 46.0443 104.575 46.776 107.989C44.1908 106.185 41.0692 105.307 37.9476 105.307C29.9484 105.307 23.2173 111.209 22.2905 119.159V122.866H27.9973C27.9973 122.476 27.8997 122.086 27.8997 121.647C27.8997 116.037 32.3871 111.501 38.1426 111.501C42.8739 111.501 46.8735 114.72 48.0441 119.208H58.6772V109.794C54.8727 108.77 51.8486 105.697 51.0682 101.795C51.0682 101.405 51.0682 100.917 51.0682 100.478C51.0682 89.5522 54.8727 79.0166 61.7988 70.5297C68.725 78.9678 72.5295 89.5522 72.5295 100.478C72.5295 100.868 72.5295 101.356 72.5295 101.795C71.7491 105.697 68.8225 108.819 64.9205 109.794V119.208H75.5536C76.6754 114.72 80.7726 111.501 85.455 111.501C91.0642 111.501 95.6979 115.989 95.6979 121.647C95.4053 122.037 95.4053 122.476 95.4053 122.866Z" fill="#DEB569"/>
<path d="M22.2419 22.1443H119.549C120.135 22.0467 120.769 22.0467 121.452 22.0467C122.037 22.0467 122.769 22.0467 123.354 22.1443V16.9253H17.0229V122.866H22.2419C22.1444 122.281 22.1444 121.647 22.1444 120.964C22.1444 120.378 22.1444 119.744 22.2419 119.062V22.1443V22.1443Z" fill="#2C485F"/>
<path d="M123.403 100.722C122.817 100.819 122.183 100.819 121.5 100.819C120.915 100.819 120.184 100.819 119.598 100.722H101.063V119.159C101.161 119.744 101.161 120.378 101.161 121.061C101.161 121.646 101.161 122.281 101.063 122.963H106.283V105.941H123.305L123.403 100.722Z" fill="#2C485F"/>
<path d="M123.354 111.014H111.55V122.817H123.354V111.014Z" fill="#2C485F"/>
<path d="M376.598 500.017L500 500.017L500 377.053L376.598 377.053L376.598 500.017Z" fill="#2C485F"/>
<path d="M388.45 389.003L376.597 389.003L376.597 394.125L393.669 394.125L393.669 377.151L388.45 377.151L388.45 389.003Z" fill="#F5F4F4"/>
<path d="M435.129 435.486C426.788 426.463 422.203 414.659 422.203 402.416C422.203 398.905 422.594 395.393 423.325 391.978C420.74 393.783 417.618 394.661 414.497 394.661C406.498 394.661 399.767 388.759 398.84 380.809L398.84 399.246L380.305 399.246C388.207 400.124 394.255 406.855 394.255 414.903C394.255 418.025 393.377 421.098 391.572 423.731C394.986 423.049 398.498 422.61 402.01 422.61C414.302 422.658 426.154 427.292 435.129 435.486Z" fill="#F5F4F4"/>
<path d="M389.669 435.486L380.256 435.486L380.256 424.951C384.743 423.829 387.962 419.732 387.962 415.147C387.962 409.538 383.475 405.002 377.719 405.002C377.329 405.002 376.939 405.002 376.5 405.099L376.5 472.263C376.89 472.263 377.28 472.361 377.719 472.361C383.328 472.361 387.962 467.874 387.962 462.216C387.962 457.484 384.743 453.485 380.256 452.412L380.256 441.876L389.669 441.876C390.694 445.681 393.766 448.607 397.668 449.388C398.059 449.388 398.546 449.388 398.985 449.388C409.911 449.388 420.544 445.583 429.031 438.657C420.496 431.731 409.911 427.926 398.985 427.926C398.595 427.926 398.107 427.926 397.668 427.926C393.864 428.755 390.742 431.682 389.669 435.486Z" fill="white"/>
<path d="M438.25 429.39C445.176 420.951 448.981 410.367 448.981 399.441C448.981 399.051 448.981 398.563 448.981 398.124C448.201 394.222 445.274 391.101 441.372 390.125L441.372 380.712L452.005 380.712C453.127 385.199 457.224 388.418 461.907 388.418C467.516 388.418 472.149 383.931 472.149 378.273C472.149 377.883 472.149 377.492 472.052 377.053L404.693 377.053C404.693 377.444 404.595 377.834 404.595 378.273C404.595 383.882 409.082 388.418 414.838 388.418C419.569 388.418 423.569 385.199 424.739 380.712L435.177 380.712L435.177 390.125C431.373 391.15 428.349 394.222 427.568 398.124C427.568 398.515 427.568 399.002 427.568 399.441C427.617 410.318 431.324 420.951 438.25 429.39Z" fill="white"/>
<path d="M391.572 453.436C393.377 456.021 394.255 459.143 394.255 462.264C394.255 470.166 388.255 476.897 380.305 477.921L477.71 477.921L477.71 380.907C476.832 388.808 470.003 394.759 462.053 394.759C458.931 394.759 455.858 393.881 453.225 392.076C453.907 395.49 454.346 399.002 454.346 402.514C454.346 416.269 448.542 429.487 438.299 438.706C428.983 448.851 415.765 454.655 401.913 454.655C398.449 454.558 394.938 454.119 391.572 453.436Z" fill="#F5F4F4"/>
<path d="M482.977 483.092L376.598 483.092L376.598 488.311L488.196 488.311L488.196 377.151L482.977 377.151L482.977 483.092Z" fill="#F5F4F4"/>
<path d="M401.181 416.074C402.985 415.684 404.79 415.488 406.595 415.488C410.399 415.488 414.106 416.269 417.618 417.878C415.911 414.367 415.131 410.66 415.131 406.758C415.131 404.953 415.326 403.246 415.618 401.441C415.033 401.539 414.301 401.539 413.716 401.539C411.424 401.539 409.082 401.051 406.985 400.124L406.985 407.343L399.766 407.343C400.791 409.44 401.278 411.733 401.278 414.074C401.278 414.854 401.181 415.44 401.181 416.074Z" fill="#DEB569"/>
<path d="M468.149 449.241C468.735 448.022 469.174 446.754 469.174 445.339C469.174 442.754 467.954 440.218 465.76 438.608C467.857 436.998 469.174 434.511 469.174 431.877C469.174 430.463 468.881 429.194 468.149 427.975C464.443 433.974 458.004 437.974 450.932 438.608C458.004 439.193 464.443 443.095 468.149 449.241Z" fill="#9E5D31"/>
<path d="M427.617 468.361C428.836 468.946 430.104 469.385 431.519 469.385C434.104 469.385 436.64 468.166 438.25 465.971C439.859 468.068 442.347 469.385 444.981 469.385C446.395 469.385 447.663 469.093 448.883 468.361C442.786 464.654 438.884 458.216 438.25 451.241C437.664 458.264 433.762 464.654 427.617 468.361Z" fill="#9E5D31"/>
<path d="M402.887 461.533L401.375 470.068C415.618 469.044 428.739 462.264 437.664 451.143L438.347 451.143L439.03 451.143C446.542 460.557 457.272 466.996 469.076 469.288C466.784 457.484 460.345 446.851 450.932 439.34L450.932 438.657L450.932 437.974C462.052 429.146 468.978 416.025 469.856 401.88L461.223 403.392C461.223 403.88 461.223 404.416 461.223 405.002C461.223 417.732 456.102 429.877 447.078 438.754C453.078 444.656 457.321 451.973 459.614 460.021C451.517 457.826 444.2 453.485 438.25 447.583C429.324 456.606 417.081 461.728 404.351 461.728C403.863 461.533 403.375 461.533 402.887 461.533Z" fill="#DEB569"/>
<path d="M429.031 438.608C420.496 445.534 409.911 449.339 398.986 449.339C398.595 449.339 398.108 449.339 397.669 449.339C393.767 448.558 390.645 445.632 389.67 441.827L380.256 441.827L380.256 452.363C384.743 453.485 387.962 457.582 387.962 462.167C387.962 467.776 383.475 472.312 377.719 472.312C377.329 472.312 376.939 472.312 376.5 472.215L376.5 477.921L380.207 477.921C388.109 477.043 394.157 470.312 394.157 462.264C394.157 459.143 393.279 456.07 391.474 453.436C394.888 454.119 398.4 454.558 401.912 454.558C415.764 454.558 428.885 448.754 438.299 438.608C437.177 437.584 436.201 436.608 435.177 435.487C426.056 427.146 414.252 422.659 401.912 422.659C398.4 422.659 394.888 423.049 391.474 423.78C393.279 421.195 394.157 418.074 394.157 414.952C394.157 407.05 388.157 400.319 380.207 399.295L376.5 399.295L376.5 405.002C376.89 405.002 377.28 404.904 377.719 404.904C383.329 404.904 387.962 409.392 387.962 415.05C387.962 419.781 384.743 423.78 380.256 424.853L380.256 435.389L389.67 435.389C390.694 431.585 393.767 428.658 397.669 427.878C398.059 427.878 398.547 427.878 398.986 427.878C410.009 427.878 420.642 431.682 429.031 438.608Z" fill="#DEB569"/>
<path d="M404.595 377.151L398.888 377.151L398.888 380.858C399.766 388.759 406.595 394.71 414.545 394.71C417.667 394.71 420.74 393.832 423.374 392.027C422.691 395.441 422.252 398.953 422.252 402.465C422.252 414.708 426.886 426.512 435.178 435.535C436.299 436.559 437.275 437.535 438.299 438.657C448.542 429.341 454.346 416.22 454.346 402.465C454.346 398.953 453.956 395.441 453.225 392.027C455.81 393.832 458.931 394.71 462.053 394.71C470.052 394.71 476.783 388.808 477.71 380.858L477.71 377.151L472.003 377.151C472.003 377.541 472.101 377.931 472.101 378.37C472.101 383.979 467.613 388.515 461.858 388.515C457.127 388.515 453.127 385.296 451.956 380.809L441.323 380.809L441.323 390.223C445.128 391.247 448.152 394.32 448.932 398.222C448.932 398.612 448.932 399.1 448.932 399.539C448.932 410.464 445.128 421 438.202 429.487C431.276 421.049 427.471 410.464 427.471 399.539C427.471 399.148 427.471 398.661 427.471 398.222C428.251 394.32 431.178 391.198 435.08 390.223L435.08 380.809L424.447 380.809C423.325 385.296 419.228 388.515 414.545 388.515C408.936 388.515 404.303 384.028 404.303 378.37C404.595 377.98 404.595 377.541 404.595 377.151Z" fill="#DEB569"/>
<path d="M477.759 477.872L380.451 477.872C379.866 477.97 379.232 477.97 378.549 477.97C377.964 477.97 377.232 477.97 376.647 477.872L376.647 483.091L482.978 483.091L482.978 377.151L477.759 377.151C477.856 377.736 477.856 378.37 477.856 379.053C477.856 379.638 477.856 380.272 477.759 380.955L477.759 477.872V477.872Z" fill="#2C485F"/>
<path d="M376.597 399.295C377.183 399.197 377.817 399.197 378.5 399.197C379.085 399.197 379.816 399.197 380.402 399.295L398.937 399.295L398.937 380.858C398.839 380.272 398.839 379.638 398.839 378.955C398.839 378.37 398.839 377.736 398.937 377.053L393.717 377.053L393.717 394.076L376.695 394.076L376.597 399.295Z" fill="#2C485F"/>
<path d="M376.646 389.003L388.45 389.003L388.45 377.199L376.646 377.199L376.646 389.003Z" fill="#2C485F"/>
<path d="M376.598 0H500V122.963H376.598V0Z" fill="#2C485F"/>
<path d="M388.45 111.014H376.597V105.892H393.669V122.866H388.45V111.014Z" fill="#F5F4F4"/>
<path d="M435.129 64.5303C426.788 73.5538 422.203 85.3575 422.203 97.6002C422.203 101.112 422.594 104.624 423.325 108.038C420.74 106.233 417.618 105.355 414.497 105.355C406.498 105.355 399.767 111.257 398.84 119.208V100.771H380.305C388.207 99.8926 394.255 93.1616 394.255 85.1136C394.255 81.9919 393.377 78.9191 391.572 76.2852C394.986 76.9681 398.498 77.4071 402.01 77.4071C414.302 77.3583 426.154 72.7246 435.129 64.5303Z" fill="#F5F4F4"/>
<path d="M389.669 64.5302H380.256V75.0657C384.743 76.1875 387.962 80.2847 387.962 84.8696C387.962 90.4788 383.475 95.015 377.719 95.015C377.329 95.015 376.939 95.0149 376.5 94.9174V27.7533C376.89 27.7533 377.28 27.6558 377.719 27.6558C383.328 27.6558 387.962 32.1431 387.962 37.8011C387.962 42.5323 384.743 46.5319 380.256 47.605V58.1406H389.669C390.694 54.3361 393.766 51.4095 397.668 50.6291C398.059 50.6291 398.546 50.6291 398.985 50.6291C409.911 50.6291 420.544 54.4336 429.031 61.3597C420.496 68.2859 409.911 72.0904 398.985 72.0904C398.595 72.0904 398.107 72.0904 397.668 72.0904C393.864 71.2612 390.742 68.3347 389.669 64.5302Z" fill="white"/>
<path d="M438.25 70.627C445.176 79.0651 448.981 89.6495 448.981 100.575C448.981 100.965 448.981 101.453 448.981 101.892C448.201 105.794 445.274 108.916 441.372 109.891V119.305H452.005C453.127 114.818 457.224 111.599 461.907 111.599C467.516 111.599 472.149 116.086 472.149 121.744C472.149 122.134 472.149 122.524 472.052 122.963H404.693C404.693 122.573 404.595 122.183 404.595 121.744C404.595 116.135 409.082 111.599 414.838 111.599C419.569 111.599 423.569 114.818 424.739 119.305H435.177V109.891C431.373 108.867 428.349 105.794 427.568 101.892C427.568 101.502 427.568 101.014 427.568 100.575C427.617 89.6983 431.324 79.0651 438.25 70.627Z" fill="white"/>
<path d="M391.572 46.5806C393.377 43.9955 394.255 40.8738 394.255 37.7522C394.255 29.8505 388.255 23.1195 380.305 22.0952H477.71V119.11C476.832 111.208 470.003 105.258 462.053 105.258C458.931 105.258 455.858 106.136 453.225 107.94C453.907 104.526 454.346 101.014 454.346 97.5024C454.346 83.7477 448.542 70.5295 438.299 61.3109C428.983 51.1655 415.765 45.3612 401.913 45.3612C398.449 45.4587 394.938 45.8977 391.572 46.5806Z" fill="#F5F4F4"/>
<path d="M482.977 16.9251H376.598V11.7061H488.196V122.866H482.977V16.9251Z" fill="#F5F4F4"/>
<path d="M401.181 83.9429C402.985 84.3331 404.79 84.5282 406.595 84.5282C410.399 84.5282 414.106 83.7478 417.618 82.1382C415.911 85.65 415.131 89.357 415.131 93.2591C415.131 95.0638 415.326 96.7709 415.618 98.5756C415.033 98.478 414.301 98.478 413.716 98.478C411.424 98.478 409.082 98.9658 406.985 99.8925V92.6737H399.766C400.791 90.5764 401.278 88.2839 401.278 85.9427C401.278 85.1623 401.181 84.5769 401.181 83.9429Z" fill="#DEB569"/>
<path d="M468.149 50.7754C468.735 51.9948 469.174 53.263 469.174 54.6774C469.174 57.2626 467.954 59.7989 465.76 61.4085C467.857 63.0181 469.174 65.5057 469.174 68.1396C469.174 69.5541 468.881 70.8222 468.149 72.0416C464.443 66.0422 458.004 62.0426 450.932 61.4085C458.004 60.8232 464.443 56.9211 468.149 50.7754Z" fill="#9E5D31"/>
<path d="M427.617 31.6556C428.836 31.0703 430.104 30.6313 431.519 30.6313C434.104 30.6313 436.64 31.8507 438.25 34.0456C439.859 31.9483 442.347 30.6313 444.981 30.6313C446.395 30.6313 447.663 30.924 448.883 31.6556C442.786 35.3626 438.884 41.801 438.25 48.7759C437.664 41.7522 433.762 35.3626 427.617 31.6556Z" fill="#9E5D31"/>
<path d="M402.887 38.484L401.375 29.9482C415.618 30.9725 428.739 37.7524 437.664 48.8732H438.347H439.03C446.542 39.4595 457.272 33.0211 469.076 30.7286C466.784 42.5324 460.345 53.1655 450.932 60.6769V61.3598V62.0427C462.052 70.8711 468.978 83.9917 469.856 98.1367L461.223 96.6246C461.223 96.1368 461.223 95.6003 461.223 95.015C461.223 82.2846 456.102 70.1394 447.078 61.2622C453.078 55.3603 457.321 48.044 459.614 39.996C451.517 42.1909 444.2 46.532 438.25 52.4338C429.324 43.4103 417.081 38.2889 404.351 38.2889C403.863 38.484 403.375 38.484 402.887 38.484Z" fill="#DEB569"/>
<path d="M429.031 61.4084C420.496 54.4823 409.911 50.6778 398.986 50.6778C398.595 50.6778 398.108 50.6778 397.669 50.6778C393.767 51.4582 390.645 54.3847 389.669 58.1892H380.256V47.6537C384.743 46.5318 387.962 42.4346 387.962 37.8497C387.962 32.2405 383.475 27.7044 377.719 27.7044C377.329 27.7044 376.939 27.7044 376.5 27.8019V22.0952H380.207C388.109 22.9732 394.157 29.7042 394.157 37.7522C394.157 40.8738 393.279 43.9467 391.474 46.5806C394.888 45.8977 398.4 45.4588 401.912 45.4588C415.764 45.4588 428.885 51.2631 438.299 61.4084C437.177 62.4327 436.201 63.4082 435.177 64.5301C426.056 72.8707 414.252 77.358 401.912 77.358C398.4 77.358 394.888 76.9679 391.474 76.2362C393.279 78.8213 394.157 81.943 394.157 85.0646C394.157 92.9663 388.157 99.6973 380.207 100.722H376.5V95.0149C376.89 95.0149 377.28 95.1124 377.719 95.1124C383.329 95.1124 387.962 90.6251 387.962 84.9671C387.962 80.2358 384.743 76.2362 380.256 75.1631V64.6276H389.669C390.694 68.4321 393.767 71.3586 397.669 72.1391C398.059 72.1391 398.547 72.1391 398.986 72.1391C410.009 72.1391 420.642 68.3345 429.031 61.4084Z" fill="#DEB569"/>
<path d="M404.595 122.866H398.888V119.159C399.766 111.257 406.595 105.307 414.545 105.307C417.667 105.307 420.74 106.185 423.374 107.989C422.691 104.575 422.252 101.063 422.252 97.5514C422.252 85.3087 426.886 73.505 435.178 64.4815C436.299 63.4572 437.275 62.4817 438.299 61.3599C448.542 70.676 454.346 83.7967 454.346 97.5514C454.346 101.063 453.956 104.575 453.225 107.989C455.81 106.185 458.931 105.307 462.053 105.307C470.052 105.307 476.783 111.209 477.71 119.159V122.866H472.003C472.003 122.476 472.101 122.086 472.101 121.647C472.101 116.037 467.613 111.501 461.858 111.501C457.127 111.501 453.127 114.72 451.956 119.208H441.323V109.794C445.128 108.77 448.152 105.697 448.932 101.795C448.932 101.405 448.932 100.917 448.932 100.478C448.932 89.5522 445.128 79.0166 438.202 70.5297C431.276 78.9678 427.471 89.5522 427.471 100.478C427.471 100.868 427.471 101.356 427.471 101.795C428.251 105.697 431.178 108.819 435.08 109.794V119.208H424.447C423.325 114.72 419.228 111.501 414.545 111.501C408.936 111.501 404.303 115.989 404.303 121.647C404.595 122.037 404.595 122.476 404.595 122.866Z" fill="#DEB569"/>
<path d="M477.759 22.1443H380.451C379.866 22.0467 379.232 22.0467 378.549 22.0467C377.964 22.0467 377.232 22.0467 376.647 22.1443V16.9253H482.978V122.866H477.759C477.856 122.281 477.856 121.647 477.856 120.964C477.856 120.378 477.856 119.744 477.759 119.062V22.1443V22.1443Z" fill="#2C485F"/>
<path d="M376.597 100.722C377.183 100.819 377.817 100.819 378.5 100.819C379.085 100.819 379.816 100.819 380.402 100.722H398.937V119.159C398.839 119.744 398.839 120.378 398.839 121.061C398.839 121.646 398.839 122.281 398.937 122.963H393.717V105.941H376.695L376.597 100.722Z" fill="#2C485F"/>
<path d="M376.646 111.014H388.45V122.817H376.646V111.014Z" fill="#2C485F"/>
<path d="M123.402 500.017L0 500.017L1.07498e-05 377.053L123.402 377.053L123.402 500.017Z" fill="#2C485F"/>
<path d="M111.55 389.003L123.403 389.003L123.403 394.125L106.331 394.125L106.331 377.151L111.55 377.151L111.55 389.003Z" fill="#F5F4F4"/>
<path d="M64.8716 435.486C73.2122 426.463 77.7971 414.659 77.7971 402.416C77.7971 398.905 77.4069 395.393 76.6753 391.978C79.2604 393.783 82.3821 394.661 85.5037 394.661C93.5029 394.661 100.234 388.759 101.161 380.809L101.161 399.246L119.695 399.246C111.794 400.124 105.746 406.855 105.746 414.903C105.746 418.025 106.624 421.098 108.428 423.731C105.014 423.049 101.502 422.61 97.9903 422.61C85.6988 422.658 73.8463 427.292 64.8716 435.486Z" fill="#F5F4F4"/>
<path d="M110.331 435.486L119.744 435.486L119.744 424.951C115.257 423.829 112.038 419.732 112.038 415.147C112.038 409.538 116.525 405.002 122.281 405.002C122.671 405.002 123.061 405.002 123.5 405.099L123.5 472.263C123.11 472.263 122.72 472.361 122.281 472.361C116.672 472.361 112.038 467.874 112.038 462.216C112.038 457.484 115.257 453.485 119.744 452.412L119.744 441.876L110.331 441.876C109.306 445.681 106.234 448.607 102.332 449.388C101.941 449.388 101.454 449.388 101.015 449.388C90.0888 449.388 79.4557 445.583 70.9688 438.657C79.5045 431.731 90.0888 427.926 101.015 427.926C101.405 427.926 101.893 427.926 102.332 427.926C106.136 428.755 109.258 431.682 110.331 435.486Z" fill="white"/>
<path d="M61.7502 429.39C54.824 420.951 51.0195 410.367 51.0195 399.441C51.0195 399.051 51.0195 398.563 51.0195 398.124C51.7999 394.222 54.7265 391.101 58.6285 390.125L58.6285 380.712L47.9955 380.712C46.8736 385.199 42.7764 388.418 38.094 388.418C32.4848 388.418 27.8511 383.931 27.8511 378.273C27.8511 377.883 27.8511 377.492 27.9487 377.053L95.3079 377.053C95.3079 377.444 95.4054 377.834 95.4054 378.273C95.4054 383.882 90.918 388.418 85.1625 388.418C80.4313 388.418 76.4317 385.199 75.2611 380.712L64.8231 380.712L64.8231 390.125C68.6276 391.15 71.6516 394.222 72.4321 398.124C72.4321 398.515 72.4321 399.002 72.4321 399.441C72.3833 410.318 68.6763 420.951 61.7502 429.39Z" fill="white"/>
<path d="M108.428 453.436C106.624 456.021 105.746 459.143 105.746 462.264C105.746 470.166 111.745 476.897 119.696 477.921L22.2905 477.921L22.2905 380.907C23.1685 388.808 29.9971 394.759 37.9476 394.759C41.0692 394.759 44.1421 393.881 46.776 392.076C46.0931 395.49 45.6541 399.002 45.6541 402.514C45.6541 416.269 51.4584 429.487 61.7013 438.706C71.0175 448.851 84.2357 454.655 98.0879 454.655C101.551 454.558 105.063 454.119 108.428 453.436Z" fill="#F5F4F4"/>
<path d="M17.0227 483.092L123.402 483.092L123.402 488.311L11.8037 488.311L11.8037 377.151L17.0228 377.151L17.0227 483.092Z" fill="#F5F4F4"/>
<path d="M98.8197 416.074C97.015 415.684 95.2103 415.488 93.4056 415.488C89.6011 415.488 85.8942 416.269 82.3823 417.878C84.0895 414.367 84.8699 410.66 84.8699 406.758C84.8699 404.953 84.6748 403.246 84.3821 401.441C84.9674 401.539 85.6991 401.539 86.2844 401.539C88.5768 401.539 90.918 401.051 93.0154 400.124L93.0154 407.343L100.234 407.343C99.2099 409.44 98.7222 411.733 98.7222 414.074C98.7222 414.854 98.8197 415.44 98.8197 416.074Z" fill="#DEB569"/>
<path d="M31.8505 449.241C31.2652 448.022 30.8262 446.754 30.8262 445.339C30.8262 442.754 32.0456 440.218 34.2405 438.608C32.1431 436.998 30.8262 434.511 30.8262 431.877C30.8262 430.463 31.1189 429.194 31.8505 427.975C35.5575 433.974 41.9958 437.974 49.0683 438.608C41.9958 439.193 35.5575 443.095 31.8505 449.241Z" fill="#9E5D31"/>
<path d="M72.3834 468.361C71.164 468.946 69.8958 469.385 68.4813 469.385C65.8962 469.385 63.3598 468.166 61.7503 465.971C60.1407 468.068 57.6531 469.385 55.0192 469.385C53.6047 469.385 52.3366 469.093 51.1172 468.361C57.2141 464.654 61.1162 458.216 61.7503 451.241C62.3356 458.264 66.2376 464.654 72.3834 468.361Z" fill="#9E5D31"/>
<path d="M97.1125 461.533L98.6246 470.068C84.3821 469.044 71.2615 462.264 62.3355 451.143L61.6526 451.143L60.9698 451.143C53.4583 460.557 42.7277 466.996 30.924 469.288C33.2164 457.484 39.6548 446.851 49.0685 439.34L49.0685 438.657L49.0685 437.974C37.9476 429.146 31.0215 416.025 30.1436 401.88L38.7768 403.392C38.7768 403.88 38.7768 404.416 38.7768 405.002C38.7768 417.732 43.8983 429.877 52.9218 438.754C46.9224 444.656 42.6789 451.973 40.3864 460.021C48.4832 457.826 55.7995 453.485 61.7502 447.583C70.6761 456.606 82.9188 461.728 95.6493 461.728C96.137 461.533 96.6248 461.533 97.1125 461.533Z" fill="#DEB569"/>
<path d="M70.9686 438.608C79.5043 445.534 90.0886 449.339 101.014 449.339C101.405 449.339 101.892 449.339 102.331 449.339C106.233 448.558 109.355 445.632 110.331 441.827L119.744 441.827L119.744 452.363C115.257 453.485 112.038 457.582 112.038 462.167C112.038 467.776 116.525 472.312 122.281 472.312C122.671 472.312 123.061 472.312 123.5 472.215L123.5 477.921L119.793 477.921C111.891 477.043 105.843 470.312 105.843 462.264C105.843 459.143 106.721 456.07 108.526 453.436C105.112 454.119 101.6 454.558 98.0878 454.558C84.2355 454.558 71.1149 448.754 61.7012 438.608C62.823 437.584 63.7985 436.608 64.8228 435.487C73.9439 427.146 85.7476 422.659 98.0878 422.659C101.6 422.659 105.112 423.049 108.526 423.78C106.721 421.195 105.843 418.074 105.843 414.952C105.843 407.05 111.843 400.319 119.793 399.295L123.5 399.295L123.5 405.002C123.11 405.002 122.72 404.904 122.281 404.904C116.671 404.904 112.038 409.392 112.038 415.05C112.038 419.781 115.257 423.78 119.744 424.853L119.744 435.389L110.331 435.389C109.306 431.585 106.233 428.658 102.331 427.878C101.941 427.878 101.453 427.878 101.014 427.878C89.9911 427.878 79.358 431.682 70.9686 438.608Z" fill="#DEB569"/>
<path d="M95.4053 377.151L101.112 377.151L101.112 380.858C100.234 388.759 93.4055 394.71 85.455 394.71C82.3334 394.71 79.2605 393.832 76.6267 392.027C77.3095 395.442 77.7485 398.953 77.7485 402.465C77.7485 414.708 73.1148 426.512 64.823 435.535C63.7011 436.559 62.7256 437.535 61.7013 438.657C51.4584 429.341 45.6541 416.22 45.6541 402.465C45.6541 398.953 46.0443 395.441 46.776 392.027C44.1908 393.832 41.0692 394.71 37.9476 394.71C29.9484 394.71 23.2173 388.808 22.2905 380.858L22.2905 377.151L27.9973 377.151C27.9973 377.541 27.8997 377.931 27.8997 378.37C27.8997 383.979 32.3871 388.515 38.1426 388.515C42.8739 388.515 46.8735 385.296 48.0441 380.809L58.6772 380.809L58.6772 390.223C54.8727 391.247 51.8486 394.32 51.0682 398.222C51.0682 398.612 51.0682 399.1 51.0682 399.539C51.0682 410.464 54.8727 421 61.7988 429.487C68.725 421.049 72.5295 410.464 72.5295 399.539C72.5295 399.148 72.5295 398.661 72.5295 398.222C71.7491 394.32 68.8225 391.198 64.9205 390.223L64.9205 380.809L75.5536 380.809C76.6755 385.296 80.7726 388.515 85.455 388.515C91.0642 388.515 95.6979 384.028 95.6979 378.37C95.4053 377.98 95.4053 377.541 95.4053 377.151Z" fill="#DEB569"/>
<path d="M22.2419 477.872L119.549 477.872C120.135 477.97 120.769 477.97 121.452 477.97C122.037 477.97 122.769 477.97 123.354 477.872L123.354 483.091L17.0229 483.091L17.023 377.151L22.2419 377.151C22.1444 377.736 22.1444 378.37 22.1444 379.053C22.1444 379.638 22.1444 380.272 22.2419 380.955L22.2419 477.872V477.872Z" fill="#2C485F"/>
<path d="M123.403 399.295C122.817 399.197 122.183 399.197 121.5 399.197C120.915 399.197 120.184 399.197 119.598 399.295L101.063 399.295L101.063 380.858C101.161 380.272 101.161 379.638 101.161 378.955C101.161 378.37 101.161 377.736 101.063 377.053L106.283 377.053L106.283 394.076L123.305 394.076L123.403 399.295Z" fill="#2C485F"/>
<path d="M123.354 389.003L111.55 389.003L111.55 377.199L123.354 377.199L123.354 389.003Z" fill="#2C485F"/>
<path d="M248.854 0.197754H125.646V123.017H248.854V0.197754Z" fill="#2C485F"/>
<path d="M248.854 11.9248H125.646V17.1314H248.854V11.9248Z" fill="#F5F4F4"/>
<path d="M248.854 106.034H125.646V111.241H248.854V106.034Z" fill="#F5F4F4"/>
<path d="M129.393 22.3384C137.325 23.2629 143.31 29.9294 143.31 37.9584C143.31 41.0727 142.385 44.1869 140.585 46.7659C143.991 46.0847 147.495 45.6467 150.998 45.6467C164.818 45.6467 177.907 51.4373 187.348 61.5587C196.642 51.4373 209.877 45.6467 223.697 45.6467C227.2 45.6467 230.704 46.036 234.11 46.7659C232.31 44.1869 231.385 41.0727 231.385 37.9584C231.385 30.0268 237.37 23.3602 245.302 22.3384H129.393Z" fill="#F5F4F4"/>
<path d="M245.107 100.828C237.176 99.9031 231.19 93.2367 231.19 85.2077C231.19 82.0934 232.115 78.9792 233.915 76.4002C230.509 77.0814 227.006 77.5193 223.502 77.5193C209.682 77.5193 196.593 71.7288 187.153 61.6074C177.859 71.7288 164.623 77.5193 150.803 77.5193C147.3 77.5193 143.796 77.1301 140.39 76.4002C142.191 78.9792 143.115 82.0934 143.115 85.2077C143.115 93.1393 137.13 99.8058 129.198 100.828H245.107Z" fill="#F5F4F4"/>
<path d="M227.784 72.1667C231.677 71.3881 234.791 68.4685 235.813 64.673H245.205V75.1837C240.679 76.3029 237.516 80.3903 237.516 85.013C237.516 90.609 242.042 95.1344 247.735 95.1344C248.124 95.1344 248.513 95.1344 248.951 95.0371V27.9831C248.562 27.9831 248.173 27.8857 247.735 27.8857C242.139 27.8857 237.516 32.4112 237.516 38.0071C237.516 42.7272 240.728 46.7173 245.205 47.8365V58.3471H235.813C234.791 54.5516 231.726 51.632 227.784 50.8535C227.395 50.8535 226.86 50.8535 226.47 50.8535C215.57 50.8535 204.962 54.649 196.447 61.5588C204.962 68.4685 215.57 72.264 226.47 72.264C226.957 72.264 227.395 72.1667 227.784 72.1667Z" fill="#F5F4F4"/>
<path d="M178.004 61.5588C169.489 54.649 158.881 50.8535 147.981 50.8535C147.592 50.8535 147.057 50.8535 146.667 50.8535C142.774 51.632 139.66 54.5516 138.638 58.3471H129.247V47.8365C133.772 46.7173 136.935 42.6299 136.935 38.0071C136.935 32.4112 132.41 27.8857 126.717 27.8857C126.327 27.8857 125.938 27.8858 125.5 27.9831V95.0371C125.889 95.0371 126.279 95.1344 126.717 95.1344C132.312 95.1344 136.935 90.609 136.935 85.013C136.935 80.293 133.724 76.3029 129.247 75.1837V64.673H138.638C139.66 68.4685 142.726 71.3881 146.667 72.1667C147.057 72.1667 147.592 72.1667 147.981 72.1667C159.027 72.264 169.635 68.4685 178.004 61.5588Z" fill="white"/>
<path d="M248.902 17.1318H125.694V22.3385C126.278 22.2412 126.911 22.2412 127.592 22.2412C128.176 22.2412 128.906 22.2412 129.49 22.3385H245.204C245.788 22.2412 246.421 22.2412 247.102 22.2412C247.686 22.2412 248.416 22.2412 249 22.3385L248.902 17.1318Z" fill="#2C485F"/>
<path d="M150.414 30.124L151.923 38.6396C152.409 38.6396 152.944 38.6396 153.528 38.6396C166.229 38.6396 178.442 43.7489 187.347 52.7511C196.252 43.7489 208.466 38.6396 221.166 38.6396C221.653 38.6396 222.188 38.6396 222.772 38.6396L224.281 30.124C210.072 31.1459 196.933 37.9097 188.029 49.0529H187.25H186.569C177.713 37.9584 164.623 31.0486 150.414 30.124Z" fill="#DEB569"/>
<path d="M197.858 31.827C196.641 31.2431 195.376 30.8052 193.965 30.8052C191.386 30.8052 188.856 32.0217 187.25 34.2114C185.644 32.119 183.163 30.8052 180.535 30.8052C179.124 30.8052 177.81 31.0971 176.642 31.827C182.725 35.5252 186.666 41.9484 187.25 48.9555C187.834 41.9484 191.824 35.5252 197.858 31.827Z" fill="#9E5D31"/>
<path d="M187.25 74.21C186.666 81.3144 182.725 87.6402 176.642 91.3384C177.859 91.9223 179.124 92.3602 180.535 92.3602C183.114 92.3602 185.644 91.1437 187.25 88.954C188.856 91.0464 191.338 92.3602 193.965 92.3602C195.376 92.3602 196.69 92.0683 197.858 91.3384C191.824 87.5915 187.834 81.2171 187.25 74.21Z" fill="#9E5D31"/>
<path d="M187.25 70.3662C178.345 79.3684 166.131 84.4777 153.431 84.4777C152.945 84.4777 152.409 84.4777 151.825 84.4777L150.317 92.9933C164.526 91.9714 177.664 85.2076 186.569 74.0644H187.25H187.931C196.836 85.159 209.974 91.9714 224.183 92.9933L222.675 84.4777C222.188 84.4777 221.653 84.4777 221.069 84.4777C208.466 84.4777 196.252 79.417 187.25 70.3662Z" fill="#DEB569"/>
<path d="M196.447 61.5585C204.963 54.6487 215.571 50.8532 226.47 50.8532C226.86 50.8532 227.395 50.8532 227.784 50.8532C231.677 51.6318 234.791 54.5514 235.813 58.3469H245.205V47.8362C240.679 46.7171 237.516 42.6296 237.516 38.0069C237.516 32.4109 242.042 27.8855 247.735 27.8855C248.124 27.8855 248.514 27.8855 248.952 27.9829V22.2896H245.253C237.322 23.2141 231.336 29.8806 231.336 37.9095C231.336 41.0238 232.261 44.1381 234.061 46.7171C230.655 46.0358 227.152 45.5979 223.648 45.5979C209.829 45.5979 196.739 51.3884 187.299 61.5098C196.593 71.6312 209.829 77.4218 223.648 77.4218C227.152 77.4218 230.655 77.0325 234.061 76.3026C232.261 78.8816 231.336 81.9958 231.336 85.1101C231.336 93.0417 237.322 99.7082 245.253 100.73H248.952V95.0368C248.562 95.0368 248.173 95.1342 247.735 95.1342C242.139 95.1342 237.516 90.6087 237.516 85.0128C237.516 80.2927 240.728 76.3026 245.205 75.1834V64.6727H235.813C234.791 68.4682 231.726 71.3879 227.784 72.1664C227.395 72.1664 226.86 72.1664 226.47 72.1664C215.571 72.2638 204.963 68.4683 196.447 61.5585Z" fill="#DEB569"/>
<path d="M140.584 76.3997C143.991 77.081 147.494 77.5189 150.998 77.5189C164.817 77.5189 177.907 71.7283 187.347 61.607C178.053 51.4856 164.817 45.695 150.998 45.695C147.494 45.695 143.991 46.0843 140.584 46.8142C142.385 44.2352 143.309 41.121 143.309 38.0067C143.309 30.075 137.324 23.4086 129.393 22.3867H125.694V28.08C126.084 28.08 126.473 27.9827 126.911 27.9827C132.507 27.9827 137.13 32.508 137.13 38.104C137.13 42.824 133.918 46.8142 129.441 47.9334V58.444H138.833C139.855 54.6485 142.92 51.7289 146.862 50.9503C147.251 50.9503 147.786 50.9503 148.175 50.9503C159.075 50.9503 169.683 54.7458 178.199 61.6556C169.683 68.5654 159.075 72.3609 148.175 72.3609C147.786 72.3609 147.251 72.3609 146.862 72.3609C142.969 71.5823 139.855 68.6627 138.833 64.8672H129.441V75.3778C133.967 76.497 137.13 80.5845 137.13 85.2072C137.13 90.8032 132.604 95.3286 126.911 95.3286C126.522 95.3286 126.132 95.3286 125.694 95.2313V100.925H129.393C137.324 100 143.309 93.3335 143.309 85.3045C143.309 82.093 142.385 78.9787 140.584 76.3997Z" fill="#DEB569"/>
<path d="M248.903 100.828C248.319 100.925 247.686 100.925 247.005 100.925C246.421 100.925 245.691 100.925 245.107 100.828H129.393C128.809 100.925 128.176 100.925 127.495 100.925C126.911 100.925 126.181 100.925 125.597 100.828V106.034H248.805L248.903 100.828Z" fill="#2C485F"/>
<path d="M248.854 111.144H125.646V122.968H248.854V111.144Z" fill="#2C485F"/>
<path d="M251.146 499.819L374.354 499.819L374.355 377L251.146 377L251.146 499.819Z" fill="#2C485F"/>
<path d="M251.146 488.092L374.354 488.092L374.354 482.885L251.146 482.885L251.146 488.092Z" fill="#F5F4F4"/>
<path d="M251.146 393.982L374.354 393.982L374.354 388.776L251.146 388.776L251.146 393.982Z" fill="#F5F4F4"/>
<path d="M370.607 477.678C362.676 476.754 356.691 470.087 356.691 462.058C356.691 458.944 357.615 455.83 359.416 453.251C356.009 453.932 352.506 454.37 349.002 454.37C335.183 454.37 322.093 448.579 312.653 438.458C303.359 448.579 290.123 454.37 276.304 454.37C272.8 454.37 269.297 453.981 265.89 453.251C267.691 455.83 268.615 458.944 268.615 462.058C268.615 469.99 262.63 476.656 254.698 477.678L370.607 477.678Z" fill="#F5F4F4"/>
<path d="M254.893 399.189C262.824 400.113 268.81 406.78 268.81 414.809C268.81 417.923 267.885 421.037 266.085 423.616C269.491 422.935 272.994 422.497 276.498 422.497C290.318 422.497 303.407 428.288 312.847 438.409C322.141 428.288 335.377 422.497 349.197 422.497C352.7 422.497 356.204 422.887 359.61 423.616C357.809 421.037 356.885 417.923 356.885 414.809C356.885 406.877 362.87 400.211 370.802 399.189L254.893 399.189Z" fill="#F5F4F4"/>
<path d="M272.215 427.85C268.323 428.628 265.208 431.548 264.186 435.344L254.795 435.344L254.795 424.833C259.32 423.714 262.483 419.626 262.483 415.004C262.483 409.408 257.958 404.882 252.265 404.882C251.875 404.882 251.486 404.882 251.048 404.98L251.048 472.033C251.437 472.033 251.827 472.131 252.265 472.131C257.861 472.131 262.483 467.605 262.483 462.009C262.483 457.289 259.272 453.299 254.795 452.18L254.795 441.669L264.186 441.669C265.208 445.465 268.274 448.385 272.215 449.163C272.605 449.163 273.14 449.163 273.529 449.163C284.429 449.163 295.037 445.368 303.553 438.458C295.037 431.548 284.429 427.753 273.529 427.753C273.043 427.753 272.605 427.85 272.215 427.85Z" fill="#F5F4F4"/>
<path d="M321.996 438.458C330.511 445.368 341.119 449.163 352.019 449.163C352.408 449.163 352.943 449.163 353.333 449.163C357.226 448.385 360.34 445.465 361.362 441.669L370.753 441.669L370.753 452.18C366.228 453.299 363.065 457.387 363.065 462.009C363.065 467.605 367.59 472.131 373.283 472.131C373.673 472.131 374.062 472.131 374.5 472.034L374.5 404.98C374.111 404.98 373.721 404.882 373.283 404.882C367.688 404.882 363.065 409.408 363.065 415.004C363.065 419.724 366.276 423.714 370.753 424.833L370.753 435.344L361.362 435.344C360.34 431.548 357.274 428.628 353.333 427.85C352.943 427.85 352.408 427.85 352.019 427.85C340.973 427.753 330.365 431.548 321.996 438.458Z" fill="white"/>
<path d="M251.098 482.885L374.306 482.885L374.306 477.678C373.722 477.775 373.089 477.775 372.408 477.775C371.824 477.775 371.094 477.775 370.51 477.678L254.796 477.678C254.212 477.775 253.579 477.775 252.898 477.775C252.314 477.775 251.584 477.775 251 477.678L251.098 482.885Z" fill="#2C485F"/>
<path d="M349.586 469.893L348.077 461.377C347.591 461.377 347.056 461.377 346.472 461.377C333.771 461.377 321.558 456.268 312.653 447.265C303.748 456.268 291.534 461.377 278.834 461.377C278.347 461.377 277.812 461.377 277.228 461.377L275.719 469.893C289.928 468.871 303.067 462.107 311.971 450.964L312.75 450.964L313.431 450.964C322.287 462.058 335.377 468.968 349.586 469.893Z" fill="#DEB569"/>
<path d="M302.142 468.19C303.359 468.773 304.624 469.211 306.035 469.211C308.614 469.211 311.145 467.995 312.75 465.805C314.356 467.898 316.838 469.211 319.466 469.211C320.877 469.211 322.191 468.919 323.358 468.19C317.276 464.491 313.334 458.068 312.75 451.061C312.167 458.068 308.176 464.491 302.142 468.19Z" fill="#9E5D31"/>
<path d="M312.75 425.807C313.334 418.702 317.276 412.376 323.358 408.678C322.142 408.094 320.877 407.656 319.466 407.656C316.887 407.656 314.356 408.873 312.75 411.063C311.145 408.97 308.663 407.656 306.035 407.656C304.624 407.656 303.31 407.948 302.142 408.678C308.176 412.425 312.167 418.8 312.75 425.807Z" fill="#9E5D31"/>
<path d="M312.75 429.65C321.655 420.648 333.869 415.539 346.569 415.539C347.056 415.539 347.591 415.539 348.175 415.539L349.684 407.023C335.475 408.045 322.336 414.809 313.432 425.952L312.75 425.952L312.069 425.952C303.164 414.858 290.026 408.045 275.817 407.023L277.326 415.539C277.812 415.539 278.348 415.539 278.931 415.539C291.534 415.539 303.748 420.6 312.75 429.65Z" fill="#DEB569"/>
<path d="M303.553 438.458C295.037 445.368 284.429 449.163 273.53 449.163C273.14 449.163 272.605 449.163 272.216 449.163C268.323 448.385 265.209 445.465 264.187 441.67L254.795 441.67L254.795 452.18C259.321 453.3 262.484 457.387 262.484 462.01C262.484 467.606 257.958 472.131 252.265 472.131C251.876 472.131 251.486 472.131 251.048 472.034L251.048 477.727L254.747 477.727C262.678 476.802 268.664 470.136 268.664 462.107C268.664 458.993 267.739 455.879 265.939 453.3C269.345 453.981 272.848 454.419 276.352 454.419C290.171 454.419 303.261 448.628 312.701 438.507C303.407 428.385 290.171 422.595 276.352 422.595C272.848 422.595 269.345 422.984 265.939 423.714C267.739 421.135 268.664 418.021 268.664 414.907C268.664 406.975 262.678 400.308 254.747 399.286L251.049 399.286L251.049 404.98C251.438 404.98 251.827 404.882 252.265 404.882C257.861 404.882 262.484 409.408 262.484 415.004C262.484 419.724 259.272 423.714 254.795 424.833L254.795 435.344L264.187 435.344C265.209 431.548 268.274 428.629 272.216 427.85C272.605 427.85 273.14 427.85 273.53 427.85C284.429 427.753 295.037 431.548 303.553 438.458Z" fill="#DEB569"/>
<path d="M359.416 423.617C356.009 422.936 352.506 422.498 349.002 422.498C335.183 422.498 322.093 428.288 312.653 438.41C321.947 448.531 335.183 454.322 349.002 454.322C352.506 454.322 356.009 453.932 359.416 453.202C357.615 455.781 356.691 458.896 356.691 462.01C356.691 469.942 362.676 476.608 370.607 477.63L374.306 477.63L374.306 471.937C373.916 471.937 373.527 472.034 373.089 472.034C367.493 472.034 362.87 467.509 362.87 461.913C362.87 457.193 366.082 453.202 370.559 452.083L370.559 441.573L361.167 441.573C360.145 445.368 357.08 448.288 353.138 449.066C352.749 449.066 352.214 449.066 351.825 449.066C340.925 449.066 330.317 445.271 321.801 438.361C330.317 431.451 340.925 427.656 351.825 427.656C352.214 427.656 352.749 427.656 353.138 427.656C357.031 428.434 360.145 431.354 361.167 435.149L370.559 435.149L370.559 424.639C366.033 423.52 362.87 419.432 362.87 414.809C362.87 409.213 367.396 404.688 373.089 404.688C373.478 404.688 373.868 404.688 374.306 404.785L374.306 399.092L370.607 399.092C362.676 400.017 356.691 406.683 356.691 414.712C356.691 417.924 357.615 421.038 359.416 423.617Z" fill="#DEB569"/>
<path d="M251.097 399.189C251.681 399.092 252.313 399.092 252.995 399.092C253.579 399.092 254.309 399.092 254.892 399.189L370.607 399.189C371.191 399.092 371.823 399.092 372.505 399.092C373.089 399.092 373.818 399.092 374.402 399.189L374.402 393.982L251.194 393.982L251.097 399.189Z" fill="#2C485F"/>
<path d="M251.146 388.873L374.354 388.873L374.354 377.049L251.146 377.049L251.146 388.873Z" fill="#2C485F"/>
<path d="M1.61568e-05 250.646L0 373.854L122.819 373.854L122.819 250.646L1.61568e-05 250.646Z" fill="#2C485F"/>
<path d="M11.7271 250.646L11.7271 373.854L16.9337 373.854L16.9337 250.646L11.7271 250.646Z" fill="#F5F4F4"/>
<path d="M105.836 250.646L105.836 373.854L111.043 373.854L111.043 250.646L105.836 250.646Z" fill="#F5F4F4"/>
<path d="M22.1406 370.107C23.0652 362.175 29.7317 356.19 37.7607 356.19C40.8749 356.19 43.9892 357.115 46.5682 358.915C45.8869 355.509 45.449 352.005 45.449 348.502C45.449 334.682 51.2396 321.593 61.3609 312.152C51.2396 302.858 45.449 289.623 45.449 275.803C45.449 272.3 45.8383 268.796 46.5682 265.39C43.9892 267.19 40.8749 268.115 37.7607 268.115C29.829 268.115 23.1625 262.13 22.1406 254.198L22.1406 370.107Z" fill="#F5F4F4"/>
<path d="M100.63 254.393C99.7054 262.324 93.0389 268.31 85.01 268.31C81.8957 268.31 78.7814 267.385 76.2024 265.585C76.8837 268.991 77.3216 272.494 77.3216 275.998C77.3216 289.818 71.531 302.907 61.4097 312.347C71.531 321.641 77.3216 334.877 77.3216 348.697C77.3216 352.2 76.9323 355.704 76.2024 359.11C78.7814 357.309 81.8957 356.385 85.01 356.385C92.9416 356.385 99.6081 362.37 100.63 370.302L100.63 254.393Z" fill="#F5F4F4"/>
<path d="M71.9689 271.716C71.1904 267.823 68.2707 264.709 64.4752 263.687L64.4752 254.295L74.9859 254.295C76.1051 258.821 80.1926 261.984 84.8153 261.984C90.4112 261.984 94.9367 257.458 94.9367 251.765C94.9367 251.376 94.9366 250.987 94.8393 250.549L27.7854 250.549C27.7854 250.938 27.688 251.327 27.688 251.765C27.688 257.361 32.2134 261.984 37.8094 261.984C42.5294 261.984 46.5196 258.772 47.6388 254.295L58.1494 254.295L58.1494 263.687C54.3539 264.709 51.4343 267.774 50.6557 271.716C50.6557 272.105 50.6557 272.64 50.6557 273.03C50.6557 283.93 54.4512 294.538 61.361 303.053C68.2708 294.538 72.0663 283.93 72.0663 273.03C72.0663 272.543 71.9689 272.105 71.9689 271.716Z" fill="#F5F4F4"/>
<path d="M61.361 321.496C54.4512 330.011 50.6557 340.619 50.6557 351.519C50.6557 351.908 50.6557 352.443 50.6557 352.833C51.4343 356.726 54.3539 359.84 58.1494 360.862L58.1494 370.253L47.6387 370.253C46.5196 365.728 42.4321 362.565 37.8094 362.565C32.2134 362.565 27.688 367.09 27.688 372.783C27.688 373.173 27.688 373.562 27.7853 374L94.8393 374C94.8393 373.611 94.9367 373.221 94.9367 372.783C94.9367 367.188 90.4112 362.565 84.8153 362.565C80.0952 362.565 76.1051 365.776 74.9859 370.253L64.4752 370.253L64.4752 360.862C68.2707 359.84 71.1904 356.774 71.9689 352.833C71.9689 352.443 71.9689 351.908 71.9689 351.519C72.0663 340.473 68.2708 329.865 61.361 321.496Z" fill="white"/>
<path d="M16.9341 250.598L16.9341 373.806L22.1407 373.806C22.0434 373.222 22.0434 372.589 22.0434 371.908C22.0434 371.324 22.0434 370.594 22.1407 370.01L22.1407 254.296C22.0434 253.712 22.0434 253.079 22.0434 252.398C22.0434 251.814 22.0434 251.084 22.1407 250.5L16.9341 250.598Z" fill="#2C485F"/>
<path d="M29.9263 349.086L38.4418 347.577C38.4418 347.091 38.4418 346.556 38.4418 345.972C38.4418 333.271 43.5512 321.058 52.5533 312.153C43.5512 303.248 38.4418 291.034 38.4418 278.334C38.4418 277.847 38.4418 277.312 38.4418 276.728L29.9263 275.219C30.9481 289.428 37.7119 302.567 48.8552 311.471L48.8552 312.25L48.8552 312.931C37.7606 321.787 30.8508 334.877 29.9263 349.086Z" fill="#DEB569"/>
<path d="M31.6293 301.642C31.0454 302.859 30.6074 304.124 30.6074 305.535C30.6074 308.114 31.8239 310.644 34.0136 312.25C31.9213 313.856 30.6074 316.337 30.6074 318.965C30.6074 320.376 30.8994 321.69 31.6293 322.858C35.3275 316.775 41.7507 312.834 48.7578 312.25C41.7507 311.666 35.3275 307.676 31.6293 301.642Z" fill="#9E5D31"/>
<path d="M74.0122 312.25C81.1166 312.834 87.4424 316.775 91.1406 322.858C91.7246 321.641 92.1625 320.376 92.1625 318.965C92.1625 316.386 90.946 313.856 88.7563 312.25C90.8487 310.644 92.1625 308.162 92.1625 305.535C92.1625 304.124 91.8705 302.81 91.1406 301.642C87.3938 307.676 81.0193 311.666 74.0122 312.25Z" fill="#9E5D31"/>
<path d="M70.1685 312.25C79.1706 321.155 84.28 333.369 84.28 346.069C84.28 346.555 84.28 347.091 84.28 347.675L92.7955 349.183C91.7737 334.974 85.0099 321.836 73.8666 312.931L73.8666 312.25L73.8666 311.569C84.9612 302.664 91.7737 289.526 92.7955 275.317L84.28 276.825C84.28 277.312 84.28 277.847 84.28 278.431C84.28 291.034 79.2193 303.248 70.1685 312.25Z" fill="#DEB569"/>
<path d="M61.3608 303.053C54.451 294.537 50.6555 283.929 50.6555 273.03C50.6555 272.64 50.6555 272.105 50.6555 271.716C51.434 267.823 54.3536 264.709 58.1491 263.687L58.1491 254.295L47.6385 254.295C46.5193 258.821 42.4319 261.984 37.8091 261.984C32.2132 261.984 27.6877 257.458 27.6877 251.765C27.6877 251.376 27.6878 250.986 27.7851 250.548L22.0918 250.548L22.0918 254.247C23.0164 262.178 29.6828 268.164 37.7118 268.164C40.826 268.164 43.9403 267.239 46.5193 265.439C45.8381 268.845 45.4001 272.348 45.4001 275.852C45.4001 289.671 51.1907 302.761 61.312 312.201C71.4334 302.907 77.224 289.671 77.224 275.852C77.224 272.348 76.8347 268.845 76.1048 265.439C78.6838 267.239 81.7981 268.164 84.9123 268.164C92.844 268.164 99.5105 262.178 100.532 254.247L100.532 250.549L94.8391 250.549C94.8391 250.938 94.9364 251.327 94.9364 251.765C94.9364 257.361 90.411 261.984 84.815 261.984C80.095 261.984 76.1049 258.772 74.9857 254.295L64.475 254.295L64.475 263.687C68.2705 264.709 71.1901 267.774 71.9687 271.716C71.9687 272.105 71.9687 272.64 71.9687 273.03C72.066 283.929 68.2705 294.537 61.3608 303.053Z" fill="#DEB569"/>
<path d="M76.202 358.916C76.8832 355.509 77.3211 352.006 77.3211 348.502C77.3211 334.683 71.5306 321.593 61.4092 312.153C51.2879 321.447 45.4972 334.683 45.4972 348.502C45.4972 352.006 45.8865 355.509 46.6165 358.916C44.0375 357.115 40.9232 356.191 37.8089 356.191C29.8773 356.191 23.2108 362.176 22.189 370.107L22.189 373.806L27.8822 373.806C27.8822 373.416 27.7849 373.027 27.7849 372.589C27.7849 366.993 32.3103 362.37 37.9062 362.37C42.6263 362.37 46.6165 365.582 47.7357 370.059L58.2463 370.059L58.2463 360.667C54.4508 359.645 51.5311 356.58 50.7526 352.638C50.7526 352.249 50.7526 351.714 50.7526 351.325C50.7526 340.425 54.5481 329.817 61.4579 321.301C68.3676 329.817 72.1631 340.425 72.1631 351.325C72.1631 351.714 72.1631 352.249 72.1631 352.638C71.3846 356.531 68.4649 359.646 64.6694 360.667L64.6694 370.059L75.1801 370.059C76.2993 365.533 80.3868 362.37 85.0095 362.37C90.6054 362.37 95.1308 366.896 95.1308 372.589C95.1308 372.978 95.1308 373.368 95.0335 373.806L100.727 373.806L100.727 370.107C99.8022 362.176 93.1358 356.191 85.1068 356.191C81.8952 356.191 78.781 357.115 76.202 358.916Z" fill="#DEB569"/>
<path d="M100.63 250.597C100.727 251.181 100.727 251.814 100.727 252.495C100.727 253.079 100.727 253.809 100.63 254.393L100.63 370.107C100.727 370.691 100.727 371.324 100.727 372.005C100.727 372.589 100.727 373.319 100.63 373.903L105.837 373.903L105.837 250.695L100.63 250.597Z" fill="#2C485F"/>
<path d="M110.946 250.646L110.946 373.854L122.77 373.854L122.77 250.646L110.946 250.646Z" fill="#2C485F"/>
<path d="M377 250.646L377 373.854L499.819 373.854L499.819 250.646L377 250.646Z" fill="#2C485F"/>
<path d="M388.728 250.646L388.728 373.854L393.934 373.854L393.934 250.646L388.728 250.646Z" fill="#F5F4F4"/>
<path d="M482.836 250.646L482.836 373.854L488.043 373.854L488.043 250.646L482.836 250.646Z" fill="#F5F4F4"/>
<path d="M399.141 370.107C400.065 362.175 406.732 356.19 414.761 356.19C417.875 356.19 420.989 357.115 423.568 358.915C422.887 355.509 422.449 352.005 422.449 348.502C422.449 334.682 428.24 321.593 438.361 312.152C428.24 302.858 422.449 289.623 422.449 275.803C422.449 272.3 422.838 268.796 423.568 265.39C420.989 267.19 417.875 268.115 414.761 268.115C406.829 268.115 400.163 262.13 399.141 254.198L399.141 370.107Z" fill="#F5F4F4"/>
<path d="M477.629 254.393C476.705 262.324 470.038 268.31 462.009 268.31C458.895 268.31 455.781 267.385 453.202 265.585C453.883 268.991 454.321 272.494 454.321 275.998C454.321 289.818 448.531 302.907 438.409 312.347C448.531 321.641 454.321 334.877 454.321 348.697C454.321 352.2 453.932 355.704 453.202 359.11C455.781 357.309 458.895 356.385 462.009 356.385C469.941 356.385 476.608 362.37 477.629 370.302L477.629 254.393Z" fill="#F5F4F4"/>
<path d="M448.968 271.716C448.19 267.823 445.27 264.709 441.475 263.687L441.475 254.295L451.985 254.295C453.105 258.821 457.192 261.984 461.815 261.984C467.411 261.984 471.936 257.458 471.936 251.765C471.936 251.376 471.936 250.987 471.839 250.549L404.785 250.549C404.785 250.938 404.688 251.327 404.688 251.765C404.688 257.361 409.213 261.984 414.809 261.984C419.529 261.984 423.519 258.772 424.638 254.295L435.149 254.295L435.149 263.687C431.353 264.709 428.434 267.774 427.655 271.716C427.655 272.105 427.655 272.64 427.655 273.03C427.655 283.93 431.451 294.538 438.361 303.053C445.27 294.538 449.066 283.93 449.066 273.03C449.066 272.543 448.968 272.105 448.968 271.716Z" fill="#F5F4F4"/>
<path d="M438.361 321.496C431.451 330.011 427.655 340.619 427.655 351.519C427.655 351.908 427.655 352.443 427.655 352.833C428.434 356.726 431.353 359.84 435.149 360.862L435.149 370.253L424.638 370.253C423.519 365.728 419.432 362.565 414.809 362.565C409.213 362.565 404.688 367.09 404.688 372.783C404.688 373.173 404.688 373.562 404.785 374L471.839 374C471.839 373.611 471.936 373.221 471.936 372.783C471.936 367.188 467.411 362.565 461.815 362.565C457.095 362.565 453.105 365.776 451.985 370.253L441.475 370.253L441.475 360.862C445.27 359.84 448.19 356.774 448.968 352.833C448.968 352.443 448.968 351.908 448.968 351.519C449.066 340.473 445.27 329.865 438.361 321.496Z" fill="white"/>
<path d="M393.934 250.598L393.934 373.806L399.14 373.806C399.043 373.222 399.043 372.589 399.043 371.908C399.043 371.324 399.043 370.594 399.14 370.01L399.14 254.296C399.043 253.712 399.043 253.079 399.043 252.398C399.043 251.814 399.043 251.084 399.14 250.5L393.934 250.598Z" fill="#2C485F"/>
<path d="M406.926 349.086L415.441 347.577C415.441 347.091 415.441 346.556 415.441 345.972C415.441 333.271 420.551 321.058 429.553 312.153C420.551 303.248 415.441 291.034 415.441 278.334C415.441 277.847 415.441 277.312 415.441 276.728L406.926 275.219C407.948 289.428 414.711 302.567 425.855 311.471L425.855 312.25L425.855 312.931C414.76 321.787 407.85 334.877 406.926 349.086Z" fill="#DEB569"/>
<path d="M408.629 301.642C408.045 302.859 407.607 304.124 407.607 305.535C407.607 308.114 408.824 310.644 411.014 312.25C408.921 313.856 407.607 316.337 407.607 318.965C407.607 320.376 407.899 321.69 408.629 322.858C412.327 316.775 418.751 312.834 425.758 312.25C418.751 311.666 412.327 307.676 408.629 301.642Z" fill="#9E5D31"/>
<path d="M451.013 312.25C458.117 312.834 464.443 316.775 468.141 322.858C468.725 321.641 469.163 320.376 469.163 318.965C469.163 316.386 467.946 313.856 465.757 312.25C467.849 310.644 469.163 308.162 469.163 305.535C469.163 304.124 468.871 302.81 468.141 301.642C464.394 307.676 458.02 311.666 451.013 312.25Z" fill="#9E5D31"/>
<path d="M447.168 312.25C456.17 321.155 461.279 333.369 461.279 346.069C461.279 346.555 461.279 347.091 461.279 347.675L469.795 349.183C468.773 334.974 462.009 321.836 450.866 312.931L450.866 312.25L450.866 311.569C461.961 302.664 468.773 289.526 469.795 275.317L461.279 276.825C461.279 277.312 461.279 277.847 461.279 278.431C461.279 291.034 456.219 303.248 447.168 312.25Z" fill="#DEB569"/>
<path d="M438.361 303.053C431.451 294.537 427.655 283.929 427.655 273.03C427.655 272.64 427.655 272.105 427.655 271.716C428.434 267.823 431.354 264.709 435.149 263.687L435.149 254.295L424.639 254.295C423.519 258.821 419.432 261.984 414.809 261.984C409.213 261.984 404.688 257.458 404.688 251.765C404.688 251.376 404.688 250.986 404.785 250.548L399.092 250.548L399.092 254.247C400.016 262.178 406.683 268.164 414.712 268.164C417.826 268.164 420.94 267.239 423.519 265.439C422.838 268.845 422.4 272.348 422.4 275.852C422.4 289.671 428.191 302.761 438.312 312.201C448.433 302.907 454.224 289.671 454.224 275.852C454.224 272.348 453.835 268.845 453.105 265.439C455.684 267.239 458.798 268.164 461.912 268.164C469.844 268.164 476.51 262.178 477.532 254.247L477.532 250.549L471.839 250.549C471.839 250.938 471.936 251.327 471.936 251.765C471.936 257.361 467.411 261.984 461.815 261.984C457.095 261.984 453.105 258.772 451.986 254.295L441.475 254.295L441.475 263.687C445.27 264.709 448.19 267.774 448.969 271.716C448.969 272.105 448.969 272.64 448.969 273.03C449.066 283.929 445.271 294.537 438.361 303.053Z" fill="#DEB569"/>
<path d="M453.202 358.916C453.884 355.509 454.322 352.006 454.322 348.502C454.322 334.683 448.531 321.593 438.41 312.153C428.288 321.447 422.498 334.683 422.498 348.502C422.498 352.006 422.887 355.509 423.617 358.916C421.038 357.115 417.924 356.191 414.809 356.191C406.878 356.191 400.211 362.176 399.189 370.107L399.189 373.806L404.883 373.806C404.883 373.416 404.785 373.027 404.785 372.589C404.785 366.993 409.311 362.37 414.907 362.37C419.627 362.37 423.617 365.582 424.736 370.059L435.247 370.059L435.247 360.667C431.451 359.645 428.532 356.58 427.753 352.638C427.753 352.249 427.753 351.714 427.753 351.325C427.753 340.425 431.549 329.817 438.458 321.301C445.368 329.817 449.164 340.425 449.164 351.325C449.164 351.714 449.164 352.249 449.164 352.638C448.385 356.531 445.465 359.646 441.67 360.667L441.67 370.059L452.181 370.059C453.3 365.533 457.387 362.37 462.01 362.37C467.606 362.37 472.131 366.896 472.131 372.589C472.131 372.978 472.131 373.368 472.034 373.806L477.727 373.806L477.727 370.107C476.803 362.176 470.136 356.191 462.107 356.191C458.896 356.191 455.781 357.115 453.202 358.916Z" fill="#DEB569"/>
<path d="M477.63 250.597C477.727 251.181 477.727 251.814 477.727 252.495C477.727 253.079 477.727 253.809 477.63 254.393L477.63 370.107C477.727 370.691 477.727 371.324 477.727 372.005C477.727 372.589 477.727 373.319 477.63 373.903L482.837 373.903L482.837 250.695L477.63 250.597Z" fill="#2C485F"/>
<path d="M487.945 250.646L487.945 373.854L499.77 373.854L499.77 250.646L487.945 250.646Z" fill="#2C485F"/>
<path d="M251.146 0.197754H374.354V123.017H251.146V0.197754Z" fill="#2C485F"/>
<path d="M251.146 11.9248H374.354V17.1314H251.146V11.9248Z" fill="#F5F4F4"/>
<path d="M251.146 106.034H374.354V111.241H251.146V106.034Z" fill="#F5F4F4"/>
<path d="M370.607 22.3384C362.676 23.2629 356.691 29.9294 356.691 37.9584C356.691 41.0727 357.615 44.1869 359.416 46.7659C356.009 46.0847 352.506 45.6467 349.002 45.6467C335.183 45.6467 322.093 51.4373 312.653 61.5587C303.359 51.4373 290.123 45.6467 276.304 45.6467C272.8 45.6467 269.297 46.036 265.89 46.7659C267.691 44.1869 268.615 41.0727 268.615 37.9584C268.615 30.0268 262.63 23.3602 254.698 22.3384H370.607Z" fill="#F5F4F4"/>
<path d="M254.893 100.828C262.824 99.9031 268.81 93.2367 268.81 85.2077C268.81 82.0934 267.885 78.9792 266.085 76.4002C269.491 77.0814 272.994 77.5193 276.498 77.5193C290.318 77.5193 303.407 71.7288 312.847 61.6074C322.141 71.7288 335.377 77.5193 349.197 77.5193C352.7 77.5193 356.204 77.1301 359.61 76.4002C357.809 78.9792 356.885 82.0934 356.885 85.2077C356.885 93.1393 362.87 99.8058 370.802 100.828H254.893Z" fill="#F5F4F4"/>
<path d="M272.215 72.1667C268.323 71.3881 265.208 68.4685 264.186 64.673H254.795V75.1837C259.32 76.3029 262.483 80.3903 262.483 85.013C262.483 90.609 257.958 95.1344 252.265 95.1344C251.875 95.1344 251.486 95.1344 251.048 95.0371V27.9831C251.437 27.9831 251.827 27.8857 252.265 27.8857C257.861 27.8857 262.483 32.4112 262.483 38.0071C262.483 42.7272 259.272 46.7173 254.795 47.8365V58.3471H264.186C265.208 54.5516 268.274 51.632 272.215 50.8535C272.605 50.8535 273.14 50.8535 273.529 50.8535C284.429 50.8535 295.037 54.649 303.553 61.5588C295.037 68.4685 284.429 72.264 273.529 72.264C273.043 72.264 272.605 72.1667 272.215 72.1667Z" fill="#F5F4F4"/>
<path d="M321.996 61.5588C330.511 54.649 341.119 50.8535 352.019 50.8535C352.408 50.8535 352.943 50.8535 353.333 50.8535C357.226 51.632 360.34 54.5516 361.362 58.3471H370.753V47.8365C366.228 46.7173 363.065 42.6299 363.065 38.0071C363.065 32.4112 367.59 27.8857 373.283 27.8857C373.673 27.8857 374.062 27.8858 374.5 27.9831V95.0371C374.111 95.0371 373.721 95.1344 373.283 95.1344C367.688 95.1344 363.065 90.609 363.065 85.013C363.065 80.293 366.276 76.3029 370.753 75.1837V64.673H361.362C360.34 68.4685 357.274 71.3881 353.333 72.1667C352.943 72.1667 352.408 72.1667 352.019 72.1667C340.973 72.264 330.365 68.4685 321.996 61.5588Z" fill="white"/>
<path d="M251.098 17.1318H374.306V22.3385C373.722 22.2412 373.089 22.2412 372.408 22.2412C371.824 22.2412 371.094 22.2412 370.51 22.3385H254.796C254.212 22.2412 253.579 22.2412 252.898 22.2412C252.314 22.2412 251.584 22.2412 251 22.3385L251.098 17.1318Z" fill="#2C485F"/>
<path d="M349.586 30.124L348.077 38.6396C347.591 38.6396 347.056 38.6396 346.472 38.6396C333.771 38.6396 321.558 43.7489 312.653 52.7511C303.748 43.7489 291.534 38.6396 278.834 38.6396C278.347 38.6396 277.812 38.6396 277.228 38.6396L275.719 30.124C289.928 31.1459 303.067 37.9097 311.971 49.0529H312.75H313.431C322.287 37.9584 335.377 31.0486 349.586 30.124Z" fill="#DEB569"/>
<path d="M302.142 31.827C303.359 31.2431 304.624 30.8052 306.035 30.8052C308.614 30.8052 311.145 32.0217 312.75 34.2114C314.356 32.119 316.838 30.8052 319.466 30.8052C320.877 30.8052 322.191 31.0971 323.358 31.827C317.276 35.5252 313.334 41.9484 312.75 48.9555C312.167 41.9484 308.176 35.5252 302.142 31.827Z" fill="#9E5D31"/>
<path d="M312.75 74.21C313.334 81.3144 317.276 87.6402 323.358 91.3384C322.142 91.9223 320.877 92.3602 319.466 92.3602C316.887 92.3602 314.356 91.1437 312.75 88.954C311.145 91.0464 308.663 92.3602 306.035 92.3602C304.624 92.3602 303.31 92.0683 302.142 91.3384C308.176 87.5915 312.167 81.2171 312.75 74.21Z" fill="#9E5D31"/>
<path d="M312.75 70.3662C321.655 79.3684 333.869 84.4777 346.569 84.4777C347.056 84.4777 347.591 84.4777 348.175 84.4777L349.684 92.9933C335.475 91.9714 322.336 85.2076 313.432 74.0644H312.75H312.069C303.164 85.159 290.026 91.9714 275.817 92.9933L277.326 84.4777C277.812 84.4777 278.348 84.4777 278.931 84.4777C291.534 84.4777 303.748 79.417 312.75 70.3662Z" fill="#DEB569"/>
<path d="M303.553 61.5585C295.037 54.6487 284.429 50.8532 273.53 50.8532C273.14 50.8532 272.605 50.8532 272.216 50.8532C268.323 51.6318 265.209 54.5514 264.187 58.3469H254.795V47.8362C259.321 46.7171 262.484 42.6296 262.484 38.0069C262.484 32.4109 257.958 27.8855 252.265 27.8855C251.876 27.8855 251.486 27.8855 251.048 27.9829V22.2896H254.747C262.678 23.2141 268.664 29.8806 268.664 37.9095C268.664 41.0238 267.739 44.1381 265.939 46.7171C269.345 46.0358 272.848 45.5979 276.352 45.5979C290.171 45.5979 303.261 51.3884 312.701 61.5098C303.407 71.6312 290.171 77.4218 276.352 77.4218C272.848 77.4218 269.345 77.0325 265.939 76.3026C267.739 78.8816 268.664 81.9958 268.664 85.1101C268.664 93.0417 262.678 99.7082 254.747 100.73H251.048V95.0368C251.438 95.0368 251.827 95.1342 252.265 95.1342C257.861 95.1342 262.484 90.6087 262.484 85.0128C262.484 80.2927 259.272 76.3026 254.795 75.1834V64.6727H264.187C265.209 68.4682 268.274 71.3879 272.216 72.1664C272.605 72.1664 273.14 72.1664 273.53 72.1664C284.429 72.2638 295.037 68.4683 303.553 61.5585Z" fill="#DEB569"/>
<path d="M359.416 76.3997C356.009 77.081 352.506 77.5189 349.002 77.5189C335.183 77.5189 322.093 71.7283 312.653 61.607C321.947 51.4856 335.183 45.695 349.002 45.695C352.506 45.695 356.009 46.0843 359.416 46.8142C357.615 44.2352 356.691 41.121 356.691 38.0067C356.691 30.075 362.676 23.4086 370.607 22.3867H374.306V28.08C373.916 28.08 373.527 27.9827 373.089 27.9827C367.493 27.9827 362.87 32.508 362.87 38.104C362.87 42.824 366.082 46.8142 370.559 47.9334V58.444H361.167C360.145 54.6485 357.08 51.7289 353.138 50.9503C352.749 50.9503 352.214 50.9503 351.825 50.9503C340.925 50.9503 330.317 54.7458 321.801 61.6556C330.317 68.5654 340.925 72.3609 351.825 72.3609C352.214 72.3609 352.749 72.3609 353.138 72.3609C357.031 71.5823 360.145 68.6627 361.167 64.8672H370.559V75.3778C366.033 76.497 362.87 80.5845 362.87 85.2072C362.87 90.8032 367.396 95.3286 373.089 95.3286C373.478 95.3286 373.868 95.3286 374.306 95.2313V100.925H370.607C362.676 100 356.691 93.3335 356.691 85.3045C356.691 82.093 357.615 78.9787 359.416 76.3997Z" fill="#DEB569"/>
<path d="M251.097 100.828C251.681 100.925 252.313 100.925 252.995 100.925C253.579 100.925 254.309 100.925 254.892 100.828H370.607C371.191 100.925 371.823 100.925 372.505 100.925C373.089 100.925 373.818 100.925 374.402 100.828V106.034H251.194L251.097 100.828Z" fill="#2C485F"/>
<path d="M251.146 111.144H374.354V122.968H251.146V111.144Z" fill="#2C485F"/>
<path d="M248.854 499.819L125.646 499.819L125.646 377L248.854 377L248.854 499.819Z" fill="#2C485F"/>
<path d="M248.854 488.092L125.646 488.092L125.646 482.885L248.854 482.885L248.854 488.092Z" fill="#F5F4F4"/>
<path d="M248.854 393.982L125.646 393.982L125.646 388.776L248.854 388.776L248.854 393.982Z" fill="#F5F4F4"/>
<path d="M129.393 477.678C137.325 476.754 143.31 470.087 143.31 462.058C143.31 458.944 142.385 455.83 140.585 453.251C143.991 453.932 147.495 454.37 150.998 454.37C164.818 454.37 177.907 448.579 187.348 438.458C196.642 448.579 209.877 454.37 223.697 454.37C227.2 454.37 230.704 453.981 234.11 453.251C232.31 455.83 231.385 458.944 231.385 462.058C231.385 469.99 237.37 476.656 245.302 477.678L129.393 477.678Z" fill="#F5F4F4"/>
<path d="M245.107 399.189C237.176 400.113 231.19 406.78 231.19 414.809C231.19 417.923 232.115 421.037 233.915 423.616C230.509 422.935 227.006 422.497 223.502 422.497C209.682 422.497 196.593 428.288 187.153 438.409C177.859 428.288 164.623 422.497 150.803 422.497C147.3 422.497 143.796 422.887 140.39 423.616C142.191 421.037 143.115 417.923 143.115 414.809C143.115 406.877 137.13 400.211 129.198 399.189L245.107 399.189Z" fill="#F5F4F4"/>
<path d="M227.784 427.85C231.677 428.628 234.791 431.548 235.813 435.344L245.205 435.344L245.205 424.833C240.679 423.714 237.516 419.626 237.516 415.004C237.516 409.408 242.042 404.882 247.735 404.882C248.124 404.882 248.513 404.882 248.951 404.98L248.951 472.034C248.562 472.034 248.173 472.131 247.735 472.131C242.139 472.131 237.516 467.605 237.516 462.009C237.516 457.289 240.728 453.299 245.205 452.18L245.205 441.669L235.813 441.669C234.791 445.465 231.726 448.385 227.784 449.163C227.395 449.163 226.86 449.163 226.47 449.163C215.57 449.163 204.962 445.368 196.447 438.458C204.962 431.548 215.57 427.753 226.47 427.753C226.957 427.753 227.395 427.85 227.784 427.85Z" fill="#F5F4F4"/>
<path d="M178.005 438.458C169.489 445.368 158.881 449.163 147.981 449.163C147.592 449.163 147.057 449.163 146.667 449.163C142.774 448.385 139.66 445.465 138.638 441.669L129.247 441.669L129.247 452.18C133.772 453.299 136.935 457.387 136.935 462.009C136.935 467.605 132.41 472.131 126.717 472.131C126.327 472.131 125.938 472.131 125.5 472.034L125.5 404.98C125.889 404.98 126.279 404.882 126.717 404.882C132.312 404.882 136.935 409.408 136.935 415.004C136.935 419.724 133.724 423.714 129.247 424.833L129.247 435.344L138.638 435.344C139.66 431.548 142.726 428.628 146.667 427.85C147.057 427.85 147.592 427.85 147.981 427.85C159.027 427.753 169.635 431.548 178.005 438.458Z" fill="white"/>
<path d="M248.902 482.885L125.694 482.885L125.694 477.678C126.278 477.775 126.911 477.775 127.592 477.775C128.176 477.775 128.906 477.775 129.49 477.678L245.204 477.678C245.788 477.775 246.421 477.775 247.102 477.775C247.686 477.775 248.416 477.775 249 477.678L248.902 482.885Z" fill="#2C485F"/>
<path d="M150.414 469.893L151.923 461.377C152.409 461.377 152.944 461.377 153.528 461.377C166.229 461.377 178.442 456.268 187.347 447.266C196.252 456.268 208.466 461.377 221.166 461.377C221.653 461.377 222.188 461.377 222.772 461.377L224.281 469.893C210.072 468.871 196.933 462.107 188.029 450.964L187.25 450.964L186.569 450.964C177.713 462.058 164.623 468.968 150.414 469.893Z" fill="#DEB569"/>
<path d="M197.858 468.19C196.641 468.773 195.376 469.211 193.965 469.211C191.386 469.211 188.856 467.995 187.25 465.805C185.644 467.898 183.163 469.211 180.535 469.211C179.124 469.211 177.81 468.919 176.642 468.19C182.725 464.491 186.666 458.068 187.25 451.061C187.834 458.068 191.824 464.491 197.858 468.19Z" fill="#9E5D31"/>
<path d="M187.25 425.807C186.666 418.702 182.725 412.376 176.642 408.678C177.859 408.094 179.124 407.656 180.535 407.656C183.114 407.656 185.644 408.873 187.25 411.063C188.856 408.97 191.338 407.656 193.965 407.656C195.376 407.656 196.69 407.948 197.858 408.678C191.824 412.425 187.834 418.8 187.25 425.807Z" fill="#9E5D31"/>
<path d="M187.25 429.65C178.345 420.648 166.131 415.539 153.431 415.539C152.945 415.539 152.409 415.539 151.825 415.539L150.317 407.023C164.526 408.045 177.664 414.809 186.569 425.952L187.25 425.952L187.931 425.952C196.836 414.858 209.974 408.045 224.183 407.023L222.675 415.539C222.188 415.539 221.653 415.539 221.069 415.539C208.466 415.539 196.252 420.6 187.25 429.65Z" fill="#DEB569"/>
<path d="M196.447 438.458C204.963 445.368 215.571 449.163 226.47 449.163C226.86 449.163 227.395 449.163 227.784 449.163C231.677 448.385 234.791 445.465 235.813 441.67L245.205 441.67L245.205 452.18C240.679 453.3 237.516 457.387 237.516 462.01C237.516 467.606 242.042 472.131 247.735 472.131C248.124 472.131 248.514 472.131 248.952 472.034L248.952 477.727L245.253 477.727C237.322 476.803 231.336 470.136 231.336 462.107C231.336 458.993 232.261 455.879 234.061 453.3C230.655 453.981 227.152 454.419 223.648 454.419C209.829 454.419 196.739 448.628 187.299 438.507C196.593 428.385 209.829 422.595 223.648 422.595C227.152 422.595 230.655 422.984 234.061 423.714C232.261 421.135 231.336 418.021 231.336 414.907C231.336 406.975 237.322 400.308 245.253 399.286L248.952 399.286L248.952 404.98C248.562 404.98 248.173 404.882 247.735 404.882C242.139 404.882 237.516 409.408 237.516 415.004C237.516 419.724 240.728 423.714 245.205 424.833L245.205 435.344L235.813 435.344C234.791 431.548 231.726 428.629 227.784 427.85C227.395 427.85 226.86 427.85 226.47 427.85C215.571 427.753 204.963 431.548 196.447 438.458Z" fill="#DEB569"/>
<path d="M140.584 423.617C143.991 422.936 147.494 422.498 150.998 422.498C164.817 422.498 177.907 428.288 187.347 438.41C178.053 448.531 164.817 454.322 150.998 454.322C147.494 454.322 143.991 453.932 140.584 453.202C142.385 455.781 143.309 458.896 143.309 462.01C143.309 469.942 137.324 476.608 129.393 477.63L125.694 477.63L125.694 471.937C126.084 471.937 126.473 472.034 126.911 472.034C132.507 472.034 137.13 467.509 137.13 461.913C137.13 457.193 133.918 453.202 129.441 452.083L129.441 441.573L138.833 441.573C139.855 445.368 142.92 448.288 146.862 449.066C147.251 449.066 147.786 449.066 148.175 449.066C159.075 449.066 169.683 445.271 178.199 438.361C169.683 431.451 159.075 427.656 148.175 427.656C147.786 427.656 147.251 427.656 146.862 427.656C142.969 428.434 139.855 431.354 138.833 435.149L129.441 435.149L129.441 424.639C133.967 423.52 137.13 419.432 137.13 414.809C137.13 409.213 132.604 404.688 126.911 404.688C126.522 404.688 126.132 404.688 125.694 404.785L125.694 399.092L129.393 399.092C137.324 400.017 143.309 406.683 143.309 414.712C143.309 417.924 142.385 421.038 140.584 423.617Z" fill="#DEB569"/>
<path d="M248.903 399.189C248.319 399.092 247.686 399.092 247.005 399.092C246.421 399.092 245.691 399.092 245.107 399.189L129.393 399.189C128.809 399.092 128.176 399.092 127.495 399.092C126.911 399.092 126.181 399.092 125.597 399.189L125.597 393.982L248.805 393.982L248.903 399.189Z" fill="#2C485F"/>
<path d="M248.854 388.873L125.646 388.873L125.646 377.049L248.854 377.049L248.854 388.873Z" fill="#2C485F"/>
<path d="M0.000472124 248.354L0.000488281 125.146L122.819 125.146L122.819 248.354L0.000472124 248.354Z" fill="#2C485F"/>
<path d="M11.7275 248.354L11.7275 125.146L16.9342 125.146L16.9342 248.354L11.7275 248.354Z" fill="#F5F4F4"/>
<path d="M105.837 248.354L105.837 125.146L111.044 125.146L111.044 248.354L105.837 248.354Z" fill="#F5F4F4"/>
<path d="M22.1411 128.893C23.0657 136.825 29.7322 142.81 37.7611 142.81C40.8754 142.81 43.9897 141.885 46.5687 140.085C45.8874 143.491 45.4494 146.995 45.4494 150.498C45.4494 164.318 51.2401 177.407 61.3614 186.848C51.2401 196.142 45.4494 209.377 45.4494 223.197C45.4494 226.7 45.8387 230.204 46.5686 233.61C43.9896 231.81 40.8754 230.885 37.7611 230.885C29.8295 230.885 23.163 236.87 22.1411 244.802L22.1411 128.893Z" fill="#F5F4F4"/>
<path d="M100.63 244.607C99.7058 236.676 93.0394 230.69 85.0104 230.69C81.8962 230.69 78.7819 231.615 76.2029 233.415C76.8842 230.009 77.3221 226.506 77.3221 223.002C77.3221 209.182 71.5315 196.093 61.4101 186.653C71.5315 177.359 77.3221 164.123 77.3221 150.303C77.3221 146.8 76.9328 143.296 76.2029 139.89C78.7819 141.691 81.8962 142.615 85.0104 142.615C92.9421 142.615 99.6085 136.63 100.63 128.698L100.63 244.607Z" fill="#F5F4F4"/>
<path d="M71.9694 227.284C71.1909 231.177 68.2712 234.291 64.4757 235.313L64.4757 244.705L74.9864 244.705C76.1056 240.179 80.193 237.016 84.8158 237.016C90.4117 237.016 94.9372 241.542 94.9372 247.235C94.9372 247.624 94.9371 248.013 94.8398 248.451L27.7858 248.451C27.7858 248.062 27.6885 247.673 27.6885 247.235C27.6885 241.639 32.2139 237.016 37.8099 237.016C42.5299 237.016 46.52 240.228 47.6392 244.705L58.1499 244.705L58.1499 235.313C54.3543 234.291 51.4348 231.226 50.6562 227.284C50.6562 226.895 50.6562 226.36 50.6562 225.97C50.6562 215.07 54.4517 204.462 61.3615 195.947C68.2713 204.462 72.0668 215.07 72.0668 225.97C72.0668 226.457 71.9694 226.895 71.9694 227.284Z" fill="#F5F4F4"/>
<path d="M61.3615 177.505C54.4517 168.989 50.6562 158.381 50.6562 147.481C50.6562 147.092 50.6562 146.557 50.6562 146.167C51.4348 142.274 54.3544 139.16 58.1499 138.138L58.1499 128.747L47.6392 128.747C46.52 133.272 42.4326 136.435 37.8099 136.435C32.2139 136.435 27.6885 131.91 27.6885 126.217C27.6885 125.827 27.6885 125.438 27.7858 125L94.8398 125C94.8398 125.389 94.9372 125.779 94.9372 126.217C94.9372 131.812 90.4117 136.435 84.8158 136.435C80.0957 136.435 76.1056 133.224 74.9864 128.747L64.4757 128.747L64.4757 138.138C68.2712 139.16 71.1909 142.226 71.9694 146.167C71.9694 146.557 71.9694 147.092 71.9694 147.481C72.0667 158.527 68.2713 169.135 61.3615 177.505Z" fill="white"/>
<path d="M16.9346 248.402L16.9346 125.194L22.1412 125.194C22.0439 125.778 22.0439 126.411 22.0439 127.092C22.0439 127.676 22.0439 128.406 22.1412 128.99L22.1412 244.704C22.0439 245.288 22.0439 245.921 22.0439 246.602C22.0439 247.186 22.0439 247.916 22.1412 248.5L16.9346 248.402Z" fill="#2C485F"/>
<path d="M29.9268 149.914L38.4423 151.423C38.4423 151.909 38.4423 152.444 38.4423 153.028C38.4423 165.729 43.5517 177.942 52.5538 186.847C43.5517 195.752 38.4423 207.966 38.4423 220.666C38.4423 221.153 38.4423 221.688 38.4423 222.272L29.9267 223.781C30.9486 209.572 37.7124 196.433 48.8557 187.529L48.8557 186.75L48.8557 186.069C37.7611 177.213 30.8513 164.123 29.9268 149.914Z" fill="#DEB569"/>
<path d="M31.6298 197.358C31.0458 196.141 30.6079 194.876 30.6079 193.465C30.6079 190.886 31.8244 188.356 34.0141 186.75C31.9217 185.144 30.6079 182.663 30.6079 180.035C30.6079 178.624 30.8999 177.31 31.6298 176.142C35.328 182.225 41.7512 186.166 48.7583 186.75C41.7512 187.334 35.328 191.324 31.6298 197.358Z" fill="#9E5D31"/>
<path d="M74.0127 186.75C81.1171 186.166 87.4429 182.225 91.1411 176.142C91.725 177.359 92.163 178.624 92.163 180.035C92.163 182.614 90.9465 185.144 88.7568 186.75C90.8491 188.356 92.163 190.838 92.163 193.465C92.163 194.876 91.871 196.19 91.1411 197.358C87.3943 191.324 81.0198 187.334 74.0127 186.75Z" fill="#9E5D31"/>
<path d="M70.1689 186.75C79.1711 177.845 84.2805 165.631 84.2805 152.931C84.2805 152.445 84.2805 151.909 84.2805 151.325L92.796 149.817C91.7742 164.026 85.0103 177.164 73.8671 186.069L73.8671 186.75L73.8671 187.431C84.9617 196.336 91.7741 209.474 92.796 223.683L84.2804 222.175C84.2804 221.688 84.2804 221.153 84.2804 220.569C84.2804 207.966 79.2198 195.752 70.1689 186.75Z" fill="#DEB569"/>
<path d="M61.3612 195.947C54.4515 204.463 50.656 215.071 50.656 225.97C50.656 226.36 50.656 226.895 50.656 227.284C51.4345 231.177 54.3541 234.291 58.1496 235.313L58.1496 244.705L47.639 244.705C46.5198 240.179 42.4323 237.016 37.8096 237.016C32.2137 237.016 27.6882 241.542 27.6882 247.235C27.6882 247.624 27.6883 248.014 27.7856 248.452L22.0923 248.452L22.0923 244.753C23.0168 236.822 29.6833 230.836 37.7122 230.836C40.8265 230.836 43.9408 231.761 46.5198 233.561C45.8386 230.155 45.4006 226.652 45.4006 223.148C45.4006 209.329 51.1912 196.239 61.3125 186.799C71.4339 196.093 77.2245 209.329 77.2245 223.148C77.2245 226.652 76.8352 230.155 76.1053 233.561C78.6843 231.761 81.7985 230.836 84.9128 230.836C92.8445 230.836 99.511 236.822 100.533 244.753L100.533 248.452L94.8395 248.452C94.8395 248.062 94.9369 247.673 94.9369 247.235C94.9369 241.639 90.4115 237.016 84.8155 237.016C80.0955 237.016 76.1053 240.228 74.9861 244.705L64.4755 244.705L64.4755 235.313C68.271 234.291 71.1906 231.226 71.9692 227.284C71.9692 226.895 71.9692 226.36 71.9692 225.97C72.0665 215.071 68.271 204.463 61.3612 195.947Z" fill="#DEB569"/>
<path d="M76.2025 140.084C76.8837 143.491 77.3216 146.994 77.3216 150.498C77.3216 164.317 71.5311 177.407 61.4097 186.847C51.2883 177.553 45.4977 164.317 45.4977 150.498C45.4977 146.994 45.887 143.491 46.6169 140.084C44.0379 141.885 40.9237 142.809 37.8094 142.809C29.8778 142.809 23.2113 136.824 22.1895 128.893L22.1895 125.194L27.8827 125.194C27.8827 125.584 27.7854 125.973 27.7854 126.411C27.7854 132.007 32.3108 136.63 37.9067 136.63C42.6268 136.63 46.617 133.418 47.7361 128.941L58.2468 128.941L58.2468 138.333C54.4513 139.355 51.5316 142.42 50.7531 146.362C50.7531 146.751 50.7531 147.286 50.7531 147.675C50.7531 158.575 54.5486 169.183 61.4583 177.699C68.3681 169.183 72.1636 158.575 72.1636 147.675C72.1636 147.286 72.1636 146.751 72.1636 146.362C71.3851 142.469 68.4654 139.355 64.6699 138.333L64.6699 128.941L75.1806 128.941C76.2997 133.467 80.3872 136.63 85.01 136.63C90.6059 136.63 95.1313 132.104 95.1313 126.411C95.1313 126.022 95.1313 125.632 95.034 125.194L100.727 125.194L100.727 128.893C99.8027 136.824 93.1362 142.809 85.1073 142.809C81.8957 142.809 78.7815 141.885 76.2025 140.084Z" fill="#DEB569"/>
<path d="M100.63 248.403C100.728 247.819 100.728 247.186 100.728 246.505C100.728 245.921 100.728 245.191 100.63 244.607L100.63 128.893C100.728 128.309 100.728 127.676 100.728 126.995C100.728 126.411 100.728 125.681 100.63 125.097L105.837 125.097L105.837 248.305L100.63 248.403Z" fill="#2C485F"/>
<path d="M110.946 248.354L110.946 125.146L122.771 125.146L122.771 248.354L110.946 248.354Z" fill="#2C485F"/>
<path d="M377 248.354L377 125.146L499.819 125.146L499.819 248.354L377 248.354Z" fill="#2C485F"/>
<path d="M388.728 248.354L388.728 125.146L393.934 125.146L393.934 248.354L388.728 248.354Z" fill="#F5F4F4"/>
<path d="M482.836 248.354L482.836 125.146L488.043 125.146L488.043 248.354L482.836 248.354Z" fill="#F5F4F4"/>
<path d="M399.141 128.893C400.065 136.825 406.732 142.81 414.761 142.81C417.875 142.81 420.989 141.885 423.568 140.085C422.887 143.491 422.449 146.995 422.449 150.498C422.449 164.318 428.24 177.407 438.361 186.848C428.24 196.142 422.449 209.377 422.449 223.197C422.449 226.7 422.838 230.204 423.568 233.61C420.989 231.81 417.875 230.885 414.761 230.885C406.829 230.885 400.162 236.87 399.141 244.802L399.141 128.893Z" fill="#F5F4F4"/>
<path d="M477.629 244.607C476.705 236.676 470.038 230.69 462.009 230.69C458.895 230.69 455.781 231.615 453.202 233.415C453.883 230.009 454.321 226.506 454.321 223.002C454.321 209.182 448.531 196.093 438.409 186.653C448.531 177.359 454.321 164.123 454.321 150.303C454.321 146.8 453.932 143.296 453.202 139.89C455.781 141.691 458.895 142.615 462.009 142.615C469.941 142.615 476.608 136.63 477.629 128.698L477.629 244.607Z" fill="#F5F4F4"/>
<path d="M448.968 227.284C448.19 231.177 445.27 234.291 441.475 235.313L441.475 244.705L451.985 244.705C453.105 240.179 457.192 237.016 461.815 237.016C467.411 237.016 471.936 241.542 471.936 247.235C471.936 247.624 471.936 248.013 471.839 248.451L404.785 248.451C404.785 248.062 404.687 247.673 404.687 247.235C404.687 241.639 409.213 237.016 414.809 237.016C419.529 237.016 423.519 240.228 424.638 244.705L435.149 244.705L435.149 235.313C431.353 234.291 428.434 231.226 427.655 227.284C427.655 226.895 427.655 226.36 427.655 225.97C427.655 215.07 431.451 204.462 438.361 195.947C445.27 204.462 449.066 215.07 449.066 225.97C449.066 226.457 448.968 226.895 448.968 227.284Z" fill="#F5F4F4"/>
<path d="M438.361 177.505C431.451 168.989 427.655 158.381 427.655 147.481C427.655 147.092 427.655 146.557 427.655 146.167C428.434 142.274 431.353 139.16 435.149 138.138L435.149 128.747L424.638 128.747C423.519 133.272 419.432 136.435 414.809 136.435C409.213 136.435 404.687 131.91 404.687 126.217C404.687 125.827 404.688 125.438 404.785 125L471.839 125C471.839 125.389 471.936 125.779 471.936 126.217C471.936 131.812 467.411 136.435 461.815 136.435C457.095 136.435 453.105 133.224 451.985 128.747L441.475 128.747L441.475 138.138C445.27 139.16 448.19 142.226 448.968 146.167C448.968 146.557 448.968 147.092 448.968 147.481C449.066 158.527 445.27 169.135 438.361 177.505Z" fill="white"/>
<path d="M393.934 248.402L393.934 125.194L399.14 125.194C399.043 125.778 399.043 126.411 399.043 127.092C399.043 127.676 399.043 128.406 399.14 128.99L399.14 244.704C399.043 245.288 399.043 245.921 399.043 246.602C399.043 247.186 399.043 247.916 399.14 248.5L393.934 248.402Z" fill="#2C485F"/>
<path d="M406.926 149.914L415.441 151.423C415.441 151.909 415.441 152.444 415.441 153.028C415.441 165.729 420.551 177.942 429.553 186.847C420.551 195.752 415.441 207.966 415.441 220.666C415.441 221.153 415.441 221.688 415.441 222.272L406.926 223.781C407.948 209.572 414.711 196.433 425.855 187.529L425.855 186.75L425.855 186.069C414.76 177.213 407.85 164.123 406.926 149.914Z" fill="#DEB569"/>
<path d="M408.629 197.358C408.045 196.141 407.607 194.876 407.607 193.465C407.607 190.886 408.824 188.356 411.014 186.75C408.921 185.144 407.607 182.663 407.607 180.035C407.607 178.624 407.899 177.31 408.629 176.142C412.327 182.225 418.751 186.166 425.758 186.75C418.751 187.334 412.327 191.324 408.629 197.358Z" fill="#9E5D31"/>
<path d="M451.013 186.75C458.117 186.166 464.443 182.225 468.141 176.142C468.725 177.359 469.163 178.624 469.163 180.035C469.163 182.614 467.946 185.144 465.757 186.75C467.849 188.356 469.163 190.838 469.163 193.465C469.163 194.876 468.871 196.19 468.141 197.358C464.394 191.324 458.02 187.334 451.013 186.75Z" fill="#9E5D31"/>
<path d="M447.168 186.75C456.17 177.845 461.279 165.631 461.279 152.931C461.279 152.445 461.279 151.909 461.279 151.325L469.795 149.817C468.773 164.026 462.009 177.164 450.866 186.069L450.866 186.75L450.866 187.431C461.961 196.336 468.773 209.474 469.795 223.683L461.279 222.175C461.279 221.688 461.279 221.153 461.279 220.569C461.279 207.966 456.219 195.752 447.168 186.75Z" fill="#DEB569"/>
<path d="M438.361 195.947C431.451 204.463 427.655 215.071 427.655 225.97C427.655 226.36 427.655 226.895 427.655 227.284C428.434 231.177 431.354 234.291 435.149 235.313L435.149 244.705L424.638 244.705C423.519 240.179 419.432 237.016 414.809 237.016C409.213 237.016 404.688 241.542 404.688 247.235C404.688 247.624 404.688 248.014 404.785 248.452L399.092 248.452L399.092 244.753C400.016 236.822 406.683 230.836 414.712 230.836C417.826 230.836 420.94 231.761 423.519 233.561C422.838 230.155 422.4 226.652 422.4 223.148C422.4 209.329 428.191 196.239 438.312 186.799C448.433 196.093 454.224 209.329 454.224 223.148C454.224 226.652 453.835 230.155 453.105 233.561C455.684 231.761 458.798 230.836 461.912 230.836C469.844 230.836 476.51 236.822 477.532 244.753L477.532 248.452L471.839 248.452C471.839 248.062 471.936 247.673 471.936 247.235C471.936 241.639 467.411 237.016 461.815 237.016C457.095 237.016 453.105 240.228 451.986 244.705L441.475 244.705L441.475 235.313C445.27 234.291 448.19 231.226 448.969 227.284C448.969 226.895 448.969 226.36 448.969 225.97C449.066 215.071 445.271 204.463 438.361 195.947Z" fill="#DEB569"/>
<path d="M453.202 140.084C453.884 143.491 454.322 146.994 454.322 150.498C454.322 164.317 448.531 177.407 438.41 186.847C428.288 177.553 422.498 164.317 422.498 150.498C422.498 146.994 422.887 143.491 423.617 140.084C421.038 141.885 417.924 142.809 414.809 142.809C406.878 142.809 400.211 136.824 399.189 128.893L399.189 125.194L404.883 125.194C404.883 125.584 404.785 125.973 404.785 126.411C404.785 132.007 409.311 136.63 414.907 136.63C419.627 136.63 423.617 133.418 424.736 128.941L435.247 128.941L435.247 138.333C431.451 139.355 428.532 142.42 427.753 146.362C427.753 146.751 427.753 147.286 427.753 147.675C427.753 158.575 431.549 169.183 438.458 177.699C445.368 169.183 449.164 158.575 449.164 147.675C449.164 147.286 449.164 146.751 449.164 146.362C448.385 142.469 445.465 139.355 441.67 138.333L441.67 128.941L452.181 128.941C453.3 133.467 457.387 136.63 462.01 136.63C467.606 136.63 472.131 132.104 472.131 126.411C472.131 126.022 472.131 125.632 472.034 125.194L477.727 125.194L477.727 128.893C476.803 136.824 470.136 142.809 462.107 142.809C458.896 142.809 455.781 141.885 453.202 140.084Z" fill="#DEB569"/>
<path d="M477.63 248.403C477.727 247.819 477.727 247.186 477.727 246.505C477.727 245.921 477.727 245.191 477.63 244.607L477.63 128.893C477.727 128.309 477.727 127.676 477.727 126.995C477.727 126.411 477.727 125.681 477.63 125.097L482.837 125.097L482.837 248.305L477.63 248.403Z" fill="#2C485F"/>
<path d="M487.945 248.354L487.945 125.146L499.77 125.146L499.77 248.354L487.945 248.354Z" fill="#2C485F"/>
<path d="M125 125H248.478V248.869H125V125ZM250.574 125H374.052V248.869H250.574V125ZM125 250.825H248.478V374.694H125V250.825ZM250.574 250.825H374.052V374.694H250.574V250.825Z" fill="#D1D3D4"/>
</g>
<defs>
<clipPath id="clip0_65_1467">
<rect width="500" height="500" fill="white"/>
</clipPath>
</defs>
</svg>
