<svg width="500" height="500" viewBox="0 0 500 500" fill="none" xmlns="http://www.w3.org/2000/svg">
<g clip-path="url(#clip0_65_1504)">
<path d="M123.5 0H0V123.062H123.5V0Z" fill="#2D2E27"/>
<path d="M54.5214 102.081L42.6436 123.013H66.3505L54.5214 102.081Z" fill="#2D2E27"/>
<path d="M123.5 42.4971L102.422 54.3262L123.5 66.058V42.4971Z" fill="#2D2E27"/>
<path d="M123.5 106.219H106.608V123.013H112.839V112.498H123.5V106.219Z" fill="#7B7970"/>
<path d="M123.5 74.2363H95.3634L74.5771 94.9738V123.013H83.4369V98.6248L98.9656 83.0473H123.5V74.2363Z" fill="#7B7970"/>
<path d="M123.5 25.4595H70.9744L65.4736 31.0576L70.7797 38.1162L74.6741 34.2705H123.5V25.4595Z" fill="#7B7970"/>
<path d="M64.4518 44.4933L59.1457 37.3374L25.6055 70.7316V123.013H34.4165V74.3339L64.4518 44.4933Z" fill="#7B7970"/>
<path d="M16.8432 16.7943H123.5V10.5146H10.5635V123.013H16.8432V16.7943Z" fill="#7B7970"/>
<path d="M106.608 106.219H123.5V83.0474H98.9653L83.4365 98.6248V123.013H106.608V106.219Z" fill="#F6F6F6"/>
<path d="M53.401 81.6357L38.3591 70.4881L34.416 74.3338V123.013H42.6429L54.5207 102.081L66.3498 123.013H74.5766V94.9739L95.2655 74.2364H123.5V66.0583L102.421 54.3265L123.5 42.4974V34.2705H74.674L70.7797 38.1162L81.9273 53.2069V81.6357H53.401Z" fill="#F6F6F6"/>
<path d="M44.6875 64.2084L56.3219 72.8246H73.0676V56.1276L64.4514 44.4932L44.6875 64.2084Z" fill="white"/>
<path d="M59.1452 37.3371L58.123 35.7793H36.0225V57.8798L37.4342 58.9508L59.1452 37.3371Z" fill="white"/>
<path d="M62.5529 27.0171L65.4737 31.0576L70.9745 25.4594H123.5V16.7944H16.8428V123.013H25.6051V70.7314L31.1059 65.2306L27.2115 62.3098V27.0171H62.5529Z" fill="#F6F6F6"/>
<path d="M81.9277 53.2067L70.7801 38.1161L65.474 31.0575L62.5533 27.0171H27.2119V62.3098L31.1063 65.2305L37.4346 58.9509L36.0229 57.8799V35.7794H58.1234L59.1457 37.3372L64.4518 44.4931L73.068 56.1275V72.8245H56.3223L44.6879 64.2083L38.3595 70.488L53.4015 81.6356H81.9277V53.2067Z" fill="#2D2E27"/>
<path d="M376.5 500.086L500 500.086L500 377.024L376.5 377.024L376.5 500.086Z" fill="#2D2E27"/>
<path d="M445.479 398.005L457.356 377.073L433.649 377.073L445.479 398.005Z" fill="#2D2E27"/>
<path d="M376.5 457.589L397.578 445.76L376.5 434.028L376.5 457.589Z" fill="#2D2E27"/>
<path d="M376.5 393.867L393.392 393.867L393.392 377.073L387.161 377.073L387.161 387.588L376.5 387.588L376.5 393.867Z" fill="#7B7970"/>
<path d="M376.5 425.85L404.637 425.85L425.423 405.112L425.423 377.073L416.563 377.073L416.563 401.461L401.034 417.039L376.5 417.039L376.5 425.85Z" fill="#7B7970"/>
<path d="M376.5 474.626L429.026 474.626L434.526 469.028L429.22 461.97L425.326 465.815L376.5 465.815L376.5 474.626Z" fill="#7B7970"/>
<path d="M435.548 455.593L440.854 462.749L474.395 429.354L474.395 377.073L465.584 377.073L465.584 425.752L435.548 455.593Z" fill="#7B7970"/>
<path d="M483.157 483.292L376.5 483.292L376.5 489.571L489.437 489.571L489.437 377.073L483.157 377.073L483.157 483.292Z" fill="#7B7970"/>
<path d="M393.392 393.867L376.5 393.867L376.5 417.039L401.035 417.039L416.563 401.461L416.563 377.073L393.392 377.073L393.392 393.867Z" fill="#F6F6F6"/>
<path d="M446.599 418.45L461.641 429.598L465.584 425.752L465.584 377.073L457.357 377.073L445.479 398.005L433.65 377.073L425.423 377.073L425.423 405.112L404.735 425.85L376.5 425.85L376.5 434.028L397.579 445.759L376.5 457.589L376.5 465.815L425.326 465.815L429.22 461.97L418.073 446.879L418.073 418.45L446.599 418.45Z" fill="#F6F6F6"/>
<path d="M455.313 435.878L443.678 427.261L426.932 427.261L426.932 443.958L435.549 455.593L455.313 435.878Z" fill="white"/>
<path d="M440.855 462.749L441.877 464.307L463.978 464.307L463.978 442.206L462.566 441.135L440.855 462.749Z" fill="white"/>
<path d="M437.447 473.069L434.526 469.028L429.026 474.627L376.5 474.627L376.5 483.291L483.157 483.292L483.157 377.073L474.395 377.073L474.395 429.355L468.894 434.855L472.788 437.776L472.788 473.069L437.447 473.069Z" fill="#F6F6F6"/>
<path d="M418.072 446.879L429.22 461.97L434.526 469.028L437.447 473.069L472.788 473.069L472.788 437.776L468.894 434.855L462.565 441.135L463.977 442.206L463.977 464.307L441.877 464.307L440.854 462.749L435.548 455.593L426.932 443.958L426.932 427.261L443.678 427.261L455.312 435.878L461.64 429.598L446.599 418.45L418.072 418.45L418.072 446.879Z" fill="#2D2E27"/>
<path d="M376.5 0H500V123.062H376.5V0Z" fill="#2D2E27"/>
<path d="M445.479 102.081L457.356 123.013H433.649L445.479 102.081Z" fill="#2D2E27"/>
<path d="M376.5 42.4971L397.578 54.3262L376.5 66.058V42.4971Z" fill="#2D2E27"/>
<path d="M376.5 106.219H393.392V123.013H387.161V112.498H376.5V106.219Z" fill="#7B7970"/>
<path d="M376.5 74.2363H404.637L425.423 94.9738V123.013H416.563V98.6248L401.034 83.0473H376.5V74.2363Z" fill="#7B7970"/>
<path d="M376.5 25.4595H429.026L434.526 31.0576L429.22 38.1162L425.326 34.2705H376.5V25.4595Z" fill="#7B7970"/>
<path d="M435.548 44.4933L440.854 37.3374L474.395 70.7316V123.013H465.584V74.3339L435.548 44.4933Z" fill="#7B7970"/>
<path d="M483.157 16.7943H376.5V10.5146H489.437V123.013H483.157V16.7943Z" fill="#7B7970"/>
<path d="M393.392 106.219H376.5V83.0474H401.035L416.563 98.6248V123.013H393.392V106.219Z" fill="#F6F6F6"/>
<path d="M446.599 81.6357L461.641 70.4881L465.584 74.3338V123.013H457.357L445.479 102.081L433.65 123.013H425.423V94.9739L404.735 74.2364H376.5V66.0583L397.579 54.3265L376.5 42.4974V34.2705H425.326L429.22 38.1162L418.073 53.2069V81.6357H446.599Z" fill="#F6F6F6"/>
<path d="M455.312 64.2084L443.678 72.8246H426.932V56.1276L435.549 44.4932L455.312 64.2084Z" fill="white"/>
<path d="M440.855 37.3371L441.877 35.7793H463.978V57.8798L462.566 58.9508L440.855 37.3371Z" fill="white"/>
<path d="M437.447 27.0171L434.526 31.0576L429.026 25.4594H376.5V16.7944H483.157V123.013H474.395V70.7314L468.894 65.2306L472.788 62.3098V27.0171H437.447Z" fill="#F6F6F6"/>
<path d="M418.072 53.2067L429.22 38.1161L434.526 31.0575L437.447 27.0171H472.788V62.3098L468.894 65.2305L462.565 58.9509L463.977 57.8799V35.7794H441.877L440.854 37.3372L435.548 44.4931L426.932 56.1275V72.8245H443.678L455.312 64.2083L461.64 70.488L446.599 81.6356H418.072V53.2067Z" fill="#2D2E27"/>
<path d="M123.5 500.086L0 500.086L1.07584e-05 377.024L123.5 377.024L123.5 500.086Z" fill="#2D2E27"/>
<path d="M54.5214 398.005L42.6436 377.073L66.3505 377.073L54.5214 398.005Z" fill="#2D2E27"/>
<path d="M123.5 457.589L102.422 445.76L123.5 434.028L123.5 457.589Z" fill="#2D2E27"/>
<path d="M123.5 393.867L106.608 393.867L106.608 377.073L112.839 377.073L112.839 387.588L123.5 387.588L123.5 393.867Z" fill="#7B7970"/>
<path d="M123.5 425.85L95.3634 425.85L74.5772 405.112L74.5772 377.073L83.4369 377.073L83.4369 401.461L98.9657 417.039L123.5 417.039L123.5 425.85Z" fill="#7B7970"/>
<path d="M123.5 474.626L70.9744 474.626L65.4736 469.028L70.7797 461.97L74.6741 465.815L123.5 465.815L123.5 474.626Z" fill="#7B7970"/>
<path d="M64.4518 455.593L59.1457 462.749L25.6055 429.354L25.6055 377.073L34.4165 377.073L34.4165 425.752L64.4518 455.593Z" fill="#7B7970"/>
<path d="M16.8432 483.292L123.5 483.292L123.5 489.571L10.5635 489.571L10.5635 377.073L16.8432 377.073L16.8432 483.292Z" fill="#7B7970"/>
<path d="M106.608 393.867L123.5 393.867L123.5 417.039L98.9653 417.039L83.4365 401.461L83.4365 377.073L106.608 377.073L106.608 393.867Z" fill="#F6F6F6"/>
<path d="M53.401 418.45L38.3591 429.598L34.416 425.752L34.416 377.073L42.6429 377.073L54.5207 398.005L66.3499 377.073L74.5767 377.073L74.5767 405.112L95.2655 425.85L123.5 425.85L123.5 434.028L102.421 445.759L123.5 457.589L123.5 465.815L74.674 465.815L70.7797 461.97L81.9273 446.879L81.9273 418.45L53.401 418.45Z" fill="#F6F6F6"/>
<path d="M44.6875 435.878L56.3219 427.261L73.0676 427.261L73.0676 443.958L64.4514 455.593L44.6875 435.878Z" fill="white"/>
<path d="M59.1452 462.749L58.123 464.307L36.0225 464.307L36.0225 442.206L37.4342 441.135L59.1452 462.749Z" fill="white"/>
<path d="M62.5529 473.069L65.4737 469.028L70.9745 474.627L123.5 474.627L123.5 483.292L16.8428 483.292L16.8428 377.073L25.6051 377.073L25.6051 429.355L31.1059 434.855L27.2115 437.776L27.2115 473.069L62.5529 473.069Z" fill="#F6F6F6"/>
<path d="M81.9277 446.879L70.7801 461.97L65.474 469.028L62.5533 473.069L27.2119 473.069L27.2119 437.776L31.1063 434.855L37.4346 441.135L36.0229 442.206L36.0229 464.307L58.1234 464.307L59.1457 462.749L64.4518 455.593L73.068 443.958L73.068 427.261L56.3223 427.261L44.6879 435.878L38.3595 429.598L53.4015 418.45L81.9277 418.45L81.9277 446.879Z" fill="#2D2E27"/>
<path d="M249 0H125.5V124.086H249V0Z" fill="#2D2E27"/>
<path d="M249 42.876L227.904 54.7913L249 66.6579V42.876Z" fill="#2D2E27"/>
<path d="M146.596 54.7913L125.5 42.876V66.6579L146.596 54.7913Z" fill="#2D2E27"/>
<path d="M203.292 54.7913L217.649 34.5743H249V25.7354H213.157L192.451 54.7913L213.157 83.7984H249V74.9107H217.649L203.292 54.7913Z" fill="#7B7970"/>
<path d="M249 107.141H125.5V113.489H249V107.141Z" fill="#7B7970"/>
<path d="M161.441 25.7354H125.5V34.5743H125.988H156.9L171.257 54.7913L156.9 74.9107H125.5V83.7984H161.441L182.147 54.7913L161.441 25.7354Z" fill="#7B7970"/>
<path d="M125.5 16.8477V25.7353H161.441L165.543 31.5465L169.694 25.7353H187.226H204.806L208.908 31.5465L213.156 25.7353H249V16.8477H125.5Z" fill="#F6F6F6"/>
<path d="M125.988 34.5742H125.5V42.8759L146.596 54.7913L125.5 66.6578V74.9107H156.802L160.123 70.418L148.989 54.7913L160.123 39.0669L156.802 34.5742H125.988Z" fill="#F6F6F6"/>
<path d="M225.511 54.7913L214.475 70.418L217.649 74.9107H249V66.6578L227.904 54.7913L249 42.8759V34.5742H217.649L214.475 39.0669L225.511 54.7913Z" fill="#F6F6F6"/>
<path d="M203.292 54.7909L208.908 62.7508L214.67 54.7909L208.908 46.7334L203.292 54.7909Z" fill="#4F4F4F"/>
<path d="M159.83 54.7909L165.544 62.7508L171.257 54.7909L165.544 46.7334L159.83 54.7909Z" fill="#4F4F4F"/>
<path d="M187.225 74.9107H200.313L203.487 70.418L192.451 54.7913L203.487 39.0669L200.313 34.5742H187.225H174.187L170.964 39.0669L182.147 54.7913L170.964 70.418L174.187 74.9107H187.225Z" fill="#F6F6F6"/>
<path d="M125.5 83.7985V107.141H249V83.7985H213.156L208.908 78.085L204.806 83.7985H187.226H169.694L165.543 78.085L161.441 83.7985H125.5Z" fill="#F6F6F6"/>
<path d="M249 10.5967H125.5V16.7986H249V10.5967Z" fill="#7B7970"/>
<path d="M225.511 54.7913L214.474 39.0669L208.907 46.7337L214.67 54.7913L208.907 62.7512L214.474 70.418L225.511 54.7913Z" fill="#2D2E27"/>
<path d="M208.907 78.0849L203.487 70.418L200.312 74.9107H187.225H174.186L170.963 70.418L165.543 78.0849L169.694 83.7984H187.225H204.805L208.907 78.0849Z" fill="#2D2E27"/>
<path d="M204.805 25.7354H187.225H169.694L165.543 31.5466L170.963 39.0669L174.186 34.5743H187.225H200.312L203.487 39.0669L208.907 31.5466L204.805 25.7354Z" fill="#2D2E27"/>
<path d="M159.83 54.7913L165.544 46.7337L160.123 39.0669L148.989 54.7913L160.123 70.418L165.544 62.7512L159.83 54.7913Z" fill="#2D2E27"/>
<path d="M251 500.086L374.5 500.086L374.5 376L251 376L251 500.086Z" fill="#2D2E27"/>
<path d="M251 457.21L272.096 445.295L251 433.428L251 457.21Z" fill="#2D2E27"/>
<path d="M353.404 445.295L374.5 457.21L374.5 433.428L353.404 445.295Z" fill="#2D2E27"/>
<path d="M296.708 445.295L282.351 465.512L251 465.512L251 474.351L286.843 474.351L307.549 445.295L286.843 416.288L251 416.288L251 425.175L282.351 425.175L296.708 445.295Z" fill="#7B7970"/>
<path d="M251 392.945L374.5 392.945L374.5 386.597L251 386.597L251 392.945Z" fill="#7B7970"/>
<path d="M338.559 474.351L374.5 474.351L374.5 465.512L374.012 465.512L343.1 465.512L328.743 445.295L343.1 425.175L374.5 425.175L374.5 416.288L338.559 416.288L317.853 445.295L338.559 474.351Z" fill="#7B7970"/>
<path d="M374.5 483.238L374.5 474.351L338.559 474.351L334.457 468.539L330.306 474.351L312.774 474.351L295.194 474.351L291.092 468.539L286.844 474.351L251 474.351L251 483.238L374.5 483.238Z" fill="#F6F6F6"/>
<path d="M374.012 465.512L374.5 465.512L374.5 457.21L353.404 445.295L374.5 433.428L374.5 425.175L343.198 425.175L339.877 429.668L351.011 445.295L339.877 461.019L343.198 465.512L374.012 465.512Z" fill="#F6F6F6"/>
<path d="M274.489 445.295L285.525 429.668L282.351 425.175L251 425.175L251 433.428L272.096 445.295L251 457.21L251 465.512L282.351 465.512L285.525 461.019L274.489 445.295Z" fill="#F6F6F6"/>
<path d="M296.708 445.295L291.092 437.335L285.33 445.295L291.092 453.353L296.708 445.295Z" fill="#4F4F4F"/>
<path d="M340.17 445.295L334.456 437.335L328.743 445.295L334.456 453.353L340.17 445.295Z" fill="#4F4F4F"/>
<path d="M312.775 425.175L299.687 425.175L296.513 429.668L307.549 445.295L296.513 461.019L299.687 465.512L312.775 465.512L325.813 465.512L329.036 461.019L317.853 445.295L329.036 429.668L325.813 425.175L312.775 425.175Z" fill="#F6F6F6"/>
<path d="M374.5 416.287L374.5 392.945L251 392.945L251 416.287L286.844 416.287L291.092 422.001L295.194 416.287L312.774 416.287L330.306 416.287L334.457 422.001L338.559 416.287L374.5 416.287Z" fill="#F6F6F6"/>
<path d="M251 489.489L374.5 489.489L374.5 483.287L251 483.287L251 489.489Z" fill="#7B7970"/>
<path d="M274.489 445.295L285.526 461.019L291.093 453.352L285.33 445.295L291.093 437.335L285.526 429.668L274.489 445.295Z" fill="#2D2E27"/>
<path d="M291.093 422.001L296.513 429.668L299.688 425.175L312.775 425.175L325.814 425.175L329.037 429.668L334.457 422.001L330.306 416.288L312.775 416.288L295.195 416.288L291.093 422.001Z" fill="#2D2E27"/>
<path d="M295.195 474.351L312.775 474.351L330.306 474.351L334.457 468.539L329.037 461.019L325.814 465.512L312.775 465.512L299.688 465.512L296.513 461.019L291.093 468.539L295.195 474.351Z" fill="#2D2E27"/>
<path d="M340.17 445.295L334.456 453.352L339.877 461.019L351.011 445.295L339.877 429.668L334.456 437.335L340.17 445.295Z" fill="#2D2E27"/>
<path d="M1.61951e-05 250.5L0 374L124.086 374L124.086 250.5L1.61951e-05 250.5Z" fill="#2D2E27"/>
<path d="M42.876 250.5L54.7913 271.596L66.6579 250.5L42.876 250.5Z" fill="#2D2E27"/>
<path d="M54.7913 352.904L42.876 374L66.6579 374L54.7913 352.904Z" fill="#2D2E27"/>
<path d="M54.7913 296.208L34.5743 281.851L34.5743 250.5L25.7354 250.5L25.7354 286.343L54.7913 307.049L83.7984 286.343L83.7984 250.5L74.9108 250.5L74.9108 281.851L54.7913 296.208Z" fill="#7B7970"/>
<path d="M107.141 250.5L107.141 374L113.489 374L113.489 250.5L107.141 250.5Z" fill="#7B7970"/>
<path d="M25.7354 338.059L25.7354 374L34.5743 374L34.5743 373.512L34.5743 342.6L54.7913 328.243L74.9108 342.6L74.9107 374L83.7984 374L83.7984 338.059L54.7913 317.353L25.7354 338.059Z" fill="#7B7970"/>
<path d="M16.8477 374L25.7353 374L25.7353 338.059L31.5465 333.957L25.7353 329.806L25.7353 312.274L25.7353 294.694L31.5465 290.592L25.7353 286.344L25.7354 250.5L16.8477 250.5L16.8477 374Z" fill="#F6F6F6"/>
<path d="M34.5742 373.512L34.5742 374L42.8759 374L54.7913 352.904L66.6578 374L74.9107 374L74.9107 342.698L70.418 339.377L54.7913 350.511L39.0669 339.377L34.5742 342.698L34.5742 373.512Z" fill="#F6F6F6"/>
<path d="M54.7913 273.989L70.418 285.025L74.9107 281.851L74.9107 250.5L66.6578 250.5L54.7913 271.596L42.8759 250.5L34.5742 250.5L34.5742 281.851L39.0669 285.025L54.7913 273.989Z" fill="#F6F6F6"/>
<path d="M54.7909 296.208L62.7508 290.592L54.7909 284.83L46.7334 290.592L54.7909 296.208Z" fill="#4F4F4F"/>
<path d="M54.7909 339.67L62.7508 333.956L54.7909 328.243L46.7334 333.956L54.7909 339.67Z" fill="#4F4F4F"/>
<path d="M74.9107 312.275L74.9107 299.187L70.418 296.013L54.7913 307.049L39.0669 296.013L34.5742 299.187L34.5742 312.275L34.5742 325.313L39.0669 328.536L54.7913 317.353L70.418 328.536L74.9107 325.313L74.9107 312.275Z" fill="#F6F6F6"/>
<path d="M83.7985 374L107.141 374L107.141 250.5L83.7985 250.5L83.7985 286.344L78.085 290.592L83.7985 294.694L83.7985 312.274L83.7985 329.806L78.085 333.957L83.7985 338.059L83.7985 374Z" fill="#F6F6F6"/>
<path d="M10.5967 250.5L10.5967 374L16.7986 374L16.7986 250.5L10.5967 250.5Z" fill="#7B7970"/>
<path d="M54.7918 273.989L39.0674 285.026L46.7342 290.593L54.7918 284.83L62.7516 290.593L70.4185 285.026L54.7918 273.989Z" fill="#2D2E27"/>
<path d="M78.0849 290.593L70.418 296.013L74.9107 299.188L74.9107 312.275L74.9107 325.314L70.418 328.537L78.0849 333.957L83.7984 329.806L83.7984 312.275L83.7984 294.695L78.0849 290.593Z" fill="#2D2E27"/>
<path d="M25.7354 294.695L25.7354 312.275L25.7354 329.806L31.5466 333.957L39.0669 328.537L34.5743 325.314L34.5743 312.275L34.5743 299.188L39.0669 296.013L31.5466 290.593L25.7354 294.695Z" fill="#2D2E27"/>
<path d="M54.7918 339.67L46.7342 333.956L39.0674 339.377L54.7918 350.511L70.4185 339.377L62.7516 333.956L54.7918 339.67Z" fill="#2D2E27"/>
<path d="M376 250.5L376 374L500.086 374L500.086 250.5L376 250.5Z" fill="#2D2E27"/>
<path d="M418.876 250.5L430.791 271.596L442.658 250.5L418.876 250.5Z" fill="#2D2E27"/>
<path d="M430.791 352.904L418.876 374L442.658 374L430.791 352.904Z" fill="#2D2E27"/>
<path d="M430.791 296.208L410.574 281.851L410.574 250.5L401.735 250.5L401.735 286.343L430.791 307.049L459.798 286.343L459.798 250.5L450.911 250.5L450.911 281.851L430.791 296.208Z" fill="#7B7970"/>
<path d="M483.141 250.5L483.141 374L489.489 374L489.489 250.5L483.141 250.5Z" fill="#7B7970"/>
<path d="M401.735 338.059L401.735 374L410.574 374L410.574 373.512L410.574 342.6L430.791 328.243L450.911 342.6L450.911 374L459.798 374L459.798 338.059L430.791 317.353L401.735 338.059Z" fill="#7B7970"/>
<path d="M392.848 374L401.735 374L401.735 338.059L407.547 333.957L401.735 329.806L401.735 312.274L401.735 294.694L407.547 290.592L401.735 286.344L401.735 250.5L392.848 250.5L392.848 374Z" fill="#F6F6F6"/>
<path d="M410.574 373.512L410.574 374L418.876 374L430.791 352.904L442.658 374L450.911 374L450.911 342.698L446.418 339.377L430.791 350.511L415.067 339.377L410.574 342.698L410.574 373.512Z" fill="#F6F6F6"/>
<path d="M430.791 273.989L446.418 285.025L450.911 281.851L450.911 250.5L442.658 250.5L430.791 271.596L418.876 250.5L410.574 250.5L410.574 281.851L415.067 285.025L430.791 273.989Z" fill="#F6F6F6"/>
<path d="M430.791 296.208L438.751 290.592L430.791 284.83L422.733 290.592L430.791 296.208Z" fill="#4F4F4F"/>
<path d="M430.791 339.67L438.751 333.956L430.791 328.243L422.733 333.956L430.791 339.67Z" fill="#4F4F4F"/>
<path d="M450.911 312.275L450.911 299.187L446.418 296.013L430.791 307.049L415.067 296.013L410.574 299.187L410.574 312.275L410.574 325.313L415.067 328.536L430.791 317.353L446.418 328.536L450.911 325.313L450.911 312.275Z" fill="#F6F6F6"/>
<path d="M459.798 374L483.141 374L483.141 250.5L459.798 250.5L459.798 286.344L454.085 290.592L459.798 294.694L459.798 312.274L459.798 329.806L454.085 333.957L459.798 338.059L459.798 374Z" fill="#F6F6F6"/>
<path d="M386.597 250.5L386.597 374L392.799 374L392.799 250.5L386.597 250.5Z" fill="#7B7970"/>
<path d="M430.792 273.989L415.067 285.026L422.734 290.593L430.792 284.83L438.752 290.593L446.418 285.026L430.792 273.989Z" fill="#2D2E27"/>
<path d="M454.085 290.593L446.418 296.013L450.911 299.188L450.911 312.275L450.911 325.314L446.418 328.537L454.085 333.957L459.798 329.806L459.798 312.275L459.798 294.695L454.085 290.593Z" fill="#2D2E27"/>
<path d="M401.735 294.695L401.735 312.275L401.735 329.806L407.547 333.957L415.067 328.537L410.574 325.314L410.574 312.275L410.574 299.188L415.067 296.013L407.547 290.593L401.735 294.695Z" fill="#2D2E27"/>
<path d="M430.792 339.67L422.734 333.956L415.067 339.377L430.792 350.511L446.418 339.377L438.752 333.956L430.792 339.67Z" fill="#2D2E27"/>
<path d="M251 0H374.5V124.086H251V0Z" fill="#2D2E27"/>
<path d="M251 42.876L272.096 54.7913L251 66.6579V42.876Z" fill="#2D2E27"/>
<path d="M353.404 54.7913L374.5 42.876V66.6579L353.404 54.7913Z" fill="#2D2E27"/>
<path d="M296.708 54.7913L282.351 34.5743H251V25.7354H286.843L307.549 54.7913L286.843 83.7984H251V74.9107H282.351L296.708 54.7913Z" fill="#7B7970"/>
<path d="M251 107.141H374.5V113.489H251V107.141Z" fill="#7B7970"/>
<path d="M338.559 25.7354H374.5V34.5743H374.012H343.1L328.743 54.7913L343.1 74.9107H374.5V83.7984H338.559L317.853 54.7913L338.559 25.7354Z" fill="#7B7970"/>
<path d="M374.5 16.8477V25.7353H338.559L334.457 31.5465L330.306 25.7353H312.774H295.194L291.092 31.5465L286.844 25.7353H251V16.8477H374.5Z" fill="#F6F6F6"/>
<path d="M374.012 34.5742H374.5V42.8759L353.404 54.7913L374.5 66.6578V74.9107H343.198L339.877 70.418L351.011 54.7913L339.877 39.0669L343.198 34.5742H374.012Z" fill="#F6F6F6"/>
<path d="M274.489 54.7913L285.525 70.418L282.351 74.9107H251V66.6578L272.096 54.7913L251 42.8759V34.5742H282.351L285.525 39.0669L274.489 54.7913Z" fill="#F6F6F6"/>
<path d="M296.708 54.7909L291.092 62.7508L285.33 54.7909L291.092 46.7334L296.708 54.7909Z" fill="#4F4F4F"/>
<path d="M340.17 54.7909L334.456 62.7508L328.743 54.7909L334.456 46.7334L340.17 54.7909Z" fill="#4F4F4F"/>
<path d="M312.775 74.9107H299.687L296.513 70.418L307.549 54.7913L296.513 39.0669L299.687 34.5742H312.775H325.813L329.036 39.0669L317.853 54.7913L329.036 70.418L325.813 74.9107H312.775Z" fill="#F6F6F6"/>
<path d="M374.5 83.7985V107.141H251V83.7985H286.844L291.092 78.085L295.194 83.7985H312.774H330.306L334.457 78.085L338.559 83.7985H374.5Z" fill="#F6F6F6"/>
<path d="M251 10.5967H374.5V16.7986H251V10.5967Z" fill="#7B7970"/>
<path d="M274.489 54.7913L285.526 39.0669L291.093 46.7337L285.33 54.7913L291.093 62.7512L285.526 70.418L274.489 54.7913Z" fill="#2D2E27"/>
<path d="M291.093 78.0849L296.513 70.418L299.688 74.9107H312.775H325.814L329.037 70.418L334.457 78.0849L330.306 83.7984H312.775H295.195L291.093 78.0849Z" fill="#2D2E27"/>
<path d="M295.195 25.7354H312.775H330.306L334.457 31.5466L329.037 39.0669L325.814 34.5743H312.775H299.688L296.513 39.0669L291.093 31.5466L295.195 25.7354Z" fill="#2D2E27"/>
<path d="M340.17 54.7913L334.456 46.7337L339.877 39.0669L351.011 54.7913L339.877 70.418L334.456 62.7512L340.17 54.7913Z" fill="#2D2E27"/>
<path d="M249 500.086L125.5 500.086L125.5 376L249 376L249 500.086Z" fill="#2D2E27"/>
<path d="M249 457.21L227.904 445.295L249 433.428L249 457.21Z" fill="#2D2E27"/>
<path d="M146.596 445.295L125.5 457.21L125.5 433.428L146.596 445.295Z" fill="#2D2E27"/>
<path d="M203.292 445.295L217.649 465.512L249 465.512L249 474.351L213.157 474.351L192.451 445.295L213.157 416.288L249 416.288L249 425.175L217.649 425.175L203.292 445.295Z" fill="#7B7970"/>
<path d="M249 392.945L125.5 392.945L125.5 386.597L249 386.597L249 392.945Z" fill="#7B7970"/>
<path d="M161.441 474.351L125.5 474.351L125.5 465.512L125.988 465.512L156.9 465.512L171.257 445.295L156.9 425.175L125.5 425.175L125.5 416.288L161.441 416.288L182.147 445.295L161.441 474.351Z" fill="#7B7970"/>
<path d="M125.5 483.238L125.5 474.351L161.441 474.351L165.543 468.539L169.694 474.351L187.226 474.351L204.806 474.351L208.908 468.539L213.156 474.351L249 474.351L249 483.238L125.5 483.238Z" fill="#F6F6F6"/>
<path d="M125.988 465.512L125.5 465.512L125.5 457.21L146.596 445.295L125.5 433.428L125.5 425.175L156.802 425.175L160.123 429.668L148.989 445.295L160.123 461.019L156.802 465.512L125.988 465.512Z" fill="#F6F6F6"/>
<path d="M225.511 445.295L214.475 429.668L217.649 425.175L249 425.175L249 433.428L227.904 445.295L249 457.21L249 465.512L217.649 465.512L214.475 461.019L225.511 445.295Z" fill="#F6F6F6"/>
<path d="M203.292 445.295L208.908 437.335L214.67 445.295L208.908 453.353L203.292 445.295Z" fill="#4F4F4F"/>
<path d="M159.83 445.295L165.544 437.335L171.257 445.295L165.544 453.353L159.83 445.295Z" fill="#4F4F4F"/>
<path d="M187.225 425.175L200.313 425.175L203.487 429.668L192.451 445.295L203.487 461.019L200.313 465.512L187.225 465.512L174.187 465.512L170.964 461.019L182.147 445.295L170.964 429.668L174.187 425.175L187.225 425.175Z" fill="#F6F6F6"/>
<path d="M125.5 416.287L125.5 392.945L249 392.945L249 416.287L213.156 416.287L208.908 422.001L204.806 416.287L187.226 416.287L169.694 416.287L165.543 422.001L161.441 416.287L125.5 416.287Z" fill="#F6F6F6"/>
<path d="M249 489.489L125.5 489.489L125.5 483.287L249 483.287L249 489.489Z" fill="#7B7970"/>
<path d="M225.511 445.295L214.474 461.019L208.907 453.352L214.67 445.295L208.907 437.335L214.474 429.668L225.511 445.295Z" fill="#2D2E27"/>
<path d="M208.907 422.001L203.487 429.668L200.312 425.175L187.225 425.175L174.186 425.175L170.963 429.668L165.543 422.001L169.694 416.288L187.225 416.288L204.805 416.288L208.907 422.001Z" fill="#2D2E27"/>
<path d="M204.805 474.351L187.225 474.351L169.694 474.351L165.543 468.539L170.963 461.019L174.186 465.512L187.225 465.512L200.312 465.512L203.487 461.019L208.907 468.539L204.805 474.351Z" fill="#2D2E27"/>
<path d="M159.83 445.295L165.544 453.352L160.123 461.019L148.989 445.295L160.123 429.668L165.544 437.335L159.83 445.295Z" fill="#2D2E27"/>
<path d="M-1.61951e-05 248.5L0 125L124.086 125L124.086 248.5L-1.61951e-05 248.5Z" fill="#2D2E27"/>
<path d="M42.876 248.5L54.7913 227.404L66.6579 248.5L42.876 248.5Z" fill="#2D2E27"/>
<path d="M54.7913 146.096L42.876 125L66.6579 125L54.7913 146.096Z" fill="#2D2E27"/>
<path d="M54.7913 202.792L34.5743 217.149L34.5743 248.5L25.7353 248.5L25.7353 212.657L54.7913 191.951L83.7984 212.657L83.7984 248.5L74.9107 248.5L74.9107 217.149L54.7913 202.792Z" fill="#7B7970"/>
<path d="M107.141 248.5L107.141 125L113.489 125L113.489 248.5L107.141 248.5Z" fill="#7B7970"/>
<path d="M25.7353 160.941L25.7354 125L34.5743 125L34.5743 125.488L34.5743 156.4L54.7913 170.757L74.9107 156.4L74.9107 125L83.7984 125L83.7984 160.941L54.7913 181.647L25.7353 160.941Z" fill="#7B7970"/>
<path d="M16.8477 125L25.7353 125L25.7353 160.941L31.5465 165.043L25.7353 169.194L25.7353 186.726L25.7353 204.306L31.5465 208.408L25.7353 212.656L25.7353 248.5L16.8476 248.5L16.8477 125Z" fill="#F6F6F6"/>
<path d="M34.5742 125.488L34.5742 125L42.8759 125L54.7912 146.096L66.6578 125L74.9107 125L74.9107 156.302L70.418 159.623L54.7912 148.489L39.0669 159.623L34.5742 156.302L34.5742 125.488Z" fill="#F6F6F6"/>
<path d="M54.7913 225.011L70.418 213.975L74.9107 217.149L74.9107 248.5L66.6578 248.5L54.7912 227.404L42.8759 248.5L34.5742 248.5L34.5742 217.149L39.0669 213.975L54.7913 225.011Z" fill="#F6F6F6"/>
<path d="M54.7909 202.792L62.7508 208.408L54.7909 214.17L46.7334 208.408L54.7909 202.792Z" fill="#4F4F4F"/>
<path d="M54.7909 159.33L62.7508 165.044L54.7909 170.757L46.7334 165.044L54.7909 159.33Z" fill="#4F4F4F"/>
<path d="M74.9107 186.725L74.9107 199.813L70.418 202.987L54.7912 191.951L39.0669 202.987L34.5742 199.813L34.5742 186.725L34.5742 173.687L39.0669 170.464L54.7913 181.647L70.418 170.464L74.9107 173.687L74.9107 186.725Z" fill="#F6F6F6"/>
<path d="M83.7985 125L107.141 125L107.141 248.5L83.7984 248.5L83.7984 212.656L78.0849 208.408L83.7984 204.306L83.7985 186.726L83.7985 169.194L78.085 165.043L83.7985 160.941L83.7985 125Z" fill="#F6F6F6"/>
<path d="M10.5967 248.5L10.5967 125L16.7986 125L16.7986 248.5L10.5967 248.5Z" fill="#7B7970"/>
<path d="M54.7908 225.011L39.0664 213.974L46.7332 208.407L54.7908 214.17L62.7507 208.407L70.4175 213.974L54.7908 225.011Z" fill="#2D2E27"/>
<path d="M78.0849 208.407L70.418 202.987L74.9107 199.812L74.9107 186.725L74.9107 173.686L70.418 170.463L78.0849 165.043L83.7984 169.194L83.7984 186.725L83.7984 204.305L78.0849 208.407Z" fill="#2D2E27"/>
<path d="M25.7353 204.305L25.7353 186.725L25.7354 169.194L31.5466 165.043L39.0669 170.463L34.5743 173.686L34.5743 186.725L34.5743 199.812L39.0669 202.987L31.5465 208.407L25.7353 204.305Z" fill="#2D2E27"/>
<path d="M54.7908 159.33L46.7332 165.044L39.0664 159.623L54.7908 148.489L70.4175 159.623L62.7507 165.044L54.7908 159.33Z" fill="#2D2E27"/>
<path d="M376 248.5L376 125L500.086 125L500.086 248.5L376 248.5Z" fill="#2D2E27"/>
<path d="M418.876 248.5L430.791 227.404L442.658 248.5L418.876 248.5Z" fill="#2D2E27"/>
<path d="M430.791 146.096L418.876 125L442.658 125L430.791 146.096Z" fill="#2D2E27"/>
<path d="M430.791 202.792L410.574 217.149L410.574 248.5L401.735 248.5L401.735 212.657L430.791 191.951L459.798 212.657L459.798 248.5L450.911 248.5L450.911 217.149L430.791 202.792Z" fill="#7B7970"/>
<path d="M483.141 248.5L483.141 125L489.489 125L489.489 248.5L483.141 248.5Z" fill="#7B7970"/>
<path d="M401.735 160.941L401.735 125L410.574 125L410.574 125.488L410.574 156.4L430.791 170.757L450.911 156.4L450.911 125L459.798 125L459.798 160.941L430.791 181.647L401.735 160.941Z" fill="#7B7970"/>
<path d="M392.848 125L401.735 125L401.735 160.941L407.547 165.043L401.735 169.194L401.735 186.726L401.735 204.306L407.547 208.408L401.735 212.656L401.735 248.5L392.848 248.5L392.848 125Z" fill="#F6F6F6"/>
<path d="M410.574 125.488L410.574 125L418.876 125L430.791 146.096L442.658 125L450.911 125L450.911 156.302L446.418 159.623L430.791 148.489L415.067 159.623L410.574 156.302L410.574 125.488Z" fill="#F6F6F6"/>
<path d="M430.791 225.011L446.418 213.975L450.911 217.149L450.911 248.5L442.658 248.5L430.791 227.404L418.876 248.5L410.574 248.5L410.574 217.149L415.067 213.975L430.791 225.011Z" fill="#F6F6F6"/>
<path d="M430.791 202.792L438.751 208.408L430.791 214.17L422.733 208.408L430.791 202.792Z" fill="#4F4F4F"/>
<path d="M430.791 159.33L438.751 165.044L430.791 170.757L422.733 165.044L430.791 159.33Z" fill="#4F4F4F"/>
<path d="M450.911 186.725L450.911 199.813L446.418 202.987L430.791 191.951L415.067 202.987L410.574 199.813L410.574 186.725L410.574 173.687L415.067 170.464L430.791 181.647L446.418 170.464L450.911 173.687L450.911 186.725Z" fill="#F6F6F6"/>
<path d="M459.798 125L483.141 125L483.141 248.5L459.798 248.5L459.798 212.656L454.085 208.408L459.798 204.306L459.798 186.726L459.798 169.194L454.085 165.043L459.798 160.941L459.798 125Z" fill="#F6F6F6"/>
<path d="M386.597 248.5L386.597 125L392.799 125L392.799 248.5L386.597 248.5Z" fill="#7B7970"/>
<path d="M430.791 225.011L415.066 213.974L422.733 208.407L430.791 214.17L438.751 208.407L446.418 213.974L430.791 225.011Z" fill="#2D2E27"/>
<path d="M454.085 208.407L446.418 202.987L450.911 199.812L450.911 186.725L450.911 173.686L446.418 170.463L454.085 165.043L459.798 169.194L459.798 186.725L459.798 204.305L454.085 208.407Z" fill="#2D2E27"/>
<path d="M401.735 204.305L401.735 186.725L401.735 169.194L407.547 165.043L415.067 170.463L410.574 173.686L410.574 186.725L410.574 199.812L415.067 202.987L407.547 208.407L401.735 204.305Z" fill="#2D2E27"/>
<path d="M430.791 159.33L422.733 165.044L415.066 159.623L430.791 148.489L446.418 159.623L438.751 165.044L430.791 159.33Z" fill="#2D2E27"/>
<path d="M125 125H248.478V248.869H125V125ZM250.574 125H374.052V248.869H250.574V125ZM125 250.825H248.478V374.694H125V250.825ZM250.574 250.825H374.052V374.694H250.574V250.825Z" fill="#D1D3D4"/>
</g>
<defs>
<clipPath id="clip0_65_1504">
<rect width="500" height="500" fill="white"/>
</clipPath>
</defs>
</svg>
