<svg version="1.1" id="Camada_1" xmlns:x="&amp;ns_extend;" xmlns:i="&amp;ns_ai;" xmlns:graph="&amp;ns_graphs;" xmlns="http://www.w3.org/2000/svg" xmlns:xlink="http://www.w3.org/1999/xlink" x="0px" y="0px" viewBox="-1291 1292.1 252.6 252.6" style="enable-background:new -1291 1292.1 252.6 252.6;" xml:space="preserve">
<style type="text/css">
	.ladsvg-5966-st0{fill:#2D2E27;}
	.ladsvg-5966-st1{fill:#F6F6F6;}
</style>
<switch>
	
	<g i:extraneous="self">
		<rect x="-1291.4" y="1291.8" class="ladsvg-5966-st0" width="252.9" height="252.9"></rect>
		<polygon class="ladsvg-5966-st0" points="-1052.6,1406.3 -1122.6,1406.3 -1122.6,1379.2 -1038.5,1379.2 -1038.5,1348.8 -1150.6,1348.8 
			-1150.6,1434.3 -1082.2,1434.3 -1082.2,1459.7 -1165,1459.7 -1247.7,1459.7 -1247.7,1434.3 -1179.4,1434.3 -1179.4,1348.8 
			-1291.4,1348.8 -1291.4,1379.2 -1207.4,1379.2 -1207.4,1406.3 -1277.3,1406.3 -1277.3,1490.2 -1165,1490.2 -1052.6,1490.2 		"></polygon>
		<rect x="-1291.4" y="1291.8" class="ladsvg-5966-st0" width="252.9" height="28.2"></rect>
		<polygon class="ladsvg-5966-st1" points="-1038.5,1379.2 -1122.6,1379.2 -1122.6,1406.3 -1052.6,1406.3 -1052.6,1490.2 -1165,1490.2 
			-1277.3,1490.2 -1277.3,1406.3 -1207.4,1406.3 -1207.4,1379.2 -1291.4,1379.2 -1291.4,1516.4 -1038.5,1516.4 		"></polygon>
		<polygon class="ladsvg-5966-st1" points="-1038.5,1320 -1291.4,1320 -1291.4,1348.8 -1179.4,1348.8 -1179.4,1434.3 -1247.7,1434.3 
			-1247.7,1459.7 -1165,1459.7 -1082.2,1459.7 -1082.2,1434.3 -1150.6,1434.3 -1150.6,1348.8 -1038.5,1348.8 		"></polygon>
	</g>
</switch>

</svg>