<svg version="1.1" id="Camada_1" xmlns:x="&amp;ns_extend;" xmlns:i="&amp;ns_ai;" xmlns:graph="&amp;ns_graphs;" xmlns="http://www.w3.org/2000/svg" xmlns:xlink="http://www.w3.org/1999/xlink" x="0px" y="0px" viewBox="-599 582.7 218.5 252.6" style="enable-background:new -599 582.7 218.5 252.6;" xml:space="preserve">
<style type="text/css">
	.A{fill:#2C2D27;}
	.B{fill:#938C88;}
	.C{fill:#7B786F;}
	.D{fill:#E7C386;}
	.E{fill:#EBE3D5;}
	.F{fill:#8D8986;}
</style>
<switch>
	
	<g i:extraneous="self">
		<polygon class="A" points="-599.6,645.6 -490.1,582.4 -380.5,645.6 -380.5,772.1 -490.1,835.3 -599.6,772.1 		"></polygon>
		<polygon class="B" points="-387.4,768.1 -387.4,649.5 -490.1,590.3 -592.8,649.5 -592.8,768.1 -490.1,827.4 		"></polygon>
		<path class="C" d="M-490.1,606.1l89,51.4v102.8l-89,51.4l-89-51.4V657.5L-490.1,606.1 M-490.1,590.3l-102.7,59.3v118.6
			l102.7,59.3l102.7-59.3V649.6L-490.1,590.3L-490.1,590.3z"></path>
		<path class="D" d="M-490.1,621.9l75.3,43.5v87l-75.3,43.5l-75.3-43.5v-87L-490.1,621.9 M-490.1,606.1l-89,51.4v102.8l89,51.4
			l89-51.4V657.5L-490.1,606.1L-490.1,606.1z"></path>
		<path class="E" d="M-490.1,637.7l61.6,35.6v71.1l-61.6,35.6l-61.6-35.6v-71.1L-490.1,637.7 M-490.1,621.9l-75.3,43.5v87
			l75.3,43.5l75.3-43.5v-87L-490.1,621.9L-490.1,621.9z"></path>
		<polygon class="F" points="-428.4,744.4 -428.4,673.3 -490.1,637.7 -551.7,673.3 -551.7,744.4 -490.1,780 		"></polygon>
	</g>
</switch>

</svg>