<svg version="1.1" id="Camada_1" xmlns:x="&amp;ns_extend;" xmlns:i="&amp;ns_ai;" xmlns:graph="&amp;ns_graphs;" xmlns="http://www.w3.org/2000/svg" xmlns:xlink="http://www.w3.org/1999/xlink" x="0px" y="0px" viewBox="0 0 217 250.3" style="enable-background:new 0 0 217 250.3;" xml:space="preserve">
<style type="text/css">
	.A{fill:#9AB3B6;}
	.B{fill:#F5F4F4;}
</style>
<switch>
	
	<g i:extraneous="self">
		<g>
			<g>
				<path class="A" d="M209.5,58.1L209.5,58.1L108.6-0.2L7.8,58.1h0l-7.5,4.3v8.6l0,0v116.5l100.8,58.2l0,0l7.6,4.4l7.6-4.4l0,0
					L217,187.6V71.1v-8.7L209.5,58.1z"></path>
			</g>
		</g>
		<g>
			<g>
				<path class="B" d="M209.5,58.1L209.5,58.1L108.6-0.2L7.8,58.1h0l-7.5,4.3v8.6l0,0v116.5l100.8,58.2l0,0l7.6,4.4l7.6-4.4l0,0
					L217,187.6V71.1v-8.7L209.5,58.1z M108.6,4.9l92.2,53.2H16.5L108.6,4.9z M4.6,185.1V78.6l92.1,159.6L4.6,185.1z M104.3,233.9
					L12.2,74.3l92.1,53V233.9z M16.6,66.8h184.2l-91.6,53.3L16.6,66.8z M113,233.9V128.1l92-53.6L113,233.9z M212.7,185.1
					l-92.1,53.2l92.1-159.6V185.1z"></path>
			</g>
		</g>
		<g>
			<path class="A" d="M15.8,62.5c0-2.9-0.8-5.5-2.1-7.8l-5.9,3.4h0l-7.5,4.3v8.6l0,0v7C8.8,78.1,15.8,71.1,15.8,62.5z"></path>
		</g>
		<g>
			<path class="A" d="M217,62.4l-7.5-4.3l-6.5-3.8c-1.5,2.4-2.3,5.2-2.3,8.2c0,8.6,7,15.6,15.6,15.6c0.3,0,0.5,0,0.8,0v-6.9V62.4z
				"></path>
		</g>
		<g>
			<path class="A" d="M108.4,234.4c-5.8,0-10.8,3.2-13.5,7.8l6.2,3.6l7.6,4.4l7.6-4.4l5.8-3.4
				C119.4,237.7,114.3,234.4,108.4,234.4z"></path>
		</g>
	</g>
</switch>

</svg>