<svg version="1.1" id="Camada_1" xmlns:x="&amp;ns_extend;" xmlns:i="&amp;ns_ai;" xmlns:graph="&amp;ns_graphs;" xmlns="http://www.w3.org/2000/svg" xmlns:xlink="http://www.w3.org/1999/xlink" x="0px" y="0px" viewBox="-599 582.7 218.5 252.6" style="enable-background:new -599 582.7 218.5 252.6;" xml:space="preserve">
<style type="text/css">
	.ladsvg-5950-st0{fill:#F5F3F3;}
	.ladsvg-5950-st1{fill:#3D644D;}
</style>
<switch>
	
	<g i:extraneous="self">
		<polygon class="ladsvg-5950-st0" points="-599.5,645.7 -490,582.5 -380.5,645.7 -380.5,772.1 -490,835.3 -599.5,772.1 		"></polygon>
		<path class="ladsvg-5950-st1" d="M-416.7,670.8c0.4-2.2-0.2-2.6-1.8-0.8c-2.1,2.4-4.4,4.6-6.2,7.1c-12.5,17.3-21.8,36.2-28.1,56.6
			c-4.6,15-7.3,30.3-3.9,45.9c1.1,4.9,3.5,10.2,6.8,13.9c6.1,6.9,15.9,4.3,18.4-4.5c1-3.6,0.6-7.7,0.5-11.6
			c-0.2-11.6-2-23.3-0.4-34.6c2.8-19.4,7.7-38.4,11.7-57.6C-418.8,680.4-417.7,675.6-416.7,670.8z M-387.9,653.7
			c0.4-2.6-0.5-2.8-1.9-0.9c-1.1,1.4-2.2,2.8-3.1,4.4c-14.6,26-23.7,53.7-23.6,83.8c0,8.9,1.3,17.8,6.1,25.6c3.6,6,9.3,8.4,14.1,6.4
			s7.4-7.8,6.3-14.3c-0.1-0.7-0.2-1.3-0.4-2c-6.8-23.9-4.8-48-1.5-72.2C-390.5,674.3-389.2,664-387.9,653.7z M-431.1,669.8
			c-1.9-2.2-3-3.3-4.1-4.3c-5.6-4.8-11.3-9.4-16.7-14.3c-13.3-12-24-25.7-27-44.1c-0.2-1.5-0.9-2.9-1.5-4.3
			c-3.3-7.3-10.6-9.6-17.5-5.3c-5.6,3.5-8.7,10.1-6.5,16.4c1.8,5.1,4.4,10.1,7.7,14.3c15.4,19.4,36.1,31.4,58.9,40.2
			C-436.2,669-428.5,672.4-431.1,669.8z M-406.1,660c4.7,1-0.5-2.6-1.5-3.2c-11.6-7.1-20.1-16.6-25.3-29.3
			c-2.4-5.8-8.8-6.4-13.9-2.6c-4.9,3.7-5.4,8.7-1.4,13.8c7.4,9.3,17.1,15.1,28.3,18.4C-415.9,658.4-411.6,658.9-406.1,660z"></path>
		<path class="ladsvg-5950-st1" d="M-447.7,682.8c-2.7,7.8-5.5,15.6-8,23.5c-6,18.8-12.4,37.6-17.8,56.6c-4.1,14.2-4.1,29-3.6,43.8
			c0.2,6.5-2.2,12.1-8.8,14.9c-5.8,2.5-13,0.7-17.6-4.8c-2.1-2.4-3.8-5.3-4.9-8.3c-3.7-10.4-2.9-21.1-0.4-31.4
			c8.6-36.1,28-66.1,54.1-92c1.5-1.5,3.4-3,5-3.9C-447.9,680.1-447.1,681-447.7,682.8z"></path>
		<path class="ladsvg-5950-st1" d="M-482.3,689.3c-2.5,4.4-5,8.8-7.5,13.2c-8.5,14.8-17.8,29.2-25.2,44.6c-5.1,10.6-7.9,22.4-10.9,33.9
			c-2.6,9.9-7.5,15.3-14.9,14.3c-8.1-1.1-14.2-9.4-12.2-18.9c1.8-8.8,4.1-17.8,8.3-25.6c13.2-24.7,32.7-43.9,55.8-59.7
			c1.7-1.1,3.7-2.1,5.5-2.7C-482.3,687.8-481.7,688.2-482.3,689.3z"></path>
		<path class="ladsvg-5950-st1" d="M-518.8,692.6c-3.8,4.2-7.6,8.6-11.5,12.7c-11.9,12.7-24.1,25.3-32.1,41c-2.8,5.4-4.6,11.4-6.7,17.1
			c-2.3,6.3-5.7,9-11.1,8.4c-5.4-0.6-10.5-5.3-10.1-11.1c0.5-5.9,1.9-12.2,4.7-17.4c8.7-16.5,22.7-28.1,38-38
			c8.7-5.6,18-10.1,27.1-15.1C-517.4,688.7-516.7,690.3-518.8,692.6z"></path>
		<path class="ladsvg-5950-st1" d="M-462.8,680.5c-8.8-2.4-17.7-4.3-26.3-7.2c-17-5.9-33.3-13.5-45.9-26.9c-2.9-3.1-5.6-6.6-7.4-10.3
			c-3.1-6.4-0.3-13.6,5.8-16.6c6-2.9,13.2-0.9,15.9,5.9c8.9,22.7,27.7,34.8,47.5,46c3.8,2.2,7.6,4.4,11.3,6.7
			C-459,679.8-460.4,681.1-462.8,680.5z"></path>
		<path class="ladsvg-5950-st1" d="M-497.4,685.6c-6.4-0.3-12.7-0.3-19.1-0.9c-17.1-1.8-33.8-5.4-48.8-14.2c-4.8-2.8-9.1-6.6-13-10.7
			c-4.6-4.8-4.4-11.1-0.6-14.8c4.1-4,10.2-3.8,15.1,1.2c14.2,14.6,32.3,22.6,50.7,30.3c5.4,2.3,10.8,4.7,16.1,7.1
			C-494.9,684.5-495.1,685.7-497.4,685.6z"></path>
		<path class="ladsvg-5950-st1" d="M-541.9,690.7c-6.5,6.5-13.5,8.9-20.8,10.7c-7.6,1.9-15.2,2-22.7-0.6c-5.6-2-7.8-6.7-5.7-12.3
			c2-5.1,7.1-7.3,12.1-4.2c10.1,6.3,20.8,8.1,32.4,6C-540.5,689.2-540.8,689.5-541.9,690.7z"></path>
	</g>
</switch>

</svg>