<svg version="1.1" id="Camada_1" xmlns:x="&amp;ns_extend;" xmlns:i="&amp;ns_ai;" xmlns:graph="&amp;ns_graphs;" xmlns="http://www.w3.org/2000/svg" xmlns:xlink="http://www.w3.org/1999/xlink" x="0px" y="0px" viewBox="-582 582.7 252.6 252.6" style="enable-background:new -582 582.7 252.6 252.6;" xml:space="preserve">
<style type="text/css">
	.ladsvg-1639-st0{fill:#D9C9BC;}
	.ladsvg-1639-st1{fill:#861F30;}
	.ladsvg-1639-st2{fill:#244A32;}
</style>
<switch>
	
	<g i:extraneous="self">
		<rect id="XMLID_1_" x="-582" y="583" class="ladsvg-1639-st0" width="253.5" height="252.3"></rect>
		<rect id="XMLID_2_" x="-476.5" y="687.9" class="ladsvg-1639-st1" width="42.6" height="42.3"></rect>
		<polyline id="XMLID_3_" class="ladsvg-1639-st1" points="-391.8,772.3 -412.2,733.7 -422.3,741.8 -430.6,752 -391.8,772.3 		"></polyline>
		<path id="XMLID_4_" class="ladsvg-1639-st2" d="M-352.9,810.9c-1.1-4-1-8.2,0.3-12.1c5.3-16.1,0.1-33.7-13.2-44.4c-1.5-1.2-2.4-3-2.5-4.9
			c-0.1-1.3,0.8-2.5,2-2.9c4.8-1.4,8.8-4.6,11.2-9c2.3-4.4,2.8-9.5,1.3-14.2c-7.1,3.7-14.7,6.2-22.6,7.5c-8.6,1.4-17.6,0.9-26-1.5
			l-10.2-3l0.6,7.2l20.4,38.6l-38.8-20.3l-7.2-0.6l3,10.2c2.5,8.4,3,17.3,1.5,25.9c-1.3,7.8-3.8,15.4-7.5,22.5
			c4.7,1.5,9.8,1,14.3-1.3c4.4-2.3,7.6-6.3,9-11.1c0.4-1.3,1.6-2.1,2.9-2c1.9,0.1,3.7,1,4.9,2.5c10.6,13.1,28.4,18.3,44.6,13.1
			C-361.2,809.9-356.9,809.8-352.9,810.9L-352.9,810.9z"></path>
		<rect id="XMLID_5_" x="-476.5" y="687.9" class="ladsvg-1639-st1" width="42.6" height="42.3"></rect>
		<polyline id="XMLID_6_" class="ladsvg-1639-st1" points="-518.7,772.3 -498.3,733.7 -488.1,741.8 -479.9,752 -518.7,772.3 		"></polyline>
		<path id="XMLID_7_" class="ladsvg-1639-st2" d="M-557.5,810.9c1.1-4,1-8.2-0.3-12.1c-5.3-16.1-0.1-33.7,13.2-44.4c1.5-1.2,2.4-3,2.5-4.9
			c0.1-1.3-0.8-2.5-2-2.9c-4.8-1.4-8.7-4.6-11.2-9c-2.3-4.4-2.8-9.5-1.3-14.2c7.1,3.7,14.8,6.2,22.6,7.5c8.6,1.4,17.6,0.9,26-1.5
			l10.2-3l-0.6,7.2l-20.4,38.6l38.8-20.3l7.2-0.6l-3,10.2c-2.4,8.4-3,17.3-1.5,25.9c1.3,7.8,3.8,15.4,7.5,22.5
			c-4.7,1.5-9.8,1-14.3-1.3c-4.4-2.3-7.6-6.3-9-11.1c-0.4-1.3-1.5-2.1-2.9-2c-1.9,0.1-3.7,1-4.9,2.5c-10.6,13.1-28.3,18.3-44.5,13.1
			C-549.2,809.9-553.4,809.8-557.5,810.9L-557.5,810.9z"></path>
		<polyline id="XMLID_8_" class="ladsvg-1639-st1" points="-391.8,645.9 -412.2,684.5 -422.3,676.4 -430.6,666.2 -391.8,645.9 		"></polyline>
		<path id="XMLID_9_" class="ladsvg-1639-st2" d="M-352.9,607.3c-1.1,4-1,8.2,0.3,12.1c5.3,16.1,0.1,33.7-13.2,44.4c-1.5,1.2-2.4,3-2.5,4.9
			c-0.1,1.3,0.8,2.5,2,2.9c4.8,1.4,8.8,4.6,11.2,9c2.3,4.4,2.8,9.5,1.3,14.2c-7.1-3.7-14.7-6.2-22.6-7.5c-8.6-1.4-17.6-0.9-26,1.5
			l-10.2,3l0.6-7.2l20.4-38.6l-38.8,20.3l-7.2,0.6l3-10.2c2.5-8.4,3-17.3,1.5-25.9c-1.3-7.8-3.8-15.4-7.5-22.5
			c4.7-1.5,9.8-1,14.3,1.3c4.4,2.3,7.6,6.3,9,11.1c0.4,1.3,1.6,2.1,2.9,2c1.9-0.1,3.7-1,4.9-2.5c10.6-13.1,28.4-18.3,44.5-13.1
			C-361.2,608.3-356.9,608.4-352.9,607.3L-352.9,607.3z"></path>
		<polyline id="XMLID_10_" class="ladsvg-1639-st1" points="-518.7,645.9 -498.3,684.5 -488.1,676.4 -479.9,666.2 -518.7,645.9 		"></polyline>
		<path id="XMLID_11_" class="ladsvg-1639-st2" d="M-557.5,607.3c1.1,4,1,8.2-0.3,12.1c-5.3,16.1-0.1,33.7,13.2,44.4c1.5,1.2,2.4,3,2.5,4.9
			c0.1,1.3-0.8,2.5-2,2.9c-4.8,1.4-8.7,4.6-11.2,9c-2.3,4.4-2.8,9.5-1.3,14.2c7.1-3.7,14.8-6.2,22.6-7.5c8.6-1.4,17.6-0.9,26,1.5
			l10.2,3l-0.6-7.2l-20.3-38.6l38.8,20.3l7.2,0.6l-3-10.2c-2.4-8.4-3-17.3-1.5-25.9c1.3-7.8,3.8-15.4,7.5-22.5
			c-4.7-1.5-9.8-1-14.3,1.3c-4.4,2.3-7.6,6.3-9,11.1c-0.4,1.3-1.5,2.1-2.9,2c-1.9-0.1-3.7-1-4.9-2.5c-10.7-13.1-28.4-18.3-44.6-13.1
			C-549.2,608.3-553.4,608.4-557.5,607.3L-557.5,607.3z"></path>
	</g>
</switch>

</svg>