<svg version="1.1" id="Camada_1" xmlns:x="&amp;ns_extend;" xmlns:i="&amp;ns_ai;" xmlns:graph="&amp;ns_graphs;" xmlns="http://www.w3.org/2000/svg" xmlns:xlink="http://www.w3.org/1999/xlink" x="0px" y="0px" viewBox="-582 582.7 252.6 252.6" style="enable-background:new -582 582.7 252.6 252.6;" xml:space="preserve">
<style type="text/css">
	.A{fill:#DDAD63;}
	.B{fill:#F6FAF6;}
	.C{fill:#60171E;}
</style>
<switch>
	
	<g i:extraneous="self">
		<rect id="XMLID_2_" x="-582" y="582.5" class="A" width="253.4" height="252.8"></rect>
		<path id="XMLID_3_" class="B" d="M-455.3,742.5c0.1,0,0.2,0,0.4,0c6.9,0,12.4,5.6,12.4,12.4c0,2.7-0.8,5.2-2.4,7.3l0,0
			c-3,4.1-4.6,8.9-4.6,14c0,6.6,2.7,12.8,7.5,17.3l0,0c7.2,6.8,13.7,14.4,19.2,22.6l0,0c4.1-4.3,7.4-9.1,9.9-14.5l0,0
			c6.2,6.8,14.9,10.6,24.1,10.6c1.3,0,2.5-0.1,3.8-0.2l0,0c7.2-0.8,14.4-1.3,21.6-1.3c3.6,0,7.1,0.1,10.7,0.3l0,0
			c-0.2-3.6-0.3-7.1-0.3-10.6c0-7.2,0.4-14.4,1.3-21.5l0,0c0.1-1.3,0.2-2.5,0.2-3.8c0-9.1-3.9-17.9-10.7-24l0,0
			c5.4-2.5,10.3-5.8,14.5-9.8l0,0c-8.3-5.5-15.9-11.9-22.7-19.2l0,0c-4.5-4.8-10.8-7.4-17.3-7.4c-5.1,0-10,1.6-14.1,4.6l0,0
			c-2.1,1.6-4.7,2.4-7.3,2.4c-6.9,0-12.4-5.6-12.4-12.4c0-0.1,0-0.2,0-0.4l0,0c0-0.1,0-0.2,0-0.4c0-6.9,5.6-12.4,12.4-12.4
			c2.6,0,5.2,0.8,7.3,2.4l0,0c4.1,3,9,4.6,14.1,4.6c6.6,0,12.8-2.7,17.3-7.4l0,0c6.8-7.2,14.4-13.6,22.7-19.2l0,0
			c-4.3-4.1-9.2-7.4-14.5-9.8l0,0c6.8-6.2,10.7-14.9,10.7-24c0-1.3-0.1-2.5-0.2-3.8l0,0c-0.8-7.1-1.3-14.4-1.3-21.5
			c0-3.6,0.1-7.1,0.3-10.6l0,0c-3.6,0.2-7.1,0.3-10.7,0.3c-7.2,0-14.5-0.4-21.6-1.3l0,0c-1.3-0.1-2.5-0.2-3.8-0.2
			c-9.2,0-17.9,3.9-24.1,10.6l0,0c-2.5-5.4-5.8-10.2-9.9-14.5l0,0c-5.5,8.2-11.9,15.9-19.2,22.6l0,0c-4.8,4.5-7.5,10.7-7.5,17.3
			c0,5.1,1.6,9.9,4.6,14l0,0c1.6,2.1,2.4,4.7,2.4,7.3c0,6.9-5.6,12.4-12.4,12.4c-0.1,0-0.2,0-0.4,0l0,0c-0.1,0-0.2,0-0.4,0
			c-6.9,0-12.4-5.6-12.4-12.4c0-2.7,0.8-5.2,2.4-7.3l0,0c3-4.1,4.6-8.9,4.6-14c0-6.6-2.7-12.8-7.5-17.3l0,0
			c-7.2-6.8-13.7-14.4-19.2-22.6l0,0c-4.1,4.3-7.4,9.1-9.9,14.5l0,0c-6.2-6.8-14.9-10.6-24.1-10.6c-1.3,0-2.5,0.1-3.8,0.2l0,0
			c-7.2,0.8-14.4,1.3-21.6,1.3c-3.6,0-7.1-0.1-10.7-0.3l0,0c0.2,3.6,0.3,7.1,0.3,10.6c0,7.1-0.4,14.2-1.3,21.4l0,0
			c-0.1,1.3-0.2,2.5-0.2,3.8c0,9.1,3.9,17.9,10.7,24l0,0c-5.4,2.5-10.3,5.8-14.5,9.8l0,0c8.3,5.5,15.9,11.9,22.7,19.2l0,0
			c4.5,4.8,10.8,7.4,17.3,7.4c5.1,0,10-1.6,14.1-4.6l0,0c2.1-1.6,4.7-2.4,7.3-2.4c6.9,0,12.4,5.6,12.4,12.4c0,0.1,0,0.2,0,0.4l0,0
			c0,0.1,0,0.2,0,0.4c0,6.9-5.6,12.4-12.4,12.4c-2.6,0-5.2-0.8-7.3-2.4l0,0c-4.1-3-9-4.6-14.1-4.6c-6.6,0-12.8,2.7-17.3,7.4l0,0
			c-6.8,7.2-14.4,13.6-22.7,19.2l0,0c4.3,4.1,9.2,7.4,14.5,9.8l0,0c-6.8,6.2-10.7,14.9-10.7,24c0,1.3,0.1,2.5,0.2,3.8l0,0
			c0.8,7.1,1.3,14.4,1.3,21.5c0,3.6-0.1,7.1-0.3,10.6l0,0c3.6-0.2,7.1-0.3,10.7-0.3c7.2,0,14.5,0.4,21.6,1.3l0,0
			c1.3,0.1,2.5,0.2,3.8,0.2c9.2,0,17.9-3.9,24.1-10.6l0,0c2.5,5.4,5.8,10.2,9.9,14.5l0,0c5.5-8.2,11.9-15.9,19.2-22.6l0,0
			c4.8-4.5,7.5-10.7,7.5-17.3c0-5.1-1.6-9.9-4.6-14l0,0c-1.6-2.1-2.4-4.7-2.4-7.3c0-6.9,5.6-12.4,12.4-12.4
			C-455.6,742.5-455.4,742.5-455.3,742.5L-455.3,742.5z"></path>
		<path id="XMLID_4_" class="C" d="M-470.5,708.9c0-8.3,6.8-15.1,15.2-15.1c8.4,0,15.2,6.8,15.2,15.1s-6.8,15.1-15.2,15.1
			C-463.7,724-470.5,717.2-470.5,708.9L-470.5,708.9z"></path>
	</g>
</switch>

</svg>