<svg version="1.1" id="Camada_1" xmlns:x="&amp;ns_extend;" xmlns:i="&amp;ns_ai;" xmlns:graph="&amp;ns_graphs;" xmlns="http://www.w3.org/2000/svg" xmlns:xlink="http://www.w3.org/1999/xlink" x="0px" y="0px" viewBox="-582 582.7 252.6 252.6" style="enable-background:new -582 582.7 252.6 252.6;" xml:space="preserve">
<style type="text/css">
	.A{fill:#004B6E;}
	.B{fill:#C97F44;}
	.C{fill:#DDAD63;}
</style>
<switch>
	
	<g i:extraneous="self">
		<rect id="XMLID_2_" x="-582.2" y="582.5" class="A" width="252.8" height="252.8"></rect>
		<path id="XMLID_3_" class="B" d="M-436.2,708.9c0-10.8-8.8-19.6-19.6-19.6c-10.8,0-19.6,8.8-19.6,19.6s8.8,19.6,19.6,19.6
			S-436.2,719.7-436.2,708.9"></path>
		<path id="XMLID_4_" class="C" d="M-373.1,657.9c8.6-7.3,13.6-17.9,13.6-29.2c0-4.6-0.8-9.2-2.5-13.6l0,0
			c-4.3-1.7-8.9-2.5-13.6-2.5c-11.3,0-21.9,5-29.2,13.6l0,0c-1.3,1.4-3.1,2.3-5.1,2.3c-3.8,0-6.9-3.1-6.9-6.9c0-0.2,0-0.5,0-0.7l0,0
			c-1.9-3-5.2-4.7-8.7-4.7c-3.8,0-7.3,2.1-9.1,5.4l0,0c-10.8,16.9-16.6,36.6-16.6,56.7c0,3.9,0.2,7.8,0.7,11.7l0,0
			c6.6,1.8,11.7,7,13.6,13.6l0,0c3.9,0.4,7.8,0.7,11.8,0.7c20.1,0,39.8-5.7,56.7-16.6l0,0c3.3-1.8,5.4-5.3,5.4-9.1
			c0-3.5-1.8-6.8-4.7-8.7l0,0c-0.2,0-0.5,0-0.7,0c-3.8,0-6.9-3.1-6.9-6.9C-375.3,661-374.5,659.2-373.1,657.9L-373.1,657.9z"></path>
		<path id="XMLID_5_" class="C" d="M-506.8,626.1c-7.3-8.6-17.9-13.6-29.2-13.6c-4.6,0-9.2,0.8-13.6,2.5l0,0
			c-1.7,4.3-2.5,8.9-2.5,13.6c0,11.3,5,21.9,13.6,29.2l0,0c1.4,1.3,2.3,3.1,2.3,5.1c0,3.8-3.1,6.9-6.9,6.9c-0.2,0-0.5,0-0.7,0l0,0
			c-3,1.9-4.7,5.2-4.7,8.7c0,3.8,2.1,7.3,5.4,9.1l0,0c16.9,10.8,36.6,16.6,56.7,16.6c3.9,0,7.8-0.2,11.7-0.7l0,0
			c1.8-6.6,7-11.7,13.6-13.6l0,0c0.4-3.9,0.7-7.8,0.7-11.8c0-20.1-5.7-39.8-16.6-56.7l0,0c-1.8-3.3-5.3-5.4-9.1-5.4
			c-3.5,0-6.8,1.8-8.7,4.7l0,0c0,0.2,0,0.5,0,0.7c0,3.8-3.1,6.9-6.9,6.9C-503.6,628.4-505.5,627.6-506.8,626.1L-506.8,626.1z"></path>
		<path id="XMLID_6_" class="C" d="M-538.5,759.8c-8.6,7.3-13.6,17.9-13.6,29.2c0,4.6,0.8,9.2,2.5,13.6l0,0
			c4.3,1.6,8.9,2.5,13.6,2.5c11.3,0,21.9-5,29.2-13.6l0,0c1.3-1.4,3.2-2.3,5.1-2.3c3.8,0,6.9,3.1,6.9,6.9c0,0.2,0,0.5,0,0.7l0,0
			c1.9,3,5.2,4.7,8.7,4.7c3.8,0,7.3-2.1,9.1-5.4l0,0c10.8-16.9,16.6-36.6,16.6-56.7c0-3.9-0.2-7.8-0.7-11.7l0,0
			c-6.6-1.8-11.7-7-13.6-13.6l0,0c-3.9-0.4-7.8-0.7-11.8-0.7c-20.1,0-39.8,5.7-56.7,16.6l0,0c-3.3,1.8-5.4,5.3-5.4,9.1
			c0,3.5,1.8,6.8,4.7,8.7l0,0c0.2,0,0.5,0,0.7,0c3.8,0,6.9,3.1,6.9,6.9C-536.3,756.7-537.1,758.5-538.5,759.8L-538.5,759.8z"></path>
		<path id="XMLID_7_" class="C" d="M-404.8,791.6c7.3,8.6,17.9,13.6,29.2,13.6c4.6,0,9.2-0.8,13.6-2.5l0,0
			c1.6-4.3,2.5-8.9,2.5-13.6c0-11.3-5-21.9-13.6-29.2l0,0c-1.4-1.3-2.3-3.1-2.3-5.1c0-3.8,3.1-6.9,6.9-6.9c0.2,0,0.5,0,0.7,0l0,0
			c3-1.9,4.7-5.2,4.7-8.7c0-3.8-2.1-7.3-5.4-9.1l0,0c-16.9-10.8-36.6-16.6-56.7-16.6c-3.9,0-7.8,0.2-11.7,0.7l0,0
			c-1.8,6.6-7,11.7-13.6,13.6l0,0c-0.4,3.9-0.7,7.8-0.7,11.7c0,20.1,5.7,39.8,16.6,56.7l0,0c1.8,3.3,5.3,5.4,9.1,5.4
			c3.5,0,6.8-1.8,8.7-4.7l0,0c0-0.2,0-0.5,0-0.7c0-3.8,3.1-6.9,6.9-6.9C-408,789.3-406.1,790.1-404.8,791.6L-404.8,791.6z"></path>
	</g>
</switch>

</svg>