<svg version="1.1" id="Camada_1" xmlns:x="&amp;ns_extend;" xmlns:i="&amp;ns_ai;" xmlns:graph="&amp;ns_graphs;" xmlns="http://www.w3.org/2000/svg" xmlns:xlink="http://www.w3.org/1999/xlink" x="0px" y="0px" viewBox="-582 582.7 252.6 252.6" style="enable-background:new -582 582.7 252.6 252.6;" xml:space="preserve">
<style type="text/css">
	.A{fill:#004B6E;}
	.B{fill:#C97F44;}
	.C{fill:#F5F2D9;}
	.D{fill:#A4AA5A;}
	.E{fill:#DDAD63;}
</style>
<switch>
	
	<g i:extraneous="self">
		<rect id="XMLID_1_" x="-582" y="582.7" class="A" width="252.6" height="252.6"></rect>
		<path id="XMLID_2_" class="B" d="M-360.7,708.4c0.8-0.4,1.4-1,1.9-1.7c-0.5-0.7-1.2-1.3-1.9-1.7c-2.1-1.1-3.9-2.8-5.1-4.8
			c-4.4-7.7-9.2-15.2-14.4-22.5c-4.9-7-12.8-11.3-21.3-11.9c-6.3-0.4-12.4,2.6-15.8,7.9c-1.7,2.6-4.1,4.7-6.9,6.1
			c-2.2,1-4.7,0.6-6.4-1.2c-1.7-1.6-2.2-4.2-1.2-6.4c1.4-2.8,3.5-5.2,6.1-6.9c5.3-3.4,8.4-9.5,7.9-15.8c-0.6-8.5-5-16.3-11.9-21.3
			c-7.3-5.2-14.8-10-22.5-14.4c-2.1-1.2-3.7-3-4.8-5.1c-0.4-0.8-1-1.4-1.7-1.9c-0.7,0.5-1.3,1.2-1.7,1.9c-1.1,2.1-2.8,3.9-4.8,5.1
			c-7.7,4.4-15.2,9.3-22.5,14.4c-7,4.9-11.3,12.7-11.9,21.3c-0.4,6.3,2.6,12.4,7.9,15.8c2.6,1.7,4.7,4.1,6.1,6.9
			c1,2.2,0.6,4.7-1.2,6.4c-1.6,1.8-4.2,2.2-6.4,1.2c-2.8-1.3-5.2-3.5-6.9-6.1c-3.4-5.3-9.5-8.4-15.8-7.9c-8.5,0.6-16.3,5-21.3,11.9
			c-5.2,7.3-10,14.8-14.4,22.5c-1.2,2.1-3,3.8-5.1,4.8c-0.8,0.4-1.4,1-1.9,1.7c0.5,0.7,1.2,1.3,1.9,1.7c2.1,1.1,3.9,2.8,5.1,4.8
			c4.4,7.7,9.3,15.2,14.4,22.5c4.9,7,12.7,11.4,21.3,11.9c6.3,0.4,12.4-2.6,15.8-7.9c1.7-2.6,4.1-4.7,6.9-6.1c2.2-1,4.7-0.6,6.4,1.2
			c1.7,1.6,2.2,4.2,1.2,6.4c-1.3,2.8-3.5,5.2-6.1,6.9c-5.3,3.4-8.4,9.5-7.9,15.8c0.6,8.5,5,16.3,11.9,21.3
			c7.3,5.2,14.8,10,22.5,14.4c2.1,1.2,3.8,3,4.8,5.1c0.4,0.8,1,1.4,1.7,1.9c0.7-0.5,1.3-1.1,1.7-1.9c1.1-2.1,2.8-3.9,4.8-5.1
			c7.7-4.5,15.2-9.3,22.5-14.4c7-4.9,11.3-12.8,11.9-21.3c0.4-6.3-2.6-12.4-7.9-15.8c-2.6-1.7-4.7-4.1-6.1-6.9
			c-1-2.2-0.6-4.7,1.2-6.4c1.6-1.7,4.2-2.2,6.4-1.2c2.8,1.4,5.2,3.5,6.9,6.1c3.4,5.3,9.5,8.4,15.8,7.9c8.5-0.6,16.3-5,21.3-11.9
			c5.2-7.3,10-14.8,14.4-22.5C-364.6,711.2-362.9,709.5-360.7,708.4z"></path>
		<path id="XMLID_3_" class="C" d="M-391.8,745.3c-3.1,1.4-6.4,2.2-9.7,2.5c-6.3,0.4-12.4-2.6-15.8-7.9c-1.7-2.6-4.1-4.7-6.9-6.1
			c-2.2-1-4.7-0.6-6.4,1.2c-1.7,1.6-2.2,4.2-1.2,6.4c1.4,2.8,3.5,5.2,6.1,6.9c5.3,3.4,8.4,9.5,7.9,15.8c-0.2,3.4-1.1,6.7-2.5,9.7
			c11.5,7.2,25,10.8,38.6,10.2C-381,770.3-384.5,756.8-391.8,745.3z"></path>
		<path id="XMLID_4_" class="D" d="M-381.6,783.9c-13.6,0.6-27.1-2.9-38.6-10.2c-1.9,4.2-4.8,7.9-8.4,10.7
			c5.5,8.9,15.6,13.9,26,13c4.7-0.4,9.4-0.6,14.1-0.5c5.7,0.1,11.3,0.7,16.8,2c1.8,0.4,3.7,0.6,5.5,0.4c0.1-1.9,0-3.7-0.4-5.5
			c-1.3-5.5-1.9-11.2-2-16.8c0-4.7,0.1-9.4,0.5-14.1c0.9-10.4-4.1-20.4-13-26c-2.8,3.6-6.5,6.5-10.7,8.4
			C-384.5,756.8-381,770.3-381.6,783.9z"></path>
		<path id="XMLID_5_" class="D" d="M-366.6,619.7c0.4-1.8,0.6-3.6,0.4-5.5c-1.9-0.1-3.7,0-5.5,0.4c-5.5,1.3-11.2,1.9-16.8,2
			c-4.7,0-9.4-0.1-14.1-0.5c-10.4-0.9-20.4,4.1-26,13c3.6,2.8,6.5,6.5,8.4,10.7c11.5-7.2,25-10.8,38.6-10.2
			c0.6,13.6-2.9,27.1-10.2,38.6c4.2,1.9,7.9,4.8,10.7,8.4c8.9-5.5,13.9-15.6,13-26c-0.4-4.7-0.6-9.4-0.5-14.1
			C-368.6,630.8-367.9,625.2-366.6,619.7z"></path>
		<path id="XMLID_6_" class="C" d="M-381.6,629.6c-13.6-0.6-27.1,2.9-38.6,10.2c1.4,3.1,2.2,6.4,2.5,9.8
			c0.4,6.3-2.6,12.4-7.9,15.8c-2.6,1.7-4.7,4.1-6.1,6.9c-1,2.2-0.6,4.7,1.2,6.4c1.6,1.8,4.2,2.2,6.4,1.2c2.8-1.3,5.2-3.5,6.9-6.1
			c3.4-5.3,9.5-8.4,15.8-7.9c3.4,0.2,6.7,1.1,9.7,2.4C-384.5,656.7-381,643.2-381.6,629.6z"></path>
		<path id="XMLID_7_" class="E" d="M-409.7,706.7c-0.2,0.6-0.7,0.9-1.3,0.9c-1.3,0.2-2.5,0.7-3.5,1.5c-5.3,3.5-11.3,5.8-17.6,6.6
			c-1.4,4.1-3.7,7.8-6.7,10.8c-3.1,3-6.8,5.4-10.8,6.7c-0.8,6.3-3.1,12.3-6.6,17.6c-0.8,1-1.4,2.2-1.5,3.5c0,0.6-0.3,1.1-0.9,1.3
			c-0.6-0.2-0.9-0.7-0.9-1.3c-0.2-1.3-0.7-2.5-1.5-3.5c-3.5-5.3-5.8-11.3-6.6-17.6c-4.1-1.4-7.8-3.7-10.9-6.7
			c-3.1-3-5.4-6.8-6.7-10.8c-6.3-0.8-12.3-3.1-17.6-6.6c-1-0.8-2.2-1.4-3.5-1.5c-0.6,0.1-1.1-0.3-1.3-0.9c0.2-0.6,0.7-0.9,1.3-0.9
			c1.3-0.2,2.5-0.7,3.5-1.5c5.3-3.5,11.3-5.8,17.6-6.6c1.4-4.1,3.7-7.8,6.7-10.9c3-3,6.8-5.4,10.9-6.7c0.8-6.3,3-12.3,6.6-17.6
			c0.9-1,1.4-2.2,1.5-3.5c0-0.6,0.3-1.1,0.9-1.3c0.6,0.2,0.9,0.7,0.9,1.3c0.2,1.3,0.7,2.5,1.5,3.5c3.5,5.3,5.8,11.3,6.6,17.6
			c4.1,1.4,7.8,3.7,10.8,6.7c3,3.1,5.4,6.8,6.7,10.9c6.3,0.8,12.3,3.1,17.6,6.6c1,0.8,2.2,1.4,3.5,1.5
			C-410.4,705.8-409.9,706.2-409.7,706.7z"></path>
		<path id="XMLID_8_" class="C" d="M-499.7,649.5c0.2-3.4,1.1-6.7,2.5-9.8c-11.5-7.2-25-10.8-38.6-10.2
			c-0.6,13.6,2.9,27.1,10.2,38.6c3.1-1.4,6.4-2.2,9.7-2.4c6.3-0.4,12.4,2.6,15.8,7.9c1.7,2.6,4.1,4.7,6.9,6.1c2.2,1,4.7,0.6,6.4-1.2
			c1.7-1.6,2.2-4.2,1.2-6.4c-1.3-2.8-3.5-5.2-6.1-6.9C-497.1,661.9-500.2,655.8-499.7,649.5z"></path>
		<path id="XMLID_9_" class="D" d="M-535.9,629.6c13.6-0.6,27.1,2.9,38.6,10.2c1.9-4.2,4.8-7.9,8.4-10.7c-5.5-8.9-15.6-13.9-26-13
			c-4.7,0.4-9.4,0.6-14.1,0.5c-5.7,0-11.3-0.7-16.8-2c-1.8-0.4-3.7-0.6-5.5-0.4c-0.1,1.9,0,3.7,0.4,5.5c1.3,5.5,1.9,11.2,2,16.8
			c0,4.7-0.1,9.4-0.5,14.1c-0.9,10.4,4.1,20.4,13,26c2.8-3.6,6.5-6.5,10.7-8.4C-532.9,656.7-536.5,643.2-535.9,629.6z"></path>
		<path id="XMLID_10_" class="C" d="M-499.7,764c-0.4-6.3,2.6-12.4,7.9-15.8c2.6-1.7,4.7-4.1,6.1-6.9c1-2.2,0.6-4.7-1.2-6.4
			c-1.6-1.7-4.2-2.2-6.4-1.2c-2.8,1.4-5.2,3.5-6.9,6.1c-3.4,5.3-9.5,8.4-15.8,7.9c-3.4-0.2-6.7-1.1-9.7-2.5
			c-7.2,11.5-10.8,25-10.2,38.6c13.6,0.6,27.1-2.9,38.6-10.2C-498.7,770.6-499.5,767.3-499.7,764z"></path>
		<path id="XMLID_11_" class="D" d="M-488.9,784.4c-3.6-2.8-6.5-6.5-8.4-10.7c-11.5,7.2-25,10.8-38.6,10.2
			c-0.6-13.6,2.9-27.1,10.2-38.6c-4.2-1.9-7.9-4.8-10.7-8.4c-8.9,5.5-13.9,15.6-13,26c0.4,4.7,0.6,9.4,0.5,14.1
			c0,5.7-0.7,11.3-2,16.8c-0.4,1.8-0.6,3.7-0.4,5.5c1.8,0.1,3.7,0,5.5-0.4c5.5-1.3,11.2-1.9,16.8-2c4.7,0,9.4,0.1,14.1,0.5
			C-504.4,798.3-494.4,793.3-488.9,784.4z"></path>
	</g>
</switch>

</svg>