<svg version="1.1" id="Camada_1" xmlns:x="&amp;ns_extend;" xmlns:i="&amp;ns_ai;" xmlns:graph="&amp;ns_graphs;" xmlns="http://www.w3.org/2000/svg" xmlns:xlink="http://www.w3.org/1999/xlink" x="0px" y="0px" viewBox="0 0 252.6 252.6" style="enable-background:new 0 0 252.6 252.6;" xml:space="preserve">
<style type="text/css">
	.ladsvg-4986-st0{fill:#8DB7A8;}
	.ladsvg-4986-st1{fill:#F7FBF7;}
	.ladsvg-4986-st2{fill:#61181F;}
</style>
<switch>
	
	<g i:extraneous="self">
		<rect id="XMLID_2_" x="0" y="0" class="ladsvg-4986-st0" width="252.9" height="252.9"></rect>
		<path id="XMLID_3_" class="ladsvg-4986-st1" d="M209.3,177.2c4.5-2.4,8.1-6.1,10.7-10.5l0,0c2.5-4.3,3.8-9.2,3.8-14.2c0-4.5-1.1-9-3.2-13.1
			l0,0c-3.1-5.9-9.2-9.6-15.8-9.6c-6.3,0-12.2,3.4-15.4,8.8l0,0c4,3.5,7.1,7.7,9.3,12.5l0,0c0.5,1,0.7,2.1,0.7,3.3
			c0,4.3-3.5,7.8-7.8,7.8c-1.1,0-2.3-0.2-3.3-0.7l0,0c-13.7-6.3-24.3-18-29.2-32.3l0,0h-21.7c0.6,5.6,3.1,10.9,7,15.1l0,0
			c-4.1-3.9-9.4-6.4-15.1-7l0,0V159c14.3,4.9,26,15.5,32.3,29.2l0,0c0.5,1,0.7,2.1,0.7,3.3c0,4.3-3.5,7.8-7.8,7.8
			c-1.1,0-2.2-0.2-3.3-0.7l0,0c-4.8-2.2-9-5.4-12.5-9.3l0,0c-5.5,3.2-8.8,9.1-8.8,15.4c0,6.6,3.7,12.7,9.6,15.8l0,0
			c4,2.1,8.5,3.2,13.1,3.2c5,0,9.9-1.3,14.2-3.8l0,0c4.4-2.5,8-6.2,10.5-10.7l0,0c9.5,10.2,22.8,16.1,36.8,16.1
			c3.5,0,6.9-0.4,10.3-1.1l0,0c0.7-3.4,1.1-6.8,1.1-10.3C225.4,200.1,219.7,186.7,209.3,177.2L209.3,177.2z"></path>
		<path id="XMLID_4_" class="ladsvg-4986-st1" d="M209.3,75.6c10.2-9.5,16.1-22.8,16.1-36.8c0-3.5-0.4-6.9-1.1-10.3l0,0
			c-3.4-0.7-6.8-1.1-10.3-1.1c-14,0-27.3,5.8-36.8,16.1l0,0c-2.4-4.5-6.1-8.2-10.5-10.7l0,0c-4.3-2.5-9.2-3.8-14.2-3.8
			c-4.5,0-9,1.1-13.1,3.2l0,0c-5.9,3.1-9.6,9.2-9.6,15.8c0,6.3,3.4,12.2,8.8,15.4l0,0c3.5-4,7.7-7.1,12.5-9.3l0,0
			c1-0.5,2.1-0.7,3.3-0.7c4.3,0,7.8,3.5,7.8,7.8c0,1.1-0.2,2.2-0.7,3.3l0,0c-6.3,13.7-18,24.3-32.3,29.2l0,0v21.7
			c5.6-0.6,10.9-3.1,15.1-7l0,0c-3.9,4.1-6.4,9.4-7,15.1l0,0h21.7c4.9-14.3,15.5-26,29.2-32.3l0,0c1-0.5,2.1-0.7,3.3-0.7
			c4.3,0,7.8,3.5,7.8,7.8c0,1.1-0.2,2.2-0.7,3.3l0,0c-2.2,4.8-5.4,9-9.3,12.5l0,0c3.2,5.5,9.1,8.8,15.4,8.8c6.7,0,12.7-3.7,15.8-9.6
			l0,0c2.1-4,3.2-8.5,3.2-13.1c0-5-1.3-9.9-3.8-14.2l0,0C217.6,81.6,213.8,78,209.3,75.6L209.3,75.6z"></path>
		<path id="XMLID_5_" class="ladsvg-4986-st1" d="M123.6,93.7c-14.3-4.9-26-15.5-32.3-29.2l0,0c-0.5-1-0.7-2.1-0.7-3.3c0-4.3,3.5-7.8,7.8-7.8
			c1.1,0,2.2,0.2,3.3,0.7l0,0c4.8,2.2,9,5.4,12.5,9.3l0,0c5.5-3.2,8.8-9.1,8.8-15.4c0-6.6-3.7-12.7-9.6-15.8l0,0
			c-4-2.1-8.5-3.2-13.1-3.2c-5,0-9.9,1.3-14.2,3.8l0,0c-4.4,2.5-8,6.2-10.5,10.7l0,0c-9.5-10.2-22.8-16.1-36.8-16.1
			c-3.5,0-6.9,0.4-10.3,1.1l0,0c-0.7,3.4-1.1,6.8-1.1,10.3c0,14,5.8,27.3,16.1,36.8l0,0C39,78,35.3,81.7,32.8,86.1l0,0
			c-2.5,4.3-3.8,9.2-3.8,14.2c0,4.5,1.1,9,3.2,13.1l0,0c3.1,5.9,9.2,9.6,15.8,9.6c6.3,0,12.2-3.4,15.4-8.8l0,0
			c-4-3.5-7.1-7.7-9.3-12.5l0,0c-0.5-1-0.7-2.1-0.7-3.3c0-4.3,3.5-7.8,7.8-7.8c1.1,0,2.2,0.2,3.3,0.7l0,0
			c13.7,6.3,24.3,18,29.2,32.3l0,0h21.7c-0.6-5.6-3.1-10.9-7-15.1l0,0c4.1,3.9,9.4,6.4,15.1,7l0,0L123.6,93.7z"></path>
		<path id="XMLID_6_" class="ladsvg-4986-st1" d="M123.6,159.1v-21.7c-5.6,0.6-10.9,3.1-15.1,7l0,0c3.9-4.1,6.4-9.4,7-15.1l0,0H93.8
			c-4.9,14.3-15.5,26-29.2,32.3l0,0c-1,0.5-2.1,0.7-3.3,0.7c-4.3,0-7.8-3.5-7.8-7.8c0-1.1,0.2-2.2,0.7-3.3l0,0
			c2.2-4.8,5.4-9,9.3-12.5l0,0c-3.2-5.5-9.1-8.8-15.4-8.8c-6.6,0-12.7,3.7-15.8,9.6l0,0c-2.1,4-3.2,8.5-3.2,13.1
			c0,5,1.3,9.9,3.8,14.2l0,0c2.5,4.4,6.2,8,10.7,10.5l0,0c-10.2,9.5-16.1,22.8-16.1,36.8c0,3.5,0.4,6.9,1.1,10.3l0,0
			c3.4,0.7,6.8,1.1,10.3,1.1c14,0,27.3-5.8,36.8-16.1l0,0c2.4,4.5,6.1,8.2,10.5,10.7l0,0c4.3,2.5,9.2,3.8,14.2,3.8
			c4.5,0,9-1.1,13.1-3.2l0,0c5.9-3.1,9.6-9.2,9.6-15.8c0-6.3-3.4-12.2-8.8-15.4l0,0c-3.5,4-7.7,7.1-12.5,9.3l0,0
			c-1,0.5-2.1,0.7-3.3,0.7c-4.3,0-7.8-3.5-7.8-7.8c0-1.1,0.2-2.3,0.7-3.3l0,0C97.6,174.6,109.2,164,123.6,159.1L123.6,159.1z"></path>
		<path id="XMLID_7_" class="ladsvg-4986-st2" d="M144.4,108.4c-4.1,3.9-9.4,6.4-15.1,7c-1,0.1-2,0.2-3,0.2c-6.7,0-13.1-2.6-18-7.2l0,0
			c4.6,4.9,7.2,11.3,7.2,18s-2.6,13.1-7.2,18l0,0c4.1-3.9,9.4-6.4,15.1-7c1-0.1,2-0.2,3-0.2c6.7,0,13.1,2.6,18,7.2l0,0
			c-3.9-4.1-6.4-9.4-7-15.1c-0.1-1-0.2-2-0.2-3C137.3,119.7,139.8,113.3,144.4,108.4L144.4,108.4z"></path>
	</g>
</switch>

</svg>