<svg xmlns="http://www.w3.org/2000/svg" viewBox="0 0 432 432"><defs><style>.a{fill:#fff;}.b{fill:#4169e1;}.c{fill:#ffdb58;}</style></defs><title>1600</title><rect class="a" width="432" height="432"/><path class="b" d="M215.09,332.18c-9.44,32.11-40.68,43.06-40.68,43.06v21.88c-48.7,0-45.88,34.88-45.88,34.88H87.12c0-38.65-43.56-34.76-43.56-34.76V374.65S0,367.12,0,323.82s43.56-53.64,43.56-53.64V248.06S87.12,250.88,87.12,216s-43.56-31.47-43.56-31.47V162.88S0,149.24,0,109.71,41.47,56.06,41.47,56.06V32.53S64.29,36.06,75.35,25A41.75,41.75,0,0,0,87.12,0h41.41c0,37.53,46.59,35,46.59,35s-.18,16.24-.18,22.24c35.65,16.05,40.15,45.7,40.15,45.7v16.59c-8,33.18-39.62,45.53-39.62,45.53v20.65s-45.71-6.18-45.71,30.29,45.71,33.24,45.71,33.24v21c33.53,12.52,39.62,46.23,39.62,46.23Z" transform="translate(0 0)"/><path class="b" d="M215.09,332.18c9.44,32.11,40.67,43.06,40.67,43.06v21.88c48.71,0,45.89,34.88,45.89,34.88h41.41c0-38.65,43.56-34.76,43.56-34.76V374.65s43.56-7.53,43.56-50.83-43.56-53.64-43.56-53.64V248.06s-43.56,2.82-43.56-32.06,43.56-31.47,43.56-31.47V162.88s43.56-13.64,43.56-53.17-41.47-53.65-41.47-53.65V32.53S365.88,36.06,354.82,25A41.7,41.7,0,0,1,343.06,0H301.65c0,37.53-46.59,35-46.59,35s.18,16.24.18,22.24c-35.65,16.05-40.15,45.7-40.15,45.7v16.59c8,33.18,39.62,45.53,39.62,45.53v20.65s45.7-6.18,45.7,30.29-45.7,33.24-45.7,33.24v21c-33.53,12.52-39.62,46.23-39.62,46.23Z" transform="translate(0 0)"/><path class="c" d="M108.72,9.05S99.06,51.81,64.06,51.13V71.37s-43.53.24-43.53,37.53S64,149.49,64,149.49v19.23s35.37-2.82,44.37,41.3c0,0,8.47-39.71,44.65-39.53v-20.3s43.41-2.52,43.41-38.12-43.59-39-43.59-39V52.6S120.55,57.14,108.72,9.05Z" transform="translate(0 0)"/><path class="c" d="M322.86,9.05s-9.67,42.76-44.67,42.08V71.37s-43.53.24-43.53,37.53,43.51,40.59,43.51,40.59v19.23s35.37-2.82,44.37,41.3c0,0,8.47-39.71,44.65-39.53v-20.3s43.41-2.52,43.41-38.12-43.59-39-43.59-39V52.6S334.68,57.14,322.86,9.05Z" transform="translate(0 0)"/><path class="c" d="M322.86,223.71s-9.67,42.76-44.67,42.08V286s-43.53.24-43.53,37.52,43.51,40.59,43.51,40.59v19.24s35.37-2.83,44.37,41.29c0,0,8.47-39.7,44.65-39.53V364.85s43.41-2.52,43.41-38.12-43.59-39-43.59-39V267.26S334.68,271.8,322.86,223.71Z" transform="translate(0 0)"/><path class="c" d="M108.72,223.71s-9.66,42.76-44.66,42.08V286s-43.53.24-43.53,37.52S64,364.14,64,364.14v19.24s35.37-2.83,44.37,41.29c0,0,8.47-39.7,44.65-39.53V364.85s43.41-2.52,43.41-38.12-43.59-39-43.59-39V267.26S120.55,271.8,108.72,223.71Z" transform="translate(0 0)"/><path class="c" d="M131.79,34.47" transform="translate(0 0)"/></svg>