<?xml version="1.0" encoding="utf-8"?>
<!-- Generator: Adobe Illustrator 23.0.3, SVG Export Plug-In . SVG Version: 6.00 Build 0)  -->
<svg version="1.1" xmlns="http://www.w3.org/2000/svg" xmlns:xlink="http://www.w3.org/1999/xlink" x="0px" y="0px"
	 viewBox="0 0 432 432" style="enable-background:new 0 0 432 432;" xml:space="preserve">
<style type="text/css">
	.st0{fill:#FFFFFF;}
	.st1{fill:#FFDB58;}
	.st2{fill:#084D6E;}
</style>
<g id="Layer_5">
	<rect class="st0" width="432" height="431.5"/>
</g>
<g id="Layer_2">
	<polygon class="st1" points="77.7,0 53.2,53.7 0,78.7 0,0 	"/>
	<polygon class="st1" points="432,77.7 378.3,53.2 353.3,0 432,0 	"/>
	<polygon class="st1" points="354.3,432 378.8,378.3 432,353.3 432,432 	"/>
	<polygon class="st1" points="0,354.3 53.7,378.8 78.7,432 0,432 	"/>
</g>
<g id="Layer_3">
	<polygon class="st2" points="0,95.4 56.6,69.4 144.4,156.5 118.4,216 144.4,278.2 58.1,362.5 0,335.1 	"/>
	<polygon class="st2" points="432,336.5 375.4,362.5 287.6,275.4 313.6,215.9 287.6,153.6 373.9,69.4 432,96.8 	"/>
	<polygon class="st2" points="336.6,0 362.6,56.6 275.5,144.4 215.9,118.4 153.7,144.4 69.4,58.1 96.9,0 	"/>
	<polygon class="st2" points="95.4,432 69.4,375.4 156.5,287.6 216.1,313.6 278.3,287.6 362.6,373.9 335.1,432 	"/>
	<polygon class="st2" points="273.2,160.3 216.2,136.5 159.1,160 135.3,217 158.8,274.2 215.8,298 272.9,274.5 296.7,217.5 	"/>
</g>
<g id="Layer_4">
	<polygon class="st1" points="240.3,191.9 216.1,181.8 191.9,191.7 181.8,215.9 191.7,240.1 215.9,250.2 240.1,240.3 250.2,216.1 	
		"/>
</g>
</svg>
