<svg xmlns="http://www.w3.org/2000/svg" viewBox="0 0 432 432"><defs><style>.a{fill:#fff;}.b{fill:red;}.c{fill:#ffe4e1;}</style></defs><title>1604</title><rect class="a" width="432" height="432"/><path class="b" d="M428.14,4.54S434.88,179,298.75,306.43c0,0,36.6,63.86,97,59.63,1.76,9.88,2.47,28.23,16.58,45.88-4.58-.7-29.64-7.35-57.53,6.35-2.11-12.35,3.18-28.23-68.82-96C263,342.06,177.24,436.65,2.88,427.82,5,402.76,7.12,221.24,127.59,127.12c0,0-20.06-5.3-37-24.36-2.65,6.53-9.88,24.53-30,19.42S32.71,93.24,33.41,67.65s-5.12-31.94-5.12-31.94,10.24,7.58,41.65,6,38.3,9.17,38.3,9.17S131,73.12,100.47,90.41c1.41,2.3,7.24,16.41,40.94,25.59C147.06,111.59,249.16-1.34,428.14,4.54Z"/><path class="c" d="M261.24,60.29s-89.89,116.77,9.88,244.24c-16,15.53-117.65,109.65-245.18,104,0,0,3.3-171.77,108.71-258.82,0,0,19.29,44.82-6.83,100.94s-68.11,67.41-68.11,67.41,21.88,38.47-7.06,59.65c0,0,25.41,10.23,46.59-19.06,0,0,16.23,16.23,34.58,10.23,0,0-52.23-69.17,42.71-132.35C176.53,236.53,105.24,134.29,261.24,60.29Z"/><path class="c" d="M408.06,21.94s.35,145.41-122.47,266.82c0,0-49.77-60-33.88-125.29,0,0,33.88,16.94,33.88,77.65,0,0,40.94-16.94,16.23-58.94,0,0,54.36-10.94,42.36-60.36,0,0-31.09,46.66-71.3,22.24S285.59,17.35,408.06,21.94Z"/></svg>