<svg xmlns="http://www.w3.org/2000/svg" viewBox="0 0 432 432"><defs><style>.a{fill:#fff;}.b{fill:#fad02c;}.c{fill:#cf0e0e;}</style></defs><title>1606</title><rect class="a" width="432" height="432"/><path class="b" d="M.71,190.17l-.71,0v51.62l.71,0a25.83,25.83,0,0,0,0-51.66Z"/><path class="b" d="M241.83.71c0-.24,0-.47,0-.71H190.19c0,.24,0,.47,0,.71a25.83,25.83,0,0,0,51.66,0Z"/><path class="b" d="M431.29,241.83l.71,0V190.19l-.71,0a25.83,25.83,0,0,0,0,51.66Z"/><path class="b" d="M190.17,431.29c0,.24,0,.47,0,.71h51.62c0-.24,0-.47,0-.71a25.83,25.83,0,1,0-51.66,0Z"/><path class="b" d="M0,0S90.41-1.35,145.47,57.47s54,72,70.53,148.71v11.76H204.29S107.82,217,47.12,134.65C47.12,134.65-3.35,78.53,0,0Z"/><path class="b" d="M432,433.94s-90.41,1.35-145.47-57.47S222.18,292.76,216,227.76V216h11.71s96.47.94,157.17,83.29C384.88,299.29,435.35,355.41,432,433.94Z"/><path class="b" d="M433.05,1.08s-.76,95.16-59.58,150.21-107.65,66.65-146.6,65.79H215.11V205.37s.94-96.47,83.29-157.18C298.4,48.19,354.52-2.28,433.05,1.08Z"/><path class="b" d="M-.63,432S.13,336.88,59,281.83,166.6,215.18,205.55,216h11.76v11.71s-.94,96.47-83.29,157.18C134,384.93,77.9,435.4-.63,432Z"/><path class="c" d="M11.65,10.88S74.41,9,138.88,66.88s66.36,140.24,66.36,140.24-86.59-1.88-147.3-76.24C57.94,130.88,7.92,75.35,11.65,10.88Z"/><path class="c" d="M418.53,420.64s-62.76,1.88-127.23-56S224.94,224.4,224.94,224.4s86.59,1.89,147.3,76.24C372.24,300.64,422.26,356.17,418.53,420.64Z"/><path class="c" d="M419.67,12.9s3.55,62.69-52.59,128.68-138.42,70.07-138.42,70.07S228.24,125,301,62.37C301,62.37,355.12,10.89,419.67,12.9Z"/><path class="c" d="M13.28,419.22s-1.89-62.76,56-127.23,140.24-66.36,140.24-66.36-1.88,86.59-76.23,147.3C133.28,372.93,77.75,423,13.28,419.22Z"/></svg>