<svg xmlns="http://www.w3.org/2000/svg" viewBox="0 0 432 432"><defs><style>.a{fill:#fff;}.b{fill:#c2e2ad;}</style></defs><title>1607</title><rect class="a" width="432" height="432"/><path class="b" d="M436.37,330.8,367.06,359l-69.24-70.71a87.92,87.92,0,0,0-26.68-100.42A51.6,51.6,0,0,0,334,108.64L369.26,74.5l64.44,28.1,5.39-12.37L373.52,61.64l-2.65-2.73L343.39-8.76l-12.5,5.07L359,65.62l-35,33.89a51.6,51.6,0,0,0-64.18,80.57,88,88,0,0,0-84.2-1.94A51.6,51.6,0,0,0,108.76,100L73.42,63.54,101.52-.9,89.15-6.3,60.56,59.28l-2.73,2.64L-9.84,89.4l5.07,12.51L64.54,73.76,99,109.29a51.61,51.61,0,0,0,60,80.13A87.92,87.92,0,0,0,135,290.36l-71,69.5L-.45,331.76l-5.39,12.37,65.57,28.59,2.65,2.73,27.48,67.67,12.5-5.07L74.22,368.74l67.34-65.87a87.86,87.86,0,0,0,150-1.77l66.66,68.08-28.1,64.44L342.45,439,371,373.43l2.73-2.64,67.68-27.48Z"/></svg>