<svg xmlns="http://www.w3.org/2000/svg" viewBox="0 0 432 432"><defs><style>.a{fill:#084d6e;}.b{fill:#fff;}.c{fill:#eccb88;}.d{fill:#71c1e8;}</style></defs><title>1611</title><rect class="a" width="432" height="432"/><polygon class="b" points="0 406.65 52.29 324.76 52.29 251.35 0 242.18 0 225.24 52.29 203.35 52.29 144.06 0 88.29 0 68.53 49.47 117.94 49.47 52.29 114.41 52.29 59.35 0 84.77 0 134.18 53.71 197.71 53.71 224.53 0 236.53 0 247.12 53 323.35 53 407.35 0 432 0 432 7.82 357.24 51.59 392.53 51.59 432 91.12 432 113.71 400.29 161 386.18 161 386.18 259.12 432 330.41 432 351.59 410.88 374.88 386.18 360.06 387.59 389.71 356.53 389.71 370.65 412.29 349.85 433.09 324.76 433.09 252.06 387.59 156.76 387.59 156.76 398.88 106.65 432 89 432 49.47 396.06 49.47 357.94 5 432 0 432 0 406.65"/><polygon class="c" points="65.47 68.29 65.47 134.18 107.35 176.53 152.06 156.76 173.24 112.53 130.41 69.71 65.47 68.29"/><polygon class="c" points="154.41 70.18 211.82 70.18 228.76 32.53 232.53 70.18 294.18 70.18 254.65 94.65 254.65 138.88 216 115.82 175.59 141.71 192.06 108.29 154.41 70.18"/><polygon class="c" points="65.47 156.76 65.47 216 28.29 231.12 65.47 235.35 65.47 301.71 91.35 257 135.12 257.47 112.53 220.29 138.88 179.35 105.47 195.82 65.47 156.76"/><polygon class="d" points="161.94 166.18 216 136.06 252.76 156.76 252.76 194.41 234.41 208.53 275.82 281 201.94 238.18 188.53 257.78 154.41 257.78 132.06 218.41 161.94 166.18"/><polygon class="d" points="326.88 68.29 385.12 68.29 415.82 99.94 390.76 141.71 368.88 141.71 367.47 229.24 320.88 156.76 301.82 165.94 269.71 148.76 269.71 104.18 326.88 68.29"/><polygon class="d" points="227 371 154.41 324.06 161.35 306.76 143.71 274.29 101.71 274.29 67.47 330.41 65.47 385.47 98.88 415.82 138.88 391.82 138.88 371.71 227 371"/><polygon class="c" points="328.29 371.35 292.65 308.18 207.24 259.82 198.76 274.29 164.18 274.29 179.35 305.35 173.24 318.76 255.94 371.35 328.29 371.35"/><polygon class="c" points="367.47 332.88 367.47 262.29 315.94 178.65 302.18 184.29 269.71 167 269.71 203 256.65 211.47 303.59 298.29 367.47 332.88"/><polygon class="d" points="384.41 289.82 384.41 342.76 404.88 353.35 417.94 339.24 384.41 289.82"/><polygon class="d" points="367.47 350.88 318.76 321.59 346.65 371.35 367.47 371.35 367.47 350.88"/><polygon class="d" points="338.18 387.94 284.88 387.94 335.71 420.06 349.47 408.41 338.18 387.94"/></svg>