<svg xmlns="http://www.w3.org/2000/svg" viewBox="0 0 432 432"><defs><style>.a{fill:#fff;}.b{fill:#03bb85;}</style></defs><title>1612</title><polygon class="a" points="219.59 432 0 432 0.02 368.18 51.94 324.91 106.78 322.2 116.18 338.53 170.53 398.53 219.59 432"/><polygon class="a" points="219.59 432 432 432 319.47 320.53 289.12 318.41 239.35 329 212.53 398.53 219.59 432"/><polygon class="a" points="432.11 216 325.12 113 256.29 118.65 216 160.29 214.41 217.82 219.59 219.94 319.47 320.53 395.35 339.59 420.06 288.06 432.1 259.12 432.11 216"/><polygon class="a" points="107.59 111.35 128.6 192.61 219.59 219.94 223.14 259.12 181.47 314.18 126.41 332.53 109.12 324.94 81.23 247.12 0.07 212.49 4.29 147.59 47.35 113 85.47 107.15 107.59 111.35"/><path class="b" d="M432,432s-110.76-9.82-112.53-111.47c10.24,0,116.93,9.53,112.64-102.71C432.11,284.18,432,432,432,432Z"/><path class="b" d="M219.59,432s-9.18-108.29,99.88-111.47c0,0,12.35-91.41-99.88-100.59.35,6.71-1.35,111.88-110.47,105C108.76,332.88,102.41,427.76,219.59,432Z"/><path class="b" d="M0,432S-4.18,317,109.12,324.94c0-13.94,6.37-116-109-112.45C.07,230.53,0,432,0,432Z"/><path class="b" d="M0,214.29S1.24,106.18,107.59,111.35c6.12-18.82-9.06-65.41-10.12-66.47S65.35,16.29,65.35,16.29L29.71,0H0Z"/><path class="b" d="M219.59,219.94s-7.06-48.35,32.12-78.35S325.12,113,325.12,113l11.29-11.29L316.65,27.59,247.82,0H208.65L107.59,111.35s-8.71,64.12,31.17,89.53S219.59,219.94,219.59,219.94Z"/><path class="a" d="M223.12,0s2.12,51.59-32.5,82.62c0,0-32.21,30.38-83,28.73C107.82,101.94,118.53,16.88,0,0Z"/><path class="b" d="M432.11,216s-111.23,1.47-107-103c15.53-5.29,48.7-33.18,48.7-33.18L432,0Z"/><path class="a" d="M432,0s7.82,103.12-106.88,113c0-13.76,7.76-105.29-102-113Z"/></svg>