<svg xmlns="http://www.w3.org/2000/svg" viewBox="0 0 432 432"><defs><style>.a{fill:#084d6e;}.b{fill:#fff;}</style></defs><title>1613</title><rect class="a" width="432" height="432"/><polygon class="b" points="72.52 72.61 41 145.08 72.52 217.56 104.03 145.08 72.52 72.61"/><polygon class="b" points="72.52 -72.35 41 0.13 72.52 72.61 104.03 0.13 72.52 -72.35"/><polygon class="b" points="72.52 72.61 144.99 104.12 217.47 72.61 144.99 41.09 72.52 72.61"/><polygon class="b" points="-72.43 72.61 0.04 104.12 72.52 72.61 0.04 41.09 -72.43 72.61"/><polygon class="b" points="360.95 72.61 329.44 145.08 360.95 217.56 392.47 145.08 360.95 72.61"/><polygon class="b" points="360.95 -72.35 329.44 0.13 360.95 72.61 392.47 0.13 360.95 -72.35"/><polygon class="b" points="360.95 72.61 433.43 104.12 505.9 72.61 433.43 41.09 360.95 72.61"/><polygon class="b" points="216 72.61 288.48 104.12 360.95 72.61 288.48 41.09 216 72.61"/><polygon class="b" points="72.52 362.51 41 434.99 72.52 507.46 104.03 434.99 72.52 362.51"/><polygon class="b" points="72.52 217.56 41 290.04 72.52 362.51 104.03 290.04 72.52 217.56"/><polygon class="b" points="72.52 362.51 144.99 394.03 217.47 362.51 144.99 330.99 72.52 362.51"/><polygon class="b" points="-72.43 362.51 0.04 394.03 72.52 362.51 0.04 330.99 -72.43 362.51"/><polygon class="b" points="360.95 362.51 329.44 434.99 360.95 507.46 392.47 434.99 360.95 362.51"/><polygon class="b" points="360.95 217.56 329.44 290.04 360.95 362.51 392.47 290.04 360.95 217.56"/><polygon class="b" points="360.95 362.51 433.43 394.03 505.9 362.51 433.43 330.99 360.95 362.51"/><polygon class="b" points="216 362.51 288.48 394.03 360.95 362.51 288.48 330.99 216 362.51"/><polygon class="b" points="216.75 217.56 185.23 290.04 216.75 362.51 248.27 290.04 216.75 217.56"/><polygon class="b" points="216.75 359.52 185.23 432 216.75 504.48 248.27 432 216.75 359.52"/><polygon class="b" points="216.75 72.61 185.23 145.08 216.75 217.56 248.27 145.08 216.75 72.61"/><polygon class="b" points="216.75 -69.36 185.23 3.12 216.75 75.59 248.27 3.12 216.75 -69.36"/><polygon class="b" points="216.75 217.56 289.23 249.08 361.7 217.56 289.23 186.04 216.75 217.56"/><polygon class="b" points="360.95 217.56 433.43 249.08 505.9 217.56 433.43 186.04 360.95 217.56"/><polygon class="b" points="71.8 217.56 144.27 249.08 216.75 217.56 144.27 186.04 71.8 217.56"/><polygon class="b" points="-72.43 217.56 0.04 249.08 72.52 217.56 0.04 186.04 -72.43 217.56"/></svg>