<svg xmlns="http://www.w3.org/2000/svg" viewBox="0 0 432 432"><defs><style>.a{fill:#084d6e;}.b{fill:#4682b4;}.c{fill:#71c1e8;}</style></defs><title>1615</title><polygon class="a" points="0 293.56 0 434.54 109.58 354.44 109.58 217.27 0 293.56"/><polygon class="b" points="432 293.56 432 434.54 322.43 354.44 322.43 217.27 432 293.56"/><polygon class="b" points="322.43 78.06 322.43 219.03 216 138.94 216 1.76 322.43 78.06"/><polygon class="b" points="216 293.56 216 434.54 109.57 354.44 109.57 217.27 216 293.56"/><polygon class="a" points="216 293.56 216 434.54 322.43 354.44 322.43 217.27 216 293.56"/><polygon class="a" points="322.43 76.29 322.43 217.27 432 137.18 432 0 322.43 76.29"/><polygon class="a" points="108 76.29 108 217.27 217.57 137.18 217.57 0 108 76.29"/><polygon class="b" points="109.57 76.29 109.57 217.27 0 137.18 0 0 109.57 76.29"/><polygon class="c" points="109.58 217.27 0 297.36 0 137.18 109.58 217.27"/><polygon class="c" points="322.43 351.73 432 432 212.85 432 322.43 351.73"/><polygon class="c" points="109.58 351.73 219.15 432 0 432 109.58 351.73"/><polygon class="c" points="109.57 79.87 0 0 219.15 0 109.57 79.87"/><polygon class="c" points="322.43 79.87 212.85 0 432 0 322.43 79.87"/><polygon class="c" points="216 137.18 216 297.36 322.43 217.27 216 137.18"/><polygon class="c" points="109.58 217.27 216 297.36 216 137.18 109.58 217.27"/><polygon class="c" points="322.43 217.27 432 297.36 432 137.18 322.43 217.27"/></svg>