<svg xmlns="http://www.w3.org/2000/svg" viewBox="0 0 432 432"><defs><style>.a{fill:#cf0e0e;}.b{fill:#bd9f7b;}</style></defs><title>1616</title><rect class="a" width="432" height="432"/><path class="b" d="M0,107.83V431.39c2.35-.38,4.68-.8,7-1.28-.13.62-.25,1.26-.37,1.89H328.36A164.09,164.09,0,0,0,134,303.14a164.6,164.6,0,0,0,3.44-33.53A164,164,0,0,0,0,107.83Z"/><path class="b" d="M432,8.29q-3.27.54-6.51,1.2c.65-3.13,1.2-6.3,1.67-9.49H102.83A164,164,0,0,0,265,139.9a164.67,164.67,0,0,0,33.53-3.44A164.07,164.07,0,0,0,432,331.69Z"/><path class="a" d="M432,0H342.63a38.42,38.42,0,0,0,36.79,49.49,39.76,39.76,0,0,0,4.65-.29c-.09,1.1-.15,2.21-.15,3.34A38.43,38.43,0,0,0,432,89.73Z"/><path class="a" d="M52.81,388.42a39.49,39.49,0,0,0-4.65.29c.09-1.1.15-2.21.15-3.34A38.44,38.44,0,0,0,0,348.25V432H90.87a38.34,38.34,0,0,0-38.06-43.58Z"/></svg>