<svg xmlns="http://www.w3.org/2000/svg" viewBox="0 0 432 432"><defs><style>.a{fill:#fbc398;}.b{fill:#e2725b;}.c{fill:#b02c0c;}.d{fill:#084d6e;}</style></defs><title>1617</title><rect class="a" width="432" height="432"/><path class="b" d="M218.53,0s12,43.82,59.29,48.41S374.88,34.88,407.71,0Z"/><path class="c" d="M238.65,0s8.11,33.94,51.53,33.94S345.94,23.24,380.53,0Z"/><path class="d" d="M128.18,290.71,143.71,305l-15.53,37.76L105.59,401l-11.65,3.48L29.35,336.24l7.41-10.42,31.06-10.23S98.88,299.71,100.29,299,128.18,290.71,128.18,290.71Z"/><path class="c" d="M0,295.12s45-70.59,49.58-84.71c-6.23,0-46.16-12.7-22.2-46.12-7.56-8.94-24-32.94-15.56-46.58S44.4,129.47,44.4,129.47s-26.93,52.12,30.95,84.65C66.88,225.47,4.29,301.24,8.06,329.94a19.21,19.21,0,0,0,9.88,0l16.94-28.7s39.06,7.05,57.41-12.71S110.6,236.18,97.92,216c7.08-6.06,25.9-26.29,38.14-29.12,2.35,11.3,7.53,48.94-11.3,66.83,3.77,6.58,15.06,20.7,7.06,38.35s-32,13.41-32,13.41,4.71,18.12-3.06,23.77-19.05,3.29-19.05,3.29l-22.94-4.94s-6.48-3.06-11.89.47a74.45,74.45,0,0,0-10.12,8.18s52.48,5.94,63.77,63.11c3.53-1.88,12.94-12.7,9.18-24.94s-8.95-32.59-.24-38.17,23.06-1.59,23.06-1.59-3.53-19.77,5.65-27.53,25.64-15.3,45.41,3.06c4.94-5.18,13.88-22.36,63.53-13.89-2.12,5.18-6.12,17.42-29.18,37.89-3.06-2.12-34.35-19.18-64,2.06s-18.59,59.82-18.59,59.82-5.41,7.76-29.17,17.18c0,3.52.47,10.82.47,10.82s57.88-14.35,115.76-69.41c2.12,6.59,27.3,55.76,81.18,31.53,4.7,5.41,18.82,24.7,13.17,31.06s-18.82,2.11-18.82,2.11-19.06-5.74-28.23-14.87c-3.53,2.4-35.3,20.72-44.24-24.21C208.53,387.12,134.65,432,134.65,432H5L.06,414.41Z"/><path class="d" d="M145.2,388s41.23-23.7,59.24-43.13c-2.37-3.32-20.38-17.54-46.92,0S145.2,388,145.2,388Z"/><path class="d" d="M88.21,228.65S55.84,263.5,44.4,287.39c3.24,2.46,24.65,10.71,44.81-13.89S88.21,228.65,88.21,228.65Z"/><path class="d" d="M53.71,136.06s30.11,18.82,25.88,66.35C79.59,202.41,36.29,183.59,53.71,136.06Z"/><path class="d" d="M228.53,350.65s43.88-4.71,63.76,27.17C288.18,378.88,242.41,390.76,228.53,350.65Z"/><path class="a" d="M0,406.65l20.06-20.47s17.09-15.94,28-5.91c12.23,11.26,4,22.14,4,22.14S37.94,423.71,25.94,432H0V406.65"/><path class="a" d="M261.94,0s11.65,18.06,29.65,18.06S318.41,0,318.41,0Z"/><path class="b" d="M432.26,216.73s-45.32-12-50.06-59.29,14-97.06,50.06-129.88Z"/><path class="c" d="M432.26,196.62s-33.94-8.12-33.94-51.53S409,89.32,432.26,54.73Z"/><path class="a" d="M432.26,173.32s-18.06-11.65-18.06-29.65,18.06-26.82,18.06-26.82Z"/><path class="d" d="M380.53,52.29s10.59,7.77,4.23,18.36-29.29,32.47-29.29,32.47-12,16.59,0,29.64,28.94,27.18,16.24,55.06c-3.18-.35-45.18-1.41-43.42-58.23-4.23,6.35-17.29,21.76-34.94,6.47s10.94-35.77,10.94-35.77-46.23,12-60-41.29c5-1.41,33.89-12.35,56.83,15.53,0,0,12.35,15.18,30-1.41S364.29,34.65,380.53,52.29Z"/><path class="a" d="M358.29,73.12s8.47,11.29-1.76,18.7-24,16.94-34.94,19.06C321.24,103.82,342.06,56.53,358.29,73.12Z"/></svg>