<svg xmlns="http://www.w3.org/2000/svg" viewBox="0 0 432 432"><defs><style>.a{fill:#ffe4e1;}.b{fill:#084d6e;}.c{fill:#71c1e8;}.d{fill:#fad02c;}</style></defs><title>1618</title><rect class="a" width="432" height="432"/><path class="b" d="M208.29,218.88S134.06,133.47,0,133.47V302.88S125.71,307.12,208.29,218.88Z"/><path class="b" d="M223.71,217.5S297.94,302.91,432,302.91V133.5S306.29,129.27,223.71,217.5Z"/><path class="b" d="M215.31,208.29S300.72,134.06,300.72,0H131.31S127.08,125.71,215.31,208.29Z"/><path class="b" d="M216.69,223.71S131.28,297.94,131.28,432H300.69S304.92,306.29,216.69,223.71Z"/><path class="b" d="M72.06,0S75.24,71.12,0,75.35V0Z"/><path class="c" d="M175.82,218.7S113.16,156.06,0,156.06V280.3S106.11,283.41,175.82,218.7Z"/><path class="c" d="M256.18,217.69S318.84,280.33,432,280.33V156.08S325.89,153,256.18,217.69Z"/><path class="c" d="M215.49,175.82S278.13,113.16,278.13,0H153.89S150.78,106.11,215.49,175.82Z"/><path class="c" d="M216.51,256.18S153.87,318.84,153.87,432H278.11S281.22,325.89,216.51,256.18Z"/><path class="a" d="M50.46,0S52.68,49.8,0,52.76V0Z"/><path class="d" d="M97,100.29s-4.75-55-61-60.23C36,40.06,35.82,89,97,100.29Z"/><path class="b" d="M359.94,0S356.76,71.12,432,75.35V0Z"/><path class="a" d="M381.54,0S379.32,49.8,432,52.76V0Z"/><path class="d" d="M335,100.29s4.75-55,61-60.23C396,40.06,396.18,89,335,100.29Z"/><path class="b" d="M72.06,432S75.24,360.88,0,356.65V432Z"/><path class="a" d="M50.46,432S52.68,382.2,0,379.24V432Z"/><path class="d" d="M97,331.71s-4.75,55.05-61,60.23C36,391.94,35.82,343,97,331.71Z"/><path class="b" d="M359.94,432s-3.18-71.12,72.06-75.35V432Z"/><path class="a" d="M381.54,432s-2.22-49.8,50.46-52.76V432Z"/><path class="d" d="M335,331.71s4.75,55.05,61,60.23C396,391.94,396.18,343,335,331.71Z"/></svg>