<svg xmlns="http://www.w3.org/2000/svg" xmlns:xlink="http://www.w3.org/1999/xlink" viewBox="0 0 432 432"><defs><style>.a{fill:#ffe4e1;}.b{fill:#0abab5;}</style></defs><title>1619</title><image width="432" height="432" xlink:href="Materiais/Untitled-1.png"/><rect class="a" width="432" height="432"/><path class="b" d="M306.41,122.88l-6.7,19.41-4.95,11s-16.58,20.11-21.17,29.64a96.1,96.1,0,0,0-6.35,16.59,17.07,17.07,0,0,1-3.06,2.71c-2.12,1.53-3.65,2.35-4.83,6.7s-7.41,2.59-7.41,2.59a4.31,4.31,0,0,0-4.7,2.82c-1.3,3.42-2.36,5.65-6,3.53s-8.12-1.17-6.71,3.77,4.82,26.12,17.41,24.23c0,0,5.88,0,10-6.23s7.88,7.17,6.71,10.94-5.3,9.65-3.3,11.88-1.06,5.65-1.06,5.65a6,6,0,0,1-4.47,1.06c-2.82-.36-5.41,1.88-6.35,5.53s-5.88,4.35-7.76,4-6.71,1.29-7.3-7.77-2.23-12.7-6.7-16.12-18.12-11-18.12-11-4.94-2.59-8.24,1.53-11.06,12.82-11.17,13.17-5.06,6.83-5.06,6.83l-7.06,4.58a8.57,8.57,0,0,0-4.59,4.24c-1.29,3.06-2.47,4.35-8,6s-8,6.94-8,6.94-3.29,5.18-6.47,4.71-9.06-2-19.76,5.41a200.76,200.76,0,0,0-19,15.06c-.35.23-9.76,3.06-12.94,0s-6.7-5.65-1.17-8.12,10.35-.59,16.35-16,8-41.88,34.47-61.06c3.65.24,30.82,2.82,34-9.53,0,0,.71-7.76-10.94-18.94,0,0-6.12-4.94-8.59-11.06a31.56,31.56,0,0,0-6.71-10.12s-1.88-2.82-3.17-9.76c4.82,2.82,14.47,5.76,14.47,5.76s5.53,2.36,11.06,10.36,28.12,16.58,30.7,8.11,10.47-27.29,10.47-27.29,2.12-11.53,23.3-18.82,30.59-8.71,42.35-21.42l7.3-8.7s3.29-3.77,7.05-1.65S306.41,122.88,306.41,122.88Z"/><path class="b" d="M0,212.06s4.76-7.77,6.65-11.77,9.64-8,9.64-17.41.71-15.76,9.42-18.35,29.17-10.12,29.17-10.12a25.43,25.43,0,0,1,16.47-.94c8.94,2.59-.94,7.06-.94,7.06a33.08,33.08,0,0,0-4.94,4.94c-3.53,4-11.29,10.59-11.29,26.82s1.17,25.42-9.42,31.3-20.7,7.53-17.17,15.06,10.59,19.06,23.06,6.82c1.64,0,5.64-.35,4.47,5.36s1.64,2.64.7,7.11-.7,5.88-3.17,8.47a23.38,23.38,0,0,0-4,6.35S43,277.82,40.76,275s-5.41-9.53-13.29-10.94-10.71-1.3-14.82-3.18-12.65-2-12.65-2Z"/><path class="b" d="M7.12,0S2.65,4.06,9.24,6.88,35.74,13,37.55,8.53,58.88,33.47,58.88,33.47A149,149,0,0,1,72.76,64.76c5.42,17.65,13.18,17.42,13.18,17.42s6.59.47,5.41,7.29-8.94,4.94-8.94,4.94-4-.23-8.94-4S49.71,68.53,39.82,72.53s-11.76-8-11.76-8,.7-1.88-6.35-3.53-10.12-8.71-10.12-8.71S9.71,49,4.06,49c-.47-2.35-.82-6.35-4.06-7.53V0Z"/><path class="b" d="M5.71,432a27.53,27.53,0,0,0,2.82-7.71c.62-3.79,1.94-6.26,4.23-7.85S26,407.18,27.41,399.76a23.25,23.25,0,0,1,5.21-11.29s1.85-2.47-.71-3.62-8,2.3-8,2.3l-12.17,7.5s-2.65,1.32-6,6.88S0,405.59,0,405.59V432Z"/><path class="b" d="M145.47,432s-4.23-2.06-3.88-11.41-2.47-30.71-16.06-41.12,8.82-6.18,8.82-6.18,25.41,7.24,28.59,6.89,13.94,3.88,14.12,12.53,7.59,19.58,7.59,19.58L196.12,432h6.53l12.17-10.71s2.47-4.58,8.47-3,9,0,9,0,6.53,1.06,2,6.18-7.06,8.29-7.06,8.29Z"/><path class="b" d="M432,407.88s-23.59,12.53-26.59-1.59-5.47-33.17-26.12-38.11-48.7-20.3-52.23-28.06-8.47-9.88-11.12-5.65,0,10.77,0,10.77a20.08,20.08,0,0,1,1.06,7.58c-.35,3.71,6.71,15.36,6.88,15.89s10.06,13.23,10.41,13.76,6.89,11.29,6.89,11.29l6.7,7.24s3,6.53,3,10.24,3.18,7.76,9.88,9c.36,3,.71,5.82.71,5.82a31.46,31.46,0,0,1,3.88,1.23c.53.36,8.47-1.35,10.41,4.71H432Z"/><path class="b" d="M432,259.29s-12.12-5.29-19.35-3-22.59,9-38.3,1.22-31.23-1.79-31.23-1.79-12.18,2.34-6.71-5.6,16.59-32.47,44.3-27.88,28.23,2.11,28.23,2.11-10.59-6.29-12.7-10.91-5.48-4.26-5.48-4.26-3-3.71.71-6.53,8.82.7,8.82.7,2.83.71,4.24-.53,5.12-1.23,8.12,1.77,3.06,7.94,19.35,12.7Z"/><path class="b" d="M432,39.24s-.65.7-5.24-6.53a23.39,23.39,0,0,0-12.35-9.36s-3.35-2.47-8.47,1.41-11.12,8.48-12.7,8.65-7.06,3.18-7.24,7.77-1.94,14.47-1.94,14.47-.88,5.47-6.35,3.88-10.06-7.77-10.06-7.77a6,6,0,0,0-4.94-3.52c-3.71-.36-9.18-2.78-6.89-7s-1.94-9.55-1.94-9.55-1.23-12.18,2.83-12.89,4.94,4.95,4.94,4.95,6.17,6.35,14.29.7S388.12,11.59,386.88,0H432Z"/><path class="b" d="M223.47,0s-8.29,2.88-6.71,6.24,30.36-2.3,30.36-2.3,10.94-5.28,18,3.36a157.59,157.59,0,0,0,15.7,16.23s7.77,5.82,5.12,10.41-10.23,0-10.23,0-7.06-4.76-19.77.18-15.53,9-24,7.76-24.53-9-37.94-4.59-25.76,7.59-25.76,7.59-8.48-.17-10.59,4.06-9.89,11.12-12.71,3.35l-.7-3.35s-7.06-2.47-7.42-8.47,2.3-7.59,2.3-7.59,1.59-2-1.41-5c-.18-1.91.88-3.5,3.7-1s10.24,8.83,16.06,3.53,10.59-12,2.82-18.17S142.47,5.24,140.18,0Z"/></svg>