<svg viewBox="0 0 432 432" fill="none" xmlns="http://www.w3.org/2000/svg">
<g clip-path="url(#clip0_16_475)">
<path d="M-0.000152588 0H431.59V431.59H-0.000152588V0Z" fill="#084D6E"/>
<path d="M64.2998 64.29H431.59V431.58H64.2998V64.29Z" fill="#4682B4"/>
<path d="M129.78 129.78H431.59V431.59H129.78V129.78Z" fill="white"/>
<path d="M217.783 130.327L305.797 218.34L217.783 306.354L129.77 218.34L217.783 130.327Z" fill="#084D6E"/>
<path d="M323.88 218.34L431.59 306.9V218.34V129.78L323.88 218.34Z" fill="#084D6E"/>
<path d="M130.22 431.63L218.05 431.83L305.89 431.91L217.88 326.12L130.22 431.63Z" fill="#084D6E"/>
<path d="M304.06 304.53H431.59V432.06H304.06V304.53Z" fill="#4682B4"/>
<path d="M370.88 370.88H431.59V431.59H370.88V370.88Z" fill="#084D6E"/>
</g>
<defs>
<clipPath id="clip0_16_475">
<rect width="432" height="432" fill="white"/>
</clipPath>
</defs>
</svg>
