<svg xmlns="http://www.w3.org/2000/svg" viewBox="0 0 432 432"><defs><style>.a{fill:#fcc0c5;}.b{fill:#f7838d;}.c{fill:#ffe4e1;}</style></defs><title>1622-01</title><rect class="a" width="432" height="432"/><path class="b" d="M0,0V426.23c114.94-3.94,207.78-96,214.71-211.47C328,207.8,418.47,115.15,423.59,0Z"/><path class="c" d="M0,0V374.76c101.06-3.46,182.69-84.37,188.79-185.93C288.42,182.71,368,101.24,372.44,0Z"/><path class="a" d="M0,198.72c109.75,0,198.72-89,198.72-198.72H0Z"/><path class="c" d="M0,191.71s6.06-40.24,43.12-38.12c1.41-10.24,2.12-46.94-12.36-75.18,7.06,8.12,29.3,45.53,46.24,59.3,3.88-2.47,24-27.18,53.29-6-3.53-12-15.17-37.77,7.42-53.3-7.06-7.76-31.42-34.11-57.89-45.88,16.94,5.65,37.42,14.82,72.71,11.29,1.76-6.35-1.06-35.41,38.12-43.82H0Z"/><path class="a" d="M0,57.24A57.24,57.24,0,0,0,57.24,0H0Z"/><path class="c" d="M432,233.28c-109.75,0-198.72,89-198.72,198.72H432Z"/><path class="a" d="M432,240.29s-6.06,40.24-43.12,38.12c-1.41,10.24-2.12,46.94,12.36,75.18-7.06-8.12-29.3-45.53-46.24-59.3-3.88,2.47-24,27.18-53.29,6,3.53,12,15.17,37.77-7.42,53.3,7.06,7.76,31.42,34.11,57.89,45.88-16.94-5.65-37.42-14.82-72.71-11.29-1.76,6.35,1.06,35.41-38.12,43.82H432Z"/><path class="c" d="M432,374.76A57.24,57.24,0,0,0,374.76,432H432Z"/></svg>