<svg xmlns="http://www.w3.org/2000/svg" viewBox="0 0 432 432"><defs><style>.a{fill:#ffe4e1;}.b{fill:#fcc0c5;}</style></defs><title>1623</title><rect class="a" width="432" height="432"/><path class="b" d="M398.28,187s-2.22-55.18,10.48-75.41c2.83-5.65,2.83-12.47-3.52-14.59a13.17,13.17,0,0,0-15.53,5.65C386.65,107.59,371.09,141.94,398.28,187Z"/><path class="b" d="M370.41,137.47s-12.7-60-3.06-83.76c1.41-3.77,2.36-7.77-1.88-11.53s-13.18-7.3-19.53-2.36-14.35,16.71-7.06,45.65S370.41,137.47,370.41,137.47Z"/><path class="b" d="M391.82,188.76s-18-16.7-38.62-16.94-28.44,8.47-27.73,15.18,6.35,15.41,16.24,13.29S355.59,189.47,391.82,188.76Z"/><path class="b" d="M369,145.24s-27.29-25.89-83.53-25.65c0,0-28.12,1.16-31.53,23.76-2.59,17.18,17.88,26.36,23.53,20.47C282.09,159,296.53,135.35,369,145.24Z"/><path class="b" d="M320.06,41.24S313,69.47,330.41,106.88c-4.23-.94-46.59-25.88-44.47-72.47.71-6.12,12-22.35,25.42-14.35S320.06,41.24,320.06,41.24Z"/><path class="b" d="M274.88,77.24s-17.64-21.89-17.17-44.48c.23-3.76-.71-8.23-12.47-6.82S231.82,35.12,232.76,41,240.29,70.65,274.88,77.24Z"/><path class="b" d="M305.94,101s-17.18-15.53-69.41-11.06-36.24,31.77-30.12,36.71,13.67,10.11,26.13-1.41S260.29,104.06,305.94,101Z"/><path class="b" d="M197.18,360.59s43.75,29.54,52.19,50.73c2.76,5.36,8,9.22,13.23,5.55A12.47,12.47,0,0,0,267,401.79C264.9,396.65,247.19,365.28,197.18,360.59Z"/><path class="b" d="M251,367.29s53.37,24.25,66.25,45.09c2.11,3.21,4.66,6.2,9.94,5.09s13-6,12.81-13.62-4.8-20.45-31.2-31.26S251,367.29,251,367.29Z"/><path class="b" d="M199.45,354.65s23-4.3,34.79-20,9.48-26.57,3.91-29.82-15.45-3.86-19.38,4.9S219.3,326.5,199.45,354.65Z"/><path class="b" d="M245.83,361.82s35.3-6.25,66.77-49.44c0,0,14.93-22.19-.57-37.6-11.77-11.71-30.36-1.23-29,6.43C284.13,287.46,294.23,311.92,245.83,361.82Z"/><path class="b" d="M353.49,383.23s-17.78-21.39-56.4-29.24c3.11-2.72,46.16-21,80.86,7,4.32,4,10.46,21.85-3.24,27.59S353.49,383.23,353.49,383.23Z"/><path class="b" d="M351.18,328.25s26.79-1.12,43.93,12c2.77,2.31,6.74,4.12,12.28-5.69s.47-15.46-4.59-18.07S375.73,305.5,351.18,328.25Z"/><path class="b" d="M315.4,338.58S337,334.22,363,291.69,358.9,246,351.65,247.85s-15.49,4.73-13.62,20.8S338.73,301.89,315.4,338.58Z"/><path class="b" d="M115.77,121.38s-41.4,32.14-64,33.48c-5.92.94-11.19,4.7-9.32,10.77a12.51,12.51,0,0,0,12.93,8.89C60.84,174.15,96,167.23,115.77,121.38Z"/><path class="b" d="M89.31,174.54S44.7,215.28,19.88,219.46c-3.87.76-7.72,2-8.84,7.37s.24,14.43,7.52,17.1,21.14,3.23,42.09-17.37S89.31,174.54,89.31,174.54Z"/><path class="b" d="M120.69,132.2s-3,23.08,8.22,39.18,22.22,17.29,27,13,8.4-13.4,1.32-19.87S141.22,159.8,120.69,132.2Z"/><path class="b" d="M97,170.42s-7.15,35.82,21.71,83.46c0,0,15.28,23.31,35.41,15.16,15.3-6.2,12.33-28.06,4.66-30C152.49,237.49,125.87,236.78,97,170.42Z"/><path class="b" d="M34.3,268.44s27.83-9.84,51-44.28c1.36,3.9,1.62,51.45-39.41,75.3-5.61,2.79-25.31,2.66-25.31-12.45S34.3,268.44,34.3,268.44Z"/><path class="b" d="M89.31,282.76S76.91,308.23,56.23,317c-3.52,1.32-7.18,4-.93,14.46s14,8.8,18.92,5.52S97.93,317.83,89.31,282.76Z"/><path class="b" d="M92.41,245s-4.3,21.55,24.76,62,43.51,14.07,44.56,6.68,1.6-16.06-13.86-20.61S117.11,280.75,92.41,245Z"/></svg>