<svg xmlns="http://www.w3.org/2000/svg" viewBox="0 0 432 432"><defs><style>.a{fill:#fff;}.b{fill:#084d6e;}.c{fill:#bd9f7b;}</style></defs><title>1624</title><rect class="a" width="432" height="432"/><path class="b" d="M0,350.18S76.76,343.47,81,432H0Z"/><path class="c" d="M0,91.74s30.51,27.49,23.87,76.78S-2.85,269.46,12.41,269.46s12-6.22,13.06-11.28-6.7-97,61.06-98.24c58.59-1.06,67.06,106.94-19.41,94.94,0,0,33.53-16.59,19.76-38.82,0,0-17-23.55-40.94,14.12,0,0-7.41,20.11-7.76,42.35,6,1.06,22.58,1.06,19.41,13.76s-6,14.12-22.94,12c4.23,4.59,16.94,18.36,8.47,36.36C39.59,329.71,25.71,303.59,0,319.82Z"/><path class="c" d="M340.16,432s-27.48-30.51-76.77-23.87-100.95,26.72-100.95,11.46,6.23-12,11.29-13.06,97,6.7,98.23-61.06C273,286.88,165,278.41,177,364.88c0,0,16.59-33.53,38.82-19.76,0,0,23.55,17-14.11,40.94,0,0-20.12,7.41-42.36,7.76-1.06-6-1.06-22.58-13.76-19.41s-14.12,6-12,22.94c-4.59-4.23-18.35-16.94-36.35-8.47,4.94,3.53,31.05,17.41,14.82,43.12Z"/><path class="c" d="M0,432V380.12S48.67,375.87,51.35,432"/><path class="b" d="M0,57.94s74.18,1.41,122.88,58.59,59.3,128.47-7.76,194.12c3.53-10.59,5.41-29.41-12-37.18s-34.83,10.59-35.06,19.29,3.06,22.83,17.41,28.71c-4.23.24-27.29,1.18-24.71,27.06s32.48,24,37.89,20.94,12.23-6.35,11.06-24.23c4.23,4.94,17.17,29.17,39.05,14.58s12.24-51.06-24.94-43.06c5.65-8.23,81.65-93.64,189.65-6.11,0,0,55.06,43.64,60.71,121.35h36.7s-15.47-108.94-65.64-150.29c-42.83-35.3-61.42-44.52-144-42.36,7-9.17,49-64.41,106.05-57.17-.53,3.7-13.94,37.76,23.83,30.35-.18,7.06-2.65,28.94,25.23,17.29.71,2.3,6.18,22.77,28.77,4.24,2.12,2.82,12.88,23.29,38.47,3.35-7.06-3.35-24.71-10.06-33.53-36s-22.77-46.94-53.47-48.7-52.94,11.64-64.41,16.58c4.06-4.58,49.58-56.47,79.94-82.41-1.77,4.59-12.18,39.88,21.17,39.36s25.95-29.12,25.95-29.12,1.23-12-19.24-21.53c6.53,0,36.35-2.47,28.76-31.77,0,0-10.05-17.47-25.94-20.82s-27.88,12.18-25.06,30.18c-2.47-5.12-12.88-28.06-37.23-19.77S311.71,74,311.71,74s10.76,14.47,33,7.06c-3.71,4.06-39.89,44.82-79.42,80.12,4.24-6.71,31.06-58.94,3.89-95.65,0,0-5.12-13.24-40.24-25.41-7.06-2.65-19.23-.18-33-33.71-4.94,3.88-18.53,27.71,3,38.83-2.12,3-20.12,22.05,4.59,30.7-1.06,2.82-13.94,27.53,15.71,25.06-.53,2.82-9,34.24,31.41,25.76.7,5.65,12.94,49.77-57.18,105.77C196.29,216.06,207.94,32.06,0,22.18Z"/></svg>