<svg xmlns="http://www.w3.org/2000/svg" xmlns:xlink="http://www.w3.org/1999/xlink" viewBox="0 0 432 432"><defs><style>.a{fill:none;}.b{fill:#fff;}.c{fill:#5f9f9f;}.d{fill:#0abab5;}.e{clip-path:url(#a);}.f{clip-path:url(#b);}.g{clip-path:url(#c);}.h{clip-path:url(#d);}</style><clipPath id="a"><rect class="a" y="300.76" width="131.24" height="131.24"/></clipPath><clipPath id="b"><rect class="a" x="300.76" y="300.76" width="131.24" height="131.24" transform="translate(732.76 732.76) rotate(-180)"/></clipPath><clipPath id="c"><rect class="a" x="300.76" width="131.24" height="131.24" transform="translate(732.76 131.24) rotate(180)"/></clipPath><clipPath id="d"><rect class="a" width="131.24" height="131.24"/></clipPath></defs><title>1625</title><rect class="b" width="432" height="432"/><path class="c" d="M254,215.16s31.75,33.36,75.35,0C322.76,211.19,297.17,187.39,254,215.16Z"/><path class="c" d="M182,216.71s-31.76-33.36-75.36,0C113.23,220.69,138.82,244.49,182,216.71Z"/><path class="c" d="M217.22,179.89s33.36-31.75,0-75.35C213.24,111.17,189.44,136.76,217.22,179.89Z"/><path class="c" d="M193.81,194.11s1.14-46-53.28-53.29C142.41,148.33,143.67,183.25,193.81,194.11Z"/><path class="c" d="M242.17,194.46s-1.13-46,53.29-53.28C293.58,148.68,292.31,183.61,242.17,194.46Z"/><path class="c" d="M218.77,252s-33.36,31.76,0,75.36C222.74,320.7,246.54,295.11,218.77,252Z"/><path class="c" d="M242.17,237.77s-1.13,46,53.29,53.28C293.58,283.55,292.31,248.62,242.17,237.77Z"/><path class="c" d="M193.81,237.41s1.14,46-53.28,53.29C142.41,283.19,143.67,248.27,193.81,237.41Z"/><circle class="d" cx="217.99" cy="217.21" r="22.75"/><g class="e"><path class="c" d="M79.12,350.35c-7.51,1.88-42.43,3.15-53.29,53.29C25.83,403.64,71.87,404.78,79.12,350.35Z"/><path class="c" d="M-.77,321.79c-4,6.63-27.78,32.22,0,75.35C-.77,397.14,32.59,365.39-.77,321.79Z"/><path class="c" d="M33.17,431.59c43.13,27.78,68.73,4,75.36,0C64.93,398.23,33.17,431.59,33.17,431.59Z"/><circle class="c" cx="1.79" cy="428.78" r="22.75"/></g><g class="f"><path class="c" d="M352.88,350.35c7.51,1.88,42.43,3.15,53.29,53.29C406.17,403.64,360.13,404.78,352.88,350.35Z"/><path class="c" d="M432.77,321.79c4,6.63,27.78,32.22,0,75.35C432.77,397.14,399.41,365.39,432.77,321.79Z"/><path class="c" d="M398.83,431.59c-43.13,27.78-68.73,4-75.36,0C367.07,398.23,398.83,431.59,398.83,431.59Z"/><circle class="c" cx="430.21" cy="428.78" r="22.75"/></g><g class="g"><path class="c" d="M352.88,81.65c7.51-1.88,42.43-3.15,53.29-53.29C406.17,28.36,360.13,27.22,352.88,81.65Z"/><path class="c" d="M432.77,110.21c4-6.63,27.78-32.22,0-75.35C432.77,34.86,399.41,66.61,432.77,110.21Z"/><path class="c" d="M398.83.41c-43.13-27.78-68.73-4-75.36,0C367.07,33.77,398.83.41,398.83.41Z"/><circle class="c" cx="430.21" cy="3.22" r="22.75"/></g><g class="h"><path class="c" d="M79.12,81.65c-7.51-1.88-42.43-3.15-53.29-53.29C25.83,28.36,71.87,27.22,79.12,81.65Z"/><path class="c" d="M-.77,110.21c-4-6.63-27.78-32.22,0-75.35C-.77,34.86,32.59,66.61-.77,110.21Z"/><path class="c" d="M33.17.41c43.13-27.78,68.73-4,75.36,0C64.93,33.77,33.17.41,33.17.41Z"/><circle class="c" cx="1.79" cy="3.22" r="22.75"/></g><path class="d" d="M126.29,343V294.29s-96,17.47-93.17-79.5,93.17-77.91,93.17-77.91V90.29L93.47,57.47v47.19S0,126.5,0,192.05v45.84S8.06,325,93.12,325v50.82Z"/><path class="d" d="M102.61,381.47l29.31-29.31s52.73-.34,84.08,62.49c4.88-9.89,19.35-51.93,81.82-62.49,4.94,5.31,31,31,31,31s-70.4-3.31-78.75,48.87H179.59S178.8,381.47,102.61,381.47Z"/><path class="d" d="M305.71,89v48.71s96-17.47,93.17,79.5-93.17,77.91-93.17,77.91v46.59l32.82,32.82V327.34S432,305.5,432,240V194.11S423.94,107,338.88,107V56.18Z"/><path class="d" d="M329.39,50.53,300.08,79.84s-52.73.34-84.08-62.49c-4.88,9.89-19.35,51.93-81.82,62.49-4.94-5.31-31-31-31-31S173.6,52.18,182,0h70.46S253.2,50.53,329.39,50.53Z"/></svg>