<svg xmlns="http://www.w3.org/2000/svg" viewBox="0 0 396.36 432"><defs><style>.a{fill:red;}.b{fill:#fff;}</style></defs><title>1630</title><polygon class="a" points="396.36 320 392.73 101.09 199.03 0 4.36 104 0 320 198.18 432 396.36 320"/><polygon class="b" points="168.49 23.52 198.54 8.48 380.36 103.76 351.27 120 168.49 23.52"/><polygon class="b" points="130.18 43.88 160.24 28.85 341.58 125.58 312.97 142.54 130.18 43.88"/><polygon class="b" points="93.33 65.21 123.39 50.18 304.73 146.18 274.18 164.36 93.33 65.21"/><polygon class="b" points="54.55 85.09 84.61 70.06 265.94 168.97 235.88 185.94 54.55 85.09"/><polygon class="b" points="16.73 105.94 46.79 90.91 228.12 190.06 195.64 208 16.73 105.94"/><polygon class="b" points="383.64 111.27 354.55 128 354.55 332.36 387.64 314.55 383.64 111.27"/><polygon class="b" points="345.45 132.73 345.45 338.55 316 354.18 316 149.46 345.45 132.73"/><polygon class="b" points="307.27 154.18 307.27 359.27 277.82 377.45 277.82 172.36 307.27 154.18"/><polygon class="b" points="268.73 177.09 268.73 381.09 238.91 397.45 238.91 195.27 268.73 177.09"/><polygon class="b" points="230.54 198.91 230.54 402.55 201.46 420 201.46 215.64 230.54 198.91"/><polygon class="b" points="193.46 214.91 193.46 420 162.18 401.45 162.18 198.91 193.46 214.91"/><polygon class="b" points="155.64 195.59 155.64 397.45 124.73 380.36 124.73 177.09 155.64 195.59"/><polygon class="b" points="117.82 173.09 117.82 377.45 86.55 358.91 86.55 154.18 117.82 173.09"/><polygon class="b" points="79.64 149.46 79.64 354.18 48 337.82 48 132.73 79.64 149.46"/><polygon class="b" points="41.45 128 41.45 333.82 8.36 315.64 11.64 113.09 41.45 128"/></svg>