<svg xmlns="http://www.w3.org/2000/svg" viewBox="0 0 432 432"><defs><style>.a{fill:#fff;}.b{fill:#00009c;}</style></defs><title>1631</title><rect class="a" width="432" height="432"/><path class="b" d="M209.89,3.59S205.15,96.34,112.26,103C112.26,93.48,120.79,13.15,209.89,3.59Z"/><path class="b" d="M103.49,111.88s-4.74,92.76-97.63,99.45C5.86,201.77,14.39,121.45,103.49,111.88Z"/><path class="b" d="M4.91,4.54s92,4.79,98.58,98.5C94,103,14.39,94.43,4.91,4.54Z"/><path class="b" d="M112.26,111.88s91.94,4.78,98.58,98.5C201.36,210.38,121.74,201.77,112.26,111.88Z"/><path class="b" d="M423.54,3.59S418.8,96.34,325.91,103C325.91,93.48,334.44,13.15,423.54,3.59Z"/><path class="b" d="M317.14,111.88s-4.74,92.76-97.63,99.45C219.51,201.77,228,121.45,317.14,111.88Z"/><path class="b" d="M218.56,4.54S310.5,9.33,317.14,103C307.66,103,228,94.43,218.56,4.54Z"/><path class="b" d="M325.91,111.88s91.94,4.78,98.58,98.5C415,210.38,335.39,201.77,325.91,111.88Z"/><path class="b" d="M209.89,218.65s-4.74,92.75-97.63,99.45C112.26,308.53,120.79,228.21,209.89,218.65Z"/><path class="b" d="M103.49,326.94S98.75,419.7,5.86,426.39C5.86,416.83,14.39,336.5,103.49,326.94Z"/><path class="b" d="M4.91,219.6s92,4.78,98.58,98.5C94,318.1,14.39,309.49,4.91,219.6Z"/><path class="b" d="M112.26,326.94s91.94,4.78,98.58,98.5C201.36,425.44,121.74,416.83,112.26,326.94Z"/><path class="b" d="M423.54,218.65s-4.74,92.75-97.63,99.45C325.91,308.53,334.44,228.21,423.54,218.65Z"/><path class="b" d="M317.14,326.94s-4.74,92.76-97.63,99.45C219.51,416.83,228,336.5,317.14,326.94Z"/><path class="b" d="M218.56,219.6s91.94,4.78,98.58,98.5C307.66,318.1,228,309.49,218.56,219.6Z"/><path class="b" d="M325.91,326.94s91.94,4.78,98.58,98.5C415,425.44,335.39,416.83,325.91,326.94Z"/></svg>