<svg xmlns="http://www.w3.org/2000/svg" viewBox="0 0 390.75 432"><defs><style>.a{fill:#71c1e8;}.b{fill:#084d6e;}.c{fill:#fad02c;}</style></defs><title>1632</title><polygon class="a" points="390.75 107.85 390.75 323.97 196.58 431.55 0 322.04 0 107.85 196.58 0 390.75 107.85"/><polygon class="b" points="195.39 10.41 363.28 101.97 30 101.45 195.39 10.41"/><polygon class="b" points="28.99 113.94 363.28 114.08 196.58 207.26 28.99 113.94"/><polygon class="b" points="22.4 125 190.23 405.26 189.38 219.74 22.4 125"/><polygon class="b" points="369.63 125.97 202.92 405.26 203.97 219.74 369.63 125.97"/><polygon class="b" points="382.25 132.59 381.75 318.31 215.56 411.28 382.25 132.59"/><polygon class="b" points="178.05 411.28 10.52 131.24 11.41 316.88 178.05 411.28"/><path class="c" d="M391.38,93.29s-16.15,37.53,26,41.58V107.66Z" transform="translate(-26.6)"/><path class="c" d="M56.38,91.44s14.41,36.69-29.78,43.43V107.48Z" transform="translate(-26.6)"/><path class="c" d="M197.27,417.45s23.71-29.1,51.91,0c-12,7-26,14.55-26,14.55Z" transform="translate(-26.6)"/></svg>