<svg xmlns="http://www.w3.org/2000/svg" viewBox="0 0 432.24 433.06"><defs><style>.a{fill:#ffdb58;}.b{fill:#084d6e;}.c{fill:#fff;}</style></defs><title>1633</title><rect class="a" x="0.24" width="432" height="432"/><rect class="b" x="0.24" y="42.41" width="390.41" height="390.65"/><rect class="c" x="0.24" y="67.82" width="363.94" height="364.18"/><path class="b" d="M68,261.71s41.29,55.53,72.78,6.11c2.83,3.3,8.42,12.3,5.24,19,4.59-.17,13.59-.53,18.18,5.65-3.36,2.29-47.74,27.8,9.3,72.22a78,78,0,0,1-14.24,11.84s-39.53-3.77-40.24-63.77c-11.29.36-52-3.52-63.77-36.35C61.12,270.41,68,261.71,68,261.71Z" transform="translate(0.24)"/><path class="b" d="M284.29,376.53S353,334.65,351.12,237.71c0,0-.24-24.24-12.71-85.65,0,0-5.17-31.06,2.12-36s17.18-5.88,13.65-14.12-16.71-6.35-16.71-6.35S337,77.71,326.65,78.65c0,0-6.79.94-7,6.82s-6.36,9.18-11.78,9.41-32.23,4.71-71.76-8.23S98.41,83.82,52.29,149.94c7.53,6.59,16,16,16,16s58.36-73.41,110.12-41.65c0,0,18.12,9.89,8.94,30.83s-33.17,10.12-33.17,10.12,5.88,23.29,29.88,26.82c-3.3,4.23-27.77,34.35,4.23,62.35,0,0,26.12,21.65,53.18-5.41,2.12,5.18,4.47,24,27.29,30.12-2.11-6.36-10.82-34.12,21.89-36.71s44.47,68.24-19.53,115.3C272.76,369.47,284.29,376.53,284.29,376.53Z" transform="translate(0.24)"/><path class="a" d="M278.88,152.76s12.71,9.89,4.71,28.48c0,0-7.45,12.73,2.64,22.82s26.77-10.12,24.89-41.41-30.36-46.59-60.47-39.77-23.3,23.3-18.12,26.12,7.53,6.12,20.94-.71C253.47,148.29,268.06,141.24,278.88,152.76Z" transform="translate(0.24)"/><rect class="a" x="221.95" y="174.06" width="37.94" height="37.94"/><path class="a" d="M354.91,432s-.85-26.76-29.44-35.94c0-4.24,4-12.12-7.88-14.12s-30.24,18.59-30.24,18.59-4.11,5.65-8.7.59,4.47-17.3,4.47-17.3,8.66-16.63,1.53-23.76-21.3,1.53-21.3,1.53-11.47,10.06-16.82,4.7,10.82-24.23,10.82-24.23,7.18-15.06,3.3-25.06c-2.59.71-12.24,2.59-12.24,2.59s-12.7-24.83-28.82-24-28.24,18.23-30.24,24c-2.82-.83-12-3.65-12-3.65s-5.64,18.35,11.18,36.35c1.88,2.47,7.06,9.65,2.59,14.83a6.27,6.27,0,0,1-6.94-.83c-3.53-2.82-19.53-14.23-29.53-6.47s4.94,31.3,4.94,31.3,4.71,5.49-.15,10.35S145,394.41,145,394.41s-13.18-15.29-28.47-12.47c0,0-7.53.47-3.77,13.41-4.47,1.41-25.88,10-26.82,36.65Z" transform="translate(0.24)"/><path class="b" d="M220.43,406.18s20.33-26.59,46.45-29.65c0,0-7.29,40.59-30.82,55.47H202.41s-27.06-24.41-31.06-55.47C176.76,376.53,199.86,380.35,220.43,406.18Z" transform="translate(0.24)"/><path class="a" d="M0,350.49s26.72-.86,35.88-29.45c4.23,0,12.09,4,14.09-7.88s-18.55-30.23-18.55-30.23-5.64-4.12-.59-8.71,17.26,4.47,17.26,4.47,16.6,8.66,23.72,1.53-1.52-21.29-1.52-21.29-10-11.48-4.7-16.83,24.19,10.83,24.19,10.83,15,7.17,25,3.29c-.71-2.59-2.59-12.24-2.59-12.24s24.78-12.7,24-28.82-18.2-28.23-24-30.23c.83-2.83,3.64-12,3.64-12s-18.32-5.65-36.28,11.17c-2.47,1.88-9.63,7.06-14.8,2.59a6.28,6.28,0,0,1,.82-6.94c2.82-3.53,14.21-19.53,6.46-29.53s-31.24,4.94-31.24,4.94-5.48,4.71-10.33-.15,7-14.44,7-14.44S52.79,127.4,50,112.1c0,0-.47-7.53-13.39-3.76C35.17,103.87,26.6,82.45,0,81.51Z" transform="translate(0.24)"/><path class="b" d="M25.71,217.31s26.47,20.34,29.52,46.45c0,0-40.41-7.29-55.23-30.82V199.29s24.31-27,55.23-31C55.23,173.65,51.42,196.74,25.71,217.31Z" transform="translate(0.24)"/><rect class="a" y="359.12" width="72.88" height="72.88"/><rect class="b" y="384.53" width="47.47" height="47.47"/></svg>