<svg xmlns="http://www.w3.org/2000/svg" viewBox="0 0 431.79 432"><defs><style>.a{fill:#084d6e;}.b{fill:#fcfcfc;}.c{fill:silver;}</style></defs><title>1634</title><polygon class="a" points="208.65 107.41 303.2 214.82 303.2 0 208.65 107.41"/><polygon class="a" points="217.36 107.41 128.8 0 128.8 214.82 217.36 107.41"/><polygon class="b" points="208.65 324.59 303.2 432 303.2 217.18 208.65 324.59"/><polygon class="b" points="216 324.59 128.8 217.18 128.8 432 216 324.59"/><polygon class="a" points="216 324.43 128.8 432 303.2 432 216 324.43"/><polygon class="a" points="216 323.93 303.2 214.82 128.8 214.82 216 323.93"/><polygon class="b" points="216 105.77 303.2 0 128.8 0 216 105.77"/><polygon class="b" points="216 105.72 128.8 214.82 303.2 214.82 216 105.72"/><rect class="a" width="64.29" height="432"/><rect class="c" x="64.29" width="64.29" height="432"/><rect class="c" x="303.2" width="64.29" height="432"/><rect class="a" x="367.5" width="64.29" height="432"/></svg>