<svg xmlns="http://www.w3.org/2000/svg" viewBox="0 0 432 432"><defs><style>.a{fill:#4682b4;}.b{fill:#084d6e;}.c{fill:#fff;}.d{fill:#eccb88;}</style></defs><title>1636</title><rect class="a" width="432" height="432"/><rect class="b" x="43.82" width="341.65" height="432"/><rect class="c" x="72.06" width="285.18" height="432"/><path class="a" d="M86.33,218.53s40.79,8.12,34.79,66.35c3.88-2.47,17.64-9.88,25.41,2.12-3.53,3.18-36,39.18,19.06,74.12-8.47,16.59-11.3,16.41-11.3,16.41s-39.93-57.71-68-29.47c0,0-12.15-17.3,9.91-33.35-3.89-5.65-15.36-22.42-4.42-39.36S101.3,229.82,86.33,218.53Z"/><path class="a" d="M348.06,273.24s-28.24-33.89-11.65-90.71,6-116.12-67.06-134.12c-9.17,14.12-3.53,15.18-3.53,15.18s76.24,49.76,8.83,82.23c0,5.65-1.77,22.94,15.88,31.42-2.82,7.41-11.65,28.23-7.41,35.64s28.94,7.06,28.94,7.06S302.88,255.94,348.06,273.24Z"/><path class="a" d="M269.71,377.53a25.56,25.56,0,0,0,21.88-10.77c8.47-12,22.59-38.11,50.82-20.47-2.82-9.17-8.42-31.76-36.33-32.82-.37-10.94,0-40.23-31.79-61.06s-51.53-70.59-39.88-96c-10.23,9.18-46.59,39.53-77.65,13.41S119,94.29,165.59,68.35c-2.12-13.23-2.47-19.94-2.47-19.94S89.71,81.59,114.41,170.18c9.18,19.76,11.3,28.94,44.12,69.17,4.59,8.47,11.29,18.71,7.06,32.12,5.65-4.23,101.29-36.23,115.06,51.24,0,0,7.11,24.23-16.55,43C267.59,369.94,269.71,377.53,269.71,377.53Z"/><path class="b" d="M317.71,396.48c2.37-5.69.7-13.83-4.24-14.54s-12.35-1.23-20.65,6.71-12,17.47-18.35,14.29-1.59-11.47-1.59-11.47,12.88-23.47,6-30-18.88,0-18.88,0-13.94,11.82-19.06,6.53,4.59-15.53,4.59-15.53,13.23-14.82,10.94-35.29c-6.88,1.23-13.23,2.82-13.23,2.82s-8.42-24.71-27.24-24.71S188.76,320,188.76,320s-6.35-1.59-13.23-2.82c-2.29,20.47,10.94,35.29,10.94,35.29s9.71,10.24,4.59,15.53S172,361.47,172,361.47s-12-6.53-18.88,0,6,30,6,30,4.76,8.29-1.59,11.47-10.06-6.35-18.35-14.29-15.71-7.41-20.65-6.71-6.61,8.85-4.24,14.54c-24.65,1.42-28,35.52-28,35.52H345.67S342.36,397.9,317.71,396.48Z"/><path class="d" d="M214.29,407.35s22.59-28.23,45.89-29.64c-1.42,7.76-3.18,26.35-26.47,54.29H194.88s-27.53-35.24-27.17-56.06C173,377.71,194.88,382.71,214.29,407.35Z"/><path class="b" d="M114.29,35.52c-2.37,5.69-.7,13.83,4.24,14.54s12.35,1.23,20.65-6.71,12-17.47,18.35-14.29,1.59,11.47,1.59,11.47-12.88,23.47-6,30,18.88,0,18.88,0S185.94,58.71,191.06,64s-4.59,15.53-4.59,15.53-13.23,14.82-10.94,35.29c6.88-1.23,13.23-2.82,13.23-2.82s8.42,24.71,27.24,24.71S243.24,112,243.24,112s6.35,1.59,13.23,2.82c2.29-20.47-10.94-35.29-10.94-35.29S235.82,69.29,240.94,64,260,70.53,260,70.53s12,6.53,18.88,0-6-30-6-30-4.76-8.29,1.59-11.47,10.06,6.35,18.35,14.29,15.71,7.41,20.65,6.71,6.61-8.85,4.24-14.54c24.65-1.42,28-35.52,28-35.52H86.33S89.64,34.1,114.29,35.52Z"/><path class="d" d="M217.71,24.65s-22.59,28.23-45.89,29.64C173.24,46.53,175,27.94,198.29,0h38.83s27.53,35.24,27.17,56.06C259,54.29,237.12,49.29,217.71,24.65Z"/><path class="d" d="M153,198.65s25.88,17.41,56.47,0c3.77,8.94,13.65,37.17,33.41,49.88-8-4.24-36.7-20.24-61.64-5.18C180.29,238.65,178.41,215.12,153,198.65Z"/></svg>