<svg xmlns="http://www.w3.org/2000/svg" viewBox="0 0 432 432"><defs><style>.a{fill:#71c1e8;}.b{fill:#084d6e;}</style></defs><title>1637</title><rect class="a" x="99.59" width="231.53" height="432"/><rect class="b" x="66.39" width="33.2" height="432"/><rect class="a" x="33.2" width="33.2" height="432"/><rect class="b" width="33.2" height="432"/><rect class="b" x="331.12" width="33.63" height="432"/><rect class="a" x="364.75" width="33.63" height="432"/><rect class="b" x="398.37" width="33.63" height="432"/><path class="b" d="M321.94,214.88s-5.18-25.15-50.82-30.27C278.41,176.92,357.24,105.55,293,0H137s9,30.55,41.41,23.23l18.06-3.66c5.47.14,10.06,2.14,10.06,8.49,0,15.72-20.47,10.31-30.88,8.73s-45.36,5.94-36.89,39.3c3-2.1,17.65-19.21,55.06-17.12,0,0,21.71,4.37,25.24-13.62s3.35-27.94,3.35-27.94,2.47,21,20.12,20.64c-.53-3.88-3-19.94,18.53-19.94S300.29,53.5,289,105.2s-59.76,93.15-98.59,88.62c-35.82-4.18-39.53-32.27-37.17-38.55s16-19.33,31-4.43a20.16,20.16,0,0,1,3.77,17.24c4.94.46,48.23,6.52,39.29-38.66,5.18-1.4,49.65-15.14,28.71-54.73-6.12,9.32-22.59,36.1-79.3,37.5s-65.64,71.25-4.7,102.69c-60.94,31.77-52,102.36,4.7,103.77s73.18,28.47,79.3,37.88c20.94-40-23.53-53.88-28.71-55.29,8.94-45.65-34.35-39.53-39.29-39.06a20.5,20.5,0,0,1-3.77,17.41c-15,15.06-28.7,1.88-31-4.47s1.35-34.73,37.17-39c38.83-4.58,87.3,37.3,98.59,89.54s-6.41,88-27.94,88S242,397.47,242.53,393.56c-17.65-.38-20.12,20.85-20.12,20.85s.18-10.06-3.35-28.23-25.24-13.77-25.24-13.77c-37.41,2.12-52.06-15.17-55.06-17.29-8.47,33.7,26.48,41.29,36.89,39.7s30.88-7.06,30.88,8.83c0,6.41-4.59,8.44-10.06,8.58l-18.06-3.7C146,401.13,137,432,137,432H293c64.24-106.65-14.59-178.76-21.88-186.53C316.76,240.29,321.94,214.88,321.94,214.88Z"/></svg>