<svg xmlns="http://www.w3.org/2000/svg" viewBox="0 0 432 432"><defs><style>.a{fill:#fff;}.b{fill:#71c1e8;}.c{fill:#4682b4;}.d{fill:#084d6e;}.e{fill:#ffdb58;}</style></defs><title>1638</title><rect class="a" width="432" height="432"/><rect class="b" y="35.35" width="397.47" height="396.65"/><rect class="c" x="0.12" y="68.53" width="363.47" height="363.47"/><rect class="d" y="101" width="332.53" height="331"/><path class="e" d="M296.34,212.12c21.41-29.39-12.37-40.76-18.55-41.23,38.53-11.85,28.54-44.08,28.54-44.08h0c-.44-.13-32.42-9.68-44.23,28.44-.47-6.16-11.89-39.81-41.39-18.48,5.71,4.26,33.6,33.17-3.89,60.66,1-7.11-5-72.46-68.79-61.52,0,0-32.59,7.42-34.71,46.24S101.61,245,76.46,257.69c6,3.53,41.8,19.06,55.62-28.59,0,0,42.51,14.12,37.55-38.82,0,0-32.59.35-22-24.71s47.12,2.12,47.12,22.59S182.39,277.81,97.72,294s-99.2-53.64-58.81-50.12c0,0-4.24-18.35-21.57-19.41,0,0,46.37,3.89,43.18-25.06s6.73-50.82,16.65-58.94c0,0-38.14-7.53-39.56,28,0,0-.24,15.18,2.48,22.47S36.43,209.69,29,208.87s-10.39-8.71-8.5-17.65S35.72,149.1,0,137.57V296.49s44.9,38.45,117.82,18.14C97.44,387.27,136,432,136,432H295.54c-11.57-35.59-44.87-22.29-53.84-20.41s-16.89-1.06-17.72-8.47,10.63-13.77,18-11.06,22.56,2.47,22.56,2.47c35.66-1.41,28.1-39.41,28.1-39.41-8.15,9.88-30.11,19.76-59.16,16.59s-25.15,43-25.15,43c-1.07-17.28-19.49-21.49-19.49-21.49,3.55,40.23-66.6,25.76-50.3-58.59s85.73-96.71,106.28-96.71,47.82,36.35,22.67,46.94S242.64,263,242.64,263c-53.14-4.94-39,37.41-39,37.41-47.82,13.77-32.24,49.41-28.69,55.41,12.75-25.06,36.84-34.58,75.81-36.7s46.41-34.59,46.41-34.59C308.18,221,242.59,215,235.45,216,263,178.65,292.06,206.43,296.34,212.12Z" transform="translate(0)"/><rect class="c" y="332.53" width="99.47" height="99.47"/><rect class="b" y="363.59" width="68.41" height="68.41"/><rect class="a" y="396.76" width="35.24" height="35.24"/></svg>