<svg viewBox="0 0 432 432" fill="none" xmlns="http://www.w3.org/2000/svg">
<g clip-path="url(#clip0_16_466)">
<path d="M0 0H432V432H0V0Z" fill="white"/>
<path d="M34.53 35.35H432V432H34.53V35.35Z" fill="#71C1E8"/>
<path d="M68.4099 68.53H431.88V432H68.4099V68.53Z" fill="#4682B4"/>
<path d="M99.47 101H432V432H99.47V101Z" fill="#084D6E"/>
<path d="M135.66 212.12C114.25 182.73 148.03 171.36 154.21 170.89C115.68 159.04 125.67 126.81 125.67 126.81C126.11 126.68 158.09 117.13 169.9 155.25C170.37 149.09 181.79 115.44 211.29 136.77C205.58 141.03 177.69 169.94 215.18 197.43C214.18 190.32 220.18 124.97 283.97 135.91C283.97 135.91 316.56 143.33 318.68 182.15C320.8 220.97 330.39 245 355.54 257.69C349.54 261.22 313.74 276.75 299.92 229.1C299.92 229.1 257.41 243.22 262.37 190.28C262.37 190.28 294.96 190.63 284.37 165.57C273.78 140.51 237.25 167.69 237.25 188.16C237.25 208.63 249.61 277.81 334.28 294C418.95 310.19 433.48 240.36 393.09 243.88C393.09 243.88 397.33 225.53 414.66 224.47C414.66 224.47 368.29 228.36 371.48 199.41C374.67 170.46 364.75 148.59 354.83 140.47C354.83 140.47 392.97 132.94 394.39 168.47C394.39 168.47 394.63 183.65 391.91 190.94C389.19 198.23 395.57 209.69 403 208.87C410.43 208.05 413.39 200.16 411.5 191.22C409.61 182.28 396.28 149.1 432 137.57V296.49C432 296.49 387.1 334.94 314.18 314.63C334.56 387.27 296 432 296 432H136.46C148.03 396.41 181.33 409.71 190.3 411.59C199.27 413.47 207.19 410.53 208.02 403.12C208.85 395.71 197.39 389.35 190.02 392.06C182.65 394.77 167.46 394.53 167.46 394.53C131.8 393.12 139.36 355.12 139.36 355.12C147.51 365 169.47 374.88 198.52 371.71C227.57 368.54 223.67 414.71 223.67 414.71C224.74 397.43 243.16 393.22 243.16 393.22C239.61 433.45 309.76 418.98 293.46 334.63C277.16 250.28 207.73 237.92 187.18 237.92C166.63 237.92 139.36 274.27 164.51 284.86C189.66 295.45 189.36 263 189.36 263C242.5 258.06 228.36 300.41 228.36 300.41C276.18 314.18 260.6 349.82 257.05 355.82C244.3 330.76 220.21 321.24 181.24 319.12C142.27 317 134.83 284.53 134.83 284.53C123.82 221 189.41 215 196.55 216C169 178.65 139.94 206.43 135.66 212.12Z" fill="#FFDB58"/>
<path d="M332.53 332.53H432V432H332.53V332.53Z" fill="#4682B4"/>
<path d="M363.59 363.59H432V432H363.59V363.59Z" fill="#71C1E8"/>
<path d="M396.76 396.76H432V432H396.76V396.76Z" fill="white"/>
</g>
<defs>
<clipPath id="clip0_16_466">
<rect width="432" height="432" fill="white"/>
</clipPath>
</defs>
</svg>
