<svg xmlns="http://www.w3.org/2000/svg" viewBox="0 0 432 432"><defs><style>.a{fill:#fff;}.b{fill:#fcc0c5;}.c{fill:#ffe4e1;}.d{fill:#f7838d;}</style></defs><title>1646</title><rect class="a" width="431.68" height="431.68"/><rect class="b" x="281.71" y="282.69" width="150.29" height="149.31"/><polygon class="c" points="432 45.94 281.71 45.94 195.53 45.94 45.23 45.94 45.23 432 281.71 432 281.71 282.41 432 282.41 432 45.94"/><polygon class="b" points="407.35 92.53 233.71 92.53 182.88 92.53 91.12 92.53 91.12 405.94 233.71 405.94 233.71 285.47 281 285.47 281 236.53 407.35 236.53 407.35 92.53"/><polygon class="d" points="144.06 144.76 144.06 189.24 144.06 241.47 144.06 357.59 191.93 357.59 191.93 241.47 239.81 241.47 239.81 189.24 355.82 189.24 355.82 144.76 144.06 144.76"/><rect class="d" x="334.32" y="334.32" width="97.68" height="97.68"/><rect class="c" x="380.53" y="380.21" width="51.47" height="51.47"/></svg>