<svg xmlns="http://www.w3.org/2000/svg" viewBox="0 0 432 432.17"><defs><style>.a{fill:#fff;}.b{fill:#084d6e;}.c{fill:#ffdb58;}</style></defs><title>1647</title><rect class="a" width="432" height="432"/><path class="b" d="M432,247.35V189l-4.37-4.24-73.45-73.45L432,33.49V4.9L427.27.17H398.33L320.69,77.82,250.26,7.39,241.47.17H190.65l-7.38,7.22L109.63,81,28.76.17H0V38.4l76.13,76.13L5.71,185,0,189.76v56.3L5.71,252l70.42,70.42L0,398.51v33.66H33.32l76.31-76.3,73.45,73.45-2.86,2.85h65.84l4-2.85,70.42-70.43,73.29,73.28h33.14L432,427.1V403.41l-78-78,73.64-73.65ZM216.77,40.89l70.42,70.42L213.55,185l-70.43-70.43Zm-107.14,248L39.2,218.45,109.63,148l70.42,70.42ZM216.57,395.82l-73.45-73.45L213.55,252,287,325.4ZM320.49,291.9,247,218.45l73.65-73.64,73.45,73.45Z"/><path class="c" d="M216,185.84l8.18,8.47h17.29v18.35l7.77,7.77-7.77,7.76v18H224.18l-8,8-7.77-7.76h-19.2V228.54l-8.16-8.15,8.65-8.65V195.37h16.8S217.71,185.84,216,185.84Z"/><path class="c" d="M110.47,77.35l8.18,8.47h17.29v18.36l7.77,7.76-7.77,7.77v18H118.65l-8,8-7.77-7.77H83.71V120.06l-8.16-8.16,8.65-8.64V86.88H101S112.18,77.35,110.47,77.35Z"/><path class="c" d="M321.53,77.35l8.18,8.47H347v18.36l7.76,7.76L347,119.71v18H329.71l-8,8L314,137.91H294.76V120.06l-8.15-8.16,8.65-8.64V86.88h16.8S323.24,77.35,321.53,77.35Z"/><path class="c" d="M110.47,291.24l8.18,8.47h17.29v18.35l7.77,7.76-7.77,7.77v18H118.65l-8,8-7.77-7.77H83.71V333.94l-8.16-8.15,8.65-8.65V300.76H101S112.18,291.24,110.47,291.24Z"/><path class="c" d="M321.53,291.24l8.18,8.47H347v18.35l7.76,7.76L347,333.59v18H329.71l-8,8L314,351.79H294.76V333.94l-8.15-8.15,8.65-8.65V300.76h16.8S323.24,291.24,321.53,291.24Z"/><polygon class="c" points="0.39 254.08 8.54 245.92 26.4 245.92 26.4 226.72 34.16 218.95 26.19 210.98 26.19 193.69 8.19 193.69 0.43 185.92 0 186.35 0 253.69 0.39 254.08"/><polygon class="c" points="431.61 185.92 423.46 194.08 405.6 194.08 405.6 213.28 397.84 221.05 405.81 229.02 405.81 246.31 423.81 246.31 431.57 254.08 432 253.65 432 186.31 431.61 185.92"/><polygon class="c" points="181.08 0.39 189.24 8.54 189.24 26.4 208.44 26.4 216.21 34.16 224.18 26.19 241.47 26.19 241.47 8.19 249.24 0.43 248.81 0 181.47 0 181.08 0.39"/><polygon class="c" points="249.24 431.61 241.08 423.46 241.08 405.6 221.88 405.6 214.11 397.84 206.14 405.81 188.85 405.81 188.85 423.81 181.08 431.57 181.51 432 248.85 432 249.24 431.61"/><polygon class="c" points="0 0 0 41.83 14.41 27.42 27.55 27.42 27.55 13.93 41.48 0 0 0"/><polygon class="c" points="432 0.17 390.17 0.17 404.58 14.59 404.58 27.72 418.07 27.72 432 41.66 432 0.17"/><polygon class="c" points="432 432 432 390.17 417.59 404.58 404.45 404.58 404.45 418.07 390.52 432 432 432"/><polygon class="c" points="0 431.83 41.83 431.83 27.42 417.42 27.42 404.28 13.93 404.28 0 390.34 0 431.83"/></svg>