<svg xmlns="http://www.w3.org/2000/svg" viewBox="0 0 432 433.09"><defs><style>.a{fill:#fff;}.b{fill:#084d6e;}</style></defs><title>1648</title><rect class="a" width="432" height="432"/><path class="b" d="M0,381.71s11.35,4.23,11.35-5.65,5.18-48,49.89-92.71c2.35-3.76,0-5.88,0-5.88S44.76,236.76,0,234.29Z"/><path class="b" d="M0,10.41s11.35-.94,21.24,8.94c0,0,4.29,45.18-8.48,89.89s-5.17,99.29-5.17,99.29,3.65,2.82-7.59,2.35Z"/><path class="b" d="M80.55,39.05l-.47-.38A19.36,19.36,0,0,0,52.33,43C40.75,59.7,23.94,94.76,22,142.92c0,.44-.05.88-.1,1.32-1.73,15.09-7.07,69,2.2,69.47,8,.4,9.55-24.61,9.82-31.91a19.79,19.79,0,0,1,.6-4.12c3-11.66,18.7-68.42,49.7-112.43A19.28,19.28,0,0,0,80.55,39.05Z"/><path class="b" d="M40.06,222.65S59.35,53.71,123.82,64.06c6.12,5.65,16.94,27.29-13.64,57.88s-48.94,65.41-61.65,98.82c-1.88,5.65-1.88,8.24-3.88,8S39.31,228.41,40.06,222.65Z"/><path class="b" d="M163.82,107.35s21.65,34.36-26.82,64.47-65.41,65.42-65.41,65.42S65,251.82,60.29,248.06s2-21.18,2-21.18S96.53,109.24,163.82,107.35Z"/><path class="b" d="M202.88,206.65s-46.59-10.36-127.53,61.64c0,0-7.7,4.06-5.94-6.08s42.65-83.8,121.47-97.21C195.82,168.06,209.47,189,202.88,206.65Z"/><path class="b" d="M47.23,0S43,11.35,52.88,11.35s48,5.18,92.7,49.89c3.77,2.35,5.89,0,5.89,0S192.17,44.76,194.64,0Z"/><path class="b" d="M418.53,0s.94,11.35-8.95,21.24c0,0-45.17,4.29-89.88-8.48s-99.29-5.17-99.29-5.17-2.83,3.65-2.35-7.59Z"/><path class="b" d="M389.89,80.55l.37-.47A19.36,19.36,0,0,0,386,52.33C369.24,40.75,334.18,23.94,286,22c-.44,0-.87-.05-1.31-.1-15.09-1.73-69-7.07-69.47,2.2-.4,8,24.61,9.55,31.91,9.82a19.79,19.79,0,0,1,4.12.6c11.65,3,68.42,18.7,112.43,49.7A19.28,19.28,0,0,0,389.89,80.55Z"/><path class="b" d="M206.29,40.06s168.94,19.29,158.59,83.76c-5.65,6.12-27.3,16.94-57.88-13.64s-65.42-48.94-98.83-61.65c-5.64-1.88-8.23-1.88-8-3.88S200.53,39.31,206.29,40.06Z"/><path class="b" d="M321.58,163.82S287.23,185.47,257.11,137,191.7,71.59,191.7,71.59,177.11,65,180.88,60.29s21.18,2,21.18,2S319.7,96.53,321.58,163.82Z"/><path class="b" d="M222.29,202.88s10.35-46.59-61.65-127.53c0,0-4.06-7.7,6.09-5.94s83.8,42.65,97.21,121.47C260.88,195.82,239.94,209.47,222.29,202.88Z"/><path class="b" d="M432,49.09s-11.35-4.24-11.35,5.64-5.18,48-49.89,92.71c-2.35,3.76,0,5.88,0,5.88S387.24,194,432,196.5Z"/><path class="b" d="M432,420.38s-11.35.94-21.24-8.94c0,0-4.29-45.18,8.48-89.88s5.17-99.3,5.17-99.3-3.65-2.82,7.59-2.35Z"/><path class="b" d="M351.45,391.75c.16.12.32.24.47.37a19.36,19.36,0,0,0,27.75-4.29c11.58-16.74,28.39-51.8,30.37-100,0-.44,0-.88.1-1.32,1.73-15.09,7.07-69-2.2-69.46-8-.41-9.55,24.6-9.82,31.9a19.79,19.79,0,0,1-.6,4.12c-3,11.66-18.7,68.42-49.7,112.43A19.29,19.29,0,0,0,351.45,391.75Z"/><path class="b" d="M391.94,208.14s-19.29,169-83.76,158.59c-6.12-5.64-16.94-27.29,13.64-57.88s48.94-65.41,61.65-98.82c1.88-5.65,1.88-8.24,3.88-8S392.69,202.39,391.94,208.14Z"/><path class="b" d="M268.18,323.44S246.53,289.09,295,259s65.41-65.41,65.41-65.41S367,179,371.71,182.73s-2,21.18-2,21.18S335.47,321.56,268.18,323.44Z"/><path class="b" d="M229.12,224.14s46.59,10.36,127.53-61.64c0,0,7.7-4.06,5.94,6.09s-42.65,83.79-121.47,97.2C236.18,262.73,222.53,241.79,229.12,224.14Z"/><path class="b" d="M379.85,433.09s4.24-11.35-5.65-11.35-48-5.17-92.7-49.88c-3.77-2.35-5.88,0-5.88,0s-40.71,16.47-43.18,61.23Z"/><path class="b" d="M8.56,433.09s-.94-11.35,8.94-21.23c0,0,45.18-4.29,89.88,8.47s99.3,5.18,99.3,5.18,2.82-3.65,2.35,7.58Z"/><path class="b" d="M37.19,352.54l-.37.48a19.36,19.36,0,0,0,4.29,27.75c16.74,11.57,51.8,28.38,100,30.37.44,0,.88.05,1.32.1,15.09,1.72,69,7.07,69.46-2.2.4-8-24.6-9.56-31.9-9.83a19.15,19.15,0,0,1-4.13-.6c-11.65-3-68.41-18.7-112.43-49.69A19.28,19.28,0,0,0,37.19,352.54Z"/><path class="b" d="M220.79,393S51.85,373.74,62.2,309.27c5.65-6.12,27.3-16.94,57.89,13.65s65.41,48.94,98.82,61.65c5.65,1.88,8.24,1.88,8,3.88S226.55,393.78,220.79,393Z"/><path class="b" d="M105.5,269.27s34.35-21.65,64.47,26.82,65.41,65.42,65.41,65.42S250,368.09,246.2,372.8s-21.17-2-21.17-2S107.38,336.57,105.5,269.27Z"/><path class="b" d="M204.79,230.21s-10.35,46.59,61.65,127.53c0,0,4.06,7.71-6.09,5.94S176.56,321,163.15,242.21C166.2,237.27,187.15,223.62,204.79,230.21Z"/></svg>