<svg xmlns="http://www.w3.org/2000/svg" viewBox="0 0 432 432"><defs><style>.a{fill:#fff;}.b{fill:#084d6e;}</style></defs><title>1649</title><rect class="a" width="432" height="432"/><rect class="a" width="432" height="432"/><polygon class="b" points="394.21 1.56 393.39 0 322.46 0 317.66 1.56 384.01 21.9 394.21 1.56"/><polygon class="b" points="323.94 0.58 322.15 0 252.5 0 252.23 0.58 262.76 21.9 323.94 0.58"/><polygon class="b" points="109.09 0.58 107.31 0 37.66 0 37.39 0.58 47.92 21.9 109.09 0.58"/><polygon class="b" points="178.38 1.56 177.6 0 111.16 0 106.67 1.56 168.82 21.9 178.38 1.56"/><polygon class="b" points="1.56 37.59 0 38.41 0 109.34 1.56 114.14 21.9 47.79 1.56 37.59"/><polygon class="b" points="0.58 107.87 0 109.66 0 179.3 0.58 179.57 21.9 169.04 0.58 107.87"/><polygon class="b" points="0.58 322.71 0 324.5 0 394.14 0.58 394.41 21.9 383.88 0.58 322.71"/><polygon class="b" points="1.56 253.43 0 254.2 0 320.64 1.56 325.13 21.9 262.98 1.56 253.43"/><polygon class="b" points="430.44 394.41 432 393.59 432 322.66 430.44 317.86 410.1 384.21 430.44 394.41"/><polygon class="b" points="431.42 324.13 432 322.35 432 252.7 431.42 252.43 410.1 262.96 431.42 324.13"/><polygon class="b" points="431.42 109.29 432 107.5 432 37.86 431.42 37.59 410.1 48.12 431.42 109.29"/><polygon class="b" points="430.44 178.57 432 177.8 432 111.36 430.44 106.87 410.1 169.02 430.44 178.57"/><polygon class="b" points="37.39 430.44 38.22 432 109.14 432 113.94 430.44 47.59 410.1 37.39 430.44"/><polygon class="b" points="215.82 109.66 236.61 169.31 215.82 179.58 195.99 170.26 215.82 109.66"/><polygon class="b" points="291.8 140.04 264.32 196.92 242.36 189.49 234.93 168.88 291.8 140.04"/><polygon class="b" points="107.31 217.2 168.48 195.88 179.02 217.2 169.46 237.53 107.31 217.2"/><polygon class="b" points="139.89 141.31 196.3 169.74 188.5 191.57 167.77 198.66 139.89 141.31"/><polygon class="b" points="324.58 216.22 263.41 237.53 252.87 216.22 262.43 195.88 324.58 216.22"/><polygon class="b" points="292.17 292.73 235.29 265.24 242.73 243.28 263.33 235.85 292.17 292.73"/><polygon class="b" points="216.27 325.14 194.96 263.96 216.27 253.43 236.61 262.99 216.27 325.14"/><polygon class="b" points="140.94 291.71 169.42 235.33 191.25 243.15 198.31 263.89 140.94 291.71"/><polygon points="236.61 169.31 243.77 189.61 263.36 195.82 253.33 217.03 263.36 236.68 242.82 243.84 236.61 264.39 216 254.12 195.75 264.39 188.83 243.13 168.28 237.15 178.56 217.03 168.28 196.78 188.83 191.05 195.99 170.26 215.82 179.58 236.61 169.31"/><polygon class="b" points="322.67 217.2 383.84 195.88 394.38 217.2 384.82 237.53 322.67 217.2"/><polygon class="b" points="355.25 141.31 411.66 169.74 403.86 191.57 383.13 198.66 355.25 141.31"/><polygon class="b" points="356.3 291.71 384.78 235.33 406.61 243.15 413.67 263.89 356.3 291.71"/><polygon points="432 179.17 431.18 179.58 411.35 170.26 404.19 191.05 383.64 196.78 393.91 217.03 383.64 237.15 404.19 243.13 411.11 264.39 431.36 254.12 432 254.43 432 179.17"/><polygon class="b" points="292.52 77.25 235.65 49.76 243.08 27.8 263.69 20.37 292.52 77.25"/><polygon class="b" points="216.63 109.66 195.31 48.48 216.63 37.95 236.96 47.51 216.63 109.66"/><polygon class="b" points="141.29 76.23 169.78 19.85 191.6 27.67 198.67 48.41 141.29 76.23"/><polygon points="178.13 0 178.91 1.55 168.64 21.67 189.18 27.65 196.11 48.91 216.36 38.63 236.96 48.91 243.17 28.36 263.72 21.2 253.69 1.55 254.42 0 178.13 0"/><polygon class="b" points="216.18 323.87 236.96 383.52 216.18 393.8 196.35 384.48 216.18 323.87"/><polygon class="b" points="292.16 354.26 264.67 411.14 242.71 403.7 235.28 383.09 292.16 354.26"/><polygon class="b" points="107.67 431.42 109.46 432 179.1 432 179.37 431.42 168.84 410.1 107.67 431.42"/><polygon class="b" points="140.25 355.53 196.66 383.95 188.86 405.79 168.13 412.88 140.25 355.53"/><polygon class="b" points="322.51 431.42 324.3 432 393.94 432 394.21 431.42 383.68 410.1 322.51 431.42"/><polygon class="b" points="355.09 355.53 411.5 383.95 403.7 405.79 382.97 412.88 355.09 355.53"/><polygon class="b" points="76.67 354.26 49.19 411.14 27.23 403.7 19.8 383.09 76.67 354.26"/><polygon class="b" points="77.04 77.25 20.16 49.76 27.6 27.8 48.21 20.37 77.04 77.25"/><polygon points="0 0 0 39.08 0.87 38.63 21.48 48.91 27.69 28.36 48.24 21.2 38.2 1.55 38.93 0 0 0"/><polygon class="b" points="355.97 76.23 384.45 19.85 406.28 27.67 413.35 48.41 355.97 76.23"/><polygon points="393.59 1.55 383.31 21.67 403.86 27.65 410.79 48.91 431.04 38.63 432 39.12 432 0 392.8 0 393.59 1.55"/><polygon points="253.87 432 253.09 430.45 263.36 410.33 242.82 404.35 235.89 383.09 215.64 393.37 195.04 383.09 188.83 403.64 168.28 410.8 178.31 430.45 177.58 432 253.87 432"/><polygon points="432 432 432 392.92 431.13 393.37 410.52 383.09 404.31 403.64 383.76 410.8 393.8 430.45 393.07 432 432 432"/><polygon points="38.41 430.45 48.69 410.33 28.14 404.35 21.21 383.09 0.96 393.37 0 392.88 0 432 39.2 432 38.41 430.45"/><polygon class="b" points="76.32 140.04 48.84 196.92 26.88 189.49 19.44 168.88 76.32 140.04"/><polygon class="b" points="109.09 216.22 47.92 237.53 37.39 216.22 46.94 195.88 109.09 216.22"/><polygon class="b" points="76.69 292.73 19.81 265.24 27.24 243.28 47.85 235.85 76.69 292.73"/><polygon points="28.29 189.61 21.12 169.31 0.34 179.58 0 179.42 0 254.38 0.52 254.12 21.12 264.39 27.34 243.84 47.88 236.68 37.85 217.03 47.88 195.82 28.29 189.61"/><polygon class="b" points="253.23 430.44 254 432 320.44 432 324.93 430.44 262.78 410.1 253.23 430.44"/><polygon points="75.19 289.92 89.5 321.55 73.68 357.33 109.46 343.02 143.35 358.83 126.78 324.38 143.35 288.41 108.52 304.61 75.19 289.92"/><polygon points="289.92 289.92 304.23 321.55 288.41 357.33 324.19 343.02 358.08 358.83 341.51 324.38 358.08 288.41 323.25 304.61 289.92 289.92"/><polygon points="76.84 76.18 90.8 107.05 75.37 141.96 110.28 127.99 143.35 143.43 127.18 109.8 143.35 74.71 109.36 90.51 76.84 76.18"/><polygon points="289.88 76.28 303.82 107.1 288.41 141.96 323.27 128.01 356.3 143.43 340.15 109.85 356.3 74.81 322.35 90.59 289.88 76.28"/></svg>