<svg xmlns="http://www.w3.org/2000/svg" viewBox="0 0 432 432"><defs><style>.a{fill:#084d6e;}.b{fill:#ffdb58;}.c{fill:#fff;}</style></defs><title>1650</title><rect class="a" width="432" height="432"/><rect class="b" y="25.47" width="432" height="378.35"/><rect class="a" y="53" width="432" height="323.29"/><rect class="c" y="68.53" width="432" height="292.24"/><path class="b" d="M210.13,171.36s10.42-46-41.71-64c8.53-2.37,32.7-9,45.5,14.69,7.58-7.58,17.53-25.12,45.5-13.27-10.9,5.21-47.87,20.38-39.81,62.56C218.66,174.68,210.13,171.36,210.13,171.36Z"/><path class="a" d="M213.92,170.88s-52.16-68.48-133-66.18a51.23,51.23,0,0,1,8.83,28.06c7.05,0,74.42-7.41,124.21,55.77,49.79-63.18,117.15-55.77,124.21-55.77A51.23,51.23,0,0,1,347,104.7C266.07,102.4,213.92,170.88,213.92,170.88Z"/><path class="b" d="M217.71,260.57s-10.43,46,41.71,64c-8.53,2.37-32.7,9-45.5-14.69-7.58,7.58-17.54,25.11-45.5,13.27,10.9-5.22,47.87-20.38,39.81-62.56C209.18,257.25,217.71,260.57,217.71,260.57Z"/><path class="a" d="M213.92,261s52.15,68.49,133,66.19a51.24,51.24,0,0,1-8.83-28.07c-7.06,0-74.42,7.41-124.21-55.76-49.79,63.17-117.16,55.76-124.21,55.76a51.24,51.24,0,0,1-8.83,28.07C161.76,329.53,213.92,261,213.92,261Z"/><path class="a" d="M49.12,163.82C58.47,154.47,84.29,75.24,0,74.18V357.82c84.29-1.06,58.47-80.29,49.12-89.64C142.65,296.76,213.92,216,213.92,216S142.65,135.24,49.12,163.82Z"/><path class="b" d="M88.65,172.83c-48.71,0-43.06,28-43.06,28H12.06V167S41,162.06,41,127.82,0,93.94,0,93.94V338.06s41,.35,41-33.88S12.06,265,12.06,265V231.12H45.59s-5.65,28.05,43.06,28.05S187.12,216,187.12,216,137.35,172.83,88.65,172.83Z"/><path class="a" d="M381.93,163.82c-9.54-9.35-35.86-88.58,50.07-89.64V357.82c-85.93-1.06-59.61-80.29-50.07-89.64-95.35,28.58-168-52.18-168-52.18S286.58,135.24,381.93,163.82Z"/><path class="b" d="M341.63,172.83c49.65,0,43.89,28,43.89,28h34.19V167s-29.51-4.94-29.51-39.18S432,93.94,432,93.94V338.06s-41.8.35-41.8-33.88S419.71,265,419.71,265V231.12H385.52s5.76,28.05-43.89,28.05S241.24,216,241.24,216,292,172.83,341.63,172.83Z"/></svg>