<svg xmlns="http://www.w3.org/2000/svg" viewBox="0 0 432 432"><defs><style>.a{fill:#fff;}.b{fill:#084d6e;}.c{fill:#fad02c;}.d{fill:#bd9f7b;}</style></defs><title>1651</title><rect class="a" width="432" height="432"/><path class="b" d="M221.21,195.06s.48-107.59,42.18-125.12c-2.84-4.74-7.58-14.69-26.54-6.64,0-7.11-10-34.59-20.19-34.59S196.57,44.35,196.57,63.3c-5.93-5.92-22.75-3.79-28,6.64,7.58,3.32,43.12,27.49,39.81,128C212.68,208.8,221.21,195.06,221.21,195.06Z"/><path class="b" d="M208.79,237.62s-.48,107.58-42.18,125.11c2.84,4.74,7.58,14.7,26.54,6.64,0,7.11,10,34.6,20.19,34.6s20.09-15.64,20.09-34.6c5.93,5.92,22.75,3.79,28-6.64-7.58-3.31-43.12-27.48-39.81-128C217.32,223.87,208.79,237.62,208.79,237.62Z"/><path class="b" d="M239.52,222.21s107.58.48,125.12,42.18c4.74-2.84,14.69-7.58,6.63-26.54,7.11,0,34.6-10,34.6-20.19s-15.64-20.09-34.6-20.09c5.93-5.93,3.79-22.75-6.63-28-3.32,7.58-27.49,43.12-128,39.81C225.77,213.68,239.52,222.21,239.52,222.21Z"/><path class="b" d="M193.81,209.59s-107.58-.48-125.12-42.18C64,170.25,54,175,62.06,194,55,194,27.46,204,27.46,214.14s15.64,20.09,34.6,20.09c-5.93,5.93-3.8,22.75,6.63,28,3.32-7.58,27.49-43.12,128-39.81C207.55,218.12,193.81,209.59,193.81,209.59Z"/><path class="c" d="M187.33,187.8s25.12,13.75,57.34,0c0,11.85-12.79,24.65,0,56.4-12.32,0-11.85-9.95-57.34,0C187.33,234.72,201.55,228.09,187.33,187.8Z"/><path class="d" d="M312,122.07s6.64,10,0,26.54c6.64,0,14.22,2.84,24.17,12.8-9.47,0-20.37,11.85-24.17,18.48s-25.11,23.7-55.45,12.32c7.11-7.11,23-20.86,14.55-29.33s-24.24,7.06-29.41,15.53c0-4.94-9-37.41,8-52.23s19.29-12,22.58-28.47c4.95,4.94,12.24,6.58,12,24C290.65,121.71,305.72,115.77,312,122.07Z"/><path class="d" d="M312.57,316.87s-10,6.64-26.54,0c0,6.64-2.85,14.22-12.8,24.18,0-9.48-11.85-20.38-18.48-24.18s-23.7-25.11-12.33-55.45c7.11,7.11,20.86,23,29.34,14.55s-7.06-24.24-15.53-29.41c4.94,0,37.41-8.94,52.23,8s12,19.29,28.47,22.59c-4.94,4.94-6.59,12.23-24,12C312.93,295.5,318.87,310.57,312.57,316.87Z"/><path class="d" d="M118.85,122.07s-6.64,10,0,26.54c-6.64,0-14.22,2.84-24.17,12.8,9.47,0,20.37,11.85,24.17,18.48s25.11,23.7,55.45,12.32c-7.11-7.11-23-20.86-14.55-29.33s24.24,7.06,29.41,15.53c0-4.94,8.94-37.41-8-52.23s-19.29-12-22.58-28.47c-5,4.94-12.24,6.58-12,24C140.22,121.71,125.15,115.77,118.85,122.07Z"/><path class="d" d="M118.3,316.87s10,6.64,26.54,0c0,6.64,2.85,14.22,12.8,24.18,0-9.48,11.85-20.38,18.48-24.18s23.7-25.11,12.33-55.45c-7.11,7.11-20.86,23-29.34,14.55s7.06-24.24,15.53-29.41c-4.94,0-37.41-8.94-52.23,8s-12,19.29-28.47,22.59c4.94,4.94,6.59,12.23,24,12C117.94,295.5,112,310.57,118.3,316.87Z"/><path class="c" d="M99.59,103.82s5.65-12,5.65-34.58c13.41,0,19.05-21.65,19.05-21.65S93.24,26.65,58.88,61s-15.29,66.82-15.29,66.82,19.76-4.23,22.35-20.23C72.76,108.76,93.82,109.59,99.59,103.82Z"/><path class="c" d="M331.67,102.83s12,5.65,34.59,5.65c0,13.41,21.65,19,21.65,19s20.94-31-13.41-65.41-66.83-15.29-66.83-15.29,4.24,19.76,20.24,22.35C326.73,76,325.91,97.06,331.67,102.83Z"/><path class="c" d="M333,330.47s-5.65,12-5.65,34.58c-13.41,0-19.06,21.65-19.06,21.65s31.06,20.94,65.41-13.41S389,306.47,389,306.47s-19.77,4.23-22.36,20.23C359.78,325.52,338.72,324.7,333,330.47Z"/><path class="c" d="M100.87,331.46s-12-5.65-34.59-5.65c0-13.41-21.64-19.06-21.64-19.06s-20.95,31.06,13.41,65.42,66.82,15.29,66.82,15.29-4.23-19.77-20.23-22.35C105.81,358.28,106.64,337.22,100.87,331.46Z"/><path class="b" d="M45.24,0S38.88,29,53,54.41c0,0-24.82-14.12-53-7.76V0Z"/><path class="b" d="M0,386.76s29,6.36,54.41-7.76c0,0-14.12,24.82-7.76,53H0Z"/><path class="b" d="M386.76,432s6.36-29-7.76-54.41c0,0,24.82,14.12,53,7.76V432Z"/><path class="b" d="M432,45.24S403,38.88,377.59,53c0,0,14.12-24.82,7.76-53H432Z"/></svg>