<svg xmlns="http://www.w3.org/2000/svg" viewBox="0 0 432 432"><defs><style>.a{fill:#fff;}.b{fill:#fad02c;}.c{fill:#084d6e;}</style></defs><title>1652</title><polygon class="a" points="432 0 343.82 0 432 104.53 432 0"/><path class="b" d="M432,43.12S403.82,0,384.06,0H190.65L432,252.76Z" transform="translate(0)"/><path class="c" d="M432,81.24S409.47,21.12,353.71,0H199.12L432,242.51Z" transform="translate(0)"/><path class="a" d="M226.65,0s8.47,27.59,44.47,41a70.39,70.39,0,0,0-.59,16.59s23.53-2,31.06,4.59,24.35,14.47,41.17,1.41,27.77-26,37.42-17.77-8.71,28.12-8.71,28.12-23.29,19.53-10.94,44.94,9.65,35.77,9.65,35.77h15.53s13.76,34.11,46.29,44.47V432H0V0Z" transform="translate(0)"/><path class="b" d="M46.15,383.21s12.32-66.35,46-46C107.28,352.4,89.75,375.15,46.15,383.21Z" transform="translate(0)"/><path class="c" d="M128.06,307.56l4.51-10.43-9.86,3.38s-19.73-13.81-44-12.4c-1.41-2.81-1.7-9-1.7-9s-71.29,19.44-37.76,89C40.42,362.79,49.72,298.54,105,327c0,0,35.79,53-43.11,62.56,4.51,5.08,61.15,34.66,87.64-36.35a25.63,25.63,0,0,1-9.3-2.25S144.12,330.67,128.06,307.56Z" transform="translate(0)"/><path class="c" d="M298.83,432s-26.77-38.49-68.76-56.53a24.74,24.74,0,0,0,5.36-9.3s-31.85-16.9-86,18.32S73.39,432,73.39,432Z" transform="translate(0)"/><path class="c" d="M0,129.79s35,26.77,51.44,68.76a21.89,21.89,0,0,1,8.46-5.36S75.28,225,43.23,279.14,0,355.23,0,355.23Z" transform="translate(0)"/><path class="c" d="M0,374.91s27.18-4.51,32,23.67C39.86,399.71,59.86,404,54.79,432H0Z" transform="translate(0)"/><path class="b" d="M178.79,409.85s41.7-1.92,54.38,22.15H125.52S144.69,412.39,178.79,409.85Z" transform="translate(0)"/><path class="b" d="M15.21,249.78S16.53,212.34,0,201v96.64S13.47,280.39,15.21,249.78Z" transform="translate(0)"/><path class="b" d="M22.1,407.6A27.15,27.15,0,0,1,32,432H0V398.58S10,396.61,22.1,407.6Z" transform="translate(0)"/></svg>