<svg xmlns="http://www.w3.org/2000/svg" viewBox="0 0 432 432"><defs><style>.a{fill:#084d6e;}.b{fill:#71c1e8;}.c{fill:#fcfcfc;}</style></defs><title>1653</title><rect class="a" width="432" height="432"/><rect class="b" x="25.47" y="25.47" width="406.53" height="406.53"/><rect class="a" x="53" y="53" width="379" height="379"/><rect class="c" x="71" y="71" width="361" height="361"/><path class="b" d="M216,120.76s18.76-26.82,44.88-12.35c-10.94,6.35-45.17,20.83-40.94,61.77a5.75,5.75,0,0,1-8.12,0s9.89-44.83-40.58-61.42C176.88,106.29,202.18,95.71,216,120.76Z"/><path class="b" d="M121.59,218.34s-26.82-18.76-12.35-44.88c6.35,10.94,20.82,45.18,61.76,40.94a5.75,5.75,0,0,1,0,8.12s-44.82-9.88-61.41,40.59C107.12,257.46,96.53,232.17,121.59,218.34Z"/><path class="a" d="M381.93,164.62c-9.54-9.23-35.86-87.47,50.07-88.52V356.19c-85.93-1-59.61-79.28-50.07-88.52-95.35,28.23-168-51.52-168-51.52S286.58,136.39,381.93,164.62Z"/><path class="b" d="M341.63,173.52c49.65,0,43.89,27.7,43.89,27.7h34.19V167.76s-29.51-4.88-29.51-38.69S432,95.62,432,95.62V336.68s-41.8.35-41.8-33.46,29.51-38.69,29.51-38.69V231.08H385.52s5.76,27.69-43.89,27.69-100.39-42.62-100.39-42.62S292,173.52,341.63,173.52Z"/><path class="a" d="M266.68,381.93C275.9,372.39,354,346.07,355,432H75.53c1-85.93,79.12-59.61,88.33-50.07-28.17-95.35,51.41-168,51.41-168S294.85,286.58,266.68,381.93Z"/><path class="b" d="M257.81,341.63c0,49.65-27.64,43.89-27.64,43.89v34.19h33.38s4.87-29.51,38.61-29.51S335.54,432,335.54,432H95s-.35-41.8,33.38-41.8S167,419.71,167,419.71h33.39V385.52s-27.64,5.76-27.64-43.89,42.53-100.39,42.53-100.39S257.81,292,257.81,341.63Z"/><rect class="b" x="357.47" y="359.59" width="74.53" height="72.41"/><rect class="a" x="376.76" y="376.76" width="55.24" height="55.24"/><rect class="b" x="403.59" y="403.59" width="28.41" height="28.41"/><path class="b" d="M323,324.76v24.71a42.07,42.07,0,0,0-27.53-7.06c0-10.59-4.23-49.76-4.23-49.76s27.16,4.94,47.46,4.59c0,6.35,8.65,29.64,8.65,29.64Z"/><path class="a" d="M349.47,104.88s-8.47,15.53-8.12,28.59c-10.23,0-72.82-7.76-125.35,53.65-8.26-8.27-48.65-48.71-76.53-47.65,0,10.59,8.47,44.35,47.65,76.53-6.38,6.38-51.53,38.53-51.53,124.29-8.12,0-26.12,9.18-26.12,9.18S99,281.71,170.88,216.15c-24.92-24.93-53.64-52.33-63.53-107.74,13.77,0,63.41,12,108.65,61.77C231,155.15,258.06,112.65,349.47,104.88Z"/></svg>