<svg xmlns="http://www.w3.org/2000/svg" viewBox="0 0 432 432"><defs><style>.a{fill:#fff;}.b{fill:#cf0e0e;}.c{fill:#03bb85;}</style></defs><title>1654</title><rect class="a" width="431.35" height="431.35"/><path class="b" d="M332.4,195.06c-.95-18.49-4.74-18-8.53-23.7-27.49,46.92-69.19,30.81-74.88,27,52.61-21.8,52.13-58.29,53.08-72.51-51.18,10-63.51,45-70.14,57.35-19.91-46,20.38-73,25.12-77.25-16.12-8.53-19.43-5.69-24.65-7.11A51.92,51.92,0,0,0,216,54.3a51.92,51.92,0,0,0-16.4,44.55c-5.22,1.42-8.53-1.42-24.65,7.11,4.74,4.26,45,31.28,25.12,77.25-6.63-12.32-19-47.39-70.14-57.35.95,14.22.47,50.71,53.08,72.51-5.69,3.8-47.39,19.91-74.88-27-3.79,5.69-7.58,5.21-8.53,23.7-7.59.47-37,5.86-44.08,20.94C62.63,231.08,92,236.47,99.6,236.94c1,18.49,4.74,18,8.53,23.7,27.49-46.92,69.19-30.81,74.88-27-52.61,21.8-52.13,58.29-53.08,72.51,51.18-10,63.51-45,70.14-57.35,19.91,46-20.38,73-25.12,77.25,16.12,8.53,19.43,5.69,24.65,7.11A51.92,51.92,0,0,0,216,377.7a51.92,51.92,0,0,0,16.4-44.55c5.22-1.42,8.53,1.42,24.65-7.11-4.74-4.26-45-31.28-25.12-77.25,6.63,12.32,19,47.39,70.14,57.35-.95-14.22-.47-50.71-53.08-72.51,5.69-3.8,47.39-19.91,74.88,27,3.79-5.69,7.58-5.21,8.53-23.7,7.59-.47,37-5.86,44.08-20.94C369.37,200.92,340,195.53,332.4,195.06Z"/><circle class="c" cx="214.39" cy="216.86" r="19.91"/><path class="b" d="M16.74,40.7c6.68,1.48,47.18,20.42,32.35,72.74,6.73-1.2,9,1.86,23-10.25,5.6,5.15,29.83,22.62,45.63,17.31,6-15.57-10.49-40.5-15.4-46.3C115,60.72,112,58.31,113.51,51.63,60.63,64.28,43.38,23,42.18,16.3c49.14,21.55,75.06.06,87-10.15V3c-1.57-1.06-3.13-2.05-4.67-3H0V127.36l1.16,1.85C10.77,118.68,37.43,93.76,16.74,40.7Z"/><path class="c" d="M0,23.4A19.87,19.87,0,0,0,24.35,0H0Z"/><path class="b" d="M391.3,16.74c-1.48,6.68-20.42,47.18-72.74,32.35,1.2,6.73-1.86,9,10.25,23-5.15,5.6-22.62,29.83-17.31,45.63,15.57,6,40.5-10.49,46.3-15.4,13.48,12.68,15.89,9.72,22.57,11.19C367.72,60.63,409,43.38,415.7,42.18c-21.55,49.14-.06,75.06,10.15,87H429c1.06-1.57,2.05-3.13,3-4.67V0H304.64l-1.85,1.16C313.32,10.77,338.24,37.43,391.3,16.74Z"/><path class="c" d="M408.6,0A19.87,19.87,0,0,0,432,24.35V0Z"/><path class="b" d="M415.26,391.3c-6.68-1.48-47.18-20.42-32.35-72.74-6.73,1.2-9-1.86-23,10.25-5.6-5.15-29.83-22.62-45.63-17.31-6,15.57,10.49,40.5,15.4,46.3C317,371.28,320,373.69,318.49,380.37c52.88-12.65,70.13,28.6,71.33,35.33-49.14-21.55-75.06-.06-87,10.15V429c1.57,1.06,3.13,2.05,4.67,3H432V304.64l-1.16-1.85C421.23,313.32,394.57,338.24,415.26,391.3Z"/><path class="c" d="M432,408.6A19.87,19.87,0,0,0,407.65,432H432Z"/><path class="b" d="M40.7,415.26c1.48-6.68,20.42-47.18,72.74-32.35-1.2-6.73,1.86-9-10.25-23,5.15-5.6,22.62-29.83,17.31-45.63-15.57-6-40.5,10.49-46.3,15.4C60.72,317,58.31,320,51.63,318.49,64.28,371.37,23,388.62,16.3,389.82c21.55-49.14.06-75.06-10.15-87H3c-1.06,1.57-2.05,3.13-3,4.67V432H127.36l1.85-1.16C118.68,421.23,93.76,394.57,40.7,415.26Z"/><path class="c" d="M23.4,432A19.87,19.87,0,0,0,0,407.65V432Z"/></svg>