<svg xmlns="http://www.w3.org/2000/svg" viewBox="0 0 432.04 432"><defs><style>.a{fill:#fff;}.b{fill:#c2e2ad;}</style></defs><title>1655</title><rect class="a" x="0.04" width="432" height="432"/><path class="b" d="M432,290.31V247.18H411.08V21.76l-37.92.3H223.24L200.29,0h-60L106.4,34.14v71.33H33.35v0L0,138.87l0,61,51.3-51.3H106.4v64h0l79.08,77.7v0h63v76.3H64.63V205h-.31L29.49,170.18,0,199.9,21.5,223.18V409.74h227V432h43.13V409.74H368V432h43.13V409.74H432V366.61H411.08v-76.3ZM149.53,52.06l21-21.18,34.86,34.31H368v182H291.59V185.8h-.3l.3-.3-79.9-79.9-.14.14v-.27h-62Zm53.84,195.12-53.84-53.84V148.6H193.7l54.76,54.77v43.81ZM368,366.61H291.59v-76.3H368Z" transform="translate(0.04)"/></svg>