<svg xmlns="http://www.w3.org/2000/svg" viewBox="0 0 369.3 426.43"><defs><style>.a{fill:#0abab5;}.b{fill:#fff;}</style></defs><title>1658</title><polygon class="a" points="369.3 106.61 184.65 0 0 106.61 0 319.82 184.65 426.43 369.3 319.82 369.3 106.61"/><path class="b" d="M226.88,24.06s17.41,10.82,4.24,25.88-53.18,63.53-66.83,130.35C161.47,165.71,160.53,21.71,226.88,24.06Z" transform="translate(-31.35 -2.72)"/><path class="b" d="M291.82,62.18S312.53,80.06,280.53,105s-78.12,104.94-89.41,125.18C182.65,193.94,225.94,34.41,291.82,62.18Z" transform="translate(-31.35 -2.72)"/><path class="b" d="M373.24,111.12s16,23.59-3.77,34.38S292.29,187.82,209,287.59C209,216,321,64.06,373.24,111.12Z" transform="translate(-31.35 -2.72)"/><path class="b" d="M382.65,209s10.82,12.71-14.59,25.88-72,29.18-147.3,106.36C222.65,284.29,352.53,158.65,382.65,209Z" transform="translate(-31.35 -2.72)"/><path class="b" d="M335.59,280.06s46.59-10.82,47.06,11.29c.31,14.75-10.25,19.24-17.33,20.6a104.74,104.74,0,0,0-20.6,6.06C320.09,328.3,267.5,354.13,216,404.29,222.65,385.47,270.18,305,335.59,280.06Z" transform="translate(-31.35 -2.72)"/><path class="b" d="M211.82,371.82s-23.29-47.06-73.88-45.64c-9.42.26-20.14,24.76,0,27.76C156.74,356.75,184.29,348.8,211.82,371.82Z" transform="translate(-31.35 -2.72)"/><path class="b" d="M203.82,326.15s-53.17-71-131.29-65.39c0,0-36.71,4.24-27.29,29.65s45.64,8.94,45.64,8.94S129.94,286.58,203.82,326.15Z" transform="translate(-31.35 -2.72)"/><path class="b" d="M190.06,267.35s-69.53-87.53-127.41-78.11c0,0-16.94,3.76-14.12,19.29s10.35,17.88,19.29,17.41S107.59,215.12,190.06,267.35Z" transform="translate(-31.35 -2.72)"/><path class="b" d="M53.24,127.59s2.35-23.53,52.23,4.7,69.18,86.12,69.18,86.12-51.3-50.35-99.77-67.76C74.88,150.65,46.18,147.82,53.24,127.59Z" transform="translate(-31.35 -2.72)"/><path class="b" d="M144.53,144.56s11.8-54.15-25.39-72.5c0,0-10.38-3.77-14.61,7.06s-4.24,13.64,3.76,20.23S136,111.87,144.53,144.56Z" transform="translate(-31.35 -2.72)"/></svg>