<svg xmlns="http://www.w3.org/2000/svg" viewBox="0 0 386.26 422.27"><defs><style>.a{fill:#084d6e;}.b{fill:#28c6be;}</style></defs><title>1659</title><polygon class="a" points="0 109.48 190.52 0 386.26 98.1 386.26 317.54 193.13 422.27 0 316.59 0 109.48"/><polygon class="b" points="0 114.69 190.97 421.09 0 316.59 0 114.69"/><polygon class="b" points="5.69 106.16 176.78 377.73 100.47 51.79 5.69 106.16"/><polygon class="b" points="183.6 3.98 187.68 377.73 110.9 45.75 183.6 3.98"/><polygon class="b" points="386.26 108.48 194.15 421.72 386.26 317.54 386.26 108.48"/><polygon class="b" points="381.01 95.48 209 377.73 280.39 45.05 381.01 95.48"/><polygon class="b" points="270.49 40.08 199.05 377.73 194.96 2.23 270.49 40.08"/></svg>