<svg xmlns="http://www.w3.org/2000/svg" viewBox="0 0 432 432"><defs><style>.a{fill:#4682b4;}.b{fill:#084d6e;}.c{fill:#fff;}.d{fill:#eccb88;}</style></defs><title>1660</title><rect class="a" width="432" height="432"/><rect class="b" x="43.82" width="341.65" height="432"/><rect class="c" x="72.06" width="285.18" height="432"/><path class="a" d="M86.33,218.53s40.79,8.12,34.79,66.35c3.88-2.47,17.64-9.88,25.41,2.12-3.53,3.18-36,39.18,19.06,74.12-8.47,16.59-11.3,16.41-11.3,16.41s-39.93-57.71-68-29.47c0,0-12.15-17.3,9.91-33.35-3.89-5.65-15.36-22.42-4.42-39.36S101.3,229.82,86.33,218.53Z"/><path class="a" d="M348.06,273.24s-28.24-33.89-11.65-90.71,6-116.12-67.06-134.12c-9.17,14.12-3.53,15.18-3.53,15.18s76.24,49.76,8.83,82.23c0,5.65-1.77,22.94,15.88,31.42-2.82,7.41-11.65,28.23-7.41,35.64s28.94,7.06,28.94,7.06S302.88,255.94,348.06,273.24Z"/><path class="a" d="M269.71,377.53a25.56,25.56,0,0,0,21.88-10.77c8.47-12,22.59-38.11,50.82-20.47-2.82-9.17-8.42-31.76-36.33-32.82-.37-10.94,0-40.23-31.79-61.06s-51.53-70.59-39.88-96c-10.23,9.18-46.59,39.53-77.65,13.41S119,94.29,165.59,68.35c-2.12-13.23-2.47-19.94-2.47-19.94S89.71,81.59,114.41,170.18c9.18,19.76,11.3,28.94,44.12,69.17,4.59,8.47,11.29,18.71,7.06,32.12,5.65-4.23,101.29-36.23,115.06,51.24,0,0,7.11,24.23-16.55,43C267.59,369.94,269.71,377.53,269.71,377.53Z"/><path class="b" d="M88.29,0S95,18.76,116.18,32.18c.35,5.29,0,12.7,0,12.7a30.83,30.83,0,0,0,26.11-5.29c13.06-9.53,20.12-11.3,20.12-11.3l-6.7,23s-5.3,19.05,10.58,19.05a110.4,110.4,0,0,1,27.18,3.18s-17.29,18.35-14.82,42.35a50.69,50.69,0,0,1,14.82,2.47s8.35,20.83,22.53,28.24c7.47-4.94,20.88-14.47,24.41-28.59a50.36,50.36,0,0,0,13.06-2.12s4.24-24.06-14.12-42.56c5.65,0,31.77-1.2,36-7.2s4.24-9.47-5.64-37.77c5.64,1.42,14.11,3.53,22.23,11.3s25.41,5.29,25.41,5.29V30.76S333.59,22.88,343.82,0Z"/><path class="b" d="M343.82,432s-6.7-18.76-27.88-32.18c-.35-5.29,0-12.7,0-12.7a30.85,30.85,0,0,0-26.12,5.29c-13.06,9.53-20.11,11.3-20.11,11.3l6.7-22.95s5.3-19.05-10.59-19.05a110.36,110.36,0,0,1-27.17-3.18s17.29-18.35,14.82-42.35a50.69,50.69,0,0,1-14.82-2.47s-8.36-20.83-22.53-28.24c-7.47,4.94-20.88,14.47-24.41,28.59a50.26,50.26,0,0,0-13.06,2.12s-4.24,24.06,14.11,42.56c-5.64,0-31.76,1.2-36,7.2s-4.23,9.47,5.65,37.77c-5.65-1.42-14.12-3.53-22.23-11.3s-25.42-5.29-25.42-5.29v14.12S98.53,409.12,88.29,432Z"/><path class="d" d="M214.55,407.35s19.18-28.23,38.95-29.64c-1.2,7.76-2.69,26.35-22.47,54.29h-33S174.7,396.76,175,375.94C179.5,377.71,198.07,382.71,214.55,407.35Z"/><path class="d" d="M217.45,24.65S198.27,52.88,178.5,54.29C179.7,46.53,181.19,27.94,201,0h33S257.3,35.24,257,56.06C252.5,54.29,233.93,49.29,217.45,24.65Z"/><path class="d" d="M153,198.65s25.88,17.41,56.47,0c3.77,8.94,13.65,37.17,33.41,49.88-8-4.24-36.7-20.24-61.64-5.18C180.29,238.65,178.41,215.12,153,198.65Z"/></svg>