<svg xmlns="http://www.w3.org/2000/svg" viewBox="0 0 432 432"><defs><style>.a{fill:#fff;}.b{fill:#03bb85;}</style></defs><title>1661</title><rect class="a" width="432" height="432"/><path class="b" d="M362.29,84.25A495.12,495.12,0,0,1,432,74.33V54.42s-26.29-.43-65,7A580,580,0,0,0,374.88,0H354.41s-.35,27-8.93,66.08c-38.46,9.4-85,26.37-129.48,57-44.46-30.6-91-47.57-129.48-57C77.94,27,77.59,0,77.59,0H57.12A580,580,0,0,0,65,61.39c-38.68-7.4-65-7-65-7V74.33a495.12,495.12,0,0,1,69.71,9.92c12.27,52.87,31.57,96.22,55,131.75-23.47,35.53-42.77,78.88-55,131.75A495.12,495.12,0,0,1,0,357.67v19.91s26.29.43,65-7A580,580,0,0,0,57.12,432H77.59s.35-26.95,8.93-66.08c38.46-9.4,85-26.37,129.48-57,44.46,30.6,91,47.57,129.48,57,8.58,39.13,8.93,66.08,8.93,66.08h20.47A580,580,0,0,0,367,370.61c38.68,7.4,65,7,65,7V357.67a495.12,495.12,0,0,1-69.71-9.92c-12.27-52.87-31.57-96.22-55-131.75C330.72,180.47,350,137.12,362.29,84.25Zm-22.72,5.61c-9,32.26-23.39,69.71-46.49,106.26A337.08,337.08,0,0,0,234.84,137C264,117.5,298.58,101.18,339.57,89.86ZM279.53,216A327.49,327.49,0,0,1,216,281.47,327.49,327.49,0,0,1,152.47,216,327.49,327.49,0,0,1,216,150.53,327.49,327.49,0,0,1,279.53,216ZM92.43,89.86c41,11.32,75.57,27.64,104.73,47.11a337.08,337.08,0,0,0-58.24,59.15C115.82,159.57,101.41,122.12,92.43,89.86Zm0,252.28c9-32.26,23.39-69.71,46.49-106.26A337.08,337.08,0,0,0,197.16,295C168,314.5,133.42,330.82,92.43,342.14Zm247.14,0C298.58,330.82,264,314.5,234.84,295a337.08,337.08,0,0,0,58.24-59.15C316.18,272.43,330.59,309.88,339.57,342.14Z"/><path class="b" d="M432,312.35s-57.12-30.23-57.12-95.94S432,119.65,432,119.65v24s-37.35,24.82-37.35,72.76S432,288.35,432,288.35Z"/><path class="b" d="M0,119.65s57.12,30.23,57.12,95.94S0,312.35,0,312.35v-24s37.35-24.82,37.35-72.76S0,143.65,0,143.65Z"/><path class="b" d="M119.65,432s30.23-57.12,95.94-57.12S312.35,432,312.35,432h-24s-24.82-37.35-72.76-37.35S143.65,432,143.65,432Z"/><path class="b" d="M312.35,0s-30.23,57.12-95.94,57.12S119.65,0,119.65,0h24s24.82,37.35,72.76,37.35S288.35,0,288.35,0Z"/></svg>