<svg width="308" height="307" viewBox="0 0 308 307" fill="none" xmlns="http://www.w3.org/2000/svg">
<path d="M11.66 87.12C-9.75 57.73 24.03 46.36 30.21 45.89C-8.32001 34.04 1.67001 1.81001 1.67001 1.81001C2.11001 1.68001 34.09 -7.86998 45.9 30.25C46.37 24.09 57.79 -9.55998 87.29 11.77C81.58 16.03 53.69 44.94 91.18 72.43C90.18 65.32 96.18 -0.0299807 159.97 10.91C159.97 10.91 192.56 18.33 194.68 57.15C196.8 95.97 206.39 120 231.54 132.69C225.54 136.22 189.74 151.75 175.92 104.1C175.92 104.1 133.41 118.22 138.37 65.28C138.37 65.28 170.96 65.63 160.37 40.57C149.78 15.51 113.25 42.69 113.25 63.16C113.25 83.63 125.61 152.81 210.28 169C294.95 185.19 309.48 115.36 269.09 118.88C269.09 118.88 273.33 100.53 290.66 99.47C290.66 99.47 244.29 103.36 247.48 74.41C250.67 45.46 240.75 23.59 230.83 15.47C230.83 15.47 268.97 7.94002 270.39 43.47C270.39 43.47 270.63 58.65 267.91 65.94C265.19 73.23 271.57 84.69 279 83.87C286.43 83.05 289.39 75.16 287.5 66.22C285.61 57.28 272.28 24.1 308 12.57V171.49C308 171.49 263.1 209.94 190.18 189.63C210.56 262.27 172 307 172 307H12.46C24.03 271.41 57.33 284.71 66.3 286.59C75.27 288.47 83.19 285.53 84.02 278.12C84.85 270.71 73.39 264.35 66.02 267.06C58.65 269.77 43.46 269.53 43.46 269.53C7.79999 268.12 15.36 230.12 15.36 230.12C23.51 240 45.47 249.88 74.52 246.71C103.57 243.54 99.67 289.71 99.67 289.71C100.74 272.43 119.16 268.22 119.16 268.22C115.61 308.45 185.76 293.98 169.46 209.63C153.16 125.28 83.73 112.92 63.18 112.92C42.63 112.92 15.36 149.27 40.51 159.86C65.66 170.45 65.36 138 65.36 138C118.5 133.06 104.36 175.41 104.36 175.41C152.18 189.18 136.6 224.82 133.05 230.82C120.3 205.76 96.21 196.24 57.24 194.12C18.27 192 10.83 159.53 10.83 159.53C-0.180014 96 65.41 90 72.55 91C45 53.65 15.94 81.43 11.66 87.12Z" fill="#FFDB58"/>
</svg>
