<svg version="1.1" xmlns="http://www.w3.org/2000/svg" xmlns:xlink="http://www.w3.org/1999/xlink" x="0px" y="0px" width="500px" height="500px" viewBox="0 0 500 500" enable-background="new 0 0 500 500" xml:space="preserve">
<g id="B">
	<path class="paintable" fill="#A7A9AC" d="M400.331,334.438c22.186,0,44.371,0,66.557,0c-44.014,44.289-88.16,88.436-132.45,132.45
		c0-22.186,0-44.371,0-66.557C356.54,378.504,378.504,356.54,400.331,334.438z M334.438,266.888c0-22.186,0-44.371,0-66.557
		c44.29,44.014,88.437,88.161,132.45,132.45c-22.186,0-44.371,0-66.557,0C378.504,310.679,356.54,288.715,334.438,266.888z
		 M400.331,0c22.186,0,44.371,0,66.557,0c-44.014,44.29-88.16,88.436-132.45,132.45c0-22.185,0-44.371,0-66.556
		C356.54,44.067,378.504,22.103,400.331,0z M332.781,400.331c0,22.186,0,44.371,0,66.557c-44.289-44.014-88.436-88.16-132.45-132.45
		c22.186,0,44.371,0,66.557,0C288.715,356.54,310.679,378.504,332.781,400.331z M266.888,332.781c-22.186,0-44.371,0-66.557,0
		c44.014-44.29,88.161-88.437,132.45-132.45c0,22.186,0,44.371,0,66.557C310.679,288.714,288.715,310.679,266.888,332.781z
		 M332.781,65.894c0,22.186,0,44.371,0,66.556C288.492,88.437,244.345,44.29,200.331,0c22.186,0,44.371,0,66.557,0
		C288.715,22.103,310.679,44.067,332.781,65.894z M65.894,334.438c22.186,0,44.371,0,66.556,0
		C88.437,378.727,44.29,422.873,0,466.888c0-22.186,0-44.371,0-66.557C22.103,378.504,44.067,356.54,65.894,334.438z M0,266.888
		c0-22.186,0-44.371,0-66.557c44.29,44.014,88.437,88.161,132.45,132.45c-22.185,0-44.371,0-66.556,0
		C44.067,310.679,22.103,288.715,0,266.888z M65.894,0c22.186,0,44.371,0,66.556,0C88.437,44.29,44.29,88.436,0,132.45
		c0-22.185,0-44.371,0-66.556C22.103,44.067,44.067,22.103,65.894,0z M495.695,371.854c-41.007,41.007-82.91,82.579-124.172,123.841
		c-0.654,0.654-1.348,1.323-1.987,1.986c-0.653,0.679-1.411,1.362-1.655,2.318c22.075,0,44.15,0,66.225,0
		c21.828-22.103,43.792-44.067,65.895-65.895c0-22.074,0-44.149,0-66.225C498.114,368.683,497.053,370.497,495.695,371.854z
		 M500,299.338c0-22.075,0-44.15,0-66.225c-22.103-21.827-44.066-43.792-65.895-65.894c-22.074,0-44.149,0-66.225,0
		c0.244,0.956,1.002,1.64,1.655,2.318c0.64,0.664,1.333,1.333,1.987,1.986c41.262,41.262,83.165,82.834,124.172,123.841
		C497.053,296.722,498.114,298.536,500,299.338z M495.695,37.417c-41.007,41.007-82.91,82.579-124.172,123.841
		c-0.654,0.654-1.348,1.323-1.987,1.987c-0.653,0.678-1.411,1.361-1.655,2.318c22.075,0,44.15,0,66.225,0
		c21.828-22.103,43.792-44.067,65.895-65.894c0-22.075,0-44.15,0-66.225C498.114,34.245,497.053,36.06,495.695,37.417z
		 M295.364,495.695c-41.007-41.007-82.579-82.91-123.841-124.172c-0.654-0.654-1.323-1.348-1.986-1.987
		c-0.678-0.653-1.362-1.411-2.318-1.655c0,22.075,0,44.15,0,66.225c22.103,21.828,44.067,43.792,65.894,65.895
		c22.075,0,44.15,0,66.225,0C298.536,498.114,296.722,497.053,295.364,495.695z M299.338,167.219c-22.075,0-44.15,0-66.225,0
		c-21.827,22.103-43.792,44.067-65.894,65.894c0,22.075,0,44.15,0,66.225c0.956-0.244,1.64-1.003,2.318-1.656
		c0.664-0.639,1.333-1.332,1.986-1.986c41.262-41.262,82.834-83.166,123.841-124.172
		C296.722,170.166,298.536,169.104,299.338,167.219z M295.364,161.258c-41.007-41.006-82.579-82.91-123.841-124.172
		c-0.654-0.654-1.323-1.347-1.986-1.987c-0.678-0.653-1.362-1.412-2.318-1.655c0,22.075,0,44.15,0,66.225
		c22.103,21.827,44.067,43.791,65.894,65.894c22.075,0,44.15,0,66.225,0C298.536,163.677,296.722,162.615,295.364,161.258z
		 M161.258,371.854c-41.006,41.007-82.91,82.579-124.172,123.841c-0.654,0.654-1.347,1.323-1.987,1.986
		c-0.653,0.679-1.412,1.362-1.655,2.318c22.075,0,44.15,0,66.225,0c21.827-22.103,43.791-44.067,65.894-65.895
		c0-22.074,0-44.149,0-66.225C163.677,368.683,162.615,370.497,161.258,371.854z M165.563,299.338c0-22.075,0-44.15,0-66.225
		c-22.103-21.827-44.067-43.792-65.894-65.894c-22.075,0-44.15,0-66.225,0c0.244,0.956,1.002,1.64,1.655,2.318
		c0.64,0.664,1.333,1.333,1.987,1.986c41.262,41.262,83.166,82.834,124.172,123.841
		C162.615,296.722,163.677,298.536,165.563,299.338z M161.258,37.417c-41.006,41.007-82.91,82.579-124.172,123.841
		c-0.654,0.654-1.347,1.323-1.987,1.987c-0.653,0.678-1.412,1.361-1.655,2.318c22.075,0,44.15,0,66.225,0
		c21.827-22.103,43.791-44.067,65.894-65.894c0-22.075,0-44.15,0-66.225C163.677,34.245,162.615,36.06,161.258,37.417z"></path>
</g>
<g id="A">
	<path class="paintable" fill="#58595B" d="M400.662,334.438c-21.937,22.213-44.012,44.288-66.225,66.225c0-22.075,0-44.149,0-66.225
		C356.513,334.438,378.587,334.438,400.662,334.438z M334.438,332.781c0-22.075,0-44.149,0-66.225
		c22.213,21.937,44.288,44.012,66.225,66.225C378.587,332.781,356.513,332.781,334.438,332.781z M400.662,0
		c-21.937,22.213-44.012,44.288-66.225,66.225c0-22.075,0-44.15,0-66.225C356.513,0,378.587,0,400.662,0z M332.781,400.662
		c-22.213-21.937-44.288-44.012-66.225-66.225c22.075,0,44.149,0,66.225,0C332.781,356.513,332.781,378.587,332.781,400.662z
		 M332.781,332.781c-22.075,0-44.149,0-66.225,0c21.937-22.213,44.012-44.288,66.225-66.225
		C332.781,288.632,332.781,310.706,332.781,332.781z M332.781,66.225C310.568,44.288,288.493,22.213,266.557,0
		c22.075,0,44.149,0,66.225,0C332.781,22.075,332.781,44.15,332.781,66.225z M66.225,334.438
		C44.288,356.65,22.213,378.726,0,400.662c0-22.075,0-44.149,0-66.225C22.075,334.438,44.15,334.438,66.225,334.438z M0,332.781
		c0-22.075,0-44.149,0-66.225c22.213,21.937,44.288,44.012,66.225,66.225C44.15,332.781,22.075,332.781,0,332.781z M66.225,0
		C44.288,22.213,22.213,44.288,0,66.225C0,44.15,0,22.075,0,0C22.075,0,44.15,0,66.225,0z M338.742,462.914
		c-0.655,0.654-1.324,1.347-1.987,1.986c-0.678,0.653-1.361,1.412-2.317,1.656c0,11.147,0,22.295,0,33.443
		c11.147,0,22.295,0,33.443,0c43.901-44.177,87.941-88.218,132.119-132.119c0-11.148,0-22.296,0-33.443c-11.037,0-22.075,0-33.112,0
		C424.242,377.207,381.585,420.07,338.742,462.914z M466.888,332.781c11.037,0,22.075,0,33.112,0c0-11.147,0-22.296,0-33.443
		c-44.178-43.901-88.218-87.942-132.119-132.119c-11.148,0-22.296,0-33.443,0c0,11.148,0,22.295,0,33.443
		c0.956,0.244,1.64,1.002,2.317,1.656c0.663,0.64,1.332,1.333,1.987,1.987C381.585,247.148,424.242,290.012,466.888,332.781z
		 M338.742,128.477c-0.655,0.654-1.324,1.347-1.987,1.986c-0.678,0.653-1.361,1.412-2.317,1.656c0,11.148,0,22.296,0,33.444
		c11.147,0,22.295,0,33.443,0C411.782,121.386,455.822,77.345,500,33.444c0-11.148,0-22.296,0-33.444c-11.037,0-22.075,0-33.112,0
		C424.242,42.77,381.585,85.633,338.742,128.477z M204.305,338.742c-0.654-0.655-1.347-1.324-1.987-1.987
		c-0.653-0.678-1.412-1.361-1.656-2.317c-11.148,0-22.295,0-33.443,0c0,11.147,0,22.295,0,33.443
		c44.177,43.901,88.218,87.941,132.119,132.119c11.147,0,22.296,0,33.443,0c0-11.037,0-22.075,0-33.112
		C290.012,424.242,247.148,381.585,204.305,338.742z M332.781,200.331c0-11.037,0-22.075,0-33.112c-11.147,0-22.296,0-33.443,0
		c-43.901,44.177-87.942,88.218-132.119,132.119c0,11.147,0,22.296,0,33.443c11.148,0,22.295,0,33.443,0
		c0.244-0.956,1.002-1.64,1.656-2.317c0.64-0.663,1.333-1.333,1.987-1.987C247.148,285.634,290.012,242.977,332.781,200.331z
		 M204.305,4.305c-0.654-0.655-1.347-1.324-1.987-1.987c-0.653-0.678-1.412-1.361-1.656-2.318c-11.148,0-22.295,0-33.443,0
		c0,11.148,0,22.296,0,33.444c44.177,43.901,88.218,87.941,132.119,132.119c11.147,0,22.296,0,33.443,0c0-11.038,0-22.075,0-33.113
		C290.012,89.805,247.148,47.148,204.305,4.305z M4.305,462.914c-0.654,0.654-1.324,1.347-1.987,1.986
		c-0.678,0.653-1.361,1.412-2.318,1.656C0,477.704,0,488.852,0,500c11.148,0,22.296,0,33.444,0
		c43.901-44.177,87.941-88.218,132.119-132.119c0-11.148,0-22.296,0-33.443c-11.038,0-22.075,0-33.113,0
		C89.805,377.207,47.148,420.07,4.305,462.914z M132.45,332.781c11.038,0,22.075,0,33.113,0c0-11.147,0-22.296,0-33.443
		c-44.178-43.901-88.218-87.942-132.119-132.119c-11.148,0-22.296,0-33.444,0c0,11.148,0,22.295,0,33.443
		c0.957,0.244,1.64,1.002,2.318,1.656c0.663,0.64,1.333,1.333,1.987,1.987C47.148,247.148,89.805,290.012,132.45,332.781z
		 M4.305,128.477c-0.654,0.654-1.324,1.347-1.987,1.986c-0.678,0.653-1.361,1.412-2.318,1.656c0,11.148,0,22.296,0,33.444
		c11.148,0,22.296,0,33.444,0c43.901-44.177,87.941-88.218,132.119-132.119c0-11.148,0-22.296,0-33.444c-11.038,0-22.075,0-33.113,0
		C89.805,42.77,47.148,85.633,4.305,128.477z M498.345,435.762c-0.519,0.497-1.153,0.812-1.656,1.324
		c-0.549,0.559-1.092,1.11-1.655,1.656c-0.245,0.236-0.393,0.805-0.662,0.993c-0.316,0.221-0.736,0.074-0.993,0.331
		c-0.576,0.573-0.728,1.408-1.325,1.986c-0.508,0.492-1.154,0.832-1.655,1.325c-1.005,0.987-1.836,2.126-2.98,2.979
		c-1.651,1.879-3.552,3.514-5.298,5.298c-1.694,1.731-3.564,3.276-4.967,5.299c-1.012-0.364-0.572,0.572-0.993,0.993
		c-0.108,0.108-0.559-0.112-0.662,0c-0.474,0.513-0.543,1.21-0.994,1.655c-0.467,0.463-1.216,0.594-1.655,0.993
		c-0.346,0.314-0.522,0.86-0.993,1.325c-1.668,1.643-3.202,3.42-4.967,4.967c-5.439,5.599-11.087,10.989-16.557,16.556
		c-2.613,2.647-5.193,5.22-7.947,7.947c-0.81,0.802-1.396,1.989-2.648,2.318c-0.782,1.753-2.421,2.476-3.643,3.973
		c-0.461,0.564-1.654,1.348-1.987,2.318c21.966,0,43.93,0,65.895,0c0-21.965,0-43.929,0-65.895
		C498.967,434.014,498.867,435.26,498.345,435.762z M500,233.113c0-21.965,0-43.929,0-65.894c-21.965,0-43.929,0-65.895,0
		c0.333,0.971,1.526,1.753,1.987,2.318c1.222,1.498,2.86,2.22,3.643,3.973c1.253,0.329,1.839,1.516,2.648,2.318
		c2.754,2.728,5.334,5.3,7.947,7.947c5.47,5.567,11.117,10.958,16.557,16.556c1.765,1.546,3.299,3.324,4.967,4.967
		c0.471,0.464,0.647,1.01,0.993,1.325c0.439,0.4,1.188,0.531,1.655,0.993c0.451,0.445,0.521,1.143,0.994,1.656
		c0.104,0.112,0.554-0.108,0.662,0c0.421,0.421-0.019,1.357,0.993,0.993c1.402,2.022,3.272,3.567,4.967,5.298
		c1.746,1.784,3.646,3.419,5.298,5.298c1.145,0.854,1.976,1.992,2.98,2.98c0.501,0.493,1.147,0.833,1.655,1.325
		c0.598,0.578,0.749,1.413,1.325,1.987c0.257,0.257,0.677,0.11,0.993,0.331c0.27,0.188,0.417,0.757,0.662,0.994
		c0.563,0.545,1.106,1.097,1.655,1.655c0.503,0.512,1.138,0.827,1.656,1.325C498.867,231.959,498.967,233.205,500,233.113z
		 M498.345,101.325c-0.519,0.497-1.153,0.812-1.656,1.324c-0.549,0.559-1.092,1.11-1.655,1.656
		c-0.245,0.237-0.393,0.805-0.662,0.993c-0.316,0.221-0.736,0.075-0.993,0.331c-0.576,0.574-0.728,1.409-1.325,1.987
		c-0.508,0.492-1.154,0.832-1.655,1.325c-1.005,0.988-1.836,2.126-2.98,2.98c-1.651,1.879-3.552,3.514-5.298,5.298
		c-1.694,1.731-3.564,3.276-4.967,5.298c-1.012-0.364-0.572,0.572-0.993,0.993c-0.108,0.108-0.559-0.112-0.662,0
		c-0.474,0.513-0.543,1.211-0.994,1.656c-0.467,0.462-1.216,0.593-1.655,0.994c-0.346,0.314-0.522,0.86-0.993,1.324
		c-1.668,1.644-3.202,3.42-4.967,4.967c-5.439,5.599-11.087,10.989-16.557,16.557c-2.613,2.647-5.193,5.219-7.947,7.947
		c-0.81,0.802-1.396,1.989-2.648,2.318c-0.782,1.753-2.421,2.476-3.643,3.974c-0.461,0.564-1.654,1.347-1.987,2.318
		c21.966,0,43.93,0,65.895,0c0-21.965,0-43.929,0-65.894C498.967,99.577,498.867,100.823,498.345,101.325z M231.457,498.345
		c-0.498-0.519-0.813-1.153-1.325-1.656c-0.559-0.549-1.11-1.092-1.655-1.655c-0.237-0.245-0.805-0.393-0.994-0.662
		c-0.221-0.316-0.074-0.736-0.331-0.993c-0.574-0.576-1.409-0.728-1.987-1.325c-0.492-0.508-0.832-1.154-1.325-1.655
		c-0.988-1.005-2.126-1.836-2.98-2.98c-1.879-1.651-3.514-3.552-5.298-5.298c-1.731-1.694-3.276-3.564-5.298-4.967
		c0.364-1.012-0.572-0.572-0.993-0.993c-0.108-0.108,0.112-0.559,0-0.662c-0.513-0.474-1.21-0.543-1.656-0.994
		c-0.462-0.467-0.593-1.216-0.993-1.655c-0.314-0.346-0.86-0.522-1.325-0.993c-1.643-1.668-3.42-3.202-4.967-4.967
		c-5.598-5.439-10.989-11.087-16.556-16.557c-2.647-2.613-5.22-5.193-7.947-7.947c-0.802-0.81-1.989-1.396-2.318-2.648
		c-1.753-0.782-2.476-2.421-3.973-3.643c-0.564-0.461-1.347-1.654-2.318-1.987c0,21.966,0,43.93,0,65.895
		c21.965,0,43.929,0,65.894,0C233.205,498.967,231.959,498.867,231.457,498.345z M233.113,167.219c-21.965,0-43.929,0-65.894,0
		c0,21.965,0,43.929,0,65.894c0.971-0.333,1.753-1.526,2.318-1.987c1.498-1.222,2.22-2.861,3.973-3.643
		c0.329-1.252,1.516-1.839,2.318-2.649c2.728-2.753,5.3-5.333,7.947-7.947c5.567-5.47,10.958-11.117,16.556-16.556
		c1.546-1.765,3.324-3.299,4.967-4.967c0.464-0.471,1.01-0.648,1.325-0.993c0.4-0.439,0.531-1.188,0.993-1.656
		c0.445-0.451,1.143-0.52,1.656-0.994c0.112-0.104-0.108-0.554,0-0.662c0.421-0.421,1.357,0.019,0.993-0.993
		c2.022-1.403,3.567-3.272,5.298-4.967c1.784-1.746,3.419-3.646,5.298-5.298c0.854-1.144,1.992-1.976,2.98-2.98
		c0.493-0.501,0.833-1.148,1.325-1.656c0.578-0.597,1.413-0.749,1.987-1.325c0.257-0.257,0.11-0.677,0.331-0.993
		c0.188-0.27,0.757-0.417,0.994-0.662c0.545-0.564,1.097-1.106,1.655-1.656c0.512-0.503,0.827-1.137,1.325-1.656
		C231.959,168.351,233.205,168.251,233.113,167.219z M231.457,163.907c-0.498-0.519-0.813-1.153-1.325-1.656
		c-0.559-0.549-1.11-1.091-1.655-1.655c-0.237-0.245-0.805-0.393-0.994-0.663c-0.221-0.316-0.074-0.735-0.331-0.993
		c-0.574-0.575-1.409-0.727-1.987-1.325c-0.492-0.507-0.832-1.154-1.325-1.655c-0.988-1.005-2.126-1.836-2.98-2.98
		c-1.879-1.651-3.514-3.552-5.298-5.298c-1.731-1.694-3.276-3.564-5.298-4.967c0.364-1.012-0.572-0.572-0.993-0.994
		c-0.108-0.108,0.112-0.559,0-0.662c-0.513-0.474-1.21-0.543-1.656-0.993c-0.462-0.468-0.593-1.217-0.993-1.656
		c-0.314-0.346-0.86-0.522-1.325-0.994c-1.643-1.667-3.42-3.202-4.967-4.967c-5.598-5.439-10.989-11.086-16.556-16.556
		c-2.647-2.614-5.22-5.193-7.947-7.947c-0.802-0.81-1.989-1.396-2.318-2.649c-1.753-0.781-2.476-2.42-3.973-3.642
		c-0.564-0.46-1.347-1.654-2.318-1.987c0,21.965,0,43.929,0,65.894c21.965,0,43.929,0,65.894,0
		C233.205,164.53,231.959,164.431,231.457,163.907z M163.907,435.762c-0.519,0.497-1.153,0.812-1.656,1.324
		c-0.549,0.559-1.091,1.11-1.655,1.656c-0.245,0.236-0.393,0.805-0.663,0.993c-0.316,0.221-0.735,0.074-0.993,0.331
		c-0.575,0.573-0.727,1.408-1.325,1.986c-0.507,0.492-1.154,0.832-1.655,1.325c-1.005,0.987-1.836,2.126-2.98,2.979
		c-1.651,1.879-3.552,3.514-5.298,5.298c-1.694,1.731-3.564,3.276-4.967,5.299c-1.012-0.364-0.572,0.572-0.994,0.993
		c-0.108,0.108-0.559-0.112-0.662,0c-0.474,0.513-0.543,1.21-0.993,1.655c-0.468,0.463-1.217,0.594-1.656,0.993
		c-0.346,0.314-0.522,0.86-0.994,1.325c-1.667,1.643-3.202,3.42-4.967,4.967c-5.439,5.599-11.086,10.989-16.556,16.556
		c-2.614,2.647-5.193,5.22-7.947,7.947c-0.81,0.802-1.396,1.989-2.649,2.318c-0.781,1.753-2.42,2.476-3.642,3.973
		c-0.46,0.564-1.654,1.348-1.987,2.318c21.965,0,43.929,0,65.894,0c0-21.965,0-43.929,0-65.895
		C164.53,434.014,164.431,435.26,163.907,435.762z M165.563,233.113c0-21.965,0-43.929,0-65.894c-21.965,0-43.929,0-65.894,0
		c0.333,0.971,1.526,1.753,1.987,2.318c1.222,1.498,2.861,2.22,3.642,3.973c1.253,0.329,1.84,1.516,2.649,2.318
		c2.753,2.728,5.333,5.3,7.947,7.947c5.47,5.567,11.117,10.958,16.556,16.556c1.765,1.546,3.299,3.324,4.967,4.967
		c0.471,0.464,0.648,1.01,0.994,1.325c0.439,0.4,1.188,0.531,1.656,0.993c0.45,0.445,0.52,1.143,0.993,1.656
		c0.104,0.112,0.554-0.108,0.662,0c0.421,0.421-0.019,1.357,0.994,0.993c1.403,2.022,3.272,3.567,4.967,5.298
		c1.746,1.784,3.646,3.419,5.298,5.298c1.144,0.854,1.976,1.992,2.98,2.98c0.501,0.493,1.148,0.833,1.655,1.325
		c0.598,0.578,0.75,1.413,1.325,1.987c0.258,0.257,0.677,0.11,0.993,0.331c0.27,0.188,0.417,0.757,0.663,0.994
		c0.564,0.545,1.106,1.097,1.655,1.655c0.503,0.512,1.137,0.827,1.656,1.325C164.431,231.959,164.53,233.205,165.563,233.113z
		 M163.907,101.325c-0.519,0.497-1.153,0.812-1.656,1.324c-0.549,0.559-1.091,1.11-1.655,1.656
		c-0.245,0.237-0.393,0.805-0.663,0.993c-0.316,0.221-0.735,0.075-0.993,0.331c-0.575,0.574-0.727,1.409-1.325,1.987
		c-0.507,0.492-1.154,0.832-1.655,1.325c-1.005,0.988-1.836,2.126-2.98,2.98c-1.651,1.879-3.552,3.514-5.298,5.298
		c-1.694,1.731-3.564,3.276-4.967,5.298c-1.012-0.364-0.572,0.572-0.994,0.993c-0.108,0.108-0.559-0.112-0.662,0
		c-0.474,0.513-0.543,1.211-0.993,1.656c-0.468,0.462-1.217,0.593-1.656,0.994c-0.346,0.314-0.522,0.86-0.994,1.324
		c-1.667,1.644-3.202,3.42-4.967,4.967c-5.439,5.599-11.086,10.989-16.556,16.557c-2.614,2.647-5.193,5.219-7.947,7.947
		c-0.81,0.802-1.396,1.989-2.649,2.318c-0.781,1.753-2.42,2.476-3.642,3.974c-0.46,0.564-1.654,1.347-1.987,2.318
		c21.965,0,43.929,0,65.894,0c0-21.965,0-43.929,0-65.894C164.53,99.577,164.431,100.823,163.907,101.325z"></path>
</g>
</svg>