<svg version="1.1" xmlns="http://www.w3.org/2000/svg" xmlns:xlink="http://www.w3.org/1999/xlink" x="0px" y="0px" width="500px" height="500px" viewBox="0 0 500 500" enable-background="new 0 0 500 500" xml:space="preserve">
<g id="B">
	<path class="paintable" fill="#D1D3D4" d="M334.438,334.424h165.562V500H334.438V334.424z M167.219,334.424H332.78V500H167.219V334.424z M0,334.424
		h165.562V500H0V334.424z M334.438,167.236h165.562v165.527H334.438V167.236z M167.219,167.236H332.78v165.527H167.219V167.236z
		 M0,167.236h165.562v165.527H0V167.236z M334.438,0h165.562v165.576H334.438V0z M167.219,0H332.78v165.576H167.219V0z M0,0h165.562
		v165.576H0V0z"></path>
</g>
<g id="C">
	<path class="paintable" fill="#939598" d="M429.398,405.078c0,8.105,0,16.162,0,24.268c-8.103,0-16.205,0-24.328,0c0-8.057,0-16.162,0-24.268
		C413.17,405.078,421.262,405.078,429.398,405.078z M262.18,405.078c0,8.105,0,16.162,0,24.268c-8.103,0-16.205,0-24.328,0
		c0-8.057,0-16.162,0-24.268C245.951,405.078,254.043,405.078,262.18,405.078z M94.961,405.078c0,8.105,0,16.162,0,24.268
		c-8.103,0-16.206,0-24.329,0c0-8.057,0-16.162,0-24.268C78.732,405.078,86.824,405.078,94.961,405.078z M429.398,237.842
		c0,8.105,0,16.211,0,24.316c-8.103,0-16.205,0-24.328,0c0-8.105,0-16.211,0-24.316C413.17,237.842,421.262,237.842,429.398,237.842
		z M262.18,237.842c0,8.105,0,16.211,0,24.316c-8.103,0-16.205,0-24.328,0c0-8.105,0-16.211,0-24.316
		C245.951,237.842,254.043,237.842,262.18,237.842z M94.961,237.842c0,8.105,0,16.211,0,24.316c-8.103,0-16.206,0-24.329,0
		c0-8.105,0-16.211,0-24.316C78.732,237.842,86.824,237.842,94.961,237.842z M429.398,70.605c0,8.105,0,16.211,0,24.316
		c-8.103,0-16.205,0-24.328,0c0-8.105,0-16.162,0-24.316C413.17,70.605,421.262,70.605,429.398,70.605z M262.18,70.605
		c0,8.105,0,16.211,0,24.316c-8.103,0-16.205,0-24.328,0c0-8.105,0-16.162,0-24.316C245.951,70.605,254.043,70.605,262.18,70.605z
		 M94.961,70.605c0,8.105,0,16.211,0,24.316c-8.103,0-16.206,0-24.329,0c0-8.105,0-16.162,0-24.316
		C78.732,70.605,86.824,70.605,94.961,70.605z M405.063,346.582c0-4.053,0-8.057,0-12.158c8.105,0,16.208,0,24.327,0
		c0,4.053,0,8.105,0,12.158C421.3,346.582,413.21,346.582,405.063,346.582z M237.845,346.582c0-4.053,0-8.057,0-12.158
		c8.104,0,16.208,0,24.327,0c0,4.053,0,8.105,0,12.158C254.081,346.582,245.991,346.582,237.845,346.582z M70.626,346.582
		c0-4.053,0-8.057,0-12.158c8.105,0,16.208,0,24.327,0c0,4.053,0,8.105,0,12.158C86.862,346.582,78.772,346.582,70.626,346.582z
		 M405.063,179.346c0-4.053,0-8.057,0-12.109c8.105,0,16.208,0,24.327,0c0,4.053,0,8.057,0,12.109
		C421.3,179.346,413.21,179.346,405.063,179.346z M237.845,179.346c0-4.053,0-8.057,0-12.109c8.104,0,16.208,0,24.327,0
		c0,4.053,0,8.057,0,12.109C254.081,179.346,245.991,179.346,237.845,179.346z M70.626,179.346c0-4.053,0-8.057,0-12.109
		c8.105,0,16.208,0,24.327,0c0,4.053,0,8.057,0,12.109C86.862,179.346,78.772,179.346,70.626,179.346z M405.063,12.109
		c0-4.004,0-8.057,0-12.109c8.105,0,16.208,0,24.327,0c0,4.053,0,8.057,0,12.109C421.3,12.109,413.21,12.109,405.063,12.109z
		 M237.845,12.109c0-4.004,0-8.057,0-12.109c8.104,0,16.208,0,24.327,0c0,4.053,0,8.057,0,12.109
		C254.081,12.109,245.991,12.109,237.845,12.109z M70.626,12.109c0-4.004,0-8.057,0-12.109c8.105,0,16.208,0,24.327,0
		c0,4.053,0,8.057,0,12.109C86.862,12.109,78.772,12.109,70.626,12.109z M334.461,405.029c4.047,0,8.069,0,12.123,0
		c0,8.105,0,16.211,0,24.316c-4.031,0-8.062,0-12.123,0C334.461,421.289,334.461,413.184,334.461,405.029z M167.242,405.029
		c4.047,0,8.07,0,12.124,0c0,8.105,0,16.211,0,24.316c-4.031,0-8.062,0-12.124,0C167.242,421.289,167.242,413.184,167.242,405.029z
		 M0.023,405.029c4.047,0,8.069,0,12.123,0c0,8.105,0,16.211,0,24.316c-4.031,0-8.062,0-12.123,0
		C0.023,421.289,0.023,413.184,0.023,405.029z M334.461,237.842c4.047,0,8.069,0,12.123,0c0,8.105,0,16.162,0,24.316
		c-4.031,0-8.062,0-12.123,0C334.461,254.053,334.461,245.947,334.461,237.842z M167.242,237.842c4.047,0,8.07,0,12.124,0
		c0,8.105,0,16.162,0,24.316c-4.031,0-8.062,0-12.124,0C167.242,254.053,167.242,245.947,167.242,237.842z M0.023,237.842
		c4.047,0,8.069,0,12.123,0c0,8.105,0,16.162,0,24.316c-4.031,0-8.062,0-12.123,0C0.023,254.053,0.023,245.947,0.023,237.842z
		 M334.461,70.605c4.047,0,8.069,0,12.123,0c0,8.105,0,16.211,0,24.316c-4.031,0-8.062,0-12.123,0
		C334.461,86.816,334.461,78.76,334.461,70.605z M167.242,70.605c4.047,0,8.07,0,12.124,0c0,8.105,0,16.211,0,24.316
		c-4.031,0-8.062,0-12.124,0C167.242,86.816,167.242,78.76,167.242,70.605z M0.023,70.605c4.047,0,8.069,0,12.123,0
		c0,8.105,0,16.211,0,24.316c-4.031,0-8.062,0-12.123,0C0.023,86.816,0.023,78.76,0.023,70.605z M500,429.395
		c-4.05,0-8.075,0-12.128,0c0-8.105,0-16.211,0-24.316c4.037,0,8.067,0,12.128,0C500,413.135,500,421.24,500,429.395z
		 M332.782,429.395c-4.051,0-8.076,0-12.129,0c0-8.105,0-16.211,0-24.316c4.037,0,8.067,0,12.129,0
		C332.782,413.135,332.782,421.24,332.782,429.395z M165.563,429.395c-4.051,0-8.076,0-12.128,0c0-8.105,0-16.211,0-24.316
		c4.037,0,8.067,0,12.128,0C165.563,413.135,165.563,421.24,165.563,429.395z M500,262.158c-4.05,0-8.075,0-12.128,0
		c0-8.105,0-16.211,0-24.316c4.037,0,8.067,0,12.128,0C500,245.947,500,254.004,500,262.158z M332.782,262.158
		c-4.051,0-8.076,0-12.129,0c0-8.105,0-16.211,0-24.316c4.037,0,8.067,0,12.129,0C332.782,245.947,332.782,254.004,332.782,262.158z
		 M165.563,262.158c-4.051,0-8.076,0-12.128,0c0-8.105,0-16.211,0-24.316c4.037,0,8.067,0,12.128,0
		C165.563,245.947,165.563,254.004,165.563,262.158z M500,94.971c-4.05,0-8.075,0-12.128,0c0-8.154,0-16.211,0-24.365
		c4.037,0,8.067,0,12.128,0C500,78.711,500,86.816,500,94.971z M332.782,94.971c-4.051,0-8.076,0-12.129,0
		c0-8.154,0-16.211,0-24.365c4.037,0,8.067,0,12.129,0C332.782,78.711,332.782,86.816,332.782,94.971z M165.563,94.971
		c-4.051,0-8.076,0-12.128,0c0-8.154,0-16.211,0-24.365c4.037,0,8.067,0,12.128,0C165.563,78.711,165.563,86.816,165.563,94.971z
		 M429.398,487.842c0,4.053,0,8.105,0,12.158c-8.106,0-16.196,0-24.324,0c0-4.053,0-8.057,0-12.158
		C413.17,487.842,421.257,487.842,429.398,487.842z M262.18,487.842c0,4.053,0,8.105,0,12.158c-8.106,0-16.196,0-24.324,0
		c0-4.053,0-8.057,0-12.158C245.951,487.842,254.038,487.842,262.18,487.842z M94.961,487.842c0,4.053,0,8.105,0,12.158
		c-8.107,0-16.197,0-24.325,0c0-4.053,0-8.057,0-12.158C78.732,487.842,86.819,487.842,94.961,487.842z M429.398,320.654
		c0,4.053,0,8.057,0,12.109c-8.106,0-16.196,0-24.324,0c0-4.004,0-8.057,0-12.109C413.17,320.654,421.257,320.654,429.398,320.654z
		 M262.18,320.654c0,4.053,0,8.057,0,12.109c-8.106,0-16.196,0-24.324,0c0-4.004,0-8.057,0-12.109
		C245.951,320.654,254.038,320.654,262.18,320.654z M94.961,320.654c0,4.053,0,8.057,0,12.109c-8.107,0-16.197,0-24.325,0
		c0-4.004,0-8.057,0-12.109C78.732,320.654,86.819,320.654,94.961,320.654z M429.398,153.418c0,4.053,0,8.105,0,12.109
		c-8.106,0-16.196,0-24.324,0c0-4.004,0-8.057,0-12.109C413.17,153.418,421.257,153.418,429.398,153.418z M262.18,153.418
		c0,4.053,0,8.105,0,12.109c-8.106,0-16.196,0-24.324,0c0-4.004,0-8.057,0-12.109C245.951,153.418,254.038,153.418,262.18,153.418z
		 M94.961,153.418c0,4.053,0,8.105,0,12.109c-8.107,0-16.197,0-24.325,0c0-4.004,0-8.057,0-12.109
		C78.732,153.418,86.819,153.418,94.961,153.418z"></path>
</g>
<g id="A">
	<path class="paintable" fill="#58595B" d="M488.926,499.219c0,0.244,0,0.488,0,0.781c-19.855,0-39.717,0-59.619,0c0-4.004,0-8.008,0-12.012
		c-8.057,0-16.07,0-24.126,0c0,3.955,0,7.959,0,12.012c-19.905,0-39.766,0-59.647,0c0-0.293,0-0.488,0-0.781
		c0.783-0.098,1.573-0.244,2.361-0.391c1.335-0.244,2.673-0.439,3.999-0.732c3.527-0.732,6.987-1.709,10.369-2.979
		c1.835-0.635,3.652-1.416,5.448-2.148c1.562-0.684,3.117-1.416,4.615-2.197c2.131-1.172,4.236-2.344,6.29-3.662
		c1.866-1.172,3.674-2.441,5.458-3.711c1.215-0.879,2.369-1.855,3.501-2.832c1.491-1.27,2.963-2.588,4.386-3.955
		c1.358-1.318,2.702-2.637,3.94-4.053c1.623-1.855,3.212-3.711,4.681-5.664c1.466-1.953,2.791-4.053,4.132-6.104
		c1.632-2.49,3.064-5.078,4.299-7.764c1.122-2.441,2.162-4.932,3.136-7.471c1.206-3.076,2.128-6.299,2.87-9.57
		c0.397-1.758,0.698-3.516,1.036-5.273c0.071-0.391,0.089-0.781,0.185-1.123c0.032-0.098,0.222-0.293,0.35-0.293
		c0.423-0.049,0.854,0,1.282,0c0.257,0,0.328,0.098,0.367,0.342c0.376,2.002,0.727,4.004,1.142,6.006
		c0.67,3.223,1.631,6.396,2.759,9.473c0.657,1.807,1.387,3.613,2.153,5.371c0.693,1.611,1.414,3.174,2.233,4.688
		c1.137,2.1,2.324,4.199,3.592,6.201c1.166,1.904,2.437,3.711,3.729,5.469c0.878,1.221,1.839,2.393,2.823,3.516
		c1.289,1.465,2.619,2.93,3.971,4.395c0.996,1.074,1.997,2.1,3.094,3.076c2.089,1.807,4.223,3.564,6.381,5.322
		c2.517,2.002,5.226,3.76,8.01,5.42c2.015,1.172,4.067,2.295,6.175,3.271c2.423,1.123,4.911,2.148,7.405,3.076
		c3.103,1.221,6.303,2.148,9.551,2.881c1.85,0.439,3.721,0.781,5.587,1.123C487.524,499.023,488.217,499.121,488.926,499.219z
		 M321.707,499.219c0,0.244,0,0.488,0,0.781c-19.855,0-39.717,0-59.618,0c0-4.004,0-8.008,0-12.012c-8.058,0-16.071,0-24.126,0
		c0,3.955,0,7.959,0,12.012c-19.905,0-39.766,0-59.648,0c0-0.293,0-0.488,0-0.781c0.784-0.098,1.573-0.244,2.361-0.391
		c1.335-0.244,2.673-0.439,3.999-0.732c3.528-0.732,6.987-1.709,10.37-2.979c1.835-0.635,3.652-1.416,5.449-2.148
		c1.561-0.684,3.117-1.416,4.615-2.197c2.13-1.172,4.237-2.344,6.291-3.662c1.866-1.172,3.673-2.441,5.458-3.711
		c1.214-0.879,2.369-1.855,3.501-2.832c1.491-1.27,2.962-2.588,4.385-3.955c1.358-1.318,2.702-2.637,3.941-4.053
		c1.623-1.855,3.212-3.711,4.68-5.664c1.465-1.953,2.791-4.053,4.132-6.104c1.632-2.49,3.064-5.078,4.299-7.764
		c1.122-2.441,2.163-4.932,3.136-7.471c1.206-3.076,2.127-6.299,2.87-9.57c0.398-1.758,0.698-3.516,1.036-5.273
		c0.071-0.391,0.089-0.781,0.185-1.123c0.032-0.098,0.222-0.293,0.35-0.293c0.422-0.049,0.854,0,1.282,0
		c0.257,0,0.328,0.098,0.367,0.342c0.376,2.002,0.727,4.004,1.142,6.006c0.67,3.223,1.632,6.396,2.759,9.473
		c0.657,1.807,1.387,3.613,2.153,5.371c0.693,1.611,1.414,3.174,2.233,4.688c1.137,2.1,2.324,4.199,3.592,6.201
		c1.166,1.904,2.437,3.711,3.729,5.469c0.878,1.221,1.838,2.393,2.822,3.516c1.289,1.465,2.619,2.93,3.971,4.395
		c0.996,1.074,1.997,2.1,3.094,3.076c2.089,1.807,4.223,3.564,6.381,5.322c2.517,2.002,5.226,3.76,8.01,5.42
		c2.015,1.172,4.067,2.295,6.175,3.271c2.423,1.123,4.912,2.148,7.405,3.076c3.103,1.221,6.303,2.148,9.551,2.881
		c1.85,0.439,3.721,0.781,5.587,1.123C320.307,499.023,320.998,499.121,321.707,499.219z M154.488,499.219c0,0.244,0,0.488,0,0.781
		c-19.855,0-39.716,0-59.618,0c0-4.004,0-8.008,0-12.012c-8.057,0-16.071,0-24.126,0c0,3.955,0,7.959,0,12.012
		c-19.905,0-39.766,0-59.648,0c0-0.293,0-0.488,0-0.781c0.784-0.098,1.574-0.244,2.361-0.391c1.335-0.244,2.673-0.439,3.999-0.732
		c3.528-0.732,6.987-1.709,10.369-2.979c1.835-0.635,3.652-1.416,5.449-2.148c1.561-0.684,3.117-1.416,4.615-2.197
		c2.131-1.172,4.237-2.344,6.291-3.662c1.866-1.172,3.673-2.441,5.458-3.711c1.214-0.879,2.369-1.855,3.501-2.832
		c1.491-1.27,2.963-2.588,4.386-3.955c1.358-1.318,2.702-2.637,3.94-4.053c1.623-1.855,3.212-3.711,4.68-5.664
		c1.466-1.953,2.792-4.053,4.132-6.104c1.631-2.49,3.064-5.078,4.298-7.764c1.123-2.441,2.163-4.932,3.136-7.471
		c1.206-3.076,2.128-6.299,2.87-9.57c0.398-1.758,0.698-3.516,1.036-5.273c0.072-0.391,0.089-0.781,0.185-1.123
		c0.033-0.098,0.222-0.293,0.35-0.293c0.423-0.049,0.854,0,1.282,0c0.257,0,0.329,0.098,0.368,0.342
		c0.376,2.002,0.726,4.004,1.141,6.006c0.67,3.223,1.631,6.396,2.759,9.473c0.657,1.807,1.387,3.613,2.153,5.371
		c0.693,1.611,1.414,3.174,2.233,4.688c1.137,2.1,2.324,4.199,3.592,6.201c1.166,1.904,2.437,3.711,3.729,5.469
		c0.878,1.221,1.838,2.393,2.823,3.516c1.29,1.465,2.619,2.93,3.971,4.395c0.997,1.074,1.998,2.1,3.094,3.076
		c2.089,1.807,4.223,3.564,6.381,5.322c2.517,2.002,5.226,3.76,8.01,5.42c2.015,1.172,4.067,2.295,6.175,3.271
		c2.423,1.123,4.911,2.148,7.405,3.076c3.103,1.221,6.303,2.148,9.551,2.881c1.85,0.439,3.721,0.781,5.587,1.123
		C153.087,499.023,153.779,499.121,154.488,499.219z M488.926,331.982c0,0.244,0,0.488,0,0.781c-19.855,0-39.717,0-59.619,0
		c0-4.004,0-8.008,0-12.012c-8.057,0-16.07,0-24.126,0c0,4.004,0,7.959,0,12.012c-19.905,0-39.766,0-59.647,0
		c0-0.244,0-0.488,0-0.781c0.783-0.098,1.573-0.195,2.361-0.342c1.335-0.244,2.673-0.488,3.999-0.781
		c3.527-0.732,6.987-1.709,10.369-2.93c1.835-0.684,3.652-1.416,5.448-2.197c1.562-0.684,3.117-1.367,4.615-2.197
		c2.131-1.123,4.236-2.344,6.29-3.613c1.866-1.172,3.674-2.441,5.458-3.76c1.215-0.879,2.369-1.807,3.501-2.783
		c1.491-1.318,2.963-2.637,4.386-4.004c1.358-1.27,2.702-2.637,3.94-4.004c1.623-1.855,3.212-3.76,4.681-5.713
		c1.466-1.953,2.791-4.004,4.132-6.055c1.632-2.49,3.064-5.127,4.299-7.812c1.122-2.441,2.162-4.932,3.136-7.422
		c1.206-3.125,2.128-6.348,2.87-9.619c0.397-1.709,0.698-3.516,1.036-5.273c0.071-0.342,0.089-0.732,0.185-1.123
		c0.032-0.098,0.222-0.244,0.35-0.244c0.423-0.049,0.854,0,1.282-0.049c0.257,0,0.328,0.146,0.367,0.342
		c0.376,2.002,0.727,4.004,1.142,6.006c0.67,3.223,1.631,6.396,2.759,9.521c0.657,1.807,1.387,3.564,2.153,5.322
		c0.693,1.611,1.414,3.174,2.233,4.688c1.137,2.148,2.324,4.199,3.592,6.25c1.166,1.855,2.437,3.662,3.729,5.469
		c0.878,1.172,1.839,2.344,2.823,3.467c1.289,1.514,2.619,2.979,3.971,4.395c0.996,1.074,1.997,2.148,3.094,3.076
		c2.089,1.855,4.223,3.613,6.381,5.322c2.517,2.051,5.226,3.809,8.01,5.42c2.015,1.172,4.067,2.295,6.175,3.271
		c2.423,1.123,4.911,2.148,7.405,3.125c3.103,1.221,6.303,2.1,9.551,2.832c1.85,0.439,3.721,0.781,5.587,1.123
		C487.524,331.836,488.217,331.885,488.926,331.982z M321.707,331.982c0,0.244,0,0.488,0,0.781c-19.855,0-39.717,0-59.618,0
		c0-4.004,0-8.008,0-12.012c-8.058,0-16.071,0-24.126,0c0,4.004,0,7.959,0,12.012c-19.905,0-39.766,0-59.648,0
		c0-0.244,0-0.488,0-0.781c0.784-0.098,1.573-0.195,2.361-0.342c1.335-0.244,2.673-0.488,3.999-0.781
		c3.528-0.732,6.987-1.709,10.37-2.93c1.835-0.684,3.652-1.416,5.449-2.197c1.561-0.684,3.117-1.367,4.615-2.197
		c2.13-1.123,4.237-2.344,6.291-3.613c1.866-1.172,3.673-2.441,5.458-3.76c1.214-0.879,2.369-1.807,3.501-2.783
		c1.491-1.318,2.962-2.637,4.385-4.004c1.358-1.27,2.702-2.637,3.941-4.004c1.623-1.855,3.212-3.76,4.68-5.713
		c1.465-1.953,2.791-4.004,4.132-6.055c1.632-2.49,3.064-5.127,4.299-7.812c1.122-2.441,2.163-4.932,3.136-7.422
		c1.206-3.125,2.127-6.348,2.87-9.619c0.398-1.709,0.698-3.516,1.036-5.273c0.071-0.342,0.089-0.732,0.185-1.123
		c0.032-0.098,0.222-0.244,0.35-0.244c0.422-0.049,0.854,0,1.282-0.049c0.257,0,0.328,0.146,0.367,0.342
		c0.376,2.002,0.727,4.004,1.142,6.006c0.67,3.223,1.632,6.396,2.759,9.521c0.657,1.807,1.387,3.564,2.153,5.322
		c0.693,1.611,1.414,3.174,2.233,4.688c1.137,2.148,2.324,4.199,3.592,6.25c1.166,1.855,2.437,3.662,3.729,5.469
		c0.878,1.172,1.838,2.344,2.822,3.467c1.289,1.514,2.619,2.979,3.971,4.395c0.996,1.074,1.997,2.148,3.094,3.076
		c2.089,1.855,4.223,3.613,6.381,5.322c2.517,2.051,5.226,3.809,8.01,5.42c2.015,1.172,4.067,2.295,6.175,3.271
		c2.423,1.123,4.912,2.148,7.405,3.125c3.103,1.221,6.303,2.1,9.551,2.832c1.85,0.439,3.721,0.781,5.587,1.123
		C320.307,331.836,320.998,331.885,321.707,331.982z M154.488,331.982c0,0.244,0,0.488,0,0.781c-19.855,0-39.716,0-59.618,0
		c0-4.004,0-8.008,0-12.012c-8.057,0-16.071,0-24.126,0c0,4.004,0,7.959,0,12.012c-19.905,0-39.766,0-59.648,0
		c0-0.244,0-0.488,0-0.781c0.784-0.098,1.574-0.195,2.361-0.342c1.335-0.244,2.673-0.488,3.999-0.781
		c3.528-0.732,6.987-1.709,10.369-2.93c1.835-0.684,3.652-1.416,5.449-2.197c1.561-0.684,3.117-1.367,4.615-2.197
		c2.131-1.123,4.237-2.344,6.291-3.613c1.866-1.172,3.673-2.441,5.458-3.76c1.214-0.879,2.369-1.807,3.501-2.783
		c1.491-1.318,2.963-2.637,4.386-4.004c1.358-1.27,2.702-2.637,3.94-4.004c1.623-1.855,3.212-3.76,4.68-5.713
		c1.466-1.953,2.792-4.004,4.132-6.055c1.631-2.49,3.064-5.127,4.298-7.812c1.123-2.441,2.163-4.932,3.136-7.422
		c1.206-3.125,2.128-6.348,2.87-9.619c0.398-1.709,0.698-3.516,1.036-5.273c0.072-0.342,0.089-0.732,0.185-1.123
		c0.033-0.098,0.222-0.244,0.35-0.244c0.423-0.049,0.854,0,1.282-0.049c0.257,0,0.329,0.146,0.368,0.342
		c0.376,2.002,0.726,4.004,1.141,6.006c0.67,3.223,1.631,6.396,2.759,9.521c0.657,1.807,1.387,3.564,2.153,5.322
		c0.693,1.611,1.414,3.174,2.233,4.688c1.137,2.148,2.324,4.199,3.592,6.25c1.166,1.855,2.437,3.662,3.729,5.469
		c0.878,1.172,1.838,2.344,2.823,3.467c1.29,1.514,2.619,2.979,3.971,4.395c0.997,1.074,1.998,2.148,3.094,3.076
		c2.089,1.855,4.223,3.613,6.381,5.322c2.517,2.051,5.226,3.809,8.01,5.42c2.015,1.172,4.067,2.295,6.175,3.271
		c2.423,1.123,4.911,2.148,7.405,3.125c3.103,1.221,6.303,2.1,9.551,2.832c1.85,0.439,3.721,0.781,5.587,1.123
		C153.087,331.836,153.779,331.885,154.488,331.982z M488.926,164.795c0,0.244,0,0.488,0,0.732c-19.855,0-39.717,0-59.619,0
		c0-4.004,0-7.959,0-12.012c-8.057,0-16.07,0-24.126,0c0,4.004,0,8.008,0,12.012c-19.905,0-39.766,0-59.647,0
		c0-0.244,0-0.488,0-0.732c0.783-0.146,1.573-0.244,2.361-0.391c1.335-0.244,2.673-0.488,3.999-0.732
		c3.527-0.781,6.987-1.758,10.369-2.979c1.835-0.684,3.652-1.416,5.448-2.197c1.562-0.684,3.117-1.367,4.615-2.197
		c2.131-1.123,4.236-2.344,6.29-3.613c1.866-1.172,3.674-2.441,5.458-3.711c1.215-0.879,2.369-1.855,3.501-2.832
		c1.491-1.318,2.963-2.637,4.386-4.004c1.358-1.27,2.702-2.588,3.94-4.004c1.623-1.855,3.212-3.711,4.681-5.713
		c1.466-1.953,2.791-4.004,4.132-6.055c1.632-2.49,3.064-5.078,4.299-7.812c1.122-2.441,2.162-4.932,3.136-7.422
		c1.206-3.125,2.128-6.348,2.87-9.57c0.397-1.758,0.698-3.516,1.036-5.273c0.071-0.391,0.089-0.781,0.185-1.123
		c0.032-0.146,0.222-0.293,0.35-0.293c0.423-0.049,0.854,0,1.282,0c0.257-0.049,0.328,0.098,0.367,0.342
		c0.376,1.953,0.727,4.004,1.142,5.957c0.67,3.271,1.631,6.396,2.759,9.521c0.657,1.807,1.387,3.613,2.153,5.371
		c0.693,1.562,1.414,3.174,2.233,4.688c1.137,2.1,2.324,4.199,3.592,6.201c1.166,1.855,2.437,3.662,3.729,5.469
		c0.878,1.221,1.839,2.393,2.823,3.516c1.289,1.465,2.619,2.93,3.971,4.395c0.996,1.025,1.997,2.1,3.094,3.076
		c2.089,1.807,4.223,3.564,6.381,5.322c2.517,2.002,5.226,3.76,8.01,5.371c2.015,1.172,4.067,2.295,6.175,3.32
		c2.423,1.123,4.911,2.1,7.405,3.076c3.103,1.221,6.303,2.148,9.551,2.881c1.85,0.391,3.721,0.732,5.587,1.123
		C487.524,164.6,488.217,164.648,488.926,164.795z M321.707,164.795c0,0.244,0,0.488,0,0.732c-19.855,0-39.717,0-59.618,0
		c0-4.004,0-7.959,0-12.012c-8.058,0-16.071,0-24.126,0c0,4.004,0,8.008,0,12.012c-19.905,0-39.766,0-59.648,0
		c0-0.244,0-0.488,0-0.732c0.784-0.146,1.573-0.244,2.361-0.391c1.335-0.244,2.673-0.488,3.999-0.732
		c3.528-0.781,6.987-1.758,10.37-2.979c1.835-0.684,3.652-1.416,5.449-2.197c1.561-0.684,3.117-1.367,4.615-2.197
		c2.13-1.123,4.237-2.344,6.291-3.613c1.866-1.172,3.673-2.441,5.458-3.711c1.214-0.879,2.369-1.855,3.501-2.832
		c1.491-1.318,2.962-2.637,4.385-4.004c1.358-1.27,2.702-2.588,3.941-4.004c1.623-1.855,3.212-3.711,4.68-5.713
		c1.465-1.953,2.791-4.004,4.132-6.055c1.632-2.49,3.064-5.078,4.299-7.812c1.122-2.441,2.163-4.932,3.136-7.422
		c1.206-3.125,2.127-6.348,2.87-9.57c0.398-1.758,0.698-3.516,1.036-5.273c0.071-0.391,0.089-0.781,0.185-1.123
		c0.032-0.146,0.222-0.293,0.35-0.293c0.422-0.049,0.854,0,1.282,0c0.257-0.049,0.328,0.098,0.367,0.342
		c0.376,1.953,0.727,4.004,1.142,5.957c0.67,3.271,1.632,6.396,2.759,9.521c0.657,1.807,1.387,3.613,2.153,5.371
		c0.693,1.562,1.414,3.174,2.233,4.688c1.137,2.1,2.324,4.199,3.592,6.201c1.166,1.855,2.437,3.662,3.729,5.469
		c0.878,1.221,1.838,2.393,2.822,3.516c1.289,1.465,2.619,2.93,3.971,4.395c0.996,1.025,1.997,2.1,3.094,3.076
		c2.089,1.807,4.223,3.564,6.381,5.322c2.517,2.002,5.226,3.76,8.01,5.371c2.015,1.172,4.067,2.295,6.175,3.32
		c2.423,1.123,4.912,2.1,7.405,3.076c3.103,1.221,6.303,2.148,9.551,2.881c1.85,0.391,3.721,0.732,5.587,1.123
		C320.307,164.6,320.998,164.648,321.707,164.795z M154.488,164.795c0,0.244,0,0.488,0,0.732c-19.855,0-39.716,0-59.618,0
		c0-4.004,0-7.959,0-12.012c-8.057,0-16.071,0-24.126,0c0,4.004,0,8.008,0,12.012c-19.905,0-39.766,0-59.648,0
		c0-0.244,0-0.488,0-0.732c0.784-0.146,1.574-0.244,2.361-0.391c1.335-0.244,2.673-0.488,3.999-0.732
		c3.528-0.781,6.987-1.758,10.369-2.979c1.835-0.684,3.652-1.416,5.449-2.197c1.561-0.684,3.117-1.367,4.615-2.197
		c2.131-1.123,4.237-2.344,6.291-3.613c1.866-1.172,3.673-2.441,5.458-3.711c1.214-0.879,2.369-1.855,3.501-2.832
		c1.491-1.318,2.963-2.637,4.386-4.004c1.358-1.27,2.702-2.588,3.94-4.004c1.623-1.855,3.212-3.711,4.68-5.713
		c1.466-1.953,2.792-4.004,4.132-6.055c1.631-2.49,3.064-5.078,4.298-7.812c1.123-2.441,2.163-4.932,3.136-7.422
		c1.206-3.125,2.128-6.348,2.87-9.57c0.398-1.758,0.698-3.516,1.036-5.273c0.072-0.391,0.089-0.781,0.185-1.123
		c0.033-0.146,0.222-0.293,0.35-0.293c0.423-0.049,0.854,0,1.282,0c0.257-0.049,0.329,0.098,0.368,0.342
		c0.376,1.953,0.726,4.004,1.141,5.957c0.67,3.271,1.631,6.396,2.759,9.521c0.657,1.807,1.387,3.613,2.153,5.371
		c0.693,1.562,1.414,3.174,2.233,4.688c1.137,2.1,2.324,4.199,3.592,6.201c1.166,1.855,2.437,3.662,3.729,5.469
		c0.878,1.221,1.838,2.393,2.823,3.516c1.29,1.465,2.619,2.93,3.971,4.395c0.997,1.025,1.998,2.1,3.094,3.076
		c2.089,1.807,4.223,3.564,6.381,5.322c2.517,2.002,5.226,3.76,8.01,5.371c2.015,1.172,4.067,2.295,6.175,3.32
		c2.423,1.123,4.911,2.1,7.405,3.076c3.103,1.221,6.303,2.148,9.551,2.881c1.85,0.391,3.721,0.732,5.587,1.123
		C153.087,164.6,153.779,164.648,154.488,164.795z M487.98,405.127c0,8.057,0,16.064,0,24.121c4,0,7.993,0,12.019,0
		c0,19.922,0,39.795,0,59.668c-0.244,0-0.498,0-0.759,0c-0.156-0.977-0.297-1.953-0.468-2.881c-0.218-1.221-0.417-2.441-0.696-3.613
		c-0.459-1.953-0.912-3.906-1.482-5.859c-0.593-2.002-1.283-3.955-2.01-5.908c-1.111-3.027-2.408-5.957-3.93-8.74
		c-1.105-2.051-2.262-4.102-3.498-6.055c-1.168-1.855-2.438-3.662-3.729-5.469c-0.88-1.221-1.836-2.344-2.818-3.516
		c-1.272-1.465-2.567-2.93-3.916-4.297c-1.357-1.416-2.739-2.832-4.211-4.15c-1.799-1.562-3.644-3.125-5.565-4.541
		c-1.97-1.465-4.044-2.832-6.101-4.15c-2.454-1.611-5.025-3.027-7.686-4.248c-2.268-1.074-4.578-2.051-6.904-2.93
		c-3.314-1.318-6.727-2.344-10.201-3.125c-1.762-0.391-3.54-0.684-5.312-1.025c-0.373-0.098-0.759-0.098-1.125-0.195
		c-0.116-0.049-0.264-0.195-0.273-0.342c-0.031-0.439-0.002-0.879-0.017-1.318c-0.007-0.244,0.114-0.293,0.31-0.342
		c2.993-0.391,5.949-1.025,8.845-1.855c2.658-0.732,5.295-1.611,7.91-2.49c1.639-0.586,3.231-1.318,4.823-2.002
		c1.334-0.586,2.667-1.221,3.945-1.904c2.124-1.172,4.235-2.344,6.289-3.662c1.868-1.123,3.676-2.393,5.458-3.711
		c1.214-0.879,2.371-1.855,3.503-2.832c1.479-1.27,2.933-2.588,4.355-3.906c1.062-1.025,2.117-2.002,3.081-3.125
		c1.551-1.709,3.057-3.516,4.53-5.322c2.324-2.881,4.377-5.908,6.222-9.082c1.163-2.002,2.279-4.053,3.262-6.152
		c1.135-2.441,2.15-4.883,3.117-7.373c1.207-3.125,2.129-6.348,2.869-9.619c0.401-1.758,0.706-3.516,1.037-5.322
		c0.143-0.732,0.251-1.514,0.381-2.344c0.226,0,0.479,0,0.763,0c0,19.873,0,39.697,0,59.619
		C496.016,405.127,492.023,405.127,487.98,405.127z M320.762,405.127c0,8.057,0,16.064,0,24.121c4,0,7.993,0,12.019,0
		c0,19.922,0,39.795,0,59.668c-0.244,0-0.498,0-0.759,0c-0.155-0.977-0.297-1.953-0.468-2.881c-0.218-1.221-0.416-2.441-0.696-3.613
		c-0.459-1.953-0.912-3.906-1.481-5.859c-0.594-2.002-1.284-3.955-2.011-5.908c-1.111-3.027-2.408-5.957-3.93-8.74
		c-1.105-2.051-2.262-4.102-3.498-6.055c-1.168-1.855-2.438-3.662-3.729-5.469c-0.881-1.221-1.837-2.344-2.819-3.516
		c-1.272-1.465-2.567-2.93-3.916-4.297c-1.357-1.416-2.739-2.832-4.21-4.15c-1.8-1.562-3.645-3.125-5.566-4.541
		c-1.97-1.465-4.044-2.832-6.1-4.15c-2.455-1.611-5.026-3.027-7.686-4.248c-2.269-1.074-4.579-2.051-6.905-2.93
		c-3.314-1.318-6.727-2.344-10.201-3.125c-1.762-0.391-3.54-0.684-5.312-1.025c-0.373-0.098-0.758-0.098-1.125-0.195
		c-0.116-0.049-0.264-0.195-0.272-0.342c-0.032-0.439-0.003-0.879-0.018-1.318c-0.007-0.244,0.114-0.293,0.311-0.342
		c2.992-0.391,5.948-1.025,8.844-1.855c2.658-0.732,5.295-1.611,7.91-2.49c1.639-0.586,3.231-1.318,4.824-2.002
		c1.333-0.586,2.666-1.221,3.944-1.904c2.124-1.172,4.235-2.344,6.289-3.662c1.868-1.123,3.676-2.393,5.458-3.711
		c1.214-0.879,2.371-1.855,3.503-2.832c1.479-1.27,2.933-2.588,4.355-3.906c1.062-1.025,2.117-2.002,3.082-3.125
		c1.551-1.709,3.056-3.516,4.529-5.322c2.324-2.881,4.377-5.908,6.222-9.082c1.163-2.002,2.279-4.053,3.262-6.152
		c1.135-2.441,2.15-4.883,3.118-7.373c1.206-3.125,2.128-6.348,2.868-9.619c0.401-1.758,0.706-3.516,1.037-5.322
		c0.143-0.732,0.251-1.514,0.381-2.344c0.226,0,0.479,0,0.763,0c0,19.873,0,39.697,0,59.619
		C328.797,405.127,324.805,405.127,320.762,405.127z M153.543,405.127c0,8.057,0,16.064,0,24.121c4,0,7.994,0,12.019,0
		c0,19.922,0,39.795,0,59.668c-0.244,0-0.499,0-0.759,0c-0.156-0.977-0.297-1.953-0.468-2.881c-0.217-1.221-0.417-2.441-0.696-3.613
		c-0.459-1.953-0.912-3.906-1.482-5.859c-0.593-2.002-1.284-3.955-2.01-5.908c-1.112-3.027-2.409-5.957-3.93-8.74
		c-1.105-2.051-2.262-4.102-3.498-6.055c-1.168-1.855-2.438-3.662-3.729-5.469c-0.88-1.221-1.836-2.344-2.819-3.516
		c-1.272-1.465-2.567-2.93-3.916-4.297c-1.358-1.416-2.74-2.832-4.211-4.15c-1.799-1.562-3.644-3.125-5.565-4.541
		c-1.97-1.465-4.044-2.832-6.101-4.15c-2.455-1.611-5.026-3.027-7.685-4.248c-2.268-1.074-4.579-2.051-6.905-2.93
		c-3.315-1.318-6.727-2.344-10.202-3.125c-1.762-0.391-3.54-0.684-5.311-1.025c-0.373-0.098-0.759-0.098-1.125-0.195
		c-0.116-0.049-0.263-0.195-0.273-0.342c-0.032-0.439-0.002-0.879-0.017-1.318c-0.007-0.244,0.114-0.293,0.31-0.342
		c2.993-0.391,5.949-1.025,8.844-1.855c2.658-0.732,5.295-1.611,7.911-2.49c1.638-0.586,3.231-1.318,4.823-2.002
		c1.334-0.586,2.667-1.221,3.945-1.904c2.124-1.172,4.236-2.344,6.289-3.662c1.868-1.123,3.676-2.393,5.458-3.711
		c1.214-0.879,2.372-1.855,3.503-2.832c1.479-1.27,2.933-2.588,4.356-3.906c1.061-1.025,2.117-2.002,3.081-3.125
		c1.551-1.709,3.056-3.516,4.53-5.322c2.325-2.881,4.377-5.908,6.222-9.082c1.164-2.002,2.279-4.053,3.262-6.152
		c1.135-2.441,2.15-4.883,3.117-7.373c1.207-3.125,2.128-6.348,2.869-9.619c0.401-1.758,0.706-3.516,1.037-5.322
		c0.142-0.732,0.251-1.514,0.38-2.344c0.226,0,0.479,0,0.763,0c0,19.873,0,39.697,0,59.619
		C161.578,405.127,157.586,405.127,153.543,405.127z M487.98,237.891c0,8.105,0,16.113,0,24.17c4,0,7.993,0,12.019,0
		c0,19.873,0,39.746,0,59.619c-0.244,0-0.498,0-0.759,0c-0.156-0.977-0.297-1.904-0.468-2.881c-0.218-1.221-0.417-2.393-0.696-3.613
		c-0.459-1.953-0.912-3.906-1.482-5.811c-0.593-2.002-1.283-4.004-2.01-5.957c-1.111-2.979-2.408-5.908-3.93-8.74
		c-1.105-2.051-2.262-4.053-3.498-6.055c-1.168-1.855-2.438-3.662-3.729-5.42c-0.88-1.221-1.836-2.393-2.818-3.516
		c-1.272-1.465-2.567-2.93-3.916-4.346c-1.357-1.416-2.739-2.832-4.211-4.102c-1.799-1.611-3.644-3.125-5.565-4.59
		c-1.97-1.465-4.044-2.783-6.101-4.15c-2.454-1.611-5.025-3.027-7.686-4.248c-2.268-1.074-4.578-2.002-6.904-2.93
		c-3.314-1.318-6.727-2.344-10.201-3.125c-1.762-0.391-3.54-0.684-5.312-1.025c-0.373-0.049-0.759-0.098-1.125-0.195
		c-0.116,0-0.264-0.195-0.273-0.293c-0.031-0.439-0.002-0.879-0.017-1.318c-0.007-0.244,0.114-0.342,0.31-0.391
		c2.993-0.391,5.949-0.977,8.845-1.807c2.658-0.781,5.295-1.66,7.91-2.539c1.639-0.586,3.231-1.27,4.823-2.002
		c1.334-0.586,2.667-1.172,3.945-1.904c2.124-1.123,4.235-2.344,6.289-3.613c1.868-1.172,3.676-2.441,5.458-3.711
		c1.214-0.879,2.371-1.855,3.503-2.832c1.479-1.318,2.933-2.637,4.355-3.955c1.062-0.977,2.117-2.002,3.081-3.076
		c1.551-1.758,3.057-3.564,4.53-5.371c2.324-2.832,4.377-5.908,6.222-9.082c1.163-2.002,2.279-4.053,3.262-6.152
		c1.135-2.393,2.15-4.883,3.117-7.373c1.207-3.125,2.129-6.348,2.869-9.57c0.401-1.807,0.706-3.564,1.037-5.322
		c0.143-0.781,0.251-1.562,0.381-2.344c0.226,0,0.479,0,0.763,0c0,19.824,0,39.697,0,59.57
		C496.016,237.891,492.023,237.891,487.98,237.891z M320.762,237.891c0,8.105,0,16.113,0,24.17c4,0,7.993,0,12.019,0
		c0,19.873,0,39.746,0,59.619c-0.244,0-0.498,0-0.759,0c-0.155-0.977-0.297-1.904-0.468-2.881c-0.218-1.221-0.416-2.393-0.696-3.613
		c-0.459-1.953-0.912-3.906-1.481-5.811c-0.594-2.002-1.284-4.004-2.011-5.957c-1.111-2.979-2.408-5.908-3.93-8.74
		c-1.105-2.051-2.262-4.053-3.498-6.055c-1.168-1.855-2.438-3.662-3.729-5.42c-0.881-1.221-1.837-2.393-2.819-3.516
		c-1.272-1.465-2.567-2.93-3.916-4.346c-1.357-1.416-2.739-2.832-4.21-4.102c-1.8-1.611-3.645-3.125-5.566-4.59
		c-1.97-1.465-4.044-2.783-6.1-4.15c-2.455-1.611-5.026-3.027-7.686-4.248c-2.269-1.074-4.579-2.002-6.905-2.93
		c-3.314-1.318-6.727-2.344-10.201-3.125c-1.762-0.391-3.54-0.684-5.312-1.025c-0.373-0.049-0.758-0.098-1.125-0.195
		c-0.116,0-0.264-0.195-0.272-0.293c-0.032-0.439-0.003-0.879-0.018-1.318c-0.007-0.244,0.114-0.342,0.311-0.391
		c2.992-0.391,5.948-0.977,8.844-1.807c2.658-0.781,5.295-1.66,7.91-2.539c1.639-0.586,3.231-1.27,4.824-2.002
		c1.333-0.586,2.666-1.172,3.944-1.904c2.124-1.123,4.235-2.344,6.289-3.613c1.868-1.172,3.676-2.441,5.458-3.711
		c1.214-0.879,2.371-1.855,3.503-2.832c1.479-1.318,2.933-2.637,4.355-3.955c1.062-0.977,2.117-2.002,3.082-3.076
		c1.551-1.758,3.056-3.564,4.529-5.371c2.324-2.832,4.377-5.908,6.222-9.082c1.163-2.002,2.279-4.053,3.262-6.152
		c1.135-2.393,2.15-4.883,3.118-7.373c1.206-3.125,2.128-6.348,2.868-9.57c0.401-1.807,0.706-3.564,1.037-5.322
		c0.143-0.781,0.251-1.562,0.381-2.344c0.226,0,0.479,0,0.763,0c0,19.824,0,39.697,0,59.57
		C328.797,237.891,324.805,237.891,320.762,237.891z M153.543,237.891c0,8.105,0,16.113,0,24.17c4,0,7.994,0,12.019,0
		c0,19.873,0,39.746,0,59.619c-0.244,0-0.499,0-0.759,0c-0.156-0.977-0.297-1.904-0.468-2.881c-0.217-1.221-0.417-2.393-0.696-3.613
		c-0.459-1.953-0.912-3.906-1.482-5.811c-0.593-2.002-1.284-4.004-2.01-5.957c-1.112-2.979-2.409-5.908-3.93-8.74
		c-1.105-2.051-2.262-4.053-3.498-6.055c-1.168-1.855-2.438-3.662-3.729-5.42c-0.88-1.221-1.836-2.393-2.819-3.516
		c-1.272-1.465-2.567-2.93-3.916-4.346c-1.358-1.416-2.74-2.832-4.211-4.102c-1.799-1.611-3.644-3.125-5.565-4.59
		c-1.97-1.465-4.044-2.783-6.101-4.15c-2.455-1.611-5.026-3.027-7.685-4.248c-2.268-1.074-4.579-2.002-6.905-2.93
		c-3.315-1.318-6.727-2.344-10.202-3.125c-1.762-0.391-3.54-0.684-5.311-1.025c-0.373-0.049-0.759-0.098-1.125-0.195
		c-0.116,0-0.263-0.195-0.273-0.293c-0.032-0.439-0.002-0.879-0.017-1.318c-0.007-0.244,0.114-0.342,0.31-0.391
		c2.993-0.391,5.949-0.977,8.844-1.807c2.658-0.781,5.295-1.66,7.911-2.539c1.638-0.586,3.231-1.27,4.823-2.002
		c1.334-0.586,2.667-1.172,3.945-1.904c2.124-1.123,4.236-2.344,6.289-3.613c1.868-1.172,3.676-2.441,5.458-3.711
		c1.214-0.879,2.372-1.855,3.503-2.832c1.479-1.318,2.933-2.637,4.356-3.955c1.061-0.977,2.117-2.002,3.081-3.076
		c1.551-1.758,3.056-3.564,4.53-5.371c2.325-2.832,4.377-5.908,6.222-9.082c1.164-2.002,2.279-4.053,3.262-6.152
		c1.135-2.393,2.15-4.883,3.117-7.373c1.207-3.125,2.128-6.348,2.869-9.57c0.401-1.807,0.706-3.564,1.037-5.322
		c0.142-0.781,0.251-1.562,0.38-2.344c0.226,0,0.479,0,0.763,0c0,19.824,0,39.697,0,59.57
		C161.578,237.891,157.586,237.891,153.543,237.891z M487.98,70.703c0,8.057,0,16.064,0,24.121c4,0,7.993,0,12.019,0
		c0,19.922,0,39.746,0,59.668c-0.244,0-0.498,0-0.759,0c-0.156-0.977-0.297-1.953-0.468-2.93c-0.218-1.172-0.417-2.393-0.696-3.564
		c-0.459-1.953-0.912-3.906-1.482-5.859c-0.593-2.002-1.283-3.955-2.01-5.957c-1.111-2.979-2.408-5.908-3.93-8.74
		c-1.105-2.051-2.262-4.053-3.498-6.006c-1.168-1.904-2.438-3.711-3.729-5.469c-0.88-1.221-1.836-2.393-2.818-3.516
		c-1.272-1.465-2.567-2.93-3.916-4.346c-1.357-1.416-2.739-2.783-4.211-4.102c-1.799-1.562-3.644-3.125-5.565-4.541
		c-1.97-1.465-4.044-2.832-6.101-4.199c-2.454-1.562-5.025-2.979-7.686-4.248c-2.268-1.025-4.578-2.002-6.904-2.93
		c-3.314-1.27-6.727-2.295-10.201-3.076c-1.762-0.391-3.54-0.732-5.312-1.074c-0.373-0.049-0.759-0.098-1.125-0.146
		c-0.116-0.049-0.264-0.244-0.273-0.342c-0.031-0.439-0.002-0.879-0.017-1.318c-0.007-0.244,0.114-0.342,0.31-0.342
		c2.993-0.439,5.949-1.025,8.845-1.855c2.658-0.781,5.295-1.611,7.91-2.539c1.639-0.537,3.231-1.27,4.823-2.002
		c1.334-0.586,2.667-1.172,3.945-1.855c2.124-1.172,4.235-2.393,6.289-3.662c1.868-1.172,3.676-2.441,5.458-3.711
		c1.214-0.879,2.371-1.855,3.503-2.832c1.479-1.27,2.933-2.588,4.355-3.955c1.062-0.977,2.117-2.002,3.081-3.076
		c1.551-1.758,3.057-3.516,4.53-5.322c2.324-2.881,4.377-5.908,6.222-9.082c1.163-2.002,2.279-4.053,3.262-6.152
		c1.135-2.441,2.15-4.932,3.117-7.422c1.207-3.125,2.129-6.299,2.869-9.57c0.401-1.758,0.706-3.564,1.037-5.322
		c0.143-0.781,0.251-1.514,0.381-2.344c0.226,0,0.479,0,0.763,0c0,19.873,0,39.697,0,59.619
		C496.016,70.703,492.023,70.703,487.98,70.703z M320.762,70.703c0,8.057,0,16.064,0,24.121c4,0,7.993,0,12.019,0
		c0,19.922,0,39.746,0,59.668c-0.244,0-0.498,0-0.759,0c-0.155-0.977-0.297-1.953-0.468-2.93c-0.218-1.172-0.416-2.393-0.696-3.564
		c-0.459-1.953-0.912-3.906-1.481-5.859c-0.594-2.002-1.284-3.955-2.011-5.957c-1.111-2.979-2.408-5.908-3.93-8.74
		c-1.105-2.051-2.262-4.053-3.498-6.006c-1.168-1.904-2.438-3.711-3.729-5.469c-0.881-1.221-1.837-2.393-2.819-3.516
		c-1.272-1.465-2.567-2.93-3.916-4.346c-1.357-1.416-2.739-2.783-4.21-4.102c-1.8-1.562-3.645-3.125-5.566-4.541
		c-1.97-1.465-4.044-2.832-6.1-4.199c-2.455-1.562-5.026-2.979-7.686-4.248c-2.269-1.025-4.579-2.002-6.905-2.93
		c-3.314-1.27-6.727-2.295-10.201-3.076c-1.762-0.391-3.54-0.732-5.312-1.074c-0.373-0.049-0.758-0.098-1.125-0.146
		c-0.116-0.049-0.264-0.244-0.272-0.342c-0.032-0.439-0.003-0.879-0.018-1.318c-0.007-0.244,0.114-0.342,0.311-0.342
		c2.992-0.439,5.948-1.025,8.844-1.855c2.658-0.781,5.295-1.611,7.91-2.539c1.639-0.537,3.231-1.27,4.824-2.002
		c1.333-0.586,2.666-1.172,3.944-1.855c2.124-1.172,4.235-2.393,6.289-3.662c1.868-1.172,3.676-2.441,5.458-3.711
		c1.214-0.879,2.371-1.855,3.503-2.832c1.479-1.27,2.933-2.588,4.355-3.955c1.062-0.977,2.117-2.002,3.082-3.076
		c1.551-1.758,3.056-3.516,4.529-5.322c2.324-2.881,4.377-5.908,6.222-9.082c1.163-2.002,2.279-4.053,3.262-6.152
		c1.135-2.441,2.15-4.932,3.118-7.422c1.206-3.125,2.128-6.299,2.868-9.57c0.401-1.758,0.706-3.564,1.037-5.322
		c0.143-0.781,0.251-1.514,0.381-2.344c0.226,0,0.479,0,0.763,0c0,19.873,0,39.697,0,59.619
		C328.797,70.703,324.805,70.703,320.762,70.703z M153.543,70.703c0,8.057,0,16.064,0,24.121c4,0,7.994,0,12.019,0
		c0,19.922,0,39.746,0,59.668c-0.244,0-0.499,0-0.759,0c-0.156-0.977-0.297-1.953-0.468-2.93c-0.217-1.172-0.417-2.393-0.696-3.564
		c-0.459-1.953-0.912-3.906-1.482-5.859c-0.593-2.002-1.284-3.955-2.01-5.957c-1.112-2.979-2.409-5.908-3.93-8.74
		c-1.105-2.051-2.262-4.053-3.498-6.006c-1.168-1.904-2.438-3.711-3.729-5.469c-0.88-1.221-1.836-2.393-2.819-3.516
		c-1.272-1.465-2.567-2.93-3.916-4.346c-1.358-1.416-2.74-2.783-4.211-4.102c-1.799-1.562-3.644-3.125-5.565-4.541
		c-1.97-1.465-4.044-2.832-6.101-4.199c-2.455-1.562-5.026-2.979-7.685-4.248c-2.268-1.025-4.579-2.002-6.905-2.93
		c-3.315-1.27-6.727-2.295-10.202-3.076c-1.762-0.391-3.54-0.732-5.311-1.074c-0.373-0.049-0.759-0.098-1.125-0.146
		c-0.116-0.049-0.263-0.244-0.273-0.342c-0.032-0.439-0.002-0.879-0.017-1.318c-0.007-0.244,0.114-0.342,0.31-0.342
		c2.993-0.439,5.949-1.025,8.844-1.855c2.658-0.781,5.295-1.611,7.911-2.539c1.638-0.537,3.231-1.27,4.823-2.002
		c1.334-0.586,2.667-1.172,3.945-1.855c2.124-1.172,4.236-2.393,6.289-3.662c1.868-1.172,3.676-2.441,5.458-3.711
		c1.214-0.879,2.372-1.855,3.503-2.832c1.479-1.27,2.933-2.588,4.356-3.955c1.061-0.977,2.117-2.002,3.081-3.076
		c1.551-1.758,3.056-3.516,4.53-5.322c2.325-2.881,4.377-5.908,6.222-9.082c1.164-2.002,2.279-4.053,3.262-6.152
		c1.135-2.441,2.15-4.932,3.117-7.422c1.207-3.125,2.128-6.299,2.869-9.57c0.401-1.758,0.706-3.564,1.037-5.322
		c0.142-0.781,0.251-1.514,0.38-2.344c0.226,0,0.479,0,0.763,0c0,19.873,0,39.697,0,59.619
		C161.578,70.703,157.586,70.703,153.543,70.703z M335.221,488.916c-0.258,0-0.499,0-0.765,0c0-19.873,0-39.697,0-59.619
		c4.005,0,7.997,0,12.018,0c0-8.057,0-16.064,0-24.17c-4.01,0-8.002,0-12.018,0c0-19.873,0-39.746,0-59.619c0.262,0,0.518,0,0.726,0
		c0.361,2.051,0.68,4.053,1.1,6.055c0.367,1.758,0.795,3.467,1.287,5.225c0.529,1.807,1.109,3.662,1.765,5.469
		c0.658,1.855,1.389,3.662,2.161,5.42c0.689,1.611,1.413,3.174,2.233,4.688c1.136,2.1,2.323,4.199,3.589,6.25
		c1.168,1.855,2.438,3.662,3.73,5.42c0.877,1.221,1.837,2.393,2.819,3.516c1.293,1.514,2.623,2.979,3.974,4.395
		c0.997,1.074,1.998,2.148,3.094,3.076c2.09,1.807,4.223,3.613,6.382,5.322c2.515,2.051,5.223,3.809,8.01,5.42
		c2.026,1.172,4.101,2.295,6.203,3.32c3.66,1.758,7.454,3.223,11.345,4.443c2.83,0.83,5.694,1.562,8.609,2.1
		c1.107,0.195,2.219,0.391,3.33,0.586c0.211,0.049,0.358,0.098,0.347,0.342c-0.015,0.439-0.015,0.879,0,1.318
		c0.012,0.244-0.11,0.342-0.329,0.342c-3.458,0.488-6.861,1.27-10.22,2.197c-2.934,0.83-5.808,1.855-8.63,2.979
		c-1.363,0.537-2.702,1.172-4.025,1.807c-1.643,0.781-3.279,1.611-4.881,2.49c-2.506,1.367-4.938,2.881-7.251,4.541
		c-1.618,1.172-3.222,2.393-4.781,3.662c-1.27,0.977-2.485,2.1-3.692,3.174c-1.08,0.977-2.166,1.953-3.165,3.027
		c-1.459,1.514-2.858,3.125-4.256,4.736c-2.363,2.686-4.452,5.566-6.383,8.594c-1.011,1.611-1.944,3.223-2.862,4.883
		c-0.704,1.221-1.396,2.49-1.983,3.809c-1.03,2.295-2.023,4.59-2.948,6.934c-1.305,3.271-2.311,6.689-3.086,10.156
		c-0.398,1.758-0.718,3.564-1.06,5.322C335.459,487.305,335.353,488.086,335.221,488.916z M168.002,488.916
		c-0.257,0-0.499,0-0.764,0c0-19.873,0-39.697,0-59.619c4.004,0,7.997,0,12.017,0c0-8.057,0-16.064,0-24.17
		c-4.009,0-8.001,0-12.017,0c0-19.873,0-39.746,0-59.619c0.262,0,0.517,0,0.725,0c0.361,2.051,0.68,4.053,1.1,6.055
		c0.367,1.758,0.795,3.467,1.287,5.225c0.529,1.807,1.109,3.662,1.765,5.469c0.658,1.855,1.389,3.662,2.161,5.42
		c0.689,1.611,1.413,3.174,2.233,4.688c1.135,2.1,2.323,4.199,3.589,6.25c1.168,1.855,2.438,3.662,3.73,5.42
		c0.877,1.221,1.837,2.393,2.82,3.516c1.293,1.514,2.623,2.979,3.973,4.395c0.997,1.074,1.999,2.148,3.094,3.076
		c2.09,1.807,4.223,3.613,6.381,5.322c2.515,2.051,5.223,3.809,8.01,5.42c2.027,1.172,4.101,2.295,6.203,3.32
		c3.66,1.758,7.454,3.223,11.345,4.443c2.83,0.83,5.694,1.562,8.609,2.1c1.108,0.195,2.219,0.391,3.33,0.586
		c0.21,0.049,0.358,0.098,0.347,0.342c-0.015,0.439-0.015,0.879,0,1.318c0.011,0.244-0.111,0.342-0.33,0.342
		c-3.458,0.488-6.861,1.27-10.219,2.197c-2.934,0.83-5.808,1.855-8.63,2.979c-1.363,0.537-2.702,1.172-4.025,1.807
		c-1.642,0.781-3.279,1.611-4.881,2.49c-2.506,1.367-4.938,2.881-7.251,4.541c-1.618,1.172-3.221,2.393-4.781,3.662
		c-1.27,0.977-2.485,2.1-3.692,3.174c-1.08,0.977-2.166,1.953-3.165,3.027c-1.459,1.514-2.859,3.125-4.256,4.736
		c-2.363,2.686-4.452,5.566-6.383,8.594c-1.01,1.611-1.944,3.223-2.861,4.883c-0.704,1.221-1.396,2.49-1.983,3.809
		c-1.031,2.295-2.024,4.59-2.948,6.934c-1.305,3.271-2.311,6.689-3.086,10.156c-0.398,1.758-0.718,3.564-1.06,5.322
		C168.241,487.305,168.134,488.086,168.002,488.916z M0.784,488.916c-0.258,0-0.499,0-0.765,0c0-19.873,0-39.697,0-59.619
		c4.004,0,7.997,0,12.017,0c0-8.057,0-16.064,0-24.17c-4.009,0-8.001,0-12.017,0c0-19.873,0-39.746,0-59.619
		c0.262,0,0.517,0,0.725,0c0.362,2.051,0.681,4.053,1.1,6.055c0.367,1.758,0.795,3.467,1.287,5.225
		c0.529,1.807,1.109,3.662,1.765,5.469c0.657,1.855,1.388,3.662,2.161,5.42c0.689,1.611,1.413,3.174,2.233,4.688
		c1.136,2.1,2.323,4.199,3.589,6.25c1.168,1.855,2.438,3.662,3.73,5.42c0.876,1.221,1.837,2.393,2.819,3.516
		c1.293,1.514,2.623,2.979,3.973,4.395c0.997,1.074,1.999,2.148,3.094,3.076c2.09,1.807,4.223,3.613,6.381,5.322
		c2.515,2.051,5.223,3.809,8.01,5.42c2.027,1.172,4.101,2.295,6.203,3.32c3.66,1.758,7.455,3.223,11.345,4.443
		c2.831,0.83,5.694,1.562,8.609,2.1c1.108,0.195,2.218,0.391,3.33,0.586c0.21,0.049,0.358,0.098,0.347,0.342
		c-0.015,0.439-0.015,0.879,0,1.318c0.011,0.244-0.11,0.342-0.33,0.342c-3.458,0.488-6.861,1.27-10.219,2.197
		c-2.934,0.83-5.808,1.855-8.63,2.979c-1.363,0.537-2.702,1.172-4.025,1.807c-1.642,0.781-3.279,1.611-4.881,2.49
		c-2.506,1.367-4.938,2.881-7.251,4.541c-1.618,1.172-3.221,2.393-4.781,3.662c-1.27,0.977-2.485,2.1-3.692,3.174
		c-1.08,0.977-2.166,1.953-3.165,3.027c-1.459,1.514-2.859,3.125-4.256,4.736c-2.363,2.686-4.452,5.566-6.383,8.594
		c-1.011,1.611-1.944,3.223-2.862,4.883c-0.704,1.221-1.396,2.49-1.983,3.809c-1.03,2.295-2.024,4.59-2.948,6.934
		c-1.305,3.271-2.311,6.689-3.086,10.156c-0.398,1.758-0.718,3.564-1.06,5.322C1.022,487.305,0.916,488.086,0.784,488.916z
		 M335.221,321.68c-0.258,0-0.499,0-0.765,0c0-19.873,0-39.697,0-59.619c4.005,0,7.997,0,12.018,0c0-8.057,0-16.064,0-24.121
		c-4.01,0-8.002,0-12.018,0c0-19.922,0-39.746,0-59.619c0.262,0,0.518,0,0.726,0c0.361,2.002,0.68,4.004,1.1,6.006
		c0.367,1.758,0.795,3.516,1.287,5.225c0.529,1.855,1.109,3.711,1.765,5.518c0.658,1.807,1.389,3.613,2.161,5.42
		c0.689,1.562,1.413,3.125,2.233,4.688c1.136,2.1,2.323,4.15,3.589,6.201c1.168,1.855,2.438,3.662,3.73,5.469
		c0.877,1.221,1.837,2.344,2.819,3.467c1.293,1.514,2.623,2.979,3.974,4.395c0.997,1.074,1.998,2.148,3.094,3.076
		c2.09,1.855,4.223,3.613,6.382,5.322c2.515,2.051,5.223,3.809,8.01,5.42c2.026,1.172,4.101,2.295,6.203,3.32
		c3.66,1.807,7.454,3.223,11.345,4.443c2.83,0.879,5.694,1.611,8.609,2.148c1.107,0.195,2.219,0.342,3.33,0.537
		c0.211,0.049,0.358,0.098,0.347,0.391c-0.015,0.391-0.015,0.83,0,1.27c0.012,0.244-0.11,0.342-0.329,0.391
		c-3.458,0.488-6.861,1.221-10.22,2.197c-2.934,0.83-5.808,1.807-8.63,2.93c-1.363,0.586-2.702,1.172-4.025,1.807
		c-1.643,0.83-3.279,1.611-4.881,2.49c-2.506,1.367-4.938,2.881-7.251,4.59c-1.618,1.172-3.222,2.344-4.781,3.613
		c-1.27,1.025-2.485,2.1-3.692,3.174c-1.08,0.977-2.166,1.953-3.165,3.027c-1.459,1.514-2.858,3.125-4.256,4.736
		c-2.363,2.686-4.452,5.615-6.383,8.643c-1.011,1.562-1.944,3.174-2.862,4.834c-0.704,1.221-1.396,2.49-1.983,3.809
		c-1.03,2.295-2.023,4.59-2.948,6.934c-1.305,3.32-2.311,6.689-3.086,10.156c-0.398,1.807-0.718,3.564-1.06,5.371
		C335.459,320.117,335.353,320.898,335.221,321.68z M168.002,321.68c-0.257,0-0.499,0-0.764,0c0-19.873,0-39.697,0-59.619
		c4.004,0,7.997,0,12.017,0c0-8.057,0-16.064,0-24.121c-4.009,0-8.001,0-12.017,0c0-19.922,0-39.746,0-59.619
		c0.262,0,0.517,0,0.725,0c0.361,2.002,0.68,4.004,1.1,6.006c0.367,1.758,0.795,3.516,1.287,5.225
		c0.529,1.855,1.109,3.711,1.765,5.518c0.658,1.807,1.389,3.613,2.161,5.42c0.689,1.562,1.413,3.125,2.233,4.688
		c1.135,2.1,2.323,4.15,3.589,6.201c1.168,1.855,2.438,3.662,3.73,5.469c0.877,1.221,1.837,2.344,2.82,3.467
		c1.293,1.514,2.623,2.979,3.973,4.395c0.997,1.074,1.999,2.148,3.094,3.076c2.09,1.855,4.223,3.613,6.381,5.322
		c2.515,2.051,5.223,3.809,8.01,5.42c2.027,1.172,4.101,2.295,6.203,3.32c3.66,1.807,7.454,3.223,11.345,4.443
		c2.83,0.879,5.694,1.611,8.609,2.148c1.108,0.195,2.219,0.342,3.33,0.537c0.21,0.049,0.358,0.098,0.347,0.391
		c-0.015,0.391-0.015,0.83,0,1.27c0.011,0.244-0.111,0.342-0.33,0.391c-3.458,0.488-6.861,1.221-10.219,2.197
		c-2.934,0.83-5.808,1.807-8.63,2.93c-1.363,0.586-2.702,1.172-4.025,1.807c-1.642,0.83-3.279,1.611-4.881,2.49
		c-2.506,1.367-4.938,2.881-7.251,4.59c-1.618,1.172-3.221,2.344-4.781,3.613c-1.27,1.025-2.485,2.1-3.692,3.174
		c-1.08,0.977-2.166,1.953-3.165,3.027c-1.459,1.514-2.859,3.125-4.256,4.736c-2.363,2.686-4.452,5.615-6.383,8.643
		c-1.01,1.562-1.944,3.174-2.861,4.834c-0.704,1.221-1.396,2.49-1.983,3.809c-1.031,2.295-2.024,4.59-2.948,6.934
		c-1.305,3.32-2.311,6.689-3.086,10.156c-0.398,1.807-0.718,3.564-1.06,5.371C168.241,320.117,168.134,320.898,168.002,321.68z
		 M0.784,321.68c-0.258,0-0.499,0-0.765,0c0-19.873,0-39.697,0-59.619c4.004,0,7.997,0,12.017,0c0-8.057,0-16.064,0-24.121
		c-4.009,0-8.001,0-12.017,0c0-19.922,0-39.746,0-59.619c0.262,0,0.517,0,0.725,0c0.362,2.002,0.681,4.004,1.1,6.006
		c0.367,1.758,0.795,3.516,1.287,5.225c0.529,1.855,1.109,3.711,1.765,5.518c0.657,1.807,1.388,3.613,2.161,5.42
		c0.689,1.562,1.413,3.125,2.233,4.688c1.136,2.1,2.323,4.15,3.589,6.201c1.168,1.855,2.438,3.662,3.73,5.469
		c0.876,1.221,1.837,2.344,2.819,3.467c1.293,1.514,2.623,2.979,3.973,4.395c0.997,1.074,1.999,2.148,3.094,3.076
		c2.09,1.855,4.223,3.613,6.381,5.322c2.515,2.051,5.223,3.809,8.01,5.42c2.027,1.172,4.101,2.295,6.203,3.32
		c3.66,1.807,7.455,3.223,11.345,4.443c2.831,0.879,5.694,1.611,8.609,2.148c1.108,0.195,2.218,0.342,3.33,0.537
		c0.21,0.049,0.358,0.098,0.347,0.391c-0.015,0.391-0.015,0.83,0,1.27c0.011,0.244-0.11,0.342-0.33,0.391
		c-3.458,0.488-6.861,1.221-10.219,2.197c-2.934,0.83-5.808,1.807-8.63,2.93c-1.363,0.586-2.702,1.172-4.025,1.807
		c-1.642,0.83-3.279,1.611-4.881,2.49c-2.506,1.367-4.938,2.881-7.251,4.59c-1.618,1.172-3.221,2.344-4.781,3.613
		c-1.27,1.025-2.485,2.1-3.692,3.174c-1.08,0.977-2.166,1.953-3.165,3.027c-1.459,1.514-2.859,3.125-4.256,4.736
		c-2.363,2.686-4.452,5.615-6.383,8.643c-1.011,1.562-1.944,3.174-2.862,4.834c-0.704,1.221-1.396,2.49-1.983,3.809
		c-1.03,2.295-2.024,4.59-2.948,6.934c-1.305,3.32-2.311,6.689-3.086,10.156c-0.398,1.807-0.718,3.564-1.06,5.371
		C1.022,320.117,0.916,320.898,0.784,321.68z M335.221,154.492c-0.258,0-0.499,0-0.765,0c0-19.873,0-39.746,0-59.619
		c4.005,0,7.997,0,12.018,0c0-8.057,0-16.113,0-24.17c-4.01,0-8.002,0-12.018,0c0-19.873,0-39.746,0-59.619c0.262,0,0.518,0,0.726,0
		c0.361,2.051,0.68,4.053,1.1,6.055c0.367,1.709,0.795,3.467,1.287,5.176c0.529,1.855,1.109,3.711,1.765,5.518
		c0.658,1.807,1.389,3.613,2.161,5.42c0.689,1.562,1.413,3.174,2.233,4.688c1.136,2.1,2.323,4.199,3.589,6.201
		c1.168,1.904,2.438,3.711,3.73,5.469c0.877,1.221,1.837,2.393,2.819,3.516c1.293,1.465,2.623,2.93,3.974,4.395
		c0.997,1.025,1.998,2.1,3.094,3.076c2.09,1.807,4.223,3.564,6.382,5.322c2.515,2.002,5.223,3.76,8.01,5.42
		c2.026,1.172,4.101,2.246,6.203,3.271c3.66,1.807,7.454,3.271,11.345,4.443c2.83,0.879,5.694,1.611,8.609,2.148
		c1.107,0.195,2.219,0.391,3.33,0.586c0.211,0,0.358,0.098,0.347,0.342c-0.015,0.439-0.015,0.879,0,1.27
		c0.012,0.244-0.11,0.342-0.329,0.391c-3.458,0.488-6.861,1.27-10.22,2.197c-2.934,0.83-5.808,1.807-8.63,2.979
		c-1.363,0.537-2.702,1.172-4.025,1.807c-1.643,0.781-3.279,1.611-4.881,2.49c-2.506,1.367-4.938,2.881-7.251,4.541
		c-1.618,1.172-3.222,2.393-4.781,3.613c-1.27,1.025-2.485,2.1-3.692,3.223c-1.08,0.977-2.166,1.953-3.165,2.979
		c-1.459,1.562-2.858,3.174-4.256,4.736c-2.363,2.734-4.452,5.615-6.383,8.643c-1.011,1.562-1.944,3.223-2.862,4.834
		c-0.704,1.27-1.396,2.539-1.983,3.809c-1.03,2.295-2.023,4.639-2.948,6.982c-1.305,3.271-2.311,6.689-3.086,10.156
		c-0.398,1.758-0.718,3.564-1.06,5.322C335.459,152.881,335.353,153.662,335.221,154.492z M168.002,154.492
		c-0.257,0-0.499,0-0.764,0c0-19.873,0-39.746,0-59.619c4.004,0,7.997,0,12.017,0c0-8.057,0-16.113,0-24.17
		c-4.009,0-8.001,0-12.017,0c0-19.873,0-39.746,0-59.619c0.262,0,0.517,0,0.725,0c0.361,2.051,0.68,4.053,1.1,6.055
		c0.367,1.709,0.795,3.467,1.287,5.176c0.529,1.855,1.109,3.711,1.765,5.518c0.658,1.807,1.389,3.613,2.161,5.42
		c0.689,1.562,1.413,3.174,2.233,4.688c1.135,2.1,2.323,4.199,3.589,6.201c1.168,1.904,2.438,3.711,3.73,5.469
		c0.877,1.221,1.837,2.393,2.82,3.516c1.293,1.465,2.623,2.93,3.973,4.395c0.997,1.025,1.999,2.1,3.094,3.076
		c2.09,1.807,4.223,3.564,6.381,5.322c2.515,2.002,5.223,3.76,8.01,5.42c2.027,1.172,4.101,2.246,6.203,3.271
		c3.66,1.807,7.454,3.271,11.345,4.443c2.83,0.879,5.694,1.611,8.609,2.148c1.108,0.195,2.219,0.391,3.33,0.586
		c0.21,0,0.358,0.098,0.347,0.342c-0.015,0.439-0.015,0.879,0,1.27c0.011,0.244-0.111,0.342-0.33,0.391
		c-3.458,0.488-6.861,1.27-10.219,2.197c-2.934,0.83-5.808,1.807-8.63,2.979c-1.363,0.537-2.702,1.172-4.025,1.807
		c-1.642,0.781-3.279,1.611-4.881,2.49c-2.506,1.367-4.938,2.881-7.251,4.541c-1.618,1.172-3.221,2.393-4.781,3.613
		c-1.27,1.025-2.485,2.1-3.692,3.223c-1.08,0.977-2.166,1.953-3.165,2.979c-1.459,1.562-2.859,3.174-4.256,4.736
		c-2.363,2.734-4.452,5.615-6.383,8.643c-1.01,1.562-1.944,3.223-2.861,4.834c-0.704,1.27-1.396,2.539-1.983,3.809
		c-1.031,2.295-2.024,4.639-2.948,6.982c-1.305,3.271-2.311,6.689-3.086,10.156c-0.398,1.758-0.718,3.564-1.06,5.322
		C168.241,152.881,168.134,153.662,168.002,154.492z M0.784,154.492c-0.258,0-0.499,0-0.765,0c0-19.873,0-39.746,0-59.619
		c4.004,0,7.997,0,12.017,0c0-8.057,0-16.113,0-24.17c-4.009,0-8.001,0-12.017,0c0-19.873,0-39.746,0-59.619
		c0.262,0,0.517,0,0.725,0c0.362,2.051,0.681,4.053,1.1,6.055c0.367,1.709,0.795,3.467,1.287,5.176
		c0.529,1.855,1.109,3.711,1.765,5.518c0.657,1.807,1.388,3.613,2.161,5.42c0.689,1.562,1.413,3.174,2.233,4.688
		c1.136,2.1,2.323,4.199,3.589,6.201c1.168,1.904,2.438,3.711,3.73,5.469c0.876,1.221,1.837,2.393,2.819,3.516
		c1.293,1.465,2.623,2.93,3.973,4.395c0.997,1.025,1.999,2.1,3.094,3.076c2.09,1.807,4.223,3.564,6.381,5.322
		c2.515,2.002,5.223,3.76,8.01,5.42c2.027,1.172,4.101,2.246,6.203,3.271c3.66,1.807,7.455,3.271,11.345,4.443
		c2.831,0.879,5.694,1.611,8.609,2.148c1.108,0.195,2.218,0.391,3.33,0.586c0.21,0,0.358,0.098,0.347,0.342
		c-0.015,0.439-0.015,0.879,0,1.27c0.011,0.244-0.11,0.342-0.33,0.391c-3.458,0.488-6.861,1.27-10.219,2.197
		c-2.934,0.83-5.808,1.807-8.63,2.979c-1.363,0.537-2.702,1.172-4.025,1.807c-1.642,0.781-3.279,1.611-4.881,2.49
		c-2.506,1.367-4.938,2.881-7.251,4.541c-1.618,1.172-3.221,2.393-4.781,3.613c-1.27,1.025-2.485,2.1-3.692,3.223
		c-1.08,0.977-2.166,1.953-3.165,2.979c-1.459,1.562-2.859,3.174-4.256,4.736c-2.363,2.734-4.452,5.615-6.383,8.643
		c-1.011,1.562-1.944,3.223-2.862,4.834c-0.704,1.27-1.396,2.539-1.983,3.809c-1.03,2.295-2.024,4.639-2.948,6.982
		c-1.305,3.271-2.311,6.689-3.086,10.156c-0.398,1.758-0.718,3.564-1.06,5.322C1.022,152.881,0.916,153.662,0.784,154.492z
		 M345.508,335.205c0-0.146-0.002-0.293,0.002-0.439c0.001-0.098,0.013-0.195,0.021-0.342c19.868,0,39.719,0,59.614,0
		c0,4.004,0,8.008,0,12.012c8.066,0,16.089,0,24.156,0c0-4.004,0-7.959,0-12.012c19.893,0,39.743,0,59.622,0
		c0,0.293,0,0.537,0,0.732c-1.853,0.342-3.688,0.635-5.506,1.025c-1.923,0.391-3.843,0.83-5.734,1.367
		c-1.858,0.537-3.697,1.123-5.513,1.758c-1.826,0.684-3.629,1.416-5.41,2.148c-1.587,0.684-3.164,1.416-4.686,2.246
		c-2.105,1.123-4.195,2.344-6.221,3.613c-1.865,1.123-3.673,2.393-5.458,3.711c-1.214,0.879-2.368,1.855-3.504,2.832
		c-1.46,1.27-2.893,2.539-4.298,3.857c-1.122,1.074-2.227,2.148-3.259,3.271c-1.302,1.465-2.543,2.93-3.777,4.443
		c-2.408,2.881-4.573,6.006-6.465,9.277c-1.288,2.197-2.565,4.443-3.674,6.787c-1.152,2.393-2.144,4.883-3.112,7.373
		c-1.205,3.125-2.127,6.299-2.859,9.57c-0.396,1.758-0.699,3.516-1.043,5.322c-0.065,0.342-0.117,0.684-0.163,1.025
		c-0.031,0.244-0.136,0.391-0.398,0.342c-0.415,0-0.83,0-1.242,0c-0.251,0.049-0.344-0.098-0.376-0.293
		c-0.521-3.662-1.288-7.275-2.393-10.84c-0.854-2.686-1.757-5.42-2.812-8.057c-0.933-2.344-2.028-4.639-3.188-6.885
		c-1.058-2.051-2.25-4.053-3.48-6.006c-1.172-1.855-2.438-3.662-3.729-5.469c-0.877-1.221-1.836-2.393-2.821-3.516
		c-1.3-1.465-2.621-2.979-4.003-4.395c-1.403-1.465-2.861-2.832-4.355-4.199c-1.364-1.221-2.786-2.393-4.226-3.564
		c-1.128-0.879-2.293-1.758-3.488-2.539c-1.759-1.221-3.527-2.393-5.348-3.467c-2.528-1.514-5.147-2.832-7.832-4.053
		c-3.101-1.416-6.267-2.637-9.525-3.613c-2.259-0.684-4.553-1.27-6.845-1.807c-1.491-0.391-3.005-0.635-4.512-0.928
		C346.975,335.4,346.268,335.303,345.508,335.205z M178.29,335.205c0-0.146-0.002-0.293,0.001-0.439
		c0.001-0.098,0.013-0.195,0.021-0.342c19.868,0,39.719,0,59.615,0c0,4.004,0,8.008,0,12.012c8.066,0,16.088,0,24.156,0
		c0-4.004,0-7.959,0-12.012c19.893,0,39.743,0,59.622,0c0,0.293,0,0.537,0,0.732c-1.853,0.342-3.688,0.635-5.506,1.025
		c-1.923,0.391-3.843,0.83-5.734,1.367c-1.858,0.537-3.697,1.123-5.513,1.758c-1.826,0.684-3.629,1.416-5.41,2.148
		c-1.587,0.684-3.164,1.416-4.686,2.246c-2.105,1.123-4.195,2.344-6.221,3.613c-1.865,1.123-3.673,2.393-5.458,3.711
		c-1.214,0.879-2.368,1.855-3.504,2.832c-1.46,1.27-2.893,2.539-4.298,3.857c-1.122,1.074-2.227,2.148-3.259,3.271
		c-1.302,1.465-2.543,2.93-3.776,4.443c-2.409,2.881-4.574,6.006-6.466,9.277c-1.288,2.197-2.565,4.443-3.674,6.787
		c-1.152,2.393-2.144,4.883-3.112,7.373c-1.205,3.125-2.126,6.299-2.859,9.57c-0.395,1.758-0.699,3.516-1.043,5.322
		c-0.065,0.342-0.117,0.684-0.163,1.025c-0.031,0.244-0.136,0.391-0.398,0.342c-0.415,0-0.83,0-1.242,0
		c-0.252,0.049-0.344-0.098-0.376-0.293c-0.522-3.662-1.288-7.275-2.394-10.84c-0.853-2.686-1.756-5.42-2.812-8.057
		c-0.932-2.344-2.028-4.639-3.188-6.885c-1.059-2.051-2.25-4.053-3.481-6.006c-1.171-1.855-2.438-3.662-3.73-5.469
		c-0.876-1.221-1.835-2.393-2.821-3.516c-1.299-1.465-2.621-2.979-4.003-4.395c-1.403-1.465-2.86-2.832-4.355-4.199
		c-1.365-1.221-2.786-2.393-4.225-3.564c-1.128-0.879-2.293-1.758-3.488-2.539c-1.759-1.221-3.528-2.393-5.348-3.467
		c-2.528-1.514-5.147-2.832-7.832-4.053c-3.1-1.416-6.267-2.637-9.525-3.613c-2.259-0.684-4.553-1.27-6.845-1.807
		c-1.491-0.391-3.004-0.635-4.511-0.928C179.756,335.4,179.049,335.303,178.29,335.205z M11.071,335.205
		c0-0.146-0.002-0.293,0.001-0.439c0.001-0.098,0.013-0.195,0.021-0.342c19.868,0,39.719,0,59.614,0c0,4.004,0,8.008,0,12.012
		c8.066,0,16.088,0,24.156,0c0-4.004,0-7.959,0-12.012c19.893,0,39.744,0,59.623,0c0,0.293,0,0.537,0,0.732
		c-1.853,0.342-3.688,0.635-5.506,1.025c-1.923,0.391-3.842,0.83-5.734,1.367c-1.858,0.537-3.697,1.123-5.513,1.758
		c-1.826,0.684-3.628,1.416-5.41,2.148c-1.587,0.684-3.164,1.416-4.685,2.246c-2.105,1.123-4.195,2.344-6.221,3.613
		c-1.866,1.123-3.673,2.393-5.458,3.711c-1.214,0.879-2.368,1.855-3.504,2.832c-1.46,1.27-2.893,2.539-4.298,3.857
		c-1.122,1.074-2.227,2.148-3.258,3.271c-1.302,1.465-2.543,2.93-3.777,4.443c-2.408,2.881-4.573,6.006-6.465,9.277
		c-1.288,2.197-2.565,4.443-3.674,6.787c-1.152,2.393-2.143,4.883-3.112,7.373c-1.205,3.125-2.126,6.299-2.859,9.57
		c-0.395,1.758-0.699,3.516-1.042,5.322c-0.065,0.342-0.117,0.684-0.164,1.025c-0.031,0.244-0.136,0.391-0.398,0.342
		c-0.415,0-0.83,0-1.242,0c-0.251,0.049-0.344-0.098-0.376-0.293c-0.521-3.662-1.288-7.275-2.394-10.84
		c-0.853-2.686-1.756-5.42-2.812-8.057c-0.933-2.344-2.028-4.639-3.188-6.885c-1.058-2.051-2.25-4.053-3.48-6.006
		c-1.171-1.855-2.438-3.662-3.73-5.469c-0.877-1.221-1.836-2.393-2.821-3.516c-1.299-1.465-2.621-2.979-4.003-4.395
		c-1.403-1.465-2.861-2.832-4.355-4.199c-1.364-1.221-2.786-2.393-4.225-3.564c-1.128-0.879-2.293-1.758-3.488-2.539
		c-1.758-1.221-3.527-2.393-5.348-3.467c-2.528-1.514-5.147-2.832-7.833-4.053c-3.1-1.416-6.267-2.637-9.525-3.613
		c-2.259-0.684-4.553-1.27-6.845-1.807c-1.491-0.391-3.004-0.635-4.511-0.928C12.538,335.4,11.83,335.303,11.071,335.205z
		 M345.508,168.018c0-0.195-0.002-0.342,0.002-0.488c0.001-0.098,0.013-0.195,0.021-0.293c19.868,0,39.719,0,59.614,0
		c0,4.004,0,7.959,0,12.012c8.066,0,16.089,0,24.156,0c0-4.004,0-8.008,0-12.012c19.893,0,39.743,0,59.622,0
		c0,0.244,0,0.488,0,0.732c-1.853,0.293-3.688,0.586-5.506,0.977c-1.923,0.439-3.843,0.879-5.734,1.367
		c-1.858,0.537-3.697,1.123-5.513,1.758c-1.826,0.684-3.629,1.416-5.41,2.197c-1.587,0.684-3.164,1.416-4.686,2.197
		c-2.105,1.172-4.195,2.344-6.221,3.613c-1.865,1.172-3.673,2.441-5.458,3.711c-1.214,0.879-2.368,1.855-3.504,2.832
		c-1.46,1.27-2.893,2.539-4.298,3.906c-1.122,1.025-2.227,2.1-3.259,3.271c-1.302,1.416-2.543,2.93-3.777,4.395
		c-2.408,2.93-4.573,6.006-6.465,9.277c-1.288,2.246-2.565,4.443-3.674,6.787c-1.152,2.441-2.144,4.932-3.112,7.422
		c-1.205,3.076-2.127,6.299-2.859,9.521c-0.396,1.758-0.699,3.564-1.043,5.322c-0.065,0.342-0.117,0.684-0.163,1.074
		c-0.031,0.244-0.136,0.342-0.398,0.342c-0.415-0.049-0.83-0.049-1.242,0c-0.251,0-0.344-0.146-0.376-0.342
		c-0.521-3.662-1.288-7.275-2.393-10.791c-0.854-2.734-1.757-5.42-2.812-8.105c-0.933-2.344-2.028-4.639-3.188-6.885
		c-1.058-2.051-2.25-4.053-3.48-6.006c-1.172-1.855-2.438-3.662-3.729-5.469c-0.877-1.172-1.836-2.344-2.821-3.467
		c-1.3-1.514-2.621-3.027-4.003-4.443c-1.403-1.416-2.861-2.832-4.355-4.199c-1.364-1.221-2.786-2.393-4.226-3.564
		c-1.128-0.879-2.293-1.709-3.488-2.539c-1.759-1.172-3.527-2.344-5.348-3.467c-2.528-1.465-5.147-2.832-7.832-4.053
		c-3.101-1.416-6.267-2.637-9.525-3.613c-2.259-0.684-4.553-1.221-6.845-1.807c-1.491-0.342-3.005-0.635-4.512-0.879
		C346.975,168.164,346.268,168.115,345.508,168.018z M178.29,168.018c0-0.195-0.002-0.342,0.001-0.488
		c0.001-0.098,0.013-0.195,0.021-0.293c19.868,0,39.719,0,59.615,0c0,4.004,0,7.959,0,12.012c8.066,0,16.088,0,24.156,0
		c0-4.004,0-8.008,0-12.012c19.893,0,39.743,0,59.622,0c0,0.244,0,0.488,0,0.732c-1.853,0.293-3.688,0.586-5.506,0.977
		c-1.923,0.439-3.843,0.879-5.734,1.367c-1.858,0.537-3.697,1.123-5.513,1.758c-1.826,0.684-3.629,1.416-5.41,2.197
		c-1.587,0.684-3.164,1.416-4.686,2.197c-2.105,1.172-4.195,2.344-6.221,3.613c-1.865,1.172-3.673,2.441-5.458,3.711
		c-1.214,0.879-2.368,1.855-3.504,2.832c-1.46,1.27-2.893,2.539-4.298,3.906c-1.122,1.025-2.227,2.1-3.259,3.271
		c-1.302,1.416-2.543,2.93-3.776,4.395c-2.409,2.93-4.574,6.006-6.466,9.277c-1.288,2.246-2.565,4.443-3.674,6.787
		c-1.152,2.441-2.144,4.932-3.112,7.422c-1.205,3.076-2.126,6.299-2.859,9.521c-0.395,1.758-0.699,3.564-1.043,5.322
		c-0.065,0.342-0.117,0.684-0.163,1.074c-0.031,0.244-0.136,0.342-0.398,0.342c-0.415-0.049-0.83-0.049-1.242,0
		c-0.252,0-0.344-0.146-0.376-0.342c-0.522-3.662-1.288-7.275-2.394-10.791c-0.853-2.734-1.756-5.42-2.812-8.105
		c-0.932-2.344-2.028-4.639-3.188-6.885c-1.059-2.051-2.25-4.053-3.481-6.006c-1.171-1.855-2.438-3.662-3.73-5.469
		c-0.876-1.172-1.835-2.344-2.821-3.467c-1.299-1.514-2.621-3.027-4.003-4.443c-1.403-1.416-2.86-2.832-4.355-4.199
		c-1.365-1.221-2.786-2.393-4.225-3.564c-1.128-0.879-2.293-1.709-3.488-2.539c-1.759-1.172-3.528-2.344-5.348-3.467
		c-2.528-1.465-5.147-2.832-7.832-4.053c-3.1-1.416-6.267-2.637-9.525-3.613c-2.259-0.684-4.553-1.221-6.845-1.807
		c-1.491-0.342-3.004-0.635-4.511-0.879C179.756,168.164,179.049,168.115,178.29,168.018z M11.071,168.018
		c0-0.195-0.002-0.342,0.001-0.488c0.001-0.098,0.013-0.195,0.021-0.293c19.868,0,39.719,0,59.614,0c0,4.004,0,7.959,0,12.012
		c8.066,0,16.088,0,24.156,0c0-4.004,0-8.008,0-12.012c19.893,0,39.744,0,59.623,0c0,0.244,0,0.488,0,0.732
		c-1.853,0.293-3.688,0.586-5.506,0.977c-1.923,0.439-3.842,0.879-5.734,1.367c-1.858,0.537-3.697,1.123-5.513,1.758
		c-1.826,0.684-3.628,1.416-5.41,2.197c-1.587,0.684-3.164,1.416-4.685,2.197c-2.105,1.172-4.195,2.344-6.221,3.613
		c-1.866,1.172-3.673,2.441-5.458,3.711c-1.214,0.879-2.368,1.855-3.504,2.832c-1.46,1.27-2.893,2.539-4.298,3.906
		c-1.122,1.025-2.227,2.1-3.258,3.271c-1.302,1.416-2.543,2.93-3.777,4.395c-2.408,2.93-4.573,6.006-6.465,9.277
		c-1.288,2.246-2.565,4.443-3.674,6.787c-1.152,2.441-2.143,4.932-3.112,7.422c-1.205,3.076-2.126,6.299-2.859,9.521
		c-0.395,1.758-0.699,3.564-1.042,5.322c-0.065,0.342-0.117,0.684-0.164,1.074c-0.031,0.244-0.136,0.342-0.398,0.342
		c-0.415-0.049-0.83-0.049-1.242,0c-0.251,0-0.344-0.146-0.376-0.342c-0.521-3.662-1.288-7.275-2.394-10.791
		c-0.853-2.734-1.756-5.42-2.812-8.105c-0.933-2.344-2.028-4.639-3.188-6.885c-1.058-2.051-2.25-4.053-3.48-6.006
		c-1.171-1.855-2.438-3.662-3.73-5.469c-0.877-1.172-1.836-2.344-2.821-3.467c-1.299-1.514-2.621-3.027-4.003-4.443
		c-1.403-1.416-2.861-2.832-4.355-4.199c-1.364-1.221-2.786-2.393-4.225-3.564c-1.128-0.879-2.293-1.709-3.488-2.539
		c-1.758-1.172-3.527-2.344-5.348-3.467c-2.528-1.465-5.147-2.832-7.833-4.053c-3.1-1.416-6.267-2.637-9.525-3.613
		c-2.259-0.684-4.553-1.221-6.845-1.807c-1.491-0.342-3.004-0.635-4.511-0.879C12.538,168.164,11.83,168.115,11.071,168.018z
		 M345.508,0.781c0-0.195-0.002-0.342,0.002-0.488c0.001-0.098,0.013-0.195,0.021-0.293c19.868,0,39.719,0,59.614,0
		c0,4.004,0,8.008,0,12.012c8.066,0,16.089,0,24.156,0c0-4.004,0-8.008,0-12.012c19.893,0,39.743,0,59.622,0
		c0,0.244,0,0.537,0,0.732c-1.853,0.342-3.688,0.635-5.506,1.025c-1.923,0.391-3.843,0.83-5.734,1.367
		c-1.858,0.488-3.697,1.074-5.513,1.758c-1.826,0.635-3.629,1.367-5.41,2.148c-1.587,0.684-3.164,1.416-4.686,2.246
		c-2.105,1.123-4.195,2.295-6.221,3.564c-1.865,1.172-3.673,2.441-5.458,3.76c-1.214,0.879-2.368,1.807-3.504,2.783
		c-1.46,1.27-2.893,2.588-4.298,3.906c-1.122,1.074-2.227,2.148-3.259,3.271c-1.302,1.416-2.543,2.93-3.777,4.395
		c-2.408,2.93-4.573,6.006-6.465,9.277c-1.288,2.246-2.565,4.492-3.674,6.787c-1.152,2.441-2.144,4.932-3.112,7.422
		c-1.205,3.125-2.127,6.299-2.859,9.57c-0.396,1.758-0.699,3.516-1.043,5.322c-0.065,0.342-0.117,0.684-0.163,1.025
		c-0.031,0.244-0.136,0.342-0.398,0.342c-0.415,0-0.83,0-1.242,0c-0.251,0-0.344-0.098-0.376-0.342
		c-0.521-3.662-1.288-7.275-2.393-10.791c-0.854-2.734-1.757-5.42-2.812-8.057c-0.933-2.344-2.028-4.639-3.188-6.934
		c-1.058-2.051-2.25-4.004-3.48-5.957c-1.172-1.904-2.438-3.711-3.729-5.469c-0.877-1.221-1.836-2.393-2.821-3.516
		c-1.3-1.514-2.621-2.979-4.003-4.395c-1.403-1.465-2.861-2.881-4.355-4.199c-1.364-1.221-2.786-2.441-4.226-3.564
		c-1.128-0.928-2.293-1.758-3.488-2.588c-1.759-1.172-3.527-2.344-5.348-3.418c-2.528-1.514-5.147-2.881-7.832-4.102
		c-3.101-1.367-6.267-2.637-9.525-3.613c-2.259-0.635-4.553-1.221-6.845-1.758c-1.491-0.391-3.005-0.635-4.512-0.928
		C346.975,0.928,346.268,0.879,345.508,0.781z M178.29,0.781c0-0.195-0.002-0.342,0.001-0.488c0.001-0.098,0.013-0.195,0.021-0.293
		c19.868,0,39.719,0,59.615,0c0,4.004,0,8.008,0,12.012c8.066,0,16.088,0,24.156,0c0-4.004,0-8.008,0-12.012
		c19.893,0,39.743,0,59.622,0c0,0.244,0,0.537,0,0.732c-1.853,0.342-3.688,0.635-5.506,1.025c-1.923,0.391-3.843,0.83-5.734,1.367
		c-1.858,0.488-3.697,1.074-5.513,1.758c-1.826,0.635-3.629,1.367-5.41,2.148c-1.587,0.684-3.164,1.416-4.686,2.246
		c-2.105,1.123-4.195,2.295-6.221,3.564c-1.865,1.172-3.673,2.441-5.458,3.76c-1.214,0.879-2.368,1.807-3.504,2.783
		c-1.46,1.27-2.893,2.588-4.298,3.906c-1.122,1.074-2.227,2.148-3.259,3.271c-1.302,1.416-2.543,2.93-3.776,4.395
		c-2.409,2.93-4.574,6.006-6.466,9.277c-1.288,2.246-2.565,4.492-3.674,6.787c-1.152,2.441-2.144,4.932-3.112,7.422
		c-1.205,3.125-2.126,6.299-2.859,9.57c-0.395,1.758-0.699,3.516-1.043,5.322c-0.065,0.342-0.117,0.684-0.163,1.025
		c-0.031,0.244-0.136,0.342-0.398,0.342c-0.415,0-0.83,0-1.242,0c-0.252,0-0.344-0.098-0.376-0.342
		c-0.522-3.662-1.288-7.275-2.394-10.791c-0.853-2.734-1.756-5.42-2.812-8.057c-0.932-2.344-2.028-4.639-3.188-6.934
		c-1.059-2.051-2.25-4.004-3.481-5.957c-1.171-1.904-2.438-3.711-3.73-5.469c-0.876-1.221-1.835-2.393-2.821-3.516
		c-1.299-1.514-2.621-2.979-4.003-4.395c-1.403-1.465-2.86-2.881-4.355-4.199c-1.365-1.221-2.786-2.441-4.225-3.564
		c-1.128-0.928-2.293-1.758-3.488-2.588c-1.759-1.172-3.528-2.344-5.348-3.418c-2.528-1.514-5.147-2.881-7.832-4.102
		c-3.1-1.367-6.267-2.637-9.525-3.613c-2.259-0.635-4.553-1.221-6.845-1.758c-1.491-0.391-3.004-0.635-4.511-0.928
		C179.756,0.928,179.049,0.879,178.29,0.781z M11.071,0.781c0-0.195-0.002-0.342,0.001-0.488C11.074,0.195,11.085,0.098,11.093,0
		c19.868,0,39.719,0,59.614,0c0,4.004,0,8.008,0,12.012c8.066,0,16.088,0,24.156,0c0-4.004,0-8.008,0-12.012
		c19.893,0,39.744,0,59.623,0c0,0.244,0,0.537,0,0.732c-1.853,0.342-3.688,0.635-5.506,1.025c-1.923,0.391-3.842,0.83-5.734,1.367
		c-1.858,0.488-3.697,1.074-5.513,1.758c-1.826,0.635-3.628,1.367-5.41,2.148c-1.587,0.684-3.164,1.416-4.685,2.246
		c-2.105,1.123-4.195,2.295-6.221,3.564c-1.866,1.172-3.673,2.441-5.458,3.76c-1.214,0.879-2.368,1.807-3.504,2.783
		c-1.46,1.27-2.893,2.588-4.298,3.906c-1.122,1.074-2.227,2.148-3.258,3.271c-1.302,1.416-2.543,2.93-3.777,4.395
		c-2.408,2.93-4.573,6.006-6.465,9.277c-1.288,2.246-2.565,4.492-3.674,6.787c-1.152,2.441-2.143,4.932-3.112,7.422
		c-1.205,3.125-2.126,6.299-2.859,9.57c-0.395,1.758-0.699,3.516-1.042,5.322c-0.065,0.342-0.117,0.684-0.164,1.025
		c-0.031,0.244-0.136,0.342-0.398,0.342c-0.415,0-0.83,0-1.242,0c-0.251,0-0.344-0.098-0.376-0.342
		c-0.521-3.662-1.288-7.275-2.394-10.791c-0.853-2.734-1.756-5.42-2.812-8.057c-0.933-2.344-2.028-4.639-3.188-6.934
		c-1.058-2.051-2.25-4.004-3.48-5.957c-1.171-1.904-2.438-3.711-3.73-5.469c-0.877-1.221-1.836-2.393-2.821-3.516
		c-1.299-1.514-2.621-2.979-4.003-4.395c-1.403-1.465-2.861-2.881-4.355-4.199c-1.364-1.221-2.786-2.441-4.225-3.564
		c-1.128-0.928-2.293-1.758-3.488-2.588c-1.758-1.172-3.527-2.344-5.348-3.418c-2.528-1.514-5.147-2.881-7.833-4.102
		c-3.1-1.367-6.267-2.637-9.525-3.613c-2.259-0.635-4.553-1.221-6.845-1.758c-1.491-0.391-3.004-0.635-4.511-0.928
		C12.538,0.928,11.83,0.879,11.071,0.781z M429.324,429.346c15.667,2.686,29.015,9.766,39.939,21.24
		c9.998,10.498,16.196,22.998,18.729,37.402c-11.922-2.051-22.636-6.738-32.063-14.16
		C441.438,462.402,432.609,447.51,429.324,429.346z M262.105,429.346c15.667,2.686,29.015,9.766,39.939,21.24
		c9.999,10.498,16.196,22.998,18.729,37.402c-11.922-2.051-22.636-6.738-32.063-14.16
		C274.22,462.402,265.391,447.51,262.105,429.346z M94.887,429.346c15.667,2.686,29.014,9.766,39.939,21.24
		c9.999,10.498,16.196,22.998,18.729,37.402c-11.921-2.051-22.635-6.738-32.063-14.16C107.001,462.402,98.172,447.51,94.887,429.346
		z M429.324,262.109c15.667,2.734,29.015,9.814,39.939,21.24c9.998,10.547,16.196,22.998,18.729,37.402
		c-11.922-2.051-22.636-6.689-32.063-14.16C441.438,295.166,432.609,280.273,429.324,262.109z M262.105,262.109
		c15.667,2.734,29.015,9.814,39.939,21.24c9.999,10.547,16.196,22.998,18.729,37.402c-11.922-2.051-22.636-6.689-32.063-14.16
		C274.22,295.166,265.391,280.273,262.105,262.109z M94.887,262.109c15.667,2.734,29.014,9.814,39.939,21.24
		c9.999,10.547,16.196,22.998,18.729,37.402c-11.921-2.051-22.635-6.689-32.063-14.16
		C107.001,295.166,98.172,280.273,94.887,262.109z M429.324,94.873c15.667,2.734,29.015,9.814,39.939,21.289
		c9.998,10.498,16.196,22.998,18.729,37.354c-11.922-2.051-22.636-6.689-32.063-14.111
		C441.438,127.979,432.609,113.086,429.324,94.873z M262.105,94.873c15.667,2.734,29.015,9.814,39.939,21.289
		c9.999,10.498,16.196,22.998,18.729,37.354c-11.922-2.051-22.636-6.689-32.063-14.111
		C274.22,127.979,265.391,113.086,262.105,94.873z M94.887,94.873c15.667,2.734,29.014,9.814,39.939,21.289
		c9.999,10.498,16.196,22.998,18.729,37.354c-11.921-2.051-22.635-6.689-32.063-14.111
		C107.001,127.979,98.172,113.086,94.887,94.873z M405.181,405.176c-13.213-2.344-24.866-7.764-34.905-16.504
		c-12.876-11.23-20.749-25.293-23.829-42.188c4.271,0.684,8.356,1.758,12.33,3.174c15.142,5.566,27.145,15.137,35.964,28.613
		C400.086,386.475,403.523,395.41,405.181,405.176z M237.962,405.176c-13.213-2.344-24.867-7.764-34.906-16.504
		c-12.876-11.23-20.749-25.293-23.829-42.188c4.271,0.684,8.356,1.758,12.33,3.174c15.142,5.566,27.144,15.137,35.964,28.613
		C232.867,386.475,236.305,395.41,237.962,405.176z M70.744,405.176c-13.213-2.344-24.867-7.764-34.906-16.504
		c-12.876-11.23-20.749-25.293-23.829-42.188c4.271,0.684,8.356,1.758,12.33,3.174c15.142,5.566,27.144,15.137,35.964,28.613
		C65.648,386.475,69.086,395.41,70.744,405.176z M405.181,237.939c-13.213-2.295-24.866-7.715-34.905-16.504
		c-12.876-11.182-20.749-25.293-23.829-42.188c4.271,0.684,8.356,1.758,12.33,3.223c15.142,5.566,27.145,15.137,35.964,28.613
		C400.086,219.238,403.523,228.223,405.181,237.939z M237.962,237.939c-13.213-2.295-24.867-7.715-34.906-16.504
		c-12.876-11.182-20.749-25.293-23.829-42.188c4.271,0.684,8.356,1.758,12.33,3.223c15.142,5.566,27.144,15.137,35.964,28.613
		C232.867,219.238,236.305,228.223,237.962,237.939z M70.744,237.939c-13.213-2.295-24.867-7.715-34.906-16.504
		c-12.876-11.182-20.749-25.293-23.829-42.188c4.271,0.684,8.356,1.758,12.33,3.223c15.142,5.566,27.144,15.137,35.964,28.613
		C65.648,219.238,69.086,228.223,70.744,237.939z M405.181,70.752c-13.213-2.344-24.866-7.764-34.905-16.504
		c-12.876-11.23-20.749-25.342-23.829-42.236c4.271,0.732,8.356,1.758,12.33,3.223c15.142,5.566,27.145,15.137,35.964,28.613
		C400.086,52.051,403.523,60.986,405.181,70.752z M237.962,70.752c-13.213-2.344-24.867-7.764-34.906-16.504
		c-12.876-11.23-20.749-25.342-23.829-42.236c4.271,0.732,8.356,1.758,12.33,3.223c15.142,5.566,27.144,15.137,35.964,28.613
		C232.867,52.051,236.305,60.986,237.962,70.752z M70.744,70.752c-13.213-2.344-24.867-7.764-34.906-16.504
		c-12.876-11.23-20.749-25.342-23.829-42.236c4.271,0.732,8.356,1.758,12.33,3.223c15.142,5.566,27.144,15.137,35.964,28.613
		C65.648,52.051,69.086,60.986,70.744,70.752z M346.46,487.988c2.325-13.232,7.745-24.854,16.479-34.912
		c11.222-12.891,25.322-20.752,42.247-23.828c-2.051,11.914-6.69,22.607-14.112,32.031
		C379.639,475.781,364.747,484.619,346.46,487.988z M179.242,487.988c2.325-13.232,7.745-24.854,16.478-34.912
		c11.222-12.891,25.322-20.752,42.248-23.828c-2.051,11.914-6.69,22.607-14.113,32.031
		C212.42,475.781,197.528,484.619,179.242,487.988z M12.023,487.988c2.324-13.232,7.745-24.854,16.478-34.912
		c11.222-12.891,25.322-20.752,42.248-23.828c-2.051,11.914-6.691,22.607-14.113,32.031
		C45.202,475.781,30.31,484.619,12.023,487.988z M346.46,320.801c2.325-13.232,7.745-24.902,16.479-34.912
		c11.222-12.891,25.322-20.801,42.247-23.877c-2.051,11.914-6.69,22.656-14.112,32.031
		C379.639,308.594,364.747,317.432,346.46,320.801z M179.242,320.801c2.325-13.232,7.745-24.902,16.478-34.912
		c11.222-12.891,25.322-20.801,42.248-23.877c-2.051,11.914-6.69,22.656-14.113,32.031
		C212.42,308.594,197.528,317.432,179.242,320.801z M12.023,320.801c2.324-13.232,7.745-24.902,16.478-34.912
		c11.222-12.891,25.322-20.801,42.248-23.877c-2.051,11.914-6.691,22.656-14.113,32.031
		C45.202,308.594,30.31,317.432,12.023,320.801z M346.46,153.564c2.325-13.232,7.745-24.854,16.479-34.912
		c11.222-12.891,25.322-20.752,42.247-23.877c-2.051,11.963-6.69,22.656-14.112,32.08
		C379.639,141.357,364.747,150.195,346.46,153.564z M179.242,153.564c2.325-13.232,7.745-24.854,16.478-34.912
		c11.222-12.891,25.322-20.752,42.248-23.877c-2.051,11.963-6.69,22.656-14.113,32.08
		C212.42,141.357,197.528,150.195,179.242,153.564z M12.023,153.564c2.324-13.232,7.745-24.854,16.478-34.912
		C39.723,105.762,53.823,97.9,70.749,94.775c-2.051,11.963-6.691,22.656-14.113,32.08C45.202,141.357,30.31,150.195,12.023,153.564z
		 M487.98,346.484c-1.288,7.568-3.677,14.648-7.229,21.387c-5.836,10.986-13.986,19.922-24.411,26.709
		c-8.244,5.42-17.249,8.887-27.053,10.596c0.694-4.248,1.752-8.35,3.212-12.305c5.566-15.137,15.123-27.148,28.614-35.986
		C469.291,351.562,478.253,348.145,487.98,346.484z M320.762,346.484c-1.288,7.568-3.677,14.648-7.229,21.387
		c-5.836,10.986-13.985,19.922-24.411,26.709c-8.244,5.42-17.249,8.887-27.053,10.596c0.694-4.248,1.752-8.35,3.212-12.305
		c5.566-15.137,15.123-27.148,28.614-35.986C302.073,351.562,311.034,348.145,320.762,346.484z M153.543,346.484
		c-1.288,7.568-3.676,14.648-7.229,21.387c-5.836,10.986-13.986,19.922-24.411,26.709c-8.244,5.42-17.249,8.887-27.052,10.596
		c0.694-4.248,1.752-8.35,3.212-12.305c5.566-15.137,15.123-27.148,28.614-35.986C134.854,351.562,143.816,348.145,153.543,346.484z
		 M487.98,179.248c-1.288,7.568-3.677,14.697-7.229,21.387c-5.836,10.986-13.986,19.922-24.411,26.758
		c-8.244,5.371-17.249,8.887-27.053,10.547c0.694-4.248,1.752-8.301,3.212-12.305c5.566-15.137,15.123-27.148,28.614-35.938
		C469.291,184.326,478.253,180.908,487.98,179.248z M320.762,179.248c-1.288,7.568-3.677,14.697-7.229,21.387
		c-5.836,10.986-13.985,19.922-24.411,26.758c-8.244,5.371-17.249,8.887-27.053,10.547c0.694-4.248,1.752-8.301,3.212-12.305
		c5.566-15.137,15.123-27.148,28.614-35.938C302.073,184.326,311.034,180.908,320.762,179.248z M153.543,179.248
		c-1.288,7.568-3.676,14.697-7.229,21.387c-5.836,10.986-13.986,19.922-24.411,26.758c-8.244,5.371-17.249,8.887-27.052,10.547
		c0.694-4.248,1.752-8.301,3.212-12.305c5.566-15.137,15.123-27.148,28.614-35.938C134.854,184.326,143.816,180.908,153.543,179.248
		z M487.98,12.012c-1.288,7.568-3.677,14.697-7.229,21.387c-5.836,11.035-13.986,19.971-24.411,26.758
		c-8.244,5.371-17.249,8.887-27.053,10.547c0.694-4.199,1.752-8.301,3.212-12.256c5.566-15.186,15.123-27.148,28.614-35.986
		C469.291,17.139,478.253,13.672,487.98,12.012z M320.762,12.012c-1.288,7.568-3.677,14.697-7.229,21.387
		c-5.836,11.035-13.985,19.971-24.411,26.758c-8.244,5.371-17.249,8.887-27.053,10.547c0.694-4.199,1.752-8.301,3.212-12.256
		c5.566-15.186,15.123-27.148,28.614-35.986C302.073,17.139,311.034,13.672,320.762,12.012z M153.543,12.012
		c-1.288,7.568-3.676,14.697-7.229,21.387c-5.836,11.035-13.986,19.971-24.411,26.758c-8.244,5.371-17.249,8.887-27.052,10.547
		c0.694-4.199,1.752-8.301,3.212-12.256c5.566-15.186,15.123-27.148,28.614-35.986C134.854,17.139,143.816,13.672,153.543,12.012z"></path>
</g>
</svg>