<svg version="1.1" id="Layer_1" xmlns="http://www.w3.org/2000/svg" xmlns:xlink="http://www.w3.org/1999/xlink" x="0px" y="0px" width="500px" height="500px" viewBox="0 0 500 500" enable-background="new 0 0 500 500" xml:space="preserve">
<g id="C">
	<path class="paintable" fill="#D1D3D4" d="M500,500H334.438V334.438H500V500z M332.781,500H167.219V334.438h165.562V500z M165.563,500H0V334.438
		h165.563V500z M500,332.781H334.438V167.219H500V332.781z M332.781,332.781H167.219V167.219h165.562V332.781z M165.563,332.781H0
		V167.219h165.563V332.781z M500,165.563H334.438V0H500V165.563z M332.781,165.563H167.219V0h165.562V165.563z M165.563,165.563H0V0
		h165.563V165.563z"></path>
</g>
<g id="B">
	<path class="paintable" fill="#939598" d="M338.41,334.438c25.056,0,50.111,0,75.166,0c-2.386,0.526-4.697,1.053-6.954,1.655
		c-2.267,0.605-4.602,1.068-6.622,1.986c-2.383,1.084-5.217,3.373-7.285,4.305c-0.104,0.048-0.213,0.58-0.331,0.662
		c-2.032,1.409-3.393,2.611-4.967,4.305c-1.349,1.452-2.925,3.044-3.643,4.636c-0.049,0.11-0.581,0.205-0.662,0.332
		c-0.224,0.347-0.448,0.997-0.662,1.324c-3.519,5.384-5.676,11.771-6.622,19.205c-0.617-7.062-2.906-13.293-5.63-17.881
		c-0.366-0.618-0.77-0.974-0.993-1.324c-0.286-0.449-0.38-1.25-0.662-1.656c-0.097-0.139-0.538-0.197-0.662-0.331
		c-0.242-0.261-0.104-0.695-0.331-0.993c-0.114-0.149-0.527-0.187-0.662-0.331c-0.232-0.249-0.104-0.725-0.331-0.993
		c-0.854-1.011-2.295-2.278-2.98-2.98c-0.712-0.729-1.258-0.998-1.986-1.655c-0.709-0.639-1.529-1.729-2.318-2.318
		c-0.372-0.277-1.258-0.408-1.655-0.662c-0.144-0.091-0.181-0.55-0.331-0.662c-0.251-0.188-0.768-0.195-0.994-0.331
		c-1.469-0.884-3.421-2.092-4.636-2.649c-2.1-0.962-5.057-1.833-6.953-2.317C342.786,335.272,339.703,334.97,338.41,334.438z
		 M171.192,334.438c25.056,0,50.111,0,75.166,0c-2.385,0.526-4.697,1.053-6.954,1.655c-2.267,0.605-4.602,1.068-6.623,1.986
		c-2.383,1.084-5.217,3.373-7.285,4.305c-0.104,0.048-0.213,0.58-0.331,0.662c-2.033,1.409-3.393,2.611-4.967,4.305
		c-1.349,1.452-2.925,3.044-3.643,4.636c-0.049,0.11-0.581,0.205-0.662,0.332c-0.224,0.347-0.448,0.997-0.662,1.324
		c-3.519,5.384-5.676,11.771-6.623,19.205c-0.617-7.062-2.907-13.293-5.629-17.881c-0.367-0.618-0.77-0.974-0.993-1.324
		c-0.287-0.449-0.38-1.25-0.662-1.656c-0.097-0.139-0.538-0.197-0.663-0.331c-0.242-0.261-0.104-0.695-0.331-0.993
		c-0.114-0.149-0.527-0.187-0.662-0.331c-0.232-0.249-0.104-0.725-0.331-0.993c-0.854-1.011-2.295-2.278-2.98-2.98
		c-0.712-0.729-1.258-0.998-1.986-1.655c-0.708-0.639-1.529-1.729-2.318-2.318c-0.372-0.277-1.258-0.408-1.655-0.662
		c-0.144-0.091-0.181-0.55-0.331-0.662c-0.251-0.188-0.768-0.195-0.994-0.331c-1.469-0.884-3.421-2.092-4.636-2.649
		c-2.1-0.962-5.057-1.833-6.954-2.317C175.567,335.272,172.484,334.97,171.192,334.438z M3.974,334.438c25.055,0,50.11,0,75.166,0
		c-2.386,0.526-4.697,1.053-6.954,1.655c-2.267,0.605-4.602,1.068-6.623,1.986c-2.383,1.084-5.217,3.373-7.285,4.305
		c-0.105,0.048-0.213,0.58-0.332,0.662c-2.033,1.409-3.393,2.611-4.967,4.305c-1.349,1.452-2.925,3.044-3.642,4.636
		c-0.049,0.11-0.581,0.205-0.663,0.332c-0.224,0.347-0.448,0.997-0.662,1.324c-3.519,5.384-5.676,11.771-6.623,19.205
		c-0.617-7.062-2.906-13.293-5.629-17.881c-0.367-0.618-0.77-0.974-0.994-1.324c-0.286-0.449-0.38-1.25-0.662-1.656
		c-0.097-0.139-0.538-0.197-0.662-0.331c-0.243-0.261-0.104-0.695-0.331-0.993c-0.114-0.149-0.528-0.187-0.663-0.331
		c-0.232-0.249-0.104-0.725-0.331-0.993c-0.854-1.011-2.295-2.278-2.98-2.98c-0.712-0.729-1.258-0.998-1.987-1.655
		c-0.708-0.639-1.529-1.729-2.318-2.318c-0.373-0.277-1.258-0.408-1.656-0.662c-0.144-0.091-0.181-0.55-0.331-0.662
		c-0.25-0.188-0.768-0.195-0.993-0.331c-1.469-0.884-3.421-2.092-4.636-2.649c-2.1-0.962-5.057-1.833-6.954-2.317
		C8.349,335.272,5.266,334.97,3.974,334.438z M338.41,167.219c25.056,0,50.111,0,75.166,0c-2.386,0.526-4.697,1.053-6.954,1.655
		c-2.267,0.606-4.602,1.068-6.622,1.987c-2.383,1.083-5.217,3.373-7.285,4.305c-0.104,0.047-0.213,0.58-0.331,0.662
		c-2.032,1.409-3.393,2.611-4.967,4.305c-1.349,1.452-2.925,3.043-3.643,4.636c-0.049,0.11-0.581,0.205-0.662,0.331
		c-0.224,0.348-0.448,0.998-0.662,1.325c-3.519,5.384-5.676,11.771-6.622,19.205c-0.617-7.062-2.906-13.292-5.63-17.88
		c-0.366-0.619-0.77-0.974-0.993-1.325c-0.286-0.449-0.38-1.25-0.662-1.656c-0.097-0.139-0.538-0.197-0.662-0.331
		c-0.242-0.261-0.104-0.696-0.331-0.993c-0.114-0.15-0.527-0.187-0.662-0.331c-0.232-0.25-0.104-0.725-0.331-0.994
		c-0.854-1.01-2.295-2.278-2.98-2.98c-0.712-0.729-1.258-0.998-1.986-1.656c-0.709-0.639-1.529-1.729-2.318-2.318
		c-0.372-0.278-1.258-0.409-1.655-0.662c-0.144-0.091-0.181-0.55-0.331-0.663c-0.251-0.188-0.768-0.195-0.994-0.331
		c-1.469-0.883-3.421-2.092-4.636-2.649c-2.1-0.962-5.057-1.833-6.953-2.318C342.786,168.054,339.703,167.751,338.41,167.219z
		 M171.192,167.219c25.056,0,50.111,0,75.166,0c-2.385,0.526-4.697,1.053-6.954,1.655c-2.267,0.606-4.602,1.068-6.623,1.987
		c-2.383,1.083-5.217,3.373-7.285,4.305c-0.104,0.047-0.213,0.58-0.331,0.662c-2.033,1.409-3.393,2.611-4.967,4.305
		c-1.349,1.452-2.925,3.043-3.643,4.636c-0.049,0.11-0.581,0.205-0.662,0.331c-0.224,0.348-0.448,0.998-0.662,1.325
		c-3.519,5.384-5.676,11.771-6.623,19.205c-0.617-7.062-2.907-13.292-5.629-17.88c-0.367-0.619-0.77-0.974-0.993-1.325
		c-0.287-0.449-0.38-1.25-0.662-1.656c-0.097-0.139-0.538-0.197-0.663-0.331c-0.242-0.261-0.104-0.696-0.331-0.993
		c-0.114-0.15-0.527-0.187-0.662-0.331c-0.232-0.25-0.104-0.725-0.331-0.994c-0.854-1.01-2.295-2.278-2.98-2.98
		c-0.712-0.729-1.258-0.998-1.986-1.656c-0.708-0.639-1.529-1.729-2.318-2.318c-0.372-0.278-1.258-0.409-1.655-0.662
		c-0.144-0.091-0.181-0.55-0.331-0.663c-0.251-0.188-0.768-0.195-0.994-0.331c-1.469-0.883-3.421-2.092-4.636-2.649
		c-2.1-0.962-5.057-1.833-6.954-2.318C175.567,168.054,172.484,167.751,171.192,167.219z M3.974,167.219c25.055,0,50.11,0,75.166,0
		c-2.386,0.526-4.697,1.053-6.954,1.655c-2.267,0.606-4.602,1.068-6.623,1.987c-2.383,1.083-5.217,3.373-7.285,4.305
		c-0.105,0.047-0.213,0.58-0.332,0.662c-2.033,1.409-3.393,2.611-4.967,4.305c-1.349,1.452-2.925,3.043-3.642,4.636
		c-0.049,0.11-0.581,0.205-0.663,0.331c-0.224,0.348-0.448,0.998-0.662,1.325c-3.519,5.384-5.676,11.771-6.623,19.205
		c-0.617-7.062-2.906-13.292-5.629-17.88c-0.367-0.619-0.77-0.974-0.994-1.325c-0.286-0.449-0.38-1.25-0.662-1.656
		c-0.097-0.139-0.538-0.197-0.662-0.331c-0.243-0.261-0.104-0.696-0.331-0.993c-0.114-0.15-0.528-0.187-0.663-0.331
		c-0.232-0.25-0.104-0.725-0.331-0.994c-0.854-1.01-2.295-2.278-2.98-2.98c-0.712-0.729-1.258-0.998-1.987-1.656
		c-0.708-0.639-1.529-1.729-2.318-2.318c-0.373-0.278-1.258-0.409-1.656-0.662c-0.144-0.091-0.181-0.55-0.331-0.663
		c-0.25-0.188-0.768-0.195-0.993-0.331c-1.469-0.883-3.421-2.092-4.636-2.649c-2.1-0.962-5.057-1.833-6.954-2.318
		C8.349,168.054,5.266,167.751,3.974,167.219z M338.41,0c25.056,0,50.111,0,75.166,0c-2.386,0.527-4.697,1.053-6.954,1.656
		c-2.267,0.606-4.602,1.068-6.622,1.987c-2.383,1.083-5.217,3.373-7.285,4.304c-0.104,0.048-0.213,0.581-0.331,0.663
		c-2.032,1.409-3.393,2.61-4.967,4.305c-1.349,1.452-2.925,3.043-3.643,4.636c-0.049,0.109-0.581,0.205-0.662,0.331
		c-0.224,0.348-0.448,0.998-0.662,1.324c-3.519,5.384-5.676,11.771-6.622,19.206c-0.617-7.062-2.906-13.293-5.63-17.881
		c-0.366-0.619-0.77-0.973-0.993-1.325c-0.286-0.449-0.38-1.25-0.662-1.655c-0.097-0.139-0.538-0.198-0.662-0.331
		c-0.242-0.261-0.104-0.696-0.331-0.994c-0.114-0.149-0.527-0.186-0.662-0.331c-0.232-0.25-0.104-0.724-0.331-0.993
		c-0.854-1.011-2.295-2.278-2.98-2.98c-0.712-0.729-1.258-0.998-1.986-1.655c-0.709-0.639-1.529-1.729-2.318-2.318
		c-0.372-0.278-1.258-0.409-1.655-0.662c-0.144-0.091-0.181-0.55-0.331-0.662c-0.251-0.188-0.768-0.195-0.994-0.331
		c-1.469-0.884-3.421-2.092-4.636-2.649c-2.1-0.963-5.057-1.833-6.953-2.318C342.786,0.835,339.703,0.533,338.41,0z M171.192,0
		c25.056,0,50.111,0,75.166,0c-2.385,0.527-4.697,1.053-6.954,1.656c-2.267,0.606-4.602,1.068-6.623,1.987
		c-2.383,1.083-5.217,3.373-7.285,4.304c-0.104,0.048-0.213,0.581-0.331,0.663c-2.033,1.409-3.393,2.61-4.967,4.305
		c-1.349,1.452-2.925,3.043-3.643,4.636c-0.049,0.109-0.581,0.205-0.662,0.331c-0.224,0.348-0.448,0.998-0.662,1.324
		c-3.519,5.384-5.676,11.771-6.623,19.206c-0.617-7.062-2.907-13.293-5.629-17.881c-0.367-0.619-0.77-0.973-0.993-1.325
		c-0.287-0.449-0.38-1.25-0.662-1.655c-0.097-0.139-0.538-0.198-0.663-0.331c-0.242-0.261-0.104-0.696-0.331-0.994
		c-0.114-0.149-0.527-0.186-0.662-0.331c-0.232-0.25-0.104-0.724-0.331-0.993c-0.854-1.011-2.295-2.278-2.98-2.98
		c-0.712-0.729-1.258-0.998-1.986-1.655c-0.708-0.639-1.529-1.729-2.318-2.318c-0.372-0.278-1.258-0.409-1.655-0.662
		c-0.144-0.091-0.181-0.55-0.331-0.662c-0.251-0.188-0.768-0.195-0.994-0.331c-1.469-0.884-3.421-2.092-4.636-2.649
		c-2.1-0.963-5.057-1.833-6.954-2.318C175.567,0.835,172.484,0.533,171.192,0z M3.974,0c25.055,0,50.11,0,75.166,0
		c-2.386,0.527-4.697,1.053-6.954,1.656c-2.267,0.606-4.602,1.068-6.623,1.987c-2.383,1.083-5.217,3.373-7.285,4.304
		c-0.105,0.048-0.213,0.581-0.332,0.663c-2.033,1.409-3.393,2.61-4.967,4.305c-1.349,1.452-2.925,3.043-3.642,4.636
		c-0.049,0.109-0.581,0.205-0.663,0.331c-0.224,0.348-0.448,0.998-0.662,1.324c-3.519,5.384-5.676,11.771-6.623,19.206
		c-0.617-7.062-2.906-13.293-5.629-17.881c-0.367-0.619-0.77-0.973-0.994-1.325c-0.286-0.449-0.38-1.25-0.662-1.655
		c-0.097-0.139-0.538-0.198-0.662-0.331c-0.243-0.261-0.104-0.696-0.331-0.994c-0.114-0.149-0.528-0.186-0.663-0.331
		c-0.232-0.25-0.104-0.724-0.331-0.993c-0.854-1.011-2.295-2.278-2.98-2.98c-0.712-0.729-1.258-0.998-1.987-1.655
		c-0.708-0.639-1.529-1.729-2.318-2.318c-0.373-0.278-1.258-0.409-1.656-0.662c-0.144-0.091-0.181-0.55-0.331-0.662
		c-0.25-0.188-0.768-0.195-0.993-0.331c-1.469-0.884-3.421-2.092-4.636-2.649c-2.1-0.963-5.057-1.833-6.954-2.318
		C8.349,0.835,5.266,0.533,3.974,0z M427.483,335.762c1.895,0.484,4.938,1.395,6.954,2.317c1.237,0.567,3.271,1.786,4.636,2.649
		c0.936,0.592,1.682,1.27,2.648,1.986c0.305,0.227,0.73,0.086,0.993,0.331c0.146,0.136,0.182,0.549,0.331,0.663
		c0.298,0.227,0.732,0.088,0.994,0.331c1.098,1.021,3.542,3.318,4.636,4.967c0.058,0.088,0.229,0.543,0.331,0.662
		c0.68,0.804,1.696,1.441,2.317,2.317c0.282,0.397,0.378,1.209,0.662,1.656c0.228,0.355,0.63,0.696,0.994,1.324
		c2.677,4.618,4.98,10.754,5.629,17.881c1.366-11.17,5.718-19.736,11.92-26.159c3.054-3.161,7.079-5.914,11.259-7.946
		c4.378-2.13,9.178-3.284,14.569-4.305c-24.944,0-49.89,0-74.834,0C423.473,335.196,425.247,335.189,427.483,335.762z
		 M260.265,335.762c1.896,0.484,4.939,1.395,6.954,2.317c1.237,0.567,3.271,1.786,4.636,2.649c0.936,0.592,1.682,1.27,2.648,1.986
		c0.305,0.227,0.73,0.086,0.994,0.331c0.145,0.136,0.182,0.549,0.331,0.663c0.298,0.227,0.732,0.088,0.993,0.331
		c1.098,1.021,3.543,3.318,4.636,4.967c0.059,0.088,0.23,0.543,0.331,0.662c0.68,0.804,1.696,1.441,2.317,2.317
		c0.282,0.397,0.378,1.209,0.663,1.656c0.227,0.355,0.629,0.696,0.993,1.324c2.678,4.618,4.981,10.754,5.629,17.881
		c1.366-11.17,5.718-19.736,11.921-26.159c3.053-3.161,7.078-5.914,11.258-7.946c4.378-2.13,9.178-3.284,14.569-4.305
		c-24.944,0-49.89,0-74.834,0C256.254,335.196,258.028,335.189,260.265,335.762z M93.046,335.762
		c1.895,0.484,4.939,1.395,6.954,2.317c1.238,0.567,3.272,1.786,4.636,2.649c0.936,0.592,1.682,1.27,2.649,1.986
		c0.304,0.227,0.73,0.086,0.994,0.331c0.145,0.136,0.182,0.549,0.331,0.663c0.298,0.227,0.732,0.088,0.993,0.331
		c1.098,1.021,3.543,3.318,4.636,4.967c0.058,0.088,0.23,0.543,0.331,0.662c0.68,0.804,1.697,1.441,2.318,2.317
		c0.282,0.397,0.377,1.209,0.663,1.656c0.227,0.355,0.629,0.696,0.993,1.324c2.678,4.618,4.981,10.754,5.629,17.881
		c1.366-11.17,5.717-19.736,11.92-26.159c3.053-3.161,7.079-5.914,11.258-7.946c4.378-2.13,9.178-3.284,14.569-4.305
		c-24.944,0-49.89,0-74.834,0C89.035,335.196,90.81,335.189,93.046,335.762z M427.483,168.543c1.895,0.484,4.938,1.395,6.954,2.318
		c1.237,0.567,3.271,1.786,4.636,2.649c0.936,0.592,1.682,1.27,2.648,1.987c0.305,0.226,0.73,0.086,0.993,0.331
		c0.146,0.135,0.182,0.549,0.331,0.663c0.298,0.227,0.732,0.088,0.994,0.331c1.098,1.021,3.542,3.319,4.636,4.967
		c0.058,0.088,0.229,0.543,0.331,0.662c0.68,0.804,1.696,1.442,2.317,2.318c0.282,0.397,0.378,1.209,0.662,1.656
		c0.228,0.355,0.63,0.696,0.994,1.325c2.677,4.618,4.98,10.753,5.629,17.88c1.366-11.17,5.718-19.736,11.92-26.159
		c3.054-3.161,7.079-5.915,11.259-7.947c4.378-2.129,9.178-3.283,14.569-4.304c-24.944,0-49.89,0-74.834,0
		C423.473,167.978,425.247,167.971,427.483,168.543z M260.265,168.543c1.896,0.484,4.939,1.395,6.954,2.318
		c1.237,0.567,3.271,1.786,4.636,2.649c0.936,0.592,1.682,1.27,2.648,1.987c0.305,0.226,0.73,0.086,0.994,0.331
		c0.145,0.135,0.182,0.549,0.331,0.663c0.298,0.227,0.732,0.088,0.993,0.331c1.098,1.021,3.543,3.319,4.636,4.967
		c0.059,0.088,0.23,0.543,0.331,0.662c0.68,0.804,1.696,1.442,2.317,2.318c0.282,0.397,0.378,1.209,0.663,1.656
		c0.227,0.355,0.629,0.696,0.993,1.325c2.678,4.618,4.981,10.753,5.629,17.88c1.366-11.17,5.718-19.736,11.921-26.159
		c3.053-3.161,7.078-5.915,11.258-7.947c4.378-2.129,9.178-3.283,14.569-4.304c-24.944,0-49.89,0-74.834,0
		C256.254,167.978,258.028,167.971,260.265,168.543z M93.046,168.543c1.895,0.484,4.939,1.395,6.954,2.318
		c1.238,0.567,3.272,1.786,4.636,2.649c0.936,0.592,1.682,1.27,2.649,1.987c0.304,0.226,0.73,0.086,0.994,0.331
		c0.145,0.135,0.182,0.549,0.331,0.663c0.298,0.227,0.732,0.088,0.993,0.331c1.098,1.021,3.543,3.319,4.636,4.967
		c0.058,0.088,0.23,0.543,0.331,0.662c0.68,0.804,1.697,1.442,2.318,2.318c0.282,0.397,0.377,1.209,0.663,1.656
		c0.227,0.355,0.629,0.696,0.993,1.325c2.678,4.618,4.981,10.753,5.629,17.88c1.366-11.17,5.717-19.736,11.92-26.159
		c3.053-3.161,7.079-5.915,11.258-7.947c4.378-2.129,9.178-3.283,14.569-4.304c-24.944,0-49.89,0-74.834,0
		C89.035,167.978,90.81,167.971,93.046,168.543z M427.483,1.325c1.895,0.484,4.938,1.394,6.954,2.318
		c1.237,0.567,3.271,1.786,4.636,2.649c0.936,0.592,1.682,1.269,2.648,1.987c0.305,0.226,0.73,0.086,0.993,0.331
		c0.146,0.135,0.182,0.548,0.331,0.662c0.298,0.227,0.732,0.088,0.994,0.331c1.098,1.022,3.542,3.319,4.636,4.967
		c0.058,0.088,0.229,0.543,0.331,0.663c0.68,0.804,1.696,1.441,2.317,2.318c0.282,0.397,0.378,1.208,0.662,1.655
		c0.228,0.356,0.63,0.697,0.994,1.325c2.677,4.618,4.98,10.754,5.629,17.881c1.366-11.17,5.718-19.736,11.92-26.159
		c3.054-3.161,7.079-5.914,11.259-7.947c4.378-2.129,9.178-3.284,14.569-4.305c-24.944,0-49.89,0-74.834,0
		C423.473,0.759,425.247,0.752,427.483,1.325z M260.265,1.325c1.896,0.484,4.939,1.394,6.954,2.318
		c1.237,0.567,3.271,1.786,4.636,2.649c0.936,0.592,1.682,1.269,2.648,1.987c0.305,0.226,0.73,0.086,0.994,0.331
		c0.145,0.135,0.182,0.548,0.331,0.662c0.298,0.227,0.732,0.088,0.993,0.331c1.098,1.022,3.543,3.319,4.636,4.967
		c0.059,0.088,0.23,0.543,0.331,0.663c0.68,0.804,1.696,1.441,2.317,2.318c0.282,0.397,0.378,1.208,0.663,1.655
		c0.227,0.356,0.629,0.697,0.993,1.325c2.678,4.618,4.981,10.754,5.629,17.881c1.366-11.17,5.718-19.736,11.921-26.159
		c3.053-3.161,7.078-5.914,11.258-7.947c4.378-2.129,9.178-3.284,14.569-4.305c-24.944,0-49.89,0-74.834,0
		C256.254,0.759,258.028,0.752,260.265,1.325z M93.046,1.325c1.895,0.484,4.939,1.394,6.954,2.318
		c1.238,0.567,3.272,1.786,4.636,2.649c0.936,0.592,1.682,1.269,2.649,1.987c0.304,0.226,0.73,0.086,0.994,0.331
		c0.145,0.135,0.182,0.548,0.331,0.662c0.298,0.227,0.732,0.088,0.993,0.331c1.098,1.022,3.543,3.319,4.636,4.967
		c0.058,0.088,0.23,0.543,0.331,0.663c0.68,0.804,1.697,1.441,2.318,2.318c0.282,0.397,0.377,1.208,0.663,1.655
		c0.227,0.356,0.629,0.697,0.993,1.325c2.678,4.618,4.981,10.754,5.629,17.881c1.366-11.17,5.717-19.736,11.92-26.159
		c3.053-3.161,7.079-5.914,11.258-7.947c4.378-2.129,9.178-3.284,14.569-4.305c-24.944,0-49.89,0-74.834,0
		C89.035,0.759,90.81,0.752,93.046,1.325z M446.688,404.967c-6.162,6.295-14.976,11.184-26.49,11.921
		c0.091,0.896,1.289,0.604,1.656,0.662c0.992,0.156,2.077,0.169,2.979,0.331c3.814,0.686,6.838,2.033,9.604,3.312
		c1.65,0.764,3.345,1.188,4.636,1.986c0.179,0.111,0.444,0.5,0.662,0.662c0.341,0.256,0.653,0.419,0.993,0.662
		c2.155,1.544,3.613,2.985,5.298,4.636c1.199,1.176,2.287,2.079,3.312,3.312c0.645,0.776,1.233,1.878,1.655,2.318
		c0.266,0.277,0.393,0.711,0.662,0.993c1.266,1.32,1.909,3.142,2.649,4.636c1.867,3.771,3.372,7.978,3.974,12.583
		c0.099,0.755-0.504,2.123,0.662,2.648c-0.026-5.801,2.109-10.727,3.643-14.238c0.262-0.601,0.382-1.437,0.662-1.986
		c0.868-1.704,2.688-4.05,3.643-5.299c0.209-0.273,0.107-0.704,0.331-0.993c0.271-0.35,0.973-0.605,1.324-0.993
		c0.464-0.512,0.645-1.272,0.993-1.655c1.386-1.519,2.759-2.397,3.974-3.312c0.148-0.111,0.188-0.529,0.331-0.662
		c0.26-0.241,0.699-0.104,0.993-0.331c0.813-0.627,1.482-1.43,2.318-1.987c2.888-1.926,5.627-3.172,8.94-4.305
		c3.328-1.138,6.898-2.069,10.927-2.648c-4.548-0.453-8.533-1.499-11.589-2.649c-1.557-0.586-3.067-1.281-4.305-1.655
		c-0.115-0.035-0.51-0.584-0.662-0.662c-0.496-0.255-1.204-0.396-1.656-0.662c-0.754-0.445-1.549-1.321-1.986-1.656
		c-0.286-0.219-0.679-0.107-0.993-0.331c-2.662-1.887-5.284-4.661-7.285-6.953c-1.63-1.868-2.723-3.517-3.974-5.63
		c-0.591-0.999-1.524-2.015-1.986-2.979c-0.127-0.265,0.085-0.711,0-0.994c-0.229-0.756-1.03-1.53-1.325-2.317
		c-0.5-1.336-0.628-2.655-0.993-3.974c-0.717-2.583-1.357-5.058-1.655-7.947C457.43,389.955,452.88,398.643,446.688,404.967z
		 M279.47,404.967c-6.161,6.295-14.976,11.184-26.489,11.921c0.09,0.896,1.288,0.604,1.655,0.662
		c0.993,0.156,2.077,0.169,2.98,0.331c3.813,0.686,6.838,2.033,9.603,3.312c1.65,0.764,3.346,1.188,4.636,1.986
		c0.18,0.111,0.444,0.5,0.662,0.662c0.341,0.256,0.653,0.419,0.993,0.662c2.155,1.544,3.613,2.985,5.298,4.636
		c1.199,1.176,2.287,2.079,3.312,3.312c0.645,0.776,1.234,1.878,1.655,2.318c0.267,0.277,0.393,0.711,0.663,0.993
		c1.265,1.32,1.909,3.142,2.648,4.636c1.867,3.771,3.372,7.978,3.974,12.583c0.099,0.755-0.504,2.123,0.662,2.648
		c-0.025-5.801,2.109-10.727,3.643-14.238c0.263-0.601,0.382-1.437,0.662-1.986c0.868-1.704,2.688-4.05,3.643-5.299
		c0.21-0.273,0.107-0.704,0.331-0.993c0.271-0.35,0.973-0.605,1.324-0.993c0.464-0.512,0.645-1.272,0.994-1.655
		c1.385-1.519,2.759-2.397,3.973-3.312c0.148-0.111,0.188-0.529,0.331-0.662c0.26-0.241,0.699-0.104,0.994-0.331
		c0.812-0.627,1.481-1.43,2.317-1.987c2.888-1.926,5.627-3.172,8.94-4.305c3.328-1.138,6.898-2.069,10.928-2.648
		c-4.549-0.453-8.534-1.499-11.59-2.649c-1.557-0.586-3.066-1.281-4.305-1.655c-0.114-0.035-0.51-0.584-0.662-0.662
		c-0.496-0.255-1.204-0.396-1.655-0.662c-0.755-0.445-1.55-1.321-1.987-1.656c-0.286-0.219-0.679-0.107-0.993-0.331
		c-2.662-1.887-5.284-4.661-7.285-6.953c-1.63-1.868-2.723-3.517-3.974-5.63c-0.591-0.999-1.524-2.015-1.986-2.979
		c-0.126-0.265,0.085-0.711,0-0.994c-0.229-0.756-1.029-1.53-1.324-2.317c-0.501-1.336-0.628-2.655-0.994-3.974
		c-0.717-2.583-1.357-5.058-1.655-7.947C290.211,389.955,285.661,398.643,279.47,404.967z M112.251,404.967
		c-6.162,6.295-14.976,11.184-26.49,11.921c0.09,0.896,1.288,0.604,1.655,0.662c0.993,0.156,2.078,0.169,2.98,0.331
		c3.813,0.686,6.838,2.033,9.603,3.312c1.651,0.764,3.346,1.188,4.636,1.986c0.18,0.111,0.445,0.5,0.662,0.662
		c0.341,0.256,0.654,0.419,0.994,0.662c2.155,1.544,3.613,2.985,5.298,4.636c1.199,1.176,2.287,2.079,3.312,3.312
		c0.645,0.776,1.234,1.878,1.655,2.318c0.266,0.277,0.393,0.711,0.663,0.993c1.265,1.32,1.909,3.142,2.649,4.636
		c1.867,3.771,3.372,7.978,3.973,12.583c0.099,0.755-0.504,2.123,0.663,2.648c-0.026-5.801,2.109-10.727,3.642-14.238
		c0.262-0.601,0.382-1.437,0.663-1.986c0.868-1.704,2.688-4.05,3.642-5.299c0.209-0.273,0.108-0.704,0.331-0.993
		c0.271-0.35,0.973-0.605,1.325-0.993c0.463-0.512,0.644-1.272,0.993-1.655c1.385-1.519,2.759-2.397,3.974-3.312
		c0.148-0.111,0.188-0.529,0.331-0.662c0.26-0.241,0.699-0.104,0.994-0.331c0.813-0.627,1.481-1.43,2.318-1.987
		c2.888-1.926,5.627-3.172,8.94-4.305c3.328-1.138,6.898-2.069,10.927-2.648c-4.549-0.453-8.534-1.499-11.59-2.649
		c-1.557-0.586-3.066-1.281-4.304-1.655c-0.115-0.035-0.51-0.584-0.663-0.662c-0.496-0.255-1.204-0.396-1.655-0.662
		c-0.755-0.445-1.549-1.321-1.987-1.656c-0.287-0.219-0.679-0.107-0.994-0.331c-2.662-1.887-5.284-4.661-7.285-6.953
		c-1.63-1.868-2.723-3.517-3.974-5.63c-0.591-0.999-1.524-2.015-1.987-2.979c-0.126-0.265,0.085-0.711,0-0.994
		c-0.229-0.756-1.029-1.53-1.324-2.317c-0.501-1.336-0.628-2.655-0.994-3.974c-0.717-2.583-1.357-5.058-1.655-7.947
		C122.993,389.955,118.442,398.643,112.251,404.967z M446.688,237.749c-6.162,6.295-14.976,11.184-26.49,11.92
		c0.091,0.896,1.289,0.604,1.656,0.662c0.992,0.157,2.077,0.169,2.979,0.331c3.814,0.686,6.838,2.033,9.604,3.312
		c1.65,0.764,3.345,1.188,4.636,1.986c0.179,0.111,0.444,0.5,0.662,0.662c0.341,0.256,0.653,0.42,0.993,0.663
		c2.155,1.543,3.613,2.984,5.298,4.636c1.199,1.175,2.287,2.078,3.312,3.311c0.645,0.776,1.233,1.878,1.655,2.318
		c0.266,0.277,0.393,0.711,0.662,0.993c1.266,1.321,1.909,3.142,2.649,4.636c1.867,3.771,3.372,7.978,3.974,12.583
		c0.099,0.755-0.504,2.123,0.662,2.648c-0.026-5.8,2.109-10.727,3.643-14.238c0.262-0.601,0.382-1.437,0.662-1.986
		c0.868-1.703,2.688-4.049,3.643-5.298c0.209-0.274,0.107-0.705,0.331-0.993c0.271-0.351,0.973-0.605,1.324-0.994
		c0.464-0.512,0.645-1.272,0.993-1.655c1.386-1.518,2.759-2.397,3.974-3.312c0.148-0.111,0.188-0.529,0.331-0.662
		c0.26-0.241,0.699-0.104,0.993-0.331c0.813-0.627,1.482-1.43,2.318-1.986c2.888-1.927,5.627-3.172,8.94-4.305
		c3.328-1.139,6.898-2.07,10.927-2.649c-4.548-0.453-8.533-1.499-11.589-2.649c-1.557-0.586-3.067-1.282-4.305-1.656
		c-0.115-0.035-0.51-0.584-0.662-0.662c-0.496-0.255-1.204-0.396-1.656-0.662c-0.754-0.445-1.549-1.321-1.986-1.656
		c-0.286-0.219-0.679-0.108-0.993-0.331c-2.662-1.887-5.284-4.661-7.285-6.954c-1.63-1.868-2.723-3.516-3.974-5.629
		c-0.591-0.999-1.524-2.015-1.986-2.98c-0.127-0.264,0.085-0.711,0-0.994c-0.229-0.756-1.03-1.531-1.325-2.318
		c-0.5-1.335-0.628-2.655-0.993-3.973c-0.717-2.583-1.357-5.058-1.655-7.947C457.43,222.737,452.88,231.424,446.688,237.749z
		 M279.47,237.749c-6.161,6.295-14.976,11.184-26.489,11.92c0.09,0.896,1.288,0.604,1.655,0.662c0.993,0.157,2.077,0.169,2.98,0.331
		c3.813,0.686,6.838,2.033,9.603,3.312c1.65,0.764,3.346,1.188,4.636,1.986c0.18,0.111,0.444,0.5,0.662,0.662
		c0.341,0.256,0.653,0.42,0.993,0.663c2.155,1.543,3.613,2.984,5.298,4.636c1.199,1.175,2.287,2.078,3.312,3.311
		c0.645,0.776,1.234,1.878,1.655,2.318c0.267,0.277,0.393,0.711,0.663,0.993c1.265,1.321,1.909,3.142,2.648,4.636
		c1.867,3.771,3.372,7.978,3.974,12.583c0.099,0.755-0.504,2.123,0.662,2.648c-0.025-5.8,2.109-10.727,3.643-14.238
		c0.263-0.601,0.382-1.437,0.662-1.986c0.868-1.703,2.688-4.049,3.643-5.298c0.21-0.274,0.107-0.705,0.331-0.993
		c0.271-0.351,0.973-0.605,1.324-0.994c0.464-0.512,0.645-1.272,0.994-1.655c1.385-1.518,2.759-2.397,3.973-3.312
		c0.148-0.111,0.188-0.529,0.331-0.662c0.26-0.241,0.699-0.104,0.994-0.331c0.812-0.627,1.481-1.43,2.317-1.986
		c2.888-1.927,5.627-3.172,8.94-4.305c3.328-1.139,6.898-2.07,10.928-2.649c-4.549-0.453-8.534-1.499-11.59-2.649
		c-1.557-0.586-3.066-1.282-4.305-1.656c-0.114-0.035-0.51-0.584-0.662-0.662c-0.496-0.255-1.204-0.396-1.655-0.662
		c-0.755-0.445-1.55-1.321-1.987-1.656c-0.286-0.219-0.679-0.108-0.993-0.331c-2.662-1.887-5.284-4.661-7.285-6.954
		c-1.63-1.868-2.723-3.516-3.974-5.629c-0.591-0.999-1.524-2.015-1.986-2.98c-0.126-0.264,0.085-0.711,0-0.994
		c-0.229-0.756-1.029-1.531-1.324-2.318c-0.501-1.335-0.628-2.655-0.994-3.973c-0.717-2.583-1.357-5.058-1.655-7.947
		C290.211,222.737,285.661,231.424,279.47,237.749z M112.251,237.749c-6.162,6.295-14.976,11.184-26.49,11.92
		c0.09,0.896,1.288,0.604,1.655,0.662c0.993,0.157,2.078,0.169,2.98,0.331c3.813,0.686,6.838,2.033,9.603,3.312
		c1.651,0.764,3.346,1.188,4.636,1.986c0.18,0.111,0.445,0.5,0.662,0.662c0.341,0.256,0.654,0.42,0.994,0.663
		c2.155,1.543,3.613,2.984,5.298,4.636c1.199,1.175,2.287,2.078,3.312,3.311c0.645,0.776,1.234,1.878,1.655,2.318
		c0.266,0.277,0.393,0.711,0.663,0.993c1.265,1.321,1.909,3.142,2.649,4.636c1.867,3.771,3.372,7.978,3.973,12.583
		c0.099,0.755-0.504,2.123,0.663,2.648c-0.026-5.8,2.109-10.727,3.642-14.238c0.262-0.601,0.382-1.437,0.663-1.986
		c0.868-1.703,2.688-4.049,3.642-5.298c0.209-0.274,0.108-0.705,0.331-0.993c0.271-0.351,0.973-0.605,1.325-0.994
		c0.463-0.512,0.644-1.272,0.993-1.655c1.385-1.518,2.759-2.397,3.974-3.312c0.148-0.111,0.188-0.529,0.331-0.662
		c0.26-0.241,0.699-0.104,0.994-0.331c0.813-0.627,1.481-1.43,2.318-1.986c2.888-1.927,5.627-3.172,8.94-4.305
		c3.328-1.139,6.898-2.07,10.927-2.649c-4.549-0.453-8.534-1.499-11.59-2.649c-1.557-0.586-3.066-1.282-4.304-1.656
		c-0.115-0.035-0.51-0.584-0.663-0.662c-0.496-0.255-1.204-0.396-1.655-0.662c-0.755-0.445-1.549-1.321-1.987-1.656
		c-0.287-0.219-0.679-0.108-0.994-0.331c-2.662-1.887-5.284-4.661-7.285-6.954c-1.63-1.868-2.723-3.516-3.974-5.629
		c-0.591-0.999-1.524-2.015-1.987-2.98c-0.126-0.264,0.085-0.711,0-0.994c-0.229-0.756-1.029-1.531-1.324-2.318
		c-0.501-1.335-0.628-2.655-0.994-3.973c-0.717-2.583-1.357-5.058-1.655-7.947C122.993,222.737,118.442,231.424,112.251,237.749z
		 M446.688,70.53c-6.162,6.295-14.976,11.184-26.49,11.92c0.091,0.896,1.289,0.604,1.656,0.663c0.992,0.156,2.077,0.168,2.979,0.331
		c3.814,0.686,6.838,2.033,9.604,3.311c1.65,0.764,3.345,1.188,4.636,1.987c0.179,0.111,0.444,0.5,0.662,0.662
		c0.341,0.256,0.653,0.419,0.993,0.663c2.155,1.543,3.613,2.984,5.298,4.636c1.199,1.175,2.287,2.079,3.312,3.311
		c0.645,0.776,1.233,1.877,1.655,2.318c0.266,0.277,0.393,0.711,0.662,0.994c1.266,1.321,1.909,3.142,2.649,4.636
		c1.867,3.77,3.372,7.977,3.974,12.583c0.099,0.755-0.504,2.124,0.662,2.649c-0.026-5.8,2.109-10.727,3.643-14.238
		c0.262-0.601,0.382-1.437,0.662-1.987c0.868-1.704,2.688-4.049,3.643-5.298c0.209-0.274,0.107-0.705,0.331-0.994
		c0.271-0.35,0.973-0.605,1.324-0.993c0.464-0.512,0.645-1.273,0.993-1.656c1.386-1.518,2.759-2.397,3.974-3.311
		c0.148-0.112,0.188-0.529,0.331-0.663c0.26-0.241,0.699-0.104,0.993-0.331c0.813-0.626,1.482-1.429,2.318-1.987
		c2.888-1.926,5.627-3.172,8.94-4.304c3.328-1.139,6.898-2.07,10.927-2.649c-4.548-0.453-8.533-1.499-11.589-2.649
		c-1.557-0.585-3.067-1.281-4.305-1.655c-0.115-0.035-0.51-0.584-0.662-0.663c-0.496-0.254-1.204-0.396-1.656-0.662
		c-0.754-0.445-1.549-1.321-1.986-1.656c-0.286-0.219-0.679-0.108-0.993-0.331c-2.662-1.887-5.284-4.661-7.285-6.954
		c-1.63-1.868-2.723-3.516-3.974-5.629c-0.591-0.999-1.524-2.016-1.986-2.98c-0.127-0.264,0.085-0.711,0-0.993
		c-0.229-0.756-1.03-1.531-1.325-2.318c-0.5-1.336-0.628-2.656-0.993-3.974c-0.717-2.583-1.357-5.058-1.655-7.947
		C457.43,55.518,452.88,64.205,446.688,70.53z M279.47,70.53c-6.161,6.295-14.976,11.184-26.489,11.92
		c0.09,0.896,1.288,0.604,1.655,0.663c0.993,0.156,2.077,0.168,2.98,0.331c3.813,0.686,6.838,2.033,9.603,3.311
		c1.65,0.764,3.346,1.188,4.636,1.987c0.18,0.111,0.444,0.5,0.662,0.662c0.341,0.256,0.653,0.419,0.993,0.663
		c2.155,1.543,3.613,2.984,5.298,4.636c1.199,1.175,2.287,2.079,3.312,3.311c0.645,0.776,1.234,1.877,1.655,2.318
		c0.267,0.277,0.393,0.711,0.663,0.994c1.265,1.321,1.909,3.142,2.648,4.636c1.867,3.77,3.372,7.977,3.974,12.583
		c0.099,0.755-0.504,2.124,0.662,2.649c-0.025-5.8,2.109-10.727,3.643-14.238c0.263-0.601,0.382-1.437,0.662-1.987
		c0.868-1.704,2.688-4.049,3.643-5.298c0.21-0.274,0.107-0.705,0.331-0.994c0.271-0.35,0.973-0.605,1.324-0.993
		c0.464-0.512,0.645-1.273,0.994-1.656c1.385-1.518,2.759-2.397,3.973-3.311c0.148-0.112,0.188-0.529,0.331-0.663
		c0.26-0.241,0.699-0.104,0.994-0.331c0.812-0.626,1.481-1.429,2.317-1.987c2.888-1.926,5.627-3.172,8.94-4.304
		c3.328-1.139,6.898-2.07,10.928-2.649c-4.549-0.453-8.534-1.499-11.59-2.649c-1.557-0.585-3.066-1.281-4.305-1.655
		c-0.114-0.035-0.51-0.584-0.662-0.663c-0.496-0.254-1.204-0.396-1.655-0.662c-0.755-0.445-1.55-1.321-1.987-1.656
		c-0.286-0.219-0.679-0.108-0.993-0.331c-2.662-1.887-5.284-4.661-7.285-6.954c-1.63-1.868-2.723-3.516-3.974-5.629
		c-0.591-0.999-1.524-2.016-1.986-2.98c-0.126-0.264,0.085-0.711,0-0.993c-0.229-0.756-1.029-1.531-1.324-2.318
		c-0.501-1.336-0.628-2.656-0.994-3.974c-0.717-2.583-1.357-5.058-1.655-7.947C290.211,55.518,285.661,64.205,279.47,70.53z
		 M112.251,70.53c-6.162,6.295-14.976,11.184-26.49,11.92c0.09,0.896,1.288,0.604,1.655,0.663c0.993,0.156,2.078,0.168,2.98,0.331
		c3.813,0.686,6.838,2.033,9.603,3.311c1.651,0.764,3.346,1.188,4.636,1.987c0.18,0.111,0.445,0.5,0.662,0.662
		c0.341,0.256,0.654,0.419,0.994,0.663c2.155,1.543,3.613,2.984,5.298,4.636c1.199,1.175,2.287,2.079,3.312,3.311
		c0.645,0.776,1.234,1.877,1.655,2.318c0.266,0.277,0.393,0.711,0.663,0.994c1.265,1.321,1.909,3.142,2.649,4.636
		c1.867,3.77,3.372,7.977,3.973,12.583c0.099,0.755-0.504,2.124,0.663,2.649c-0.026-5.8,2.109-10.727,3.642-14.238
		c0.262-0.601,0.382-1.437,0.663-1.987c0.868-1.704,2.688-4.049,3.642-5.298c0.209-0.274,0.108-0.705,0.331-0.994
		c0.271-0.35,0.973-0.605,1.325-0.993c0.463-0.512,0.644-1.273,0.993-1.656c1.385-1.518,2.759-2.397,3.974-3.311
		c0.148-0.112,0.188-0.529,0.331-0.663c0.26-0.241,0.699-0.104,0.994-0.331c0.813-0.626,1.481-1.429,2.318-1.987
		c2.888-1.926,5.627-3.172,8.94-4.304c3.328-1.139,6.898-2.07,10.927-2.649c-4.549-0.453-8.534-1.499-11.59-2.649
		c-1.557-0.585-3.066-1.281-4.304-1.655c-0.115-0.035-0.51-0.584-0.663-0.663c-0.496-0.254-1.204-0.396-1.655-0.662
		c-0.755-0.445-1.549-1.321-1.987-1.656c-0.287-0.219-0.679-0.108-0.994-0.331c-2.662-1.887-5.284-4.661-7.285-6.954
		c-1.63-1.868-2.723-3.516-3.974-5.629c-0.591-0.999-1.524-2.016-1.987-2.98c-0.126-0.264,0.085-0.711,0-0.993
		c-0.229-0.756-1.029-1.531-1.324-2.318c-0.501-1.336-0.628-2.656-0.994-3.974c-0.717-2.583-1.357-5.058-1.655-7.947
		C122.993,55.518,118.442,64.205,112.251,70.53z M375.497,380.464c-1.244,10.924-6.045,19.089-12.252,25.165
		c-5.573,5.455-12.975,9.377-21.854,10.928c-1.426,0.248-3.177,0-3.974,0.993c11.552,0.816,20.295,5.592,26.49,11.92
		c5.497,5.615,9.756,13.046,11.259,22.186c0.254,1.546,0.011,3.167,0.993,3.974c0.525-8.437,3.584-15.604,7.284-20.86
		c0.108-0.153,0.541-0.17,0.662-0.331c0.206-0.274,0.159-0.747,0.332-0.994c0.726-1.041,1.659-1.531,2.317-2.317
		c0.207-0.248,0.152-0.76,0.331-0.993c0.892-1.166,2.214-1.722,3.312-2.649c0.894-0.755,1.661-1.607,2.648-2.317
		c5.87-4.218,12.971-6.867,21.523-7.947c-11.24-0.903-19.903-5.49-26.159-11.59c-6.278-6.12-11.229-14.657-12.251-25.827
		c-0.073-0.259-0.277-0.386-0.662-0.332C375.497,379.802,375.497,380.133,375.497,380.464z M208.278,380.464
		c-1.244,10.924-6.044,19.089-12.252,25.165c-5.573,5.455-12.974,9.377-21.854,10.928c-1.426,0.248-3.177,0-3.974,0.993
		c11.552,0.816,20.295,5.592,26.49,11.92c5.497,5.615,9.756,13.046,11.258,22.186c0.254,1.546,0.011,3.167,0.993,3.974
		c0.525-8.437,3.584-15.604,7.285-20.86c0.108-0.153,0.541-0.17,0.662-0.331c0.206-0.274,0.159-0.747,0.332-0.994
		c0.726-1.041,1.659-1.531,2.318-2.317c0.207-0.248,0.152-0.76,0.331-0.993c0.891-1.166,2.213-1.722,3.311-2.649
		c0.894-0.755,1.661-1.607,2.649-2.317c5.87-4.218,12.97-6.867,21.523-7.947c-11.241-0.903-19.903-5.49-26.159-11.59
		c-6.278-6.12-11.229-14.657-12.251-25.827c-0.073-0.259-0.277-0.386-0.662-0.332C208.278,379.802,208.278,380.133,208.278,380.464z
		 M41.06,380.464c-1.244,10.924-6.044,19.089-12.251,25.165c-5.574,5.455-12.974,9.377-21.854,10.928
		c-1.425,0.248-3.176,0-3.974,0.993c11.552,0.816,20.295,5.592,26.49,11.92c5.497,5.615,9.756,13.046,11.258,22.186
		c0.254,1.546,0.011,3.167,0.993,3.974c0.526-8.437,3.584-15.604,7.285-20.86c0.108-0.153,0.541-0.17,0.662-0.331
		c0.206-0.274,0.159-0.747,0.331-0.994c0.726-1.041,1.659-1.531,2.318-2.317c0.208-0.248,0.152-0.76,0.331-0.993
		c0.892-1.166,2.214-1.722,3.312-2.649c0.894-0.755,1.661-1.607,2.649-2.317c5.87-4.218,12.97-6.867,21.523-7.947
		c-11.241-0.903-19.903-5.49-26.159-11.59c-6.279-6.12-11.229-14.657-12.252-25.827c-0.073-0.259-0.277-0.386-0.662-0.332
		C41.06,379.802,41.06,380.133,41.06,380.464z M375.497,213.245c-1.244,10.924-6.045,19.089-12.252,25.166
		c-5.573,5.455-12.975,9.377-21.854,10.927c-1.426,0.249-3.177,0-3.974,0.993c11.552,0.817,20.295,5.592,26.49,11.921
		c5.497,5.615,9.756,13.045,11.259,22.186c0.254,1.546,0.011,3.166,0.993,3.973c0.525-8.437,3.584-15.604,7.284-20.86
		c0.108-0.153,0.541-0.169,0.662-0.331c0.206-0.274,0.159-0.747,0.332-0.993c0.726-1.042,1.659-1.531,2.317-2.318
		c0.207-0.248,0.152-0.76,0.331-0.993c0.892-1.166,2.214-1.722,3.312-2.649c0.894-0.755,1.661-1.607,2.648-2.317
		c5.87-4.218,12.971-6.866,21.523-7.947c-11.24-0.903-19.903-5.49-26.159-11.589c-6.278-6.121-11.229-14.658-12.251-25.828
		c-0.073-0.258-0.277-0.385-0.662-0.332C375.497,212.583,375.497,212.914,375.497,213.245z M208.278,213.245
		c-1.244,10.924-6.044,19.089-12.252,25.166c-5.573,5.455-12.974,9.377-21.854,10.927c-1.426,0.249-3.177,0-3.974,0.993
		c11.552,0.817,20.295,5.592,26.49,11.921c5.497,5.615,9.756,13.045,11.258,22.186c0.254,1.546,0.011,3.166,0.993,3.973
		c0.525-8.437,3.584-15.604,7.285-20.86c0.108-0.153,0.541-0.169,0.662-0.331c0.206-0.274,0.159-0.747,0.332-0.993
		c0.726-1.042,1.659-1.531,2.318-2.318c0.207-0.248,0.152-0.76,0.331-0.993c0.891-1.166,2.213-1.722,3.311-2.649
		c0.894-0.755,1.661-1.607,2.649-2.317c5.87-4.218,12.97-6.866,21.523-7.947c-11.241-0.903-19.903-5.49-26.159-11.589
		c-6.278-6.121-11.229-14.658-12.251-25.828c-0.073-0.258-0.277-0.385-0.662-0.332C208.278,212.583,208.278,212.914,208.278,213.245
		z M41.06,213.245c-1.244,10.924-6.044,19.089-12.251,25.166c-5.574,5.455-12.974,9.377-21.854,10.927
		c-1.425,0.249-3.176,0-3.974,0.993c11.552,0.817,20.295,5.592,26.49,11.921c5.497,5.615,9.756,13.045,11.258,22.186
		c0.254,1.546,0.011,3.166,0.993,3.973c0.526-8.437,3.584-15.604,7.285-20.86c0.108-0.153,0.541-0.169,0.662-0.331
		c0.206-0.274,0.159-0.747,0.331-0.993c0.726-1.042,1.659-1.531,2.318-2.318c0.208-0.248,0.152-0.76,0.331-0.993
		c0.892-1.166,2.214-1.722,3.312-2.649c0.894-0.755,1.661-1.607,2.649-2.317c5.87-4.218,12.97-6.866,21.523-7.947
		c-11.241-0.903-19.903-5.49-26.159-11.589c-6.279-6.121-11.229-14.658-12.252-25.828c-0.073-0.258-0.277-0.385-0.662-0.332
		C41.06,212.583,41.06,212.914,41.06,213.245z M375.497,46.026c-1.244,10.925-6.045,19.089-12.252,25.166
		c-5.573,5.456-12.975,9.377-21.854,10.927c-1.426,0.249-3.177,0-3.974,0.994c11.552,0.816,20.295,5.591,26.49,11.92
		c5.497,5.615,9.756,13.045,11.259,22.186c0.254,1.546,0.011,3.166,0.993,3.973c0.525-8.437,3.584-15.604,7.284-20.861
		c0.108-0.153,0.541-0.169,0.662-0.331c0.206-0.274,0.159-0.747,0.332-0.993c0.726-1.042,1.659-1.531,2.317-2.318
		c0.207-0.248,0.152-0.76,0.331-0.994c0.892-1.166,2.214-1.721,3.312-2.649c0.894-0.755,1.661-1.608,2.648-2.318
		c5.87-4.217,12.971-6.866,21.523-7.947c-11.24-0.903-19.903-5.49-26.159-11.589c-6.278-6.121-11.229-14.658-12.251-25.828
		c-0.073-0.258-0.277-0.385-0.662-0.331C375.497,45.364,375.497,45.695,375.497,46.026z M208.278,46.026
		c-1.244,10.925-6.044,19.089-12.252,25.166c-5.573,5.456-12.974,9.377-21.854,10.927c-1.426,0.249-3.177,0-3.974,0.994
		c11.552,0.816,20.295,5.591,26.49,11.92c5.497,5.615,9.756,13.045,11.258,22.186c0.254,1.546,0.011,3.166,0.993,3.973
		c0.525-8.437,3.584-15.604,7.285-20.861c0.108-0.153,0.541-0.169,0.662-0.331c0.206-0.274,0.159-0.747,0.332-0.993
		c0.726-1.042,1.659-1.531,2.318-2.318c0.207-0.248,0.152-0.76,0.331-0.994c0.891-1.166,2.213-1.721,3.311-2.649
		c0.894-0.755,1.661-1.608,2.649-2.318c5.87-4.217,12.97-6.866,21.523-7.947c-11.241-0.903-19.903-5.49-26.159-11.589
		c-6.278-6.121-11.229-14.658-12.251-25.828c-0.073-0.258-0.277-0.385-0.662-0.331C208.278,45.364,208.278,45.695,208.278,46.026z
		 M41.06,46.026c-1.244,10.925-6.044,19.089-12.251,25.166c-5.574,5.456-12.974,9.377-21.854,10.927
		c-1.425,0.249-3.176,0-3.974,0.994c11.552,0.816,20.295,5.591,26.49,11.92c5.497,5.615,9.756,13.045,11.258,22.186
		c0.254,1.546,0.011,3.166,0.993,3.973c0.526-8.437,3.584-15.604,7.285-20.861c0.108-0.153,0.541-0.169,0.662-0.331
		c0.206-0.274,0.159-0.747,0.331-0.993c0.726-1.042,1.659-1.531,2.318-2.318c0.208-0.248,0.152-0.76,0.331-0.994
		c0.892-1.166,2.214-1.721,3.312-2.649c0.894-0.755,1.661-1.608,2.649-2.318c5.87-4.217,12.97-6.866,21.523-7.947
		c-11.241-0.903-19.903-5.49-26.159-11.589c-6.279-6.121-11.229-14.658-12.252-25.828c-0.073-0.258-0.277-0.385-0.662-0.331
		C41.06,45.364,41.06,45.695,41.06,46.026z M488.742,498.345c-3.873-1.077-7.279-2.523-10.597-4.636
		c-1.185-0.755-2.289-1.381-3.643-2.318c-0.118-0.082-0.226-0.615-0.331-0.662c-1.961-0.884-4.299-3.689-5.96-5.629
		c-4.797-5.604-8.8-13.711-9.271-23.51c-1.227,2.255-0.778,4.691-1.324,6.953c-0.25,1.035-0.938,2.19-1.325,3.312
		c-0.169,0.49-0.209,0.729-0.331,0.993c-0.204,0.443-0.406,1.1-0.662,1.655c-0.45,0.979-0.976,2.7-1.655,3.974
		c-1.426,2.673-3.426,5.192-5.629,7.616c-1.941,2.134-3.413,3.673-5.63,5.298c-0.7,0.514-1.362,0.955-2.317,1.655
		c-1.017,0.746-2.117,1.541-3.643,2.318c-4.097,2.089-9.282,3.479-14.9,4.636c24.503,0,49.006,0,73.51,0
		C492.861,499.308,490.768,498.908,488.742,498.345z M321.523,498.345c-3.873-1.077-7.279-2.523-10.597-4.636
		c-1.185-0.755-2.289-1.381-3.642-2.318c-0.119-0.082-0.227-0.615-0.331-0.662c-1.961-0.884-4.3-3.689-5.961-5.629
		c-4.797-5.604-8.799-13.711-9.271-23.51c-1.226,2.255-0.778,4.691-1.324,6.953c-0.25,1.035-0.938,2.19-1.324,3.312
		c-0.17,0.49-0.21,0.729-0.331,0.993c-0.205,0.443-0.406,1.1-0.663,1.655c-0.45,0.979-0.976,2.7-1.655,3.974
		c-1.426,2.673-3.425,5.192-5.629,7.616c-1.941,2.134-3.413,3.673-5.629,5.298c-0.701,0.514-1.363,0.955-2.318,1.655
		c-1.017,0.746-2.117,1.541-3.643,2.318c-4.097,2.089-9.282,3.479-14.9,4.636c24.503,0,49.007,0,73.51,0
		C325.643,499.308,323.55,498.908,321.523,498.345z M154.305,498.345c-3.873-1.077-7.279-2.523-10.596-4.636
		c-1.185-0.755-2.29-1.381-3.642-2.318c-0.119-0.082-0.227-0.615-0.332-0.662c-1.96-0.884-4.299-3.689-5.96-5.629
		c-4.797-5.604-8.799-13.711-9.271-23.51c-1.226,2.255-0.778,4.691-1.325,6.953c-0.25,1.035-0.938,2.19-1.324,3.312
		c-0.169,0.49-0.21,0.729-0.332,0.993c-0.204,0.443-0.406,1.1-0.662,1.655c-0.451,0.979-0.976,2.7-1.656,3.974
		c-1.426,2.673-3.425,5.192-5.629,7.616c-1.941,2.134-3.413,3.673-5.629,5.298c-0.701,0.514-1.363,0.955-2.318,1.655
		c-1.017,0.746-2.117,1.541-3.642,2.318c-4.097,2.089-9.282,3.479-14.901,4.636c24.503,0,49.007,0,73.51,0
		C158.424,499.308,156.331,498.908,154.305,498.345z M488.742,331.126c-3.873-1.077-7.279-2.523-10.597-4.636
		c-1.185-0.755-2.289-1.38-3.643-2.318c-0.118-0.082-0.226-0.615-0.331-0.662c-1.961-0.884-4.299-3.689-5.96-5.629
		c-4.797-5.604-8.8-13.711-9.271-23.51c-1.227,2.256-0.778,4.692-1.324,6.953c-0.25,1.035-0.938,2.191-1.325,3.312
		c-0.169,0.491-0.209,0.729-0.331,0.993c-0.204,0.443-0.406,1.1-0.662,1.656c-0.45,0.978-0.976,2.699-1.655,3.973
		c-1.426,2.673-3.426,5.192-5.629,7.616c-1.941,2.135-3.413,3.673-5.63,5.298c-0.7,0.514-1.362,0.955-2.317,1.656
		c-1.017,0.745-2.117,1.54-3.643,2.317c-4.097,2.089-9.282,3.479-14.9,4.636c24.503,0,49.006,0,73.51,0
		C492.861,332.089,490.768,331.689,488.742,331.126z M321.523,331.126c-3.873-1.077-7.279-2.523-10.597-4.636
		c-1.185-0.755-2.289-1.38-3.642-2.318c-0.119-0.082-0.227-0.615-0.331-0.662c-1.961-0.884-4.3-3.689-5.961-5.629
		c-4.797-5.604-8.799-13.711-9.271-23.51c-1.226,2.256-0.778,4.692-1.324,6.953c-0.25,1.035-0.938,2.191-1.324,3.312
		c-0.17,0.491-0.21,0.729-0.331,0.993c-0.205,0.443-0.406,1.1-0.663,1.656c-0.45,0.978-0.976,2.699-1.655,3.973
		c-1.426,2.673-3.425,5.192-5.629,7.616c-1.941,2.135-3.413,3.673-5.629,5.298c-0.701,0.514-1.363,0.955-2.318,1.656
		c-1.017,0.745-2.117,1.54-3.643,2.317c-4.097,2.089-9.282,3.479-14.9,4.636c24.503,0,49.007,0,73.51,0
		C325.643,332.089,323.55,331.689,321.523,331.126z M154.305,331.126c-3.873-1.077-7.279-2.523-10.596-4.636
		c-1.185-0.755-2.29-1.38-3.642-2.318c-0.119-0.082-0.227-0.615-0.332-0.662c-1.96-0.884-4.299-3.689-5.96-5.629
		c-4.797-5.604-8.799-13.711-9.271-23.51c-1.226,2.256-0.778,4.692-1.325,6.953c-0.25,1.035-0.938,2.191-1.324,3.312
		c-0.169,0.491-0.21,0.729-0.332,0.993c-0.204,0.443-0.406,1.1-0.662,1.656c-0.451,0.978-0.976,2.699-1.656,3.973
		c-1.426,2.673-3.425,5.192-5.629,7.616c-1.941,2.135-3.413,3.673-5.629,5.298c-0.701,0.514-1.363,0.955-2.318,1.656
		c-1.017,0.745-2.117,1.54-3.642,2.317c-4.097,2.089-9.282,3.479-14.901,4.636c24.503,0,49.007,0,73.51,0
		C158.424,332.089,156.331,331.689,154.305,331.126z M488.742,163.907c-3.873-1.077-7.279-2.523-10.597-4.636
		c-1.185-0.754-2.289-1.38-3.643-2.318c-0.118-0.082-0.226-0.615-0.331-0.662c-1.961-0.884-4.299-3.689-5.96-5.629
		c-4.797-5.604-8.8-13.711-9.271-23.51c-1.227,2.256-0.778,4.692-1.324,6.954c-0.25,1.035-0.938,2.191-1.325,3.311
		c-0.169,0.491-0.209,0.73-0.331,0.994c-0.204,0.443-0.406,1.1-0.662,1.656c-0.45,0.978-0.976,2.7-1.655,3.973
		c-1.426,2.672-3.426,5.192-5.629,7.616c-1.941,2.134-3.413,3.673-5.63,5.298c-0.7,0.514-1.362,0.955-2.317,1.656
		c-1.017,0.746-2.117,1.54-3.643,2.318c-4.097,2.089-9.282,3.479-14.9,4.636c24.503,0,49.006,0,73.51,0
		C492.861,164.87,490.768,164.471,488.742,163.907z M321.523,163.907c-3.873-1.077-7.279-2.523-10.597-4.636
		c-1.185-0.754-2.289-1.38-3.642-2.318c-0.119-0.082-0.227-0.615-0.331-0.662c-1.961-0.884-4.3-3.689-5.961-5.629
		c-4.797-5.604-8.799-13.711-9.271-23.51c-1.226,2.256-0.778,4.692-1.324,6.954c-0.25,1.035-0.938,2.191-1.324,3.311
		c-0.17,0.491-0.21,0.73-0.331,0.994c-0.205,0.443-0.406,1.1-0.663,1.656c-0.45,0.978-0.976,2.7-1.655,3.973
		c-1.426,2.672-3.425,5.192-5.629,7.616c-1.941,2.134-3.413,3.673-5.629,5.298c-0.701,0.514-1.363,0.955-2.318,1.656
		c-1.017,0.746-2.117,1.54-3.643,2.318c-4.097,2.089-9.282,3.479-14.9,4.636c24.503,0,49.007,0,73.51,0
		C325.643,164.87,323.55,164.471,321.523,163.907z M154.305,163.907c-3.873-1.077-7.279-2.523-10.596-4.636
		c-1.185-0.754-2.29-1.38-3.642-2.318c-0.119-0.082-0.227-0.615-0.332-0.662c-1.96-0.884-4.299-3.689-5.96-5.629
		c-4.797-5.604-8.799-13.711-9.271-23.51c-1.226,2.256-0.778,4.692-1.325,6.954c-0.25,1.035-0.938,2.191-1.324,3.311
		c-0.169,0.491-0.21,0.73-0.332,0.994c-0.204,0.443-0.406,1.1-0.662,1.656c-0.451,0.978-0.976,2.7-1.656,3.973
		c-1.426,2.672-3.425,5.192-5.629,7.616c-1.941,2.134-3.413,3.673-5.629,5.298c-0.701,0.514-1.363,0.955-2.318,1.656
		c-1.017,0.746-2.117,1.54-3.642,2.318c-4.097,2.089-9.282,3.479-14.901,4.636c24.503,0,49.007,0,73.51,0
		C158.424,164.87,156.331,164.471,154.305,163.907z M405.629,498.345c-2.007-0.577-4.164-1.139-5.96-1.987
		c-0.155-0.073-0.203-0.602-0.331-0.662c-0.268-0.126-0.733,0.138-0.993,0c-0.335-0.177-0.689-0.824-0.994-0.993
		c-0.923-0.513-1.814-0.788-2.648-1.324c-6.005-3.861-11.552-9.766-14.9-16.888c-0.65-1.382-1.114-2.874-1.656-4.305
		c-0.9-2.377-1.627-6.403-2.317-9.934c-0.805,6.281-2.678,11.786-5.299,16.556c-0.459,0.836-1.106,1.767-1.655,2.649
		c-0.466,0.749-0.899,1.369-1.655,2.317c-0.193,0.243-0.498,0.447-0.662,0.663c-0.174,0.228-0.127,0.756-0.331,0.993
		c-0.731,0.849-1.813,1.813-2.649,2.648c-1.443,1.443-2.335,2.11-3.974,3.312c-0.709,0.52-1.338,0.938-2.317,1.655
		c-1.408,1.033-4.149,2.728-6.292,3.643c-0.497,0.213-1.153,0.119-1.655,0.331c-0.619,0.262-0.729,0.456-1.324,0.662
		c-2.64,0.917-6.176,1.554-9.604,2.318c24.614,0,49.228,0,73.842,0C410.087,499.223,407.77,498.96,405.629,498.345z
		 M238.411,498.345c-2.007-0.577-4.165-1.139-5.96-1.987c-0.155-0.073-0.203-0.602-0.331-0.662c-0.267-0.126-0.733,0.138-0.993,0
		c-0.335-0.177-0.689-0.824-0.994-0.993c-0.923-0.513-1.814-0.788-2.649-1.324c-6.004-3.861-11.551-9.766-14.9-16.888
		c-0.65-1.382-1.114-2.874-1.656-4.305c-0.9-2.377-1.627-6.403-2.318-9.934c-0.804,6.281-2.677,11.786-5.298,16.556
		c-0.459,0.836-1.106,1.767-1.655,2.649c-0.466,0.749-0.899,1.369-1.656,2.317c-0.193,0.243-0.498,0.447-0.662,0.663
		c-0.174,0.228-0.127,0.756-0.331,0.993c-0.731,0.849-1.813,1.813-2.649,2.648c-1.443,1.443-2.335,2.11-3.973,3.312
		c-0.709,0.52-1.338,0.938-2.318,1.655c-1.408,1.033-4.149,2.728-6.292,3.643c-0.498,0.213-1.154,0.119-1.656,0.331
		c-0.619,0.262-0.729,0.456-1.324,0.662c-2.64,0.917-6.176,1.554-9.603,2.318c24.614,0,49.228,0,73.841,0
		C242.868,499.223,240.551,498.96,238.411,498.345z M71.192,498.345c-2.007-0.577-4.164-1.139-5.96-1.987
		c-0.155-0.073-0.204-0.602-0.331-0.662c-0.267-0.126-0.733,0.138-0.994,0c-0.335-0.177-0.689-0.824-0.993-0.993
		c-0.923-0.513-1.815-0.788-2.649-1.324c-6.005-3.861-11.551-9.766-14.901-16.888c-0.65-1.382-1.113-2.874-1.656-4.305
		c-0.9-2.377-1.627-6.403-2.318-9.934c-0.804,6.281-2.677,11.786-5.298,16.556c-0.459,0.836-1.106,1.767-1.656,2.649
		c-0.466,0.749-0.899,1.369-1.656,2.317c-0.193,0.243-0.497,0.447-0.662,0.663c-0.174,0.228-0.126,0.756-0.331,0.993
		c-0.731,0.849-1.813,1.813-2.649,2.648c-1.443,1.443-2.335,2.11-3.974,3.312c-0.708,0.52-1.338,0.938-2.318,1.655
		c-1.408,1.033-4.148,2.728-6.292,3.643c-0.497,0.213-1.153,0.119-1.655,0.331c-0.619,0.262-0.729,0.456-1.325,0.662
		c-2.639,0.917-6.175,1.554-9.603,2.318c24.613,0,49.228,0,73.841,0C75.649,499.223,73.333,498.96,71.192,498.345z M405.629,331.126
		c-2.007-0.577-4.164-1.139-5.96-1.987c-0.155-0.073-0.203-0.602-0.331-0.662c-0.268-0.126-0.733,0.138-0.993,0
		c-0.335-0.177-0.689-0.824-0.994-0.993c-0.923-0.512-1.814-0.788-2.648-1.324c-6.005-3.861-11.552-9.766-14.9-16.888
		c-0.65-1.382-1.114-2.874-1.656-4.305c-0.9-2.377-1.627-6.403-2.317-9.934c-0.805,6.281-2.678,11.786-5.299,16.557
		c-0.459,0.835-1.106,1.766-1.655,2.648c-0.466,0.75-0.899,1.369-1.655,2.318c-0.193,0.242-0.498,0.446-0.662,0.662
		c-0.174,0.228-0.127,0.756-0.331,0.993c-0.731,0.849-1.813,1.813-2.649,2.649c-1.443,1.442-2.335,2.109-3.974,3.311
		c-0.709,0.52-1.338,0.938-2.317,1.656c-1.408,1.032-4.149,2.727-6.292,3.642c-0.497,0.213-1.153,0.12-1.655,0.332
		c-0.619,0.261-0.729,0.455-1.324,0.662c-2.64,0.916-6.176,1.553-9.604,2.317c24.614,0,49.228,0,73.842,0
		C410.087,332.004,407.77,331.741,405.629,331.126z M238.411,331.126c-2.007-0.577-4.165-1.139-5.96-1.987
		c-0.155-0.073-0.203-0.602-0.331-0.662c-0.267-0.126-0.733,0.138-0.993,0c-0.335-0.177-0.689-0.824-0.994-0.993
		c-0.923-0.512-1.814-0.788-2.649-1.324c-6.004-3.861-11.551-9.766-14.9-16.888c-0.65-1.382-1.114-2.874-1.656-4.305
		c-0.9-2.377-1.627-6.403-2.318-9.934c-0.804,6.281-2.677,11.786-5.298,16.557c-0.459,0.835-1.106,1.766-1.655,2.648
		c-0.466,0.75-0.899,1.369-1.656,2.318c-0.193,0.242-0.498,0.446-0.662,0.662c-0.174,0.228-0.127,0.756-0.331,0.993
		c-0.731,0.849-1.813,1.813-2.649,2.649c-1.443,1.442-2.335,2.109-3.973,3.311c-0.709,0.52-1.338,0.938-2.318,1.656
		c-1.408,1.032-4.149,2.727-6.292,3.642c-0.498,0.213-1.154,0.12-1.656,0.332c-0.619,0.261-0.729,0.455-1.324,0.662
		c-2.64,0.916-6.176,1.553-9.603,2.317c24.614,0,49.228,0,73.841,0C242.868,332.004,240.551,331.741,238.411,331.126z
		 M71.192,331.126c-2.007-0.577-4.164-1.139-5.96-1.987c-0.155-0.073-0.204-0.602-0.331-0.662c-0.267-0.126-0.733,0.138-0.994,0
		c-0.335-0.177-0.689-0.824-0.993-0.993c-0.923-0.512-1.815-0.788-2.649-1.324c-6.005-3.861-11.551-9.766-14.901-16.888
		c-0.65-1.382-1.113-2.874-1.656-4.305c-0.9-2.377-1.627-6.403-2.318-9.934c-0.804,6.281-2.677,11.786-5.298,16.557
		c-0.459,0.835-1.106,1.766-1.656,2.648c-0.466,0.75-0.899,1.369-1.656,2.318c-0.193,0.242-0.497,0.446-0.662,0.662
		c-0.174,0.228-0.126,0.756-0.331,0.993c-0.731,0.849-1.813,1.813-2.649,2.649c-1.443,1.442-2.335,2.109-3.974,3.311
		c-0.708,0.52-1.338,0.938-2.318,1.656c-1.408,1.032-4.148,2.727-6.292,3.642c-0.497,0.213-1.153,0.12-1.655,0.332
		c-0.619,0.261-0.729,0.455-1.325,0.662c-2.639,0.916-6.175,1.553-9.603,2.317c24.613,0,49.228,0,73.841,0
		C75.649,332.004,73.333,331.741,71.192,331.126z M405.629,163.907c-2.007-0.577-4.164-1.138-5.96-1.987
		c-0.155-0.073-0.203-0.602-0.331-0.662c-0.268-0.126-0.733,0.138-0.993,0c-0.335-0.177-0.689-0.825-0.994-0.994
		c-0.923-0.512-1.814-0.788-2.648-1.324c-6.005-3.861-11.552-9.765-14.9-16.888c-0.65-1.382-1.114-2.874-1.656-4.304
		c-0.9-2.377-1.627-6.403-2.317-9.934c-0.805,6.281-2.678,11.787-5.299,16.557c-0.459,0.835-1.106,1.766-1.655,2.649
		c-0.466,0.75-0.899,1.369-1.655,2.318c-0.193,0.243-0.498,0.446-0.662,0.662c-0.174,0.228-0.127,0.756-0.331,0.993
		c-0.731,0.849-1.813,1.813-2.649,2.649c-1.443,1.443-2.335,2.11-3.974,3.311c-0.709,0.52-1.338,0.937-2.317,1.656
		c-1.408,1.033-4.149,2.727-6.292,3.642c-0.497,0.213-1.153,0.12-1.655,0.332c-0.619,0.261-0.729,0.456-1.324,0.662
		c-2.64,0.916-6.176,1.553-9.604,2.318c24.614,0,49.228,0,73.842,0C410.087,164.785,407.77,164.522,405.629,163.907z
		 M238.411,163.907c-2.007-0.577-4.165-1.138-5.96-1.987c-0.155-0.073-0.203-0.602-0.331-0.662c-0.267-0.126-0.733,0.138-0.993,0
		c-0.335-0.177-0.689-0.825-0.994-0.994c-0.923-0.512-1.814-0.788-2.649-1.324c-6.004-3.861-11.551-9.765-14.9-16.888
		c-0.65-1.382-1.114-2.874-1.656-4.304c-0.9-2.377-1.627-6.403-2.318-9.934c-0.804,6.281-2.677,11.787-5.298,16.557
		c-0.459,0.835-1.106,1.766-1.655,2.649c-0.466,0.75-0.899,1.369-1.656,2.318c-0.193,0.243-0.498,0.446-0.662,0.662
		c-0.174,0.228-0.127,0.756-0.331,0.993c-0.731,0.849-1.813,1.813-2.649,2.649c-1.443,1.443-2.335,2.11-3.973,3.311
		c-0.709,0.52-1.338,0.937-2.318,1.656c-1.408,1.033-4.149,2.727-6.292,3.642c-0.498,0.213-1.154,0.12-1.656,0.332
		c-0.619,0.261-0.729,0.456-1.324,0.662c-2.64,0.916-6.176,1.553-9.603,2.318c24.614,0,49.228,0,73.841,0
		C242.868,164.785,240.551,164.522,238.411,163.907z M71.192,163.907c-2.007-0.577-4.164-1.138-5.96-1.987
		c-0.155-0.073-0.204-0.602-0.331-0.662c-0.267-0.126-0.733,0.138-0.994,0c-0.335-0.177-0.689-0.825-0.993-0.994
		c-0.923-0.512-1.815-0.788-2.649-1.324c-6.005-3.861-11.551-9.765-14.901-16.888c-0.65-1.382-1.113-2.874-1.656-4.304
		c-0.9-2.377-1.627-6.403-2.318-9.934c-0.804,6.281-2.677,11.787-5.298,16.557c-0.459,0.835-1.106,1.766-1.656,2.649
		c-0.466,0.75-0.899,1.369-1.656,2.318c-0.193,0.243-0.497,0.446-0.662,0.662c-0.174,0.228-0.126,0.756-0.331,0.993
		c-0.731,0.849-1.813,1.813-2.649,2.649c-1.443,1.443-2.335,2.11-3.974,3.311c-0.708,0.52-1.338,0.937-2.318,1.656
		c-1.408,1.033-4.148,2.727-6.292,3.642c-0.497,0.213-1.153,0.12-1.655,0.332c-0.619,0.261-0.729,0.456-1.325,0.662
		c-2.639,0.916-6.175,1.553-9.603,2.318c24.613,0,49.228,0,73.841,0C75.649,164.785,73.333,164.522,71.192,163.907z"></path>
</g>
<g id="A">
	<path class="paintable" fill="#58595B" d="M417.219,337.417c1.493,12.231,6.365,20.889,13.576,27.483c0.275,0.252,0.318,0.435,0.662,0.662
		c0.088,0.059,0.543,0.23,0.662,0.332c0.836,0.706,1.443,1.698,2.318,2.317c0.304,0.216,0.701,0.149,0.993,0.331
		c0.216,0.135,0.467,0.545,0.662,0.662c2.132,1.28,5.223,2.953,7.947,3.974c2.764,1.035,6.126,1.704,9.603,2.318
		c0.356,0.062,1.771-0.508,1.655,0.662c-3.817,0.083-7.455,0.853-10.596,1.986c-2.176,0.786-4.679,2.017-6.954,3.312
		c-1.396,0.795-3.109,2.192-4.636,3.312c-4.189,3.071-8.205,7.835-10.927,12.913c-2.162,4.035-3.716,8.456-4.636,14.239
		c-0.086,0.54,0.561,1.97-0.662,1.986c-0.29-5.677-1.776-10.861-3.974-15.231c-0.517-1.028-1.313-1.899-1.987-2.98
		c-0.248-0.399-0.397-1.271-0.662-1.655c-0.167-0.244-0.465-0.366-0.662-0.662c-0.564-0.851-1.79-1.975-2.648-2.98
		c-0.228-0.266-0.101-0.745-0.332-0.993c-6.086-6.537-15.661-12.418-27.814-13.245c0.922-1.289,2.604-0.507,3.643-0.662
		c0.549-0.083,1.074-0.229,1.655-0.331c1.174-0.205,2.068-0.663,3.312-0.994c1.093-0.29,1.802-0.57,2.98-0.993
		c4.016-1.438,8.318-3.907,11.589-6.622C409.989,359.914,415.911,350.672,417.219,337.417z M250,337.417
		c1.493,12.231,6.365,20.889,13.576,27.483c0.275,0.252,0.318,0.435,0.662,0.662c0.088,0.059,0.543,0.23,0.662,0.332
		c0.836,0.706,1.443,1.698,2.318,2.317c0.304,0.216,0.701,0.149,0.993,0.331c0.216,0.135,0.467,0.545,0.662,0.662
		c2.132,1.28,5.223,2.953,7.947,3.974c2.764,1.035,6.126,1.704,9.603,2.318c0.356,0.062,1.771-0.508,1.655,0.662
		c-3.817,0.083-7.455,0.853-10.596,1.986c-2.175,0.786-4.679,2.017-6.954,3.312c-1.396,0.795-3.109,2.192-4.635,3.312
		c-4.19,3.071-8.205,7.835-10.928,12.913c-2.162,4.035-3.716,8.456-4.636,14.239c-0.086,0.54,0.561,1.97-0.662,1.986
		c-0.29-5.677-1.776-10.861-3.974-15.231c-0.517-1.028-1.313-1.899-1.987-2.98c-0.249-0.399-0.398-1.271-0.662-1.655
		c-0.167-0.244-0.465-0.366-0.662-0.662c-0.564-0.851-1.791-1.975-2.649-2.98c-0.227-0.266-0.1-0.745-0.331-0.993
		c-6.086-6.537-15.662-12.418-27.814-13.245c0.921-1.289,2.604-0.507,3.643-0.662c0.549-0.083,1.074-0.229,1.655-0.331
		c1.173-0.205,2.068-0.663,3.312-0.994c1.093-0.29,1.801-0.57,2.98-0.993c4.016-1.438,8.318-3.907,11.589-6.622
		C242.771,359.914,248.692,350.672,250,337.417z M82.781,337.417c1.494,12.231,6.365,20.889,13.576,27.483
		c0.275,0.252,0.319,0.435,0.663,0.662c0.088,0.059,0.543,0.23,0.662,0.332c0.835,0.706,1.443,1.698,2.318,2.317
		c0.304,0.216,0.701,0.149,0.993,0.331c0.216,0.135,0.467,0.545,0.663,0.662c2.131,1.28,5.222,2.953,7.947,3.974
		c2.764,1.035,6.126,1.704,9.603,2.318c0.357,0.062,1.771-0.508,1.656,0.662c-3.818,0.083-7.455,0.853-10.596,1.986
		c-2.175,0.786-4.679,2.017-6.954,3.312c-1.397,0.795-3.11,2.192-4.636,3.312c-4.189,3.071-8.205,7.835-10.927,12.913
		c-2.162,4.035-3.716,8.456-4.636,14.239c-0.086,0.54,0.561,1.97-0.663,1.986c-0.29-5.677-1.776-10.861-3.973-15.231
		c-0.517-1.028-1.313-1.899-1.987-2.98c-0.249-0.399-0.398-1.271-0.663-1.655c-0.167-0.244-0.465-0.366-0.662-0.662
		c-0.564-0.851-1.791-1.975-2.649-2.98c-0.227-0.266-0.101-0.745-0.331-0.993c-6.086-6.537-15.662-12.418-27.814-13.245
		c0.921-1.289,2.604-0.507,3.642-0.662c0.549-0.083,1.075-0.229,1.656-0.331c1.173-0.205,2.067-0.663,3.311-0.994
		c1.093-0.29,1.801-0.57,2.98-0.993c4.016-1.438,8.318-3.907,11.589-6.622C75.553,359.914,81.474,350.672,82.781,337.417z
		 M417.219,170.199c1.493,12.231,6.365,20.888,13.576,27.483c0.275,0.251,0.318,0.435,0.662,0.662
		c0.088,0.058,0.543,0.23,0.662,0.331c0.836,0.707,1.443,1.699,2.318,2.318c0.304,0.216,0.701,0.15,0.993,0.332
		c0.216,0.134,0.467,0.545,0.662,0.662c2.132,1.28,5.223,2.953,7.947,3.974c2.764,1.035,6.126,1.704,9.603,2.318
		c0.356,0.062,1.771-0.508,1.655,0.662c-3.817,0.083-7.455,0.853-10.596,1.987c-2.176,0.785-4.679,2.017-6.954,3.311
		c-1.396,0.795-3.109,2.192-4.636,3.312c-4.189,3.072-8.205,7.835-10.927,12.914c-2.162,4.035-3.716,8.456-4.636,14.239
		c-0.086,0.54,0.561,1.97-0.662,1.987c-0.29-5.677-1.776-10.862-3.974-15.232c-0.517-1.028-1.313-1.899-1.987-2.98
		c-0.248-0.4-0.397-1.271-0.662-1.656c-0.167-0.244-0.465-0.366-0.662-0.662c-0.564-0.851-1.79-1.975-2.648-2.98
		c-0.228-0.266-0.101-0.745-0.332-0.993c-6.086-6.537-15.661-12.417-27.814-13.245c0.922-1.289,2.604-0.506,3.643-0.662
		c0.549-0.083,1.074-0.23,1.655-0.331c1.174-0.205,2.068-0.663,3.312-0.994c1.093-0.291,1.802-0.571,2.98-0.993
		c4.016-1.439,8.318-3.908,11.589-6.623C409.989,192.695,415.911,183.454,417.219,170.199z M250,170.199
		c1.493,12.231,6.365,20.888,13.576,27.483c0.275,0.251,0.318,0.435,0.662,0.662c0.088,0.058,0.543,0.23,0.662,0.331
		c0.836,0.707,1.443,1.699,2.318,2.318c0.304,0.216,0.701,0.15,0.993,0.332c0.216,0.134,0.467,0.545,0.662,0.662
		c2.132,1.28,5.223,2.953,7.947,3.974c2.764,1.035,6.126,1.704,9.603,2.318c0.356,0.062,1.771-0.508,1.655,0.662
		c-3.817,0.083-7.455,0.853-10.596,1.987c-2.175,0.785-4.679,2.017-6.954,3.311c-1.396,0.795-3.109,2.192-4.635,3.312
		c-4.19,3.072-8.205,7.835-10.928,12.914c-2.162,4.035-3.716,8.456-4.636,14.239c-0.086,0.54,0.561,1.97-0.662,1.987
		c-0.29-5.677-1.776-10.862-3.974-15.232c-0.517-1.028-1.313-1.899-1.987-2.98c-0.249-0.4-0.398-1.271-0.662-1.656
		c-0.167-0.244-0.465-0.366-0.662-0.662c-0.564-0.851-1.791-1.975-2.649-2.98c-0.227-0.266-0.1-0.745-0.331-0.993
		c-6.086-6.537-15.662-12.417-27.814-13.245c0.921-1.289,2.604-0.506,3.643-0.662c0.549-0.083,1.074-0.23,1.655-0.331
		c1.173-0.205,2.068-0.663,3.312-0.994c1.093-0.291,1.801-0.571,2.98-0.993c4.016-1.439,8.318-3.908,11.589-6.623
		C242.771,192.695,248.692,183.454,250,170.199z M82.781,170.199c1.494,12.231,6.365,20.888,13.576,27.483
		c0.275,0.251,0.319,0.435,0.663,0.662c0.088,0.058,0.543,0.23,0.662,0.331c0.835,0.707,1.443,1.699,2.318,2.318
		c0.304,0.216,0.701,0.15,0.993,0.332c0.216,0.134,0.467,0.545,0.663,0.662c2.131,1.28,5.222,2.953,7.947,3.974
		c2.764,1.035,6.126,1.704,9.603,2.318c0.357,0.062,1.771-0.508,1.656,0.662c-3.818,0.083-7.455,0.853-10.596,1.987
		c-2.175,0.785-4.679,2.017-6.954,3.311c-1.397,0.795-3.11,2.192-4.636,3.312c-4.189,3.072-8.205,7.835-10.927,12.914
		c-2.162,4.035-3.716,8.456-4.636,14.239c-0.086,0.54,0.561,1.97-0.663,1.987c-0.29-5.677-1.776-10.862-3.973-15.232
		c-0.517-1.028-1.313-1.899-1.987-2.98c-0.249-0.4-0.398-1.271-0.663-1.656c-0.167-0.244-0.465-0.366-0.662-0.662
		c-0.564-0.851-1.791-1.975-2.649-2.98c-0.227-0.266-0.101-0.745-0.331-0.993c-6.086-6.537-15.662-12.417-27.814-13.245
		c0.921-1.289,2.604-0.506,3.642-0.662c0.549-0.083,1.075-0.23,1.656-0.331c1.173-0.205,2.067-0.663,3.311-0.994
		c1.093-0.291,1.801-0.571,2.98-0.993c4.016-1.439,8.318-3.908,11.589-6.623C75.553,192.695,81.474,183.454,82.781,170.199z
		 M417.219,2.98c1.493,12.231,6.365,20.889,13.576,27.483c0.275,0.252,0.318,0.435,0.662,0.663c0.088,0.058,0.543,0.23,0.662,0.331
		c0.836,0.707,1.443,1.698,2.318,2.318c0.304,0.215,0.701,0.149,0.993,0.331c0.216,0.134,0.467,0.545,0.662,0.662
		c2.132,1.281,5.223,2.954,7.947,3.974c2.764,1.035,6.126,1.704,9.603,2.318c0.356,0.063,1.771-0.508,1.655,0.662
		c-3.817,0.083-7.455,0.853-10.596,1.987c-2.176,0.786-4.679,2.017-6.954,3.312c-1.396,0.794-3.109,2.192-4.636,3.311
		c-4.189,3.072-8.205,7.835-10.927,12.914c-2.162,4.034-3.716,8.455-4.636,14.238c-0.086,0.54,0.561,1.971-0.662,1.987
		c-0.29-5.677-1.776-10.861-3.974-15.232c-0.517-1.028-1.313-1.898-1.987-2.98c-0.248-0.4-0.397-1.271-0.662-1.656
		c-0.167-0.244-0.465-0.365-0.662-0.662c-0.564-0.851-1.79-1.975-2.648-2.98c-0.228-0.266-0.101-0.746-0.332-0.994
		c-6.086-6.537-15.661-12.417-27.814-13.245c0.922-1.289,2.604-0.506,3.643-0.662c0.549-0.083,1.074-0.229,1.655-0.331
		c1.174-0.205,2.068-0.663,3.312-0.994c1.093-0.29,1.802-0.571,2.98-0.993c4.016-1.438,8.318-3.908,11.589-6.623
		C409.989,25.477,415.911,16.235,417.219,2.98z M250,2.98c1.493,12.231,6.365,20.889,13.576,27.483
		c0.275,0.252,0.318,0.435,0.662,0.663c0.088,0.058,0.543,0.23,0.662,0.331c0.836,0.707,1.443,1.698,2.318,2.318
		c0.304,0.215,0.701,0.149,0.993,0.331c0.216,0.134,0.467,0.545,0.662,0.662c2.132,1.281,5.223,2.954,7.947,3.974
		c2.764,1.035,6.126,1.704,9.603,2.318c0.356,0.063,1.771-0.508,1.655,0.662c-3.817,0.083-7.455,0.853-10.596,1.987
		c-2.175,0.786-4.679,2.017-6.954,3.312c-1.396,0.794-3.109,2.192-4.635,3.311c-4.19,3.072-8.205,7.835-10.928,12.914
		c-2.162,4.034-3.716,8.455-4.636,14.238c-0.086,0.54,0.561,1.971-0.662,1.987c-0.29-5.677-1.776-10.861-3.974-15.232
		c-0.517-1.028-1.313-1.898-1.987-2.98c-0.249-0.4-0.398-1.271-0.662-1.656c-0.167-0.244-0.465-0.365-0.662-0.662
		c-0.564-0.851-1.791-1.975-2.649-2.98c-0.227-0.266-0.1-0.746-0.331-0.994c-6.086-6.537-15.662-12.417-27.814-13.245
		c0.921-1.289,2.604-0.506,3.643-0.662c0.549-0.083,1.074-0.229,1.655-0.331c1.173-0.205,2.068-0.663,3.312-0.994
		c1.093-0.29,1.801-0.571,2.98-0.993c4.016-1.438,8.318-3.908,11.589-6.623C242.771,25.477,248.692,16.235,250,2.98z M82.781,2.98
		c1.494,12.231,6.365,20.889,13.576,27.483c0.275,0.252,0.319,0.435,0.663,0.663c0.088,0.058,0.543,0.23,0.662,0.331
		c0.835,0.707,1.443,1.698,2.318,2.318c0.304,0.215,0.701,0.149,0.993,0.331c0.216,0.134,0.467,0.545,0.663,0.662
		c2.131,1.281,5.222,2.954,7.947,3.974c2.764,1.035,6.126,1.704,9.603,2.318c0.357,0.063,1.771-0.508,1.656,0.662
		c-3.818,0.083-7.455,0.853-10.596,1.987c-2.175,0.786-4.679,2.017-6.954,3.312c-1.397,0.794-3.11,2.192-4.636,3.311
		c-4.189,3.072-8.205,7.835-10.927,12.914c-2.162,4.034-3.716,8.455-4.636,14.238c-0.086,0.54,0.561,1.971-0.663,1.987
		c-0.29-5.677-1.776-10.861-3.973-15.232c-0.517-1.028-1.313-1.898-1.987-2.98c-0.249-0.4-0.398-1.271-0.663-1.656
		c-0.167-0.244-0.465-0.365-0.662-0.662c-0.564-0.851-1.791-1.975-2.649-2.98c-0.227-0.266-0.101-0.746-0.331-0.994
		C66.099,48.43,56.524,42.55,44.371,41.722c0.921-1.289,2.604-0.506,3.642-0.662c0.549-0.083,1.075-0.229,1.656-0.331
		c1.173-0.205,2.067-0.663,3.311-0.994c1.093-0.29,1.801-0.571,2.98-0.993c4.016-1.438,8.318-3.908,11.589-6.623
		C75.553,25.477,81.474,16.235,82.781,2.98z M334.438,413.245c0.906-3.284,1.587-8.083,2.979-11.59
		c2.013-5.067,5.7-10.147,9.603-13.907c3.213-3.095,6.64-5.908,10.928-7.946c1.555-0.739,3.542-1.435,5.298-1.987
		c2.344-0.737,4.805-1.159,7.616-1.655c0.303-0.054,1.823,0.483,1.655-0.662c-11.424-0.693-19.69-5.783-25.828-11.921
		c-3.119-3.12-5.886-6.689-7.946-10.927c-2.108-4.335-3.219-9.138-4.305-14.57C334.438,363.135,334.438,388.189,334.438,413.245z
		 M167.219,413.245c0.907-3.284,1.587-8.083,2.98-11.59c2.012-5.067,5.7-10.147,9.603-13.907c3.213-3.095,6.639-5.908,10.927-7.946
		c1.555-0.739,3.542-1.435,5.298-1.987c2.344-0.737,4.805-1.159,7.616-1.655c0.303-0.054,1.824,0.483,1.655-0.662
		c-11.423-0.693-19.69-5.783-25.828-11.921c-3.12-3.12-5.886-6.689-7.947-10.927c-2.108-4.335-3.219-9.138-4.304-14.57
		C167.219,363.135,167.219,388.189,167.219,413.245z M0,413.245c0.907-3.284,1.587-8.083,2.98-11.59
		c2.013-5.067,5.7-10.147,9.603-13.907c3.212-3.095,6.639-5.908,10.927-7.946c1.555-0.739,3.542-1.435,5.298-1.987
		c2.344-0.737,4.805-1.159,7.616-1.655c0.303-0.054,1.824,0.483,1.656-0.662c-11.424-0.693-19.69-5.783-25.828-11.921
		c-3.12-3.12-5.886-6.689-7.947-10.927c-2.108-4.335-3.219-9.138-4.305-14.57C0,363.135,0,388.189,0,413.245z M334.438,246.026
		c0.906-3.284,1.587-8.083,2.979-11.589c2.013-5.068,5.7-10.148,9.603-13.907c3.213-3.095,6.64-5.909,10.928-7.947
		c1.555-0.739,3.542-1.435,5.298-1.987c2.344-0.737,4.805-1.16,7.616-1.656c0.303-0.054,1.823,0.483,1.655-0.662
		c-11.424-0.693-19.69-5.783-25.828-11.921c-3.119-3.12-5.886-6.689-7.946-10.927c-2.108-4.335-3.219-9.138-4.305-14.57
		C334.438,195.916,334.438,220.971,334.438,246.026z M167.219,246.026c0.907-3.284,1.587-8.083,2.98-11.589
		c2.012-5.068,5.7-10.148,9.603-13.907c3.213-3.095,6.639-5.909,10.927-7.947c1.555-0.739,3.542-1.435,5.298-1.987
		c2.344-0.737,4.805-1.16,7.616-1.656c0.303-0.054,1.824,0.483,1.655-0.662c-11.423-0.693-19.69-5.783-25.828-11.921
		c-3.12-3.12-5.886-6.689-7.947-10.927c-2.108-4.335-3.219-9.138-4.304-14.57C167.219,195.916,167.219,220.971,167.219,246.026z
		 M0,246.026c0.907-3.284,1.587-8.083,2.98-11.589c2.013-5.068,5.7-10.148,9.603-13.907c3.212-3.095,6.639-5.909,10.927-7.947
		c1.555-0.739,3.542-1.435,5.298-1.987c2.344-0.737,4.805-1.16,7.616-1.656c0.303-0.054,1.824,0.483,1.656-0.662
		c-11.424-0.693-19.69-5.783-25.828-11.921c-3.12-3.12-5.886-6.689-7.947-10.927c-2.108-4.335-3.219-9.138-4.305-14.57
		C0,195.916,0,220.971,0,246.026z M334.438,78.808c0.906-3.284,1.587-8.083,2.979-11.589c2.013-5.068,5.7-10.148,9.603-13.908
		c3.213-3.095,6.64-5.909,10.928-7.947c1.555-0.739,3.542-1.435,5.298-1.987c2.344-0.737,4.805-1.16,7.616-1.656
		c0.303-0.054,1.823,0.483,1.655-0.662c-11.424-0.693-19.69-5.783-25.828-11.92c-3.119-3.12-5.886-6.689-7.946-10.927
		c-2.108-4.334-3.219-9.137-4.305-14.569C334.438,28.697,334.438,53.752,334.438,78.808z M167.219,78.808
		c0.907-3.284,1.587-8.083,2.98-11.589c2.012-5.068,5.7-10.148,9.603-13.908c3.213-3.095,6.639-5.909,10.927-7.947
		c1.555-0.739,3.542-1.435,5.298-1.987c2.344-0.737,4.805-1.16,7.616-1.656c0.303-0.054,1.824,0.483,1.655-0.662
		c-11.423-0.693-19.69-5.783-25.828-11.92c-3.12-3.12-5.886-6.689-7.947-10.927c-2.108-4.334-3.219-9.137-4.304-14.569
		C167.219,28.697,167.219,53.752,167.219,78.808z M0,78.808c0.907-3.284,1.587-8.083,2.98-11.589
		c2.013-5.068,5.7-10.148,9.603-13.908c3.212-3.095,6.639-5.909,10.927-7.947c1.555-0.739,3.542-1.435,5.298-1.987
		c2.344-0.737,4.805-1.16,7.616-1.656c0.303-0.054,1.824,0.483,1.656-0.662c-11.424-0.693-19.69-5.783-25.828-11.92
		c-3.12-3.12-5.886-6.689-7.947-10.927C2.196,13.877,1.086,9.075,0,3.643C0,28.697,0,53.752,0,78.808z M499.669,339.073
		c-1.319,13.27-8.103,21.896-16.226,28.477c-0.759,0.614-1.266,0.998-2.317,1.655c-0.394,0.246-0.976,0.452-1.324,0.662
		c-0.369,0.223-0.604,0.771-0.994,0.994c-0.252,0.144-0.73-0.125-0.993,0c-0.159,0.075-0.2,0.598-0.331,0.662
		c-0.87,0.428-1.975,0.57-2.98,0.993c-0.946,0.398-2.007,1.007-2.979,1.324c-0.596,0.194-1.009,0.144-1.656,0.331
		c-0.911,0.266-2.957,1.055-4.636,1.325c-0.977,0.157-2.616-0.585-3.311,0.662c6.33,0.32,12.026,2.275,16.556,4.967
		c0.39,0.231,0.38,0.06,0.662,0.331c0.331,0.317,1.913,0.831,2.649,1.324c0.62,0.416,1.043,1.174,1.655,1.656
		c0.271,0.214,0.436,0.113,0.662,0.331c0.125,0.118,0.913,0.641,1.325,0.993c3.259,2.789,6.615,6.63,8.94,10.596
		c2.766,4.718,4.387,10.349,5.629,16.557c0-24.613,0-49.228,0-73.841C499.89,339.073,499.779,339.073,499.669,339.073z
		 M332.45,339.073c-1.319,13.27-8.103,21.896-16.225,28.477c-0.76,0.614-1.267,0.998-2.318,1.655
		c-0.394,0.246-0.976,0.452-1.324,0.662c-0.369,0.223-0.604,0.771-0.993,0.994c-0.252,0.144-0.73-0.125-0.994,0
		c-0.159,0.075-0.199,0.598-0.331,0.662c-0.87,0.428-1.975,0.57-2.979,0.993c-0.947,0.398-2.008,1.007-2.98,1.324
		c-0.596,0.194-1.009,0.144-1.655,0.331c-0.912,0.266-2.958,1.055-4.636,1.325c-0.977,0.157-2.617-0.585-3.312,0.662
		c6.33,0.32,12.026,2.275,16.556,4.967c0.39,0.231,0.38,0.06,0.663,0.331c0.331,0.317,1.912,0.831,2.648,1.324
		c0.621,0.416,1.043,1.174,1.656,1.656c0.271,0.214,0.436,0.113,0.662,0.331c0.124,0.118,0.912,0.641,1.324,0.993
		c3.259,2.789,6.615,6.63,8.94,10.596c2.766,4.718,4.387,10.349,5.629,16.557c0-24.613,0-49.228,0-73.841
		C332.671,339.073,332.561,339.073,332.45,339.073z M165.232,339.073c-1.32,13.27-8.103,21.896-16.225,28.477
		c-0.759,0.614-1.266,0.998-2.318,1.655c-0.394,0.246-0.976,0.452-1.325,0.662c-0.369,0.223-0.604,0.771-0.993,0.994
		c-0.252,0.144-0.73-0.125-0.994,0c-0.159,0.075-0.2,0.598-0.331,0.662c-0.87,0.428-1.975,0.57-2.98,0.993
		c-0.947,0.398-2.008,1.007-2.98,1.324c-0.595,0.194-1.009,0.144-1.655,0.331c-0.912,0.266-2.958,1.055-4.636,1.325
		c-0.977,0.157-2.617-0.585-3.312,0.662c6.33,0.32,12.027,2.275,16.556,4.967c0.39,0.231,0.38,0.06,0.663,0.331
		c0.331,0.317,1.913,0.831,2.649,1.324c0.621,0.416,1.043,1.174,1.656,1.656c0.271,0.214,0.436,0.113,0.662,0.331
		c0.124,0.118,0.912,0.641,1.324,0.993c3.259,2.789,6.615,6.63,8.94,10.596c2.766,4.718,4.387,10.349,5.629,16.557
		c0-24.613,0-49.228,0-73.841C165.453,339.073,165.342,339.073,165.232,339.073z M499.669,171.854
		c-1.319,13.27-8.103,21.897-16.226,28.477c-0.759,0.614-1.266,0.999-2.317,1.656c-0.394,0.246-0.976,0.452-1.324,0.662
		c-0.369,0.223-0.604,0.771-0.994,0.994c-0.252,0.144-0.73-0.125-0.993,0c-0.159,0.076-0.2,0.597-0.331,0.662
		c-0.87,0.428-1.975,0.57-2.98,0.993c-0.946,0.398-2.007,1.007-2.979,1.325c-0.596,0.194-1.009,0.143-1.656,0.331
		c-0.911,0.265-2.957,1.055-4.636,1.325c-0.977,0.157-2.616-0.585-3.311,0.662c6.33,0.32,12.026,2.275,16.556,4.967
		c0.39,0.231,0.38,0.06,0.662,0.331c0.331,0.317,1.913,0.832,2.649,1.325c0.62,0.416,1.043,1.173,1.655,1.656
		c0.271,0.214,0.436,0.114,0.662,0.331c0.125,0.119,0.913,0.641,1.325,0.993c3.259,2.79,6.615,6.63,8.94,10.596
		c2.766,4.717,4.387,10.348,5.629,16.556c0-24.613,0-49.228,0-73.841C499.89,171.854,499.779,171.854,499.669,171.854z
		 M332.45,171.854c-1.319,13.27-8.103,21.897-16.225,28.477c-0.76,0.614-1.267,0.999-2.318,1.656
		c-0.394,0.246-0.976,0.452-1.324,0.662c-0.369,0.223-0.604,0.771-0.993,0.994c-0.252,0.144-0.73-0.125-0.994,0
		c-0.159,0.076-0.199,0.597-0.331,0.662c-0.87,0.428-1.975,0.57-2.979,0.993c-0.947,0.398-2.008,1.007-2.98,1.325
		c-0.596,0.194-1.009,0.143-1.655,0.331c-0.912,0.265-2.958,1.055-4.636,1.325c-0.977,0.157-2.617-0.585-3.312,0.662
		c6.33,0.32,12.026,2.275,16.556,4.967c0.39,0.231,0.38,0.06,0.663,0.331c0.331,0.317,1.912,0.832,2.648,1.325
		c0.621,0.416,1.043,1.173,1.656,1.656c0.271,0.214,0.436,0.114,0.662,0.331c0.124,0.119,0.912,0.641,1.324,0.993
		c3.259,2.79,6.615,6.63,8.94,10.596c2.766,4.717,4.387,10.348,5.629,16.556c0-24.613,0-49.228,0-73.841
		C332.671,171.854,332.561,171.854,332.45,171.854z M165.232,171.854c-1.32,13.27-8.103,21.897-16.225,28.477
		c-0.759,0.614-1.266,0.999-2.318,1.656c-0.394,0.246-0.976,0.452-1.325,0.662c-0.369,0.223-0.604,0.771-0.993,0.994
		c-0.252,0.144-0.73-0.125-0.994,0c-0.159,0.076-0.2,0.597-0.331,0.662c-0.87,0.428-1.975,0.57-2.98,0.993
		c-0.947,0.398-2.008,1.007-2.98,1.325c-0.595,0.194-1.009,0.143-1.655,0.331c-0.912,0.265-2.958,1.055-4.636,1.325
		c-0.977,0.157-2.617-0.585-3.312,0.662c6.33,0.32,12.027,2.275,16.556,4.967c0.39,0.231,0.38,0.06,0.663,0.331
		c0.331,0.317,1.913,0.832,2.649,1.325c0.621,0.416,1.043,1.173,1.656,1.656c0.271,0.214,0.436,0.114,0.662,0.331
		c0.124,0.119,0.912,0.641,1.324,0.993c3.259,2.79,6.615,6.63,8.94,10.596c2.766,4.717,4.387,10.348,5.629,16.556
		c0-24.613,0-49.228,0-73.841C165.453,171.854,165.342,171.854,165.232,171.854z M499.669,4.636
		c-1.319,13.27-8.103,21.897-16.226,28.477c-0.759,0.614-1.266,0.998-2.317,1.655c-0.394,0.246-0.976,0.452-1.324,0.663
		c-0.369,0.222-0.604,0.771-0.994,0.993c-0.252,0.144-0.73-0.125-0.993,0c-0.159,0.076-0.2,0.598-0.331,0.662
		c-0.87,0.429-1.975,0.571-2.98,0.994c-0.946,0.398-2.007,1.006-2.979,1.324c-0.596,0.194-1.009,0.143-1.656,0.331
		c-0.911,0.266-2.957,1.055-4.636,1.325c-0.977,0.157-2.616-0.584-3.311,0.662c6.33,0.321,12.026,2.275,16.556,4.967
		c0.39,0.231,0.38,0.06,0.662,0.331c0.331,0.317,1.913,0.831,2.649,1.324c0.62,0.416,1.043,1.174,1.655,1.656
		c0.271,0.214,0.436,0.114,0.662,0.331c0.125,0.119,0.913,0.641,1.325,0.994c3.259,2.79,6.615,6.63,8.94,10.596
		c2.766,4.718,4.387,10.348,5.629,16.557c0-24.614,0-49.228,0-73.841C499.89,4.636,499.779,4.636,499.669,4.636z M332.45,4.636
		c-1.319,13.27-8.103,21.897-16.225,28.477c-0.76,0.614-1.267,0.998-2.318,1.655c-0.394,0.246-0.976,0.452-1.324,0.663
		c-0.369,0.222-0.604,0.771-0.993,0.993c-0.252,0.144-0.73-0.125-0.994,0c-0.159,0.076-0.199,0.598-0.331,0.662
		c-0.87,0.429-1.975,0.571-2.979,0.994c-0.947,0.398-2.008,1.006-2.98,1.324c-0.596,0.194-1.009,0.143-1.655,0.331
		c-0.912,0.266-2.958,1.055-4.636,1.325c-0.977,0.157-2.617-0.584-3.312,0.662c6.33,0.321,12.026,2.275,16.556,4.967
		c0.39,0.231,0.38,0.06,0.663,0.331c0.331,0.317,1.912,0.831,2.648,1.324c0.621,0.416,1.043,1.174,1.656,1.656
		c0.271,0.214,0.436,0.114,0.662,0.331c0.124,0.119,0.912,0.641,1.324,0.994c3.259,2.79,6.615,6.63,8.94,10.596
		c2.766,4.718,4.387,10.348,5.629,16.557c0-24.614,0-49.228,0-73.841C332.671,4.636,332.561,4.636,332.45,4.636z M165.232,4.636
		c-1.32,13.27-8.103,21.897-16.225,28.477c-0.759,0.614-1.266,0.998-2.318,1.655c-0.394,0.246-0.976,0.452-1.325,0.663
		c-0.369,0.222-0.604,0.771-0.993,0.993c-0.252,0.144-0.73-0.125-0.994,0c-0.159,0.076-0.2,0.598-0.331,0.662
		c-0.87,0.429-1.975,0.571-2.98,0.994c-0.947,0.398-2.008,1.006-2.98,1.324c-0.595,0.194-1.009,0.143-1.655,0.331
		c-0.912,0.266-2.958,1.055-4.636,1.325c-0.977,0.157-2.617-0.584-3.312,0.662c6.33,0.321,12.027,2.275,16.556,4.967
		c0.39,0.231,0.38,0.06,0.663,0.331c0.331,0.317,1.913,0.831,2.649,1.324c0.621,0.416,1.043,1.174,1.656,1.656
		c0.271,0.214,0.436,0.114,0.662,0.331c0.124,0.119,0.912,0.641,1.324,0.994c3.259,2.79,6.615,6.63,8.94,10.596
		c2.766,4.718,4.387,10.348,5.629,16.557c0-24.614,0-49.228,0-73.841C165.453,4.636,165.342,4.636,165.232,4.636z M414.569,432.119
		c-0.684,1.811-1.566,3.55-2.317,4.967c-0.343,0.646-0.781,0.972-0.994,1.324c-0.263,0.439-0.391,1.225-0.662,1.656
		c-0.45,0.715-1.326,1.49-1.655,1.986c-0.42,0.633-0.655,1.213-0.993,1.656c-0.372,0.486-1.074,0.724-1.325,0.993
		c-0.233,0.251-0.103,0.719-0.331,0.993c-1.177,1.418-2.655,2.226-3.973,3.312c-0.157,0.129-0.178,0.519-0.332,0.662
		c-0.261,0.242-0.695,0.104-0.993,0.331c-0.149,0.114-0.187,0.527-0.331,0.662c-0.732,0.682-1.653,0.901-2.317,1.324
		c-4.49,2.863-9.277,4.927-15.232,5.961c-1.27,0.221-2.806,0.086-3.974,0.993c5.634,0.271,10.599,1.859,14.901,3.974
		c11.575,5.689,20.029,15.883,22.517,30.132c0.243,1.396,0.013,3.222,0.993,3.974c-0.104-3.929,1.218-7.652,1.986-9.934
		c0.283-0.84,0.344-1.854,0.662-2.648c0.62-1.546,1.543-2.908,2.318-4.305c4.641-8.359,11.846-15.069,20.529-18.543
		c1.889-0.756,3.891-1.138,5.961-1.656c0.438-0.109,0.928-0.593,1.324-0.662c2.111-0.367,3.802,0.223,4.967-0.993
		c-11.383-0.614-19.714-5.808-25.828-11.921c-6.198-6.199-11.217-14.53-11.92-25.828c-0.019-0.201-0.049-0.392-0.331-0.331
		C416.756,424.755,415.797,428.871,414.569,432.119z M247.351,432.119c-0.684,1.811-1.566,3.55-2.318,4.967
		c-0.343,0.646-0.781,0.972-0.994,1.324c-0.263,0.439-0.391,1.225-0.662,1.656c-0.45,0.715-1.326,1.49-1.656,1.986
		c-0.419,0.633-0.655,1.213-0.993,1.656c-0.372,0.486-1.074,0.724-1.325,0.993c-0.234,0.251-0.104,0.719-0.331,0.993
		c-1.177,1.418-2.655,2.226-3.974,3.312c-0.157,0.129-0.177,0.519-0.331,0.662c-0.261,0.242-0.696,0.104-0.993,0.331
		c-0.15,0.114-0.187,0.527-0.331,0.662c-0.732,0.682-1.653,0.901-2.318,1.324c-4.49,2.863-9.277,4.927-15.232,5.961
		c-1.27,0.221-2.806,0.086-3.974,0.993c5.633,0.271,10.599,1.859,14.901,3.974c11.576,5.689,20.029,15.883,22.517,30.132
		c0.244,1.396,0.013,3.222,0.993,3.974c-0.104-3.929,1.218-7.652,1.987-9.934c0.283-0.84,0.343-1.854,0.662-2.648
		c0.619-1.546,1.542-2.908,2.317-4.305c4.641-8.359,11.847-15.069,20.53-18.543c1.888-0.756,3.89-1.138,5.96-1.656
		c0.438-0.109,0.928-0.593,1.324-0.662c2.111-0.367,3.802,0.223,4.967-0.993c-11.383-0.614-19.714-5.808-25.827-11.921
		c-6.199-6.199-11.218-14.53-11.921-25.828c-0.019-0.201-0.049-0.392-0.331-0.331C249.538,424.755,248.578,428.871,247.351,432.119z
		 M80.132,432.119c-0.684,1.811-1.566,3.55-2.318,4.967c-0.342,0.646-0.781,0.972-0.993,1.324c-0.263,0.439-0.391,1.225-0.662,1.656
		c-0.451,0.715-1.326,1.49-1.656,1.986c-0.419,0.633-0.655,1.213-0.994,1.656c-0.372,0.486-1.073,0.724-1.324,0.993
		c-0.234,0.251-0.104,0.719-0.331,0.993c-1.177,1.418-2.656,2.226-3.974,3.312c-0.157,0.129-0.177,0.519-0.331,0.662
		c-0.261,0.242-0.696,0.104-0.994,0.331c-0.149,0.114-0.186,0.527-0.331,0.662c-0.732,0.682-1.653,0.901-2.318,1.324
		c-4.49,2.863-9.276,4.927-15.232,5.961c-1.27,0.221-2.806,0.086-3.973,0.993c5.633,0.271,10.599,1.859,14.9,3.974
		c11.576,5.689,20.029,15.883,22.517,30.132c0.244,1.396,0.013,3.222,0.994,3.974c-0.104-3.929,1.217-7.652,1.986-9.934
		c0.284-0.84,0.344-1.854,0.663-2.648c0.62-1.546,1.542-2.908,2.318-4.305c4.64-8.359,11.846-15.069,20.53-18.543
		c1.888-0.756,3.89-1.138,5.96-1.656c0.438-0.109,0.928-0.593,1.325-0.662c2.111-0.367,3.801,0.223,4.967-0.993
		c-11.383-0.614-19.714-5.808-25.828-11.921c-6.199-6.199-11.218-14.53-11.92-25.828c-0.019-0.201-0.049-0.392-0.332-0.331
		C82.319,424.755,81.359,428.871,80.132,432.119z M414.569,264.9c-0.684,1.811-1.566,3.55-2.317,4.967
		c-0.343,0.646-0.781,0.972-0.994,1.325c-0.263,0.438-0.391,1.224-0.662,1.655c-0.45,0.715-1.326,1.49-1.655,1.986
		c-0.42,0.633-0.655,1.213-0.993,1.656c-0.372,0.486-1.074,0.725-1.325,0.993c-0.233,0.252-0.103,0.719-0.331,0.993
		c-1.177,1.419-2.655,2.226-3.973,3.312c-0.157,0.129-0.178,0.519-0.332,0.662c-0.261,0.242-0.695,0.104-0.993,0.331
		c-0.149,0.114-0.187,0.527-0.331,0.662c-0.732,0.682-1.653,0.901-2.317,1.325c-4.49,2.862-9.277,4.926-15.232,5.96
		c-1.27,0.221-2.806,0.086-3.974,0.993c5.634,0.271,10.599,1.859,14.901,3.974c11.575,5.689,20.029,15.884,22.517,30.133
		c0.243,1.396,0.013,3.221,0.993,3.974c-0.104-3.93,1.218-7.653,1.986-9.935c0.283-0.84,0.344-1.853,0.662-2.648
		c0.62-1.546,1.543-2.907,2.318-4.305c4.641-8.358,11.846-15.069,20.529-18.543c1.889-0.756,3.891-1.138,5.961-1.656
		c0.438-0.109,0.928-0.593,1.324-0.662c2.111-0.367,3.802,0.224,4.967-0.993c-11.383-0.614-19.714-5.807-25.828-11.921
		c-6.198-6.198-11.217-14.53-11.92-25.827c-0.019-0.202-0.049-0.393-0.331-0.331C416.756,257.536,415.797,261.652,414.569,264.9z
		 M247.351,264.9c-0.684,1.811-1.566,3.55-2.318,4.967c-0.343,0.646-0.781,0.972-0.994,1.325c-0.263,0.438-0.391,1.224-0.662,1.655
		c-0.45,0.715-1.326,1.49-1.656,1.986c-0.419,0.633-0.655,1.213-0.993,1.656c-0.372,0.486-1.074,0.725-1.325,0.993
		c-0.234,0.252-0.104,0.719-0.331,0.993c-1.177,1.419-2.655,2.226-3.974,3.312c-0.157,0.129-0.177,0.519-0.331,0.662
		c-0.261,0.242-0.696,0.104-0.993,0.331c-0.15,0.114-0.187,0.527-0.331,0.662c-0.732,0.682-1.653,0.901-2.318,1.325
		c-4.49,2.862-9.277,4.926-15.232,5.96c-1.27,0.221-2.806,0.086-3.974,0.993c5.633,0.271,10.599,1.859,14.901,3.974
		c11.576,5.689,20.029,15.884,22.517,30.133c0.244,1.396,0.013,3.221,0.993,3.974c-0.104-3.93,1.218-7.653,1.987-9.935
		c0.283-0.84,0.343-1.853,0.662-2.648c0.619-1.546,1.542-2.907,2.317-4.305c4.641-8.358,11.847-15.069,20.53-18.543
		c1.888-0.756,3.89-1.138,5.96-1.656c0.438-0.109,0.928-0.593,1.324-0.662c2.111-0.367,3.802,0.224,4.967-0.993
		c-11.383-0.614-19.714-5.807-25.827-11.921c-6.199-6.198-11.218-14.53-11.921-25.827c-0.019-0.202-0.049-0.393-0.331-0.331
		C249.538,257.536,248.578,261.652,247.351,264.9z M80.132,264.9c-0.684,1.811-1.566,3.55-2.318,4.967
		c-0.342,0.646-0.781,0.972-0.993,1.325c-0.263,0.438-0.391,1.224-0.662,1.655c-0.451,0.715-1.326,1.49-1.656,1.986
		c-0.419,0.633-0.655,1.213-0.994,1.656c-0.372,0.486-1.073,0.725-1.324,0.993c-0.234,0.252-0.104,0.719-0.331,0.993
		c-1.177,1.419-2.656,2.226-3.974,3.312c-0.157,0.129-0.177,0.519-0.331,0.662c-0.261,0.242-0.696,0.104-0.994,0.331
		c-0.149,0.114-0.186,0.527-0.331,0.662c-0.732,0.682-1.653,0.901-2.318,1.325c-4.49,2.862-9.276,4.926-15.232,5.96
		c-1.27,0.221-2.806,0.086-3.973,0.993c5.633,0.271,10.599,1.859,14.9,3.974c11.576,5.689,20.029,15.884,22.517,30.133
		c0.244,1.396,0.013,3.221,0.994,3.974c-0.104-3.93,1.217-7.653,1.986-9.935c0.284-0.84,0.344-1.853,0.663-2.648
		c0.62-1.546,1.542-2.907,2.318-4.305c4.64-8.358,11.846-15.069,20.53-18.543c1.888-0.756,3.89-1.138,5.96-1.656
		c0.438-0.109,0.928-0.593,1.325-0.662c2.111-0.367,3.801,0.224,4.967-0.993c-11.383-0.614-19.714-5.807-25.828-11.921
		c-6.199-6.198-11.218-14.53-11.92-25.827c-0.019-0.202-0.049-0.393-0.332-0.331C82.319,257.536,81.359,261.652,80.132,264.9z
		 M414.569,97.682c-0.684,1.811-1.566,3.55-2.317,4.967c-0.343,0.646-0.781,0.972-0.994,1.325c-0.263,0.438-0.391,1.224-0.662,1.655
		c-0.45,0.715-1.326,1.491-1.655,1.987c-0.42,0.632-0.655,1.213-0.993,1.656c-0.372,0.486-1.074,0.725-1.325,0.994
		c-0.233,0.251-0.103,0.719-0.331,0.993c-1.177,1.418-2.655,2.226-3.973,3.311c-0.157,0.129-0.178,0.519-0.332,0.663
		c-0.261,0.242-0.695,0.104-0.993,0.331c-0.149,0.114-0.187,0.527-0.331,0.662c-0.732,0.682-1.653,0.901-2.317,1.325
		c-4.49,2.862-9.277,4.926-15.232,5.96c-1.27,0.221-2.806,0.086-3.974,0.994c5.634,0.271,10.599,1.859,14.901,3.974
		c11.575,5.689,20.029,15.883,22.517,30.132c0.243,1.396,0.013,3.221,0.993,3.974c-0.104-3.93,1.218-7.653,1.986-9.934
		c0.283-0.84,0.344-1.853,0.662-2.649c0.62-1.546,1.543-2.907,2.318-4.305c4.641-8.358,11.846-15.069,20.529-18.543
		c1.889-0.755,3.891-1.138,5.961-1.656c0.438-0.109,0.928-0.593,1.324-0.662c2.111-0.367,3.802,0.223,4.967-0.994
		c-11.383-0.614-19.714-5.807-25.828-11.92c-6.198-6.199-11.217-14.53-11.92-25.828c-0.019-0.202-0.049-0.392-0.331-0.331
		C416.756,90.317,415.797,94.434,414.569,97.682z M247.351,97.682c-0.684,1.811-1.566,3.55-2.318,4.967
		c-0.343,0.646-0.781,0.972-0.994,1.325c-0.263,0.438-0.391,1.224-0.662,1.655c-0.45,0.715-1.326,1.491-1.656,1.987
		c-0.419,0.632-0.655,1.213-0.993,1.656c-0.372,0.486-1.074,0.725-1.325,0.994c-0.234,0.251-0.104,0.719-0.331,0.993
		c-1.177,1.418-2.655,2.226-3.974,3.311c-0.157,0.129-0.177,0.519-0.331,0.663c-0.261,0.242-0.696,0.104-0.993,0.331
		c-0.15,0.114-0.187,0.527-0.331,0.662c-0.732,0.682-1.653,0.901-2.318,1.325c-4.49,2.862-9.277,4.926-15.232,5.96
		c-1.27,0.221-2.806,0.086-3.974,0.994c5.633,0.271,10.599,1.859,14.901,3.974c11.576,5.689,20.029,15.883,22.517,30.132
		c0.244,1.396,0.013,3.221,0.993,3.974c-0.104-3.93,1.218-7.653,1.987-9.934c0.283-0.84,0.343-1.853,0.662-2.649
		c0.619-1.546,1.542-2.907,2.317-4.305c4.641-8.358,11.847-15.069,20.53-18.543c1.888-0.755,3.89-1.138,5.96-1.656
		c0.438-0.109,0.928-0.593,1.324-0.662c2.111-0.367,3.802,0.223,4.967-0.994c-11.383-0.614-19.714-5.807-25.827-11.92
		c-6.199-6.199-11.218-14.53-11.921-25.828c-0.019-0.202-0.049-0.392-0.331-0.331C249.538,90.317,248.578,94.434,247.351,97.682z
		 M80.132,97.682c-0.684,1.811-1.566,3.55-2.318,4.967c-0.342,0.646-0.781,0.972-0.993,1.325c-0.263,0.438-0.391,1.224-0.662,1.655
		c-0.451,0.715-1.326,1.491-1.656,1.987c-0.419,0.632-0.655,1.213-0.994,1.656c-0.372,0.486-1.073,0.725-1.324,0.994
		c-0.234,0.251-0.104,0.719-0.331,0.993c-1.177,1.418-2.656,2.226-3.974,3.311c-0.157,0.129-0.177,0.519-0.331,0.663
		c-0.261,0.242-0.696,0.104-0.994,0.331c-0.149,0.114-0.186,0.527-0.331,0.662c-0.732,0.682-1.653,0.901-2.318,1.325
		c-4.49,2.862-9.276,4.926-15.232,5.96c-1.27,0.221-2.806,0.086-3.973,0.994c5.633,0.271,10.599,1.859,14.9,3.974
		c11.576,5.689,20.029,15.883,22.517,30.132c0.244,1.396,0.013,3.221,0.994,3.974c-0.104-3.93,1.217-7.653,1.986-9.934
		c0.284-0.84,0.344-1.853,0.663-2.649c0.62-1.546,1.542-2.907,2.318-4.305c4.64-8.358,11.846-15.069,20.53-18.543
		c1.888-0.755,3.89-1.138,5.96-1.656c0.438-0.109,0.928-0.593,1.325-0.662c2.111-0.367,3.801,0.223,4.967-0.994
		c-11.383-0.614-19.714-5.807-25.828-11.92c-6.199-6.199-11.218-14.53-11.92-25.828c-0.019-0.202-0.049-0.392-0.332-0.331
		C82.319,90.317,81.359,94.434,80.132,97.682z M334.438,496.026c0.875-3.817,1.846-8.812,3.311-12.252
		c2.111-4.954,5.418-9.532,9.271-13.245c1.052-1.013,1.602-1.593,2.98-2.648c0.107-0.082,0.233-0.618,0.331-0.662
		c0.557-0.251,0.981-0.51,1.655-0.993c0.803-0.575,1.995-1.043,2.98-1.987c0.812-0.778,3.905-2.092,5.298-2.648
		c1.894-0.758,3.837-1.125,5.961-1.656c0.568-0.143,0.854-0.58,1.324-0.662c1.119-0.195,2.423-0.087,3.643-0.331
		c0.616-0.124,1.071,0.111,0.993-0.662c-5.578-0.226-10.685-1.854-14.9-3.974c-6.386-3.21-11.225-7.669-15.232-13.245
		c-1.343-1.869-2.285-3.796-3.311-5.96c-0.939-1.98-1.907-3.863-2.649-6.623c-0.638-2.371-0.878-4.973-1.655-7.615
		C334.438,445.916,334.438,470.972,334.438,496.026z M167.219,496.026c0.875-3.817,1.846-8.812,3.311-12.252
		c2.111-4.954,5.417-9.532,9.271-13.245c1.052-1.013,1.602-1.593,2.98-2.648c0.108-0.082,0.234-0.618,0.332-0.662
		c0.557-0.251,0.981-0.51,1.655-0.993c0.802-0.575,1.995-1.043,2.98-1.987c0.812-0.778,3.905-2.092,5.298-2.648
		c1.894-0.758,3.837-1.125,5.96-1.656c0.569-0.143,0.854-0.58,1.324-0.662c1.119-0.195,2.423-0.087,3.643-0.331
		c0.617-0.124,1.071,0.111,0.993-0.662c-5.578-0.226-10.685-1.854-14.9-3.974c-6.386-3.21-11.225-7.669-15.232-13.245
		c-1.343-1.869-2.286-3.796-3.312-5.96c-0.938-1.98-1.907-3.863-2.649-6.623c-0.638-2.371-0.877-4.973-1.655-7.615
		C167.219,445.916,167.219,470.972,167.219,496.026z M0,496.026c0.875-3.817,1.846-8.812,3.311-12.252
		c2.111-4.954,5.418-9.532,9.272-13.245c1.051-1.013,1.602-1.593,2.98-2.648c0.107-0.082,0.234-0.618,0.331-0.662
		c0.557-0.251,0.981-0.51,1.656-0.993c0.802-0.575,1.994-1.043,2.98-1.987c0.812-0.778,3.906-2.092,5.298-2.648
		c1.894-0.758,3.837-1.125,5.96-1.656c0.569-0.143,0.854-0.58,1.325-0.662c1.119-0.195,2.422-0.087,3.642-0.331
		c0.617-0.124,1.072,0.111,0.994-0.662c-5.579-0.226-10.685-1.854-14.901-3.974c-6.385-3.21-11.225-7.669-15.232-13.245
		c-1.343-1.869-2.285-3.796-3.311-5.96c-0.939-1.98-1.907-3.863-2.649-6.623c-0.638-2.371-0.877-4.973-1.656-7.615
		C0,445.916,0,470.972,0,496.026z M334.438,328.808c0.875-3.817,1.846-8.812,3.311-12.251c2.111-4.955,5.418-9.533,9.271-13.245
		c1.052-1.014,1.602-1.594,2.98-2.649c0.107-0.082,0.233-0.618,0.331-0.662c0.557-0.251,0.981-0.51,1.655-0.993
		c0.803-0.575,1.995-1.043,2.98-1.987c0.812-0.777,3.905-2.091,5.298-2.648c1.894-0.758,3.837-1.125,5.961-1.656
		c0.568-0.143,0.854-0.58,1.324-0.662c1.119-0.194,2.423-0.087,3.643-0.331c0.616-0.123,1.071,0.111,0.993-0.662
		c-5.578-0.226-10.685-1.854-14.9-3.974c-6.386-3.21-11.225-7.668-15.232-13.245c-1.343-1.869-2.285-3.796-3.311-5.96
		c-0.939-1.98-1.907-3.863-2.649-6.623c-0.638-2.371-0.878-4.973-1.655-7.615C334.438,278.697,334.438,303.753,334.438,328.808z
		 M167.219,328.808c0.875-3.817,1.846-8.812,3.311-12.251c2.111-4.955,5.417-9.533,9.271-13.245c1.052-1.014,1.602-1.594,2.98-2.649
		c0.108-0.082,0.234-0.618,0.332-0.662c0.557-0.251,0.981-0.51,1.655-0.993c0.802-0.575,1.995-1.043,2.98-1.987
		c0.812-0.777,3.905-2.091,5.298-2.648c1.894-0.758,3.837-1.125,5.96-1.656c0.569-0.143,0.854-0.58,1.324-0.662
		c1.119-0.194,2.423-0.087,3.643-0.331c0.617-0.123,1.071,0.111,0.993-0.662c-5.578-0.226-10.685-1.854-14.9-3.974
		c-6.386-3.21-11.225-7.668-15.232-13.245c-1.343-1.869-2.286-3.796-3.312-5.96c-0.938-1.98-1.907-3.863-2.649-6.623
		c-0.638-2.371-0.877-4.973-1.655-7.615C167.219,278.697,167.219,303.753,167.219,328.808z M0,328.808
		c0.875-3.817,1.846-8.812,3.311-12.251c2.111-4.955,5.418-9.533,9.272-13.245c1.051-1.014,1.602-1.594,2.98-2.649
		c0.107-0.082,0.234-0.618,0.331-0.662c0.557-0.251,0.981-0.51,1.656-0.993c0.802-0.575,1.994-1.043,2.98-1.987
		c0.812-0.777,3.906-2.091,5.298-2.648c1.894-0.758,3.837-1.125,5.96-1.656c0.569-0.143,0.854-0.58,1.325-0.662
		c1.119-0.194,2.422-0.087,3.642-0.331c0.617-0.123,1.072,0.111,0.994-0.662c-5.579-0.226-10.685-1.854-14.901-3.974
		c-6.385-3.21-11.225-7.668-15.232-13.245c-1.343-1.869-2.285-3.796-3.311-5.96c-0.939-1.98-1.907-3.863-2.649-6.623
		c-0.638-2.371-0.877-4.973-1.656-7.615C0,278.697,0,303.753,0,328.808z M334.438,161.589c0.875-3.817,1.846-8.813,3.311-12.251
		c2.111-4.955,5.418-9.533,9.271-13.245c1.052-1.013,1.602-1.594,2.98-2.649c0.107-0.083,0.233-0.619,0.331-0.663
		c0.557-0.251,0.981-0.509,1.655-0.993c0.803-0.575,1.995-1.042,2.98-1.987c0.812-0.778,3.905-2.091,5.298-2.649
		c1.894-0.758,3.837-1.125,5.961-1.656c0.568-0.143,0.854-0.581,1.324-0.662c1.119-0.195,2.423-0.087,3.643-0.331
		c0.616-0.124,1.071,0.111,0.993-0.663c-5.578-0.226-10.685-1.854-14.9-3.973c-6.386-3.21-11.225-7.669-15.232-13.245
		c-1.343-1.869-2.285-3.796-3.311-5.96c-0.939-1.98-1.907-3.863-2.649-6.623c-0.638-2.372-0.878-4.973-1.655-7.616
		C334.438,111.479,334.438,136.534,334.438,161.589z M167.219,161.589c0.875-3.817,1.846-8.813,3.311-12.251
		c2.111-4.955,5.417-9.533,9.271-13.245c1.052-1.013,1.602-1.594,2.98-2.649c0.108-0.083,0.234-0.619,0.332-0.663
		c0.557-0.251,0.981-0.509,1.655-0.993c0.802-0.575,1.995-1.042,2.98-1.987c0.812-0.778,3.905-2.091,5.298-2.649
		c1.894-0.758,3.837-1.125,5.96-1.656c0.569-0.143,0.854-0.581,1.324-0.662c1.119-0.195,2.423-0.087,3.643-0.331
		c0.617-0.124,1.071,0.111,0.993-0.663c-5.578-0.226-10.685-1.854-14.9-3.973c-6.386-3.21-11.225-7.669-15.232-13.245
		c-1.343-1.869-2.286-3.796-3.312-5.96c-0.938-1.98-1.907-3.863-2.649-6.623c-0.638-2.372-0.877-4.973-1.655-7.616
		C167.219,111.479,167.219,136.534,167.219,161.589z M0,161.589c0.875-3.817,1.846-8.813,3.311-12.251
		c2.111-4.955,5.418-9.533,9.272-13.245c1.051-1.013,1.602-1.594,2.98-2.649c0.107-0.083,0.234-0.619,0.331-0.663
		c0.557-0.251,0.981-0.509,1.656-0.993c0.802-0.575,1.994-1.042,2.98-1.987c0.812-0.778,3.906-2.091,5.298-2.649
		c1.894-0.758,3.837-1.125,5.96-1.656c0.569-0.143,0.854-0.581,1.325-0.662c1.119-0.195,2.422-0.087,3.642-0.331
		c0.617-0.124,1.072,0.111,0.994-0.663c-5.579-0.226-10.685-1.854-14.901-3.973c-6.385-3.21-11.225-7.669-15.232-13.245
		c-1.343-1.869-2.285-3.796-3.311-5.96c-0.939-1.98-1.907-3.863-2.649-6.623C1.018,91.668,0.778,89.067,0,86.424
		C0,111.479,0,136.534,0,161.589z M499.669,421.854c-2.159,16.212-10.851,26.846-23.51,32.781c-3.329,1.561-6.124,2.53-10.597,3.312
		c-1.089,0.19-2.662,0.013-3.642,0.993c11.161,0.912,19.666,5.542,25.827,11.589c6.23,6.114,10.354,14.493,12.252,24.835
		c0-24.503,0-49.007,0-73.51C499.89,421.854,499.779,421.854,499.669,421.854z M332.45,421.854
		c-2.159,16.212-10.85,26.846-23.51,32.781c-3.329,1.561-6.124,2.53-10.596,3.312c-1.09,0.19-2.663,0.013-3.643,0.993
		c11.161,0.912,19.666,5.542,25.827,11.589c6.23,6.114,10.354,14.493,12.252,24.835c0-24.503,0-49.007,0-73.51
		C332.671,421.854,332.561,421.854,332.45,421.854z M165.232,421.854c-2.16,16.212-10.85,26.846-23.51,32.781
		c-3.329,1.561-6.124,2.53-10.596,3.312c-1.089,0.19-2.663,0.013-3.643,0.993c11.161,0.912,19.666,5.542,25.828,11.589
		c6.23,6.114,10.354,14.493,12.252,24.835c0-24.503,0-49.007,0-73.51C165.453,421.854,165.342,421.854,165.232,421.854z
		 M499.669,254.636c-2.159,16.213-10.851,26.846-23.51,32.781c-3.329,1.561-6.124,2.53-10.597,3.312
		c-1.089,0.19-2.662,0.013-3.642,0.993c11.161,0.913,19.666,5.542,25.827,11.59c6.23,6.114,10.354,14.492,12.252,24.834
		c0-24.503,0-49.007,0-73.51C499.89,254.636,499.779,254.636,499.669,254.636z M332.45,254.636
		c-2.159,16.213-10.85,26.846-23.51,32.781c-3.329,1.561-6.124,2.53-10.596,3.312c-1.09,0.19-2.663,0.013-3.643,0.993
		c11.161,0.913,19.666,5.542,25.827,11.59c6.23,6.114,10.354,14.492,12.252,24.834c0-24.503,0-49.007,0-73.51
		C332.671,254.636,332.561,254.636,332.45,254.636z M165.232,254.636c-2.16,16.213-10.85,26.846-23.51,32.781
		c-3.329,1.561-6.124,2.53-10.596,3.312c-1.089,0.19-2.663,0.013-3.643,0.993c11.161,0.913,19.666,5.542,25.828,11.59
		c6.23,6.114,10.354,14.492,12.252,24.834c0-24.503,0-49.007,0-73.51C165.453,254.636,165.342,254.636,165.232,254.636z
		 M499.669,87.417c-2.159,16.213-10.851,26.846-23.51,32.782c-3.329,1.561-6.124,2.53-10.597,3.311
		c-1.089,0.19-2.662,0.013-3.642,0.994c11.161,0.913,19.666,5.542,25.827,11.589c6.23,6.114,10.354,14.492,12.252,24.834
		c0-24.503,0-49.007,0-73.51C499.89,87.417,499.779,87.417,499.669,87.417z M332.45,87.417c-2.159,16.213-10.85,26.846-23.51,32.782
		c-3.329,1.561-6.124,2.53-10.596,3.311c-1.09,0.19-2.663,0.013-3.643,0.994c11.161,0.913,19.666,5.542,25.827,11.589
		c6.23,6.114,10.354,14.492,12.252,24.834c0-24.503,0-49.007,0-73.51C332.671,87.417,332.561,87.417,332.45,87.417z M165.232,87.417
		c-2.16,16.213-10.85,26.846-23.51,32.782c-3.329,1.561-6.124,2.53-10.596,3.311c-1.089,0.19-2.663,0.013-3.643,0.994
		c11.161,0.913,19.666,5.542,25.828,11.589c6.23,6.114,10.354,14.492,12.252,24.834c0-24.503,0-49.007,0-73.51
		C165.453,87.417,165.342,87.417,165.232,87.417z"></path>
</g>
</svg>