<?xml version="1.0" encoding="utf-8"?>
<!-- Generator: Adobe Illustrator 23.0.3, SVG Export Plug-In . SVG Version: 6.00 Build 0)  -->
<svg version="1.1" id="Layer_1" xmlns="http://www.w3.org/2000/svg" xmlns:xlink="http://www.w3.org/1999/xlink" x="0px" y="0px"
	 viewBox="0 0 500 500" style="enable-background:new 0 0 500 500;" xml:space="preserve">
<style type="text/css">
	.st0{fill:#D1D3D4;}
	.st1{fill:#939598;}
	.st2{fill:#58595B;}
</style>
<rect class="st0" width="500" height="500"/>
<path class="st1" d="M286.8,213.2c0,24.5,0,49,0,73.4c-24.5,0-48.9,0-73.5,0c0-24.5,0-48.8,0-73.4
	C237.8,213.2,262.2,213.2,286.8,213.2z"/>
<path class="st1" d="M213.3,36.6c0-12.1,0-24.3,0-36.6c24.5,0,48.9,0,73.5,0c0,12.2,0,24.3,0,36.6C262.3,36.6,237.9,36.6,213.3,36.6
	z"/>
<path class="st1" d="M0.1,213.2c12.2,0,24.4,0,36.6,0c0,24.5,0,49,0,73.4c-12.2,0-24.3,0-36.6,0C0.1,262.2,0.1,237.9,0.1,213.2z"/>
<path class="st1" d="M500,286.8c-12.2,0-24.4,0-36.6,0c0-24.6,0-49,0-73.6c12.2,0,24.4,0,36.6,0C500,237.7,500,262.2,500,286.8z"/>
<path class="st1" d="M286.8,463.3c0,12.2,0,24.5,0,36.6c-24.5,0-48.9,0-73.5,0c0-12.1,0-24.3,0-36.6
	C237.8,463.3,262.2,463.3,286.8,463.3z"/>
<path class="st2" d="M466.6,497.7c0,0.7,0,1.5,0,2.2c-60,0-119.9,0-180,0c0-12.1,0-24,0-36.3c-24.3,0-48.5,0-72.9,0
	c0,12.1,0,24.2,0,36.3c-60.1,0-120.1,0-180.1,0c0-0.7,0-1.5,0-2.2c2.4-0.4,4.8-0.7,7.1-1.2c4-0.7,8.1-1.5,12.1-2.2
	c10.7-2.4,21.1-5.3,31.3-9c5.5-2.1,11-4.3,16.5-6.6c4.7-2.1,9.4-4.1,13.9-6.6c6.4-3.4,12.8-7.1,19-10.9c5.6-3.5,11.1-7.4,16.5-11.2
	c3.7-2.7,7.2-5.6,10.6-8.6c4.5-4,8.9-8,13.2-12.1c4.1-3.8,8.2-7.8,11.9-12.1c4.9-5.6,9.7-11.2,14.1-17.3c4.4-5.9,8.4-12.1,12.5-18.3
	c4.9-7.5,9.3-15.3,13-23.6c3.4-7.4,6.5-14.9,9.5-22.4c3.6-9.4,6.4-19.2,8.7-28.9c1.2-5.3,2.1-10.6,3.1-15.9c0.2-1.2,0.3-2.4,0.6-3.4
	c0.1-0.4,0.7-0.9,1.1-0.9c1.3-0.1,2.6,0,3.9,0c0.8-0.1,1,0.3,1.1,1c1.1,5.9,2.2,12.1,3.4,18c2,9.9,4.9,19.3,8.3,28.8
	c2,5.5,4.2,10.9,6.5,16.2c2.1,4.7,4.3,9.6,6.7,14.2c3.4,6.3,7,12.7,10.8,18.7c3.5,5.6,7.4,11.1,11.3,16.5c2.7,3.7,5.6,7.2,8.5,10.6
	c3.9,4.4,7.9,8.8,12,13.3c3,3.1,6,6.3,9.3,9.3c6.3,5.5,12.8,10.8,19.3,16.1c7.6,6,15.8,11.4,24.2,16.2c6.1,3.5,12.3,6.9,18.6,10
	c7.3,3.4,14.8,6.3,22.4,9.3c9.4,3.7,19,6.5,28.8,8.7c5.6,1.2,11.2,2.2,16.9,3.4C462.3,497.1,464.4,497.2,466.6,497.7z"/>
<path class="st2" d="M463.7,213.5c0,24.3,0,48.5,0,72.8c12.1,0,24.1,0,36.3,0c0,60.2,0,120,0,180.2c-0.7,0-1.5,0-2.3,0
	c-0.5-3-0.9-5.9-1.4-8.8c-0.7-3.5-1.3-7.2-2.1-10.8c-1.4-5.9-2.8-11.8-4.5-17.7c-1.8-6-3.9-11.9-6.1-18c-3.4-9-7.3-17.8-11.9-26.4
	c-3.3-6.2-6.8-12.2-10.6-18.1c-3.5-5.8-7.4-11.2-11.3-16.5c-2.7-3.7-5.5-7.2-8.5-10.6c-3.8-4.4-7.8-8.8-11.8-13.1
	c-4.1-4.3-8.3-8.4-12.7-12.4c-5.4-4.7-11-9.4-16.8-13.7c-5.9-4.4-12.2-8.6-18.4-12.7c-7.4-4.7-15.2-9-23.2-12.8
	c-6.8-3.1-13.8-6-20.9-8.8c-10-3.8-20.3-6.9-30.8-9.3c-5.3-1.2-10.7-2.2-16-3.2c-1.1-0.1-2.3-0.3-3.4-0.4c-0.4-0.1-0.8-0.7-0.8-1
	c-0.1-1.3,0-2.7-0.1-4c0-0.7,0.3-1,0.9-1c9-1.3,18-3.1,26.7-5.6c8-2.4,16-4.9,23.9-7.7c4.9-1.6,9.8-3.8,14.6-6
	c4-1.8,8.1-3.5,11.9-5.6c6.4-3.5,12.8-7.2,19-11.1c5.6-3.5,11.1-7.4,16.5-11.2c3.7-2.7,7.2-5.6,10.6-8.6c4.5-3.8,8.9-7.8,13.2-11.9
	c3.2-3,6.4-6,9.3-9.3c4.7-5.3,9.2-10.6,13.7-16.1c7-8.7,13.2-17.8,18.8-27.4c3.5-6,6.9-12.2,9.9-18.6c3.4-7.4,6.5-14.9,9.4-22.4
	c3.6-9.4,6.4-19,8.7-28.9c1.2-5.3,2.1-10.8,3.1-16.1c0.4-2.4,0.8-4.6,1.1-7.1c0.7,0,1.4,0,2.3,0c0,60,0,119.9,0,180
	C488,213.5,475.9,213.5,463.7,213.5z"/>
<path class="st2" d="M2.4,466.6c-0.8,0-1.5,0-2.3,0c0-60,0-120,0-180c12.1,0,24.2,0,36.3,0c0-24.3,0-48.7,0-73
	c-12.1,0-24.2,0-36.3,0c0-60,0-120,0-180c0.8,0,1.6,0,2.2,0c1.1,6.2,2.1,12.2,3.3,18.3C6.7,56.9,8,62.2,9.5,67.4
	c1.6,5.6,3.3,11.2,5.3,16.7c2,5.5,4.2,10.9,6.5,16.4c2.1,4.7,4.3,9.6,6.7,14.2c3.4,6.3,7,12.7,10.8,18.7c3.5,5.8,7.4,11.2,11.3,16.5
	c2.6,3.7,5.5,7.2,8.5,10.6c3.9,4.4,7.9,8.8,12,13.3c3,3.1,6,6.3,9.3,9.3c6.3,5.5,12.8,10.8,19.3,16.1c7.6,6,15.8,11.4,24.2,16.4
	c6.1,3.5,12.4,6.8,18.7,9.9c11.1,5.5,22.5,9.9,34.3,13.4c8.5,2.7,17.2,4.9,26,6.5c3.3,0.6,6.7,1.2,10.1,1.8c0.6,0,1.1,0.3,1,1
	c0,1.3,0,2.7,0,3.8c0,0.7-0.3,1-1,1.2c-10.4,1.5-20.7,3.8-30.9,6.6c-8.9,2.5-17.5,5.5-26.1,9c-4.1,1.6-8.2,3.5-12.2,5.5
	c-5,2.4-9.9,4.9-14.7,7.5c-7.6,4.1-14.9,8.7-21.9,13.7c-4.9,3.5-9.7,7.2-14.4,10.9c-3.8,3.1-7.5,6.3-11.1,9.7c-3.3,3-6.5,5.9-9.6,9
	c-4.4,4.7-8.6,9.6-12.9,14.3c-7.1,8.3-13.4,17-19.3,26.1c-3.1,4.7-5.9,9.7-8.6,14.6c-2.1,3.8-4.2,7.7-6,11.5
	c-3.1,6.9-6.1,14-8.9,21.1c-3.9,9.9-7,20.2-9.3,30.7c-1.2,5.3-2.2,10.8-3.2,16.1C3.1,461.7,2.8,464.1,2.4,466.6z"/>
<path class="st2" d="M33.4,2.4c0-0.6,0-1,0-1.5c0-0.3,0-0.6,0.1-0.9c60,0,120,0,180,0c0,12.1,0,24.2,0,36.3c24.4,0,48.6,0,73,0
	c0-12.1,0-24.2,0-36.3c60.1,0,120,0,180.1,0c0,0.7,0,1.6,0,2.2c-5.6,1-11.1,1.9-16.6,3.1c-5.8,1.2-11.6,2.5-17.3,4.1
	c-5.6,1.5-11.2,3.2-16.6,5.3c-5.5,1.9-11,4.1-16.3,6.5c-4.8,2.1-9.6,4.3-14.1,6.8c-6.4,3.4-12.7,6.9-18.8,10.8
	c-5.6,3.5-11.1,7.4-16.5,11.4c-3.7,2.7-7.2,5.5-10.6,8.4c-4.4,3.8-8.7,7.8-13,11.8c-3.4,3.2-6.7,6.5-9.8,9.9
	c-3.9,4.3-7.7,8.8-11.4,13.3c-7.3,8.8-13.8,18.1-19.5,28c-3.9,6.8-7.7,13.6-11.1,20.5c-3.5,7.4-6.5,14.9-9.4,22.4
	c-3.6,9.4-6.4,19-8.6,28.9c-1.2,5.3-2.1,10.6-3.1,16.1c-0.2,1-0.4,2.1-0.5,3.1c-0.1,0.7-0.4,1-1.2,1c-1.3,0-2.5,0-3.8,0
	c-0.8,0-1-0.3-1.1-1c-1.6-11.1-3.9-22-7.2-32.6c-2.6-8.3-5.3-16.4-8.5-24.3c-2.8-7.1-6.1-14-9.6-20.9c-3.2-6.2-6.8-12.1-10.5-18
	c-3.5-5.8-7.4-11.2-11.3-16.5c-2.6-3.7-5.5-7.2-8.5-10.6c-3.9-4.6-7.9-9-12.1-13.3c-4.2-4.4-8.6-8.7-13.2-12.7
	c-4.1-3.7-8.4-7.4-12.8-10.8c-3.4-2.8-6.9-5.3-10.5-7.8c-5.3-3.5-10.7-7.1-16.2-10.3c-7.6-4.6-15.5-8.7-23.7-12.4
	c-9.4-4.1-18.9-8-28.8-10.9C67.4,9.4,60.5,7.7,53.6,6C49.1,4.9,44.5,4.1,40,3.2C37.9,2.8,35.7,2.7,33.4,2.4z"/>
<path class="st2" d="M286.6,286.5c47.3,8.3,87.6,29.6,120.6,64.3c30.2,31.7,48.9,69.5,56.6,112.8c-36-6.2-68.4-20.2-96.8-42.6
	C323.1,386.5,296.5,341.5,286.6,286.5z"/>
<path class="st2" d="M213.6,213.7c-39.9-7.1-75.1-23.4-105.4-49.8c-38.9-33.9-62.7-76.5-72-127.6c12.9,2.2,25.2,5.3,37.2,9.7
	c45.7,16.8,82,45.7,108.6,86.4C198.3,157.2,208.6,184.2,213.6,213.7z"/>
<path class="st2" d="M36.3,463.8c7-40,23.4-75.1,49.8-105.4c33.9-38.9,76.5-62.7,127.6-72.1c-6.2,36.1-20.2,68.4-42.6,96.9
	C136.5,426.9,91.5,453.6,36.3,463.8z"/>
<path class="st2" d="M463.7,36.3c-3.9,22.9-11.1,44.4-21.8,64.6c-17.6,33.3-42.2,60.3-73.7,80.8c-24.9,16.2-52.1,26.8-81.7,31.9
	c2.1-12.7,5.3-25.1,9.7-37c16.8-45.9,45.7-82,86.4-108.7C407.3,51.8,434.3,41.3,463.7,36.3z"/>
</svg>
