<?xml version="1.0" encoding="utf-8"?>
<!-- Generator: Adobe Illustrator 23.0.3, SVG Export Plug-In . SVG Version: 6.00 Build 0)  -->
<svg version="1.1" id="Layer_1" xmlns="http://www.w3.org/2000/svg" xmlns:xlink="http://www.w3.org/1999/xlink" x="0px" y="0px"
	 viewBox="0 0 500 500" style="enable-background:new 0 0 500 500;" xml:space="preserve">
<style type="text/css">
	.st0{fill:#D1D3D4;}
	.st1{fill:#A7A9AC;}
	.st2{fill:#808285;}
	.st3{fill:#58595B;}
</style>
<path class="st0" d="M76,0c8,0,16,0,24,0c8.1,81.4-24.8,121.8-100,120c0-17.3,0-34.7,0-52C48.1,68.1,78.9,50.9,76,0z"/>
<path class="st0" d="M500,120c0-17.3,0-34.7,0-52c-49.2,1.5-78.9-20.7-76-68c-8,0-16,0-24,0C392.2,81.1,425,121.6,500,120z"/>
<path class="st0" d="M200,104c-32.5,24.7-80.4,29-101,65c-25.3,44.2-22.7,138.8,7,176c15,18.8,40.6,26.2,62,36
	c40.2,18.3,68.4,43.9,81,91c4.1-1.2,4-6.4,5-9c14.8-39.6,40.8-64.9,77-82c13.1-6.2,27.7-9.1,41-17c40.8-24.3,49.5-82.2,45-140
	c-3-39.3-20.8-71-47-86c-13.9-7.9-28-11.3-40-17c-38.2-18.1-66.7-45.2-79-89c-0.1-0.6-0.1-1.2-1-1C241,63,223.6,86,200,104z"/>
<path class="st0" d="M250,105c0.9-0.2,0.9,0.4,1,1c10,37.2,35,53.1,69,65c24.9,8.7,49.3,14.1,59,39c10.5,27,7.6,76.7-6,95
	c-15.2,20.5-50.6,24.4-75,37c-20.9,10.8-41.1,27.1-47,56c-4.2-8.4-5.5-14.8-9-21c-10.4-18.1-28.5-31.2-49-40
	c-26.2-11.3-56-13.7-69-38c-11.4-21.3-11.5-74.1,1-96c11.9-20.8,35.8-23.7,60-33C214.4,158.7,242.3,139.5,250,105z"/>
<path class="st0" d="M0,432c47.6,0.4,79,17,76,68c8,0,16,0,24,0c8.3-81.6-25.4-121.2-100-120C0,397.3,0,414.7,0,432z"/>
<path class="st0" d="M400,500c8,0,16,0,24,0c-3.1-47.5,27.5-68.9,76-68c0-17.3,0-34.7,0-52C425.6,379,392.1,418.8,400,500z"/>
<path class="st1" d="M76,0c4.1,48.1-26.4,70.2-76,68C0,45.3,0,22.7,0,0C25.3,0,50.7,0,76,0z"/>
<path class="st1" d="M500,68c0-22.7,0-45.3,0-68c-25.3,0-50.7,0-76,0C421,51,451.1,68.9,500,68z"/>
<path class="st1" d="M212,184c22-2.5,69.8-4.6,90,2c14.1,4.6,25.9,15.4,30,27c3.8,10.8,2,24.4,2,41c0,14.8,1.8,29.4-2,40
	c-4.7,13.4-22.1,27.7-42,30c-14.6,1.7-34.6,0-53,0c-19.3,0-35.8-0.8-46-6c-11.1-5.7-20.3-16.1-23-25c-2.7-8.9-1-25.2-1-40
	c0-17.4-1.8-29.5,1-39C172.4,199.3,190.5,186.4,212,184z"/>
<path class="st1" d="M0,500c25.3,0,50.7,0,76,0c5-45-25.5-70.5-76-68C0,454.7,0,477.3,0,500z"/>
<path class="st1" d="M424,500c25.3,0,50.7,0,76,0c0-22.7,0-45.3,0-68C451.7,431.7,420.9,448.9,424,500z"/>
<path class="st2" d="M225,0c16.7,0,33.3,0,50,0c-0.9,63.2,30.6,89.7,75,108c25.3,10.4,52.7,15.7,72,34c18.5,17.5,27.2,43.2,31,77
	c0.3,2.6,0.6,6.1,1,9c0.2,1.7,0.2,6.4,3,7c0,11,0,22,0,33c-3.2,1.6-2.7,6.4-3,9c-3.1,23.2-6.3,46.9-16,64
	c-13.8,24.3-37.7,36.7-64,46c-52.3,18.5-100,40.2-99,113c-16.7,0-33.3,0-50,0c2-58.4-31.5-86.9-71-103c-26.2-10.7-57.3-17.7-77-37
	c-21.9-21.5-27.6-51-32-94c0-9.7,0-19.3,0-29c3.8-47.5,13.7-81.1,43-102c35.9-25.6,81.9-24.1,113-58C216.6,60,225.6,33.1,225,0z"/>
<path class="st0" d="M154,129c-14.6,5.8-32,12.5-43,24c-25.8,27.1-31.5,84.5-26,132c4.3,37,19.3,65.3,45,80
	c15.1,8.6,31.7,11.8,46,19c13.8,6.9,27.9,16.1,39,27c16.3,16.1,25.3,34.3,36,61c14.9-51.3,47.8-79,94-97c15.8-6.1,30.9-11.3,42-22
	c20-19.2,27.5-49.5,30-86c2.4-34.6-1.8-74.9-16-99c-13-22.1-35.8-31.8-60-42c-44.9-18.9-75.2-44.5-90-93c-0.1-0.6-0.1-1.2-1-1
	C234.1,83.7,200.9,110.4,154,129z"/>
<path class="st1" d="M249,109c-9.5,33.8-39.8,51.5-69,62c-18,6.4-35.3,9.3-47,21c-19,19-24.2,80.5-9,108c11.6,20.9,38.4,25.4,61,34
	c30.4,11.5,56.7,30.3,64,64c5.7-4.8,5.8-13.8,9-20c9.4-17.9,30.3-32.5,50-41c22.8-9.8,50.4-12.7,64-30c17.3-22,17.9-83,3-106
	c-10.1-15.6-28.1-21.1-47-27c-25.4-7.9-47.8-20-63-39c-7.2-9-9.3-16.8-15-29C248.5,106.1,249.4,107.7,249,109z"/>
<path class="st3" d="M100,0c41.7,0,83.3,0,125,0c2.6,70.5-36.6,93.9-86,112c-32,11.8-60.9,23.1-77,52c-13.6,24.5-16.3,64.2-16,97
	c0.4,34.8,7.1,67,24,89c18,23.5,42.9,31.4,71,42c46.8,17.7,85.3,40.9,84,108c-41.7,0-83.3,0-125,0c8.2-81.5-26-120.7-100-120
	c0-86.7,0-173.3,0-260C74.7,121.4,108.1,81.4,100,0z"/>
<path class="st3" d="M313,89c36.5,26.3,91.8,28.2,118,63c16.2,21.6,22.9,54.9,24,91c1.1,33.9-3.7,74.6-17,98
	c-9.6,16.9-25.8,30.1-43,38c-18,8.3-38.7,13-58,22c-37.8,17.6-60.7,43.6-62,99c41.7,0,83.3,0,125,0c-7.8-81.1,25.9-120.8,100-120
	c0-86.7,0-173.3,0-260c-74.6,1.3-107.6-39.1-100-120c-41.7,0-83.3,0-125,0C275.8,43,287.8,70.8,313,89z"/>
<path class="st3" d="M168,214c-2.9,10.1-1,23-1,39c0,14.1-2.1,29.3,1,40c3.7,13,18.5,25,32,29c10.1,3,27.4,2,45,2
	c16.9,0,35,1.7,47,0c19.6-2.8,35.6-17.5,40-31c3.3-10.1,2-25.3,2-40c0-16.3,1.3-30.4-2-40c-3.8-10.8-14.4-21.3-26-26
	c-11.3-4.6-27.6-4-45-4c-16.7,0-39.2-0.5-51,1C191.7,186.4,172.9,197,168,214z"/>
</svg>
