<?xml version="1.0" encoding="utf-8"?>
<!-- Generator: Adobe Illustrator 23.0.3, SVG Export Plug-In . SVG Version: 6.00 Build 0)  -->
<svg version="1.1" id="Layer_1" xmlns="http://www.w3.org/2000/svg" xmlns:xlink="http://www.w3.org/1999/xlink" x="0px" y="0px"
	 viewBox="0 0 500 500" style="enable-background:new 0 0 500 500;" xml:space="preserve">
<style type="text/css">
	.st0{fill:#D1D3D4;}
	.st1{fill:#939598;}
	.st2{fill:#58595B;}
</style>
<rect class="st0" width="500" height="500"/>
<path class="st1" d="M12,0c75.7,0,151.3,0,227,0c-7.2,1.6-14.2,3.2-21,5c-6.8,1.8-13.9,3.2-20,6c-7.2,3.3-15.8,10.2-22,13
	c-0.3,0.1-0.6,1.8-1,2c-6.1,4.3-10.2,7.9-15,13c-4.1,4.4-8.8,9.2-11,14c-0.1,0.3-1.8,0.6-2,1c-0.7,1.1-1.4,3-2,4
	c-10.6,16.3-17.1,35.5-20,58c-1.9-21.3-8.8-40.1-17-54c-1.1-1.9-2.3-2.9-3-4c-0.9-1.4-1.1-3.8-2-5c-0.3-0.4-1.6-0.6-2-1
	c-0.7-0.8-0.3-2.1-1-3c-0.3-0.4-1.6-0.6-2-1c-0.7-0.8-0.3-2.2-1-3c-2.6-3.1-6.9-6.9-9-9c-2.2-2.2-3.8-3-6-5c-2.1-1.9-4.6-5.2-7-7
	c-1.1-0.8-3.8-1.2-5-2c-0.4-0.3-0.5-1.7-1-2c-0.8-0.6-2.3-0.6-3-1c-4.4-2.7-10.3-6.3-14-8c-6.3-2.9-15.3-5.5-21-7
	C25.2,2.5,15.9,1.6,12,0z"/>
<path class="st1" d="M281,4c5.7,1.5,14.9,4.2,21,7c3.7,1.7,9.9,5.4,14,8c2.8,1.8,5.1,3.8,8,6c0.9,0.7,2.2,0.3,3,1
	c0.4,0.4,0.5,1.7,1,2c0.9,0.7,2.2,0.3,3,1c3.3,3.1,10.7,10,14,15c0.2,0.3,0.7,1.6,1,2c2.1,2.4,5.1,4.4,7,7c0.9,1.2,1.1,3.6,2,5
	c0.7,1.1,1.9,2.1,3,4c8.1,13.9,15,32.5,17,54c4.1-33.7,17.3-59.6,36-79c9.2-9.5,21.4-17.9,34-24c13.2-6.4,27.7-9.9,44-13
	c-75.3,0-150.7,0-226,0C268.9,2.3,274.2,2.3,281,4z"/>
<path class="st1" d="M339,213c-18.6,19-45.2,33.8-80,36c0.3,2.7,3.9,1.8,5,2c3,0.5,6.3,0.5,9,1c11.5,2.1,20.7,6.1,29,10
	c5,2.3,10.1,3.6,14,6c0.5,0.3,1.3,1.5,2,2c1,0.8,2,1.3,3,2c6.5,4.7,10.9,9,16,14c3.6,3.5,6.9,6.3,10,10c1.9,2.3,3.7,5.7,5,7
	c0.8,0.8,1.2,2.1,2,3c3.8,4,5.8,9.5,8,14c5.6,11.4,10.2,24.1,12,38c0.3,2.3-1.5,6.4,2,8c-0.1-17.5,6.4-32.4,11-43
	c0.8-1.8,1.2-4.3,2-6c2.6-5.1,8.1-12.2,11-16c0.6-0.8,0.3-2.1,1-3c0.8-1.1,2.9-1.8,4-3c1.4-1.5,1.9-3.8,3-5c4.2-4.6,8.3-7.2,12-10
	c0.4-0.3,0.6-1.6,1-2c0.8-0.7,2.1-0.3,3-1c2.5-1.9,4.5-4.3,7-6c8.7-5.8,17-9.6,27-13c10.1-3.4,20.8-6.3,33-8
	c-13.7-1.4-25.8-4.5-35-8c-4.7-1.8-9.3-3.9-13-5c-0.3-0.1-1.5-1.8-2-2c-1.5-0.8-3.6-1.2-5-2c-2.3-1.3-4.7-4-6-5
	c-0.9-0.7-2.1-0.3-3-1c-8-5.7-16-14.1-22-21c-4.9-5.6-8.2-10.6-12-17c-1.8-3-4.6-6.1-6-9c-0.4-0.8,0.3-2.1,0-3c-0.7-2.3-3.1-4.6-4-7
	c-1.5-4-1.9-8-3-12c-2.2-7.8-4.1-15.3-5-24C371.4,167.7,357.7,193.9,339,213z"/>
<path class="st1" d="M124,139c-3.8,33-18.3,57.6-37,76c-16.8,16.5-39.2,28.3-66,33c-4.3,0.8-9.6,0-12,3c34.9,2.5,61.3,16.9,80,36
	c16.6,17,29.5,39.4,34,67c0.8,4.7,0,9.6,3,12c1.6-25.5,10.8-47.1,22-63c0.3-0.5,1.6-0.5,2-1c0.6-0.8,0.5-2.3,1-3c2.2-3.1,5-4.6,7-7
	c0.6-0.7,0.5-2.3,1-3c2.7-3.5,6.7-5.2,10-8c2.7-2.3,5-4.9,8-7c17.7-12.7,39.2-20.7,65-24c-33.9-2.7-60.1-16.6-79-35
	c-19-18.5-33.9-44.3-37-78c-0.2-0.8-0.8-1.2-2-1C124,137,124,138,124,139z"/>
<path class="st1" d="M466,495c-11.7-3.3-22-7.6-32-14c-3.6-2.3-6.9-4.2-11-7c-0.4-0.2-0.7-1.9-1-2c-5.9-2.7-13-11.1-18-17
	c-14.5-16.9-26.6-41.4-28-71c-3.7,6.8-2.3,14.2-4,21c-0.8,3.1-2.8,6.6-4,10c-0.5,1.5-0.6,2.2-1,3c-0.6,1.3-1.2,3.3-2,5
	c-1.4,3-2.9,8.2-5,12c-4.3,8.1-10.3,15.7-17,23c-5.9,6.4-10.3,11.1-17,16c-2.1,1.6-4.1,2.9-7,5c-3.1,2.3-6.4,4.7-11,7
	c-12.4,6.3-28,10.5-45,14c74,0,148,0,222,0C478.4,497.9,472.1,496.7,466,495z"/>
<path class="st1" d="M215,495c-6.1-1.7-12.6-3.4-18-6c-0.5-0.2-0.6-1.8-1-2c-0.8-0.4-2.2,0.4-3,0c-1-0.5-2.1-2.5-3-3
	c-2.8-1.5-5.5-2.4-8-4c-18.1-11.7-34.9-29.5-45-51c-2-4.2-3.4-8.7-5-13c-2.7-7.2-4.9-19.3-7-30c-2.4,19-8.1,35.6-16,50
	c-1.4,2.5-3.3,5.3-5,8c-1.4,2.3-2.7,4.1-5,7c-0.6,0.7-1.5,1.3-2,2c-0.5,0.7-0.4,2.3-1,3c-2.2,2.6-5.5,5.5-8,8
	c-4.4,4.4-7.1,6.4-12,10c-2.1,1.6-4,2.8-7,5c-4.3,3.1-12.5,8.2-19,11c-1.5,0.6-3.5,0.4-5,1c-1.9,0.8-2.2,1.4-4,2
	c-8,2.8-18.6,4.7-29,7c74.3,0,148.7,0,223,0C228.5,497.6,221.5,496.9,215,495z"/>
<path class="st2" d="M250,9c4.5,36.9,19.2,63.1,41,83c0.8,0.8,1,1.3,2,2c0.3,0.2,1.6,0.7,2,1c2.5,2.1,4.4,5.1,7,7
	c0.9,0.6,2.1,0.4,3,1c0.7,0.4,1.4,1.6,2,2c6.4,3.9,15.8,8.9,24,12c8.3,3.1,18.5,5.1,29,7c1.1,0.2,5.3-1.5,5,2
	c-11.5,0.3-22.5,2.6-32,6c-6.6,2.4-14.1,6.1-21,10c-4.2,2.4-9.4,6.6-14,10c-12.7,9.3-24.8,23.7-33,39c-6.5,12.2-11.2,25.5-14,43
	c-0.3,1.6,1.7,6-2,6c-0.9-17.1-5.4-32.8-12-46c-1.6-3.1-4-5.7-6-9c-0.8-1.2-1.2-3.8-2-5c-0.5-0.7-1.4-1.1-2-2c-1.7-2.6-5.4-6-8-9
	c-0.7-0.8-0.3-2.3-1-3c-18.4-19.7-47.3-37.5-84-40c2.8-3.9,7.9-1.5,11-2c1.7-0.3,3.2-0.7,5-1c3.5-0.6,6.2-2,10-3
	c3.3-0.9,5.4-1.7,9-3c12.1-4.3,25.1-11.8,35-20C228.2,76.9,246,49,250,9z"/>
<path class="st2" d="M0,238c2.7-9.9,4.8-24.4,9-35c6.1-15.3,17.2-30.6,29-42c9.7-9.3,20-17.8,33-24c4.7-2.2,10.7-4.3,16-6
	c7.1-2.2,14.5-3.5,23-5c0.9-0.2,5.5,1.5,5-2c-34.5-2.1-59.5-17.5-78-36c-9.4-9.4-17.8-20.2-24-33C6.6,41.9,3.3,27.4,0,11
	C0,86.7,0,162.3,0,238z"/>
<path class="st2" d="M499,14c-4,40.1-24.5,66.1-49,86c-2.3,1.9-3.8,3-7,5c-1.2,0.7-2.9,1.4-4,2c-1.1,0.7-1.8,2.3-3,3
	c-0.8,0.4-2.2-0.4-3,0c-0.5,0.2-0.6,1.8-1,2c-2.6,1.3-6,1.7-9,3c-2.9,1.2-6.1,3-9,4c-1.8,0.6-3,0.4-5,1c-2.8,0.8-8.9,3.2-14,4
	c-3,0.5-7.9-1.8-10,2c19.1,1,36.3,6.9,50,15c1.2,0.7,1.1,0.2,2,1c1,1,5.8,2.5,8,4c1.9,1.3,3.1,3.5,5,5c0.8,0.6,1.3,0.3,2,1
	c0.4,0.4,2.8,1.9,4,3c9.8,8.4,20,20,27,32c8.4,14.2,13.2,31.3,17,50c0-74.3,0-148.7,0-223C499.7,14,499.3,14,499,14z"/>
<path class="st2" d="M242,295c-2.1,5.5-4.7,10.7-7,15c-1,2-2.4,2.9-3,4c-0.8,1.3-1.2,3.7-2,5c-1.4,2.2-4,4.5-5,6c-1.3,1.9-2,3.7-3,5
	c-1.1,1.5-3.2,2.2-4,3c-0.7,0.8-0.3,2.2-1,3c-3.6,4.3-8,6.7-12,10c-0.5,0.4-0.5,1.6-1,2c-0.8,0.7-2.1,0.3-3,1c-0.4,0.3-0.6,1.6-1,2
	c-2.2,2.1-5,2.7-7,4c-13.6,8.6-28,14.9-46,18c-3.8,0.7-8.5,0.3-12,3c17,0.8,32,5.6,45,12c35,17.2,60.5,48,68,91c0.7,4.2,0,9.7,3,12
	c-0.3-11.9,3.7-23.1,6-30c0.9-2.5,1-5.6,2-8c1.9-4.7,4.7-8.8,7-13c14-25.2,35.8-45.5,62-56c5.7-2.3,11.7-3.4,18-5
	c1.3-0.3,2.8-1.8,4-2c6.4-1.1,11.5,0.7,15-3c-34.4-1.9-59.5-17.5-78-36c-18.7-18.7-33.9-43.9-36-78c-0.1-0.6-0.1-1.2-1-1
	C248.6,272.8,245.7,285.2,242,295z"/>
<path class="st2" d="M0,488c2.6-11.5,5.6-26.6,10-37c6.4-15,16.4-28.8,28-40c3.2-3.1,4.8-4.8,9-8c0.3-0.3,0.7-1.9,1-2
	c1.7-0.8,3-1.5,5-3c2.4-1.7,6-3.1,9-6c2.5-2.3,11.8-6.3,16-8c5.7-2.3,11.6-3.4,18-5c1.7-0.4,2.6-1.8,4-2c3.4-0.6,7.3-0.3,11-1
	c1.9-0.4,3.2,0.3,3-2c-16.8-0.7-32.3-5.6-45-12c-19.3-9.7-33.9-23.2-46-40c-4.1-5.6-6.9-11.5-10-18c-2.8-6-5.8-11.7-8-20
	c-1.9-7.2-2.7-15-5-23C0,336.7,0,412.3,0,488z"/>
<path class="st2" d="M499,264c-6.5,49-32.8,81.1-71,99c-10.1,4.7-18.5,7.6-32,10c-3.3,0.6-8,0-11,3c33.7,2.8,59.4,16.7,78,35
	c18.8,18.5,31.3,43.8,37,75c0-74,0-148,0-222C499.7,264,499.3,264,499,264z"/>
</svg>
