<svg version="1.1" xmlns="http://www.w3.org/2000/svg" xmlns:xlink="http://www.w3.org/1999/xlink" x="0px" y="0px" width="500px" height="500px" viewBox="0 0 500 500" enable-background="new 0 0 500 500" xml:space="preserve">
<g id="D">
	<path class="paintable" fill-rule="evenodd" clip-rule="evenodd" fill="#D1D3D4" d="M335.505,499.635c0-54.712,0-109.42,0-164.13
		c54.823,0,109.649,0,164.474,0c0,54.818,0,109.64,0,164.458c-54.496,0-108.992,0-163.487,0
		C336.023,499.991,335.56,500.018,335.505,499.635z M336.82,499.635c54.275-0.001,108.553-0.001,162.829-0.001
		c0-54.599,0-109.2,0-163.801c-54.605,0-109.212,0-163.816,0c0,54.491,0,108.98,0,163.473
		C335.889,499.688,336.353,499.662,336.82,499.635z M335.833,499.306c0-54.492,0-108.981,0-163.473c54.604,0,109.211,0,163.816,0
		c0,54.601,0,109.202,0,163.801c-54.276,0-108.554,0-162.829,0.001C336.353,499.662,335.889,499.688,335.833,499.306z
		 M337.149,499.306c54.057-0.001,108.113-0.001,162.171-0.001c0-54.38,0-108.762,0-163.143c-54.387,0-108.772,0-163.158,0
		c0,54.271,0,108.543,0,162.814C336.218,499.359,336.682,499.334,337.149,499.306z M337.149,499.306
		c54.057-0.001,108.113-0.001,162.171-0.001c0-54.38,0-108.762,0-163.143c-54.387,0-108.772,0-163.158,0
		c0,54.271,0,108.543,0,162.814C336.218,499.359,336.682,499.334,337.149,499.306z M336.491,167.756c54.495,0,108.991,0,163.487,0
		c0,54.818,0,109.64,0,164.458c-54.824,0-109.65,0-164.474,0c0-54.711,0-109.418,0-164.13
		C335.56,167.702,336.023,167.728,336.491,167.756z M335.833,168.414c0,54.492,0,108.981,0,163.472c54.604,0,109.211,0,163.816,0
		c0-54.6,0-109.201,0-163.8c-54.276,0-108.554,0-162.829-0.001C336.353,168.057,335.889,168.031,335.833,168.414z M336.82,168.085
		c54.275,0.001,108.553,0.001,162.829,0.001c0,54.599,0,109.2,0,163.8c-54.605,0-109.212,0-163.816,0c0-54.49,0-108.98,0-163.472
		C335.889,168.031,336.353,168.057,336.82,168.085z M336.162,168.743c0,54.271,0,108.544,0,162.813c54.386,0,108.771,0,163.158,0
		c0-54.38,0-108.762,0-163.142c-54.058,0-108.114,0-162.171,0C336.682,168.386,336.218,168.36,336.162,168.743z M336.162,168.743
		c0,54.271,0,108.544,0,162.813c54.386,0,108.771,0,163.158,0c0-54.38,0-108.762,0-163.142c-54.058,0-108.114,0-162.171,0
		C336.682,168.386,336.218,168.36,336.162,168.743z M335.505,164.108c0-54.711,0-109.42,0-164.13c54.823,0,109.649,0,164.474,0
		c0,54.819,0,109.641,0,164.459c-54.496,0-108.992,0-163.487,0C336.023,164.465,335.56,164.491,335.505,164.108z M336.82,164.108
		c54.275,0,108.553,0,162.829,0c0-54.599,0-109.201,0-163.801c-54.605,0-109.212,0-163.816,0c0,54.491,0,108.981,0,163.472
		C335.889,164.162,336.353,164.136,336.82,164.108z M335.833,163.779c0-54.491,0-108.981,0-163.472c54.604,0,109.211,0,163.816,0
		c0,54.6,0,109.202,0,163.801c-54.276,0-108.554,0-162.829,0C336.353,164.136,335.889,164.162,335.833,163.779z M337.149,163.779
		c54.057,0,108.113,0,162.171,0c0-54.38,0-108.762,0-163.143c-54.387,0-108.772,0-163.158,0c0,54.271,0,108.543,0,162.814
		C336.218,163.833,336.682,163.808,337.149,163.779z M337.149,163.779c54.057,0,108.113,0,162.171,0c0-54.38,0-108.762,0-163.143
		c-54.387,0-108.772,0-163.158,0c0,54.271,0,108.543,0,162.814C336.218,163.833,336.682,163.808,337.149,163.779z M168.084,335.505
		c54.711,0,109.419,0,164.13,0c0,54.823,0,109.649,0,164.474c-54.819,0-109.641,0-164.458,0c0-54.496,0-108.992-0.001-163.487
		C167.727,336.023,167.702,335.56,168.084,335.505z M168.084,336.82c0,54.275,0,108.553,0,162.829c54.599,0,109.201,0,163.801,0
		c0-54.605,0-109.212,0-163.816c-54.491,0-108.981,0-163.472,0C168.03,335.889,168.056,336.353,168.084,336.82z M168.414,335.833
		c54.491,0,108.981,0,163.472,0c0,54.604,0,109.211,0,163.816c-54.6,0-109.202,0-163.801,0c0-54.276,0-108.554,0-162.829
		C168.056,336.353,168.03,335.889,168.414,335.833z M168.414,337.149c0,54.057,0,108.113,0,162.171c54.38,0,108.762,0,163.143,0
		c0-54.387,0-108.772,0-163.158c-54.271,0-108.543,0-162.814,0C168.359,336.218,168.385,336.682,168.414,337.149z M168.414,337.149
		c0,54.057,0,108.113,0,162.171c54.38,0,108.762,0,163.143,0c0-54.387,0-108.772,0-163.158c-54.271,0-108.543,0-162.814,0
		C168.359,336.218,168.385,336.682,168.414,337.149z M167.755,331.229c0.001-54.495,0.001-108.991,0.001-163.487
		c54.818,0,109.639,0,164.458,0c0,54.824,0,109.65,0,164.474c-54.711,0-109.419,0-164.13,0
		C167.702,332.16,167.727,331.696,167.755,331.229z M168.414,331.886c54.491,0,108.981,0,163.472,0c0-54.604,0-109.21,0-163.815
		c-54.6,0-109.202,0-163.801,0c0,54.276,0,108.554,0,162.829C168.056,331.367,168.03,331.831,168.414,331.886z M168.084,330.899
		c0-54.275,0-108.553,0-162.829c54.599,0,109.201,0,163.801,0c0,54.605,0,109.212,0,163.815c-54.491,0-108.981,0-163.472,0
		C168.03,331.831,168.056,331.367,168.084,330.899z M168.742,331.557c54.271,0,108.544,0,162.814,0c0-54.385,0-108.771,0-163.157
		c-54.381,0-108.762,0-163.143,0c0,54.058,0,108.114,0,162.171C168.385,331.038,168.359,331.502,168.742,331.557z M168.742,331.557
		c54.271,0,108.544,0,162.814,0c0-54.385,0-108.771,0-163.157c-54.381,0-108.762,0-163.143,0c0,54.058,0,108.114,0,162.171
		C168.385,331.038,168.359,331.502,168.742,331.557z M168.084-0.022c54.711,0,109.419,0,164.13,0c0,54.824,0,109.65,0,164.474
		c-54.819,0-109.641,0-164.458,0c0-54.496,0-108.991-0.001-163.487C167.727,0.497,167.702,0.033,168.084-0.022z M168.084,1.294
		c0,54.275,0,108.552,0,162.829c54.599,0,109.201,0,163.801,0c0-54.605,0-109.211,0-163.815c-54.491,0-108.981,0-163.472,0
		C168.03,0.362,168.056,0.826,168.084,1.294z M168.414,0.307c54.491,0,108.981,0,163.472,0c0,54.604,0,109.21,0,163.815
		c-54.6,0-109.202,0-163.801,0c0-54.276,0-108.554,0-162.829C168.056,0.826,168.03,0.362,168.414,0.307z M168.414,1.623
		c0,54.058,0,108.113,0,162.171c54.38,0,108.762,0,163.143,0c0-54.386,0-108.772,0-163.158c-54.271,0-108.543,0-162.814,0
		C168.359,0.691,168.385,1.155,168.414,1.623z M168.414,1.623c0,54.058,0,108.113,0,162.171c54.38,0,108.762,0,163.143,0
		c0-54.386,0-108.772,0-163.158c-54.271,0-108.543,0-162.814,0C168.359,0.691,168.385,1.155,168.414,1.623z M-0.022,499.635
		c0-54.712,0-109.42,0-164.13c54.824,0,109.65,0,164.474,0c0,54.818,0,109.64,0,164.458c-54.496,0-108.991,0-163.487,0
		C0.498,499.991,0.033,500.018-0.022,499.635z M1.294,499.635c54.275-0.001,108.553-0.001,162.829-0.001c0-54.599,0-109.2,0-163.801
		c-54.604,0-109.211,0-163.815,0c0,54.491,0,108.98,0,163.473C0.362,499.688,0.827,499.662,1.294,499.635z M0.307,499.306
		c0-54.492,0-108.981,0-163.473c54.604,0,109.211,0,163.815,0c0,54.601,0,109.202,0,163.801c-54.275,0-108.553,0-162.829,0.001
		C0.827,499.662,0.362,499.688,0.307,499.306z M1.623,499.306c54.058-0.001,108.114-0.001,162.171-0.001
		c0-54.38,0-108.762,0-163.143c-54.386,0-108.772,0-163.158,0c0,54.271,0,108.543,0,162.814
		C0.691,499.359,1.156,499.334,1.623,499.306z M1.623,499.306c54.058-0.001,108.114-0.001,162.171-0.001
		c0-54.38,0-108.762,0-163.143c-54.386,0-108.772,0-163.158,0c0,54.271,0,108.543,0,162.814
		C0.691,499.359,1.156,499.334,1.623,499.306z M0.965,167.756c54.496,0,108.991,0,163.487,0c0,54.818,0,109.64,0,164.458
		c-54.824,0-109.65,0-164.474,0c0-54.711,0-109.418,0-164.13C0.033,167.702,0.498,167.728,0.965,167.756z M0.307,168.414
		c0,54.492,0,108.981,0,163.472c54.604,0,109.211,0,163.815,0c0-54.6,0-109.201,0-163.8c-54.275,0-108.553,0-162.829-0.001
		C0.827,168.057,0.362,168.031,0.307,168.414z M1.294,168.085c54.275,0.001,108.553,0.001,162.829,0.001c0,54.599,0,109.2,0,163.8
		c-54.604,0-109.211,0-163.815,0c0-54.49,0-108.98,0-163.472C0.362,168.031,0.827,168.057,1.294,168.085z M0.636,168.743
		c0,54.271,0,108.544,0,162.813c54.386,0,108.772,0,163.158,0c0-54.38,0-108.762,0-163.142c-54.058,0-108.114,0-162.171,0
		C1.156,168.386,0.691,168.36,0.636,168.743z M0.636,168.743c0,54.271,0,108.544,0,162.813c54.386,0,108.772,0,163.158,0
		c0-54.38,0-108.762,0-163.142c-54.058,0-108.114,0-162.171,0C1.156,168.386,0.691,168.36,0.636,168.743z M-0.022,164.108
		c0-54.711,0-109.42,0-164.13c54.824,0,109.65,0,164.474,0c0,54.819,0,109.641,0,164.459c-54.496,0-108.991,0-163.487,0
		C0.498,164.465,0.033,164.491-0.022,164.108z M1.294,164.108c54.275,0,108.553,0,162.829,0c0-54.599,0-109.201,0-163.801
		c-54.604,0-109.211,0-163.815,0c0,54.491,0,108.981,0,163.472C0.362,164.162,0.827,164.136,1.294,164.108z M0.307,163.779
		c0-54.491,0-108.981,0-163.472c54.604,0,109.211,0,163.815,0c0,54.6,0,109.202,0,163.801c-54.275,0-108.553,0-162.829,0
		C0.827,164.136,0.362,164.162,0.307,163.779z M1.623,163.779c54.058,0,108.114,0,162.171,0c0-54.38,0-108.762,0-163.143
		c-54.386,0-108.772,0-163.158,0c0,54.271,0,108.543,0,162.814C0.691,163.833,1.156,163.808,1.623,163.779z M1.623,163.779
		c54.058,0,108.114,0,162.171,0c0-54.38,0-108.762,0-163.143c-54.386,0-108.772,0-163.158,0c0,54.271,0,108.543,0,162.814
		C0.691,163.833,1.156,163.808,1.623,163.779z"></path>
</g>
<g id="A">
	<path class="paintable" fill-rule="evenodd" clip-rule="evenodd" fill="#A7A9AC" d="M359.518,463.124c0-0.109,0-0.22,0-0.328
		c1.592-2.094,2.118-6.294,3.289-8.881c3.49-7.714,8.979-13.997,17.764-17.433c-1.117-2.063-3.845-2.516-4.605-4.935
		c9.886-6.963,26.627,1.196,37.829,3.618c3.277,0.709,6.978,1.923,10.197,0c-0.311-5.857-6.759-6.788-10.855-8.223
		c-11.818-4.138-21.146-10.232-29.605-18.09c-1.521-1.414-3.661-2.761-4.275-4.935c2.077-0.923,5.222-2.397,8.224-1.315
		c-0.254-1.643-2.029-2.969-3.29-4.934c-3.277-5.109-5.593-12.025-6.25-20.064c10.126,1.497,18.774,4.471,24.671,10.196
		c-0.977-3.397,0.276-6.796,1.646-8.88c8.766,7.95,16.521,17.38,21.381,29.932c2.267,5.856,2.701,13.594,9.211,15.129
		c2.463-2.506,1.226-6.446,0.657-9.209c-1.742-8.474-5.874-17.491-6.579-26.643c-0.39-5.067-0.019-9.438,2.632-12.17
		c2.282,0.788,3.314,2.825,4.605,4.605c3.346-7.311,8.242-12.74,15.46-16.446c3.409-1.75,7.233-2.748,10.855-4.605
		c0.219,0,0.438,0,0.658,0c-0.359,1.674-1.881,2.785-2.961,3.948c-8.299,8.932-14.52,18.866-18.092,32.233
		c-4.091,15.304-2.796,36.043,2.632,49.009c-14.954-5.69-33.861-6.583-49.013-2.632c-11.706,3.053-20.097,8.239-27.961,14.473
		c-2.756,2.184-5.259,5.496-7.895,6.578C359.753,463.163,359.614,463.094,359.518,463.124z M499.979,499.963
		c0-10.964,0-21.928,0-32.892c-0.569,0.528-2.034,0.159-2.303,0.986c3.014,7.227,0.979,15.675-6.25,15.788
		c-5.505,0.087-9.642-4.685-9.211-11.841c-4.144,0.196-7.486-0.409-10.855-0.987c-0.176,2.737,1.129,6.738,0.658,10.854
		c6.159,0.019,11.95,3.247,11.842,9.539c-0.122,7.025-8.656,9.509-15.46,5.921c-0.834,0.373-0.955,1.457-0.987,2.631
		C478.268,499.963,489.123,499.963,499.979,499.963z M359.847,204.595c2.636,1.082,5.139,4.395,7.895,6.578
		c7.864,6.233,16.255,11.42,27.961,14.472c15.151,3.952,34.059,3.059,49.013-2.631c-5.428,12.965-6.723,33.704-2.632,49.009
		c3.572,13.367,9.793,23.302,18.092,32.233c1.08,1.163,2.602,2.274,2.961,3.947c-0.22,0-0.439,0-0.658,0
		c-3.622-1.857-7.446-2.854-10.855-4.604c-7.218-3.706-12.114-9.137-15.46-16.446c-1.291,1.78-2.323,3.817-4.605,4.605
		c-2.65-2.732-3.021-7.103-2.632-12.17c0.705-9.151,4.837-18.169,6.579-26.643c0.568-2.763,1.806-6.704-0.657-9.21
		c-6.51,1.536-6.944,9.273-9.211,15.13c-4.859,12.552-12.615,21.981-21.381,29.932c-1.369-2.084-2.622-5.483-1.646-8.88
		c-5.896,5.726-14.545,8.699-24.671,10.195c0.657-8.038,2.973-14.954,6.25-20.063c1.261-1.966,3.036-3.291,3.29-4.934
		c-3.002,1.082-6.146-0.394-8.224-1.315c0.614-2.175,2.755-3.521,4.275-4.935c8.459-7.857,17.787-13.952,29.605-18.09
		c4.097-1.435,10.545-2.365,10.855-8.223c-3.22-1.922-6.92-0.708-10.197,0c-11.202,2.422-27.943,10.582-37.829,3.619
		c0.761-2.418,3.488-2.871,4.605-4.934c-8.784-3.436-14.273-9.72-17.764-17.433c-1.171-2.586-1.697-6.787-3.289-8.88
		c0-0.109,0-0.219,0-0.329C359.614,204.626,359.753,204.557,359.847,204.595z M467.412,167.757c0.032,1.173,0.153,2.258,0.987,2.631
		c6.804-3.588,15.338-1.105,15.46,5.92c0.108,6.292-5.683,9.52-11.842,9.539c0.471,4.117-0.834,8.118-0.658,10.854
		c3.369-0.578,6.712-1.184,10.855-0.987c-0.431-7.157,3.706-11.928,9.211-11.842c7.229,0.114,9.264,8.562,6.25,15.789
		c0.269,0.827,1.733,0.458,2.303,0.987c0-10.964,0-21.928,0-32.892C489.123,167.757,478.268,167.757,467.412,167.757z
		 M359.518,127.598c0-0.11,0-0.219,0-0.329c1.592-2.093,2.118-6.294,3.289-8.881c3.49-7.713,8.979-13.996,17.764-17.433
		c-1.117-2.064-3.845-2.516-4.605-4.934c9.886-6.963,26.627,1.195,37.829,3.618c3.277,0.709,6.978,1.922,10.197,0
		c-0.311-5.857-6.759-6.788-10.855-8.223c-11.818-4.139-21.146-10.232-29.605-18.091c-1.521-1.413-3.661-2.76-4.275-4.934
		c2.077-0.923,5.222-2.398,8.224-1.315c-0.254-1.642-2.029-2.969-3.29-4.934c-3.277-5.109-5.593-12.025-6.25-20.064
		c10.126,1.497,18.774,4.471,24.671,10.197c-0.977-3.397,0.276-6.796,1.646-8.881c8.766,7.95,16.521,17.38,21.381,29.932
		c2.267,5.857,2.701,13.595,9.211,15.13c2.463-2.506,1.226-6.447,0.657-9.21c-1.742-8.474-5.874-17.491-6.579-26.642
		c-0.39-5.068-0.019-9.438,2.632-12.17c2.282,0.788,3.314,2.825,4.605,4.605c3.346-7.31,8.242-12.74,15.46-16.446
		c3.409-1.75,7.233-2.748,10.855-4.605c0.219,0,0.438,0,0.658,0c-0.359,1.673-1.881,2.785-2.961,3.947
		c-8.299,8.932-14.52,18.867-18.092,32.234c-4.091,15.305-2.796,36.043,2.632,49.009c-14.954-5.689-33.861-6.583-49.013-2.631
		c-11.706,3.053-20.097,8.239-27.961,14.473c-2.756,2.184-5.259,5.496-7.895,6.578C359.753,127.637,359.614,127.567,359.518,127.598
		z M499.979,164.437c0-10.964,0-21.928,0-32.892c-0.569,0.528-2.034,0.159-2.303,0.987c3.014,7.226,0.979,15.674-6.25,15.788
		c-5.505,0.087-9.642-4.685-9.211-11.841c-4.144,0.196-7.486-0.41-10.855-0.987c-0.176,2.736,1.129,6.737,0.658,10.854
		c6.159,0.019,11.95,3.247,11.842,9.539c-0.122,7.025-8.656,9.508-15.46,5.92c-0.834,0.373-0.955,1.458-0.987,2.631
		C478.268,164.437,489.123,164.437,499.979,164.437z M204.594,359.518c0.11,0,0.22,0,0.329,0c2.093,1.592,6.293,2.117,8.881,3.289
		c7.713,3.49,13.997,8.979,17.432,17.764c2.064-1.117,2.516-3.845,4.935-4.605c6.963,9.885-1.196,26.627-3.619,37.829
		c-0.708,3.276-1.922,6.978,0,10.197c5.857-0.311,6.789-6.759,8.223-10.855c4.139-11.818,10.232-21.146,18.091-29.605
		c1.413-1.521,2.76-3.662,4.934-4.275c0.923,2.076,2.398,5.222,1.315,8.224c1.643-0.254,2.969-2.029,4.934-3.29
		c5.11-3.277,12.025-5.593,20.064-6.25c-1.497,10.126-4.471,18.774-10.196,24.671c3.397-0.978,6.796,0.276,8.881,1.646
		c-7.95,8.766-17.38,16.521-29.932,21.381c-5.856,2.267-13.595,2.701-15.13,9.211c2.506,2.463,6.447,1.226,9.209,0.657
		c8.474-1.742,17.491-5.874,26.643-6.58c5.068-0.389,9.438-0.018,12.17,2.632c-0.788,2.282-2.825,3.315-4.604,4.605
		c7.31,3.346,12.74,8.243,16.446,15.46c1.749,3.409,2.747,7.234,4.604,10.855c0,0.22,0,0.439,0,0.658
		c-1.673-0.358-2.785-1.88-3.947-2.961c-8.932-8.298-18.867-14.519-32.234-18.092c-15.304-4.09-36.042-2.795-49.008,2.633
		c5.69-14.954,6.583-33.862,2.631-49.013c-3.052-11.706-8.239-20.097-14.472-27.961c-2.184-2.756-5.496-5.259-6.579-7.895
		C204.556,359.753,204.625,359.614,204.594,359.518z M167.756,499.979c10.964,0,21.927,0,32.891,0
		c-0.528-0.569-0.159-2.034-0.987-2.303c-7.225,3.014-15.674,0.979-15.788-6.25c-0.086-5.505,4.685-9.642,11.841-9.211
		c-0.196-4.144,0.41-7.486,0.987-10.855c-2.737-0.176-6.738,1.129-10.855,0.658c-0.018,6.159-3.247,11.95-9.539,11.842
		c-7.025-0.122-9.509-8.656-5.92-15.46c-0.373-0.834-1.458-0.955-2.631-0.987C167.756,478.268,167.756,489.123,167.756,499.979z
		 M204.594,307.873c1.083-2.636,4.395-5.139,6.579-7.895c6.233-7.864,11.42-16.255,14.472-27.961
		c3.953-15.15,3.059-34.059-2.631-49.013c12.966,5.428,33.705,6.723,49.008,2.633c13.367-3.573,23.303-9.794,32.234-18.092
		c1.162-1.081,2.274-2.602,3.947-2.96c0,0.218,0,0.438,0,0.658c-1.857,3.621-2.855,7.446-4.604,10.855
		c-3.706,7.217-9.137,12.114-16.446,15.46c1.779,1.29,3.816,2.323,4.604,4.605c-2.732,2.65-7.102,3.021-12.17,2.632
		c-9.151-0.706-18.169-4.838-26.643-6.581c-2.763-0.568-6.703-1.805-9.209,0.658c1.536,6.509,9.274,6.944,15.13,9.21
		c12.552,4.86,21.981,12.616,29.932,21.381c-2.085,1.369-5.483,2.623-8.881,1.645c5.726,5.897,8.699,14.546,10.196,24.672
		c-8.039-0.657-14.954-2.973-20.064-6.25c-1.965-1.261-3.291-3.037-4.934-3.29c1.083,3.002-0.393,6.147-1.315,8.224
		c-2.174-0.614-3.521-2.755-4.934-4.276c-7.858-8.459-13.952-17.786-18.091-29.605c-1.435-4.096-2.366-10.544-8.223-10.855
		c-1.922,3.22-0.708,6.92,0,10.198c2.423,11.202,10.582,27.943,3.619,37.829c-2.418-0.761-2.87-3.489-4.935-4.605
		c-3.436,8.784-9.719,14.273-17.432,17.763c-2.587,1.172-6.788,1.697-8.881,3.29c-0.109,0-0.219,0-0.329,0
		C204.625,308.105,204.556,307.967,204.594,307.873z M167.756,200.307c1.173-0.032,2.258-0.153,2.631-0.987
		c-3.588-6.804-1.105-15.338,5.92-15.46c6.292-0.108,9.521,5.683,9.539,11.842c4.117-0.471,8.118,0.833,10.855,0.658
		c-0.578-3.369-1.184-6.711-0.987-10.855c-7.156,0.431-11.928-3.706-11.841-9.21c0.114-7.229,8.563-9.264,15.788-6.25
		c0.828-0.269,0.459-1.733,0.987-2.303c-10.964,0-21.927,0-32.891,0C167.756,178.597,167.756,189.452,167.756,200.307z
		 M204.594,23.991c0.11,0,0.22,0,0.329,0c2.093,1.592,6.293,2.118,8.881,3.29c7.713,3.49,13.997,8.979,17.432,17.763
		c2.064-1.117,2.516-3.845,4.935-4.605c6.963,9.886-1.196,26.627-3.619,37.829c-0.708,3.277-1.922,6.977,0,10.197
		c5.857-0.311,6.789-6.759,8.223-10.855c4.139-11.819,10.232-21.146,18.091-29.605c1.413-1.521,2.76-3.662,4.934-4.276
		c0.923,2.077,2.398,5.222,1.315,8.224c1.643-0.253,2.969-2.029,4.934-3.29c5.11-3.277,12.025-5.593,20.064-6.25
		c-1.497,10.125-4.471,18.774-10.196,24.671c3.397-0.977,6.796,0.276,8.881,1.645c-7.95,8.766-17.38,16.522-29.932,21.381
		c-5.856,2.267-13.595,2.701-15.13,9.211c2.506,2.463,6.447,1.226,9.209,0.658c8.474-1.743,17.491-5.875,26.643-6.58
		c5.068-0.39,9.438-0.019,12.17,2.631c-0.788,2.282-2.825,3.315-4.604,4.605c7.31,3.346,12.74,8.242,16.446,15.46
		c1.749,3.409,2.747,7.234,4.604,10.855c0,0.219,0,0.438,0,0.658c-1.673-0.359-2.785-1.88-3.947-2.96
		c-8.932-8.299-18.867-14.52-32.234-18.092c-15.304-4.09-36.042-2.795-49.008,2.632c5.69-14.954,6.583-33.862,2.631-49.013
		c-3.052-11.706-8.239-20.097-14.472-27.96c-2.184-2.755-5.496-5.259-6.579-7.895C204.556,24.226,204.625,24.087,204.594,23.991z
		 M167.756,164.452c10.964,0,21.927,0,32.891,0c-0.528-0.569-0.159-2.034-0.987-2.303c-7.225,3.014-15.674,0.979-15.788-6.25
		c-0.086-5.505,4.685-9.641,11.841-9.21c-0.196-4.144,0.41-7.486,0.987-10.855c-2.737-0.176-6.738,1.128-10.855,0.658
		c-0.018,6.159-3.247,11.95-9.539,11.842c-7.025-0.122-9.509-8.657-5.92-15.46c-0.373-0.834-1.458-0.955-2.631-0.987
		C167.756,142.741,167.756,153.596,167.756,164.452z M23.991,463.124c0-0.109,0-0.22,0-0.328c1.593-2.094,2.119-6.294,3.29-8.881
		c3.49-7.714,8.979-13.997,17.763-17.433c-1.116-2.063-3.844-2.516-4.605-4.935c9.886-6.963,26.627,1.196,37.829,3.618
		c3.277,0.709,6.978,1.923,10.197,0c-0.311-5.857-6.759-6.788-10.855-8.223c-11.818-4.138-21.146-10.232-29.605-18.09
		c-1.521-1.414-3.661-2.761-4.276-4.935c2.078-0.923,5.222-2.397,8.224-1.315c-0.253-1.643-2.029-2.969-3.29-4.934
		c-3.277-5.109-5.593-12.025-6.25-20.064c10.126,1.497,18.775,4.471,24.671,10.196c-0.977-3.397,0.277-6.796,1.645-8.88
		c8.766,7.95,16.522,17.38,21.381,29.932c2.268,5.856,2.702,13.594,9.211,15.129c2.463-2.506,1.226-6.446,0.658-9.209
		c-1.742-8.474-5.874-17.491-6.579-26.643c-0.391-5.067-0.019-9.438,2.631-12.17c2.282,0.788,3.315,2.825,4.605,4.605
		c3.346-7.311,8.242-12.74,15.46-16.446c3.409-1.75,7.233-2.748,10.855-4.605c0.22,0,0.438,0,0.658,0
		c-0.359,1.674-1.88,2.785-2.961,3.948c-8.299,8.932-14.519,18.866-18.092,32.233c-4.09,15.304-2.795,36.043,2.632,49.009
		c-14.954-5.69-33.861-6.583-49.013-2.632c-11.705,3.053-20.097,8.239-27.96,14.473c-2.755,2.184-5.259,5.496-7.895,6.578
		C24.226,463.163,24.088,463.094,23.991,463.124z M164.452,499.963c0-10.964,0-21.928,0-32.892
		c-0.569,0.528-2.034,0.159-2.303,0.986c3.015,7.227,0.979,15.675-6.25,15.788c-5.505,0.087-9.641-4.685-9.21-11.841
		c-4.144,0.196-7.485-0.409-10.855-0.987c-0.176,2.737,1.128,6.738,0.658,10.854c6.159,0.019,11.951,3.247,11.842,9.539
		c-0.122,7.025-8.657,9.509-15.46,5.921c-0.833,0.373-0.955,1.457-0.987,2.631C142.741,499.963,153.596,499.963,164.452,499.963z
		 M24.32,204.595c2.635,1.082,5.139,4.395,7.895,6.578c7.864,6.233,16.255,11.42,27.96,14.472
		c15.152,3.952,34.059,3.059,49.013-2.631c-5.427,12.965-6.722,33.704-2.632,49.009c3.573,13.367,9.793,23.302,18.092,32.233
		c1.081,1.163,2.602,2.274,2.961,3.947c-0.22,0-0.438,0-0.658,0c-3.622-1.857-7.446-2.854-10.855-4.604
		c-7.219-3.706-12.115-9.137-15.46-16.446c-1.291,1.78-2.323,3.817-4.605,4.605c-2.65-2.732-3.022-7.103-2.631-12.17
		c0.705-9.151,4.837-18.169,6.579-26.643c0.568-2.763,1.805-6.704-0.658-9.21c-6.509,1.536-6.943,9.273-9.211,15.13
		c-4.859,12.552-12.615,21.981-21.381,29.932c-1.368-2.084-2.622-5.483-1.645-8.88c-5.896,5.726-14.545,8.699-24.671,10.195
		c0.657-8.038,2.973-14.954,6.25-20.063c1.261-1.966,3.037-3.291,3.29-4.934c-3.001,1.082-6.146-0.394-8.224-1.315
		c0.615-2.175,2.755-3.521,4.276-4.935c8.458-7.857,17.787-13.952,29.605-18.09c4.097-1.435,10.544-2.365,10.855-8.223
		c-3.219-1.922-6.92-0.708-10.197,0c-11.202,2.422-27.943,10.582-37.829,3.619c0.761-2.418,3.489-2.871,4.605-4.934
		c-8.784-3.436-14.273-9.72-17.763-17.433c-1.171-2.586-1.697-6.787-3.29-8.88c0-0.109,0-0.219,0-0.329
		C24.088,204.626,24.226,204.557,24.32,204.595z M131.886,167.757c0.032,1.173,0.154,2.258,0.987,2.631
		c6.804-3.588,15.338-1.105,15.46,5.92c0.109,6.292-5.683,9.52-11.842,9.539c0.47,4.117-0.834,8.118-0.658,10.854
		c3.37-0.578,6.711-1.184,10.855-0.987c-0.431-7.157,3.706-11.928,9.21-11.842c7.229,0.114,9.265,8.562,6.25,15.789
		c0.269,0.827,1.734,0.458,2.303,0.987c0-10.964,0-21.928,0-32.892C153.596,167.757,142.741,167.757,131.886,167.757z
		 M23.991,127.598c0-0.11,0-0.219,0-0.329c1.593-2.093,2.119-6.294,3.29-8.881c3.49-7.713,8.979-13.996,17.763-17.433
		c-1.116-2.064-3.844-2.516-4.605-4.934c9.886-6.963,26.627,1.195,37.829,3.618c3.277,0.709,6.978,1.922,10.197,0
		c-0.311-5.857-6.759-6.788-10.855-8.223c-11.818-4.139-21.146-10.232-29.605-18.091c-1.521-1.413-3.661-2.76-4.276-4.934
		c2.078-0.923,5.222-2.398,8.224-1.315c-0.253-1.642-2.029-2.969-3.29-4.934c-3.277-5.109-5.593-12.025-6.25-20.064
		c10.126,1.497,18.775,4.471,24.671,10.197c-0.977-3.397,0.277-6.796,1.645-8.881c8.766,7.95,16.522,17.38,21.381,29.932
		c2.268,5.857,2.702,13.595,9.211,15.13c2.463-2.506,1.226-6.447,0.658-9.21c-1.742-8.474-5.874-17.491-6.579-26.642
		c-0.391-5.068-0.019-9.438,2.631-12.17c2.282,0.788,3.315,2.825,4.605,4.605c3.346-7.31,8.242-12.74,15.46-16.446
		c3.409-1.75,7.233-2.748,10.855-4.605c0.22,0,0.438,0,0.658,0c-0.359,1.673-1.88,2.785-2.961,3.947
		c-8.299,8.932-14.519,18.867-18.092,32.234c-4.09,15.305-2.795,36.043,2.632,49.009c-14.954-5.689-33.861-6.583-49.013-2.631
		c-11.705,3.053-20.097,8.239-27.96,14.473c-2.755,2.184-5.259,5.496-7.895,6.578C24.226,127.637,24.088,127.567,23.991,127.598z
		 M164.452,164.437c0-10.964,0-21.928,0-32.892c-0.569,0.528-2.034,0.159-2.303,0.987c3.015,7.226,0.979,15.674-6.25,15.788
		c-5.505,0.087-9.641-4.685-9.21-11.841c-4.144,0.196-7.485-0.41-10.855-0.987c-0.176,2.736,1.128,6.737,0.658,10.854
		c6.159,0.019,11.951,3.247,11.842,9.539c-0.122,7.025-8.657,9.508-15.46,5.92c-0.833,0.373-0.955,1.458-0.987,2.631
		C142.741,164.437,153.596,164.437,164.452,164.437z"></path>
</g>
<g id="B">
	<path class="paintable" fill-rule="evenodd" clip-rule="evenodd" fill="#808285" d="M335.505,456.546c0-3.729,0-7.456,0-11.184
		c2.456-1.23,2.456-3.045,0-4.275c0-5.812,0-11.622,0-17.433c6.989-6.496,13.403-13.568,20.395-20.064
		c-3.023-5.332-5.638-11.028-5.593-18.748c0.151-25.753,28.901-43.782,52.961-29.274c7.264-6.222,13.679-13.293,20.395-20.062
		c5.921,0,11.842,0,17.763,0c0.115,1.089,0.985,1.426,1.645,1.973c1.21-0.215,1.639-1.212,2.303-1.973c3.729,0,7.456,0,11.185,0
		c-2.186,2.309-4.331,4.659-6.579,6.906c-2.267,2.266-4.521,4.841-7.237,6.25c-3.479-3.977-7.248-7.663-11.184-11.184
		c-9.592,8.117-18.735,19.222-28.618,27.63c-15.701-16.169-45.64-3.329-45.065,20.392c0.188,7.796,3.591,13.406,7.236,17.762
		c-7.086,7.209-13.477,13.806-20.724,21.052c-1.641,1.64-6.983,5.523-6.907,7.235c0.053,1.203,3.917,4.248,5.592,5.921
		c0.896,0.897,5.961,4.988,5.921,5.921c0.001-0.027-2.284,2.284-3.289,3.289C342.459,449.92,337.3,454.843,335.505,456.546z
		 M391.755,499.963c-1.794-1.306-4.67-3.062-7.896-4.604c-3.714-1.776-8.938-4.514-13.815-3.289
		c-3.517,0.883-4.983,4.136-6.25,7.894C373.113,499.963,382.434,499.963,391.755,499.963z M427.938,475.623
		c3.046-4.339,7.901-6.412,12.829-7.565c-3.401-3.527-10.983-2.107-14.145,0.658c-0.106-2.416-0.599-4.445-1.974-5.592
		c-1.798,2.574-2.936,6.567-3.29,11.184c-0.4,5.192,1.371,11.336-1.645,14.472c-3.183-0.423-3.687-4.501-3.947-7.894
		c-0.671-8.698,1.019-26.443-9.539-22.695c-7.046,2.502-8.919,10.113-5.264,18.091c1.323,2.889,3.148,5.469,5.264,7.236
		c3.153,2.635,8.092,3.617,8.224,8.223c-4.035,1.451-6.581-1.658-8.882-3.618c-2.146-1.826-4.353-3.855-6.25-6.578
		c-3.29-4.719-5.924-15.24-13.158-14.473c-5.704,0.605-8.17,9.577-6.579,15.46c1.979,7.315,10.502,10.049,18.422,11.841
		c5.103,1.153,11.269,1.649,14.145,5.591c5.481,0,10.964,0,16.447,0C423.282,494.036,423.573,481.84,427.938,475.623z
		 M494.386,397.67c-1.16-5.103-2.474-10.667-5.592-14.144c-1.159-1.292-3.714-3.295-5.592-3.947
		c-5.546-1.925-15.538,0.671-16.119,6.578c-0.709,7.205,10.005,9.856,14.474,12.828c2.603,1.73,4.951,4.296,6.908,6.578
		c1.903,2.221,5.026,5.34,3.289,8.881c-3.229,0.079-4.381-2.567-5.592-4.276c-2.848-4.017-4.789-7.313-10.197-9.538
		c-3.3-1.357-7.979-2.676-11.842-0.987c-5.127,2.241-9.652,11.437-1.974,14.473c3.294,1.304,10.486,1.455,14.474,1.645
		c3.623,0.173,12.656-0.046,12.171,3.618c-0.437,3.288-10.359,1.698-14.474,1.974c-4.442,0.298-8.289,1.175-10.855,3.289
		c0.78,1.522,3.111,1.494,4.935,1.974c1.011,0.434-0.545,1.46-0.987,2.302c-1.403,2.673-2.116,8.607,0.329,11.842
		c2.45-9.8,10.332-17.649,23.355-16.117c3.581,0.422,5.86,2.076,8.882,3.618c0-5.373,0-10.745,0-16.116
		C496.151,409.011,495.593,402.979,494.386,397.67z M492.412,375.632c0.805,4.009,3.414,8.872,5.264,12.499
		c0.668,1.313,1.44,2.721,2.303,3.289c0-9.209,0-18.419,0-27.629C494.38,365.243,490.926,368.229,492.412,375.632z M345.702,221.041
		c1.005,1.005,3.29,3.316,3.289,3.289c0.04,0.933-5.024,5.023-5.921,5.92c-1.675,1.673-5.539,4.718-5.592,5.921
		c-0.076,1.712,5.267,5.596,6.907,7.235c7.247,7.247,13.638,13.843,20.724,21.051c-3.646,4.356-7.048,9.967-7.236,17.762
		c-0.574,23.722,29.364,36.562,45.065,20.393c9.883,8.407,19.026,19.512,28.618,27.63c3.936-3.521,7.705-7.207,11.184-11.184
		c2.717,1.409,4.971,3.983,7.237,6.25c2.248,2.247,4.394,4.598,6.579,6.906c-3.729,0-7.456,0-11.185,0
		c-0.664-0.761-1.093-1.758-2.303-1.973c-0.659,0.547-1.529,0.883-1.645,1.973c-5.921,0-11.842,0-17.763,0
		c-6.716-6.771-13.131-13.842-20.395-20.063c-24.06,14.509-52.81-3.521-52.961-29.273c-0.045-7.72,2.569-13.416,5.593-18.749
		c-6.991-6.496-13.405-13.567-20.395-20.064c0-5.811,0-11.621,0-17.432c2.456-1.231,2.456-3.045,0-4.276c0-3.728,0-7.455,0-11.184
		C337.3,212.876,342.459,217.799,345.702,221.041z M363.794,167.756c1.267,3.758,2.733,7.011,6.25,7.894
		c4.878,1.225,10.102-1.513,13.815-3.29c3.226-1.542,6.102-3.298,7.896-4.604C382.434,167.756,373.113,167.756,363.794,167.756z
		 M428.597,167.757c-5.483,0-10.966,0-16.447,0c-2.876,3.941-9.042,4.437-14.145,5.591c-7.92,1.791-16.442,4.525-18.422,11.841
		c-1.591,5.882,0.875,14.854,6.579,15.46c7.234,0.768,9.868-9.754,13.158-14.473c1.897-2.723,4.104-4.752,6.25-6.578
		c2.301-1.96,4.847-5.069,8.882-3.619c-0.132,4.606-5.07,5.588-8.224,8.223c-2.115,1.768-3.94,4.347-5.264,7.236
		c-3.655,7.977-1.782,15.589,5.264,18.09c10.558,3.749,8.868-13.997,9.539-22.695c0.261-3.393,0.765-7.471,3.947-7.894
		c3.016,3.136,1.244,9.28,1.645,14.472c0.354,4.616,1.492,8.609,3.29,11.183c1.375-1.146,1.867-3.176,1.974-5.592
		c3.161,2.766,10.743,4.186,14.145,0.658c-4.928-1.153-9.783-3.226-12.829-7.565C423.573,185.879,423.282,173.684,428.597,167.757z
		 M499.979,255.577c0-5.371,0-10.744,0-16.116c-3.021,1.542-5.301,3.196-8.882,3.618c-13.023,1.532-20.905-6.317-23.355-16.117
		c-2.445,3.235-1.732,9.169-0.329,11.841c0.442,0.843,1.998,1.869,0.987,2.303c-1.823,0.479-4.154,0.451-4.935,1.973
		c2.566,2.114,6.413,2.991,10.855,3.289c4.114,0.276,14.037-1.314,14.474,1.974c0.485,3.665-8.548,3.446-12.171,3.619
		c-3.987,0.189-11.18,0.341-14.474,1.645c-7.679,3.036-3.153,12.231,1.974,14.473c3.863,1.688,8.542,0.37,11.842-0.987
		c5.408-2.225,7.35-5.521,10.197-9.539c1.211-1.708,2.362-4.355,5.592-4.275c1.737,3.541-1.386,6.66-3.289,8.88
		c-1.957,2.283-4.306,4.849-6.908,6.579c-4.469,2.971-15.183,5.623-14.474,12.828c0.581,5.906,10.573,8.503,16.119,6.577
		c1.878-0.651,4.433-2.654,5.592-3.946c3.118-3.477,4.432-9.042,5.592-14.144C495.593,264.741,496.151,258.709,499.979,255.577z
		 M499.979,303.928c0-9.209,0-18.419,0-27.629c-0.862,0.569-1.635,1.977-2.303,3.29c-1.85,3.627-4.459,8.49-5.264,12.498
		C490.926,299.491,494.38,302.477,499.979,303.928z M335.505,121.02c0-3.728,0-7.456,0-11.183c2.456-1.231,2.456-3.045,0-4.276
		c0-5.811,0-11.622,0-17.433c6.989-6.496,13.403-13.568,20.395-20.064c-3.023-5.333-5.638-11.029-5.593-18.749
		c0.151-25.752,28.901-43.782,52.961-29.273c7.264-6.223,13.679-13.293,20.395-20.064c5.921,0,11.842,0,17.763,0
		c0.115,1.09,0.985,1.427,1.645,1.973c1.21-0.215,1.639-1.212,2.303-1.973c3.729,0,7.456,0,11.185,0
		c-2.186,2.31-4.331,4.66-6.579,6.907c-2.267,2.266-4.521,4.84-7.237,6.25c-3.479-3.977-7.248-7.663-11.184-11.184
		c-9.592,8.118-18.735,19.223-28.618,27.629c-15.701-16.168-45.64-3.328-45.065,20.393c0.188,7.795,3.591,13.405,7.236,17.761
		c-7.086,7.209-13.477,13.805-20.724,21.051c-1.641,1.64-6.983,5.523-6.907,7.236c0.053,1.202,3.917,4.247,5.592,5.92
		c0.896,0.897,5.961,4.988,5.921,5.92c0.001-0.027-2.284,2.284-3.289,3.289C342.459,114.394,337.3,119.317,335.505,121.02z
		 M391.755,164.437c-1.794-1.306-4.67-3.062-7.896-4.605c-3.714-1.776-8.938-4.514-13.815-3.289
		c-3.517,0.883-4.983,4.136-6.25,7.894C373.113,164.437,382.434,164.437,391.755,164.437z M427.938,140.097
		c3.046-4.339,7.901-6.412,12.829-7.565c-3.401-3.528-10.983-2.108-14.145,0.658c-0.106-2.416-0.599-4.445-1.974-5.592
		c-1.798,2.574-2.936,6.567-3.29,11.183c-0.4,5.192,1.371,11.335-1.645,14.472c-3.183-0.423-3.687-4.501-3.947-7.894
		c-0.671-8.698,1.019-26.443-9.539-22.695c-7.046,2.501-8.919,10.113-5.264,18.091c1.323,2.889,3.148,5.469,5.264,7.236
		c3.153,2.635,8.092,3.617,8.224,8.223c-4.035,1.451-6.581-1.658-8.882-3.618c-2.146-1.826-4.353-3.855-6.25-6.578
		c-3.29-4.719-5.924-15.24-13.158-14.473c-5.704,0.605-8.17,9.578-6.579,15.459c1.979,7.315,10.502,10.05,18.422,11.841
		c5.103,1.154,11.269,1.649,14.145,5.591c5.481,0,10.964,0,16.447,0C423.282,158.51,423.573,146.314,427.938,140.097z
		 M494.386,62.144c-1.16-5.102-2.474-10.667-5.592-14.144c-1.159-1.292-3.714-3.295-5.592-3.947
		c-5.546-1.925-15.538,0.671-16.119,6.578c-0.709,7.205,10.005,9.856,14.474,12.828c2.603,1.73,4.951,4.295,6.908,6.578
		c1.903,2.22,5.026,5.34,3.289,8.881c-3.229,0.079-4.381-2.567-5.592-4.276c-2.848-4.017-4.789-7.314-10.197-9.538
		c-3.3-1.357-7.979-2.676-11.842-0.987c-5.127,2.24-9.652,11.436-1.974,14.472c3.294,1.303,10.486,1.455,14.474,1.645
		c3.623,0.173,12.656-0.046,12.171,3.618c-0.437,3.288-10.359,1.698-14.474,1.974c-4.442,0.298-8.289,1.174-10.855,3.289
		c0.78,1.522,3.111,1.494,4.935,1.973c1.011,0.434-0.545,1.46-0.987,2.303c-1.403,2.673-2.116,8.606,0.329,11.841
		c2.45-9.799,10.332-17.649,23.355-16.117c3.581,0.421,5.86,2.076,8.882,3.618c0-5.373,0-10.745,0-16.117
		C496.151,73.484,495.593,67.453,494.386,62.144z M492.412,40.106c0.805,4.008,3.414,8.872,5.264,12.499
		c0.668,1.313,1.44,2.72,2.303,3.289c0-9.209,0-18.419,0-27.629C494.38,29.717,490.926,32.702,492.412,40.106z M211.173,335.505
		c3.728,0,7.456,0,11.184,0c1.23,2.455,3.044,2.455,4.275,0c5.812,0,11.622,0,17.433,0c6.496,6.989,13.568,13.403,20.064,20.395
		c5.332-3.023,11.028-5.639,18.748-5.593c25.753,0.15,43.782,28.901,29.274,52.961c6.222,7.264,13.293,13.679,20.063,20.394
		c0,5.921,0,11.842,0,17.763c-1.09,0.116-1.427,0.986-1.974,1.646c0.216,1.21,1.213,1.638,1.974,2.302c0,3.729,0,7.457,0,11.185
		c-2.31-2.186-4.66-4.33-6.907-6.579c-2.266-2.266-4.84-4.521-6.249-7.236c3.977-3.479,7.662-7.249,11.183-11.185
		c-8.117-9.591-19.222-18.734-27.629-28.617c16.168-15.702,3.328-45.64-20.393-45.065c-7.795,0.188-13.406,3.591-17.762,7.236
		c-7.209-7.086-13.806-13.478-21.051-20.724c-1.64-1.641-5.524-6.983-7.236-6.907c-1.203,0.053-4.248,3.917-5.92,5.592
		c-0.897,0.896-4.988,5.961-5.921,5.921c0.028,0-2.284-2.284-3.289-3.289C217.798,342.459,212.876,337.3,211.173,335.505z
		 M167.756,391.755c1.306-1.794,3.062-4.67,4.604-7.896c1.776-3.715,4.514-8.938,3.289-13.815c-0.882-3.517-4.135-4.983-7.894-6.25
		C167.755,373.113,167.755,382.434,167.756,391.755z M192.096,427.938c4.339,3.046,6.412,7.901,7.565,12.829
		c3.528-3.401,2.109-10.983-0.658-14.145c2.416-0.106,4.445-0.599,5.591-1.974c-2.574-1.798-6.567-2.936-11.183-3.29
		c-5.192-0.4-11.335,1.371-14.473-1.645c0.423-3.183,4.501-3.687,7.894-3.947c8.699-0.671,26.444,1.019,22.695-9.539
		c-2.5-7.046-10.112-8.919-18.09-5.264c-2.889,1.323-5.469,3.148-7.236,5.264c-2.635,3.153-3.617,8.092-8.223,8.224
		c-1.451-4.035,1.658-6.581,3.618-8.882c1.826-2.146,3.854-4.353,6.578-6.25c4.718-3.291,15.24-5.924,14.472-13.158
		c-0.605-5.704-9.577-8.171-15.459-6.579c-7.315,1.979-10.05,10.502-11.841,18.422c-1.154,5.103-1.649,11.269-5.591,14.145
		c0,5.481,0,10.964,0,16.447C173.683,423.282,185.878,423.573,192.096,427.938z M270.049,494.386
		c5.103-1.16,10.667-2.474,14.144-5.592c1.292-1.159,3.296-3.714,3.947-5.592c1.925-5.546-0.671-15.538-6.578-16.119
		c-7.205-0.709-9.856,10.005-12.828,14.474c-1.729,2.603-4.296,4.951-6.578,6.908c-2.22,1.903-5.34,5.026-8.881,3.289
		c-0.079-3.229,2.567-4.381,4.276-5.592c4.017-2.848,7.313-4.789,9.538-10.197c1.357-3.3,2.677-7.979,0.987-11.842
		c-2.241-5.127-11.437-9.652-14.473-1.974c-1.304,3.294-1.455,10.486-1.645,14.474c-0.173,3.623,0.046,12.656-3.618,12.171
		c-3.289-0.437-1.698-10.359-1.974-14.474c-0.298-4.442-1.175-8.289-3.29-10.855c-1.523,0.78-1.494,3.111-1.973,4.935
		c-0.434,1.011-1.46-0.545-2.303-0.987c-2.672-1.403-8.606-2.116-11.841,0.329c9.8,2.45,17.649,10.332,16.117,23.355
		c-0.421,3.581-2.075,5.86-3.618,8.882c5.372,0,10.745,0,16.117,0C258.708,496.151,264.74,495.593,270.049,494.386z
		 M292.087,492.412c-4.009,0.805-8.872,3.414-12.499,5.264c-1.313,0.668-2.72,1.44-3.289,2.303c9.21,0,18.419,0,27.629,0
		C302.476,494.38,299.49,490.926,292.087,492.412z M221.041,322.018c1.005-1.005,3.316-3.289,3.289-3.289
		c0.933-0.04,5.024,5.023,5.921,5.921c1.673,1.674,4.718,5.539,5.92,5.592c1.712,0.076,5.596-5.267,7.236-6.908
		c7.246-7.245,13.842-13.637,21.051-20.724c4.355,3.646,9.967,7.05,17.762,7.237c23.721,0.574,36.561-29.364,20.393-45.065
		c8.407-9.883,19.512-19.027,27.629-28.618c-3.521-3.936-7.206-7.706-11.183-11.184c1.409-2.716,3.983-4.972,6.249-7.237
		c2.247-2.249,4.598-4.393,6.907-6.579c0,3.728,0,7.456,0,11.184c-0.761,0.665-1.758,1.092-1.974,2.303
		c0.547,0.659,0.884,1.529,1.974,1.645c0,5.921,0,11.842,0,17.763c-6.771,6.715-13.842,13.13-20.063,20.394
		c14.508,24.06-3.521,52.81-29.274,52.96c-7.72,0.047-13.416-2.568-18.748-5.592c-6.496,6.991-13.568,13.404-20.064,20.395
		c-5.811,0-11.622,0-17.433,0c-1.231-2.455-3.045-2.455-4.275,0c-3.728,0-7.456,0-11.184,0
		C212.876,330.42,217.798,325.261,221.041,322.018z M167.755,303.926c3.759-1.268,7.012-2.733,7.894-6.25
		c1.226-4.878-1.513-10.102-3.289-13.816c-1.542-3.225-3.298-6.101-4.604-7.895C167.755,285.286,167.755,294.605,167.755,303.926z
		 M167.756,239.123c0,5.483,0,10.966,0,16.447c3.941,2.876,4.437,9.042,5.591,14.145c1.792,7.919,4.526,16.442,11.841,18.421
		c5.882,1.593,14.854-0.875,15.459-6.579c0.768-7.233-9.754-9.866-14.472-13.157c-2.724-1.898-4.752-4.104-6.578-6.25
		c-1.96-2.302-5.069-4.847-3.618-8.882c4.605,0.131,5.588,5.07,8.223,8.224c1.768,2.115,4.347,3.939,7.236,5.264
		c7.978,3.655,15.589,1.782,18.09-5.264c3.749-10.559-13.996-8.868-22.695-9.539c-3.393-0.261-7.471-0.765-7.894-3.948
		c3.137-3.016,9.281-1.244,14.473-1.645c4.615-0.355,8.609-1.492,11.183-3.29c-1.146-1.375-3.176-1.867-5.591-1.974
		c2.767-3.161,4.186-10.744,0.658-14.145c-1.153,4.928-3.226,9.784-7.565,12.829C185.878,244.146,173.683,244.438,167.756,239.123z
		 M255.577,167.741c-5.372,0-10.745,0-16.117,0c1.542,3.021,3.196,5.301,3.618,8.882c1.532,13.023-6.317,20.905-16.117,23.355
		c3.235,2.445,9.169,1.732,11.841,0.329c0.842-0.442,1.869-1.998,2.303-0.987c0.479,1.823,0.45,4.154,1.973,4.934
		c2.115-2.566,2.991-6.413,3.29-10.855c0.275-4.115-1.315-14.037,1.974-14.474c3.664-0.486,3.445,8.547,3.618,12.171
		c0.189,3.987,0.341,11.179,1.645,14.474c3.036,7.679,12.231,3.153,14.473-1.974c1.689-3.864,0.37-8.542-0.987-11.842
		c-2.225-5.408-5.521-7.35-9.538-10.197c-1.709-1.21-4.355-2.362-4.276-5.592c3.541-1.737,6.661,1.387,8.881,3.29
		c2.282,1.957,4.849,4.306,6.578,6.908c2.972,4.469,5.623,15.183,12.828,14.474c5.907-0.581,8.503-10.573,6.578-16.119
		c-0.651-1.878-2.655-4.433-3.947-5.592c-3.477-3.119-9.041-4.432-14.144-5.592C264.74,172.127,258.708,171.568,255.577,167.741z
		 M303.928,167.741c-9.21,0-18.419,0-27.629,0c0.569,0.862,1.976,1.635,3.289,2.303c3.627,1.849,8.49,4.459,12.499,5.263
		C299.49,176.794,302.476,173.34,303.928,167.741z M211.173-0.022c3.728,0,7.456,0,11.184,0c1.23,2.456,3.044,2.456,4.275,0
		c5.812,0,11.622,0,17.433,0c6.496,6.99,13.568,13.404,20.064,20.395c5.332-3.023,11.028-5.638,18.748-5.592
		c25.753,0.151,43.782,28.901,29.274,52.96c6.222,7.264,13.293,13.678,20.063,20.394c0,5.921,0,11.842,0,17.763
		c-1.09,0.116-1.427,0.985-1.974,1.645c0.216,1.21,1.213,1.639,1.974,2.303c0,3.729,0,7.456,0,11.184
		c-2.31-2.186-4.66-4.331-6.907-6.579c-2.266-2.266-4.84-4.521-6.249-7.237c3.977-3.479,7.662-7.249,11.183-11.185
		c-8.117-9.591-19.222-18.735-27.629-28.618c16.168-15.701,3.328-45.64-20.393-45.066c-7.795,0.188-13.406,3.592-17.762,7.237
		c-7.209-7.087-13.806-13.478-21.051-20.724c-1.64-1.641-5.524-6.983-7.236-6.908c-1.203,0.053-4.248,3.918-5.92,5.592
		c-0.897,0.897-4.988,5.961-5.921,5.921c0.028,0-2.284-2.285-3.289-3.29C217.798,6.933,212.876,1.773,211.173-0.022z
		 M167.756,56.228c1.306-1.794,3.062-4.669,4.604-7.895c1.776-3.714,4.514-8.938,3.289-13.816c-0.882-3.517-4.135-4.983-7.894-6.25
		C167.755,37.587,167.755,46.907,167.756,56.228z M192.096,92.412c4.339,3.045,6.412,7.901,7.565,12.829
		c3.528-3.401,2.109-10.984-0.658-14.145c2.416-0.106,4.445-0.599,5.591-1.974c-2.574-1.797-6.567-2.935-11.183-3.29
		c-5.192-0.401-11.335,1.371-14.473-1.645c0.423-3.183,4.501-3.687,7.894-3.947c8.699-0.671,26.444,1.019,22.695-9.54
		c-2.5-7.045-10.112-8.918-18.09-5.263c-2.889,1.324-5.469,3.148-7.236,5.263c-2.635,3.153-3.617,8.093-8.223,8.224
		c-1.451-4.035,1.658-6.58,3.618-8.881c1.826-2.146,3.854-4.353,6.578-6.25c4.718-3.291,15.24-5.924,14.472-13.158
		c-0.605-5.704-9.577-8.17-15.459-6.579c-7.315,1.979-10.05,10.501-11.841,18.421c-1.154,5.103-1.649,11.269-5.591,14.145
		c0,5.482,0,10.965,0,16.448C173.683,87.755,185.878,88.047,192.096,92.412z M270.049,158.859c5.103-1.16,10.667-2.474,14.144-5.592
		c1.292-1.159,3.296-3.714,3.947-5.592c1.925-5.546-0.671-15.538-6.578-16.119c-7.205-0.709-9.856,10.005-12.828,14.474
		c-1.729,2.602-4.296,4.951-6.578,6.908c-2.22,1.903-5.34,5.027-8.881,3.29c-0.079-3.23,2.567-4.382,4.276-5.592
		c4.017-2.847,7.313-4.789,9.538-10.197c1.357-3.3,2.677-7.979,0.987-11.842c-2.241-5.127-11.437-9.652-14.473-1.974
		c-1.304,3.295-1.455,10.487-1.645,14.474c-0.173,3.624,0.046,12.657-3.618,12.171c-3.289-0.437-1.698-10.359-1.974-14.474
		c-0.298-4.442-1.175-8.29-3.29-10.855c-1.523,0.78-1.494,3.111-1.973,4.934c-0.434,1.011-1.46-0.545-2.303-0.987
		c-2.672-1.403-8.606-2.116-11.841,0.329c9.8,2.45,17.649,10.332,16.117,23.355c-0.421,3.582-2.075,5.861-3.618,8.882
		c5.372,0,10.745,0,16.117,0C258.708,160.625,264.74,160.066,270.049,158.859z M292.087,156.886
		c-4.009,0.805-8.872,3.414-12.499,5.263c-1.313,0.668-2.72,1.44-3.289,2.303c9.21,0,18.419,0,27.629,0
		C302.476,158.853,299.49,155.399,292.087,156.886z M-0.022,456.546c0-3.729,0-7.456,0-11.184c2.457-1.23,2.457-3.045,0-4.275
		c0-5.812,0-11.622,0-17.433c6.99-6.496,13.404-13.568,20.395-20.064c-3.023-5.332-5.637-11.028-5.592-18.748
		c0.151-25.753,28.901-43.782,52.96-29.274c7.264-6.222,13.679-13.293,20.395-20.062c5.921,0,11.842,0,17.763,0
		c0.115,1.089,0.985,1.426,1.645,1.973c1.209-0.215,1.638-1.212,2.303-1.973c3.728,0,7.456,0,11.184,0
		c-2.186,2.309-4.331,4.659-6.579,6.906c-2.266,2.266-4.521,4.841-7.237,6.25c-3.479-3.977-7.248-7.663-11.184-11.184
		c-9.592,8.117-18.735,19.222-28.618,27.63c-15.701-16.169-45.64-3.329-45.066,20.392c0.189,7.796,3.592,13.406,7.237,17.762
		c-7.086,7.209-13.477,13.806-20.724,21.052c-1.64,1.64-6.983,5.523-6.908,7.235c0.053,1.203,3.918,4.248,5.592,5.921
		c0.897,0.897,5.961,4.988,5.921,5.921c0.001-0.027-2.285,2.284-3.29,3.289C6.933,449.92,1.773,454.843-0.022,456.546z
		 M56.228,499.963c-1.793-1.306-4.669-3.062-7.895-4.604c-3.714-1.776-8.938-4.514-13.816-3.289
		c-3.516,0.883-4.983,4.136-6.25,7.894C37.587,499.963,46.908,499.963,56.228,499.963z M92.412,475.623
		c3.046-4.339,7.901-6.412,12.829-7.565c-3.401-3.527-10.984-2.107-14.145,0.658c-0.106-2.416-0.598-4.445-1.974-5.592
		c-1.797,2.574-2.934,6.567-3.29,11.184c-0.4,5.192,1.372,11.336-1.645,14.472c-3.183-0.423-3.686-4.501-3.947-7.894
		c-0.67-8.698,1.02-26.443-9.54-22.695c-7.045,2.502-8.918,10.113-5.263,18.091c1.324,2.889,3.148,5.469,5.263,7.236
		c3.154,2.635,8.093,3.617,8.224,8.223c-4.035,1.451-6.58-1.658-8.881-3.618c-2.145-1.826-4.352-3.855-6.25-6.578
		c-3.29-4.719-5.924-15.24-13.158-14.473c-5.703,0.605-8.17,9.577-6.579,15.46c1.979,7.315,10.502,10.049,18.421,11.841
		c5.104,1.153,11.27,1.649,14.145,5.591c5.482,0,10.965,0,16.448,0C87.756,494.036,88.047,481.84,92.412,475.623z M158.859,397.67
		c-1.16-5.103-2.473-10.667-5.592-14.144c-1.159-1.292-3.714-3.295-5.592-3.947c-5.545-1.925-15.537,0.671-16.119,6.578
		c-0.709,7.205,10.005,9.856,14.474,12.828c2.602,1.73,4.951,4.296,6.908,6.578c1.904,2.221,5.027,5.34,3.29,8.881
		c-3.23,0.079-4.382-2.567-5.592-4.276c-2.847-4.017-4.788-7.313-10.197-9.538c-3.3-1.357-7.978-2.676-11.842-0.987
		c-5.126,2.241-9.652,11.437-1.974,14.473c3.295,1.304,10.487,1.455,14.474,1.645c3.625,0.173,12.657-0.046,12.171,3.618
		c-0.437,3.288-10.359,1.698-14.474,1.974c-4.441,0.298-8.289,1.175-10.855,3.289c0.78,1.522,3.111,1.494,4.934,1.974
		c1.012,0.434-0.545,1.46-0.987,2.302c-1.402,2.673-2.116,8.607,0.329,11.842c2.451-9.8,10.332-17.649,23.355-16.117
		c3.582,0.422,5.861,2.076,8.882,3.618c0-5.373,0-10.745,0-16.116C160.625,409.011,160.066,402.979,158.859,397.67z
		 M156.886,375.632c0.805,4.009,3.415,8.872,5.263,12.499c0.669,1.313,1.44,2.721,2.303,3.289c0-9.209,0-18.419,0-27.629
		C158.853,365.243,155.4,368.229,156.886,375.632z M10.175,221.041c1.005,1.005,3.291,3.316,3.29,3.289
		c0.04,0.933-5.023,5.023-5.921,5.92c-1.674,1.673-5.539,4.718-5.592,5.921c-0.076,1.712,5.268,5.596,6.908,7.235
		c7.247,7.247,13.638,13.843,20.724,21.051c-3.645,4.356-7.048,9.967-7.237,17.762c-0.574,23.722,29.365,36.562,45.066,20.393
		c9.883,8.407,19.026,19.512,28.618,27.63c3.936-3.521,7.705-7.207,11.184-11.184c2.716,1.409,4.971,3.983,7.237,6.25
		c2.248,2.247,4.394,4.598,6.579,6.906c-3.728,0-7.456,0-11.184,0c-0.665-0.761-1.093-1.758-2.303-1.973
		c-0.66,0.547-1.529,0.883-1.645,1.973c-5.921,0-11.842,0-17.763,0c-6.716-6.771-13.131-13.842-20.395-20.063
		c-24.059,14.509-52.809-3.521-52.96-29.273c-0.045-7.72,2.568-13.416,5.592-18.749c-6.99-6.496-13.404-13.567-20.395-20.064
		c0-5.811,0-11.621,0-17.432c2.457-1.231,2.457-3.045,0-4.276c0-3.728,0-7.455,0-11.184C1.773,212.876,6.933,217.799,10.175,221.041
		z M28.268,167.756c1.267,3.758,2.734,7.011,6.25,7.894c4.878,1.225,10.102-1.513,13.816-3.29c3.225-1.542,6.101-3.298,7.895-4.604
		C46.908,167.756,37.587,167.756,28.268,167.756z M93.07,167.757c-5.483,0-10.965,0-16.448,0c-2.875,3.941-9.041,4.437-14.145,5.591
		c-7.918,1.791-16.442,4.525-18.421,11.841c-1.591,5.882,0.875,14.854,6.579,15.46c7.234,0.768,9.868-9.754,13.158-14.473
		c1.898-2.723,4.105-4.752,6.25-6.578c2.302-1.96,4.847-5.069,8.881-3.619c-0.131,4.606-5.07,5.588-8.224,8.223
		c-2.115,1.768-3.939,4.347-5.263,7.236c-3.655,7.977-1.782,15.589,5.263,18.09c10.559,3.749,8.869-13.997,9.54-22.695
		c0.261-3.393,0.765-7.471,3.947-7.894c3.017,3.136,1.245,9.28,1.645,14.472c0.355,4.616,1.493,8.609,3.29,11.183
		c1.375-1.146,1.868-3.176,1.974-5.592c3.161,2.766,10.744,4.186,14.145,0.658c-4.928-1.153-9.783-3.226-12.829-7.565
		C88.047,185.879,87.756,173.684,93.07,167.757z M164.452,255.577c0-5.371,0-10.744,0-16.116c-3.021,1.542-5.3,3.196-8.882,3.618
		c-13.023,1.532-20.904-6.317-23.355-16.117c-2.445,3.235-1.731,9.169-0.329,11.841c0.442,0.843,1.999,1.869,0.987,2.303
		c-1.823,0.479-4.154,0.451-4.934,1.973c2.567,2.114,6.414,2.991,10.855,3.289c4.114,0.276,14.037-1.314,14.474,1.974
		c0.485,3.665-8.547,3.446-12.171,3.619c-3.986,0.189-11.179,0.341-14.474,1.645c-7.678,3.036-3.153,12.231,1.974,14.473
		c3.865,1.688,8.542,0.37,11.842-0.987c5.409-2.225,7.35-5.521,10.197-9.539c1.21-1.708,2.362-4.355,5.592-4.275
		c1.738,3.541-1.386,6.66-3.29,8.88c-1.957,2.283-4.306,4.849-6.908,6.579c-4.469,2.971-15.183,5.623-14.474,12.828
		c0.582,5.906,10.573,8.503,16.119,6.577c1.878-0.651,4.433-2.654,5.592-3.946c3.119-3.477,4.432-9.042,5.592-14.144
		C160.066,264.741,160.625,258.709,164.452,255.577z M164.452,303.928c0-9.209,0-18.419,0-27.629
		c-0.862,0.569-1.634,1.977-2.303,3.29c-1.848,3.627-4.458,8.49-5.263,12.498C155.4,299.491,158.853,302.477,164.452,303.928z
		 M-0.022,121.02c0-3.728,0-7.456,0-11.183c2.457-1.231,2.457-3.045,0-4.276c0-5.811,0-11.622,0-17.433
		c6.99-6.496,13.404-13.568,20.395-20.064c-3.023-5.333-5.637-11.029-5.592-18.749c0.151-25.752,28.901-43.782,52.96-29.273
		C75.005,13.819,81.42,6.749,88.136-0.022c5.921,0,11.842,0,17.763,0c0.115,1.09,0.985,1.427,1.645,1.973
		c1.209-0.215,1.638-1.212,2.303-1.973c3.728,0,7.456,0,11.184,0c-2.186,2.31-4.331,4.66-6.579,6.907
		c-2.266,2.266-4.521,4.84-7.237,6.25c-3.479-3.977-7.248-7.663-11.184-11.184c-9.592,8.118-18.735,19.223-28.618,27.629
		c-15.701-16.168-45.64-3.328-45.066,20.393c0.189,7.795,3.592,13.405,7.237,17.761C22.497,74.944,16.106,81.54,8.859,88.786
		c-1.64,1.64-6.983,5.523-6.908,7.236c0.053,1.202,3.918,4.247,5.592,5.92c0.897,0.897,5.961,4.988,5.921,5.92
		c0.001-0.027-2.285,2.284-3.29,3.289C6.933,114.394,1.773,119.317-0.022,121.02z M56.228,164.437
		c-1.793-1.306-4.669-3.062-7.895-4.605c-3.714-1.776-8.938-4.514-13.816-3.289c-3.516,0.883-4.983,4.136-6.25,7.894
		C37.587,164.437,46.908,164.437,56.228,164.437z M92.412,140.097c3.046-4.339,7.901-6.412,12.829-7.565
		c-3.401-3.528-10.984-2.108-14.145,0.658c-0.106-2.416-0.598-4.445-1.974-5.592c-1.797,2.574-2.934,6.567-3.29,11.183
		c-0.4,5.192,1.372,11.335-1.645,14.472c-3.183-0.423-3.686-4.501-3.947-7.894c-0.67-8.698,1.02-26.443-9.54-22.695
		c-7.045,2.501-8.918,10.113-5.263,18.091c1.324,2.889,3.148,5.469,5.263,7.236c3.154,2.635,8.093,3.617,8.224,8.223
		c-4.035,1.451-6.58-1.658-8.881-3.618c-2.145-1.826-4.352-3.855-6.25-6.578c-3.29-4.719-5.924-15.24-13.158-14.473
		c-5.703,0.605-8.17,9.578-6.579,15.459c1.979,7.315,10.502,10.05,18.421,11.841c5.104,1.154,11.27,1.649,14.145,5.591
		c5.482,0,10.965,0,16.448,0C87.756,158.51,88.047,146.314,92.412,140.097z M158.859,62.144c-1.16-5.102-2.473-10.667-5.592-14.144
		c-1.159-1.292-3.714-3.295-5.592-3.947c-5.545-1.925-15.537,0.671-16.119,6.578c-0.709,7.205,10.005,9.856,14.474,12.828
		c2.602,1.73,4.951,4.295,6.908,6.578c1.904,2.22,5.027,5.34,3.29,8.881c-3.23,0.079-4.382-2.567-5.592-4.276
		c-2.847-4.017-4.788-7.314-10.197-9.538c-3.3-1.357-7.978-2.676-11.842-0.987c-5.126,2.24-9.652,11.436-1.974,14.472
		c3.295,1.303,10.487,1.455,14.474,1.645c3.625,0.173,12.657-0.046,12.171,3.618c-0.437,3.288-10.359,1.698-14.474,1.974
		c-4.441,0.298-8.289,1.174-10.855,3.289c0.78,1.522,3.111,1.494,4.934,1.973c1.012,0.434-0.545,1.46-0.987,2.303
		c-1.402,2.673-2.116,8.606,0.329,11.841c2.451-9.799,10.332-17.649,23.355-16.117c3.582,0.421,5.861,2.076,8.882,3.618
		c0-5.373,0-10.745,0-16.117C160.625,73.484,160.066,67.453,158.859,62.144z M156.886,40.106c0.805,4.008,3.415,8.872,5.263,12.499
		c0.669,1.313,1.44,2.72,2.303,3.289c0-9.209,0-18.419,0-27.629C158.853,29.717,155.4,32.702,156.886,40.106z"></path>
</g>
<g id="C">
	<path class="paintable" fill-rule="evenodd" clip-rule="evenodd" fill="#58595B" d="M335.505,362.805c0-9.101,0-18.2,0-27.3c9.1,0,18.201,0,27.302,0
		c-0.996,2.557-4.102,2.228-4.934,5.262c-1.419,5.17,1.943,12.899,0,17.433c-5.92-0.001-11.682-0.16-17.105-0.658
		C338.528,358.811,337.765,361.556,335.505,362.805z M357.544,499.963c3.725-23.836,21.149-37.826,43.75-43.088
		c19.837-4.617,44.648-4.32,50.658,11.841c1.296,3.488,1.354,12.397-1.316,13.156c-0.229,0.065-2.01-1.146-2.632-1.314
		c-10.703-2.926-17.112,12.623-9.539,19.405c6.688,0,13.376,0,20.065,0c3.623-3.706,7.912-7.837,8.553-14.802
		c0.672-7.305-1.201-15.386-3.289-21.708c5.627,2.509,13.973,4.483,21.71,3.618c6.599-0.738,11.193-4.863,14.475-8.224
		c0-6.907,0-13.814,0-20.722c-7.624-8.198-24.786,0.814-18.422,12.5c-5.823,4.312-14.84,1.14-18.75-2.303
		c-8.657-7.622-9.949-23.566-7.565-39.141c4.012-26.228,18.914-47.649,44.737-51.642c0-5.591,0-11.183,0-16.774
		c-23.362,4.222-40.645,19.26-51.316,38.484c-4.828,8.695-8.196,19.101-8.882,31.246c-0.663,11.728,0.823,23.524,4.935,34.208
		c-9.041-3.236-18.237-5.263-29.935-5.263c-20.658,0-36.321,7.922-48.684,18.42c-12.396,10.525-22.26,24.133-25,42.101
		C346.578,499.963,352.061,499.963,357.544,499.963z M340.768,310.178c5.424-0.497,11.186-0.656,17.105-0.657
		c1.943,4.533-1.419,12.263,0,17.432c0.832,3.035,3.938,2.706,4.934,5.263c-9.101,0-18.202,0-27.302,0c0-9.1,0-18.2,0-27.3
		C337.765,306.164,338.528,308.908,340.768,310.178z M341.097,167.756c2.74,17.968,12.604,31.576,25,42.101
		c12.362,10.498,28.025,18.419,48.684,18.419c11.697,0,20.894-2.026,29.935-5.262c-4.111,10.683-5.598,22.48-4.935,34.207
		c0.686,12.146,4.054,22.552,8.882,31.247c10.672,19.225,27.954,34.262,51.316,38.483c0-5.591,0-11.183,0-16.774
		c-25.823-3.991-40.726-25.413-44.737-51.641c-2.384-15.575-1.092-31.519,7.565-39.141c3.91-3.442,12.927-6.615,18.75-2.303
		c-6.364,11.686,10.798,20.698,18.422,12.5c0-6.907,0-13.814,0-20.722c-3.281-3.36-7.876-7.485-14.475-8.223
		c-7.737-0.866-16.083,1.109-21.71,3.618c2.088-6.322,3.961-14.403,3.289-21.708c-0.641-6.964-4.93-11.096-8.553-14.801
		c-6.689,0-13.377,0-20.065,0c-7.573,6.782-1.164,22.331,9.539,19.405c0.622-0.169,2.403-1.38,2.632-1.315
		c2.67,0.759,2.612,9.668,1.316,13.156c-6.01,16.162-30.821,16.458-50.658,11.841c-22.601-5.261-40.025-19.252-43.75-43.088
		C352.061,167.756,346.578,167.756,341.097,167.756z M335.505,27.278c0-9.1,0-18.2,0-27.3c9.1,0,18.201,0,27.302,0
		c-0.996,2.558-4.102,2.228-4.934,5.263c-1.419,5.169,1.943,12.899,0,17.433c-5.92-0.001-11.682-0.161-17.105-0.658
		C338.528,23.285,337.765,26.03,335.505,27.278z M357.544,164.437c3.725-23.835,21.149-37.827,43.75-43.088
		c19.837-4.618,44.648-4.32,50.658,11.841c1.296,3.488,1.354,12.397-1.316,13.156c-0.229,0.065-2.01-1.146-2.632-1.315
		c-10.703-2.925-17.112,12.624-9.539,19.406c6.688,0,13.376,0,20.065,0c3.623-3.706,7.912-7.837,8.553-14.802
		c0.672-7.305-1.201-15.386-3.289-21.708c5.627,2.509,13.973,4.483,21.71,3.618c6.599-0.738,11.193-4.863,14.475-8.223
		c0-6.907,0-13.814,0-20.722c-7.624-8.199-24.786,0.814-18.422,12.5c-5.823,4.312-14.84,1.14-18.75-2.303
		c-8.657-7.622-9.949-23.565-7.565-39.141c4.012-26.227,18.914-47.649,44.737-51.64c0-5.592,0-11.183,0-16.775
		c-23.362,4.222-40.645,19.26-51.316,38.483c-4.828,8.696-8.196,19.101-8.882,31.247c-0.663,11.728,0.823,23.524,4.935,34.208
		c-9.041-3.236-18.237-5.262-29.935-5.262c-20.658,0-36.321,7.921-48.684,18.419c-12.396,10.525-22.26,24.133-25,42.101
		C346.578,164.437,352.061,164.437,357.544,164.437z M304.915,335.505c9.1,0,18.2,0,27.3,0c0,9.1,0,18.201,0,27.302
		c-2.558-0.997-2.228-4.103-5.263-4.934c-5.17-1.419-12.899,1.942-17.433,0c0.001-5.92,0.16-11.682,0.658-17.105
		C308.908,338.528,306.163,337.765,304.915,335.505z M167.755,357.544c23.836,3.724,37.828,21.149,43.088,43.75
		c4.618,19.837,4.321,44.648-11.841,50.658c-3.488,1.296-12.398,1.354-13.157-1.316c-0.065-0.229,1.146-2.01,1.316-2.632
		c2.925-10.703-12.624-17.112-19.406-9.539c0,6.688,0,13.376,0,20.065c3.706,3.623,7.837,7.912,14.801,8.553
		c7.305,0.672,15.386-1.201,21.708-3.289c-2.509,5.627-4.483,13.973-3.618,21.71c0.738,6.599,4.864,11.193,8.223,14.475
		c6.907,0,13.814,0,20.722,0c8.199-7.624-0.814-24.786-12.499-18.422c-4.312-5.823-1.14-14.84,2.302-18.75
		c7.623-8.657,23.566-9.949,39.142-7.565c26.227,4.012,47.648,18.914,51.641,44.737c5.591,0,11.183,0,16.774,0
		c-4.222-23.362-19.26-40.645-38.483-51.317c-8.696-4.828-19.101-8.195-31.247-8.881c-11.728-0.663-23.524,0.823-34.208,4.935
		c3.235-9.041,5.263-18.237,5.263-29.935c0-20.659-7.922-36.321-18.42-48.684c-10.525-12.396-24.133-22.26-42.102-25
		C167.755,346.578,167.755,352.061,167.755,357.544z M310.178,326.952c-0.498-5.424-0.657-11.186-0.658-17.105
		c4.533-1.943,12.263,1.419,17.433,0c3.035-0.831,2.705-3.938,5.263-4.935c0,9.102,0,18.203,0,27.303c-9.1,0-18.2,0-27.3,0
		C306.163,329.955,308.908,329.191,310.178,326.952z M167.755,326.623c17.968-2.741,31.577-12.604,42.102-25
		c10.498-12.362,18.42-28.025,18.42-48.685c0-11.697-2.027-20.893-5.263-29.934c10.683,4.112,22.48,5.597,34.208,4.934
		c12.146-0.685,22.551-4.053,31.247-8.88c19.224-10.673,34.262-27.956,38.483-51.317c-5.592,0-11.184,0-16.774,0
		c-3.992,25.823-25.414,40.726-51.641,44.737c-15.575,2.384-31.519,1.092-39.142-7.565c-3.442-3.91-6.614-12.927-2.302-18.75
		c11.685,6.364,20.698-10.797,12.499-18.421c-6.907,0-13.814,0-20.722,0c-3.359,3.281-7.485,7.875-8.223,14.474
		c-0.865,7.738,1.109,16.084,3.618,21.711c-6.322-2.088-14.403-3.962-21.708-3.29c-6.964,0.641-11.096,4.93-14.801,8.553
		c0,6.689,0,13.377,0,20.065c6.782,7.574,22.331,1.164,19.406-9.54c-0.17-0.622-1.381-2.403-1.316-2.631
		c0.759-2.67,9.669-2.612,13.157-1.316c16.162,6.01,16.459,30.821,11.841,50.658c-5.261,22.601-19.252,40.026-43.088,43.75
		C167.755,315.658,167.755,321.142,167.755,326.623z M304.915-0.022c9.1,0,18.2,0,27.3,0c0,9.1,0,18.201,0,27.303
		c-2.558-0.997-2.228-4.103-5.263-4.935c-5.17-1.418-12.899,1.944-17.433,0c0.001-5.919,0.16-11.681,0.658-17.105
		C308.908,3.001,306.163,2.238,304.915-0.022z M167.755,22.018c23.836,3.724,37.828,21.149,43.088,43.75
		c4.618,19.837,4.321,44.648-11.841,50.658c-3.488,1.296-12.398,1.354-13.157-1.316c-0.065-0.229,1.146-2.009,1.316-2.631
		c2.925-10.704-12.624-17.113-19.406-9.54c0,6.688,0,13.376,0,20.066c3.706,3.622,7.837,7.911,14.801,8.552
		c7.305,0.672,15.386-1.201,21.708-3.289c-2.509,5.626-4.483,13.972-3.618,21.71c0.738,6.598,4.864,11.193,8.223,14.474
		c6.907,0,13.814,0,20.722,0c8.199-7.624-0.814-24.786-12.499-18.421c-4.312-5.824-1.14-14.84,2.302-18.75
		c7.623-8.658,23.566-9.95,39.142-7.566c26.227,4.012,47.648,18.915,51.641,44.737c5.591,0,11.183,0,16.774,0
		c-4.222-23.362-19.26-40.645-38.483-51.316c-8.696-4.828-19.101-8.195-31.247-8.881c-11.728-0.663-23.524,0.822-34.208,4.934
		c3.235-9.041,5.263-18.237,5.263-29.934c0-20.659-7.922-36.322-18.42-48.684c-10.525-12.396-24.133-22.259-42.102-25
		C167.755,11.052,167.755,16.535,167.755,22.018z M-0.022,362.805c0-9.101,0-18.2,0-27.3c9.101,0,18.202,0,27.303,0
		c-0.996,2.557-4.102,2.228-4.935,5.262c-1.417,5.17,1.944,12.899,0,17.433c-5.919-0.001-11.681-0.16-17.105-0.658
		C3.002,358.811,2.238,361.556-0.022,362.805z M22.018,499.963c3.725-23.836,21.149-37.826,43.75-43.088
		c19.837-4.617,44.648-4.32,50.658,11.841c1.296,3.488,1.354,12.397-1.316,13.156c-0.228,0.065-2.009-1.146-2.631-1.314
		c-10.704-2.926-17.113,12.623-9.54,19.405c6.688,0,13.377,0,20.066,0c3.623-3.706,7.911-7.837,8.552-14.802
		c0.673-7.305-1.201-15.386-3.289-21.708c5.626,2.509,13.973,4.483,21.71,3.618c6.599-0.738,11.194-4.863,14.474-8.224
		c0-6.907,0-13.814,0-20.722c-7.624-8.198-24.785,0.814-18.421,12.5c-5.823,4.312-14.84,1.14-18.75-2.303
		c-8.658-7.622-9.949-23.566-7.566-39.141c4.012-26.228,18.915-47.649,44.737-51.642c0-5.591,0-11.183,0-16.774
		c-23.361,4.222-40.645,19.26-51.316,38.484c-4.828,8.695-8.196,19.101-8.881,31.246c-0.663,11.728,0.822,23.524,4.934,34.208
		c-9.041-3.236-18.237-5.263-29.934-5.263c-20.659,0-36.321,7.922-48.684,18.42c-12.396,10.525-22.259,24.133-25,42.101
		C11.052,499.963,16.535,499.963,22.018,499.963z M5.241,310.178c5.424-0.497,11.186-0.656,17.105-0.657
		c1.944,4.533-1.417,12.263,0,17.432c0.833,3.035,3.938,2.706,4.935,5.263c-9.101,0-18.202,0-27.303,0c0-9.1,0-18.2,0-27.3
		C2.238,306.164,3.002,308.908,5.241,310.178z M5.57,167.756c2.741,17.968,12.604,31.576,25,42.101
		c12.363,10.498,28.025,18.419,48.684,18.419c11.697,0,20.893-2.026,29.934-5.262c-4.112,10.683-5.597,22.48-4.934,34.207
		c0.686,12.146,4.054,22.552,8.881,31.247c10.671,19.225,27.955,34.262,51.316,38.483c0-5.591,0-11.183,0-16.774
		c-25.822-3.991-40.725-25.413-44.737-51.641c-2.383-15.575-1.092-31.519,7.566-39.141c3.91-3.442,12.927-6.615,18.75-2.303
		c-6.364,11.686,10.797,20.698,18.421,12.5c0-6.907,0-13.814,0-20.722c-3.28-3.36-7.875-7.485-14.474-8.223
		c-7.737-0.866-16.084,1.109-21.71,3.618c2.088-6.322,3.962-14.403,3.289-21.708c-0.641-6.964-4.93-11.096-8.552-14.801
		c-6.689,0-13.378,0-20.066,0c-7.573,6.782-1.164,22.331,9.54,19.405c0.623-0.169,2.403-1.38,2.631-1.315
		c2.67,0.759,2.612,9.668,1.316,13.156c-6.01,16.162-30.821,16.458-50.658,11.841c-22.601-5.261-40.025-19.252-43.75-43.088
		C16.535,167.756,11.052,167.756,5.57,167.756z M-0.022,27.278c0-9.1,0-18.2,0-27.3c9.101,0,18.202,0,27.303,0
		c-0.996,2.558-4.102,2.228-4.935,5.263c-1.417,5.169,1.944,12.899,0,17.433c-5.919-0.001-11.681-0.161-17.105-0.658
		C3.002,23.285,2.238,26.03-0.022,27.278z M22.018,164.437c3.725-23.835,21.149-37.827,43.75-43.088
		c19.837-4.618,44.648-4.32,50.658,11.841c1.296,3.488,1.354,12.397-1.316,13.156c-0.228,0.065-2.009-1.146-2.631-1.315
		c-10.704-2.925-17.113,12.624-9.54,19.406c6.688,0,13.377,0,20.066,0c3.623-3.706,7.911-7.837,8.552-14.802
		c0.673-7.305-1.201-15.386-3.289-21.708c5.626,2.509,13.973,4.483,21.71,3.618c6.599-0.738,11.194-4.863,14.474-8.223
		c0-6.907,0-13.814,0-20.722c-7.624-8.199-24.785,0.814-18.421,12.5c-5.823,4.312-14.84,1.14-18.75-2.303
		c-8.658-7.622-9.949-23.565-7.566-39.141c4.012-26.227,18.915-47.649,44.737-51.64c0-5.592,0-11.183,0-16.775
		c-23.361,4.222-40.645,19.26-51.316,38.483c-4.828,8.696-8.196,19.101-8.881,31.247c-0.663,11.728,0.822,23.524,4.934,34.208
		c-9.041-3.236-18.237-5.262-29.934-5.262c-20.659,0-36.321,7.921-48.684,18.419c-12.396,10.525-22.259,24.133-25,42.101
		C11.052,164.437,16.535,164.437,22.018,164.437z"></path>
</g>
</svg>