<svg version="1.1" xmlns="http://www.w3.org/2000/svg" xmlns:xlink="http://www.w3.org/1999/xlink" x="0px" y="0px" width="500px" height="500px" viewBox="0 0 500 500" enable-background="new 0 0 500 500" xml:space="preserve">
<g id="D">
	<path class="paintable" fill="#D1D3D4" d="M164.941,164.941H0V0h164.941V164.941z M332.239,0H167.298v164.941h164.941V0z M500,0H335.059v164.941H500
		V0z M164.941,167.298H0v164.941h164.941V167.298z M332.239,167.298H167.298v164.941h164.941V167.298z M500,167.298H335.059v164.941
		H500V167.298z M164.941,335.059H0V500h164.941V335.059z M332.239,335.059H167.298V500h164.941V335.059z M500,335.059H335.059V500
		H500V335.059z"></path>
</g>
<g id="C">
	<path class="paintable" fill-rule="evenodd" clip-rule="evenodd" fill="#A7A9AC" d="M37.229,0c-0.561,5.251-6.425,5.199-9.896,7.54
		c-0.186,2.485,0.609,5.95-0.942,7.069C18.29,14.334,15.344,4.579,7.069,7.54c-1.907,8.609,8.356,11.333,7.069,19.322
		c-1.271,0.928-4.118,0.281-6.126,0.471C4.75,30.041,5.589,36.849,0,37.229C0,24.82,0,12.41,0,0C12.41,0,24.82,0,37.229,0z
		 M137.608,7.54c0.233,2.28-0.667,5.694,0.942,6.598c7.575,1.066,10.458-8.941,18.851-7.069c3.539,8.309-7.702,11.925-6.598,19.322
		c0.678,2.149,5.66-0.004,7.069,1.414c1.97,3.528,2.062,8.934,7.069,9.425c0-12.41,0-24.819,0-37.229c-12.41,0-24.82,0-37.229,0
		C128.371,5.154,134.144,5.192,137.608,7.54z M86.712,19.322c-1.197-0.924-4.112-2.521-5.184-1.885
		c-5.421,3.217-10.516,10.361-13.195,17.437c-2.714-0.31-7.881-2.841-9.425,0c-0.027,2.844,3.227,3.009,4.712,4.241
		c6.694,5.552,2.927,17.54,8.954,24.505c1.453,1.679,3.476,2.358,5.184,3.77c-1.901,1.712-1.573,5.653-3.299,7.541
		c-2.421,1.035-5.461,1.451-7.541,2.828c-0.64-1.945-1.726-3.801-3.299-5.184c-4.437-3.902-10.096-3.095-16.023-4.241
		c-3.355-0.649-7.018-2.922-8.482-4.713c-1.387-1.695-1.082-4.885-4.713-4.712c-1.979,2.474,0.215,6.768,0.472,9.896
		c-6.892,1.943-21.883,10.078-15.552,17.908c3.342,4.133,10.284,7.605,15.552,9.896c-0.478,3.167-2.282,7.192-0.472,9.896
		c3.322-0.454,3.473-3.871,5.184-5.655c3.231-3.368,7.533-3.612,13.667-4.242c6.941-0.712,11.191-4.106,14.138-9.425
		c1.448,2.498,4.202,1.081,6.126,2.356c2.903,1.922,2.187,5.526,4.242,8.483c-12.197,2.412-6.112,23.106-15.081,28.747
		c-1.979,0.691-4.185,1.156-4.241,3.77c2.724,2.027,7.353,0.093,10.368-0.471c1.68,5.593,5.333,12.317,9.425,15.551
		c8.711,6.884,15.789-10.094,18.379-15.551c2.674,0.784,7.389,2.385,9.896,0.471c-1.489-3.873-5.464-4.379-7.54-7.541
		c-2-3.046-1.85-6.714-2.356-11.31c-0.75-6.809-4.725-11.653-9.425-14.138c2.511-1.437,1.064-4.217,2.356-6.126
		c1.959-2.896,5.725-2.035,8.483-4.241c1.024,2.347,2.238,4.61,4.241,6.126c5.53,4.187,15.077,1.504,21.207,5.655
		c4.02,2.723,2.043,5.552,7.069,7.54c2.027-2.723,0.093-7.353-0.471-10.368c6.932-1.952,22.041-9.883,15.551-17.908
		c-3.347-4.139-10.317-7.571-15.551-9.896c0.784-2.674,2.385-7.388,0.471-9.896c-3.938,0.886-2.771,2.921-4.242,4.712
		c-2.534,3.087-5.902,4.588-9.425,5.184c-3.076,0.521-6.485-0.162-9.896,0.942c-4.716,1.527-7.134,5.209-9.425,8.483
		c-3.082-2.115-6.04-1.577-8.012-4.713c-1.129-1.796-0.419-4.358-2.356-6.126c11.752-2.512,7.036-21.534,14.138-27.804
		c1.678-1.482,5.02-1.55,5.184-4.713c-2.836-1.855-7.015,0.066-10.368,0.472C94.491,29.346,90.898,22.553,86.712,19.322z
		 M88.126,82.471C86.083,89.33,78.719,89.416,76.815,82c1.344-2.112,3.072-3.84,5.184-5.184
		C85.06,77.682,86.944,79.726,88.126,82.471z M0,164.941c12.41,0,24.82,0,37.229,0c-0.492-5.006-5.897-5.099-9.425-7.069
		c-1.418-1.409,0.736-6.391-1.414-7.069c-7.396-1.104-11.013,10.137-19.322,6.598c-1.862-8.381,8.087-11.324,7.069-18.851
		c-0.678-2.149-5.659,0.005-7.069-1.414c-1.856-3.642-2.129-8.867-7.069-9.425C0,140.122,0,152.532,0,164.941z M157.873,137.608
		c-2.405,0.266-6.061-0.719-7.069,0.942c-1.15,7.443,10.07,11.079,6.598,19.322c-8.496,1.675-10.679-6.867-18.379-7.54
		c-2.091,0.893-1.259,4.709-1.414,7.54c-3.905,1.75-9.158,2.152-9.896,7.069c12.41,0,24.82,0,37.229,0c0-12.41,0-24.82,0-37.229
		C160.025,128.451,159.622,133.703,157.873,137.608z M204.527,0c-0.562,5.251-6.425,5.199-9.896,7.54
		c-0.186,2.485,0.609,5.95-0.942,7.069c-8.102-0.274-11.047-10.03-19.322-7.069c-1.907,8.609,8.356,11.333,7.069,19.322
		c-1.271,0.928-4.118,0.281-6.126,0.471c-3.262,2.708-2.423,9.516-8.012,9.896c0-12.41,0-24.819,0-37.229
		C179.708,0,192.117,0,204.527,0z M304.906,7.54c0.233,2.28-0.667,5.694,0.942,6.598c7.575,1.066,10.458-8.941,18.851-7.069
		c3.539,8.309-7.702,11.925-6.598,19.322c0.678,2.149,5.659-0.004,7.068,1.414c1.971,3.528,2.063,8.934,7.069,9.425
		c0-12.41,0-24.819,0-37.229c-12.41,0-24.82,0-37.229,0C295.668,5.154,301.442,5.192,304.906,7.54z M254.01,19.322
		c-1.197-0.924-4.112-2.521-5.184-1.885c-5.422,3.217-10.516,10.361-13.195,17.437c-2.714-0.31-7.881-2.841-9.426,0
		c-0.026,2.844,3.228,3.009,4.713,4.241c6.694,5.552,2.927,17.54,8.954,24.505c1.452,1.679,3.477,2.358,5.184,3.77
		c-1.9,1.712-1.573,5.653-3.299,7.541c-2.421,1.035-5.461,1.451-7.54,2.828c-0.64-1.945-1.726-3.801-3.299-5.184
		c-4.438-3.902-10.096-3.095-16.022-4.241c-3.355-0.649-7.018-2.922-8.483-4.713c-1.387-1.695-1.081-4.885-4.712-4.712
		c-1.979,2.474,0.215,6.768,0.471,9.896c-6.892,1.943-21.883,10.078-15.552,17.908c3.343,4.133,10.284,7.605,15.552,9.896
		c-0.478,3.167-2.282,7.192-0.471,9.896c3.321-0.454,3.472-3.871,5.184-5.655c3.231-3.368,7.533-3.612,13.667-4.242
		c6.94-0.712,11.19-4.106,14.138-9.425c1.447,2.498,4.201,1.081,6.126,2.356c2.902,1.922,2.188,5.526,4.241,8.483
		c-12.196,2.412-6.111,23.106-15.08,28.747c-1.979,0.691-4.185,1.156-4.241,3.77c2.724,2.027,7.354,0.093,10.367-0.471
		c1.681,5.593,5.333,12.317,9.426,15.551c8.711,6.884,15.788-10.094,18.379-15.551c2.674,0.784,7.389,2.385,9.896,0.471
		c-1.488-3.873-5.465-4.379-7.54-7.541c-2.001-3.046-1.851-6.714-2.356-11.31c-0.75-6.809-4.725-11.653-9.425-14.138
		c2.511-1.437,1.064-4.217,2.356-6.126c1.958-2.896,5.725-2.035,8.482-4.241c1.024,2.347,2.238,4.61,4.241,6.126
		c5.53,4.187,15.077,1.504,21.207,5.655c4.021,2.723,2.044,5.552,7.068,7.54c2.027-2.723,0.093-7.353-0.471-10.368
		c6.932-1.952,22.041-9.883,15.552-17.908c-3.348-4.139-10.317-7.571-15.552-9.896c0.784-2.674,2.385-7.388,0.471-9.896
		c-3.938,0.886-2.771,2.921-4.241,4.712c-2.534,3.087-5.902,4.588-9.425,5.184c-3.076,0.521-6.485-0.162-9.896,0.942
		c-4.716,1.527-7.135,5.209-9.426,8.483c-3.081-2.115-6.04-1.577-8.011-4.713c-1.13-1.796-0.42-4.358-2.356-6.126
		c11.752-2.512,7.036-21.534,14.138-27.804c1.679-1.482,5.02-1.55,5.184-4.713c-2.837-1.855-7.015,0.066-10.367,0.472
		C261.789,29.346,258.195,22.553,254.01,19.322z M255.424,82.471c-2.043,6.859-9.407,6.945-11.311-0.471
		c1.344-2.112,3.072-3.84,5.184-5.184C252.357,77.682,254.242,79.726,255.424,82.471z M167.298,164.941c12.41,0,24.819,0,37.229,0
		c-0.492-5.006-5.897-5.099-9.425-7.069c-1.419-1.409,0.735-6.391-1.414-7.069c-7.396-1.104-11.013,10.137-19.322,6.598
		c-1.862-8.381,8.086-11.324,7.069-18.851c-0.679-2.149-5.66,0.005-7.069-1.414c-1.856-3.642-2.129-8.867-7.069-9.425
		C167.298,140.122,167.298,152.532,167.298,164.941z M325.17,137.608c-2.404,0.266-6.061-0.719-7.068,0.942
		c-1.15,7.443,10.07,11.079,6.598,19.322c-8.496,1.675-10.679-6.867-18.379-7.54c-2.092,0.893-1.26,4.709-1.414,7.54
		c-3.905,1.75-9.158,2.152-9.896,7.069c12.409,0,24.819,0,37.229,0c0-12.41,0-24.82,0-37.229
		C327.322,128.451,326.92,133.703,325.17,137.608z M372.288,0c-0.562,5.251-6.425,5.199-9.896,7.54
		c-0.186,2.485,0.609,5.95-0.942,7.069c-8.102-0.274-11.047-10.03-19.321-7.069c-1.907,8.609,8.355,11.333,7.068,19.322
		c-1.271,0.928-4.118,0.281-6.126,0.471c-3.263,2.708-2.423,9.516-8.012,9.896c0-12.41,0-24.819,0-37.229
		C347.469,0,359.878,0,372.288,0z M472.667,7.54c0.233,2.28-0.667,5.694,0.942,6.598c7.575,1.066,10.458-8.941,18.851-7.069
		c3.539,8.309-7.702,11.925-6.598,19.322c0.678,2.149,5.659-0.004,7.068,1.414c1.971,3.528,2.063,8.934,7.069,9.425
		c0-12.41,0-24.819,0-37.229c-12.41,0-24.82,0-37.229,0C463.429,5.154,469.203,5.192,472.667,7.54z M421.771,19.322
		c-1.197-0.924-4.112-2.521-5.184-1.885c-5.422,3.217-10.516,10.361-13.195,17.437c-2.714-0.31-7.881-2.841-9.426,0
		c-0.026,2.844,3.228,3.009,4.713,4.241c6.694,5.552,2.927,17.54,8.954,24.505c1.452,1.679,3.477,2.358,5.184,3.77
		c-1.9,1.712-1.572,5.653-3.299,7.541c-2.421,1.035-5.461,1.451-7.54,2.828c-0.64-1.945-1.726-3.801-3.299-5.184
		c-4.438-3.902-10.096-3.095-16.022-4.241c-3.355-0.649-7.018-2.922-8.483-4.713c-1.387-1.695-1.081-4.885-4.712-4.712
		c-1.979,2.474,0.215,6.768,0.471,9.896c-6.892,1.943-21.883,10.078-15.552,17.908c3.343,4.133,10.284,7.605,15.552,9.896
		c-0.478,3.167-2.282,7.192-0.471,9.896c3.321-0.454,3.472-3.871,5.184-5.655c3.231-3.368,7.533-3.612,13.667-4.242
		c6.94-0.712,11.19-4.106,14.138-9.425c1.447,2.498,4.201,1.081,6.126,2.356c2.902,1.922,2.188,5.526,4.241,8.483
		c-12.196,2.412-6.111,23.106-15.08,28.747c-1.979,0.691-4.185,1.156-4.241,3.77c2.724,2.027,7.354,0.093,10.367-0.471
		c1.681,5.593,5.333,12.317,9.426,15.551c8.711,6.884,15.788-10.094,18.379-15.551c2.674,0.784,7.389,2.385,9.896,0.471
		c-1.488-3.873-5.465-4.379-7.54-7.541c-2.001-3.046-1.85-6.714-2.356-11.31c-0.75-6.809-4.725-11.653-9.425-14.138
		c2.511-1.437,1.064-4.217,2.356-6.126c1.958-2.896,5.725-2.035,8.482-4.241c1.024,2.347,2.238,4.61,4.241,6.126
		c5.53,4.187,15.077,1.504,21.207,5.655c4.021,2.723,2.044,5.552,7.068,7.54c2.027-2.723,0.093-7.353-0.471-10.368
		c6.932-1.952,22.041-9.883,15.552-17.908c-3.348-4.139-10.317-7.571-15.552-9.896c0.784-2.674,2.385-7.388,0.471-9.896
		c-3.938,0.886-2.771,2.921-4.241,4.712c-2.534,3.087-5.902,4.588-9.425,5.184c-3.076,0.521-6.485-0.162-9.896,0.942
		c-4.716,1.527-7.135,5.209-9.426,8.483c-3.081-2.115-6.04-1.577-8.011-4.713c-1.13-1.796-0.42-4.358-2.356-6.126
		c11.752-2.512,7.036-21.534,14.138-27.804c1.679-1.482,5.02-1.55,5.184-4.713c-2.837-1.855-7.015,0.066-10.367,0.472
		C429.55,29.346,425.956,22.553,421.771,19.322z M423.185,82.471c-2.043,6.859-9.407,6.945-11.311-0.471
		c1.344-2.112,3.072-3.84,5.184-5.184C420.118,77.682,422.003,79.726,423.185,82.471z M335.059,164.941c12.41,0,24.819,0,37.229,0
		c-0.492-5.006-5.897-5.099-9.425-7.069c-1.419-1.409,0.735-6.391-1.414-7.069c-7.396-1.104-11.013,10.137-19.321,6.598
		c-1.863-8.381,8.087-11.324,7.068-18.851c-0.679-2.149-5.659,0.005-7.068-1.414c-1.857-3.642-2.13-8.867-7.069-9.425
		C335.059,140.122,335.059,152.532,335.059,164.941z M492.931,137.608c-2.404,0.266-6.061-0.719-7.068,0.942
		c-1.15,7.443,10.07,11.079,6.598,19.322c-8.496,1.675-10.679-6.867-18.379-7.54c-2.092,0.893-1.26,4.709-1.414,7.54
		c-3.905,1.75-9.158,2.152-9.896,7.069c12.409,0,24.819,0,37.229,0c0-12.41,0-24.82,0-37.229
		C495.084,128.451,494.681,133.703,492.931,137.608z M37.229,167.298c-0.561,5.251-6.425,5.199-9.896,7.54
		c-0.186,2.484,0.609,5.95-0.942,7.069c-8.101-0.275-11.046-10.03-19.322-7.069c-1.907,8.608,8.356,11.333,7.069,19.322
		c-1.271,0.928-4.118,0.28-6.126,0.471c-3.262,2.708-2.422,9.516-8.011,9.896c0-12.41,0-24.819,0-37.229
		C12.41,167.298,24.82,167.298,37.229,167.298z M137.608,174.838c0.233,2.28-0.667,5.694,0.942,6.598
		c7.575,1.066,10.458-8.942,18.851-7.069c3.539,8.309-7.702,11.925-6.598,19.322c0.678,2.149,5.66-0.005,7.069,1.414
		c1.97,3.527,2.062,8.933,7.069,9.425c0-12.41,0-24.819,0-37.229c-12.41,0-24.82,0-37.229,0
		C128.371,172.451,134.144,172.49,137.608,174.838z M86.712,186.619c-1.197-0.924-4.112-2.521-5.184-1.885
		c-5.421,3.217-10.516,10.36-13.195,17.437c-2.714-0.309-7.881-2.84-9.425,0c-0.027,2.845,3.227,3.009,4.712,4.241
		c6.694,5.553,2.927,17.54,8.954,24.506c1.453,1.679,3.476,2.358,5.184,3.771c-1.901,1.712-1.573,5.653-3.299,7.54
		c-2.421,1.035-5.461,1.45-7.541,2.827c-0.64-1.944-1.726-3.8-3.299-5.184c-4.437-3.902-10.096-3.095-16.023-4.241
		c-3.355-0.649-7.018-2.922-8.482-4.713c-1.387-1.695-1.082-4.885-4.713-4.713c-1.979,2.475,0.215,6.768,0.472,9.896
		c-6.892,1.943-21.883,10.079-15.552,17.908c3.342,4.133,10.284,7.605,15.552,9.896c-0.478,3.167-2.282,7.191-0.472,9.896
		c3.322-0.454,3.473-3.871,5.184-5.655c3.231-3.367,7.533-3.612,13.667-4.241c6.941-0.712,11.191-4.105,14.138-9.425
		c1.448,2.498,4.202,1.081,6.126,2.356c2.903,1.922,2.187,5.525,4.242,8.482c-12.197,2.412-6.112,23.106-15.081,28.747
		c-1.979,0.691-4.185,1.156-4.241,3.77c2.724,2.027,7.353,0.093,10.368-0.471c1.68,5.593,5.333,12.317,9.425,15.552
		c8.711,6.884,15.789-10.095,18.379-15.552c2.674,0.784,7.389,2.385,9.896,0.471c-1.489-3.872-5.464-4.379-7.54-7.54
		c-2-3.046-1.85-6.714-2.356-11.311c-0.75-6.808-4.725-11.652-9.425-14.138c2.511-1.437,1.064-4.216,2.356-6.126
		c1.959-2.896,5.725-2.035,8.483-4.241c1.024,2.347,2.238,4.61,4.241,6.126c5.53,4.187,15.077,1.505,21.207,5.655
		c4.02,2.723,2.043,5.552,7.069,7.54c2.027-2.724,0.093-7.353-0.471-10.367c6.932-1.953,22.041-9.884,15.551-17.908
		c-3.347-4.14-10.317-7.57-15.551-9.896c0.784-2.674,2.385-7.389,0.471-9.896c-3.938,0.886-2.771,2.921-4.242,4.713
		c-2.534,3.087-5.902,4.588-9.425,5.184c-3.076,0.521-6.485-0.162-9.896,0.942c-4.716,1.527-7.134,5.209-9.425,8.482
		c-3.082-2.115-6.04-1.577-8.012-4.712c-1.129-1.797-0.419-4.358-2.356-6.127c11.752-2.512,7.036-21.534,14.138-27.805
		c1.678-1.481,5.02-1.55,5.184-4.712c-2.836-1.855-7.015,0.065-10.368,0.471C94.491,196.644,90.898,189.851,86.712,186.619z
		 M88.126,249.769c-2.042,6.859-9.407,6.945-11.311-0.472c1.344-2.111,3.072-3.84,5.184-5.184
		C85.06,244.979,86.944,247.023,88.126,249.769z M0,332.239c12.41,0,24.82,0,37.229,0c-0.492-5.006-5.897-5.099-9.425-7.069
		c-1.418-1.409,0.736-6.391-1.414-7.068c-7.396-1.104-11.013,10.137-19.322,6.598c-1.862-8.382,8.087-11.324,7.069-18.851
		c-0.678-2.149-5.659,0.005-7.069-1.414c-1.856-3.642-2.129-8.867-7.069-9.425C0,307.419,0,319.829,0,332.239z M157.873,304.906
		c-2.405,0.266-6.061-0.72-7.069,0.942c-1.15,7.442,10.07,11.079,6.598,19.321c-8.496,1.676-10.679-6.866-18.379-7.54
		c-2.091,0.894-1.259,4.71-1.414,7.54c-3.905,1.75-9.158,2.152-9.896,7.069c12.41,0,24.82,0,37.229,0c0-12.41,0-24.82,0-37.229
		C160.025,295.748,159.622,301.001,157.873,304.906z M204.527,167.298c-0.562,5.251-6.425,5.199-9.896,7.54
		c-0.186,2.484,0.609,5.95-0.942,7.069c-8.102-0.275-11.047-10.03-19.322-7.069c-1.907,8.608,8.356,11.333,7.069,19.322
		c-1.271,0.928-4.118,0.28-6.126,0.471c-3.262,2.708-2.423,9.516-8.012,9.896c0-12.41,0-24.819,0-37.229
		C179.708,167.298,192.117,167.298,204.527,167.298z M304.906,174.838c0.233,2.28-0.667,5.694,0.942,6.598
		c7.575,1.066,10.458-8.942,18.851-7.069c3.539,8.309-7.702,11.925-6.598,19.322c0.678,2.149,5.659-0.005,7.068,1.414
		c1.971,3.527,2.063,8.933,7.069,9.425c0-12.41,0-24.819,0-37.229c-12.41,0-24.82,0-37.229,0
		C295.668,172.451,301.442,172.49,304.906,174.838z M254.01,186.619c-1.197-0.924-4.112-2.521-5.184-1.885
		c-5.422,3.217-10.516,10.36-13.195,17.437c-2.714-0.309-7.881-2.84-9.426,0c-0.026,2.845,3.228,3.009,4.713,4.241
		c6.694,5.553,2.927,17.54,8.954,24.506c1.452,1.679,3.477,2.358,5.184,3.771c-1.9,1.712-1.573,5.653-3.299,7.54
		c-2.421,1.035-5.461,1.45-7.54,2.827c-0.64-1.944-1.726-3.8-3.299-5.184c-4.438-3.902-10.096-3.095-16.022-4.241
		c-3.355-0.649-7.018-2.922-8.483-4.713c-1.387-1.695-1.081-4.885-4.712-4.713c-1.979,2.475,0.215,6.768,0.471,9.896
		c-6.892,1.943-21.883,10.079-15.552,17.908c3.343,4.133,10.284,7.605,15.552,9.896c-0.478,3.167-2.282,7.191-0.471,9.896
		c3.321-0.454,3.472-3.871,5.184-5.655c3.231-3.367,7.533-3.612,13.667-4.241c6.94-0.712,11.19-4.105,14.138-9.425
		c1.447,2.498,4.201,1.081,6.126,2.356c2.902,1.922,2.188,5.525,4.241,8.482c-12.196,2.412-6.111,23.106-15.08,28.747
		c-1.979,0.691-4.185,1.156-4.241,3.77c2.724,2.027,7.354,0.093,10.367-0.471c1.681,5.593,5.333,12.317,9.426,15.552
		c8.711,6.884,15.788-10.095,18.379-15.552c2.674,0.784,7.389,2.385,9.896,0.471c-1.488-3.872-5.465-4.379-7.54-7.54
		c-2.001-3.046-1.851-6.714-2.356-11.311c-0.75-6.808-4.725-11.652-9.425-14.138c2.511-1.437,1.064-4.216,2.356-6.126
		c1.958-2.896,5.725-2.035,8.482-4.241c1.024,2.347,2.238,4.61,4.241,6.126c5.53,4.187,15.077,1.505,21.207,5.655
		c4.021,2.723,2.044,5.552,7.068,7.54c2.027-2.724,0.093-7.353-0.471-10.367c6.932-1.953,22.041-9.884,15.552-17.908
		c-3.348-4.14-10.317-7.57-15.552-9.896c0.784-2.674,2.385-7.389,0.471-9.896c-3.938,0.886-2.771,2.921-4.241,4.713
		c-2.534,3.087-5.902,4.588-9.425,5.184c-3.076,0.521-6.485-0.162-9.896,0.942c-4.716,1.527-7.135,5.209-9.426,8.482
		c-3.081-2.115-6.04-1.577-8.011-4.712c-1.13-1.797-0.42-4.358-2.356-6.127c11.752-2.512,7.036-21.534,14.138-27.805
		c1.679-1.481,5.02-1.55,5.184-4.712c-2.837-1.855-7.015,0.065-10.367,0.471C261.789,196.644,258.195,189.851,254.01,186.619z
		 M255.424,249.769c-2.043,6.859-9.407,6.945-11.311-0.472c1.344-2.111,3.072-3.84,5.184-5.184
		C252.357,244.979,254.242,247.023,255.424,249.769z M167.298,332.239c12.41,0,24.819,0,37.229,0
		c-0.492-5.006-5.897-5.099-9.425-7.069c-1.419-1.409,0.735-6.391-1.414-7.068c-7.396-1.104-11.013,10.137-19.322,6.598
		c-1.862-8.382,8.086-11.324,7.069-18.851c-0.679-2.149-5.66,0.005-7.069-1.414c-1.856-3.642-2.129-8.867-7.069-9.425
		C167.298,307.419,167.298,319.829,167.298,332.239z M325.17,304.906c-2.404,0.266-6.061-0.72-7.068,0.942
		c-1.15,7.442,10.07,11.079,6.598,19.321c-8.496,1.676-10.679-6.866-18.379-7.54c-2.092,0.894-1.26,4.71-1.414,7.54
		c-3.905,1.75-9.158,2.152-9.896,7.069c12.409,0,24.819,0,37.229,0c0-12.41,0-24.82,0-37.229
		C327.322,295.748,326.92,301.001,325.17,304.906z M372.288,167.298c-0.562,5.251-6.425,5.199-9.896,7.54
		c-0.186,2.484,0.609,5.95-0.942,7.069c-8.102-0.275-11.047-10.03-19.321-7.069c-1.907,8.608,8.355,11.333,7.068,19.322
		c-1.271,0.928-4.118,0.28-6.126,0.471c-3.263,2.708-2.423,9.516-8.012,9.896c0-12.41,0-24.819,0-37.229
		C347.469,167.298,359.878,167.298,372.288,167.298z M472.667,174.838c0.233,2.28-0.667,5.694,0.942,6.598
		c7.575,1.066,10.458-8.942,18.851-7.069c3.539,8.309-7.702,11.925-6.598,19.322c0.678,2.149,5.659-0.005,7.068,1.414
		c1.971,3.527,2.063,8.933,7.069,9.425c0-12.41,0-24.819,0-37.229c-12.41,0-24.82,0-37.229,0
		C463.429,172.451,469.203,172.49,472.667,174.838z M421.771,186.619c-1.197-0.924-4.112-2.521-5.184-1.885
		c-5.422,3.217-10.516,10.36-13.195,17.437c-2.714-0.309-7.881-2.84-9.426,0c-0.026,2.845,3.228,3.009,4.713,4.241
		c6.694,5.553,2.927,17.54,8.954,24.506c1.452,1.679,3.477,2.358,5.184,3.771c-1.9,1.712-1.572,5.653-3.299,7.54
		c-2.421,1.035-5.461,1.45-7.54,2.827c-0.64-1.944-1.726-3.8-3.299-5.184c-4.438-3.902-10.096-3.095-16.022-4.241
		c-3.355-0.649-7.018-2.922-8.483-4.713c-1.387-1.695-1.081-4.885-4.712-4.713c-1.979,2.475,0.215,6.768,0.471,9.896
		c-6.892,1.943-21.883,10.079-15.552,17.908c3.343,4.133,10.284,7.605,15.552,9.896c-0.478,3.167-2.282,7.191-0.471,9.896
		c3.321-0.454,3.472-3.871,5.184-5.655c3.231-3.367,7.533-3.612,13.667-4.241c6.94-0.712,11.19-4.105,14.138-9.425
		c1.447,2.498,4.201,1.081,6.126,2.356c2.902,1.922,2.188,5.525,4.241,8.482c-12.196,2.412-6.111,23.106-15.08,28.747
		c-1.979,0.691-4.185,1.156-4.241,3.77c2.724,2.027,7.354,0.093,10.367-0.471c1.681,5.593,5.333,12.317,9.426,15.552
		c8.711,6.884,15.788-10.095,18.379-15.552c2.674,0.784,7.389,2.385,9.896,0.471c-1.488-3.872-5.465-4.379-7.54-7.54
		c-2.001-3.046-1.85-6.714-2.356-11.311c-0.75-6.808-4.725-11.652-9.425-14.138c2.511-1.437,1.064-4.216,2.356-6.126
		c1.958-2.896,5.725-2.035,8.482-4.241c1.024,2.347,2.238,4.61,4.241,6.126c5.53,4.187,15.077,1.505,21.207,5.655
		c4.021,2.723,2.044,5.552,7.068,7.54c2.027-2.724,0.093-7.353-0.471-10.367c6.932-1.953,22.041-9.884,15.552-17.908
		c-3.348-4.14-10.317-7.57-15.552-9.896c0.784-2.674,2.385-7.389,0.471-9.896c-3.938,0.886-2.771,2.921-4.241,4.713
		c-2.534,3.087-5.902,4.588-9.425,5.184c-3.076,0.521-6.485-0.162-9.896,0.942c-4.716,1.527-7.135,5.209-9.426,8.482
		c-3.081-2.115-6.04-1.577-8.011-4.712c-1.13-1.797-0.42-4.358-2.356-6.127c11.752-2.512,7.036-21.534,14.138-27.805
		c1.679-1.481,5.02-1.55,5.184-4.712c-2.837-1.855-7.015,0.065-10.367,0.471C429.55,196.644,425.956,189.851,421.771,186.619z
		 M423.185,249.769c-2.043,6.859-9.407,6.945-11.311-0.472c1.344-2.111,3.072-3.84,5.184-5.184
		C420.118,244.979,422.003,247.023,423.185,249.769z M335.059,332.239c12.41,0,24.819,0,37.229,0
		c-0.492-5.006-5.897-5.099-9.425-7.069c-1.419-1.409,0.735-6.391-1.414-7.068c-7.396-1.104-11.013,10.137-19.321,6.598
		c-1.863-8.382,8.087-11.324,7.068-18.851c-0.679-2.149-5.659,0.005-7.068-1.414c-1.857-3.642-2.13-8.867-7.069-9.425
		C335.059,307.419,335.059,319.829,335.059,332.239z M492.931,304.906c-2.404,0.266-6.061-0.72-7.068,0.942
		c-1.15,7.442,10.07,11.079,6.598,19.321c-8.496,1.676-10.679-6.866-18.379-7.54c-2.092,0.894-1.26,4.71-1.414,7.54
		c-3.905,1.75-9.158,2.152-9.896,7.069c12.409,0,24.819,0,37.229,0c0-12.41,0-24.82,0-37.229
		C495.084,295.748,494.681,301.001,492.931,304.906z M37.229,335.059c-0.561,5.251-6.425,5.199-9.896,7.54
		c-0.186,2.484,0.609,5.95-0.942,7.069c-8.101-0.275-11.046-10.03-19.322-7.069c-1.907,8.608,8.356,11.333,7.069,19.322
		c-1.271,0.928-4.118,0.28-6.126,0.471C4.75,365.1,5.589,371.907,0,372.288c0-12.41,0-24.819,0-37.229
		C12.41,335.059,24.82,335.059,37.229,335.059z M137.608,342.599c0.233,2.28-0.667,5.694,0.942,6.598
		c7.575,1.066,10.458-8.942,18.851-7.068c3.539,8.309-7.702,11.925-6.598,19.321c0.678,2.149,5.66-0.005,7.069,1.414
		c1.97,3.527,2.062,8.933,7.069,9.425c0-12.41,0-24.819,0-37.229c-12.41,0-24.82,0-37.229,0
		C128.371,340.212,134.144,340.251,137.608,342.599z M86.712,354.38c-1.197-0.924-4.112-2.521-5.184-1.885
		c-5.421,3.217-10.516,10.36-13.195,17.437c-2.714-0.309-7.881-2.84-9.425,0c-0.027,2.845,3.227,3.009,4.712,4.241
		c6.694,5.553,2.927,17.54,8.954,24.506c1.453,1.679,3.476,2.358,5.184,3.771c-1.901,1.712-1.573,5.653-3.299,7.54
		c-2.421,1.035-5.461,1.45-7.541,2.827c-0.64-1.944-1.726-3.8-3.299-5.184c-4.437-3.902-10.096-3.095-16.023-4.241
		c-3.355-0.649-7.018-2.922-8.482-4.713c-1.387-1.695-1.082-4.885-4.713-4.713c-1.979,2.475,0.215,6.768,0.472,9.896
		c-6.892,1.943-21.883,10.079-15.552,17.908c3.342,4.134,10.284,7.605,15.552,9.896c-0.478,3.167-2.282,7.192-0.472,9.896
		c3.322-0.454,3.473-3.871,5.184-5.655c3.231-3.367,7.533-3.612,13.667-4.241c6.941-0.712,11.191-4.105,14.138-9.425
		c1.448,2.498,4.202,1.081,6.126,2.356c2.903,1.922,2.187,5.525,4.242,8.482c-12.197,2.412-6.112,23.106-15.081,28.747
		c-1.979,0.691-4.185,1.156-4.241,3.77c2.724,2.027,7.353,0.093,10.368-0.471c1.68,5.593,5.333,12.317,9.425,15.552
		c8.711,6.884,15.789-10.095,18.379-15.552c2.674,0.784,7.389,2.385,9.896,0.471c-1.489-3.872-5.464-4.379-7.54-7.54
		c-2-3.046-1.85-6.714-2.356-11.311c-0.75-6.808-4.725-11.652-9.425-14.138c2.511-1.437,1.064-4.216,2.356-6.126
		c1.959-2.896,5.725-2.035,8.483-4.241c1.024,2.347,2.238,4.61,4.241,6.126c5.53,4.187,15.077,1.505,21.207,5.655
		c4.02,2.723,2.043,5.552,7.069,7.54c2.027-2.724,0.093-7.353-0.471-10.367c6.932-1.953,22.041-9.884,15.551-17.908
		c-3.347-4.14-10.317-7.57-15.551-9.896c0.784-2.674,2.385-7.389,0.471-9.896c-3.938,0.886-2.771,2.921-4.242,4.713
		c-2.534,3.087-5.902,4.588-9.425,5.184c-3.076,0.521-6.485-0.162-9.896,0.942c-4.716,1.527-7.134,5.209-9.425,8.482
		c-3.082-2.115-6.04-1.577-8.012-4.712c-1.129-1.797-0.419-4.358-2.356-6.127c11.752-2.512,7.036-21.534,14.138-27.805
		c1.678-1.481,5.02-1.55,5.184-4.712c-2.836-1.855-7.015,0.065-10.368,0.471C94.491,364.404,90.898,357.611,86.712,354.38z
		 M88.126,417.529c-2.042,6.859-9.407,6.945-11.311-0.472c1.344-2.111,3.072-3.84,5.184-5.184
		C85.06,412.74,86.944,414.784,88.126,417.529z M0,500c12.41,0,24.82,0,37.229,0c-0.492-5.006-5.897-5.099-9.425-7.069
		c-1.418-1.409,0.736-6.391-1.414-7.068c-7.396-1.104-11.013,10.137-19.322,6.598c-1.862-8.382,8.087-11.324,7.069-18.851
		c-0.678-2.149-5.659,0.005-7.069-1.414c-1.856-3.642-2.129-8.867-7.069-9.425C0,475.18,0,487.59,0,500z M157.873,472.667
		c-2.405,0.266-6.061-0.72-7.069,0.942c-1.15,7.442,10.07,11.079,6.598,19.321c-8.496,1.676-10.679-6.866-18.379-7.54
		c-2.091,0.894-1.259,4.71-1.414,7.54c-3.905,1.75-9.158,2.153-9.896,7.069c12.41,0,24.82,0,37.229,0c0-12.41,0-24.82,0-37.229
		C160.025,463.509,159.622,468.762,157.873,472.667z M204.527,335.059c-0.562,5.251-6.425,5.199-9.896,7.54
		c-0.186,2.484,0.609,5.95-0.942,7.069c-8.102-0.275-11.047-10.03-19.322-7.069c-1.907,8.608,8.356,11.333,7.069,19.322
		c-1.271,0.928-4.118,0.28-6.126,0.471c-3.262,2.708-2.423,9.516-8.012,9.896c0-12.41,0-24.819,0-37.229
		C179.708,335.059,192.117,335.059,204.527,335.059z M304.906,342.599c0.233,2.28-0.667,5.694,0.942,6.598
		c7.575,1.066,10.458-8.942,18.851-7.068c3.539,8.309-7.702,11.925-6.598,19.321c0.678,2.149,5.659-0.005,7.068,1.414
		c1.971,3.527,2.063,8.933,7.069,9.425c0-12.41,0-24.819,0-37.229c-12.41,0-24.82,0-37.229,0
		C295.668,340.212,301.442,340.251,304.906,342.599z M254.01,354.38c-1.197-0.924-4.112-2.521-5.184-1.885
		c-5.422,3.217-10.516,10.36-13.195,17.437c-2.714-0.309-7.881-2.84-9.426,0c-0.026,2.845,3.228,3.009,4.713,4.241
		c6.694,5.553,2.927,17.54,8.954,24.506c1.452,1.679,3.477,2.358,5.184,3.771c-1.9,1.712-1.573,5.653-3.299,7.54
		c-2.421,1.035-5.461,1.45-7.54,2.827c-0.64-1.944-1.726-3.8-3.299-5.184c-4.438-3.902-10.096-3.095-16.022-4.241
		c-3.355-0.649-7.018-2.922-8.483-4.713c-1.387-1.695-1.081-4.885-4.712-4.713c-1.979,2.475,0.215,6.768,0.471,9.896
		c-6.892,1.943-21.883,10.079-15.552,17.908c3.343,4.134,10.284,7.605,15.552,9.896c-0.478,3.167-2.282,7.192-0.471,9.896
		c3.321-0.454,3.472-3.871,5.184-5.655c3.231-3.367,7.533-3.612,13.667-4.241c6.94-0.712,11.19-4.105,14.138-9.425
		c1.447,2.498,4.201,1.081,6.126,2.356c2.902,1.922,2.188,5.525,4.241,8.482c-12.196,2.412-6.111,23.106-15.08,28.747
		c-1.979,0.691-4.185,1.156-4.241,3.77c2.724,2.027,7.354,0.093,10.367-0.471c1.681,5.593,5.333,12.317,9.426,15.552
		c8.711,6.884,15.788-10.095,18.379-15.552c2.674,0.784,7.389,2.385,9.896,0.471c-1.488-3.872-5.465-4.379-7.54-7.54
		c-2.001-3.046-1.851-6.714-2.356-11.311c-0.75-6.808-4.725-11.652-9.425-14.138c2.511-1.437,1.064-4.216,2.356-6.126
		c1.958-2.896,5.725-2.035,8.482-4.241c1.024,2.347,2.238,4.61,4.241,6.126c5.53,4.187,15.077,1.505,21.207,5.655
		c4.021,2.723,2.044,5.552,7.068,7.54c2.027-2.724,0.093-7.353-0.471-10.367c6.932-1.953,22.041-9.884,15.552-17.908
		c-3.348-4.14-10.317-7.57-15.552-9.896c0.784-2.674,2.385-7.389,0.471-9.896c-3.938,0.886-2.771,2.921-4.241,4.713
		c-2.534,3.087-5.902,4.588-9.425,5.184c-3.076,0.521-6.485-0.162-9.896,0.942c-4.716,1.527-7.135,5.209-9.426,8.482
		c-3.081-2.115-6.04-1.577-8.011-4.712c-1.13-1.797-0.42-4.358-2.356-6.127c11.752-2.512,7.036-21.534,14.138-27.805
		c1.679-1.481,5.02-1.55,5.184-4.712c-2.837-1.855-7.015,0.065-10.367,0.471C261.789,364.404,258.195,357.611,254.01,354.38z
		 M255.424,417.529c-2.043,6.859-9.407,6.945-11.311-0.472c1.344-2.111,3.072-3.84,5.184-5.184
		C252.357,412.74,254.242,414.784,255.424,417.529z M167.298,500c12.41,0,24.819,0,37.229,0c-0.492-5.006-5.897-5.099-9.425-7.069
		c-1.419-1.409,0.735-6.391-1.414-7.068c-7.396-1.104-11.013,10.137-19.322,6.598c-1.862-8.382,8.086-11.324,7.069-18.851
		c-0.679-2.149-5.66,0.005-7.069-1.414c-1.856-3.642-2.129-8.867-7.069-9.425C167.298,475.18,167.298,487.59,167.298,500z
		 M325.17,472.667c-2.404,0.266-6.061-0.72-7.068,0.942c-1.15,7.442,10.07,11.079,6.598,19.321
		c-8.496,1.676-10.679-6.866-18.379-7.54c-2.092,0.894-1.26,4.71-1.414,7.54c-3.905,1.75-9.158,2.153-9.896,7.069
		c12.409,0,24.819,0,37.229,0c0-12.41,0-24.82,0-37.229C327.322,463.509,326.92,468.762,325.17,472.667z M372.288,335.059
		c-0.562,5.251-6.425,5.199-9.896,7.54c-0.186,2.484,0.609,5.95-0.942,7.069c-8.102-0.275-11.047-10.03-19.321-7.069
		c-1.907,8.608,8.355,11.333,7.068,19.322c-1.271,0.928-4.118,0.28-6.126,0.471c-3.263,2.708-2.423,9.516-8.012,9.896
		c0-12.41,0-24.819,0-37.229C347.469,335.059,359.878,335.059,372.288,335.059z M472.667,342.599
		c0.233,2.28-0.667,5.694,0.942,6.598c7.575,1.066,10.458-8.942,18.851-7.068c3.539,8.309-7.702,11.925-6.598,19.321
		c0.678,2.149,5.659-0.005,7.068,1.414c1.971,3.527,2.063,8.933,7.069,9.425c0-12.41,0-24.819,0-37.229c-12.41,0-24.82,0-37.229,0
		C463.429,340.212,469.203,340.251,472.667,342.599z M421.771,354.38c-1.197-0.924-4.112-2.521-5.184-1.885
		c-5.422,3.217-10.516,10.36-13.195,17.437c-2.714-0.309-7.881-2.84-9.426,0c-0.026,2.845,3.228,3.009,4.713,4.241
		c6.694,5.553,2.927,17.54,8.954,24.506c1.452,1.679,3.477,2.358,5.184,3.771c-1.9,1.712-1.572,5.653-3.299,7.54
		c-2.421,1.035-5.461,1.45-7.54,2.827c-0.64-1.944-1.726-3.8-3.299-5.184c-4.438-3.902-10.096-3.095-16.022-4.241
		c-3.355-0.649-7.018-2.922-8.483-4.713c-1.387-1.695-1.081-4.885-4.712-4.713c-1.979,2.475,0.215,6.768,0.471,9.896
		c-6.892,1.943-21.883,10.079-15.552,17.908c3.343,4.134,10.284,7.605,15.552,9.896c-0.478,3.167-2.282,7.192-0.471,9.896
		c3.321-0.454,3.472-3.871,5.184-5.655c3.231-3.367,7.533-3.612,13.667-4.241c6.94-0.712,11.19-4.105,14.138-9.425
		c1.447,2.498,4.201,1.081,6.126,2.356c2.902,1.922,2.188,5.525,4.241,8.482c-12.196,2.412-6.111,23.106-15.08,28.747
		c-1.979,0.691-4.185,1.156-4.241,3.77c2.724,2.027,7.354,0.093,10.367-0.471c1.681,5.593,5.333,12.317,9.426,15.552
		c8.711,6.884,15.788-10.095,18.379-15.552c2.674,0.784,7.389,2.385,9.896,0.471c-1.488-3.872-5.465-4.379-7.54-7.54
		c-2.001-3.046-1.85-6.714-2.356-11.311c-0.75-6.808-4.725-11.652-9.425-14.138c2.511-1.437,1.064-4.216,2.356-6.126
		c1.958-2.896,5.725-2.035,8.482-4.241c1.024,2.347,2.238,4.61,4.241,6.126c5.53,4.187,15.077,1.505,21.207,5.655
		c4.021,2.723,2.044,5.552,7.068,7.54c2.027-2.724,0.093-7.353-0.471-10.367c6.932-1.953,22.041-9.884,15.552-17.908
		c-3.348-4.14-10.317-7.57-15.552-9.896c0.784-2.674,2.385-7.389,0.471-9.896c-3.938,0.886-2.771,2.921-4.241,4.713
		c-2.534,3.087-5.902,4.588-9.425,5.184c-3.076,0.521-6.485-0.162-9.896,0.942c-4.716,1.527-7.135,5.209-9.426,8.482
		c-3.081-2.115-6.04-1.577-8.011-4.712c-1.13-1.797-0.42-4.358-2.356-6.127c11.752-2.512,7.036-21.534,14.138-27.805
		c1.679-1.481,5.02-1.55,5.184-4.712c-2.837-1.855-7.015,0.065-10.367,0.471C429.55,364.404,425.956,357.611,421.771,354.38z
		 M423.185,417.529c-2.043,6.859-9.407,6.945-11.311-0.472c1.344-2.111,3.072-3.84,5.184-5.184
		C420.118,412.74,422.003,414.784,423.185,417.529z M335.059,500c12.41,0,24.819,0,37.229,0c-0.492-5.006-5.897-5.099-9.425-7.069
		c-1.419-1.409,0.735-6.391-1.414-7.068c-7.396-1.104-11.013,10.137-19.321,6.598c-1.863-8.382,8.087-11.324,7.068-18.851
		c-0.679-2.149-5.659,0.005-7.068-1.414c-1.857-3.642-2.13-8.867-7.069-9.425C335.059,475.18,335.059,487.59,335.059,500z
		 M492.931,472.667c-2.404,0.266-6.061-0.72-7.068,0.942c-1.15,7.442,10.07,11.079,6.598,19.321
		c-8.496,1.676-10.679-6.866-18.379-7.54c-2.092,0.894-1.26,4.71-1.414,7.54c-3.905,1.75-9.158,2.153-9.896,7.069
		c12.409,0,24.819,0,37.229,0c0-12.41,0-24.82,0-37.229C495.084,463.509,494.681,468.762,492.931,472.667z"></path>
</g>
<g id="A">
	<path class="paintable" fill-rule="evenodd" clip-rule="evenodd" fill="#808285" d="M66.919,0c4.87,0,9.739,0,14.609,0
		c-1.669,3.538-4.866,6.279-7.541,8.954c-7.755,7.755-16.305,15.619-24.034,24.034c0,5.655,0,11.31,0,16.965
		c-6.25,1.062-11.152-1.465-16.494,0c-2.676,0.734-6.144,5.673-8.482,8.012c-5.829,5.829-10.473,10.473-16.023,16.022
		C6.267,76.675,3.708,79.986,0,81.057c0-4.713,0-9.425,0-14.138c4.654-3.957,8.871-8.871,14.138-14.138
		c3.141-3.141,10.811-12.638,15.081-13.667c3.437-0.829,6.479,0.618,9.896,0c0.729-3.504-0.974-6.817,0-10.368
		c0.603-2.197,4.307-4.778,6.598-7.069C52.682,14.708,61.771,5.3,66.919,0z M87.184,4.712c6.649,6.517,13.303,12.832,20.735,20.265
		c2.208,2.208,6.91,6.194,7.54,8.482c1.422,5.163-0.622,10.25-0.471,16.023c6.182,1.965,11.451-1.041,16.965,0.471
		c2.655,0.728,6.1,5.629,8.483,8.012c7.146,7.146,13.284,12.681,20.264,19.793c1.272,1.296,2.203,3.471,4.241,3.77
		c0-4.87,0-9.739,0-14.609c-6.834-6.151-14.239-14.24-21.207-21.207c-2.113-2.114-5.472-6.03-7.541-6.598
		c-3.551-0.974-6.864,0.729-10.368,0c0-3.613,0-7.226,0-10.839C116.833,18.575,107.016,9.7,98.022,0c-4.87,0-9.74,0-14.609,0
		C84.078,1.881,85.766,3.324,87.184,4.712z M67.862,76.815c2.741-0.243,4.861-1.108,7.069-1.885
		c0.776-2.208,1.642-4.328,1.885-7.069c-4.059-0.183-7.207-1.276-10.839-1.885C66.726,69.469,67.611,72.824,67.862,76.815z
		 M88.126,67.862c0.291,5.678,3.004,8.935,8.954,8.954c0.286-2.542,0.969-4.686,0.942-7.54c0.13-0.852,2.256-3.532,0.471-3.299
		C95.363,66.93,91.892,67.543,88.126,67.862z M131.953,115.459c-5.362-0.292-11.909,0.599-16.494-0.471
		c-1.008,5.099,1.359,11.54,0,16.494c-0.711,2.593-5.574,6.045-8.011,8.483c-8.107,8.107-17.126,17.047-24.035,24.977
		c4.87,0,9.74,0,14.609,0c6.151-6.834,14.24-14.239,21.207-21.207c2.113-2.113,6.031-5.472,6.598-7.541
		c0.974-3.551-0.729-6.864,0-10.368c3.613,0,7.226,0,10.839,0c9.7-8.993,18.575-18.811,28.275-27.804c0-4.87,0-9.74,0-14.609
		C153.2,93.349,143.303,105.13,131.953,115.459z M0,98.022c6.86,6.177,14.217,14.217,21.207,21.207
		c2.134,2.134,5.443,6.022,7.541,6.598c3.685,1.011,6.763-1.147,10.368,0.471c0,3.456,0,6.912,0,10.368
		c8.993,9.7,18.812,18.575,27.804,28.275c4.87,0,9.739,0,14.609,0c-0.32-2.057-2.509-3.003-3.77-4.241
		c-9.019-8.852-18.522-18.941-27.805-28.276c0-5.655,0-11.31,0-16.965c-4.921-0.853-11.328,1.139-16.023,0
		c-2.656-0.644-6.5-5.086-8.954-7.54c-5.963-5.963-10.806-10.806-16.494-16.494C5.758,88.7,3.602,85.121,0,83.885
		C0,88.597,0,93.31,0,98.022z M65.977,98.965c3.552-0.689,7-1.483,10.839-1.885c-0.019-5.95-3.275-8.664-8.954-8.954
		C67.679,92.185,66.585,95.333,65.977,98.965z M97.08,88.597c-0.104-0.367-0.395-0.548-0.943-0.471
		c-5.187,0.468-7.785,3.525-8.011,8.954c3.839,0.401,7.287,1.196,10.839,1.885C98.259,95.586,97.529,92.232,97.08,88.597z
		 M234.217,0c4.87,0,9.739,0,14.609,0c-1.67,3.538-4.865,6.279-7.54,8.954c-7.756,7.755-16.305,15.619-24.034,24.034
		c0,5.655,0,11.31,0,16.965c-6.251,1.062-11.152-1.465-16.494,0c-2.676,0.734-6.145,5.673-8.483,8.012
		c-5.829,5.829-10.473,10.473-16.022,16.022c-2.687,2.687-5.246,5.999-8.954,7.069c0-4.713,0-9.425,0-14.138
		c4.654-3.957,8.871-8.871,14.138-14.138c3.141-3.141,10.811-12.638,15.08-13.667c3.438-0.829,6.479,0.618,9.896,0
		c0.729-3.504-0.974-6.817,0-10.368c0.603-2.197,4.307-4.778,6.598-7.069C219.979,14.708,229.069,5.3,234.217,0z M254.481,4.712
		c6.648,6.517,13.303,12.832,20.735,20.265c2.208,2.208,6.91,6.194,7.54,8.482c1.422,5.163-0.622,10.25-0.472,16.023
		c6.182,1.965,11.451-1.041,16.966,0.471c2.654,0.728,6.1,5.629,8.482,8.012c7.146,7.146,13.284,12.681,20.265,19.793
		c1.272,1.296,2.202,3.471,4.241,3.77c0-4.87,0-9.739,0-14.609c-6.835-6.151-14.239-14.24-21.207-21.207
		c-2.113-2.114-5.472-6.03-7.54-6.598c-3.551-0.974-6.864,0.729-10.367,0c0-3.613,0-7.226,0-10.839
		C284.132,18.575,274.313,9.7,265.32,0c-4.87,0-9.739,0-14.609,0C251.376,1.881,253.064,3.324,254.481,4.712z M235.159,76.815
		c2.741-0.243,4.861-1.108,7.069-1.885c0.776-2.208,1.642-4.328,1.885-7.069c-4.059-0.183-7.206-1.276-10.839-1.885
		C234.023,69.469,234.909,72.824,235.159,76.815z M255.424,67.862c0.291,5.678,3.004,8.935,8.954,8.954
		c0.285-2.542,0.969-4.686,0.942-7.54c0.13-0.852,2.256-3.532,0.471-3.299C262.661,66.93,259.189,67.543,255.424,67.862z
		 M299.251,115.459c-5.362-0.292-11.909,0.599-16.494-0.471c-1.008,5.099,1.359,11.54,0,16.494
		c-0.712,2.593-5.574,6.045-8.012,8.483c-8.106,8.107-17.126,17.047-24.034,24.977c4.87,0,9.739,0,14.609,0
		c6.151-6.834,14.24-14.239,21.207-21.207c2.113-2.113,6.03-5.472,6.598-7.541c0.974-3.551-0.729-6.864,0-10.368
		c3.612,0,7.226,0,10.839,0c9.7-8.993,18.575-18.811,28.275-27.804c0-4.87,0-9.74,0-14.609
		C320.497,93.349,310.601,105.13,299.251,115.459z M167.298,98.022c6.86,6.177,14.218,14.217,21.207,21.207
		c2.134,2.134,5.443,6.022,7.54,6.598c3.685,1.011,6.763-1.147,10.367,0.471c0,3.456,0,6.912,0,10.368
		c8.993,9.7,18.812,18.575,27.805,28.275c4.87,0,9.739,0,14.609,0c-0.32-2.057-2.51-3.003-3.771-4.241
		c-9.019-8.852-18.521-18.941-27.804-28.276c0-5.655,0-11.31,0-16.965c-4.922-0.853-11.329,1.139-16.023,0
		c-2.655-0.644-6.5-5.086-8.954-7.54c-5.962-5.963-10.806-10.806-16.494-16.494c-2.725-2.725-4.881-6.304-8.482-7.54
		C167.298,88.597,167.298,93.31,167.298,98.022z M233.274,98.965c3.553-0.689,6.999-1.483,10.839-1.885
		c-0.02-5.95-3.275-8.664-8.954-8.954C234.977,92.185,233.883,95.333,233.274,98.965z M264.378,88.597
		c-0.104-0.367-0.395-0.548-0.942-0.471c-5.188,0.468-7.785,3.525-8.012,8.954c3.84,0.401,7.286,1.196,10.839,1.885
		C265.558,95.586,264.827,92.232,264.378,88.597z M401.978,0c4.87,0,9.739,0,14.609,0c-1.67,3.538-4.865,6.279-7.54,8.954
		c-7.756,7.755-16.305,15.619-24.034,24.034c0,5.655,0,11.31,0,16.965c-6.251,1.062-11.152-1.465-16.494,0
		c-2.676,0.734-6.145,5.673-8.483,8.012c-5.829,5.829-10.473,10.473-16.022,16.022c-2.687,2.687-5.246,5.999-8.954,7.069
		c0-4.713,0-9.425,0-14.138c4.653-3.957,8.871-8.871,14.138-14.138c3.141-3.141,10.811-12.638,15.08-13.667
		c3.438-0.829,6.479,0.618,9.896,0c0.729-3.504-0.974-6.817,0-10.368c0.603-2.197,4.307-4.778,6.598-7.069
		C387.74,14.708,396.83,5.3,401.978,0z M422.242,4.712c6.648,6.517,13.303,12.832,20.735,20.265c2.208,2.208,6.91,6.194,7.54,8.482
		c1.422,5.163-0.622,10.25-0.472,16.023c6.182,1.965,11.451-1.041,16.966,0.471c2.654,0.728,6.1,5.629,8.482,8.012
		c7.146,7.146,13.284,12.681,20.265,19.793c1.272,1.296,2.202,3.471,4.241,3.77c0-4.87,0-9.739,0-14.609
		c-6.835-6.151-14.239-14.24-21.207-21.207c-2.113-2.114-5.472-6.03-7.54-6.598c-3.551-0.974-6.864,0.729-10.367,0
		c0-3.613,0-7.226,0-10.839C451.893,18.575,442.074,9.7,433.081,0c-4.87,0-9.739,0-14.609,0
		C419.137,1.881,420.825,3.324,422.242,4.712z M402.92,76.815c2.741-0.243,4.861-1.108,7.069-1.885
		c0.776-2.208,1.642-4.328,1.885-7.069c-4.059-0.183-7.206-1.276-10.839-1.885C401.784,69.469,402.67,72.824,402.92,76.815z
		 M423.185,67.862c0.291,5.678,3.004,8.935,8.954,8.954c0.285-2.542,0.969-4.686,0.942-7.54c0.13-0.852,2.256-3.532,0.471-3.299
		C430.422,66.93,426.95,67.543,423.185,67.862z M467.012,115.459c-5.362-0.292-11.909,0.599-16.494-0.471
		c-1.008,5.099,1.359,11.54,0,16.494c-0.712,2.593-5.574,6.045-8.012,8.483c-8.106,8.107-17.126,17.047-24.034,24.977
		c4.87,0,9.739,0,14.609,0c6.151-6.834,14.24-14.239,21.207-21.207c2.113-2.113,6.03-5.472,6.598-7.541
		c0.974-3.551-0.729-6.864,0-10.368c3.612,0,7.226,0,10.839,0c9.7-8.993,18.575-18.811,28.275-27.804c0-4.87,0-9.74,0-14.609
		C488.258,93.349,478.361,105.13,467.012,115.459z M335.059,98.022c6.86,6.177,14.218,14.217,21.207,21.207
		c2.134,2.134,5.443,6.022,7.54,6.598c3.685,1.011,6.763-1.147,10.367,0.471c0,3.456,0,6.912,0,10.368
		c8.993,9.7,18.812,18.575,27.805,28.275c4.87,0,9.739,0,14.609,0c-0.32-2.057-2.509-3.003-3.771-4.241
		c-9.019-8.852-18.521-18.941-27.804-28.276c0-5.655,0-11.31,0-16.965c-4.922-0.853-11.329,1.139-16.023,0
		c-2.655-0.644-6.5-5.086-8.954-7.54c-5.962-5.963-10.805-10.806-16.494-16.494c-2.725-2.725-4.881-6.304-8.482-7.54
		C335.059,88.597,335.059,93.31,335.059,98.022z M401.035,98.965c3.553-0.689,6.999-1.483,10.839-1.885
		c-0.02-5.95-3.275-8.664-8.954-8.954C402.737,92.185,401.644,95.333,401.035,98.965z M432.139,88.597
		c-0.104-0.367-0.395-0.548-0.942-0.471c-5.188,0.468-7.785,3.525-8.012,8.954c3.84,0.401,7.286,1.196,10.839,1.885
		C433.318,95.586,432.588,92.232,432.139,88.597z M66.919,167.298c4.87,0,9.739,0,14.609,0c-1.669,3.538-4.866,6.279-7.541,8.954
		c-7.755,7.755-16.305,15.618-24.034,24.034c0,5.655,0,11.311,0,16.966c-6.25,1.061-11.152-1.466-16.494,0
		c-2.676,0.733-6.144,5.673-8.482,8.011c-5.829,5.829-10.473,10.473-16.023,16.023c-2.687,2.687-5.246,5.998-8.954,7.068
		c0-4.712,0-9.425,0-14.138c4.654-3.957,8.871-8.871,14.138-14.138c3.141-3.141,10.811-12.638,15.081-13.667
		c3.437-0.828,6.479,0.618,9.896,0c0.729-3.503-0.974-6.816,0-10.367c0.603-2.197,4.307-4.778,6.598-7.069
		C52.682,182.006,61.771,172.598,66.919,167.298z M87.184,172.01c6.649,6.517,13.303,12.832,20.735,20.264
		c2.208,2.208,6.91,6.193,7.54,8.483c1.422,5.162-0.622,10.249-0.471,16.022c6.182,1.965,11.451-1.041,16.965,0.472
		c2.655,0.728,6.1,5.628,8.483,8.011c7.146,7.146,13.284,12.682,20.264,19.793c1.272,1.297,2.203,3.472,4.241,3.771
		c0-4.87,0-9.739,0-14.609c-6.834-6.151-14.239-14.24-21.207-21.207c-2.113-2.113-5.472-6.03-7.541-6.598
		c-3.551-0.974-6.864,0.729-10.368,0c0-3.612,0-7.226,0-10.839c-8.993-9.7-18.811-18.575-27.804-28.275c-4.87,0-9.74,0-14.609,0
		C84.078,169.179,85.766,170.622,87.184,172.01z M67.862,244.113c2.741-0.243,4.861-1.108,7.069-1.885
		c0.776-2.208,1.642-4.328,1.885-7.069c-4.059-0.183-7.207-1.276-10.839-1.885C66.726,236.767,67.611,240.122,67.862,244.113z
		 M88.126,235.159c0.291,5.679,3.004,8.935,8.954,8.954c0.286-2.542,0.969-4.687,0.942-7.54c0.13-0.852,2.256-3.532,0.471-3.299
		C95.363,234.228,91.892,234.841,88.126,235.159z M131.953,282.757c-5.362-0.293-11.909,0.6-16.494-0.472
		c-1.008,5.1,1.359,11.54,0,16.494c-0.711,2.594-5.574,6.046-8.011,8.483c-8.107,8.106-17.126,17.047-24.035,24.977
		c4.87,0,9.74,0,14.609,0c6.151-6.835,14.24-14.239,21.207-21.207c2.113-2.113,6.031-5.472,6.598-7.54
		c0.974-3.551-0.729-6.864,0-10.367c3.613,0,7.226,0,10.839,0c9.7-8.993,18.575-18.812,28.275-27.805c0-4.87,0-9.739,0-14.609
		C153.2,260.647,143.303,272.428,131.953,282.757z M0,265.32c6.86,6.177,14.217,14.217,21.207,21.207
		c2.134,2.134,5.443,6.021,7.541,6.598c3.685,1.01,6.763-1.148,10.368,0.471c0,3.456,0,6.912,0,10.368
		c8.993,9.7,18.812,18.575,27.804,28.275c4.87,0,9.739,0,14.609,0c-0.32-2.057-2.509-3.003-3.77-4.241
		c-9.019-8.852-18.522-18.941-27.805-28.275c0-5.655,0-11.311,0-16.966c-4.921-0.854-11.328,1.139-16.023,0
		c-2.656-0.644-6.5-5.086-8.954-7.54c-5.963-5.963-10.806-10.806-16.494-16.494c-2.725-2.726-4.881-6.304-8.483-7.54
		C0,255.895,0,260.607,0,265.32z M65.977,266.263c3.552-0.688,7-1.483,10.839-1.885c-0.019-5.95-3.275-8.663-8.954-8.954
		C67.679,259.482,66.585,262.63,65.977,266.263z M97.08,255.895c-0.104-0.367-0.395-0.547-0.943-0.471
		c-5.187,0.468-7.785,3.525-8.011,8.954c3.839,0.401,7.287,1.196,10.839,1.885C98.259,262.884,97.529,259.53,97.08,255.895z
		 M234.217,167.298c4.87,0,9.739,0,14.609,0c-1.67,3.538-4.865,6.279-7.54,8.954c-7.756,7.755-16.305,15.618-24.034,24.034
		c0,5.655,0,11.311,0,16.966c-6.251,1.061-11.152-1.466-16.494,0c-2.676,0.733-6.145,5.673-8.483,8.011
		c-5.829,5.829-10.473,10.473-16.022,16.023c-2.687,2.687-5.246,5.998-8.954,7.068c0-4.712,0-9.425,0-14.138
		c4.654-3.957,8.871-8.871,14.138-14.138c3.141-3.141,10.811-12.638,15.08-13.667c3.438-0.828,6.479,0.618,9.896,0
		c0.729-3.503-0.974-6.816,0-10.367c0.603-2.197,4.307-4.778,6.598-7.069C219.979,182.006,229.069,172.598,234.217,167.298z
		 M254.481,172.01c6.648,6.517,13.303,12.832,20.735,20.264c2.208,2.208,6.91,6.193,7.54,8.483
		c1.422,5.162-0.622,10.249-0.472,16.022c6.182,1.965,11.451-1.041,16.966,0.472c2.654,0.728,6.1,5.628,8.482,8.011
		c7.146,7.146,13.284,12.682,20.265,19.793c1.272,1.297,2.202,3.472,4.241,3.771c0-4.87,0-9.739,0-14.609
		c-6.835-6.151-14.239-14.24-21.207-21.207c-2.113-2.113-5.472-6.03-7.54-6.598c-3.551-0.974-6.864,0.729-10.367,0
		c0-3.612,0-7.226,0-10.839c-8.993-9.7-18.812-18.575-27.805-28.275c-4.87,0-9.739,0-14.609,0
		C251.376,169.179,253.064,170.622,254.481,172.01z M235.159,244.113c2.741-0.243,4.861-1.108,7.069-1.885
		c0.776-2.208,1.642-4.328,1.885-7.069c-4.059-0.183-7.206-1.276-10.839-1.885C234.023,236.767,234.909,240.122,235.159,244.113z
		 M255.424,235.159c0.291,5.679,3.004,8.935,8.954,8.954c0.285-2.542,0.969-4.687,0.942-7.54c0.13-0.852,2.256-3.532,0.471-3.299
		C262.661,234.228,259.189,234.841,255.424,235.159z M299.251,282.757c-5.362-0.293-11.909,0.6-16.494-0.472
		c-1.008,5.1,1.359,11.54,0,16.494c-0.712,2.594-5.574,6.046-8.012,8.483c-8.106,8.106-17.126,17.047-24.034,24.977
		c4.87,0,9.739,0,14.609,0c6.151-6.835,14.24-14.239,21.207-21.207c2.113-2.113,6.03-5.472,6.598-7.54
		c0.974-3.551-0.729-6.864,0-10.367c3.612,0,7.226,0,10.839,0c9.7-8.993,18.575-18.812,28.275-27.805c0-4.87,0-9.739,0-14.609
		C320.497,260.647,310.601,272.428,299.251,282.757z M167.298,265.32c6.86,6.177,14.218,14.217,21.207,21.207
		c2.134,2.134,5.443,6.021,7.54,6.598c3.685,1.01,6.763-1.148,10.367,0.471c0,3.456,0,6.912,0,10.368
		c8.993,9.7,18.812,18.575,27.805,28.275c4.87,0,9.739,0,14.609,0c-0.32-2.057-2.51-3.003-3.771-4.241
		c-9.019-8.852-18.521-18.941-27.804-28.275c0-5.655,0-11.311,0-16.966c-4.922-0.854-11.329,1.139-16.023,0
		c-2.655-0.644-6.5-5.086-8.954-7.54c-5.962-5.963-10.806-10.806-16.494-16.494c-2.725-2.726-4.881-6.304-8.482-7.54
		C167.298,255.895,167.298,260.607,167.298,265.32z M233.274,266.263c3.553-0.688,6.999-1.483,10.839-1.885
		c-0.02-5.95-3.275-8.663-8.954-8.954C234.977,259.482,233.883,262.63,233.274,266.263z M264.378,255.895
		c-0.104-0.367-0.395-0.547-0.942-0.471c-5.188,0.468-7.785,3.525-8.012,8.954c3.84,0.401,7.286,1.196,10.839,1.885
		C265.558,262.884,264.827,259.53,264.378,255.895z M401.978,167.298c4.87,0,9.739,0,14.609,0c-1.67,3.538-4.865,6.279-7.54,8.954
		c-7.756,7.755-16.305,15.618-24.034,24.034c0,5.655,0,11.311,0,16.966c-6.251,1.061-11.152-1.466-16.494,0
		c-2.676,0.733-6.145,5.673-8.483,8.011c-5.829,5.829-10.473,10.473-16.022,16.023c-2.687,2.687-5.246,5.998-8.954,7.068
		c0-4.712,0-9.425,0-14.138c4.653-3.957,8.871-8.871,14.138-14.138c3.141-3.141,10.811-12.638,15.08-13.667
		c3.438-0.828,6.479,0.618,9.896,0c0.729-3.503-0.974-6.816,0-10.367c0.603-2.197,4.307-4.778,6.598-7.069
		C387.74,182.006,396.83,172.598,401.978,167.298z M422.242,172.01c6.648,6.517,13.303,12.832,20.735,20.264
		c2.208,2.208,6.91,6.193,7.54,8.483c1.422,5.162-0.622,10.249-0.472,16.022c6.182,1.965,11.451-1.041,16.966,0.472
		c2.654,0.728,6.1,5.628,8.482,8.011c7.146,7.146,13.284,12.682,20.265,19.793c1.272,1.297,2.202,3.472,4.241,3.771
		c0-4.87,0-9.739,0-14.609c-6.835-6.151-14.239-14.24-21.207-21.207c-2.113-2.113-5.472-6.03-7.54-6.598
		c-3.551-0.974-6.864,0.729-10.367,0c0-3.612,0-7.226,0-10.839c-8.993-9.7-18.812-18.575-27.805-28.275c-4.87,0-9.739,0-14.609,0
		C419.137,169.179,420.825,170.622,422.242,172.01z M402.92,244.113c2.741-0.243,4.861-1.108,7.069-1.885
		c0.776-2.208,1.642-4.328,1.885-7.069c-4.059-0.183-7.206-1.276-10.839-1.885C401.784,236.767,402.67,240.122,402.92,244.113z
		 M423.185,235.159c0.291,5.679,3.004,8.935,8.954,8.954c0.285-2.542,0.969-4.687,0.942-7.54c0.13-0.852,2.256-3.532,0.471-3.299
		C430.422,234.228,426.95,234.841,423.185,235.159z M467.012,282.757c-5.362-0.293-11.909,0.6-16.494-0.472
		c-1.008,5.1,1.359,11.54,0,16.494c-0.712,2.594-5.574,6.046-8.012,8.483c-8.106,8.106-17.126,17.047-24.034,24.977
		c4.87,0,9.739,0,14.609,0c6.151-6.835,14.24-14.239,21.207-21.207c2.113-2.113,6.03-5.472,6.598-7.54
		c0.974-3.551-0.729-6.864,0-10.367c3.612,0,7.226,0,10.839,0c9.7-8.993,18.575-18.812,28.275-27.805c0-4.87,0-9.739,0-14.609
		C488.258,260.647,478.361,272.428,467.012,282.757z M335.059,265.32c6.86,6.177,14.218,14.217,21.207,21.207
		c2.134,2.134,5.443,6.021,7.54,6.598c3.685,1.01,6.763-1.148,10.367,0.471c0,3.456,0,6.912,0,10.368
		c8.993,9.7,18.812,18.575,27.805,28.275c4.87,0,9.739,0,14.609,0c-0.32-2.057-2.509-3.003-3.771-4.241
		c-9.019-8.852-18.521-18.941-27.804-28.275c0-5.655,0-11.311,0-16.966c-4.922-0.854-11.329,1.139-16.023,0
		c-2.655-0.644-6.5-5.086-8.954-7.54c-5.962-5.963-10.805-10.806-16.494-16.494c-2.725-2.726-4.881-6.304-8.482-7.54
		C335.059,255.895,335.059,260.607,335.059,265.32z M401.035,266.263c3.553-0.688,6.999-1.483,10.839-1.885
		c-0.02-5.95-3.275-8.663-8.954-8.954C402.737,259.482,401.644,262.63,401.035,266.263z M432.139,255.895
		c-0.104-0.367-0.395-0.547-0.942-0.471c-5.188,0.468-7.785,3.525-8.012,8.954c3.84,0.401,7.286,1.196,10.839,1.885
		C433.318,262.884,432.588,259.53,432.139,255.895z M66.919,335.059c4.87,0,9.739,0,14.609,0c-1.669,3.538-4.866,6.279-7.541,8.954
		c-7.755,7.755-16.305,15.618-24.034,24.034c0,5.655,0,11.311,0,16.966c-6.25,1.061-11.152-1.466-16.494,0
		c-2.676,0.733-6.144,5.673-8.482,8.011c-5.829,5.829-10.473,10.473-16.023,16.023c-2.687,2.687-5.246,5.998-8.954,7.068
		c0-4.712,0-9.425,0-14.138c4.654-3.957,8.871-8.871,14.138-14.138c3.141-3.141,10.811-12.638,15.081-13.667
		c3.437-0.828,6.479,0.618,9.896,0c0.729-3.503-0.974-6.816,0-10.367c0.603-2.197,4.307-4.778,6.598-7.069
		C52.682,349.767,61.771,340.358,66.919,335.059z M87.184,339.771c6.649,6.517,13.303,12.831,20.735,20.264
		c2.208,2.208,6.91,6.193,7.54,8.483c1.422,5.162-0.622,10.249-0.471,16.022c6.182,1.965,11.451-1.041,16.965,0.472
		c2.655,0.728,6.1,5.628,8.483,8.011c7.146,7.146,13.284,12.682,20.264,19.793c1.272,1.297,2.203,3.471,4.241,3.771
		c0-4.87,0-9.739,0-14.609c-6.834-6.151-14.239-14.24-21.207-21.207c-2.113-2.113-5.472-6.03-7.541-6.598
		c-3.551-0.974-6.864,0.729-10.368,0c0-3.612,0-7.226,0-10.839c-8.993-9.7-18.811-18.575-27.804-28.275c-4.87,0-9.74,0-14.609,0
		C84.078,336.939,85.766,338.382,87.184,339.771z M67.862,411.874c2.741-0.243,4.861-1.108,7.069-1.885
		c0.776-2.208,1.642-4.328,1.885-7.069c-4.059-0.183-7.207-1.276-10.839-1.885C66.726,404.527,67.611,407.883,67.862,411.874z
		 M88.126,402.92c0.291,5.679,3.004,8.935,8.954,8.954c0.286-2.542,0.969-4.687,0.942-7.54c0.13-0.852,2.256-3.532,0.471-3.299
		C95.363,401.988,91.892,402.602,88.126,402.92z M131.953,450.518c-5.362-0.293-11.909,0.6-16.494-0.472
		c-1.008,5.1,1.359,11.54,0,16.494c-0.711,2.594-5.574,6.046-8.011,8.483C99.34,483.13,90.322,492.07,83.413,500
		c4.87,0,9.74,0,14.609,0c6.151-6.835,14.24-14.239,21.207-21.207c2.113-2.113,6.031-5.472,6.598-7.54
		c0.974-3.551-0.729-6.864,0-10.367c3.613,0,7.226,0,10.839,0c9.7-8.993,18.575-18.812,28.275-27.805c0-4.87,0-9.739,0-14.609
		C153.2,428.408,143.303,440.188,131.953,450.518z M0,433.081c6.86,6.177,14.217,14.218,21.207,21.207
		c2.134,2.134,5.443,6.022,7.541,6.598c3.685,1.01,6.763-1.148,10.368,0.471c0,3.456,0,6.912,0,10.368
		c8.993,9.7,18.812,18.575,27.804,28.275c4.87,0,9.739,0,14.609,0c-0.32-2.057-2.509-3.003-3.77-4.241
		c-9.019-8.852-18.522-18.941-27.805-28.275c0-5.655,0-11.311,0-16.966c-4.921-0.854-11.328,1.139-16.023,0
		c-2.656-0.644-6.5-5.086-8.954-7.54c-5.963-5.963-10.806-10.806-16.494-16.494c-2.725-2.726-4.881-6.304-8.483-7.54
		C0,423.655,0,428.368,0,433.081z M65.977,434.023c3.552-0.689,7-1.483,10.839-1.885c-0.019-5.95-3.275-8.663-8.954-8.954
		C67.679,427.243,66.585,430.391,65.977,434.023z M97.08,423.655c-0.104-0.367-0.395-0.547-0.943-0.471
		c-5.187,0.468-7.785,3.525-8.011,8.954c3.839,0.401,7.287,1.195,10.839,1.885C98.259,430.645,97.529,427.291,97.08,423.655z
		 M234.217,335.059c4.87,0,9.739,0,14.609,0c-1.67,3.538-4.865,6.279-7.54,8.954c-7.756,7.755-16.305,15.618-24.034,24.034
		c0,5.655,0,11.311,0,16.966c-6.251,1.061-11.152-1.466-16.494,0c-2.676,0.733-6.145,5.673-8.483,8.011
		c-5.829,5.829-10.473,10.473-16.022,16.023c-2.687,2.687-5.246,5.998-8.954,7.068c0-4.712,0-9.425,0-14.138
		c4.654-3.957,8.871-8.871,14.138-14.138c3.141-3.141,10.811-12.638,15.08-13.667c3.438-0.828,6.479,0.618,9.896,0
		c0.729-3.503-0.974-6.816,0-10.367c0.603-2.197,4.307-4.778,6.598-7.069C219.979,349.767,229.069,340.358,234.217,335.059z
		 M254.481,339.771c6.648,6.517,13.303,12.831,20.735,20.264c2.208,2.208,6.91,6.193,7.54,8.483
		c1.422,5.162-0.622,10.249-0.472,16.022c6.182,1.965,11.451-1.041,16.966,0.472c2.654,0.728,6.1,5.628,8.482,8.011
		c7.146,7.146,13.284,12.682,20.265,19.793c1.272,1.297,2.202,3.471,4.241,3.771c0-4.87,0-9.739,0-14.609
		c-6.835-6.151-14.239-14.24-21.207-21.207c-2.113-2.113-5.472-6.03-7.54-6.598c-3.551-0.974-6.864,0.729-10.367,0
		c0-3.612,0-7.226,0-10.839c-8.993-9.7-18.812-18.575-27.805-28.275c-4.87,0-9.739,0-14.609,0
		C251.376,336.939,253.064,338.382,254.481,339.771z M235.159,411.874c2.741-0.243,4.861-1.108,7.069-1.885
		c0.776-2.208,1.642-4.328,1.885-7.069c-4.059-0.183-7.206-1.276-10.839-1.885C234.023,404.527,234.909,407.883,235.159,411.874z
		 M255.424,402.92c0.291,5.679,3.004,8.935,8.954,8.954c0.285-2.542,0.969-4.687,0.942-7.54c0.13-0.852,2.256-3.532,0.471-3.299
		C262.661,401.988,259.189,402.602,255.424,402.92z M299.251,450.518c-5.362-0.293-11.909,0.6-16.494-0.472
		c-1.008,5.1,1.359,11.54,0,16.494c-0.712,2.594-5.574,6.046-8.012,8.483c-8.106,8.106-17.126,17.047-24.034,24.977
		c4.87,0,9.739,0,14.609,0c6.151-6.835,14.24-14.239,21.207-21.207c2.113-2.113,6.03-5.472,6.598-7.54
		c0.974-3.551-0.729-6.864,0-10.367c3.612,0,7.226,0,10.839,0c9.7-8.993,18.575-18.812,28.275-27.805c0-4.87,0-9.739,0-14.609
		C320.497,428.408,310.601,440.188,299.251,450.518z M167.298,433.081c6.86,6.177,14.218,14.218,21.207,21.207
		c2.134,2.134,5.443,6.022,7.54,6.598c3.685,1.01,6.763-1.148,10.367,0.471c0,3.456,0,6.912,0,10.368
		c8.993,9.7,18.812,18.575,27.805,28.275c4.87,0,9.739,0,14.609,0c-0.32-2.057-2.51-3.003-3.771-4.241
		c-9.019-8.852-18.521-18.941-27.804-28.275c0-5.655,0-11.311,0-16.966c-4.922-0.854-11.329,1.139-16.023,0
		c-2.655-0.644-6.5-5.086-8.954-7.54c-5.962-5.963-10.806-10.806-16.494-16.494c-2.725-2.726-4.881-6.304-8.482-7.54
		C167.298,423.655,167.298,428.368,167.298,433.081z M233.274,434.023c3.553-0.689,6.999-1.483,10.839-1.885
		c-0.02-5.95-3.275-8.663-8.954-8.954C234.977,427.243,233.883,430.391,233.274,434.023z M264.378,423.655
		c-0.104-0.367-0.395-0.547-0.942-0.471c-5.188,0.468-7.785,3.525-8.012,8.954c3.84,0.401,7.286,1.195,10.839,1.885
		C265.558,430.645,264.827,427.291,264.378,423.655z M401.978,335.059c4.87,0,9.739,0,14.609,0c-1.67,3.538-4.865,6.279-7.54,8.954
		c-7.756,7.755-16.305,15.618-24.034,24.034c0,5.655,0,11.311,0,16.966c-6.251,1.061-11.152-1.466-16.494,0
		c-2.676,0.733-6.145,5.673-8.483,8.011c-5.829,5.829-10.473,10.473-16.022,16.023c-2.687,2.687-5.246,5.998-8.954,7.068
		c0-4.712,0-9.425,0-14.138c4.653-3.957,8.871-8.871,14.138-14.138c3.141-3.141,10.811-12.638,15.08-13.667
		c3.438-0.828,6.479,0.618,9.896,0c0.729-3.503-0.974-6.816,0-10.367c0.603-2.197,4.307-4.778,6.598-7.069
		C387.74,349.767,396.83,340.358,401.978,335.059z M422.242,339.771c6.648,6.517,13.303,12.831,20.735,20.264
		c2.208,2.208,6.91,6.193,7.54,8.483c1.422,5.162-0.622,10.249-0.472,16.022c6.182,1.965,11.451-1.041,16.966,0.472
		c2.654,0.728,6.1,5.628,8.482,8.011c7.146,7.146,13.284,12.682,20.265,19.793c1.272,1.297,2.202,3.471,4.241,3.771
		c0-4.87,0-9.739,0-14.609c-6.835-6.151-14.239-14.24-21.207-21.207c-2.113-2.113-5.472-6.03-7.54-6.598
		c-3.551-0.974-6.864,0.729-10.367,0c0-3.612,0-7.226,0-10.839c-8.993-9.7-18.812-18.575-27.805-28.275c-4.87,0-9.739,0-14.609,0
		C419.137,336.939,420.825,338.382,422.242,339.771z M402.92,411.874c2.741-0.243,4.861-1.108,7.069-1.885
		c0.776-2.208,1.642-4.328,1.885-7.069c-4.059-0.183-7.206-1.276-10.839-1.885C401.784,404.527,402.67,407.883,402.92,411.874z
		 M423.185,402.92c0.291,5.679,3.004,8.935,8.954,8.954c0.285-2.542,0.969-4.687,0.942-7.54c0.13-0.852,2.256-3.532,0.471-3.299
		C430.422,401.988,426.95,402.602,423.185,402.92z M467.012,450.518c-5.362-0.293-11.909,0.6-16.494-0.472
		c-1.008,5.1,1.359,11.54,0,16.494c-0.712,2.594-5.574,6.046-8.012,8.483c-8.106,8.106-17.126,17.047-24.034,24.977
		c4.87,0,9.739,0,14.609,0c6.151-6.835,14.24-14.239,21.207-21.207c2.113-2.113,6.03-5.472,6.598-7.54
		c0.974-3.551-0.729-6.864,0-10.367c3.612,0,7.226,0,10.839,0c9.7-8.993,18.575-18.812,28.275-27.805c0-4.87,0-9.739,0-14.609
		C488.258,428.408,478.361,440.188,467.012,450.518z M335.059,433.081c6.86,6.177,14.218,14.218,21.207,21.207
		c2.134,2.134,5.443,6.022,7.54,6.598c3.685,1.01,6.763-1.148,10.367,0.471c0,3.456,0,6.912,0,10.368
		c8.993,9.7,18.812,18.575,27.805,28.275c4.87,0,9.739,0,14.609,0c-0.32-2.057-2.509-3.003-3.771-4.241
		c-9.019-8.852-18.521-18.941-27.804-28.275c0-5.655,0-11.311,0-16.966c-4.922-0.854-11.329,1.139-16.023,0
		c-2.655-0.644-6.5-5.086-8.954-7.54c-5.962-5.963-10.805-10.806-16.494-16.494c-2.725-2.726-4.881-6.304-8.482-7.54
		C335.059,423.655,335.059,428.368,335.059,433.081z M401.035,434.023c3.553-0.689,6.999-1.483,10.839-1.885
		c-0.02-5.95-3.275-8.663-8.954-8.954C402.737,427.243,401.644,430.391,401.035,434.023z M432.139,423.655
		c-0.104-0.367-0.395-0.547-0.942-0.471c-5.188,0.468-7.785,3.525-8.012,8.954c3.84,0.401,7.286,1.195,10.839,1.885
		C433.318,430.645,432.588,427.291,432.139,423.655z"></path>
</g>
<g id="B">
	<path class="paintable" fill-rule="evenodd" clip-rule="evenodd" fill="#58595B" d="M48.54,0c6.44,0,12.881,0,19.322,0
		c-6.209,6.895-14.047,14.047-21.678,21.678c-1.976,1.976-6.052,5.559-6.598,7.54c-0.974,3.538,0.731,6.921,0,10.368
		c-3.362,0.622-6.469-0.832-9.896,0C25.053,40.71,17.91,50.423,14.609,53.724C9.125,59.208,4.509,63.523,0,67.862
		C0,61.421,0,54.98,0,48.54C16.376,32.556,32.556,16.376,48.54,0z M118.758,21.678c1.973,1.972,6.051,5.549,6.598,7.54
		c0.974,3.551-0.729,6.864,0,10.368c3.362,0.622,6.469-0.832,9.896,0c4.637,1.125,11.779,10.837,15.081,14.138
		c5.484,5.484,10.1,9.8,14.609,14.138c0-6.441,0-12.881,0-19.322C148.565,32.556,132.385,16.376,116.401,0
		c-6.44,0-12.881,0-19.321,0C103.285,6.891,111.134,14.055,118.758,21.678z M77.758,19.793c-3.964,3.51-7.812,10.227-8.954,15.552
		c2.392,0.278,2.512,2.829,4.712,3.299c0.852-0.719,1.444-1.699,3.299-1.414c4.67,1.771,1.89,10.992,5.655,13.667
		c4.167-2.43,0.654-12.541,6.126-13.667c1.779-0.208,2.212,0.93,3.299,1.414c1.397-1.431,3.263-2.392,4.241-4.242
		C93.641,27.227,85.984,12.51,77.758,19.793z M77.758,66.919c-1.573,2.017-0.572,5.746-1.885,7.541
		c-2.528,3.456-6.169,1.281-9.425,3.77c-1.831,1.928-1.831,6.554,0,8.482c2.997,2.255,6.673,0.784,8.954,3.299
		c2.303,2.539,0.582,7.194,3.77,9.425c1.912,0.442,4.776,0.835,6.598,0c2.981-2.262,1.563-5.876,3.299-8.482
		c2.396-3.598,7.37-1.877,10.368-5.184c0.594-2.063,0.594-4.535,0-6.598c-2.12-2.593-7.231-2.194-9.896-4.241
		c-1.379-2.706-1.336-6.832-3.299-8.954C82.038,64.442,79.619,64.533,77.758,66.919z M81.528,77.287
		c1.716-0.369,6.392,1.833,6.598,4.712c0.153,2.135-3.293,5.991-5.184,6.126C77.279,88.531,74.412,78.816,81.528,77.287z
		 M34.402,68.804c-6.128,2.241-21.213,9.483-15.551,17.437c3.11,4.37,10.27,8.123,16.023,9.896c1.123-1.704,3.01-2.645,3.77-4.712
		c-1.096-0.475-1.52-1.623-1.414-3.299c1.716-4.882,11.918-1.277,13.667-6.126c-3.472-2.969-12.331-0.55-13.667-5.655
		c-0.254-1.825,1.201-1.94,1.414-3.299C37.147,71.714,36.187,69.848,34.402,68.804z M130.068,68.804
		c-0.782,1.574-2.031,2.682-3.299,3.77c-0.237,1.964,1.377,2.079,0.942,4.241c-1.729,4.711-10.963,1.918-13.667,5.655
		c2.507,4.09,12.515,0.68,13.667,6.126c0.305,1.875-1.247,1.895-0.942,3.77c1.332,1.182,2.123,2.903,3.77,3.77
		c7.832-2.379,13.608-6.813,17.437-13.195C144.853,75.383,138.148,71.406,130.068,68.804z M0,116.401
		c16.376,15.984,32.556,32.164,48.54,48.54c6.44,0,12.881,0,19.322,0c-6.206-6.891-14.055-14.055-21.678-21.678
		c-1.972-1.972-6.052-5.549-6.598-7.541c-0.974-3.551,0.729-6.864,0-10.368c-3.417-0.618-6.459,0.829-9.896,0
		c-4.643-1.119-11.779-10.836-15.081-14.138c-5.483-5.484-10.1-9.8-14.609-14.138C0,103.521,0,109.961,0,116.401z M143.264,118.758
		c-1.972,1.973-5.549,6.051-7.541,6.598c-3.551,0.974-6.864-0.729-10.368,0c-0.618,3.417,0.829,6.459,0,9.896
		c-1.119,4.643-10.836,11.779-14.138,15.081c-5.484,5.484-9.8,10.1-14.138,14.609c6.44,0,12.881,0,19.321,0
		c15.984-16.376,32.164-32.556,48.54-48.54c0-6.44,0-12.881,0-19.321C158.05,103.285,150.887,111.134,143.264,118.758z
		 M76.344,127.712c-1.875,0.305-1.895-1.247-3.77-0.942c-0.82,1.693-2.959,2.067-3.77,3.77c2.59,7.621,6.787,13.634,13.195,17.437
		c7.573-3.109,11.621-9.744,14.138-17.908c-1.71-0.803-2.257-2.77-4.241-3.299c-1.544,0.026-1.801,1.34-3.77,0.942
		c-4.69-1.75-1.725-11.157-5.655-13.667C78.58,116.752,81.8,126.57,76.344,127.712z M215.838,0c6.44,0,12.881,0,19.321,0
		c-6.209,6.895-14.047,14.047-21.678,21.678c-1.976,1.976-6.052,5.559-6.598,7.54c-0.975,3.538,0.731,6.921,0,10.368
		c-3.362,0.622-6.469-0.832-9.896,0c-4.637,1.125-11.779,10.837-15.08,14.138c-5.484,5.484-10.1,9.8-14.609,14.138
		c0-6.441,0-12.881,0-19.322C183.674,32.556,199.854,16.376,215.838,0z M286.056,21.678c1.973,1.972,6.052,5.549,6.598,7.54
		c0.974,3.551-0.729,6.864,0,10.368c3.362,0.622,6.469-0.832,9.896,0c4.637,1.125,11.779,10.837,15.08,14.138
		c5.484,5.484,10.101,9.8,14.609,14.138c0-6.441,0-12.881,0-19.322C315.863,32.556,299.684,16.376,283.699,0
		c-6.44,0-12.881,0-19.321,0C270.583,6.891,278.433,14.055,286.056,21.678z M245.056,19.793c-3.964,3.51-7.811,10.227-8.954,15.552
		c2.393,0.278,2.513,2.829,4.713,3.299c0.852-0.719,1.443-1.699,3.299-1.414c4.67,1.771,1.89,10.992,5.655,13.667
		c4.167-2.43,0.654-12.541,6.126-13.667c1.779-0.208,2.213,0.93,3.299,1.414c1.397-1.431,3.264-2.392,4.242-4.242
		C260.938,27.227,253.282,12.51,245.056,19.793z M245.056,66.919c-1.572,2.017-0.572,5.746-1.885,7.541
		c-2.528,3.456-6.169,1.281-9.425,3.77c-1.831,1.928-1.831,6.554,0,8.482c2.995,2.255,6.673,0.784,8.953,3.299
		c2.304,2.539,0.583,7.194,3.771,9.425c1.912,0.442,4.775,0.835,6.598,0c2.981-2.262,1.563-5.876,3.299-8.482
		c2.396-3.598,7.369-1.877,10.368-5.184c0.593-2.063,0.593-4.535,0-6.598c-2.12-2.593-7.231-2.194-9.896-4.241
		c-1.379-2.706-1.337-6.832-3.299-8.954C249.336,64.442,246.917,64.533,245.056,66.919z M248.826,77.287
		c1.717-0.369,6.392,1.833,6.598,4.712c0.152,2.135-3.293,5.991-5.184,6.126C244.577,88.531,241.71,78.816,248.826,77.287z
		 M201.7,68.804c-6.129,2.241-21.214,9.483-15.552,17.437c3.11,4.37,10.27,8.123,16.022,9.896c1.124-1.704,3.011-2.645,3.771-4.712
		c-1.097-0.475-1.52-1.623-1.414-3.299c1.716-4.882,11.918-1.277,13.667-6.126c-3.473-2.969-12.332-0.55-13.667-5.655
		c-0.254-1.825,1.201-1.94,1.414-3.299C204.445,71.714,203.484,69.848,201.7,68.804z M297.366,68.804
		c-0.782,1.574-2.031,2.682-3.299,3.77c-0.237,1.964,1.377,2.079,0.942,4.241c-1.729,4.711-10.964,1.918-13.667,5.655
		c2.508,4.09,12.516,0.68,13.667,6.126c0.305,1.875-1.247,1.895-0.942,3.77c1.332,1.182,2.123,2.903,3.77,3.77
		c7.832-2.379,13.608-6.813,17.437-13.195C312.15,75.383,305.446,71.406,297.366,68.804z M167.298,116.401
		c16.376,15.984,32.556,32.164,48.54,48.54c6.44,0,12.881,0,19.321,0c-6.205-6.891-14.055-14.055-21.678-21.678
		c-1.973-1.972-6.052-5.549-6.598-7.541c-0.974-3.551,0.729-6.864,0-10.368c-3.417-0.618-6.46,0.829-9.896,0
		c-4.643-1.119-11.779-10.836-15.08-14.138c-5.484-5.484-10.1-9.8-14.609-14.138C167.298,103.521,167.298,109.961,167.298,116.401z
		 M310.562,118.758c-1.973,1.973-5.55,6.051-7.54,6.598c-3.552,0.974-6.864-0.729-10.368,0c-0.617,3.417,0.828,6.459,0,9.896
		c-1.119,4.643-10.836,11.779-14.138,15.081c-5.484,5.484-9.8,10.1-14.138,14.609c6.44,0,12.881,0,19.321,0
		c15.984-16.376,32.164-32.556,48.54-48.54c0-6.44,0-12.881,0-19.321C325.348,103.285,318.185,111.134,310.562,118.758z
		 M243.643,127.712c-1.876,0.305-1.895-1.247-3.771-0.942c-0.82,1.693-2.959,2.067-3.771,3.77
		c2.591,7.621,6.788,13.634,13.195,17.437c7.573-3.109,11.621-9.744,14.139-17.908c-1.711-0.803-2.258-2.77-4.242-3.299
		c-1.544,0.026-1.801,1.34-3.77,0.942c-4.69-1.75-1.725-11.157-5.655-13.667C245.878,116.752,249.098,126.57,243.643,127.712z
		 M383.599,0c6.44,0,12.881,0,19.321,0c-6.209,6.895-14.047,14.047-21.678,21.678c-1.976,1.976-6.052,5.559-6.598,7.54
		c-0.975,3.538,0.731,6.921,0,10.368c-3.362,0.622-6.469-0.832-9.896,0c-4.637,1.125-11.779,10.837-15.08,14.138
		c-5.484,5.484-10.101,9.8-14.609,14.138c0-6.441,0-12.881,0-19.322C351.435,32.556,367.614,16.376,383.599,0z M453.816,21.678
		c1.973,1.972,6.052,5.549,6.598,7.54c0.974,3.551-0.729,6.864,0,10.368c3.362,0.622,6.469-0.832,9.896,0
		c4.637,1.125,11.779,10.837,15.08,14.138c5.484,5.484,10.101,9.8,14.609,14.138c0-6.441,0-12.881,0-19.322
		C483.624,32.556,467.443,16.376,451.46,0c-6.44,0-12.881,0-19.321,0C438.344,6.891,446.193,14.055,453.816,21.678z M412.816,19.793
		c-3.964,3.51-7.811,10.227-8.954,15.552c2.393,0.278,2.513,2.829,4.713,3.299c0.852-0.719,1.443-1.699,3.299-1.414
		c4.67,1.771,1.89,10.992,5.655,13.667c4.167-2.43,0.654-12.541,6.126-13.667c1.779-0.208,2.213,0.93,3.299,1.414
		c1.397-1.431,3.264-2.392,4.242-4.242C428.699,27.227,421.043,12.51,412.816,19.793z M412.816,66.919
		c-1.572,2.017-0.572,5.746-1.885,7.541c-2.528,3.456-6.169,1.281-9.425,3.77c-1.831,1.928-1.831,6.554,0,8.482
		c2.995,2.255,6.673,0.784,8.953,3.299c2.304,2.539,0.583,7.194,3.771,9.425c1.912,0.442,4.775,0.835,6.598,0
		c2.981-2.262,1.563-5.876,3.299-8.482c2.396-3.598,7.369-1.877,10.368-5.184c0.593-2.063,0.593-4.535,0-6.598
		c-2.12-2.593-7.231-2.194-9.896-4.241c-1.379-2.706-1.337-6.832-3.299-8.954C417.097,64.442,414.678,64.533,412.816,66.919z
		 M416.587,77.287c1.717-0.369,6.392,1.833,6.598,4.712c0.152,2.135-3.293,5.991-5.184,6.126
		C412.338,88.531,409.471,78.816,416.587,77.287z M369.461,68.804c-6.129,2.241-21.214,9.483-15.552,17.437
		c3.11,4.37,10.27,8.123,16.022,9.896c1.124-1.704,3.011-2.645,3.771-4.712c-1.097-0.475-1.52-1.623-1.414-3.299
		c1.716-4.882,11.918-1.277,13.667-6.126c-3.473-2.969-12.332-0.55-13.667-5.655c-0.254-1.825,1.201-1.94,1.414-3.299
		C372.206,71.714,371.245,69.848,369.461,68.804z M465.127,68.804c-0.782,1.574-2.031,2.682-3.299,3.77
		c-0.237,1.964,1.377,2.079,0.942,4.241c-1.729,4.711-10.964,1.918-13.667,5.655c2.508,4.09,12.516,0.68,13.667,6.126
		c0.305,1.875-1.247,1.895-0.942,3.77c1.332,1.182,2.123,2.903,3.77,3.77c7.832-2.379,13.608-6.813,17.437-13.195
		C479.911,75.383,473.207,71.406,465.127,68.804z M335.059,116.401c16.376,15.984,32.556,32.164,48.54,48.54
		c6.44,0,12.881,0,19.321,0c-6.205-6.891-14.055-14.055-21.678-21.678c-1.973-1.972-6.052-5.549-6.598-7.541
		c-0.974-3.551,0.729-6.864,0-10.368c-3.417-0.618-6.46,0.829-9.896,0c-4.643-1.119-11.779-10.836-15.08-14.138
		c-5.484-5.484-10.101-9.8-14.609-14.138C335.059,103.521,335.059,109.961,335.059,116.401z M478.322,118.758
		c-1.973,1.973-5.55,6.051-7.54,6.598c-3.552,0.974-6.864-0.729-10.368,0c-0.617,3.417,0.828,6.459,0,9.896
		c-1.119,4.643-10.836,11.779-14.138,15.081c-5.484,5.484-9.8,10.1-14.138,14.609c6.44,0,12.881,0,19.321,0
		c15.983-16.376,32.164-32.556,48.54-48.54c0-6.44,0-12.881,0-19.321C493.108,103.285,485.945,111.134,478.322,118.758z
		 M411.403,127.712c-1.876,0.305-1.895-1.247-3.771-0.942c-0.82,1.693-2.959,2.067-3.771,3.77
		c2.591,7.621,6.788,13.634,13.195,17.437c7.573-3.109,11.621-9.744,14.139-17.908c-1.711-0.803-2.257-2.77-4.242-3.299
		c-1.544,0.026-1.801,1.34-3.77,0.942c-4.69-1.75-1.725-11.157-5.655-13.667C413.639,116.752,416.858,126.57,411.403,127.712z
		 M48.54,167.298c6.44,0,12.881,0,19.322,0c-6.209,6.895-14.047,14.047-21.678,21.678c-1.976,1.976-6.052,5.559-6.598,7.54
		c-0.974,3.538,0.731,6.921,0,10.368c-3.362,0.622-6.469-0.831-9.896,0c-4.637,1.125-11.779,10.837-15.081,14.138
		c-5.483,5.484-10.1,9.8-14.609,14.138c0-6.44,0-12.881,0-19.321C16.376,199.854,32.556,183.674,48.54,167.298z M118.758,188.976
		c1.973,1.973,6.051,5.55,6.598,7.54c0.974,3.552-0.729,6.864,0,10.368c3.362,0.622,6.469-0.831,9.896,0
		c4.637,1.125,11.779,10.837,15.081,14.138c5.484,5.484,10.1,9.8,14.609,14.138c0-6.44,0-12.881,0-19.321
		c-16.376-15.984-32.556-32.164-48.54-48.54c-6.44,0-12.881,0-19.321,0C103.285,174.189,111.134,181.353,118.758,188.976z
		 M77.758,187.091c-3.964,3.51-7.812,10.227-8.954,15.552c2.392,0.278,2.512,2.828,4.712,3.299c0.852-0.72,1.444-1.698,3.299-1.414
		c4.67,1.771,1.89,10.992,5.655,13.667c4.167-2.431,0.654-12.541,6.126-13.667c1.779-0.208,2.212,0.93,3.299,1.414
		c1.397-1.431,3.263-2.392,4.241-4.241C93.641,194.524,85.984,179.808,77.758,187.091z M77.758,234.217
		c-1.573,2.017-0.572,5.745-1.885,7.54c-2.528,3.456-6.169,1.281-9.425,3.771c-1.831,1.928-1.831,6.555,0,8.482
		c2.997,2.255,6.673,0.784,8.954,3.299c2.303,2.539,0.582,7.193,3.77,9.426c1.912,0.441,4.776,0.834,6.598,0
		c2.981-2.263,1.563-5.877,3.299-8.483c2.396-3.598,7.37-1.877,10.368-5.184c0.594-2.063,0.594-4.534,0-6.598
		c-2.12-2.593-7.231-2.194-9.896-4.241c-1.379-2.706-1.336-6.833-3.299-8.954C82.038,231.74,79.619,231.83,77.758,234.217z
		 M81.528,244.585c1.716-0.369,6.392,1.834,6.598,4.712c0.153,2.136-3.293,5.991-5.184,6.127
		C77.279,255.829,74.412,246.114,81.528,244.585z M34.402,236.102c-6.128,2.241-21.213,9.483-15.551,17.438
		c3.11,4.369,10.27,8.122,16.023,9.896c1.123-1.705,3.01-2.646,3.77-4.713c-1.096-0.476-1.52-1.622-1.414-3.299
		c1.716-4.882,11.918-1.277,13.667-6.127c-3.472-2.968-12.331-0.549-13.667-5.654c-0.254-1.825,1.201-1.941,1.414-3.299
		C37.147,239.012,36.187,237.146,34.402,236.102z M130.068,236.102c-0.782,1.575-2.031,2.682-3.299,3.771
		c-0.237,1.964,1.377,2.078,0.942,4.241c-1.729,4.712-10.963,1.918-13.667,5.655c2.507,4.09,12.515,0.68,13.667,6.126
		c0.305,1.876-1.247,1.896-0.942,3.771c1.332,1.182,2.123,2.903,3.77,3.771c7.832-2.38,13.608-6.813,17.437-13.195
		C144.853,242.682,138.148,238.703,130.068,236.102z M0,283.699c16.376,15.984,32.556,32.164,48.54,48.54c6.44,0,12.881,0,19.322,0
		c-6.206-6.892-14.055-14.055-21.678-21.678c-1.972-1.973-6.052-5.55-6.598-7.54c-0.974-3.552,0.729-6.864,0-10.368
		c-3.417-0.617-6.459,0.828-9.896,0c-4.643-1.119-11.779-10.836-15.081-14.138c-5.483-5.484-10.1-9.8-14.609-14.138
		C0,270.818,0,277.259,0,283.699z M143.264,286.056c-1.972,1.973-5.549,6.052-7.541,6.598c-3.551,0.974-6.864-0.729-10.368,0
		c-0.618,3.417,0.829,6.459,0,9.896c-1.119,4.643-10.836,11.778-14.138,15.08c-5.484,5.484-9.8,10.101-14.138,14.609
		c6.44,0,12.881,0,19.321,0c15.984-16.376,32.164-32.556,48.54-48.54c0-6.44,0-12.881,0-19.321
		C158.05,270.583,150.887,278.433,143.264,286.056z M76.344,295.01c-1.875,0.305-1.895-1.247-3.77-0.942
		c-0.82,1.692-2.959,2.067-3.77,3.77c2.59,7.621,6.787,13.635,13.195,17.437c7.573-3.108,11.621-9.743,14.138-17.907
		c-1.71-0.804-2.257-2.77-4.241-3.299c-1.544,0.026-1.801,1.34-3.77,0.942c-4.69-1.75-1.725-11.156-5.655-13.667
		C78.58,284.05,81.8,293.868,76.344,295.01z M215.838,167.298c6.44,0,12.881,0,19.321,0c-6.209,6.895-14.047,14.047-21.678,21.678
		c-1.976,1.976-6.052,5.559-6.598,7.54c-0.975,3.538,0.731,6.921,0,10.368c-3.362,0.622-6.469-0.831-9.896,0
		c-4.637,1.125-11.779,10.837-15.08,14.138c-5.484,5.484-10.1,9.8-14.609,14.138c0-6.44,0-12.881,0-19.321
		C183.674,199.854,199.854,183.674,215.838,167.298z M286.056,188.976c1.973,1.973,6.052,5.55,6.598,7.54
		c0.974,3.552-0.729,6.864,0,10.368c3.362,0.622,6.469-0.831,9.896,0c4.637,1.125,11.779,10.837,15.08,14.138
		c5.484,5.484,10.101,9.8,14.609,14.138c0-6.44,0-12.881,0-19.321c-16.376-15.984-32.556-32.164-48.54-48.54
		c-6.44,0-12.881,0-19.321,0C270.583,174.189,278.433,181.353,286.056,188.976z M245.056,187.091
		c-3.964,3.51-7.811,10.227-8.954,15.552c2.393,0.278,2.513,2.828,4.713,3.299c0.852-0.72,1.443-1.698,3.299-1.414
		c4.67,1.771,1.89,10.992,5.655,13.667c4.167-2.431,0.654-12.541,6.126-13.667c1.779-0.208,2.213,0.93,3.299,1.414
		c1.397-1.431,3.264-2.392,4.242-4.241C260.938,194.524,253.282,179.808,245.056,187.091z M245.056,234.217
		c-1.572,2.017-0.572,5.745-1.885,7.54c-2.528,3.456-6.169,1.281-9.425,3.771c-1.831,1.928-1.831,6.555,0,8.482
		c2.995,2.255,6.673,0.784,8.953,3.299c2.304,2.539,0.583,7.193,3.771,9.426c1.912,0.441,4.775,0.834,6.598,0
		c2.981-2.263,1.563-5.877,3.299-8.483c2.396-3.598,7.369-1.877,10.368-5.184c0.593-2.063,0.593-4.534,0-6.598
		c-2.12-2.593-7.231-2.194-9.896-4.241c-1.379-2.706-1.337-6.833-3.299-8.954C249.336,231.74,246.917,231.83,245.056,234.217z
		 M248.826,244.585c1.717-0.369,6.392,1.834,6.598,4.712c0.152,2.136-3.293,5.991-5.184,6.127
		C244.577,255.829,241.71,246.114,248.826,244.585z M201.7,236.102c-6.129,2.241-21.214,9.483-15.552,17.438
		c3.11,4.369,10.27,8.122,16.022,9.896c1.124-1.705,3.011-2.646,3.771-4.713c-1.097-0.476-1.52-1.622-1.414-3.299
		c1.716-4.882,11.918-1.277,13.667-6.127c-3.473-2.968-12.332-0.549-13.667-5.654c-0.254-1.825,1.201-1.941,1.414-3.299
		C204.445,239.012,203.484,237.146,201.7,236.102z M297.366,236.102c-0.782,1.575-2.031,2.682-3.299,3.771
		c-0.237,1.964,1.377,2.078,0.942,4.241c-1.729,4.712-10.964,1.918-13.667,5.655c2.508,4.09,12.516,0.68,13.667,6.126
		c0.305,1.876-1.247,1.896-0.942,3.771c1.332,1.182,2.123,2.903,3.77,3.771c7.832-2.38,13.608-6.813,17.437-13.195
		C312.15,242.682,305.446,238.703,297.366,236.102z M167.298,283.699c16.376,15.984,32.556,32.164,48.54,48.54
		c6.44,0,12.881,0,19.321,0c-6.205-6.892-14.055-14.055-21.678-21.678c-1.973-1.973-6.052-5.55-6.598-7.54
		c-0.974-3.552,0.729-6.864,0-10.368c-3.417-0.617-6.46,0.828-9.896,0c-4.643-1.119-11.779-10.836-15.08-14.138
		c-5.484-5.484-10.1-9.8-14.609-14.138C167.298,270.818,167.298,277.259,167.298,283.699z M310.562,286.056
		c-1.973,1.973-5.55,6.052-7.54,6.598c-3.552,0.974-6.864-0.729-10.368,0c-0.617,3.417,0.828,6.459,0,9.896
		c-1.119,4.643-10.836,11.778-14.138,15.08c-5.484,5.484-9.8,10.101-14.138,14.609c6.44,0,12.881,0,19.321,0
		c15.984-16.376,32.164-32.556,48.54-48.54c0-6.44,0-12.881,0-19.321C325.348,270.583,318.185,278.433,310.562,286.056z
		 M243.643,295.01c-1.876,0.305-1.895-1.247-3.771-0.942c-0.82,1.692-2.959,2.067-3.771,3.77
		c2.591,7.621,6.788,13.635,13.195,17.437c7.573-3.108,11.621-9.743,14.139-17.907c-1.711-0.804-2.258-2.77-4.242-3.299
		c-1.544,0.026-1.801,1.34-3.77,0.942c-4.69-1.75-1.725-11.156-5.655-13.667C245.878,284.05,249.098,293.868,243.643,295.01z
		 M383.599,167.298c6.44,0,12.881,0,19.321,0c-6.209,6.895-14.047,14.047-21.678,21.678c-1.976,1.976-6.052,5.559-6.598,7.54
		c-0.975,3.538,0.731,6.921,0,10.368c-3.362,0.622-6.469-0.831-9.896,0c-4.637,1.125-11.779,10.837-15.08,14.138
		c-5.484,5.484-10.101,9.8-14.609,14.138c0-6.44,0-12.881,0-19.321C351.435,199.854,367.614,183.674,383.599,167.298z
		 M453.816,188.976c1.973,1.973,6.052,5.55,6.598,7.54c0.974,3.552-0.729,6.864,0,10.368c3.362,0.622,6.469-0.831,9.896,0
		c4.637,1.125,11.779,10.837,15.08,14.138c5.484,5.484,10.101,9.8,14.609,14.138c0-6.44,0-12.881,0-19.321
		c-16.376-15.984-32.557-32.164-48.54-48.54c-6.44,0-12.881,0-19.321,0C438.344,174.189,446.193,181.353,453.816,188.976z
		 M412.816,187.091c-3.964,3.51-7.811,10.227-8.954,15.552c2.393,0.278,2.513,2.828,4.713,3.299c0.852-0.72,1.443-1.698,3.299-1.414
		c4.67,1.771,1.89,10.992,5.655,13.667c4.167-2.431,0.654-12.541,6.126-13.667c1.779-0.208,2.213,0.93,3.299,1.414
		c1.397-1.431,3.264-2.392,4.242-4.241C428.699,194.524,421.043,179.808,412.816,187.091z M412.816,234.217
		c-1.572,2.017-0.572,5.745-1.885,7.54c-2.528,3.456-6.169,1.281-9.425,3.771c-1.831,1.928-1.831,6.555,0,8.482
		c2.995,2.255,6.673,0.784,8.953,3.299c2.304,2.539,0.583,7.193,3.771,9.426c1.912,0.441,4.775,0.834,6.598,0
		c2.981-2.263,1.563-5.877,3.299-8.483c2.396-3.598,7.369-1.877,10.368-5.184c0.593-2.063,0.593-4.534,0-6.598
		c-2.12-2.593-7.231-2.194-9.896-4.241c-1.379-2.706-1.337-6.833-3.299-8.954C417.097,231.74,414.678,231.83,412.816,234.217z
		 M416.587,244.585c1.717-0.369,6.392,1.834,6.598,4.712c0.152,2.136-3.293,5.991-5.184,6.127
		C412.338,255.829,409.471,246.114,416.587,244.585z M369.461,236.102c-6.129,2.241-21.214,9.483-15.552,17.438
		c3.11,4.369,10.27,8.122,16.022,9.896c1.124-1.705,3.011-2.646,3.771-4.713c-1.097-0.476-1.52-1.622-1.414-3.299
		c1.716-4.882,11.918-1.277,13.667-6.127c-3.473-2.968-12.332-0.549-13.667-5.654c-0.254-1.825,1.201-1.941,1.414-3.299
		C372.206,239.012,371.245,237.146,369.461,236.102z M465.127,236.102c-0.782,1.575-2.031,2.682-3.299,3.771
		c-0.237,1.964,1.377,2.078,0.942,4.241c-1.729,4.712-10.964,1.918-13.667,5.655c2.508,4.09,12.516,0.68,13.667,6.126
		c0.305,1.876-1.247,1.896-0.942,3.771c1.332,1.182,2.123,2.903,3.77,3.771c7.832-2.38,13.608-6.813,17.437-13.195
		C479.911,242.682,473.207,238.703,465.127,236.102z M335.059,283.699c16.376,15.984,32.556,32.164,48.54,48.54
		c6.44,0,12.881,0,19.321,0c-6.205-6.892-14.055-14.055-21.678-21.678c-1.973-1.973-6.052-5.55-6.598-7.54
		c-0.974-3.552,0.729-6.864,0-10.368c-3.417-0.617-6.46,0.828-9.896,0c-4.643-1.119-11.779-10.836-15.08-14.138
		c-5.484-5.484-10.101-9.8-14.609-14.138C335.059,270.818,335.059,277.259,335.059,283.699z M478.322,286.056
		c-1.973,1.973-5.55,6.052-7.54,6.598c-3.552,0.974-6.864-0.729-10.368,0c-0.617,3.417,0.828,6.459,0,9.896
		c-1.119,4.643-10.836,11.778-14.138,15.08c-5.484,5.484-9.8,10.101-14.138,14.609c6.44,0,12.881,0,19.321,0
		c15.983-16.376,32.164-32.556,48.54-48.54c0-6.44,0-12.881,0-19.321C493.108,270.583,485.945,278.433,478.322,286.056z
		 M411.403,295.01c-1.876,0.305-1.895-1.247-3.771-0.942c-0.82,1.692-2.959,2.067-3.771,3.77
		c2.591,7.621,6.788,13.635,13.195,17.437c7.573-3.108,11.621-9.743,14.139-17.907c-1.711-0.804-2.257-2.77-4.242-3.299
		c-1.544,0.026-1.801,1.34-3.77,0.942c-4.69-1.75-1.725-11.156-5.655-13.667C413.639,284.05,416.858,293.868,411.403,295.01z
		 M48.54,335.059c6.44,0,12.881,0,19.322,0c-6.209,6.895-14.047,14.047-21.678,21.678c-1.976,1.976-6.052,5.559-6.598,7.54
		c-0.974,3.538,0.731,6.921,0,10.368c-3.362,0.622-6.469-0.831-9.896,0c-4.637,1.125-11.779,10.837-15.081,14.138
		c-5.483,5.484-10.1,9.8-14.609,14.138c0-6.44,0-12.881,0-19.321C16.376,367.614,32.556,351.435,48.54,335.059z M118.758,356.736
		c1.973,1.973,6.051,5.55,6.598,7.54c0.974,3.552-0.729,6.864,0,10.368c3.362,0.622,6.469-0.831,9.896,0
		c4.637,1.125,11.779,10.837,15.081,14.138c5.484,5.484,10.1,9.8,14.609,14.138c0-6.44,0-12.881,0-19.321
		c-16.376-15.984-32.556-32.164-48.54-48.54c-6.44,0-12.881,0-19.321,0C103.285,341.95,111.134,349.113,118.758,356.736z
		 M77.758,354.852c-3.964,3.51-7.812,10.227-8.954,15.552c2.392,0.278,2.512,2.828,4.712,3.299c0.852-0.72,1.444-1.698,3.299-1.414
		c4.67,1.771,1.89,10.992,5.655,13.667c4.167-2.431,0.654-12.541,6.126-13.667c1.779-0.208,2.212,0.93,3.299,1.414
		c1.397-1.431,3.263-2.392,4.241-4.241C93.641,362.285,85.984,347.568,77.758,354.852z M77.758,401.978
		c-1.573,2.017-0.572,5.745-1.885,7.54c-2.528,3.456-6.169,1.281-9.425,3.771c-1.831,1.928-1.831,6.555,0,8.482
		c2.997,2.255,6.673,0.784,8.954,3.299c2.303,2.539,0.582,7.193,3.77,9.426c1.912,0.441,4.776,0.834,6.598,0
		c2.981-2.263,1.563-5.877,3.299-8.483c2.396-3.598,7.37-1.877,10.368-5.184c0.594-2.063,0.594-4.534,0-6.598
		c-2.12-2.593-7.231-2.194-9.896-4.241c-1.379-2.706-1.336-6.833-3.299-8.954C82.038,399.501,79.619,399.591,77.758,401.978z
		 M81.528,412.346c1.716-0.369,6.392,1.834,6.598,4.712c0.153,2.136-3.293,5.991-5.184,6.127
		C77.279,423.59,74.412,413.875,81.528,412.346z M34.402,403.862c-6.128,2.241-21.213,9.483-15.551,17.438
		c3.11,4.369,10.27,8.122,16.023,9.896c1.123-1.705,3.01-2.646,3.77-4.713c-1.096-0.476-1.52-1.622-1.414-3.299
		c1.716-4.882,11.918-1.277,13.667-6.127c-3.472-2.968-12.331-0.549-13.667-5.654c-0.254-1.825,1.201-1.941,1.414-3.299
		C37.147,406.772,36.187,404.906,34.402,403.862z M130.068,403.862c-0.782,1.575-2.031,2.682-3.299,3.771
		c-0.237,1.964,1.377,2.078,0.942,4.241c-1.729,4.712-10.963,1.918-13.667,5.655c2.507,4.09,12.515,0.68,13.667,6.126
		c0.305,1.876-1.247,1.896-0.942,3.771c1.332,1.182,2.123,2.903,3.77,3.771c7.832-2.38,13.608-6.813,17.437-13.195
		C144.853,410.442,138.148,406.464,130.068,403.862z M0,451.46c16.376,15.983,32.556,32.164,48.54,48.54c6.44,0,12.881,0,19.322,0
		c-6.206-6.892-14.055-14.055-21.678-21.678c-1.972-1.973-6.052-5.55-6.598-7.54c-0.974-3.552,0.729-6.864,0-10.368
		c-3.417-0.617-6.459,0.828-9.896,0c-4.643-1.119-11.779-10.836-15.081-14.138c-5.483-5.484-10.1-9.8-14.609-14.138
		C0,438.579,0,445.02,0,451.46z M143.264,453.816c-1.972,1.973-5.549,6.052-7.541,6.598c-3.551,0.974-6.864-0.729-10.368,0
		c-0.618,3.417,0.829,6.459,0,9.896c-1.119,4.643-10.836,11.778-14.138,15.08c-5.484,5.484-9.8,10.101-14.138,14.609
		c6.44,0,12.881,0,19.321,0c15.984-16.376,32.164-32.557,48.54-48.54c0-6.44,0-12.881,0-19.321
		C158.05,438.344,150.887,446.193,143.264,453.816z M76.344,462.771c-1.875,0.305-1.895-1.247-3.77-0.942
		c-0.82,1.692-2.959,2.067-3.77,3.77c2.59,7.621,6.787,13.635,13.195,17.437c7.573-3.108,11.621-9.743,14.138-17.907
		c-1.71-0.804-2.257-2.77-4.241-3.299c-1.544,0.026-1.801,1.34-3.77,0.942c-4.69-1.75-1.725-11.156-5.655-13.667
		C78.58,451.811,81.8,461.629,76.344,462.771z M215.838,335.059c6.44,0,12.881,0,19.321,0c-6.209,6.895-14.047,14.047-21.678,21.678
		c-1.976,1.976-6.052,5.559-6.598,7.54c-0.975,3.538,0.731,6.921,0,10.368c-3.362,0.622-6.469-0.831-9.896,0
		c-4.637,1.125-11.779,10.837-15.08,14.138c-5.484,5.484-10.1,9.8-14.609,14.138c0-6.44,0-12.881,0-19.321
		C183.674,367.614,199.854,351.435,215.838,335.059z M286.056,356.736c1.973,1.973,6.052,5.55,6.598,7.54
		c0.974,3.552-0.729,6.864,0,10.368c3.362,0.622,6.469-0.831,9.896,0c4.637,1.125,11.779,10.837,15.08,14.138
		c5.484,5.484,10.101,9.8,14.609,14.138c0-6.44,0-12.881,0-19.321c-16.376-15.984-32.556-32.164-48.54-48.54
		c-6.44,0-12.881,0-19.321,0C270.583,341.95,278.433,349.113,286.056,356.736z M245.056,354.852
		c-3.964,3.51-7.811,10.227-8.954,15.552c2.393,0.278,2.513,2.828,4.713,3.299c0.852-0.72,1.443-1.698,3.299-1.414
		c4.67,1.771,1.89,10.992,5.655,13.667c4.167-2.431,0.654-12.541,6.126-13.667c1.779-0.208,2.213,0.93,3.299,1.414
		c1.397-1.431,3.264-2.392,4.242-4.241C260.938,362.285,253.282,347.568,245.056,354.852z M245.056,401.978
		c-1.572,2.017-0.572,5.745-1.885,7.54c-2.528,3.456-6.169,1.281-9.425,3.771c-1.831,1.928-1.831,6.555,0,8.482
		c2.995,2.255,6.673,0.784,8.953,3.299c2.304,2.539,0.583,7.193,3.771,9.426c1.912,0.441,4.775,0.834,6.598,0
		c2.981-2.263,1.563-5.877,3.299-8.483c2.396-3.598,7.369-1.877,10.368-5.184c0.593-2.063,0.593-4.534,0-6.598
		c-2.12-2.593-7.231-2.194-9.896-4.241c-1.379-2.706-1.337-6.833-3.299-8.954C249.336,399.501,246.917,399.591,245.056,401.978z
		 M248.826,412.346c1.717-0.369,6.392,1.834,6.598,4.712c0.152,2.136-3.293,5.991-5.184,6.127
		C244.577,423.59,241.71,413.875,248.826,412.346z M201.7,403.862c-6.129,2.241-21.214,9.483-15.552,17.438
		c3.11,4.369,10.27,8.122,16.022,9.896c1.124-1.705,3.011-2.646,3.771-4.713c-1.097-0.476-1.52-1.622-1.414-3.299
		c1.716-4.882,11.918-1.277,13.667-6.127c-3.473-2.968-12.332-0.549-13.667-5.654c-0.254-1.825,1.201-1.941,1.414-3.299
		C204.445,406.772,203.484,404.906,201.7,403.862z M297.366,403.862c-0.782,1.575-2.031,2.682-3.299,3.771
		c-0.237,1.964,1.377,2.078,0.942,4.241c-1.729,4.712-10.964,1.918-13.667,5.655c2.508,4.09,12.516,0.68,13.667,6.126
		c0.305,1.876-1.247,1.896-0.942,3.771c1.332,1.182,2.123,2.903,3.77,3.771c7.832-2.38,13.608-6.813,17.437-13.195
		C312.15,410.442,305.446,406.464,297.366,403.862z M167.298,451.46c16.376,15.983,32.556,32.164,48.54,48.54
		c6.44,0,12.881,0,19.321,0c-6.205-6.892-14.055-14.055-21.678-21.678c-1.973-1.973-6.052-5.55-6.598-7.54
		c-0.974-3.552,0.729-6.864,0-10.368c-3.417-0.617-6.46,0.828-9.896,0c-4.643-1.119-11.779-10.836-15.08-14.138
		c-5.484-5.484-10.1-9.8-14.609-14.138C167.298,438.579,167.298,445.02,167.298,451.46z M310.562,453.816
		c-1.973,1.973-5.55,6.052-7.54,6.598c-3.552,0.974-6.864-0.729-10.368,0c-0.617,3.417,0.828,6.459,0,9.896
		c-1.119,4.643-10.836,11.778-14.138,15.08c-5.484,5.484-9.8,10.101-14.138,14.609c6.44,0,12.881,0,19.321,0
		c15.984-16.376,32.164-32.557,48.54-48.54c0-6.44,0-12.881,0-19.321C325.348,438.344,318.185,446.193,310.562,453.816z
		 M243.643,462.771c-1.876,0.305-1.895-1.247-3.771-0.942c-0.82,1.692-2.959,2.067-3.771,3.77
		c2.591,7.621,6.788,13.635,13.195,17.437c7.573-3.108,11.621-9.743,14.139-17.907c-1.711-0.804-2.258-2.77-4.242-3.299
		c-1.544,0.026-1.801,1.34-3.77,0.942c-4.69-1.75-1.725-11.156-5.655-13.667C245.878,451.811,249.098,461.629,243.643,462.771z
		 M383.599,335.059c6.44,0,12.881,0,19.321,0c-6.209,6.895-14.047,14.047-21.678,21.678c-1.976,1.976-6.052,5.559-6.598,7.54
		c-0.975,3.538,0.731,6.921,0,10.368c-3.362,0.622-6.469-0.831-9.896,0c-4.637,1.125-11.779,10.837-15.08,14.138
		c-5.484,5.484-10.101,9.8-14.609,14.138c0-6.44,0-12.881,0-19.321C351.435,367.614,367.614,351.435,383.599,335.059z
		 M453.816,356.736c1.973,1.973,6.052,5.55,6.598,7.54c0.974,3.552-0.729,6.864,0,10.368c3.362,0.622,6.469-0.831,9.896,0
		c4.637,1.125,11.779,10.837,15.08,14.138c5.484,5.484,10.101,9.8,14.609,14.138c0-6.44,0-12.881,0-19.321
		c-16.376-15.984-32.557-32.164-48.54-48.54c-6.44,0-12.881,0-19.321,0C438.344,341.95,446.193,349.113,453.816,356.736z
		 M412.816,354.852c-3.964,3.51-7.811,10.227-8.954,15.552c2.393,0.278,2.513,2.828,4.713,3.299c0.852-0.72,1.443-1.698,3.299-1.414
		c4.67,1.771,1.89,10.992,5.655,13.667c4.167-2.431,0.654-12.541,6.126-13.667c1.779-0.208,2.213,0.93,3.299,1.414
		c1.397-1.431,3.264-2.392,4.242-4.241C428.699,362.285,421.043,347.568,412.816,354.852z M412.816,401.978
		c-1.572,2.017-0.572,5.745-1.885,7.54c-2.528,3.456-6.169,1.281-9.425,3.771c-1.831,1.928-1.831,6.555,0,8.482
		c2.995,2.255,6.673,0.784,8.953,3.299c2.304,2.539,0.583,7.193,3.771,9.426c1.912,0.441,4.775,0.834,6.598,0
		c2.981-2.263,1.563-5.877,3.299-8.483c2.396-3.598,7.369-1.877,10.368-5.184c0.593-2.063,0.593-4.534,0-6.598
		c-2.12-2.593-7.231-2.194-9.896-4.241c-1.379-2.706-1.337-6.833-3.299-8.954C417.097,399.501,414.678,399.591,412.816,401.978z
		 M416.587,412.346c1.717-0.369,6.392,1.834,6.598,4.712c0.152,2.136-3.293,5.991-5.184,6.127
		C412.338,423.59,409.471,413.875,416.587,412.346z M369.461,403.862c-6.129,2.241-21.214,9.483-15.552,17.438
		c3.11,4.369,10.27,8.122,16.022,9.896c1.124-1.705,3.011-2.646,3.771-4.713c-1.097-0.476-1.52-1.622-1.414-3.299
		c1.716-4.882,11.918-1.277,13.667-6.127c-3.473-2.968-12.332-0.549-13.667-5.654c-0.254-1.825,1.201-1.941,1.414-3.299
		C372.206,406.772,371.245,404.906,369.461,403.862z M465.127,403.862c-0.782,1.575-2.031,2.682-3.299,3.771
		c-0.237,1.964,1.377,2.078,0.942,4.241c-1.729,4.712-10.964,1.918-13.667,5.655c2.508,4.09,12.516,0.68,13.667,6.126
		c0.305,1.876-1.247,1.896-0.942,3.771c1.332,1.182,2.123,2.903,3.77,3.771c7.832-2.38,13.608-6.813,17.437-13.195
		C479.911,410.442,473.207,406.464,465.127,403.862z M335.059,451.46c16.376,15.983,32.556,32.164,48.54,48.54
		c6.44,0,12.881,0,19.321,0c-6.205-6.892-14.055-14.055-21.678-21.678c-1.973-1.973-6.052-5.55-6.598-7.54
		c-0.974-3.552,0.729-6.864,0-10.368c-3.417-0.617-6.46,0.828-9.896,0c-4.643-1.119-11.779-10.836-15.08-14.138
		c-5.484-5.484-10.101-9.8-14.609-14.138C335.059,438.579,335.059,445.02,335.059,451.46z M478.322,453.816
		c-1.973,1.973-5.55,6.052-7.54,6.598c-3.552,0.974-6.864-0.729-10.368,0c-0.617,3.417,0.828,6.459,0,9.896
		c-1.119,4.643-10.836,11.778-14.138,15.08c-5.484,5.484-9.8,10.101-14.138,14.609c6.44,0,12.881,0,19.321,0
		c15.983-16.376,32.164-32.557,48.54-48.54c0-6.44,0-12.881,0-19.321C493.108,438.344,485.945,446.193,478.322,453.816z
		 M411.403,462.771c-1.876,0.305-1.895-1.247-3.771-0.942c-0.82,1.692-2.959,2.067-3.771,3.77
		c2.591,7.621,6.788,13.635,13.195,17.437c7.573-3.108,11.621-9.743,14.139-17.907c-1.711-0.804-2.257-2.77-4.242-3.299
		c-1.544,0.026-1.801,1.34-3.77,0.942c-4.69-1.75-1.725-11.156-5.655-13.667C413.639,451.811,416.858,461.629,411.403,462.771z"></path>
</g>
</svg>