<svg version="1.1" xmlns="http://www.w3.org/2000/svg" xmlns:xlink="http://www.w3.org/1999/xlink" x="0px" y="0px" width="500px" height="500px" viewBox="0 0 500 500" enable-background="new 0 0 500 500" xml:space="preserve">
<g id="D">
	<path class="paintable" fill-rule="evenodd" clip-rule="evenodd" fill="#D1D3D4" d="M24.342,0c35.745,0,71.491,0,107.237,0
		c-2.364,6.48-10.071,9.128-19.079,7.895c3.315,3.835,7.194,8.782,5.921,16.119c-11.379-0.801-18.21-5.857-24.342-12.5
		c-1.542-1.67-3.7-6.036-6.579-5.921c-1.683,0.067-3.709,2.057-3.29,4.605c0.478,2.893,5.286,4.936,7.237,6.908
		c5.434,5.491,10.239,13.313,10.526,22.697c-3.886,0.502-7.548-0.151-10.526-1.645c-2.366-1.186-3.794-4.08-5.592-3.618
		c1.807,7.281-2.931,18.479-7.895,18.421c-5.216-0.062-9.686-12.12-7.895-19.079c-3.595,3.306-9.446,7.519-16.119,5.592
		c0.337-10.47,6.289-17.789,12.5-23.684c1.511-1.434,5.655-4.111,5.592-6.579c-0.046-1.822-2.297-3.531-3.29-3.619
		c-2.968-0.262-5.103,3.992-6.579,5.592C55.707,18.189,48.954,23.247,37.5,24.014c-0.58-3.863,0.161-7.566,1.645-10.526
		c1.169-2.333,4.086-3.809,3.619-5.592C34.035,9.124,26.771,6.157,24.342,0z M0,131.579c6.466-2.377,9.111-10.088,7.895-19.079
		c3.788,3.239,8.635,7.142,15.79,5.921c-0.063-10.807-5.328-18.027-12.171-24.342c-1.51-1.394-5.848-3.672-5.921-6.25
		c-0.05-1.74,1.58-3.884,4.276-3.618c3.148,0.31,4.749,4.688,6.579,6.579c5.417,5.594,13.56,10.832,23.026,11.184
		c2.262-6.675-3.205-12.705-5.263-16.119c6.77,1.822,18.532-2.555,18.75-7.565c0.231-5.305-11.44-10.017-19.079-8.224
		c3.385-3.814,7.021-8.89,5.921-16.118c-10.561,0.239-17.797,5.95-24.013,12.5c-1.394,1.469-4.142,5.65-6.579,5.592
		c-1.74-0.042-3.524-2.229-3.618-3.29c-0.244-2.757,4.078-5.472,5.592-6.908c6.527-6.195,12.203-12.509,12.829-24.013
		c-6.702-2.332-12.707,3.232-16.119,5.263c1.24-8.875-1.651-16.28-7.895-18.75C0,60.088,0,95.833,0,131.579z M132.566,85.198
		c-15.68,0-31.36,0-47.04,0c-0.767,15.021-0.11,31.469-0.329,47.04c-12.051,6.041-21.052,15.132-22.04,32.236
		c13.925,0,27.851,0,41.776,0c1.056-8.873,9.66-13.222,18.75-13.158c4.671,0.033,10.497,2.972,11.513-1.315
		c0.931-3.926-4.952-8.244-7.566-9.869c-6.251-3.887-14.234-4.463-21.052-3.29c-0.239-6.27,3.136-8.925,7.237-10.855
		c-5.379-2.187-7.914-10.783-4.276-16.447c5.943-3.865,14.09-0.681,16.776,4.276c1.219-4.496,5.243-7.898,10.855-6.908
		c-1.786,7.503-0.79,14.993,2.96,21.053c1.466,2.367,6.435,8.42,10.198,7.237c3.837-1.208,0.956-7.47,0.987-11.842
		c0.066-9.351,4.631-17.37,13.158-18.421c0-13.926,0-27.852,0-41.776C147.571,64.238,138.114,72.763,132.566,85.198z
		 M332.237,24.342c0,35.745,0,71.491,0,107.237c-6.48-2.364-9.129-10.071-7.896-19.079c-3.835,3.315-8.782,7.194-16.118,5.921
		c0.801-11.379,5.856-18.21,12.5-24.342c1.671-1.542,6.035-3.7,5.921-6.579c-0.066-1.683-2.057-3.709-4.605-3.29
		c-2.894,0.478-4.936,5.286-6.907,7.237c-5.492,5.434-13.313,10.239-22.697,10.526c-0.503-3.886,0.151-7.548,1.645-10.526
		c1.186-2.366,4.079-3.794,3.618-5.592c-7.281,1.807-18.48-2.931-18.421-7.895c0.062-5.216,12.119-9.686,19.079-7.895
		c-3.307-3.595-7.519-9.446-5.593-16.119c10.471,0.337,17.789,6.289,23.685,12.5c1.435,1.511,4.11,5.655,6.579,5.592
		c1.822-0.046,3.531-2.297,3.618-3.29c0.263-2.968-3.992-5.103-5.592-6.579c-7.006-6.464-12.063-13.217-12.829-24.671
		c3.862-0.58,7.565,0.161,10.526,1.645c2.333,1.169,3.809,4.086,5.592,3.619C323.113,34.035,326.081,26.771,332.237,24.342z
		 M200.658,0c2.377,6.466,10.088,9.111,19.079,7.895c-3.239,3.788-7.143,8.635-5.921,15.79c10.806-0.063,18.026-5.328,24.342-12.171
		c1.393-1.51,3.672-5.848,6.25-5.921c1.74-0.05,3.885,1.58,3.619,4.276c-0.311,3.148-4.689,4.749-6.579,6.579
		c-5.595,5.417-10.833,13.56-11.185,23.026c6.675,2.262,12.704-3.205,16.119-5.263c-1.822,6.77,2.555,18.532,7.566,18.75
		c5.305,0.231,10.017-11.44,8.224-19.079c3.813,3.385,8.891,7.021,16.118,5.921c-0.238-10.561-5.95-17.797-12.5-24.013
		c-1.469-1.394-5.649-4.142-5.592-6.579c0.041-1.74,2.229-3.524,3.29-3.618c2.756-0.244,5.471,4.078,6.907,5.592
		c6.195,6.527,12.509,12.203,24.014,12.829c2.331-6.702-3.232-12.707-5.264-16.119c8.875,1.24,16.28-1.651,18.75-7.895
		C272.148,0,236.404,0,200.658,0z M247.04,132.566c0-15.68,0-31.36,0-47.04c-15.022-0.767-31.47-0.11-47.04-0.329
		c-6.041-12.051-15.132-21.052-32.236-22.04c0,13.925,0,27.851,0,41.776c8.873,1.056,13.222,9.66,13.157,18.75
		c-0.033,4.671-2.972,10.497,1.316,11.513c3.926,0.931,8.244-4.952,9.868-7.566c3.887-6.251,4.463-14.234,3.29-21.052
		c6.27-0.239,8.925,3.136,10.855,7.237c2.187-5.379,10.783-7.914,16.447-4.276c3.864,5.943,0.68,14.09-4.276,16.776
		c4.496,1.219,7.898,5.243,6.908,10.855c-7.502-1.786-14.993-0.79-21.052,2.96c-2.367,1.466-8.42,6.435-7.237,10.198
		c1.207,3.837,7.47,0.956,11.842,0.987c9.351,0.066,17.37,4.631,18.421,13.158c13.926,0,27.853,0,41.777,0
		C267.998,147.571,259.474,138.114,247.04,132.566z M359.868,0c35.746,0,71.491,0,107.237,0c-2.364,6.48-10.071,9.128-19.079,7.895
		c3.315,3.835,7.194,8.782,5.921,16.119c-11.38-0.801-18.21-5.857-24.342-12.5c-1.542-1.67-3.7-6.036-6.579-5.921
		c-1.683,0.067-3.71,2.057-3.289,4.605c0.477,2.893,5.285,4.936,7.236,6.908c5.434,5.491,10.239,13.313,10.526,22.697
		c-3.886,0.502-7.548-0.151-10.526-1.645c-2.366-1.186-3.794-4.08-5.592-3.618c1.807,7.281-2.931,18.479-7.895,18.421
		c-5.217-0.062-9.687-12.12-7.896-19.079c-3.595,3.306-9.446,7.519-16.118,5.592c0.337-10.47,6.289-17.789,12.5-23.684
		c1.511-1.434,5.655-4.111,5.592-6.579c-0.046-1.822-2.297-3.531-3.289-3.619c-2.968-0.262-5.103,3.992-6.579,5.592
		c-6.465,7.005-13.217,12.062-24.671,12.829c-0.579-3.863,0.16-7.566,1.645-10.526c1.17-2.333,4.086-3.809,3.618-5.592
		C369.561,9.124,362.297,6.157,359.868,0z M335.526,131.579c6.467-2.377,9.111-10.088,7.895-19.079
		c3.787,3.239,8.635,7.142,15.79,5.921c-0.064-10.807-5.328-18.027-12.172-24.342c-1.51-1.394-5.848-3.672-5.921-6.25
		c-0.049-1.74,1.58-3.884,4.276-3.618c3.149,0.31,4.749,4.688,6.579,6.579c5.417,5.594,13.56,10.832,23.026,11.184
		c2.262-6.675-3.205-12.705-5.263-16.119c6.77,1.822,18.532-2.555,18.75-7.565c0.23-5.305-11.441-10.017-19.079-8.224
		c3.385-3.814,7.02-8.89,5.921-16.118c-10.562,0.239-17.797,5.95-24.014,12.5c-1.394,1.469-4.142,5.65-6.578,5.592
		c-1.741-0.042-3.525-2.229-3.619-3.29c-0.243-2.757,4.079-5.472,5.593-6.908c6.526-6.195,12.202-12.509,12.828-24.013
		c-6.702-2.332-12.706,3.232-16.118,5.263c1.24-8.875-1.651-16.28-7.895-18.75C335.526,60.088,335.526,95.833,335.526,131.579z
		 M468.092,85.198c-15.68,0-31.359,0-47.039,0c-0.768,15.021-0.11,31.469-0.329,47.04c-12.052,6.041-21.052,15.132-22.039,32.236
		c13.925,0,27.851,0,41.776,0c1.055-8.873,9.66-13.222,18.75-13.158c4.671,0.033,10.496,2.972,11.513-1.315
		c0.931-3.926-4.952-8.244-7.565-9.869c-6.252-3.887-14.234-4.463-21.053-3.29c-0.239-6.27,3.137-8.925,7.236-10.855
		c-5.379-2.187-7.913-10.783-4.276-16.447c5.944-3.865,14.091-0.681,16.776,4.276c1.22-4.496,5.243-7.898,10.855-6.908
		c-1.786,7.503-0.79,14.993,2.961,21.053c1.465,2.367,6.435,8.42,10.197,7.237c3.837-1.208,0.956-7.47,0.986-11.842
		c0.066-9.351,4.631-17.37,13.158-18.421c0-13.926,0-27.852,0-41.776C483.098,64.238,473.64,72.763,468.092,85.198z M24.342,335.526
		c35.745,0,71.491,0,107.237,0c-2.364,6.479-10.071,9.128-19.079,7.895c3.315,3.836,7.194,8.783,5.921,16.118
		c-11.379-0.8-18.21-5.856-24.342-12.5c-1.542-1.67-3.7-6.035-6.579-5.921c-1.683,0.067-3.709,2.058-3.29,4.605
		c0.478,2.894,5.286,4.936,7.237,6.908c5.434,5.491,10.239,13.313,10.526,22.697c-3.886,0.502-7.548-0.151-10.526-1.645
		c-2.366-1.187-3.794-4.08-5.592-3.619c1.807,7.282-2.931,18.48-7.895,18.422c-5.216-0.062-9.686-12.12-7.895-19.079
		c-3.595,3.306-9.446,7.518-16.119,5.592c0.337-10.47,6.289-17.789,12.5-23.685c1.511-1.434,5.655-4.11,5.592-6.578
		c-0.046-1.822-2.297-3.531-3.29-3.619c-2.968-0.262-5.103,3.992-6.579,5.593c-6.464,7.005-13.217,12.062-24.671,12.828
		c-0.58-3.862,0.161-7.565,1.645-10.526c1.169-2.333,4.086-3.809,3.619-5.592C34.035,344.649,26.771,341.683,24.342,335.526z
		 M0,467.105c6.466-2.377,9.111-10.088,7.895-19.079c3.788,3.239,8.635,7.143,15.79,5.921c-0.063-10.807-5.328-18.026-12.171-24.342
		c-1.51-1.394-5.848-3.673-5.921-6.25c-0.05-1.74,1.58-3.885,4.276-3.618c3.148,0.311,4.749,4.688,6.579,6.578
		c5.417,5.595,13.56,10.832,23.026,11.185c2.262-6.676-3.205-12.704-5.263-16.118c6.77,1.822,18.532-2.555,18.75-7.566
		c0.231-5.304-11.44-10.016-19.079-8.224c3.385-3.813,7.021-8.891,5.921-16.118c-10.561,0.239-17.797,5.95-24.013,12.5
		c-1.394,1.469-4.142,5.65-6.579,5.592c-1.74-0.041-3.524-2.229-3.618-3.289c-0.244-2.756,4.078-5.472,5.592-6.908
		c6.527-6.194,12.203-12.509,12.829-24.013c-6.702-2.331-12.707,3.231-16.119,5.263c1.24-8.875-1.651-16.28-7.895-18.75
		C0,395.614,0,431.359,0,467.105z M132.566,420.724c-15.68,0-31.36,0-47.04,0c-0.767,15.022-0.11,31.47-0.329,47.039
		c-12.051,6.041-21.052,15.134-22.04,32.237c13.925,0,27.851,0,41.776,0c1.056-8.873,9.66-13.222,18.75-13.158
		c4.671,0.034,10.497,2.973,11.513-1.315c0.931-3.926-4.952-8.243-7.566-9.868c-6.251-3.888-14.234-4.463-21.052-3.29
		c-0.239-6.269,3.136-8.925,7.237-10.855c-5.379-2.187-7.914-10.781-4.276-16.447c5.943-3.863,14.09-0.68,16.776,4.276
		c1.219-4.496,5.243-7.898,10.855-6.907c-1.786,7.503-0.79,14.992,2.96,21.053c1.466,2.366,6.435,8.42,10.198,7.236
		c3.837-1.206,0.956-7.47,0.987-11.842c0.066-9.351,4.631-17.37,13.158-18.421c0-13.926,0-27.852,0-41.776
		C147.571,399.765,138.114,408.289,132.566,420.724z M332.237,359.868c0,35.746,0,71.491,0,107.237
		c-6.48-2.364-9.129-10.071-7.896-19.079c-3.835,3.315-8.782,7.194-16.118,5.921c0.801-11.38,5.856-18.21,12.5-24.342
		c1.671-1.542,6.035-3.7,5.921-6.579c-0.066-1.683-2.057-3.71-4.605-3.289c-2.894,0.477-4.936,5.285-6.907,7.236
		c-5.492,5.434-13.313,10.239-22.697,10.526c-0.503-3.886,0.151-7.548,1.645-10.526c1.186-2.366,4.079-3.794,3.618-5.592
		c-7.281,1.807-18.48-2.931-18.421-7.895c0.062-5.217,12.119-9.687,19.079-7.896c-3.307-3.595-7.519-9.446-5.593-16.118
		c10.471,0.337,17.789,6.289,23.685,12.5c1.435,1.511,4.11,5.655,6.579,5.592c1.822-0.046,3.531-2.297,3.618-3.289
		c0.263-2.968-3.992-5.103-5.592-6.579c-7.006-6.465-12.063-13.217-12.829-24.671c3.862-0.579,7.565,0.16,10.526,1.645
		c2.333,1.17,3.809,4.086,5.592,3.618C323.113,369.561,326.081,362.297,332.237,359.868z M200.658,335.526
		c2.377,6.467,10.088,9.111,19.079,7.895c-3.239,3.787-7.143,8.635-5.921,15.79c10.806-0.064,18.026-5.328,24.342-12.172
		c1.393-1.51,3.672-5.848,6.25-5.921c1.74-0.049,3.885,1.58,3.619,4.276c-0.311,3.149-4.689,4.749-6.579,6.579
		c-5.595,5.417-10.833,13.56-11.185,23.026c6.675,2.262,12.704-3.205,16.119-5.263c-1.822,6.77,2.555,18.532,7.566,18.75
		c5.305,0.23,10.017-11.441,8.224-19.079c3.813,3.385,8.891,7.02,16.118,5.921c-0.238-10.562-5.95-17.797-12.5-24.014
		c-1.469-1.394-5.649-4.142-5.592-6.578c0.041-1.741,2.229-3.525,3.29-3.619c2.756-0.243,5.471,4.079,6.907,5.593
		c6.195,6.526,12.509,12.202,24.014,12.828c2.331-6.702-3.232-12.706-5.264-16.118c8.875,1.24,16.28-1.651,18.75-7.895
		C272.148,335.526,236.404,335.526,200.658,335.526z M247.04,468.092c0-15.68,0-31.359,0-47.039
		c-15.022-0.768-31.47-0.11-47.04-0.329c-6.041-12.052-15.132-21.052-32.236-22.039c0,13.925,0,27.851,0,41.776
		c8.873,1.055,13.222,9.66,13.157,18.75c-0.033,4.671-2.972,10.496,1.316,11.513c3.926,0.931,8.244-4.952,9.868-7.565
		c3.887-6.252,4.463-14.234,3.29-21.053c6.27-0.239,8.925,3.137,10.855,7.236c2.187-5.379,10.783-7.913,16.447-4.276
		c3.864,5.944,0.68,14.091-4.276,16.776c4.496,1.22,7.898,5.243,6.908,10.855c-7.502-1.786-14.993-0.79-21.052,2.961
		c-2.367,1.465-8.42,6.435-7.237,10.197c1.207,3.837,7.47,0.956,11.842,0.986c9.351,0.066,17.37,4.631,18.421,13.158
		c13.926,0,27.853,0,41.777,0C267.998,483.098,259.474,473.64,247.04,468.092z M359.868,335.526c35.746,0,71.491,0,107.237,0
		c-2.364,6.479-10.071,9.128-19.079,7.895c3.315,3.836,7.194,8.783,5.921,16.118c-11.38-0.8-18.21-5.856-24.342-12.5
		c-1.542-1.67-3.7-6.035-6.579-5.921c-1.683,0.067-3.71,2.058-3.289,4.605c0.477,2.894,5.285,4.936,7.236,6.908
		c5.434,5.491,10.239,13.313,10.526,22.697c-3.886,0.502-7.548-0.151-10.526-1.645c-2.366-1.187-3.794-4.08-5.592-3.619
		c1.807,7.282-2.931,18.48-7.895,18.422c-5.217-0.062-9.687-12.12-7.896-19.079c-3.595,3.306-9.446,7.518-16.118,5.592
		c0.337-10.47,6.289-17.789,12.5-23.685c1.511-1.434,5.655-4.11,5.592-6.578c-0.046-1.822-2.297-3.531-3.289-3.619
		c-2.968-0.262-5.103,3.992-6.579,5.593c-6.465,7.005-13.217,12.062-24.671,12.828c-0.579-3.862,0.16-7.565,1.645-10.526
		c1.17-2.333,4.086-3.809,3.618-5.592C369.561,344.649,362.297,341.683,359.868,335.526z M335.526,467.105
		c6.467-2.377,9.111-10.088,7.895-19.079c3.787,3.239,8.635,7.143,15.79,5.921c-0.064-10.807-5.328-18.026-12.172-24.342
		c-1.51-1.394-5.848-3.673-5.921-6.25c-0.049-1.74,1.58-3.885,4.276-3.618c3.149,0.311,4.749,4.688,6.579,6.578
		c5.417,5.595,13.56,10.832,23.026,11.185c2.262-6.676-3.205-12.704-5.263-16.118c6.77,1.822,18.532-2.555,18.75-7.566
		c0.23-5.304-11.441-10.016-19.079-8.224c3.385-3.813,7.02-8.891,5.921-16.118c-10.562,0.239-17.797,5.95-24.014,12.5
		c-1.394,1.469-4.142,5.65-6.578,5.592c-1.741-0.041-3.525-2.229-3.619-3.289c-0.243-2.756,4.079-5.472,5.593-6.908
		c6.526-6.194,12.202-12.509,12.828-24.013c-6.702-2.331-12.706,3.231-16.118,5.263c1.24-8.875-1.651-16.28-7.895-18.75
		C335.526,395.614,335.526,431.359,335.526,467.105z M468.092,420.724c-15.68,0-31.359,0-47.039,0
		c-0.768,15.022-0.11,31.47-0.329,47.039c-12.052,6.041-21.052,15.134-22.039,32.237c13.925,0,27.851,0,41.776,0
		c1.055-8.873,9.66-13.222,18.75-13.158c4.671,0.034,10.496,2.973,11.513-1.315c0.931-3.926-4.952-8.243-7.565-9.868
		c-6.252-3.888-14.234-4.463-21.053-3.29c-0.239-6.269,3.137-8.925,7.236-10.855c-5.379-2.187-7.913-10.781-4.276-16.447
		c5.944-3.863,14.091-0.68,16.776,4.276c1.22-4.496,5.243-7.898,10.855-6.907c-1.786,7.503-0.79,14.992,2.961,21.053
		c1.465,2.366,6.435,8.42,10.197,7.236c3.837-1.206,0.956-7.47,0.986-11.842c0.066-9.351,4.631-17.37,13.158-18.421
		c0-13.926,0-27.852,0-41.776C483.098,399.765,473.64,408.289,468.092,420.724z M42.763,324.342
		c0.467-1.783-2.449-3.259-3.619-5.592c-1.484-2.961-2.224-6.664-1.645-10.526c11.454,0.766,18.207,5.823,24.671,12.829
		c1.477,1.6,3.611,5.854,6.579,5.592c0.992-0.087,3.243-1.796,3.29-3.618c0.063-2.469-4.082-5.145-5.592-6.579
		c-6.211-5.896-12.163-13.214-12.5-23.685c6.672-1.926,12.524,2.286,16.119,5.593c-1.792-6.96,2.678-19.018,7.895-19.079
		c4.964-0.06,9.702,11.14,7.895,18.421c1.797,0.461,3.226-2.433,5.592-3.618c2.979-1.493,6.641-2.147,10.526-1.645
		c-0.287,9.384-5.093,17.205-10.526,22.697c-1.951,1.972-6.759,4.014-7.237,6.907c-0.42,2.549,1.607,4.539,3.29,4.605
		c2.879,0.114,5.037-4.25,6.579-5.921c6.132-6.644,12.962-11.699,24.342-12.5c1.273,7.336-2.606,12.283-5.921,16.118
		c9.008-1.233,16.715,1.415,19.079,7.896c-35.746,0-71.492,0-107.237,0C26.771,326.081,34.035,323.113,42.763,324.342z M0,307.895
		c6.244-2.47,9.135-9.875,7.895-18.75c3.412,2.031,9.417,7.595,16.119,5.264c-0.626-11.505-6.302-17.818-12.829-24.014
		c-1.514-1.437-5.835-4.151-5.592-6.907c0.094-1.061,1.878-3.249,3.618-3.29c2.437-0.058,5.185,4.123,6.579,5.592
		c6.216,6.55,13.452,12.262,24.013,12.5c1.099-7.228-2.536-12.305-5.921-16.118c7.639,1.793,19.31-2.919,19.079-8.224
		c-0.218-5.011-11.98-9.388-18.75-7.566c2.059-3.414,7.525-9.443,5.263-16.118c-9.467,0.352-17.609,5.589-23.026,11.184
		c-1.83,1.89-3.43,6.268-6.579,6.579c-2.697,0.266-4.326-1.878-4.276-3.619c0.073-2.578,4.411-4.857,5.921-6.25
		c6.843-6.315,12.107-13.536,12.171-24.342c-7.154-1.222-12.002,2.682-15.79,5.921c1.216-8.991-1.428-16.702-7.895-19.079
		C0,236.404,0,272.148,0,307.895z M164.474,269.079c0-13.925,0-27.852,0-41.776c-8.527-1.051-13.092-9.071-13.158-18.421
		c-0.031-4.373,2.851-10.635-0.987-11.842c-3.763-1.184-8.732,4.87-10.198,7.237c-3.75,6.06-4.747,13.55-2.96,21.053
		c-5.612,0.991-9.636-2.412-10.855-6.908c-2.687,4.956-10.833,8.14-16.776,4.276c-3.637-5.665-1.103-14.26,4.276-16.447
		c-4.101-1.93-7.476-4.586-7.237-10.855c6.818,1.173,14.801,0.598,21.052-3.289c2.614-1.625,8.497-5.943,7.566-9.869
		c-1.016-4.288-6.842-1.349-11.513-1.316c-9.09,0.064-17.694-4.285-18.75-13.158c-13.925,0-27.851,0-41.776,0
		c0.988,17.104,9.988,26.196,22.04,32.237c0.219,15.57-0.438,32.017,0.329,47.04c15.68,0,31.36,0,47.04,0
		C138.114,259.474,147.571,267.998,164.474,269.079z M324.342,289.474c-1.783-0.467-3.259,2.449-5.592,3.618
		c-2.961,1.484-6.664,2.225-10.526,1.646c0.766-11.454,5.823-18.207,12.829-24.672c1.6-1.476,5.854-3.611,5.592-6.578
		c-0.087-0.992-1.796-3.244-3.618-3.29c-2.469-0.062-5.145,4.082-6.579,5.592c-5.896,6.212-13.214,12.163-23.685,12.5
		c-1.926-6.672,2.286-12.523,5.593-16.118c-6.96,1.791-19.018-2.679-19.079-7.895c-0.06-4.964,11.14-9.702,18.421-7.895
		c0.461-1.797-2.433-3.226-3.618-5.592c-1.493-2.979-2.147-6.641-1.645-10.526c9.384,0.287,17.205,5.093,22.697,10.526
		c1.972,1.951,4.014,6.759,6.907,7.237c2.549,0.42,4.539-1.607,4.605-3.29c0.114-2.879-4.25-5.037-5.921-6.579
		c-6.644-6.132-11.699-12.962-12.5-24.342c7.336-1.273,12.283,2.606,16.118,5.921c-1.233-9.008,1.415-16.715,7.896-19.079
		c0,35.746,0,71.492,0,107.237C326.081,305.466,323.113,298.202,324.342,289.474z M307.895,332.237
		c-2.47-6.244-9.875-9.135-18.75-7.896c2.031-3.411,7.595-9.416,5.264-16.118c-11.505,0.626-17.818,6.302-24.014,12.829
		c-1.437,1.514-4.151,5.836-6.907,5.592c-1.061-0.094-3.249-1.878-3.29-3.618c-0.058-2.437,4.123-5.185,5.592-6.579
		c6.55-6.217,12.262-13.452,12.5-24.013c-7.228-1.1-12.305,2.535-16.118,5.921c1.793-7.639-2.919-19.31-8.224-19.079
		c-5.011,0.218-9.388,11.98-7.566,18.75c-3.415-2.059-9.443-7.524-16.119-5.264c0.352,9.468,5.59,17.609,11.185,23.026
		c1.89,1.831,6.268,3.431,6.579,6.579c0.266,2.696-1.878,4.326-3.619,4.276c-2.578-0.073-4.857-4.411-6.25-5.921
		c-6.315-6.843-13.536-12.107-24.342-12.171c-1.222,7.154,2.682,12.002,5.921,15.789c-8.991-1.216-16.702,1.429-19.079,7.896
		C236.404,332.237,272.148,332.237,307.895,332.237z M269.079,167.763c-13.925,0-27.852,0-41.777,0
		c-1.051,8.527-9.07,13.092-18.421,13.158c-4.372,0.031-10.635-2.851-11.842,0.987c-1.184,3.763,4.87,8.732,7.237,10.198
		c6.06,3.75,13.55,4.747,21.052,2.96c0.991,5.612-2.412,9.636-6.908,10.855c4.957,2.687,8.141,10.833,4.276,16.776
		c-5.665,3.637-14.26,1.103-16.447-4.276c-1.93,4.101-4.585,7.476-10.855,7.237c1.174-6.818,0.598-14.8-3.29-21.052
		c-1.625-2.614-5.942-8.497-9.868-7.566c-4.288,1.016-1.349,6.842-1.316,11.513c0.064,9.09-4.285,17.694-13.157,18.75
		c0,13.926,0,27.852,0,41.776c17.104-0.987,26.196-9.988,32.236-22.04c15.57-0.219,32.018,0.438,47.04-0.329
		c0-15.68,0-31.36,0-47.04C259.474,194.123,267.998,184.666,269.079,167.763z M378.289,324.342c0.468-1.783-2.448-3.259-3.618-5.592
		c-1.484-2.961-2.224-6.664-1.645-10.526c11.454,0.766,18.206,5.823,24.671,12.829c1.477,1.6,3.611,5.854,6.579,5.592
		c0.992-0.087,3.243-1.796,3.289-3.618c0.063-2.469-4.081-5.145-5.592-6.579c-6.211-5.896-12.163-13.214-12.5-23.685
		c6.672-1.926,12.523,2.286,16.118,5.593c-1.791-6.96,2.679-19.018,7.896-19.079c4.964-0.06,9.701,11.14,7.895,18.421
		c1.798,0.461,3.226-2.433,5.592-3.618c2.979-1.493,6.641-2.147,10.526-1.645c-0.287,9.384-5.093,17.205-10.526,22.697
		c-1.951,1.972-6.76,4.014-7.236,6.907c-0.421,2.549,1.606,4.539,3.289,4.605c2.879,0.114,5.037-4.25,6.579-5.921
		c6.132-6.644,12.962-11.699,24.342-12.5c1.273,7.336-2.605,12.283-5.921,16.118c9.008-1.233,16.715,1.415,19.079,7.896
		c-35.746,0-71.491,0-107.237,0C362.297,326.081,369.561,323.113,378.289,324.342z M335.526,307.895
		c6.243-2.47,9.135-9.875,7.895-18.75c3.412,2.031,9.416,7.595,16.118,5.264c-0.626-11.505-6.302-17.818-12.828-24.014
		c-1.514-1.437-5.836-4.151-5.593-6.907c0.094-1.061,1.878-3.249,3.619-3.29c2.437-0.058,5.185,4.123,6.578,5.592
		c6.217,6.55,13.452,12.262,24.014,12.5c1.099-7.228-2.536-12.305-5.921-16.118c7.638,1.793,19.31-2.919,19.079-8.224
		c-0.218-5.011-11.98-9.388-18.75-7.566c2.058-3.414,7.524-9.443,5.263-16.118c-9.467,0.352-17.609,5.589-23.026,11.184
		c-1.83,1.89-3.43,6.268-6.579,6.579c-2.696,0.266-4.325-1.878-4.276-3.619c0.073-2.578,4.411-4.857,5.921-6.25
		c6.844-6.315,12.107-13.536,12.172-24.342c-7.155-1.222-12.003,2.682-15.79,5.921c1.217-8.991-1.428-16.702-7.895-19.079
		C335.526,236.404,335.526,272.148,335.526,307.895z M500,269.079c0-13.925,0-27.852,0-41.776
		c-8.527-1.051-13.092-9.071-13.158-18.421c-0.03-4.373,2.851-10.635-0.986-11.842c-3.763-1.184-8.732,4.87-10.197,7.237
		c-3.751,6.06-4.747,13.55-2.961,21.053c-5.612,0.991-9.636-2.412-10.855-6.908c-2.686,4.956-10.832,8.14-16.776,4.276
		c-3.637-5.665-1.103-14.26,4.276-16.447c-4.1-1.93-7.476-4.586-7.236-10.855c6.818,1.173,14.801,0.598,21.053-3.289
		c2.613-1.625,8.496-5.943,7.565-9.869c-1.017-4.288-6.842-1.349-11.513-1.316c-9.09,0.064-17.695-4.285-18.75-13.158
		c-13.926,0-27.852,0-41.776,0c0.987,17.104,9.987,26.196,22.039,32.237c0.219,15.57-0.438,32.017,0.329,47.04
		c15.68,0,31.359,0,47.039,0C473.64,259.474,483.098,267.998,500,269.079z"></path>
</g>
<g id="C">
	<path class="paintable" fill-rule="evenodd" clip-rule="evenodd" fill="#A7A9AC" d="M131.579,0.329c2.112,18.831,12.031,29.854,30.592,32.237
		c-21.311,1.497-35.454,10.16-46.381,22.04c-20.286,0-40.57,0-60.855,0c-0.6,14.62-0.329,30.074-0.329,45.724
		c0,4.609,1.122,11.431,0,15.132c-0.798,2.633-5.932,5.989-8.224,8.881c-7.76,9.79-12.503,21.4-13.487,37.171
		c-3.494-17.23-13.083-28.364-32.565-29.605c5.725-3.119,9.03-10.169,7.565-19.408c3.792,3.344,8.794,7.203,16.119,5.921
		c0.106-9.949-5.827-17.573-12.171-23.684c-1.464-1.41-5.618-4.142-5.921-6.25c-0.393-2.738,1.312-4.561,3.948-4.276
		c2.898,0.313,4.63,4.518,6.25,6.25c5.546,5.93,13.27,10.619,23.355,11.842c2.057-6.919-2.385-12.64-5.592-16.447
		c7.047,1.855,19.156-2.516,19.079-7.895c-0.073-5.098-11.533-9.663-19.079-7.895c3.447-3.725,7.047-8.901,5.921-16.118
		c-11.419,0.59-17.541,5.78-24.013,12.5c-1.354,1.406-4.089,5.506-6.25,5.592c-2.087,0.083-3.851-1.815-3.619-4.276
		c0.243-2.575,4.172-4.646,5.921-6.25c6.35-5.822,11.512-13.594,12.5-23.685c-6.919-2.058-12.64,2.385-16.448,5.592
		c1.252-8.672-1.339-16.151-7.237-18.75c13.659-2.24,22.382-9.417,23.685-24.013c3.053,5.552,10.146,8.641,19.079,7.237
		c-3.254,3.917-7.14,8.807-5.921,16.119c8.75-0.032,17.1-4.974,22.697-10.526c1.995-1.979,4.143-7.086,7.237-7.566
		c2.437-0.378,4.549,1.066,4.605,3.29c0.062,2.468-4.087,5.129-5.592,6.579c-6.382,6.147-11.833,12.395-12.5,23.684
		c6.637,1.935,12.557-2.284,16.119-5.592c-1.725,6.848,2.482,18.68,7.565,19.079c5.391,0.423,10.122-11.349,8.224-19.079
		c3.917,3.255,8.807,7.141,16.118,5.921c-0.319-9.88-5.37-17.77-11.184-23.355c-1.678-1.612-6.138-3.619-6.579-6.25
		c-0.408-2.431,1.109-4.513,3.947-4.276c2.652,0.22,4.637,4.214,6.25,5.921c5.958,6.303,13.712,11.623,24.013,12.5
		c1.33-7.501-2.499-12.61-5.921-16.447C121.45,9.177,128.927,6.414,131.579,0.329z M152.631,133.224
		c-2.748,5.191-8.517-0.199-11.184-3.619c-4.777-6.126-6.094-14.231-4.605-23.026c-5.979-0.058-9.069,2.773-10.526,7.237
		c-2.418-4.308-11.341-8.983-16.447-4.276c-2.604,2.399-2.563,7.709-1.316,10.855c1.249,3.147,4.456,4.203,4.934,6.25
		c-4.558,1.144-6.854,4.549-6.908,10.197c8.795-1.518,17.717,0.111,23.355,4.605c2.317,1.846,9.317,9.664,2.96,11.184
		c-1.641,0.393-3.884-0.812-5.592-0.987c-10.886-1.115-20.906,2.824-22.369,12.829c12.281,0,24.562,0,36.842,0
		c1.163-13.968,8.729-21.534,22.697-22.697c0-12.281,0-24.562,0-36.842C152.679,106.357,149.799,120.259,152.631,133.224z
		 M331.908,131.579c-18.831,2.112-29.854,12.031-32.237,30.592c-1.497-21.311-10.16-35.454-22.039-46.381c0-20.286,0-40.57,0-60.855
		c-14.62-0.6-30.075-0.329-45.725-0.329c-4.609,0-11.431,1.122-15.131,0c-2.633-0.798-5.989-5.932-8.882-8.224
		c-9.79-7.76-21.399-12.503-37.171-13.487c17.23-3.494,28.365-13.083,29.606-32.565c3.119,5.725,10.169,9.03,19.408,7.565
		c-3.345,3.792-7.204,8.794-5.921,16.119c9.948,0.106,17.573-5.827,23.684-12.171c1.41-1.464,4.142-5.618,6.25-5.921
		c2.738-0.393,4.56,1.312,4.276,3.948c-0.313,2.898-4.518,4.63-6.25,6.25c-5.93,5.546-10.62,13.27-11.843,23.355
		c6.919,2.057,12.64-2.385,16.448-5.592c-1.855,7.047,2.516,19.156,7.895,19.079c5.098-0.073,9.663-11.533,7.895-19.079
		c3.726,3.447,8.901,7.047,16.118,5.921c-0.591-11.419-5.779-17.541-12.5-24.013c-1.405-1.354-5.506-4.089-5.592-6.25
		c-0.083-2.087,1.814-3.851,4.276-3.619c2.575,0.243,4.646,4.172,6.25,5.921c5.821,6.35,13.594,11.512,23.685,12.5
		c2.057-6.919-2.385-12.64-5.593-16.448c8.673,1.252,16.151-1.339,18.75-7.237c2.24,13.659,9.416,22.382,24.014,23.685
		c-5.553,3.053-8.642,10.146-7.237,19.079c-3.918-3.254-8.807-7.14-16.118-5.921c0.031,8.75,4.974,17.1,10.526,22.697
		c1.979,1.995,7.087,4.143,7.565,7.237c0.378,2.437-1.066,4.549-3.289,4.605c-2.469,0.062-5.13-4.087-6.579-5.592
		c-6.148-6.382-12.396-11.833-23.685-12.5c-1.935,6.637,2.284,12.557,5.593,16.119c-6.848-1.725-18.681,2.482-19.079,7.565
		c-0.423,5.391,11.349,10.122,19.079,8.224c-3.255,3.917-7.141,8.807-5.921,16.118c9.88-0.319,17.77-5.37,23.354-11.184
		c1.611-1.678,3.619-6.138,6.25-6.579c2.432-0.408,4.513,1.109,4.276,3.947c-0.221,2.652-4.214,4.637-5.921,6.25
		c-6.303,5.958-11.622,13.712-12.5,24.013c7.5,1.33,12.609-2.499,16.447-5.921C323.06,121.45,325.823,128.927,331.908,131.579z
		 M199.013,152.631c-5.191-2.748,0.199-8.517,3.618-11.184c6.126-4.777,14.231-6.094,23.026-4.605
		c0.059-5.979-2.773-9.069-7.237-10.526c4.308-2.418,8.983-11.341,4.276-16.447c-2.4-2.604-7.71-2.563-10.855-1.316
		c-3.146,1.249-4.203,4.456-6.25,4.934c-1.144-4.558-4.548-6.854-10.197-6.908c1.518,8.795-0.111,17.717-4.605,23.355
		c-1.847,2.317-9.665,9.317-11.185,2.96c-0.393-1.641,0.812-3.884,0.987-5.592c1.116-10.886-2.824-20.906-12.828-22.369
		c0,12.281,0,24.562,0,36.842c13.968,1.163,21.534,8.729,22.697,22.697c12.281,0,24.561,0,36.842,0
		C225.879,152.679,211.978,149.799,199.013,152.631z M467.105,0.329c2.111,18.831,12.031,29.854,30.592,32.237
		c-21.311,1.497-35.454,10.16-46.382,22.04c-20.285,0-40.57,0-60.854,0c-0.601,14.62-0.329,30.074-0.329,45.724
		c0,4.609,1.121,11.431,0,15.132c-0.798,2.633-5.932,5.989-8.224,8.881c-7.761,9.79-12.504,21.4-13.487,37.171
		c-3.494-17.23-13.083-28.364-32.565-29.605c5.725-3.119,9.029-10.169,7.565-19.408c3.791,3.344,8.794,7.203,16.118,5.921
		c0.106-9.949-5.826-17.573-12.171-23.684c-1.464-1.41-5.617-4.142-5.921-6.25c-0.394-2.738,1.312-4.561,3.947-4.276
		c2.899,0.313,4.631,4.518,6.25,6.25c5.547,5.93,13.27,10.619,23.355,11.842c2.058-6.919-2.385-12.64-5.592-16.447
		c7.046,1.855,19.155-2.516,19.079-7.895c-0.073-5.098-11.533-9.663-19.079-7.895c3.446-3.725,7.047-8.901,5.921-16.118
		c-11.42,0.59-17.54,5.78-24.014,12.5c-1.354,1.406-4.088,5.506-6.25,5.592c-2.086,0.083-3.851-1.815-3.618-4.276
		c0.243-2.575,4.172-4.646,5.921-6.25c6.351-5.822,11.513-13.594,12.5-23.685c-6.919-2.058-12.64,2.385-16.447,5.592
		c1.252-8.672-1.34-16.151-7.236-18.75c13.658-2.24,22.382-9.417,23.684-24.013c3.054,5.552,10.146,8.641,19.079,7.237
		c-3.255,3.917-7.141,8.807-5.921,16.119c8.75-0.032,17.1-4.974,22.697-10.526c1.995-1.979,4.143-7.086,7.237-7.566
		c2.437-0.378,4.549,1.066,4.604,3.29c0.062,2.468-4.087,5.129-5.592,6.579c-6.382,6.147-11.833,12.395-12.5,23.684
		c6.637,1.935,12.558-2.284,16.118-5.592c-1.725,6.848,2.482,18.68,7.566,19.079c5.39,0.423,10.121-11.349,8.224-19.079
		c3.917,3.255,8.807,7.141,16.118,5.921c-0.318-9.88-5.37-17.77-11.185-23.355c-1.678-1.612-6.138-3.619-6.578-6.25
		c-0.408-2.431,1.108-4.513,3.947-4.276c2.651,0.22,4.637,4.214,6.25,5.921c5.958,6.303,13.711,11.623,24.013,12.5
		c1.329-7.501-2.498-12.61-5.921-16.447C456.977,9.177,464.453,6.414,467.105,0.329z M488.158,133.224
		c-2.749,5.191-8.518-0.199-11.185-3.619c-4.777-6.126-6.094-14.231-4.605-23.026c-5.979-0.058-9.069,2.773-10.526,7.237
		c-2.417-4.308-11.341-8.983-16.447-4.276c-2.604,2.399-2.563,7.709-1.315,10.855c1.249,3.147,4.456,4.203,4.934,6.25
		c-4.558,1.144-6.854,4.549-6.907,10.197c8.795-1.518,17.717,0.111,23.355,4.605c2.317,1.846,9.316,9.664,2.96,11.184
		c-1.642,0.393-3.884-0.812-5.592-0.987c-10.887-1.115-20.905,2.824-22.368,12.829c12.28,0,24.561,0,36.842,0
		c1.163-13.968,8.729-21.534,22.697-22.697c0-12.281,0-24.562,0-36.842C488.205,106.357,485.326,120.259,488.158,133.224z
		 M131.579,335.855c2.112,18.831,12.031,29.854,30.592,32.236c-21.311,1.497-35.454,10.16-46.381,22.04c-20.286,0-40.57,0-60.855,0
		c-0.6,14.62-0.329,30.074-0.329,45.724c0,4.609,1.122,11.431,0,15.132c-0.798,2.633-5.932,5.988-8.224,8.881
		c-7.76,9.79-12.503,21.399-13.487,37.171C29.4,479.81,19.812,468.676,0.329,467.435c5.725-3.119,9.03-10.17,7.565-19.408
		c3.792,3.345,8.794,7.203,16.119,5.921c0.106-9.948-5.827-17.573-12.171-23.685c-1.464-1.409-5.618-4.141-5.921-6.25
		c-0.393-2.737,1.312-4.56,3.948-4.275c2.898,0.313,4.63,4.518,6.25,6.25c5.546,5.93,13.27,10.618,23.355,11.842
		c2.057-6.92-2.385-12.641-5.592-16.447c7.047,1.855,19.156-2.517,19.079-7.895c-0.073-5.098-11.533-9.663-19.079-7.896
		c3.447-3.725,7.047-8.9,5.921-16.118c-11.419,0.591-17.541,5.779-24.013,12.5c-1.354,1.406-4.089,5.506-6.25,5.592
		c-2.087,0.084-3.851-1.814-3.619-4.276c0.243-2.574,4.172-4.646,5.921-6.25c6.35-5.82,11.512-13.593,12.5-23.684
		c-6.919-2.058-12.64,2.385-16.448,5.592c1.252-8.672-1.339-16.15-7.237-18.75c13.659-2.239,22.382-9.416,23.685-24.013
		c3.053,5.552,10.146,8.641,19.079,7.236c-3.254,3.918-7.14,8.808-5.921,16.118c8.75-0.03,17.1-4.974,22.697-10.526
		c1.995-1.979,4.143-7.086,7.237-7.565c2.437-0.378,4.549,1.066,4.605,3.29c0.062,2.468-4.087,5.129-5.592,6.578
		c-6.382,6.148-11.833,12.396-12.5,23.685c6.637,1.936,12.557-2.283,16.119-5.592c-1.725,6.848,2.482,18.681,7.565,19.079
		c5.391,0.422,10.122-11.35,8.224-19.079c3.917,3.255,8.807,7.141,16.118,5.921c-0.319-9.88-5.37-17.77-11.184-23.355
		c-1.678-1.611-6.138-3.618-6.579-6.25c-0.408-2.431,1.109-4.513,3.947-4.276c2.652,0.221,4.637,4.215,6.25,5.921
		c5.958,6.303,13.712,11.623,24.013,12.5c1.33-7.5-2.499-12.609-5.921-16.447C121.45,344.703,128.927,341.939,131.579,335.855z
		 M152.631,468.75c-2.748,5.191-8.517-0.199-11.184-3.618c-4.777-6.126-6.094-14.231-4.605-23.026
		c-5.979-0.058-9.069,2.772-10.526,7.236c-2.418-4.307-11.341-8.982-16.447-4.276c-2.604,2.4-2.563,7.71-1.316,10.855
		c1.249,3.147,4.456,4.203,4.934,6.25c-4.558,1.144-6.854,4.549-6.908,10.197c8.795-1.518,17.717,0.112,23.355,4.605
		c2.317,1.847,9.317,9.664,2.96,11.185c-1.641,0.393-3.884-0.812-5.592-0.987c-10.886-1.115-20.906,2.824-22.369,12.829
		c12.281,0,24.562,0,36.842,0c1.163-13.969,8.729-21.534,22.697-22.697c0-12.28,0-24.561,0-36.842
		C152.679,441.884,149.799,455.785,152.631,468.75z M331.908,467.105c-18.831,2.111-29.854,12.031-32.237,30.592
		c-1.497-21.311-10.16-35.454-22.039-46.382c0-20.285,0-40.57,0-60.854c-14.62-0.601-30.075-0.329-45.725-0.329
		c-4.609,0-11.431,1.121-15.131,0c-2.633-0.798-5.989-5.932-8.882-8.224c-9.79-7.761-21.399-12.504-37.171-13.487
		c17.23-3.494,28.365-13.083,29.606-32.565c3.119,5.725,10.169,9.029,19.408,7.565c-3.345,3.791-7.204,8.794-5.921,16.118
		c9.948,0.106,17.573-5.826,23.684-12.171c1.41-1.464,4.142-5.617,6.25-5.921c2.738-0.394,4.56,1.312,4.276,3.947
		c-0.313,2.899-4.518,4.631-6.25,6.25c-5.93,5.547-10.62,13.27-11.843,23.355c6.919,2.058,12.64-2.385,16.448-5.592
		c-1.855,7.046,2.516,19.155,7.895,19.079c5.098-0.073,9.663-11.533,7.895-19.079c3.726,3.446,8.901,7.047,16.118,5.921
		c-0.591-11.42-5.779-17.54-12.5-24.014c-1.405-1.354-5.506-4.088-5.592-6.25c-0.083-2.086,1.814-3.851,4.276-3.618
		c2.575,0.243,4.646,4.172,6.25,5.921c5.821,6.351,13.594,11.513,23.685,12.5c2.057-6.919-2.385-12.64-5.593-16.447
		c8.673,1.252,16.151-1.34,18.75-7.236c2.24,13.658,9.416,22.382,24.014,23.684c-5.553,3.054-8.642,10.146-7.237,19.079
		c-3.918-3.255-8.807-7.141-16.118-5.921c0.031,8.75,4.974,17.1,10.526,22.697c1.979,1.995,7.087,4.143,7.565,7.237
		c0.378,2.437-1.066,4.549-3.289,4.604c-2.469,0.062-5.13-4.087-6.579-5.592c-6.148-6.382-12.396-11.833-23.685-12.5
		c-1.935,6.637,2.284,12.558,5.593,16.118c-6.848-1.725-18.681,2.482-19.079,7.566c-0.423,5.39,11.349,10.121,19.079,8.224
		c-3.255,3.917-7.141,8.807-5.921,16.118c9.88-0.318,17.77-5.37,23.354-11.185c1.611-1.678,3.619-6.138,6.25-6.578
		c2.432-0.408,4.513,1.108,4.276,3.947c-0.221,2.651-4.214,4.637-5.921,6.25c-6.303,5.958-11.622,13.711-12.5,24.013
		c7.5,1.329,12.609-2.498,16.447-5.921C323.06,456.977,325.823,464.453,331.908,467.105z M199.013,488.158
		c-5.191-2.749,0.199-8.518,3.618-11.185c6.126-4.777,14.231-6.094,23.026-4.605c0.059-5.979-2.773-9.069-7.237-10.526
		c4.308-2.417,8.983-11.341,4.276-16.447c-2.4-2.604-7.71-2.563-10.855-1.315c-3.146,1.249-4.203,4.456-6.25,4.934
		c-1.144-4.558-4.548-6.854-10.197-6.907c1.518,8.795-0.111,17.717-4.605,23.355c-1.847,2.317-9.665,9.316-11.185,2.96
		c-0.393-1.642,0.812-3.884,0.987-5.592c1.116-10.887-2.824-20.905-12.828-22.368c0,12.28,0,24.561,0,36.842
		c13.968,1.163,21.534,8.729,22.697,22.697c12.281,0,24.561,0,36.842,0C225.879,488.205,211.978,485.326,199.013,488.158z
		 M467.105,335.855c2.111,18.831,12.031,29.854,30.592,32.236c-21.311,1.497-35.454,10.16-46.382,22.04c-20.285,0-40.57,0-60.854,0
		c-0.601,14.62-0.329,30.074-0.329,45.724c0,4.609,1.121,11.431,0,15.132c-0.798,2.633-5.932,5.988-8.224,8.881
		c-7.761,9.79-12.504,21.399-13.487,37.171c-3.494-17.229-13.083-28.363-32.565-29.604c5.725-3.119,9.029-10.17,7.565-19.408
		c3.791,3.345,8.794,7.203,16.118,5.921c0.106-9.948-5.826-17.573-12.171-23.685c-1.464-1.409-5.617-4.141-5.921-6.25
		c-0.394-2.737,1.312-4.56,3.947-4.275c2.899,0.313,4.631,4.518,6.25,6.25c5.547,5.93,13.27,10.618,23.355,11.842
		c2.058-6.92-2.385-12.641-5.592-16.447c7.046,1.855,19.155-2.517,19.079-7.895c-0.073-5.098-11.533-9.663-19.079-7.896
		c3.446-3.725,7.047-8.9,5.921-16.118c-11.42,0.591-17.54,5.779-24.014,12.5c-1.354,1.406-4.088,5.506-6.25,5.592
		c-2.086,0.084-3.851-1.814-3.618-4.276c0.243-2.574,4.172-4.646,5.921-6.25c6.351-5.82,11.513-13.593,12.5-23.684
		c-6.919-2.058-12.64,2.385-16.447,5.592c1.252-8.672-1.34-16.15-7.236-18.75c13.658-2.239,22.382-9.416,23.684-24.013
		c3.054,5.552,10.146,8.641,19.079,7.236c-3.255,3.918-7.141,8.808-5.921,16.118c8.75-0.03,17.1-4.974,22.697-10.526
		c1.995-1.979,4.143-7.086,7.237-7.565c2.437-0.378,4.549,1.066,4.604,3.29c0.062,2.468-4.087,5.129-5.592,6.578
		c-6.382,6.148-11.833,12.396-12.5,23.685c6.637,1.936,12.558-2.283,16.118-5.592c-1.725,6.848,2.482,18.681,7.566,19.079
		c5.39,0.422,10.121-11.35,8.224-19.079c3.917,3.255,8.807,7.141,16.118,5.921c-0.318-9.88-5.37-17.77-11.185-23.355
		c-1.678-1.611-6.138-3.618-6.578-6.25c-0.408-2.431,1.108-4.513,3.947-4.276c2.651,0.221,4.637,4.215,6.25,5.921
		c5.958,6.303,13.711,11.623,24.013,12.5c1.329-7.5-2.498-12.609-5.921-16.447C456.977,344.703,464.453,341.939,467.105,335.855z
		 M488.158,468.75c-2.749,5.191-8.518-0.199-11.185-3.618c-4.777-6.126-6.094-14.231-4.605-23.026
		c-5.979-0.058-9.069,2.772-10.526,7.236c-2.417-4.307-11.341-8.982-16.447-4.276c-2.604,2.4-2.563,7.71-1.315,10.855
		c1.249,3.147,4.456,4.203,4.934,6.25c-4.558,1.144-6.854,4.549-6.907,10.197c8.795-1.518,17.717,0.112,23.355,4.605
		c2.317,1.847,9.316,9.664,2.96,11.185c-1.642,0.393-3.884-0.812-5.592-0.987c-10.887-1.115-20.905,2.824-22.368,12.829
		c12.28,0,24.561,0,36.842,0c1.163-13.969,8.729-21.534,22.697-22.697c0-12.28,0-24.561,0-36.842
		C488.205,441.884,485.326,455.785,488.158,468.75z M112.5,324.342c3.422-3.838,7.25-8.947,5.921-16.447
		c-10.301,0.878-18.055,6.197-24.013,12.5c-1.613,1.707-3.598,5.7-6.25,5.921c-2.838,0.236-4.355-1.845-3.947-4.276
		c0.441-2.631,4.901-4.639,6.579-6.25c5.814-5.585,10.865-13.475,11.184-23.354c-7.312-1.22-12.201,2.666-16.118,5.921
		c1.897-7.73-2.833-19.502-8.224-19.079c-5.083,0.398-9.291,12.231-7.565,19.079c-3.562-3.309-9.482-7.527-16.119-5.593
		c0.667,11.289,6.118,17.536,12.5,23.685c1.505,1.449,5.654,4.11,5.592,6.579c-0.056,2.223-2.168,3.667-4.605,3.289
		c-3.094-0.479-5.242-5.587-7.237-7.565C54.6,313.197,46.25,308.255,37.5,308.224c-1.219,7.312,2.667,12.2,5.921,16.118
		c-8.932-1.404-16.026,1.685-19.079,7.237c-1.302-14.598-10.025-21.773-23.685-24.014c5.897-2.599,8.489-10.077,7.237-18.75
		c3.808,3.208,9.528,7.649,16.448,5.593c-0.988-10.091-6.15-17.863-12.5-23.685c-1.75-1.604-5.678-3.675-5.921-6.25
		c-0.232-2.462,1.532-4.359,3.619-4.276c2.161,0.086,4.896,4.187,6.25,5.592c6.473,6.721,12.594,11.909,24.013,12.5
		c1.126-7.217-2.474-12.393-5.921-16.118c7.546,1.769,19.006-2.797,19.079-7.895c0.077-5.379-12.032-9.75-19.079-7.895
		c3.208-3.807,7.649-9.528,5.592-16.447c-10.085,1.224-17.809,5.912-23.355,11.842c-1.62,1.732-3.352,5.937-6.25,6.25
		c-2.635,0.284-4.341-1.538-3.948-4.276c0.303-2.108,4.457-4.84,5.921-6.25c6.344-6.111,12.277-13.736,12.171-23.684
		c-7.324-1.283-12.327,2.576-16.119,5.921c1.464-9.239-1.84-16.289-7.565-19.408c19.482-1.241,29.071-12.375,32.565-29.605
		c0.984,15.771,5.727,27.381,13.487,37.171c2.292,2.893,7.426,6.249,8.224,8.882c1.122,3.701,0,10.522,0,15.131
		c0,15.649-0.271,31.104,0.329,45.724c20.285,0,40.57,0,60.855,0c10.927,11.879,25.071,20.542,46.381,22.039
		c-18.561,2.383-28.48,13.406-30.592,32.237C128.927,325.823,121.45,323.06,112.5,324.342z M164.474,227.303
		c0-12.282,0-24.562,0-36.842c-13.969-1.163-21.535-8.729-22.697-22.697c-12.281,0-24.561,0-36.842,0
		c1.463,10.004,11.482,13.944,22.369,12.829c1.708-0.175,3.951-1.38,5.592-0.987c6.357,1.52-0.643,9.337-2.96,11.184
		c-5.638,4.493-14.56,6.123-23.355,4.605c0.053,5.649,2.35,9.054,6.908,10.198c-0.478,2.047-3.685,3.103-4.934,6.25
		c-1.248,3.146-1.288,8.455,1.316,10.855c5.106,4.707,14.029,0.031,16.447-4.276c1.457,4.464,4.547,7.295,10.526,7.237
		c-1.489-8.795-0.172-16.901,4.605-23.026c2.667-3.419,8.436-8.81,11.184-3.618C149.799,211.979,152.679,225.879,164.474,227.303z
		 M324.342,219.737c-3.838-3.422-8.947-7.25-16.447-5.921c0.878,10.301,6.197,18.055,12.5,24.013c1.707,1.613,5.7,3.598,5.921,6.25
		c0.236,2.838-1.845,4.355-4.276,3.947c-2.631-0.441-4.639-4.901-6.25-6.579c-5.585-5.814-13.475-10.865-23.354-11.184
		c-1.22,7.312,2.666,12.201,5.921,16.118c-7.73-1.897-19.502,2.833-19.079,8.224c0.398,5.084,12.231,9.291,19.079,7.565
		c-3.309,3.562-7.527,9.481-5.593,16.118c11.289-0.666,17.536-6.117,23.685-12.5c1.449-1.505,4.11-5.653,6.579-5.592
		c2.223,0.056,3.667,2.168,3.289,4.605c-0.479,3.094-5.587,5.242-7.565,7.236c-5.553,5.598-10.495,13.948-10.526,22.698
		c7.312,1.219,12.2-2.667,16.118-5.922c-1.404,8.933,1.685,16.026,7.237,19.079c-14.598,1.303-21.773,10.025-24.014,23.685
		c-2.599-5.897-10.077-8.489-18.75-7.237c3.208-3.808,7.649-9.527,5.593-16.447c-10.091,0.987-17.863,6.15-23.685,12.5
		c-1.604,1.75-3.675,5.679-6.25,5.921c-2.462,0.233-4.359-1.531-4.276-3.618c0.086-2.161,4.187-4.896,5.592-6.25
		c6.721-6.473,11.909-12.594,12.5-24.013c-7.217-1.127-12.393,2.474-16.118,5.921c1.769-7.546-2.797-19.007-7.895-19.079
		c-5.379-0.076-9.75,12.032-7.895,19.079c-3.808-3.207-9.528-7.649-16.448-5.593c1.223,10.086,5.913,17.81,11.843,23.355
		c1.732,1.62,5.937,3.352,6.25,6.25c0.284,2.635-1.538,4.341-4.276,3.947c-2.108-0.303-4.84-4.456-6.25-5.921
		c-6.111-6.344-13.736-12.277-23.684-12.171c-1.283,7.324,2.576,12.327,5.921,16.118c-9.239-1.464-16.289,1.841-19.408,7.566
		c-1.241-19.482-12.376-29.071-29.606-32.566c15.771-0.983,27.381-5.727,37.171-13.486c2.893-2.293,6.249-7.426,8.882-8.224
		c3.701-1.122,10.522,0,15.131,0c15.65,0,31.104,0.271,45.725-0.329c0-20.285,0-40.57,0-60.855
		c11.879-10.927,20.542-25.071,22.039-46.381c2.383,18.561,13.406,28.48,32.237,30.592
		C325.823,203.31,323.06,210.787,324.342,219.737z M227.302,167.763c-12.281,0-24.561,0-36.842,0
		c-1.163,13.969-8.729,21.535-22.697,22.697c0,12.281,0,24.561,0,36.842c10.004-1.463,13.944-11.482,12.828-22.369
		c-0.175-1.708-1.379-3.951-0.987-5.592c1.52-6.357,9.338,0.643,11.185,2.96c4.494,5.638,6.123,14.561,4.605,23.355
		c5.649-0.053,9.054-2.349,10.197-6.908c2.047,0.478,3.104,3.685,6.25,4.934c3.146,1.248,8.456,1.288,10.855-1.315
		c4.707-5.106,0.031-14.03-4.276-16.448c4.464-1.457,7.295-4.547,7.237-10.526c-8.795,1.489-16.9,0.172-23.026-4.605
		c-3.419-2.667-8.81-8.436-3.618-11.184C211.978,182.438,225.879,179.558,227.302,167.763z M448.026,324.342
		c3.423-3.838,7.25-8.947,5.921-16.447c-10.302,0.878-18.055,6.197-24.013,12.5c-1.613,1.707-3.599,5.7-6.25,5.921
		c-2.839,0.236-4.355-1.845-3.947-4.276c0.44-2.631,4.9-4.639,6.578-6.25c5.814-5.585,10.866-13.475,11.185-23.354
		c-7.312-1.22-12.201,2.666-16.118,5.921c1.897-7.73-2.834-19.502-8.224-19.079c-5.084,0.398-9.291,12.231-7.566,19.079
		c-3.561-3.309-9.481-7.527-16.118-5.593c0.667,11.289,6.118,17.536,12.5,23.685c1.505,1.449,5.654,4.11,5.592,6.579
		c-0.056,2.223-2.168,3.667-4.604,3.289c-3.095-0.479-5.242-5.587-7.237-7.565c-5.598-5.553-13.947-10.495-22.697-10.526
		c-1.22,7.312,2.666,12.2,5.921,16.118c-8.933-1.404-16.025,1.685-19.079,7.237c-1.302-14.598-10.025-21.773-23.684-24.014
		c5.896-2.599,8.488-10.077,7.236-18.75c3.808,3.208,9.528,7.649,16.447,5.593c-0.987-10.091-6.149-17.863-12.5-23.685
		c-1.749-1.604-5.678-3.675-5.921-6.25c-0.232-2.462,1.532-4.359,3.618-4.276c2.162,0.086,4.896,4.187,6.25,5.592
		c6.474,6.721,12.594,11.909,24.014,12.5c1.126-7.217-2.475-12.393-5.921-16.118c7.546,1.769,19.006-2.797,19.079-7.895
		c0.076-5.379-12.033-9.75-19.079-7.895c3.207-3.807,7.649-9.528,5.592-16.447c-10.086,1.224-17.809,5.912-23.355,11.842
		c-1.619,1.732-3.351,5.937-6.25,6.25c-2.635,0.284-4.341-1.538-3.947-4.276c0.304-2.108,4.457-4.84,5.921-6.25
		c6.345-6.111,12.277-13.736,12.171-23.684c-7.324-1.283-12.327,2.576-16.118,5.921c1.464-9.239-1.841-16.289-7.565-19.408
		c19.482-1.241,29.071-12.375,32.565-29.605c0.983,15.771,5.727,27.381,13.487,37.171c2.292,2.893,7.426,6.249,8.224,8.882
		c1.121,3.701,0,10.522,0,15.131c0,15.649-0.271,31.104,0.329,45.724c20.284,0,40.569,0,60.854,0
		c10.928,11.879,25.071,20.542,46.382,22.039c-18.561,2.383-28.48,13.406-30.592,32.237
		C464.453,325.823,456.977,323.06,448.026,324.342z M500,227.303c0-12.282,0-24.562,0-36.842
		c-13.969-1.163-21.534-8.729-22.697-22.697c-12.281,0-24.562,0-36.842,0c1.463,10.004,11.481,13.944,22.368,12.829
		c1.708-0.175,3.95-1.38,5.592-0.987c6.356,1.52-0.643,9.337-2.96,11.184c-5.639,4.493-14.561,6.123-23.355,4.605
		c0.053,5.649,2.35,9.054,6.907,10.198c-0.478,2.047-3.685,3.103-4.934,6.25c-1.248,3.146-1.288,8.455,1.315,10.855
		c5.106,4.707,14.03,0.031,16.447-4.276c1.457,4.464,4.547,7.295,10.526,7.237c-1.488-8.795-0.172-16.901,4.605-23.026
		c2.667-3.419,8.436-8.81,11.185-3.618C485.326,211.979,488.205,225.879,500,227.303z"></path>
</g>
<g id="B">
	<path class="paintable" fill-rule="evenodd" clip-rule="evenodd" fill="#808285" d="M16.776,0C16.12,10.528,10.445,16.037,0,16.777
		C0,11.185,0,5.592,0,0C5.592,0,11.184,0,16.776,0z M164.474,22.698c0-7.566,0-15.132,0-22.698c-7.566,0-15.131,0-22.697,0
		C142.96,13.948,150.433,21.607,164.474,22.698z M120.395,64.803c-18.531,0-37.062,0-55.592,0c0,13.858,0,27.312,0,41.448
		c0,4.306,0.953,9.839,0,13.487c-0.71,2.717-5.887,5.906-8.224,8.553c-8.18,9.263-13.305,20.145-13.816,36.184
		c3.508,0,7.018,0,10.526,0c0.408-19.767,10-30.352,22.04-38.486c0.002-16.669-0.003-35.084,0-50.658c16.885,0,33.772,0,50.658,0
		c8.153-12.022,18.697-21.653,38.487-22.039c0-3.509,0-7.018,0-10.526C143.038,43.367,130.456,52.824,120.395,64.803z M0,164.474
		c7.566,0,15.131,0,22.697,0c-1.091-14.04-8.75-21.513-22.697-22.697C0,149.342,0,156.908,0,164.474z M141.776,164.474
		c7.566,0,15.131,0,22.697,0c0-7.565,0-15.131,0-22.697C150.49,142.925,142.924,150.491,141.776,164.474z M332.237,16.776
		C321.708,16.12,316.199,10.445,315.461,0c5.592,0,11.184,0,16.776,0C332.237,5.592,332.237,11.184,332.237,16.776z
		 M309.539,164.474c7.566,0,15.132,0,22.698,0c0-7.566,0-15.131,0-22.697C318.289,142.96,310.631,150.433,309.539,164.474z
		 M267.435,120.395c0-18.531,0-37.062,0-55.592c-13.858,0-27.312,0-41.448,0c-4.307,0-9.839,0.953-13.487,0
		c-2.717-0.71-5.906-5.887-8.553-8.224c-9.263-8.18-20.146-13.305-36.184-13.816c0,3.508,0,7.018,0,10.526
		c19.767,0.408,30.351,10,38.486,22.04c16.669,0.002,35.084-0.003,50.659,0c0,16.885,0,33.772,0,50.658
		c12.021,8.153,21.652,18.697,22.039,38.487c3.51,0,7.018,0,10.526,0C288.87,143.038,279.412,130.456,267.435,120.395z M167.763,0
		c0,7.566,0,15.131,0,22.697c14.041-1.091,21.513-8.75,22.697-22.697C182.895,0,175.329,0,167.763,0z M167.763,141.776
		c0,7.566,0,15.131,0,22.697c7.565,0,15.131,0,22.697,0C189.312,150.49,181.746,142.924,167.763,141.776z M352.303,0
		c-0.656,10.528-6.331,16.037-16.776,16.777c0-5.592,0-11.185,0-16.777C341.118,0,346.711,0,352.303,0z M500,22.698
		c0-7.566,0-15.132,0-22.698c-7.565,0-15.132,0-22.697,0C478.486,13.948,485.959,21.607,500,22.698z M455.921,64.803
		c-18.53,0-37.062,0-55.592,0c0,13.858,0,27.312,0,41.448c0,4.306,0.953,9.839,0,13.487c-0.711,2.717-5.887,5.906-8.224,8.553
		c-8.18,9.263-13.305,20.145-13.816,36.184c3.509,0,7.019,0,10.526,0c0.408-19.767,10-30.352,22.04-38.486
		c0.002-16.669-0.004-35.084,0-50.658c16.886,0,33.772,0,50.657,0C469.666,63.307,480.211,53.676,500,53.29
		c0-3.509,0-7.018,0-10.526C478.564,43.367,465.982,52.824,455.921,64.803z M335.526,164.474c7.565,0,15.132,0,22.697,0
		c-1.091-14.04-8.75-21.513-22.697-22.697C335.526,149.342,335.526,156.908,335.526,164.474z M477.303,164.474
		c7.565,0,15.132,0,22.697,0c0-7.565,0-15.131,0-22.697C486.017,142.925,478.451,150.491,477.303,164.474z M16.776,335.526
		C16.12,346.056,10.445,351.563,0,352.303c0-5.592,0-11.185,0-16.776C5.592,335.526,11.184,335.526,16.776,335.526z
		 M164.474,358.224c0-7.565,0-15.132,0-22.697c-7.566,0-15.131,0-22.697,0C142.96,349.475,150.433,357.133,164.474,358.224z
		 M120.395,400.329c-18.531,0-37.062,0-55.592,0c0,13.858,0,27.312,0,41.447c0,4.307,0.953,9.839,0,13.486
		c-0.71,2.718-5.887,5.907-8.224,8.553c-8.18,9.264-13.305,20.146-13.816,36.185c3.508,0,7.018,0,10.526,0
		c0.408-19.768,10-30.352,22.04-38.487c0.002-16.668-0.003-35.084,0-50.657c16.885,0,33.772,0,50.658,0
		c8.153-12.022,18.697-21.653,38.487-22.04c0-3.509,0-7.017,0-10.526C143.038,378.894,130.456,388.351,120.395,400.329z M0,500
		c7.566,0,15.131,0,22.697,0c-1.091-14.041-8.75-21.513-22.697-22.697C0,484.868,0,492.435,0,500z M141.776,500
		c7.566,0,15.131,0,22.697,0c0-7.565,0-15.132,0-22.697C150.49,478.451,142.924,486.018,141.776,500z M332.237,352.303
		c-10.529-0.656-16.038-6.331-16.776-16.776c5.592,0,11.184,0,16.776,0C332.237,341.118,332.237,346.711,332.237,352.303z
		 M309.539,500c7.566,0,15.132,0,22.698,0c0-7.565,0-15.132,0-22.697C318.289,478.486,310.631,485.959,309.539,500z
		 M267.435,455.921c0-18.53,0-37.062,0-55.592c-13.858,0-27.312,0-41.448,0c-4.307,0-9.839,0.953-13.487,0
		c-2.717-0.711-5.906-5.887-8.553-8.224c-9.263-8.18-20.146-13.305-36.184-13.816c0,3.509,0,7.019,0,10.526
		c19.767,0.408,30.351,10,38.486,22.04c16.669,0.002,35.084-0.004,50.659,0c0,16.886,0,33.772,0,50.657
		c12.021,8.153,21.652,18.698,22.039,38.487c3.51,0,7.018,0,10.526,0C288.87,478.564,279.412,465.982,267.435,455.921z
		 M167.763,335.526c0,7.565,0,15.132,0,22.697c14.041-1.091,21.513-8.75,22.697-22.697
		C182.895,335.526,175.329,335.526,167.763,335.526z M167.763,477.303c0,7.565,0,15.132,0,22.697c7.565,0,15.131,0,22.697,0
		C189.312,486.017,181.746,478.451,167.763,477.303z M352.303,335.526c-0.656,10.529-6.331,16.037-16.776,16.776
		c0-5.592,0-11.185,0-16.776C341.118,335.526,346.711,335.526,352.303,335.526z M500,358.224c0-7.565,0-15.132,0-22.697
		c-7.565,0-15.132,0-22.697,0C478.486,349.475,485.959,357.133,500,358.224z M455.921,400.329c-18.53,0-37.062,0-55.592,0
		c0,13.858,0,27.312,0,41.447c0,4.307,0.953,9.839,0,13.486c-0.711,2.718-5.887,5.907-8.224,8.553
		c-8.18,9.264-13.305,20.146-13.816,36.185c3.509,0,7.019,0,10.526,0c0.408-19.768,10-30.352,22.04-38.487
		c0.002-16.668-0.004-35.084,0-50.657c16.886,0,33.772,0,50.657,0c8.153-12.022,18.698-21.653,38.487-22.04
		c0-3.509,0-7.017,0-10.526C478.564,378.894,465.982,388.351,455.921,400.329z M335.526,500c7.565,0,15.132,0,22.697,0
		c-1.091-14.041-8.75-21.513-22.697-22.697C335.526,484.868,335.526,492.435,335.526,500z M477.303,500c7.565,0,15.132,0,22.697,0
		c0-7.565,0-15.132,0-22.697C486.017,478.451,478.451,486.018,477.303,500z M0,332.237c0-5.593,0-11.185,0-16.776
		c10.445,0.738,16.12,6.247,16.776,16.776C11.184,332.237,5.592,332.237,0,332.237z M141.776,332.237c7.566,0,15.131,0,22.697,0
		c0-7.566,0-15.132,0-22.698C150.433,310.631,142.96,318.289,141.776,332.237z M164.474,289.474c0-3.509,0-7.017,0-10.526
		c-19.79-0.387-30.334-10.018-38.487-22.039c-16.886,0-33.772,0-50.658,0c-0.003-15.574,0.002-33.99,0-50.658
		c-12.04-8.135-21.632-18.719-22.04-38.487c-3.509,0-7.018,0-10.526,0c0.511,16.039,5.636,26.921,13.816,36.184
		c2.336,2.646,7.513,5.835,8.224,8.553c0.953,3.648,0,9.18,0,13.487c0,14.136,0,27.589,0,41.448c18.53,0,37.061,0,55.592,0
		C130.456,279.412,143.038,288.87,164.474,289.474z M0,190.46c13.947-1.185,21.606-8.657,22.697-22.697c-7.566,0-15.131,0-22.697,0
		C0,175.329,0,182.895,0,190.46z M164.474,190.46c0-7.566,0-15.131,0-22.697c-7.566,0-15.131,0-22.697,0
		C142.924,181.746,150.49,189.312,164.474,190.46z M332.237,332.237c-5.593,0-11.185,0-16.776,0
		c0.738-10.446,6.247-16.121,16.776-16.776C332.237,321.053,332.237,326.645,332.237,332.237z M332.237,190.46
		c0-7.566,0-15.131,0-22.697c-7.566,0-15.132,0-22.698,0C310.631,181.804,318.289,189.276,332.237,190.46z M289.474,167.763
		c-3.509,0-7.017,0-10.526,0c-0.387,19.79-10.018,30.334-22.039,38.487c0,16.886,0,33.772,0,50.658
		c-15.575,0.003-33.99-0.003-50.659,0c-8.135,12.04-18.719,21.631-38.486,22.039c0,3.509,0,7.018,0,10.526
		c16.038-0.512,26.92-5.637,36.184-13.815c2.646-2.337,5.835-7.514,8.553-8.224c3.648-0.954,9.18,0,13.487,0
		c14.136,0,27.59,0,41.448,0c0-18.531,0-37.062,0-55.592C279.412,201.781,288.87,189.199,289.474,167.763z M190.46,332.237
		c-1.185-13.948-8.657-21.606-22.697-22.698c0,7.566,0,15.132,0,22.698C175.329,332.237,182.895,332.237,190.46,332.237z
		 M190.46,167.763c-7.566,0-15.132,0-22.697,0c0,7.566,0,15.131,0,22.697C181.746,189.312,189.312,181.747,190.46,167.763z
		 M335.526,332.237c0-5.593,0-11.185,0-16.776c10.445,0.738,16.12,6.247,16.776,16.776
		C346.711,332.237,341.118,332.237,335.526,332.237z M477.303,332.237c7.565,0,15.132,0,22.697,0c0-7.566,0-15.132,0-22.698
		C485.959,310.631,478.486,318.289,477.303,332.237z M500,289.474c0-3.509,0-7.017,0-10.526
		c-19.789-0.387-30.334-10.018-38.487-22.039c-16.885,0-33.771,0-50.657,0c-0.004-15.574,0.002-33.99,0-50.658
		c-12.04-8.135-21.632-18.719-22.04-38.487c-3.508,0-7.018,0-10.526,0c0.512,16.039,5.637,26.921,13.816,36.184
		c2.337,2.646,7.513,5.835,8.224,8.553c0.953,3.648,0,9.18,0,13.487c0,14.136,0,27.589,0,41.448c18.53,0,37.062,0,55.592,0
		C465.982,279.412,478.564,288.87,500,289.474z M335.526,190.46c13.947-1.185,21.606-8.657,22.697-22.697
		c-7.565,0-15.132,0-22.697,0C335.526,175.329,335.526,182.895,335.526,190.46z M500,190.46c0-7.566,0-15.131,0-22.697
		c-7.565,0-15.132,0-22.697,0C478.451,181.746,486.017,189.312,500,190.46z"></path>
</g>
<g id="A">
	<path class="paintable" fill-rule="evenodd" clip-rule="evenodd" fill="#58595B" d="M16.776,0c2.521,0,5.044,0,7.566,0
		C23.1,14.987,14.88,22.994,0,24.342c0-2.522,0-5.044,0-7.565C10.43,16.022,16.052,10.46,16.776,0z M161.184,32.566
		c-20.879,1.708-34.625,10.55-45.724,22.04c-20.286,0-40.57,0-60.855,0c0,15.077,0,29.846,0,45.395c0,4.827,1.079,11.136,0,15.131
		c-0.689,2.554-5.752,6.526-7.895,9.21c-7.829,9.81-12.989,20.946-13.816,36.842C29.177,144.178,19.727,132.905,0,131.908
		c0,3.29,0,6.579,0,9.869c13.926,1.206,21.583,8.68,22.697,22.697c6.689,0,13.377,0,20.066,0
		c0.645-15.479,5.412-27.147,13.816-36.513c2.25-2.508,7.39-5.145,8.224-7.895c1.02-3.364,0-9.657,0-13.815
		c0-14.21,0-27.807,0-41.448c18.53,0,37.061,0,55.592,0c10.036-12.004,22.676-21.403,44.079-22.039c0-6.689,0-13.378,0-20.066
		C150.456,21.583,142.982,13.926,141.776,0c-3.29,0-6.579,0-9.869,0C133.087,19.435,143.693,29.443,161.184,32.566z M125.987,75.329
		c-16.886,0-33.772,0-50.658,0c-0.003,15.574,0.002,33.989,0,50.658c-12.028,8.147-21.655,18.696-22.04,38.486
		c3.29,0,6.579,0,9.868,0c1.023-16.959,9.574-26.392,22.04-31.908c0-15.789,0-31.579,0-47.368c15.79,0,31.579,0,47.369,0
		c5.504-12.479,14.957-21.008,31.908-22.04c0-3.29,0-6.579,0-9.868C144.674,53.667,134.147,63.313,125.987,75.329z M332.237,16.776
		c0,2.521,0,5.044,0,7.566C317.25,23.1,309.242,14.88,307.895,0c2.522,0,5.044,0,7.566,0
		C316.215,10.43,321.777,16.052,332.237,16.776z M299.671,161.184c-1.709-20.879-10.549-34.625-22.039-45.724
		c0-20.286,0-40.57,0-60.855c-15.076,0-29.846,0-45.396,0c-4.827,0-11.136,1.079-15.132,0c-2.554-0.689-6.525-5.752-9.21-7.895
		c-9.809-7.829-20.946-12.989-36.842-13.816c17.006-3.717,28.28-13.167,29.277-32.895c-3.29,0-6.579,0-9.869,0
		c-1.207,13.926-8.68,21.583-22.697,22.697c0,6.689,0,13.377,0,20.066c15.479,0.645,27.146,5.412,36.513,13.816
		c2.507,2.25,5.144,7.39,7.895,8.224c3.365,1.02,9.657,0,13.816,0c14.21,0,27.807,0,41.448,0c0,18.53,0,37.061,0,55.592
		c12.004,10.036,21.403,22.676,22.039,44.079c6.688,0,13.378,0,20.065,0c1.114-14.018,8.771-21.491,22.698-22.697
		c0-3.29,0-6.579,0-9.869C312.802,133.087,302.794,143.693,299.671,161.184z M256.908,125.987c0-16.886,0-33.772,0-50.658
		c-15.575-0.003-33.99,0.002-50.659,0c-8.147-12.028-18.696-21.655-38.486-22.04c0,3.29,0,6.579,0,9.868
		c16.959,1.023,26.392,9.574,31.907,22.04c15.79,0,31.579,0,47.369,0c0,15.79,0,31.579,0,47.369
		c12.478,5.504,21.007,14.957,22.04,31.908c3.289,0,6.579,0,9.868,0C278.571,144.674,268.924,134.147,256.908,125.987z M352.303,0
		c2.521,0,5.044,0,7.565,0c-1.241,14.987-9.462,22.994-24.342,24.342c0-2.522,0-5.044,0-7.565
		C345.956,16.022,351.578,10.46,352.303,0z M496.711,32.566c-20.88,1.708-34.626,10.55-45.724,22.04c-20.286,0-40.571,0-60.855,0
		c0,15.077,0,29.846,0,45.395c0,4.827,1.078,11.136,0,15.131c-0.689,2.554-5.752,6.526-7.895,9.21
		c-7.829,9.81-12.99,20.946-13.816,36.842c-3.717-17.006-13.167-28.28-32.895-29.276c0,3.29,0,6.579,0,9.869
		c13.926,1.206,21.583,8.68,22.697,22.697c6.688,0,13.377,0,20.065,0c0.645-15.479,5.412-27.147,13.816-36.513
		c2.25-2.508,7.39-5.145,8.224-7.895c1.021-3.364,0-9.657,0-13.815c0-14.21,0-27.807,0-41.448c18.53,0,37.062,0,55.592,0
		C465.956,52.799,478.597,43.399,500,42.764c0-6.689,0-13.378,0-20.066C485.982,21.583,478.509,13.926,477.303,0
		c-3.29,0-6.579,0-9.868,0C468.614,19.435,479.219,29.443,496.711,32.566z M461.513,75.329c-16.885,0-33.771,0-50.657,0
		c-0.004,15.574,0.002,33.989,0,50.658c-12.028,8.147-21.655,18.696-22.04,38.486c3.29,0,6.579,0,9.869,0
		c1.022-16.959,9.573-26.392,22.039-31.908c0-15.789,0-31.579,0-47.368c15.789,0,31.579,0,47.368,0
		c5.504-12.479,14.957-21.008,31.908-22.04c0-3.29,0-6.579,0-9.868C480.201,53.667,469.673,63.313,461.513,75.329z M16.776,335.526
		c2.521,0,5.044,0,7.566,0C23.1,350.513,14.88,358.521,0,359.868c0-2.522,0-5.043,0-7.565
		C10.43,351.549,16.052,345.985,16.776,335.526z M161.184,368.092c-20.879,1.709-34.625,10.55-45.724,22.04
		c-20.286,0-40.57,0-60.855,0c0,15.076,0,29.846,0,45.395c0,4.827,1.079,11.137,0,15.132c-0.689,2.554-5.752,6.526-7.895,9.21
		c-7.829,9.81-12.989,20.946-13.816,36.843C29.177,479.704,19.727,468.432,0,467.435c0,3.289,0,6.578,0,9.868
		c13.926,1.206,21.583,8.68,22.697,22.697c6.689,0,13.377,0,20.066,0c0.645-15.479,5.412-27.147,13.816-36.513
		c2.25-2.508,7.39-5.145,8.224-7.896c1.02-3.363,0-9.656,0-13.815c0-14.21,0-27.807,0-41.447c18.53,0,37.061,0,55.592,0
		c10.036-12.004,22.676-21.403,44.079-22.04c0-6.688,0-13.377,0-20.065c-14.018-1.114-21.491-8.771-22.697-22.697
		c-3.29,0-6.579,0-9.869,0C133.087,354.961,143.693,364.97,161.184,368.092z M125.987,410.855c-16.886,0-33.772,0-50.658,0
		c-0.003,15.573,0.002,33.989,0,50.657C63.301,469.661,53.674,480.209,53.29,500c3.29,0,6.579,0,9.868,0
		c1.023-16.959,9.574-26.392,22.04-31.908c0-15.789,0-31.579,0-47.368c15.79,0,31.579,0,47.369,0
		c5.504-12.479,14.957-21.008,31.908-22.039c0-3.29,0-6.579,0-9.869C144.674,389.192,134.147,398.84,125.987,410.855z
		 M332.237,352.303c0,2.521,0,5.044,0,7.565c-14.987-1.241-22.995-9.462-24.343-24.342c2.522,0,5.044,0,7.566,0
		C316.215,345.956,321.777,351.578,332.237,352.303z M299.671,496.711c-1.709-20.88-10.549-34.626-22.039-45.724
		c0-20.286,0-40.571,0-60.855c-15.076,0-29.846,0-45.396,0c-4.827,0-11.136,1.078-15.132,0c-2.554-0.689-6.525-5.752-9.21-7.895
		c-9.809-7.829-20.946-12.99-36.842-13.816c17.006-3.717,28.28-13.167,29.277-32.895c-3.29,0-6.579,0-9.869,0
		c-1.207,13.926-8.68,21.583-22.697,22.697c0,6.688,0,13.377,0,20.065c15.479,0.645,27.146,5.412,36.513,13.816
		c2.507,2.25,5.144,7.39,7.895,8.224c3.365,1.021,9.657,0,13.816,0c14.21,0,27.807,0,41.448,0c0,18.53,0,37.062,0,55.592
		c12.004,10.035,21.403,22.676,22.039,44.079c6.688,0,13.378,0,20.065,0c1.114-14.018,8.771-21.491,22.698-22.697
		c0-3.29,0-6.579,0-9.868C312.802,468.614,302.794,479.219,299.671,496.711z M256.908,461.513c0-16.885,0-33.771,0-50.657
		c-15.575-0.004-33.99,0.002-50.659,0c-8.147-12.028-18.696-21.655-38.486-22.04c0,3.29,0,6.579,0,9.869
		c16.959,1.022,26.392,9.573,31.907,22.039c15.79,0,31.579,0,47.369,0c0,15.789,0,31.579,0,47.368
		c12.478,5.504,21.007,14.957,22.04,31.908c3.289,0,6.579,0,9.868,0C278.571,480.201,268.924,469.673,256.908,461.513z
		 M352.303,335.526c2.521,0,5.044,0,7.565,0c-1.241,14.986-9.462,22.994-24.342,24.342c0-2.522,0-5.043,0-7.565
		C345.956,351.549,351.578,345.985,352.303,335.526z M496.711,368.092c-20.88,1.709-34.626,10.55-45.724,22.04
		c-20.286,0-40.571,0-60.855,0c0,15.076,0,29.846,0,45.395c0,4.827,1.078,11.137,0,15.132c-0.689,2.554-5.752,6.526-7.895,9.21
		c-7.829,9.81-12.99,20.946-13.816,36.843c-3.717-17.007-13.167-28.279-32.895-29.276c0,3.289,0,6.578,0,9.868
		c13.926,1.206,21.583,8.68,22.697,22.697c6.688,0,13.377,0,20.065,0c0.645-15.479,5.412-27.147,13.816-36.513
		c2.25-2.508,7.39-5.145,8.224-7.896c1.021-3.363,0-9.656,0-13.815c0-14.21,0-27.807,0-41.447c18.53,0,37.062,0,55.592,0
		c10.035-12.004,22.676-21.403,44.079-22.04c0-6.688,0-13.377,0-20.065c-14.018-1.114-21.491-8.771-22.697-22.697
		c-3.29,0-6.579,0-9.868,0C468.614,354.961,479.219,364.97,496.711,368.092z M461.513,410.855c-16.885,0-33.771,0-50.657,0
		c-0.004,15.573,0.002,33.989,0,50.657c-12.028,8.148-21.655,18.696-22.04,38.487c3.29,0,6.579,0,9.869,0
		c1.022-16.959,9.573-26.392,22.039-31.908c0-15.789,0-31.579,0-47.368c15.789,0,31.579,0,47.368,0
		c5.504-12.479,14.957-21.008,31.908-22.039c0-3.29,0-6.579,0-9.869C480.201,389.192,469.673,398.84,461.513,410.855z M0,315.461
		c0-2.522,0-5.044,0-7.566c14.88,1.348,23.1,9.355,24.342,24.343c-2.522,0-5.044,0-7.566,0C16.052,321.777,10.43,316.215,0,315.461z
		 M131.908,332.237c3.29,0,6.579,0,9.869,0c1.206-13.927,8.68-21.584,22.697-22.698c0-6.688,0-13.377,0-20.065
		c-21.403-0.636-34.043-10.035-44.079-22.039c-18.531,0-37.062,0-55.592,0c0-13.642,0-27.237,0-41.448c0-4.159,1.02-10.452,0-13.816
		c-0.834-2.751-5.974-5.388-8.224-7.895c-8.404-9.366-13.171-21.035-13.816-36.513c-6.689,0-13.377,0-20.066,0
		C21.583,181.781,13.926,189.254,0,190.46c0,3.29,0,6.579,0,9.869c19.727-0.997,29.177-12.27,32.895-29.276
		c0.827,15.896,5.987,27.033,13.816,36.842c2.143,2.685,7.206,6.656,7.895,9.211c1.079,3.995,0,10.304,0,15.131
		c0,15.549,0,30.319,0,45.395c20.285,0,40.569,0,60.855,0c11.098,11.49,24.845,20.33,45.724,22.039
		C143.693,302.794,133.087,312.802,131.908,332.237z M164.474,278.947c0-3.289,0-6.579,0-9.868
		c-16.951-1.032-26.404-9.562-31.908-22.04c-15.79,0-31.579,0-47.369,0c0-15.79,0-31.579,0-47.369
		c-12.466-5.516-21.017-14.949-22.04-31.908c-3.289,0-6.579,0-9.868,0c0.385,19.791,10.012,30.339,22.04,38.487
		c0.002,16.668-0.003,35.084,0,50.658c16.885,0,33.772,0,50.658,0C134.147,268.924,144.674,278.571,164.474,278.947z
		 M315.461,332.237c-2.522,0-5.044,0-7.566,0c1.348-14.881,9.355-23.101,24.343-24.343c0,2.521,0,5.044,0,7.566
		C321.777,316.185,316.215,321.807,315.461,332.237z M332.237,200.329c0-3.29,0-6.579,0-9.869
		c-13.927-1.206-21.584-8.68-22.698-22.697c-6.688,0-13.377,0-20.065,0c-0.636,21.403-10.035,34.043-22.039,44.079
		c0,18.531,0,37.062,0,55.592c-13.642,0-27.238,0-41.448,0c-4.159,0-10.451-1.021-13.816,0c-2.75,0.834-5.387,5.974-7.895,8.224
		c-9.366,8.404-21.034,13.171-36.513,13.815c0,6.688,0,13.377,0,20.065c14.018,1.114,21.491,8.772,22.697,22.698
		c3.29,0,6.579,0,9.869,0c-0.997-19.728-12.271-29.178-29.277-32.896c15.896-0.826,27.033-5.987,36.842-13.815
		c2.685-2.143,6.657-7.205,9.21-7.895c3.996-1.079,10.305,0,15.132,0c15.55,0,30.319,0,45.396,0c0-20.285,0-40.57,0-60.855
		c11.49-11.098,20.33-24.845,22.039-45.724C302.794,188.544,312.802,199.149,332.237,200.329z M278.947,167.763
		c-3.289,0-6.579,0-9.868,0c-1.032,16.951-9.562,26.404-22.04,31.908c0,15.79,0,31.579,0,47.369c-15.79,0-31.58,0-47.369,0
		c-5.516,12.466-14.948,21.016-31.907,22.04c0,3.289,0,6.579,0,9.868c19.79-0.385,30.339-10.012,38.486-22.039
		c16.669-0.003,35.084,0.003,50.659,0c0-16.886,0-33.772,0-50.658C268.924,198.09,278.571,187.562,278.947,167.763z
		 M335.526,315.461c0-2.522,0-5.044,0-7.566c14.88,1.348,23.101,9.355,24.342,24.343c-2.521,0-5.044,0-7.565,0
		C351.578,321.777,345.956,316.215,335.526,315.461z M467.435,332.237c3.289,0,6.578,0,9.868,0
		c1.206-13.927,8.68-21.584,22.697-22.698c0-6.688,0-13.377,0-20.065c-21.403-0.636-34.044-10.035-44.079-22.039
		c-18.53,0-37.062,0-55.592,0c0-13.642,0-27.237,0-41.448c0-4.159,1.021-10.452,0-13.816c-0.834-2.751-5.974-5.388-8.224-7.895
		c-8.404-9.366-13.172-21.035-13.816-36.513c-6.688,0-13.377,0-20.065,0c-1.114,14.018-8.771,21.491-22.697,22.697
		c0,3.29,0,6.579,0,9.869c19.728-0.997,29.178-12.27,32.895-29.276c0.826,15.896,5.987,27.033,13.816,36.842
		c2.143,2.685,7.205,6.656,7.895,9.211c1.078,3.995,0,10.304,0,15.131c0,15.549,0,30.319,0,45.395c20.284,0,40.569,0,60.855,0
		c11.098,11.49,24.844,20.33,45.724,22.039C479.219,302.794,468.614,312.802,467.435,332.237z M500,278.947c0-3.289,0-6.579,0-9.868
		c-16.951-1.032-26.404-9.562-31.908-22.04c-15.789,0-31.579,0-47.368,0c0-15.79,0-31.579,0-47.369
		c-12.466-5.516-21.017-14.949-22.039-31.908c-3.29,0-6.579,0-9.869,0c0.385,19.791,10.012,30.339,22.04,38.487
		c0.002,16.668-0.004,35.084,0,50.658c16.886,0,33.772,0,50.657,0C469.673,268.924,480.201,278.571,500,278.947z"></path>
</g>
</svg>