<svg width="432" height="432" viewBox="0 0 432 432" fill="none" xmlns="http://www.w3.org/2000/svg">
<g clip-path="url(#clip0_2_2)">
<g id="canto">
    <path d="M215.086 0H0V215.086H215.086V0Z" fill="#005177"/>
    <path d="M215.086 180.83H180.915V215.001H193.696V193.526H215.086V180.83Z" fill="#E6BB7B"/>
    <path d="M37.1543 37.0689H215.086V24.457H24.457V215H37.1543V37.0689Z" fill="#E6BB7B"/>
    <path d="M215.086 37.0688H37.1543V215H180.915V180.829H215.086V37.0688Z" fill="#F9F7DD"/>
    <path d="M215.086 193.526H193.696V215.086H215.086V193.526Z" fill="#005177"/>
    <path d="M185.772 116.576C186.283 117.087 186.624 117.768 186.624 118.451C186.624 118.621 186.624 118.621 186.624 118.791C186.624 122.626 185.602 126.46 183.471 129.529C182.619 130.891 181.767 132.34 180.83 133.875C180.488 134.386 180.318 135.067 180.318 135.749C180.318 137.112 181 138.391 182.193 139.072C183.386 139.755 184.834 140.266 186.198 140.266C187.902 140.266 189.692 139.583 191.055 138.561C192.76 137.027 194.72 135.749 196.595 134.726C197.957 134.045 199.406 133.704 200.941 133.704C201.111 133.704 201.281 133.704 201.452 133.704C202.133 133.704 202.815 134.215 203.156 134.897C203.327 135.409 203.497 136.09 203.497 136.772C203.497 137.965 203.156 139.243 202.304 140.266C199.492 143.759 196.935 147.168 194.123 150.662C193.612 151.344 193.271 152.196 193.271 153.134C193.271 153.474 193.271 153.815 193.441 154.156C194.123 156.797 196.595 158.842 199.321 158.842C199.662 158.842 200.004 159.014 200.174 159.184C200.685 159.695 201.026 160.377 201.366 160.888C204.008 166.427 209.207 170.262 215.257 171.114V117.513C208.695 125.694 198.98 130.551 188.499 130.721C188.669 121.688 192.845 113.167 199.747 107.287C192.845 101.578 188.669 93.0558 188.499 83.8525C198.895 84.1933 208.609 89.0507 215.257 97.061V43.6304C209.207 44.4825 204.008 48.3173 201.366 53.8563C201.026 54.5381 200.685 55.0494 200.174 55.5606C200.004 55.7311 199.662 55.9015 199.321 55.9015C196.509 56.0719 194.123 57.9467 193.441 60.5884C193.271 60.9292 193.271 61.2702 193.271 61.611C193.271 62.4632 193.612 63.3154 194.123 64.0823C196.935 67.5762 199.492 70.9848 202.304 74.4786C202.986 75.5013 203.497 76.6942 203.497 77.9725C203.497 78.6542 203.327 79.1656 203.156 79.8474C202.986 80.5291 202.304 81.0403 201.452 81.0403C201.281 81.0403 201.111 81.0403 200.941 81.0403C199.406 81.0403 197.957 80.6995 196.595 80.0177C194.549 78.9951 192.76 77.8021 191.055 76.183C189.692 74.99 188.073 74.4786 186.198 74.4786C184.834 74.4786 183.386 74.8195 182.193 75.6717C181 76.3534 180.318 77.5465 180.318 78.9952C180.318 79.6769 180.488 80.1882 180.83 80.8699C181.511 82.2333 182.363 83.8524 183.471 85.2159C185.517 88.3689 186.624 92.1184 186.624 95.9531C186.624 96.1236 186.624 96.1236 186.624 96.294C186.624 96.9758 186.283 97.6576 185.772 98.1688C185.602 98.3393 185.261 98.5096 184.92 98.5096C184.579 98.5096 184.238 98.3393 184.068 98.1688C181.426 95.5271 178.87 93.141 175.716 90.8402C173.075 88.9654 169.837 87.8576 166.513 87.8576C165.832 87.8576 165.149 87.8576 164.297 88.0281C164.297 92.2036 161.826 96.0384 158.247 98.0836C155.094 99.7879 152.538 102.259 150.748 105.242C150.408 105.924 150.236 106.605 150.066 107.287C150.066 107.969 150.408 108.65 150.748 109.333C152.623 112.315 155.094 114.701 158.247 116.49C161.912 118.536 164.297 122.371 164.297 126.545C164.979 126.717 165.661 126.717 166.513 126.717C169.837 126.717 173.075 125.694 175.716 123.734C178.699 121.518 181.426 119.047 184.068 116.405C184.238 116.235 184.579 116.065 184.92 116.065C185.176 116.235 185.602 116.235 185.772 116.576Z" fill="#AC6C41"/>
    <path d="M117.854 105.328C117.172 98.169 115.979 91.2666 113.848 84.5345C111.804 77.2059 105.328 72.0077 97.7429 71.4964C93.3969 71.1555 89.051 70.9851 84.7049 70.9851C83.0006 70.9851 81.211 70.9851 79.6771 70.9851C79.5068 70.9851 79.1658 70.9851 78.9954 70.9851C74.8197 70.9851 70.6442 69.6216 67.1504 67.1504C69.6216 70.6442 70.9852 74.6495 70.9852 78.9955C70.9852 79.1658 70.9852 79.5067 70.9852 79.6771C70.9852 81.3814 70.9852 83.1711 70.9852 84.7049C70.9852 89.051 71.1555 93.397 71.4964 97.743C72.1781 105.413 77.3762 111.634 84.5344 113.849C91.2665 115.895 98.2543 117.172 105.328 117.855C105.156 119.217 105.157 120.837 105.157 122.2C105.157 146.146 123.223 166.257 146.998 169.069C146.998 169.41 146.998 169.75 146.998 170.092C146.998 173.415 144.953 176.142 141.799 176.994C140.266 178.017 138.988 179.466 137.795 181C138.306 181.34 138.647 181.681 138.988 182.192C139.669 183.386 140.181 184.834 140.181 186.198C140.181 187.732 139.669 189.35 138.817 190.544C139.669 190.714 140.351 190.714 141.288 190.714C146.828 190.714 152.196 188.498 156.201 184.323C160.377 180.659 165.575 178.784 170.944 178.784C174.437 178.784 177.846 179.636 180.828 181.255C179.295 178.102 178.357 174.694 178.357 171.37C178.357 166.002 180.403 160.632 183.897 156.627C188.073 152.793 190.288 147.424 190.288 141.715C190.288 140.862 190.288 140.181 190.118 139.243C188.924 140.096 187.305 140.607 185.772 140.607C184.408 140.607 182.959 140.266 181.766 139.413C181.255 139.073 180.915 138.732 180.573 138.221C179.04 139.243 177.761 140.692 176.568 142.226C175.716 145.379 172.904 147.424 169.665 147.424C169.325 147.424 168.984 147.424 168.643 147.424C165.831 123.649 145.72 105.583 121.774 105.583C120.837 105.157 119.388 105.157 117.854 105.328Z" fill="#B0B461"/>
    <path d="M116.661 158.076C114.957 154.923 112.486 152.366 109.504 150.577C108.821 150.236 108.14 149.895 107.458 149.895C106.776 149.895 106.094 150.236 105.413 150.577C102.43 152.451 100.044 154.923 98.2546 158.076C96.2093 161.741 92.3745 164.127 88.199 164.127C88.0285 164.808 88.0286 165.49 88.0286 166.342C88.0286 169.665 89.0511 172.904 91.0111 175.545C93.2268 178.527 95.698 181.255 98.3397 183.897C98.5102 184.067 98.6806 184.408 98.6806 184.748C98.6806 185.09 98.5102 185.431 98.3397 185.601C97.8285 186.112 97.1467 186.453 96.4649 186.453C96.2945 186.453 96.2946 186.453 96.1241 186.453C92.2894 186.453 88.4546 185.431 85.3868 183.3C84.0233 182.448 82.5747 181.596 81.0408 180.658C80.5294 180.317 79.8478 180.147 79.166 180.147C77.8026 180.147 76.5243 180.829 75.8426 182.022C75.1609 183.215 74.6495 184.663 74.6495 186.027C74.6495 187.732 75.3312 189.521 76.3539 190.884C77.8878 192.589 79.166 194.549 80.1886 196.424C80.8704 197.786 81.2113 199.235 81.2113 200.77C81.2113 200.94 81.2113 201.11 81.2113 201.281C81.2113 201.962 80.7 202.645 80.0182 202.985C79.5069 203.156 78.8251 203.326 78.1434 203.326C76.9504 203.326 75.6722 202.985 74.6495 202.132C71.1557 199.321 67.7471 196.764 64.2532 193.953C63.5714 193.44 62.7193 193.1 61.7819 193.1C61.441 193.1 61.1002 193.1 60.7594 193.27C58.1176 193.953 56.0725 196.424 56.0725 199.15C56.0725 199.491 55.902 199.832 55.7315 200.002C55.2203 200.514 54.5386 200.855 54.0272 201.196C48.4882 203.837 44.6534 209.036 43.8013 215.085H97.4024C89.2216 208.524 84.3643 198.81 84.1939 188.328C93.2268 188.498 101.748 192.674 107.629 199.576C113.337 192.674 121.859 188.498 131.063 188.328C130.722 198.724 125.864 208.439 117.854 215.085H171.455C170.603 209.036 166.768 203.837 161.229 201.196C160.548 200.855 160.036 200.514 159.525 200.002C159.355 199.832 159.185 199.491 159.185 199.15C159.013 196.338 157.139 193.953 154.497 193.27C154.156 193.1 153.816 193.1 153.475 193.1C152.622 193.1 151.77 193.44 151.004 193.953C147.509 196.764 144.101 199.321 140.607 202.132C139.584 202.815 138.392 203.326 137.113 203.326C136.431 203.326 135.92 203.156 135.238 202.985C134.557 202.815 134.045 202.133 134.045 201.281C134.045 201.11 134.045 200.94 134.045 200.77C134.045 199.235 134.386 197.786 135.068 196.424C136.091 194.549 137.283 192.589 138.903 190.884C140.096 189.521 140.607 187.902 140.607 186.027C140.607 184.663 140.266 183.215 139.414 182.022C138.732 180.829 137.539 180.147 136.091 180.147C135.408 180.147 134.897 180.317 134.216 180.658C132.852 181.511 131.234 182.192 129.87 183.3C126.717 185.346 122.967 186.453 119.133 186.453C118.962 186.453 118.962 186.453 118.792 186.453C118.11 186.453 117.428 186.112 116.917 185.601C116.747 185.431 116.576 185.09 116.576 184.748C116.576 184.408 116.747 184.067 116.917 183.897C119.558 181.255 121.944 178.699 124.245 175.545C126.12 172.904 127.228 169.665 127.228 166.342C127.228 165.661 127.228 164.978 127.058 164.127C122.542 164.212 118.707 161.741 116.661 158.076Z" fill="#AC6C41"/>
    <path d="M130.893 188.328C121.859 188.498 113.337 192.674 107.458 199.576C101.748 192.674 93.2267 188.498 84.0234 188.328C84.3642 198.724 89.2216 208.438 97.232 215.085H117.513C125.694 208.438 130.551 198.724 130.893 188.328Z" fill="#E6BB7B"/>
    <path d="M215.086 97.3174C208.524 89.1367 198.81 84.2793 188.328 84.1089C188.498 93.1418 192.674 101.663 199.576 107.544C192.674 113.253 188.498 121.774 188.328 130.978C198.725 130.637 208.439 125.78 215.086 117.769V97.3174Z" fill="#E6BB7B"/>
    <path d="M153.304 50.1071C149.129 49.5959 145.123 49.255 140.948 49.255C134.727 49.255 128.421 49.9367 122.371 51.1297C116.832 52.6636 111.122 53.3453 105.157 53.3453C93.738 53.3453 82.2338 50.3628 72.3486 44.6533C78.5695 56.2427 90.7553 63.5713 104.134 63.5713C104.645 63.5713 104.987 63.5713 105.498 63.5713C104.987 64.7643 104.645 66.0425 104.645 67.2356C104.645 72.0929 108.651 75.9277 113.337 75.9277C113.508 75.9277 113.679 75.9277 113.679 75.9277C117.343 75.7572 121.007 75.0756 124.416 73.8825C126.632 78.9103 131.744 82.2337 137.283 82.2337C139.499 82.2337 141.8 81.7224 143.846 80.5293C143.846 80.0181 143.674 79.5068 143.674 78.9955C143.674 73.1155 148.532 68.2581 154.412 68.2581H154.582C164.297 68.4286 173.5 72.0929 180.488 78.825C180.659 77.632 181.34 76.6095 182.192 76.0129C183.386 75.3312 184.834 74.8199 186.198 74.8199C187.902 74.8199 189.692 75.5016 191.055 76.5242C191.567 77.0355 192.078 77.3764 192.589 77.7173C186.283 61.6113 170.774 50.4481 153.304 50.1071Z" fill="#B0B461"/>
    <path d="M171.37 159.27C169.495 159.951 167.364 160.462 165.319 160.462C163.274 160.462 161.143 160.122 159.44 159.27C160.121 161.144 160.632 163.274 160.632 165.149C160.632 167.194 160.292 169.325 159.44 171.2C161.315 170.518 163.444 170.007 165.49 170.007C167.535 170.007 169.665 170.348 171.37 171.2C170.688 169.325 170.177 167.194 170.177 165.32C170.092 163.274 170.603 161.23 171.37 159.27Z" fill="#F9F7DD"/>
    <path d="M119.984 119.899C119.984 120.071 119.984 120.07 119.984 120.241C119.984 138.136 134.557 152.879 152.452 152.879C152.622 152.879 152.622 152.879 152.794 152.879C152.794 152.709 152.794 152.709 152.794 152.537C152.794 134.642 138.221 120.07 120.325 120.07C120.325 119.899 120.155 119.899 119.984 119.899Z" fill="#F9F7DD"/>
    <path d="M97.7427 87.0916C95.5271 84.6204 92.2038 83.2568 88.8803 83.2568C87.3464 83.2568 85.7274 83.5977 84.1935 84.109C83.5117 85.4725 83.3413 87.262 83.3413 88.7959C83.3413 92.1193 84.7047 95.3575 87.176 97.6583C91.8629 102.004 98.0836 104.39 104.56 104.39C104.475 97.9992 102.089 91.9489 97.7427 87.0916Z" fill="#F9F7DD"/>
    <path d="M73.9677 124.415C75.1607 120.922 75.8424 117.257 76.0129 113.679C76.0129 113.508 76.0129 113.337 76.0129 113.337C76.0129 108.48 72.0076 104.645 67.3208 104.645C66.1277 104.645 64.679 104.987 63.6564 105.498C63.6564 104.987 63.6564 104.645 63.6564 104.134C63.6564 90.9258 56.3279 78.825 44.7385 72.3486C50.448 82.4041 53.4305 93.7379 53.4305 105.157C53.4305 110.866 52.7488 116.746 51.2149 122.371C50.0219 128.421 49.3402 134.727 49.3402 140.948C49.3402 145.123 49.6811 149.299 50.1923 153.304C50.5332 170.859 61.4409 186.283 77.9728 192.674C77.6319 192.163 77.1207 191.652 76.7798 191.14C75.5868 189.777 75.0754 188.158 75.0754 186.283C75.0754 184.919 75.4163 183.471 76.2685 182.277C76.9502 181.255 77.9728 180.573 79.0807 180.573C72.519 173.671 68.6843 164.467 68.5139 154.667V154.497C68.5139 148.618 73.3712 143.759 79.2511 143.759C79.7624 143.759 80.2737 143.759 80.785 143.931C81.8076 141.886 82.4893 139.585 82.4893 137.369C82.319 131.744 78.9955 126.717 73.9677 124.415Z" fill="#B0B461"/>
</g>
<g id="faixa">
    <path d="M434 0H218.743V215.257H434V0Z" fill="#005177"/>
    <path d="M434 24.4185H218.743V37.0956H434V24.4185Z" fill="#E6BB7B"/>
    <path d="M434 180.969H218.743V193.646H434V180.969Z" fill="#E6BB7B"/>
    <path d="M434 37.0952H218.743V181.139H434V37.0952Z" fill="#F9F7DD"/>
    <path d="M293.275 155.615C293.955 154.083 294.465 152.297 294.465 150.425C294.465 146.596 292.764 143.107 289.786 140.895C288.425 144.894 285.107 148.043 280.938 149.233C279.576 149.574 277.96 149.914 276.598 149.914C273.621 149.914 270.898 149.063 268.26 147.617C262.56 144.129 257.455 139.79 253.286 134.599C253.456 134.94 253.456 135.451 253.456 135.791C253.456 137.151 252.776 138.428 251.585 139.108C250.393 139.79 248.947 140.3 247.586 140.3C247.245 140.3 246.905 140.3 246.564 140.3C248.436 141.832 250.563 143.619 252.435 145.319C256.434 148.808 260.092 152.637 263.581 156.465C264.943 157.997 265.623 160.124 265.623 162.166C265.623 164.803 264.431 167.185 262.475 168.972C261.114 169.994 260.007 171.61 259.497 173.141C259.327 173.481 259.327 173.822 259.327 173.993C259.327 175.183 260.007 176.29 261.199 176.63C262.56 177.14 264.176 177.31 265.708 177.31C266.9 177.31 268.005 177.14 269.027 176.97C270.557 176.63 271.834 175.779 272.684 174.503C273.876 172.971 275.663 171.866 277.705 171.866C278.725 171.866 279.576 172.036 280.512 172.546C281.874 172.716 283.49 172.716 284.851 172.716C287.659 172.716 290.552 172.376 293.36 171.866C297.359 169.227 302.038 167.867 306.887 167.867C312.588 167.867 318.203 169.739 322.542 173.396C319.395 162.591 309.525 155.359 298.379 155.359C296.762 155.104 295.062 155.274 293.275 155.615Z" fill="#AC6C41"/>
    <path d="M372.145 50.198C367.976 49.6875 363.978 49.3471 359.809 49.3471C353.513 49.3471 347.302 50.0279 341.261 51.2191C335.73 52.7505 329.945 53.5162 324.074 53.5162C312.589 53.5162 301.103 50.5383 291.233 44.8379C297.529 56.4941 309.61 63.811 322.884 63.811C323.394 63.811 323.734 63.811 324.244 63.811C323.734 65.0022 323.394 66.2785 323.394 67.4696C323.394 72.3193 327.393 76.1479 332.072 76.1479C332.242 76.1479 332.412 76.1479 332.412 76.1479C336.071 75.9778 339.729 75.297 343.218 74.1059C345.515 79.1257 350.534 82.444 356.065 82.444C358.362 82.444 360.574 81.9334 362.701 80.7423C362.701 80.2318 362.531 79.7213 362.531 79.2108C362.531 73.3402 367.381 68.4055 373.337 68.4055H373.507C383.206 68.5757 392.48 72.2341 399.372 79.0407C399.542 77.8495 400.222 76.7435 401.074 76.233C402.264 75.5523 403.711 75.0419 405.073 75.0419C406.773 75.0419 408.56 75.7225 409.922 76.7436C410.432 77.254 410.942 77.5943 411.454 77.9346C405.328 61.5989 389.672 50.5383 372.145 50.198Z" fill="#AC6C41"/>
    <path d="M434 97.4186C427.364 89.2508 417.664 84.4011 407.285 84.231C407.455 93.2496 411.624 101.758 418.601 107.714C411.624 113.413 407.455 121.922 407.285 131.196C417.749 130.856 427.449 126.006 434 118.009V97.4186Z" fill="#E6BB7B"/>
    <path d="M245.544 84.231C235.079 84.5712 225.38 89.4209 218.829 97.4186V117.754C225.465 125.921 235.164 130.771 245.544 130.941C245.374 121.922 241.205 113.414 234.229 107.459C241.205 101.758 245.204 93.2496 245.544 84.231Z" fill="#E6BB7B"/>
    <path d="M376.996 98.2691C373.847 99.9707 371.295 102.438 369.508 105.416C369.168 106.096 368.828 106.777 368.828 107.458C368.828 108.138 369.168 108.819 369.508 109.5C371.38 112.478 373.847 114.86 376.996 116.647C380.654 118.689 383.037 122.518 383.037 126.687C383.717 126.857 384.397 126.857 385.334 126.857C388.652 126.857 391.97 125.835 394.522 123.878C397.5 121.581 400.222 119.199 402.861 116.562C403.031 116.392 403.371 116.222 403.711 116.222C404.051 116.222 404.391 116.392 404.561 116.562C405.073 117.072 405.413 117.753 405.413 118.434C405.413 118.604 405.413 118.604 405.413 118.774C405.413 122.603 404.391 126.432 402.264 129.579C401.414 130.941 400.563 132.387 399.627 133.918C399.287 134.429 399.117 135.11 399.117 135.79C399.117 137.151 399.797 138.428 400.989 139.108C402.179 139.789 403.626 140.299 404.988 140.299C406.688 140.299 408.475 139.619 409.837 138.598C411.539 137.066 413.496 135.79 415.367 134.769C416.728 134.088 418.175 133.748 419.706 133.748C419.877 133.748 420.047 133.748 420.217 133.748C420.898 133.748 421.578 134.258 421.918 134.939C422.089 135.45 422.259 136.13 422.259 136.811C422.259 138.002 421.918 139.278 421.068 140.299C418.26 143.788 415.708 147.276 412.9 150.765C412.389 151.445 412.049 152.295 412.049 153.232C412.049 153.572 412.049 153.912 412.219 154.252C412.9 156.891 415.367 158.933 418.09 158.933C418.43 158.933 418.77 159.103 418.941 159.273C419.451 159.783 419.791 160.464 420.132 160.975C422.769 166.505 427.959 170.333 434 171.184V117.497C427.364 125.665 417.665 130.515 407.285 130.685C407.455 121.666 411.624 113.158 418.6 107.203C411.624 101.502 407.455 92.994 407.285 83.7201C417.75 84.0604 427.449 88.9101 434 96.9078V43.2212C427.959 44.072 422.684 47.9007 420.132 53.4311C419.791 54.1117 419.451 54.6222 418.941 55.1327C418.77 55.3028 418.43 55.473 418.09 55.473C415.282 55.6432 412.9 57.515 412.219 60.1525C412.049 60.4929 412.049 60.8331 412.049 61.1734C412.049 62.0242 412.389 62.8751 412.9 63.6408C415.708 67.1292 418.26 70.6175 421.068 74.1058C421.748 75.1268 422.259 76.4031 422.259 77.5943C422.259 78.2749 422.089 78.7854 421.918 79.466C421.748 80.1467 421.068 80.6572 420.217 80.6572C420.047 80.6572 419.877 80.6572 419.706 80.6572C418.175 80.6572 416.728 80.3167 415.367 79.6361C413.326 78.6152 411.539 77.339 409.837 75.8075C408.475 74.6163 406.859 74.1058 404.988 74.1058C403.626 74.1058 402.179 74.4462 400.989 75.2969C399.797 75.9777 399.117 77.1688 399.117 78.6152C399.117 79.2958 399.287 79.8063 399.627 80.4869C400.478 81.8483 401.159 83.4649 402.264 84.8262C404.306 87.9742 405.413 91.8028 405.413 95.6316C405.413 95.8017 405.413 95.8017 405.413 95.9719C405.413 96.6526 405.073 97.3331 404.561 97.8437C404.391 98.0138 404.051 98.184 403.711 98.184C403.371 98.184 403.031 98.0138 402.861 97.8437C400.222 95.2061 397.67 92.8239 394.522 90.5266C391.885 88.6548 388.652 87.5487 385.334 87.5487C384.653 87.5487 383.972 87.5487 383.037 87.7189C383.122 92.5685 380.824 96.3972 376.996 98.2691Z" fill="#B0B461"/>
    <path d="M287.063 84.571C295.402 93.2493 300.081 104.906 300.081 117.072C300.081 124.9 298.209 132.557 294.55 139.279C306.547 140.64 317.693 146.426 325.606 155.444C334.284 164.973 346.45 170.589 359.467 170.589C368.657 170.589 377.675 167.781 385.332 162.421C394.522 155.954 402.519 148.212 409.155 139.108C407.965 139.959 406.518 140.3 405.157 140.3C403.795 140.3 402.349 139.959 401.158 139.108C399.967 138.428 399.286 137.236 399.286 135.79C399.286 135.62 399.286 135.62 399.286 135.45C390.438 143.958 379.292 149.658 367.125 152.125C365.764 152.467 364.148 152.467 362.786 152.467C358.277 152.467 353.938 151.275 350.109 148.808C344.408 145.149 340.07 139.619 337.602 133.153C337.091 131.791 336.751 130.175 336.751 128.644C336.751 127.962 336.751 127.282 336.921 126.602C337.261 124.305 337.431 121.921 337.431 119.624C337.431 117.752 337.261 115.796 337.091 114.095C337.091 113.924 337.091 113.754 337.091 113.584C337.091 112.563 337.431 111.712 338.113 110.946C339.644 109.415 340.58 107.118 340.58 105.076C340.58 104.055 340.41 103.034 340.07 101.927C329.605 101.757 320.075 96.5675 314.545 87.8892C305.356 73.6805 290.211 64.2365 273.366 62.3647C273.706 61.0034 274.046 59.557 274.046 58.1956C274.046 50.5383 268.005 44.3273 260.518 44.1572C261.539 46.029 262.22 48.3262 262.22 50.7936C262.22 53.4311 261.539 55.8133 260.178 57.9404C256.179 64.2364 251.67 69.9369 246.479 75.1269C246.819 75.1269 247.161 75.1269 247.501 75.1269C248.861 75.1269 250.308 75.4673 251.499 76.3181C252.69 76.9988 253.371 78.1899 253.371 79.6362C253.371 79.8064 253.371 80.1467 253.371 80.3169C257.54 77.6794 262.39 76.4882 267.41 76.4882C274.726 76.0628 281.789 79.2109 287.063 84.571Z" fill="#AC6C41"/>
    <path d="M249.883 116.732C252.521 119.369 255.073 121.751 258.222 124.048C260.859 125.92 264.091 127.027 267.41 127.027C268.09 127.027 268.772 127.027 269.707 126.857C269.707 122.688 272.174 118.859 275.748 116.817C278.896 115.115 281.448 112.648 283.235 109.67C283.575 108.989 283.916 108.309 283.916 107.628C283.916 106.947 283.575 106.267 283.235 105.586C281.363 102.608 278.896 100.226 275.748 98.4393C272.089 96.3974 269.707 92.5687 269.707 88.3996C269.027 88.2294 268.346 88.2295 267.41 88.2295C264.091 88.2295 260.774 89.2505 258.222 91.2074C255.243 93.5045 252.521 95.8868 249.883 98.5243C249.713 98.6945 249.373 98.8647 249.032 98.8647C248.692 98.8647 248.352 98.6945 248.182 98.5243C247.671 98.0139 247.331 97.3331 247.331 96.6525C247.331 96.4823 247.331 96.4824 247.331 96.3122C247.331 92.4836 248.352 88.6548 250.479 85.5068C251.329 84.1455 252.181 82.6991 253.116 81.1677C253.456 80.6571 253.626 79.9766 253.626 79.296C253.626 77.9346 252.946 76.6583 251.755 75.9777C250.564 75.2971 249.117 74.7865 247.756 74.7865C246.054 74.7865 244.268 75.4672 242.907 76.4882C241.205 78.0196 239.248 79.2959 237.376 80.3169C236.015 80.9975 234.569 81.3378 233.037 81.3378C232.867 81.3378 232.697 81.3378 232.527 81.3378C231.845 81.3378 231.165 80.8274 230.825 80.1467C230.655 79.6362 230.485 78.9555 230.485 78.2748C230.485 77.0838 230.825 75.8075 231.675 74.7865C234.484 71.2982 237.036 67.8098 239.843 64.3214C240.354 63.6408 240.695 62.79 240.695 61.8542C240.695 61.5138 240.695 61.1734 240.525 60.8332C239.843 58.1956 237.376 56.1536 234.654 56.1536C234.314 56.1536 233.972 55.9835 233.802 55.8133C233.292 55.3028 232.952 54.6222 232.612 54.1116C229.975 48.5814 224.784 44.7527 218.743 43.9019V97.5884C225.379 89.4206 235.079 84.571 245.459 84.4008C245.289 93.4195 241.12 101.927 234.144 107.883C241.12 113.584 245.289 122.092 245.459 131.366C234.994 131.026 225.294 126.175 218.743 118.178V171.865C224.784 171.014 230.06 167.185 232.612 161.655C232.952 160.974 233.292 160.464 233.802 159.953C233.972 159.783 234.314 159.613 234.654 159.613C237.461 159.443 239.843 157.571 240.525 154.934C240.695 154.594 240.695 154.252 240.695 153.912C240.695 153.062 240.354 152.21 239.843 151.445C237.036 147.956 234.484 144.469 231.675 140.98C230.995 139.959 230.485 138.683 230.485 137.492C230.485 136.811 230.655 136.3 230.825 135.62C230.995 134.939 231.675 134.429 232.527 134.429C232.697 134.429 232.867 134.429 233.037 134.429C234.569 134.429 236.015 134.769 237.376 135.45C239.248 136.471 241.205 137.747 242.907 139.279C244.268 140.47 245.884 140.98 247.756 140.98C249.117 140.98 250.564 140.64 251.755 139.789C252.946 139.108 253.626 137.917 253.626 136.471C253.626 136.13 253.627 135.62 253.456 135.28C253.456 135.11 253.286 134.94 253.116 134.599C252.436 133.238 251.585 131.621 250.479 130.26C248.352 127.112 247.331 123.283 247.331 119.454C247.331 119.284 247.331 119.284 247.331 119.114C247.331 118.434 247.671 117.753 248.182 117.242C248.352 117.072 248.692 116.902 249.032 116.902C249.373 116.307 249.713 116.307 249.883 116.732Z" fill="#B0B461"/>
    <path d="M325.946 109.246L309.1 102.95L311.907 130.43L329.605 138.939L325.946 109.246Z" fill="#F9F7DD"/>
</g>
<path d="M215.257 433.129V217.872H5.19029e-05L3.05176e-05 433.129H215.257Z" fill="#005177"/>
<path d="M190.838 433.129V217.872H178.161V433.129H190.838Z" fill="#E6BB7B"/>
<path d="M34.2878 433.129V217.872H21.6105V433.129H34.2878Z" fill="#E6BB7B"/>
<path d="M178.162 433.129V217.872H34.1184L34.1183 433.129H178.162Z" fill="#F9F7DD"/>
<path d="M59.6425 292.404C61.1743 293.084 62.9601 293.594 64.8321 293.594C68.661 293.594 72.1497 291.893 74.3618 288.915C70.3628 287.554 67.2143 284.236 66.0237 280.066C65.6835 278.705 65.3433 277.089 65.3433 275.727C65.3433 272.75 66.1938 270.026 67.6405 267.389C71.1282 261.689 75.4674 256.584 80.658 252.415C80.3168 252.585 79.8065 252.585 79.4664 252.585C78.1057 252.585 76.8291 251.904 76.1487 250.714C75.4674 249.522 74.9571 248.076 74.9571 246.715C74.9571 246.374 74.9571 246.034 74.9571 245.693C73.4254 247.565 71.6385 249.692 69.9376 251.564C66.4489 255.563 62.62 259.221 58.7921 262.71C57.2603 264.071 55.1333 264.752 53.0912 264.752C50.4539 264.752 48.0717 263.56 46.2849 261.604C45.2634 260.243 43.6476 259.136 42.1158 258.626C41.7756 258.456 41.4354 258.456 41.2644 258.456C40.0738 258.456 38.9672 259.136 38.627 260.328C38.1168 261.689 37.9467 263.305 37.9467 264.837C37.9467 266.028 38.1168 267.134 38.2869 268.156C38.627 269.686 39.4785 270.963 40.7541 271.813C42.2859 273.005 43.3914 274.792 43.3914 276.834C43.3914 277.854 43.2213 278.705 42.7111 279.641C42.541 281.003 42.541 282.619 42.541 283.98C42.541 286.788 42.8812 289.681 43.3914 292.489C46.0297 296.488 47.3904 301.167 47.3904 306.016C47.3904 311.717 45.5185 317.332 41.8607 321.671C52.666 318.524 59.8976 308.654 59.8976 297.508C60.1528 295.891 59.9827 294.19 59.6425 292.404Z" fill="#AC6C41"/>
<path d="M165.059 371.274C165.569 367.105 165.91 363.107 165.91 358.937C165.91 352.641 165.229 346.43 164.038 340.389C162.506 334.858 161.741 329.074 161.741 323.203C161.741 311.717 164.719 300.231 170.419 290.361C158.763 296.657 151.446 308.738 151.446 322.012C151.446 322.522 151.446 322.863 151.446 323.373C150.255 322.863 148.978 322.522 147.787 322.522C142.938 322.522 139.109 326.521 139.109 331.201C139.109 331.371 139.109 331.541 139.109 331.541C139.279 335.2 139.96 338.857 141.151 342.346C136.131 344.643 132.813 349.663 132.813 355.194C132.813 357.491 133.323 359.703 134.514 361.83C135.025 361.83 135.535 361.66 136.046 361.66C141.917 361.66 146.851 366.509 146.851 372.465V372.635C146.681 382.334 143.023 391.609 136.216 398.5C137.407 398.67 138.513 399.351 139.024 400.202C139.705 401.393 140.215 402.839 140.215 404.201C140.215 405.902 139.534 407.689 138.513 409.05C138.003 409.561 137.663 410.071 137.322 410.582C153.658 404.456 164.719 388.8 165.059 371.274Z" fill="#AC6C41"/>
<path d="M117.839 433.128C126.007 426.492 130.856 416.792 131.026 406.413C122.008 406.583 113.5 410.752 107.544 417.729C101.844 410.752 93.3356 406.583 84.061 406.413C84.4012 416.877 89.2516 426.577 97.2486 433.128H117.839Z" fill="#E6BB7B"/>
<path d="M131.026 244.673C130.686 234.208 125.836 224.509 117.839 217.958H97.5037C89.3366 224.594 84.4862 234.293 84.3161 244.673C93.3356 244.503 101.843 240.334 107.799 233.357C113.5 240.334 122.008 244.333 131.026 244.673Z" fill="#E6BB7B"/>
<path d="M116.988 376.124C115.286 372.976 112.819 370.423 109.84 368.636C109.16 368.296 108.48 367.956 107.798 367.956C107.118 367.956 106.438 368.296 105.756 368.636C102.779 370.508 100.397 372.976 98.6099 376.124C96.5679 379.782 92.739 382.165 88.5699 382.165C88.3998 382.845 88.3998 383.526 88.3998 384.462C88.3998 387.78 89.4213 391.099 91.3783 393.651C93.6754 396.628 96.0576 399.351 98.6949 401.989C98.865 402.159 99.0351 402.499 99.0351 402.839C99.0351 403.18 98.865 403.52 98.6949 403.69C98.1847 404.201 97.5033 404.541 96.823 404.541C96.6529 404.541 96.6529 404.541 96.4828 404.541C92.6539 404.541 88.825 403.52 85.6774 401.393C84.3158 400.542 82.87 399.692 81.3383 398.755C80.828 398.415 80.1467 398.245 79.4663 398.245C78.1057 398.245 76.829 398.925 76.1487 400.117C75.4674 401.308 74.9571 402.754 74.9571 404.116C74.9571 405.817 75.6374 407.604 76.659 408.965C78.1907 410.667 79.4664 412.624 80.4879 414.495C81.1682 415.857 81.5084 417.304 81.5084 418.834C81.5084 419.005 81.5084 419.176 81.5084 419.346C81.5084 420.026 80.9981 420.706 80.3178 421.046C79.8065 421.218 79.1262 421.388 78.4459 421.388C77.2543 421.388 75.9786 421.046 74.9571 420.196C71.4684 417.389 67.9806 414.836 64.4919 412.028C63.8116 411.518 62.9611 411.178 62.0247 411.178C61.6845 411.178 61.3443 411.178 61.0042 411.348C58.3659 412.028 56.3238 414.495 56.3238 417.219C56.3238 417.559 56.1538 417.899 55.9837 418.069C55.4734 418.579 54.7931 418.919 54.2818 419.261C48.7521 421.898 44.9232 427.087 44.0728 433.128H97.7595C89.5914 426.492 84.742 416.793 84.5719 406.413C93.5904 406.583 102.099 410.752 108.054 417.729C113.754 410.752 122.263 406.583 131.536 406.413C131.196 416.878 126.346 426.577 118.349 433.128H172.035C171.185 427.087 167.356 421.813 161.826 419.261C161.145 418.919 160.634 418.579 160.124 418.069C159.954 417.899 159.784 417.559 159.784 417.219C159.613 414.41 157.742 412.028 155.104 411.348C154.764 411.178 154.423 411.178 154.083 411.178C153.232 411.178 152.382 411.518 151.616 412.028C148.127 414.836 144.639 417.389 141.151 420.196C140.13 420.876 138.853 421.388 137.662 421.388C136.982 421.388 136.471 421.218 135.791 421.046C135.11 420.876 134.599 420.196 134.599 419.346C134.599 419.176 134.599 419.005 134.599 418.834C134.599 417.304 134.94 415.857 135.62 414.495C136.641 412.454 137.918 410.667 139.449 408.965C140.64 407.604 141.151 405.987 141.151 404.116C141.151 402.754 140.81 401.308 139.96 400.117C139.279 398.925 138.088 398.245 136.641 398.245C135.961 398.245 135.45 398.415 134.77 398.755C133.408 399.607 131.792 400.287 130.43 401.393C127.282 403.435 123.454 404.541 119.625 404.541C119.455 404.541 119.455 404.541 119.285 404.541C118.604 404.541 117.923 404.201 117.413 403.69C117.243 403.52 117.073 403.18 117.073 402.839C117.073 402.499 117.243 402.159 117.413 401.989C120.05 399.351 122.433 396.798 124.73 393.651C126.602 391.014 127.708 387.78 127.708 384.462C127.708 383.781 127.708 383.101 127.538 382.165C122.688 382.25 118.859 379.952 116.988 376.124Z" fill="#B0B461"/>
<path d="M130.686 286.193C122.008 294.531 110.351 299.21 98.1851 299.21C90.3572 299.21 82.7004 297.338 75.978 293.679C74.6174 305.676 68.8315 316.822 59.813 324.735C50.2843 333.413 44.6685 345.579 44.6685 358.597C44.6685 367.786 47.4759 376.805 52.8365 384.461C59.3027 393.651 67.0446 401.648 76.1491 408.284C75.2977 407.094 74.9575 405.647 74.9575 404.286C74.9575 402.925 75.2977 401.478 76.1491 400.287C76.8295 399.096 78.021 398.415 79.4668 398.415C79.6368 398.415 79.6369 398.415 79.8069 398.415C71.2987 389.567 65.5989 378.421 63.1316 366.254C62.7905 364.893 62.7905 363.277 62.7905 361.915C62.7905 357.406 63.9821 353.067 66.4493 349.238C70.1081 343.537 75.6379 339.199 82.1041 336.731C83.4658 336.22 85.0826 335.88 86.6133 335.88C87.2947 335.88 87.975 335.88 88.6553 336.05C90.9525 336.391 93.3357 336.561 95.6328 336.561C97.5047 336.561 99.4607 336.391 101.163 336.22C101.333 336.22 101.503 336.22 101.673 336.22C102.694 336.22 103.545 336.561 104.311 337.242C105.842 338.773 108.139 339.709 110.181 339.709C111.203 339.709 112.223 339.539 113.33 339.199C113.5 328.734 118.69 319.204 127.368 313.674C141.577 304.485 151.021 289.34 152.892 272.495C154.254 272.835 155.7 273.175 157.061 273.175C164.719 273.175 170.93 267.134 171.1 259.647C169.228 260.668 166.931 261.349 164.463 261.349C161.826 261.349 159.444 260.668 157.317 259.307C151.021 255.308 145.32 250.799 140.13 245.608C140.13 245.949 140.13 246.29 140.13 246.63C140.13 247.991 139.79 249.437 138.939 250.628C138.258 251.819 137.067 252.5 135.621 252.5C135.451 252.5 135.11 252.5 134.94 252.5C137.578 256.669 138.769 261.519 138.769 266.539C139.194 273.855 136.046 280.918 130.686 286.193Z" fill="#AC6C41"/>
<path d="M98.5246 249.012C95.8873 251.649 93.5051 254.202 91.2079 257.35C89.336 259.988 88.2295 263.22 88.2295 266.539C88.2295 267.219 88.2295 267.9 88.3995 268.836C92.5686 268.836 96.3975 271.303 98.4395 274.877C100.141 278.024 102.609 280.577 105.586 282.364C106.267 282.704 106.948 283.045 107.628 283.045C108.309 283.045 108.99 282.704 109.67 282.364C112.649 280.492 115.031 278.024 116.817 274.877C118.859 271.218 122.688 268.836 126.857 268.836C127.027 268.156 127.027 267.474 127.027 266.539C127.027 263.22 126.006 259.902 124.049 257.35C121.752 254.372 119.37 251.649 116.732 249.012C116.562 248.842 116.392 248.502 116.392 248.161C116.392 247.82 116.562 247.48 116.732 247.31C117.242 246.8 117.923 246.46 118.604 246.46C118.774 246.46 118.774 246.46 118.944 246.46C122.773 246.46 126.602 247.48 129.75 249.607C131.111 250.458 132.557 251.309 134.089 252.245C134.599 252.585 135.28 252.755 135.96 252.755C137.322 252.755 138.598 252.075 139.279 250.884C139.959 249.692 140.47 248.246 140.47 246.885C140.47 245.183 139.789 243.396 138.768 242.036C137.237 240.334 135.96 238.377 134.939 236.505C134.259 235.143 133.919 233.697 133.919 232.166C133.919 231.996 133.919 231.826 133.919 231.655C133.919 230.974 134.429 230.294 135.11 229.954C135.62 229.783 136.301 229.613 136.982 229.613C138.173 229.613 139.449 229.954 140.47 230.804C143.958 233.612 147.446 236.165 150.935 238.972C151.616 239.482 152.466 239.823 153.402 239.823C153.743 239.823 154.083 239.823 154.423 239.653C157.061 238.972 159.103 236.505 159.103 233.782C159.103 233.442 159.273 233.101 159.443 232.931C159.954 232.421 160.634 232.081 161.145 231.74C166.675 229.103 170.504 223.913 171.354 217.872H117.668C125.836 224.508 130.685 234.208 130.856 244.588C121.837 244.418 113.329 240.249 107.373 233.272C101.672 240.249 93.1639 244.418 83.8903 244.588C84.2305 234.123 89.0809 224.423 97.0779 217.872H43.3912C44.2426 223.913 48.0715 229.188 53.6012 231.74C54.2826 232.081 54.7928 232.421 55.3031 232.931C55.4732 233.101 55.6433 233.442 55.6433 233.782C55.8133 236.59 57.6853 238.972 60.3226 239.653C60.6628 239.823 61.0039 239.823 61.3441 239.823C62.1945 239.823 63.0459 239.482 63.8113 238.972C67.3001 236.165 70.7878 233.612 74.2765 230.804C75.297 230.124 76.5737 229.613 77.7643 229.613C78.4456 229.613 78.9559 229.783 79.6362 229.954C80.3175 230.124 80.8278 230.804 80.8278 231.655C80.8278 231.826 80.8278 231.996 80.8278 232.166C80.8278 233.697 80.4876 235.143 79.8063 236.505C78.7858 238.377 77.5091 240.334 75.9774 242.036C74.7868 243.396 74.2765 245.013 74.2765 246.885C74.2765 248.246 74.6167 249.692 75.4671 250.884C76.1484 252.075 77.339 252.755 78.7858 252.755C79.1259 252.755 79.6362 252.756 79.9764 252.585C80.1464 252.585 80.3165 252.415 80.6577 252.245C82.0184 251.564 83.6352 250.714 84.9968 249.607C88.1444 247.48 91.9733 246.46 95.8022 246.46C95.9723 246.46 95.9723 246.46 96.1424 246.46C96.8227 246.46 97.5031 246.8 98.0143 247.31C98.1844 247.48 98.3545 247.82 98.3545 248.161C98.9498 248.502 98.9498 248.842 98.5246 249.012Z" fill="#B0B461"/>
<path d="M106.012 325.075L112.308 308.229L84.8274 311.036L76.3192 328.734L106.012 325.075Z" fill="#F9F7DD"/>
</g>
<defs>
<clipPath id="clip0_2_2">
<rect width="432" height="432" fill="white"/>
</clipPath>
</defs>
</svg>
