<svg width="432px" height="432px" viewBox="0 0 432 432" fill="none" id="faixas" xmlns="http://www.w3.org/2000/svg">
<g clip-path="url(#clip0_64_85)">
<path d="M214.179 0H0V214.179H214.179V0Z" fill="#1B5936"/>
<path d="M214.01 190.015H190.014V214.01H214.01V190.015Z" fill="#1B5936"/>
<path d="M175.515 175.43H214.349V160.762H160.761V214.095H175.515V175.43Z" fill="#B0B461"/>
<path d="M38.834 38.6645H214.349V23.9111H24.1653V214.095H38.834V38.6645Z" fill="#B0B461"/>
<path d="M214.348 38.665H38.8335V214.095H160.761V160.762H214.348V38.665Z" fill="#F6F6F6"/>
<path d="M190.014 190.013H214.348V175.43H175.515V214.094H190.014V190.013Z" fill="#F9F7DD"/>
<path d="M214.348 9.41211H9.58105V214.095H24.1649V23.9113H214.348V9.41211Z" fill="#F9F7DD"/>
<path d="M135.918 122.521C125.489 114.126 118.621 102.171 116.586 88.7743C116.416 87.7569 116.416 86.7393 116.416 85.7218C116.416 76.6493 122.436 68.7639 131.169 66.3898C131.848 66.2202 132.696 66.0506 133.374 66.0506C137.783 66.0506 141.599 69.7813 141.599 74.2752C141.599 74.7839 141.599 75.2927 141.429 75.8015C140.412 81.3128 135.579 85.2131 130.152 85.2131C129.982 85.2131 129.982 85.2131 129.813 85.2131C129.304 86.5698 129.135 88.096 129.135 89.6222C129.135 97.6773 135.663 104.206 143.718 104.206C145.584 104.206 147.619 103.867 149.399 103.019C150.078 113.279 158.641 120.994 168.731 120.994C170.258 120.994 171.784 120.825 173.395 120.486C163.135 109.887 157.285 95.9814 157.285 81.3128C157.285 81.1432 157.285 80.9737 157.285 80.8041V80.6344C157.285 67.0681 146.347 56.2998 132.95 56.2998C128.287 56.2998 123.878 57.4868 120.147 59.8609C110.735 65.7114 105.054 75.9711 105.054 86.7394C105.054 88.2656 105.224 89.7918 105.393 91.4028C98.3559 88.6895 93.7772 81.9911 93.7772 74.6144C93.7772 69.103 96.3209 63.8461 100.645 60.3698C98.6102 59.0131 95.9817 58.1651 93.438 58.1651C86.9092 58.1651 81.3131 63.1678 80.8044 69.7814C78.7694 67.0681 76.1409 64.7788 73.2581 62.9135C70.884 61.3872 68.0859 60.5393 65.3726 60.5393C64.016 60.5393 62.6593 60.7089 61.4723 61.048C61.1331 62.2351 60.9636 63.5917 60.9636 64.9483C60.9636 67.6616 61.8114 70.6293 63.3376 72.8338C65.203 75.7167 67.5772 78.1756 70.2057 80.3801C63.6769 80.8889 58.5894 86.4002 58.5894 93.0138C58.5894 95.5575 59.4373 98.186 60.7939 100.221C64.1855 95.8119 69.5273 93.1834 75.0387 93.1834C82.5849 93.1834 89.2834 97.8468 91.8271 104.63C90.3009 104.46 88.9442 104.291 87.4179 104.291C76.3105 104.291 66.2205 110.141 60.37 119.553C57.9959 123.453 56.8088 127.778 56.8088 132.356C56.8088 145.923 67.7467 156.691 81.1435 156.691C81.3131 156.691 81.3131 156.691 81.4827 156.691C81.6522 156.691 81.9914 156.691 82.161 156.691C96.9144 156.691 110.735 162.372 121.164 172.631C121.503 171.105 121.673 169.579 121.673 167.968C121.673 157.708 113.618 149.314 103.698 148.636C104.376 146.94 104.885 145.075 104.885 142.955C104.885 134.9 98.3559 128.371 90.3008 128.371C88.7746 128.371 87.2484 128.541 85.6374 129.05C85.6374 129.219 85.6374 129.219 85.6374 129.389C85.6374 134.9 81.7371 139.648 76.2257 140.666C75.717 140.835 75.2082 140.835 74.6995 140.835C70.2904 140.835 66.4749 137.274 66.4749 132.611C66.4749 131.932 66.6445 131.084 66.8141 130.406C69.3578 121.673 77.2432 115.653 86.1461 115.653C87.1636 115.653 88.1811 115.653 89.029 115.822C102.341 117.688 114.381 124.725 122.775 134.985C131.848 146.262 136.85 159.998 136.85 174.497C136.85 181.534 135.663 188.572 133.459 194.846C131.763 199.679 127.1 202.901 122.012 202.901C116.331 202.901 111.413 199.001 110.226 193.32C105.393 193.829 101.663 197.39 101.154 202.223C101.154 201.375 101.323 200.358 101.323 199.51C101.323 195.101 100.476 190.776 98.6103 186.876C97.2536 183.654 93.9468 181.534 90.3856 181.534C90.216 181.534 90.0465 181.534 89.7073 181.534C88.5203 181.534 87.3332 181.704 85.9766 181.704C76.7345 181.704 67.8315 179.33 59.7765 174.836C59.4373 176.023 59.2678 177.21 59.2678 178.567C59.2678 184.756 62.9985 190.183 68.849 192.472C70.8839 193.151 72.9189 193.659 75.2082 193.659C76.7344 193.659 78.0911 193.49 79.6173 193.151C80.974 192.811 82.3305 192.642 83.6872 192.642C86.9092 192.642 90.0465 193.49 92.7597 195.186C93.6076 195.694 94.1164 196.712 94.1164 197.729C94.1164 198.916 93.438 199.934 92.4206 200.443C91.0639 201.121 89.5378 201.46 88.0115 201.46C86.8245 201.46 85.4678 201.29 84.2808 200.782C81.7371 199.764 78.9389 199.255 76.0561 199.255C71.647 199.255 67.1532 200.612 63.592 202.986C60.2004 205.191 58.2502 209.006 58.2502 213.076C58.2502 213.246 58.2502 213.585 58.2502 213.754H136.511C145.245 201.799 149.823 187.554 149.823 172.801C149.823 162.033 147.28 151.434 142.447 141.853C152.197 146.686 162.627 149.229 173.395 149.229C188.148 149.229 202.308 144.566 214.348 135.917V57.8261C214.179 57.8261 214.009 57.8261 213.84 57.8261C209.77 57.8261 205.954 59.861 203.75 63.1678C201.376 66.8985 200.019 71.2229 200.019 75.6319C200.019 78.5148 200.528 81.3128 201.545 83.8565C202.054 85.0436 202.223 86.2306 202.223 87.5873C202.223 89.1135 201.884 90.6397 201.206 91.9963C200.697 93.0138 199.68 93.6921 198.493 93.6921C197.475 93.6921 196.458 93.1834 195.949 92.3355C194.253 89.6222 193.236 86.485 193.236 83.263C193.236 81.9064 193.405 80.5497 193.744 79.1931C194.084 77.8364 194.253 76.3102 194.253 74.9536C194.253 72.749 193.914 70.7141 193.066 68.5943C190.862 62.7438 185.35 59.013 179.161 59.013C177.974 59.013 176.617 59.1827 175.43 59.5219C180.093 67.5769 182.467 76.6493 182.467 86.061C182.467 87.2481 182.467 88.4351 182.298 89.4526C182.298 89.6222 182.298 89.7917 182.298 89.9613C182.298 93.5225 184.333 96.8294 187.64 98.186C191.54 99.8818 195.864 100.73 200.104 100.73C201.121 100.73 201.969 100.73 202.987 100.56C198.323 101.069 194.592 104.969 194.253 109.633C199.934 110.82 203.834 115.822 203.834 121.418C203.834 126.591 200.612 131.169 195.779 132.865C189.081 135.239 182.043 136.426 175.091 136.426C160.931 136.596 147.195 131.593 135.918 122.521Z" fill="#842D35"/>
<path d="M432.169 0H218.576V213.593H432.169V0Z" fill="#1B5936"/>
<path d="M432.169 189.477H218.576V213.424H432.169V189.477Z" fill="#1B5936"/>
<path d="M432.169 160.32H218.576V175.024H432.169V160.32Z" fill="#B0B461"/>
<path d="M432.169 23.8633H218.576V38.5677H432.169V23.8633Z" fill="#B0B461"/>
<path d="M432.169 38.5684H218.576V160.153H432.169V38.5684Z" fill="#F6F6F6"/>
<path d="M432.169 175.025H218.576V189.73H432.169V175.025Z" fill="#F9F7DD"/>
<path d="M432.169 9.32715H218.576V24.0316H432.169V9.32715Z" fill="#F9F7DD"/>
<path d="M238.154 109.569C237.65 104.78 234.037 100.999 229.415 100.495C230.256 100.495 231.264 100.663 232.356 100.663C236.641 100.663 240.927 99.8224 244.792 98.1419C248.069 96.7975 250.085 93.5205 250.085 89.9074C250.085 89.7393 250.085 89.5713 250.085 89.4032C250.085 88.2269 249.917 87.0505 249.917 85.9582C249.917 76.5474 252.27 67.7247 256.892 59.4902C255.715 59.1541 254.371 58.9861 253.11 58.9861C246.977 58.9861 241.515 62.7672 239.246 68.5649C238.574 70.5815 238.07 72.6821 238.07 74.8668C238.07 76.2112 238.238 77.8078 238.574 79.1522C238.91 80.4966 239.078 81.9249 239.078 83.2693C239.078 86.5463 238.238 89.5713 236.305 92.3441C235.801 93.1844 234.793 93.6885 233.785 93.6885C232.608 93.6885 231.6 93.0163 231.012 92.008C230.34 90.6636 230.004 89.0672 230.004 87.5547C230.004 86.3784 230.171 85.034 230.676 83.7736C231.684 81.2528 232.188 78.3119 232.188 75.5391C232.188 71.0857 230.844 66.8004 228.407 63.1033C226.222 59.6582 222.441 57.8097 218.324 57.8097C218.156 57.8097 217.988 57.8097 217.82 57.8097V135.869C229.415 144.272 243.279 148.641 257.648 148.641C277.478 148.641 296.552 139.902 309.407 124.694C310.416 132.76 313.525 140.239 318.314 146.708C319.827 148.389 321.927 149.481 324.112 149.481C324.28 149.481 324.448 149.481 324.616 149.481C324.784 149.481 324.952 149.481 325.12 149.481C327.305 149.481 329.574 148.473 330.918 146.708C335.707 140.239 338.732 132.508 339.825 124.694C352.765 139.902 371.754 148.641 391.584 148.641C405.953 148.641 419.733 144.188 431.412 135.869V57.8097C431.244 57.8097 431.076 57.8097 430.908 57.8097C426.791 57.8097 423.094 59.8263 420.825 63.1033C418.472 66.8844 417.044 71.1697 417.044 75.5391C417.044 78.4799 417.548 81.1688 418.556 83.7736C419.061 84.9499 419.229 86.1263 419.229 87.5547C419.229 89.0672 418.893 90.6636 418.22 92.008C417.716 93.0163 416.708 93.6885 415.447 93.6885C414.439 93.6885 413.431 93.1844 412.927 92.3441C411.246 89.5713 410.154 86.5463 410.154 83.2693C410.154 81.9249 410.322 80.4966 410.658 79.1522C410.994 77.8078 411.162 76.2112 411.162 74.8668C411.162 72.6821 410.826 70.5815 409.986 68.5649C407.801 62.7672 402.339 58.9861 396.122 58.9861C394.945 58.9861 393.601 59.1541 392.34 59.4902C396.962 67.5567 399.315 76.5474 399.315 85.9582C399.315 87.1346 399.315 88.3109 399.147 89.4032C399.147 89.5713 399.147 89.7393 399.147 89.9074C399.147 93.5205 401.163 96.7135 404.44 98.1419C408.389 99.8224 412.675 100.663 416.876 100.663C417.884 100.663 418.724 100.663 419.817 100.495C415.195 100.999 411.414 104.948 411.078 109.569C416.708 110.746 420.657 115.703 420.657 121.333C420.657 126.458 417.38 131.08 412.591 132.76C405.953 135.113 398.894 136.373 391.92 136.373C377.552 136.373 363.94 131.416 352.681 122.509C342.261 114.107 335.455 102.175 333.355 88.8991C333.187 87.8908 333.187 86.8824 333.187 85.7901C333.187 76.7154 339.152 68.901 347.891 66.4643C348.563 66.2962 349.403 66.1282 350.076 66.1282C354.529 66.1282 358.31 69.7413 358.31 74.3627C358.31 74.8668 358.31 75.371 358.142 75.8752C357.134 81.3368 352.344 85.286 346.883 85.286C346.715 85.286 346.715 85.286 346.547 85.286C346.042 86.6304 345.874 88.2269 345.874 89.7394C345.874 97.8058 352.344 104.276 360.411 104.276C362.259 104.276 364.36 103.94 366.04 103.099C366.713 113.351 375.283 120.997 385.366 120.997C386.879 120.997 388.475 120.829 389.988 120.493C379.737 109.905 373.939 96.0412 373.939 81.4208C373.939 81.2528 373.939 81.0847 373.939 80.9167V80.7486C373.939 67.2205 363.016 56.4653 349.656 56.4653C345.034 56.4653 340.581 57.6416 336.884 60.0784C331.086 63.6915 326.465 69.1531 323.944 75.6231C321.423 69.1531 316.97 63.6915 311.004 60.0784C307.055 57.7257 302.601 56.4653 298.232 56.4653C284.704 56.4653 273.949 67.3885 273.949 80.7486V80.9167C273.949 81.0847 273.949 81.2528 273.949 81.4208C273.949 96.1253 268.151 110.073 257.9 120.493C259.412 120.829 261.009 120.997 262.521 120.997C272.772 120.997 281.175 113.182 281.847 103.099C283.528 103.772 285.628 104.276 287.477 104.276C295.543 104.276 302.013 97.8058 302.013 89.7394C302.013 88.2269 301.845 86.6304 301.341 85.286C301.173 85.286 301.173 85.286 301.005 85.286C295.543 85.286 290.754 81.3368 289.746 75.8752C289.577 75.371 289.577 74.8668 289.577 74.3627C289.577 69.9093 293.191 66.1282 297.812 66.1282C298.652 66.1282 299.324 66.2962 299.997 66.4643C308.735 68.985 314.701 76.8834 314.701 85.7901C314.701 86.7984 314.701 87.8068 314.533 88.8991C312.516 102.259 305.626 114.023 295.207 122.509C284.116 131.584 270.252 136.373 255.967 136.373C248.993 136.373 241.767 135.197 235.297 132.76C230.508 131.08 227.231 126.458 227.231 121.333C228.575 115.535 232.692 110.746 238.154 109.569Z" fill="#842D35"/>
<path d="M-3.98928e-05 432L0 218.407L213.593 218.407L213.593 432L-3.98928e-05 432Z" fill="#1B5936"/>
<path d="M189.477 432L189.477 218.407L213.424 218.407L213.424 432L189.477 432Z" fill="#1B5936"/>
<path d="M160.32 432L160.32 218.407L175.025 218.407L175.025 432L160.32 432Z" fill="#B0B461"/>
<path d="M23.8635 432L23.8635 218.407L38.568 218.407L38.5679 432L23.8635 432Z" fill="#B0B461"/>
<path d="M38.5673 432L38.5674 218.407L160.152 218.407L160.152 432L38.5673 432Z" fill="#F6F6F6"/>
<path d="M175.024 432L175.024 218.407L189.729 218.407L189.729 432L175.024 432Z" fill="#F9F7DD"/>
<path d="M9.32686 432L9.3269 218.407L24.0313 218.407L24.0313 432L9.32686 432Z" fill="#F9F7DD"/>
<path d="M109.569 237.984C104.779 237.48 100.998 233.867 100.494 229.246C100.494 230.086 100.662 231.094 100.662 232.187C100.662 236.472 99.8219 240.757 98.1414 244.623C96.797 247.9 93.52 249.916 89.9069 249.916C89.7388 249.916 89.5708 249.916 89.4027 249.916C88.2264 249.916 87.0501 249.748 85.9577 249.748C76.5469 249.748 67.7242 252.101 59.4897 256.722C59.1536 255.546 58.9856 254.201 58.9856 252.941C58.9856 246.807 62.7667 241.346 68.5644 239.077C70.581 238.405 72.6817 237.9 74.8663 237.9C76.2107 237.9 77.8073 238.069 79.1517 238.405C80.4961 238.741 81.9244 238.909 83.2689 238.909C86.5458 238.909 89.5708 238.069 92.3436 236.136C93.1839 235.632 93.688 234.624 93.688 233.615C93.688 232.439 93.0158 231.431 92.0075 230.842C90.6631 230.17 89.0667 229.834 87.5542 229.834C86.3779 229.834 85.0335 230.002 83.7731 230.506C81.2523 231.515 78.3114 232.019 75.5386 232.019C71.0852 232.019 66.7999 230.674 63.1028 228.238C59.6577 226.053 57.8092 222.272 57.8092 218.155C57.8092 217.986 57.8092 217.818 57.8092 217.65L135.869 217.65C144.271 229.246 148.641 243.11 148.641 257.478C148.641 277.308 139.902 296.382 124.693 309.238C132.76 310.246 140.238 313.355 146.708 318.145C148.388 319.657 149.481 321.758 149.481 323.943C149.481 324.111 149.481 324.279 149.481 324.447C149.481 324.615 149.481 324.783 149.481 324.951C149.481 327.135 148.473 329.404 146.708 330.749C140.238 335.538 132.508 338.563 124.693 339.655C139.902 352.595 148.641 371.585 148.641 391.415C148.641 405.783 144.187 419.563 135.869 431.243L57.8092 431.243C57.8092 431.075 57.8092 430.907 57.8092 430.739C57.8092 426.621 59.8257 422.924 63.1027 420.656C66.8839 418.303 71.1692 416.875 75.5385 416.875C78.4794 416.875 81.1683 417.379 83.7731 418.387C84.9494 418.891 86.1258 419.059 87.5542 419.059C89.0667 419.059 90.6631 418.723 92.0075 418.051C93.0158 417.547 93.688 416.538 93.688 415.278C93.688 414.27 93.1839 413.261 92.3436 412.757C89.5708 411.077 86.5458 409.984 83.2688 409.984C81.9244 409.984 80.4961 410.153 79.1517 410.489C77.8073 410.825 76.2107 410.993 74.8663 410.993C72.6816 410.993 70.581 410.657 68.5644 409.816C62.7666 407.632 58.9856 402.17 58.9856 395.952C58.9856 394.776 59.1536 393.431 59.4897 392.171C67.5561 396.792 76.5469 399.145 85.9577 399.145C87.134 399.145 88.3104 399.145 89.4027 398.977C89.5708 398.977 89.7388 398.977 89.9068 398.977C93.5199 398.977 96.7129 400.994 98.1414 404.271C99.8219 408.22 100.662 412.505 100.662 416.706C100.662 417.715 100.662 418.555 100.494 419.647C100.998 415.026 104.947 411.245 109.569 410.909C110.745 416.538 115.703 420.488 121.332 420.488C126.458 420.488 131.079 417.211 132.76 412.421C135.112 405.783 136.373 398.725 136.373 391.751C136.373 377.383 131.415 363.771 122.509 352.511C114.106 342.092 102.175 335.286 88.8986 333.185C87.8903 333.017 86.8819 333.017 85.7896 333.017C76.7149 333.017 68.9005 338.983 66.4638 347.722C66.2957 348.394 66.1277 349.234 66.1277 349.906C66.1277 354.36 69.7408 358.141 74.3622 358.141C74.8663 358.141 75.3705 358.141 75.8747 357.973C81.3363 356.964 85.2855 352.175 85.2855 346.713C85.2855 346.545 85.2855 346.545 85.2855 346.377C86.6299 345.873 88.2264 345.705 89.7388 345.705C97.8053 345.705 104.275 352.175 104.275 360.241C104.275 362.09 103.939 364.191 103.099 365.871C113.35 366.543 120.996 375.114 120.996 385.197C120.996 386.709 120.828 388.306 120.492 389.818C109.905 379.567 96.0407 373.769 81.4203 373.769C81.2523 373.769 81.0842 373.769 80.9162 373.769L80.7481 373.769C67.22 373.769 56.4648 362.846 56.4648 349.486C56.4648 344.865 57.6411 340.411 60.0779 336.714C63.6909 330.917 69.1526 326.295 75.6225 323.774C69.1526 321.254 63.6909 316.8 60.0779 310.834C57.7251 306.885 56.4648 302.432 56.4648 298.063C56.4648 284.535 67.388 273.779 80.7481 273.779L80.9162 273.779C81.0842 273.779 81.2523 273.779 81.4203 273.779C96.1248 273.779 110.073 267.982 120.492 257.73C120.828 259.243 120.996 260.839 120.996 262.352C120.996 272.603 113.182 281.005 103.099 281.678C103.771 283.358 104.275 285.459 104.275 287.307C104.275 295.374 97.8053 301.844 89.7389 301.844C88.2264 301.844 86.6299 301.676 85.2855 301.172C85.2855 301.003 85.2855 301.004 85.2855 300.836C85.2855 295.374 81.3363 290.584 75.8747 289.576C75.3705 289.408 74.8663 289.408 74.3622 289.408C69.9088 289.408 66.1277 293.021 66.1277 297.643C66.1277 298.483 66.2957 299.155 66.4638 299.827C68.9845 308.566 76.8829 314.532 85.7896 314.532C86.7979 314.532 87.8063 314.532 88.8986 314.364C102.259 312.347 114.022 305.457 122.509 295.038C131.583 283.946 136.373 270.082 136.373 255.798C136.373 248.824 135.197 241.598 132.76 235.128C131.079 230.338 126.458 227.061 121.332 227.061C115.535 228.406 110.745 232.523 109.569 237.984Z" fill="#842D35"/>
</g>
<defs>
<clipPath id="clip0_64_85">
<rect width="432" height="432" fill="white"/>
</clipPath>
</defs>
</svg>
