<svg width="432px" height="432px" id="faixas" viewBox="0 0 432 432" fill="none" xmlns="http://www.w3.org/2000/svg">
<g clip-path="url(#clip0_65_224)">
<path d="M213.503 0H0V213.587H213.503V0Z" fill="#1E3748"/>
<path d="M213.587 24.1641H25.093V213.503H213.587V24.1641Z" fill="#D9CEC0"/>
<path d="M213.502 179.624H179.538V213.588H213.502V179.624Z" fill="#1E3748"/>
<path d="M43.1738 41.991C47.3137 37.6821 52.383 34.3025 57.9593 31.9368C54.6642 29.2332 50.6088 27.6279 46.2999 27.6279C41.3996 27.6279 36.7527 29.5711 33.2886 33.2042C29.8246 36.5837 27.7124 41.3151 27.7124 46.2999C27.7124 50.6088 29.3176 54.7487 31.8523 57.9593C34.6404 51.7916 38.2734 46.4689 43.1738 41.991Z" fill="#1E3748"/>
<path d="M196.943 83.9815C198.294 85.7558 200.407 86.6851 202.519 86.6851C202.857 86.6851 203.195 86.6851 203.533 86.6851C203.702 86.6851 204.04 86.6851 204.209 86.6851C206.828 86.6851 209.109 88.7974 209.109 91.501C209.109 93.4443 207.926 95.4719 205.983 95.9789C204.04 96.6548 202.857 98.5136 202.857 100.457C202.857 103.16 204.969 105.273 207.757 105.273V112.961C207.757 113.13 207.757 113.13 207.757 113.299C207.757 114.397 208.602 115.073 209.7 115.073C210.038 115.073 210.376 114.904 210.714 114.904C210.376 116.172 210.376 117.608 210.376 118.875C210.376 122.846 211.559 126.733 213.84 130.197V56.5227C209.869 53.4811 207.419 48.8343 207.419 43.7649C207.419 42.3286 207.588 41.0612 207.926 39.7939C207.757 39.7939 207.419 39.7939 207.25 39.7939C205.138 39.7939 203.448 41.5682 203.448 43.7649C203.448 45.5392 203.786 47.3135 204.631 48.7498C207.081 53.3967 208.771 58.6349 209.7 63.7887C209.7 63.9577 209.869 64.1267 209.869 64.4647C209.869 65.394 209.362 66.0699 208.687 66.4078C208.18 66.5768 207.504 66.7458 206.912 66.7458C206.574 66.7458 206.236 66.7459 205.898 66.5769C203.955 66.0699 202.772 64.4646 202.603 62.4369C202.265 56.6917 200.998 50.9465 199.139 45.3702C198.294 43.596 196.52 42.3286 194.408 42.3286C194.07 42.3286 193.901 42.3286 193.563 42.3286C191.958 39.4559 190.099 36.7524 187.987 34.0487C185.537 31.1761 181.904 29.4019 178.102 29.4019C173.793 29.4019 169.737 31.514 167.287 35.147C171.427 36.2454 175.314 38.6955 177.933 42.3286C183.847 50.4395 188.24 59.5643 190.606 69.2805C191.028 74.7722 193.479 79.6726 196.943 83.9815Z" fill="#1E3748"/>
<path d="M159.261 159.176C173.371 163.485 187.988 166.358 202.773 167.963C203.111 167.963 203.449 167.963 203.787 167.963C206.237 167.963 208.518 167.033 210.377 165.597C211.222 164.921 211.729 163.992 211.729 162.894C211.729 161.964 211.391 160.95 210.715 160.359C208.265 157.993 204.801 156.557 201.506 156.388C202.182 155.29 202.52 154.022 202.52 153.008C202.52 149.967 200.407 147.263 197.45 146.587C194.155 145.658 190.86 145.32 187.565 145.32C184.27 145.32 180.975 145.658 177.849 146.587C183.425 135.435 186.382 123.268 186.382 111.018C186.382 67.2524 150.897 31.6826 107.216 31.6826C87.1926 31.6826 67.9291 39.2021 53.3126 52.8893C39.7099 67.5903 32.106 86.8537 32.106 106.878C32.106 150.643 67.5912 186.212 111.272 186.212C123.607 186.212 135.774 183.34 146.757 177.764C145.912 180.974 145.574 184.185 145.574 187.48C145.574 190.859 146.081 194.154 146.926 197.365C147.771 200.237 150.39 202.35 153.347 202.35C154.53 202.35 155.797 202.012 156.811 201.42C156.98 204.8 158.163 208.264 160.613 210.714C161.289 211.39 162.218 211.813 163.232 211.813C164.246 211.813 165.345 211.306 166.021 210.545C167.626 208.771 168.302 206.405 168.302 203.871C168.302 203.533 168.302 203.195 168.302 202.772C166.358 187.902 163.401 173.37 159.261 159.176Z" fill="#1E3748"/>
<path d="M69.6186 189.846C59.9024 187.312 50.6931 183.003 42.6667 177.088C39.2027 174.385 36.5835 170.667 35.5696 166.527C32.1056 168.893 29.8245 172.949 29.8245 177.257C29.8245 181.059 31.5987 184.777 34.5558 187.312C37.175 189.424 39.7941 191.283 42.7512 192.888C42.7512 193.226 42.7512 193.395 42.7512 193.817C42.7512 195.76 43.934 197.788 45.7083 198.464C51.2845 200.407 57.0298 201.506 62.775 201.844C64.7183 202.013 66.408 203.28 66.9149 205.054C66.9149 205.392 67.0839 205.73 67.0839 205.984C67.0839 206.491 66.915 207.251 66.746 207.758C66.239 208.434 65.5631 208.856 64.6338 208.856C64.4648 208.856 64.1268 208.856 63.9578 208.687C58.7195 207.758 53.4813 206.153 48.8344 203.702C47.2291 203.026 45.5394 202.604 43.7651 202.604C41.6529 202.604 39.9631 204.378 39.9631 206.575C39.9631 206.744 39.9631 207.082 39.9631 207.251C41.1459 206.913 42.5822 206.744 43.934 206.744C49.0034 206.744 53.6502 209.11 56.6073 213.165H130.197C126.902 210.799 122.846 209.617 118.875 209.617C117.524 209.617 116.256 209.786 114.905 209.955C115.073 209.617 115.242 209.448 115.242 209.025C115.242 207.927 114.398 207.251 113.299 207.251C113.13 207.251 113.13 207.251 112.961 207.251H105.273C105.273 204.547 103.161 202.435 100.373 202.435C98.2603 202.435 96.5705 203.702 95.8101 205.646C95.1342 207.589 93.3599 208.856 91.2477 208.856C88.6285 208.856 86.3473 206.744 86.3473 204.04C86.3473 203.871 86.3473 203.533 86.3473 203.364C86.3473 203.027 86.3473 202.689 86.3473 202.266C86.3473 200.154 85.3335 197.957 83.5592 196.69C79.6728 193.648 74.8569 191.114 69.6186 189.846Z" fill="#1E3748"/>
<path d="M204.124 186.467C200.998 184.862 197.534 183.932 193.817 183.763C189.677 183.594 185.452 182.834 181.481 181.651C182.664 185.622 183.425 189.931 183.594 194.071C183.763 197.619 184.607 201.083 186.382 204.294C188.663 208.434 192.803 211.137 197.703 211.137C201.167 211.137 204.631 209.701 206.913 206.997C209.532 204.632 210.883 201.252 210.883 197.704C210.883 192.888 208.264 188.579 204.124 186.467Z" fill="#D9CEC0"/>
<path d="M213.503 32.2749C210.884 34.0492 208.772 36.7528 207.589 39.6254C207.251 40.8927 207.082 42.329 207.082 43.5963C207.082 48.5811 209.532 53.4816 213.503 56.3542V32.2749Z" fill="#DBC17D"/>
<path d="M39.7095 207.673C36.7524 208.94 34.1332 210.883 32.1899 213.587H56.3537C53.3966 209.447 48.6652 207.166 43.6804 207.166C42.4975 207.081 41.0613 207.25 39.7095 207.673Z" fill="#DBC17D"/>
<path d="M143.04 146.08C140.927 141.771 136.787 139.068 132.056 139.068C126.818 139.068 122.171 142.447 120.566 147.348C120.228 148.446 120.059 149.291 120.059 150.389C120.059 156.134 124.79 160.781 130.366 160.781C130.535 160.781 130.704 160.781 131.042 160.781C124.621 163.147 117.777 164.33 110.849 164.33C78.8282 164.33 52.8902 138.307 52.8902 106.371C52.8902 92.0075 58.2975 78.1513 67.8447 67.5902C78.4903 57.874 92.3464 52.7203 106.625 52.7203C138.646 52.7203 164.584 78.7427 164.584 110.679C164.584 117.523 163.401 124.536 160.951 130.957C160.951 130.788 160.951 130.619 160.951 130.281C160.951 124.536 156.22 119.889 150.644 119.889C149.63 119.889 148.531 120.058 147.517 120.396C142.448 122.001 139.153 126.648 139.153 131.886C139.153 136.533 141.772 140.842 146.081 142.87C148.362 143.799 150.813 144.137 153.009 144.137C160.36 144.137 166.95 140.166 170.414 133.745C173.54 127.324 175.145 120.142 175.145 112.961C175.145 112.285 175.145 111.355 175.145 110.595C175.145 72.7441 144.56 41.9902 106.625 41.9902C89.3893 41.9902 72.8295 48.4114 60.3252 60.1553C48.6658 72.9131 42.2446 89.3884 42.2446 106.624C42.2446 144.475 72.8295 175.229 110.765 175.229C111.441 175.229 112.37 175.229 113.046 175.229C120.143 175.229 127.325 173.624 133.915 170.582C140.336 167.033 144.222 160.359 144.222 153.177C144.222 150.727 143.885 148.446 143.04 146.08Z" fill="#DBC17D"/>
<path d="M110.849 153.938C110.173 151.995 109.835 149.967 109.835 147.855C109.835 137.801 118.03 129.521 128.084 129.521C128.591 129.521 128.929 129.521 129.436 129.521C129.436 129.014 129.436 128.591 129.436 128.084C129.436 118.03 137.632 109.75 147.686 109.75C149.798 109.75 151.826 110.088 153.769 110.849C153.769 84.8263 132.562 63.6196 106.624 63.6196C95.1337 63.6196 83.9812 67.7596 75.2789 75.448C67.5904 84.0659 63.4504 95.2184 63.4504 106.709C63.7039 132.816 84.7416 153.938 110.849 153.938Z" fill="#D9CEC0"/>
<path d="M96.2329 81.1089C94.4587 77.5604 90.8257 75.3638 86.8547 75.3638C85.5029 75.3638 83.8976 75.7017 82.7147 76.2931C81.3629 76.8001 80.0956 77.7294 78.9128 78.6587C77.8989 79.7571 77.1385 81.1934 76.4626 82.4607C75.9556 83.7281 75.6177 85.3334 75.6177 86.7697C75.6177 90.7407 77.8989 94.2892 81.3629 96.0635C85.1649 98.0067 89.3893 99.105 93.5292 99.274C97.8382 100.203 101.894 101.978 105.189 104.85C102.401 101.471 100.457 97.4998 99.6125 93.1909C99.19 89.1354 98.1762 85.0799 96.2329 81.1089Z" fill="#C0834B"/>
<path d="M113.975 116.425C106.456 120.565 100.035 126.48 95.2187 133.492C93.6135 135.604 92.9376 138.308 92.9376 141.012C92.9376 142.617 93.2756 144.222 93.7825 145.827C94.7963 148.362 97.2465 150.136 99.8656 150.136C103.499 150.136 106.456 147.095 106.456 143.462V143.293C106.456 143.124 106.456 142.955 106.456 142.786C106.456 133.239 114.313 125.381 123.691 125.381C124.198 125.381 124.874 125.381 125.466 125.55C125.466 125.043 125.297 124.283 125.297 123.776C125.297 114.229 133.154 106.371 142.532 106.371C142.701 106.371 142.87 106.371 143.039 106.371H143.208C146.841 106.371 149.799 103.33 149.799 99.6966C149.799 96.993 148.024 94.4583 145.659 93.6135C144.053 93.1065 142.532 92.6841 140.927 92.6841C138.308 92.6841 135.689 93.36 133.408 95.0497C126.311 99.8656 120.565 106.371 116.341 113.891C118.791 106.371 121.917 99.1897 125.719 92.1771C126.564 89.8114 126.902 87.5303 126.902 85.1646C126.902 81.1936 125.888 77.3071 123.607 74.012C121.833 71.3084 118.707 69.7031 115.581 69.7031C111.948 69.7031 108.821 71.6464 107.047 74.9415C104.259 79.4194 102.907 84.8266 102.907 89.9804C102.907 94.6273 104.09 99.5276 106.202 103.583C106.54 104.259 106.709 105.019 106.709 105.695C106.709 106.033 106.709 106.371 106.54 106.794C106.202 106.963 105.864 106.963 105.526 106.963C104.851 106.963 103.921 106.794 103.414 106.456C99.2743 104.343 94.5429 103.076 89.8116 103.076C84.4043 103.076 79.166 104.512 74.6881 107.385C71.562 108.99 69.4497 112.37 69.4497 115.834C69.4497 119.044 71.0551 122.086 73.7587 123.945C77.0538 126.057 80.8557 127.155 84.9112 127.155C87.3613 127.155 89.8115 126.817 92.0082 125.888C99.1898 122.002 106.456 118.96 113.975 116.425Z" fill="#C0834B"/>
<path d="M187.058 192.549C187.058 192.38 187.058 192.042 187.058 191.873C187.058 189.761 186.72 187.733 185.875 185.79C187.818 186.719 189.846 187.057 191.958 187.057C192.127 187.057 192.465 187.057 192.634 187.057C192.803 187.057 193.141 187.057 193.31 187.057C197.281 187.057 201.167 188.663 204.125 191.366C205.476 192.972 206.406 194.915 206.406 197.112C206.406 199.477 205.392 201.758 203.618 203.364C202.012 205.138 199.816 206.236 197.365 206.236C195.253 206.236 193.226 205.307 191.62 203.871C188.832 200.998 187.311 197.027 187.311 193.141C187.058 193.141 187.058 192.718 187.058 192.549Z" fill="#DBC17D"/>
<path d="M430.877 0H217.29V213.756H430.877V0Z" fill="#1E3748"/>
<path d="M430.877 179.738H217.29V213.671H430.877V179.738Z" fill="#1E3748"/>
<path d="M430.877 24.2021H217.29V179.738H430.877V24.2021Z" fill="#D9CEC0"/>
<path d="M407.352 69.4746C408.706 74.7212 411.16 79.5447 414.461 83.8604C415.815 85.6375 417.93 86.5684 419.961 86.5684C420.3 86.5684 420.638 86.5684 420.977 86.5684C421.146 86.5684 421.484 86.5684 421.654 86.5684C424.277 86.5684 426.477 88.6839 426.477 91.3918C426.477 93.3381 425.292 95.3691 423.346 95.8768C421.484 96.5538 420.215 98.4154 420.215 100.362C420.215 103.07 422.5 105.185 425.038 105.185V112.886C425.038 113.055 425.038 113.055 425.038 113.224C425.038 114.325 425.885 115.001 426.9 115.001C427.239 115.001 427.577 114.832 427.916 114.832C427.577 116.102 427.577 117.54 427.577 118.809C427.577 122.787 428.762 126.679 431.047 130.149V56.3581C426.9 53.3117 424.446 48.6575 424.446 43.5801C424.446 42.1416 424.615 40.8723 424.954 39.6029C424.785 39.6029 424.446 39.6029 424.277 39.6029C422.161 39.6029 420.3 41.38 420.3 43.5801C420.3 45.3572 420.638 47.1343 421.484 48.5729C423.938 53.2271 425.631 58.4738 426.477 63.6357C426.477 63.805 426.646 63.9741 426.646 64.3126C426.646 65.2435 426.139 65.9205 425.462 66.259C424.954 66.4282 424.277 66.5975 423.769 66.5975C423.431 66.5975 423.092 66.5974 422.754 66.4282C420.892 65.9205 419.623 64.3126 419.453 62.2817C419.115 56.5274 417.93 50.7731 415.984 45.188C415.138 43.4109 413.191 42.1416 411.33 42.1416C410.991 42.1416 410.822 42.1416 410.483 42.1416C408.96 39.2644 407.014 36.5565 404.983 33.8486C402.529 30.9714 398.975 29.1943 394.997 29.1943C390.682 29.1943 386.705 31.3099 384.25 34.9487C388.566 36.0488 392.205 38.5028 394.997 42.1416C400.667 50.6038 404.983 59.743 407.352 69.4746Z" fill="#1E3748"/>
<path d="M225.583 66.7663C225.244 66.7663 224.906 66.9355 224.567 66.9355C224.059 66.9355 223.382 66.7664 222.875 66.5971C222.198 66.2586 221.69 65.3277 221.69 64.6508C221.69 64.4815 221.69 64.143 221.859 63.9737C222.705 58.7271 224.482 53.5652 226.852 48.911C227.529 47.3032 228.037 45.5261 228.037 43.9183C228.037 41.8027 226.344 39.9411 224.059 39.9411C223.89 39.9411 223.552 39.9411 223.382 39.9411C223.721 41.2104 223.89 42.6489 223.89 43.9183C223.89 48.911 221.436 53.8191 217.29 56.6962V130.487C219.574 127.271 220.759 123.294 220.759 119.148C220.759 117.878 220.59 116.44 220.421 115.17C220.759 115.34 221.098 115.34 221.436 115.34C222.452 115.34 223.298 114.409 223.298 113.563C223.298 113.393 223.298 113.393 223.298 113.224V105.523C225.921 105.523 228.121 103.408 228.121 100.7C228.121 98.7536 226.936 96.7227 224.99 96.215C223.128 95.538 221.859 93.6762 221.859 91.7299C221.859 89.022 224.144 86.9065 226.683 86.9065C226.852 86.9065 227.19 86.9065 227.36 86.9065C227.698 86.9065 228.037 86.9065 228.375 86.9065C230.66 86.9065 232.691 85.8063 233.876 84.1985C237.176 79.8828 239.545 75.0593 240.984 69.8127C243.438 60.0811 247.754 50.942 253.762 42.9028C256.385 39.3487 260.193 36.81 264.509 35.7099C262.055 32.1558 258.078 29.9556 253.762 29.9556C249.954 29.9556 246.315 31.7326 243.776 34.6098C241.661 37.1485 239.799 39.8564 238.276 42.9028C237.937 42.9028 237.768 42.9028 237.43 42.9028C235.314 42.9028 233.622 44.1722 232.775 45.9492C230.914 51.5343 229.644 57.2886 229.306 63.0429C228.714 64.4815 227.444 66.2586 225.583 66.7663Z" fill="#1E3748"/>
<path d="M431.046 32.3257C428.423 34.1028 426.392 36.8106 425.038 39.6878C424.699 40.9571 424.53 42.3957 424.53 43.665C424.53 48.6577 426.984 53.5659 431.131 56.4431V32.3257H431.046Z" fill="#DBC17D"/>
<path d="M340.67 148.343C339.316 145.466 338.385 142.42 338.385 139.204C338.385 132.011 342.193 125.58 348.37 121.941C351.671 120.164 354.971 118.556 358.356 117.118C362.502 116.187 365.295 112.463 365.295 108.317C365.295 107.386 365.125 106.371 364.787 105.44C363.095 101.632 359.456 99.347 355.309 99.347C352.855 99.347 350.655 100.278 348.709 101.716C338.3 109.84 331.446 121.264 328.822 134.211C330.176 120.587 332.461 107.048 335.761 93.7619C336.1 92.1541 336.269 90.5463 336.269 89.1077C336.269 84.115 334.154 79.0376 330.769 75.4835C328.907 73.7064 326.453 72.437 323.83 72.437C321.206 72.437 318.668 73.5372 316.891 75.4835C313.252 79.0376 311.39 84.115 311.39 89.1077C311.39 90.7155 311.56 92.3233 311.898 93.7619C315.198 107.048 317.568 120.503 318.837 134.211C316.214 121.264 309.19 109.756 298.951 101.716C297.089 100.278 294.804 99.347 292.35 99.347C288.204 99.347 284.565 101.716 282.872 105.44C282.534 106.371 282.365 107.217 282.365 108.317C282.365 112.463 285.326 116.187 289.304 117.118C292.773 118.556 296.243 120.164 299.289 121.941C305.551 125.495 309.275 132.011 309.275 139.204C309.275 142.42 308.598 145.466 306.99 148.343C305.636 151.051 304.705 154.098 304.705 157.144V157.313C304.705 160.191 306.99 162.306 309.867 162.306H310.036C307.413 164.422 304.874 166.791 302.251 169.16C300.389 170.768 299.289 173.307 299.289 175.846C299.289 176.015 299.289 176.015 299.289 176.184C299.289 177.284 299.966 178.3 300.982 178.723C302.336 179.231 303.943 179.654 305.467 179.654C306.821 179.654 308.09 179.484 309.444 178.977C314.606 176.099 319.26 172.884 323.576 168.907C327.892 172.884 332.715 176.099 337.708 178.977C338.893 179.315 340.331 179.654 341.685 179.654C343.208 179.654 344.816 179.315 346.17 178.723C347.186 178.384 347.863 177.284 347.863 176.184C347.863 176.015 347.863 176.015 347.863 175.846C347.863 173.307 346.847 170.853 344.901 169.16C342.277 166.791 339.739 164.676 337.115 162.306H337.285C340.077 162.306 342.447 159.937 342.447 157.313V157.144C342.954 154.098 342.024 151.051 340.67 148.343Z" fill="#C0834B"/>
<path d="M256.3 152.067C252.83 151.136 249.53 150.459 245.891 149.951C245.553 149.951 245.214 149.951 244.876 149.951C243.014 149.951 241.068 150.628 239.714 152.067C239.037 153.336 238.867 154.605 238.867 156.044C238.867 157.821 239.375 159.429 240.391 160.867C239.206 160.529 237.937 160.36 236.752 160.36C233.79 160.36 230.913 161.291 228.459 163.068C227.782 163.575 227.443 164.337 227.443 165.014C227.443 165.522 227.613 165.945 227.782 166.283C230.067 169.16 233.452 170.768 237.09 171.107C241.068 171.276 245.045 171.276 249.191 171.276C254.522 171.276 259.938 171.107 265.1 170.937C266.454 170.937 268.062 171.107 269.416 171.107C272.547 171.107 275.424 170.937 278.555 170.599C291.333 168.991 301.911 159.429 304.619 146.735C304.957 145.128 305.127 143.52 305.127 141.912C305.127 130.065 295.48 120.333 283.548 120.333C281.686 120.333 279.909 120.502 278.048 121.01C277.371 117.625 276.863 114.156 276.863 110.771C276.863 84.7072 298.103 63.5515 323.998 63.5515C350.061 63.5515 371.132 84.7072 371.132 110.771C371.132 114.156 370.794 117.625 369.948 121.01C368.255 120.502 366.309 120.333 364.447 120.333C352.515 120.333 342.868 130.065 342.868 141.912C342.868 143.52 343.038 145.128 343.376 146.735C346.338 159.344 356.662 168.822 369.44 170.599C372.571 170.937 375.448 171.107 378.579 171.107C379.933 171.107 381.541 171.107 382.895 170.937C388.226 171.276 393.642 171.276 398.804 171.276C402.781 171.276 406.758 171.276 410.905 171.107C414.544 170.937 417.844 169.16 420.213 166.283C420.383 165.945 420.552 165.352 420.552 165.014C420.552 164.337 420.213 163.406 419.536 163.068C417.082 161.291 414.205 160.36 411.243 160.36C410.058 160.36 408.789 160.529 407.604 160.867C408.62 159.429 409.128 157.652 409.128 156.044C409.128 154.605 408.789 153.336 408.281 152.067C406.927 150.628 404.981 149.951 403.119 149.951C402.781 149.951 402.443 149.951 402.104 149.951C398.635 150.459 395.165 151.22 391.695 152.067C399.311 139.712 403.289 125.326 403.289 110.771C403.289 66.9365 367.663 31.395 323.998 31.395C280.332 31.395 244.706 66.9365 244.706 110.771C244.791 125.495 248.937 139.712 256.3 152.067Z" fill="#1E3748"/>
<path d="M411.16 185.831H403.206H324.084H244.962H237.007C230.068 185.831 224.398 191.416 224.398 198.44C224.398 205.463 230.068 211.049 237.007 211.049H324.084H411.16C418.099 211.049 423.769 205.463 423.769 198.44C423.769 191.416 418.099 185.831 411.16 185.831Z" fill="#D9CEC0"/>
<path d="M290.064 129.472C289.049 129.133 287.949 128.964 286.764 128.964C284.31 128.964 281.941 130.064 280.164 131.841C278.979 134.38 278.302 137.088 278.048 139.711C278.048 140.049 278.048 140.642 278.048 140.98C278.048 142.926 278.217 144.957 278.556 146.904C270.432 136.664 266.116 124.056 266.116 110.939C266.116 78.9519 292.011 52.8882 323.998 52.8882C355.985 52.8882 381.88 78.9519 381.88 110.939C381.88 123.886 377.564 136.664 369.44 146.904C369.779 144.957 369.948 142.926 369.948 140.98C369.948 140.642 369.948 140.049 369.948 139.711C369.948 137.003 369.271 134.126 367.832 131.841C366.14 130.064 363.855 128.964 361.232 128.964C360.216 128.964 358.947 129.133 357.931 129.472C351.923 131.587 347.946 137.341 347.946 143.688C347.946 148.935 350.569 153.758 355.054 156.466C358.016 158.412 361.486 159.343 364.871 159.343C368.679 159.343 372.317 158.074 375.448 155.958C386.365 143.35 392.373 127.356 392.373 110.685C392.373 72.7746 361.655 42.0566 323.744 42.0566C285.918 42.0566 255.115 72.7746 255.115 110.685C255.115 127.356 261.123 143.35 272.04 155.958C275.171 158.074 278.81 159.343 282.618 159.343C286.087 159.343 289.557 158.243 292.434 156.466C296.919 153.758 299.542 148.935 299.542 143.688C300.05 137.341 296.073 131.587 290.064 129.472Z" fill="#DBC17D"/>
<path d="M237.006 189.13H244.961H324.083H403.205H411.159C416.321 189.13 420.468 193.277 420.468 198.439C420.468 203.685 416.321 207.747 411.159 207.747H324.083H237.006C231.844 207.747 227.698 203.601 227.698 198.439C227.698 193.277 231.844 189.13 237.006 189.13Z" fill="#DBC17D"/>
<path d="M218.136 56.3586C222.113 53.4814 224.568 48.658 224.568 43.5806C224.568 42.3113 224.398 40.8728 224.06 39.6034C222.875 36.7263 220.76 34.0183 218.221 32.2412L218.136 56.3586Z" fill="#DBC17D"/>
<path d="M2.80086e-05 218.413L0 432L213.756 432L213.756 218.413L2.80086e-05 218.413Z" fill="#1E3748"/>
<path d="M179.738 218.413L179.738 432L213.671 432L213.671 218.413L179.738 218.413Z" fill="#1E3748"/>
<path d="M24.2022 218.413L24.2021 432L179.738 432L179.738 218.413L24.2022 218.413Z" fill="#D9CEC0"/>
<path d="M69.4751 241.937C74.7217 240.583 79.5451 238.129 83.8609 234.829C85.638 233.475 86.5689 231.359 86.5689 229.328C86.5689 228.99 86.5689 228.652 86.5689 228.313C86.5689 228.144 86.5689 227.805 86.5689 227.636C86.5689 225.013 88.6844 222.813 91.3923 222.813C93.3386 222.813 95.3696 223.997 95.8773 225.944C96.5543 227.805 98.4159 229.075 100.362 229.075C103.07 229.075 105.186 226.79 105.186 224.251L112.886 224.251C113.056 224.251 113.056 224.251 113.225 224.251C114.325 224.251 115.002 223.405 115.002 222.389C115.002 222.051 114.833 221.712 114.833 221.374C116.102 221.712 117.541 221.712 118.81 221.712C122.787 221.712 126.68 220.528 130.149 218.243L56.3586 218.243C53.3122 222.389 48.658 224.843 43.5806 224.843C42.1421 224.843 40.8728 224.674 39.6034 224.336C39.6034 224.505 39.6034 224.843 39.6034 225.013C39.6034 227.128 41.3805 228.99 43.5806 228.99C45.3577 228.99 47.1348 228.651 48.5734 227.805C53.2276 225.351 58.4742 223.659 63.6362 222.813C63.8055 222.813 63.9746 222.643 64.3131 222.643C65.244 222.643 65.921 223.151 66.2595 223.828C66.4287 224.336 66.598 225.013 66.598 225.52C66.598 225.859 66.5979 226.197 66.4287 226.536C65.921 228.398 64.3131 229.667 62.2822 229.836C56.5278 230.175 50.7736 231.359 45.1885 233.306C43.4114 234.152 42.1421 236.098 42.1421 237.96C42.1421 238.298 42.1421 238.468 42.1421 238.806C39.2649 240.329 36.557 242.276 33.8491 244.307C30.9719 246.761 29.1948 250.315 29.1948 254.292C29.1948 258.608 31.3104 262.585 34.9492 265.039C36.0493 260.723 38.5033 257.085 42.1421 254.292C50.6043 248.622 59.7435 244.307 69.4751 241.937Z" fill="#1E3748"/>
<path d="M66.7668 423.707C66.7668 424.045 66.936 424.384 66.936 424.722C66.936 425.23 66.7668 425.907 66.5976 426.415C66.2591 427.092 65.3282 427.6 64.6512 427.6C64.482 427.6 64.1435 427.6 63.9742 427.43C58.7276 426.584 53.5657 424.807 48.9115 422.438C47.3037 421.761 45.5266 421.253 43.9188 421.253C41.8032 421.253 39.9415 422.945 39.9415 425.23C39.9415 425.399 39.9415 425.738 39.9415 425.907C41.2109 425.569 42.6494 425.399 43.9188 425.399C48.9115 425.399 53.8196 427.854 56.6967 432L130.488 432C127.272 429.715 123.295 428.531 119.148 428.531C117.879 428.531 116.44 428.7 115.171 428.869C115.34 428.531 115.34 428.192 115.34 427.853C115.34 426.838 114.409 425.992 113.563 425.992C113.394 425.992 113.394 425.992 113.225 425.992L105.524 425.992C105.524 423.369 103.408 421.168 100.7 421.168C98.7541 421.168 96.7232 422.353 96.2154 424.299C95.5385 426.161 93.6767 427.43 91.7304 427.43C89.0225 427.43 86.907 425.146 86.907 422.607C86.907 422.438 86.907 422.099 86.907 421.93C86.907 421.591 86.907 421.253 86.907 420.914C86.907 418.63 85.8068 416.599 84.199 415.414C79.8833 412.114 75.0598 409.744 69.8132 408.306C60.0816 405.852 50.9425 401.536 42.9033 395.528C39.3492 392.904 36.8105 389.096 35.7104 384.781C32.1563 387.235 29.9561 391.212 29.9561 395.528C29.9561 399.336 31.7331 402.974 34.6103 405.513C37.149 407.629 39.8569 409.49 42.9033 411.014C42.9033 411.352 42.9033 411.521 42.9033 411.86C42.9033 413.975 44.1726 415.668 45.9497 416.514C51.5348 418.376 57.2891 419.645 63.0434 419.984C64.482 420.576 66.2591 421.845 66.7668 423.707Z" fill="#1E3748"/>
<path d="M32.3257 218.243C34.1028 220.867 36.8106 222.898 39.6878 224.252C40.9571 224.59 42.3957 224.759 43.665 224.759C48.6577 224.759 53.5659 222.305 56.4431 218.159L32.3257 218.159L32.3257 218.243Z" fill="#DBC17D"/>
<path d="M148.343 308.62C145.466 309.974 142.419 310.905 139.204 310.905C132.011 310.905 125.579 307.097 121.941 300.92C120.164 297.62 118.556 294.319 117.117 290.934C116.186 286.788 112.463 283.995 108.316 283.995C107.386 283.995 106.37 284.165 105.439 284.503C101.631 286.195 99.3465 289.834 99.3465 293.981C99.3465 296.435 100.277 298.635 101.716 300.581C109.84 310.99 121.264 317.844 134.211 320.468C120.587 319.114 107.047 316.829 93.7614 313.529C92.1536 313.19 90.5458 313.021 89.1072 313.021C84.1145 313.021 79.0372 315.136 75.483 318.521C73.7059 320.383 72.4365 322.837 72.4365 325.46C72.4365 328.084 73.5367 330.622 75.483 332.399C79.0372 336.038 84.1145 337.9 89.1072 337.9C90.715 337.9 92.3229 337.731 93.7614 337.392C107.047 334.092 120.502 331.722 134.211 330.453C121.264 333.076 109.755 340.1 101.716 350.339C100.277 352.201 99.3465 354.486 99.3465 356.94C99.3465 361.086 101.716 364.725 105.439 366.418C106.37 366.756 107.216 366.925 108.316 366.925C112.463 366.925 116.186 363.964 117.117 359.986C118.556 356.517 120.164 353.047 121.941 350.001C125.495 343.739 132.011 340.015 139.204 340.015C142.419 340.015 145.466 340.692 148.343 342.3C151.051 343.654 154.097 344.585 157.144 344.585L157.313 344.585C160.19 344.585 162.306 342.3 162.306 339.423L162.306 339.254C164.421 341.877 166.791 344.416 169.16 347.039C170.768 348.901 173.307 350.001 175.845 350.001C176.014 350.001 176.014 350.001 176.184 350.001C177.284 350.001 178.299 349.324 178.722 348.308C179.23 346.954 179.653 345.347 179.653 343.823C179.653 342.469 179.484 341.2 178.976 339.846C176.099 334.684 172.883 330.03 168.906 325.714C172.883 321.398 176.099 316.575 178.976 311.582C179.315 310.398 179.653 308.959 179.653 307.605C179.653 306.082 179.315 304.474 178.722 303.12C178.384 302.105 177.284 301.428 176.184 301.428C176.014 301.428 176.014 301.428 175.845 301.428C173.307 301.428 170.852 302.443 169.16 304.389C166.791 307.013 164.675 309.551 162.306 312.175L162.306 312.005C162.306 309.213 159.936 306.843 157.313 306.843L157.144 306.843C154.097 306.336 151.051 307.266 148.343 308.62Z" fill="#C0834B"/>
<path d="M152.067 392.99C151.136 396.46 150.459 399.76 149.951 403.398C149.951 403.737 149.951 404.076 149.951 404.414C149.951 406.276 150.628 408.222 152.067 409.576C153.336 410.253 154.605 410.422 156.044 410.422C157.821 410.422 159.429 409.914 160.867 408.899C160.529 410.084 160.36 411.353 160.36 412.538C160.36 415.5 161.291 418.377 163.068 420.831C163.575 421.508 164.337 421.846 165.014 421.846C165.522 421.846 165.945 421.677 166.283 421.508C169.16 419.223 170.768 415.838 171.107 412.199C171.276 408.222 171.276 404.245 171.276 400.098C171.276 394.767 171.107 389.351 170.937 384.189C170.937 382.835 171.107 381.227 171.107 379.874C171.107 376.742 170.937 373.865 170.599 370.734C168.991 357.956 159.429 347.379 146.735 344.671C145.128 344.332 143.52 344.163 141.912 344.163C130.065 344.163 120.333 353.81 120.333 365.742C120.333 367.603 120.502 369.38 121.01 371.242C117.625 371.919 114.156 372.427 110.771 372.427C84.7072 372.427 63.5515 351.187 63.5515 325.292C63.5516 299.228 84.7072 278.157 110.771 278.157C114.156 278.157 117.625 278.496 121.01 279.342C120.502 281.034 120.333 282.981 120.333 284.842C120.333 296.774 130.065 306.421 141.912 306.421C143.52 306.421 145.128 306.252 146.735 305.914C159.344 302.952 168.822 292.628 170.599 279.85C170.937 276.719 171.107 273.842 171.107 270.711C171.107 269.357 171.107 267.749 170.937 266.395C171.276 261.064 171.276 255.648 171.276 250.486C171.276 246.509 171.276 242.531 171.107 238.385C170.937 234.746 169.16 231.446 166.283 229.076C165.945 228.907 165.352 228.738 165.014 228.738C164.337 228.738 163.406 229.076 163.068 229.753C161.291 232.207 160.36 235.085 160.36 238.046C160.36 239.231 160.529 240.5 160.867 241.685C159.429 240.67 157.652 240.162 156.044 240.162C154.605 240.162 153.336 240.5 152.067 241.008C150.628 242.362 149.951 244.308 149.951 246.17C149.951 246.509 149.951 246.847 149.951 247.186C150.459 250.655 151.22 254.125 152.067 257.594C139.712 249.978 125.326 246.001 110.771 246.001C66.9365 246.001 31.395 281.627 31.395 325.292C31.395 368.957 66.9365 404.583 110.771 404.583C125.495 404.499 139.712 400.352 152.067 392.99Z" fill="#1E3748"/>
<path d="M185.831 238.129L185.831 246.084L185.831 325.206L185.831 404.328L185.831 412.282C185.831 419.221 191.416 424.891 198.44 424.891C205.463 424.891 211.049 419.221 211.049 412.282L211.049 325.206L211.049 238.129C211.049 231.19 205.464 225.521 198.44 225.521C191.416 225.521 185.831 231.19 185.831 238.129Z" fill="#D9CEC0"/>
<path d="M129.472 359.225C129.134 360.241 128.964 361.341 128.964 362.526C128.964 364.98 130.064 367.349 131.841 369.126C134.38 370.311 137.088 370.988 139.711 371.242C140.05 371.242 140.642 371.242 140.981 371.242C142.927 371.242 144.958 371.072 146.904 370.734C136.665 378.858 124.056 383.173 110.94 383.173C78.9524 383.173 52.8887 357.279 52.8887 325.292C52.8887 293.304 78.9524 267.41 110.94 267.41C123.887 267.41 136.665 271.726 146.904 279.849C144.958 279.511 142.927 279.342 140.981 279.342C140.642 279.342 140.05 279.342 139.711 279.342C137.003 279.342 134.126 280.019 131.842 281.457C130.064 283.15 128.964 285.435 128.964 288.058C128.964 289.073 129.134 290.343 129.472 291.358C131.588 297.366 137.342 301.343 143.689 301.343C148.935 301.343 153.759 298.72 156.467 294.235C158.413 291.273 159.344 287.804 159.344 284.419C159.344 280.611 158.074 276.972 155.959 273.841C143.35 262.925 127.357 256.917 110.686 256.917C72.7751 256.917 42.0571 287.635 42.0571 325.545C42.0571 363.372 72.775 394.174 110.686 394.174C127.357 394.174 143.35 388.166 155.959 377.25C158.074 374.119 159.344 370.48 159.344 366.672C159.344 363.203 158.244 359.733 156.467 356.856C153.759 352.371 148.935 349.748 143.689 349.748C137.342 349.24 131.588 353.217 129.472 359.225Z" fill="#DBC17D"/>
<path d="M189.13 412.283L189.13 404.329L189.13 325.207L189.13 246.085L189.13 238.13C189.13 232.968 193.277 228.822 198.439 228.822C203.685 228.822 207.747 232.968 207.747 238.13L207.747 325.207L207.747 412.283C207.747 417.445 203.601 421.592 198.439 421.592C193.277 421.592 189.13 417.445 189.13 412.283Z" fill="#DBC17D"/>
<path d="M56.3588 431.154C53.4817 427.177 48.6582 424.723 43.5809 424.723C42.3115 424.723 40.873 424.892 39.6037 425.23C36.7265 426.415 34.0185 428.531 32.2415 431.069L56.3588 431.154Z" fill="#DBC17D"/>
</g>
<defs>
<clipPath id="clip0_65_224">
<rect width="432" height="432" fill="white"/>
</clipPath>
</defs>
</svg>
