<svg width="432px" height="432px" id="faixas" viewBox="0 0 432 432" fill="none" xmlns="http://www.w3.org/2000/svg">
<g clip-path="url(#clip0_65_405)">
<path d="M214.612 0H0V213.598H214.612V0Z" fill="#602626"/>
<path d="M87.6196 92.6036C88.4646 86.5201 90.7459 80.7747 94.2101 75.5361C99.6176 79.0003 103.927 83.9009 106.968 89.6464C102.575 90.9983 99.1107 94.547 97.9278 99.0252C95.8155 95.392 92.0133 93.0261 87.6196 92.6036Z" fill="#E6BB7B"/>
<path d="M178.027 72.4102C158.847 58.9759 136.203 51.8784 112.883 51.8784C95.8151 51.8784 78.9166 55.6806 63.5389 63.0314C56.019 78.3246 52.2169 95.0542 52.2169 111.953C52.2169 126.908 55.1741 141.779 60.9196 155.467C55.3431 155.973 50.2736 159.269 47.6543 164.338C47.8233 164.338 47.8233 164.338 47.9923 164.338C50.7805 164.338 53.5688 164.845 56.0191 166.113C62.9475 168.394 69.2845 172.534 73.7626 178.28C82.2963 190.278 91.506 201.938 101.138 213.26H116.854C106.546 201.6 97.336 189.01 89.1402 175.829C86.183 170.422 84.0707 164.676 83.2257 158.593C82.5498 154.96 82.2119 151.242 82.2119 147.609C82.2119 146.003 82.2118 144.314 82.3808 142.708C78.2407 143.553 74.5229 146.341 72.4106 150.228C67.341 138.061 64.7218 125.134 64.7218 111.868C64.7218 98.2649 67.5101 84.6616 72.9177 72.3256C79.1701 69.1994 86.1829 67.4251 93.1113 67.4251C106.039 67.4251 118.206 73.0017 126.74 82.5493C129.359 87.2809 130.88 92.6884 130.88 98.265C130.88 105.447 128.429 112.375 124.12 117.952C125.303 118.121 126.402 118.29 127.584 118.29C130.88 118.29 134.175 117.614 137.132 116.008C137.301 117.614 137.47 119.135 137.47 120.909C137.47 125.472 136.625 129.781 135.189 134.174C133.414 139.582 129.274 143.891 123.867 145.834C122.684 146.172 121.247 146.51 120.065 146.51C117.107 146.51 114.319 145.496 112.038 143.553C109.249 140.765 107.644 137.132 107.475 133.245C106.292 133.752 104.856 134.259 103.504 134.428C102.49 134.597 101.561 134.597 100.547 134.597C99.5328 134.597 98.6034 134.597 97.5895 134.428C98.2654 140.342 101.392 145.75 106.292 149.214C109.925 152.002 114.319 153.354 118.797 153.354C121.585 153.354 124.374 152.847 126.993 151.58C132.232 149.468 136.372 145.665 138.822 140.596C142.117 134.174 144.06 126.993 144.229 119.726C145.243 125.303 148.961 130.034 154.2 132.231C159.776 128.598 163.071 122.514 163.071 116.008C163.071 115.67 163.071 115.501 163.071 115.164C168.141 116.346 173.211 116.938 178.196 116.938C182.336 116.938 186.56 116.6 190.7 115.755C178.703 111.192 168.056 103.757 159.692 94.1248C154.622 88.0413 148.708 82.4648 142.286 77.7332C133.921 71.6497 124.881 66.5801 115.079 62.9469C135.273 63.9609 154.453 70.8048 170.507 82.4648C185.462 93.2798 200.164 104.433 214.443 115.924V100.377C202.783 90.7451 190.616 81.2819 178.027 72.4102Z" fill="#B0B461"/>
<path d="M111.108 109.925C110.263 107.813 109.756 105.363 109.756 103.166C109.756 102.659 109.756 102.321 109.756 101.814C110.601 96.7444 114.994 92.9423 120.064 92.7733C117.614 90.6609 114.318 89.478 111.192 89.478C105.109 89.478 99.7012 93.6182 97.9268 99.6172C95.8145 95.984 92.0123 93.5337 87.6186 93.1957C87.4497 93.1957 87.1117 93.1957 86.9428 93.1957C83.9855 93.1957 81.0282 94.2096 78.7469 96.153C76.4656 97.9273 75.2827 100.547 75.2827 103.335C76.6346 101.983 78.578 101.223 80.5213 101.223C83.6476 101.223 86.4358 103.166 87.7032 105.954C88.5481 108.742 89.0551 111.7 89.0551 114.826C89.0551 116.178 88.8861 117.614 88.7171 118.966C88.5481 119.811 88.5481 120.74 88.5481 121.754C88.5481 125.387 89.731 128.936 92.0123 131.724C93.6177 133.499 95.4765 134.682 97.7578 135.189C98.7717 135.358 99.7011 135.358 100.715 135.358C101.729 135.358 102.827 135.358 103.672 135.189C105.024 135.02 106.461 134.682 107.643 134.006C108.826 133.499 110.094 132.654 110.939 131.724C113.389 129.274 114.572 125.979 114.572 122.684C114.572 122.515 114.572 122.346 114.572 122.346C114.487 117.361 113.22 113.389 111.108 109.925Z" fill="#C0834B"/>
<path d="M178.026 72.4107C190.531 81.2824 202.952 90.6611 214.612 100.462V41.7397H41.9932V213.514H101.223C91.675 202.192 82.5497 190.532 73.847 178.534C69.2844 172.788 63.0319 168.394 56.1035 166.367C53.4842 165.353 50.865 164.592 48.0767 164.592C48.0767 164.592 47.9077 164.592 47.7387 164.592C50.358 159.692 55.4275 156.396 61.004 155.721C55.2585 141.948 52.3013 127.162 52.3013 112.207C52.3013 95.3082 56.1035 78.4096 63.6234 63.2854C78.9166 55.9345 95.815 52.1324 112.967 52.1324C136.203 51.8789 158.847 59.2298 178.026 72.4107Z" fill="white"/>
<path d="M214.442 116.684C200.163 105.193 185.546 94.0404 170.506 83.2253C154.453 71.5653 135.357 64.7215 115.248 63.5386C124.796 67.1718 134.09 72.2413 142.455 78.3248C148.876 83.0564 154.621 88.6328 159.86 94.7163C168.225 104.433 178.871 111.784 190.869 116.347C186.729 117.191 182.504 117.529 178.364 117.529C173.294 117.529 168.056 117.022 163.24 115.755C163.24 116.093 163.24 116.262 163.24 116.6C163.24 123.19 159.945 129.358 154.368 132.823C149.129 130.541 145.327 125.894 144.398 120.318C144.229 127.669 142.286 134.766 138.99 141.187C136.54 146.257 132.231 150.059 127.161 152.171C124.542 153.185 121.754 153.946 118.966 153.946C114.403 153.946 110.094 152.594 106.461 149.806C101.56 146.341 98.2648 140.934 97.7578 135.019C95.4765 134.512 93.6178 133.245 92.0124 131.555C89.7311 128.767 88.5482 125.303 88.5482 121.585C88.5482 120.74 88.5482 119.811 88.7172 118.797C88.8861 117.445 89.0551 116.009 89.0551 114.657C89.0551 111.699 88.5482 108.742 87.7033 105.785C86.5204 102.997 83.7321 101.053 80.5214 101.053C78.5781 101.053 76.7192 101.729 75.2828 103.166C75.2828 100.377 76.6346 97.7581 78.747 95.9837C81.0283 94.0404 83.9856 93.0265 86.9428 93.0265C87.1118 93.0265 87.4497 93.0265 87.6187 93.0265C88.4636 86.943 90.745 81.1975 94.2092 75.959C99.6167 79.4232 103.926 84.3237 106.968 90.0692C108.319 89.5623 109.756 89.3933 111.108 89.3933C114.403 89.3933 117.529 90.5763 119.979 92.6886C114.91 93.0265 110.601 96.8287 109.671 101.729C109.671 102.236 109.671 102.574 109.671 103.081C109.671 105.531 110.178 107.813 111.023 109.841C113.136 113.305 114.15 117.191 114.319 121.332C114.319 121.501 114.319 121.839 114.319 122.008C114.319 125.303 112.967 128.598 110.685 131.048C109.671 131.893 108.573 132.823 107.39 133.33C107.559 137.132 109.164 140.849 111.953 143.638C114.234 145.581 117.022 146.595 119.979 146.595C121.331 146.595 122.599 146.426 123.782 145.919C129.189 143.976 133.329 139.667 135.104 134.259C136.709 130.119 137.385 125.556 137.385 120.994C137.385 119.388 137.216 117.867 137.047 116.093C134.09 117.445 130.795 118.374 127.499 118.374C126.316 118.374 125.049 118.205 124.035 118.036C128.429 112.46 130.795 105.531 130.795 98.3495C130.795 92.942 129.443 87.5345 126.654 82.6339C118.121 73.0862 105.954 67.5097 93.0263 67.5097C86.0979 67.5097 79.0849 69.1151 72.8325 72.4103C67.4249 84.9152 64.6367 98.3495 64.6367 111.953C64.6367 125.049 67.256 138.061 72.3255 150.313C74.4379 146.51 77.9021 143.722 82.2957 142.793C82.1267 144.398 82.1267 146.088 82.1267 147.693C82.1267 151.327 82.4647 155.044 83.1407 158.677C83.9856 164.761 86.0979 170.506 89.0551 175.914C97.2509 189.179 106.461 201.684 116.769 213.344H172.703V171.52H214.696L214.442 116.684Z" fill="white"/>
<path d="M214.612 171.689H172.619V213.513H214.612V171.689Z" fill="#E6BB7B"/>
<path d="M214.611 184.785H185.884V213.513H214.611V184.785Z" fill="#602626"/>
<path d="M214.611 28.728H28.896V213.514H41.9924V41.7399H214.611V28.728Z" fill="#E6BB7B"/>
<path d="M432.869 0H218.258V213.512H432.869V0Z" fill="white"/>
<path d="M432.869 0H218.258V213.512H432.869V0Z" fill="#602626"/>
<path d="M432.869 171.724H218.258V184.751H432.869V171.724Z" fill="#E6BB7B"/>
<path d="M432.869 28.6768H218.258V41.704H432.869V28.6768Z" fill="#E6BB7B"/>
<path d="M369.256 164.364C373.062 153.028 380.591 143.131 390.488 136.279C399.371 130.188 408.76 125.113 418.573 120.968C423.31 119.022 427.794 117.161 432.7 115.554V171.639H218.258V116.061C229.086 123.928 239.829 131.88 250.488 139.916C263.176 149.645 277.811 156.327 293.545 159.288C300.482 160.642 307.672 161.403 314.778 161.403C327.974 161.403 341.086 158.95 353.437 154.466C357.074 153.113 360.543 151.506 363.926 149.56C363.588 150.744 363.419 152.013 363.419 153.197C363.334 157.596 365.618 161.911 369.256 164.364Z" fill="white"/>
<path d="M280.264 83.2389C278.488 78.3325 275.02 74.1874 270.536 71.565C264.784 75.2025 261.485 81.6316 261.485 88.4836C261.485 88.8219 261.485 89.3295 261.485 89.6679C253.11 84.0848 243.213 80.9549 233.062 80.9549C232.046 80.9549 231.116 80.9549 230.101 80.9549C244.059 88.822 256.409 98.7193 266.814 110.731C272.228 116.822 277.98 122.574 284.071 127.819C295.406 137.547 309.195 144.399 323.999 147.191C319.684 148.798 315.116 149.644 310.548 149.644C308.264 149.644 305.811 149.475 303.612 148.967C289.654 146.345 276.458 141.269 264.615 133.656C256.917 128.75 249.642 123.759 242.282 118.345C234.246 112.423 226.294 106.502 218.258 100.58V41.873H432.869V100.073C416.712 107.009 400.301 113.861 383.89 120.46C377.63 123.082 370.863 124.266 363.842 124.435C363.673 124.435 363.334 124.435 363.165 124.435C356.398 124.435 349.715 122.152 344.385 118.176C344.385 118.683 344.385 119.36 344.385 119.952C344.385 126.55 347.854 132.641 353.606 136.109C348.192 138.901 342.101 140.254 336.011 140.254C323.322 140.254 311.479 134.164 304.119 123.843C300.313 118.599 298.367 112.339 298.367 105.91C298.367 101.765 299.213 97.7042 300.82 93.8975C299.636 93.7283 298.536 93.7284 297.352 93.7284C293.884 93.7284 290.415 94.2359 286.862 95.0818C288.808 84.4232 294.73 74.8642 303.612 68.4352C316.639 60.2297 331.866 56.0847 347.346 56.0847C356.228 56.0847 365.111 57.4382 373.485 60.2297C379.068 61.837 384.144 65.1361 387.612 69.6195C388.627 71.5651 389.22 73.7645 389.22 76.0485C389.22 78.8401 388.374 81.8008 386.597 84.0848C384.482 86.1996 381.522 87.3839 378.392 87.3839C377.377 87.3839 376.277 87.2147 375.262 87.0455C375.093 84.254 374.077 81.6316 372.301 79.5168C369.848 76.7252 366.38 75.2026 362.911 75.2026C362.573 75.2026 362.404 75.2026 362.065 75.2026C358.259 75.2026 354.537 76.0485 351.237 77.6558C349.461 78.3325 347.6 78.5017 345.654 78.5017C344.808 78.5017 343.709 78.5016 342.863 78.3325C337.956 77.1482 334.488 72.5802 334.488 67.5047V67.3354C331.866 69.9578 330.512 73.4261 330.512 77.0636C330.512 78.0787 330.681 79.1784 330.851 80.1936C324.929 82.6467 319.684 86.4534 315.708 91.6981C320.615 95.5048 326.198 98.1272 332.289 99.5653C332.289 100.073 332.119 100.75 332.119 101.342C332.119 103.964 332.965 106.586 334.573 108.87C336.18 111.154 338.549 112.677 341.34 112.846C340.325 111.493 339.733 109.716 339.733 107.94C339.733 104.641 341.848 101.68 344.978 100.665C347.092 100.157 349.292 99.9883 351.576 99.9883C353.86 99.9883 355.89 100.157 358.174 100.665C359.358 101.003 360.796 101.172 362.15 101.172C365.28 101.172 368.41 100.327 371.032 98.381C372.978 97.0275 374.162 95.0818 374.839 92.967C375.177 92.967 375.516 92.967 375.854 92.967C378.138 92.967 380.591 92.7978 382.791 92.2902C389.389 90.683 394.295 84.7616 394.464 77.9942C394.464 77.6558 394.464 77.4866 394.464 77.1482C394.464 69.2811 390.15 62.0061 383.298 58.3686C371.455 52.4471 358.174 49.4864 344.978 49.4864C328.82 49.4864 312.748 54.0544 298.959 62.6828C291.261 67.6738 284.832 74.8642 280.264 83.2389Z" fill="white"/>
<path d="M303.95 123.759C311.225 133.995 323.068 140.17 335.842 140.17C341.932 140.17 348.023 138.816 353.437 136.025C347.685 132.556 344.216 126.466 344.216 119.868C344.216 119.36 344.216 118.683 344.216 118.091C349.63 122.236 356.228 124.351 362.996 124.351C363.165 124.351 363.503 124.351 363.673 124.351C370.44 124.182 377.292 122.744 383.721 120.375C400.132 113.777 416.458 107.179 432.7 99.9883V115.807C427.963 117.414 423.311 119.275 418.573 121.221C408.676 125.366 399.202 130.442 390.489 136.532C380.591 143.3 373.062 153.112 369.256 164.617C365.618 161.995 363.334 157.85 363.334 153.282C363.334 152.097 363.503 150.828 363.842 149.644C360.543 151.59 357.074 153.282 353.352 154.551C341.002 159.288 327.89 161.487 314.694 161.487C307.588 161.487 300.397 160.81 293.461 159.372C277.811 156.242 263.007 149.644 250.403 140.001C239.744 131.795 229.001 124.013 218.173 116.145V100.665C226.21 106.586 234.161 112.508 242.198 118.429C249.303 123.843 256.832 128.919 264.53 133.741C276.373 141.439 289.654 146.599 303.527 149.052C305.811 149.39 308.095 149.729 310.464 149.729C315.032 149.729 319.685 148.883 323.914 147.276C309.11 144.484 295.322 137.717 283.986 127.904C277.896 122.659 272.143 116.907 266.73 110.816C256.24 98.8039 243.89 88.9066 230.016 81.0395C231.031 81.0395 231.962 81.0395 232.977 81.0395C243.044 81.0395 253.025 84.0002 261.4 89.7525C261.4 89.4141 261.4 88.9067 261.4 88.5683C261.4 81.8009 264.868 75.541 270.452 71.6498C275.02 74.2721 278.488 78.4171 280.18 83.3235C284.748 75.118 291.177 68.0122 298.79 62.5983C312.579 53.8852 328.567 49.4019 344.808 49.4019C358.005 49.4019 371.117 52.5318 383.129 58.2841C390.066 62.0908 394.295 69.2811 394.295 77.0636C394.295 77.402 394.295 77.7404 394.295 77.9095C394.126 84.6769 389.22 90.5985 382.621 92.2057C380.337 92.5441 378.053 92.8825 375.685 92.8825C375.346 92.8825 375.008 92.8825 374.67 92.8825C375.008 91.529 375.177 90.091 375.177 88.5683C375.177 88.0607 375.177 87.5532 375.177 86.961C376.192 87.2994 377.292 87.2994 378.307 87.2994C381.268 87.2994 384.229 86.1151 386.513 84.0003C388.12 81.5471 389.135 78.7555 389.135 75.964C389.135 73.68 388.627 71.396 387.528 69.5349C384.059 64.9669 378.984 61.6677 373.401 60.1451C365.026 57.3535 356.144 56.0001 347.262 56.0001C331.781 56.0001 316.639 60.3143 303.527 68.3506C294.814 74.7797 288.893 84.3386 286.778 94.9973C290.246 94.1514 293.715 93.6439 297.267 93.6439C298.452 93.6439 299.551 93.6438 300.736 93.813C299.128 97.6197 298.283 101.68 298.283 105.825C298.198 112.339 300.313 118.599 303.95 123.759Z" fill="#B0B461"/>
<path d="M432.869 184.75H218.258V213.512H432.869V184.75Z" fill="#602626"/>
<path d="M375.177 86.8767C375.177 87.3843 375.177 87.8918 375.177 88.4839C375.177 89.8374 375.008 91.4447 374.67 92.7982C373.993 95.0822 372.555 96.774 370.863 98.2121C368.241 99.9885 365.111 101.004 361.981 101.004C360.627 101.004 359.358 100.834 358.005 100.496C355.89 99.9886 353.691 99.8193 351.407 99.8193C349.123 99.8193 347.093 99.9886 344.809 100.496C341.679 101.511 339.564 104.472 339.564 107.771C339.564 109.548 340.071 111.239 341.171 112.677C338.38 112.508 335.926 110.901 334.404 108.702C332.796 106.587 331.951 103.964 331.951 101.173C331.951 100.665 331.951 99.9885 332.12 99.3964C332.627 95.2513 335.419 91.5293 339.395 89.6682C333.981 87.7226 330.343 82.5625 330.343 76.8102C330.343 73.1727 331.697 69.7044 334.319 67.082V67.2512C334.319 72.3267 337.787 76.641 342.694 78.0791C343.54 78.2483 344.639 78.2482 345.485 78.2482C347.431 78.2482 349.292 77.9098 351.068 77.4023C354.368 75.795 358.174 74.9491 361.896 74.9491C362.235 74.9491 362.404 74.9491 362.742 74.9491C366.38 75.1183 369.848 76.7256 372.132 79.2634C373.993 81.4628 375.008 84.0852 375.177 86.8767Z" fill="#C0834B"/>
<path d="M332.035 99.2277C325.945 97.8742 320.361 95.2518 315.455 91.3605C319.262 86.285 324.507 82.3091 330.597 79.856C331.612 84.424 334.911 88.0614 339.31 89.5841C335.503 91.3606 332.712 95.0827 332.035 99.2277Z" fill="#E6BB7B"/>
<path d="M1.73776 432L1.73779 217.388L215.25 217.388L215.25 432L1.73776 432Z" fill="white"/>
<path d="M1.73776 432L1.73779 217.388L215.25 217.388L215.25 432L1.73776 432Z" fill="#602626"/>
<path d="M173.461 432L173.461 217.388L186.489 217.388L186.489 432L173.461 432Z" fill="#E6BB7B"/>
<path d="M30.415 432L30.415 217.388L43.4423 217.388L43.4423 432L30.415 432Z" fill="#E6BB7B"/>
<path d="M166.102 368.386C154.766 372.193 144.869 379.721 138.017 389.619C131.926 398.501 126.85 407.891 122.705 417.704C120.76 422.441 118.899 426.924 117.291 431.831L173.376 431.831L173.376 217.388L117.799 217.388C125.666 228.216 133.618 238.959 141.654 249.618C151.382 262.307 158.065 276.941 161.026 292.676C162.379 299.612 163.141 306.803 163.141 313.908C163.141 327.105 160.688 340.217 156.204 352.567C154.851 356.205 153.243 359.673 151.298 363.057C152.482 362.718 153.751 362.549 154.935 362.549C159.334 362.465 163.648 364.749 166.102 368.386Z" fill="white"/>
<path d="M84.9771 279.395C80.0708 277.618 75.9257 274.15 73.3033 269.666C76.9408 263.914 83.3698 260.615 90.2219 260.615C90.5602 260.615 91.0678 260.615 91.4062 260.615C85.8231 252.24 82.6932 242.343 82.6932 232.192C82.6932 231.177 82.6932 230.246 82.6932 229.231C90.5603 243.189 100.458 255.539 112.47 265.944C118.56 271.358 124.313 277.111 129.557 283.201C139.286 294.537 146.138 308.325 148.929 323.129C150.536 318.815 151.382 314.247 151.382 309.679C151.382 307.395 151.213 304.942 150.706 302.742C148.083 288.784 143.008 275.588 135.394 263.745C130.488 256.047 125.497 248.772 120.083 241.413C114.162 233.376 108.24 225.424 102.319 217.388L43.6113 217.388L43.6113 432L101.811 432C108.748 415.842 115.6 399.432 122.198 383.021C124.82 376.761 126.005 369.993 126.174 362.972C126.174 362.803 126.174 362.465 126.174 362.295C126.174 355.528 123.89 348.845 119.914 343.516C120.422 343.516 121.098 343.516 121.69 343.516C128.289 343.516 134.379 346.984 137.848 352.736C140.639 347.323 141.993 341.232 141.993 335.141C141.993 322.452 135.902 310.609 125.582 303.25C120.337 299.443 114.077 297.497 107.648 297.497C103.503 297.497 99.4425 298.343 95.6358 299.951C95.4666 298.766 95.4667 297.667 95.4667 296.482C95.4667 293.014 95.9742 289.546 96.8201 285.993C86.1614 287.938 76.6025 293.86 70.1734 302.742C61.9679 315.769 57.8229 330.996 57.8229 346.477C57.8229 355.359 59.1764 364.241 61.968 372.616C63.5752 378.199 66.8743 383.274 71.3577 386.743C73.3034 387.758 75.5028 388.35 77.7868 388.35C80.5783 388.35 83.5391 387.504 85.8231 385.728C87.9379 383.613 89.1222 380.652 89.1222 377.522C89.1222 376.507 88.953 375.407 88.7838 374.392C85.9922 374.223 83.3699 373.208 81.255 371.431C78.4635 368.978 76.9408 365.51 76.9408 362.042C76.9408 361.703 76.9408 361.534 76.9408 361.196C76.9408 357.389 77.7868 353.667 79.394 350.368C80.0708 348.591 80.24 346.73 80.24 344.785C80.24 343.939 80.2399 342.839 80.0707 341.993C78.8864 337.087 74.3185 333.619 69.2429 333.619L69.0737 333.619C71.6961 330.996 75.1644 329.643 78.8018 329.643C79.8169 329.643 80.9167 329.812 81.9318 329.981C84.385 324.059 88.1917 318.815 93.4364 314.839C97.2431 319.745 99.8655 325.328 101.304 331.419C101.811 331.419 102.488 331.25 103.08 331.25C105.702 331.25 108.325 332.096 110.609 333.703C112.893 335.31 114.415 337.679 114.585 340.47C113.231 339.455 111.455 338.863 109.678 338.863C106.379 338.863 103.418 340.978 102.403 344.108C101.896 346.223 101.727 348.422 101.727 350.706C101.727 352.99 101.896 355.02 102.403 357.304C102.742 358.489 102.911 359.927 102.911 361.28C102.911 364.41 102.065 367.54 100.119 370.162C98.7658 372.108 96.8201 373.292 94.7053 373.969C94.7053 374.308 94.7053 374.646 94.7053 374.984C94.7053 377.268 94.5361 379.721 94.0285 381.921C92.4212 388.519 86.4998 393.426 79.7324 393.595C79.3941 393.595 79.2249 393.595 78.8865 393.595C71.0194 393.595 63.7444 389.28 60.1069 382.428C54.1854 370.585 51.2246 357.304 51.2247 344.108C51.2247 327.951 55.7926 311.878 64.4211 298.09C69.4121 290.392 76.6025 283.963 84.9771 279.395Z" fill="white"/>
<path d="M125.497 303.081C135.732 310.356 141.908 322.199 141.908 334.972C141.908 341.063 140.554 347.153 137.763 352.567C134.294 346.815 128.204 343.347 121.605 343.347C121.098 343.347 120.421 343.347 119.829 343.347C123.974 348.761 126.089 355.359 126.089 362.126C126.089 362.295 126.089 362.634 126.089 362.803C125.92 369.57 124.481 376.422 122.113 382.851C115.515 399.262 108.916 415.589 101.726 431.831L117.545 431.831C119.152 427.093 121.013 422.441 122.959 417.704C127.104 407.806 132.179 398.332 138.27 389.619C145.037 379.722 154.85 372.193 166.355 368.386C163.732 364.749 159.587 362.465 155.019 362.465C153.835 362.465 152.566 362.634 151.382 362.972C153.328 359.673 155.019 356.205 156.288 352.483C161.026 340.132 163.225 327.02 163.225 313.824C163.225 306.718 162.548 299.528 161.11 292.591C157.98 276.942 151.382 262.138 141.738 249.533C133.533 238.875 125.75 228.132 117.883 217.304L102.403 217.304C108.324 225.34 114.246 233.292 120.167 241.328C125.581 248.434 130.657 255.962 135.478 263.66C143.176 275.503 148.337 288.785 150.79 302.658C151.128 304.942 151.466 307.226 151.466 309.594C151.466 314.162 150.621 318.815 149.013 323.045C146.222 308.241 139.454 294.452 129.642 283.117C124.397 277.026 118.645 271.274 112.554 265.86C100.542 255.37 90.6444 243.02 82.7773 229.147C82.7773 230.162 82.7773 231.092 82.7773 232.107C82.7773 242.174 85.738 252.156 91.4903 260.531C91.1519 260.531 90.6444 260.531 90.3061 260.531C83.5387 260.531 77.2788 263.999 73.3875 269.582C76.0099 274.15 80.1549 277.618 85.0613 279.31C76.8558 283.878 69.75 290.307 64.3361 297.92C55.623 311.709 51.1396 327.697 51.1396 343.939C51.1396 357.135 54.2696 370.247 60.0219 382.259C63.8285 389.196 71.0189 393.426 78.8014 393.426C79.1397 393.426 79.4781 393.426 79.6473 393.426C86.4147 393.256 92.3362 388.35 93.9435 381.752C94.2819 379.468 94.6203 377.184 94.6203 374.815C94.6203 374.477 94.6203 374.138 94.6203 373.8C93.2668 374.138 91.8287 374.308 90.3061 374.308C89.7985 374.308 89.2909 374.308 88.6988 374.308C89.0372 375.323 89.0372 376.422 89.0372 377.438C89.0372 380.398 87.8529 383.359 85.738 385.643C83.2849 387.25 80.4933 388.265 77.7017 388.265C75.4177 388.265 73.1338 387.758 71.2727 386.658C66.7047 383.19 63.4055 378.114 61.8829 372.531C59.0913 364.157 57.7379 355.274 57.7379 346.392C57.7379 330.912 62.0521 315.77 70.0884 302.658C76.5175 293.945 86.0764 288.023 96.7351 285.908C95.8892 289.377 95.3816 292.845 95.3816 296.398C95.3816 297.582 95.3816 298.682 95.5508 299.866C99.3574 298.259 103.418 297.413 107.563 297.413C114.077 297.328 120.336 299.443 125.497 303.081Z" fill="#B0B461"/>
<path d="M186.488 432L186.488 217.388L215.249 217.388L215.249 432L186.488 432Z" fill="#602626"/>
<path d="M88.615 374.308C89.1226 374.308 89.63 374.308 90.2222 374.308C91.5757 374.308 93.183 374.139 94.5365 373.8C96.8205 373.123 98.5123 371.685 99.9503 369.994C101.727 367.371 102.742 364.241 102.742 361.111C102.742 359.758 102.573 358.489 102.234 357.135C101.727 355.021 101.558 352.821 101.558 350.537C101.558 348.253 101.727 346.223 102.234 343.939C103.25 340.809 106.21 338.694 109.509 338.694C111.286 338.694 112.978 339.202 114.416 340.302C114.247 337.51 112.639 335.057 110.44 333.534C108.325 331.927 105.703 331.081 102.911 331.081C102.404 331.081 101.727 331.081 101.135 331.25C96.9896 331.758 93.2675 334.549 91.4065 338.525C89.4609 333.111 84.3008 329.474 78.5485 329.474C74.911 329.474 71.4427 330.827 68.8203 333.449L68.9895 333.449C74.065 333.449 78.3793 336.918 79.8174 341.824C79.9865 342.67 79.9865 343.77 79.9865 344.616C79.9865 346.561 79.6481 348.422 79.1406 350.199C77.5333 353.498 76.6874 357.305 76.6874 361.027C76.6874 361.365 76.6874 361.534 76.6874 361.873C76.8565 365.51 78.4639 368.978 81.0017 371.262C83.2011 373.123 85.8235 374.139 88.615 374.308Z" fill="#C0834B"/>
<path d="M100.965 331.166C99.6115 325.075 96.9891 319.492 93.0978 314.585C88.0223 318.392 84.0464 323.637 81.5933 329.728C86.1613 330.743 89.7987 334.042 91.3214 338.441C93.0979 334.634 96.82 331.842 100.965 331.166Z" fill="#E6BB7B"/>
</g>
<defs>
<clipPath id="clip0_65_405">
<rect width="432" height="432" fill="white"/>
</clipPath>
</defs>
</svg>
