<svg width="432px" height="432px" id="faixas" viewBox="0 0 432 432" fill="none" xmlns="http://www.w3.org/2000/svg">
<g clip-path="url(#clip0_65_546)">
<path d="M214.696 0H0V214.02H214.696V0Z" fill="#2D2E27"/>
<path d="M161.001 106.882L214.696 160.408H161.001V213.934L107.306 160.408L161.001 106.882Z" fill="#F6F6F6"/>
<path d="M107.306 53.5264H214.696L161.001 106.883L107.306 53.5264Z" fill="#F6F6F6"/>
<path d="M53.6953 53.5264H107.306L53.6953 106.883V53.5264Z" fill="#F6F6F6"/>
<path d="M53.6953 106.882L107.306 160.408L53.6953 213.934V106.882Z" fill="#F6F6F6"/>
<path d="M0 0H214.696V36.8678H37.1216V213.935H0V0Z" fill="#F6F6F6"/>
<path d="M214.696 181.803H182.31V214.02H214.696V181.803Z" fill="white"/>
<path d="M37.1211 36.8677H214.696V53.5259H107.305H53.6947V106.883V213.935H37.1211V36.8677Z" fill="#2D2E27"/>
<path d="M161.001 106.883L214.696 53.5264V160.409L161.001 106.883Z" fill="#2D2E27"/>
<path d="M107.306 160.409L161.001 213.935H53.6953L107.306 160.409Z" fill="#2D2E27"/>
<path d="M161.001 160.409H214.696V181.802H182.31V213.935H161.001V160.409Z" fill="#2D2E27"/>
<path d="M432.869 0H218.173V214.019H432.869V0Z" fill="#2D2E27"/>
<path d="M271.869 106.882L325.648 160.408H218.173L271.869 106.882Z" fill="#F6F6F6"/>
<path d="M379.343 106.882L432.869 160.408H325.648L379.343 106.882Z" fill="#F6F6F6"/>
<path d="M325.648 53.5264H432.869L379.343 106.883L325.648 53.5264Z" fill="#F6F6F6"/>
<path d="M218.173 53.5264H325.648L271.869 106.883L218.173 53.5264Z" fill="#F6F6F6"/>
<path d="M432.869 0H218.173V36.926H432.869V0Z" fill="#F6F6F6"/>
<path d="M432.869 181.75H218.173V213.934H432.869V181.75Z" fill="white"/>
<path d="M218.173 36.8413H432.869V53.5258H325.648H218.173V36.8413Z" fill="#2D2E27"/>
<path d="M218.173 53.5264L271.869 106.883L218.173 160.409V53.5264Z" fill="#2D2E27"/>
<path d="M379.343 106.883L432.869 53.5264V160.409L379.343 106.883Z" fill="#2D2E27"/>
<path d="M218.173 160.408H325.648H432.869V181.75H218.173V160.408Z" fill="#2D2E27"/>
<path d="M-2.8154e-05 432L0 217.304L214.019 217.304L214.019 432L-2.8154e-05 432Z" fill="#2D2E27"/>
<path d="M106.882 270.999L160.408 324.779L160.408 217.304L106.882 270.999Z" fill="#F6F6F6"/>
<path d="M106.882 378.474L160.408 432L160.408 324.779L106.882 378.474Z" fill="#F6F6F6"/>
<path d="M53.5264 324.779L53.5264 432L106.883 378.474L53.5264 324.779Z" fill="#F6F6F6"/>
<path d="M53.5264 217.304L53.5264 324.779L106.883 270.999L53.5264 217.304Z" fill="#F6F6F6"/>
<path d="M-2.8154e-05 432L0 217.304L36.926 217.304L36.926 432L-2.8154e-05 432Z" fill="#F6F6F6"/>
<path d="M181.75 432L181.75 217.304L213.934 217.304L213.934 432L181.75 432Z" fill="white"/>
<path d="M36.8413 217.304L36.8413 432L53.5258 432L53.5258 324.779L53.5258 217.304L36.8413 217.304Z" fill="#2D2E27"/>
<path d="M53.5264 217.304L106.883 270.999L160.409 217.304L53.5264 217.304Z" fill="#2D2E27"/>
<path d="M106.883 378.474L53.5264 431.999L160.409 431.999L106.883 378.474Z" fill="#2D2E27"/>
<path d="M160.408 217.304L160.408 324.779L160.408 432L181.75 432L181.75 217.304L160.408 217.304Z" fill="#2D2E27"/>
</g>
<defs>
<clipPath id="clip0_65_546">
<rect width="432" height="432" fill="white"/>
</clipPath>
</defs>
</svg>
