<svg width="432px" height="432px" id="faixas" viewBox="0 0 432 432" fill="none" xmlns="http://www.w3.org/2000/svg">
<g clip-path="url(#clip0_65_703)">
<path d="M214.611 0H0V213.933H214.611V0Z" fill="#C38585"/>
<path d="M214.441 184.595H185.357V213.763H193.582V192.989H214.441V184.595Z" fill="#F6F6F6"/>
<path d="M214.442 20.6895H20.9438V213.763H29.0841V29.084H214.442V20.6895Z" fill="#F6F6F6"/>
<path d="M37.4785 213.763H176.963V176.454H214.442V37.3086H37.4785V213.763Z" fill="#F6F6F6"/>
<path d="M155.511 213.763H166.279C166.279 195.278 157.546 177.811 142.707 166.703C139.061 168.823 135.415 170.519 131.345 172.13C146.268 180.609 155.511 196.635 155.511 213.763Z" fill="#D9CEC0"/>
<path d="M214.442 165.601V155.002C187.732 155.002 166.11 133.379 166.11 106.839C166.11 74.4482 139.57 48.0776 107.179 48.0776C74.5334 48.0776 48.2476 74.4482 48.2476 106.839C48.2476 125.324 56.9812 142.791 71.82 153.899C75.4661 151.78 79.1122 150.084 83.1823 148.473C68.1739 139.908 58.9315 124.052 58.9315 106.839C58.9315 80.299 80.5537 58.6768 107.264 58.6768C133.973 58.6768 155.596 80.299 155.596 106.839C155.511 139.315 182.051 165.601 214.442 165.601Z" fill="#D9CEC0"/>
<path d="M214.442 58.6768V48.0776C195.788 48.0776 178.32 56.8113 167.212 71.6501C169.332 75.2962 171.028 78.9423 172.639 83.0124C181.373 67.9192 197.229 58.6768 214.442 58.6768Z" fill="#D9CEC0"/>
<path d="M154.493 142.028C152.373 138.382 150.678 134.736 149.067 130.666C140.502 145.674 124.477 154.747 107.179 154.747C74.5334 154.747 48.2476 181.118 48.2476 213.509H59.0162C59.0162 186.969 80.6385 165.346 107.348 165.346C125.918 165.601 143.301 156.867 154.493 142.028Z" fill="#D9CEC0"/>
<path d="M69.7847 213.764H99.0383C94.8834 209.948 92.5939 204.521 92.5939 198.755C92.5939 198.247 92.5939 197.907 92.5939 197.399C98.1903 197.568 103.617 200.027 107.433 204.012C111.248 200.027 116.675 197.568 122.272 197.399C122.272 197.907 122.272 198.247 122.272 198.755C122.272 204.521 119.813 209.948 115.827 213.764H145.081C145.081 193.159 128.207 176.285 107.602 176.285C86.4889 176.455 69.7847 193.159 69.7847 213.764Z" fill="#F6F6F6"/>
<path d="M144.742 106.839C144.742 86.2341 127.868 69.3604 107.263 69.3604C86.4889 69.3604 69.7847 86.0645 69.7847 106.839C69.7847 127.444 86.6585 144.317 107.263 144.317C127.953 144.317 144.742 127.444 144.742 106.839Z" fill="#F6F6F6"/>
<path d="M206.301 106.839C202.146 103.023 199.857 97.5965 199.857 91.8305C199.857 91.3218 199.857 90.9826 199.857 90.4739C205.453 90.6434 210.88 93.1024 214.696 97.0877V69.3604C193.921 69.3604 177.217 86.0645 177.217 106.839C177.217 127.444 194.091 144.317 214.696 144.317V116.59C210.88 120.575 205.453 123.034 199.857 123.204C199.857 122.695 199.857 122.356 199.857 121.847C199.687 116.081 202.062 110.655 206.301 106.839Z" fill="#F6F6F6"/>
<path d="M185.357 184.594H214.441V176.454H176.963V213.763H185.357V184.594Z" fill="#D9CEC0"/>
<path d="M37.4779 37.3084H214.441V29.0835H29.0835V213.763H37.4779V37.3084Z" fill="#D9CEC0"/>
<path d="M214.526 192.989H193.583V213.933H214.526V192.989Z" fill="#C38585"/>
<path d="M214.442 69.3609V58.7617C197.144 58.7617 181.118 68.0042 172.554 82.843C175.352 90.4744 176.878 98.6992 176.878 106.924C176.963 86.065 193.922 69.3609 214.442 69.3609Z" fill="#C38585"/>
<path d="M214.441 37.3086C193.667 37.3086 173.995 46.551 160.767 62.4073C163.226 65.2055 165.261 68.3429 167.211 71.4803C178.404 56.6415 195.787 47.9077 214.441 47.9077V37.3086Z" fill="#C38585"/>
<path d="M214.442 97.0884C210.626 93.1031 205.199 90.6442 199.603 90.4746C199.603 90.9834 199.603 91.3225 199.603 91.8313C199.603 97.5972 202.062 103.024 206.047 106.84C201.892 110.655 199.603 116.082 199.603 121.848C199.603 122.357 199.603 122.696 199.603 123.205C205.199 123.035 210.626 120.576 214.442 116.591V97.0884Z" fill="#D9CEC0"/>
<path d="M115.574 106.84C119.729 103.024 122.018 97.5972 122.018 91.8313C122.018 91.3225 122.018 90.9834 122.018 90.4746C116.422 90.6442 110.995 93.1031 107.179 97.0884C103.363 93.1031 97.9367 90.6442 92.3403 90.4746C92.3403 90.9834 92.3403 91.3225 92.3403 91.8313C92.3403 97.5972 94.7993 103.024 98.7846 106.84C94.6297 110.655 92.3403 116.082 92.3403 121.848C92.3403 122.357 92.3403 122.696 92.3403 123.205C97.9367 123.035 103.363 120.576 107.179 116.591C110.995 120.576 116.422 123.035 122.018 123.205C122.018 122.696 122.018 122.357 122.018 121.848C122.018 116.082 119.813 110.655 115.574 106.84Z" fill="#D9CEC0"/>
<path d="M122.018 197.313C116.422 197.483 110.995 199.942 107.179 203.927C103.363 199.942 97.9367 197.483 92.3403 197.313C92.3403 197.822 92.3403 198.161 92.3403 198.67C92.3403 204.436 94.7993 209.863 98.7846 213.678H115.489C119.644 209.863 121.933 204.436 121.933 198.67C122.018 198.416 122.018 197.822 122.018 197.313Z" fill="#D9CEC0"/>
<path d="M107.263 155.002C124.561 155.002 140.587 145.759 149.151 130.921C146.353 123.289 144.827 115.064 144.827 106.839C144.827 127.444 127.953 144.318 107.348 144.318C68.8521 144.318 37.5635 175.522 37.5635 213.848H48.3322C48.3322 181.288 74.618 155.002 107.263 155.002Z" fill="#C38585"/>
<path d="M107.264 176.455C128.038 176.455 147.71 167.212 160.938 151.356C158.479 148.558 156.444 145.421 154.493 142.283C143.301 157.122 125.918 165.856 107.264 165.856C80.5539 165.856 58.9316 187.478 58.9316 214.018H69.7003C69.7851 193.159 86.4894 176.455 107.264 176.455Z" fill="#C38585"/>
<path d="M62.577 160.343C65.3752 157.884 68.5124 155.849 71.8193 153.899C56.9806 142.706 48.2469 125.324 48.2469 106.839C48.2469 74.448 74.7872 48.0774 107.178 48.0774C139.823 48.0774 166.109 74.448 166.109 106.839C166.109 133.379 187.732 155.001 214.441 155.001V144.402C193.667 144.402 176.963 127.698 176.963 106.924C176.963 98.6988 175.606 90.5587 172.638 82.8425C171.282 79.0269 169.331 75.2111 167.212 71.4803C165.261 68.3429 163.226 65.2055 160.767 62.4073C147.54 46.551 127.783 37.3086 107.093 37.3086C68.5973 37.3086 37.3086 68.5125 37.3086 106.839C37.4782 127.444 46.7207 147.116 62.577 160.343Z" fill="#C38585"/>
<path d="M69.7849 106.84C69.7849 86.235 86.6587 69.3612 107.263 69.3612C128.038 69.3612 144.742 86.0654 144.742 106.84C144.742 115.065 146.099 123.205 149.066 130.921C150.423 134.737 152.373 138.552 154.493 142.283C156.443 145.421 158.478 148.558 160.937 151.356C174.165 167.212 193.922 176.455 214.611 176.455V165.856C181.966 165.856 155.68 139.485 155.68 107.094C155.68 80.5539 134.058 58.9316 107.348 58.9316C80.6384 58.9316 59.0161 80.5539 59.0161 107.094C59.0161 124.392 68.2585 140.248 83.2669 148.728C90.8983 145.929 99.1232 144.403 107.348 144.403C86.4891 144.318 69.7849 127.444 69.7849 106.84Z" fill="#C38585"/>
<path d="M151.865 160.344C149.066 162.803 145.929 164.838 142.622 166.788C157.461 177.981 166.195 195.363 166.195 213.848H176.963C176.963 193.159 167.721 173.487 151.865 160.344Z" fill="#C38585"/>
<path d="M131.259 172.045C123.628 174.843 115.403 176.369 107.178 176.369C127.953 176.369 144.657 193.074 144.657 213.848H155.426C155.51 196.635 146.268 180.609 131.259 172.045Z" fill="#C38585"/>
<path d="M432.7 0H218.173V213.849H432.7V0Z" fill="#C38585"/>
<path d="M432.7 184.558H218.173V192.939H432.7V184.558Z" fill="#F6F6F6"/>
<path d="M432.7 20.7417H218.173V29.123H432.7V20.7417Z" fill="#F6F6F6"/>
<path d="M432.7 37.25H218.173V176.176H432.7V37.25Z" fill="#F6F6F6"/>
<path d="M265.413 141.974C263.297 138.333 261.604 134.693 259.995 130.629C251.444 145.614 235.444 154.673 218.173 154.673V165.34C236.798 165.509 254.238 156.874 265.413 141.974Z" fill="#D9CEC0"/>
<path d="M432.7 165.509V154.842C406.033 154.842 384.445 133.254 384.445 106.755C384.445 74.3309 357.946 48.002 325.522 48.002C306.897 48.002 289.457 56.7218 278.282 71.5372C280.398 75.1775 282.091 78.8179 283.7 82.8816C292.251 67.8969 308.251 58.8383 325.522 58.8383C352.189 58.8383 373.777 80.4265 373.777 106.925C373.608 139.265 400.107 165.509 432.7 165.509Z" fill="#D9CEC0"/>
<path d="M385.46 71.6218C387.576 75.2621 389.27 78.9025 390.878 82.9662C399.429 67.9815 415.429 58.9229 432.7 58.9229V48.2558C414.075 48.0865 396.635 56.8064 385.46 71.6218Z" fill="#D9CEC0"/>
<path d="M266.429 106.84C266.429 139.265 292.928 165.594 325.352 165.594C343.977 165.594 361.417 156.874 372.592 142.059C370.476 138.418 368.782 134.778 367.174 130.714C358.623 145.699 342.623 154.758 325.352 154.758C298.684 154.758 277.096 133.169 277.096 106.671C277.096 74.2466 250.598 47.9175 218.173 47.9175V58.5846C244.841 58.6693 266.429 80.3421 266.429 106.84Z" fill="#D9CEC0"/>
<path d="M395.196 106.84C395.196 127.412 412.128 144.344 432.7 144.344V116.661C428.891 120.64 423.473 123.095 417.885 123.264C417.885 122.756 417.885 122.417 417.885 121.909C417.885 116.153 420.34 110.734 424.319 106.925C420.171 103.115 417.885 97.6968 417.885 91.9399C417.885 91.432 417.885 91.0934 417.885 90.5854C423.473 90.7547 428.891 93.2099 432.7 97.1889V69.3359C411.959 69.3359 395.196 86.0985 395.196 106.84Z" fill="#F6F6F6"/>
<path d="M363.025 106.84C363.025 86.2678 346.263 69.3359 325.521 69.3359C304.78 69.3359 288.017 86.0985 288.017 106.84C288.017 127.412 304.949 144.344 325.521 144.344C346.093 144.259 363.025 127.412 363.025 106.84Z" fill="#F6F6F6"/>
<path d="M218.173 69.3359V97.0195C221.983 93.0405 227.401 90.5855 232.989 90.4161C232.989 90.9241 232.989 91.2627 232.989 91.7707C232.989 97.5275 230.534 102.946 226.555 106.755C230.703 110.565 232.989 115.983 232.989 121.74C232.989 122.248 232.989 122.587 232.989 123.095C227.401 122.925 221.983 120.47 218.173 116.491V144.175C238.915 144.175 255.677 127.412 255.677 106.671C255.677 85.9291 238.915 69.3359 218.173 69.3359Z" fill="#F6F6F6"/>
<path d="M432.7 29.0386H218.173V37.4199H432.7V29.0386Z" fill="#D9CEC0"/>
<path d="M432.7 176.345H218.173V184.727H432.7V176.345Z" fill="#D9CEC0"/>
<path d="M432.7 192.939H218.173V213.85H432.7V192.939Z" fill="#C38585"/>
<path d="M432.7 48.087V37.4199C411.958 37.4199 392.233 46.6478 379.026 62.4791C381.481 65.2728 383.597 68.4052 385.46 71.5376C396.635 56.8068 414.075 48.087 432.7 48.087Z" fill="#C38585"/>
<path d="M432.7 69.3365V58.6694C415.43 58.6694 399.429 67.8973 390.878 82.7127C393.672 90.4167 395.196 98.5439 395.196 106.756C395.196 86.099 411.959 69.3365 432.7 69.3365Z" fill="#C38585"/>
<path d="M218.173 37.25V47.9171C250.767 47.9171 277.096 74.2461 277.096 106.671C277.096 133.169 298.684 154.757 325.352 154.757C342.623 154.757 358.623 145.529 367.174 130.714C364.38 123.01 362.856 114.883 362.856 106.671C362.856 127.243 345.924 144.175 325.352 144.175C304.611 144.175 287.848 127.412 287.848 106.671C287.848 68.4893 256.693 37.25 218.173 37.25Z" fill="#C38585"/>
<path d="M218.173 58.6694V69.3365C238.915 69.3365 255.677 86.0991 255.677 106.841C255.677 145.191 286.917 176.346 325.437 176.346C346.178 176.346 365.904 167.118 379.111 151.287C376.656 148.493 374.539 145.361 372.677 142.228C361.502 157.044 344.062 165.764 325.437 165.764C292.843 165.764 266.514 139.434 266.514 107.01C266.429 80.3422 244.841 58.6694 218.173 58.6694Z" fill="#C38585"/>
<path d="M432.701 97.0199C428.891 93.0409 423.473 90.5858 417.885 90.4165C417.885 90.9245 417.885 91.2631 417.885 91.771C417.885 97.5279 420.34 102.946 424.319 106.756C420.171 110.565 417.885 115.984 417.885 121.74C417.885 122.248 417.885 122.587 417.885 123.095C423.473 122.926 428.891 120.471 432.701 116.492V97.0199Z" fill="#D9CEC0"/>
<path d="M340.168 90.4165C334.58 90.5858 329.162 93.0409 325.352 97.0199C321.543 93.0409 316.125 90.5858 310.537 90.4165C310.537 90.9245 310.537 91.2631 310.537 91.771C310.537 97.5279 312.992 102.946 316.971 106.756C312.823 110.565 310.537 115.984 310.537 121.74C310.537 122.248 310.537 122.587 310.537 123.095C316.125 122.926 321.543 120.471 325.352 116.492C329.162 120.471 334.58 122.926 340.168 123.095C340.168 122.587 340.168 122.248 340.168 121.74C340.168 115.984 337.713 110.565 333.734 106.756C337.882 102.946 340.168 97.5279 340.168 91.771C340.337 91.2631 340.337 90.9245 340.168 90.4165Z" fill="#D9CEC0"/>
<path d="M232.989 90.4165C227.401 90.5858 221.983 93.0409 218.173 97.0199V116.576C221.983 120.555 227.401 123.01 232.989 123.18C232.989 122.672 232.989 122.333 232.989 121.825C232.989 116.068 230.534 110.65 226.555 106.84C230.703 103.031 232.989 97.6125 232.989 91.8557C232.989 91.2631 232.989 90.9245 232.989 90.4165Z" fill="#D9CEC0"/>
<path d="M271.848 62.3942C274.303 65.188 276.419 68.3203 278.282 71.4527C289.457 56.6373 306.897 47.9174 325.522 47.9174C358.115 47.9174 384.445 74.2465 384.445 106.671C384.445 133.169 406.033 154.758 432.7 154.758V144.09C411.959 144.09 395.196 127.328 395.196 106.586C395.196 98.3744 393.842 90.1624 390.879 82.5431C380.804 55.1981 354.644 37.0811 325.522 37.0811C304.78 37.2504 285.055 46.4783 271.848 62.3942Z" fill="#C38585"/>
<path d="M363.026 106.84C363.026 115.052 364.38 123.264 367.343 130.883C368.698 134.693 370.645 138.587 372.761 142.228C374.709 145.36 376.74 148.493 379.196 151.286C392.402 167.118 412.128 176.346 432.87 176.346V165.679C400.276 165.679 373.947 139.349 373.947 106.925C373.947 80.4266 352.359 58.8384 325.691 58.8384C308.42 58.8384 292.42 68.0663 283.869 82.8817C286.663 90.5857 288.187 98.713 288.187 106.925C288.187 86.3527 305.119 69.4208 325.691 69.4208C346.094 69.3361 363.026 86.0987 363.026 106.84Z" fill="#C38585"/>
<path d="M271.847 151.286C269.392 148.492 267.276 145.36 265.413 142.228C254.238 157.043 236.798 165.763 218.173 165.763V176.43C238.915 176.345 258.556 167.117 271.847 151.286Z" fill="#C38585"/>
<path d="M218.173 144.26V154.927C235.444 154.927 251.444 145.699 259.995 130.884C257.201 123.18 255.677 115.052 255.677 106.84C255.593 127.413 238.915 144.26 218.173 144.26Z" fill="#C38585"/>
<path d="M-4.00673e-05 431.831L0 217.304L213.849 217.304L213.849 431.831L-4.00673e-05 431.831Z" fill="#C38585"/>
<path d="M184.558 431.831L184.558 217.304L192.939 217.304L192.939 431.831L184.558 431.831Z" fill="#F6F6F6"/>
<path d="M20.7417 431.831L20.7417 217.304L29.123 217.304L29.123 431.831L20.7417 431.831Z" fill="#F6F6F6"/>
<path d="M37.25 431.831L37.25 217.304L176.176 217.304L176.176 431.831L37.25 431.831Z" fill="#F6F6F6"/>
<path d="M141.974 264.544C138.333 262.427 134.693 260.734 130.629 259.125C145.614 250.575 154.673 234.574 154.673 217.304L165.34 217.304C165.509 235.929 156.874 253.369 141.974 264.544Z" fill="#D9CEC0"/>
<path d="M165.509 431.831L154.842 431.831C154.842 405.164 133.254 383.575 106.755 383.575C74.3309 383.575 48.0019 357.077 48.0019 324.652C48.0019 306.027 56.7218 288.588 71.5372 277.413C75.1775 279.529 78.8179 281.222 82.8816 282.831C67.8969 291.381 58.8383 307.382 58.8383 324.652C58.8383 351.32 80.4264 372.908 106.925 372.908C139.265 372.739 165.509 399.237 165.509 431.831Z" fill="#D9CEC0"/>
<path d="M71.6218 384.59C75.2621 386.707 78.9025 388.4 82.9662 390.009C67.9815 398.559 58.9229 414.56 58.9229 431.83L48.2558 431.83C48.0865 413.205 56.8064 395.765 71.6218 384.59Z" fill="#D9CEC0"/>
<path d="M106.84 265.56C139.265 265.56 165.594 292.058 165.594 324.482C165.594 343.108 156.874 360.547 142.059 371.722C138.418 369.606 134.778 367.913 130.714 366.304C145.699 357.754 154.758 341.753 154.758 324.482C154.758 297.815 133.169 276.227 106.671 276.227C74.2465 276.227 47.9175 249.728 47.9175 217.304L58.5846 217.304C58.6693 243.971 80.3421 265.56 106.84 265.56Z" fill="#D9CEC0"/>
<path d="M106.84 394.327C127.412 394.327 144.344 411.259 144.344 431.831L116.661 431.831C120.64 428.021 123.095 422.603 123.264 417.015C122.756 417.015 122.417 417.015 121.909 417.015C116.153 417.015 110.734 419.471 106.925 423.45C103.115 419.301 97.6968 417.015 91.9399 417.015C91.432 417.015 91.0934 417.015 90.5854 417.015C90.7547 422.603 93.2099 428.021 97.1889 431.831L69.3359 431.831C69.3359 411.089 86.0985 394.327 106.84 394.327Z" fill="#F6F6F6"/>
<path d="M106.84 362.156C86.2678 362.156 69.3359 345.393 69.3359 324.651C69.3359 303.91 86.0985 287.147 106.84 287.147C127.412 287.147 144.344 304.079 144.344 324.652C144.259 345.224 127.412 362.156 106.84 362.156Z" fill="#F6F6F6"/>
<path d="M69.3359 217.304L97.0195 217.304C93.0405 221.113 90.5855 226.532 90.4161 232.119C90.9241 232.119 91.2627 232.119 91.7707 232.119C97.5275 232.119 102.946 229.664 106.755 225.685C110.565 229.833 115.983 232.119 121.74 232.119C122.248 232.119 122.587 232.119 123.095 232.119C122.925 226.532 120.47 221.113 116.491 217.304L144.175 217.304C144.175 238.045 127.412 254.808 106.671 254.808C85.9291 254.808 69.3359 238.045 69.3359 217.304Z" fill="#F6F6F6"/>
<path d="M29.0385 431.831L29.0386 217.304L37.4199 217.304L37.4198 431.831L29.0385 431.831Z" fill="#D9CEC0"/>
<path d="M176.345 431.831L176.345 217.304L184.727 217.304L184.726 431.831L176.345 431.831Z" fill="#D9CEC0"/>
<path d="M192.939 431.831L192.939 217.304L213.85 217.304L213.85 431.831L192.939 431.831Z" fill="#C38585"/>
<path d="M48.087 431.83L37.4199 431.83C37.4199 411.089 46.6478 391.363 62.4791 378.156C65.2728 380.611 68.4052 382.728 71.5376 384.59C56.8068 395.765 48.087 413.205 48.087 431.83Z" fill="#C38585"/>
<path d="M69.3355 431.831L58.6684 431.831C58.6685 414.56 67.8963 398.559 82.7117 390.009C90.4157 392.803 98.5429 394.326 106.755 394.326C86.098 394.326 69.3355 411.089 69.3355 431.831Z" fill="#C38585"/>
<path d="M37.25 217.304L47.9171 217.304C47.9171 249.898 74.2461 276.227 106.671 276.227C133.169 276.227 154.757 297.815 154.757 324.482C154.757 341.753 145.529 357.754 130.714 366.304C123.01 363.51 114.883 361.987 106.671 361.987C127.243 361.987 144.175 345.055 144.175 324.482C144.175 303.741 127.412 286.978 106.671 286.978C68.4893 286.978 37.25 255.824 37.25 217.304Z" fill="#C38585"/>
<path d="M58.6694 217.304L69.3365 217.304C69.3365 238.045 86.0991 254.808 106.841 254.808C145.191 254.808 176.346 286.047 176.346 324.567C176.346 345.309 167.118 365.034 151.287 378.241C148.493 375.786 145.361 373.67 142.228 371.807C157.044 360.632 165.763 343.192 165.763 324.567C165.763 291.973 139.434 265.644 107.01 265.644C80.3422 265.56 58.6694 243.971 58.6694 217.304Z" fill="#C38585"/>
<path d="M97.0199 431.831C93.0409 428.021 90.5858 422.603 90.4165 417.016C90.9245 417.016 91.2631 417.016 91.771 417.016C97.5279 417.016 102.946 419.471 106.756 423.45C110.565 419.301 115.984 417.016 121.74 417.016C122.248 417.016 122.587 417.016 123.095 417.016C122.926 422.603 120.471 428.021 116.492 431.831L97.0199 431.831Z" fill="#D9CEC0"/>
<path d="M90.4165 339.298C90.5858 333.711 93.0409 328.293 97.0199 324.483C93.0409 320.673 90.5858 315.255 90.4165 309.667C90.9245 309.667 91.2631 309.667 91.771 309.667C97.5279 309.667 102.946 312.123 106.756 316.102C110.565 311.953 115.984 309.667 121.74 309.667C122.248 309.667 122.587 309.667 123.095 309.667C122.926 315.255 120.471 320.673 116.492 324.483C120.471 328.293 122.926 333.711 123.095 339.298C122.587 339.298 122.248 339.298 121.74 339.298C115.984 339.298 110.565 336.843 106.756 332.864C102.946 337.012 97.5279 339.298 91.771 339.298C91.2631 339.468 90.9245 339.468 90.4165 339.298Z" fill="#D9CEC0"/>
<path d="M90.4165 232.119C90.5858 226.532 93.0409 221.113 97.0199 217.304L116.576 217.304C120.555 221.113 123.01 226.532 123.18 232.119C122.672 232.119 122.333 232.119 121.825 232.119C116.068 232.119 110.65 229.664 106.84 225.685C103.031 229.833 97.6125 232.119 91.8557 232.119C91.2631 232.119 90.9245 232.119 90.4165 232.119Z" fill="#D9CEC0"/>
<path d="M62.3942 270.979C65.188 273.434 68.3203 275.55 71.4527 277.413C56.6373 288.588 47.9174 306.027 47.9174 324.652C47.9174 357.246 74.2464 383.575 106.671 383.575C133.169 383.575 154.758 405.164 154.758 431.831L144.09 431.831C144.09 411.09 127.328 394.327 106.586 394.327C98.3744 394.327 90.1624 392.973 82.5431 390.01C55.1981 379.935 37.081 353.775 37.081 324.652C37.2504 303.911 46.4783 284.185 62.3942 270.979Z" fill="#C38585"/>
<path d="M106.84 362.156C115.052 362.156 123.264 363.511 130.883 366.474C134.693 367.828 138.587 369.775 142.228 371.892C145.36 373.839 148.493 375.871 151.286 378.326C167.118 391.533 176.346 411.258 176.346 432L165.679 432C165.679 399.406 139.349 373.077 106.925 373.077C80.4265 373.077 58.8384 351.489 58.8384 324.821C58.8384 307.551 68.0663 291.55 82.8817 283C90.5857 285.793 98.713 287.317 106.925 287.317C86.3527 287.317 69.4208 304.249 69.4208 324.821C69.3361 345.224 86.0987 362.156 106.84 362.156Z" fill="#C38585"/>
<path d="M151.286 270.978C148.492 268.523 145.36 266.406 142.228 264.544C157.043 253.369 165.763 235.929 165.763 217.304L176.43 217.304C176.345 238.045 167.117 257.686 151.286 270.978Z" fill="#C38585"/>
<path d="M144.26 217.304L154.927 217.304C154.927 234.574 145.699 250.575 130.883 259.125C123.179 256.332 115.052 254.808 106.84 254.808C127.413 254.723 144.26 238.045 144.26 217.304Z" fill="#C38585"/>
</g>
<defs>
<clipPath id="clip0_65_703">
<rect width="432" height="432" fill="white"/>
</clipPath>
</defs>
</svg>
