<svg width="432px" height="432px" id="faixas" viewBox="0 0 432 432" fill="none" xmlns="http://www.w3.org/2000/svg">
<g clip-path="url(#clip0_65_1028)">
<path d="M214.527 0H0V213.766H214.527V0Z" fill="#D9CEC0"/>
<path d="M152.266 213.765V151.759H214.526V52.7856H52.9546V213.765H152.266Z" fill="#F6F6F6"/>
<path d="M214.527 151.759H152.267V213.766H176.884V176.122H214.527V151.759Z" fill="#35221B"/>
<path d="M52.9552 52.7862H214.527V28.3389H28.4233V213.766H52.9552V52.7862Z" fill="#35221B"/>
<path d="M214.696 176.122H176.883V213.766H214.696V176.122Z" fill="#D9CEC0"/>
<path d="M432.869 0H218.173V214.02H432.869V0Z" fill="#D9CEC0"/>
<path d="M432.869 176.321H218.173V214.02H432.869V176.321Z" fill="#D9CEC0"/>
<path d="M432.869 52.8286H218.173V151.724H432.869V52.8286Z" fill="#F6F6F6"/>
<path d="M432.869 151.894H218.173V176.491H432.869V151.894Z" fill="#35221B"/>
<path d="M432.869 28.4009H218.173V52.998H432.869V28.4009Z" fill="#35221B"/>
<path d="M-4.00989e-05 432L0 217.304L214.02 217.304L214.02 432L-4.00989e-05 432Z" fill="#D9CEC0"/>
<path d="M176.321 432L176.321 217.304L214.02 217.304L214.02 432L176.321 432Z" fill="#D9CEC0"/>
<path d="M52.8286 432L52.8286 217.304L151.724 217.304L151.724 432L52.8286 432Z" fill="#F6F6F6"/>
<path d="M151.894 432L151.894 217.304L176.491 217.304L176.491 432L151.894 432Z" fill="#35221B"/>
<path d="M28.4008 432L28.4009 217.304L52.998 217.304L52.998 432L28.4008 432Z" fill="#35221B"/>
</g>
<defs>
<clipPath id="clip0_65_1028">
<rect width="432" height="432" fill="white"/>
</clipPath>
</defs>
</svg>
