<svg width="432px" height="432px" id="faixas" viewBox="0 0 432 432" fill="none" xmlns="http://www.w3.org/2000/svg">
<g clip-path="url(#clip0_65_1113)">
<path d="M214.696 0H0V214.02H214.696V0Z" fill="#2D2E27"/>
<path d="M214.696 53.4419L161.085 106.968L214.696 160.494V53.4419Z" fill="#2D2E27"/>
<path d="M161.086 106.968L107.39 53.4419L53.6953 106.968L107.39 160.494L161.086 106.968Z" fill="#2D2E27"/>
<path d="M107.39 160.493L53.6953 214.019H161.086L107.39 160.493Z" fill="#2D2E27"/>
<path d="M214.696 180.703H181.295V214.019H194.148V193.556H214.696V180.703Z" fill="#7B7970"/>
<path d="M214.696 20.3789H20.3789V214.02H33.3165V33.232H214.696V20.3789Z" fill="#7B7970"/>
<path d="M214.696 193.556H194.148V213.934H214.696V193.556Z" fill="#2D2E27"/>
<path d="M161.086 106.968L107.391 160.494L134.196 187.13L161.086 160.494H214.696L161.086 106.968Z" fill="#7B7970"/>
<path d="M214.696 53.4419H161.086L134.196 80.1626L161.086 106.968L214.696 53.4419Z" fill="#7B7970"/>
<path d="M107.39 160.494L53.6953 106.968V160.494L80.5006 187.13L107.39 160.494Z" fill="#7B7970"/>
<path d="M214.696 160.493H161.086L134.196 187.129L161.086 214.019H181.295V180.703H214.696V160.493Z" fill="#F6F6F6"/>
<path d="M107.39 53.4411L134.195 80.1619L161.085 53.4411H214.696V33.2314H33.3159V214.019H53.6947L80.4999 187.129L53.6947 160.493V106.967L107.39 53.4411Z" fill="#F6F6F6"/>
<path d="M432.869 0H218.173V214.019H432.869V0Z" fill="#2D2E27"/>
<path d="M432.869 53.4199L379.195 106.925L432.869 160.429V53.4199Z" fill="#2D2E27"/>
<path d="M379.196 106.925L325.522 53.4199L271.848 106.925L325.522 160.429L379.196 106.925Z" fill="#2D2E27"/>
<path d="M218.173 53.4199V160.429L271.847 106.925L218.173 53.4199Z" fill="#2D2E27"/>
<path d="M432.869 180.663H218.173V193.531H432.869V180.663Z" fill="#7B7970"/>
<path d="M432.869 20.3184H218.173V33.1866H432.869V20.3184Z" fill="#7B7970"/>
<path d="M432.869 193.616H218.173V214.019H432.869V193.616Z" fill="#2D2E27"/>
<path d="M432.869 53.4199H379.195L352.358 80.0876L379.195 106.925L432.869 53.4199Z" fill="#7B7970"/>
<path d="M379.195 106.925L352.358 133.592L379.195 160.429H432.869L379.195 106.925Z" fill="#7B7970"/>
<path d="M325.521 53.4199H271.847L245.01 80.0876L271.847 106.925L325.521 53.4199Z" fill="#7B7970"/>
<path d="M271.847 106.925L245.01 133.592L271.847 160.429H325.521L271.847 106.925Z" fill="#7B7970"/>
<path d="M432.869 33.271H218.173V53.4199L245.01 80.0875L271.847 53.4199H325.521L352.358 80.0875L379.195 53.4199H432.869V33.271Z" fill="#F6F6F6"/>
<path d="M432.869 160.429H379.195L352.358 133.592L325.521 160.429H271.847L245.01 133.592L218.173 160.429V180.663H432.869V160.429Z" fill="#F6F6F6"/>
<path d="M-2.8154e-05 432L0 217.304L214.019 217.304L214.019 432L-2.8154e-05 432Z" fill="#2D2E27"/>
<path d="M53.4199 431.999L106.925 378.325L160.429 431.999L53.4199 431.999Z" fill="#2D2E27"/>
<path d="M106.925 378.327L53.4199 324.653L106.925 270.979L160.429 324.653L106.925 378.327Z" fill="#2D2E27"/>
<path d="M53.4199 217.304L160.429 217.304L106.925 270.978L53.4199 217.304Z" fill="#2D2E27"/>
<path d="M180.663 432L180.663 217.304L193.531 217.304L193.531 432L180.663 432Z" fill="#7B7970"/>
<path d="M20.3183 432L20.3184 217.304L33.1866 217.304L33.1866 432L20.3183 432Z" fill="#7B7970"/>
<path d="M193.616 432L193.616 217.304L214.019 217.304L214.019 432L193.616 432Z" fill="#2D2E27"/>
<path d="M53.4199 432L53.4199 378.326L80.0876 351.489L106.925 378.326L53.4199 432Z" fill="#7B7970"/>
<path d="M106.925 378.326L133.592 351.489L160.429 378.326L160.429 432L106.925 378.326Z" fill="#7B7970"/>
<path d="M53.4199 324.652L53.4199 270.978L80.0876 244.141L106.925 270.978L53.4199 324.652Z" fill="#7B7970"/>
<path d="M106.925 270.978L133.592 244.141L160.429 270.978L160.429 324.652L106.925 270.978Z" fill="#7B7970"/>
<path d="M33.271 432L33.271 217.304L53.4199 217.304L80.0875 244.141L53.4198 270.978L53.4198 324.652L80.0875 351.489L53.4198 378.326L53.4198 432L33.271 432Z" fill="#F6F6F6"/>
<path d="M160.429 432L160.429 378.326L133.592 351.489L160.429 324.652L160.429 270.978L133.592 244.141L160.429 217.304L180.663 217.304L180.663 432L160.429 432Z" fill="#F6F6F6"/>
</g>
<defs>
<clipPath id="clip0_65_1113">
<rect width="432" height="432" fill="white"/>
</clipPath>
</defs>
</svg>
