<svg width="432px" height="432px" id="faixas" viewBox="0 0 432 432" fill="none" xmlns="http://www.w3.org/2000/svg">
<g clip-path="url(#clip0_65_1467)">
<path d="M214.527 0H0V213.763H214.527V0Z" fill="#2C485F"/>
<path d="M193.922 192.989H214.527V184.086H184.849V213.594H193.922V192.989Z" fill="#F5F4F4"/>
<path d="M112.774 112.181C127.274 127.867 135.245 148.387 135.245 169.67C135.245 175.775 134.566 181.881 133.294 187.816C137.788 184.679 143.215 183.152 148.642 183.152C162.548 183.152 174.249 193.412 175.86 207.234V175.182H208.082C194.345 173.656 183.831 161.954 183.831 147.963C183.831 142.537 185.357 137.195 188.495 132.616C182.559 133.803 176.454 134.566 170.349 134.566C148.981 134.481 128.376 126.426 112.774 112.181Z" fill="#F5F4F4"/>
<path d="M191.802 112.181H208.167V130.496C200.366 132.447 194.77 139.569 194.77 147.54C194.77 157.291 202.571 165.177 212.576 165.177C213.255 165.177 213.933 165.177 214.696 165.007V48.2472C214.018 48.2472 213.339 48.0776 212.576 48.0776C202.825 48.0776 194.77 55.8785 194.77 65.7145C194.77 73.9395 200.366 80.8925 208.167 82.7579V101.073H191.802C190.021 94.4595 184.679 89.3719 177.896 88.0152C177.218 88.0152 176.37 88.0152 175.607 88.0152C156.613 88.0152 138.128 94.629 123.374 106.67C138.213 118.71 156.613 125.324 175.607 125.324C176.285 125.324 177.133 125.324 177.896 125.324C184.51 123.883 189.937 118.795 191.802 112.181Z" fill="white"/>
<path d="M107.348 122.781C95.3071 137.45 88.6932 155.85 88.6932 174.844C88.6932 175.522 88.6932 176.37 88.6932 177.133C90.0499 183.917 95.1375 189.343 101.921 191.039V207.404H83.4361C81.4859 199.603 74.3632 194.007 66.2231 194.007C56.4718 194.007 48.4165 201.808 48.4165 211.644C48.4165 212.322 48.4166 213.001 48.5862 213.764H165.685C165.685 213.085 165.855 212.407 165.855 211.644C165.855 201.893 158.054 194.007 148.048 194.007C139.823 194.007 132.87 199.603 130.835 207.404H112.69V191.039C119.304 189.259 124.561 183.917 125.917 177.133C125.917 176.455 125.917 175.607 125.917 174.844C125.833 155.935 119.388 137.45 107.348 122.781Z" fill="white"/>
<path d="M188.495 80.9772C185.357 76.4832 183.831 71.0565 183.831 65.6297C183.831 51.8932 194.261 40.1918 208.082 38.4111H38.75V207.065C40.2763 193.328 52.1474 182.983 65.9687 182.983C71.3954 182.983 76.7374 184.51 81.3162 187.647C80.1291 181.711 79.3659 175.606 79.3659 169.501C79.3659 145.59 89.4563 122.611 107.263 106.585C123.458 88.9478 146.437 78.8574 170.518 78.8574C176.539 79.027 182.644 79.7901 188.495 80.9772Z" fill="#F5F4F4"/>
<path d="M29.5925 29.4235H214.526V20.3506H20.5195V213.594H29.5925V29.4235Z" fill="#F5F4F4"/>
<path d="M171.791 145.928C168.654 146.607 165.516 146.946 162.379 146.946C155.765 146.946 149.321 145.589 143.216 142.791C146.184 148.896 147.54 155.34 147.54 162.124C147.54 165.261 147.201 168.229 146.692 171.366C147.71 171.197 148.982 171.197 149.999 171.197C153.985 171.197 158.055 172.045 161.701 173.656V161.106H174.25C172.469 157.46 171.622 153.475 171.622 149.405C171.622 148.048 171.791 147.031 171.791 145.928Z" fill="#DEB569"/>
<path d="M55.3696 88.27C54.3521 90.3898 53.5889 92.5945 53.5889 95.0535C53.5889 99.5475 55.7087 103.957 59.5244 106.755C55.8783 109.553 53.5889 113.878 53.5889 118.456C53.5889 120.915 54.0977 123.12 55.3696 125.24C61.8139 114.81 73.0065 107.857 85.3015 106.755C73.0065 105.737 61.8139 98.9539 55.3696 88.27Z" fill="#9E5D31"/>
<path d="M125.833 55.0306C123.713 54.0131 121.509 53.25 119.05 53.25C114.556 53.25 110.146 55.3698 107.348 59.1855C104.55 55.5394 100.226 53.25 95.6467 53.25C93.1877 53.25 90.9831 53.7587 88.8633 55.0306C99.4624 61.4749 106.246 72.6676 107.348 84.793C108.366 72.5828 115.149 61.4749 125.833 55.0306Z" fill="#9E5D31"/>
<path d="M168.823 66.9023L171.452 52.0635C146.692 53.8441 123.883 65.6304 108.366 84.9632H107.179H105.992C92.9334 68.5982 74.2789 57.4054 53.759 53.4201C57.7443 73.9401 68.9369 92.425 85.302 105.483V106.67V107.857C65.9692 123.205 53.9286 146.014 52.4023 170.604L67.4107 167.976C67.4107 167.128 67.4107 166.195 67.4107 165.177C67.4107 143.046 76.314 121.933 92.0007 106.501C81.5711 96.2406 74.1942 83.5217 70.2089 69.5308C84.2846 73.3465 97.0035 80.8931 107.348 91.1531C122.865 75.4664 144.148 66.5631 166.279 66.5631C167.127 66.9022 167.975 66.9023 168.823 66.9023Z" fill="#DEB569"/>
<path d="M123.373 106.754C138.212 94.7137 156.612 88.0999 175.606 88.0999C176.284 88.0999 177.132 88.0999 177.895 88.0999C184.679 89.4566 190.106 94.5442 191.801 101.158H208.166V82.8427C200.366 80.8925 194.769 73.7698 194.769 65.7992C194.769 56.048 202.57 48.1623 212.576 48.1623C213.254 48.1623 213.932 48.1623 214.695 48.3319V38.4111H208.251C194.515 39.9374 184 51.6388 184 65.6297C184 71.0565 185.527 76.3984 188.664 80.9772C182.729 79.7901 176.623 79.027 170.518 79.027C146.437 79.027 123.628 89.1174 107.263 106.754C109.213 108.535 110.909 110.231 112.689 112.181C128.546 126.681 149.066 134.482 170.518 134.482C176.623 134.482 182.729 133.803 188.664 132.531C185.527 137.026 184 142.452 184 147.879C184 161.615 194.43 173.317 208.251 175.098H214.695V165.177C214.017 165.177 213.339 165.346 212.576 165.346C202.824 165.346 194.769 157.545 194.769 147.709C194.769 139.485 200.366 132.531 208.166 130.666V112.351H191.801C190.021 118.965 184.679 124.052 177.895 125.409C177.217 125.409 176.369 125.409 175.606 125.409C156.443 125.409 137.958 118.795 123.373 106.754Z" fill="#DEB569"/>
<path d="M165.855 213.594H175.776V207.149C174.249 193.413 162.378 183.068 148.557 183.068C143.13 183.068 137.788 184.594 133.21 187.732C134.397 181.796 135.16 175.691 135.16 169.586C135.16 148.303 127.104 127.783 112.69 112.096C110.739 110.316 109.044 108.62 107.263 106.669C89.4563 122.865 79.3659 145.674 79.3659 169.586C79.3659 175.691 80.0443 181.796 81.3162 187.732C76.8222 184.594 71.3954 183.068 65.9687 183.068C52.0626 183.068 40.3611 193.328 38.75 207.149V213.594H48.6709C48.6709 212.915 48.5012 212.237 48.5012 211.474C48.5012 201.722 56.3022 193.837 66.3078 193.837C74.5327 193.837 81.4858 199.433 83.5208 207.234H102.006V190.869C95.3919 189.088 90.1346 183.746 88.7779 176.963C88.7779 176.285 88.7779 175.437 88.7779 174.673C88.7779 155.68 95.3918 137.364 107.432 122.61C119.473 137.28 126.087 155.68 126.087 174.673C126.087 175.352 126.087 176.2 126.087 176.963C124.73 183.746 119.643 189.173 112.859 190.869V207.234H131.344C133.294 199.433 140.417 193.837 148.557 193.837C158.308 193.837 166.364 201.638 166.364 211.474C165.855 212.152 165.855 212.915 165.855 213.594Z" fill="#DEB569"/>
<path d="M38.6656 38.4966H207.828C208.845 38.3271 209.948 38.3271 211.135 38.3271C212.152 38.3271 213.424 38.3271 214.442 38.4966V29.4238H29.5928V213.594H38.6656C38.496 212.577 38.496 211.475 38.496 210.287C38.496 209.27 38.496 208.168 38.6656 206.98V38.4966V38.4966Z" fill="#2C485F"/>
<path d="M214.527 175.097C213.51 175.267 212.407 175.267 211.22 175.267C210.203 175.267 208.931 175.267 207.913 175.097H175.692V207.149C175.861 208.167 175.862 209.269 175.862 210.456C175.862 211.473 175.861 212.576 175.692 213.763H184.765V184.17H214.358L214.527 175.097Z" fill="#2C485F"/>
<path d="M214.441 192.989H193.921V213.509H214.441V192.989Z" fill="#2C485F"/>
<path d="M432.615 0.34375H218.427V213.856H432.615V0.34375Z" fill="#2C485F"/>
<path d="M432.615 20.731H218.427V29.7823H432.615V20.731Z" fill="#F5F4F4"/>
<path d="M432.615 184.333H218.427V193.384H432.615V184.333Z" fill="#F5F4F4"/>
<path d="M224.94 38.8335C238.729 40.4408 249.134 52.03 249.134 65.9878C249.134 71.4017 247.527 76.8157 244.397 81.2991C250.318 80.1148 256.409 79.3534 262.499 79.3534C286.524 79.3534 309.279 89.42 325.69 107.015C341.847 89.42 364.857 79.3534 388.881 79.3534C394.972 79.3534 401.062 80.0302 406.984 81.2991C403.854 76.8157 402.247 71.4017 402.247 65.9878C402.247 52.1992 412.651 40.6099 426.44 38.8335H224.94Z" fill="#F5F4F4"/>
<path d="M426.102 175.281C412.314 173.674 401.909 162.085 401.909 148.127C401.909 142.713 403.516 137.299 406.646 132.816C400.724 134 394.634 134.761 388.543 134.761C364.519 134.761 341.763 124.695 325.352 107.1C309.195 124.695 286.186 134.761 262.162 134.761C256.071 134.761 249.98 134.085 244.059 132.816C247.189 137.299 248.796 142.713 248.796 148.127C248.796 161.916 238.391 173.505 224.603 175.281H426.102Z" fill="#F5F4F4"/>
<path d="M395.986 125.457C402.754 124.103 408.168 119.028 409.944 112.43H426.271V130.702C418.404 132.647 412.905 139.753 412.905 147.789C412.905 157.517 420.772 165.385 430.669 165.385C431.346 165.385 432.023 165.385 432.784 165.215V48.6468C432.108 48.6468 431.431 48.4775 430.669 48.4775C420.941 48.4775 412.905 56.3447 412.905 66.0729C412.905 74.2783 418.488 81.2149 426.271 83.1605V101.433H409.944C408.168 94.8343 402.838 89.7588 395.986 88.4053C395.31 88.4053 394.379 88.4053 393.703 88.4053C374.754 88.4053 356.313 95.0036 341.509 107.016C356.313 119.028 374.754 125.626 393.703 125.626C394.548 125.626 395.31 125.457 395.986 125.457Z" fill="#F5F4F4"/>
<path d="M309.449 107.016C294.645 95.0036 276.204 88.4053 257.255 88.4053C256.578 88.4053 255.648 88.4053 254.971 88.4053C248.204 89.7588 242.79 94.8343 241.013 101.433H224.687V83.1605C232.554 81.2149 238.053 74.1092 238.053 66.0729C238.053 56.3447 230.185 48.4775 220.288 48.4775C219.611 48.4775 218.935 48.4776 218.173 48.6468V165.215C218.85 165.215 219.527 165.385 220.288 165.385C230.016 165.385 238.053 157.517 238.053 147.789C238.053 139.584 232.469 132.647 224.687 130.702V112.43H241.013C242.79 119.028 248.119 124.103 254.971 125.457C255.648 125.457 256.578 125.457 257.255 125.457C276.458 125.626 294.899 119.028 309.449 107.016Z" fill="white"/>
<path d="M432.7 29.7822H218.511V38.8336C219.526 38.6644 220.626 38.6645 221.81 38.6645C222.825 38.6645 224.094 38.6644 225.109 38.8336H426.271C427.286 38.6644 428.386 38.6645 429.57 38.6645C430.585 38.6645 431.854 38.6644 432.869 38.8336L432.7 29.7822Z" fill="#2C485F"/>
<path d="M261.484 52.3677L264.107 67.1714C264.953 67.1714 265.883 67.1714 266.898 67.1714C288.977 67.1714 310.21 76.0536 325.69 91.7033C341.171 76.0536 362.403 67.1714 384.482 67.1714C385.328 67.1714 386.258 67.1714 387.274 67.1714L389.896 52.3677C365.195 54.1441 342.355 65.9025 326.875 85.2742H325.521H324.337C308.941 65.9871 286.185 53.9749 261.484 52.3677Z" fill="#DEB569"/>
<path d="M343.962 55.3292C341.848 54.314 339.648 53.5527 337.195 53.5527C332.712 53.5527 328.313 55.6676 325.521 59.4742C322.73 55.8367 318.415 53.5527 313.847 53.5527C311.394 53.5527 309.11 54.0603 307.08 55.3292C317.654 61.7582 324.506 72.9245 325.521 85.1058C326.536 72.9245 333.473 61.7582 343.962 55.3292Z" fill="#9E5D31"/>
<path d="M325.521 129.009C324.506 141.36 317.654 152.357 307.08 158.786C309.195 159.801 311.394 160.562 313.847 160.562C318.331 160.562 322.73 158.447 325.521 154.641C328.313 158.278 332.627 160.562 337.195 160.562C339.648 160.562 341.932 160.055 343.962 158.786C333.473 152.272 326.536 141.191 325.521 129.009Z" fill="#9E5D31"/>
<path d="M325.521 122.327C310.041 137.976 288.808 146.859 266.729 146.859C265.883 146.859 264.953 146.859 263.938 146.859L261.315 161.662C286.016 159.886 308.856 148.127 324.337 128.756H325.521H326.705C342.186 148.043 365.026 159.886 389.727 161.662L387.105 146.859C386.259 146.859 385.328 146.859 384.313 146.859C362.404 146.859 341.171 138.061 325.521 122.327Z" fill="#DEB569"/>
<path d="M341.509 107.015C356.313 95.0032 374.754 88.405 393.703 88.405C394.379 88.405 395.31 88.405 395.987 88.405C402.754 89.7585 408.168 94.8339 409.944 101.432H426.271V83.1602C418.404 81.2145 412.905 74.1088 412.905 66.0725C412.905 56.3443 420.772 48.4772 430.669 48.4772C431.346 48.4772 432.023 48.4772 432.784 48.6464V38.749H426.355C412.567 40.3563 402.162 51.9455 402.162 65.9032C402.162 71.3172 403.769 76.7312 406.899 81.2146C400.977 80.0303 394.887 79.2689 388.796 79.2689C364.772 79.2689 342.016 89.3354 325.605 106.931C341.763 124.526 364.772 134.593 388.796 134.593C394.887 134.593 400.977 133.916 406.899 132.647C403.769 137.13 402.162 142.544 402.162 147.958C402.162 161.747 412.567 173.336 426.355 175.112H432.784V165.215C432.108 165.215 431.431 165.384 430.669 165.384C420.941 165.384 412.905 157.517 412.905 147.789C412.905 139.583 418.488 132.647 426.271 130.701V112.429H409.944C408.168 119.027 402.839 124.103 395.987 125.456C395.31 125.456 394.379 125.456 393.703 125.456C374.754 125.626 356.313 119.028 341.509 107.015Z" fill="#DEB569"/>
<path d="M244.397 132.816C250.318 134 256.409 134.761 262.499 134.761C286.524 134.761 309.279 124.695 325.69 107.1C309.533 89.5044 286.524 79.4378 262.499 79.4378C256.409 79.4378 250.318 80.1145 244.397 81.3834C247.527 76.9 249.134 71.4861 249.134 66.0722C249.134 52.2836 238.729 40.6944 224.94 38.918H218.511V48.8153C219.188 48.8153 219.865 48.6461 220.626 48.6461C230.354 48.6461 238.391 56.5132 238.391 66.2413C238.391 74.4468 232.807 81.3835 225.025 83.3291V101.601H241.351C243.128 95.0029 248.457 89.9273 255.309 88.5738C255.986 88.5738 256.916 88.5738 257.593 88.5738C276.542 88.5738 294.983 95.172 309.787 107.184C294.983 119.196 276.542 125.795 257.593 125.795C256.916 125.795 255.986 125.795 255.309 125.795C248.542 124.441 243.128 119.366 241.351 112.767H225.025V131.039C232.892 132.985 238.391 140.091 238.391 148.127C238.391 157.855 230.523 165.722 220.626 165.722C219.949 165.722 219.273 165.722 218.511 165.553V175.45H224.94C238.729 173.843 249.134 162.254 249.134 148.296C249.134 142.713 247.527 137.299 244.397 132.816Z" fill="#DEB569"/>
<path d="M432.7 175.281C431.685 175.45 430.585 175.45 429.401 175.45C428.386 175.45 427.117 175.45 426.102 175.281H224.941C223.925 175.45 222.826 175.45 221.641 175.45C220.626 175.45 219.357 175.45 218.342 175.281V184.333H432.531L432.7 175.281Z" fill="#2C485F"/>
<path d="M432.615 193.215H218.427V213.771H432.615V193.215Z" fill="#2C485F"/>
<path d="M0.000948475 431.746L0.000976562 217.557L213.513 217.557L213.513 431.746L0.000948475 431.746Z" fill="#2C485F"/>
<path d="M20.3882 431.746L20.3882 217.557L29.4396 217.557L29.4395 431.746L20.3882 431.746Z" fill="#F5F4F4"/>
<path d="M183.99 431.746L183.99 217.557L193.041 217.557L193.041 431.746L183.99 431.746Z" fill="#F5F4F4"/>
<path d="M38.4907 224.071C40.098 237.859 51.6873 248.264 65.645 248.264C71.059 248.264 76.4729 246.657 80.9563 243.527C79.772 249.449 79.0106 255.539 79.0106 261.63C79.0106 285.654 89.0772 308.41 106.672 324.821C89.0772 340.978 79.0106 363.987 79.0106 388.011C79.0106 394.102 79.6874 400.193 80.9563 406.114C76.4729 402.984 71.059 401.377 65.645 401.377C51.8564 401.377 40.2671 411.782 38.4907 425.57L38.4907 224.071Z" fill="#F5F4F4"/>
<path d="M174.938 425.233C173.331 411.444 161.742 401.039 147.784 401.039C142.37 401.039 136.956 402.646 132.473 405.776C133.657 399.855 134.419 393.764 134.419 387.673C134.419 363.649 124.352 340.894 106.757 324.483C124.352 308.326 134.419 285.316 134.419 261.292C134.419 255.201 133.742 249.111 132.473 243.189C136.956 246.319 142.37 247.926 147.784 247.926C161.573 247.926 173.162 237.522 174.938 223.733L174.938 425.233Z" fill="#F5F4F4"/>
<path d="M125.114 395.117C123.76 401.884 118.685 407.298 112.086 409.075L112.086 425.401L130.358 425.401C132.304 417.534 139.41 412.035 147.446 412.035C157.174 412.035 165.041 419.903 165.041 429.8C165.041 430.477 165.041 431.153 164.872 431.915L48.3035 431.915C48.3035 431.238 48.1343 430.561 48.1343 429.8C48.1343 420.072 56.0014 412.035 65.7296 412.035C73.9351 412.035 80.8716 417.619 82.8173 425.401L101.089 425.401L101.089 409.075C94.491 407.298 89.4155 401.969 88.0621 395.117C88.0621 394.44 88.0621 393.51 88.0621 392.833C88.0621 373.884 94.6603 355.443 106.672 340.639C118.685 355.443 125.283 373.884 125.283 392.833C125.283 393.679 125.114 394.44 125.114 395.117Z" fill="#F5F4F4"/>
<path d="M106.672 308.579C94.6603 293.775 88.0621 275.334 88.0621 256.385C88.0621 255.709 88.0621 254.778 88.0621 254.102C89.4155 247.334 94.491 241.92 101.089 240.144L101.089 223.817L82.8173 223.817C80.8716 231.684 73.7659 237.183 65.7296 237.183C56.0014 237.183 48.1343 229.316 48.1343 219.419C48.1343 218.742 48.1343 218.065 48.3035 217.304L164.872 217.304C164.872 217.98 165.041 218.657 165.041 219.419C165.041 229.147 157.174 237.183 147.446 237.183C139.241 237.183 132.304 231.6 130.358 223.817L112.086 223.817L112.086 240.144C118.685 241.92 123.76 247.25 125.114 254.102C125.114 254.778 125.114 255.709 125.114 256.385C125.283 275.588 118.685 294.029 106.672 308.579Z" fill="white"/>
<path d="M29.4394 431.83L29.4395 217.642L38.4908 217.642C38.3216 218.657 38.3217 219.756 38.3217 220.941C38.3217 221.956 38.3216 223.225 38.4908 224.24L38.4908 425.401C38.3216 426.416 38.3217 427.516 38.3217 428.7C38.3217 429.715 38.3216 430.984 38.4908 431.999L29.4394 431.83Z" fill="#2C485F"/>
<path d="M52.0249 260.615L66.8286 263.238C66.8286 264.084 66.8286 265.014 66.8286 266.029C66.8286 288.108 75.7108 309.341 91.3605 324.821C75.7108 340.302 66.8286 361.534 66.8286 383.613C66.8286 384.459 66.8286 385.389 66.8286 386.404L52.0249 389.027C53.8013 364.326 65.5597 341.486 84.9315 326.005L84.9315 324.652L84.9315 323.468C65.6443 308.072 53.6322 285.316 52.0249 260.615Z" fill="#DEB569"/>
<path d="M54.9864 343.092C53.9713 340.978 53.21 338.778 53.21 336.325C53.21 331.842 55.3248 327.443 59.1314 324.651C55.494 321.86 53.21 317.545 53.21 312.977C53.21 310.524 53.7175 308.24 54.9864 306.21C61.4154 316.784 72.5817 323.636 84.7631 324.651C72.5817 325.666 61.4154 332.603 54.9864 343.092Z" fill="#9E5D31"/>
<path d="M128.667 324.651C141.017 323.636 152.014 316.784 158.443 306.21C159.458 308.325 160.219 310.524 160.219 312.977C160.219 317.461 158.105 321.86 154.298 324.651C157.935 327.443 160.219 331.757 160.219 336.325C160.219 338.778 159.712 341.062 158.443 343.092C151.929 332.603 140.848 325.666 128.667 324.651Z" fill="#9E5D31"/>
<path d="M121.984 324.652C137.634 309.172 146.516 287.939 146.516 265.86C146.516 265.014 146.516 264.084 146.516 263.069L161.319 260.446C159.543 285.147 147.785 307.987 128.413 323.468L128.413 324.652L128.413 325.836C147.7 341.317 159.543 364.157 161.319 388.858L146.516 386.236C146.516 385.39 146.516 384.459 146.516 383.444C146.516 361.534 137.718 340.302 121.984 324.652Z" fill="#DEB569"/>
<path d="M106.673 340.64C94.6604 355.443 88.0622 373.885 88.0622 392.833C88.0622 393.51 88.0622 394.441 88.0622 395.117C89.4157 401.885 94.4911 407.299 101.089 409.075L101.089 425.402L82.8174 425.402C80.8717 417.534 73.766 412.036 65.7297 412.036C56.0016 412.036 48.1344 419.903 48.1344 429.8C48.1344 430.477 48.1345 431.154 48.3036 431.915L38.4062 431.915L38.4062 425.486C40.0135 411.698 51.6027 401.293 65.5605 401.293C70.9744 401.293 76.3884 402.9 80.8718 406.03C79.6875 400.108 78.9261 394.018 78.9261 387.927C78.9261 363.903 88.9926 341.147 106.588 324.736C124.183 340.894 134.25 363.903 134.25 387.927C134.25 394.018 133.573 400.108 132.304 406.03C136.787 402.9 142.201 401.293 147.615 401.293C161.404 401.293 172.993 411.698 174.77 425.486L174.77 431.915L164.872 431.915C164.872 431.238 165.041 430.562 165.041 429.8C165.041 420.072 157.174 412.036 147.446 412.036C139.241 412.036 132.304 417.619 130.359 425.402L112.086 425.402L112.086 409.075C118.685 407.299 123.76 401.969 125.114 395.117C125.114 394.441 125.114 393.51 125.114 392.833C125.283 373.885 118.685 355.443 106.673 340.64Z" fill="#DEB569"/>
<path d="M132.473 243.527C133.657 249.449 134.419 255.539 134.419 261.63C134.419 285.654 124.352 308.41 106.757 324.821C89.1616 308.663 79.095 285.654 79.095 261.63C79.095 255.539 79.7718 249.449 81.0407 243.527C76.5573 246.657 71.1433 248.264 65.7294 248.264C51.9408 248.264 40.3516 237.859 38.5752 224.071L38.5752 217.642L48.4725 217.642C48.4725 218.318 48.3034 218.995 48.3034 219.756C48.3033 229.485 56.1704 237.521 65.8986 237.521C74.104 237.521 81.0407 231.938 82.9863 224.155L101.258 224.155L101.258 240.482C94.6601 242.258 89.5845 247.587 88.231 254.439C88.231 255.116 88.231 256.047 88.231 256.723C88.231 275.672 94.8293 294.113 106.841 308.917C118.854 294.113 125.452 275.672 125.452 256.723C125.452 256.047 125.452 255.116 125.452 254.439C124.098 247.672 119.023 242.258 112.425 240.482L112.425 224.155L130.697 224.155C132.642 232.022 139.748 237.521 147.784 237.521C157.512 237.521 165.379 229.654 165.379 219.756C165.379 219.08 165.38 218.403 165.21 217.642L175.108 217.642L175.108 224.071C173.5 237.859 161.911 248.264 147.953 248.264C142.37 248.264 136.956 246.657 132.473 243.527Z" fill="#DEB569"/>
<path d="M174.938 431.83C175.107 430.815 175.107 429.716 175.107 428.531C175.107 427.516 175.107 426.247 174.938 425.232L174.938 224.071C175.107 223.056 175.107 221.956 175.107 220.772C175.107 219.757 175.107 218.488 174.938 217.473L183.989 217.473L183.989 431.661L174.938 431.83Z" fill="#2C485F"/>
<path d="M192.872 431.746L192.872 217.557L213.428 217.557L213.428 431.746L192.872 431.746Z" fill="#2C485F"/>
</g>
<defs>
<clipPath id="clip0_65_1467">
<rect width="432" height="432" fill="white"/>
</clipPath>
</defs>
</svg>
