<svg width="432px" height="432px" id="faixas" viewBox="0 0 432 432" fill="none" xmlns="http://www.w3.org/2000/svg">
<g clip-path="url(#clip0_65_1504)">
<path d="M214.696 0H0V213.934H214.696V0Z" fill="#2D2E27"/>
<path d="M94.7805 177.461L74.1318 213.85H115.345L94.7805 177.461Z" fill="#2D2E27"/>
<path d="M214.695 73.8784L178.052 94.4424L214.695 114.837V73.8784Z" fill="#2D2E27"/>
<path d="M214.695 184.653H185.33V213.849H196.162V195.57H214.695V184.653Z" fill="#7B7970"/>
<path d="M214.695 129.054H165.782L129.646 165.105V213.849H145.048V171.452L172.044 144.371H214.695V129.054Z" fill="#7B7970"/>
<path d="M214.695 44.2598H123.384L113.821 53.9917L123.046 66.2625L129.816 59.577H214.695V44.2598Z" fill="#7B7970"/>
<path d="M112.044 77.3477L102.82 64.9077L44.5127 122.961V213.849H59.8299V129.223L112.044 77.3477Z" fill="#7B7970"/>
<path d="M29.281 29.1965H214.696V18.2798H18.3643V213.85H29.281V29.1965Z" fill="#7B7970"/>
<path d="M185.33 184.654H214.695V144.372H172.043L145.048 171.452V213.849H185.33V184.654Z" fill="#F6F6F6"/>
<path d="M92.8332 141.918L66.6839 122.539L59.8291 129.224V213.85H74.1309L94.7796 177.461L115.344 213.85H129.645V165.105L165.611 129.055H214.694V114.838L178.051 94.4429L214.694 73.8789V59.5771H129.815L123.045 66.2626L142.424 92.4966V141.918H92.8332Z" fill="#F6F6F6"/>
<path d="M77.6865 111.621L97.912 126.6H127.023V97.5732L112.045 77.3477L77.6865 111.621Z" fill="white"/>
<path d="M102.819 64.9073L101.042 62.1992H62.6221V100.619L65.0762 102.481L102.819 64.9073Z" fill="white"/>
<path d="M108.743 46.9672L113.82 53.9912L123.383 44.2592H214.694V29.1958H29.2793V213.849H44.5119V122.961L54.0747 113.398L47.3046 108.321V46.9672H108.743Z" fill="#F6F6F6"/>
<path d="M142.425 92.496L123.046 66.262L113.822 53.9913L108.744 46.9673H47.3057V108.321L54.0757 113.399L65.0771 102.482L62.6229 100.62V62.1999H101.043L102.82 64.908L112.044 77.348L127.023 97.5736V126.6H97.9118L77.6863 111.621L66.685 122.538L92.8343 141.917H142.425V92.496Z" fill="#2D2E27"/>
<path d="M432.867 0H218.172V215.714H432.867V0Z" fill="#2D2E27"/>
<path d="M432.868 74.5366L396.194 95.2505L432.868 115.88V74.5366Z" fill="#2D2E27"/>
<path d="M254.846 95.2505L218.172 74.5366V115.88L254.846 95.2505Z" fill="#2D2E27"/>
<path d="M353.408 95.2509L378.367 60.1051H432.868V44.7393H370.556L334.562 95.2509L370.556 145.678H432.868V130.227H378.367L353.408 95.2509Z" fill="#7B7970"/>
<path d="M432.867 186.257H218.172V197.293H432.867V186.257Z" fill="#7B7970"/>
<path d="M280.653 44.7393H218.172V60.1051H219.021H272.758L297.717 95.2509L272.758 130.227H218.172V145.678H280.653L316.648 95.2509L280.653 44.7393Z" fill="#7B7970"/>
<path d="M218.172 29.2881V44.7387H280.653L287.785 54.841L295 44.7387H325.477H356.039L363.17 54.841L370.556 44.7387H432.867V29.2881H218.172Z" fill="#F6F6F6"/>
<path d="M219.021 60.1045H218.172V74.5364L254.846 95.2503L218.172 115.879V130.226H272.589L278.361 122.416L259.006 95.2503L278.361 67.9146L272.589 60.1045H219.021Z" fill="#F6F6F6"/>
<path d="M392.034 95.2503L372.848 122.416L378.366 130.226H432.867V115.879L396.193 95.2503L432.867 74.5364V60.1045H378.366L372.848 67.9146L392.034 95.2503Z" fill="#F6F6F6"/>
<path d="M353.406 95.2496L363.169 109.087L373.186 95.2496L363.169 81.2422L353.406 95.2496Z" fill="#4F4F4F"/>
<path d="M277.852 95.2506L287.784 109.088L297.717 95.2506L287.784 81.2432L277.852 95.2506Z" fill="#4F4F4F"/>
<path d="M325.478 130.226H348.229L353.747 122.416L334.561 95.2503L353.747 67.9146L348.229 60.1045H325.478H302.811L297.208 67.9146L316.649 95.2503L297.208 122.416L302.811 130.226H325.478Z" fill="#F6F6F6"/>
<path d="M218.172 145.677V186.256H432.867V145.677H370.556L363.17 135.745L356.039 145.677H325.477H295L287.785 135.745L280.653 145.677H218.172Z" fill="#F6F6F6"/>
<path d="M432.867 18.4219H218.172V29.2034H432.867V18.4219Z" fill="#7B7970"/>
<path d="M392.032 95.2507L372.846 67.915L363.168 81.2433L373.185 95.2507L363.168 109.088L372.846 122.417L392.032 95.2507Z" fill="#2D2E27"/>
<path d="M363.168 135.745L353.744 122.417L348.226 130.227H325.475H302.808L297.205 122.417L287.782 135.745L294.998 145.678H325.475H356.037L363.168 135.745Z" fill="#2D2E27"/>
<path d="M356.037 44.7393H325.475H294.998L287.782 54.8416L297.205 67.9152L302.808 60.1051H325.475H348.226L353.744 67.9152L363.168 54.8416L356.037 44.7393Z" fill="#2D2E27"/>
<path d="M277.853 95.2507L287.786 81.2433L278.363 67.915L259.007 95.2507L278.363 122.417L287.786 109.088L277.853 95.2507Z" fill="#2D2E27"/>
<path d="M-2.81539e-05 431.999L0 217.303L215.714 217.303L215.714 431.999L-2.81539e-05 431.999Z" fill="#2D2E27"/>
<path d="M74.5371 432L95.251 395.326L115.88 432L74.5371 432Z" fill="#2D2E27"/>
<path d="M95.251 253.977L74.5371 217.303L115.88 217.303L95.251 253.977Z" fill="#2D2E27"/>
<path d="M95.2509 352.539L60.1051 377.498L60.105 432L44.7392 432L44.7393 369.688L95.2509 333.693L145.678 369.688L145.678 432L130.227 432L130.227 377.498L95.2509 352.539Z" fill="#7B7970"/>
<path d="M186.256 431.999L186.256 217.303L197.292 217.303L197.292 431.999L186.256 431.999Z" fill="#7B7970"/>
<path d="M44.7392 279.785L44.7393 217.303L60.1051 217.303L60.1051 218.152L60.105 271.89L95.2509 296.848L130.227 271.89L130.227 217.303L145.678 217.303L145.678 279.785L95.2509 315.78L44.7392 279.785Z" fill="#7B7970"/>
<path d="M29.2891 217.303L44.7396 217.303L44.7396 279.785L54.842 286.916L44.7396 294.132L44.7396 324.609L44.7396 355.17L54.842 362.301L44.7396 369.687L44.7396 431.999L29.289 431.999L29.2891 217.303Z" fill="#F6F6F6"/>
<path d="M60.1045 218.152L60.1045 217.303L74.5364 217.303L95.2503 253.977L115.879 217.303L130.226 217.303L130.226 271.72L122.416 277.493L95.2503 258.137L67.9146 277.493L60.1045 271.72L60.1045 218.152Z" fill="#F6F6F6"/>
<path d="M95.2503 391.165L122.416 371.979L130.226 377.497L130.226 431.999L115.879 431.999L95.2503 395.325L74.5364 431.999L60.1045 431.999L60.1045 377.497L67.9146 371.979L95.2503 391.165Z" fill="#F6F6F6"/>
<path d="M95.2506 352.539L109.088 362.302L95.2506 372.319L81.2432 362.302L95.2506 352.539Z" fill="#4F4F4F"/>
<path d="M95.2506 276.983L109.088 286.916L95.2506 296.848L81.2432 286.916L95.2506 276.983Z" fill="#4F4F4F"/>
<path d="M130.226 324.608L130.226 347.36L122.416 352.878L95.2503 333.692L67.9146 352.878L60.1045 347.36L60.1045 324.608L60.1045 301.942L67.9146 296.339L95.2503 315.779L122.416 296.339L130.226 301.942L130.226 324.608Z" fill="#F6F6F6"/>
<path d="M145.677 217.303L186.256 217.303L186.256 431.999L145.677 431.999L145.677 369.687L135.744 362.301L145.677 355.17L145.677 324.609L145.677 294.132L135.744 286.916L145.677 279.785L145.677 217.303Z" fill="#F6F6F6"/>
<path d="M18.4209 431.999L18.4209 217.303L29.2024 217.303L29.2024 431.999L18.4209 431.999Z" fill="#7B7970"/>
<path d="M95.2507 391.165L67.915 371.979L81.2433 362.301L95.2507 372.318L109.088 362.301L122.417 371.979L95.2507 391.165Z" fill="#2D2E27"/>
<path d="M135.744 362.3L122.416 352.877L130.226 347.359L130.226 324.608L130.226 301.941L122.416 296.338L135.744 286.915L145.677 294.131L145.677 324.608L145.677 355.169L135.744 362.3Z" fill="#2D2E27"/>
<path d="M44.7392 355.169L44.7393 324.608L44.7393 294.131L54.8416 286.915L67.9152 296.338L60.1051 301.941L60.1051 324.608L60.105 347.359L67.9152 352.877L54.8416 362.3L44.7392 355.169Z" fill="#2D2E27"/>
<path d="M95.2507 276.985L81.2433 286.917L67.915 277.494L95.2507 258.138L122.417 277.494L109.088 286.917L95.2507 276.985Z" fill="#2D2E27"/>
</g>
<defs>
<clipPath id="clip0_65_1504">
<rect width="432" height="432" fill="white"/>
</clipPath>
</defs>
</svg>
