<?xml version="1.0" encoding="utf-8"?>
<!-- Generator: Adobe Illustrator 23.0.3, SVG Export Plug-In . SVG Version: 6.00 Build 0)  -->
<svg version="1.1" id="Layer_1" xmlns="http://www.w3.org/2000/svg" xmlns:xlink="http://www.w3.org/1999/xlink" x="0px" y="0px"
	 viewBox="0 0 500 500" style="enable-background:new 0 0 500 500;" xml:space="preserve">
<style type="text/css">
	.st0{fill:#FFFFFF;}
	.st1{fill:#F7838D;}
	.st2{fill:#006400;}
	.st3{fill:#FF0000;}
</style>
<rect x="-0.3" y="0.6" class="st0" width="248.6" height="499.4"/>
<rect x="251.4" y="0.6" class="st0" width="248.6" height="248.6"/>
<g id="A">
	<g>
		<path class="st1" d="M248.3-0.1c0,6.4,0,12.8,0,19.1c0,0-0.1,0.1-0.1,0.1c-0.3,0-0.5,0-0.8,0c-75.9,0-151.8,0-227.6,0
			c-0.6,0-0.7,0.1-0.7,0.7c0,75.9,0,151.8,0,227.7c0,0.3,0,0.5,0,0.8c0,0-0.1,0.1-0.1,0.1c-6.4,0-12.8,0-19.1,0c0,0-0.1-0.1-0.1-0.1
			c0-0.3,0-0.5,0-0.8c0-82.3,0-164.6,0-247c0-0.2,0-0.5,0-0.7c0,0,0.1-0.1,0.1-0.1c0.2,0,0.5,0,0.7,0c82.3,0,164.6,0,246.9,0
			c0.3,0,0.5,0,0.8,0C248.3-0.1,248.3-0.1,248.3-0.1z M184.6,104.1c-0.2,1.7-0.4,3.3-0.5,5c-0.2,1.9-0.3,3.9-0.6,5.8
			c-0.3,2.1-0.5,4.2-0.8,6.3c-0.5,3-1.1,6-1.9,8.9c-0.1,0.3-0.2,0.6-0.2,0.9c-0.3,0-0.5,0-0.8,0c-16,0-32.1,0-48.1,0
			c-0.6,0-0.8,0.1-0.8,0.7c0,12.7,0,25.4,0,38.1c-3.3-0.3-6.4-1.2-9.4-2.6c-3.3-1.6-6.2-3.7-8.9-6.2c-2.2-2-4-4.2-5.8-6.6
			c-1-1.2-1.9-2.5-2.8-3.8c0-0.3,0-0.5,0-0.8c0-15.1,0-30.1,0-45.2c0-0.6,0.1-0.7,0.7-0.7c26.4,0,52.9,0,79.3,0
			C184.1,104,184.4,103.9,184.6,104.1z M130.9,192.1C130.9,192.1,130.8,192.1,130.9,192.1c-0.2,0.3-0.1,0.4-0.1,0.6
			c0,3.9,0,7.8,0,11.8c0,0.2,0,0.3,0.1,0.5c0,0,0,0.1,0.1,0.1c0,0.3,0,0.5,0,0.8c0,14,0,27.9,0,41.9c0,0.3,0,0.5,0,0.8
			c0,0-0.1,0.1-0.1,0.1c-6.3,0-12.5,0-18.8,0c-2.7,0-5.3,0-8,0c0,0-0.1-0.1-0.1-0.1c0-1.8,0-3.6,0-5.4c0-11.2,0-22.4,0-33.6
			c0-0.3,0-0.5,0-0.8c0,0,0.1-0.1,0.1-0.1c0.1-0.2,0.1-0.4,0.1-0.6c0-3.9,0-7.8,0-11.8c0-0.2,0-0.4-0.1-0.6c0,0,0-0.1-0.1-0.1
			c0-0.2,0-0.5,0-0.7c0-8.5,0-17.1,0-25.6c0-0.2,0-0.5,0-0.7l0,0c1.5,1.2,3,2.5,4.4,3.7c1.6,1.4,3.5,2.4,5.3,3.5
			c4.5,2.6,9.3,4.5,14.4,5.5c0.9,0.2,1.8,0.3,2.7,0.4c0,0.4,0,0.8,0,1.1C130.9,185.9,130.9,189,130.9,192.1z M199.5,119.8
			c0-2.2-0.1-4.3,0.1-6.5c0.3-3.1,0.3-6.2,0.8-9.3c0.2,0,0.3,0,0.5,0c15.6,0,31.2,0,46.9,0c0.1,0,0.3,0,0.4,0c0,0,0.1,0.1,0.1,0.1
			c0,6.3,0,12.5,0,18.8c0,2.7,0,5.3,0,8c0,0-0.1,0.1-0.1,0.1c-0.1,0-0.3,0-0.4,0c-15.7,0-31.3,0-47,0c-0.1,0-0.3,0-0.4,0
			c-0.9-0.2-0.9-0.2-0.9-1.2C199.5,126.5,199.5,123.2,199.5,119.8z M375.6,19.2c-41.2,0-82.3,0-123.5,0c-1,0-0.8,0.1-0.8-0.8
			c0-6,0-11.9,0-17.9c0-0.5,0.1-0.7,0.7-0.7c82.4,0,164.9,0,247.3,0c0.6,0,0.7,0.1,0.7,0.7c0,6,0,12,0,18c0,0.6-0.1,0.8-0.8,0.8
			C458,19.2,416.8,19.2,375.6,19.2z M442.6,131c-6.2,0-12.4,0-18.7,0c-0.3,0-0.5,0-0.8,0c-31.6,0-63.2,0-94.9,0c-0.3,0-0.5,0-0.8,0
			c-0.3-2-0.6-4-0.9-6c-0.3-2.1-0.7-4.3-1.1-6.4c-0.5-2.3-0.8-4.6-1.3-6.8c-0.5-1.9-0.4-3.8-0.1-5.7c0.1-0.7,0.3-1.4,0.3-2
			c0.2,0,0.4,0,0.6,0c35,0,70,0,105,0c0.2,0,0.5,0,0.7,0c5.8,0,11.5,0,17.3,0c0.3,0,0.6,0,0.8,0c16.8,0,33.6,0,50.4,0
			c0.6,0,0.8,0.1,0.8,0.7c0,8.5,0,17,0,25.6c0,0.6-0.2,0.7-0.8,0.7c-18.6,0-37.2,0-55.8,0C443.2,130.9,442.9,130.9,442.6,131z
			 M304,103.9c0.6,2.3,1.1,4.6,1.6,6.9c0.5,2.6,1.1,5.2,1.5,7.9c0.5,2.9,0.9,5.7,1.4,8.6c0.2,1.2,0.6,2.4,0.7,3.7
			c-0.2,0-0.4,0-0.6,0c-18.8,0-37.6,0-56.5,0c-0.7,0-0.8-0.2-0.8-0.8c0-8.5,0-17,0-25.6c0-0.6,0.2-0.7,0.7-0.7c17,0,34.1,0,51.1,0
			C303.4,103.9,303.7,103.9,304,103.9z M19.2,375.3c0,41.2,0,82.3,0,123.5c0,1,0.1,0.8-0.8,0.8c-6,0-11.9,0-17.9,0
			c-0.5,0-0.7-0.1-0.7-0.7c0-82.4,0-164.9,0-247.3c0-0.6,0.1-0.7,0.7-0.7c6,0,12,0,17.9,0c0.6,0,0.8,0.1,0.8,0.8
			C19.2,293,19.2,334.2,19.2,375.3z M130.9,308.3c0,6.2,0,12.4,0,18.7c0,0.3,0,0.5,0,0.8c0,31.6,0,63.3,0,94.9c0,0.3,0,0.5,0,0.8
			c-2,0.3-4,0.6-6,0.9c-2.1,0.3-4.3,0.7-6.4,1.1c-2.3,0.5-4.6,0.8-6.8,1.3c-1.9,0.5-3.8,0.4-5.7,0.1c-0.7-0.1-1.4-0.3-2-0.3
			c0-0.2,0-0.4,0-0.6c0-35,0-70,0-105c0-0.2,0-0.5,0-0.7c0-5.8,0-11.5,0-17.3c0-0.3,0-0.6,0-0.8c0-16.8,0-33.6,0-50.4
			c0-0.6,0.1-0.8,0.7-0.8c8.5,0,17,0,25.6,0c0.6,0,0.7,0.2,0.7,0.8c0,18.6,0,37.2,0,55.8C130.9,307.8,130.9,308.1,130.9,308.3z
			 M103.9,447c2.3-0.6,4.6-1.1,6.9-1.6c2.6-0.5,5.2-1.1,7.9-1.5c2.9-0.5,5.7-0.9,8.6-1.4c1.2-0.2,2.4-0.7,3.7-0.7c0,0.2,0,0.4,0,0.6
			c0,18.8,0,37.6,0,56.5c0,0.7-0.2,0.8-0.8,0.8c-8.5,0-17,0-25.6,0c-0.6,0-0.7-0.2-0.7-0.7c0-17,0-34.1,0-51.1
			C103.9,447.6,103.9,447.3,103.9,447z"/>
	</g>
</g>
<g id="B">
	<g>
		<path class="st2" d="M104,168.4c-1.6-1.4-2.9-3-4.3-4.6c-1.6-1.8-3-3.7-4.3-5.7c-1.7-2.6-3.4-5.2-4.8-8c-0.4-0.9-0.9-1.7-2-1.9
			c-1.1-0.2-1.8,0.1-2.5,0.8c-1.7,1.6-2.5,3.6-3.1,5.8c-0.4,1.5-0.5,3.1-0.8,4.6c-0.1,0.3-0.1,0.6-0.4,0.7c-0.2,0.1-0.3-0.1-0.5-0.3
			c0.1-0.7,0.2-1.4,0.3-2.1c0.2-1.6,0-3-0.8-4.4c-0.8-1.4-2-2.4-3.2-3.3c-0.4-0.2-0.4-0.5-0.2-0.9c0.3-0.5,0.5-1,0.7-1.5
			c0.4-0.9,0.6-1.9,0.3-2.9c-0.4-1.5-1.2-2.7-2.4-3.7c-0.2-0.1-0.3-0.3-0.3-0.5c0.2-0.5,0.5-0.4,0.9-0.2c0.7,0.3,1.2,0.8,1.7,1.2
			c1.6,1.4,3.3,2.5,5.4,2.9c0.5,0.1,1.1,0.2,1.6,0.2c0.6,0,1-0.3,1.3-0.9c0.6-1.2,0.2-2.3-0.2-3.4c-1-2.7-1.7-5.5-2.6-8.3
			c-0.9-2.9-1.4-5.9-2.2-8.9c-0.6-2.5-0.9-5.1-1.3-7.6c-0.3-2-0.6-4-0.8-6c-0.2-2.4-0.5-4.8-0.6-7.3c-0.1-1.6-0.2-3.1-0.2-4.7
			c0-2-0.1-4.1-0.2-6.1c-0.1-2,0-3.9-0.1-5.9c0-0.2,0-0.4,0.1-0.6c0.3-1.4-0.1-2.7-0.7-3.9c-0.4-0.7-1.7-0.7-2.5,0
			c-2.1,1.7-3.3,4-4.3,6.4c-1.3,3.3-2.5,6.7-3.9,10c-1.2,2.9-2.8,5.7-4.9,8.1c-2.2,2.6-4.7,4.8-7.8,6.4c-1.9,1-3.9,1.6-6.1,1.8
			c-1.4,0.2-2.8,0.1-4.2,0.3c-1.6,0.1-3.3,0.1-4.9,0.2c-3.8,0.4-7.2,1.6-10.3,3.9c-0.2,0.2-0.4,0.3-0.6,0.4
			c-0.1,0.1-0.2,0.3-0.4,0.1c-0.1-0.1-0.1-0.3,0-0.4c0.2-0.5,0.4-1,0.7-1.5c1.1-2,1.6-4.3,2-6.5c0.4-2.1,0.6-4.2,0.8-6.3
			c0.3-2.8,0.4-5.6,1-8.3c0.4-2,1-4,1.8-5.9c0.7-1.5,1.6-2.9,2.6-4.2c1.5-1.9,3.4-3.5,5.5-4.8c2.9-1.7,5.9-3.1,9-4.1
			c3.2-1,6.4-1.8,9.7-2.4c1.8-0.3,3.5-0.5,5.3-0.8c0.2,0,0.4-0.1,0.6-0.2c-4-1.1-7.6-2.7-11.2-4.6c-2.6-1.4-5-3.1-7.3-5
			c-1.9-1.6-3.7-3.1-5.4-4.9c-2-2.1-3.8-4.3-5.5-6.6c-1.8-2.6-3.4-5.2-4.8-8c-1-2.1-1.9-4.2-2.6-6.4c-0.7-2.2-1.2-4.4-1.5-6.7
			c-0.3-1.9-0.2-3.8-0.2-5.7c0-0.4,0.2-0.8,0.1-1.2c0-0.3,0.2-0.3,0.5-0.3c1.1-0.1,2.3-0.2,3.4-0.2c1.5,0,3.1,0.1,4.6,0.3
			c2.2,0.3,4.3,0.7,6.4,1.5c1.5,0.5,3,1.1,4.5,1.8c2.7,1.2,5.3,2.8,7.7,4.6c1.4,1,2.8,2.2,4.1,3.3c1.4,1.2,2.7,2.5,4,3.8
			c2.5,2.6,4.9,5.4,7,8.4c2.2,3,4.3,6.1,6.1,9.3c1.9,3.2,3.6,6.6,5.1,10.1c0.2,0.5,0.4,1,0.7,1.6c0.1-3.4,0.5-6.6,1.3-9.7
			c0.8-3.2,2-6.3,3.8-9.1c1.1-1.7,2.4-3.3,3.8-4.7c1.6-1.5,3.4-2.8,5.3-3.9c3.4-1.9,7.2-3.1,11-3.9c2.1-0.5,4.3-0.8,6.5-1.1
			c2.3-0.3,4.6-0.5,6.8-0.8c1.7-0.2,3.4-0.3,5-0.5c3.5-0.5,7-1,10.2-2.6c0.9-0.4,1.6-1,2.4-1.6c0.1-0.1,0.2-0.3,0.4-0.2
			c0.2,0.2-0.1,0.3-0.2,0.4c-0.9,0.9-1.7,1.8-2.6,2.7c-2.3,2.5-4.4,5.2-6.2,8.2c-2,3.2-3.5,6.6-5.3,10c-1.3,2.4-2.8,4.7-4.5,6.8
			c-1.3,1.7-2.9,3.2-4.5,4.6c-1.1,1.1-2.4,2-3.8,2.8c-2.4,1.5-4.9,2.5-7.6,3.1c-2.6,0.6-5.2,1.1-7.7,1.7c-3.5,0.9-5.9,3-7.3,6.3
			c-1.1,2.6-1.5,5.3-2.1,7.9c-0.4,1.8-0.5,3.7-0.7,5.6c-0.1,1.4-0.1,2.8-0.1,4.2c0.1,2.3,0.2,4.6,0.4,6.9c0.3,2.8,0.7,5.5,1.1,8.2
			c0.4,2.5,1,5,1.6,7.5c1,4.3,2.2,8.6,3.7,12.8c1.2,3.6,2.6,7.1,4.2,10.5c1.7,3.6,3.6,7,5.7,10.3c0,0,0.1,0.1,0.1,0.1
			c0.9,1.3,1.9,2.5,2.8,3.8c1.8,2.3,3.6,4.6,5.8,6.6c2.7,2.5,5.6,4.6,8.9,6.2c3,1.4,6.1,2.3,9.4,2.6c0.1,0.1,0.2,0.1,0.3,0.1
			c1.6,0.1,3.2,0.2,4.8,0c1.8-0.1,3.5-0.5,5.2-0.9c2.3-0.6,4.6-1.4,6.8-2.3c2.3-1,4.6-2.2,6.7-3.6c2.2-1.4,4.3-2.9,6.3-4.5
			c2.6-2.1,5-4.3,7.4-6.5c1.2-1.1,2.2-2.3,3.1-3.5c1.7-2,3.1-4.2,4.4-6.5c1.3-2.3,2.5-4.7,3.4-7.2c0.5-1.3,1-2.6,1.2-3.9
			c0.1-0.3,0.2-0.6,0.2-0.9c0.8-2.9,1.4-5.9,1.9-8.9c0.3-2.1,0.5-4.2,0.8-6.3c0.2-1.9,0.4-3.8,0.6-5.8c0.2-1.7,0.4-3.3,0.5-5
			c0.2-0.5,0.1-1.1,0.2-1.7c0.2-2.2,0.6-4.5,0.9-6.7c0.4-2.9,1-5.7,1.8-8.5c0.2-0.9-0.6-2.5-1.9-2.5c-1.9,0-3.7,0.6-5.4,1.4
			c-1.6,0.8-3,2-4.5,3c-0.1,0.1-0.2,0.1-0.3,0.2c-0.6,0.4-0.6,0.3-0.7-0.4c0.1-0.1,0.2-0.3,0.4-0.3c0.7-0.3,1.3-0.8,1.8-1.3
			c2.4-2,2.6-4.7,2.3-7.5c-0.1-0.9-0.2-0.9,0.7-1.2c0.2-0.1,0.5-0.2,0.7-0.3c1.8-0.6,3-1.6,3.5-3.5c0.3-1.1,0.3-2.2,0.3-3.3
			c0.5-0.3,0.7-0.1,0.8,0.4c0.3,0.9,0.3,1.9,0.4,2.8c0.1,1.3,0.4,2.6,0.9,3.8c0.2,0.6,0.7,1.1,1.2,1.4c1.3,0.8,2.2,0.2,2.7-0.8
			c1.6-3.2,3.3-6.3,5.3-9.2c0.7-1,1.4-1.9,2.2-2.7c1.6-1.8,3.4-3.3,5.1-4.8c2.3-2,4.8-3.8,7.5-5.4c2.5-1.5,5-2.9,7.6-4.1
			c2.8-1.4,5.8-2.4,8.7-3.5c3.1-1.2,6.4-2,9.6-2.7c1.7-0.4,3.4-0.6,5-0.9c2.1-0.4,4.2-0.4,6.3-0.8c0.4-0.1,0.5,0.2,0.5,0.5
			c0,2.2,0,4.5,0,6.7c0,3,0,6,0,9.1c0,0.6-0.1,0.8-0.8,0.8c-2.2,0.1-4.3,0.1-6.5,0.4c-3.4,0.4-6.7,0.8-10,1.6
			c-2.8,0.7-5.6,1.4-8.1,2.8c-0.9,0.5-1.8,0.8-2.7,1.3c-1.9,1.2-3.7,2.5-5.4,4c-2.4,2.1-4.4,4.5-6.2,7.2c-1.9,2.8-3.4,5.8-4.6,8.9
			c-1.4,3.6-2.3,7.4-3.1,11.2c-0.3,1.4-0.4,2.9-0.6,4.3c0,0.1,0,0.2,0.1,0.3c-0.5,3.1-0.5,6.2-0.8,9.3c-0.2,2.2-0.1,4.3-0.1,6.5
			c-0.2,0.2-0.1,0.5-0.1,0.8c0,3.5,0,6.9,0,10.4c0,3.3,0,6.6,0,9.8c0,2.2-0.2,4.4-0.3,6.6c-0.1,1.8-0.3,3.7-0.5,5.5
			c-0.2,1.5-0.3,3-0.6,4.5c-0.9,3.8-1.6,7.7-3,11.3c-1.3,3.4-3,6.7-5.1,9.7c-1.3,1.8-2.7,3.5-4.2,5.1c-0.7,0.8-1.2,1.7-1.1,2.8
			c0,0.7,0.4,1.3,0.8,1.8c1,1.3,2.2,2.3,4,2.4c0.9,0,1.8,0.2,2.7-0.1c1.3-0.5,2.4-1.3,3.4-2.2c1.3-1.3,2.3-2.8,3.1-4.4
			c1.1-2.2,1.8-4.6,2.7-6.9c1-2.7,1.8-5.5,2.7-8.2c1.2-3.7,2.7-7.2,4.8-10.5c1.2-1.8,2.6-3.5,4.3-4.9c2.1-1.8,4.4-3,7-3.9
			c1.4-0.5,2.9-0.7,4.5-0.9c1.7-0.2,3.4-0.1,5.1-0.1c2,0,3.9,0.3,5.9,0.7c1.6,0.3,3.2,0.7,4.8,1.1c0.8,0.2,0.8,0.3,0.2,0.8
			c-1.1,0.9-2.3,1.9-3.3,2.9c-2.3,2.3-3.9,5-5.1,7.9c-1.6,3.7-2.4,7.6-3.3,11.5c-0.6,2.7-1.3,5.3-2.5,7.8c-0.8,1.6-1.7,3-2.9,4.3
			c-1.2,1.3-2.6,2.4-4.1,3.3c-2.5,1.5-5.2,2.2-7.9,2.9c-1.5,0.3-3,0.5-4.5,0.7c-1.3,0.2-2.5,0.3-3.8,0.3c-0.4,0-0.7,0.2-1.1,0.2
			c1.9,0.5,3.6,1.3,5.5,1.6c1.9,0.3,3.9,0.6,5.8,0.9c0.6,0.1,1.3,0.1,1.9,0.1c1.8,0.1,3.6,0.4,5.4,0.3c1.8-0.1,3.4,0.4,5,1
			c1.9,0.7,3.7,1.6,5.3,2.9c2,1.6,3.6,3.5,4.9,5.6c1.8,2.9,2.9,6.2,4.5,9.2c1,1.8,2,3.6,3.6,5.1c1.1,1,2.3,1.9,3.7,2.6
			c0.6,0.3,0.6,0.5,0.1,1c-2,1.7-4.3,2.8-6.8,3.5c-1.1,0.3-2.2,0.6-3.4,0.6c-1.1,0-2.1,0.1-3.2,0c-2.3-0.2-4.5-0.6-6.7-1.3
			c-2-0.6-4-1.5-5.9-2.5c-2.9-1.5-5.7-3.3-8.3-5.3c-1.2-0.9-2.2-1.9-3.3-2.9c-1.1-1-2.3-2-3.3-3c-1.9-2-3.7-4.2-5.3-6.5
			c0-0.1-0.1-0.1-0.2-0.2c0.2,0.6,0.4,1.1,0.5,1.7c0.7,2,1.1,4,1.5,6.1c0.4,2.1,0.4,4.1,0.3,6.2c0,1.9-0.4,3.8-0.8,5.6
			c-0.5,2.5-1.1,5-1.4,7.5c-0.2,1.4-0.4,2.9-0.5,4.4c-0.1,1.3-0.1,2.7-0.1,4c0.1,2.3,0.1,4.6,0.6,6.8c0.1,0.4-0.1,0.6-0.5,0.4
			c-3.1-1.2-6.1-2.5-9-4.1c-3-1.6-5.8-3.5-8.1-6.1c-1.5-1.7-2.5-3.5-2.9-5.7c-0.4-2.2,0.1-4.2,0.9-6.2c1.2-3.1,3.1-5.8,5-8.5
			c1.9-2.6,3.9-5.2,5.5-8c0.9-1.7,1.6-3.4,1.7-5.3c0.1-2-0.7-3.7-2.1-5.2c-1.7-1.8-3.8-3.1-6.1-4c-1.6-0.6-3.2-0.8-4.8-1
			c-1.5-0.2-2.9-0.1-4.4-0.1c-1.5,0-2.9,0.3-4.4,0.5c-2.9,0.5-5.5,1.8-8.2,2.9c-2.1,0.8-4.2,1.4-6.3,2.2c-2.2,0.8-4.4,1.4-6.6,1.9
			c-2.6,0.6-5.2,1-7.8,1.6c-1.6,0.3-3.2,0.6-4.7,0.8c-1.6,0.3-3.2,0.4-4.8,0.7c-1,0.1-2,0.4-3,0.4c0,0-0.1-0.1-0.1-0.1
			c0.1-4.2,0.1-8.5,0-12.7c0,0,0-0.1,0.1-0.1c2-0.2,3.9-0.6,5.8-1c2.6-0.5,5.1-1.1,7.7-1.7c4.3-1.1,8.5-2.4,12.7-4
			c3.3-1.3,6.5-2.9,9.6-4.8c2.3-1.5,4.6-3.1,6.6-4.9c2-1.9,3.9-3.8,5.5-6c1.6-2.2,3.1-4.6,4.3-7.1c1.5-3.3,2.7-6.7,3.4-10.2
			c0.3-1.4,0.6-2.7,0.7-4.1c0.1,0,0.1-0.1,0.1-0.2c-0.1,0-0.1,0.1-0.2,0.1c-0.7,1.2-1.5,2.4-2.2,3.5c-2.6,4-5.6,7.7-8.8,11.3
			c-1.7,1.9-3.6,3.6-5.5,5.3c-2.4,2-4.9,4-7.7,5.6c-2.5,1.4-4.9,3-7.6,4c-1.7,0.6-3.4,1.4-5.2,2c-1.8,0.6-3.7,1-5.6,1.3
			c-2.1,0.3-4.3,0.7-6.5,0.7c-2.1,0-4.1,0-6.2-0.2c-0.3,0-0.6-0.1-0.9,0.1c-0.9-0.1-1.8-0.3-2.7-0.4c-5.2-0.9-9.9-2.8-14.4-5.5
			c-1.8-1.1-3.7-2.1-5.3-3.5c-1.5-1.3-3-2.5-4.4-3.7C104,168.5,104,168.5,104,168.4z M103.9,208.6c0,0,0,0.1-0.1,0.1
			c-3.3,0.8-6.6,1.7-9.9,2.8c-2.7,0.9-5.4,2.1-8,3.3c-3.2,1.5-6.1,3.4-8.9,5.5c-1.6,1.2-3.1,2.5-4.5,4c-2.3,2.4-4.3,5.1-5.9,8
			c-1.6,3-2.8,6.1-3.6,9.4c-0.5,1.9-0.8,3.7-1,5.7c0,0.1,0,0.2,0,0.2c-0.2,0.9-0.2,0.9-1.2,0.9c-5.1,0-10.2,0-15.4,0
			c-0.5,0-0.7,0.1-0.6-0.6c1-5.3,2.7-10.3,4.9-15.2c1.5-3.4,3.5-6.6,5.7-9.6c1.3-1.8,2.7-3.4,4.2-5.1c3.6-3.9,7.7-7.2,12.2-10.2
			c2.7-1.8,5.6-3.4,8.5-4.9c5.4-2.6,11-4.7,16.8-6.1c2.1-0.5,4.1-0.9,6.2-1.3c0.1,0,0.3,0,0.4,0c0,0,0.1,0.1,0.1,0.1
			c0,0.1,0,0.2,0,0.2c0,4.1,0,8.2,0,12.4C103.9,208.4,103.9,208.5,103.9,208.6z M315.5,191.9c0.3-0.4,0.6-0.4,1-0.2
			c1,0.4,1.8,1,2.6,1.5c1.4,0.8,2.9,1.4,4.5,1.7c0.8,0.1,1.5,0.1,2.2-0.1c0.9-0.2,1.3-1,1.6-1.8c0.2-0.5,0.1-1-0.2-1.5
			c-1.7-2.8-3-5.9-4.4-8.9c-0.8-1.9-1.7-3.8-2.3-5.8c-1.3-3.9-2.7-7.9-3.8-11.9c-0.6-2.2-1.3-4.5-1.9-6.7c-0.4-1.4-0.8-2.9-1.1-4.3
			c-0.3-1.6-0.8-3.1-1.1-4.7c-0.5-2.4-0.9-4.9-1.4-7.3c-0.2-1.3-0.5-2.7-0.8-4c-0.4-2-0.7-3.9-1.1-5.9c-0.1-0.3,0-0.7-0.2-0.9
			c0-1.3-0.5-2.5-0.7-3.7c-0.5-2.9-1-5.7-1.4-8.6c-0.4-2.6-1-5.3-1.5-7.9c-0.5-2.3-1-4.6-1.6-6.9c-0.5-1.8-1-3.7-1.6-5.5
			c-1.4-3.7-2.5-7.5-4.4-11.1c-1.7-3.2-3.5-6.4-5.8-9.3c-1.4-1.9-3.2-3.5-4.8-5.1c-1.9-1.8-4-3.3-6.3-4.5c-2.9-1.5-6-2.8-9.2-3.8
			c-2.5-0.7-5-1.2-7.5-1.7c-1.2-0.3-2.5-0.3-3.7-0.4c-2.3-0.3-4.6-0.4-6.9-0.5c-0.6,0-1.3-0.1-1.9-0.1c-0.3,0-0.5-0.1-0.5-0.4
			c0-5.5,0-10.9,0-16.4c0-0.4,0.2-0.5,0.5-0.5c1.6,0.2,3.3,0.3,4.9,0.4c1.4,0.1,2.7,0.4,4.1,0.6c1.9,0.2,3.8,0.6,5.7,0.9
			c1.9,0.3,3.7,0.8,5.6,1.3c2.6,0.6,5.1,1.4,7.6,2.4c2.1,0.8,4.1,1.8,6.1,2.8c2.2,1.1,4.4,2.3,6.4,3.7c1.6,1.1,3.2,2.3,4.7,3.5
			c2.1,1.7,4.1,3.5,5.9,5.4c1.5,1.7,3.1,3.4,4.5,5.2c1.4,1.8,2.7,3.7,3.9,5.6c1.8,2.9,3.4,6,4.8,9.2c0.7,1.7,1.5,3.3,2.1,5.1
			c0.1,0.3,0.4,0.3,0.5,0.4c1.7,1.1,2.8,1.2,4.1,0.2c0.8-0.7,1.5-1.5,2-2.5c0.9-1.9,1.5-3.8,1.7-5.9c0.1-1.4,0.3-2.8,0.2-4.2
			c-0.1-1.9-0.3-3.9-0.9-5.7c-0.5-1.4-1-2.7-2-3.7c-0.8-0.8-1.6-1.4-2.6-2c-2.3-1.2-4.8-1.8-7.3-2.4c-2.7-0.7-5.4-1.4-8-2.6
			c-1.6-0.8-3.1-1.6-4.5-2.9c-1.2-1.1-2.3-2.1-3.3-3.3c-1.5-2-2.6-4.3-3.7-6.6c-0.7-1.5-1.2-3-1.7-4.6c-0.6-1.9-0.9-3.8-1.3-5.7
			c-0.4-1.7-0.7-3.3-0.9-5c-0.1-1.3-0.3-2.7-0.4-4c-0.1-0.8-0.2-1.5-0.2-2.3c0-0.4,0.1-0.6,0.5-0.3c1.1,0.8,2.2,1.6,3.3,2.4
			c0.9,0.6,1.8,1.1,2.7,1.6c2,1.1,4.1,1.6,6.3,1.9c3.4,0.4,6.7,1.2,9.8,2.5c2,0.9,3.9,1.8,5.8,2.9c1.4,0.8,2.7,1.8,3.9,2.9
			c0.9,0.8,1.8,1.7,2.6,2.7c1,1.2,1.9,2.5,2.6,3.9c1.3,2.6,2.1,5.3,2.9,8.1c0.4,1.3,0.6,2.7,1.4,4c0.7,1.2,1.8,1.7,3.1,1.5
			c0.7-0.1,1.4-0.2,2.1-0.7c1.2-0.8,1.7-2,1.9-3.3c0.4-2,0.6-4,0.6-6.1c0-0.8,0.1-1.7,0.1-2.5c0-2.4,0.1-4.7,0.2-7.1
			c0-1.7,0.2-3.4,0.7-5.1c0.4-1.2,0.8-2.4,1.5-3.6c1-1.7,2.2-3.2,3.6-4.5c1-0.9,2.1-1.6,3.3-2.2c2.1-1.1,4.4-1.8,6.8-2.2
			c1.4-0.2,2.7-0.2,4.1-0.4c2.5-0.3,4.9-0.3,7.4-0.4c1.8-0.1,3.5-0.2,5.3-0.2c2.3-0.1,4.6-0.3,6.8-0.5c1.9-0.2,3.7-0.4,5.6-0.7
			c2.4-0.4,4.8-1,7.2-1.6c0.1,0,0.3,0,0.4,0c0.4-0.1,0.6,0.1,0.6,0.6c0,1.8,0,3.6-0.1,5.4c-0.2,2.3-0.6,4.6-1.3,6.8
			c-0.6,1.8-1.3,3.6-2.3,5.3c-0.6,1.1-1.2,2.1-2,3.1c-0.7,0.9-1.5,1.8-2.4,2.6c-0.6,0.5-1,1.1-1.7,1.4c-0.5,0.3-0.8,0.7-1.2,1.1
			c-0.5,0.4-1,0.8-1.5,1.1c-2.2,1.4-4.5,2.6-6.8,3.7c-1,0.4-1.9,0.8-3,1.2c-0.9,0.3-1.8,0.7-2.8,1c-2.1,0.5-4.1,1.2-6.1,1.8
			c-2.7,0.8-5.5,1.5-8.2,2.3c-1.5,0.5-3,1-4.4,1.7c-1.5,0.7-3,1.5-3.9,3c-0.5,0.8-0.7,1.6-0.7,2.6c0,1.2,0.3,2.4,1.1,3.3
			c0.5,0.6,1.2,0.7,1.9,0.6c1.3-0.2,2.6-0.6,3.9-1.1c1.5-0.6,3.1-0.9,4.7-1.4c1.6-0.5,3.3-0.8,5-1c1.5-0.1,3-0.1,4.6,0
			c1.3,0.1,2.5,0.3,3.8,0.6c0.7,0.2,1.4,0.3,2.1,0.5c1.1,0.3,2,1,3,1.5c1.1,0.6,2.1,1.3,3,2.1c1.4,1.2,2.6,2.6,3.7,4.1
			c1.5,2.1,2.3,4.5,3.2,6.8c0.4,1.1,0.7,2.2,1,3.3c0.4,1.5,0.8,3.1,1.3,4.6c0.6,1.7,1.4,3.3,2.5,4.7c0.9,1.2,2.1,2.1,3.4,2.9
			c1.8,1.1,3.8,1.6,5.9,1.9c0.2,0,0.4,0.1,0.5,0.1c0.1,0,0.4-0.1,0.4,0.2c0,0.2-0.2,0.3-0.4,0.3c-1.8,0.3-3.5,0.6-5.3,1
			c-1.5,0.3-3,0.5-4.5,0.7c-1.4,0.2-2.8,0.4-4.3,0.6c-0.9,0.1-1.9,0.2-2.8,0.3c-2.8,0.2-5.6,0.4-8.4,0.4c-2.3,0-4.7,0-7-0.2
			c-2.1-0.2-4.2-0.6-6.3-1.1c-1.5-0.3-2.9-0.8-4.2-1.5c-1.1-0.6-2.1-1-3.1-1.7c-1.5-1.1-2.8-2.3-3.9-3.8c-0.8-1.1-1.7-2.1-2.4-3.2
			c-1.2-1.9-2.9-3.5-4.5-5c-1.7-1.5-3.6-2.9-6.1-2.9c-1,0-1.6,0.5-2.4,1c-0.8,0.6-1.2,1.4-1.7,2.2c-1.5,2-2.7,4.3-3.8,6.6
			c-0.6,1.3-1.1,2.6-1.7,3.9c-0.4,0.8-0.6,1.8-0.9,2.7c-0.4,1.2-0.7,2.6-1,3.8c-0.1,0.3-0.1,0.7-0.2,1c-0.1,0.7-0.2,1.4-0.3,2
			c-0.3,1.9-0.4,3.8,0.1,5.7c0.6,2.2,0.9,4.6,1.3,6.8c0.4,2.1,0.8,4.3,1.1,6.4c0.3,2,0.6,4,0.9,6c0.2,1.2,0.3,2.5,0.5,3.7
			c0.4,2.1,0.6,4.3,1,6.5c0.2,1.3,0.4,2.6,0.6,3.9c0.3,1.3,0.7,2.6,1,3.8c0.6,2.8,1.2,5.5,1.9,8.3c0.7,3,1.5,6,2.3,9
			c0.5,1.8,1.1,3.6,1.7,5.4c0.5,1.4,1.1,2.8,1.6,4.2c1.1,3.4,2.7,6.7,4.3,9.9c1.2,2.3,2.5,4.6,4,6.8c1.9,2.9,4.1,5.5,6.8,7.8
			c1.9,1.6,3.9,2.9,6,4c2.2,1.1,4.4,1.9,6.8,2.4c1.9,0.4,3.8,0.8,5.7,0.8c1.6,0,3.2,0.1,4.7-0.1c1.3-0.1,2.7-0.2,4-0.4
			c2.2-0.4,4.3-0.9,6.4-1.6c2.4-0.8,4.6-1.8,6.8-3c3.3-1.8,6.3-3.9,9-6.5c1.2-1.2,2.4-2.3,3.6-3.6c1.5-1.7,2.7-3.6,4-5.4
			c1.1-1.6,1.9-3.3,2.7-5c0.6-1.2,1.2-2.5,1.7-3.7c0.8-2.2,1.6-4.5,2.1-6.8c0.5-2.3,1-4.6,1.3-7c0.1-1.1,0.3-2.2,0.5-3.3
			c0.2-1.1,0.4-2.1,0.5-3.2c0.2-1.7,0.6-3.4,0.8-5.1c0.2-1.6,0.6-3.2,0.8-4.8c0.3-1.9,0.6-3.8,0.9-5.7c0.4-2.5,0.9-4.9,1.4-7.4
			c0.2-1.2,0.5-2.5,0.8-3.7c6.2,0,12.4,0,18.7,0c-0.2,0.9-0.4,1.8-0.6,2.7c-0.4,2.2-0.8,4.4-1.2,6.6c-0.3,1.6-0.6,3.3-0.9,4.9
			c-0.4,2-0.7,4-1.1,6c-0.6,3.1-1.2,6.2-1.9,9.3c-0.7,3-1.3,5.9-2,8.9c-0.2,1-0.5,2.1-0.8,3.1c-0.3,0.8-0.1,1.5,0.1,2.3
			c0.6,3,1.8,5.7,3.3,8.4c1.1,2,2.4,3.8,4.2,5.2c0.9,0.7,1.8,1.4,3,1.5c1.1,0.1,2.1-0.2,2.9-0.8c1.9-1.3,3-3.2,3.8-5.2
			c1.3-3.3,2.1-6.8,2.9-10.2c0.4-1.5,0.5-3.1,1.1-4.6c0.5-1.3,1.1-2.5,1.8-3.6c0.8-1.1,1.6-2.1,2.6-3c1.9-1.8,4.2-3.2,6.7-3.7
			c1.2-0.3,2.5-0.3,3.8-0.1c2.4,0.3,4.3,1.4,6,2.9c1.2,1,2.2,2.2,3.2,3.4c1.2,1.4,2.6,2.7,4.2,3.7c0.9,0.6,1.8,1.1,2.8,1.5
			c0.2,0.1,0.5,0.1,0.5,0.5c0,0.4-0.3,0.3-0.5,0.3c-1.4,0.6-2.7,1.2-3.9,2c-1.7,1.1-2.8,2.6-3.6,4.5c-0.7,1.8-1.3,3.7-2.1,5.5
			c-0.9,1.9-2.4,3.4-4,4.7c-2.9,2.2-6.2,3.8-9.6,5.1c-2.3,0.9-4.6,1.6-6.9,2.4c-2.5,0.9-5.1,1.4-7.6,2.2c-0.6,0.2-1.2,0.3-1.7,0.4
			c-0.1,0-0.3,0-0.3,0.2c0,0.1,0.1,0.2,0.2,0.3c1,0.9,2.2,1.5,3.5,1.7c1.6,0.3,3.3,0.4,5,0.3c1.9-0.1,3.9-0.3,5.9-0.2
			c1.9,0,3.8,0.4,5.6,1.1c2.3,0.8,4.2,2.2,6.2,3.5c2.9,2,5.4,4.5,7.8,7.1c1.9,2,3.7,4.1,5.6,6.1c1.7,1.8,3.5,3.6,5.3,5.3
			c2,1.9,4.5,3.1,7,4.3c0,0,0,0,0.1,0c0.4,0.2,0.9,0.1,1.1,0.4c0.2,0.4,0.1,0.9,0.1,1.3c0,0.5,0,1,0,1.5c0.1,0.6-0.2,0.9-0.7,1.2
			c-1.3,0.8-2.6,1.6-4,2.2c-1.6,0.7-3.3,1.4-5,1.9c-1.9,0.5-3.7,0.9-5.6,1.2c-1.7,0.3-3.3,0.3-5,0.4c-1,0.1-2-0.1-3-0.3
			c-0.7-0.1-1.3-0.1-2-0.2c-1.7-0.2-3.4-0.6-5.1-1.1c-3.2-1-6.2-2.5-8.9-4.4c-1.1-0.8-2.3-1.7-3.3-2.6c-1.5-1.4-3-2.8-4.2-4.5
			c-1.3-1.7-2.5-3.5-3.6-5.4c-0.7-1.3-1.4-2.6-2-3.9c-1.2-2.7-2.3-5.4-3.2-8.2c-0.6-1.9-1.1-3.8-1.5-5.8c0-0.1-0.1-0.2-0.2-0.4
			c-0.1,0.4,0.1,0.7,0.1,1.1c0.3,1.6,0.7,3.2,0.8,4.8c0.1,1.2,0.1,2.5,0.1,3.7c0,1.7-0.3,3.4-0.8,5c-1.1,3.5-3.2,6.4-5.9,8.8
			c-1.7,1.5-3.7,2.7-5.6,3.9c-2.3,1.4-4.6,2.6-6.9,4c-1.6,1-3.2,2.2-4.7,3.4c-1.3,1.1-2.5,2.4-3.4,3.9c-1,1.6-1.6,3.4-1.9,5.3
			c0,0.3-0.1,0.6-0.6,0.2c-1.4-1.2-2.7-2.6-4-4c-1.2-1.3-2.3-2.6-3.3-4.1c-0.9-1.3-1.6-2.8-2.2-4.3c-0.7-1.8-0.9-3.7-0.7-5.6
			c0.1-1.1,0.4-2.2,0.9-3.3c0.8-1.9,2-3.4,3.5-4.9c2-2.1,4.2-3.8,6.5-5.3c2.6-1.6,5.1-3.2,7.8-4.6c1.7-0.9,3.4-1.9,5.1-2.9
			c2.1-1.2,4.2-2.5,6.2-3.9c1.5-1.1,2.8-2.3,3.8-3.9c0.6-1.1,0.9-2.3,1.2-3.6c0.3-1.1,0.2-2.3-0.3-3.4c-1.2-2.7-2.9-4.3-5.7-4.4
			c-1.5-0.1-2.6,0.7-3.6,1.7c-1.1,1.1-1.5,2.6-2.2,3.9c-1.1,2-2.3,3.9-3.7,5.8c-1.8,2.6-3.8,5-6.1,7.2c-1.2,1.2-2.5,2.3-3.8,3.4
			c-1.4,1.2-2.9,2.3-4.4,3.4c-1.6,1.2-3.3,2.2-5,3.2c-0.9,0.6-1.8,1.2-2.7,1.7c-1.6,0.9-3.4,1.7-5.1,2.3c-2.4,0.9-4.9,1.6-7.5,2.1
			c-1.9,0.4-3.9,0.6-5.8,0.8c-1.6,0.2-3.2,0.1-4.8,0.3c-1.5,0.1-3.1,0-4.6-0.1c-2.3-0.1-4.5-0.4-6.7-0.8c-2-0.4-4-0.8-6-1.3
			c-2.3-0.6-4.6-1.4-6.8-2.3c-1.3-0.5-2.5-1.2-3.7-1.7c-3.1-1.4-5.9-3.3-8.5-5.3c-1.8-1.3-3.3-2.9-4.7-4.6c-0.7-0.8-1.5-1.5-2.1-2.4
			c-0.5-0.7-1-1.3-1.4-2.1c-0.6-1.2-1.3-2.3-2-3.4c-0.9-1.6-2.4-1.3-3.5-0.4c-1.7,1.4-2.5,3.4-3,5.6c-0.4,1.7-0.4,3.4-0.4,5.1
			c0,0.5,0,0.9-0.1,1.4c-0.1,0.6-0.3,0.6-0.8,0.4c0-0.3,0-0.5,0-0.8c0.2-1.5,0.1-3-0.5-4.4c-0.8-1.9-2.4-3.2-4.2-4.2
			c-0.7-0.4-0.6-0.7-0.4-1.2c0.5-1.1,0.8-2.3,0.5-3.5c-0.3-1.3-1.1-2.3-2.1-3.2C316.6,192.7,315.9,192.4,315.5,191.9z M448,103.9
			c-5.8,0-11.5,0-17.3,0c0.9-2.5,1.6-5,2.6-7.5c0.9-2.4,1.9-4.7,3-7c0.3-0.7,0.5-1.5,0.4-2.3c-0.1-0.7-0.6-1.2-1.2-1.5
			c-1.4-0.7-2.8-0.8-4.4-0.6c-1.5,0.2-3,0.8-4.4,1.4c-1.3,0.6-2.5,1.3-3.7,2c-0.2,0.1-0.5,0.2-0.7,0.1c-0.2-0.1-0.1-0.4-0.1-0.6
			c0.5-0.2,1.1-0.5,1.6-0.7c1.7-0.9,3-2.2,3.6-4.1c0.4-1.3,0.5-2.6,0.5-3.9c0-0.5,0-0.8,0.6-0.8c0.5,0,0.9-0.2,1.4-0.3
			c2.3-0.4,3.3-2,3.8-4.1c0.2-0.8,0.1-1.5,0.4-2.3c0.4-0.1,0.6,0.1,0.7,0.5c0.1,0.6,0.2,1.2,0.2,1.7c-0.3,2.1-0.1,4.2,0.7,6.1
			c0.2,0.6,0.6,1.2,1,1.8c0.7,1,3.2,0.9,3.9-0.4c1.7-3.2,3.8-6.2,6.1-9c2.3-2.9,4.8-5.8,7.5-8.3c1.4-1.3,2.8-2.7,4.3-3.8
			c2.8-2.1,5.6-4.2,8.7-5.9c2.5-1.4,5.1-2.6,7.8-3.8c3-1.3,6.1-2.2,9.2-3.1c2.7-0.7,5.4-1.3,8.1-1.7c1.8-0.3,3.6-0.6,5.5-0.7
			c0.6,0,1.2,0,1.7-0.2c0.4-0.1,0.6,0,0.6,0.5c0,5.4,0,10.7,0,16.1c0,0.4-0.1,0.5-0.5,0.5c-2.2,0.1-4.4,0.2-6.6,0.4
			c-3.7,0.4-7.3,0.8-10.9,1.8c-2.4,0.6-4.7,1.4-7,2.4c-2.4,1-4.7,2.2-6.8,3.6c-1.1,0.7-2.1,1.6-3.2,2.4c-1.6,1.3-2.9,2.9-4.4,4.4
			c-1.1,1.2-2.1,2.6-3,4c-2.1,3.4-4.1,6.8-5.6,10.6c-1.1,2.7-2,5.5-3,8.2C448.6,101,448.1,102.4,448,103.9z M191.8,435.5
			c-0.4-0.3-0.4-0.6-0.2-1c0.3-1,1-1.8,1.5-2.6c0.8-1.4,1.4-2.9,1.7-4.5c0.1-0.8,0.1-1.5-0.1-2.2c-0.2-0.9-1-1.3-1.8-1.6
			c-0.5-0.2-1-0.1-1.5,0.2c-2.8,1.7-5.9,3-8.9,4.4c-1.9,0.8-3.8,1.7-5.8,2.3c-3.9,1.3-7.9,2.7-11.9,3.8c-2.2,0.6-4.5,1.2-6.7,1.9
			c-1.4,0.4-2.9,0.8-4.3,1.1c-1.6,0.3-3.1,0.8-4.7,1.1c-2.4,0.5-4.9,0.9-7.3,1.4c-1.3,0.2-2.7,0.5-4,0.8c-2,0.4-3.9,0.7-5.9,1.1
			c-0.3,0.1-0.7,0-0.9,0.2c-1.3,0-2.5,0.5-3.7,0.7c-2.9,0.5-5.7,1-8.6,1.4c-2.6,0.4-5.3,1-7.9,1.5c-2.3,0.5-4.6,1-6.9,1.6
			c-1.8,0.5-3.7,1-5.5,1.6c-3.7,1.4-7.5,2.5-11.1,4.4c-3.2,1.7-6.4,3.5-9.3,5.8c-1.9,1.4-3.5,3.2-5.1,4.8c-1.8,1.9-3.3,4-4.5,6.3
			c-1.5,2.9-2.8,6-3.8,9.2c-0.7,2.5-1.2,5-1.7,7.5c-0.3,1.2-0.3,2.5-0.4,3.7c-0.3,2.3-0.4,4.6-0.5,6.9c0,0.6-0.1,1.3-0.1,1.9
			c0,0.3-0.1,0.5-0.4,0.5c-5.5,0-10.9,0-16.4,0c-0.4,0-0.5-0.2-0.5-0.5c0.2-1.6,0.3-3.3,0.4-4.9c0.1-1.4,0.4-2.8,0.6-4.1
			c0.2-1.9,0.6-3.8,0.9-5.7c0.3-1.9,0.8-3.7,1.3-5.6c0.6-2.6,1.4-5.1,2.4-7.6c0.8-2.1,1.8-4.1,2.8-6.1c1.1-2.2,2.3-4.4,3.7-6.4
			c1.1-1.6,2.3-3.2,3.5-4.7c1.7-2.1,3.4-4.1,5.4-5.9c1.7-1.5,3.4-3.1,5.2-4.5c1.8-1.4,3.7-2.7,5.6-3.9c2.9-1.8,6-3.4,9.2-4.8
			c1.7-0.7,3.3-1.5,5.1-2.1c0.3-0.1,0.3-0.4,0.4-0.5c1.1-1.7,1.2-2.8,0.2-4.1c-0.7-0.8-1.5-1.5-2.5-2c-1.9-0.9-3.8-1.5-5.9-1.7
			c-1.4-0.1-2.8-0.3-4.2-0.2c-1.9,0.1-3.9,0.3-5.7,0.9c-1.4,0.5-2.7,1-3.7,2c-0.8,0.8-1.4,1.6-2,2.6c-1.2,2.3-1.8,4.8-2.4,7.3
			c-0.7,2.7-1.4,5.4-2.6,8c-0.8,1.6-1.6,3.1-2.9,4.5c-1.1,1.2-2.1,2.3-3.3,3.3c-2,1.5-4.3,2.6-6.6,3.7c-1.5,0.7-3,1.2-4.6,1.7
			c-1.9,0.6-3.8,0.9-5.7,1.3c-1.7,0.4-3.3,0.7-5,0.9c-1.3,0.1-2.7,0.3-4,0.4c-0.8,0.1-1.5,0.2-2.3,0.2c-0.4,0-0.6-0.1-0.3-0.5
			c0.8-1.1,1.6-2.2,2.4-3.3c0.6-0.9,1.1-1.8,1.6-2.7c1.1-2,1.6-4.1,1.9-6.3c0.4-3.4,1.2-6.7,2.5-9.8c0.9-2,1.8-3.9,2.9-5.8
			c0.8-1.4,1.8-2.7,2.9-3.9c0.8-0.9,1.7-1.8,2.7-2.6c1.2-1,2.5-1.9,3.9-2.6c2.6-1.3,5.3-2.1,8.1-2.9c1.3-0.4,2.7-0.6,4-1.4
			c1.2-0.7,1.7-1.8,1.5-3.1c-0.1-0.7-0.2-1.4-0.7-2.1c-0.8-1.2-2-1.7-3.3-1.9c-2-0.4-4-0.6-6.1-0.6c-0.8,0-1.7-0.1-2.5-0.1
			c-2.4,0-4.7-0.1-7.1-0.2c-1.7,0-3.4-0.2-5.1-0.7c-1.2-0.4-2.4-0.8-3.6-1.5c-1.7-1-3.2-2.2-4.5-3.6c-0.9-1-1.6-2.1-2.2-3.3
			c-1.1-2.1-1.8-4.4-2.2-6.8c-0.2-1.4-0.2-2.7-0.4-4.1c-0.3-2.5-0.3-4.9-0.4-7.4c-0.1-1.8-0.2-3.5-0.2-5.3c-0.1-2.3-0.3-4.6-0.5-6.8
			c-0.2-1.9-0.4-3.7-0.7-5.6c-0.4-2.4-1-4.8-1.6-7.2c0-0.1,0-0.2,0-0.4c-0.1-0.4,0.1-0.6,0.6-0.6c1.8,0,3.6,0,5.4,0.1
			c2.3,0.2,4.6,0.6,6.7,1.3c1.8,0.6,3.6,1.3,5.3,2.3c1.1,0.6,2.1,1.2,3.1,2c0.9,0.7,1.9,1.5,2.6,2.4c0.5,0.6,1.1,1,1.4,1.7
			c0.3,0.5,0.7,0.8,1.1,1.2c0.4,0.5,0.8,1,1.1,1.5c1.4,2.2,2.6,4.5,3.7,6.8c0.4,1,0.8,1.9,1.2,3c0.3,0.9,0.7,1.8,1,2.8
			c0.5,2.1,1.2,4.1,1.8,6.1c0.8,2.7,1.5,5.5,2.3,8.2c0.5,1.5,1,3,1.7,4.4c0.7,1.5,1.5,3,3,3.9c0.8,0.5,1.6,0.7,2.6,0.7
			c1.2,0,2.4-0.3,3.3-1.1c0.6-0.5,0.7-1.2,0.6-1.9c-0.2-1.3-0.6-2.6-1.1-3.9c-0.6-1.5-0.9-3.1-1.4-4.7c-0.5-1.6-0.8-3.3-1-5
			c-0.1-1.5-0.1-3,0-4.6c0.1-1.3,0.3-2.5,0.6-3.8c0.2-0.7,0.3-1.4,0.5-2.1c0.3-1.1,1-2,1.5-3c0.6-1.1,1.3-2.1,2.1-3
			c1.2-1.4,2.6-2.6,4.1-3.7c2.1-1.5,4.5-2.3,6.8-3.2c1.1-0.4,2.2-0.7,3.3-1c1.5-0.4,3.1-0.8,4.6-1.3c1.7-0.6,3.3-1.4,4.7-2.5
			c1.2-0.9,2.1-2.1,2.9-3.4c1.1-1.8,1.6-3.8,1.9-5.9c0-0.2,0.1-0.4,0.1-0.5c0-0.1-0.1-0.4,0.2-0.4c0.2,0,0.3,0.2,0.3,0.4
			c0.3,1.8,0.6,3.5,1,5.3c0.3,1.5,0.5,3,0.7,4.5c0.2,1.4,0.4,2.8,0.6,4.3c0.1,0.9,0.2,1.9,0.3,2.8c0.2,2.8,0.4,5.6,0.4,8.4
			c0,2.3,0,4.7-0.2,7c-0.2,2.1-0.6,4.2-1.1,6.3c-0.3,1.4-0.8,2.9-1.5,4.2c-0.6,1.1-1,2.1-1.7,3.1c-1.1,1.5-2.3,2.8-3.8,3.9
			c-1.1,0.8-2.1,1.7-3.2,2.4c-1.9,1.2-3.5,2.9-5,4.5c-1.5,1.7-2.9,3.6-2.9,6.1c0,1,0.5,1.6,1,2.4c0.6,0.8,1.4,1.2,2.2,1.7
			c2,1.5,4.3,2.7,6.6,3.8c1.3,0.6,2.6,1.1,3.9,1.7c0.8,0.4,1.8,0.6,2.7,0.9c1.2,0.4,2.6,0.7,3.8,1c0.3,0.1,0.7,0.1,1,0.2
			c0.7,0.1,1.4,0.2,2,0.3c1.9,0.3,3.8,0.4,5.7-0.1c2.2-0.6,4.6-0.9,6.8-1.3c2.1-0.4,4.3-0.8,6.4-1.1c2-0.3,4-0.6,6-0.9
			c1.2-0.2,2.5-0.3,3.7-0.5c2.1-0.4,4.3-0.6,6.5-1c1.3-0.2,2.6-0.4,3.9-0.6c1.3-0.3,2.6-0.7,3.8-1c2.8-0.6,5.5-1.2,8.3-1.9
			c3-0.7,6-1.5,9-2.3c1.8-0.5,3.6-1.1,5.4-1.7c1.4-0.5,2.8-1.1,4.2-1.6c3.4-1.1,6.7-2.7,9.9-4.3c2.3-1.2,4.6-2.5,6.8-4
			c2.9-1.9,5.5-4.1,7.8-6.8c1.6-1.9,2.9-3.9,4-6c1.1-2.2,1.9-4.4,2.4-6.8c0.4-1.9,0.8-3.8,0.8-5.7c0-1.6,0.1-3.2-0.1-4.7
			c-0.1-1.3-0.2-2.7-0.4-4c-0.4-2.2-0.9-4.3-1.6-6.4c-0.8-2.4-1.8-4.6-3-6.8c-1.8-3.3-3.9-6.3-6.5-9c-1.2-1.2-2.3-2.4-3.6-3.6
			c-1.7-1.5-3.6-2.7-5.4-4c-1.6-1.1-3.3-1.9-5-2.7c-1.2-0.6-2.5-1.2-3.7-1.7c-2.2-0.8-4.5-1.6-6.8-2.1c-2.3-0.5-4.6-1-7-1.3
			c-1.1-0.1-2.2-0.3-3.3-0.5c-1.1-0.2-2.1-0.4-3.2-0.5c-1.7-0.2-3.4-0.6-5.1-0.8c-1.6-0.2-3.2-0.6-4.8-0.8c-1.9-0.3-3.8-0.6-5.7-0.9
			c-2.5-0.4-4.9-0.9-7.4-1.4c-1.2-0.2-2.5-0.5-3.7-0.8c0-6.2,0-12.4,0-18.7c0.9,0.2,1.8,0.4,2.7,0.6c2.2,0.4,4.4,0.8,6.6,1.2
			c1.6,0.3,3.3,0.6,4.9,0.9c2,0.4,4,0.7,6,1.1c3.1,0.6,6.2,1.2,9.3,1.9c3,0.7,5.9,1.3,8.9,2c1,0.2,2.1,0.5,3.1,0.8
			c0.8,0.3,1.5,0.1,2.3-0.1c3-0.6,5.7-1.8,8.4-3.3c2-1.1,3.8-2.4,5.2-4.2c0.7-0.9,1.4-1.8,1.5-3c0.1-1.1-0.2-2.1-0.8-2.9
			c-1.3-1.9-3.2-3-5.2-3.8c-3.3-1.3-6.8-2.1-10.2-2.9c-1.5-0.4-3.1-0.5-4.6-1.1c-1.3-0.5-2.5-1.1-3.6-1.8c-1.1-0.8-2.1-1.6-3-2.6
			c-1.8-1.9-3.2-4.2-3.7-6.7c-0.3-1.2-0.3-2.5-0.1-3.8c0.3-2.4,1.4-4.3,2.9-6c1-1.2,2.2-2.2,3.4-3.2c1.4-1.2,2.7-2.6,3.7-4.2
			c0.6-0.9,1.1-1.8,1.5-2.8c0.1-0.2,0.1-0.5,0.5-0.5c0.3,0,0.3,0.3,0.3,0.5c0.6,1.4,1.2,2.7,2,3.9c1.1,1.7,2.6,2.8,4.5,3.6
			c1.8,0.7,3.7,1.3,5.5,2.1c1.9,0.9,3.4,2.4,4.7,4c2.2,2.9,3.8,6.2,5.1,9.6c0.9,2.3,1.6,4.6,2.4,6.9c0.9,2.5,1.4,5.1,2.2,7.6
			c0.2,0.6,0.3,1.2,0.4,1.7c0,0.1,0,0.3,0.2,0.3c0.1,0,0.2-0.1,0.3-0.2c0.9-1,1.5-2.2,1.7-3.5c0.3-1.6,0.4-3.3,0.3-5
			c-0.1-1.9-0.3-3.9-0.2-5.9c0-1.9,0.4-3.8,1.1-5.6c0.8-2.3,2.2-4.2,3.5-6.2c2-2.9,4.5-5.4,7.1-7.8c2-1.9,4.1-3.7,6.1-5.6
			c1.8-1.7,3.6-3.5,5.3-5.3c1.9-2,3.1-4.5,4.3-7c0,0,0,0,0-0.1c0.2-0.4,0.1-0.9,0.4-1.1c0.4-0.2,0.9-0.1,1.3-0.1c0.5,0,1,0,1.5,0
			c0.6-0.1,0.9,0.2,1.2,0.7c0.8,1.3,1.6,2.6,2.2,4c0.7,1.6,1.4,3.3,1.9,5c0.5,1.9,0.9,3.7,1.2,5.6c0.3,1.7,0.3,3.3,0.4,5
			c0.1,1-0.1,2-0.3,3c-0.1,0.7-0.1,1.3-0.2,2c-0.2,1.8-0.6,3.4-1.1,5.1c-1,3.2-2.5,6.2-4.4,8.9c-0.8,1.1-1.7,2.3-2.6,3.3
			c-1.4,1.5-2.8,3-4.5,4.2c-1.7,1.3-3.5,2.5-5.4,3.6c-1.3,0.7-2.6,1.4-3.9,2c-2.7,1.2-5.4,2.3-8.2,3.2c-1.9,0.6-3.8,1.1-5.8,1.5
			c-0.1,0-0.2,0.1-0.4,0.2c0.4,0.1,0.7-0.1,1.1-0.1c1.6-0.3,3.2-0.7,4.8-0.8c1.2-0.1,2.5-0.1,3.7-0.1c1.7,0,3.4,0.3,5,0.8
			c3.5,1.1,6.4,3.2,8.8,5.9c1.5,1.7,2.7,3.7,3.9,5.6c1.4,2.3,2.6,4.6,4,6.9c1,1.6,2.2,3.2,3.4,4.7c1.1,1.3,2.4,2.5,3.9,3.4
			c1.6,1,3.4,1.6,5.3,1.9c0.3,0,0.6,0.1,0.2,0.6c-1.2,1.4-2.6,2.7-4,4c-1.3,1.2-2.6,2.3-4.1,3.3c-1.3,0.9-2.8,1.6-4.3,2.2
			c-1.8,0.7-3.7,0.9-5.6,0.7c-1.1-0.1-2.2-0.4-3.3-0.9c-1.9-0.8-3.4-2-4.9-3.5c-2.1-2-3.8-4.2-5.3-6.5c-1.6-2.6-3.2-5.1-4.6-7.8
			c-0.9-1.7-1.9-3.4-2.9-5.1c-1.2-2.1-2.5-4.2-3.9-6.2c-1.1-1.5-2.3-2.8-3.9-3.8c-1.1-0.6-2.3-0.9-3.6-1.2c-1.1-0.3-2.3-0.2-3.4,0.3
			c-2.7,1.2-4.3,2.9-4.4,5.7c-0.1,1.5,0.7,2.6,1.7,3.6c1.1,1.1,2.6,1.5,3.9,2.2c2,1.1,3.9,2.3,5.8,3.7c2.6,1.8,5,3.8,7.2,6.1
			c1.2,1.2,2.3,2.5,3.4,3.8c1.2,1.4,2.3,2.9,3.4,4.4c1.2,1.6,2.2,3.3,3.2,5c0.6,0.9,1.2,1.8,1.7,2.7c0.9,1.6,1.7,3.4,2.3,5.1
			c0.9,2.4,1.6,4.9,2.1,7.5c0.4,1.9,0.6,3.9,0.8,5.8c0.2,1.6,0.1,3.2,0.3,4.8c0.1,1.5,0,3.1-0.1,4.6c-0.1,2.3-0.4,4.5-0.8,6.8
			c-0.4,2-0.8,4-1.3,6c-0.6,2.3-1.4,4.6-2.3,6.8c-0.5,1.3-1.2,2.5-1.7,3.7c-1.4,3.1-3.3,5.9-5.3,8.5c-1.3,1.8-2.9,3.3-4.6,4.7
			c-0.8,0.7-1.5,1.5-2.4,2.1c-0.7,0.5-1.3,1-2.1,1.4c-1.2,0.6-2.3,1.3-3.4,2c-1.6,0.9-1.3,2.4-0.4,3.5c1.4,1.7,3.4,2.5,5.6,3
			c1.7,0.4,3.4,0.4,5.1,0.4c0.5,0,0.9,0,1.4,0.1c0.6,0.1,0.6,0.3,0.4,0.8c-0.3,0-0.5,0-0.8,0c-1.5-0.2-3-0.1-4.4,0.5
			c-1.9,0.8-3.2,2.4-4.2,4.2c-0.4,0.7-0.7,0.6-1.2,0.4c-1.1-0.5-2.3-0.8-3.5-0.5c-1.3,0.3-2.3,1.1-3.2,2.1
			C192.7,434.4,192.4,435.1,191.8,435.5z M103.9,303c0,5.8,0,11.5,0,17.3c-2.5-0.9-5-1.6-7.5-2.6c-2.4-0.9-4.7-1.9-7-3
			c-0.7-0.3-1.5-0.5-2.3-0.4c-0.7,0.1-1.2,0.6-1.5,1.2c-0.7,1.4-0.8,2.8-0.6,4.4c0.2,1.5,0.8,3,1.4,4.4c0.6,1.3,1.3,2.5,2,3.7
			c0.1,0.2,0.2,0.5,0.1,0.7c-0.1,0.2-0.4,0.1-0.6,0.1c-0.2-0.5-0.5-1.1-0.7-1.6c-0.9-1.7-2.2-3-4.1-3.6c-1.3-0.4-2.6-0.5-3.9-0.5
			c-0.5,0-0.8,0-0.8-0.6c0-0.5-0.2-0.9-0.3-1.4c-0.4-2.3-2-3.3-4.1-3.8c-0.8-0.2-1.5-0.1-2.3-0.4c-0.1-0.4,0.1-0.6,0.5-0.7
			c0.6-0.1,1.2-0.2,1.7-0.2c2.1,0.3,4.2,0.1,6.1-0.7c0.6-0.2,1.2-0.6,1.8-1c1-0.7,0.9-3.2-0.4-3.9c-3.2-1.7-6.2-3.8-9-6.1
			c-2.9-2.3-5.8-4.8-8.3-7.5c-1.3-1.4-2.7-2.8-3.8-4.3c-2.1-2.8-4.2-5.6-5.9-8.7c-1.4-2.5-2.6-5.1-3.8-7.8c-1.3-3-2.2-6.1-3.1-9.2
			c-0.7-2.7-1.3-5.4-1.7-8.1c-0.3-1.8-0.6-3.6-0.7-5.5c0-0.6,0-1.2-0.2-1.7c-0.1-0.4,0-0.6,0.5-0.6c5.4,0,10.7,0,16.1,0
			c0.4,0,0.5,0.1,0.5,0.5c0.1,2.2,0.2,4.4,0.4,6.6c0.4,3.7,0.8,7.3,1.8,10.9c0.6,2.4,1.4,4.7,2.4,7c1,2.4,2.2,4.7,3.6,6.8
			c0.7,1.1,1.6,2.1,2.4,3.2c1.3,1.6,2.9,2.9,4.4,4.4c1.2,1.1,2.6,2.1,4,3c3.4,2.1,6.8,4.1,10.6,5.6c2.7,1.1,5.5,2,8.2,3
			C101,302.4,102.4,302.8,103.9,303z"/>
	</g>
</g>
<g id="C">
	<g>
		<path class="st3" d="M75.6,140.6c0.1,0.2,0.2,0.4,0.3,0.5c1.2,1,2,2.2,2.4,3.7c0.3,1,0.1,2-0.3,2.9c-0.2,0.5-0.4,1-0.7,1.5
			c-0.2,0.4-0.2,0.6,0.2,0.9c1.3,0.9,2.5,1.9,3.2,3.3c0.8,1.4,1,2.8,0.8,4.4c-0.1,0.7-0.3,1.4-0.3,2.1c-0.7,1.6-1.6,3-2.8,4.2
			c-1.3,1.2-2.8,2.3-4.4,3c-1.9,0.8-3.9,0.8-6,0.5c-2.6-0.4-4.7-1.7-7-2.9c-2.1-1.2-4.2-2.5-6.4-3.6c-2.5-1.3-5.1-2.1-7.9-2.3
			c-1.4-0.1-2.7-0.3-4,0.1c-0.1,0-0.2,0-0.3-0.1c-0.1-0.1,0.1-0.2,0.1-0.2c0.2-0.1,0.5-0.2,0.7-0.3c1.3-0.7,2.4-1.6,3.5-2.5
			c1.9-1.6,3.5-3.5,5.2-5.3c2.3-2.5,4.6-5,7-7.4c1.6-1.5,3.3-3,5.2-4c1.7-0.9,3.5-1.6,5.5-1.3c1.4,0.2,2.5,0.8,3.7,1.6
			C74.2,139.7,74.9,140.1,75.6,140.6z M184.5,71.5c-0.1,1.1,0,2.2-0.3,3.3c-0.5,1.9-1.7,3-3.5,3.5c-0.2,0.1-0.5,0.2-0.7,0.3
			c-0.9,0.3-0.8,0.2-0.7,1.2c0.3,2.8,0.1,5.5-2.3,7.5c-0.6,0.5-1.1,1-1.8,1.3c-0.1,0.1-0.2,0.2-0.4,0.3c-0.9,0.2-1.7,0.5-2.6,0.7
			c-1.5,0.3-3,0.3-4.5,0c-1.8-0.3-3.4-0.9-4.9-1.9c-1.9-1.3-3.2-3.2-4-5.3c-1.3-3-1.9-6.3-2.7-9.5c-0.8-3.1-1.8-6-3.7-8.6
			c-1-1.4-2.2-2.7-3.5-3.7c-0.1-0.1-0.2-0.1-0.2-0.2c0,0,0-0.1-0.1-0.2c0.3-0.2,0.6,0.1,0.8,0.2c1.6,0.6,3.3,0.8,5,0.9
			c2.5,0.1,5.1,0.1,7.6,0c3.2-0.2,6.4-0.2,9.6-0.1c2.3,0.1,4.6,0.3,6.7,1.1c1.7,0.6,3.2,1.5,4.3,2.9c0.5,0.7,0.9,1.4,1.1,2.2
			C183.9,68.7,184.4,70.1,184.5,71.5z M315.5,191.9c0.4,0.6,1,0.9,1.5,1.3c1,0.9,1.8,1.9,2.1,3.2c0.3,1.2,0,2.4-0.5,3.5
			c-0.2,0.6-0.3,0.8,0.4,1.2c1.7,1,3.3,2.2,4.2,4.2c0.6,1.4,0.7,2.9,0.5,4.4c0,0.3-0.1,0.5,0,0.8c-0.4,1.2-0.9,2.3-1.6,3.4
			c-0.8,1.3-1.9,2.3-3,3.3c-1.4,1.2-2.9,1.9-4.6,2.3c-1,0.2-2.1,0.2-3.2,0.1c-1.2-0.1-2.3-0.3-3.5-0.6c-1.5-0.4-3-1.1-4.5-1.7
			c-2.1-0.8-4.1-1.9-6.2-2.5c-1.9-0.6-3.8-1-5.7-1.2c-1.8-0.2-3.6,0.1-5.4,0.3c-0.3,0-0.5,0.3-0.8,0.2c-0.1,0-0.3,0-0.3-0.2
			c0-0.1,0-0.2,0.2-0.3c1.4-0.7,2.5-1.8,3.6-3c1.6-1.7,2.9-3.6,4.2-5.6c1.2-1.8,2.5-3.6,3.8-5.3c1.2-1.5,2.2-3.1,3.6-4.5
			c1.2-1.3,2.3-2.6,3.8-3.6c1.5-1,3-1.9,4.8-2c1.6-0.1,3,0.4,4.4,1.1C314,191.2,314.7,191.6,315.5,191.9z M434.2,71.6
			c-0.2,0.7-0.2,1.5-0.4,2.3c-0.6,2.1-1.6,3.6-3.8,4.1c-0.5,0.1-0.9,0.3-1.4,0.3c-0.6,0-0.6,0.3-0.6,0.8c0,1.3-0.1,2.6-0.5,3.9
			c-0.6,1.9-1.9,3.2-3.6,4.1c-0.5,0.3-1.1,0.5-1.6,0.7c-1.1,0.4-2.2,0.5-3.3,0.5c-1.7,0-3.3-0.4-4.9-1c-2.6-1-4.5-2.7-5.8-5.1
			c-1.1-2.1-1.5-4.3-1.9-6.6c-0.3-1.7-0.5-3.5-0.7-5.2c-0.2-1.9-0.5-3.7-1-5.6c-0.5-1.7-1.2-3.3-2.1-4.8c-0.8-1.2-1.6-2.4-2.6-3.4
			c-0.1-0.1-0.3-0.3-0.2-0.4s0.3-0.1,0.5-0.1c1.2,0.8,2.6,1.1,4,1.5c1.8,0.4,3.6,0.6,5.5,0.8c2.1,0.2,4.1,0.5,6.2,0.6
			c1.4,0.1,2.8,0.3,4.2,0.4c1.7,0.2,3.3,0.5,4.9,0.9c1.1,0.3,2.2,0.5,3.3,1c2.1,0.8,3.9,2,5,4c0.5,0.8,0.8,1.8,0.8,2.8
			C433.9,69.2,434.2,70.4,434.2,71.6z M191.8,435.5c0.6-0.4,0.8-1,1.3-1.5c0.9-1,1.9-1.8,3.2-2.1c1.2-0.3,2.4,0,3.5,0.5
			c0.6,0.2,0.8,0.3,1.2-0.4c1-1.7,2.2-3.3,4.2-4.2c1.4-0.6,2.9-0.7,4.4-0.5c0.3,0,0.5,0.1,0.8,0c1.2,0.4,2.3,0.9,3.4,1.6
			c1.3,0.8,2.3,1.9,3.3,3c1.1,1.4,1.9,2.9,2.3,4.6c0.2,1,0.2,2.1,0.1,3.2c-0.1,1.2-0.3,2.3-0.6,3.5c-0.4,1.5-1.1,3-1.7,4.5
			c-0.8,2.1-1.9,4.1-2.5,6.2c-0.6,1.9-1,3.8-1.2,5.7c-0.2,1.8,0.1,3.6,0.3,5.4c0,0.3,0.3,0.5,0.2,0.8c0,0.1,0,0.3-0.2,0.3
			c-0.1,0-0.2,0-0.3-0.2c-0.7-1.4-1.8-2.5-3-3.6c-1.7-1.6-3.6-2.9-5.6-4.2c-1.8-1.3-3.6-2.5-5.3-3.8c-1.5-1.2-3.1-2.2-4.5-3.6
			c-1.3-1.2-2.6-2.3-3.6-3.8c-1-1.5-1.9-3-2-4.8c-0.1-1.6,0.4-3,1.1-4.4C191.2,437,191.6,436.3,191.8,435.5z M71.6,316.8
			c0.7,0.2,1.5,0.2,2.3,0.4c2.1,0.6,3.6,1.6,4.1,3.8c0.1,0.5,0.3,0.9,0.3,1.4c0,0.6,0.3,0.6,0.8,0.6c1.3,0,2.6,0.1,3.9,0.5
			c1.9,0.6,3.2,1.9,4.1,3.6c0.3,0.5,0.5,1.1,0.7,1.6c0.4,1.1,0.5,2.2,0.5,3.3c0,1.7-0.4,3.3-1,4.9c-1,2.6-2.7,4.5-5.1,5.8
			c-2.1,1.1-4.3,1.5-6.6,1.9c-1.7,0.3-3.5,0.5-5.2,0.7c-1.9,0.2-3.7,0.5-5.6,1c-1.7,0.5-3.3,1.2-4.8,2.1c-1.2,0.8-2.4,1.6-3.4,2.6
			c-0.1,0.1-0.3,0.3-0.4,0.2c-0.2-0.1-0.1-0.3-0.1-0.5c0.8-1.2,1.1-2.6,1.5-4c0.4-1.8,0.6-3.6,0.8-5.5c0.2-2.1,0.5-4.1,0.6-6.2
			c0.1-1.4,0.3-2.8,0.4-4.2c0.2-1.7,0.5-3.3,0.9-4.9c0.3-1.1,0.5-2.2,1-3.3c0.8-2.1,2-3.9,4-5c0.8-0.5,1.8-0.8,2.8-0.8
			C69.2,317.1,70.4,316.8,71.6,316.8z"/>
	</g>
</g>
</svg>
