<?xml version="1.0" encoding="utf-8"?>
<!-- Generator: Adobe Illustrator 23.0.3, SVG Export Plug-In . SVG Version: 6.00 Build 0)  -->
<svg version="1.1" id="Layer_1" xmlns="http://www.w3.org/2000/svg" xmlns:xlink="http://www.w3.org/1999/xlink" x="0px" y="0px"
	 viewBox="0 0 500 500" style="enable-background:new 0 0 500 500;" xml:space="preserve">
<style type="text/css">
	.st0{fill:#FFFFFF;}
	.st1{fill:#71C1E8;}
	.st2{fill:#084D6E;}
	.st3{fill:#0ABAB5;}
</style>
<rect x="0" y="0.9" class="st0" width="241.8" height="498.7"/>
<rect x="244.8" y="0.9" class="st0" width="255.2" height="236.8"/>
<g id="B">
	<g>
		<path class="st1" d="M160.9,131.2c1.6,0.6,3.3,0.9,4.9,0.9c1.7,0,3.2-0.5,4.7-1.1c2.2-1,4.1-2.3,5.9-3.8c1.7-1.4,3.5-2.7,5.3-3.9
			c0.7-0.5,1.4-1,2.1-1.5c0.3-0.2,0.5-0.2,0.5,0.2c0.4,3.2,0.6,6.4,0.5,9.6c0,1.9-0.4,3.7-0.7,5.6c-0.3,1.6-0.9,3-1.4,4.5
			c-0.3,0.8-0.9,1.5-1.4,2.3c-0.1,0.1-0.1,0.3-0.3,0.5c0.9-0.1,1.8-0.3,2.6-0.3c3.6,0,7.1,0.7,10.5,2.2c2.7,1.2,5.3,2.6,7.8,4.3
			c0.2,0.2,0.8,0.2,0.7,0.5c-0.1,0.3-0.6,0.1-0.9,0.1c-2.4,0.2-4.4,1.1-6.5,2.3c-2.1,1.2-4,2.6-5.7,4.3c-1.6,1.5-3,3.2-4,5.2
			c-0.7,1.3-1.3,2.6-1.5,4c-0.4,1.9-0.1,3.7,0.9,5.4c1.5,2.7,4.1,4.1,6.8,5.2c3.4,1.4,7,2,10.5,2.7c1.9,0.4,3.8,0.5,5.6,0.7
			c1.3,0.1,2.7,0.2,4,0.2c1.8,0,3.6,0,5.4-0.3c2.4-0.3,4.8-0.7,7.2-1.4c1.4-0.4,2.8-0.9,4.2-1.3c0.7-0.2,0.7-0.2,0.7,0.5
			c0.1,2.2-0.2,4.4-1.2,6.5c-0.9,1.8-2,3.3-3.6,4.5c-1.4,1.1-2.9,2.1-4.5,2.8c-1.6,0.7-3.4,1.3-5.1,1.6c-0.2,0-0.4,0.1-0.7,0.2
			c1.7,1.4,2.7,3.3,3.5,5.2c0.6,1.4,0.9,3,1.2,4.6c0.3,1.3,0.3,2.7,0.3,4c0,1.2-0.1,2.4-0.2,3.6c-0.1,1.3-0.4,2.6-0.6,3.8
			c-0.1,0.6-0.2,1.2-0.3,1.8c-0.1,0.6-0.4,0.6-0.9,0.7c-1.4,0.2-2.9,0.5-4.3,0.8c-0.6,0.1-1.3,0.1-1.9,0.2c-0.7,0.1-1.4,0.1-2.1,0.1
			c-1.1,0.1-2.3-0.1-3.5-0.2c-1.9-0.1-3.6-0.7-5.4-1.2c-0.8-0.2-1.4-0.7-2.2-1c-1.3-0.6-2.5-1.4-3.5-2.6c-0.2,1-0.4,1.9-0.7,2.8
			c-0.7,2.4-1.7,4.6-3.2,6.6c-1.1,1.5-2.4,2.8-4,3.8c-1.5,0.9-3.1,1.5-4.9,1.7c-1,0.1-2,0-3,0.1c-0.6,0-0.6-0.2-0.4-0.6
			c0.6-1.8,1.3-3.6,1.7-5.5c0.3-1.6,0.7-3.1,0.9-4.7c0.2-1.8,0.3-3.5,0.4-5.3c0-2.2-0.1-4.3-0.3-6.5c-0.3-3.5-1.1-7-1.9-10.4
			c-0.6-2.7-1.5-5.2-3-7.6c-1.4-2.2-3.2-3.9-5.9-4.5c-1.2-0.3-2.5-0.2-3.8,0.1c-2.9,0.8-5.4,2.4-7.6,4.5c-2.6,2.4-4.6,5.1-6.2,8.3
			c-0.8,1.7-1.4,3.5-1.4,5.4c0,0.1,0.1,0.3-0.1,0.3c-0.1,0-0.2-0.1-0.3-0.2c-1.6-2.4-3.1-4.8-4.2-7.4c-1-2.3-1.9-4.7-2.2-7.2
			c-0.2-1.6-0.4-3.2-0.3-4.9c0-0.6,0.2-1.1,0.3-1.8c-0.7,0.5-1.3,0.9-2,1.3c-1.5,0.8-3.1,1.4-4.8,1.7c-1.1,0.2-2.1,0.4-3.2,0.6
			c-0.7,0.1-1.5,0.2-2.2,0.2c-1.4,0-2.9,0.1-4.3,0c-1.7-0.1-3.4-0.2-5.1-0.5c-0.1,0-0.2,0-0.3,0c-0.2,0-0.6,0.1-0.7-0.1
			c-0.2-0.3,0.2-0.5,0.3-0.7c2.1-3,4.3-6,6.6-9c1.6-2.1,2.9-4.5,3.4-7.1c0.4-1.8,0.1-3.6-0.3-5.4c-0.1-0.4-0.2-0.8-0.4-1.3
			c-0.4,0.6-0.4,1.3-0.7,1.9c-0.7,1.5-1.5,2.9-2.6,4.2c-2.4,2.7-5.5,4.2-8.9,5c-1.6,0.4-3.3,0.5-5,0.6c-3.6,0.1-7.1-0.4-10.4-1.6
			c-2.4-0.9-4.7-2-6.6-3.8c-1.2-1.2-2.1-2.4-2.5-4c-0.1-0.5,0-0.7,0.5-0.6c1,0,1.9,0.2,2.9,0.2c3.3-0.1,6.4-0.7,9.3-2.2
			c1.3-0.7,2.4-1.6,3.5-2.5c1.5-1.3,2.6-2.8,3.4-4.5c0.8-1.5,1.2-3.2,1.4-4.9c0.3-2.4-0.1-4.8-0.8-7.1c-0.3-1-0.6-2.1-1.1-3
			c-0.7-1.2-1.7-2.1-2.8-2.9c-2.2-1.6-4.8-2.5-7.4-2.9c-1-0.2-2.1-0.2-3.1-0.3c-2-0.2-4.1-0.2-6.1,0c-4.4,0.4-8.6,1.5-12.6,3.2
			c-3.2,1.4-6.2,3.1-9,5.1c-2.2,1.6-4.2,3.4-6,5.5c-2.1,2.4-4,5-5.5,7.9c-1.7,3.4-3.1,6.9-3.8,10.6c-0.3,1.8-0.6,3.7-0.7,5.5
			c-0.1,1.3-0.1,2.7-0.1,4c0,1.9,0.3,3.8,0.5,5.7c0.2,2,0.6,3.9,1.1,5.8c0.6,2.3,1.2,4.6,2.2,6.8c1,2.2,2.3,4.4,3.8,6.3
			c1.1,1.5,2.3,2.9,3.6,4.2c1.3,1.3,2.7,2.6,4.2,3.8c1.8,1.4,3.6,2.6,5.5,3.8c2.2,1.3,4.4,2.3,6.8,3.2c2,0.7,4,1.3,6,1.7
			c1.6,0.3,3.1,0.6,4.8,0.6c1.1,0,2.2,0.2,3.3,0.1c2.1-0.1,4.3-0.2,6.4-0.8c0.3-0.1,0.5,0,0.8-0.1c0.3-0.1,0.6-0.2,0.7-0.6
			c0.1-0.4-0.1-0.7-0.4-0.9c-1.6-1.2-2.7-2.7-3.2-4.7c-0.3-1.3-0.3-2.6,0-3.9c0.4-1.9,1.2-3.6,2.3-5.1c1.9-2.5,4.3-4.4,7.5-5.1
			c2.8-0.7,5.3,0,7.6,1.7c1.7,1.3,3,3,4,4.9c1.2,2.3,2.2,4.7,2.8,7.3c0.1,0.2,0.1,0.5,0.1,0.7c-0.1,3.2-0.7,6.4-2,9.3
			c-1,2.4-2.6,4.4-4.4,6.2c-1.3,1.3-2.9,2.2-4.5,3.1c-2.2,1.3-4.5,2.1-6.9,2.7c-0.4,0.1-0.4,0.3-0.4,0.7c0,3.2,0,6.4,0,9.6
			c0,0.5-0.1,0.6-0.6,0.6c-4.8,0-9.6,0-14.5,0c-0.5,0-0.7-0.1-0.7-0.7c0-2.8,0-5.6,0-8.4c0-0.9,0-1-0.9-1c-2.8-0.3-5.6-0.9-8.3-1.5
			c-4-1-7.8-2.4-11.6-4c-2.8-1.2-5.6-2.7-8.2-4.3c-2.4-1.5-4.8-3.1-7-4.9c-1.6-1.4-3.3-2.7-4.7-4.2c-1.3-1.4-2.5-2.8-3.7-4.3
			c-2.2-2.7-4-5.6-5.4-8.7c-1.1-2.4-2-5-2.7-7.6c-0.5-1.8-1-3.6-1.3-5.5c-0.3-1.7-0.7-3.4-0.9-5.1c-0.2-2.1-0.4-4.1-0.5-6.2
			c-0.1-1.9-0.2-3.8-0.1-5.7c0.1-2,0.3-4.1,0.7-6.1c0.3-1.5,0.4-2.9,0.8-4.4c0.5-2.2,1.2-4.4,1.9-6.5c1.1-2.9,2.2-5.7,3.7-8.3
			c1.7-3,3.6-5.9,5.7-8.6c1.1-1.4,2.4-2.7,3.5-4.1c1.3-1.5,2.7-2.8,4.1-4.1c2.5-2.2,5.2-4.1,8-5.9c2.1-1.3,4.4-2.4,6.6-3.5
			c1.9-0.9,3.8-1.8,5.8-2.6c3.3-1.2,6.6-2.3,10.1-3.1c1.7-0.4,3.3-0.7,5-1c1.2-0.2,2.5-0.3,3.7-0.4c3.6-0.4,7.3-0.3,10.9-0.4
			c0.6,0,1.3,0.2,1.9,0.1c0.4,0,0.5-0.1,0.5-0.5c0-0.6-0.1-1.3-0.1-1.9c0-2.2-0.1-4.4,0-6.6c0.1-1.8,0.2-3.6,0.5-5.4
			c0.3-2.2,0.6-4.3,1.1-6.5c0.4-1.8,0.8-3.6,1.4-5.3c0.8-2.6,1.6-5.1,2.7-7.6c0.6-1.4,1.2-2.7,1.9-4c0.6-1.4,1.3-2.8,2-4.1
			c1.3-2.3,2.7-4.6,4.4-6.7c1.9-2.5,3.9-5,6.2-7.2c2.3-2.2,4.7-4.2,7.3-6.1c2.8-2,5.7-3.8,8.8-5.2c3.6-1.6,7.2-3,11.1-4
			c2.1-0.5,4.2-0.8,6.3-1.2c3-0.5,6.1-0.7,9.1-0.6c2.7,0.1,5.3,0.3,8,0.6c2.9,0.4,5.7,0.9,8.5,1.6c2.8,0.7,5.7,1.5,8.4,2.7
			c1.9,0.8,3.7,1.7,5.4,2.7c1.7,1,3.3,2.1,4.8,3.4c1.5,1.2,3,2.4,4.3,3.7c2.5,2.5,4.8,5.3,6.9,8.2c2,2.9,3.8,5.9,5.3,9
			c1.6,3.2,3,6.6,4.1,10c0.7,2.3,1.4,4.7,1.9,7c0.4,1.8,0.8,3.6,0.8,5.5c0,0.9,0.1,0.9,1,0.9c2.8,0,5.7,0,8.5,0
			c0.5,0,0.6,0.1,0.6,0.6c0,4.9,0,9.7,0,14.6c0,0.5-0.1,0.6-0.6,0.6c-3.1,0-6.3,0-9.4,0c-0.6,0-0.8,0.1-0.9,0.8
			c-0.3,1.2-0.8,2.3-1.2,3.5c-0.7,2-1.8,3.8-3,5.6c-1.2,1.9-2.9,3.3-4.7,4.6c-2.3,1.6-4.8,2.6-7.5,3.2c-1.1,0.2-2.3,0.3-3.4,0.5
			c-2.4,0.3-4.5-0.7-6.6-1.4c-1.8-0.7-3.6-1.6-5.2-2.8c-2.3-1.7-4-3.9-4.5-6.8c-0.4-2.3,0.2-4.5,1.3-6.5c1-1.8,2.4-3.4,4.2-4.5
			c1.7-1.1,3.5-2,5.5-2.3c1.9-0.3,3.6,0,5.3,0.8c1.1,0.5,1.9,1.4,2.6,2.2c0.3,0.4,0.6,0.7,1.1,0.6c0.5-0.1,0.6-0.6,0.6-0.9
			c0.3-1.9,0.7-3.8,0.7-5.7c0-0.8,0.1-1.7,0.1-2.6c-0.1-3-0.5-6-1.2-8.9c-0.8-3-1.9-5.9-3.3-8.7c-1.3-2.6-2.9-5-4.8-7.3
			c-1.1-1.3-2.2-2.6-3.4-3.8c-3-3-6.3-5.6-10.1-7.5c-2.2-1.1-4.5-1.7-6.8-2.4c-1.9-0.6-3.9-1-5.9-1.3c-1.4-0.2-2.8-0.4-4.2-0.5
			c-1.7-0.1-3.4-0.1-5.1-0.1c-3.3,0.1-6.7,0.5-9.9,1.5c-2.4,0.7-4.7,1.6-6.9,2.7c-2.6,1.3-5,2.9-7.2,4.7c-1.6,1.4-3.2,2.8-4.6,4.4
			c-1.7,1.9-3.2,4-4.6,6.3c-1.8,3.1-3.3,6.3-4.3,9.7c-0.7,2.2-1.1,4.4-1.5,6.7c-0.2,1.5-0.3,2.9-0.3,4.4c-0.1,1.8,0.2,3.7,0.4,5.5
			c0.1,1.4,0.4,2.8,0.9,4.2c0.8,2.4,2,4.5,4,6.2c1,0.8,2.2,1.3,3.4,1.7c0.9,0.2,1.8,0.7,2.8,0.8c2.1,0.2,4.2,0.5,6.2,0
			c2.3-0.5,4.3-1.4,6.2-2.8c1.3-1,2.4-2.4,3.4-3.7c1.7-2.3,2.5-5,3-7.7c0.3-1.5,0.3-3,0.2-4.5c0-0.5-0.1-1.1-0.1-1.6
			c0-0.5,0.2-0.5,0.6-0.5c1,0.2,1.8,0.7,2.7,1.3c2.4,1.7,3.7,4.1,4.8,6.7c1,2.2,1.5,4.6,1.8,7c0.1,0.7,0.2,1.4,0.2,2
			c-0.1,0.8,0.1,1.7,0,2.5c-0.1,3.4-0.8,6.7-2.5,9.8c-0.9,1.7-2.1,3.1-3.6,4.3c-1.6,1.3-3.3,2.3-5.3,2.8
			C161.2,131.1,161.1,131.1,160.9,131.2z M66.6,87.7c-0.4-0.5-1-0.7-1.5-1c-2.6-1.4-5.4-2.6-8.2-3.8c-2.3-1-4.7-2.1-7-3.1
			c-2.1-0.9-4.1-1.8-6.1-2.8c-2.4-1.2-4.7-2.7-7-4.2c-1.2-0.8-2.4-1.7-3.5-2.7c-1.2-1.2-1.8-2.7-2.2-4.3c-0.6-2.2-0.5-4.4,0.4-6.6
			c0.6-1.4,1.6-2.6,2.5-3.8c0.2-0.2,0.3-0.4,0.5-0.6c0.3-0.3,0.1-0.5-0.1-0.6c-1.5-1.1-2.5-2.6-3.4-4.2c-0.9-1.7-1.4-3.6-1.8-5.4
			c-0.2-0.9-0.4-1.9-0.3-2.9c0-0.6-0.1-1.3-0.1-1.9c0.1-2.1,0.1-4.2,0.6-6.2c0.2-1,0.3-2,0.5-2.9c0.1-0.4,0.3-0.5,0.6-0.6
			c1.5-0.1,3-0.7,4.5-0.9c0.6-0.1,1.3-0.1,1.9-0.1c0.7-0.1,1.4-0.1,2.1-0.1c1.4,0,2.9,0.1,4.3,0.3c1.5,0.2,2.9,0.5,4.3,1.1
			c1.8,0.7,3.7,1.5,5.1,3c0.5,0.5,1.2,0.8,1.5,1.5c0.1,0.3,0.4,0.2,0.6,0c0.8-0.6,1.6-1.3,2.4-1.9c1.2-0.9,2.5-1.4,4-1.7
			c1.3-0.3,2.7-0.3,4,0c1.7,0.4,3.4,1,4.8,2.3c1.9,1.8,3.4,4,4.8,6.3c1.5,2.4,2.8,5,3.9,7.7c0.9,2.1,1.8,4.2,2.7,6.3
			c1.2,2.7,2.3,5.4,3.5,8.1c0.7,1.6,1.6,3.1,2.4,4.6c0,0.1,0.1,0.2,0.3,0.1c-0.5-1.4-1-2.7-1.3-4.2c-0.2-1.2-0.4-2.3-0.5-3.5
			c0-1.1-0.1-2.2,0-3.3c0.1-2.9,0.5-5.7,1.3-8.5c0.6-1.9,1.3-3.8,2.2-5.7c1.1-2.2,2.4-4.2,4-6c1.7-1.9,3.7-3.5,6-4.6
			c1.8-0.9,3.6-1.4,5.6-1.4c3.3-0.1,6.4,0.6,9.4,2.1c2.1,1,4,2.4,5.9,3.7c0.4,0.2,0.3,0.5-0.1,0.7c-2.6,1.5-4.8,3.5-6.8,5.6
			c-1.6,1.8-3.1,3.7-4.5,5.6c-1.9,2.7-3.6,5.6-5.1,8.5c-2.5,4.8-4.4,9.8-6,15c-0.9,2.7-1.5,5.4-2,8.2c-0.4,2.2-0.7,4.5-0.8,6.7
			c-0.1,1.3-0.1,2.5-0.1,3.7c0.1,2.1,0.2,4.1,0.7,6.1c0.1,0.6,0,0.7-0.6,0.6c-1.6-0.3-3.2-0.6-4.9-0.6c-1.3,0-2.5-0.1-3.8-0.1
			c-1.8,0.1-3.5,0.3-5.3,0.5c-3.1,0.4-6.2,1-9.2,1.9c-2.5,0.7-4.9,1.5-7.3,2.4c-2.4,0.9-4.8,1.9-7.1,3c-3.3,1.6-6.6,3.4-9.6,5.5
			c-2.2,1.5-4.3,3-6.2,4.8c-2,1.8-3.8,3.7-5.3,5.8c-0.3,0.4-0.6,0.9-0.8,1.3c-0.2,0.4-0.5,0.4-0.7,0c-1.8-2.4-3.3-4.8-4.4-7.5
			c-0.6-1.5-1.1-3.1-1.2-4.9c0-0.7-0.3-1.4-0.2-2c0.1-0.9,0-1.8,0.2-2.7c0.5-2.7,1.8-5.2,3.5-7.3c1.6-2,3.6-3.7,5.9-5
			c3.1-1.9,6.4-3.2,9.9-4c1.9-0.5,3.8-0.7,5.8-0.8c0.8-0.1,1.6-0.2,2.4-0.2c0.9,0,1.9,0,2.8,0.1c1.5,0.2,3.1,0.4,4.6,0.9
			C65,87.1,65.8,87.4,66.6,87.7z M93.3,254.8c0-3.3,0-6.6,0-9.9c5.3,0,10.4,0,15.7,0c0,0.3,0,0.5,0,0.7c0,3.1,0,6.3,0,9.4
			c0,0.5,0.2,0.6,0.6,0.8c1.3,0.4,2.6,0.9,3.9,1.3c1.6,0.5,2.9,1.4,4.3,2.3c1,0.6,2,1.3,2.9,2.1c1.4,1.3,2.6,2.8,3.6,4.5
			c1.1,1.9,1.9,3.9,2.3,6c0.2,1.2,0.3,2.4,0.5,3.6c0.4,2.6-0.8,4.9-1.7,7.2c-0.8,1.9-1.7,3.6-3,5.2c-1.8,2.1-4,3.7-6.9,3.9
			c-2.3,0.2-4.4-0.5-6.3-1.7c-2.3-1.4-4-3.3-5.1-5.7c-0.8-1.7-1.3-3.4-1.2-5.3c0.1-2.6,1.2-4.6,3.2-6.2c0.3-0.2,0.5-0.7,0.5-1
			c0-0.3-0.5-0.6-0.8-0.7c-1.9-0.3-3.8-0.5-5.7-0.7c-1-0.1-2-0.2-3-0.1c-2.9,0.1-5.8,0.5-8.7,1.2c-2.9,0.8-5.7,1.8-8.4,3.2
			c-3,1.5-5.9,3.4-8.5,5.6c-1.2,1-2.4,1.9-3.4,3.1c-1.6,1.8-3.2,3.7-4.6,5.7c-1.1,1.5-2.1,3.2-2.9,4.9c-0.8,1.6-1.3,3.4-1.8,5.1
			c-0.5,1.9-0.9,3.8-1.3,5.7c-0.2,1.1-0.4,2.2-0.5,3.4c-0.1,2.3-0.3,4.7-0.3,7c0,4.3,0.8,8.6,2.4,12.6c1.1,2.9,2.4,5.7,4.2,8.2
			c1.4,1.8,2.6,3.7,4.2,5.3c2.5,2.6,5.4,4.9,8.5,6.8c2,1.2,4.1,2.4,6.3,3.2c1.9,0.7,3.7,1.4,5.6,1.8c1.9,0.5,3.8,0.8,5.8,1
			c1.4,0.2,2.9,0.3,4.3,0.3c3.5-0.1,6.9-0.6,10.1-1.9c0.7-0.3,0.8-0.8,0.3-1.3c-0.8-0.8-1.7-1.6-2.5-2.5c-1.3-1.4-1.9-3.2-2.3-5
			c-0.2-1-0.4-2-0.4-3c0.1-1.5,0.1-3.1,0.8-4.6c0.5-1.3,1-2.5,1.9-3.6c1.3-1.5,2.8-2.7,4.6-3.4c1.4-0.6,2.8-0.8,4.3-0.8
			c2.1,0.1,3.9,0.8,5.5,1.9c3.2,2.3,5.1,5.4,6.1,9.1c0.6,2.1,0.7,4.2,0.6,6.4c-0.1,2.4-0.8,4.7-1.7,7c-0.8,2.1-2.2,3.8-3.5,5.5
			c-0.2,0.2-0.4,0.4-0.5,0.6c-0.1,0.3-0.2,0.6-0.1,0.9c0.1,0.2,0.5,0.4,0.7,0.4c1.4-0.1,2.8-0.3,4.1-0.5c2.9-0.6,5.6-1.8,8-3.5
			c1.9-1.4,3.6-3,4.9-4.9c1.9-2.9,3.4-5.9,4.4-9.3c0.7-2.3,1.2-4.6,1.5-7c0.1-1.3,0.2-2.6,0.3-3.9c0.1-0.9,0.2-1.8,0.1-2.7
			c-0.1-2.5-0.3-5-0.6-7.5c-0.4-3-1.1-5.9-1.9-8.7c-0.5-1.9-1.3-3.6-2-5.4c-1.2-3-2.9-5.7-4.8-8.4c-0.6-0.8-1.3-1.6-2-2.4
			c-1.4-1.6-2.8-3-4.7-4.2c0.4-0.2,0.6-0.5,0.9-0.6c1.9-0.9,3.9-1.6,6-1.5c2.1,0.1,4.1,0.8,5.8,2c0.4,0.3,0.8,0.7,1.2,1.1
			c1.6,1.4,3,3,4.1,4.8c0.4,0.7,1.1,0.7,1.5,0c0.4-0.6,0.7-1.3,1.1-1.9c1.3-1.9,2.6-3.8,4-5.7c2-2.5,4.4-4.6,7.2-6.3
			c3.6-2.2,7.4-3.7,11.5-4.5c0.3-0.1,0.7-0.1,1-0.1c0.2,0,0.3,0,0.6,0c0.7,2.5,1.4,4.9,2,7.4c0.5,2,1,4.1,1.3,6.1
			c0.3,2.1,0.4,4.2,0.2,6.3c-0.2,2.2-0.5,4.4-1.1,6.5c-0.2,0.6,0.2,1,0.8,1c0.7,0,1.3-0.2,2-0.2c1,0,1.9-0.1,2.9,0
			c2.2,0.3,4.3,1.2,6.1,2.6c2.3,1.8,4,4.1,4.8,7c0.2,0.7,0.4,1.5,0.6,2.3c-1.4,0-2.6,0-3.8,0c-2.6,0.1-5.1,0.6-7.5,1.6
			c-1.9,0.8-3.7,1.7-5.4,2.7c-1.1,0.7-2.2,1.5-3.2,2.4c-1.3,1.2-2.5,2.3-3.6,3.7c-1.1,1.3-2.1,2.7-3,4.2c-2.4,3.7-4.1,7.7-5.1,12
			c-0.3,1.2-0.3,2.4-0.4,3.6c-0.1,1.2-0.1,2.5,0,3.7c0.2,1.3,0.5,2.6,0.9,3.8c0.8,2.3,2.4,4,4.6,5.2c1.8,0.9,3.7,1.3,5.7,1.4
			c3,0.1,5.9-0.4,8.8-1.1c4.4-1.2,8.5-3.1,12.5-5.4c2.5-1.5,4.9-3.1,7.1-5c1.9-1.6,3.5-3.4,5.2-5.2c1.7-1.8,3.1-3.9,4.1-6.2
			c0.5-1.2,0.8-2.5,1.2-3.7c0.1-0.2,0.1-0.4,0.2-0.6c2,1.7,3.3,3.7,4,6.2c0.3,1.2,0.7,2.3,0.8,3.5c0.1,1.1,0.1,2.3,0,3.4
			c0,0.8-0.1,1.7-0.3,2.5c-0.3,1.3-0.7,2.6-1.2,3.8c-0.8,2.1-2.1,3.9-3.8,5.4c-0.5,0.4-1,0.8-1.4,1.2c-0.2,0.2-0.5,0.5-0.2,0.9
			c0.3,0.3,0.6,0.4,1,0.2c0.8-0.4,1.6-0.8,2.4-1c0.9-0.3,1.9-0.4,2.8-0.5c3.6-0.4,6.6,1.1,9.3,3.1c2.6,1.9,4.5,4.3,5.9,7.1
			c0.2,0.5,0.5,0.9,0.6,1.4c0.1,0.2,0.1,0.6,0,0.8c-0.9,2.1-2.1,4.1-3.6,5.9c-2,2.3-4.5,4-7.3,5.1c-1,0.4-2.2,0.6-3.3,0.7
			c-2,0.2-3.8-0.2-5.7-1c-0.3-0.1-0.6-0.3-0.9-0.5c-0.5-0.3-0.9-0.4-1.2,0.1c-0.3,0.5,0.1,0.8,0.4,1.1c0.7,0.6,1.4,1.2,2.1,1.8
			c2.2,2.3,3.7,5.1,4.1,8.3c0.3,1.8,0.3,3.5,0.4,5.3c0,0.8-0.2,1.6-0.4,2.3c-0.6,2.2-1.2,4.4-2.7,6.1c-0.5,0.6-1.1,1.2-1.8,1.9
			c-0.2-0.7-0.3-1.3-0.5-2c-0.6-2.4-1.8-4.5-3.3-6.5c-1.5-2.1-3.2-4-5.2-5.7c-2.3-2.1-4.8-4-7.4-5.6c-2.7-1.7-5.4-3.2-8.4-4.3
			c-1.5-0.6-3-1.2-4.5-1.7c-2-0.7-4-1.1-6.1-1.3c-1-0.1-1.9-0.3-2.9-0.2c-1.3,0.1-2.5,0.3-3.8,0.5c-2.1,0.4-3.9,1.4-5.4,2.9
			c-1.4,1.4-2.1,3.1-2.5,5c-0.3,1.6-0.5,3.2-0.5,4.8c0,2.3,0.5,4.6,1.1,6.9c0.6,2.1,1.5,4.1,2.4,6c1.2,2.8,3,5.3,4.9,7.6
			c1.4,1.7,3.2,3.1,4.8,4.6c1.4,1.3,3,2.3,4.7,3.1c2,1,4.1,1.8,6.4,2.3c2.3,0.5,4.7,0.6,7.1,0.5c0.2,0,0.4,0,0.8,0
			c-0.1,0.6-0.2,1-0.3,1.5c-0.6,2.3-1.7,4.3-3.3,6.1c-1.2,1.4-2.6,2.3-4.2,3.1c-1.3,0.6-2.7,1-4.2,1.2c-1.3,0.2-2.6,0-3.8-0.3
			c-1.1-0.2-1.4,0.2-1.2,1.3c0.5,2,0.8,4,1,6.1c0.2,3,0,6-0.7,8.9c-0.8,3.4-1.7,6.9-2.5,10.3c-0.1,0.2-0.2,0.5-0.3,0.9
			c-1-0.2-2.1-0.4-3.1-0.6c-2.4-0.6-4.7-1.3-6.9-2.5c-2.1-1.1-4.2-2.2-6-3.7c-1.9-1.6-3.6-3.3-5.1-5.2c-1.6-2-2.9-4.2-4.1-6.4
			c-0.4-0.7-1-0.9-1.7,0c-0.8,1-1.5,2.2-2.3,3.1c-1.9,2.2-4.1,4-7.2,4.6c-2.1,0.4-4.1,0-6-0.8c-0.8-0.3-1.6-0.7-2.5-1.1
			c0.8-0.7,1.5-1.2,2.1-1.7c1-1,2.1-1.9,3-3c1.4-1.7,2.8-3.5,3.9-5.4c1.3-2.2,2.3-4.5,3.3-6.8c1.3-2.9,1.9-6.1,2.7-9.2
			c0.4-1.5,0.5-3.1,0.7-4.7c0.2-1.4,0.2-2.8,0.3-4.2c0.1-0.9,0.2-1.8,0.1-2.6c-0.2-2.5-0.4-5-0.6-7.6c-0.3-3.1-1.3-6.1-2.5-8.9
			c-1.1-2.6-2.4-5-4.3-7.1c-2.1-2.5-4.7-4.4-7.6-5.7c-1.8-0.8-3.7-1.4-5.6-1.6c-0.9-0.1-1.7-0.2-2.6-0.2c-0.3,0-0.7,0.2-0.8,0.4
			c-0.1,0.2,0,0.6,0.2,0.9c1.1,1.6,2.4,3.1,3.3,4.9c1.2,2.3,2,4.8,2.1,7.5c0,0.9,0.2,1.9,0.1,2.8c-0.1,3.2-0.9,6.2-2.6,8.9
			c-1.2,2-2.7,3.6-4.7,4.8c-2.1,1.3-4.3,1.8-6.7,1.4c-3.6-0.6-6.4-2.4-8.1-5.6c-0.8-1.4-1.3-3-1.5-4.7c-0.4-3,0.1-5.9,1.5-8.5
			c0.7-1.3,1.6-2.5,2.9-3.4c0.1,0,0.1-0.1,0.1-0.1c1.1-0.9,1-1.4-0.3-1.9c-2.1-0.8-4.3-1.4-6.6-1.5c-1.4-0.1-2.8-0.3-4.2-0.2
			c-2.7,0.1-5.5,0.4-8.1,1c-3.1,0.7-6,1.7-8.8,3.1c-2.7,1.3-5.3,2.8-7.6,4.7c-1.7,1.4-3.4,2.8-4.9,4.3c-1.3,1.3-2.4,2.7-3.5,4.2
			c-1.3,1.9-2.5,3.8-3.5,5.8c-1.6,3.1-2.7,6.4-3.2,9.9c-0.2,1.6-0.4,3.3-0.5,4.9c-0.1,1.5-0.2,3-0.1,4.5c0.1,1.8,0.3,3.6,0.5,5.4
			c0.3,3.7,1.4,7.3,2.6,10.8c0.8,2.4,2,4.6,3.5,6.6c1.4,1.9,2.9,3.7,4.5,5.5c1.1,1.2,2.3,2.2,3.5,3.2c1,0.8,2,1.6,3.1,2.4
			c2.3,1.7,4.8,3.2,7.5,4.2c1.9,0.8,3.8,1.5,5.8,2.1c2.6,0.7,5.2,1.3,8,1.3c1,0,2,0.1,3,0.1c2.2-0.1,4.3-0.3,6.4-0.7
			c0.2,0,0.4,0,0.5,0c0.3-0.2,0.7-0.4,0.8-0.7c0.1-0.3-0.1-0.8-0.4-1c-1.4-1.1-2.4-2.5-2.9-4.2c-0.5-1.6-0.5-3.3-0.1-4.9
			c0.7-2.5,1.9-4.6,3.8-6.4c1.7-1.6,3.6-2.8,5.8-3.3c2.2-0.5,4.3-0.3,6.4,0.9c2.2,1.3,3.7,3.1,4.9,5.3c1.4,2.5,2.5,5.1,3.1,7.9
			c0.2,0.9,0.1,1.9,0,2.9c-0.2,1.9-0.6,3.7-1.3,5.5c-1,2.6-2.4,4.8-4.2,6.9c-1.8,1.9-3.9,3.2-6.2,4.4c-1.9,0.9-3.9,1.5-5.9,2.2
			c-0.4,0.1-0.5,0.3-0.5,0.7c0,3.1,0,6.3,0,9.4c0,0.2,0,0.5,0,0.8c-5.2,0-10.4,0-15.7,0c0-3.3,0-6.6,0-9.9c-1.3-0.2-2.6-0.4-3.8-0.6
			c-1.6-0.3-3.3-0.5-4.9-1c-2.4-0.6-4.8-1.3-7.2-2.1c-2-0.7-4-1.6-6-2.4c-3.6-1.6-7-3.6-10.3-5.8c-1.7-1.1-3.3-2.5-4.9-3.8
			c-1.2-1-2.5-2-3.6-3.2c-3.2-3.3-6.1-7-8.3-11.1c-1.8-3.4-3.1-7-4.1-10.7c-0.6-2.4-1.2-4.8-1.7-7.2c-0.3-1.5-0.4-3.1-0.5-4.6
			c-0.2-2.3-0.3-4.6-0.4-6.9c-0.1-2.6,0.1-5.3,0.6-7.9c0.4-2.3,0.7-4.6,1.3-6.8c0.7-2.5,1.6-4.9,2.5-7.3c1-2.8,2.4-5.4,3.9-8
			c1.3-2.2,2.7-4.3,4.3-6.3c1-1.2,2-2.5,3.1-3.6c0.9-1,1.8-2,2.7-2.9c1.7-1.6,3.5-3.1,5.4-4.5c1.6-1.3,3.3-2.5,5.1-3.5
			c2.3-1.3,4.6-2.5,7-3.5c2.1-0.9,4.3-1.5,6.4-2.1c2-0.6,4-0.9,6-0.8c0.4,0,0.8,0,1.1-0.1c0.3-0.1,0.5-0.4,0.6-0.7
			c0-0.2-0.3-0.5-0.5-0.6c-0.2-0.1-0.6-0.2-0.9-0.1c-3.2,0.2-6.2-0.7-9.3-1.6c-2.9-0.9-5.7-2.1-8.3-3.6c-2.7-1.5-5.3-3.1-7.6-5.1
			c-1.5-1.3-3.1-2.4-4.5-3.7c-3.8-3.7-7.2-7.8-10-12.4c-2.2-3.5-3.9-7.2-5.3-11c-0.9-2.6-1.8-5.2-2.2-7.9c-0.3-1.5-0.5-3.1-0.7-4.7
			c-0.5-3-0.6-6-0.5-9c0.1-2.3,0.3-4.7,0.6-7c0.4-2.8,0.9-5.5,1.4-8.2c0.4-1.8,1-3.5,1.5-5.2c1.3-4,3-7.8,5.5-11.1
			c1.5-2.1,3.1-4,4.8-6c2.2-2.6,4.9-4.7,7.6-6.7c2.5-1.9,5.1-3.5,7.8-5c3.1-1.7,6.2-3.1,9.5-4.3c2.9-1.1,5.9-2,8.9-2.7
			c2.3-0.5,4.6-0.8,6.9-1.2C92.7,254.9,92.9,254.8,93.3,254.8z M490,93.1c3.3,0,6.6,0,9.9,0c0,5.2,0,10.4,0,15.7c-0.3,0-0.5,0-0.7,0
			c-3.1,0-6.3,0-9.4,0c-0.5,0-0.6,0.2-0.8,0.6c-0.4,1.3-0.9,2.6-1.3,3.9c-0.5,1.6-1.4,2.9-2.3,4.3c-0.6,1-1.3,2-2.1,2.9
			c-1.3,1.4-2.8,2.6-4.5,3.6c-1.9,1-3.9,1.9-6,2.3c-1.2,0.2-2.4,0.3-3.6,0.5c-2.6,0.4-4.9-0.8-7.2-1.7c-1.9-0.8-3.7-1.7-5.2-3
			c-2.2-1.8-3.7-4-3.9-6.9c-0.2-2.3,0.5-4.3,1.7-6.3c1.4-2.3,3.3-4,5.7-5.1c1.7-0.8,3.4-1.3,5.3-1.2c2.6,0.1,4.6,1.2,6.2,3.2
			c0.2,0.3,0.7,0.5,1,0.5c0.3,0,0.6-0.5,0.7-0.8c0.3-1.9,0.5-3.8,0.7-5.7c0.1-1,0.2-2,0.1-3c-0.1-2.9-0.5-5.8-1.2-8.7
			c-0.8-2.9-1.8-5.7-3.2-8.3c-1.5-3-3.4-5.9-5.6-8.5c-1-1.1-1.9-2.4-3.1-3.4c-1.8-1.6-3.7-3.2-5.7-4.6c-1.5-1.1-3.2-2.1-4.9-2.9
			c-1.6-0.8-3.4-1.3-5.1-1.8c-1.9-0.5-3.8-0.9-5.7-1.3c-1.1-0.2-2.2-0.4-3.4-0.5c-2.3-0.1-4.7-0.3-7-0.3c-4.4,0-8.6,0.8-12.7,2.4
			c-2.9,1.1-5.7,2.4-8.2,4.2c-1.8,1.4-3.7,2.6-5.3,4.2c-2.6,2.5-4.9,5.3-6.8,8.5c-1.2,2-2.4,4.1-3.2,6.3c-0.7,1.9-1.4,3.7-1.8,5.6
			c-0.5,1.9-0.8,3.8-1,5.8c-0.2,1.4-0.3,2.9-0.3,4.3c0.1,3.5,0.6,6.9,1.9,10.1c0.3,0.7,0.8,0.8,1.3,0.3c0.8-0.8,1.6-1.7,2.5-2.5
			c1.4-1.3,3.2-1.9,5-2.3c1-0.2,2-0.4,3-0.4c1.5,0.1,3.1,0.1,4.6,0.8c1.3,0.5,2.5,1,3.6,1.9c1.5,1.3,2.7,2.8,3.4,4.6
			c0.6,1.4,0.8,2.8,0.8,4.3c-0.1,2.1-0.8,3.9-1.9,5.5c-2.3,3.2-5.4,5.1-9.1,6.1c-2.1,0.6-4.2,0.7-6.4,0.6c-2.4-0.1-4.7-0.8-7-1.7
			c-2.1-0.8-3.8-2.2-5.5-3.5c-0.2-0.2-0.4-0.4-0.6-0.5c-0.3-0.1-0.6-0.2-0.9-0.1c-0.2,0.1-0.4,0.5-0.4,0.7c0.1,1.4,0.3,2.8,0.5,4.1
			c0.6,2.9,1.8,5.6,3.5,8c1.4,1.9,3,3.6,5,4.9c2.9,1.9,6,3.4,9.3,4.4c2.3,0.7,4.7,1.2,7.1,1.5c1.3,0.1,2.6,0.2,3.9,0.3
			c0.9,0.1,1.8,0.2,2.7,0.1c2.5-0.1,5-0.3,7.5-0.6c3-0.4,5.9-1.1,8.7-1.9c1.9-0.5,3.7-1.3,5.4-2c3-1.2,5.7-2.9,8.4-4.8
			c0.8-0.6,1.6-1.3,2.4-2c1.6-1.4,3.1-2.8,4.2-4.7c0.2,0.4,0.5,0.6,0.6,0.9c0.9,1.9,1.6,3.9,1.5,6c-0.1,2.1-0.8,4-2,5.8
			c-0.3,0.4-0.7,0.8-1.1,1.2c-1.4,1.6-3,3-4.9,4.1c-0.7,0.4-0.7,1.1,0,1.5c0.6,0.4,1.3,0.7,1.9,1.1c1.9,1.3,3.8,2.5,5.7,4
			c2.5,2,4.6,4.4,6.3,7.2c2.2,3.6,3.7,7.4,4.5,11.5c0.1,0.3,0.1,0.7,0.1,1c0,0.2,0,0.3,0,0.6c-2.5,0.7-4.9,1.4-7.4,2
			c-2,0.5-4.1,1-6.1,1.3c-2.1,0.3-4.2,0.4-6.3,0.2c-2.2-0.2-4.4-0.5-6.5-1.1c-0.6-0.2-1,0.2-1,0.8c0,0.7,0.2,1.3,0.2,2
			c0,1,0.1,1.9,0,2.9c-0.3,2.2-1.2,4.3-2.6,6c-1.8,2.3-4.1,4-7,4.8c-0.7,0.2-1.5,0.4-2.4,0.6c0-1.4,0-2.6,0-3.8
			c-0.1-2.6-0.6-5.1-1.6-7.5c-0.8-1.9-1.7-3.7-2.7-5.4c-0.7-1.1-1.5-2.2-2.4-3.2c-1.2-1.3-2.4-2.5-3.7-3.6c-1.3-1.1-2.7-2.1-4.2-3
			c-3.7-2.4-7.7-4.1-12-5.1c-1.2-0.3-2.4-0.3-3.6-0.4c-1.2-0.1-2.5-0.1-3.7,0c-1.3,0.2-2.6,0.5-3.8,0.9c-2.3,0.8-4.1,2.4-5.2,4.6
			c-0.9,1.8-1.3,3.7-1.4,5.7c-0.1,3,0.4,5.9,1.1,8.8c1.2,4.4,3.1,8.5,5.4,12.4c1.5,2.5,3.1,4.9,5,7.1c1.6,1.9,3.4,3.5,5.2,5.2
			c1.8,1.7,3.9,3.1,6.2,4.1c1.2,0.5,2.5,0.8,3.7,1.1c0.2,0.1,0.4,0.1,0.6,0.2c-1.7,2-3.7,3.3-6.2,4c-1.2,0.3-2.3,0.7-3.5,0.8
			c-1.1,0.1-2.3,0.1-3.4,0c-0.8,0-1.7-0.1-2.5-0.3c-1.3-0.3-2.6-0.7-3.8-1.2c-2.1-0.8-3.9-2.1-5.4-3.8c-0.4-0.5-0.8-1-1.2-1.4
			c-0.2-0.2-0.5-0.5-0.9-0.2c-0.3,0.3-0.4,0.6-0.2,1c0.4,0.8,0.8,1.6,1,2.4c0.3,0.9,0.4,1.9,0.5,2.8c0.4,3.6-1.1,6.5-3.1,9.3
			c-1.9,2.6-4.3,4.5-7.1,5.9c-0.5,0.2-0.9,0.5-1.4,0.6c-0.2,0.1-0.6,0.1-0.8,0c-2.1-0.9-4.1-2.1-5.9-3.6c-2.3-2-4-4.4-5.1-7.3
			c-0.4-1-0.6-2.2-0.7-3.3c-0.2-2,0.2-3.8,1-5.7c0.1-0.3,0.3-0.6,0.5-0.9c0.3-0.5,0.4-0.9-0.1-1.2c-0.5-0.3-0.8,0.1-1.1,0.4
			c-0.6,0.7-1.2,1.4-1.8,2.1c-2.3,2.2-5.1,3.7-8.3,4.1c-1.8,0.3-3.6,0.3-5.3,0.4c-0.8,0-1.6-0.2-2.3-0.4c-2.2-0.6-4.4-1.2-6.2-2.7
			c-0.6-0.5-1.2-1.1-1.9-1.8c0.7-0.2,1.4-0.3,2-0.5c2.4-0.6,4.5-1.8,6.5-3.3c2.1-1.5,4-3.2,5.7-5.2c2.1-2.3,4-4.7,5.7-7.4
			c1.7-2.7,3.2-5.4,4.4-8.3c0.6-1.5,1.2-3,1.7-4.5c0.7-2,1.1-4,1.3-6.1c0.1-1,0.3-1.9,0.2-2.9c-0.1-1.3-0.3-2.5-0.5-3.8
			c-0.4-2.1-1.4-3.9-2.9-5.4c-1.4-1.4-3.1-2.1-5-2.5c-1.6-0.3-3.2-0.5-4.8-0.5c-2.3,0-4.6,0.5-6.9,1.1c-2.1,0.6-4.1,1.5-6.1,2.4
			c-2.8,1.2-5.3,3-7.6,4.9c-1.7,1.4-3.1,3.2-4.7,4.8c-1.3,1.4-2.3,3-3.1,4.7c-1,2-1.8,4.1-2.3,6.4c-0.5,2.3-0.6,4.7-0.5,7.1
			c0,0.2,0,0.4,0,0.8c-0.6-0.1-1-0.2-1.5-0.3c-2.3-0.6-4.3-1.7-6.2-3.3c-1.4-1.2-2.3-2.6-3.1-4.2c-0.6-1.3-1-2.7-1.2-4.2
			c-0.2-1.3,0-2.5,0.3-3.8c0.2-1.1-0.2-1.4-1.3-1.2c-2,0.5-4,0.8-6.1,1c-3,0.2-6,0-8.9-0.7c-3.4-0.8-6.9-1.7-10.3-2.5
			c-0.2-0.1-0.5-0.2-0.9-0.3c0.2-1,0.4-2.1,0.6-3.1c0.6-2.4,1.3-4.7,2.5-6.9c1.1-2.1,2.2-4.2,3.7-6c1.6-1.9,3.3-3.6,5.3-5.1
			c2-1.6,4.2-2.9,6.4-4.1c0.7-0.4,0.9-1,0-1.7c-1.1-0.8-2.2-1.5-3.1-2.3c-2.2-1.9-4.1-4.1-4.6-7.1c-0.4-2.1-0.1-4.1,0.8-6
			c0.3-0.8,0.7-1.6,1.1-2.5c0.7,0.8,1.2,1.5,1.7,2.1c1,1,1.9,2.1,3,2.9c1.7,1.4,3.5,2.8,5.4,3.9c2.2,1.3,4.5,2.3,6.8,3.3
			c2.9,1.3,6.1,1.9,9.2,2.7c1.5,0.4,3.1,0.5,4.7,0.7c1.4,0.2,2.8,0.2,4.2,0.3c0.9,0.1,1.8,0.2,2.6,0.1c2.5-0.2,5-0.4,7.6-0.6
			c3.1-0.3,6.1-1.3,9-2.5c2.6-1.1,5-2.4,7.2-4.3c2.5-2.1,4.4-4.6,5.7-7.6c0.8-1.8,1.4-3.7,1.6-5.6c0.1-0.8,0.2-1.7,0.2-2.6
			c0-0.3-0.2-0.7-0.4-0.8c-0.2-0.1-0.6,0-0.9,0.2c-1.6,1.1-3.1,2.4-4.9,3.3c-2.3,1.2-4.9,2-7.5,2.1c-0.9,0-1.9,0.2-2.8,0.1
			c-3.2-0.1-6.2-0.9-8.9-2.6c-2-1.2-3.6-2.7-4.8-4.7c-1.3-2.1-1.8-4.3-1.4-6.7c0.6-3.6,2.4-6.4,5.6-8.1c1.4-0.8,3-1.3,4.7-1.5
			c3-0.4,5.9,0.1,8.6,1.5c1.3,0.7,2.5,1.6,3.4,2.9c0,0.1,0.1,0.1,0.1,0.1c0.9,1.1,1.4,1,1.9-0.3c0.8-2.1,1.4-4.3,1.5-6.6
			c0.1-1.4,0.3-2.8,0.2-4.2c-0.1-2.7-0.4-5.4-1-8.1c-0.7-3.1-1.8-6-3.1-8.8c-1.3-2.7-2.8-5.3-4.7-7.6c-1.4-1.7-2.8-3.4-4.3-4.9
			c-1.3-1.3-2.7-2.4-4.2-3.5c-1.9-1.3-3.8-2.5-5.8-3.5c-3.1-1.5-6.4-2.7-9.9-3.2c-1.6-0.2-3.3-0.4-4.9-0.5c-1.5-0.1-3-0.2-4.5-0.1
			c-1.8,0.1-3.6,0.3-5.4,0.5c-3.7,0.3-7.3,1.4-10.8,2.6c-2.4,0.8-4.6,2-6.6,3.5c-1.9,1.4-3.7,2.9-5.5,4.5c-1.2,1.1-2.2,2.3-3.2,3.5
			c-0.8,1-1.6,2-2.4,3.1c-1.7,2.3-3.2,4.8-4.3,7.5c-0.8,1.9-1.5,3.8-2.1,5.8c-0.7,2.6-1.3,5.2-1.3,7.9c0,1-0.1,2-0.1,3
			c0.1,2.2,0.3,4.3,0.7,6.4c0,0.2,0,0.4,0,0.5c0.2,0.3,0.4,0.7,0.7,0.8c0.3,0.1,0.8-0.1,1-0.4c1.1-1.4,2.5-2.4,4.2-2.9
			c1.6-0.5,3.3-0.5,4.9-0.1c2.5,0.7,4.7,1.9,6.5,3.8c1.6,1.7,2.8,3.6,3.3,5.8c0.5,2.2,0.3,4.3-0.9,6.3c-1.3,2.2-3.1,3.7-5.3,4.9
			c-2.5,1.4-5.1,2.5-7.9,3.1c-0.9,0.2-1.9,0.1-2.9,0c-1.9-0.2-3.7-0.6-5.5-1.3c-2.6-1-4.8-2.4-6.9-4.2c-1.9-1.8-3.2-3.9-4.4-6.2
			c-0.9-1.8-1.5-3.9-2.2-5.8c-0.1-0.4-0.3-0.5-0.7-0.5c-3.1,0-6.3,0-9.4,0c-0.2,0-0.5,0-0.8,0c0-5.2,0-10.4,0-15.7
			c3.3,0,6.6,0,9.9,0c0.2-1.3,0.4-2.6,0.6-3.8c0.3-1.6,0.6-3.3,1-4.9c0.6-2.4,1.3-4.8,2.2-7.1c0.7-2,1.6-4,2.5-6
			c1.6-3.6,3.6-7,5.8-10.2c1.1-1.7,2.5-3.3,3.8-4.9c1-1.2,2-2.5,3.2-3.6c3.3-3.2,7-6,11.1-8.3c3.4-1.8,7-3.1,10.7-4.1
			c2.4-0.6,4.8-1.2,7.2-1.7c1.5-0.3,3.1-0.4,4.7-0.5c2.3-0.2,4.6-0.3,6.9-0.4c2.6-0.1,5.3,0.1,7.9,0.6c2.3,0.4,4.6,0.7,6.8,1.3
			c2.5,0.7,4.9,1.6,7.3,2.5c2.8,1,5.4,2.4,8,3.9c2.2,1.3,4.3,2.7,6.3,4.3c1.2,1,2.5,2,3.6,3.1c1,0.9,2,1.8,2.9,2.7
			c1.6,1.7,3.1,3.5,4.5,5.3c1.3,1.6,2.5,3.3,3.5,5.1c1.3,2.2,2.5,4.6,3.5,7c0.9,2.1,1.5,4.2,2.1,6.4c0.6,2,0.9,4,0.8,6
			c0,0.4,0,0.8,0.1,1.1c0.1,0.3,0.4,0.5,0.7,0.6c0.2,0,0.5-0.3,0.6-0.5c0.1-0.2,0.2-0.6,0.1-0.9c-0.2-3.2,0.7-6.2,1.6-9.2
			c0.9-2.9,2.1-5.7,3.6-8.3c1.5-2.7,3.1-5.3,5.1-7.6c1.3-1.5,2.4-3.1,3.8-4.5c3.7-3.8,7.8-7.2,12.4-10c3.5-2.2,7.2-3.9,11.1-5.3
			c2.6-0.9,5.2-1.8,7.9-2.2c1.6-0.3,3.1-0.5,4.7-0.7c3-0.5,6-0.6,9-0.5c2.4,0.1,4.7,0.3,7,0.6c2.8,0.4,5.5,0.9,8.2,1.4
			c1.8,0.4,3.5,1,5.2,1.5c4,1.3,7.8,3,11.2,5.5c2.1,1.5,4,3.1,6,4.8c2.6,2.2,4.7,4.9,6.7,7.5c1.9,2.5,3.5,5.1,5,7.7
			c1.7,3,3.1,6.2,4.3,9.5c1.1,2.9,2,5.9,2.7,8.9c0.5,2.3,0.8,4.6,1.2,6.9C489.9,92.5,490,92.8,490,93.1z"/>
	</g>
</g>
<g id="A">
	<g>
		<path class="st2" d="M0,120.7C0,80.8,0,40.9,0,0.9C0-0.1-0.1,0,0.9,0c80,0,160,0,239.9,0c0.2,0,0.4,0,0.6,0c0.3,0,0.4,0.1,0.4,0.4
			c0,0.3,0,0.6,0,0.8c0,5.4,0,10.8,0,16.2c0,1.1,0.1,0.9-0.9,0.9c-57.6,0-115.2,0-172.7,0c-16.3,0-32.6,0-48.9,0
			c-1,0-0.9-0.1-0.9,0.9c0,73.7,0,147.5,0,221.2c0,1,0,1-1,1c-5.4,0-10.9,0-16.3,0c-1,0-1,0-1-1C0,200.5,0,160.6,0,120.7z
			 M238.1,241.4c-1.1,0-2.2,0-3.3,0c-0.3,0-0.5-0.1-0.5-0.4c0-2.2,0-4.4,0-6.6c0-0.4,0.2-0.4,0.5-0.4c2.2,0,4.3,0,6.5,0
			c0.3,0,0.5,0.1,0.5,0.4c0,2.2,0,4.4,0,6.6c0,0.4-0.2,0.4-0.5,0.4C240.3,241.4,239.2,241.4,238.1,241.4z M0,499.6
			c0-84.9,0-169.8,0-254.7c6.1,0,12.2,0,18.3,0c0,84.9,0,169.8,0,254.7C12.2,499.6,6.1,499.6,0,499.6z M234.5,244.8
			c2.5,0,4.9,0,7.3,0c0,84.9,0,169.8,0,254.8c-2.4,0-4.8,0-7.3,0C234.5,414.7,234.5,329.8,234.5,244.8z M244.8,0
			C329.9,0,414.9,0,500,0c0,6.1,0,12.2,0,18.3c-85,0-170.1,0-255.1,0C244.8,12.2,244.8,6.1,244.8,0z M500,234.1c0,2.5,0,4.9,0,7.3
			c-85.1,0-170.1,0-255.2,0c0-2.4,0-4.8,0-7.3C329.9,234.1,414.9,234.1,500,234.1z"/>
	</g>
</g>
<g id="C">
	<g>
		<path class="st3" d="M137.4,231.1c1-1,2.1-2,3.1-3.1c3.4-3.4,6.8-6.8,10.2-10.2c0.2-0.2,0.4-0.5,0.8-0.1
			c4.4,4.4,8.8,8.8,13.2,13.2c-3.4,3.4-6.9,6.8-10.3,10.3c-0.2,0.2-0.4,0.2-0.6,0.2c-1.8,0-3.7,0-5.5,0c-0.3,0-0.5,0-0.7-0.3
			C144.1,237.8,140.8,234.5,137.4,231.1z M231.5,137.2c3.4,3.4,6.7,6.7,10.1,10.1c0.2,0.2,0.3,0.4,0.3,0.7c0,1.8,0,3.7,0,5.5
			c0,0.3,0,0.5-0.3,0.7c-3.4,3.4-6.8,6.8-10.2,10.2c-4.4-4.4-8.8-8.8-13.2-13.2c-0.2-0.2-0.3-0.3-0.1-0.6
			C222.6,146.1,227,141.6,231.5,137.2z M175.1,241.4c-4,0-7.8,0-11.7,0c0-0.2,0.1-0.3,0.2-0.4c1.7-1.7,3.4-3.4,5.1-5.2
			c0.3-0.3,0.5-0.3,0.8,0C171.4,237.7,173.2,239.5,175.1,241.4z M241.8,174.8c-1.9-1.9-3.8-3.8-5.6-5.6c-0.2-0.2-0.2-0.4,0-0.6
			c1.8-1.8,3.7-3.7,5.6-5.6C241.8,167,241.8,170.8,241.8,174.8z M138.6,241.4c-3.9,0-7.7,0-11.6,0c0.8-0.8,1.5-1.5,2.2-2.2
			c1.1-1.1,2.2-2.1,3.2-3.2c0.2-0.2,0.3-0.4,0.6-0.1C134.9,237.7,136.7,239.5,138.6,241.4z M241.8,138.4c-1.9-1.9-3.6-3.7-5.4-5.4
			c-0.2-0.2-0.2-0.4,0-0.6c1.8-1.8,3.6-3.6,5.4-5.4C241.8,130.7,241.8,134.5,241.8,138.4z M137.6,255c2.2-2.2,4.5-4.5,6.8-6.8
			c1-1,2-2,3-3c0.2-0.2,0.5-0.3,0.8-0.3c1.8,0,3.6,0,5.5,0c0.2,0,0.5,0.1,0.6,0.2c3.4,3.4,6.8,6.8,10.2,10.2
			c-4.5,4.5-9,8.9-13.4,13.4C146.7,264.1,142.1,259.6,137.6,255z M137.5,489.3c4.5-4.5,9.1-9,13.5-13.5c4.5,4.5,9,8.9,13.5,13.4
			c-3.3,3.3-6.7,6.7-10.2,10.1c-0.1,0.1-0.4,0.2-0.6,0.2c-1.8,0-3.7,0-5.5,0c-0.2,0-0.5-0.1-0.6-0.2
			C144.2,496,140.8,492.7,137.5,489.3z M174.8,244.9c-1.9,1.9-3.8,3.8-5.6,5.6c-1.8-1.8-3.7-3.7-5.6-5.6
			C167.3,244.9,171.1,244.9,174.8,244.9z M174.8,499.6c-3.8,0-7.5,0-11.2,0c1.8-1.8,3.7-3.7,5.6-5.6
			C171,495.8,172.9,497.6,174.8,499.6z M132.8,250.4c-1.8-1.8-3.6-3.6-5.5-5.5c3.7,0,7.4,0,11,0
			C136.5,246.7,134.6,248.5,132.8,250.4z M138.3,499.6c-3.6,0-7.3,0-11,0c1.8-1.8,3.7-3.7,5.5-5.5
			C134.6,495.9,136.5,497.7,138.3,499.6z M489.8,137.3c2.2,2.2,4.5,4.5,6.8,6.8c1,1,2,2,3,3c0.2,0.2,0.3,0.5,0.3,0.8
			c0,1.8,0,3.6,0,5.5c0,0.2-0.1,0.5-0.2,0.6c-3.4,3.4-6.8,6.8-10.2,10.2c-4.5-4.5-9-9-13.4-13.4
			C480.7,146.4,485.2,141.9,489.8,137.3z M255.1,137.3c4.5,4.5,9.1,9,13.5,13.5c-4.5,4.5-9,8.9-13.5,13.4
			c-3.3-3.3-6.7-6.7-10.1-10.1c-0.1-0.1-0.2-0.4-0.2-0.6c0-1.8,0-3.7,0-5.5c0-0.2,0.1-0.5,0.2-0.6
			C248.4,144,251.8,140.6,255.1,137.3z M500,174.5c-1.9-1.9-3.8-3.8-5.6-5.6c1.8-1.8,3.8-3.7,5.6-5.6C500,167,500,170.8,500,174.5z
			 M244.8,174.6c0-3.8,0-7.5,0-11.2c1.8,1.8,3.7,3.7,5.6,5.6C248.7,170.7,246.8,172.6,244.8,174.6z M494.5,132.6
			c1.8-1.8,3.7-3.6,5.5-5.5c0,3.6,0,7.3,0,11C498.1,136.3,496.3,134.4,494.5,132.6z M244.8,138.1c0-3.6,0-7.3,0-11
			c1.9,1.8,3.7,3.7,5.5,5.5C248.5,134.4,246.7,136.3,244.8,138.1z"/>
	</g>
</g>
</svg>
