<svg version="1.1" xmlns:x="&amp;ns_extend;" xmlns:i="&amp;ns_ai;" xmlns:graph="&amp;ns_graphs;" xmlns="http://www.w3.org/2000/svg" xmlns:xlink="http://www.w3.org/1999/xlink" x="0px" y="0px" viewBox="-1291 1292.1 252.6 252.6" style="enable-background:new -1291 1292.1 252.6 252.6;" xml:space="preserve">
<style type="text/css">
	.ladsvg-4265-st0{fill:#F5F4F4;}
	.ladsvg-4265-st1{fill:#412B25;}
	.ladsvg-4265-st2{fill:#AECBE1;}
</style>
<metadata>
	<sfw xmlns="&amp;ns_sfw;">
		<slices></slices>
		<slicesourcebounds width="252.8" height="252.9" bottomleftorigin="true" x="0" y="-0.3"></slicesourcebounds>
	</sfw>
</metadata>
<g id="Layer_1">
	<rect x="-1291" y="1292.1" class="ladsvg-4265-st0" width="252.7" height="252.7"></rect>
	<path class="ladsvg-4265-st1" d="M-1045,1505.8c2.6-6.1,3.9-12.7,3.9-19.3c0-8.7-2.2-17.2-6.5-24.7l0,0c-0.4-1.1-0.6-2.2-0.6-3.3
		c0-4.9,4-8.9,8.9-8.9c0.3,0,0.7,0,1,0.1l0,0v-17.9c-6.8,2.2-12.1,7.7-14,14.6l0,0c-0.5,1.4-1.9,2.4-3.4,2.4l0,0h-0.1
		c-1.4,0-2.7-0.6-3.7-1.7l0,0c-0.3-0.3-0.6-0.4-1-0.4c-0.7,0-1.3,0.6-1.3,1.3c0,0.2,0.1,0.5,0.2,0.7l0,0c-0.5,2.4-0.8,4.8-0.8,7.3
		c0,8.4,3.3,16.5,9.1,22.5l0,0c2.3,2.1,3.6,5,3.6,8.1c0,4.4-2.6,8.3-6.6,10l0,0c-1.1,0.4-2.2,0.5-3.4,0.5c-6,0-10.9-4.9-10.9-10.9
		c0-0.4,0-0.9,0.1-1.3l0,0c0-0.6,0-1.1,0-1.7c0-10.4-5-20.1-13.4-26.2l0,0c-0.1-0.6-0.7-1.1-1.3-1.1c-0.7,0-1.3,0.6-1.3,1.3l0,0
		c0,1.4-0.6,2.8-1.7,3.7l0,0c-0.7,0.6-1.5,0.9-2.4,0.9c-0.6,0-1.2-0.1-1.7-0.4l0,0c-3.5-2.3-7.6-3.6-11.8-3.6c-5.6,0-11,2.2-15,6.2
		l0,0c-4,4-6.2,9.4-6.2,15c0,4.2,1.2,8.3,3.6,11.8l0,0c0.3,0.5,0.4,1.1,0.4,1.7c0,0.9-0.3,1.7-0.9,2.4l0,0c-0.9,1.1-2.3,1.7-3.7,1.7
		l0,0c-0.7,0-1.3,0.6-1.3,1.3c0,0.6,0.5,1.2,1.1,1.3l0,0c6.1,8.4,15.9,13.4,26.2,13.4c0.6,0,1.1,0,1.7,0l0,0
		c0.4-0.1,0.9-0.1,1.3-0.1c6,0,10.9,4.9,10.9,10.9c0,1.1-0.2,2.3-0.5,3.4l0,0c-1.7,4-5.7,6.6-10,6.6c-3.1,0-6-1.3-8.1-3.6l0,0
		c-6-5.8-14.1-9.1-22.5-9.1c-2.4,0-4.9,0.3-7.3,0.8l0,0c-0.2-0.1-0.4-0.2-0.7-0.2c-0.7,0-1.3,0.6-1.3,1.3c0,0.4,0.2,0.7,0.4,1l0,0
		c1.1,0.9,1.7,2.3,1.7,3.7v0.1l0,0c0,1.5-1,2.9-2.4,3.4l0,0c-6.9,1.9-12.4,7.2-14.6,14l0,0h17.9c0-0.3-0.1-0.7-0.1-1
		c0-4.9,4-8.9,8.9-8.9c1.1,0,2.3,0.2,3.3,0.6l0,0c7.5,4.2,16.1,6.5,24.7,6.5c6.6,0,13.2-1.3,19.3-3.9l0,0
		c6.3-3.8,10.1-10.5,10.1-17.9c0-1.7-0.2-3.3-0.6-4.9l0,0c1.6,0.4,3.3,0.6,4.9,0.6C-1055.5,1515.9-1048.8,1512-1045,1505.8
		L-1045,1505.8z"></path>
	<path class="ladsvg-4265-st2" d="M-1129,1385.6c-1.3,0.4-2.7,0.6-4,0.6c-7.4,0-13.4-6-13.4-13.4c0-3.8,1.6-7.4,4.5-10l0,0
		c9-8,20.6-12.5,32.7-12.5c6.5,0,12.9,1.3,18.9,3.8l0,0c4.3,2.1,7.1,6.5,7.1,11.3c0,6.4-4.9,11.8-11.3,12.5l0,0
		c9,9.9,21.8,15.5,35.2,15.5c5.7,0,11.3-1,16.6-3l0,0h4.5v-15.8h-3.9c-4.7,4.3-10.8,6.8-17.2,6.8c-6.4,0-12.5-2.4-17.2-6.8l0,0
		c3.7-3,5.8-7.5,5.8-12.2c0-3.8-1.4-7.4-3.8-10.3l0,0c-10.1-8.1-22.8-12.6-35.8-12.6c-3.1,0-6.1,0.2-9.1,0.7l0,0
		c-13.9,2.7-26.4,10.4-35.2,21.6l0,0c-3.2,3.1-5,7.3-5,11.8c0,8,5.7,14.8,13.6,16.2l0,0c-6.8,9.5-16.6,16.3-27.8,19.5l0,0
		c-3.2,11.2-10.1,21-19.5,27.8l0,0c-1.4-7.9-8.2-13.6-16.2-13.6c-4.4,0-8.7,1.8-11.8,5l0,0c-11.2,8.7-18.9,21.2-21.6,35.2l0,0
		c-0.5,3-0.7,6.1-0.7,9.1c0,13,4.4,25.6,12.6,35.8l0,0c2.9,2.5,6.5,3.8,10.3,3.8c4.7,0,9.2-2.1,12.2-5.8l0,0
		c4.3,4.7,6.8,10.8,6.8,17.2c0,6.4-2.4,12.5-6.8,17.2l0,0v3.9h15.9v-4.5c2-5.3,3-10.9,3-16.6c0-13.4-5.6-26.2-15.5-35.2l0,0
		c-0.7,6.4-6.1,11.3-12.5,11.3c-4.8,0-9.2-2.7-11.3-7.1l0,0c-2.5-6-3.8-12.4-3.8-18.9c0-12.1,4.4-23.7,12.5-32.7l0,0
		c2.5-2.8,6.2-4.5,10-4.5c7.4,0,13.4,6,13.4,13.4c0,1.4-0.2,2.7-0.6,4l0,0c15.5-6.6,27.6-19.3,33.3-35.2l0,0
		C-1148.3,1413.2-1135.6,1401.1-1129,1385.6L-1129,1385.6z"></path>
	<path class="ladsvg-4265-st1" d="M-1164.2,1389.1c-5.6-3.7-8.9-9.9-8.9-16.6c0-3.4,0.9-6.8,2.6-9.8l0,0c10.8-19.1,30.1-31.8,52-34.1l0,0
		c2.1-0.2,4.2-0.2,6.3-0.2c15.9,0,31.5,4.5,45,12.9l0,0c6.2,2.1,10.3,7.9,10.3,14.3c0,2.2-0.5,4.5-1.5,6.5l0,0
		c-1.9,2.1-3.3,4.7-4,7.5l0,0c8.2-4.2,14.1-11.7,16.3-20.6l0,0c0.1-0.8,0.1-1.5,0.1-2.3c0-12.1-7.8-22.9-19.3-26.7l0,0
		c-17.5-7.8-36.5-11.8-55.7-11.8c-6,0-12,0.4-18,1.2l0,0c-20.7,1.9-39.6,12.2-52.4,28.5l0,0c1.8,4.8,2.8,9.8,2.8,14.9
		c0,11-4.4,21.6-12.1,29.3l0,0c-7.8,7.8-18.3,12.1-29.3,12.1c-5.1,0-10.2-0.9-14.9-2.8l0,0c-16.3,12.8-26.7,31.7-28.5,52.4l0,0
		c-0.8,6-1.2,12-1.2,18c0,19.2,4,38.2,11.8,55.7l0,0c3.8,11.5,14.6,19.3,26.7,19.3c0.8,0,1.5,0,2.3-0.1l0,0
		c8.9-2.2,16.4-8.1,20.6-16.3l0,0c-2.8,0.7-5.4,2.1-7.5,4l0,0c-2,1-4.3,1.5-6.5,1.5c-6.5,0-12.3-4.1-14.3-10.3l0,0
		c-8.4-13.5-12.9-29.1-12.9-45c0-2.1,0.1-4.2,0.2-6.3l0,0c2.2-21.8,14.9-41.2,34.1-52l0,0c3-1.7,6.3-2.6,9.8-2.6
		c6.7,0,12.9,3.4,16.6,8.9l0,0c4.4-4.6,6.9-10.7,6.9-17c0-2.3-0.3-4.6-1-6.8l0,0c2.2,0.6,4.5,1,6.8,1
		C-1174.9,1396-1168.8,1393.5-1164.2,1389.1L-1164.2,1389.1z"></path>
	<path class="ladsvg-4265-st1" d="M-1259,1292.1h-11.2c0,11.5-9.3,20.8-20.8,20.8v11.2C-1273.3,1324.1-1259,1309.8-1259,1292.1L-1259,1292.1z"></path>
	<path class="ladsvg-4265-st1" d="M-1240.6,1342.5c-1-0.8-1.9-1.7-2.7-2.7l0,0c-6.5-5.2-14.3-8.4-22.6-9.3l0,0c-12.7,1.3-22.4,12-22.4,24.8
		c0,1.3,0.1,2.7,0.3,4l0,0c0,0.1,0,0.2,0,0.3c0,10.9,5.3,21,14.1,27.3l0,0c-3.9,5.7-10.2,9.2-17.1,9.4l0,0v14.4
		c15.2,0,28.4-10.5,31.9-25.3l0,0c-11.5-6-18.8-17.9-18.8-30.9c0-1.8,0.1-3.5,0.4-5.3l0,0c1.8-6,7.3-10.2,13.6-10.2
		c3.9,0,7.7,1.6,10.4,4.5l0,0c2.1,2.1,3.4,4.9,3.4,7.9c0,2.5-0.9,5-2.5,6.9l0,0c-1.3,1-2.9,1.6-4.6,1.6c-2,0-3.9-0.8-5.3-2.2l0,0
		c-0.1,0.5-0.1,1-0.1,1.5c0,6.3,5.1,11.5,11.5,11.5c2.2,0,4.3-0.6,6.1-1.8l0,0c5.2-3.3,8.4-9,8.4-15.2
		C-1236.6,1349.7-1238,1345.7-1240.6,1342.5L-1240.6,1342.5z"></path>
	<path class="ladsvg-4265-st1" d="M-1225.4,1320.6c1.4,1.4,2.2,3.3,2.2,5.3c0,1.7-0.6,3.3-1.6,4.6l0,0c-2,1.6-4.4,2.5-6.9,2.5
		c-3,0-5.8-1.2-7.9-3.4l0,0c-2.9-2.7-4.5-6.5-4.5-10.4c0-6.3,4.1-11.8,10.2-13.6l0,0c1.7-0.3,3.5-0.4,5.3-0.4
		c13,0,24.9,7.2,30.9,18.8l0,0c14.8-3.5,25.3-16.7,25.3-31.9l0,0h-14.4c-0.3,6.9-3.8,13.2-9.4,17.1l0,0
		c-6.3-8.9-16.5-14.1-27.3-14.1c-0.1,0-0.2,0-0.3,0l0,0c-1.3-0.2-2.7-0.3-4-0.3c-12.8,0-23.5,9.8-24.7,22.5l0,0
		c0.8,8.3,4,16.1,9.3,22.6l0,0c1,0.8,1.9,1.7,2.7,2.7l0,0c3.2,2.6,7.2,4,11.3,4c6.2,0,11.9-3.2,15.2-8.4l0,0
		c1.2-1.8,1.8-3.9,1.8-6.1c0-6.3-5.1-11.5-11.5-11.5C-1224.4,1320.5-1224.9,1320.6-1225.4,1320.6L-1225.4,1320.6z"></path>
	<path class="ladsvg-4265-st2" d="M-1208.8,1357.2c-1.5-2.1-2.4-4.4-2.7-6.9l0,0c-5.1,2.9-10.9,4.5-16.8,4.6l0,0c-0.2,5.9-1.8,11.6-4.6,16.8l0,0
		c2.5,0.3,4.9,1.2,6.9,2.7l0,0c1.9,0.6,3.9,1,5.9,1c3.4,0,6.7-0.9,9.6-2.6l0,0c1.7-2.9,2.6-6.2,2.6-9.6
		C-1207.8,1361.1-1208.1,1359.1-1208.8,1357.2L-1208.8,1357.2z"></path>
	<path class="ladsvg-4265-st2" d="M-1038.3,1522.6c-12.3,0-22.2,10-22.2,22.2h22.2V1522.6z"></path>
	<path class="ladsvg-4265-st0" d="M-1038.3,1449.5c-0.3,0-0.7-0.1-1-0.1c-4.9,0-8.9,4-8.9,8.9c0,1.1,0.2,2.3,0.6,3.3l0,0
		c4.2,7.5,6.5,16.1,6.5,24.7c0,6.6-1.3,13.2-3.9,19.3l0,0c-3.8,6.3-10.5,10.1-17.9,10.1c-1.7,0-3.3-0.2-4.9-0.6l0,0
		c0.4,1.6,0.6,3.3,0.6,4.9c0,7.3-3.9,14.1-10.1,17.9l0,0c-6.1,2.6-12.7,3.9-19.3,3.9c-8.7,0-17.2-2.2-24.7-6.5l0,0
		c-1.1-0.4-2.2-0.6-3.3-0.6c-4.9,0-8.9,4-8.9,8.9c0,0.3,0,0.7,0.1,1l0,0h73c0-12.3,10-22.2,22.2-22.2v-72.9H-1038.3z"></path>
	<path class="ladsvg-4265-st0" d="M-1080.9,1502.2c-9-2.5-17.4-6.5-25-11.8l0,0c-1.7-1.7-2.7-4-2.7-6.4c0-2.5,1.1-4.9,2.9-6.6l0,0
		c1.7-1.9,4.1-2.9,6.6-2.9c2.4,0,4.7,1,6.4,2.7l0,0C-1087.4,1484.8-1083.4,1493.2-1080.9,1502.2L-1080.9,1502.2z"></path>
	<path class="ladsvg-4265-st2" d="M-1270.2,1292.1h-20.8v20.8C-1279.5,1312.9-1270.2,1303.6-1270.2,1292.1L-1270.2,1292.1z"></path>
	<path class="ladsvg-4265-st0" d="M-1059.5,1447c0.9,1.1,2.3,1.7,3.7,1.7h0.1l0,0c1.5,0,2.9-1,3.4-2.4l0,0c1.9-6.9,7.2-12.4,14-14.6l0,0v-41.2
		h-4.5c-5.3,2-10.9,3-16.6,3c-13.4,0-26.2-5.6-35.2-15.5l0,0c6.4-0.7,11.3-6.1,11.3-12.5c0-4.8-2.7-9.2-7.1-11.3l0,0
		c-6-2.5-12.4-3.8-18.9-3.8c-12.1,0-23.7,4.4-32.7,12.5l0,0c-2.8,2.5-4.5,6.2-4.5,10c0,7.4,6,13.4,13.4,13.4c1.4,0,2.7-0.2,4-0.6
		l0,0c-6.6,15.5-19.3,27.6-35.2,33.3l0,0c-5.8,15.8-17.8,28.6-33.3,35.2l0,0c0.4-1.3,0.6-2.7,0.6-4c0-7.4-6-13.4-13.4-13.4
		c-3.8,0-7.4,1.6-10,4.5l0,0c-8,9-12.5,20.6-12.5,32.7c0,6.5,1.3,12.9,3.8,18.9l0,0c2.1,4.3,6.5,7.1,11.3,7.1
		c6.4,0,11.8-4.9,12.5-11.3l0,0c9.9,9,15.5,21.8,15.5,35.2c0,5.7-1,11.3-3,16.6l0,0v4.5h41.2c2.2-6.8,7.7-12.1,14.6-14l0,0
		c1.4-0.5,2.4-1.9,2.4-3.4l0,0v-0.1c0-1.4-0.6-2.7-1.7-3.7l0,0c-0.3-0.3-0.4-0.6-0.4-1c0-0.7,0.6-1.3,1.3-1.3c0.2,0,0.5,0.1,0.7,0.2
		l0,0c2.4-0.5,4.8-0.8,7.3-0.8c8.4,0,16.5,3.3,22.5,9.1l0,0c2.1,2.3,5,3.6,8.1,3.6c4.4,0,8.3-2.6,10-6.6l0,0
		c0.4-1.1,0.5-2.2,0.5-3.4c0-6-4.9-10.9-10.9-10.9c-0.4,0-0.9,0-1.3,0.1l0,0c-0.6,0-1.1,0-1.7,0c-10.4,0-20.1-5-26.2-13.4l0,0
		c-0.6-0.1-1.1-0.7-1.1-1.3c0-0.7,0.6-1.3,1.3-1.3l0,0c1.4,0,2.8-0.6,3.7-1.7l0,0c0.6-0.7,0.9-1.5,0.9-2.4c0-0.6-0.1-1.2-0.4-1.7
		l0,0c-2.3-3.5-3.6-7.6-3.6-11.8c0-5.6,2.2-11,6.2-15l0,0c4-4,9.4-6.2,15-6.2c4.2,0,8.3,1.2,11.8,3.6l0,0c0.5,0.3,1.1,0.4,1.7,0.4
		c0.9,0,1.7-0.3,2.4-0.9l0,0c1.1-0.9,1.7-2.3,1.7-3.7l0,0c0-0.7,0.6-1.3,1.3-1.3c0.6,0,1.2,0.5,1.3,1.1l0,0
		c8.4,6.1,13.4,15.9,13.4,26.2c0,0.6,0,1.1,0,1.7l0,0c-0.1,0.4-0.1,0.9-0.1,1.3c0,6,4.9,10.9,10.9,10.9c1.1,0,2.3-0.2,3.4-0.5l0,0
		c4-1.7,6.6-5.7,6.6-10c0-3.1-1.3-6-3.6-8.1l0,0c-5.8-6-9.1-14.1-9.1-22.5c0-2.4,0.3-4.9,0.8-7.3l0,0c-0.1-0.2-0.2-0.4-0.2-0.7
		c0-0.7,0.6-1.3,1.3-1.3C-1060.1,1446.6-1059.7,1446.7-1059.5,1447L-1059.5,1447z"></path>
	<path class="ladsvg-4265-st0" d="M-1252.5,1317.3c1.2-12.8,11.9-22.5,24.7-22.5c1.3,0,2.7,0.1,4,0.3l0,0c0.1,0,0.2,0,0.3,0
		c10.9,0,21,5.3,27.3,14.1l0,0c5.7-3.9,9.2-10.2,9.4-17.1l0,0h-72.2c0,17.7-14.3,32-32,32v72.2c6.9-0.3,13.2-3.8,17.1-9.4l0,0
		c-8.9-6.3-14.1-16.5-14.1-27.3c0-0.1,0-0.2,0-0.3l0,0c-0.2-1.3-0.3-2.7-0.3-4c0-12.8,9.8-23.5,22.5-24.7l0,0
		c8.3,0.8,16.1,4,22.6,9.3l0,0C-1248.5,1333.4-1251.7,1325.5-1252.5,1317.3L-1252.5,1317.3z"></path>
</g>
<g id="Camada_1">
</g>
</svg>