<svg version="1.1" xmlns:x="&amp;ns_extend;" xmlns:i="&amp;ns_ai;" xmlns:graph="&amp;ns_graphs;" xmlns="http://www.w3.org/2000/svg" xmlns:xlink="http://www.w3.org/1999/xlink" x="0px" y="0px" viewBox="-1291 1292.1 252.6 252.6" style="enable-background:new -1291 1292.1 252.6 252.6;" xml:space="preserve">
<style type="text/css">
	.ladsvg-5488-st0{fill:#FFFFFF;}
	.ladsvg-5488-st1{fill:#F5F4F4;}
	.ladsvg-5488-st2{fill:#DEB569;}
	.ladsvg-5488-st3{fill:#155D64;}
	.ladsvg-5488-st4{fill:#AECBE1;}
	.ladsvg-5488-st5{fill:#005177;}
</style>
<metadata>
	<sfw xmlns="&amp;ns_sfw;">
		<slices></slices>
		<slicesourcebounds width="252.6" height="252.4" bottomleftorigin="true" x="0" y="0.2"></slicesourcebounds>
	</sfw>
</metadata>
<g id="Layer_1">
	<rect x="-1291" y="1292.1" class="ladsvg-5488-st0" width="252" height="252.4"></rect>
	<rect x="-1291" y="1292.1" class="ladsvg-5488-st1" width="252" height="252.4"></rect>
	<path class="ladsvg-5488-st2" d="M-1068.7,1544.5h29.7v-29.7C-1055.4,1514.8-1068.7,1528.1-1068.7,1544.5L-1068.7,1544.5z"></path>
	<path class="ladsvg-5488-st3" d="M-1110.2,1448.7c9,9.2,15.5,20.7,19,33.3l0,0c2.9-4.7,4.5-10.2,4.5-16c0-5.9-1.8-11.9-5.1-16.8l0,0
		c3.3-2.7,5.1-6.7,5.1-11c0-0.4,0-1,0-1.4l0,0c-0.2-1.6-1.4-2.7-2.9-2.9l0,0c-4.1-0.4-7.4-3.9-7.4-8.2c0-4.5,3.7-8.2,8.2-8.2
		c0.2,0,0.2,0,0.4,0l0,0c12.7,0.6,22.7,11.2,22.7,23.9c0,6.3-2.7,12.5-7.2,17l0,0c7,6.7,15.5,11.9,24.7,14.5l0,0v32.9
		c-4.3,3.1-9.4,4.9-14.7,4.9c-4.5,0-8.8-1.2-12.7-3.5l0,0c2.2,3.9,3.5,8.2,3.5,12.7c0,5.3-1.6,10.4-4.9,14.7l0,0h-32.9
		c-2.7-9.4-7.6-17.8-14.5-24.7l0,0c-4.5,4.5-10.6,7.2-17,7.2c-12.7,0-23.3-10-23.9-22.7l0,0c0-0.2,0-0.2,0-0.4
		c0-4.5,3.7-8.2,8.2-8.2c4.3,0,7.8,3.3,8,7.4l0,0c0.2,1.6,1.4,2.7,2.9,2.9l0,0c0.4,0,1,0,1.4,0c4.3,0,8.2-1.8,11-5.1l0,0
		c4.9,3.3,10.8,5.1,16.8,5.1c5.5,0,11-1.6,16-4.5l0,0c-12.5-3.5-23.9-10-33.1-19l0,0c-3.3-3.3-7.8-5.1-12.3-5.1
		c-0.8,0-1.8,0-2.7,0.2l0,0c-16.6,2.7-28.8,17-28.8,33.7v0.2l0,0c0.2,15.5,12.7,28,28.2,28c0.8,0,1.6,0,2.7-0.2l0,0
		c5.1-0.4,10.2-1,15.3-1.4l0,0c4.1,4.3,6.7,9.8,7.8,15.7l0,0h55.8c0-16.4,13.3-29.7,29.7-29.7l0,0V1459c-5.9-0.8-11.5-3.7-15.5-7.8
		l0,0c0.4-5.1,1-10.2,1.4-15.3l0,0c0-0.8,0.2-1.6,0.2-2.7c0-15.5-12.5-28.2-28-28.2l0,0h-0.2c-16.8,0-31.1,12.3-33.7,28.8l0,0
		c-0.2,0.8-0.2,1.8-0.2,2.7C-1115.3,1441.2-1113.5,1445.5-1110.2,1448.7L-1110.2,1448.7z"></path>
	<path class="ladsvg-5488-st2" d="M-1291,1321.7c16.4,0,29.7-13.3,29.7-29.7h-29.7V1321.7z"></path>
	<path class="ladsvg-5488-st4" d="M-1291,1377.5c5.9,0.8,11.5,3.7,15.5,7.8l0,0c-0.4,5.1-1,10.2-1.4,15.3l0,0c0,0.8-0.2,1.6-0.2,2.7
		c0,15.5,12.5,28.2,28,28.2l0,0h0.2c16.8,0,31.1-12.3,33.7-28.8l0,0c0.2-0.8,0.2-1.8,0.2-2.7c0-4.7-1.8-9-5.1-12.5l0,0
		c-9-9.2-15.5-20.7-19-33.3l0,0c-2.9,4.7-4.5,10.2-4.5,16c0,5.9,1.8,11.9,5.1,16.8l0,0c-3.3,2.7-5.1,6.7-5.1,11c0,0.4,0,1,0,1.4l0,0
		c0.2,1.6,1.4,2.7,2.9,2.9l0,0c4.1,0.4,7.4,3.9,7.4,8.2c0,4.5-3.7,8.2-8.2,8.2c-0.2,0-0.2,0-0.4,0l0,0
		c-12.7-0.6-22.7-11.2-22.7-23.9c0-6.3,2.7-12.5,7.2-17l0,0c-6.5-7.2-15.1-12.1-24.3-14.7l0,0v-32.9c4.3-3.1,9.4-4.9,14.7-4.9
		c4.5,0,8.8,1.2,12.7,3.5l0,0c-2.2-3.9-3.5-8.2-3.5-12.7c0-5.3,1.6-10.4,4.9-14.7l0,0h32.9c2.7,9.4,7.6,17.8,14.5,24.7l0,0
		c4.5-4.5,10.6-7.2,17-7.2c12.7,0,23.3,10,23.9,22.7l0,0c0,0.2,0,0.2,0,0.4c0,4.5-3.7,8.2-8.2,8.2c-4.3,0-7.8-3.3-8-7.4l0,0
		c-0.2-1.6-1.4-2.7-2.9-2.9l0,0c-0.4,0-1,0-1.4,0c-4.3,0-8.2,1.8-11,5.1l0,0c-4.9-3.3-10.8-5.1-16.8-5.1c-5.5,0-11,1.6-16,4.5l0,0
		c12.5,3.5,23.9,10,33.1,19l0,0c3.3,3.3,7.8,5.1,12.3,5.1c0.8,0,1.8,0,2.7-0.2l0,0c17-2.7,29-17,29-34v-0.2l0,0
		c0-15.5-12.7-28-28.2-28c-0.8,0-1.6,0-2.7,0.2l0,0c-5.1,0.4-10.2,1-15.3,1.4l0,0c-4.1-4.3-6.7-9.8-7.8-15.7l0,0h-55.6
		c0,16.4-13.3,29.7-29.7,29.7V1377.5z"></path>
	<path class="ladsvg-5488-st1" d="M-1281.8,1363c9.4,2.7,17.8,7.6,24.7,14.5l0,0c-4.5,4.5-7.2,10.6-7.2,17c0,12.7,10,23.3,22.7,23.9l0,0
		c0.2,0,0.2,0,0.4,0c4.5,0,8.2-3.7,8.2-8.2c0-4.3-3.3-7.8-7.4-8.2l0,0c-1.6-0.2-2.7-1.4-2.9-2.9l0,0c0-0.4,0-1,0-1.4
		c0-4.3,1.8-8.2,5.1-11l0,0c-3.3-4.9-5.1-10.8-5.1-16.8c0-5.5,1.6-11,4.5-16l0,0c3.5,12.5,10,23.9,19,33.3l0,0
		c3.3,3.3,5.1,7.8,5.1,12.5c0,0.8,0,1.8-0.2,2.7l0,0c-2.7,16.6-17,28.8-33.7,28.8h-0.2l0,0c-15.7,0.2-28.2-12.5-28.2-28
		c0-0.8,0-1.6,0.2-2.7l0,0c0.4-5.1,1-10.2,1.4-15.3l0,0c-4.3-4.1-9.8-7-15.5-7.8l0,0V1507c6.7-43.4,44.2-75.5,88-75.5
		c2.7,0,5.3,0.2,8,0.4l0,0c-2.2-21.7-8.4-42.7-18.4-62.2l0,0c19.4,10,40.3,16.2,62,18.4l0,0c-0.2-2.7-0.4-5.3-0.4-8
		c0-44,31.9-81.4,75.3-88.2l0,0h-129.3c0.8,5.9,3.7,11.5,7.8,15.7l0,0c5.1-0.4,10.2-1,15.3-1.4l0,0c0.8,0,1.6-0.2,2.7-0.2
		c15.5,0,28.2,12.5,28.2,28l0,0v0.2c0,16.8-12.3,31.1-28.8,33.7l0,0c-0.8,0.2-1.8,0.2-2.7,0.2c-4.7,0-9-1.8-12.3-5.1l0,0
		c-9.2-9-20.7-15.5-33.1-19l0,0c4.7-3.1,10.2-4.5,16-4.5c5.9,0,11.9,1.8,16.8,5.1l0,0c2.7-3.3,6.7-5.1,11-5.1c0.4,0,1,0,1.4,0l0,0
		c1.4,0.2,2.7,1.4,2.9,2.9l0,0c0.4,4.1,3.9,7.4,8,7.4c4.5,0,8.2-3.7,8.2-8.2c0-0.2,0-0.2,0-0.4l0,0c-1-12.5-11.5-22.5-24.3-22.5
		c-6.3,0-12.5,2.7-17,7.2l0,0c-6.7-7-11.7-15.5-14.5-24.7l0,0h-32.7c-3.1,4.3-4.9,9.4-4.9,14.7c0,4.5,1.2,8.8,3.5,12.7l0,0
		c-3.9-2.2-8.2-3.5-12.7-3.5c-5.3,0-10.4,1.6-14.7,4.9l0,0V1363z"></path>
	<path class="ladsvg-5488-st1" d="M-1291,1544.5h37.4c0.6-1.2,1-2.9,1-4.3c0-1.2-0.2-2.5-0.8-3.7l0,0c-5.1-1.6-9.6-4.9-12.7-9.2l0,0
		c-1.2,1.6-3.1,2.7-4.9,2.7c-1.4,0-2.9-0.4-3.9-1.4l0,0c-0.8-1-1.4-2.5-1.4-3.9c0-2,1-3.9,2.7-4.9l0,0c-4.3-3.3-7.6-7.6-9.2-12.7
		l0,0c-1.2-0.6-2.5-0.8-3.7-0.8c-1.4,0-2.9,0.4-4.3,1l0,0v37.2H-1291z"></path>
	<path class="ladsvg-5488-st1" d="M-1064,1309.2c1.2-1.6,3.1-2.7,4.9-2.7c1.4,0,2.9,0.4,3.9,1.4l0,0c0.8,1,1.4,2.5,1.4,3.9c0,2-1,3.9-2.7,4.9
		l0,0c4.3,3.3,7.6,7.6,9.2,12.7l0,0c1.2,0.6,2.5,0.8,3.7,0.8c1.4,0,2.9-0.4,4.3-1l0,0v-37.2h-37.4c-0.6,1.2-1,2.9-1,4.3
		c0,1.2,0.2,2.5,0.8,3.7l0,0C-1071.5,1301.7-1067,1304.9-1064,1309.2L-1064,1309.2z"></path>
	<path class="ladsvg-5488-st2" d="M-1083.6,1336.6c-0.4-1.4-0.6-3.1-0.6-4.7c0-3.1,0.6-5.9,2-8.8l0,0c-2-2.2-3.3-5.1-3.3-8.4c0-1,0.2-2,0.4-3.1
		l0,0c0.6,0.6,1.2,0.8,2,0.8l0,0c3.9,0.4,7.8,0.6,11.7,1l0,0c0.2,0,0.4,0,0.8,0c2.9,0,5.5-1.8,6.5-4.7l0,0c1.2-1.6,3.1-2.7,4.9-2.7
		c1.4,0,2.9,0.4,3.9,1.4l0,0c0.8,1,1.4,2.5,1.4,3.9c0,2-1,3.9-2.7,4.9l0,0c-2.9,1-4.7,3.7-4.7,6.5c0,0.2,0,0.4,0,0.8l0,0
		c0.4,3.9,0.8,7.8,1,11.7l0,0c0,0.8,0.4,1.4,0.8,2l0,0c-1,0.2-2,0.4-3.1,0.4c-3.1,0-6.1-1.2-8.4-3.3l0,0c-2.7,1.4-5.7,2-8.8,2
		C-1080.5,1337-1082,1337-1083.6,1336.6L-1083.6,1336.6z"></path>
	<path class="ladsvg-5488-st1" d="M-1129.2,1345.4c4.5,3.3,8.4,7.4,11.2,11.9l0,0c-1.6-0.4-3.1-0.8-4.7-0.8c-0.2,0-0.6,0-0.8,0l0,0
		c-6.3,0.4-11.7,4.9-13.1,11.2l0,0c-1,5.3-1.6,10.6-1.6,16.2c0,2.5,0.2,4.9,0.4,7.2l0,0c2.5,0.2,4.9,0.4,7.2,0.4
		c5.3,0,10.8-0.6,16.2-1.6l0,0c6.3-1.2,10.8-6.7,11.2-13.1l0,0c0-0.2,0-0.6,0-0.8c0-1.6-0.2-3.3-0.8-4.7l0,0
		c4.7,2.9,8.8,6.7,11.9,11.2l0,0c16-5.7,29-17.8,36.2-33.3l0,0c1.2-2.7,1.8-5.5,1.8-8.6c0-5.7-2.5-11-6.5-14.9l0,0
		c0.4,3.5,0.6,7.2,1,10.6l0,0c0,0.8,0.4,1.4,0.8,2l0,0c-1,0.2-2,0.4-3.1,0.4c-3.1,0-6.1-1.2-8.4-3.3l0,0c-2.7,1.4-5.7,2-8.8,2
		c-1.6,0-3.1-0.2-4.7-0.6l0,0c-0.4-1.4-0.6-3.1-0.6-4.7c0-3.1,0.6-5.9,2-8.8l0,0c-2-2.2-3.3-5.3-3.3-8.4c0-1,0.2-2,0.4-3.1l0,0
		c0.6,0.6,1.2,0.8,2,0.8l0,0c3.5,0.2,7.2,0.6,10.6,1l0,0c-3.9-4.1-9.4-6.5-14.9-6.5c-2.9,0-5.9,0.6-8.6,1.8l0,0
		C-1111.4,1316.2-1123.3,1329.3-1129.2,1345.4L-1129.2,1345.4z"></path>
	<path class="ladsvg-5488-st1" d="M-1274,1487.4c-1.2,2.7-1.8,5.5-1.8,8.6c0,5.7,2.5,11,6.5,14.9l0,0c-0.4-3.5-0.6-7.2-1-10.6l0,0
		c0-0.8-0.4-1.4-0.8-2l0,0c1-0.2,2-0.4,3.1-0.4c3.1,0,6.1,1.2,8.4,3.3l0,0c2.7-1.4,5.7-2,8.8-2c1.6,0,3.1,0.2,4.7,0.6l0,0
		c0.4,1.4,0.6,3.1,0.6,4.7c0,3.1-0.6,5.9-2,8.8l0,0c2,2.2,3.3,5.1,3.3,8.4c0,1-0.2,2-0.4,3.1l0,0c-0.6-0.6-1.2-0.8-2-0.8l0,0
		c-3.5-0.2-7.2-0.6-10.6-1l0,0c3.9,4.1,9.4,6.5,14.9,6.5c2.9,0,5.9-0.6,8.6-1.8l0,0c15.5-7.2,27.4-20.2,33.3-36.2l0,0
		c-4.5-3.3-8.4-7.4-11.2-11.9l0,0c1.6,0.4,3.1,0.8,4.7,0.8c0.2,0,0.6,0,0.8,0l0,0c6.3-0.4,11.9-4.9,13.1-11.2l0,0
		c1-5.3,1.6-10.6,1.6-16.2c0-2.5-0.2-4.9-0.4-7.2l0,0c-2.5-0.2-4.9-0.4-7.2-0.4c-5.3,0-10.8,0.6-16.2,1.6l0,0
		c-6.3,1.2-10.8,6.7-11.2,13.1l0,0c0,0.2,0,0.6,0,0.8c0,1.6,0.2,3.3,0.8,4.7l0,0c-4.7-2.9-8.8-6.7-11.9-11.2l0,0
		C-1253.8,1460-1266.9,1471.8-1274,1487.4L-1274,1487.4z"></path>
	<path class="ladsvg-5488-st0" d="M-1179.7,1433c0-0.2,0-0.6,0-0.8c0-12.5-2.7-25-7.8-36.4l0,0c11.5,5.1,23.9,7.8,36.4,7.8c0.2,0,0.6,0,0.8,0
		l0,0c0,0.2,0,0.6,0,0.8c0,12.5,2.7,25,7.8,36.4l0,0c-11.5-5.1-23.9-7.8-36.4-7.8C-1179.3,1433-1179.5,1433-1179.7,1433
		L-1179.7,1433z"></path>
	<path class="ladsvg-5488-st5" d="M-1291,1507c1.2-0.6,2.9-1,4.3-1c1.2,0,2.5,0.2,3.7,0.8l0,0c1.6,5.1,4.9,9.6,9.2,12.7l0,0
		c2.9-1,4.7-3.7,4.7-6.5c0-0.2,0-0.4,0-0.8l0,0c0-0.4,0-0.8-0.2-1l0,0c-4.1-3.9-6.5-9.4-6.5-14.9c0-2.9,0.6-5.9,1.8-8.6l0,0
		c7.2-15.5,20.2-27.6,36.2-33.3l0,0c3.3,4.5,7.4,8.4,11.9,11.2l0,0c-0.4-1.6-0.8-3.1-0.8-4.7c0-0.2,0-0.6,0-0.8l0,0
		c0.4-6.3,4.9-11.9,11.2-13.1l0,0c5.3-1,10.6-1.6,16.2-1.6c2.5,0,4.9,0.2,7.2,0.4l0,0c0.2,2.5,0.4,4.9,0.4,7.2
		c0,5.3-0.6,10.8-1.6,16.2l0,0c-1.2,6.3-6.7,10.8-13.1,11.2l0,0c-0.2,0-0.6,0-0.8,0c-1.6,0-3.3-0.2-4.7-0.8l0,0
		c2.9,4.7,6.7,8.8,11.2,11.9l0,0c-5.7,16.2-17.8,29-33.3,36.2l0,0c-2.7,1.2-5.5,1.8-8.6,1.8c-5.7,0-11-2.5-14.9-6.5l0,0
		c-0.4,0-0.8,0-1-0.2l0,0c-0.2,0-0.4,0-0.8,0c-2.9,0-5.5,1.8-6.5,4.7l0,0c3.3,4.3,7.6,7.6,12.7,9.2l0,0c0.6,1.2,0.8,2.5,0.8,3.7
		c0,1.4-0.4,2.9-1,4.3l0,0c43.4-6.7,75.3-44.2,75.3-88.2c0-2.7-0.2-5.3-0.4-8l0,0c21.7,2.2,42.7,8.4,62,18.4l0,0
		c-10-19.4-16.2-40.5-18.4-62.2l0,0c2.7,0.2,5.3,0.4,8,0.4c44,0,81.2-32.1,88-75.5l0,0c-1.2,0.6-2.9,1-4.3,1c-1.2,0-2.5-0.2-3.7-0.8
		l0,0c-1.6-5.1-4.9-9.6-9.2-12.7l0,0c-2.9,1-4.7,3.7-4.7,6.5c0,0.2,0,0.4,0,0.8l0,0c0,0.4,0,0.8,0.2,1l0,0c4.1,3.9,6.5,9.4,6.5,14.9
		c0,2.9-0.6,5.9-1.8,8.6l0,0c-7.2,15.5-20.2,27.6-36.2,33.3l0,0c-3.3-4.5-7.4-8.4-11.9-11.2l0,0c0.4,1.6,0.8,3.3,0.8,4.7
		c0,0.2,0,0.6,0,0.8l0,0c-0.4,6.3-4.9,11.9-11.2,13.1l0,0c-5.3,1-10.6,1.6-16.2,1.6c-2.5,0-4.9-0.2-7.2-0.4l0,0
		c-0.2-2.5-0.4-4.9-0.4-7.2c0-5.3,0.6-10.8,1.6-16.2l0,0c1.2-6.3,6.7-10.8,13.1-11.2l0,0c0.2,0,0.6,0,0.8,0c1.6,0,3.3,0.2,4.7,0.8
		l0,0c-2.9-4.7-6.7-8.8-11.2-11.9l0,0c5.7-16.2,17.8-29,33.3-36.2l0,0c2.7-1.2,5.5-1.8,8.6-1.8c5.7,0,11,2.5,14.9,6.5l0,0
		c0.4,0,0.8,0,1,0.2l0,0c0.2,0,0.4,0,0.8,0c2.9,0,5.5-1.8,6.5-4.7l0,0c-3.3-4.3-7.6-7.6-12.7-9.2l0,0c-0.6-1.2-0.8-2.5-0.8-3.7
		c0-1.4,0.4-2.9,1-4.3l0,0c-43.2,6.7-75.1,44.2-75.1,88.2c0,2.7,0.2,5.3,0.4,8l0,0c-21.7-2.2-42.7-8.4-62-18.4l0,0
		c10,19.4,16.2,40.5,18.4,62.2l0,0c-2.7-0.2-5.3-0.4-8-0.4C-1246.8,1431.5-1284.3,1463.5-1291,1507L-1291,1507z"></path>
	<path class="ladsvg-5488-st1" d="M-1179.7,1433c0.2,0,0.6,0,0.8,0c12.5,0,25,2.7,36.4,7.8l0,0c-5.1-11.5-7.8-23.9-7.8-36.4c0-0.2,0-0.6,0-0.8
		l0,0c-0.2,0-0.6,0-0.8,0c-12.5,0-25-2.7-36.4-7.8l0,0c5.1,11.5,7.8,23.9,7.8,36.4C-1179.7,1432.4-1179.7,1432.8-1179.7,1433
		L-1179.7,1433z"></path>
	<path class="ladsvg-5488-st2" d="M-1246.2,1500.1c0.4,1.4,0.6,3.1,0.6,4.7c0,3.1-0.6,5.9-2,8.8l0,0c2,2.2,3.3,5.1,3.3,8.4c0,1-0.2,2-0.4,3.1
		l0,0c-0.6-0.6-1.2-0.8-2-0.8l0,0c-3.9-0.4-7.8-0.6-11.7-1l0,0c-0.2,0-0.4,0-0.8,0c-2.9,0-5.5,1.8-6.5,4.7l0,0
		c-1.2,1.6-3.1,2.7-4.9,2.7c-1.4,0-2.9-0.4-3.9-1.4l0,0c-0.8-1-1.4-2.5-1.4-3.9c0-2,1-3.9,2.7-4.9l0,0c2.9-1,4.7-3.7,4.7-6.5
		c0-0.2,0-0.4,0-0.8l0,0c-0.4-3.9-0.8-7.8-1-11.7l0,0c0-0.8-0.4-1.4-0.8-2l0,0c1-0.2,2-0.4,3.1-0.4c3.1,0,6.1,1.2,8.4,3.3l0,0
		c2.7-1.4,5.7-2,8.8-2C-1249.3,1499.5-1247.8,1499.7-1246.2,1500.1L-1246.2,1500.1z"></path>
</g>
<g id="Camada_1">
</g>
</svg>