<svg version="1.0" xmlns:x="&amp;ns_extend;" xmlns:i="&amp;ns_ai;" xmlns:graph="&amp;ns_graphs;" xmlns="http://www.w3.org/2000/svg" xmlns:xlink="http://www.w3.org/1999/xlink" x="0px" y="0px" viewBox="-1291 1292.1 252.6 252.6" style="enable-background:new -1291 1292.1 252.6 252.6;" xml:space="preserve">
<style type="text/css">
	.ladsvg-7211-st0{fill:#A2C0B0;}
	.ladsvg-7211-st1{fill:#AECBE1;}
	.ladsvg-7211-st2{fill:#F0BDA0;}
	.ladsvg-7211-st3{fill:#F5F4F4;}
</style>
<metadata>
	<sfw xmlns="&amp;ns_sfw;">
		<slices></slices>
		<slicesourcebounds width="252.3" height="253.5" y="-0.3" x="-0.4" bottomleftorigin="true"></slicesourcebounds>
	</sfw>
</metadata>
<g id="Camada_1">
</g>
<g id="Layer_1">
	<rect x="-1291.4" y="1291.4" class="ladsvg-7211-st0" width="252.3" height="253.5"></rect>
	<path class="ladsvg-7211-st1" d="M-1113,1492.2c-2.9,1.2-5.6,2.9-8,4.9v0c2.1,3.8,5.4,6.7,9.5,8.3v0c9.5,3.6,19.6,5.5,29.8,5.5
		c0.6,0,1.2,0,1.8,0v0c0,0,0.1,0,0.1,0c3.2,0,5.9,2.2,6.6,5.3l0,0c1.6-2,3.4-3.8,5.4-5.4h0c-3.1-0.7-5.3-3.5-5.3-6.7
		c0-0.1,0-0.1,0-0.1l0,0c0-0.6,0-1.2,0-1.8c0-10.2-1.9-20.4-5.5-29.9h0c-1.5-4-4.4-7.4-8.2-9.5h0c-2,2.4-3.6,5.1-4.8,8h0
		c-6.4-6.2-14.7-10.1-23.6-11l0,0c1,3.1,1.5,6.4,1.5,9.7c0,0.2,0,0.4,0,0.7l0,0c-0.2,0-0.4,0-0.7,0c-3.3,0-6.5-0.5-9.6-1.5l0,0
		C-1123,1477.4-1119.2,1485.7-1113,1492.2L-1113,1492.2z"></path>
	<path class="ladsvg-7211-st1" d="M-1257.7,1522.8c-9.2,3.5-18.4,7.1-27.6,10.7h0c0.8-10.1,4.7-19.7,10.9-27.6h0c3.6-4.9,9.1-8.1,15.2-8.8l0,0
		c7.6-2.2,13.7-7.8,16.6-15.2h0c2.9-9.4,9.9-16.9,19.1-20.2h0c-1.9-4.2-6-7-10.7-7c-1,0-1.9,0.1-2.9,0.4l0,0
		c-0.9-5.9-2.7-11.7-5.1-17.2v0c-2.1-0.4-4.1-0.6-6.2-0.6c-5,0-10,1.1-14.6,3.3h0c-0.1-5.2-4.4-9.4-9.5-9.4c-0.7,0-1.5,0.1-2.2,0.3
		l0,0c0.2,1.4,0.3,2.8,0.3,4.1c0,7-2.4,13.8-6.8,19.3l0,0c-5,6.3-7.8,14.1-7.8,22.2c0,4.6,0.9,9.2,2.7,13.5h0c1.8,1.9,2.8,4.4,2.8,7
		c0,0.7-0.1,1.4-0.2,2.2l0,0c-1.4,6.4-4,12.4-7.8,17.6l0,0v27.5h16c6.5-6.5,14.7-10.9,23.6-12.8l0,0c0.7-0.1,1.3-0.2,2-0.2
		c2.6,0,5.2,1,7.1,2.9l0,0c4.4,1.9,9.1,2.8,13.8,2.8c7.9,0,15.6-2.7,21.8-7.6l0,0c5.4-4.3,12.1-6.6,18.9-6.6c1.5,0,3,0.1,4.5,0.3v0
		c0.2-0.8,0.3-1.5,0.3-2.3c0-5.2-4.1-9.4-9.2-9.6h0c2.2-4.7,3.4-9.8,3.4-15c0-2-0.2-3.9-0.5-5.9l0,0c-5.4-2.5-11.1-4.3-17-5.3h0
		c0.3-1,0.4-2,0.4-3c0-4.6-2.7-8.8-6.8-10.7l0,0c-3.4,9.2-11,16.2-20.3,19l0,0c-7.4,2.8-13.1,8.9-15.4,16.5h0
		C-1249.5,1513.7-1252.7,1519.2-1257.7,1522.8L-1257.7,1522.8z"></path>
	<path class="ladsvg-7211-st2" d="M-1143.7,1323.6c-2.4,4.8-3.6,10-3.6,15.4c0,1.8,0.1,3.7,0.4,5.5v0c5.4,2.6,11.1,4.4,17,5.5h0
		c-0.3,1-0.4,2.1-0.4,3.2c0,4.5,2.6,8.7,6.7,10.6v0c3.5-9.1,11.1-16.1,20.5-18.8l0,0c7.4-2.7,13.2-8.8,15.5-16.3l0,0
		c0.8-6.1,4.1-11.6,9.1-15.1h0c8-6.1,17.6-9.7,27.7-10.4l0,0c-3.8,9.1-7.5,18.3-11.3,27.5l0,0c-3.7,4.9-9.2,8-15.3,8.6l0,0
		c-7.6,2.1-13.8,7.7-16.8,15.1h0c-3,9.3-10.1,16.8-19.4,20l0,0c1.8,4.3,6.1,7.1,10.7,7.1c0.9,0,1.9-0.1,2.8-0.3l0,0
		c0.9,5.9,2.5,11.7,4.9,17.2l0,0c2.2,0.4,4.4,0.6,6.6,0.6c4.9,0,9.8-1.1,14.2-3.1l0,0c0.1,5.2,4.3,9.5,9.5,9.5
		c0.7,0,1.4-0.1,2.1-0.2v0c-0.2-1.3-0.2-2.5-0.2-3.8c0-7.1,2.5-14.1,7-19.6l0,0c5.2-6.3,8-14.3,8-22.5c0-4.5-0.9-9-2.5-13.1l0,0
		c-1.7-1.9-2.7-4.4-2.7-7c0-0.8,0.1-1.5,0.3-2.3h0c2.1-9.1,6.8-17.5,13.7-23.8h0v-21.4h-21.2c-6.5,6.5-14.8,10.9-23.9,12.6v0
		c-0.6,0.1-1.3,0.2-1.9,0.2c-2.7,0-5.3-1.1-7.2-3v0c-4.5-2-9.3-3-14.2-3c-7.8,0-15.3,2.6-21.5,7.3l0,0c-5.4,4.1-11.9,6.4-18.7,6.4
		c-1.6,0-3.2-0.1-4.8-0.4l0,0c-0.2,0.8-0.3,1.6-0.3,2.4C-1152.8,1319.1-1148.8,1323.3-1143.7,1323.6L-1143.7,1323.6z"></path>
	<path class="ladsvg-7211-st1" d="M-1083.7,1544.9h17.9c0-14.8,11.9-26.8,26.7-26.8v-18C-1063.7,1500.1-1083.7,1520.2-1083.7,1544.9
		L-1083.7,1544.9z"></path>
	<path class="ladsvg-7211-st3" d="M-1065.8,1544.9h26.7v-26.8C-1053.9,1518.1-1065.8,1530.1-1065.8,1544.9L-1065.8,1544.9z"></path>
	<path class="ladsvg-7211-st3" d="M-1073.2,1516.1c-0.7-3.1-3.5-5.3-6.6-5.3c0,0-0.1,0-0.1,0h0c-0.6,0-1.2,0-1.8,0c-10.2,0-20.3-1.9-29.8-5.5v0
		c-4-1.5-7.4-4.5-9.5-8.3l0,0c2.4-2,5.1-3.6,8-4.9l0,0c-6.2-6.5-10-14.8-10.9-23.7h0c3.1,1,6.4,1.5,9.6,1.5c0.2,0,0.4,0,0.7,0l0,0
		c0-0.2,0-0.4,0-0.7c0-3.3-0.5-6.5-1.5-9.7h0c8.9,0.9,17.1,4.8,23.6,11v0c1.2-2.9,2.8-5.6,4.8-8l0,0c3.8,2.1,6.7,5.5,8.2,9.5h0
		c3.6,9.5,5.5,19.7,5.5,29.9c0,0.6,0,1.2,0,1.8l0,0c0,0,0,0.1,0,0.1c0,3.2,2.2,5.9,5.3,6.7l0,0c8-6.8,18.2-10.5,28.7-10.5l0,0
		c-38.3-45.9-88.2-80.6-144.5-100.5v0c19.7,56.6,54.3,106.7,100,145.2l0,0C-1083.7,1534.4-1080,1524.2-1073.2,1516.1L-1073.2,1516.1
		z"></path>
	<path class="ladsvg-7211-st3" d="M-1262.8,1440.6c4.6-2.2,9.5-3.3,14.6-3.3c2.1,0,4.2,0.2,6.2,0.6v0c2.4,5.5,4.2,11.2,5.1,17.2v0
		c0.9-0.2,1.9-0.4,2.9-0.4c4.6,0,8.8,2.7,10.7,7l0,0c-9.2,3.3-16.3,10.8-19.1,20.2l0,0c-2.9,7.4-9,13-16.6,15.2h0
		c-6.1,0.7-11.6,3.8-15.2,8.8h0c-6.3,7.9-10.1,17.5-10.9,27.6h0c9.2-3.6,18.4-7.1,27.6-10.7l0,0c5-3.6,8.2-9.1,8.9-15.2v0
		c2.3-7.6,8-13.7,15.4-16.5l0,0c9.4-2.8,16.9-9.8,20.3-19l0,0c4.2,1.9,6.8,6.1,6.8,10.7c0,1-0.1,2-0.4,3l0,0c5.9,1,11.6,2.8,17,5.3
		h0c0.3,1.9,0.5,3.9,0.5,5.9c0,5.2-1.2,10.3-3.4,15v0c5.1,0.2,9.2,4.4,9.2,9.6c0,0.8-0.1,1.6-0.3,2.3v0c-1.5-0.2-3-0.3-4.5-0.3
		c-6.9,0-13.5,2.3-18.9,6.6l0,0c-6.2,4.9-13.9,7.6-21.8,7.6c-4.7,0-9.4-1-13.8-2.8l0,0c-1.9-1.8-4.4-2.9-7.1-2.9
		c-0.7,0-1.4,0.1-2,0.2l0,0c-9,1.8-17.2,6.3-23.6,12.8v0h175.8c-44.6-40.4-77.9-91.9-96.4-149.3l0,0c-30.9-9.5-63-14.5-95.3-14.7v0
		v136.5c3.8-5.3,6.5-11.3,7.8-17.6h0c0.2-0.7,0.2-1.4,0.2-2.2c0-2.6-1-5.1-2.8-7l0,0c-1.8-4.3-2.7-8.9-2.7-13.5
		c0-8.1,2.7-15.9,7.8-22.2h0c4.4-5.5,6.8-12.3,6.8-19.3c0-1.4-0.1-2.8-0.3-4.1l0,0c0.7-0.2,1.5-0.3,2.2-0.3
		C-1267.2,1431.2-1262.9,1435.4-1262.8,1440.6L-1262.8,1440.6z"></path>
	<path class="ladsvg-7211-st3" d="M-1187.8,1387.2c57.1,18.6,108.4,52.1,148.6,96.9l0,0l0-171.3c-6.8,6.4-11.6,14.7-13.7,23.8l0,0
		c-0.2,0.7-0.3,1.5-0.3,2.3c0,2.6,1,5.1,2.7,7h0c1.7,4.2,2.5,8.6,2.5,13.1c0,8.2-2.8,16.2-8,22.5v0c-4.5,5.5-7,12.4-7,19.6
		c0,1.3,0.1,2.5,0.2,3.8l0,0c-0.7,0.2-1.4,0.2-2.1,0.2c-5.2,0-9.5-4.2-9.5-9.5l0,0c-4.5,2-9.3,3.1-14.2,3.1c-2.2,0-4.4-0.2-6.6-0.6
		v0c-2.4-5.5-4-11.3-4.9-17.2h0c-0.9,0.2-1.8,0.3-2.8,0.3c-4.7,0-8.9-2.8-10.7-7.1h0c9.2-3.2,16.4-10.6,19.4-20l0,0
		c2.9-7.4,9.2-12.9,16.8-15.1v0c6.1-0.6,11.6-3.7,15.3-8.6l0,0c3.7-9.2,7.5-18.3,11.3-27.5l0,0c-10,0.6-19.7,4.2-27.7,10.4l0,0
		c-5,3.5-8.3,9-9.1,15.1l0,0c-2.4,7.6-8.1,13.6-15.5,16.3v0c-9.4,2.7-17,9.6-20.5,18.8h0c-4.1-1.9-6.7-6.1-6.7-10.6
		c0-1.1,0.1-2.1,0.4-3.2v0c-5.9-1.1-11.6-2.9-17-5.5l0,0c-0.3-1.8-0.4-3.6-0.4-5.5c0-5.3,1.2-10.6,3.6-15.4v0
		c-5.1-0.2-9.1-4.5-9.1-9.6c0-0.8,0.1-1.6,0.3-2.4l0,0c1.6,0.3,3.2,0.4,4.8,0.4c6.7,0,13.3-2.2,18.7-6.4v0
		c6.2-4.7,13.7-7.3,21.5-7.3c4.9,0,9.7,1,14.2,3v0c1.9,1.9,4.5,3,7.2,3c0.6,0,1.3-0.1,1.9-0.2l0,0c9-1.7,17.3-6.1,23.9-12.6h0h-142
		C-1202.2,1323.9-1197.2,1356.2-1187.8,1387.2L-1187.8,1387.2z"></path>
	<path class="ladsvg-7211-st3" d="M-1291.4,1370.4c31,0.2,61.8,4.6,91.6,13.1l0,0c-8.5-30-12.9-60.9-13.1-92.1l0,0h-78.6V1370.4z"></path>
</g>
</svg>