<svg version="1.0" id="Camada_1" xmlns:x="&amp;ns_extend;" xmlns:i="&amp;ns_ai;" xmlns:graph="&amp;ns_graphs;" xmlns="http://www.w3.org/2000/svg" xmlns:xlink="http://www.w3.org/1999/xlink" x="0px" y="0px" viewBox="-1291 1292.1 252.6 252.6" style="enable-background:new -1291 1292.1 252.6 252.6;" xml:space="preserve">
<style type="text/css">
	.A{fill:#C2BFC1;}
	.B{fill:#2D2E27;}
	.C{fill:#7B7970;}
	.D{fill-rule:evenodd;clip-rule:evenodd;fill:none;}
</style>
<metadata>
	<sfw xmlns="&amp;ns_sfw;">
		<slices></slices>
		<slicesourcebounds width="253.2" height="252.7" bottomleftorigin="true" y="-0.1" x="0"></slicesourcebounds>
	</sfw>
</metadata>
<switch>
	
	<g i:extraneous="self">
		<rect x="-1290.9" y="1292.2" class="A" width="252.6" height="252.4"></rect>
		<path class="B" d="M-1060.1,1478.1c-19.4-0.8-38.4-4.9-56.6-12c7.1,18.1,11,37.1,12,56.5c3.7-0.6,7.3-0.8,11-0.8
			c20.8,0,40.7,8.2,55.5,22.6c-14.5-14.9-22.6-34.6-22.6-55.4C-1060.9,1485.5-1060.7,1481.8-1060.1,1478.1z"></path>
		<path class="C" d="M-1038.3,1433.7v-141.5h-29v99.5c-30.9,5.7-59,20.8-81.3,42.8c-22.2,22.2-37.2,50.5-42.9,81.3h-99.5v29.1
			h141.7C-1149.2,1483.4-1099.5,1433.7-1038.3,1433.7z"></path>
		<path class="A" d="M-1101,1364.4v-72.3h-38v46.1c-22.8,11.2-43.7,26.1-61.6,44.2c-18.1,17.9-33.1,38.7-44.3,61.5h-46v38.1h72.2
			c9.4-27.3,24.9-52,45.3-72.3C-1152.8,1389.3-1128.2,1373.8-1101,1364.4z"></path>
		<polygon class="B" points="-1202.3,1292.2 -1290.9,1380.9 -1202.3,1380.9 		"></polygon>
		<path class="A" d="M-1038.3,1433.7c-29.4,0-57.6,11.6-78.5,32.4c17.9,7.1,37.2,11,56.6,12
			C-1057.9,1461.4-1050.1,1445.7-1038.3,1433.7z"></path>
		<path class="A" d="M-1116.7,1466.3c-20.8,20.8-32.5,49.1-32.5,78.5c12-11.8,27.8-19.6,44.5-22
			C-1105.7,1503.4-1109.5,1484.2-1116.7,1466.3z"></path>
		<path class="B" d="M-1148.6,1434.3c22.2-22,50.4-37.1,81.3-42.8v-99.5h-33.7v72.3c-27.4,9.4-52.1,24.9-72.4,45.2
			c-20.4,20.4-36,45.2-45.3,72.3h-72v33.6h99.5C-1185.7,1484.8-1170.6,1456.5-1148.6,1434.3z"></path>
		<path class="C" d="M-1200.4,1382.3c17.9-18.1,38.8-33,61.6-44.2v-46.1h-63.3v88.9h-88.9v63.2h46
			C-1233.5,1421.1-1218.6,1400.3-1200.4,1382.3z"></path>
		<path class="C" d="M-1038.3,1433.7c-14.5,14.9-22.6,34.6-22.6,55.4c0,20.8,8.2,40.8,22.6,55.4V1433.7z"></path>
		<path class="C" d="M-1104.6,1522.8c-16.7,2.4-32.5,10-44.5,22h110.9c-14.7-14.5-34.7-22.6-55.5-22.6
			C-1097.3,1521.9-1101,1522.1-1104.6,1522.8z"></path>
		<rect x="-1290.9" y="1292.2" class="D" width="253.1" height="252.5"></rect>
	</g>
</switch>

</svg>