<svg version="1.1" xmlns:x="&amp;ns_extend;" xmlns:i="&amp;ns_ai;" xmlns:graph="&amp;ns_graphs;" xmlns="http://www.w3.org/2000/svg" xmlns:xlink="http://www.w3.org/1999/xlink" x="0px" y="0px" viewBox="-1291 1292.1 252.6 252.6" style="enable-background:new -1291 1292.1 252.6 252.6;" xml:space="preserve">
<style type="text/css">
	.ladsvg-7645-st0{fill:#F5F4F4;}
	.ladsvg-7645-st1{fill:#2C485F;}
	.ladsvg-7645-st2{fill:#C2BFC1;}
</style>
<metadata>
	<sfw xmlns="&amp;ns_sfw;">
		<slices></slices>
		<slicesourcebounds width="252.8" height="253" bottomleftorigin="true" x="0" y="-0.4"></slicesourcebounds>
	</sfw>
</metadata>
<g id="Layer_1">
	<rect x="-1291" y="1292.1" class="ladsvg-7645-st0" width="252.6" height="253"></rect>
	<path class="ladsvg-7645-st1" d="M-1086.6,1492.3c1.6-2,2.5-4.7,2.5-7.4c0-6.5-5.3-11.9-11.9-11.9c-3.7,0-7.2,1.8-9.4,4.7l0,0
		c-2.5,2.2-3.9,5.5-3.9,8.8c0,6.5,5.3,11.9,11.9,11.9c2.2,0,4.5-0.6,6.3-1.8l0,0c-2.7,3.1-4.1,7.2-4.1,11.2c0,9.8,8,17.8,17.6,17.8
		c1.6,0,3.3-0.2,4.7-0.6l0,0c0.6-0.2,1.4-0.4,2.2-0.4c3.7,0,6.7,3.1,6.7,6.7c0,1-0.2,2-0.6,2.9l0,0c-1,2.7-3.5,4.5-6.3,4.5
		c-2.7,0-4.9-1.4-5.9-3.7l0,0c-3.1-5.5-9-9-15.3-9c-9,0-16.8,6.9-17.6,15.9l0,0c-1.2-5.5-5.9-9.4-11.6-9.4
		c-6.5,0-11.9,5.3-11.9,11.9c0,0.2,0,0.4,0,0.6l0,0h70.9c0-13.1,10.6-23.9,23.9-23.9l0,0v-70.9c-0.2,0-0.4,0-0.6,0
		c-6.5,0-11.9,5.3-11.9,11.9c0,5.5,3.9,10.4,9.4,11.6l0,0c-9,0.8-15.9,8.6-15.9,17.6c0,6.3,3.5,12.3,9,15.3l0,0
		c2.2,1,3.7,3.5,3.7,5.9c0,2.9-1.8,5.3-4.5,6.3l0,0c-0.8,0.4-1.8,0.6-2.9,0.6c-3.7,0-6.7-3.1-6.7-6.7c0-0.8,0.2-1.4,0.4-2.2l0,0
		c0.4-1.6,0.6-3.1,0.6-4.7c0-9.8-8-17.8-17.6-17.8C-1079.5,1488.3-1083.4,1489.7-1086.6,1492.3L-1086.6,1492.3z"></path>
	<path class="ladsvg-7645-st2" d="M-1148.5,1449.4v-14.7h14.7c2.2-12.3,6.5-23.9,12.9-34.7l0,0c23.7,18.2,52.9,28.2,82.8,28.2l0,0v-11.4
		c-51.3,0-97.5-31.7-116.1-79.5l0,0h-80.1v-15.1h90.9c13.5,47,56.4,79.5,105.3,79.5l0,0v-11.4c-20.8,0-41.1-6.5-57.8-18.8l0,0
		c16.6-13.1,36.8-20.8,57.8-22.3l0,0v-11.4c-24.5,1.4-47.8,10.6-66.8,26.4l0,0c-3.7-3.5-7.2-7.2-10.2-11.2l0,0
		c21.7-18.2,48.8-28.8,77.1-30.2l0,0v-9.8c-11.2,0-20.4-9.2-20.4-20.6l0,0h-7.6c0,8,3.5,15.7,9.4,21.1l0,0c-5.5,1-11,2.5-16.6,4.1
		l0,0c-5.3-7.4-8-16.1-8-25.1l0,0h-7.6c0,9.8,2.9,19.4,8.2,27.6l0,0c-14.9,5.5-28.8,13.5-40.9,23.7l0,0c-6.1-10-10.4-21.1-12.7-32.7
		l0,0h-100.1v-18.6h-11.4v18.6h-15.1v-18.6h-11.4v18.6h-18.6v11.4h18.6v15.1h-18.6v11.4h18.6v99.9c11.4,2.2,22.5,6.5,32.7,12.7l0,0
		c-10,12.3-18.2,26.2-23.7,41.1l0,0c-8.2-5.3-17.8-8.2-27.6-8.2v7.6c23.9,0,43.1,19.4,43.1,43.3l0,0h13.7
		c1.4-21.1,9.2-41.3,22.3-57.8l0,0c12.3,16.8,18.8,37.2,18.8,57.8l0,0h11.4c0-24.1-8-47.4-22.5-66.6l0,0c3.5-3.7,7.4-6.9,11.4-10
		l0,0c17,21.9,26.2,48.8,26.2,76.6h11.4c0-30-9.8-59.1-28.2-83l0,0C-1172.5,1456-1160.8,1451.5-1148.5,1449.4L-1148.5,1449.4z"></path>
	<path class="ladsvg-7645-st0" d="M-1089.1,1292.1h-145.3v18.6h99.9c2.2,11.6,6.5,22.7,12.7,32.7l0,0c12.3-10.2,26.2-18.2,40.9-23.7l0,0
		C-1086.4,1311.5-1089.1,1301.9-1089.1,1292.1L-1089.1,1292.1z"></path>
	<path class="ladsvg-7645-st0" d="M-1272.4,1348.7h-18.6v145.5c9.8,0,19.4,2.9,27.6,8.2l0,0c5.5-14.9,13.5-28.8,23.7-41.1l0,0
		c-10-6.1-21.1-10.4-32.7-12.7l0,0V1348.7z"></path>
	<path class="ladsvg-7645-st0" d="M-1038.4,1521.2c-13.1,0-23.9,10.6-23.9,23.9h23.9V1521.2z"></path>
	<rect x="-1291" y="1322.1" class="ladsvg-7645-st0" width="18.6" height="15.1"></rect>
	<rect x="-1291" y="1292.1" class="ladsvg-7645-st0" width="18.6" height="18.6"></rect>
	<path class="ladsvg-7645-st0" d="M-1038.4,1292.1h-20.4c0,11.4,9.2,20.6,20.4,20.6V1292.1z"></path>
	<path class="ladsvg-7645-st0" d="M-1291,1524.4v20.6h20.4C-1270.6,1533.6-1279.8,1524.4-1291,1524.4L-1291,1524.4z"></path>
	<path class="ladsvg-7645-st0" d="M-1291,1501.7v15.1c15.5,0,28.2,12.7,28.2,28.2h15.1C-1247.9,1521.2-1267.1,1501.7-1291,1501.7L-1291,1501.7z"></path>
	<path class="ladsvg-7645-st0" d="M-1066.6,1292.1h-15.1c0,9,2.9,17.8,8,25.1l0,0c5.5-1.6,11-3.1,16.6-4.1l0,0
		C-1063.1,1307.8-1066.6,1300-1066.6,1292.1L-1066.6,1292.1z"></path>
	<path class="ladsvg-7645-st0" d="M-1038.4,1337.6v-15.1c-28.2,1.4-55.4,12.1-77.1,30.2l0,0c3.1,4.1,6.5,7.8,10.2,11.2l0,0
		C-1086.2,1348.3-1062.9,1339.1-1038.4,1337.6L-1038.4,1337.6z"></path>
	<path class="ladsvg-7645-st2" d="M-1291,1516.9v7.6c11.2,0,20.4,9.2,20.4,20.6h7.6C-1262.8,1529.5-1275.5,1516.9-1291,1516.9L-1291,1516.9z"></path>
	<rect x="-1261" y="1322.1" class="ladsvg-7645-st0" width="15.1" height="15.1"></rect>
	<path class="ladsvg-7645-st0" d="M-1234.4,1421.2v-72.6h72.6c3.7,8.2,8.4,16.1,13.7,23.5l0,0c-5.7,8.4-10.6,17.2-14.3,26.6l0,0h-22.1v21.9
		c-9.4,3.9-18.2,8.6-26.4,14.5l0,0C-1218.4,1429.6-1226.2,1425.1-1234.4,1421.2L-1234.4,1421.2z"></path>
	<path class="ladsvg-7645-st0" d="M-1167.1,1426.5v-10.4h10.4c3.7-12.3,9-23.9,15.9-34.5l0,0c3.5,3.9,6.9,7.6,10.8,11.2l0,0
		c-6.1,10.2-10.8,21.3-13.7,32.9l0,0h-14.1v14.1c-43.1,10.4-76.2,44.8-85.4,88.3l0,0c-2.5-6.5-6.1-12.7-10.8-17.8l0,0
		C-1240.5,1469.7-1208,1438.4-1167.1,1426.5L-1167.1,1426.5z"></path>
	<path class="ladsvg-7645-st0" d="M-1232.1,1452.7c-9-5.7-18.8-10.2-29-13.1l0,0v-90.9h15.1v80.1c9,3.5,17.4,8,25.3,13.3l0,0
		C-1224.6,1445.5-1228.5,1449-1232.1,1452.7L-1232.1,1452.7z"></path>
	<rect x="-1261" y="1292.1" class="ladsvg-7645-st0" width="15.1" height="18.6"></rect>
	<path class="ladsvg-7645-st0" d="M-1192.7,1468.4c-4.1,3.1-8,6.3-11.4,10l0,0c14.7,19.2,22.5,42.5,22.5,66.6l0,0h15.1
		C-1166.5,1517.3-1175.7,1490.3-1192.7,1468.4L-1192.7,1468.4z"></path>
	<path class="ladsvg-7645-st0" d="M-1143.6,1322.1h-90.7v15.1h80.1c18.4,48,64.6,79.5,115.9,79.5v-15.1
		C-1087.2,1401.6-1130.2,1369.1-1143.6,1322.1L-1143.6,1322.1z"></path>
</g>
<g id="Camada_1">
</g>
</svg>