<svg version="1.1" xmlns:x="&amp;ns_extend;" xmlns:i="&amp;ns_ai;" xmlns:graph="&amp;ns_graphs;" xmlns="http://www.w3.org/2000/svg" xmlns:xlink="http://www.w3.org/1999/xlink" x="0px" y="0px" viewBox="-1291 1292.1 252.6 252.6" style="enable-background:new -1291 1292.1 252.6 252.6;" xml:space="preserve">
<style type="text/css">
	.ladsvg-6596-st0{fill:#AECBE1;}
	.ladsvg-6596-st1{fill:#F5F4F4;}
	.ladsvg-6596-st2{fill:#E1C772;}
	.ladsvg-6596-st3{fill:#005177;}
</style>
<metadata>
	<sfw xmlns="&amp;ns_sfw;">
		<slices></slices>
		<slicesourcebounds width="253.8" height="252.8" bottomleftorigin="true" x="0.1" y="-0.2"></slicesourcebounds>
	</sfw>
</metadata>
<g id="Layer_1">
	<rect x="-1290.9" y="1292.1" class="ladsvg-6596-st0" width="253.6" height="252.6"></rect>
	<path class="ladsvg-6596-st1" d="M-1143.8,1511c0-0.6,0-1.2,0-2.1c0-13.5,11.1-24.4,24.6-24.4c5.9,0,11.5,2.1,16,5.9l0,0c-1,2.5-1.4,5.1-1.4,8
		c0,12.1,9.8,22,22,22c5.5,0,10.9-2.1,15-5.9l0,0c3.9-4.1,5.9-9.4,5.9-15c0-12.1-9.8-22-22-22c-2.7,0-5.3,0.4-8,1.4l0,0
		c-3.9-4.5-5.9-10.1-5.9-16c0-13.5,11.1-24.4,24.6-24.4c0.6,0,1.2,0,2.1,0l0,0c-0.2-1.4-0.2-3.1-0.2-4.5c0-19.7,14.4-36.7,34.1-39.8
		l0,0v-73.7h-57l-41.2,41.2v85.3h-85.6l-41,40.8v56.8h73.9c3.1-19.5,20.1-33.9,39.8-33.9C-1146.7,1510.8-1145.2,1510.8-1143.8,1511
		L-1143.8,1511z"></path>
	<path class="ladsvg-6596-st1" d="M-1178.3,1404.3v-56.6l55.8-55.6h-53.3l-50.3,50.1c0.2-1.2,0.4-2.5,0.4-3.7c0-10.3-8.2-18.5-18.5-18.5
		c-10.3,0-18.5,8.2-18.5,18.5c0,10.3,8.2,18.5,18.5,18.5c1.2,0,2.5-0.2,3.7-0.4l0,0l-50.5,50.3v53.1l55.8-55.6H-1178.3z"></path>
	<path class="ladsvg-6596-st2" d="M-1037.3,1544.6v-150.2c-19.7,3.1-34.1,19.9-34.1,39.8c0,1.4,0,3.1,0.2,4.5l0,0c-0.6,0-1.2,0-2.1,0
		c-13.5,0-24.6,10.9-24.6,24.4c0,5.7,2.1,11.5,5.9,16l0,0c2.5-1,5.3-1.4,8-1.4c12.1,0,22,9.8,22,22c0,5.5-2.1,10.9-5.9,15l0,0
		c-4.1,3.9-9.4,5.9-15,5.9c-12.1,0-22-9.8-22-22c0-2.7,0.4-5.3,1.4-8l0,0c-4.5-3.9-10.1-5.9-16-5.9c-13.5,0-24.6,10.9-24.6,24.4
		c0,0.6,0,1.2,0,2.1l0,0c-1.4-0.2-3.1-0.2-4.5-0.2c-19.9,0-36.7,14.4-39.8,33.9l0,0L-1037.3,1544.6z"></path>
	<polygon class="ladsvg-6596-st3" points="-1135.4,1447 -1135.4,1361.8 -1094.3,1320.8 -1037.3,1320.8 -1037.3,1292.1 -1122.5,1292.1 
		-1178.3,1347.7 -1178.3,1404.3 -1235.1,1404.3 -1290.9,1460.1 -1290.9,1544.6 -1262,1544.6 -1262,1488 -1220.9,1447 	"></polygon>
</g>
<g id="Camada_1">
</g>
</svg>