<svg version="1.1" xmlns:x="&amp;ns_extend;" xmlns:i="&amp;ns_ai;" xmlns:graph="&amp;ns_graphs;" xmlns="http://www.w3.org/2000/svg" xmlns:xlink="http://www.w3.org/1999/xlink" x="0px" y="0px" viewBox="-1291 1292.1 252.6 252.6" style="enable-background:new -1291 1292.1 252.6 252.6;" xml:space="preserve">
<style type="text/css">
	.ladsvg-8825-st0{fill:#F9F7DD;}
	.ladsvg-8825-st1{fill:#7D2534;}
	.ladsvg-8825-st2{fill:#A2C0B0;}
</style>
<metadata>
	<sfw xmlns="&amp;ns_sfw;">
		<slices></slices>
		<slicesourcebounds width="251.6" height="252.8" bottomleftorigin="true" x="0.5" y="0"></slicesourcebounds>
	</sfw>
</metadata>
<g id="Layer_1">
	<rect x="-1290.5" y="1291.9" class="ladsvg-8825-st0" width="251.3" height="252.8"></rect>
	<path class="ladsvg-8825-st1" d="M-1079.2,1466.8c-4.3,0.2-8.2,2.6-10.2,6.3l0,0c-5.1-4.5-11.6-6.9-18.6-6.9c-2.7,0-5.1,0.4-7.8,1l0,0
		c-0.6,2.4-1,5.1-1,7.7c0,6.7,2.5,13.4,6.7,18.5l0,0c-3.9,2-6.3,5.9-6.3,10.2l0,0c12.3,9.4,27.2,14.7,42.5,15.1l0,0
		c1.6,0.4,3.1,1.8,3.1,3.7s-1.4,3.5-3.3,3.7l0,0c-3.5,0.4-6.9,0.6-10.2,0.6c-14.9,0-29.6-3.7-42.9-10.8l0,0
		c-8.8-4.7-18.2-8.1-27.8-10l0,0c-1.8-0.4-3.9-0.6-5.9-0.6c-4.3,0-8.6,1-12.7,2.9l0,0c-0.4,1.4-0.4,3.1-0.4,4.5
		c0,4.5,1.2,8.8,3.7,12.4l0,0c-10.8,1.2-20.8,5.9-28.8,13.4l0,0c-0.4,0-0.8,0-1.2,0c-5.5,0-10.6,2.2-14.5,5.9l0,0h55.2
		c4.1-8.6,12.7-14.1,22.1-14.1c3.1,0,5.9,0.6,8.8,1.6l0,0c13.5,5.1,27.6,9.4,41.7,12.4l0,0h7.4c8.8-0.2,15.7-7.5,15.7-16.3
		c0-8.6-6.5-15.7-15.1-16.3l0,0c-9.2-0.4-16.6-8.1-16.6-17.5c0-2,0.4-4.1,1-5.9l0,0c1.8-0.6,3.9-1,5.7-1c9.4,0,17,7.3,17.4,16.7l0,0
		c0.6,8.6,7.8,15.3,16.3,15.3c8.2,0,14.9-5.9,16.1-14.1l0,0v-8.8c-3.1-14.5-7.4-28.5-12.5-42.2l0,0c-1-2.9-1.6-5.7-1.6-8.8
		c0-9.6,5.5-18.3,14.1-22.2l0,0v-55.6c-3.9,3.9-6.1,9.2-6.1,14.9c0,0.4,0,0.8,0,1.2l0,0c-7.6,7.7-12.3,17.9-13.5,28.9l0,0
		c-3.7-2.4-8-3.7-12.5-3.7c-1.6,0-3.1,0.2-4.7,0.4l0,0c-1.8,3.9-2.7,8.4-2.7,12.6c0,2,0.2,4.1,0.6,5.9l0,0c1.8,9.8,5.3,19.1,10,27.9
		l0,0c7.2,13.2,10.8,28.1,10.8,43.2c0,3.5-0.2,6.7-0.6,10.2l0,0c-0.2,1.8-1.8,3.3-3.7,3.3s-3.3-1.2-3.5-3.1l0,0
		C-1064.5,1493.9-1069.8,1479.1-1079.2,1466.8L-1079.2,1466.8z"></path>
	<path class="ladsvg-8825-st1" d="M-1218.2,1337.7c0.6-1.6,0.8-3.5,0.8-5.1c0-7.7-5.5-14.3-13.1-15.3l0,0c1.8-2.2,4.5-3.7,7.6-3.7
		c2.5,0,4.7,0.8,6.3,2.4l0,0c-4.7-6.7-12.5-10.8-20.6-10.8c-6.3,0-12.3,2.4-17,6.5l0,0l-1.8,14.5l-14.5,1.8
		c-4.3,4.9-6.5,11-6.5,17.3c0,8.1,3.9,15.9,10.6,20.6l0,0c-1.6-1.8-2.5-4.1-2.5-6.3c0-2.9,1.4-5.7,3.7-7.5l0,0
		c1.2,7.5,7.8,13.2,15.3,13.2c1.8,0,3.5-0.2,5.1-0.8l0,0c3.7-0.6,7.2-1.8,10.4-3.3l0,0c1.8,0.4,3.9,0.6,5.7,0.6
		c2.5,0,4.7-0.2,6.9-0.8l0,0c0.6-2.2,0.8-4.7,0.8-6.9c0-2-0.2-3.9-0.6-5.9l0,0C-1219.8,1344.8-1218.8,1341.4-1218.2,1337.7
		L-1218.2,1337.7z"></path>
	<path class="ladsvg-8825-st2" d="M-1263.5,1304.5c0.6,0,1,0.2,1.6,0.2c6.5,0,11.9-5.3,11.9-11.8c0-0.2,0-0.6,0-0.8l0,0h-40.5v40.1
		c0.2,0,0.6,0,0.8,0c6.5,0,11.9-5.3,11.9-11.8c0-0.4,0-1,0-1.4l0,0c1.8,1,3.9,1.4,5.9,1.4c2.7,0,5.1-0.8,7.4-2.4l0,0
		c1.6-2.2,2.5-4.7,2.5-7.5C-1262.3,1308.1-1262.7,1306.3-1263.5,1304.5L-1263.5,1304.5z"></path>
	<path class="ladsvg-8825-st2" d="M-1039,1423.3c-8.6,4.1-14.1,12.8-14.1,22.2c0,3.1,0.6,5.9,1.6,8.8l0,0c5.3,13.6,9.4,27.9,12.5,42.2l0,0
		V1423.3z"></path>
	<path class="ladsvg-8825-st2" d="M-1039.1,1505.3c-1.2,7.9-8,14.1-16.1,14.1c-8.8,0-15.9-6.9-16.3-15.5l0,0c-0.6-9.2-8.2-16.3-17.4-16.3
		c-2,0-3.9,0.4-5.7,1l0,0c-0.6,1.8-1,3.9-1,5.9c0,9.2,7.2,16.9,16.1,17.5l0,0c8.6,0.4,15.5,7.7,15.5,16.3c0,8.8-6.9,16.1-15.7,16.3
		l0,0h40.9L-1039.1,1505.3z"></path>
	<path class="ladsvg-8825-st2" d="M-1128.4,1532c-2.9-1-5.7-1.6-8.8-1.6c-9.4,0-18.2,5.5-22.1,14.1l0,0h72.5
		C-1100.9,1541.4-1114.8,1537.3-1128.4,1532L-1128.4,1532z"></path>
</g>
<g id="Camada_1">
</g>
</svg>