<svg version="1.1" xmlns:x="&amp;ns_extend;" xmlns:i="&amp;ns_ai;" xmlns:graph="&amp;ns_graphs;" xmlns="http://www.w3.org/2000/svg" xmlns:xlink="http://www.w3.org/1999/xlink" x="0px" y="0px" viewBox="-1291 1292.1 252.6 252.6" style="enable-background:new -1291 1292.1 252.6 252.6;" xml:space="preserve">
<style type="text/css">
	.ladsvg-4806-st0{fill:#F9F7DD;}
	.ladsvg-4806-st1{fill:#AECBE1;}
	.ladsvg-4806-st2{fill:#2C485F;}
	.ladsvg-4806-st3{fill:#DEB569;}
</style>
<metadata>
	<sfw xmlns="&amp;ns_sfw;">
		<slices></slices>
		<slicesourcebounds width="251.7" height="252.1" bottomleftorigin="true" x="0" y="0.6"></slicesourcebounds>
	</sfw>
</metadata>
<g id="Layer_1">
	<rect x="-1291" y="1292.2" class="ladsvg-4806-st0" width="251.5" height="251.9"></rect>
	<path class="ladsvg-4806-st0" d="M-1169.5,1373.6c4.1-20.1,15.2-38.4,31.5-51l0,0c12.8-10,27.8-16.5,43.9-18.7l0,0c17.3-2.4,34.7-3.7,52.4-3.7
		c0.8,0,1.6,0,2.4,0l0,0v-8.1h-69.9c-7.5,5.7-15.4,10.6-23.8,14.8l0,0c-1.4,0.8-3,1-4.7,1c-1.8,0-3.7-0.4-5.3-1.4l0,0
		c-0.6,7.1-6.5,12.4-13.6,12.4c-4.3,0-8.3-2-11-5.5l0,0c0,0.4,0,0.8,0,1.2c0,11-8.9,20.1-19.9,20.1c-0.4,0-0.8,0-1.4,0l0,0
		c2,2.2,3.3,5.3,3.3,8.5c0,2.8-1,5.7-2.8,7.9l0,0c-0.2,0.4-0.8,0.6-1.2,0.6c-0.8,0-1.4-0.6-1.6-1.2l0,0c-0.2-0.8-0.4-1.4-0.6-2.2
		l0,0c0,0.2,0,0.4,0,0.6c0,2.8-1.4,5.5-3.9,7.1l0,0c-0.2,0.2-0.4,0.2-0.8,0.2s-1-0.2-1.2-0.6l0,0c-0.2-0.4-0.4-0.8-0.4-1.4v-0.2l0,0
		c-2.2-11.2-12-19.3-23.4-19.3c-2.6,0-5.1,0.4-7.5,1.2l0,0c-4.5,1.2-8.3,4.3-10.6,8.5l0,0c0.4,0,0.8,0,1.4,0c3,0,5.9,0.6,8.5,2l0,0
		c0.8,0.4,1.2,1,1.2,1.8c0,1-0.8,2-1.8,2l0,0c-5.9,0.4-11.2,4.3-13.4,9.8l0,0c-1.2,2.4-1.6,5.1-1.6,7.7c0,9.1,6.9,16.9,16,17.9l0,0
		h0.2c0.4,0,1,0.2,1.4,0.4l0,0c0.4,0.2,0.6,0.6,0.6,1.2c0,0.2,0,0.6-0.2,0.8l0,0c-1.4,2.4-4.3,3.9-7.1,3.9c-0.2,0-0.4,0-0.6,0l0,0
		c0.6,0.2,1.4,0.4,2.2,0.6l0,0c0.8,0.2,1.2,0.8,1.2,1.6c0,0.4-0.2,1-0.6,1.2l0,0c-2.2,1.8-5.1,2.8-7.9,2.8c-3,0-6.1-1.2-8.5-3.3l0,0
		c0,0.4,0,0.8,0,1.4c0,11-8.9,20.1-19.9,20.1c-0.4,0-0.8,0-1.2,0l0,0c3.5,2.6,5.5,6.7,5.5,11c0,7.1-5.5,13-12.4,13.6l0,0
		c0.8,1.6,1.4,3.5,1.4,5.3c0,1.6-0.4,3.3-1,4.7l0,0c-4.1,8.3-9.1,16.3-14.8,23.8l0,0v69.1h8.1c0-0.8,0-1.6,0-2.4
		c0-17.5,1.2-34.9,3.7-52.4l0,0c2.2-16,8.5-31.3,18.7-43.9l0,0c12.8-16.3,30.9-27.4,51-31.5l0,0c2.4-0.4,4.7-0.6,7.1-0.6
		c11.6,0,22.3,5.5,29,14.8l0,0c1,1.4,1.8,2.8,2.4,4.3l0,0c0.2,0,0.4,0,0.6,0c5.3,0,10.2-2,14-5.5l0,0c3.5-3.9,5.5-8.7,5.5-14
		c0-0.2,0-0.4,0-0.6l0,0c-1.6-0.6-3-1.4-4.3-2.4l0,0c-9.3-6.7-14.8-17.7-14.8-29C-1170.1,1378.3-1169.9,1375.8-1169.5,1373.6
		L-1169.5,1373.6z"></path>
	<path class="ladsvg-4806-st1" d="M-1266.2,1292.2h-24.8v24.8C-1277.4,1316.9-1266.2,1305.8-1266.2,1292.2L-1266.2,1292.2z"></path>
	<path class="ladsvg-4806-st2" d="M-1254.4,1328.7c8.1-8.1,19.1-12.6,30.5-12.6c14,0,27.2,6.9,35.3,18.5l0,0c0.4,0,0.8,0,1.4,0
		c11,0,19.9-8.9,19.9-20.1c0-0.4,0-0.8,0-1.2l0,0c2.6,3.5,6.7,5.5,11,5.5c7.1,0,13-5.5,13.6-12.4l0,0c1.6,0.8,3.5,1.4,5.3,1.4
		c1.6,0,3.3-0.4,4.7-1l0,0c8.3-4.1,16.3-9.1,23.8-14.8l0,0l-67,0.2c-0.2,1-0.4,2-0.6,3l0,0c-1.4,5.1-6.1,8.7-11.6,8.7
		c-2,0-3.9-0.4-5.7-1.4l0,0c-6.3-3.3-12.4-6.9-18.3-10.6l0,0h-46.7c0,17.7-14.4,32.1-32.1,32.1l0,0v46.9c3.7,6.1,7.1,12.2,10.6,18.3
		l0,0c1,1.8,1.4,3.7,1.4,5.7c0,5.3-3.7,10.2-8.7,11.6l0,0c-1,0.2-2,0.6-3,0.6l0,0v66.8c5.7-7.5,10.6-15.4,14.8-23.8l0,0
		c0.8-1.4,1-3,1-4.7c0-1.8-0.4-3.7-1.4-5.3l0,0c7.1-0.6,12.4-6.5,12.4-13.6c0-4.3-2-8.3-5.5-11l0,0c0.4,0,0.8,0,1.2,0
		c11,0,19.9-8.9,19.9-20.1c0-0.4,0-0.8,0-1.4l0,0c-11.6-8.1-18.5-21.3-18.5-35.3C-1267,1347.8-1262.6,1336.8-1254.4,1328.7
		L-1254.4,1328.7z"></path>
	<path class="ladsvg-4806-st2" d="M-1230.1,1350.3c1,0,1.8-1,1.8-2c0-0.8-0.4-1.6-1.2-1.8l0,0c-2.6-1.2-5.5-2-8.5-2c-0.4,0-0.8,0-1.4,0l0,0
		c2-4.3,5.9-7.3,10.6-8.5l0,0c2.4-0.8,5.1-1.2,7.5-1.2c11.4,0,21.1,8.1,23.4,19.3l0,0v0.2c0,0.6,0.2,1.2,0.6,1.6l0,0
		c0.2,0.2,0.6,0.4,1,0.4c0.2,0,0.4,0,0.6-0.2l0,0c2.4-1.4,4.1-4.3,4.1-7.1c0-0.2,0-0.4,0-0.6l0,0c-4.7-14-17.9-23.4-32.5-23.4
		c-9.1,0-17.9,3.7-24.2,10c-6.5,6.5-10,15.2-10,24.2c0,14.8,9.3,27.8,23.4,32.5l0,0c0.2,0,0.4,0,0.6,0c2.8,0,5.7-1.6,7.1-4.1l0,0
		c0.2-0.2,0.2-0.4,0.2-0.6c0-0.4-0.2-0.8-0.4-1l0,0c-0.4-0.4-1-0.6-1.6-0.6h-0.2l0,0c-9.1-1-16-8.7-16-17.9c0-2.6,0.6-5.3,1.6-7.7
		l0,0C-1241.2,1354.5-1235.9,1350.7-1230.1,1350.3L-1230.1,1350.3z"></path>
	<path class="ladsvg-4806-st3" d="M-1183.5,1372.6c-0.6-0.2-1.2-0.2-1.6-0.2c-2.6,0-4.9,1.4-6.1,3.7l0,0c-2.8-1.4-5.9-2-9.1-2
		c-1.2,0-2.4,0-3.5,0.2l0,0c-0.8,0.2-1.4,0.2-2.2,0.2c-0.8,0-1.8,0-2.6-0.2l0,0c0.2,0.8,0.2,1.8,0.2,2.6c0,0.8,0,1.4-0.2,2.2l0,0
		c-0.2,1.2-0.2,2.4-0.2,3.5c0,3.3,0.6,6.3,2,9.1l0,0c-2.2,1.2-3.7,3.5-3.7,6.1c0,0.6,0,1.2,0.2,1.6l0,0c11.2,0.6,22.3,2.6,32.9,5.9
		l0,0C-1180.9,1394.9-1182.9,1383.8-1183.5,1372.6L-1183.5,1372.6z"></path>
	<path class="ladsvg-4806-st2" d="M-1131.9,1362.6c7.5-18.7,24-32.1,43.5-36.2l0,0c-0.2,1-0.4,2-0.4,3.3c0,5.7,3.3,11,8.3,13.4l0,0
		c0-0.6,0-1.2,0-2c0-8.9,6.1-16.7,14.8-18.7l0,0c8.5-2,17.5-3.3,26.2-3.9l0,0v-8.7c-3.3-0.4-6.7-0.6-10-0.6c-11,0-21.9,2.4-31.9,7.3
		l0,0c0-0.2,0-0.6,0-0.8c0-1.2,0.4-2.2,1.4-3l0,0c-28,1.4-53,18.1-65,43.3l0,0c-3.9,7.9-5.9,16.7-5.9,25.4c0,3.5,0.4,7.1,1,10.6l0,0
		c1.2,6.3,6.5,10.8,12.8,10.8c0.8,0,1.4,0,2.2-0.2l0,0c3.3-0.6,6.5-1.8,9.3-3.5l0,0c-5.7-6.3-8.9-14.6-8.9-23.2
		C-1134.6,1371.2-1133.6,1366.9-1131.9,1362.6L-1131.9,1362.6z"></path>
	<path class="ladsvg-4806-st2" d="M-1191.5,1433.3c-3.5-0.6-6.9-1-10.6-1c-8.7,0-17.5,2-25.4,5.7l0,0c-25.4,12-41.8,37-43.3,65l0,0
		c0.8-0.8,1.8-1.4,3-1.4c0.2,0,0.6,0,0.8,0l0,0c-4.7,10-7.3,20.9-7.3,31.9c0,3.3,0.2,6.7,0.6,10l0,0h8.9c0.6-8.7,2-17.7,3.9-26.2
		l0,0c2-8.7,9.8-14.8,18.5-14.8c0.6,0,1.2,0,2,0l0,0c-2.6-5.1-7.7-8.3-13.4-8.3c-1,0-2.2,0.2-3.3,0.4l0,0
		c4.1-19.7,17.7-36,36.2-43.7l0,0c4.1-1.6,8.5-2.6,13-2.6c8.5,0,16.9,3.3,23.2,8.9l0,0c1.8-2.8,3-6.1,3.5-9.3l0,0
		c0.2-0.8,0.2-1.4,0.2-2.2C-1180.7,1440-1185.2,1434.6-1191.5,1433.3L-1191.5,1433.3z"></path>
	<path class="ladsvg-4806-st2" d="M-1151,1412.2c0,0.2,0,0.4,0,0.6c0,5.3-2,10.2-5.5,14l0,0c-3.7,3.5-8.7,5.5-14,5.5c-0.2,0-0.4,0-0.6,0l0,0
		c3,4.1,7.9,6.5,13,6.5c3.7,0,7.1-1.2,10.2-3.5l0,0c2.2-2.8,3.5-6.5,3.5-10.2C-1144.5,1420.1-1147,1415.3-1151,1412.2L-1151,1412.2z
		"></path>
	<path class="ladsvg-4806-st2" d="M-1039.5,1512v-14c-5.1-7.9-9.8-16.3-14.2-24.6l0,0c-1-1.8-1.4-3.7-1.4-5.7c0-5.3,3.7-10.2,8.7-11.6l0,0
		c2.2-0.6,4.7-1,6.9-1l0,0v-21.5c-10,6.7-18.9,15-26.2,24.6l0,0c-2.2,3-3.5,6.7-3.5,10.6c0,3.7,1,7.1,3,10l0,0
		c3.5,4.9,6.5,10.2,8.9,15.6l0,0c0.6,1.2,0.8,2.4,0.8,3.7c0,1.6-0.4,3-1.2,4.5l0,0c-0.6,1.2-1.8,1.8-3.3,1.8c-1.2,0-2.2-0.6-2.8-1.4
		l0,0c-2.8-3.5-4.5-7.9-4.9-12.4l0,0c-0.8-8.7-8.1-15.4-16.9-15.4c-2.6,0-5.3,0.6-7.7,1.8l0,0c-3.3,0.6-6.7,0.8-10,0.8
		c-0.8,0-1.6,0-2.4,0l0,0c0,0.8,0,1.6,0,2.4c0,3.5-0.2,6.7-0.8,10l0,0c-1.2,2.4-1.8,5.1-1.8,7.7c0,8.7,6.7,16,15.4,16.9l0,0
		c4.5,0.4,8.7,2,12.4,4.9l0,0c0.8,0.8,1.4,1.8,1.4,2.8c0,1.2-0.6,2.6-1.8,3.3l0,0c-1.4,0.8-2.8,1.2-4.5,1.2c-1.2,0-2.6-0.2-3.7-0.8
		l0,0c-5.5-2.6-10.6-5.7-15.6-8.9l0,0c-2.8-2-6.5-3-10-3c-3.9,0-7.5,1.2-10.6,3.5l0,0c-9.5,7.3-17.9,16-24.6,26.2l0,0h21.7
		c0-2.4,0.4-4.7,1-6.9l0,0c1.4-5.1,6.1-8.7,11.6-8.7c2,0,3.9,0.4,5.7,1.4l0,0c8.3,4.5,16.5,9.1,24.6,14.2l0,0h13.8
		C-1071.6,1526.2-1057.2,1512-1039.5,1512L-1039.5,1512z"></path>
	<path class="ladsvg-4806-st1" d="M-1039.5,1519.3c-13.6,0-24.8,11.2-24.8,24.8h24.8V1519.3z"></path>
	<path class="ladsvg-4806-st3" d="M-1110,1529.6c-1.8-1-3.7-1.4-5.7-1.4c-5.3,0-10.2,3.7-11.6,8.7l0,0c-0.6,2.2-1,4.7-1,6.9l0,0h42.7
		C-1093.3,1539-1101.5,1534.1-1110,1529.6L-1110,1529.6z"></path>
	<path class="ladsvg-4806-st3" d="M-1039.5,1497.9v-42.7c-2.4,0-4.7,0.4-6.9,1l0,0c-5.1,1.4-8.7,6.1-8.7,11.6c0,2,0.4,3.9,1.4,5.7l0,0
		C-1049.3,1481.9-1044.6,1490-1039.5,1497.9L-1039.5,1497.9z"></path>
	<path class="ladsvg-4806-st3" d="M-1039.5,1519.3v-7.3c-17.7,0-32.1,14.4-32.1,32.1h7.3C-1064.3,1530.2-1053.1,1519.3-1039.5,1519.3
		L-1039.5,1519.3z"></path>
	<path class="ladsvg-4806-st1" d="M-1145.1,1355.9c12-25.4,37-42.1,65-43.3l0,0c-0.8,0.8-1.4,1.8-1.4,3c0,0.2,0,0.6,0,0.8l0,0
		c10-4.7,20.9-7.3,31.9-7.3c3.3,0,6.7,0.2,10,0.6l0,0v-9.3c-0.8,0-1.6,0-2.4,0c-17.5,0-34.9,1.2-52.4,3.7l0,0
		c-15.6,2-30.7,8.5-43.5,18.5l0,0c-16.3,12.8-27.4,30.9-31.5,51l0,0c-0.4,2.4-0.6,4.7-0.6,7.1c0,11.6,5.5,22.3,14.8,29l0,0
		c3.3,2.4,7.1,3.7,11.2,3.7c8.7,0,16.5-6.1,18.5-14.6l0,0c-2.8,1.8-5.9,3-9.3,3.5l0,0c-0.8,0.2-1.4,0.2-2.2,0.2
		c-6.3,0-11.8-4.5-12.8-10.8l0,0c-0.6-3.5-1-6.9-1-10.6C-1150.8,1372.6-1148.8,1363.9-1145.1,1355.9L-1145.1,1355.9z"></path>
	<path class="ladsvg-4806-st1" d="M-1209.7,1413.8c-20.1,4.1-38.2,15.2-51,31.5l0,0c-10,12.6-16.3,27.8-18.5,43.9l0,0
		c-2.4,17.3-3.7,34.9-3.7,52.4c0,0.8,0,1.6,0,2.4l0,0h9.5c-0.4-3.3-0.6-6.7-0.6-10c0-11,2.4-21.9,7.3-31.9l0,0c-0.2,0-0.6,0-0.8,0
		c-1.2,0-2.2,0.4-3,1.4l0,0c1.4-28,17.9-53,43.3-65l0,0c7.9-3.9,16.7-5.7,25.4-5.7c3.5,0,7.1,0.4,10.6,1l0,0
		c6.3,1.2,10.8,6.5,10.8,12.8c0,0.8,0,1.4-0.2,2.2l0,0c-0.6,3.3-1.8,6.5-3.5,9.3l0,0c8.5-2,14.6-9.8,14.6-18.5
		c0-4.1-1.2-7.9-3.7-11.2l0,0c-6.7-9.3-17.7-14.8-29-14.8C-1204.9,1413.2-1207.3,1413.4-1209.7,1413.8L-1209.7,1413.8z"></path>
	<path class="ladsvg-4806-st1" d="M-1254.4,1328.7c-8.1,8.1-12.6,19.1-12.6,30.5c0,14,6.9,27.4,18.5,35.3l0,0c2.2,2,5.3,3.3,8.5,3.3
		c2.8,0,5.7-1,7.9-2.8l0,0c0.4-0.2,0.6-0.8,0.6-1.2c0-0.6-0.4-1.2-1-1.4l0,0c-15.2-3.9-25.8-17.7-25.8-33.3c0-9.1,3.7-17.9,10-24.2
		c6.5-6.5,15.2-10,24.2-10c14.6,0,27.8,9.3,32.5,23.4c0.2,0.8,0.4,1.6,0.6,2.4l0,0c0.2,0.6,0.8,1,1.4,1c0.4,0,1-0.2,1.2-0.6l0,0
		c1.8-2.2,2.8-5.1,2.8-7.9c0-3.3-1.2-6.1-3.3-8.5l0,0c-8.1-11.6-21.3-18.5-35.3-18.5C-1235.3,1316.1-1246.3,1320.8-1254.4,1328.7
		L-1254.4,1328.7z"></path>
	<path class="ladsvg-4806-st1" d="M-1212.2,1292.2c6.1,3.7,12.2,7.1,18.3,10.6l0,0c1.8,1,3.7,1.4,5.7,1.4c5.3,0,10.2-3.7,11.6-8.7l0,0
		c0.2-1,0.6-2,0.6-3l0,0L-1212.2,1292.2z"></path>
	<path class="ladsvg-4806-st1" d="M-1291,1371.2v36.2c1-0.2,2-0.4,3-0.6l0,0c5.1-1.4,8.7-6.1,8.7-11.6c0-2-0.4-3.9-1.4-5.7l0,0
		C-1283.9,1383.2-1287.3,1377.1-1291,1371.2L-1291,1371.2z"></path>
	<path class="ladsvg-4806-st3" d="M-1258.9,1292.2h-7.3c0,13.6-11.2,24.8-24.8,24.8v7.3C-1273.3,1324.2-1258.9,1309.8-1258.9,1292.2
		L-1258.9,1292.2z"></path>
</g>
<g id="Camada_1">
</g>
</svg>