<svg version="1.1" xmlns:x="&amp;ns_extend;" xmlns:i="&amp;ns_ai;" xmlns:graph="&amp;ns_graphs;" xmlns="http://www.w3.org/2000/svg" xmlns:xlink="http://www.w3.org/1999/xlink" x="0px" y="0px" viewBox="-1291 1292.1 252.6 252.6" style="enable-background:new -1291 1292.1 252.6 252.6;" xml:space="preserve">
<style type="text/css">
	.A{fill:#F9F7DD;}
	.B{fill:#DEB569;}
	.C{fill:#2C485F;}
	.D{fill:#9E5D31;}
</style>
<metadata>
	<sfw xmlns="&amp;ns_sfw;">
		<slices></slices>
		<slicesourcebounds width="252" height="252.6" bottomleftorigin="true" x="0.1" y="0"></slicesourcebounds>
	</sfw>
</metadata>
<g id="Layer_1">
	<rect x="-1290.9" y="1292.1" class="A" width="252" height="252.6"></rect>
	<path class="B" d="M-1290.9,1292.1v15.1c4.1-5.9,9.4-11,15.5-15.1l0,0H-1290.9z"></path>
	<path class="C" d="M-1250.1,1292.1c-20,5.3-35.5,21-40.8,41l0,0v74.8c1.6-5.9,6.7-10.4,12.8-11.2l0,0c5.7-0.8,9.8-5.5,9.8-11.2
		c0-2.4-0.8-4.7-2-6.5l0,0c1.8,1.4,4.1,2.2,6.5,2.2c2.4,0,4.9-0.8,6.9-2.7l0,0c-1.8-2.7-2.9-5.7-2.9-8.8c0-0.4,0-0.6,0-1l0,0
		c0.2-2,0.6-4.3,1.2-6.3l0,0c2-4.3,3.3-9,3.3-13.7c0-10-4.9-19.6-13.1-25.3l0,0c-1.8-1.8-3.1-4.3-3.1-6.7c0-1.4,0.4-2.9,1-4.1l0,0
		c1.2-0.6,2.7-1,4.1-1c2.7,0,5.1,1,6.7,3.1l0,0c5.7,8.2,15.1,13.1,25.3,13.1c4.7,0,9.4-1,13.7-3.3l0,0c2-0.6,4.1-1,6.3-1.2l0,0
		c0.4,0,0.6,0,1,0c3.3,0,6.3,1,8.8,2.9l0,0c1.6-1.8,2.7-4.3,2.7-6.9c0-2.2-0.8-4.7-2.2-6.5l0,0c1.8,1.4,4.3,2,6.5,2
		c5.7,0,10.4-4.3,11.2-9.8l0,0c0.8-6.1,5.3-11.2,11.2-12.8l0,0H-1250.1z"></path>
	<path class="B" d="M-1064.4,1410.9c-3.5-2.7-7.5-4.3-11.8-4.3c-0.6,0-1,0-1.6,0l0,0c-0.8,4.7-1.4,9.4-1.4,14.3
		c0,19.8,7.7,38.9,21.8,53l0,0c7.7,10,14.1,21,18.6,32.6l0,0v-35.1c-4.1-7.3-7.7-14.9-11.2-22.4l0,0c-1.8-4.3-2.7-9-2.7-13.7
		c0-11,5.1-21.4,13.9-28.1l0,0v-37.5C-1054.4,1377.7-1064.1,1393.6-1064.4,1410.9L-1064.4,1410.9z"></path>
	<path class="B" d="M-1176.5,1505.5c0,0.6,0,1,0,1.6c0,4.3,1.4,8.6,4.3,12l0,0c-17.3,0.2-33,10-41,25.5l0,0h37.3
		c6.7-8.8,17.1-13.9,28.1-13.9c4.7,0,9.4,1,13.7,2.7l0,0c7.7,3.3,15.1,7.1,22.4,11.2l0,0h35.1c-11.6-4.7-22.6-10.8-32.6-18.6l0,0
		c-14.1-14.1-33-21.8-52.8-21.8C-1167.1,1504.1-1171.8,1504.7-1176.5,1505.5L-1176.5,1505.5z"></path>
	<path class="D" d="M-1077,1544.7h14.9c0-12.8,10.4-23.2,23.2-23.2v-14.9c-2.4-1.4-5.3-2-8.2-2c-8.6,0-15.9,6.3-16.9,14.9l0,0
		c-8.6,1-14.9,8.4-14.9,17.1C-1079,1539.4-1078.2,1542-1077,1544.7L-1077,1544.7z"></path>
	<path class="C" d="M-1120,1463.3c-0.6,1.4-0.8,2.9-0.8,4.3c0,1.8,0.4,3.7,1.4,5.3l0,0c-4.9,3.3-7.7,8.8-7.7,14.7
		c0,1,0,1.8,0.2,2.9l0,0c-1.4,0.2-2.7,1.4-2.7,2.9c0,0.4,0,0.6,0.2,1l0,0c4.7,14.3,18.1,23.7,33,23.7c5.3,0,10.4-1.2,15.1-3.5l0,0
		c-2,0.6-4.3,0.8-6.3,0.8c-12.4,0-22.6-10.2-22.6-22.6c0-5.3,1.8-10.4,5.3-14.5l0,0c4.1-3.5,9.2-5.3,14.5-5.3
		c12.4,0,22.6,10.2,22.6,22.6c0,2.2-0.4,4.3-0.8,6.3l0,0c2.2-4.7,3.5-10,3.5-15.3c0-14.9-9.6-28.3-23.7-33l0,0
		c-0.2-0.2-0.6-0.2-1-0.2c-1.4,0-2.9,1.2-2.9,2.7l0,0c-1-0.2-1.8-0.2-2.9-0.2c-5.9,0-11.2,2.9-14.7,7.7l0,0c-1.6-1-3.5-1.4-5.3-1.4
		C-1117.2,1462.5-1118.6,1462.7-1120,1463.3L-1120,1463.3z"></path>
	<path class="D" d="M-1290.9,1307.1v25.9c5.3-20,20.8-35.7,40.8-41l0,0h-25.3C-1281.5,1296.1-1286.8,1301.2-1290.9,1307.1
		L-1290.9,1307.1z"></path>
	<path class="B" d="M-1096.2,1487.4c-1,1.6-1.4,3.3-1.4,5.1c0,1.6,0.4,3.1,1,4.5l0,0c4.5,8.4,13.1,13.7,22.6,13.7c0.4,0,0.6,0,1,0
		l0,0c0-0.4,0-0.6,0-1c0-9.6-5.3-18.4-13.7-22.6l0,0c-1.4-0.8-2.9-1-4.5-1C-1092.9,1485.8-1094.5,1486.4-1096.2,1487.4
		L-1096.2,1487.4z"></path>
	<path class="A" d="M-1050.1,1448.9c3.3,7.7,7.1,15.3,11.2,22.4l0,0v-64.2c-8.8,6.7-13.9,17.1-13.9,28.1
		C-1052.7,1439.9-1051.9,1444.6-1050.1,1448.9L-1050.1,1448.9z"></path>
	<path class="A" d="M-1176.1,1544.7h64.2c-7.3-4.1-14.9-7.7-22.4-11.2l0,0c-4.3-1.8-9-2.7-13.7-2.7
		C-1159.2,1530.8-1169.6,1535.9-1176.1,1544.7L-1176.1,1544.7z"></path>
	<path class="A" d="M-1062.1,1544.7h23.2v-23.2C-1051.7,1521.5-1062.1,1531.9-1062.1,1544.7L-1062.1,1544.7z"></path>
</g>
<g id="Camada_1">
</g>
</svg>