<svg version="1.1" xmlns:x="&amp;ns_extend;" xmlns:i="&amp;ns_ai;" xmlns:graph="&amp;ns_graphs;" xmlns="http://www.w3.org/2000/svg" xmlns:xlink="http://www.w3.org/1999/xlink" x="0px" y="0px" viewBox="-1291 1292.1 252.6 252.6" style="enable-background:new -1291 1292.1 252.6 252.6;" xml:space="preserve">
<style type="text/css">
	.ladsvg-4578-st0{fill:#F5F4F4;}
	.ladsvg-4578-st1{fill:#FFFFFF;}
	.ladsvg-4578-st2{fill:#9F9375;}
	.ladsvg-4578-st3{fill:#7B7970;}
</style>
<metadata>
	<sfw xmlns="&amp;ns_sfw;">
		<slices></slices>
		<slicesourcebounds width="252.4" height="252.8" bottomleftorigin="true" x="0" y="-0.2"></slicesourcebounds>
	</sfw>
</metadata>
<g id="Layer_1">
	<polygon class="ladsvg-4578-st0" points="-1185.3,1292.1 -1038.7,1292.1 -1038.8,1544.1 -1291,1544.9 -1291,1292.1 	"></polygon>
	<path class="ladsvg-4578-st1" d="M-1121.1,1543.6c1.2-1,2.5-2.1,3.7-3.2c0.3-0.3,0.6-0.6,0.9-0.9c4.4-3.7,8.9-8.1,15-8.7
		c3.5-0.3,7.4,1,10.3,3.4c0.3,0.3,0.6,0.6,0.9,0.9c2.7,1.9,3.3,4.7,3.9,7.5c6.5-2.6,8.4-7.2,8.2-12.5c0-0.4,0-0.8-0.1-1.2
		c-1.7-14.6-10.3-26.4-19.9-37.2c-0.3-0.3-0.6-0.7-0.9-1c-13.4-15.6-28.8-29.7-43.3-44.3c-0.3-0.3-0.6-0.6-0.9-1
		c-4-4-7.9-7.9-12-12.3c-0.3-0.3-0.6-0.6-0.8-0.8c-5.1-5.5-14.1-11.6-21.9-7.1c-8.8,4.8-18.3,9.7-27.6,8c-0.4-0.1-0.8-0.2-1.3-0.3
		c-6.1-1.3-9.8-4.8-13.1-9.1c-0.3-0.3-0.5-0.7-0.7-1c-0.4-0.4-0.9-0.9-1.5-2.1c3.4,1.7,7.3,1.7,10.6,0c7.1-4.6,14.8-8.8,22.7-9.3
		c0.4,0,0.8-0.1,1.2-0.1c2.9-0.1,5.7,0.5,8.7,1.5c0.4,0.2,0.8,0.3,1.2,0.5c0.8,0.4,1.6,0.8,2.5,1.3c-0.5-0.8-20.2-22-20.2-22h-0.8
		c0,0-0.4,0.2-0.8,0.3c-2.4,1.5-5.1,2.4-7.9,2.7c-0.4,0-0.8,0.1-1.2,0.1c-9.2,1.7-14.9-5.4-18.9-13.1c-0.2-0.4-0.4-0.8-0.6-1.2
		c-2.2-8.2-10.5-16-20-12.7c-0.3,0-0.6-0.3-0.8-0.6c-0.2-0.4-0.3-0.8-0.2-1.1c0-0.3,0-0.6,0-0.9c0-0.3,0-0.6,0.1-0.9
		c0.3-3.1,3.1-6.5,7.1-5.5c0.3,0,0.7,0,1,0c0.3,0,0.7,0.1,1,0.1c0.5-0.1,1-0.2,1-0.2l1.7-0.3l0.5-1.7l-0.3-1.9v-1.9v-1.5
		c0,0,0.1-0.5,0.2-0.9c0.1-0.5,0.2-0.8,0.3-1.1c0.2-0.3,0.4-0.5,0.6-0.7c1.2-0.8,2.6-0.9,4-0.8c0.5,0,0.9,0.1,1.4,0.1
		c0.8,0.3,1.9,0.9,2.5,0.3c0.2-0.4,0.4-0.7,0.6-1.1c0.2-0.4,0.3-0.8,0.5-1.2c0.2-0.8,0.3-1.6,0.5-2.4c0.1-0.3,0.1-0.5,0.2-0.7
		c0.1-0.3,0.3-0.6,0.4-0.9c0.1-0.3,0.3-0.6,0.4-0.9c0.4-0.9,1-1.7,1.7-2.5c0.2-0.3,0.5-0.5,0.7-0.7c1.2-1.8,3.4-2.4,5.1-1.8
		c-0.1,0.7-0.2,1.4-0.2,2c0,0.4,0.1,0.8,0.1,1.1c0,0.4,0,0.7,0.1,1.1c0.1,3.6,0.1,6.4,2.3,9.4c0.2,0.2,0.3,0.4,0.5,0.6
		c0.4,0.4,0.8,0.8,1.2,1.1c0.3,0.3,0.6,0.6,1,0.8c5.8,4.8,13.6,6.8,18.8,13.3c0.2,0.3,0.4,0.7,0.6,1c3.3,5.9,2.4,13.9-0.6,20
		c0,0-0.1,0.4-0.3,0.8c-0.1,0.3,8.7,9.9,14.5,16.3c0.2,0.2,0.4,0.4,0.5,0.6c1.7,2.1,4,4.9,6.8,6c-6.5-9.8-5.7-21.1-0.3-30.8
		c0.2-0.4,0.4-0.8,0.7-1.2c3.1-3.7,5.1-8.1,5-12.7c0-0.4,0-0.8-0.1-1.1c-0.2-1.2,0.3-2.3-0.8-3.5c12.3,5.6,17.9,24,10.6,34.7
		c-4,6.5-7.6,14-4.7,20.7c0.2,0.4,0.3,0.7,0.5,1.1c10.9,16.1,26,28.4,39,42.3c0.3,0.3,0.6,0.6,1,0.9c4.8,4.7,9.7,9.3,14.6,14.1
		c0.2,0.2,0.4,0.4,0.7,0.7c0.2,0.2,0.5,0.5,0.7,0.7c0.3,0.3,0.6,0.6,0.9,0.9c8.6,7.5,17,16.2,26.9,22.1c0.4,0.2,0.7,0.4,1.1,0.6
		c10.3,5.8,29.3,10.3,33.2-4.8c-1-0.2-2.1-0.3-3.1-0.5c-0.4,0-0.7-0.1-1.1-0.1c-8.1-1.1-9.8-11.1-5.9-16.7c0.7-1,1.4-2.1,2.1-3.2
		c0.2-0.4,0.5-0.7,0.7-1.1c0.2-0.3,0.4-0.6,0.6-0.9c0.2-0.3,0.4-0.6,0.6-0.9c1.7-2.4,3.9-5.1,5.7-7.6c0.2-0.3,0.5-0.5,0.7-0.8
		c0.3-0.3,0.6-0.6,1-0.9c0.3-0.3,0.7-0.6,1-0.9c0,1.7,0,3.4,0.1,5.2c0,0.3,0,0.7,0,1.1c0,18.8,0,75.2,0,75.2s-58.8,0.5-77.7,0.7
		c-0.4,0-0.7,0-1,0c-1.9-0.1-3-0.1-4.4-0.3L-1121.1,1543.6L-1121.1,1543.6z"></path>
	<path class="ladsvg-4578-st2" d="M-1121.1,1543.6c1.2-1,2.5-2.1,3.7-3.2c0.3-0.3,0.6-0.6,0.9-0.9c4.4-3.7,8.9-8.1,15-8.7
		c3.5-0.3,7.4,1,10.3,3.4c0.3,0.3,0.6,0.6,0.9,0.9c2.7,1.9,3.3,4.7,3.9,7.5c6.5-2.6,8.4-7.2,8.2-12.5c0-0.4,0-0.8-0.1-1.2
		c-1.7-14.6-10.3-26.4-19.9-37.2c-0.3-0.3-0.6-0.7-0.9-1c-13.4-15.6-28.8-29.7-43.3-44.3c-0.3-0.3-0.6-0.6-0.9-1
		c-4-4-7.9-7.9-12-12.3c-0.3-0.3-0.6-0.6-0.8-0.8c-5.1-5.5-14.1-11.6-21.9-7.1c-8.8,4.8-18.3,9.7-27.6,8c-0.4-0.1-0.8-0.2-1.3-0.3
		c-6.1-1.3-9.8-4.8-13.1-9.1c-0.3-0.3-0.5-0.7-0.7-1c-0.4-0.4-0.9-0.9-1.5-2.1c3.4,1.7,7.3,1.7,10.6,0c7.1-4.6,14.8-8.8,22.7-9.3
		c0.4,0,0.8-0.1,1.2-0.1c2.9-0.1,5.7,0.5,8.7,1.5c0.4,0.2,0.8,0.3,1.2,0.5c0.8,0.4,1.6,0.8,2.5,1.3c-0.5-0.8-20.2-22-20.2-22h-0.8
		c0,0-0.4,0.2-0.8,0.3c-2.4,1.5-5.1,2.4-7.9,2.7c-0.4,0-0.8,0.1-1.2,0.1c-9.2,1.7-14.9-5.4-18.9-13.1c-0.2-0.4-0.4-0.8-0.6-1.2
		c-2.2-8.2-10.5-16-20-12.7c-0.3,0-0.6-0.3-0.8-0.6c-0.2-0.4-0.3-0.8-0.2-1.1c0-0.3,0-0.6,0-0.9c0-0.3,0-0.6,0.1-0.9
		c0.3-3.1,3.1-6.5,7.1-5.5c0.3,0,0.7,0,1,0c0.3,0,0.7,0.1,1,0.1c0.5-0.1,1-0.2,1-0.2l1.7-0.3l0.5-1.7l-0.3-1.9v-1.9v-1.5
		c0,0,0.1-0.5,0.2-0.9c0.1-0.5,0.2-0.8,0.3-1.1c0.2-0.3,0.4-0.5,0.6-0.7c1.2-0.8,2.6-0.9,4-0.8c0.5,0,0.9,0.1,1.4,0.1
		c0.8,0.3,1.9,0.9,2.5,0.3c0.2-0.4,0.4-0.7,0.6-1.1c0.2-0.4,0.3-0.8,0.5-1.2c0.2-0.8,0.3-1.6,0.5-2.4c0.1-0.3,0.1-0.5,0.2-0.7
		c0.1-0.3,0.3-0.6,0.4-0.9c0.1-0.3,0.3-0.6,0.4-0.9c0.4-0.9,1-1.7,1.7-2.5c0.2-0.3,0.5-0.5,0.7-0.7c1.2-1.8,3.4-2.4,5.1-1.8
		c-0.1,0.7-0.2,1.4-0.2,2c0,0.4,0.1,0.8,0.1,1.1c0,0.4,0,0.7,0.1,1.1c0.1,3.6,0.1,6.4,2.3,9.4c0.2,0.2,0.3,0.4,0.5,0.6
		c0.4,0.4,0.8,0.8,1.2,1.1c0.3,0.3,0.6,0.6,1,0.8c5.8,4.8,13.6,6.8,18.8,13.3c0.2,0.3,0.4,0.7,0.6,1c3.3,5.9,2.4,13.9-0.6,20
		c0,0-0.1,0.4-0.3,0.8c-0.1,0.3,8.7,9.9,14.5,16.3c0.2,0.2,0.4,0.4,0.5,0.6c1.7,2.1,4,4.9,6.8,6c-6.5-9.8-5.7-21.1-0.3-30.8
		c0.2-0.4,0.4-0.8,0.7-1.2c3.1-3.7,5.1-8.1,5-12.7c0-0.4,0-0.8-0.1-1.1c-0.2-1.2,0.3-2.3-0.8-3.5c12.3,5.6,17.9,24,10.6,34.7
		c-4,6.5-7.6,14-4.7,20.7c0.2,0.4,0.3,0.7,0.5,1.1c10.9,16.1,26,28.4,39,42.3c0.3,0.3,0.6,0.6,1,0.9c4.8,4.7,9.7,9.3,14.6,14.1
		c0.2,0.2,0.4,0.4,0.7,0.7c0.2,0.2,0.5,0.5,0.7,0.7c0.3,0.3,0.6,0.6,0.9,0.9c8.6,7.5,17,16.2,26.9,22.1c0.4,0.2,0.7,0.4,1.1,0.6
		c10.3,5.8,29.3,10.3,33.2-4.8c-1-0.2-2.1-0.3-3.1-0.5c-0.4,0-0.7-0.1-1.1-0.1c-8.1-1.1-9.8-11.1-5.9-16.7c0.7-1,1.4-2.1,2.1-3.2
		c0.2-0.4,0.5-0.7,0.7-1.1c0.2-0.3,0.4-0.6,0.6-0.9c0.2-0.3,0.4-0.6,0.6-0.9c1.7-2.4,3.9-5.1,5.7-7.6c0.2-0.3,0.5-0.5,0.7-0.8
		c0.3-0.3,0.6-0.6,1-0.9c0.3-0.3,0.7-0.6,1-0.9c0,1.7,0,3.4,0.1,5.2c0,0.3,0,0.7,0,1.1c0,18.8,0,75.2,0,75.2s-58.8,0.5-77.7,0.7
		c-0.4,0-0.7,0-1,0c-1.9-0.1-3-0.1-4.4-0.3L-1121.1,1543.6L-1121.1,1543.6z"></path>
	<path class="ladsvg-4578-st1" d="M-1291,1292.1c0,0,77.4,0,99.3,0c0.3,0,0.6,0,0.9,0c1.5,0,3.8,0,5.5,0c-1.1,1.1-1.7,2.8-0.6,2.8
		c16.8,6.1,33,11.7,49.1,18.8c0.2,0.1,0.4,0.1,0.4,0.1s0.1,0.1,0.4,0.2c0.2,0.1,0.6,0.2,1,0.4c14.4,6,28.6,12.6,41.2,21.5
		c0.4,0.3,0.7,0.5,1.1,0.8c7.4,5.3,14.8,11.6,20.6,18.9c0.3,0.3,0.6,0.7,0.8,1c3.3,4.2,6.1,8.7,8.1,13.5c0.2,0.4,0.3,0.8,0.5,1.2
		c4.8,12.2,3.9,27.5-7.5,35.9c-7.8,5.6-17.9,7.3-25.7,3.9c-17.9-7.3-19-27.4-20.1-45.3c-0.6-3.4-6.7-1.7-8.4,0.6
		c-8.9,10.6-9.5,25.2-7.3,39.1c4.5,23.5,27.4,40.8,50.9,33.5c28-9.5,34.5-41.3,26.9-66.6c-0.1-0.4-0.3-0.9-0.4-1.3
		c-5.2-15.2-13.9-29-17.7-44.6c-0.1-0.4-0.2-0.9-0.3-1.3c-2.9-10.1-0.1-21.9,8.9-27.5c5.2-3.6,11.1-3.5,16.2-1.2
		c0.4,0.2,0.8,0.4,1.2,0.6c2.7,1.7,6.1,3.9,6.9,7.3c0.2,0.6,0.5,1.1,0.5,1.1s0,1.2,0,2.7c0,0.8,0,1.6,0,2.5c-0.2,3.2,0.4,7.1-3,8.8
		c-0.8-2.5-2.4-4.5-4.3-5.6c-0.5-0.3-1-0.5-1.5-0.7c-6.1-2.1-10.7,1.9-12.6,7.2c-0.2,0.7-0.4,1.3-0.6,2c-0.8,3.1-0.8,6.2-0.3,9.2
		c0.1,0.6,0.2,1.2,0.3,1.8c0.4,1.4,0.8,2.8,1.3,4.3c0.4,1.4,0.9,2.8,1.3,4.2c0.3,1.1,0.7,2.3,1.1,3.4c0.2,0.6,0.4,1.1,0.6,1.7
		c0.8,2.5,1.7,4.8,2.6,7.2c0.2,0.6,0.5,1.2,0.7,1.8c3.8,9.3,7.1,18.9,9.3,28.7c0.2,0.8,0.3,1.5,0.5,2.3c0.7,4.5,1.3,8.9,1.7,13.3
		c0.1,0.7,0.1,1.5,0.2,2.2c0.3,3.7,0.5,7.5,0.6,11.2c0,0.7,0,1.5,0,2.2c-0.3,7.9-0.4,16.2-1.7,24.2c-0.1,0.7-0.3,1.5-0.4,2.2
		c-0.1,0.6-0.2,1.2-0.4,1.8c-0.1,0.6-0.3,1.2-0.4,1.8c-0.2,0.7-0.4,1.4-0.6,2.2c-1.2,4.9-3.5,9.6-6.8,13.4c-0.5,0.5-1,1.1-1.5,1.6
		c-10.3,9.1-25.5,12.3-38.5,7.8c-0.7-0.2-1.4-0.5-2.1-0.8c-3.5-1.5-6.7-3.4-9.8-5.6c-0.6-0.4-1.2-0.9-1.8-1.3
		c-3-2.2-5.8-4.6-8.3-7.1c-0.5-0.5-1-1-1.6-1.6c-5.7-5.5-10.3-11.9-14.2-18.8c-0.2-0.3-0.4-0.6-0.5-0.9
		c-6.8-11.6-12.3-24.4-15.4-37.8c-0.1-0.4-0.2-0.9-0.3-1.3c-2.1-8.2-3.3-16.6-3.4-25.1c0-0.4,0-0.8,0-1.3c0-0.7,0-1.5,0-2.2
		c0-4.8,0.8-10,2.6-14.8c0.3-0.7,0.5-1.4,0.8-2.1c0.9-2.4,2.2-4.6,3.8-6.5c0.2-0.3,0.5-0.5,0.7-0.8c5-4.6,10.6-7.4,17.2-5.2
		c0.4,0.1,0.8,0.2,1.2,0.4c3.4,1.3,6.4,3.7,8.5,7c2.7,4,3.8,8,4.6,12.2c0.1,0.7,0.3,1.4,0.4,2.1c1.1,6.9,2.3,13.6,6.2,19.2
		c2.8,3.4,7.8,3.9,11.2,0.6c6.7-7.3,2.8-17.9-2.3-24.8c-0.4-0.6-0.9-1.3-1.3-1.9c-7-9.7-16.8-17.4-27.2-23.5c-0.6-0.4-1.3-0.8-2-1.1
		c-14.2-7.9-29.3-12.9-44.6-18.1c-0.8-0.2-1.5-0.4-2.2-0.6c-1.4-0.4-2.4-0.7-2.4-0.7s-0.3-0.1-0.7-0.2c-5.7-1.8-11.2-3.4-17.2-3.4
		c-0.4,0-0.7,0-1.1,0c-0.4,0.1-0.7,0.1-1,0.2c-0.3,0.1-0.5,0.1-0.5,0.1l-0.9,0.9v1.2l0.9,1.2c0,0,0.5,0.4,1,0.8
		c9.8,5.6,17.6,16.2,16.5,28c-0.5,6.1-3.6,12.9-9.5,15.3c-0.4,0.2-0.8,0.3-1.2,0.4c-1,0.5-2.7,0.5-2.1-0.1c1.1-3.9,0-8.4-3.4-11.2
		c-4.5-3.2-9.1-5.6-12.9-9c-0.3-0.3-0.6-0.5-0.9-0.8c-6.3-5.2-8.5-14.6-5-21.1c0.2-0.4,0.4-0.7,0.6-1.1c1.4-2.6,3.7-4.9,6.8-5.2
		c0.2-0.1,0.5-0.2,0.7-0.2c-0.2-0.3-0.4-0.7-0.7-0.9c-2.4-1.5-5-2.8-7.6-3.8c-0.4-0.1-0.8-0.3-1.1-0.4c-6.9-3.1-15.3-3.7-22.3-1
		c-0.3,0.1-0.6,0.1-0.8,0.1c0.1,0.8,0.2,1.6,0.3,2.4c0,0.4,0.1,0.8,0.1,1.2c1.3,8.7-3.2,16-8.8,22.7c-2.8,3.4-3.4,7.3-3.4,11.7
		c0,0.6-1.7,0.6-2,0.7c-0.4,0-0.7,0-1.1,0c-1.1-0.1-2.2-0.1-3.1,0.5c-10.5,7.2-20.6,16.7-34,13.3c0,2.2-0.6,4.5-0.4,6.8
		c0,0.4,0,0.9,0,1.3c0.2,7.5,2.1,14.9,6,21c2.2,2.8,3.4-3.9,6.3-5.4c0.3-0.3,0.7-0.5,1-0.8c6.6-4.3,16.6-2.4,22.3,3.3
		c5,5.6,8.4,14,16.1,17c0.3,0.1,0.4,0.1,0.4,0.1s0.7,0.1,1.4,0.2c1.1,0.6,3.9-0.5,3.3,0.6c-2.8,12.3-19,13.4-29.1,9.5
		c-6.1-2.8-9.5-8.4-14.4-12.9c-0.3-0.3-0.6-0.5-0.9-0.7c-0.9-0.6-1.6-0.7-2,0.2c-0.2,0.3-0.3,0.6-0.5,1c-0.1,0.3-0.3,0.7-0.4,1
		c-0.8,3-0.8,5.3-0.6,8.1c0.1,0.4,0.1,0.8,0.2,1.2c0.4,2.5,1.2,5,2.1,7.4c0.1,0.4,0.3,0.8,0.4,1.2c0.1,0.4,0.3,0.8,0.4,1.2
		c0.1,0.4,0.2,0.8,0.4,1.2c5,16.7,10.9,35.5,20.2,51.1c0.2,0.4,0.5,0.8,0.7,1.2c2.2,4.2,5,7.5,8,11.1c0.3,0.3,0.6,0.7,0.9,1
		c8,9.1,18,16,30.8,18.9c0.4,0,0.9,0,1.3,0c6-0.2,11.3-3.2,11-10.7c0-5-6.1-7.3-10.8-7.5c-0.4-0.1-0.9-0.2-1.3-0.3
		c-3.8-0.8-7.8-1.3-11.6-2.1c-0.4-0.1-0.8-0.2-1.3-0.3c-12-2.1-25.4-14.4-18.7-27.4c0.2-0.4,0.5-0.7,0.7-1.1c0.2-0.3,0.5-0.7,0.8-1
		c15-11.5,35.1-10.3,53.3-6.8c0.4,0.1,0.9,0.2,1.3,0.3c10.4,2.2,20.9,5.4,30.6,9.9c0.4,0.2,0.8,0.4,1.2,0.6
		c12.1,6.4,23.3,15,33.1,24.9c0.3,0.3,0.6,0.6,0.9,1c5.6,5.6,10.3,12.4,13,19.9c0.1,0.4,0.3,0.8,0.4,1.2c3.8,12.3-0.1,28-11.1,34.8
		c-0.3,0.3-0.7,0.5-1,0.8c-10.1,7.1-22.5,9.8-34.5,11.4c-0.3,0-0.8,0-1.2,0c-2.8,0-7.5,0-10.3,0c-0.4,0-0.7,0-1,0
		c-6.4,0-12.5-0.6-18.8-1c-0.5,0-0.9-0.1-1.3-0.1c-6.6-0.8-13.1-2.3-19.4-4.3c-0.4-0.1-0.8-0.3-1.3-0.4c-9.7-3.1-19.2-7.6-28.3-12.1
		c-0.4-0.2-0.8-0.4-1.2-0.5c-7.5-3.3-16.7-5.9-23.3-3.3c-0.4,0.1-0.7,0.3-1.1,0.5c-1.8,0.8-3.1,1.9-4,3.1c-0.2,0.3-0.5,0.6-0.6,0.9
		c-0.4,0.7-0.8,1.3-1.1,2c-0.1,0.4-0.3,0.7-0.4,1.1c-1.2,3-0.6,7,2,9.2c0.2,0.2,0.5,0.3,0.7,0.5c0.4,0.2,0.8,0.3,1.1,0.5
		c0.6,0.6,1.8,0.6,1.2,1.7c-1.7,2.2-4.5,2.2-7.3,2.3c-0.2,0-0.5,0-0.7,0c-1.2,0-2.5,0-3.7,0c-0.4,0-0.7,0-1.1,0
		c-3.4,0.5-6.2-1.8-8.4-4.6c-3.4-5.6-4.5-11.7-0.6-17.3c5-6.6,12.5-9.7,20.1-10c0.4,0,0.9,0,1.3,0c10.2,0.4,19.4,4.2,28.6,8.1
		c0.4,0.2,0.8,0.3,1.2,0.5c14.7,6,30.5,13.6,46.9,13.3c0.4,0,0.9,0,1.3,0c11.1,0,22.1-4.1,30.3-11.4c0.3-0.3,0.7-0.6,1-0.9
		c10.4-9.9,16-25.7,12.3-39.6c-0.1-0.4-0.2-0.9-0.4-1.3c-5.7-18.3-25.8-29-44.3-30.1c-10.3-0.5-21.6,1.8-30,8.1
		c-0.4,0.3-0.7,0.5-1,0.8s-0.7,0.6-1,0.9c-0.5,0.4-0.9,0.9-0.9,0.9s0,0.2-0.1,0.5c-2,3.8,0.9,6.3,4.4,7c0.4,0.1,0.8,0.1,1.2,0.2
		c15.6-1.4,32.5,2.7,41.6,15.5c0.3,0.4,0.5,0.7,0.8,1.1c4.8,7,5.9,16,2.6,23.8c-10.2,20.5-35.5,17.5-52.2,6
		c-0.4-0.3-0.8-0.5-1.1-0.8c-6.4-4.1-12-10.3-17.2-16.2c-0.2-0.2-0.4-0.4-0.5-0.6c-0.3-0.4-0.6-0.7-0.8-1c-2.2-2.9-4.4-5.9-6.6-9
		c-0.2-0.3-0.5-0.7-0.7-1c-7.4-11.6-13.6-24.4-19.6-37.4c-0.2-0.4-0.3-0.8-0.5-1.3c-3.5-8.8-6-18-9.1-26.7c-0.1-0.2-0.1-0.5-0.2-0.7
		c-0.5-1.7-1.1-3.8-1.1-3.8l-1.6-5.6l-1.4-4.7l-0.7-2.7l-0.9-2.1l-0.9-0.7l-1,0.1l-1.3,0.5l-1,0.5h-0.7v-5V1292.1L-1291,1292.1z"></path>
	<path class="ladsvg-4578-st3" d="M-1291,1292.1c0,0,77.4,0,99.3,0c0.3,0,0.6,0,0.9,0c1.5,0,3.8,0,5.5,0c-1.1,1.1-1.7,2.8-0.6,2.8
		c16.8,6.1,33,11.7,49.1,18.8c0.2,0.1,0.4,0.1,0.4,0.1s0.1,0.1,0.4,0.2c0.2,0.1,0.6,0.2,1,0.4c14.4,6,28.6,12.6,41.2,21.5
		c0.4,0.3,0.7,0.5,1.1,0.8c7.4,5.3,14.8,11.6,20.6,18.9c0.3,0.3,0.6,0.7,0.8,1c3.3,4.2,6.1,8.7,8.1,13.5c0.2,0.4,0.3,0.8,0.5,1.2
		c4.8,12.2,3.9,27.5-7.5,35.9c-7.8,5.6-17.9,7.3-25.7,3.9c-17.9-7.3-19-27.4-20.1-45.3c-0.6-3.4-6.7-1.7-8.4,0.6
		c-8.9,10.6-9.5,25.2-7.3,39.1c4.5,23.5,27.4,40.8,50.9,33.5c28-9.5,34.5-41.3,26.9-66.6c-0.1-0.4-0.3-0.9-0.4-1.3
		c-5.2-15.2-13.9-29-17.7-44.6c-0.1-0.4-0.2-0.9-0.3-1.3c-2.9-10.1-0.1-21.9,8.9-27.5c5.2-3.6,11.1-3.5,16.2-1.2
		c0.4,0.2,0.8,0.4,1.2,0.6c2.7,1.7,6.1,3.9,6.9,7.3c0.2,0.6,0.5,1.1,0.5,1.1s0,1.2,0,2.7c0,0.8,0,1.6,0,2.5c-0.2,3.2,0.4,7.1-3,8.8
		c-0.8-2.5-2.4-4.5-4.3-5.6c-0.5-0.3-1-0.5-1.5-0.7c-6.1-2.1-10.7,1.9-12.6,7.2c-0.2,0.7-0.4,1.3-0.6,2c-0.8,3.1-0.8,6.2-0.3,9.2
		c0.1,0.6,0.2,1.2,0.3,1.8c0.4,1.4,0.8,2.8,1.3,4.3c0.4,1.4,0.9,2.8,1.3,4.2c0.3,1.1,0.7,2.3,1.1,3.4c0.2,0.6,0.4,1.1,0.6,1.7
		c0.8,2.5,1.7,4.8,2.6,7.2c0.2,0.6,0.5,1.2,0.7,1.8c3.8,9.3,7.1,18.9,9.3,28.7c0.2,0.8,0.3,1.5,0.5,2.3c0.7,4.5,1.3,8.9,1.7,13.3
		c0.1,0.7,0.1,1.5,0.2,2.2c0.3,3.7,0.5,7.5,0.6,11.2c0,0.7,0,1.5,0,2.2c-0.3,7.9-0.4,16.2-1.7,24.2c-0.1,0.7-0.3,1.5-0.4,2.2
		c-0.1,0.6-0.2,1.2-0.4,1.8c-0.1,0.6-0.3,1.2-0.4,1.8c-0.2,0.7-0.4,1.4-0.6,2.2c-1.2,4.9-3.5,9.6-6.8,13.4c-0.5,0.5-1,1.1-1.5,1.6
		c-10.3,9.1-25.5,12.3-38.5,7.8c-0.7-0.2-1.4-0.5-2.1-0.8c-3.5-1.5-6.7-3.4-9.8-5.6c-0.6-0.4-1.2-0.9-1.8-1.3
		c-3-2.2-5.8-4.6-8.3-7.1c-0.5-0.5-1-1-1.6-1.6c-5.7-5.5-10.3-11.9-14.2-18.8c-0.2-0.3-0.4-0.6-0.5-0.9
		c-6.8-11.6-12.3-24.4-15.4-37.8c-0.1-0.4-0.2-0.9-0.3-1.3c-2.1-8.2-3.3-16.6-3.4-25.1c0-0.4,0-0.8,0-1.3c0-0.7,0-1.5,0-2.2
		c0-4.8,0.8-10,2.6-14.8c0.3-0.7,0.5-1.4,0.8-2.1c0.9-2.4,2.2-4.6,3.8-6.5c0.2-0.3,0.5-0.5,0.7-0.8c5-4.6,10.6-7.4,17.2-5.2
		c0.4,0.1,0.8,0.2,1.2,0.4c3.4,1.3,6.4,3.7,8.5,7c2.7,4,3.8,8,4.6,12.2c0.1,0.7,0.3,1.4,0.4,2.1c1.1,6.9,2.3,13.6,6.2,19.2
		c2.8,3.4,7.8,3.9,11.2,0.6c6.7-7.3,2.8-17.9-2.3-24.8c-0.4-0.6-0.9-1.3-1.3-1.9c-7-9.7-16.8-17.4-27.2-23.5c-0.6-0.4-1.3-0.8-2-1.1
		c-14.2-7.9-29.3-12.9-44.6-18.1c-0.8-0.2-1.5-0.4-2.2-0.6c-1.4-0.4-2.4-0.7-2.4-0.7s-0.3-0.1-0.7-0.2c-5.7-1.8-11.2-3.4-17.2-3.4
		c-0.4,0-0.7,0-1.1,0c-0.4,0.1-0.7,0.1-1,0.2c-0.3,0.1-0.5,0.1-0.5,0.1l-0.9,0.9v1.2l0.9,1.2c0,0,0.5,0.4,1,0.8
		c9.8,5.6,17.6,16.2,16.5,28c-0.5,6.1-3.6,12.9-9.5,15.3c-0.4,0.2-0.8,0.3-1.2,0.4c-1,0.5-2.7,0.5-2.1-0.1c1.1-3.9,0-8.4-3.4-11.2
		c-4.5-3.2-9.1-5.6-12.9-9c-0.3-0.3-0.6-0.5-0.9-0.8c-6.3-5.2-8.5-14.6-5-21.1c0.2-0.4,0.4-0.7,0.6-1.1c1.4-2.6,3.7-4.9,6.8-5.2
		c0.2-0.1,0.5-0.2,0.7-0.2c-0.2-0.3-0.4-0.7-0.7-0.9c-2.4-1.5-5-2.8-7.6-3.8c-0.4-0.1-0.8-0.3-1.1-0.4c-6.9-3.1-15.3-3.7-22.3-1
		c-0.3,0.1-0.6,0.1-0.8,0.1c0.1,0.8,0.2,1.6,0.3,2.4c0,0.4,0.1,0.8,0.1,1.2c1.3,8.7-3.2,16-8.8,22.7c-2.8,3.4-3.4,7.3-3.4,11.7
		c0,0.6-1.7,0.6-2,0.7c-0.4,0-0.7,0-1.1,0c-1.1-0.1-2.2-0.1-3.1,0.5c-10.5,7.2-20.6,16.7-34,13.3c0,2.2-0.6,4.5-0.4,6.8
		c0,0.4,0,0.9,0,1.3c0.2,7.5,2.1,14.9,6,21c2.2,2.8,3.4-3.9,6.3-5.4c0.3-0.3,0.7-0.5,1-0.8c6.6-4.3,16.6-2.4,22.3,3.3
		c5,5.6,8.4,14,16.1,17c0.3,0.1,0.4,0.1,0.4,0.1s0.7,0.1,1.4,0.2c1.1,0.6,3.9-0.5,3.3,0.6c-2.8,12.3-19,13.4-29.1,9.5
		c-6.1-2.8-9.5-8.4-14.4-12.9c-0.3-0.3-0.6-0.5-0.9-0.7c-0.9-0.6-1.6-0.7-2,0.2c-0.2,0.3-0.3,0.6-0.5,1c-0.1,0.3-0.3,0.7-0.4,1
		c-0.8,3-0.8,5.3-0.6,8.1c0.1,0.4,0.1,0.8,0.2,1.2c0.4,2.5,1.2,5,2.1,7.4c0.1,0.4,0.3,0.8,0.4,1.2c0.1,0.4,0.3,0.8,0.4,1.2
		c0.1,0.4,0.2,0.8,0.4,1.2c5,16.7,10.9,35.5,20.2,51.1c0.2,0.4,0.5,0.8,0.7,1.2c2.2,4.2,5,7.5,8,11.1c0.3,0.3,0.6,0.7,0.9,1
		c8,9.1,18,16,30.8,18.9c0.4,0,0.9,0,1.3,0c6-0.2,11.3-3.2,11-10.7c0-5-6.1-7.3-10.8-7.5c-0.4-0.1-0.9-0.2-1.3-0.3
		c-3.8-0.8-7.8-1.3-11.6-2.1c-0.4-0.1-0.8-0.2-1.3-0.3c-12-2.1-25.4-14.4-18.7-27.4c0.2-0.4,0.5-0.7,0.7-1.1c0.2-0.3,0.5-0.7,0.8-1
		c15-11.5,35.1-10.3,53.3-6.8c0.4,0.1,0.9,0.2,1.3,0.3c10.4,2.2,20.9,5.4,30.6,9.9c0.4,0.2,0.8,0.4,1.2,0.6
		c12.1,6.4,23.3,15,33.1,24.9c0.3,0.3,0.6,0.6,0.9,1c5.6,5.6,10.3,12.4,13,19.9c0.1,0.4,0.3,0.8,0.4,1.2c3.8,12.3-0.1,28-11.1,34.8
		c-0.3,0.3-0.7,0.5-1,0.8c-10.1,7.1-22.5,9.8-34.5,11.4c-0.3,0-0.8,0-1.2,0c-2.8,0-7.5,0-10.3,0c-0.4,0-0.7,0-1,0
		c-6.4,0-12.5-0.6-18.8-1c-0.5,0-0.9-0.1-1.3-0.1c-6.6-0.8-13.1-2.3-19.4-4.3c-0.4-0.1-0.8-0.3-1.3-0.4c-9.7-3.1-19.2-7.6-28.3-12.1
		c-0.4-0.2-0.8-0.4-1.2-0.5c-7.5-3.3-16.7-5.9-23.3-3.3c-0.4,0.1-0.7,0.3-1.1,0.5c-1.8,0.8-3.1,1.9-4,3.1c-0.2,0.3-0.5,0.6-0.6,0.9
		c-0.4,0.7-0.8,1.3-1.1,2c-0.1,0.4-0.3,0.7-0.4,1.1c-1.2,3-0.6,7,2,9.2c0.2,0.2,0.5,0.3,0.7,0.5c0.4,0.2,0.8,0.3,1.1,0.5
		c0.6,0.6,1.8,0.6,1.2,1.7c-1.7,2.2-4.5,2.2-7.3,2.3c-0.2,0-0.5,0-0.7,0c-1.2,0-2.5,0-3.7,0c-0.4,0-0.7,0-1.1,0
		c-3.4,0.5-6.2-1.8-8.4-4.6c-3.4-5.6-4.5-11.7-0.6-17.3c5-6.6,12.5-9.7,20.1-10c0.4,0,0.9,0,1.3,0c10.2,0.4,19.4,4.2,28.6,8.1
		c0.4,0.2,0.8,0.3,1.2,0.5c14.7,6,30.5,13.6,46.9,13.3c0.4,0,0.9,0,1.3,0c11.1,0,22.1-4.1,30.3-11.4c0.3-0.3,0.7-0.6,1-0.9
		c10.4-9.9,16-25.7,12.3-39.6c-0.1-0.4-0.2-0.9-0.4-1.3c-5.7-18.3-25.8-29-44.3-30.1c-10.3-0.5-21.6,1.8-30,8.1
		c-0.4,0.3-0.7,0.5-1,0.8s-0.7,0.6-1,0.9c-0.5,0.4-0.9,0.9-0.9,0.9s0,0.2-0.1,0.5c-2,3.8,0.9,6.3,4.4,7c0.4,0.1,0.8,0.1,1.2,0.2
		c15.6-1.4,32.5,2.7,41.6,15.5c0.3,0.4,0.5,0.7,0.8,1.1c4.8,7,5.9,16,2.6,23.8c-10.2,20.5-35.5,17.5-52.2,6
		c-0.4-0.3-0.8-0.5-1.1-0.8c-6.4-4.1-12-10.3-17.2-16.2c-0.2-0.2-0.4-0.4-0.5-0.6c-0.3-0.4-0.6-0.7-0.8-1c-2.2-2.9-4.4-5.9-6.6-9
		c-0.2-0.3-0.5-0.7-0.7-1c-7.4-11.6-13.6-24.4-19.6-37.4c-0.2-0.4-0.3-0.8-0.5-1.3c-3.5-8.8-6-18-9.1-26.7c-0.1-0.2-0.1-0.5-0.2-0.7
		c-0.5-1.7-1.1-3.8-1.1-3.8l-1.6-5.6l-1.4-4.7l-0.7-2.7l-0.9-2.1l-0.9-0.7l-1,0.1l-1.3,0.5l-1,0.5h-0.7v-5V1292.1L-1291,1292.1z"></path>
	<path class="ladsvg-4578-st0" d="M-1261.3,1322.9c2,0.6,4.6,0.4,6.6-0.2c0.3-0.1,0.5-0.3,0.7-0.5s0.5-0.4,0.7-0.6c0.7-0.7,1.3-1.4,1.9-2.3
		c0.2-0.3,0.3-0.6,0.5-1c0.3-0.7,0.6-1.3,0.7-2c0.1-0.4,0.3-0.9,0.4-1.3c0.9-4,0.1-8.4-2.8-11.8c-4-4.3-8.6-4-13.3-2.7
		c-0.5,0.1-0.9,0.3-1.4,0.4c-1.8,0.5-3.5,1.2-5.3,1.8c-0.4,0.1-0.9,0.3-1.3,0.4c-2,0.9-4.1,1-6.3,1.1c0.5,2.9,0.6,5.8,0.5,8.7
		c0,0.5,0,1-0.1,1.5c-0.5,7.3-3.8,16.8,4.1,21.9c3.3,2.1,7.4,2.2,10.7,0.2c0.4-0.2,0.7-0.5,1-0.7c3-2.8,2.8-7,2.6-10.3
		c0-0.4,0-0.8-0.1-1.1c0-0.4-0.1-0.7-0.1-1.1C-1261.4,1323-1261.3,1322.9-1261.3,1322.9z"></path>
</g>
<g id="Camada_1">
</g>
</svg>