<svg version="1.1" id="Camada_1" xmlns:x="&amp;ns_extend;" xmlns:i="&amp;ns_ai;" xmlns:graph="&amp;ns_graphs;" xmlns="http://www.w3.org/2000/svg" xmlns:xlink="http://www.w3.org/1999/xlink" x="0px" y="0px" viewBox="-1291 1292.1 252.6 252.6" style="enable-background:new -1291 1292.1 252.6 252.6;" xml:space="preserve">
<style type="text/css">
	.ladsvg-4945-st0{fill:#005177;}
	.ladsvg-4945-st1{fill:none;}
	.ladsvg-4945-st2{fill:#F5F4F4;}
	.ladsvg-4945-st3{fill:#FFFFFF;}
</style>
<switch>
	
	<g i:extraneous="self">
		<rect x="-1291" y="1291.7" class="ladsvg-4945-st0" width="252.8" height="252.9"></rect>
		<rect x="-1291" y="1291.7" class="ladsvg-4945-st1" width="252.8" height="252.9"></rect>
		<path class="ladsvg-4945-st2" d="M-1063.5,1291.7L-1063.5,1291.7c0.7,3.4,2.2,24.3,25.3,25.8v61.6l-2.7,1.5c-7.1,5.4-7.3,17.5-7.3,17.5
			c-44.8-35.8-103.2,7.5-103.2,7.5c55.5-60.1,89.6-25.6,89.6-25.6c15.6-18.7-15.8-32.1-15.8-32.1l0.5-0.7
			c10.5-2.9,11.4-9.5,11.4-9.5c-1.5-13.1,0.5-20,0.5-20c-1.7-0.5-10.7-3.4-10.7-3.4c-18.7-5.1-24.1,11.4-24.1,11.4
			c-14.6-29.7-29.7-11.4-29.7-11.4c33.8,28-24.6,87.4-24.6,87.4s46.7-55.5,8.3-103.7c0,0,11.2,2.4,20-6.8L-1063.5,1291.7"></path>
		<path class="ladsvg-4945-st1" d="M-1063.5,1291.7L-1063.5,1291.7c0.7,3.4,2.2,24.3,25.3,25.8v61.6l-2.7,1.5c-7.1,5.4-7.3,17.5-7.3,17.5
			c-44.8-35.8-103.2,7.5-103.2,7.5c55.5-60.1,89.6-25.6,89.6-25.6c15.6-18.7-15.8-32.1-15.8-32.1l0.5-0.7
			c10.5-2.9,11.4-9.5,11.4-9.5c-1.5-13.1,0.5-20,0.5-20c-1.7-0.5-10.7-3.4-10.7-3.4c-18.7-5.1-24.1,11.4-24.1,11.4
			c-14.6-29.7-29.7-11.4-29.7-11.4c33.8,28-24.6,87.4-24.6,87.4s46.7-55.5,8.3-103.7c0,0,11.2,2.4,20-6.8L-1063.5,1291.7"></path>
		<path class="ladsvg-4945-st0" d="M-1063.5,1291.7h25.3v25.8C-1038.9,1317.5-1060.5,1317.7-1063.5,1291.7"></path>
		<path class="ladsvg-4945-st1" d="M-1063.5,1291.7h25.3v25.8C-1038.9,1317.5-1060.5,1317.7-1063.5,1291.7z"></path>
		<path class="ladsvg-4945-st2" d="M-1265.7,1544.3L-1265.7,1544.3c-0.7-3.4-2.2-24.3-25.3-25.8v-61.6l2.7-1.5c7.1-5.1,7.3-17.5,7.3-17.5
			c44.8,35.8,103.2-7.5,103.2-7.5c-55.5,60.1-89.6,25.6-89.6,25.6c-15.6,18.7,15.8,32.1,15.8,32.1l-0.5,0.7
			c-10.5,2.9-11.4,9.5-11.4,9.5c1.5,13.1-0.5,20-0.5,20c1.7,0.5,10.7,3.4,10.7,3.4c18.7,5.1,24.1-11.4,24.1-11.4
			c14.6,29.7,29.7,11.4,29.7,11.4c-33.8-28,24.6-87.4,24.6-87.4s-46.7,55.5-8.3,103.7c0,0-11.2-2.4-20,6.8L-1265.7,1544.3"></path>
		<path class="ladsvg-4945-st1" d="M-1265.7,1544.3L-1265.7,1544.3c-0.7-3.4-2.2-24.3-25.3-25.8v-61.6l2.7-1.5c7.1-5.1,7.3-17.5,7.3-17.5
			c44.8,35.8,103.2-7.5,103.2-7.5c-55.5,60.1-89.6,25.6-89.6,25.6c-15.6,18.7,15.8,32.1,15.8,32.1l-0.5,0.7
			c-10.5,2.9-11.4,9.5-11.4,9.5c1.5,13.1-0.5,20-0.5,20c1.7,0.5,10.7,3.4,10.7,3.4c18.7,5.1,24.1-11.4,24.1-11.4
			c14.6,29.7,29.7,11.4,29.7,11.4c-33.8-28,24.6-87.4,24.6-87.4s-46.7,55.5-8.3,103.7c0,0-11.2-2.4-20,6.8L-1265.7,1544.3"></path>
		<path class="ladsvg-4945-st3" d="M-1265.7,1544.3h-25.3v-25.8C-1290.3,1518.5-1268.6,1518.2-1265.7,1544.3"></path>
		<path class="ladsvg-4945-st0" d="M-1265.7,1544.3h-25.3v-25.8C-1290.3,1518.5-1268.6,1518.2-1265.7,1544.3z"></path>
		<path class="ladsvg-4945-st2" d="M-1045.2,1528.2c0,0-47.2-60.6-2.4-106.8c0,0-12.2,7.1-23.4-10.7c-11.2-17.8-16.8-28.2-46.5-14.6
			c-29.4,13.6-11,35.5-49.2,51.1c0,0-51.3,40.4-4.9,63.8c0,0,12.2,4.6,11.9,21.7c0,0,3.9-3.7,24.6-13.1c20.7-9.5,39.7-3.2,44-2.4
			c4.6,0.7,26.8,8.5,36.3,16.3s-50.4-61.1-86.4-25.3c0,0-18.7-22.9,14.4-30.7c0,0-16.5-7.5-14.4-20.2s1.7-15.1,3.4-15.1
			c4.1,0.2,9.7-1,18.3-0.7c1.9,0,16.1,3.7,16.1,16.5c0,0,9-37,32.9-16.8C-1070.3,1440.8-1109.5,1463.5-1045.2,1528.2"></path>
		<path class="ladsvg-4945-st1" d="M-1045.2,1528.2c0,0-47.2-60.6-2.4-106.8c0,0-12.2,7.1-23.4-10.7c-11.2-17.8-16.8-28.2-46.5-14.6
			c-29.4,13.6-11,35.5-49.2,51.1c0,0-51.3,40.4-4.9,63.8c0,0,12.2,4.6,11.9,21.7c0,0,3.9-3.7,24.6-13.1c20.7-9.5,39.7-3.2,44-2.4
			c4.6,0.7,26.8,8.5,36.3,16.3s-50.4-61.1-86.4-25.3c0,0-18.7-22.9,14.4-30.7c0,0-16.5-7.5-14.4-20.2s1.7-15.1,3.4-15.1
			c4.1,0.2,9.7-1,18.3-0.7c1.9,0,16.1,3.7,16.1,16.5c0,0,9-37,32.9-16.8C-1070.3,1440.8-1109.5,1463.5-1045.2,1528.2z"></path>
		<path class="ladsvg-4945-st2" d="M-1038.2,1506.8c0,0-24.6-4.9-22.4-30.4c1.7-20.2,22.4-23.8,22.4-23.8V1506.8z"></path>
		<path class="ladsvg-4945-st1" d="M-1038.2,1506.8c0,0-24.6-4.9-22.4-30.4c1.7-20.2,22.4-23.8,22.4-23.8V1506.8z"></path>
		<path class="ladsvg-4945-st2" d="M-1130.4,1544.5c0,0,5.4-24.6,30.9-22.4c20.2,1.7,23.8,22.4,23.8,22.4H-1130.4z"></path>
		<path class="ladsvg-4945-st1" d="M-1130.4,1544.5c0,0,5.4-24.6,30.9-22.4c20.2,1.7,23.8,22.4,23.8,22.4H-1130.4z"></path>
		<path class="ladsvg-4945-st2" d="M-1283.9,1308c0,0,47.2,60.6,2.4,106.8c0,0,12.2-7.1,23.4,10.7s16.8,28.2,46.5,14.6
			c29.4-13.6,11-35.5,49.2-51.1c0,0,51.3-40.4,4.9-63.8c0,0-12.2-4.6-11.9-21.7c0,0-3.9,3.7-24.6,13.1s-39.4,3.2-44,2.4
			c-4.6-0.7-26.8-8.5-36.3-16.3s50.4,61.1,86.4,25.3c0,0,18.7,22.9-14.4,30.7c0,0,16.5,7.5,14.4,20.4c-2.2,12.7-1.7,15.1-3.4,15.1
			c-4.1-0.2-9.7,1-18.3,0.7c-1.9,0-16.1-3.7-16.1-16.5c0,0-9,37-32.9,16.8C-1258.9,1395.3-1219.7,1372.7-1283.9,1308"></path>
		<path class="ladsvg-4945-st1" d="M-1283.9,1308c0,0,47.2,60.6,2.4,106.8c0,0,12.2-7.1,23.4,10.7s16.8,28.2,46.5,14.6
			c29.4-13.6,11-35.5,49.2-51.1c0,0,51.3-40.4,4.9-63.8c0,0-12.2-4.6-11.9-21.7c0,0-3.9,3.7-24.6,13.1s-39.4,3.2-44,2.4
			c-4.6-0.7-26.8-8.5-36.3-16.3s50.4,61.1,86.4,25.3c0,0,18.7,22.9-14.4,30.7c0,0,16.5,7.5,14.4,20.4c-2.2,12.7-1.7,15.1-3.4,15.1
			c-4.1-0.2-9.7,1-18.3,0.7c-1.9,0-16.1-3.7-16.1-16.5c0,0-9,37-32.9,16.8C-1258.9,1395.3-1219.7,1372.7-1283.9,1308z"></path>
		<path class="ladsvg-4945-st2" d="M-1291,1329.1c0,0,24.6,4.9,22.4,30.4c-1.7,20.2-22.4,23.8-22.4,23.8V1329.1z"></path>
		<path class="ladsvg-4945-st1" d="M-1291,1329.1c0,0,24.6,4.9,22.4,30.4c-1.7,20.2-22.4,23.8-22.4,23.8V1329.1z"></path>
		<path class="ladsvg-4945-st2" d="M-1198.8,1291.7c0,0-5.4,24.6-30.9,22.4c-20.2-1.7-23.8-22.4-23.8-22.4H-1198.8z"></path>
		<path class="ladsvg-4945-st1" d="M-1198.8,1291.7c0,0-5.4,24.6-30.9,22.4c-20.2-1.7-23.8-22.4-23.8-22.4H-1198.8z"></path>
	</g>
</switch>

</svg>