<svg version="1.1" xmlns:x="&amp;ns_extend;" xmlns:i="&amp;ns_ai;" xmlns:graph="&amp;ns_graphs;" xmlns="http://www.w3.org/2000/svg" xmlns:xlink="http://www.w3.org/1999/xlink" x="0px" y="0px" viewBox="-1291 1292.1 252.6 252.6" style="enable-background:new -1291 1292.1 252.6 252.6;" xml:space="preserve">
<style type="text/css">
	.ladsvg-1190-st0{fill:#005177;}
	.ladsvg-1190-st1{fill:#F5F4F4;}
</style>
<metadata>
	<sfw xmlns="&amp;ns_sfw;">
		<slices></slices>
		<slicesourcebounds width="252.9" height="252.5" bottomleftorigin="true" x="-0.2" y="0"></slicesourcebounds>
	</sfw>
</metadata>
<g id="Layer_1">
	<rect x="-1290.8" y="1292.2" class="ladsvg-1190-st0" width="252.3" height="252.5"></rect>
	<path class="ladsvg-1190-st0" d="M-1139.7,1402.5c8.8-49.8,50.8-86.7,101.2-88.7l0,0v-12c-64.9,2.4-116.3,55.7-116.3,120.5c0,2,0,4.1,0.2,6.1
		l0,0c-2-0.2-4.1-0.2-6.1-0.2c-64.9,0-118.1,51.4-120.5,116.3l0,0h12c2-50.4,39.2-92.6,88.7-101.2l0,0c5.5-0.8,11-1.4,16.7-1.4
		c8.8,0,17.5,1,26.1,3.3l0,0c-2.2-8.6-3.3-17.3-3.3-26.1C-1141.1,1413.5-1140.7,1408-1139.7,1402.5L-1139.7,1402.5z"></path>
	<path class="ladsvg-1190-st1" d="M-1100.7,1292.2h-29.6c2.9,4.3,4.3,9.4,4.3,14.5c0,2-0.2,4.3-0.8,6.3l0,0
		C-1119.3,1304.6-1110.5,1297.7-1100.7,1292.2L-1100.7,1292.2z"></path>
	<path class="ladsvg-1190-st1" d="M-1270.2,1456.3c-2,0.4-4.1,0.8-6.3,0.8c-5.1,0-10.2-1.4-14.5-4.3l0,0v29.6
		C-1285.3,1472.7-1278.4,1463.9-1270.2,1456.3L-1270.2,1456.3z"></path>
	<path class="ladsvg-1190-st1" d="M-1242.7,1292.2h-48.1v48.1c0.8,0.2,1.6,0.2,2.4,0.2c5.7,0,10.6-4.7,10.6-10.6c0-2-0.6-3.9-1.6-5.5l0,0
		c-1.4-2.4-2-5.1-2-7.8c0-4.1,1.6-8,4.3-11l0,0c2.9-2.7,6.7-4.3,10.8-4.3c2.7,0,5.5,0.6,7.8,2l0,0c1.6,1,3.7,1.6,5.5,1.6
		c5.7,0,10.6-4.7,10.6-10.6C-1242.5,1293.8-1242.5,1293-1242.7,1292.2L-1242.7,1292.2z"></path>
	<path class="ladsvg-1190-st1" d="M-1220.4,1292.2h-12.2c0,32.2-26.1,58.3-58.1,58.3v12.2C-1252,1362.5-1220.4,1331.1-1220.4,1292.2
		L-1220.4,1292.2z"></path>
	<path class="ladsvg-1190-st1" d="M-1136,1312.3c-0.4-7.5-3.3-14.5-8.2-20.2l0,0h-67.3c0.6,2.9,1.8,5.7,3.7,8.2l0,0c2.9,4.1,7.3,6.3,12.2,6.3
		c1,0,1.8,0,2.9-0.2l0,0c4.7-0.8,9-2.4,13.3-4.9l0,0c3.3-1.8,6.7-2.7,10.4-2.7c2.7,0,5.1,0.4,7.5,1.4l0,0c3.1,1.2,5.1,4.3,5.1,7.5
		c0,2-0.8,4.1-2.2,5.7l0,0c-2.2,2.2-5.3,3.5-8.4,3.5c-2.2,0-4.7-0.6-6.5-2l0,0c-0.4,1.8-0.6,3.7-0.6,5.5c0,5.7,2.2,11.4,6.1,15.5
		l0,0l-8.6,2.9l7.5,5.1c-4.5,5.1-6.7,11.6-6.7,18.6c0,6.1,2,12.2,5.7,17.1l0,0c1.2-17.1,9.8-33,23.5-43.4l0,0
		c6.9-5.3,10.8-13.5,10.8-22C-1136,1313.6-1136,1313-1136,1312.3L-1136,1312.3z"></path>
	<path class="ladsvg-1190-st1" d="M-1191.5,1381.1c5.7-1.4,9.6-6.7,9.6-12.4c0-7.1-5.7-13.1-13.1-13.1c-4.9,0-9.4,2.7-11.6,7.1l0,0
		c0-0.2,0-0.4,0-0.4c0-6.7-5.5-12.2-12.2-12.2c-3.9,0-7.3,1.8-9.8,4.9l0,0c-3.1,2.2-4.9,5.9-4.9,9.8c0,6.7,5.5,12.2,12.2,12.2
		c0.2,0,0.4,0,0.4,0l0,0c-4.3,2.2-7.1,6.7-7.1,11.6c0,7.1,5.7,13.1,13.1,13.1c5.9,0,11-3.9,12.4-9.6l0,0l28.4,27.1
		c2.9-0.2,5.7-0.2,8.6-0.2c0.2,0,0.2,0,0.4,0l0,0c0-0.2,0-0.2,0-0.4c0-2.9,0-5.7,0.2-8.6l0,0L-1191.5,1381.1z"></path>
	<path class="ladsvg-1190-st1" d="M-1203.3,1412.7c-4.9-3.7-11-5.7-17.1-5.7c-6.7,0-13.3,2.4-18.6,6.7l0,0l-4.9-7.3l-2.9,8.6
		c-4.3-3.9-9.8-6.1-15.5-6.1c-1.8,0-3.7,0.2-5.5,0.6l0,0c1.2,1.8,2,4.3,2,6.5c0,3.1-1.2,6.1-3.5,8.4l0,0c-1.8,1.4-3.9,2.2-5.9,2.2
		c-3.3,0-6.3-2-7.5-5.1l0,0c-1-2.4-1.4-5.1-1.4-7.5c0-3.7,1-7.1,2.7-10.4l0,0c2.2-4.1,3.9-8.6,4.9-13.3l0,0c0.2-1,0.2-1.8,0.2-2.9
		c0-4.9-2.4-9.6-6.3-12.2l0,0c-2.4-1.6-5.3-2.9-8.2-3.7l0,0v67.3c5.7,4.9,12.8,7.8,20.2,8.2l0,0c0.6,0,1.2,0,1.6,0
		c8.6,0,16.7-4.1,22-10.8l0,0C-1236.3,1422.5-1220.6,1413.9-1203.3,1412.7L-1203.3,1412.7z"></path>
	<path class="ladsvg-1190-st0" d="M-1172.9,1515.7c-2.4,5.1-7.5,8.6-13.3,8.6c-0.8,0-1.6,0-2.4-0.2l0,0c-4.9-0.8-9.2-3.5-12.2-7.3l0,0
		c-4.9-6.7-12.6-10.6-21-10.6c-1.6,0-3.3,0.2-4.9,0.4l0,0c0.6-2.7,1.8-5.1,3.3-7.3l0,0c3.9-6.1,10.4-9.8,17.7-9.8
		c3.3,0,6.5,0.8,9.4,2.2l0,0c-0.6-1.4-0.8-2.9-0.8-4.5c0-2.7,0.8-5.1,2.4-7.3l0,0c1.2-1.6,1.8-3.5,1.8-5.5c0-1.8-0.6-3.7-1.6-5.3
		l0,0c1.2-0.2,2.4-0.2,3.7-0.2c9.2,0,17.7,5.1,22.2,13.3l0,0c1.8-2.7,3.9-5.1,6.1-7.3l0,0c4.5-4.3,10.2-6.7,16.5-6.9l0,0
		c0.6,3.3,0.8,6.5,0.8,9.8c0,1.6,0,3.1-0.2,4.7l0,0c3.1,2.2,5.1,5.7,5.7,9.4l0,0c0.2,1,0.4,2,0.4,3.1c0,2.4-0.6,4.9-1.8,7.1l0,0
		c-3.1,4.3-7.8,6.7-12.8,6.7c-2.4,0-4.9-0.6-7.1-1.8l0,0c-0.4,1.2-0.6,2.2-0.6,3.5c0,2.4,1,4.9,2.7,6.7l0,0c1.4,1.6,3.1,2.9,4.7,4.1
		l0,0l0,0c0-2.4,2-4.5,4.5-4.5s4.5,2,4.5,4.5v3.7h0.2l0,0c1.6,0.2,3.1,0.4,4.7,0.4c15.1,0,27.3-12.2,27.3-27.3c0-0.6,0-1.4,0-2l0,0
		c-0.2-6.3-1.6-12.4-3.7-18.4l0,0c-1.4-4.5-3.9-8.4-7.1-11.8l0,0l-8.6,8.6c-0.8,0.8-2,1.2-3.1,1.2c-2.4,0-4.5-2-4.5-4.5
		c0-1.2,0.4-2.2,1.2-3.1l0,0l9-9c-1.8-1.6-4.3-2.9-6.7-3.5l0,0c-7.3-2-14.9-3.1-22.4-3.1c-1,0-1.8,0-2.9,0l0,0
		c-50,1.8-89.9,42.2-91.2,92.2l0,0h98.9v-11.8C-1162.5,1529.4-1169,1523.4-1172.9,1515.7L-1172.9,1515.7z"></path>
	<path class="ladsvg-1190-st0" d="M-1038.5,1329.5c-50,1.2-90.4,41.2-92.2,91.2l0,0c0,1,0,1.8,0,2.9c0,7.5,1,15.1,3.1,22.4l0,0
		c0.4,2.4,1.6,4.9,3.5,6.7l0,0l9-9c0.8-0.8,2-1.2,3.1-1.2c2.4,0,4.5,2,4.5,4.5c0,1.2-0.4,2.2-1.2,3.1l0,0l-8.6,8.6
		c3.5,3.3,7.3,5.5,11.8,7.1l0,0c5.9,2.2,12,3.5,18.4,3.7l0,0c0.6,0,1.4,0,2,0c15.1,0,27.3-12.2,27.3-27.3c0-1.6-0.2-3.3-0.4-4.7l0,0
		v-0.2l0,0h-3.7c-2.4,0-4.5-2-4.5-4.5s2-4.5,4.5-4.5l0,0c-1.2-1.8-2.4-3.3-4.1-4.7l0,0c-1.8-1.6-4.3-2.7-6.7-2.7
		c-1.2,0-2.4,0.2-3.5,0.6l0,0c1.2,2.2,1.8,4.7,1.8,7.1c0,5.1-2.4,10-6.7,12.8l0,0c-2,1.2-4.5,1.8-7.1,1.8c-1,0-2-0.2-3.1-0.4l0,0
		c-3.7-0.6-7.1-2.7-9.4-5.7l0,0c-1.6,0.2-3.1,0.2-4.7,0.2c-3.3,0-6.5-0.4-9.8-0.8l0,0c0.2-6.1,2.7-12,6.9-16.5l0,0
		c2.2-2.2,4.7-4.5,7.3-6.1l0,0c-8.2-4.5-13.3-13.1-13.3-22.2c0-1.2,0-2.4,0.2-3.7l0,0c1.6,1,3.5,1.6,5.3,1.6c2,0,3.9-0.6,5.5-1.8
		l0,0c2-1.6,4.7-2.4,7.3-2.4c1.4,0,3.1,0.2,4.5,0.8l0,0c-1.4-2.9-2.2-6.1-2.2-9.4c0-7.1,3.7-13.9,9.8-17.7l0,0
		c2.2-1.4,4.7-2.4,7.3-3.3l0,0c-0.2,1.6-0.4,3.3-0.4,4.9c0,8.4,3.9,16.1,10.6,21l0,0c3.9,2.9,6.5,7.3,7.3,12.2l0,0
		c0.2,0.8,0.2,1.6,0.2,2.4c0,5.7-3.3,11-8.6,13.5l0,0c7.5,3.9,13.7,10.4,16.9,18.4l0,0h11.8V1329.5z"></path>
	<path class="ladsvg-1190-st0" d="M-1038.5,1437.2h-9.6c0.2,1.8,0.4,3.5,0.4,5.3c0,1.6-0.2,3.3-0.4,4.9l0,0c-2.7,15.3-13.7,27.7-28.4,32.2l0,0
		c-3.9,1-8,1.4-11.8,1.4c-1.8,0-3.7-0.2-5.7-0.4l0,0c6.1,6.1,14.5,9.6,23.3,9.6c5.1,0,10.2-1.2,14.9-3.5l0,0c0.2,1,0.4,2.2,0.4,3.5
		c0,7.1-4.9,13.5-11.8,15.3l0,0c8,4.9,13.1,13.7,13.1,23c0,0.2,0,0.2,0,0.4l0,0c-0.2,0-0.2,0-0.4,0c-9.4,0-18.2-4.9-23-13.1l0,0
		c-1.8,6.9-8.2,11.8-15.3,11.8c-1.2,0-2.2-0.2-3.5-0.4l0,0c2.2-4.7,3.5-9.6,3.5-14.9c0-8.8-3.5-17.1-9.6-23.3l0,0
		c0.2,1.8,0.4,3.7,0.4,5.7c0,4.1-0.4,8-1.4,11.8l0,0c-4.5,14.9-16.9,25.9-32,28.4l0,0c-1.6,0.2-3.3,0.4-4.9,0.4
		c-1.8,0-3.5-0.2-5.3-0.4l0,0v9.4h107.3V1437.2z"></path>
	<path class="ladsvg-1190-st1" d="M-1055.8,1486.7c-4.7,2.2-9.6,3.5-14.9,3.5c-8.8,0-17.1-3.5-23.3-9.6l0,0c-3.9-0.4-7.5-1.2-11.2-2.7l0,0
		c1.2,3.7,2.2,7.3,2.7,11.2l0,0c6.1,6.1,9.6,14.5,9.6,23.3c0,5.1-1.2,10.2-3.5,14.9l0,0c1,0.2,2.2,0.4,3.5,0.4
		c7.1,0,13.5-4.9,15.3-11.8l0,0c4.9,8.2,13.7,13.1,23,13.1c0.2,0,0.2,0,0.4,0l0,0c0-0.2,0-0.2,0-0.4c0-9.4-4.9-18.2-13.1-23l0,0
		c6.9-1.8,11.8-8.2,11.8-15.3C-1055.4,1489-1055.4,1487.7-1055.8,1486.7L-1055.8,1486.7z"></path>
	<path class="ladsvg-1190-st1" d="M-1059.1,1394.3c-0.8-4.9-3.5-9.2-7.3-12.2l0,0c-6.5-4.9-10.6-12.6-10.6-21c0-1.6,0.2-3.3,0.4-4.9l0,0
		c-2.7,0.6-4.9,1.8-7.3,3.3l0,0c-6.1,3.9-9.8,10.4-9.8,17.7c0,3.3,0.8,6.5,2.2,9.4l0,0c-1.4-0.4-2.9-0.8-4.3-0.8
		c-2.4,0-4.9,0.8-6.9,2.2l0,0c-1.6,1.2-3.7,1.8-5.7,1.8c-1.8,0-3.7-0.6-5.3-1.6l0,0c-0.2,1.2-0.2,2.4-0.2,3.7
		c0,9.2,5.1,17.7,13.3,22.2l0,0c-2.7,1.8-5.1,3.9-7.3,6.1l0,0c-4.3,4.5-6.7,10.4-6.9,16.5l0,0c3.3,0.6,6.5,0.8,9.8,0.8
		c1.6,0,3.1,0,4.7-0.2l0,0c2.2,3.1,5.7,5.1,9.4,5.7l0,0c1,0.2,2,0.4,3.1,0.4c2.4,0,4.9-0.6,7.1-1.8l0,0c4.3-3.1,6.7-7.8,6.7-12.8
		c0-2.4-0.6-4.9-1.8-7.1l0,0c1.2-0.4,2.2-0.6,3.5-0.6c2.4,0,4.9,1,6.7,2.7l0,0c1.6,1.4,2.9,3.1,4.1,4.7l0,0h11.6
		c-3.3-8-9.4-14.3-16.9-18.4l0,0c5.1-2.4,8.6-7.5,8.6-13.5C-1058.9,1396-1058.9,1395.1-1059.1,1394.3L-1059.1,1394.3z"></path>
	<path class="ladsvg-1190-st1" d="M-1139.7,1491.6c-0.6-3.7-2.7-7.1-5.7-9.4l0,0c0.2-1.6,0.2-3.1,0.2-4.7c0-3.3-0.4-6.5-0.8-9.8l0,0
		c-6.1,0.2-12,2.7-16.5,6.9l0,0c-2.2,2.2-4.5,4.7-6.1,7.3l0,0c-4.5-8.2-13.1-13.3-22.2-13.3c-1.2,0-2.4,0-3.7,0.2l0,0
		c1,1.6,1.6,3.5,1.6,5.3c0,2-0.6,4.1-1.8,5.7l0,0c-1.4,2-2.2,4.5-2.2,6.9c0,1.4,0.2,3.1,0.8,4.5l0,0c-2.9-1.4-6.1-2.2-9.4-2.2
		c-7.1,0-13.9,3.7-17.7,9.8l0,0c-1.4,2.2-2.4,4.7-3.3,7.3l0,0c1.6-0.2,3.3-0.4,4.9-0.4c8.4,0,16.1,3.9,21,10.6l0,0
		c2.9,3.9,7.3,6.7,12.2,7.3l0,0c0.8,0.2,1.6,0.2,2.4,0.2c5.7,0,11-3.3,13.5-8.6l0,0c3.9,7.5,10.4,13.7,18.4,16.9l0,0v-11.6
		c-1.8-1.2-3.3-2.4-4.7-4.1l0,0c-1.6-1.8-2.7-4.3-2.7-6.7c0-1.2,0.2-2.4,0.6-3.5l0,0c2.2,1.2,4.7,1.8,7.1,1.8c5.1,0,10-2.4,12.8-6.7
		l0,0c1.2-2,1.8-4.5,1.8-7.1C-1139.3,1493.7-1139.5,1492.6-1139.7,1491.6L-1139.7,1491.6z"></path>
	<path class="ladsvg-1190-st1" d="M-1047.9,1447.4c0.2-1.6,0.4-3.3,0.4-4.9c0-1.8-0.2-3.5-0.4-5.3l0,0h-10.6c0.2,1.6,0.4,3.3,0.4,4.9
		c0,15.1-12.2,27.3-27.3,27.3c-0.6,0-1.4,0-2,0l0,0c-6.3-0.2-12.4-1.6-18.4-3.7l0,0c-4.5-1.4-8.4-3.9-11.8-7.1l0,0l-6.7,6.7
		c3.3,3.5,5.5,7.5,7.1,11.8l0,0c2.2,5.9,3.5,12,3.7,18.4l0,0c0,0.6,0,1.4,0,2c0,15.1-12.2,27.3-27.3,27.3c-1.6,0-3.3-0.2-4.9-0.4
		l0,0v10.6c1.8,0.2,3.5,0.4,5.3,0.4c1.6,0,3.3-0.2,4.9-0.4l0,0c15.3-2.7,27.7-13.7,32-28.4l0,0c1-3.9,1.4-8,1.4-11.8
		c0-1.8-0.2-3.7-0.4-5.7c-0.4-3.9-1.2-7.5-2.7-11.2l0,0c5.5,1.8,11.2,2.9,16.9,2.9c4.1,0,8-0.4,11.8-1.4l0,0
		C-1061.5,1475.1-1050.5,1462.7-1047.9,1447.4L-1047.9,1447.4z"></path>
	<path class="ladsvg-1190-st1" d="M-1127.6,1445.9c-2-7.3-3.1-14.9-3.1-22.4c0-1,0-1.8,0-2.9l0,0c1.8-50,42-89.9,92-91.2l0,0v-15.9
		c-50.2,2.2-92.4,39.2-101,88.9l0,0c-0.8,5.5-1.2,11-1.2,16.7c0,8.8,1,17.5,3.3,26.1l0,0c-8.6-2.2-17.3-3.3-26.1-3.3
		c-5.5,0-11.2,0.4-16.7,1.2l0,0c-49.8,8.8-86.7,50.8-88.7,101.2l0,0h15.9c1-50,41-90.4,91-92l0,0c1,0,1.8,0,2.9,0
		c7.5,0,15.1,1,22.4,3.1l0,0c2.4,0.4,4.9,1.6,6.7,3.5l0,0l6.1-6.1C-1126,1450.8-1127.2,1448.4-1127.6,1445.9L-1127.6,1445.9z"></path>
	<path class="ladsvg-1190-st1" d="M-1154.5,1428.6c-0.2-2-0.2-4.1-0.2-6.1c0-64.9,51.2-118.3,116.1-120.7l0,0v-9.6h-6.1
		c-67.1,3.1-119.9,58.5-119.9,125.8c0,0.2,0,0.2,0,0.4l0,0c-0.2,0-0.2,0-0.4,0c-67.1,0-122.6,52.8-125.6,120.1l0,0v6.1h9.6
		c2.4-64.9,55.7-116.3,120.5-116.3C-1158.6,1428.4-1156.6,1428.4-1154.5,1428.6L-1154.5,1428.6z"></path>
	<path class="ladsvg-1190-st0" d="M-1232.7,1292.2h-10.2c0.2,0.8,0.2,1.6,0.2,2.4c0,5.7-4.7,10.6-10.6,10.6c-2,0-3.9-0.6-5.5-1.6l0,0
		c-2.4-1.4-5.1-2-7.8-2c-4.1,0-8,1.6-11,4.3l0,0c-2.9,3.1-4.3,6.9-4.3,11c0,2.7,0.6,5.5,2,7.8l0,0c1,1.6,1.6,3.7,1.6,5.5
		c0,5.7-4.7,10.6-10.6,10.6c-0.8,0-1.6,0-2.4-0.2l0,0v10.2C-1258.6,1350.5-1232.7,1324.4-1232.7,1292.2L-1232.7,1292.2z"></path>
	<path class="ladsvg-1190-st1" d="M-1145.8,1524.5v-3.7c0-2.4-2-4.5-4.5-4.5c-2.4,0-4.5,2-4.5,4.5l0,0l0,0l0,0l0,0v11.6v11.8h8.8v-9.4v-10.4
		H-1145.8z"></path>
	<path class="ladsvg-1190-st1" d="M-1109.3,1450c0.8-0.8,1.2-2,1.2-3.1c0-2.4-2-4.5-4.5-4.5c-1.2,0-2.2,0.4-3.1,1.2l0,0l-9,9l-6.1,6.1l-9,9
		c-0.8,0.8-1.2,2-1.2,3.1c0,2.4,2,4.5,4.5,4.5c1.2,0,2.2-0.4,3.1-1.2l0,0l8.6-8.6l6.5-6.5L-1109.3,1450z"></path>
	<path class="ladsvg-1190-st1" d="M-1038.5,1428.4h-11.8h-11.6c-2.4,0-4.5,2-4.5,4.5s2,4.5,4.5,4.5l0,0h3.7h10.6h9.4v-9H-1038.5z"></path>
</g>
<g id="Camada_1">
</g>
</svg>