<svg version="1.0" xmlns="http://www.w3.org/2000/svg" xmlns:xlink="http://www.w3.org/1999/xlink" x="0px" y="0px" viewBox="-1291 1292.1 252.6 252.6" style="enable-background:new -1291 1292.1 252.6 252.6;" xml:space="preserve">
<style type="text/css">
	.ladsvg-4046-st0{fill:#EAC865;}
	.ladsvg-4046-st1{fill:#9E5D31;}
	.ladsvg-4046-st2{fill:#F9F7DD;}
	.ladsvg-4046-st3{fill:#B0B461;}
	.ladsvg-4046-st4{fill:#005177;}
	.ladsvg-4046-st5{fill-rule:evenodd;clip-rule:evenodd;fill:none;}
</style>
<g id="Camada_1">
	<rect x="-1290.9" y="1292.6" class="ladsvg-4046-st0" width="253" height="252.6"></rect>
	<path class="ladsvg-4046-st1" d="M-1092.5,1513.5c-5.9-9-15.9-14.3-26.8-14.3c-1.4,0-2.9,0-4.3,0.2c-0.8,1-1.2,2.2-1.2,3.7
		c0,1.6,0.6,3.3,1.8,4.5c-6.5,0.4-12.9,3.1-17.8,7.6c-1.4,1.4-2.5,3.5-2.5,5.5c0,0.6,0,1,0.2,1.6c5.9-2.2,12.3-3.3,18.6-3.3
		c2,0,4.3,0.2,6.3,0.4c9,1,17.8,3.7,25.7,7.6c0.6,0.2,1.4,0.2,2,0.2c3.7,0,7.2-1.4,9.6-3.9l7.8-7.6l0.2-0.2l4.5,4.5l-25.5,25.5h9.4
		c-0.2-0.4-0.2-0.8-0.2-1.2c0-0.6,0.2-1.2,0.4-1.6c3.9-3.7,7.2-8,10.2-12.3c0.4-0.6,1.2-1,2-1s1.4,0.4,2,1c2.9,3.9,7.4,6.5,12.3,7.2
		c0.4,0,0.8,0,1.2,0c1.2,0,2.2-0.2,3.5-0.6c1.4-2.5,3.7-4.7,6.1-6.1c0.4-1,0.6-2.2,0.6-3.5c0-0.4,0-0.8,0-1.2
		c-0.6-4.9-3.1-9.2-7.2-12.3c-0.6-0.4-1-1.2-1-2c0-0.8,0.4-1.6,1-2c4.5-2.9,8.6-6.3,12.3-10.2c0.6-0.2,1.2-0.4,1.6-0.4
		s0.8,0,1.2,0.2v-9.4l-25.5,25.5l-4.5-4.5l0.2-0.2l7.6-7.8c2.5-2.7,3.9-6.1,3.9-9.6c0-0.6,0-1.4-0.2-2c-3.9-8.2-6.5-17-7.6-26
		c-0.2-2-0.4-4.3-0.4-6.3c0-6.3,1-12.7,3.3-18.6c-0.6-0.2-1-0.2-1.6-0.2c-2,0-4.1,0.8-5.5,2.5c-4.5,4.9-7.2,11-7.6,17.8
		c-1.2-1.2-2.9-1.8-4.5-1.8c-1.2,0-2.7,0.4-3.7,1.2c-0.2,1.4-0.2,2.9-0.2,4.3c0,10.8,5.3,20.8,14.3,26.8c0.2,0.4,0.2,0.8,0.2,1.2
		c0,2.5-1.8,4.3-4.3,4.3c-0.8,0-1.6-0.2-2.2-0.6c-8.4-6.5-14.1-16.1-15.9-26.6c0-0.2,0-0.6,0-1c0-3.1-1.2-5.9-3.1-8
		c-3.3,1-6.1,3.3-7.8,6.3c-3.3-2.7-7.4-4.3-11.4-4.3c-2,0-3.9,0.4-5.7,1c-0.6,1.8-1,3.9-1,5.7c0,4.3,1.4,8.4,4.3,11.4
		c-3.1,1.6-5.3,4.5-6.3,7.8c2.2,2,5.1,3.3,8,3.3c0.4,0,0.6,0,0.8,0c10.4,1.8,20,7.6,26.6,15.9c0.4,0.6,0.6,1.4,0.6,2.2
		c0,2.5-1.8,4.3-4.3,4.3C-1091.7,1513.8-1092.1,1513.8-1092.5,1513.5z"></path>
	<path class="ladsvg-4046-st0" d="M-1055.5,1418.8v79.6l9.4-9.6v-70.2v-64.4c0-0.6-0.2-1.2-0.8-1.8l-23.3-23.3l4.5-4.5l19.6,19.6h8.2v-5.7
		c-0.4,0.2-0.8,0.2-1.2,0.2c-0.6,0-1.2-0.2-1.6-0.4c-3.7-3.9-7.8-7.2-12.3-10.2c-0.6-0.4-1-1.2-1-2s0.4-1.4,1-2
		c3.9-2.9,6.5-7.4,7.2-12.3c0-0.4,0-0.8,0-1.2c0-1.2-0.2-2.2-0.6-3.5c-2.5-1.4-4.7-3.7-6.1-6.1c-1-0.4-2.2-0.6-3.5-0.6
		c-0.4,0-0.8,0-1.2,0c-4.9,0.6-9.2,3.1-12.3,7.2c-0.4,0.6-1.2,1-2,1s-1.6-0.4-2-1c-2.9-4.5-6.3-8.6-10.2-12.3
		c-0.2-0.4-0.4-0.8-0.4-1.4c0-0.4,0-0.8,0.2-1.2h-5.7v8.2l19.6,19.6l-4.5,4.5l-19.2-19.2h-51.3c0,3.3,0.2,6.3,0.4,9.6h49.7
		l17.4,17.4l21.5,21.7c0.4,0.4,0.8,1,0.8,1.8v62.5H-1055.5z"></path>
	<path class="ladsvg-4046-st0" d="M-1282.1,1530.2c2.5,1.4,4.7,3.7,6.1,6.1c1,0.4,2.2,0.6,3.5,0.6c0.4,0,0.8,0,1.2,0c4.9-0.6,9.2-3.1,12.3-7.2
		c0.4-0.6,1.2-1,2-1c0.8,0,1.6,0.4,2,1c2.9,4.5,6.3,8.6,10.2,12.3c0.2,0.6,0.4,1.2,0.4,1.6c0,0.4,0,0.8-0.2,1.2h5.7v-8.2l-19.6-19.6
		l4.5-4.5l23.5,23.5c0.4,0.4,1,0.8,1.8,0.8h64.6h70.1l9.4-9.6h-79.8h-63.1c-0.6,0-1.2-0.2-1.8-0.8l-21.5-21.7l-17.8-17V1438
		c-3.1-0.2-6.3-0.2-9.4-0.4v51.4l19.2,19.2l-4.5,4.5l-19.6-19.4h-8.2v5.7c0.4-0.2,0.8-0.2,1.2-0.2c0.6,0,1.2,0.2,1.6,0.4
		c3.7,3.9,7.8,7.2,12.3,10.2c0.6,0.4,1,1.2,1,2c0,0.8-0.4,1.4-1,2c-3.9,2.9-6.5,7.4-7.2,12.3c0,0.4,0,0.8,0,1.2
		C-1282.7,1528-1282.5,1529-1282.1,1530.2z"></path>
	<path class="ladsvg-4046-st0" d="M-1275.8,1328.3c-4.5,2.9-8.6,6.3-12.3,10.2c-0.6,0.2-1.2,0.4-1.6,0.4s-0.8,0-1.2-0.2v12.3l29.2-29.2l29-29.2
		h-12.3c0.2,0.4,0.2,0.8,0.2,1.2c0,0.6-0.2,1.2-0.4,1.6c-3.9,3.7-7.2,8-10.2,12.3c-0.4,0.6-1.2,1-2,1c-0.8,0-1.4-0.4-2-1
		c-2.9-3.9-7.4-6.5-12.3-7.2c-0.4,0-0.8,0-1.2,0c-1.2,0-2.2,0.2-3.5,0.6c-1.4,2.5-3.7,4.7-6.1,6.1c0,1.4-0.2,2.5-0.2,3.7
		c0,0.4,0,0.8,0,1.2c0.6,4.9,3.1,9.2,7.2,12.3c0.6,0.4,1,1.2,1,2C-1274.6,1327.1-1275,1327.9-1275.8,1328.3z"></path>
	<path class="ladsvg-4046-st1" d="M-1290.9,1350.9v73.9c2,0,4.1,0,6.1,0c58,0,114.7,16.3,163.8,47.1c-0.2-1-0.2-2-0.2-3.1c0-0.8,0-1.6,0.2-2.5
		l-52.3-52.2c-0.2,4.9-4.3,8.8-9.2,8.8c-3.7,0-7.2-2.2-8.6-5.7c0.4,1,0.4,2,0.4,3.1c0,5.5-4.5,10-10,10c-5.3,0-9.6-4.1-10-9.2
		c-0.8,5.5-5.5,9.4-11,9.4c-6.1,0-11-4.9-11-11c0-2.2,0.6-4.3,1.8-6.1c-1.8,1.2-3.9,1.8-6.1,1.8c-6.1,0-11-4.9-11-11
		c0-5.5,4.1-10.2,9.4-11c-5.1-0.4-9.2-4.7-9.2-10c0-5.5,4.5-10,10-10c1,0,2,0.2,3.1,0.4c-3.5-1.4-5.7-4.9-5.7-8.6
		c0-5.1,4.1-9.2,9.2-9.2c2,0,3.9,0.6,5.5,1.8c-1.2-1.6-1.8-3.5-1.8-5.5c0-5.1,4.1-9.2,9.2-9.2c3.7,0,7.2,2.2,8.6,5.7
		c-0.4-1-0.4-2-0.4-3.1c0-5.5,4.5-10,10-10c5.3,0,9.6,4.1,10,9.2c0.8-5.5,5.5-9.4,11-9.4c6.1,0,11,4.9,11,11c0,2.2-0.6,4.3-1.8,6.1
		c1.8-1.2,3.9-1.8,6.1-1.8c6.1,0,11,4.9,11,11c0,5.5-4.1,10.2-9.4,11c5.1,0.4,9.2,4.7,9.2,10c0,5.5-4.5,10-10,10c-1,0-2-0.2-3.1-0.4
		c3.5,1.4,5.7,4.9,5.7,8.6c0,4.9-3.9,9-8.8,9.2l52.3,52.2c0.8-0.2,1.6-0.2,2.5-0.2c1,0,2,0,3.1,0.2
		c-30.9-48.9-47.2-105.8-47.2-163.8c0-2,0-4.1,0-6.1h-74l-29,29.4L-1290.9,1350.9z"></path>
	<path class="ladsvg-4046-st0" d="M-1055.5,1545.1h17.4v-17.4C-1047.5,1527.8-1055.5,1535.5-1055.5,1545.1z"></path>
	<path class="ladsvg-4046-st0" d="M-1290.9,1309.9c9.6,0,17.4-7.8,17.4-17.4h-17.4V1309.9z"></path>
	<path class="ladsvg-4046-st2" d="M-1065.1,1518c1-0.2,2-0.4,3.1-0.4c3.9,0,7.6,1.6,10,4.5c0.4,0.6,0.6,1.2,0.6,2c0,1.8-1.6,3.5-3.5,3.5
		c-0.2,0-0.6,0-0.8,0c0,0.2,0,0.6,0,0.8c0,1.8-1.6,3.5-3.5,3.5c-0.6,0-1.4-0.2-2-0.6c-2.9-2.7-4.5-6.3-4.5-10
		C-1065.5,1520-1065.3,1519.1-1065.1,1518z"></path>
	<path class="ladsvg-4046-st2" d="M-1234.6,1373.8c0.2,0,0.4,0.2,0.8,0.2C-1234,1374-1234.4,1374-1234.6,1373.8c-1-0.4-2-0.4-3.1-0.4
		c-5.5,0-10,4.5-10,10c0,5.3,4.1,9.6,9.2,10c-5.5,0.8-9.4,5.5-9.4,11c0,6.1,4.9,11,11,11c2.2,0,4.3-0.6,6.1-1.8
		c-1.2,1.8-1.8,3.9-1.8,6.1c0,6.1,4.9,11,11,11c5.5,0,10.2-4.1,11-9.4c0.4,5.1,4.7,9.2,10,9.2c5.5,0,10-4.5,10-10c0-1-0.2-2-0.4-3.1
		c-0.2-0.2-0.2-0.4-0.2-0.8c0.2,0.2,0.2,0.4,0.2,0.8c1.4,3.5,4.7,5.7,8.6,5.7c5.1,0,9.2-4.1,9.2-9.2c0-2-0.6-3.9-1.8-5.5
		c-0.8-0.6-0.6-0.8,0,0c1.6,1.2,3.5,1.8,5.5,1.8c5.1,0,9.2-4.1,9.2-9.2c0-3.7-2.2-7.2-5.7-8.6c-0.2,0-0.4-0.2-0.8-0.2
		c0.2,0,0.4,0.2,0.8,0.2c1,0.4,2,0.4,3.1,0.4c5.5,0,10-4.5,10-10c0-5.3-4.1-9.6-9.2-10c5.5-0.8,9.4-5.5,9.4-11c0-6.1-4.9-11-11-11
		c-2.2,0-4.3,0.6-6.1,1.8c1.2-1.8,1.8-3.9,1.8-6.1c0-6.1-4.9-11-11-11c-5.5,0-10.2,4.1-11,9.4c-0.4-5.1-4.7-9.2-10-9.2
		c-5.5,0-10,4.5-10,10c0,1,0.2,2,0.4,3.1c0.2,0.2,0.2,0.4,0.2,0.8c-0.2-0.2-0.2-0.4-0.2-0.8c-1.4-3.5-4.7-5.7-8.6-5.7
		c-5.1,0-9.2,4.1-9.2,9.2c0,2,0.6,3.9,1.8,5.5c0.8,0.6,0.6,0.8,0,0c-1.6-1.2-3.5-1.8-5.5-1.8c-5.1,0-9.2,4.1-9.2,9.2
		C-1240.1,1369.1-1237.9,1372.3-1234.6,1373.8z"></path>
	<polygon class="ladsvg-4046-st3" points="-1186.2,1369.1 -1189.5,1367.2 -1193.9,1366.8 -1199.1,1367.9 -1204,1370.5 -1208.7,1374.4 
		-1212.5,1379.1 -1215.2,1384.2 -1216.4,1389.1 -1215.8,1393.4 -1214,1396.7 -1210.7,1398.9 -1206.4,1399.3 -1201.3,1398.1 
		-1196.2,1395.6 -1191.5,1391.6 -1187.6,1387.1 -1185,1381.7 -1183.7,1376.8 -1184.3,1372.6 	"></polygon>
	<polygon class="ladsvg-4046-st0" points="-1190.7,1373.6 -1191.5,1373.2 -1193.1,1373 -1196,1373.4 -1199.5,1375 -1203.1,1377.7 
		-1206.4,1381.3 -1208.7,1384.8 -1209.7,1387.5 -1210.1,1389.5 -1210.1,1390.9 -1209.9,1391.8 -1209.7,1392.2 -1209.5,1392.4 
		-1209.1,1392.8 -1208,1393 -1206.6,1393 -1205,1392.8 -1200.7,1390.7 -1197.4,1388.5 -1194.4,1385 -1191.9,1381.7 -1190.5,1378.5 
		-1190.3,1376.4 -1190.3,1375 -1190.5,1374.2 	"></polygon>
	<path class="ladsvg-4046-st2" d="M-1229.5,1526.9c0.4,0.4,1,0.8,1.8,0.8h63.1h79.8l12.3-12.3l-7.8,7.6c-2.7,2.5-6.1,3.9-9.6,3.9
		c-0.6,0-1.4,0-2-0.2c-8.2-3.9-17-6.5-25.7-7.6c-2-0.2-4.3-0.4-6.3-0.4c-6.3,0-12.7,1-18.6,3.3c-0.2-0.6-0.2-1-0.2-1.6
		c0-2,0.8-4.1,2.5-5.5c4.9-4.5,11-7.2,17.8-7.6c-1.2-1.2-1.8-2.9-1.8-4.5c0-1.2,0.4-2.7,1.2-3.7c1.4-0.2,2.9-0.2,4.3-0.2
		c10.8,0,20.8,5.3,26.8,14.3c0.4,0.2,0.8,0.2,1.2,0.2c2.5,0,4.3-1.8,4.3-4.3c0-0.8-0.2-1.6-0.6-2.2c-6.5-8.4-15.9-14.1-26.6-15.9
		c-0.4,0-0.6,0-0.8,0c-3.1,0-5.9-1.2-8-3.3c0.6-2,1.6-3.9,3.1-5.3c-20.4-9.4-42.3-14.9-64.6-16.6c-0.2,0-0.6,0-0.8,0
		c-6.3,0-11.4,5.1-11.4,11.4c0,0.6,0,1.4,0.2,2c0.8,4.1,4.3,7.2,8.4,7.2c2.7,0,5.3-1.2,6.9-3.5c0.8-1.2,2.2-1.8,3.9-1.8
		c2.7,0,4.7,2,4.7,4.7c0,0.4,0,0.8-0.2,1.2c0.8-0.2,1.4-0.2,2.2-0.2c4.5,0,8.8,2.7,10.8,6.7c2.9,5.5,5.9,11,9.4,16.1
		c1.2,1.8,1.8,4.1,1.8,6.3c0,2-0.6,4.1-1.6,5.7c-13.7-12.3-30.7-20.2-48.8-22.7c-9.8-2-16.8-10.6-16.8-20.4
		c0-11.2,8.8-20.2,19.8-20.8c3.7-1.2,7.4-1.8,11.2-1.8c0.2,0,0.4,0,0.8,0c-27-10.4-55.6-16.6-84.5-18v49.6l17.4,17.4L-1229.5,1526.9
		z"></path>
	<path class="ladsvg-4046-st2" d="M-1127.1,1399.5c0-0.2,0-0.4,0-0.8c0-3.9,0.6-7.6,1.8-11.2c0.6-11,9.8-19.8,20.8-19.8c10,0,18.6,6.9,20.4,16.8
		c2.5,18.2,10.2,35.2,22.7,48.7c-1.8,1-3.7,1.6-5.7,1.6c-2.2,0-4.3-0.6-6.1-1.8c-5.3-3.5-10.6-6.7-16.1-9.4c-4.1-2-6.5-6.3-6.5-10.8
		c0-0.8,0-1.4,0.2-2.2c-0.6,0-1,0.2-1.6,0.2c-2.7,0-4.7-2-4.7-4.7c0-1.4,0.6-2.9,1.8-3.9c2.2-1.6,3.5-4.1,3.5-6.9
		c0-4.1-2.9-7.8-6.9-8.6c-0.6-0.2-1.4-0.2-2-0.2c-6.3,0-11.4,5.1-11.4,11.4c0,0.2,0,0.6,0,0.8c1.6,22.3,7.4,44,16.6,64.5
		c1.4-1.4,3.3-2.5,5.3-3.1c2,2.2,3.1,5.1,3.1,8c0,0.4,0,0.6,0,1c1.8,10.4,7.6,20,15.9,26.6c0.6,0.4,1.4,0.6,2.2,0.6
		c2.5,0,4.3-1.8,4.3-4.3c0-0.4,0-0.8-0.2-1.2c-9-5.9-14.3-15.9-14.3-26.8c0-1.4,0-2.9,0.2-4.3c1-0.8,2.2-1.2,3.7-1.2
		c1.6,0,3.3,0.6,4.5,1.8c0.4-6.5,3.1-12.9,7.6-17.8c1.4-1.4,3.5-2.5,5.5-2.5c0.6,0,1,0,1.6,0.2c-2.2,5.9-3.3,12.3-3.3,18.6
		c0,2,0.2,4.3,0.4,6.3c1,9,3.7,17.8,7.6,26c0.2,0.6,0.2,1.4,0.2,2c0,3.7-1.4,7.2-3.9,9.6l-7.6,7.8l12.3-12.3v-79.6v-63.2
		c0-0.6-0.2-1.2-0.8-1.8l-21.5-21.7l-17.4-17.4h-49.7C-1143.5,1343.9-1137.5,1372.3-1127.1,1399.5z"></path>
	<path class="ladsvg-4046-st2" d="M-1053.3,1324.2c-0.6,0.4-1,1.2-1,2s0.4,1.6,1,2c4.5,2.9,8.6,6.3,12.3,10.2c0.6,0.2,1.2,0.4,1.6,0.4
		s0.8,0,1.2-0.2V1310c-3.1,0-6.1-0.8-8.8-2.5c0.4,1,0.6,2.2,0.6,3.5c0,0.4,0,0.8,0,1.2C-1046.9,1316.9-1049.4,1321.4-1053.3,1324.2z
		"></path>
	<path class="ladsvg-4046-st2" d="M-1073.7,1307.7c0.4,0.6,1.2,1,2,1c0.8,0,1.4-0.4,2-1c2.9-3.9,7.4-6.5,12.3-7.2c0.4,0,0.8,0,1.2,0
		c1.2,0,2.2,0.2,3.5,0.6c-1.6-2.7-2.5-5.7-2.5-8.8h-28.6c-0.2,0.4-0.2,0.8-0.2,1.2c0,0.6,0.2,1.2,0.4,1.6
		C-1080,1299.1-1076.8,1303.4-1073.7,1307.7z"></path>
	<path class="ladsvg-4046-st2" d="M-1276,1301.3c1.2-0.4,2.2-0.6,3.5-0.6c0.4,0,0.8,0,1.2,0c4.9,0.6,9.2,3.1,12.3,7.2c0.4,0.6,1.2,1,2,1
		c0.8,0,1.6-0.4,2-1c2.9-4.5,6.3-8.6,10.2-12.3c0.2-0.6,0.4-1.2,0.4-1.6c0-0.4,0-0.8-0.2-1.2h-28.6
		C-1273.5,1295.6-1274.3,1298.7-1276,1301.3z"></path>
	<path class="ladsvg-4046-st2" d="M-1290.9,1338.7c0.4,0.2,0.8,0.2,1.2,0.2c0.6,0,1.2-0.2,1.6-0.4c3.7-3.9,7.8-7.2,12.3-10.2
		c0.8-0.4,1.2-1.2,1.2-2s-0.4-1.4-1-2c-3.9-2.9-6.5-7.4-7.2-12.1c0-0.4,0-0.8,0-1.2c0-1.2,0.2-2.2,0.6-3.5c-2.7,1.6-5.7,2.5-8.8,2.5
		v28.7H-1290.9z"></path>
	<path class="ladsvg-4046-st2" d="M-1290.9,1527.8c3.1,0,6.1,0.8,8.8,2.5c-0.4-1.2-0.6-2.2-0.6-3.5c0-0.4,0-0.8,0-1.2c0.6-4.9,3.1-9.2,7.2-12.3
		c0.6-0.4,1-1.2,1-2c0-0.8-0.4-1.6-1-2c-4.5-2.9-8.6-6.3-12.3-10.2c-0.6-0.2-1.2-0.4-1.6-0.4c-0.4,0-0.8,0-1.2,0.2v29
		L-1290.9,1527.8L-1290.9,1527.8z"></path>
	<path class="ladsvg-4046-st2" d="M-1273.5,1545.1h28.6c0.2-0.4,0.2-0.8,0.2-1.2c0-0.6-0.2-1.2-0.4-1.6c-3.9-3.7-7.2-8-10.2-12.3
		c-0.4-0.6-1.2-1-2-1s-1.4,0.4-2,1c-2.9,3.9-7.4,6.5-12.3,7.2c-0.4,0-0.8,0-1.2,0c-1.2,0-2.2-0.2-3.5-0.6
		C-1274.3,1539-1273.5,1542.1-1273.5,1545.1z"></path>
	<path class="ladsvg-4046-st2" d="M-1084.1,1545.1h28.6c0-3.1,0.8-6.1,2.5-8.8c-1,0.4-2.2,0.6-3.5,0.6c-0.4,0-0.8,0-1.2,0
		c-4.9-0.6-9.2-3.1-12.3-7.2c-0.4-0.6-1.2-1-2-1c-0.8,0-1.6,0.4-2,1c-2.9,4.5-6.3,8.6-10.2,12.3c-0.2,0.6-0.4,1.2-0.4,1.6
		C-1084.3,1544.3-1084.1,1544.7-1084.1,1545.1z"></path>
	<path class="ladsvg-4046-st2" d="M-1046.3,1525.5c0,0.4,0,0.8,0,1.2c0,1.2-0.2,2.2-0.6,3.5c2.7-1.6,5.7-2.5,8.8-2.5v-28.6
		c-0.4-0.2-0.8-0.2-1.2-0.2c-0.6,0-1.2,0.2-1.6,0.4c-3.7,3.9-7.8,7.2-12.3,10.2c-0.6,0.4-1,1.2-1,2s0.4,1.4,1,2
		C-1049.4,1516.4-1046.9,1520.8-1046.3,1525.5z"></path>
	<path class="ladsvg-4046-st3" d="M-1198.8,1499.4c18.2,2.5,35.1,10.4,48.8,22.7c1-1.8,1.6-3.7,1.6-5.7c0-2.2-0.6-4.3-1.8-6.3
		c-3.5-5.3-6.5-10.6-9.4-16.1c-2-4.1-6.3-6.7-10.8-6.7c-0.8,0-1.4,0-2.2,0.2c0.2-0.4,0.2-0.8,0.2-1.2c0-2.7-2-4.7-4.7-4.7
		c-1.4,0-2.9,0.6-3.9,1.8c-1.6,2.2-4.1,3.5-6.9,3.5c-4.1,0-7.8-2.9-8.4-7.2c-0.2-0.6-0.2-1.4-0.2-2c0-6.3,5.1-11.4,11.4-11.4
		c0.2,0,0.6,0,0.8,0c22.3,1.6,44.1,7.4,64.6,16.6c0.6-0.6,1-1,1.6-1.4c-8.2-5.5-16.8-10.6-25.5-15.3c-0.4,0-0.8,0-1.2,0
		c-8.6,0-17-2.2-24.3-6.3c-4.7-2.2-9.8-3.5-15.1-3.5c-3.9,0-7.6,0.6-11.2,1.8c-11,0.6-19.8,9.8-19.8,20.8
		C-1215.6,1488.8-1208.7,1497.4-1198.8,1499.4z"></path>
	<path class="ladsvg-4046-st3" d="M-1123.5,1413.7c4.1,7.4,6.3,15.7,6.3,24.3c0,0.4,0,0.8,0,1.2c4.7,8.8,9.8,17.4,15.3,25.5
		c0.4-0.6,1-1.2,1.4-1.6c-9.4-20.4-14.9-42.2-16.6-64.5c0-0.2,0-0.6,0-0.8c0-6.3,5.1-11.4,11.4-11.4c0.6,0,1.4,0,2,0.2
		c4.1,0.8,6.9,4.3,6.9,8.6c0,2.7-1.2,5.3-3.5,6.9c-1.2,0.8-1.8,2.2-1.8,3.9c0,2.7,2,4.7,4.7,4.7c0.4,0,0.8,0,1.2-0.2
		c-0.2,0.8-0.2,1.4-0.2,2.2c0,4.5,2.7,8.8,6.5,10.8c5.5,2.9,11,6.1,16.1,9.4c1.8,1.2,4.1,1.8,6.1,1.8s4.1-0.6,5.7-1.6
		c-12.3-13.7-20.2-30.6-22.7-48.7c-2-9.8-10.6-16.8-20.4-16.8c-11,0-20.2,8.8-20.8,19.8c-1.2,3.7-1.8,7.4-1.8,11.2
		c0,0.2,0,0.4,0,0.8C-1126.9,1404.3-1125.7,1409.2-1123.5,1413.7z"></path>
	<path class="ladsvg-4046-st4" d="M-1145.3,1305.4h51.5l19.2,19.2l4.5-4.5l-19.6-19.6v-8.2h-55.4c0,2.9-0.2,5.5-0.2,8.4
		C-1145.3,1302.4-1145.3,1304-1145.3,1305.4z"></path>
	<path class="ladsvg-4046-st4" d="M-1290.9,1493.5h8.2l19.6,19.6l4.5-4.5l-19.2-19.2V1438c-1.6,0-3.1,0-4.7,0c-2.9,0-5.5,0-8.4,0.2V1493.5z"></path>
	<path class="ladsvg-4046-st4" d="M-1239.1,1545.1h145.6l25.5-25.5l-4.5-4.5l-0.2,0.2l-12.3,12.3l-9.4,9.6h-70.1h-64.6c-0.6,0-1.2-0.2-1.8-0.8
		l-23.5-23.5l-4.5,4.5l19.6,19.6v8.2L-1239.1,1545.1L-1239.1,1545.1z"></path>
	<path class="ladsvg-4046-st4" d="M-1046.1,1418.8v70.2l-21.9,21.9l4.5,4.5l25.5-25.5v-145.5h-8.2l-19.6-19.6l-4.5,4.5l23.5,23.5
		c0.4,0.4,0.8,1,0.8,1.8v64.3L-1046.1,1418.8L-1046.1,1418.8z"></path>
	<path class="ladsvg-4046-st2" d="M-1065.1,1319.7c-0.2-1-0.4-2-0.4-3.1c0-3.9,1.6-7.6,4.5-10c0.6-0.4,1.2-0.6,2-0.6c1.8,0,3.5,1.6,3.5,3.5
		c0,0.2,0,0.6,0,0.8c0.2,0,0.6,0,0.8,0c1.8,0,3.5,1.6,3.5,3.5c0,0.8-0.2,1.4-0.6,2c-2.7,2.9-6.3,4.5-10,4.5
		C-1063.1,1319.9-1064.1,1319.9-1065.1,1319.7z"></path>
	<path class="ladsvg-4046-st2" d="M-1263.7,1518c0.2,1,0.4,2,0.4,3.1c0,3.9-1.6,7.6-4.5,10c-0.6,0.4-1.2,0.6-2,0.6c-1.8,0-3.5-1.6-3.5-3.5
		c0-0.2,0-0.6,0-0.8c-0.2,0-0.6,0-0.8,0c-1.8,0-3.5-1.6-3.5-3.5c0-0.8,0.2-1.4,0.6-2c2.7-2.9,6.3-4.5,10-4.5
		C-1265.8,1517.8-1264.7,1517.8-1263.7,1518z"></path>
	<path class="ladsvg-4046-st2" d="M-1277,1315.4c-0.4-0.6-0.6-1.2-0.6-2c0-1.8,1.6-3.5,3.5-3.5c0.2,0,0.6,0,0.8,0c0-0.2,0-0.6,0-0.8
		c0-1.8,1.6-3.5,3.5-3.5c0.6,0,1.4,0.2,2,0.6c2.9,2.7,4.5,6.3,4.5,10c0,1-0.2,2-0.4,3.1c-1,0.2-2,0.4-3.1,0.4
		C-1270.7,1319.9-1274.3,1318.3-1277,1315.4z"></path>
	<path class="ladsvg-4046-st0" d="M-1118.3,1481.3c0.4-0.4,1-0.6,1.4-1c-2-2.5-3.5-5.3-4.1-8.6c-49-30.6-105.9-46.9-163.8-46.9c-2,0-4.1,0-6.1,0
		v6.5c2,0,4.1,0,6.1,0C-1225.4,1431.1-1167.6,1448.7-1118.3,1481.3z"></path>
	<path class="ladsvg-4046-st3" d="M-1121,1466.3c0.2-1,0.4-2.2,0.8-3.3c1-0.4,2.2-0.6,3.3-0.8l-52.3-52.2c-0.2,0-0.2,0-0.4,0
		c-2,0-3.9-0.6-5.5-1.8c1.2,1.6,1.8,3.5,1.8,5.5c0,0.2,0,0.2,0,0.4L-1121,1466.3z"></path>
	<path class="ladsvg-4046-st0" d="M-1102.9,1466.3c0.2-0.4,0.6-1,1-1.4c-5.5-8.4-10.6-16.8-15.3-25.5c-22.9-43.4-34.9-91.8-34.9-140.8
		c0-2,0-4.1,0-6.1h-6.5c0,2,0,4.1,0,6.1c0,57.9,16.3,114.6,47.2,163.8C-1108.3,1462.9-1105.3,1464.3-1102.9,1466.3z"></path>
	<path class="ladsvg-4046-st3" d="M-1117.1,1439.3c0-0.4,0-0.8,0-1.2c0-8.6-2.2-17-6.3-24.3c-2.2-4.5-3.5-9.4-3.5-14.3
		c-10.4-27-16.3-55.5-18-84.5c-0.2-3.1-0.2-6.3-0.4-9.6c0-1.6,0-3.1,0-4.7c0-2.9,0-5.5,0.2-8.4h-6.9c0,2,0,4.1,0,6.1
		C-1152.3,1347.6-1140.2,1396.1-1117.1,1439.3z"></path>
	<path class="ladsvg-4046-st3" d="M-1183.9,1456.2c4.9,0.2,9.8,1.4,14.3,3.5c7.4,4.1,15.7,6.3,24.3,6.3c0.4,0,0.8,0,1.2,0
		c-43.3-22.9-91.6-34.8-140.7-34.8c-2,0-4.1,0-6.1,0v6.9c2.9,0,5.5-0.2,8.4-0.2C-1248.7,1438-1215.4,1444.2-1183.9,1456.2z"></path>
	<rect x="-1290.9" y="1292.4" class="ladsvg-4046-st5" width="252.8" height="252.2"></rect>
</g>
<g id="Layer_1">
</g>
</svg>