<?xml version="1.0" encoding="utf-8"?>
<!-- Generator: Adobe Illustrator 23.0.3, SVG Export Plug-In . SVG Version: 6.00 Build 0)  -->
<svg version="1.1" id="Layer_1" xmlns="http://www.w3.org/2000/svg" xmlns:xlink="http://www.w3.org/1999/xlink" x="0px" y="0px"
	 viewBox="0 0 500 500" style="enable-background:new 0 0 500 500;" xml:space="preserve">
<style type="text/css">
	.st0{fill:#D1D3D4;}
	.st1{fill:#939598;}
	.st2{fill:#58595B;}
</style>
<path class="st0" d="M247.2,0c1.7,0,3.3,0,5,0c0,46.1,0,94.1,0,142.8c0,7.2,1.3,16.2,0,20c-0.7,2.1-0.8,2.3-3,4
	c-0.9,0.7-2.2,0.3-3,1c-0.4,0.4-0.6,1.7-1,2c-1.4,0.9-3.5,1-5,2c-1,0.6-2,2.3-3,3c-2.6,1.9-5.4,4.3-8,6c-1.5,1-3.7,1.1-5,2
	c-1.4,0.9-3.3,4.3-5,5c-0.8,0.3-2.3-0.4-3,0c-0.7,0.5-0.4,2.6-1,3c-0.7,0.4-2.3-0.5-3,0c-1.4,1-1.8,3.2-3,4c-0.7,0.5-2.2-0.4-3,0
	c-0.6,0.3-0.5,1.7-1,2c-4.1,2.9-7.5,5.5-12,8c-3.7,2.1-8,5.1-12,8c-1.5,1.1-2.6,1.9-4,3c-2.4,1.9-4.9,2.8-8,5c-1.1,0.8-1.9,2.2-3,3
	c-1.7,1.2-3.5,0.8-5,2c-0.6,0.5-0.5,1.4-1,2c-0.7,0.8-1.1,0.3-2,1c-5.2,3.7-10.7,7.4-16,11c-1,0.7-2.2,0.2-3,1c-0.5,0.4-0.5,1.6-1,2
	c-2.4,1.9-5,2.9-8,5c-1.3,0.9-1.6,3.2-4,2c0,54.9,0,109.8,0,164.7c-1.1,2.3-4.3,1.8-6,3c-0.9,0.6-0.6,2.2-2,3c-2.4,1.3-5.2,3.1-8,5
	c-0.9,0.6-0.9,1.4-2,2c-3.4,1.7-6.4,4.4-10,7c-0.4,0.3-1.7-0.3-2,0c-0.3,0.3,0.3,1.8,0,2c-1.1,0.8-3,0.4-4,1c-1.9,1.1-3.6,4.4-6,6
	c-1.2,0.8-3,0.4-4,1c-1.7,1-4.5,3.3-7,5c-6.5,4.3-13,9.2-20,14c-3.4,2.3-6.7,5.3-11,6c-1.5,4.8-8.2,4.4-10,9c-3.4,0.5-5.6,3.3-8,5
	c-0.5,0.3-1.7,1.9-2,2c-2.5,1-2.2-0.1-4,2c-0.7,0.8-1.1,0.3-2,1c-5,3.6-10,7.4-15,11c-1,0-2,0-3,0c0-54.9,0-109.8,0-164.7
	c7.3-5.1,14.4-10.4,21-15c2.5-1.7,5.4-3.3,8-5c0.5-0.3,0.4-1.7,1-2c0.8-0.4,2.2,0.4,3,0c1-0.6,1.8-2.2,3-3c7.4-5.3,14.9-9.9,22-15
	c4.6-3.3,9.4-6.9,14-10c1-0.7,2.1-2.4,3-3c0.7-0.5,2.2,0.4,3,0c0.3-0.2,0.6-1.7,1-2c1.1-0.7,2.9-1.3,4-2c4.2-2.8,7.4-5.4,11-8
	c0.9-0.7,1.3-0.2,2-1c1.8-2.1,1.5-1,4-2c0.3-0.1,1.5-1.7,2-2c2.3-1.5,4.5-3.3,7-5c2.4-1.7,5.7-3.1,7-6c1.2-0.5,3.2-0.2,4-1
	c0.3-0.3-0.3-1.8,0-2c1.1-0.7,5.2,0.4,4-3c0-54.2,0-108.5,0-162.7c5-3.6,12.5-7.6,16-11c0.8-0.8,0.9-0.3,2-1c2.9-1.9,5.2-4.2,8-5
	c1.4-0.4,0.2-1.5,1-2c1-0.7,2.8-0.2,4-1c0.8-0.6,1.2-2.3,2-3c1.2-1,2.9-1.2,4-2c4.1-2.8,7.9-6.7,13-8c0.1-3.1,2.6-2.4,4-3
	c2.3-1,4-6.1,8-5c0.9-3.3,5.8-4.9,7-6c0.8-0.8,1-0.3,2-1c1.2-0.8,1.9-2.3,3-3c0.5-0.3,1.5,0.2,2,0c0.3-0.2,0.6-1.8,1-2
	c1.5-0.9,2.6-1,4-2c0.6-0.4,0.6-1.8,1-2c0.7-0.4,2.3,0.5,3,0c1.1-0.8,1.8-2.2,3-3c4.3-3,8.7-6.2,13-9c4.6-3,9.9-5.5,13-10
	C241.7,4.5,245.5,3.3,247.2,0z"/>
<path class="st0" d="M489.5,5c-2.5,4.2-7,6.3-11,9c-3.5,2.4-7.5,5.9-12,7c-1.5,2.6-4.7,4.3-7,6c-0.6,0.4-2.3,0.4-3,1
	c-0.7,0.5-0.1,1.4-1,2c-2.7,1.7-4.8,3-8,5c-0.7,0.5-0.5,1.7-1,2c-0.7,0.5-2.3-0.5-3,0c-2.5,1.7-4.3,4.5-7,6
	c-10.8,6.6-20.6,14.1-31,21c-1.3,0.6-2.5,2-4,3c-2.3,1.5-5.2,3.3-8,5c-3.7,2.2-7,5.2-11,8c-0.4,0.3-1.7-0.3-2,0
	c-0.3,0.3,0.3,1.7,0,2c-1.3,1.1-4.2,0.7-6,3c0,54.9,0,109.8,0,164.7c-6,2.4-10.8,7.4-16,11c-1,0.7-2.2,0.2-3,1c-1.1,1.1-2.6,2.4-5,4
	c-0.8,0.5-2,0.4-3,1c-0.5,0.3-0.5,1.7-1,2c-2.2,1.4-3.6,2.4-6,4c-0.8,0.5-2.6,1.9-4,3c-1.1,0.8-4.2,2.7-6,4c-1.4,1-2.7,1.2-4,2
	c-2.5,1.6-4.7,4.3-7,6c-1.2,0.9-2,0-3,1c-1.6,1.6-6,5-9,7c-0.5,0.3-1.7,1.9-2,2c-2.3,0.9-2.8,0.6-5,2c-1.2,0.8-3,2.6-5,4
	c-2.5,1.7-5.5,3.2-8,5c-1.6,1.1-2.5,2.2-4,3c-3.6,2-8.1,5.2-12,8c-1.5,1-2.6,1.9-4,3c-1,0.8-2,2.3-3,3c-1.3,0.9-2-0.1-3,1
	c-1.6,1.8-0.9,0.5-4,2c-2,0.9-5.3,6.2-9,7c0,54.6,0,109.2,0,163.7c1.7,0,3.3,0,5,0c5-3.6,10-7.4,15-11c0.9-0.7,1.3-0.2,2-1
	c1.8-2.1,1.5-1,4-2c0.3-0.1,1.5-1.7,2-2c2.5-1.6,4.6-4.5,8-5c1.8-4.6,8.5-4.2,10-9c4.3-0.7,7.6-3.7,11-6c7-4.7,13.5-9.6,20-14
	c2.5-1.7,5.3-4,7-5c1-0.6,2.9-0.2,4-1c2.4-1.6,4.1-4.9,6-6c1-0.6,2.9-0.2,4-1c0.3-0.2-0.3-1.7,0-2c0.3-0.3,1.6,0.3,2,0
	c3.6-2.6,6.6-5.3,10-7c1.1-0.6,1.1-1.4,2-2c2.8-1.9,5.6-3.7,8-5c1.4-0.8,1.1-2.4,2-3c1.7-1.1,4.9-0.7,6-3c0-54.9,0-109.8,0-164.7
	c2.9,1.3,3.2-1.8,5-3c1.5-1,3.5-1.9,5-3c3.2-2.3,6.8-4.9,10-7c1.5-1,3.5-2,5-3c1.8-1.2,3.2-2.8,5-4c0.9-0.6,2-0.3,3-1
	c1-0.6,1.1-1.4,2-2c1.5-1.1,3.3-2.8,5-4c1.6-1.1,3.5-2,5-3c0.8-0.5,1.8-0.3,3-1c0.8-0.5,1.2-2.5,2-3c1-0.7,2.2-0.4,3-1
	c0.7-0.5,1.2-1.4,2-2c0.8-0.6,2.2-0.3,3-1c0.9-0.7,1-2.3,2-3c1-0.7,2.2-0.4,3-1c0.8-0.6,1.1-1.4,2-2c2-1.2,4.2-1.8,6-3
	c1.4-1,2.6-2.9,4-4c1.7-1.2,5.2-1.2,5-4c2.7,0.6,4.3-1.7,6-3c2.1-1.5,2.1-1,3-3c0.1-0.1,1.8-0.9,2-1c1.8-1.3,4.2-1.7,6-3
	c0.7-0.4,1.2-1.4,2-2c2-1.4,4.4-1.9,6-3c0.8-0.6,1.2-2.4,2-3c0.8-0.6,2.4-0.5,3-1c0.1-0.1,0.8-0.9,1-1c0.7-0.7,1.1-0.3,2-1
	c0.3-0.2-0.3-1.7,0-2c0.3-0.3,1.6,0.3,2,0c3.1-2,5.3-4.8,9-5c0-55.6,0-111.2,0-166.7c-0.7,0-1.3,0-2,0c-0.3,0-0.7,0-1,0
	C495.7,2.5,493.6,4.8,489.5,5z"/>
<path class="st1" d="M500.5,2c-2.8,0.6-4.7,2.4-7,4c-1,0.6-2.5,1.8-4,3c-0.6,0.5-1.3,0.5-2,1c-1.9,1.4-4,2.1-6,4
	c-1.4,1.3-2.6,2.4-5,4c-1.3,0.9-2.8,2.1-4,3c-2.1,1.5-3.8,2.2-6,4c-1.7,1.4-5.6,3.4-8,5c-0.5,0.3-1.4,0.6-2,1
	c-4.1,2.7-9.8,7.5-15,11c-2.2,1.4-3.8,2.2-6,4c-0.6,0.4-1.3,0.5-2,1c-1.3,0.9-1.7,2.1-3,3c-0.9,0.7-2.2,0.3-3,1
	c-1.3,1.2-2.6,2.3-5,4c-2.5,1.7-5.2,3.1-8,5c-1.4,0.9-2.6,2.1-4,3c-2.2,1.4-3.6,2.4-6,4c-0.5,0.3-1.4,0.6-2,1
	c-4.2,2.8-9.7,7.4-15,11c-2.6,1.7-4.9,3.1-8,5c-4.2,2.6-8.7,2.6-12-3c-5.5-2.4-10.2-6.7-15-10c-1.2-0.8-2.7-1.2-4-2
	c-2.4-1.5-3.9-3.1-7-5c-0.4-0.3-0.6-1.8-1-2c-0.7-0.4-2.3,0.5-3,0c-0.7-0.5-0.5-2.7-1-3c-0.7-0.4-2.3,0.5-3,0c-1-0.7-1.9-2.2-3-3
	c-1.2-0.8-2.7-1.2-4-2c-2.3-1.4-3.9-2.9-7-5c-0.4-0.3-0.7-1.8-1-2c-0.7-0.4-2.3,0.5-3,0c-0.2-0.2-0.7-1.7-1-2c-0.6-0.5-1.4-0.5-2-1
	c-2.1-1.6-3.8-2-6-4c-0.3-0.3-0.8-1.8-1-2c-0.7-0.5-2.2,0.4-3,0c-0.5-0.3-0.5-1.7-1-2c-2.3-1.5-5.7-2.4-8-4c-2.3-1.6-3.8-4.5-6-6
	c-0.7-0.5-2.3,0.5-3,0c-0.5-0.3-0.3-1.6-1-2c-2.4-1.5-4.3-3-7-5c-1.3-1-2.6-1.1-4-2c-2.3-1.5-4.6-3.3-7-5c-0.4-0.3-0.7-1.8-1-2
	c-2.4-1.1-2.2,0.1-4-2c-1.5-1.8-6.5-3.6-9-6c-3.8-0.1-6.1,3.1-9,5c-0.4,0.3-1.7-0.3-2,0c-1.1,1.1-0.5,2-2,3c-1.5,1-2.5,1-4,2
	c-1.4,0.9-3.4,4.2-5,5c-0.7,0.4-2.3-0.5-3,0c-2.4,1.6-4.5,4.3-7,6c-2.6,1.7-5.3,3.3-8,5c-3.9,2.5-7.7,5.3-12,8c-0.4,0.3-0.6,1.8-1,2
	c-0.7,0.4-2.3-0.5-3,0c-0.3,0.2,0.3,1.7,0,2c-0.9,0.9-3,0.2-4,1c-1,0.7-1.9,2.2-3,3c-5.1,3.4-10.4,7.1-16,11c-2.5,1.7-5.3,3.2-8,5
	c-0.9,0.6-2.4,2-4,3c-2.2,1.4-3.6,2.4-6,4c-0.5,0.3-1.4,0.6-2,1c-4.4,2.9-9.6,7.4-15,11c-2.6,1.7-4.9,3.1-8,5c-5.6,3.5-7.6,0.8-13-3
	c-2.8-2-6-3.2-7-6c-3.3,1.5-3.4-2.3-5-3c-0.5-0.2-1.5,0.3-2,0c-0.8-0.5-1.2-2.5-2-3c-1.4-0.8-2.8-0.2-4-1c-1.7-1.2-3.2-3.7-5-5
	c-1.6-1.1-5.9-0.8-5-4c-2.8,0.8-4-1.8-6-3c-3.8-2.3-7.2-4.1-11-7c-1.7-1.2-3.4-2.9-5-4c-1-0.7-2.1-1.3-3-2c-0.7-0.5-1.4-1.6-2-2
	c-1.1-0.8-2.8-0.2-4-1c-0.3-0.2,0.3-1.7,0-2c-0.3-0.3-1.6,0.3-2,0c-1.7-1.1-3.3-2.9-5-4c-1.8-1.2-4.2-1.7-6-3c-0.9-0.6-1.2-2.4-2-3
	c-1.7-1.2-3.9-1.5-6-3c-0.7-0.5-1.4-1.6-2-2c-1.8-1.2-4.3-1.8-6-3c-0.8-0.5-1.2-2.5-2-3c-1.3-0.7-2.1-0.4-3-1C14.2,11.3,7.6,5.8,0,2
	c0.1-0.2-0.1-2,0-2c8-1.8,20.8,0,32,0c145.5,0,290.6,0,437.4,0c10.9,0,23.3-1.8,31,0C500.6,0,500.4,1.8,500.5,2z"/>
<path class="st1" d="M0,335.5c4.6-0.6,7.4-4.6,11-7c1.6-1.1,4.3-1.8,6-3c1.6-1.1,3.4-2.9,5-4c0.9-0.6,2.1-0.3,3-1
	c0.8-0.6,1.2-2.4,2-3c0.9-0.7,2.3-0.4,3-1c1.9-1.5,3.4-3.1,5-4c2.2-1.2,3.7-3.1,5-4c2.7-1.9,4.4-1.7,6-3c2.9-2.4,5.3-4.1,8-6
	c0.9-0.7,2.2-0.4,3-1c0.8-0.7,1.2-2.3,2-3c2.6-2.1,5.8-3.9,8-5c3-1.4,4.6-3.4,7-4c1.4-0.4,0.2-1.4,1-2c1.7-1.1,4.2-1.8,6-3
	c0.7-0.4,1.2-1.5,2-2c1.2-0.8,2.5-0.5,3-2c6.6-4.8,13.3-8.4,20-13c0.8-0.5,0.9-1.5,2-2c3.4-1.7,4.4-3.2,7-5c3.5-2.3,7.1-4.6,11-6
	c4.6,1.5,7.8,5.9,11,8c0.7,0.4,3.4,0.4,4,1c0.3,0.3-0.3,1.8,0,2c1.2,0.8,2.9,1.3,4,2c4.4,2.8,8,5.2,12,8c4.8,3.4,9.6,7.4,15,11
	c1.2,0.8,2.5,1,4,2c4.3,2.8,8.1,5.2,12,8c4.7,3.3,9.7,7.3,15,11c2.5,1.7,5.4,3.2,8,5c1,0.7,2,2.3,3,3c1.7,1.1,3.4,0.9,5,2
	c0.9,0.6,2,2.4,3,3c0.7,0.4,3.4,0.4,4,1c0.3,0.3-0.3,1.8,0,2c1,0.7,2.8,1.3,4,2c1.4,0.8,2.6,2,4,3c2.1,1.5,5.3,3.2,8,5
	c4.3,2.8,5.7,5.2,9,5c2.8-0.2,7.2-6.1,9-7c0.8-0.4,2.3,0.4,3,0c0.4-0.2,0.6-1.7,1-2c0.8-0.8,2-0.3,3-1c0.5-0.3,0.4-1.7,1-2
	c0.8-0.4,2.3,0.5,3,0c0.2-0.2,0.7-1.7,1-2c2.2-1.9,4-2.5,6-4c0.8-0.6,1.4-0.4,2-1c0.7-0.7,0.8-1.9,2-2c8.9-6.2,18.1-11.7,27-18
	c2.2-1.5,3.7-3.5,6-5c1.3-0.8,2.6-1,4-2c2.1-1.5,2.9-2.4,5-3c1.4-0.4,0.2-1.5,1-2c1.5-1,2.8-1.2,4-2c2.5-1.8,4.8-3.1,7-5
	c6.6-4.8,13.3-8.4,20-13c0.8-0.5,0.9-1.5,2-2c3.4-1.7,4.4-3.2,7-5c3.5-2.3,7.1-4.6,11-6c4.9,1.7,7.9,6,11,8c0.7,0.4,3.4,0.4,4,1
	c0.3,0.3-0.3,1.8,0,2c1,0.7,2.9,1.3,4,2c4.3,2.8,8.1,5.2,12,8c5,3.5,9.7,7.5,15,11c1.2,0.8,2.9,1.3,4,2c4.2,2.7,8.2,5.3,12,8
	c5,3.6,9.8,7.4,15,11c2.5,1.7,5.4,3.2,8,5c1.1,0.7,2,2.3,3,3c1.6,1,3.6,1.1,5,2c1,0.7,1.9,2.3,3,3c0.7,0.4,3.4,0.4,4,1
	c0.3,0.3-0.3,1.8,0,2c1.3,0.9,2.8,1.3,4,2c1.3,0.8,2.6,2,4,3c2.6,1.8,5.3,3.2,8,5c2.5,1.7,4.5,4.9,8,5c0-57.2,0-114.5,0-171.7
	c-4.4,0.9-7.2,4.5-11,7c-0.5,0.3-1.4,0.6-2,1c-1.3,0.9-1.9,2.3-3,3c-1,0.7-2.2,0.2-3,1c-0.4,0.3-0.6,1.8-1,2c-0.7,0.4-2.2-0.4-3,0
	c-0.6,0.3-0.5,1.7-1,2c-4,2.6-8.1,4.8-12,8c-1.1,0.9-1.8,2.2-3,3c-1.4,1-3.5,1.1-5,2c-1.3,0.8-1.9,2.2-3,3c-1,0.7-2.2,0.2-3,1
	c-0.4,0.3-0.6,1.8-1,2c-0.7,0.4-2.2-0.4-3,0c-0.6,0.3-0.5,1.7-1,2c-0.8,0.5-1.9,0.4-3,1c-0.5,0.3-0.5,1.7-1,2c-2.2,1.6-3.6,2.4-6,4
	c-0.5,0.3-1.4,0.6-2,1c-1.5,1-1.8,2.2-3,3c-1,0.7-2.2,0.2-3,1c-1.3,1.2-2.4,2.2-5,4c-1,0.7-2.2,0.2-3,1c-0.5,0.4-0.5,1.6-1,2
	c-2.5,2.1-4.8,3-8,5c-2.2,1.4-3.6,2.4-6,4c-0.5,0.3-1.4,0.6-2,1c-1.1,0.8-1.7,2.1-3,3c-1,0.7-2.2,0.2-3,1c-1.7,1.6-5.8,5-9,7
	c-2.2,1.4-3.6,2.4-6,4c-5.7,3.8-7.9,2.9-15-2c-1.3-0.9-2.7-2-4-3c-0.6-0.4-1.2-0.5-2-1c-0.8-0.5-0.4-1.6-1-2c-1.3-0.9-3.7-1.1-5-2
	c-1.4-0.9-1.8-2.2-3-3c-3-2-6.1-3.7-8-5c-2.5-1.7-5.7-3.3-8-5c-0.3-0.2,0.3-1.7,0-2c-0.7-0.7-3.3-0.5-4-1c-1.2-0.8-1.7-2.1-3-3
	c-1.5-1-3.6-1-5-2c-1.4-0.9-1.8-2.2-3-3c-2.9-1.9-5.4-3.1-8-5c-5.2-3.7-10.1-7.7-15-11c-2.8-1.8-5.3-3.1-8-5c-1.2-0.8-2.7-2.2-4-3
	c-2.9-1.8-4.7-2.9-8-5c-0.5-0.3-1.4-0.6-2-1c-0.7-0.5-0.5-1.6-1-2c-1.5-1-3.4-1-5-2c-1-0.7-2-2.3-3-3c-2.6-1.8-5.3-3.1-8-5
	c-2.3-1.6-4.6-4.9-8-5c-4.4,0.9-7.2,4.5-11,7c-0.5,0.3-1.4,0.6-2,1c-1.3,0.9-1.9,2.3-3,3c-1,0.7-2.2,0.2-3,1c-0.4,0.3-0.6,1.8-1,2
	c-0.7,0.4-2.2-0.4-3,0c-0.6,0.3-0.5,1.7-1,2c-4,2.6-8.1,4.8-12,8c-1.1,0.9-1.8,2.2-3,3c-1.4,1-3.5,1.1-5,2c-1.3,0.8-1.9,2.2-3,3
	c-1,0.7-2.2,0.2-3,1c-0.4,0.3-0.6,1.8-1,2c-0.7,0.4-2.2-0.4-3,0c-0.6,0.3-0.5,1.7-1,2c-0.8,0.5-1.9,0.4-3,1c-0.5,0.3-0.5,1.7-1,2
	c-2.2,1.6-3.6,2.4-6,4c-0.5,0.3-1.4,0.6-2,1c-1.5,1-1.8,2.2-3,3c-1,0.7-2.2,0.2-3,1c-1.3,1.2-2.4,2.2-5,4c-1,0.7-2.2,0.2-3,1
	c-0.5,0.4-0.5,1.6-1,2c-2.5,2.1-4.8,3-8,5c-2.2,1.4-3.6,2.4-6,4c-0.5,0.3-1.4,0.6-2,1c-1.1,0.8-1.7,2.1-3,3c-1,0.7-2.2,0.2-3,1
	c-1.7,1.6-5.8,5-9,7c-2.2,1.4-3.6,2.4-6,4c-5.7,3.8-7.9,2.9-15-2c-1.3-0.9-2.7-2-4-3c-0.6-0.4-1.2-0.5-2-1c-0.8-0.5-0.4-1.6-1-2
	c-1.3-0.9-3.7-1.1-5-2c-1.4-0.9-1.8-2.2-3-3c-3-2-6.1-3.7-8-5c-2.5-1.7-5.7-3.3-8-5c-0.3-0.2,0.3-1.7,0-2c-0.7-0.7-3.3-0.5-4-1
	c-1.2-0.8-1.7-2.1-3-3c-1.5-1-3.6-1-5-2c-1.4-0.9-1.8-2.2-3-3c-2.9-1.9-5.4-3.1-8-5c-5.2-3.7-10.1-7.7-15-11c-2.8-1.8-5.3-3.1-8-5
	c-1.2-0.8-2.7-2.2-4-3c-2.9-1.8-4.7-2.9-8-5c-0.5-0.3-1.4-0.6-2-1c-0.7-0.5-0.5-1.6-1-2c-1.5-1-3.4-1-5-2c-1-0.7-2-2.3-3-3
	c-2.6-1.8-5.3-3.1-8-5c-2.3-1.6-4.6-4.9-8-5C0,221,0,278.2,0,335.5z"/>
<path class="st1" d="M479.5,483.2c-1.2-0.8-2.8-1.3-4-2c-0.4-0.2-0.7-1.8-1-2c-1.6-0.7-4.7-2-7-4c-0.4-0.3-0.7-1.8-1-2
	c-0.7-0.5-2.2,0.4-3,0c-1.5-0.7-4.9-5.8-7-7c-1.4-0.8-2.8-0.3-4-1c-1.1-0.7-2-2.4-3-3c-0.9-0.5-2.9-0.3-4-1c-0.2-0.1-0.7-1.8-1-2
	c-0.6-0.5-1.3-0.5-2-1c-4.3-3.2-11.6-8.2-17-12c-1.3-0.9-2.7-1.2-4-2c-0.4-0.2-0.7-1.8-1-2c-0.5-0.2-1.5,0.3-2,0
	c-0.4-0.3-0.7-1.8-1-2c-2.2-1.1-2.2-0.2-4-2c-0.7-0.7-1.1-0.4-2-1c-4-2.7-8.2-5.7-13-9c-2.2-1.5-3.8-4.6-7-4c-1.1-2.9-4.5-4.3-7-6
	c-2.7-1.8-5.7-2.8-8-5c-3.4,0.3-6.3,3.1-9,5c-1.3,0.9-2.6,2-4,3c-2.6,1.8-4.9,3-8,5c-2,1.3-3.7,2.5-6,4c-0.5,0.3-1.4,0.6-2,1
	c-3.1,2.1-7,5.2-11,8c-1.5,1-2.3,2-4,3c-2,1.2-3.9,2.4-6,4c-0.6,0.4-1.3,0.5-2,1c-3.1,2.2-7,5.3-11,8c-2.6,1.8-5.5,3.3-8,5
	c-0.9,0.6-2.4,2-4,3c-1,0.6-2.9,1.2-4,2c-1.3,0.9-1.7,3.2-3,4c-0.7,0.5-2.2-0.4-3,0c-0.6,0.3-0.5,1.7-1,2c-2.5,1.7-5.4,3.2-8,5
	c-1.3,0.9-2.7,2.2-4,3c-2.5,1.6-5.1,2.9-8,5c-1.3,0.9-1.8,2.2-3,3c-0.7,0.5-2.2,0.4-3,1c-0.5,0.3-0.6,1.7-1,2c-0.7,0.5-2.3-0.5-3,0
	c-0.4,0.3-0.4,1.6-1,2c-2.5,1.7-5.3,3.5-8,5c-3.2,0.1-5.6-2.4-8-4c-0.5-0.3-1.3-0.6-2-1c-0.7-0.4-0.5-1.7-1-2c-0.9-0.6-2.9-0.3-4-1
	c-2.4-1.7-3.7-4.4-6-6c-1.1-0.8-2.5-1-4-2c-2.6-1.7-6.6-4.8-10-7c-3.6-2.3-6.3-4.5-10-7c-1.2-0.8-2.6-1.1-4-2c-1.1-0.7-1.6-2.2-3-3
	c-0.9-0.5-2.9-0.3-4-1c-0.2-0.1-0.7-1.8-1-2c-0.6-0.5-1.4-0.5-2-1c-4.4-3.3-11.5-8.2-17-12c-1.3-0.9-2.7-1.2-4-2
	c-0.4-0.2-0.7-1.8-1-2c-0.5-0.2-1.5,0.3-2,0c-0.4-0.3-0.7-1.8-1-2c-2.2-1.1-2.2-0.2-4-2c-0.7-0.7-1.1-0.4-2-1c-4-2.7-8.2-5.7-13-9
	c-2.2-1.5-3.8-4.6-7-4c-1.1-2.9-4.5-4.3-7-6c-2.7-1.8-5.7-2.8-8-5c-3.4,0.3-6.3,3.1-9,5c-1.3,0.9-2.6,2-4,3c-2.5,1.8-5.1,3.1-8,5
	c-2,1.3-3.7,2.5-6,4c-0.5,0.3-1.4,0.6-2,1c-3.1,2.1-7,5.2-11,8c-1.5,1-2.3,2-4,3c-2,1.2-3.9,2.4-6,4c-0.6,0.4-1.3,0.5-2,1
	c-3.1,2.2-7,5.3-11,8c-1.3,0.9-2.7,2.1-4,3c-0.8,0.5-2.1,0.4-3,1c-0.6,0.4-0.5,1.7-1,2c-1.7,1.1-3.4,0.9-5,2c-1,0.6-2,2.3-3,3
	c-3.8,2.7-7.6,5.4-12,8c-1.2,0.7-3,1.3-4,2c-0.3,0.2,0.3,1.7,0,2c-0.7,0.7-3.3,0.5-4,1c-1.1,0.7-1.9,2.3-3,3c-1.5,1-3.5,0.9-5,2
	c-2.1,1.5-3.9,4.1-7,6c-1.3,0.8-2.7,1.1-4,2c-2.5,1.6-4.5,4.9-8,5c0.1,0.2-0.1,2,0,2c8,1.8,20.2,0,31,0c156.3,0,316.9,0,468.5,0
	c0.8-0.2,1.2-0.8,1-2C492.9,493.5,486.6,488.1,479.5,483.2z"/>
<path class="st2" d="M1,0c1,2.8,4.6,2.8,7,5c5.1,4.7,14.3,10.3,21,15c1.4,0.9,2.8,1.2,4,2c2.5,1.7,4.5,4.3,7,6c1,0.7,2.2,0.3,3,1
	c4,3.7,11.6,7.9,17,12c6.5,4.8,15.3,10.8,23,16c1.1,0.7,2.8,1.2,4,2c2.4,1.6,4.6,4.3,7,6c1,0.7,2.2,0.2,3,1c7.3,6.8,19.5,12.7,28,20
	c0.1,12.6,0,25.5,0,38.9c0,32.6,0,67.3,0,101.8c0,7.1-1.3,15.5,0,20c1,3.3,3.1,3.9,7,7c2.2,1.7,4.6,4.4,7,6c1.5,1,3.6,1.1,5,2
	c0.7,0.5,1.1,1.4,2,2c0.6,0.4,1.3,0.5,2,1c2.9,2,4.8,4.5,7,6c1.5,1,3.7,1.2,5,2c1,0.6,2.3,1.9,4,3c1.4,0.9,2.7,2.2,4,3
	c2.5,1.6,3.5,2.3,6,4c13.8,9.2,30.9,21.2,45,31c10.7,7.4,21.1,14.1,31,22c0,54.6,0,109.2,0,163.7c-0.3,0-0.7,0-1,0
	c-10-7.8-20.6-14.8-31-22c-30.3-20.9-62.5-41.9-93.1-63.9c0-46.3,0-92.9,0-140.8c0-7,1.3-15.6,0-20c-1.3-4.3-6.5-6.6-11-10
	c-1.3-1-1.9-2.2-3-3c-1.3-0.9-3.7-1.2-5-2c-0.7-0.5-1.1-1.4-2-2c-0.6-0.4-1.3-0.5-2-1c-2.7-1.9-4.9-4.5-7-6c-1.5-1-3.5-1-5-2
	c-1-0.6-2.3-1.9-4-3c-1.4-0.9-2.7-2.2-4-3c-2.2-1.4-3.6-2.4-6-4C51.2,200.2,24.8,180.5,0,164.7C0.7,110.2-1.3,52.9,1,0z"/>
<path class="st2" d="M250.2,142.8c0,7.1-1.3,16,0,20c1.3,3.8,9.3,8.1,15,12c11.6,7.8,21.1,14.7,32,22c4.3,2.9,7.9,4.9,12,8
	c1.3,0.9,1.8,2.2,3,3c1.5,1,3.4,1,5,2c0.7,0.5,1.1,1.4,2,2c1.4,0.9,3.8,2.4,6,4c1.1,0.9,2,2.3,3,3c1.3,0.9,3.7,1.2,5,2
	c1,0.6,2.3,1.9,4,3c1.4,0.9,2.7,2.2,4,3c2.1,1.3,3.7,2.5,6,4c2.6,1.7,6.6,4.8,10,7c2.1,1.3,3.7,2.5,6,4c3.2,2.1,9.1,5.8,12,10
	c0,53.6,0,107.2,0,160.7c-0.1,1.6,1.9,3.1,3,4c0.8,0.6,2.1,0.3,3,1c0.5,0.4,0.5,1.7,1,2c1.3,0.9,3.5,1,5,2c1,0.7,1.9,2.3,3,3
	c3.8,2.6,7.8,5.3,12,8c4.8,3.1,10.5,7.5,16,11c1.2,0.8,2.6,1.1,4,2c2.5,1.6,4.5,4.2,7,6c1,0.7,2.2,0.2,3,1c8.4,7.8,22.8,15.3,33,23
	c1.3,0.9,1.8,2.2,3,3c1.5,1,3.4,1,5,2c1.1,0.7,1.9,2.3,3,3c7.3,4.8,15.9,9.8,23,16c2.3-52.9,0.3-110.2,1-164.7
	c-25-15.7-51.4-35.6-76.1-51.9c-2.6-1.7-3.3-2.3-6-4c-1.3-0.8-2.6-2.1-4-3c-1.7-1.1-3-2.4-4-3c-1.3-0.8-3.5-1-5-2
	c-2.2-1.5-4.1-4-7-6c-0.7-0.5-1.4-0.6-2-1c-0.9-0.6-1.3-1.5-2-2c-1.4-0.9-3.5-1-5-2c-2.4-1.6-4.8-4.3-7-6c-3.9-3.1-6-3.7-7-7
	c-1.3-4.4,0-12.9,0-20c0-34.6,0-69.2,0-101.8c0-13.5,0.1-26.4,0-38.9c-8.6-7.3-20.7-13.1-28-20c-0.8-0.8-2-0.3-3-1
	c-2.4-1.6-4.6-4.4-7-6c-1.2-0.8-2.9-1.3-4-2c-7.8-5.1-16.6-11.2-23-16c-5.4-4.1-13-8.3-17-12c-0.8-0.7-2-0.3-3-1
	c-2.5-1.7-4.5-4.3-7-6c-1.2-0.8-2.7-1.1-4-2c-6.8-4.7-16-10.3-21-15c-2.4-2.2-6-2.2-7-5c-0.3,0-0.7,0-1,0
	C250.2,46.5,250.2,94.1,250.2,142.8z"/>
</svg>
