<?xml version="1.0" encoding="utf-8"?>
<!-- Generator: Adobe Illustrator 23.0.3, SVG Export Plug-In . SVG Version: 6.00 Build 0)  -->
<svg version="1.1" id="Layer_1" xmlns="http://www.w3.org/2000/svg" xmlns:xlink="http://www.w3.org/1999/xlink" x="0px" y="0px"
	 viewBox="0 0 500 500" style="enable-background:new 0 0 500 500;" xml:space="preserve">
<style type="text/css">
	.st0{fill:#A7A9AC;}
	.st1{fill:#58595B;}
</style>
<path class="st0" d="M199,0c67,0,134,0,201,0C267.1,133.8,133.8,267.1,0,400c0-67,0-134,0-201C66.8,133.1,133.1,66.8,199,0z"/>
<path class="st0" d="M487,113C363.2,236.8,236.6,362.4,112,487c-2,2-4.1,4-6,6c-2,2-4.3,4.1-5,7c66.7,0,133.3,0,200,0
	c65.9-66.8,132.2-133.1,199-199c0-66.7,0-133.3,0-200C494.3,103.4,491.1,108.9,487,113z"/>
<path class="st1" d="M200,0C133.7,67.1,67.1,133.7,0,200C0,133.3,0,66.7,0,0C66.7,0,133.3,0,200,0z"/>
<path class="st1" d="M13,388c-2,2-4,4.1-6,6c-2,2-4.1,4.3-7,5c0,33.7,0,67.3,0,101c33.7,0,67.3,0,101,0
	c132.6-133.4,265.6-266.4,399-399c0-33.7,0-67.3,0-101c-33.3,0-66.7,0-100,0C271.2,129.2,142.4,258.6,13,388z"/>
<path class="st1" d="M495,306c-1.6,1.5-3.5,2.5-5,4c-1.7,1.7-3.3,3.4-5,5c-0.7,0.7-1.2,2.4-2,3c-1,0.7-2.2,0.2-3,1
	c-1.7,1.7-2.2,4.3-4,6c-1.5,1.5-3.5,2.5-5,4c-3,3-5.5,6.4-9,9c-5,5.7-10.7,10.6-16,16c-5.1,5.2-10.8,9.9-15,16c-3.1-1.1-1.7,1.7-3,3
	c-0.3,0.3-1.7-0.3-2,0c-1.4,1.5-1.6,3.7-3,5c-1.4,1.4-3.7,1.8-5,3c-1,0.9-1.6,2.6-3,4c-5,5-9.7,10.3-15,15
	c-16.4,16.9-33.5,33.2-50,50c-7.9,8-15.7,15.8-24,24c-2.4,2.4-4.2,6-8,7c-2.4,5.3-7.3,7.5-11,12c-1.4,1.7-5,4.1-6,7
	c66.3,0,132.7,0,199,0c0-66.3,0-132.7,0-199C496.9,300.7,496.6,304.5,495,306z"/>
</svg>
