<?xml version="1.0" encoding="utf-8"?>
<!-- Generator: Adobe Illustrator 23.0.3, SVG Export Plug-In . SVG Version: 6.00 Build 0)  -->
<svg version="1.1" id="Layer_1" xmlns="http://www.w3.org/2000/svg" xmlns:xlink="http://www.w3.org/1999/xlink" x="0px" y="0px"
	 viewBox="0 0 500 500" style="enable-background:new 0 0 500 500;" xml:space="preserve">
<style type="text/css">
	.st0{fill-rule:evenodd;clip-rule:evenodd;fill:#D1D3D4;}
	.st1{fill-rule:evenodd;clip-rule:evenodd;fill:#A7A9AC;}
	.st2{fill-rule:evenodd;clip-rule:evenodd;fill:#808285;}
	.st3{fill-rule:evenodd;clip-rule:evenodd;fill:#58595B;}
</style>
<path class="st0" d="M29,195c2.2-2.5,5.4-4.8,5-8c-15.5-16.8-32.6-32.6-32-58c0.5-20.8,17.1-39.4,34-47c13.7-6.2,30.7-4,43,1
	c2.2,3.4,5.9,4.6,9,7c3,2.4,4.6,7.3,10,7c-4.1-7.2-11.1-11.6-15-19c-5.6-14.5-6.9-30.1-1-43c4.9-10.9,20.4-26.6,35-31
	c17.9-5.4,32.4,1.9,45,7c3.9,4,8.4,8.8,13,13c4.3,4,9.4,9.3,15,9c9.2-7.8,19.2-14.8,18-33c-47.3,0-94.6,0-142,0
	C63.4,38.9,41.5,63.2,0,66c0,47.3,0,94.7,0,142C15.2,209,23,201.9,29,195z"/>
<path class="st0" d="M499.9,175c0-58,0-116,0-174c-0.2-0.8-0.8-1.2-2-1c-0.7,57,1.3,116.7-1,172c-1.3,4.6-7,5-11,7
	c-3.5,1.7-7,5-11,6c-6.1,1.5-13.4-0.9-19,3C475,192.1,488.8,182.3,499.9,175z"/>
<path class="st0" d="M342.9,33c1-3.3-1.4-3.3-4-3C338.6,32.6,340.3,33.3,342.9,33z"/>
<path class="st0" d="M361.9,30c-1.7,0-3.3,0-5,0C355.9,34,362.9,34,361.9,30z"/>
<path class="st0" d="M197.9,86c-1.2,4.8,2.1,9.1,3,12c5.2,16.2,5.5,35.7,1,51c-2.6,8.7-5.8,15.6-11,23c-14.3,20.6-43.9,40.1-81,33
	c-6.4-1.2-16.7-7.6-22-7c-5.1,0.5-11.5,7.8-16,13c-14,16.3-21.6,34.9-30,57c0,3.3-1.7,5-1,9c-4.1-0.5,1,2.7-3,3
	c0.8,11.1-5.4,15.3-4,27c-3.1,6.5-5.1,23.9-1,31c0.6-20.2,5.9-48,11-63c1.3-4,1.6-8.2,3-12c4.4-12.1,11.4-27.8,19-39
	c4.1-6,17.1-22.3,22-23c3.5-0.5,6.1,2.7,10,4c14.5,4.8,26.8,4.2,45,3c2-2.7,6.2-3.1,11-3c2.6-2.7,6.5-4.2,10-6
	c6.8-3.5,10.5-6.1,15-10c2-1.7,4.5-2.5,6-4c1.4-1.4,1.2-3.8,3-6c1.4-1.7,4.9-2.5,6-4c1.6-2.2,3.1-7.4,5-11c3.3-6.2,5.4-9.5,7-16
	c4.9-19.5,3.7-46.8-7-60c25.4-27.6,61.3-44.7,108-51c2.8-2.6,9.3-2.6,15-3c5.2-0.3,11.9,1.9,14-2c-8-2.9-18.2,0.4-27,0
	c-1.6,0.1-0.8,2.5-3,2c-9.6,0-17,3-25,5c-10.6,2.6-16.2,4.9-24,8c-10.2,4.1-20.9,8.2-29,13C220.9,64.2,199.5,79.6,197.9,86z"/>
<path class="st0" d="M379.9,32c-2.9-1.1-14.8-2.8-16,1C366.8,34.2,378.7,35.8,379.9,32z"/>
<path class="st0" d="M382.9,35c6.3-2.6,11.8,5.1,14,0c-3.3-2.3-11-4.6-16-2C381,34.2,381.2,35.4,382.9,35z"/>
<path class="st0" d="M403.9,35c-1,0-2,0-3,0c0,1,0,2,0,3c1,0,2,0,3,0C403.9,37,403.9,36,403.9,35z"/>
<path class="st0" d="M407.9,40c0-1,0-2,0-3c-1,0-2,0-3,0C404.7,39.2,405.7,40.2,407.9,40z"/>
<path class="st0" d="M136,54c-4.9-0.3-8.4,0.9-9,5C130.3,57.7,135.3,58.1,136,54z"/>
<path class="st0" d="M143,54c-2,0-4,0-6,0C135.9,58.2,144.1,58.2,143,54z"/>
<path class="st0" d="M178,59c-1,0-2,0-3,0c0,1,0,2,0,3c1,0,2,0,3,0C178,61,178,60,178,59z"/>
<path class="st0" d="M111,78c7.2,9.6,23.7-1.7,25-10c0.3-1.7-3.3-2.6,0-4c-1.9-0.4-1.8-2.9-5-2c-0.9,3.9,3.5,2.5,2,7
	C128.8,75.7,121.2,80.4,111,78z"/>
<path class="st0" d="M181,69c1.5,0,2.2-7.4-1-6C179.1,63.7,177.3,69.9,181,69z"/>
<path class="st0" d="M97,100c1.7,0,3.3,0,5,0c0.2-2.2-0.8-3.2-3-3C99.3,99,97.6,99,97,100z"/>
<path class="st0" d="M331.9,101c3.4,3.7,5.7-2.3,10-1C341.7,94.3,333.4,98.9,331.9,101z"/>
<path class="st0" d="M115,177c41.7,11.3,71.7-25.8,62-63c-4.1-3.6-4.2-11.2-9-14c-7.2,15.4-22.1,23.2-42,26
	c-2.8,19.6-9.2,35.4-26,41C103.7,172.1,109.7,175.6,115,177z"/>
<path class="st0" d="M317.9,105c4.6-0.4,6.8-3.2,13-2C330.4,97.5,316.5,99.2,317.9,105z"/>
<path class="st0" d="M449.9,156c9.5-9.6,17.3-25.6,10-42c-2.4-5.3-5.2-8.2-8-12c-1,0-2,0-3,0c2.4,6.1,8.2,10,10,16
	c5.4,18.5-7.7,34.4-17,44C445.2,163.6,447.5,158.5,449.9,156z"/>
<path class="st0" d="M314.9,104c-1.2-3-3.4,1.1-6,0c-1.3,0-0.9,1.8-2,2c-7,1.5-13.9,5.3-19,8c-6.5,3.5-14.6,7.2-17,13
	c4.8-0.3,7.4-4.6,11-7c8-5.3,18.2-9.3,27-13C311,106.1,314.5,107.8,314.9,104z"/>
<path class="st0" d="M61,131c-0.3,3.3,4.8,4.9,6,5c8.5,0.7,17.8-14.5,14-24c-1,0-2,0-3,0C80.6,123.1,72.4,137,61,131z"/>
<path class="st0" d="M385.9,177c5.3-4.6,11.2-5.7,16-10c12-10.7,14.3-29,0-39c-13-9.1-39.5-11.5-61-8c-18.1,3-37.9,13.6-48,26
	c-10.4,12.8-5.2,23.8,8,33c2.8,2,11,6.2,18,6c-6.5,37.8-30.9,57.7-65,68c-2.7,3.2-2.7,7.5-4,11c-0.9,2.5-2.5,2.6-3,6
	c-0.8,4.9-4.4,9.9-8,15c-5.3,7.5-9.7,12.2-17,18c-8.3,6.6-20.4,13.9-35,16c-4.3,0.7-0.3-7-3-8c-6-13.3-12-27.4-30-23
	c-24.5,5.9-40.8,60.8-34,94c0.1,0.6,0.6,2.1,1,3c4.5,10.6,10.7,27,24,28c19,1.4,24.9-18.6,33-27c26.7,15.5,45.5,55.6,37,95
	c-1.3,6.2-6.5,13.4-7,19c22.3,0,44.7,0,67,0c4-27,17.1-44.9,44-49c0.1-8.1-3.4-12.6-7-17c6,0.1,13.4,1,22,1c2.4,2.9,7.6,3,12,4
	c5.5,6.2,14.7,12.9,23,18c7.9,4.8,22.3,12.3,35,5c2.6-16.9-18.6-24.2-36-27c-5.2-0.8-11.6-0.1-16-1c-16.6-3.5-24.3-13.2-31-22
	c6.7,1.8,14.3-2.6,17-8c-4.1,1.1-2.6-3.4-5-4c-16.4-40.7,8.4-78.9,54-72c7.4,1.1,13.2,6.6,20,8c3.4-4.4,8.1-12.1,5-15
	c9.4,6.2,19.1,15.3,22,29c1.6,7.6,0.4,16.3,2,24c1.6,7.5,6,13.1,7,20c6.5,3.2,7.6,11.8,19,10c10.2-23.7-12.4-45.5-23-59
	c-3.4-8.3-5.7-23.4-4-33c2.8,4.9,9.2,6.1,16,7c1.2-3.5,1.8-7.5,2-12c6.6-10.3,12.8-20.2,24-26c6.8-3.5,14.5-3.1,23-6
	c0-22.3,0-44.7,0-67c-6.8,1.6-12.6,4.1-18,7C436.9,221.7,401.6,205.8,385.9,177z"/>
<path class="st0" d="M58,127c-2.5,1.8-4.7,3.9-4,9C56.9,135,61.1,127.8,58,127z"/>
<path class="st0" d="M268.9,131c-1.3-0.1-1.4-1.3-3-1c-4,6-8.9,11.1-10,20c5.4-1.9,5.5-9.2,8-14C268.2,137,266.7,132.1,268.9,131z"
	/>
<path class="st0" d="M57,138c-1.3-0.1-1.4-1.3-3-1c0,1,0,2,0,3c0.7,0,1.3,0,2,0C56,139,56.8,138.8,57,138z"/>
<path class="st0" d="M58,141c-1,0-2,0-3,0c0,1,0,2,0,3c1,0,2,0,3,0C58,143,58,142,58,141z"/>
<path class="st0" d="M63,182c4.5-1.4,5,3.9,8,1C70.4,180.3,63,176.4,63,182z"/>
<path class="st0" d="M447.9,189c1,0,2,0,3,0c0.2-2.2-0.8-3.2-3-3C447.9,187,447.9,188,447.9,189z"/>
<path class="st0" d="M244.9,227c20.1-1.5,38.2-21.8,45-36c-0.2-1.1-1.1-1.6-2-2c-10,19.3-24.7,34-52,36
	C238,228.7,242.4,227.2,244.9,227z"/>
<path class="st0" d="M226.9,225c-0.1,1.9-3.3,0.7-3,3c2.6,0.1,2,3.3,2,6c-2.5,3.2-0.3,6.2-1,10c-1.2,6-4.7,12.8-7,17
	c-4.8,8.9-10.3,15.5-18,21c-3.5,2.5-8.2,3.8-11,7c2.6,2.8,4.6-0.8,7-2c11.2-5.9,20.1-15.5,26-27c1.4-2.7,3.5-5.5,4-7
	c1.2-3.6,0.1-9.8,1-14C227.8,234.9,231.2,227.9,226.9,225z"/>
<path class="st0" d="M174,264c0-1,0-2,0-3c-1,0-2,0-3,0c0,1,0,2,0,3C172,264,173,264,174,264z"/>
<path class="st0" d="M479.9,326.1c5.2,15,12.2,29.7,17,46c3.5,12.1-0.5,31,1,50c-9.4,16.1-32.8,26.7-56,20c0.7,5.3,1.3,10.7,3,15
	c-3.3,9.4-2.6,18.9-7,26c-0.5,0.7-2.6,0.4-3,1c-0.4,0.7,0.5,2.4,0,3c-4.5,5.8-11.2,7.7-16,13c27,0,54,0,81,0c0-67,0-134,0-201
	C487,301.9,477.8,308.3,479.9,326.1z M497.9,498.1c-13.3,0-26.7,0-40,0c1.2-24.1,14-38.3,40-40C497.9,471.4,497.9,484.8,497.9,498.1
	z"/>
<path class="st0" d="M30,339.1c0,1.3,0,2.7,0,4c1,0,2,0,3,0C33.3,340.4,32.6,338.8,30,339.1z"/>
<path class="st0" d="M352.9,371.1c-0.7,8.1,3.2,15.8,6,18c4.6,3.7,8.5,4.4,14,7c4.4,2.1,11.6,4.2,14,7c0.4,0.4,2.4-0.3,3,0
	c8.2,4.3,17.9,8.9,25,12c-8.6-18.8-17.4-37.2-26-56C373.1,345.2,354,357.7,352.9,371.1z"/>
<path class="st0" d="M97,356.1c-1.4,0.2-2.3,8.2,1,7C99.4,362.8,100.3,354.8,97,356.1z"/>
<path class="st0" d="M30,362.1c0.7,0,1.3,0,2,0c0.1-1.3,1.3-1.4,1-3c-1,0-2,0-3,0C30,360.1,30,361.1,30,362.1z"/>
<path class="st0" d="M33,371.1c1.4-0.2,2.3-8.2-1-7C30.5,364.3,29.7,372.3,33,371.1z"/>
<path class="st0" d="M98,370.1c2.1-0.6,1.3-6.5-1-6C96.2,364.8,94.3,371,98,370.1z"/>
<path class="st0" d="M96,372.1c0,0.7,0,1.3,0,2c1,0,2,0,3,0C99.1,372.3,98,371.7,96,372.1z"/>
<path class="st0" d="M33,380.1c2-1.1,1.7-8.3-2-7C31.7,375.3,29.2,380.9,33,380.1z"/>
<path class="st0" d="M97,376.1c0.4,1.9-1.4,6,2,5c2.2,0.2,0.5-3.5,1-5C99,376.1,98,376.1,97,376.1z"/>
<path class="st0" d="M35,387.1c-0.6-2.1,1.6-6.9-2-6C31.5,382.6,31.2,387.9,35,387.1z"/>
<path class="st0" d="M102,399.1c1.8-4.2-1.9-10.4-2-16c-1,0-2,0-3,0c1.4,8.1,3.1,19.4,6,23C107,404.1,102.7,401.9,102,399.1z"/>
<path class="st0" d="M36,396.1c2.9-3-2.4-3.5-1-8C29.4,388.1,33.3,395.5,36,396.1z"/>
<path class="st0" d="M39,411.1c2.6-4.2-1.6-7.6-3-9C34.7,404,36.5,409.7,39,411.1z"/>
<path class="st0" d="M40,418.1c-1.8,1.8,1.2,3.9,2,6C43.4,422.7,42.9,418,40,418.1z"/>
<path class="st0" d="M186,449.1c2.3,19.6-4,39.5-14,49c-57.3,0-114.6,0-172,0c0.1,0.2-0.1,2,0,2c11.3,2.6,27.7,0,43,0
	c42,0,95,0,132,0c14.2-12.6,19.9-50.7,7-68C180.5,437.7,185.2,442.4,186,449.1z"/>
<path class="st0" d="M94,443.1c1.5,1.6,4.5,1.1,4-2C95.7,440.8,94.2,441.3,94,443.1z"/>
<path class="st0" d="M108,456.1c17.9,12.9,45.5,4,55-13c-1.3-0.1-1.4-1.3-3-1c-6.9,11.1-25.6,22.1-43,17c-5.8-1.7-9.6-7.7-15-10
	C100.1,452.7,105.5,454.3,108,456.1z"/>
<path class="st0" d="M100,448.1c0-1,0-2,0-3c-1,0-2,0-3,0C96.8,447.3,97.8,448.3,100,448.1z"/>
<path class="st0" d="M298.9,500.1c26.7,0,53.3,0,80,0c0-0.3,0-0.7,0-1c-23.6-4.8-38-18.7-66-19C306.3,484.8,300,489.9,298.9,500.1z"
	/>
<path class="st0" d="M170,261c-4.5-6.8-22.1-6.5-30-3c-0.2,0.1-1.5,2.7-2,3c-3.4,2.4-8.9,4.9-11,7c-0.5,0.5,0.5,2.5,0,3
	c-0.5,0.5-2.6-0.5-3,0c-1.3,1.7-2.2,5.4-4,8c-9.2,13.3-16.2,29.8-20,45c0.3,9.5-6.5,19.7-1,28c-1.6,0.1-3.5-0.1-3,2
	c7.2-1.5,3.3-10.4,4-15c0.2-1.1,1.7-3,2-4c0.9-3,0.3-7,1-10c1.3-5.6,5.3-11.2,4-17c3.6-1.4,3-5.6,4-8c3.8-8.9,8.5-14,13-24
	C133.3,265,148.8,254.2,170,261z"/>
<path class="st1" d="M68,0C45.3,0,22.7,0,0,0c0,22.7,0,45.3,0,68C42.3,65.1,65.1,39.2,68,0z"/>
<path class="st1" d="M187,32c-14.2-13.2-27.1-27.5-50-32c-4.3,0-8.7,0-13,0c-7.4,1.2-15.5,6.6-22,11c-7.5,5.1-13.2,11.7-20,21
	c-3.9,5.3-6.4,18.7-6,30c3.8,10.2,6.9,21.1,14,28c-9.1-7.2-17.9-12.6-29-14C45.9,74.1,33.2,81,25,87c-8,5.9-11.5,10-17,19
	c-4.2,7-6.4,10.9-8,18c0,5,0,10,0,15c5.5,21.5,19.8,34.2,32,49c-6.1,10.6-14.4,18.9-32,18c0,10.3,0,20.7,0,31
	c41.5,0.1,58.8-23.9,72-52c-14.2-11.9-33.2-29.2-39-50c-2.6-9.2-1.6-18,2-27c5.7-3.1,8.3-7.8,15-9c11.9-2.1,27.7,5.8,29,16
	c0.8,6.6-2.1,16.7-9,18c-8,1.5-6-4.1-13-5c-8.3,18.7,7.7,36.1,31,33c13.1-4.8,26.8-19.8,25-37c-0.8-7.4-5.6-12.2-7-19
	c22.1,17.1,59.8,2.7,55-31c-3.9-11.9-18.3-25.3-33-17c0.7,5.3,5.8,6.2,6,12c-4.6,6-9.7,11.8-20,10c-10.1-1.7-17.5-18.2-15-30
	c2-9.4,13.4-18,25-18c4.6,0,13.9,2.3,18,4c5,2.1,14.5,8.8,20,13c8.5,6.5,15.1,14.6,22,24c12.5-3,21.4-9.9,30-18
	c13.3-12.6,23.3-25.9,23-54c-10.3,0-20.7,0-31,0C206.7,17.8,198.7,26.8,187,32z"/>
<path class="st1" d="M499.9,302.1c0-9.3,0-18.7,0-28c-10.2,0.7-19.5,2.6-27,7c-8.7,5.2-18.2,17.7-21,25c-1.5,4-0.7,8.4-3,12
	c-5.6-2.4-10.4-5.6-17-7c0.6,12.9-0.2,23.2,4,32c2.8,5.8,9.1,10.7,13,16c3.7,5.1,7.7,10.7,10,16c3.2,7.3,7.1,17.8,1,27
	c-9.6,0.4-15-7.8-18-15c-3.6-8.7-5.1-20.3-5-30c-3.5-1.8-1.3-9.4-3-13c-6.7-9.6-11.5-21.2-23-26c0.1,9.9-0.9,12.6-6,17
	c-33.1-25.5-87.2,1.7-79,52c3.1,6.2,5,13.7,9,19c-4.4,2.6-8.6,5.4-16,5c1.3,4.2,4.5,8.6,8,11c5.4,3.6,11.3,9.9,20,12
	c5,1.2,10.3,2.3,15,3c17.1,2.6,39.6,3.5,40,24c-9.8,5.4-21.6-0.7-30-3c-5.5-5-13.9-10.7-21-16c-6.9-5.2-18-11.1-34-10
	c-1.6,0.1-6.1-1.6-6,2c1.8,5,6.8,11.6,6,16c-25.8,5.2-40.6,21.4-43,50c9.3,0,18.7,0,28,0c0.1-14.2,9.1-19.5,25-18
	c14.7,6.6,31.8,10.9,46,18c16.3,0,32.7,0,49,0c16.4-9.5,26.3-30.1,24-55c26.3,4.4,44-7.8,54-23c0-16.3,0-32.7,0-49
	c-2.4-3.9-3.9-9.3-6-15C488.1,342,466.9,305.3,499.9,302.1z M375.9,395.1c-6.7-3.1-11.9-3.9-16-8c-6.7-6.7-6.8-21.2,2-30
	c11-4.6,22.5-0.6,28,6c6.3,16.9,14.9,35.1,22,48C404.9,409.4,387,400.1,375.9,395.1z"/>
<path class="st2" d="M335.9,31c10,0,20,0,30,0c42.3,4.2,89.6,16.1,111,43c5.8,7.3,10.8,18.5,11,29c0.6,30.4-24.1,45.4-44,60
	c0.3-3.7,4.5-7,7-10c6.7-7.9,14.5-20.7,8-38c-1.8-4.8-7.1-11.5-12-16c-47.7-43.2-187.8-29.1-210.9,26c-3.5,8.3-5.8,24.3-4,38
	c1.9,15,11,24.3,21,35c-10.8,7.5-25.2,11.4-42,13c-1.2,13.3-5.3,32-13,42c-14-14.2-27.8-24.6-57-21c-59.9,7.4-82,115.5-59,183
	c6.5,19.2,18.9,40.2,35,45c22.2,6.6,34.2-7.1,46-17c-14,22.4-38.8,56.7-76,42c-18-7.1-31.9-28.9-40-48c-9.3-21.9-13.5-47.6-16-71
	c0-10,0-20,0-30c3.7-41.7,13.8-83,34-113c6.2-9.2,17.2-23.4,24-24c2.7-0.2,6.9,2.9,10,4c39.4,13.8,79.9-7.3,96-33
	c11.7-18.7,18-53.9,4-82C227,51.4,277.2,37,335.9,31z"/>
<path class="st2" d="M421.9,176c9.7-12.1,27.7-23.2,20-45c-1.9-5.4-7.2-12.2-12-16c-32.9-25.7-110.5-22-150,5
	c-9.6,6.6-19.3,15.9-22,25c-6.8,23.1,11.4,37.1,30,45c-9.5,23.1-29.1,36.3-61,37c0.9,29.6-14.4,51.5-36,62c-10.1-16-17.4-37.7-44-31
	c-7.5,1.9-16.4,8.2-22,15c-30.2,36.8-37.2,118.8-11,155c7.3,10,20.8,19.6,37,14c11-3.8,15.3-13,25-20c4.5,8.7,10.7,18.2,12,31
	c1.9,18.7-6,36.8-15,47c12,0,24,0,36,0c20.6-42.3,2.1-100.1-32-115c-9.8,11.6-13.8,30-35,26c-13-2.4-20.6-22.5-22-41
	c-2.9-37.6,16.7-83.3,41-82c16.8,0.9,18.9,20.2,26,33c36.2-9.2,57.1-33.6,68-68c34.9-9.4,58-30.7,65-68c-14.6-4.3-31.7-8.7-32-25
	c-0.4-20.8,34.7-37.9,66-40c25.4-1.7,54.6,5.7,57,23c2.6,19.3-13.7,25.4-27,33c15.2,34.5,72.9,53.7,116,33c0-12,0-24,0-36
	C484,189.6,442.9,193.4,421.9,176z"/>
<path class="st3" d="M174.9,421.1c-11.3,10.8-24.6,27.8-45,20c-16.5-6.3-27.2-29.6-31-53c-7.1-44.1,8.9-103.4,34-123
	c24.2-18.9,49.7,0.1,57,24c21.4-10.7,38.9-30.4,36-62c33.8,0.8,50.9-15.1,63-36c-14.9-10.8-33-15-32-38c0.3-6.3,3.9-14.8,8-20
	c27.9-35.8,122.5-46.3,161-20c6.1,4.2,12.7,10.9,15,17c8,20.8-9.1,33.9-20,44c14.9,19.4,63.7,17.6,78-1c0.3,0,0.7,0,1,0
	c0-57.7,0-115.4,0-173c-88,0-176,0-263.9,0c-0.7,39.6-23.6,57-50,71c-15.9-14.6-28-34.5-53-40c-19.1-4.2-35.2,6.1-36,22
	c-0.6,12,7,25.6,18,27c9,1.2,18.3-5.9,19-11c0.9-7.2-5.4-7.3-4-13c16.9-3.6,28.7,8.4,30,21c3.2,30.5-38.9,45.2-59,23
	c1.7,6.6,7.2,10.2,9,17c5.6,21.2-9.2,44.7-32,43c-12.7-0.9-25.8-12.7-22-30c5.8-1.6,6.1,4.9,13,4c6-0.7,12.1-9.7,11-19
	c-1.2-9.8-14.2-18.3-26-18c-10.2,0.3-20.3,8.3-23,16c-5.9,16.7,6.2,37.2,15,48c8,9.9,17.7,17.6,25,24c-13.3,27.4-31.2,50.1-71,51
	c0,88,0,176,0,264c57.7,0,115.3,0,173,0C190.8,484.5,193.2,438.2,174.9,421.1z M126,127c20.7-1.9,33.8-11.5,43-25
	c30.9,41.7-21.9,96.9-67,68C113.3,159,126.1,149.5,126,127z M95,486.1c-39.8-9.1-59.7-63.7-63-116C27.4,296.9,51,226,87,199
	c73.7,33.7,145.8-39.3,112-110c4.3-9.6,13.5-16.5,23-23c26.2-18,65.6-31.4,107-34c53.6-3.4,108.1,7.6,137,32c11.3,9.6,21,23.3,21,40
	c0,30.4-23.9,41.4-41,57c-3.5-2.1,3.9-5.4,6-8c12-14.6,11.8-38.7-3-53c-41.6-40.4-163.7-35.1-204,10c-10.7,12-16.3,27.8-14,50
	c1.7,16.4,10.7,27.3,21,38c-11.9,5.4-22.6,12.1-41,11c-2.8,4.1-1.9,11.2-3,17c-1.9,9.9-6.6,18.6-10,26c-15.2-14.1-27-24-56-21
	c-46,4.7-64.5,59.6-69,110c-3.7,41.4,6.5,85.7,26,107c8.5,9.3,25.7,17.4,42,11c7.1-2.8,10.7-7.4,16-12c-0.2,0.1,3.4-4.7,4-1
	C145.3,463.2,129.8,494,95,486.1z"/>
<path class="st3" d="M455.9,500.1c14.7,0,29.3,0,44,0c0-14.3,0-28.7,0-43C474.2,456.4,457.5,473.4,455.9,500.1z"/>
</svg>
