<?xml version="1.0" encoding="utf-8"?>
<!-- Generator: Adobe Illustrator 23.0.3, SVG Export Plug-In . SVG Version: 6.00 Build 0)  -->
<svg version="1.1" id="Layer_1" xmlns="http://www.w3.org/2000/svg" xmlns:xlink="http://www.w3.org/1999/xlink" x="0px" y="0px"
	 viewBox="0 0 500 500" style="enable-background:new 0 0 500 500;" xml:space="preserve">
<style type="text/css">
	.st0{fill-rule:evenodd;clip-rule:evenodd;fill:#D1D3D4;}
	.st1{fill-rule:evenodd;clip-rule:evenodd;fill:#A7A9AC;}
	.st2{fill-rule:evenodd;clip-rule:evenodd;fill:#808285;}
	.st3{fill-rule:evenodd;clip-rule:evenodd;fill:#58595B;}
</style>
<path class="st0" d="M2,0c165.3,0,330.6,0,495.9,0C335,1.7,165,1.7,2,0z"/>
<path class="st0" d="M0,497.9C1.7,335,1.7,165,0,2C0,167.3,0,332.6,0,497.9z"/>
<path class="st0" d="M499.9,497.9c0-165.3,0-330.6,0-495.9C498.3,165,498.3,335,499.9,497.9z"/>
<path class="st0" d="M497.9,499.9c-163-1.7-333-1.7-495.9,0C167.3,499.9,332.6,499.9,497.9,499.9z"/>
<path class="st0" d="M0,497.9c0.1,1.2,0.3,2.4,2,2c163-1.7,333-1.7,495.9,0c1.2-0.1,2.4-0.3,2-2c-1.7-163-1.7-333,0-495.9
	c-0.1-1.2-0.3-2.4-2-2C335,1.7,165,1.7,2,0C0.8,0.1-0.4,0.3,0,2C1.7,165,1.7,335,0,497.9z"/>
<path class="st1" d="M7,0c4.3,0,8.7,0,13,0c11,6.1,31.4,20,28,38c-1.5,7.8-9.8,11.4-20,9C15.2,44,6.6,29.9,0,21c0-4.3,0-8.7,0-13
	C1.5,4.5,4.1,2.1,7,0z"/>
<path class="st1" d="M454.9,24c-7.3,15.4-0.5,28.8,19,23c7.2-2.1,16.5-11.6,21-18c1.6-2.3,3.1-6.8,5-8c0-4.7,0-9.3,0-14
	c-1.5-3.2-5.4-3.9-7-7c-3.7,0-7.3,0-11,0C470.9,5.2,460.6,12.1,454.9,24z"/>
<path class="st1" d="M159,104c-10.5,4.4-21.1,1.4-27,0c-3-0.7-6.4,0-10-1c-13.5-3.9-20.2-17.3-30-8c1.4,13.6,8.8,21.2,13,32
	c-1.9,1.9-0.7,4,1,5c-0.2,0.8-0.8,1.2-2,1c4,6.7,1.6,19.8,0,27c10.6,5.4,17.9-7.4,20-17c9.4,11.9,20.3,22.3,33,31
	c5.5,0.1,13.1,2.6,18,0c-0.1-6.5,0.9-14.2-3-17c0.7,0,1.3,0,2,0c-8.1-13.5-20.4-22.9-31-34c11-1,17.3-6.7,20-16
	C161.6,106,159.3,106,159,104z"/>
<path class="st1" d="M364.9,106c-6.4,0.7-16.1,0.8-23-2c0.1,1.8-1,2.3-3,2c-0.6,12.6,9.6,14.4,18,18c-12.7,14.6-32.2,22.4-32,50
	c1.3,1.4,4.9,0.4,5,3c23.8-1.9,33.1-23.6,47-32c2.5,8.3,7.8,18.7,18,16c-0.7-9.3-0.3-16.1,1-25c0.9-5.9-0.3-6.7,1-11
	c1.2-4.1,1.5-3.7,3-5c1-0.9,1.7-5.3,2-6c1.4-2.8,1.8-5.6,3-8c0.7-1.4,2.7-1.2,3-3c0.7-3.9-0.3-6.7-1-10
	C392.4,91.3,381,104.2,364.9,106z"/>
<path class="st1" d="M234,248c-1.3,9.2,6.9,16.8,13,18c11.8,2.3,20.6-9.1,19-19c-0.3-1.6-5.5-9.6-6-10c-2-1.5-8.2-2.4-11-2
	C240.9,236,234.8,242,234,248z"/>
<path class="st1" d="M162,326c-2,2.7-6.7,2.7-10,4c-9.6,8.8-21.1,20.9-29,28c-0.4-11.3-5.7-17.7-16-19c-1.1,0.9-0.3,3.7-3,3
	c-0.5,3.1,3.1,2.3,2,6c-0.5,16.5,0.7,24.5-3,32c-4.4,8.9-10.9,15.4-11,27c6.9,5.9,10.8,0.8,19-3c14.2-6.7,28.2-10,51-8
	c1.4-4.7-1.6-11.5-7-15c-3.9-2.5-9.2-1-11-4c14-13.3,30.7-24,33-49C173.2,323.9,168.8,326,162,326z"/>
<path class="st1" d="M363.9,345c-9.7-9.6-18.7-19.7-36-20c-0.6,1.4-1.6,2.4-3,3c-2.4,23,14.2,27.2,21,41c5.4,1.6,8.7,5.3,11,10
	c-8.4-0.7-18.1,5-18,16c10.5,2.6,20.3-0.1,29,1c14.3,1.8,23.5,12.8,37,14c0.6-1.4,1.6-2.4,3-3c1.5-10.2-5.8-11.6-5-21
	c-6.4-3.6-5.9-13.5-9-18c0.1-1.6,2.6-0.8,2-3c-4.5-8.2-0.6-18.8,0-24c-10.6-5-18,8.1-20,18C374.1,352,368.5,349.4,363.9,345z"/>
<path class="st1" d="M47,457.9c-9.7-13.8-32,0.4-40,10c-3.6,4.3-5.2,9.2-7,12c0,4.3,0,8.7,0,13c2.8,2.2,4.9,5.1,8,7c4,0,8,0,12,0
	C34,491,49.1,483,47,457.9z"/>
<path class="st1" d="M473.9,452.9c-7.7-2.2-17-1-21,5c-1.7,25.4,13.7,33.7,29,42c4,0,8,0,12,0c1.6-2.4,3.6-4.4,6-6
	c0-5.7,0-11.3,0-17C494.2,472.2,485.4,456.3,473.9,452.9z"/>
<path class="st2" d="M245,1c3.3,0,6.7,0,10,0c6.7,7.1,15.9,9.1,18,19c5.4,26.1-21.2,22.8-17,42c15.2,3.6,16.1-20.3,32-20
	c6.3,0.1,12,3.2,13,11c2.3,18.6-19.1,16.7-34,24c-8.2,4-10.1,10.5-18,13c-5.5-4-8.8-9.4-16-13c-15.1-7.5-36.4-4.9-34-24
	c1-7.9,6.5-10.9,13-11c15.7-0.2,16.9,23.5,32,20c3.7-19.8-23.6-17-17-43c4.3-6.7,8.3-13.7,18-15c0-0.7,0-1.3,0-2
	C245,1.7,245,1.3,245,1z"/>
<path class="st2" d="M249,138c-9.5,0.4-14.5,9.6-23,12c-4.9-3.6-13.5-8.3-22-5c12.3,22.1,6.3,59,29,72c5.2-10.9,5.3-26.8,18-26
	c11.5,0.8,11.2,15.8,16,26c23-12.8,16.9-49.6,29-72c-9.3-3.8-16.6,2.6-23,5C264.7,145.8,258.8,137.6,249,138z"/>
<path class="st2" d="M20,273c24.5,5.4,24.8-22.4,42-17c4.5,15.2-19.5,16.6-20,31c-0.3,7.3,5.4,14.7,13,15c16.7,0.7,15.1-22.3,23-37
	c3.4-6.3,9.3-8.7,12-15c-2.7-6.3-8.5-8.6-12-15c-8.1-14.9-5.6-36.7-23-36c-8.6,0.4-12.9,6.3-13,13c-0.3,15.2,24.4,16.5,20,32
	c-14.2,4.9-19-17.7-35-18c-6.3-0.1-13,3.8-17,8c-3.2,3.3-3.8,7.6-8,11c0,3.3,0,6.7,0,10C7.5,260.6,10.6,270.9,20,273z"/>
<path class="st2" d="M493.9,240c-4.4-8-15.8-16.5-29-11c-10,4.2-11.9,19.6-27,16c-4-15.6,19.9-16.7,20-32c0.1-7.6-5.1-13.8-13-14
	c-15.1-0.3-14.9,17.4-20,30c-3.8,9.6-9.3,15.2-15,21c4,7.4,11.1,12.3,15,22c4.6,11.4,4.4,30.1,20,30c8.8-0.1,12.9-5.9,13-13
	c0.1-15.8-23.8-16.6-20-32c12.5-7.3,18.3,14.6,30,17c15.2,3.1,24.5-6.4,29-19c0.7,0,1.3,0,2,0c0-2.7,0-5.3,0-8
	C495.1,247.7,495.3,242.5,493.9,240z"/>
<path class="st2" d="M150,227c-3.7,8.2-12,13.4-12,23c0,9.8,9.2,15.2,12,24c-3.1,5.9-7.4,10.6-6,21c7.2-0.1,14-5.4,23-7
	c10.1-1.8,19.8-2.2,29-6c8.4-3.4,17.7-6.9,20-16c-19.1,0-34-17.2-18-27c5.3-3.2,13.5-1.5,18-7c-13.3-21.8-49.1-15.9-71-28
	C141,213.5,148.1,220,150,227z"/>
<path class="st2" d="M284,234c11.3,4.2,26.9,5.9,26,18c-0.8,11.1-16.1,11.2-26,16c10.9,22.4,50,16.6,71,29c3.8-9.3-2.2-17-5-23
	c4-7.9,11.9-13.4,12-23c0.1-10.2-8.8-15.4-12-24c3.6-4.9,8.5-13.4,5-22C333.6,216.9,294.7,211.4,284,234z"/>
<path class="st2" d="M204,355.9c8.8,3.3,15.5-2.8,22-5c9.5,4.2,15.8,13,28,11c8-1.3,11.9-10,20-11c5.5,2.7,12.8,8.4,21,5
	c-2.1-6.4-4.3-12.1-6-19c-1.6-6.7-1.7-13.2-3-20c-1.9-10.2-5.7-16.7-10-23c-2.2-3.3-4.3-8.7-9-9c-5,3.3-3.1,10.5-5,15
	c-6.1,14.2-20,11-25-1c-1.8-4.4-0.3-11-5-14C209.8,297.9,215.6,333.5,204,355.9z"/>
<path class="st2" d="M266,490.9c5.5-5.5,9.4-15.4,5-26c-4.2-10.2-19.5-12.1-16-25c14.8-7.2,17.3,18.7,32,19c7,0.2,13.4-4,14-12
	c1.3-17.2-19.3-15.6-34-23c-7.4-3.7-11.5-8.8-17-13c-6.9,3-9.5,9.2-17,13c-14.9,7.6-37.8,5.2-34,25c1.3,7,7.3,10,13,10
	c15.2-0.1,16.2-24.4,32-20c2.4,16.2-16.9,19.8-18,33c-1.2,13.8,8,20.2,19,27c3.3,0,6.7,0,10,0C258.1,495.2,262.8,494.1,266,490.9z"
	/>
<path class="st3" d="M123,4c1.3,0,2.7,0,4,0c3.2,8.3-2.8,13.1-4,20c15.2,0.5,24.2,22.9,8,25c-14,1.8-18.3-13.8-25-19
	c-19.2-6.3-22.1,18.3-11,22c7.8,2.6,13-5.1,19-4c7.3,6.4,4.8,20,11,28c5.7,7.4,17.6,9.6,28,4c1-2.6-1.9-4.8-3-7
	c-14-27.6,33.8-36.6,34-8c0.1,8.1-6.8,16.3-13,21c-19.6,14.8-43,7.5-63-2c-16.9-8-33.9-20.7-36-39C69.6,23.9,85.8,9.4,101,7
	C108.2,5.9,120.8,9.2,123,4z"/>
<path class="st3" d="M377.9,23c-7.4,4.7-20,9.2-18,18c1.1,4.9,6.1,7.5,9,8c13.5,2.1,19.1-13.4,26-19c6.2-0.2,12.4-0.4,15,3
	c3.4,6.8,2.6,16.7-4,19c-6.7,2.3-11.5-3.3-18-4c-10,5.8-5.6,24.8-16,32c-4.8,3.3-16.6,5.3-24,0c-4.7-2,1.8-4.6,2-5
	c6.8-11.1-0.1-31-19-28c-7.2,1.2-14.9,8.3-14,20c1.2,14.4,20.7,28.1,39,28c18.9-0.1,51.1-15.5,62-28c18.2-21,10.9-55.7-19-60
	c-7.5-1.1-17,3-22-3c-1,0-2,0-3,0C369.5,10.9,375.9,16.8,377.9,23z"/>
<path class="st3" d="M24,123c3.5,7.4,6.4,18,15,18c14.6,0,10.4-17.8,3-25c-3.9-3.8-10.2-5.2-12-11c-1.8-5.7,0.1-11,4-15
	c18.1-7.8,22.1,14,13,23c5.7,7.9,19.8,5.4,28,11c8.6,5.8,10.6,18.8,5,30c-4.8,0.2-8.1-6.9-15-7c-21.7-0.3-25.6,38,1,37
	c15.7-0.6,28.6-20.3,29-38c0.3-13.8-7.3-34.5-15-47c-7.8-12.6-19.3-23-30-26c-17.3-4.8-31.3,4.4-38,16c-1.2,2.1-3.6,5.6-4,7
	c-1.9,6.5,1.3,15.1-1,25c0,0.1-1.8-0.1-2,0c0,2,0,4,0,6C13.2,130.3,16.6,123.4,24,123z"/>
<path class="st3" d="M491.9,97c-6.2-23.2-35.5-32-56-16c-11.9,9.3-19.2,22-25,39c-7.1,20.8-8.3,45,9,58c2.1,1.6,11,6,15,6
	c6.7,0,15.2-6,17-10c6.9-15.7-10.8-34.2-25-24c-3.6-0.8-4.4,6.2-7,3c-4.3-5.6-3.8-16.5-2-21c5.1-13,26.5-10.6,35-19
	c-2.7-5.3-6-10-5-19c2.8-4.4,11.2-6.7,18-4c4.5,4.6,5.9,9.8,3,16c-4,8.7-19.2,9.9-18,24c0.3,3.4,1.9,9.5,9,10
	c9.6,0.7,12.5-9.3,16-17c7.4,0.4,10.8,7.3,19,4c0-1.7,0-3.3,0-5C490.7,113,493.9,104.4,491.9,97z"/>
<path class="st3" d="M225,100c-22.7,3.8-43.6,15.6-60,24c2.8,7.5,8.9,11.8,15,16c13-9.9,31.9-17.2,53-20c33.3-4.3,68.2,6.5,89,20
	c4.9-4.7,10.7-8.6,14-15C309.7,108.3,269.2,92.6,225,100z"/>
<path class="st3" d="M126,164c-18.5,25.6-29.9,61.7-27,101c2,27,14.2,50.9,26,71c5-0.5,11.1-8.1,15-13c-13.9-23-25.3-55.5-20-92
	c2.9-20,11.9-39.7,21-54C134.6,174.1,131.6,167.7,126,164z"/>
<path class="st3" d="M400.9,264c2.8-40.3-9.4-73.1-25-98c-1,0-1.2-0.8-2-1c-3.9,5.8-11.3,8.1-14,15c27,33.7,26.8,107.2,0,141
	c3.8,6.2,8.8,11.2,15,15C386.2,317.4,399.1,291,400.9,264z"/>
<path class="st3" d="M7,380.9c2,8.7-0.4,16.5,1,22c3.6,14.3,16.8,30.2,40,26c12.1-2.2,24.3-14.9,32-28c7.5-12.8,14.9-29.3,15-44
	c0.2-20.2-14.3-39.8-31-39c-28.2,1.3-18,46.9,10,34c1.6-1.8,3.6-6.1,6-4c4.5,8.3,3.8,19.4,0,25c-6.9,10.1-25.1,7.2-33,15
	c1.9,6.4,7.8,12.4,5,19c-2.8,6.6-12.9,8-20,3c-14.1-16.9,20.2-21.7,17-40c-0.6-3.2-2.9-8.6-9-9c-10.2-0.7-11.7,11.5-17,18
	c-5.1-2-10.6-7.4-18-4c0,2,0,4,0,6C5.2,381.1,7,380.8,7,380.9z"/>
<path class="st3" d="M475.9,377.9c-4.3-7-6.3-17-15-17c-4.1,0-9.1,3.3-10,9c-2.8,17.6,17.6,15.3,20,29c0.8,4.6-3.7,12.8-8,14
	c-9.3,2.5-13.4-2.3-15-6c-1.3-2.9,0.5-9.6,4-19c-7.4-8.2-27.1-5.8-33-17c-2.3-4.4-4.1-16,1-22c1-4.3,4.8,0.9,5,1
	c12.5,7.8,30.7-0.5,28-18c-1.6-10-10.6-15.9-22-14c-14.8,2.5-25.5,22.1-26,37c-0.5,14.2,7.3,34.1,15,47c8.2,13.8,22.9,31.3,47,27
	c12-2.2,22-13.2,25-24c1.9-6.9-1.2-18.7,3-26c0-1.7,0-3.3,0-5C487.4,371.2,483,377.2,475.9,377.9z"/>
<path class="st3" d="M321,359.9c-29.2,27.5-110.8,28-141,1c-6.2,3.8-11.2,8.8-15,15c23.2,15.3,56.4,27.9,94,26
	c31.2-1.6,56.7-14.7,77-26C333.1,368.4,327.1,364.2,321,359.9z"/>
<path class="st3" d="M123,477.9c6.2-5.1,17.8-7.2,18-16c0.1-5.2-4.4-9.2-9-10c-18.4-3.4-16.2,18.7-30,20c-5.5,0.5-12-3.8-13-7
	c-3.1-9.9,4.3-15.4,6-16c8.4-2.8,10.2,3.5,19,4c7.4-5.9,4.7-18.9,10-27c5.8-8.9,19.7-10.5,31-5c-5.9,7.4-8,11.8-8,15
	c-0.2,21.3,39.3,26.6,37-2c-1.3-16.8-22.9-29.4-46-27c-20.8,2.1-48.4,17.7-57,29c-12.5,16.5-10.9,41.9,7,53c0.7,0.4,7.3,3.8,8,4
	c6.6,2,17.8-1.2,26,3c1.7,0,3.3,0,5,0C130.9,489.8,125.1,483.8,123,477.9z"/>
<path class="st3" d="M402.9,492.9c14.5-3.8,30.3-21.6,24-41c-8.2-25.3-50.2-52.2-84-44c-10.7,2.6-26.7,12.5-26,29
	c1.2,29.2,47.2,17,33-10c-1.1-2.1-5.2-3.6-3-7c10.7-3.5,21.3-2.8,27,3c7.6,7.8,5,22.3,12,30c7.5-0.5,10.4-5.6,20-4
	c4.5,2.8,5.8,8.9,5,17c-4.8,2.8-4.2,5.7-10,6c-12.2,0.7-17.6-21.4-31-20c-16.7,1.8-8.1,24.1,7,25c-0.5,7.1-8,12.4-3,19
	c1.3,0,2.7,0,4,0C387.3,491.8,395.6,494.9,402.9,492.9z"/>
</svg>
