<?xml version="1.0" encoding="utf-8"?>
<!-- Generator: Adobe Illustrator 23.0.3, SVG Export Plug-In . SVG Version: 6.00 Build 0)  -->
<svg version="1.1" id="Layer_1" xmlns="http://www.w3.org/2000/svg" xmlns:xlink="http://www.w3.org/1999/xlink" x="0px" y="0px"
	 viewBox="0 0 500 500" style="enable-background:new 0 0 500 500;" xml:space="preserve">
<style type="text/css">
	.st0{fill-rule:evenodd;clip-rule:evenodd;fill:#D1D3D4;}
	.st1{fill-rule:evenodd;clip-rule:evenodd;fill:#A7A9AC;}
	.st2{fill-rule:evenodd;clip-rule:evenodd;fill:#808285;}
	.st3{fill-rule:evenodd;clip-rule:evenodd;fill:#58595B;}
</style>
<path class="st0" d="M170.6,0c79.6,0,159.2,0,238.7,0c18.1,5.9,28.7,19.2,46.3,25.6c-4.4,8.2-13.9,16.5-21.2,23.7
	c-19.4-15.4-34.7-33.2-70-30.6c-30.6,2.2-52.5,26.4-66.9,51.2c-20.8,36.1-29.6,81.2-20.6,126.9c-50,1.7-82.5-14.2-112.5-32.5
	c18.3,30,34.2,62.5,32.5,112.5c-45.2-8.9-87.9-0.5-124.4,19.4c-25.9,14.1-51.1,36-53.7,67.5c-2.9,34.5,14.9,51.4,30.6,70.6
	c-7.2,7.4-15.6,16.9-23.7,21.2C19.2,438.1,5.9,427.4,0,409.4c0-79.6,0-159.2,0-238.7c11.6,0.8,20.1,3.9,24.4,11.9
	c11.1,20.9-13.3,33.8-10.6,50c1.2,7.3,12.3,15.4,21.2,8.1c-13.7,4-14.6-16.3-2.5-15.6c7.3,0.4,9,9.3,13.1,13.7
	c11.6,12.6,31.5,19.5,49.4,19.4c28.4-0.2,50.5-22.4,50.6-51.3c0.3-53.7-60.1-49.5-63.7-100.6c-16.1,8.7-12.6,44.5,3.1,50.6
	c-9,4-14.5,14.3-11.3,26.9c4.6-7.5,10.6-13.4,21.2-13.1c26.8,0.7,38.3,39.3,20,57.5c-5.7,5.7-15.5,9.4-27.5,8.1
	c-31.8-3.4-49.8-33.4-44.4-75.6c-6.5,0-12.9,0-19.4,0c0-34,0-67.9,0-101.9c6.7,5.6,14,13.9,20,20c1.9,1.9,4.5,5.6,6.9,4.4
	c0-10.8,0-21.7,0-32.5c11,0,22.1,0,33.1,0c-4.9-9.2-19.1-18-24.4-26.9c33.5,0.4,68.7-0.8,101.2,0.6c0,6.3,0,12.5,0,18.8
	c12.3,0.7,19.6-1,30,0c26.1,2.4,49.7,25.7,45.6,55.6c-4.9,35.6-66.5,31.3-65.6-5c0.3-10.7,6.2-15.4,13.1-20
	c-13.1-3.5-22.5,3-27.5,11.3c-5.4-16.3-41.8-18.8-50-3.1c52.2,4.4,47.2,64.9,101.2,63.7c28.9-0.6,50.4-22.1,50.6-50.6
	c0.2-21.4-8.2-39.1-19.4-49.4C234.9,42,225,39,225,31.9c0-12.5,20.4-8.9,16.2,3.1c6.2-10.5-1.7-20.4-10-21.2
	c-13.2-1.3-24.6,15.5-41.9,13.1C176.7,25.1,171.7,14.2,170.6,0z"/>
<path class="st0" d="M473.1,308.1c-1.2-14.2,11.5-23.4,13.1-33.7c2.1-13.3-8.8-22.4-21.2-15.6c11.4-3.7,15.2,15.7,3.7,16.2
	c-7.5,0.4-8-6.3-12.5-11.9c-19.5-24.5-65.9-28.1-87.5-6.3c-8.7,8.8-15.7,23.2-14.4,41.2c3.6,47.5,58.3,46.1,63.7,95
	c15.8-7.6,14.5-42.4-3.1-49.4c8.4-4.3,15.3-14.7,11.3-27.5c-5.2,7.2-10.2,14.3-24.4,12.5c-32.3-4.1-34.9-61,0.6-65
	c26.1-3,46.9,17,52.5,36.2c3.4,11.6,1.2,23.5,1.9,39.4c6.5,0,12.9,0,19.4,0c0,33.5,0,67.1,0,100.6c-2.4,0.8-4.3-3.1-6.3-5
	c-6.1-6.1-13.8-13.9-20.6-19.4c0,11,0,22.1,0,33.1c-9.8,1.4-22.3,0.2-33.1,0.6c5,9.2,18.9,18.2,24.4,26.9c-33.7,0-67.5,0-101.2,0
	c0-6.3,0-12.5,0-18.7c-25.5,0-45.9-1-60-14.4c-15.7-14.9-24.2-51.5,0.6-63.7c19.1-9.4,43.7,1.2,48.1,19.4c2.9,12-2.3,23.4-11.9,26.9
	c11.2,5.1,23.9-1.6,26.9-10.6c8.2,16.6,40.4,19.8,50.6,3.1c-52.1-4-47.8-68.7-105-63.7c-24.9,2.1-44.6,21.3-46.9,45.6
	c-2,21.5,6.8,44.2,20.6,55.6c4.7,3.9,12.5,5.8,12.5,12.5c0.1,11-19.2,10.1-15.6-3.1c-7.8,9.2,0.2,23.2,14.4,21.2
	c10.3-1.5,18.7-13.3,32.5-13.1c16.1,0.2,21.2,10.5,23.1,26.9c40.4,0,80.8,0,121.2,0c2.7-30.2,19.3-46.6,49.4-49.4
	c0-40.4,0-80.8,0-121.2C483.3,327.9,474.2,321.2,473.1,308.1z"/>
<path class="st1" d="M170.6,0c0.3,18.3,11,29.2,28.1,26.9c13.6-1.9,20.4-14.4,32.5-13.1c7.4,0.8,15.9,9.4,10,20
	c1.4-13.4-16.9-12.7-16.2-1.2c0.4,6.8,7.1,8,11.3,11.3c12.2,9.8,22.4,29,21.9,51.9c-0.8,31.4-26.5,53.9-59.4,49.4
	c-44.3-6-45.7-59.6-92.5-63.7c10-15,43.9-11.8,50.6,3.7c3.6-8.1,14.3-15,26.3-10.6c-7.1,3.7-11.8,8.7-12.5,17.5
	c-1.9,22.6,19.4,35.2,41.2,31.9c12.1-1.8,22.6-12.3,24.4-23.7c4.6-29.2-17.8-54.5-45.6-56.9c-10.7-0.9-18.4,1.2-30-0.6
	c0-6.3,0-12.5,0-18.8c-33.7,0-67.5,0-101.2,0c5,9.2,18.9,18.2,24.4,26.9c-11,0-22.1,0-33.1,0c0,11.3,0,22.5,0,33.7
	c-6.2-6-13.9-13.3-20.6-20c-1.7-1.7-3.6-6-6.3-4.4c0,33.5,0,67.1,0,100.6c6.3,0.4,14.1-0.8,19.4,0.6c-4.4,42.6,11,71.6,44.4,75
	c25.5,2.6,39.3-14,36.2-38.1c-1.8-14.6-13.2-29.1-31.9-27.5c-9.2,0.8-13.5,6-18.1,12.5c-3.2-13.7,3.7-21.9,11.3-26.9
	c-16.2-6-18.7-41.3-3.1-50c3.5,50.9,64.1,47.9,63.7,100.6c-0.2,28.3-20.6,50.7-50.6,51.3c-23.2,0.4-42.8-10.7-51.9-22.5
	C40,231.5,38.9,225,31.9,225c-11.9,0-9.6,19.2,2.5,16.2c-11.5,5.7-20.3-2.3-20.6-11.3c-0.4-10.8,11.6-19.1,13.1-31.9
	c2-17-8.8-27.5-26.9-27.5C0,130,0,89.4,0,48.7C30.3,46.5,46.5,30.3,48.7,0C89.4,0,130,0,170.6,0z"/>
<path class="st1" d="M329.4,500c-1.7-16.6-8.3-26.5-22.5-26.9c-13.4-0.4-22.3,11.4-31.9,13.1c-13.8,2.5-23.9-9.3-15.6-21.2
	c-2.6,14.7,15.1,12.7,15.6,3.7c0.4-6.3-7.3-8.7-11.9-12.5c-10.8-8.9-19.8-25.7-21.2-43.7c-2.7-33.2,18.4-55.4,45-58.1
	c59.6-6.2,54.9,60.6,107.5,63.7c-8.7,15.9-44.1,13.9-50.6-2.5c-4.5,8.1-15.2,14.9-28.1,10.6c27.6-17,6.7-52-23.1-50
	c-15.7,1.1-27.6,12-28.8,27.5c-2.8,37.8,33.1,58.9,75.6,53.1c0,6.3,0,12.5,0,18.8c32.3,1.5,67.3,0.2,100.6,0.6
	c-4.9-9.5-19.5-18-24.4-27.5c10.8,0,21.7,0,32.5,0c1.5-9.8,0.2-22.3,0.6-33.1c9.6,5.4,17.3,18.1,27.5,25c0-33.7,0-67.5,0-101.2
	c-6.5,0-12.9,0-19.4,0c-0.4-8.9,0.6-16.9,0-25.6c-1.9-28.8-22.9-51.8-52.5-50c-34.7,2.1-36,53.7-8.1,63.8c11.6,4.2,25.6-0.8,30-11.9
	c3.9,12.4-1.8,23.9-10.6,27.5c15.8,7.2,18.8,42.2,2.5,51.2c-2.8-52-69.2-48.1-63.7-106.9c2.1-22.8,19.9-43.1,44.4-45.6
	c20.1-2.1,39.3,4.9,51.2,15c4.7,4,10.8,18.1,18.1,18.1c10.2,0,11.2-18.8-3.1-15.6c13.6-9.1,23,3.8,21.2,15
	c-1.6,10-13.3,19.2-13.1,31.9c0.2,14.7,11.9,22.3,26.9,23.1c0-79.6,0-159.2,0-238.7c-4.9-22.1-39.6-44.4-21.2-68.7
	c-4.3,0.9-6.9,4.3-12.5,5c-2.5,0.3-6.3-1.3-8.7-0.6c-3.6,1-6.8,7.1-10,10.6c-14,15.4-33.9,31.5-62.5,21.9c7.8,15.9,3,45.4-4.4,60.6
	c15.4-6.8,43.6-13.2,60.6-3.7c-5.5-17.8-1.6-40,8.7-49.4c16.2,17,33.6,36.3,31.3,68.7c-2.1,29.3-24.2,50.5-45.6,64.4
	c-33.3,21.5-82,32.8-131.9,23.7c-3.9,47.1,13.6,83.4,31.9,112.5c-29.4-18.6-64.3-34.8-112.5-32.5c9.2,51.5-2.4,98.5-23.7,131.9
	c-13.8,21.6-34.3,43.8-63.8,46.3c-32.6,2.7-51.7-15.1-69.4-30.6c8.4-11.2,31.2-14.8,48.7-9.4c-7.8-15.9-3-45.4,4.4-60.6
	c-15.4,6.8-43.6,13.2-60.6,3.7c11.5,36.1-14.4,56.8-32.5,72.5c2,8.7-1,16.6-5,21.2c6.9-3.8,14.8-6.7,25-3.1
	c14.5,5.1,28.3,20.9,44.4,25C170.2,500,249.8,500,329.4,500z"/>
<path class="st2" d="M409.4,0c30.2,0,60.4,0,90.6,0c0,30.2,0,60.4,0,90.6c-4.8-21.9-38.8-43.5-21.9-68.1
	C452.9,38.3,432.2,5,409.4,0.6C409.4,0.4,409.4,0.2,409.4,0z"/>
<path class="st2" d="M364.4,18.8c-32,2.7-53,27.7-67.5,53.1c-20.2,35.5-28.7,79-20,125c-50.2,1.9-82.6-14.1-112.5-32.5
	c18.1,29.6,35.3,63.4,31.9,112.5c-47.5-9.1-92,0.8-127.5,21.2c-24.6,14.2-48,37.2-50,67.5c-2.2,33.4,15.2,51,31.9,68.1
	c2-4.3,5.4-7.1,6.9-11.9c-12.4-15.2-26.3-29.9-23.7-56.9c2.9-31.4,29.2-48.2,51.2-60c-12.6,13-0.5,39.8,19.4,31.9
	c-1-3.9-4.3-7-5.6-11.9c-11.3-42.1,78.3-42.7,105.6-28.7c10.2,22.9,11.2,77.8-5.6,97.5c-5.4,6.4-15.4,10.1-24.4,7.5
	c-4.1-1.2-8.3-5.9-11.3-5c-8.2,20.4,20.3,30.1,31.9,19.4c-12.4,21.7-28.6,47.7-60,50.6c-27.3,2.5-41.5-11.8-57.5-23.7
	c-4.1,2-7.2,4.8-11.3,6.9c16.8,17.5,37.1,34.6,69.4,31.9c30.4-2.5,53.1-26.8,66.9-50.6c19.7-34.3,29.8-81.6,20.6-127.5
	c50.1-1.8,82.6,14.1,112.5,32.5c-18.1-29.6-35.3-63.5-31.9-112.5c47.4,9.4,92.9-1.3,126.9-21.2c23.9-14,48.4-35.1,50.6-66.9
	c2.3-32.5-14.9-52.5-31.9-68.7c-2,4.3-5.4,7.1-6.9,11.9c12.4,15.2,26.3,29.9,23.7,56.9c-2.9,31.4-29.2,48.2-51.2,60
	c12.6-13,0.5-39.8-19.4-31.9c1.7,5.3,7.2,10.5,6.9,18.7c-1.3,35.9-79.6,34.6-106.9,21.9c-10.2-24.4-11.2-77.8,5.6-97.5
	c5.5-6.4,15.8-10.4,25-7.5c4.5,1.4,7.3,6.1,10.6,5c8.2-20.4-20.3-30.1-31.9-19.4c12.4-21.7,28.6-47.7,60-50.6
	c27.4-2.5,41.5,11.8,57.5,23.7c4.1-2,7.2-4.8,11.3-6.9C416.7,33.4,397,16,364.4,18.8z"/>
<path class="st2" d="M198.1,198.1c21.9,12.7,55.1,18.7,90,14.4c-5.7,31.2,1.3,68.3,13.7,89.4c-21.3-12.1-55.6-19.5-88.7-13.7
	c-1.6-4.3,0.3-9.2,0.6-15c1.6-27.8-4.8-55.8-15-73.1C198.4,199.5,198.1,199,198.1,198.1z"/>
<path class="st2" d="M0,500c30.2,0,60.4,0,90.6,0c-16-2.5-32.9-24.7-50-26.9c-8.4-1.1-12.9,1.8-18.7,5C38.8,451.9,4.3,430.9,0,409.4
	C0,439.6,0,469.8,0,500z"/>
<path class="st2" d="M451.2,500c16.2,0,32.5,0,48.7,0c0-16.2,0-32.5,0-48.7C469.7,453.4,453.4,469.7,451.2,500z"/>
<path class="st3" d="M48.7,0C46.6,30.3,30.3,46.6,0,48.7C0,32.5,0,16.2,0,0C16.2,0,32.5,0,48.7,0z"/>
<path class="st3" d="M212.5,287.5c34.7-4.3,67.7,1.8,89.4,14.4c-12.6-21.7-18.7-54.7-14.4-89.4c-34.7,4.3-67.7-1.8-89.4-14.4
	C210.7,219.9,216.8,252.8,212.5,287.5z"/>
<path class="st3" d="M441.9,78.8c-4.2,9.1-4,25.7-0.6,35.6c-2.6,0.9-5.7-1.8-9.4-2.5c-17.9-3.6-38.4,2.1-50.6,7.5
	c5.6-14.3,12.2-44.7,3.7-60.6c10,2.9,26.7,4,35.6-0.6c-12-13.7-32.4-28.8-60-23.7c-28.1,5.1-44.1,29.1-55.6,50
	c11.1-9.9,39.6-2.7,31.9,19.4c-3.5,0.7-8.1-4.7-13.1-5.6c-41.4-7.9-40.5,77.3-28.1,105.6c27.9,12.6,99.8,13.2,106.3-18.1
	c2.2-10.5-4.1-16.5-6.3-22.5c22.1-7.1,31.2,19.7,19.4,31.9c25.9-13.3,48.4-29.9,51.9-65.6c0-0.4,0-0.8,0-1.2
	C465,105.2,454.7,90.7,441.9,78.8z"/>
<path class="st3" d="M129.4,466.9c35.7-3.3,51.8-26.1,65.6-51.2c-11.1,9.9-39.5,2.7-31.9-19.4c1.6-2,3.8,1.2,5,1.9
	c4.8,2.7,10.8,5.1,17.5,3.7c31.5-6.5,30.3-75.7,18.7-105.6c-27.6-12.6-99.3-13-106.3,17.5c-2.5,10.8,4.1,17,6.3,23.1
	C82.8,344.4,73.2,317.5,85,305c-24.7,13-54.7,33.2-51.2,72.5c1.7,19.9,13.2,32,24.4,43.7c4.2-9.1,4-25.7,0.6-35.6
	c3.2-0.5,7.6,2.4,12.5,3.1c17.5,2.5,36-3.2,47.5-8.1c-5.6,14.3-12.2,44.7-3.7,60.6c-10-2.9-26.7-4-35.6,0.6
	c9.9,12.2,26.3,23.3,48.7,25C128.5,466.9,129,466.9,129.4,466.9z"/>
</svg>
