<?xml version="1.0" encoding="utf-8"?>
<!-- Generator: Adobe Illustrator 23.0.3, SVG Export Plug-In . SVG Version: 6.00 Build 0)  -->
<svg version="1.1" id="Layer_1" xmlns="http://www.w3.org/2000/svg" xmlns:xlink="http://www.w3.org/1999/xlink" x="0px" y="0px"
	 viewBox="0 0 500 500" style="enable-background:new 0 0 500 500;" xml:space="preserve">
<style type="text/css">
	.st0{fill:#FFFFFF;}
	.st1{fill:#D1D3D4;}
	.st2{fill:#939598;}
	.st3{fill:#58595B;}
</style>
<rect x="0.9" y="0" class="st0" width="499.1" height="499.1"/>
<path class="st1" d="M499.9,210.8c0,1.8,0.1,3.6,0.1,5.4c0,10.7,0,21.5,0,32.2c0,0.4,0,0.8,0,1.2
	c-73.3-73.2-146.5-146.5-219.8-219.8c-0.4,0.5-0.7,0.8-0.9,1.1c-18,18-36,36-54,54c-0.8,0.8-1.3,0.8-2.3,0.4
	c-7.1-3.4-14.5-6-22.1-7.7c-3.8-0.9-7.6-1.5-11.5-1.9c-2.7-0.3-5.4-0.2-8.1-0.5c-3.5-0.4-6.8,0.1-10.3,0.1
	c-3.8,0.1-7.6,0.5-11.3,1.4c-0.4,0.1-0.9,0.1-1.4,0c1-2.2,2-4.4,3-6.6c1.7-3.7,3.1-7.5,4.5-11.3c2.3-6.3,4.1-12.8,5.7-19.3
	c0.9-3.7,1.5-7.5,2.1-11.2c0.6-3.5,0.9-6.9,1.4-10.4c0.3-2.5,0.3-5.1,0.5-7.6c0.3-3.1,0.2-6.3,0.2-9.4c0-0.6,0.1-0.9,0.8-0.8
	c0.1,0,0.3,0,0.4,0c37.1,0,74.2,0,111.2,0c0.2,0,0.4,0,0.6,0c0.7,0.3,1.2,0.9,1.7,1.4c67.7,67.7,135.3,135.3,203,203
	c1.9,1.9,3.7,3.9,5.9,5.6C499.5,210.2,499.7,210.5,499.9,210.8z"/>
<path class="st1" d="M0,288.7c0-0.5,0-0.9,0-1.4c0-36.7,0-73.4,0-110.1c0-1.3,0.4-1.6,1.6-1.5c3.5,0.2,7,0,10.4-0.3
	c4.4-0.3,8.7-0.8,13-1.4c8.7-1.2,17.2-3.1,25.5-5.6c7.5-2.2,14.9-5,21.9-8.3c1.4-0.7,2.8-1.3,4.2-1.9c0.2,1.6-0.4,3-0.5,4.4
	c-0.1,1.7-0.5,3.5-0.7,5.2c-0.3,2.5,0,5-0.3,7.4c-0.4,3.3,0,6.5,0.2,9.8c0.2,4.2,0.8,8.3,1.6,12.5c1.3,7.1,3.5,14,6.1,20.7
	c0.7,1.7,1.4,3.4,2.2,4.9c0.5,0.9,0.4,1.4-0.3,2.1c-18,18-36,36-54,54c-0.3,0.3-0.6,0.6-0.9,0.8c73.2,73.2,146.5,146.5,219.7,219.7
	c-0.2,0.2-0.2,0.3-0.3,0.3c-12.7,0-25.5,0-38.2,0c-0.8-0.3-1.3-0.9-1.8-1.5C144.5,433.6,79.6,368.7,14.8,303.8
	c-4.5-4.5-9.1-9.1-13.6-13.6C0.7,289.7,0.3,289.3,0,288.7z"/>
<path class="st1" d="M384.2,372c-5,3.2-9.1,7.2-12.2,12.2c-1.5-1.5-3.1-2.9-4.6-4.4c-3.4-3.3-6.7-6.7-10.1-10.1
	c-3.3-3.2-6.7-6.4-10.1-9.6c-3.2-3-6.5-6-9.9-8.8c-3.9-3.3-7.8-6.6-11.7-9.8c-7.2-5.9-14.7-11.5-22.5-16.7
	c-5.3-3.5-10.7-6.8-16.3-9.8c-6.3-3.4-12.8-6.3-19.7-8.5c-4.4-1.4-8.9-2.6-13.6-3c-5.2-0.5-10.4-0.5-15.4,1.3
	c-4.8,1.7-8.7,4.5-10.9,9.3c-2.6,5.7-0.5,12.5,4.8,15.7c3.1,1.8,6.4,2.6,9.9,2.2c2.6-0.2,4.8-1.4,6.9-3c3.2-2.6,5.1-6.1,7.1-9.5
	c1.2-2,2.5-3.9,4.3-5.4c2.9-2.3,6.1-2,9.3-0.5c3.1,1.4,5.6,3.6,7.9,6.2c2.8,3.2,5,6.8,6.8,10.6c2.1,4.3,3.4,8.9,4.2,13.6
	c0.6,3.7,1,7.5,1,11.2c2.9,0.2,5.7-0.2,8.6,0.2c2.2,0.3,4.3,0.6,6.4,1.2c3.6,1,6.9,2.6,9.8,4.9c6,4.7,9.7,10.9,11.2,18.3
	c1.6,8.1,0.5,15.8-4,22.9c-1.2,1.9-2.7,3.5-4.3,4.9c-0.7,0.6-0.6,1.1-0.1,1.7c4.3,4.9,7.2,10.6,8.4,17.1c1.4,7.7,0.3,15.1-2.5,22.3
	c-1.8,4.7-4.3,9-7.3,13c-4.4,5.8-9.4,10.8-15.8,14.3c-1.6,0.9-3.4,1.5-5.2,2c-0.7,0.2-0.9-0.2-0.7-0.8c1.1-4.1,1.8-8.3,2.1-12.6
	c0.3-4,0.3-8-0.1-12c-0.5-4.5-1.4-8.8-3.1-12.9c-1.6-3.9-3.7-7.5-6.4-10.7c-1.5-1.9-3.1-3.7-4.8-5.3c-4.6-4.3-9.7-8-15-11.3
	c-7-4.4-14.3-8.2-21.5-12.3c-6.4-3.5-12.6-7.3-18.6-11.5c-3.2-2.3-6.3-4.7-9.3-7.3c-2.6-2.3-5.1-4.8-7.3-7.4c-2.7-3.1-5-6.4-7.1-10
	c-3.4-5.9-5.6-12.2-7.1-18.7c-0.7-3.1-1.2-6.4-1.4-9.6c-0.1-2.1-0.3-4.1-0.2-6.2c0.3-5.3,1.3-10.5,3.4-15.5
	c2.3-5.2,5.3-9.8,9.2-13.9c5-5.3,10.8-9.3,17.5-12.3c4.3-1.9,8.8-3.2,13.5-3.8c3.3-0.4,6.6-0.7,10-0.4c4.9,0.4,9.8,1.1,14.5,2.3
	c4.5,1.2,8.8,2.8,13,4.7c1.7,0.7,3.3,1.5,5.1,2.1c-0.3-0.3-0.5-0.6-0.8-0.9c-19.4-19.4-38.8-38.8-58.1-58.2c-0.7-0.7-1.1-0.9-1.9,0
	c-4,4.1-8.2,8.2-12.3,12.3c-3.4,3.4-7.3,6.3-11.9,7.9c-5.2,1.8-10.4,2.2-15.4-0.2c-4-1.9-6.6-5.1-7.7-9.4c-1.2-4.5-0.7-8.9,0.9-13.2
	c1.6-4.1,4-7.6,7.1-10.7c2.4-2.3,4.8-4.7,7.2-7.2c-2.9-2.9-5.8-5.7-8.5-8.5c-3.9-4.1-6.4-9-7.2-14.5c-0.6-4.6-0.1-9.1,2.9-13
	c2.3-3,5.2-4.9,8.9-5.6c7.3-1.3,13.8,0.8,19.6,5.3c3.5,2.8,6.4,6.2,9.6,9.4c0.6,0.6,0.9,0.7,1.6,0c2.5-2.5,4.9-5.1,7.5-7.5
	c4-3.8,8.6-6.4,14.2-7.2c3.8-0.6,7.6-0.5,11.1,1.3c4.3,2.1,6.9,5.6,8,10.2c1.1,4.7,0.3,9.1-1.6,13.4c-1.7,4-4.3,7.4-7.4,10.5
	c-4.1,4.1-8.2,8.3-12.4,12.4c-0.6,0.6-0.7,0.9,0,1.6c19.6,19.5,39.1,39.1,58.7,58.7c0.2,0.2,0.4,0.3,0.8,0.7
	c-0.8-1.8-1.4-3.2-2.1-4.7c-2.8-5.9-4.9-12-6.2-18.4c-0.6-3.1-0.9-6.2-1.2-9.4c-0.2-2.7-0.1-5.3,0.1-7.9c0.4-4.7,1.5-9.2,3.1-13.6
	c1.8-4.7,4.1-9,7.1-13c3.9-5.2,8.6-9.5,14.1-12.9c4.1-2.5,8.4-4.4,13.1-5.4c2-0.4,4.1-0.8,6.2-0.9c1.8-0.2,3.6-0.2,5.3-0.2
	c5.9,0.1,11.7,1.2,17.3,2.8c3.9,1.1,7.7,2.5,11.3,4.4c4.2,2.2,8.2,4.7,11.7,7.8c1.1,0.9,2.2,1.8,3.2,2.7c6,5.7,11,12.1,15.4,19
	c3.4,5.3,6.5,10.8,9.6,16.2c4.7,8.3,9.1,16.9,14.6,24.7c2,2.8,4.1,5.5,6.3,8c3.5,4,7.5,7.4,12,10.2c4,2.5,8.4,4.2,13.1,5.1
	c3,0.6,6,0.8,9,1.1c3.9,0.3,7.6-0.2,11.4-0.5c3.3-0.3,6.5-0.9,9.6-1.7c0.5-0.1,0.8-0.1,0.7,0.7c-0.9,4.1-3.1,7.5-5.6,10.8
	c-1.6,2.1-3.5,4.1-5.4,5.9c-3.6,3.3-7.5,6.2-11.8,8.6c-4.3,2.4-8.8,4.2-13.5,5.2c-4.1,0.9-8.2,1.1-12.4,0.7c-4.9-0.5-9.3-2-13.6-4.3
	c-2.2-1.2-4.4-2.6-6.2-4.3c-0.7-0.6-1.2-0.8-1.9,0c-3.8,4.3-8.7,6.9-14.3,8.1c-4.1,0.9-8.1,0.9-12.3,0.3c-3.3-0.5-6.4-1.4-9.3-3
	c-6.7-3.5-11.6-8.7-14.3-15.9c-1.4-3.9-2.2-7.9-2.2-12c0-1.3-0.1-2.7,0-4c0-0.9-0.1-1.2-1.1-1.2c-6.7,0-13.1-1.1-19.4-3.4
	c-5.4-2-10.4-4.8-14.8-8.5c-2.7-2.2-4.9-4.8-6.3-7.9c-2.2-4.8-1.3-8.3,3-11.7c2.5-1.9,5.3-3.2,7.9-5c2.9-2,5.3-4.4,6.6-7.7
	c1.3-3.1,1.1-6.2,0.2-9.4c-1-3.6-3-6.5-6.3-8.2c-3.2-1.7-6.6-1.9-10-0.7c-6.4,2.4-9.4,7.5-11,13.7c-1.1,4.3-1,8.7-0.5,13
	c0.7,7.3,3,14.2,5.7,20.9c4,9.6,9.1,18.6,14.8,27.3c4,6.2,8.4,12.2,12.9,18.1c3,3.9,6.1,7.6,9.3,11.4c3.4,4,6.9,8,10.4,11.9
	c3.4,3.7,6.9,7.4,10.3,11.1c5.5,5.9,11.3,11.4,16.9,17.1C384,371.6,384.1,371.8,384.2,372z"/>
<path class="st2" d="M384.2,372c4.1-2.2,8.4-3.4,13-3.8c5.4-0.5,10.5-0.1,15.3,2.6c2.5,1.4,4.6,3.3,6.5,5.5
	c4,4.7,6.6,10.2,10.2,15.1c3.3,4.5,7.1,8.3,12.6,10c8.6,2.7,17.4-2.1,19.2-11.3c1-5.1,0.2-9.8-2.8-14.1c-1.9-2.7-4.6-4.4-7.5-5.7
	c-4.1-1.9-8.5-2.8-13-3.3c-1.5-0.2-3,0-4.5-0.2c-0.9-0.1-1.1-0.4-1.1-1.2c0.1-3.5,1.3-6.6,3-9.5c3.8-6.1,9.3-9.9,15.9-12.3
	c4.1-1.5,8.3-2.3,12.7-2.6c2.9-0.2,5.8-0.3,8.7,0c0.9,0.1,1.6,0.1,1.9-1.2c0.8-4.8,2.9-9,5.9-12.7c4-4.8,8.8-8.5,14.9-10.2
	c1.5-0.4,3.1-0.8,4.7-0.6c0,0.4,0,0.8,0,1.2c0,35.6,0,71.2,0,106.7c0,1.3-0.4,1.5-1.6,1.5c-23.7,0-47.3,0-71-0.1
	c-1.2,0-1.5,0.3-1.5,1.5c0,23.7,0,47.5,0.1,71.2c0,1-0.2,1.3-1.3,1.3c-35.8,0-71.6,0-107.4,0c-0.3,0-0.6,0-0.9,0c0-4,1.3-7.6,3.4-11
	c4-6.6,9.5-11.3,16.9-13.7c1.2-0.4,2.4-0.8,3.6-0.9c0.8-0.1,1-0.5,0.9-1.1c-0.3-2-0.3-4-0.2-6c0.1-7.3,1.4-14.4,5-20.9
	c3.7-6.7,8.8-11.9,16.5-13.6c4.5-1,4.3-1.2,4.5,3.5c0.3,6.5,1.7,12.7,5.3,18.2c2.5,3.8,6.1,6,10.5,6.8c4.8,0.9,9.4,0.1,13.5-2.9
	c3.4-2.5,5.3-5.8,5.7-10c0.6-5.9-1.8-10.7-5.7-14.9c-3.7-3.9-8.3-6.5-12.7-9.2c-3.6-2.3-7.1-4.5-10-7.7c-3.1-3.4-4.9-7.4-5.4-12
	c-0.6-5.9,0.1-11.5,2.3-17c0.4-1.1,1-2.1,1.5-3.1c0-1.1,0.9-1.9,1.5-2.7c2.6-3.5,5.8-6.6,9.5-9.1C383.3,372.3,383.6,371.8,384.2,372
	z"/>
<path class="st2" d="M0,139c3.1-0.4,6.3-0.7,9.3-1.7c7.8-2.6,14.5-6.6,18.6-14c1.6-2.9,2.4-6.1,2.5-9.4c0.3-6.6-1.4-12.8-4-18.8
	c-2.5-6.1-5.7-11.8-9-17.5c-2.8-4.8-5.4-9.8-7.2-15.1C9.5,60,8.9,57.4,9,54.6c0.2-4.6,2.5-10.2,8-12c2-0.7,4-1.7,6.2-1.5
	c4.3,0.3,7.9,2.2,10.6,5.5c3.9,4.9,5.7,10.8,7.5,16.7c2.3,7.8,4.2,15.7,7.4,23.1c2.4,5.7,5.4,11,10,15.3c3.6,3.4,7.9,5.5,12.9,6.1
	c6.1,0.8,11.7-0.7,17.1-3.2c3.4-1.5,6.5-3.4,9.2-6c3.8-3.6,6.2-8.1,8.1-13c1.5-3.9,2.4-8,2.2-12.3c-0.3-5-1.9-9.4-5.1-13.3
	c-4-4.9-9.2-8.1-14.9-10.7C80.6,46,72.7,44,64.8,41.7c-5.9-1.7-11.8-3.5-16.9-6.9c-4.3-2.8-7.1-6.9-6.8-12.1
	c0.4-6.7,4-12.4,11.7-13.5c3.8-0.5,7.2,0.3,10.7,1.5c6.5,2.3,12.3,5.9,18.3,9.2c6.1,3.4,12.3,6.5,19,8.6c4.6,1.4,9.3,2.3,14.1,1.8
	c4.4-0.4,8.5-2,12-4.8C133.6,20,137,12.5,138.5,4c0.2-1.3,0-2.7,0.5-3.9c3,0,6.1,0,9.1-0.1c0.8,0,0.9,0.3,0.9,0.9
	c-0.1,4.3-0.3,8.6-0.7,13c-0.3,3.6-0.8,7.1-1.3,10.6c-0.7,4.5-1.7,9-2.9,13.5c-1.2,4.6-2.6,9.2-4.3,13.7c-2.5,6.6-5.4,13.1-8.8,19.3
	c-2.7,4.9-5.5,9.6-8.7,14.1c-2.6,3.7-5.3,7.2-8.2,10.7c-4,4.9-8.5,9.4-13.1,13.8c-4.1,3.9-8.5,7.4-13.1,10.7
	c-7.7,5.6-15.8,10.4-24.3,14.5c-4.5,2.1-9.2,4-13.9,5.7c-4.8,1.7-9.7,3.2-14.7,4.4c-4.1,1-8.3,1.8-12.5,2.4c-3.9,0.6-7.8,1-11.7,1.3
	c-3.2,0.2-6.4,0.5-9.6,0.5c-0.9,0-1.2-0.1-1.2-1.1C0.1,144.9,0,142,0,139z"/>
<path class="st2" d="M64.7,457.4c-4-2.7-6.9-6.1-9.1-10.1c-1.6-2.8-2.4-5.8-3.1-8.9c-0.6-3.1-1.2-6.3-1-9.5c0.2-3.4,0.6-6.8,2.7-9.6
	c1.6-2.2,3.8-3.7,6.7-3.8c1.9-0.1,3,0.9,3.5,2.6c1,3.2,1.8,6.4,2.1,9.8c0.3,3.4,0.2,6.8,1.2,10.1c1,3.1,2.7,5.8,4.8,8.3
	c3.8,4.5,8.8,7,14.3,8.8c5.1,1.7,10,4.2,14.6,7.1c5.4,3.3,10.5,7.1,14.8,11.8c3.8,4.2,7,8.8,9.1,14.1c1,2.5,1.9,5.1,2.6,7.7
	c0.3,1.2,0.5,2.3,0.4,3.5c0,0.5-0.1,0.8-0.7,0.7c-0.2,0-0.4,0-0.6,0c-18.2,0-36.4,0-54.6,0c-1.1,0-1.5-0.3-1.3-1.4
	c0.4-2.9,1.6-5.3,3.9-7.1c3.6-2.7,7.7-3.7,12.1-3.8c4.5-0.1,8.6,0.8,12.5,2.9c2.3,1.2,4.7,2.2,7.4,2.1c2.1,0,3.1-1.5,2.5-3.6
	c-0.6-2.2-2.2-3.7-4.1-4.9c-5-3.3-10.6-5.4-16.5-6.5c-3.6-0.7-7.2-0.9-10.8-1.1c-2.2-0.1-4.4-0.3-6.6-0.1c-2.3,0.1-4.5,0.1-6.8,0
	c-3.8-0.2-7.4-1-10.4-3.3c-1.6-1.2-2.4-2.9-3-4.8c-0.8-2.9-0.4-5.5,1.3-8c1.2-1.8,2.9-2.2,4.8-2.6C59.8,457.3,62.2,457.6,64.7,457.4
	z"/>
<path class="st2" d="M458.1,64.4c-0.4-3.4-0.3-6.7,0.7-9.8c0.9-2.5,3.2-3.7,5.7-4c1.9-0.3,3.9-0.1,5.8,0.8c2.8,1.4,4.6,3.6,5.6,6.5
	c0.9,2.5,1.2,5,1.2,7.6c0.1,3.7,0,7.5,0,11.2c0,7,1,13.8,3.5,20.3c1.5,3.8,3.1,7.6,6.2,10.4c1.2,1.1,2.5,1.8,4.1,1.6
	c1.5-0.2,2.6-1.6,2.3-3c-0.4-2.5-1.1-4.9-2.3-7.1c-2.3-4.1-3.2-8.6-2.9-13.3c0.3-4.6,1.5-8.9,4.9-12.4c1.7-1.7,3.9-2.6,6.3-2.9
	c0.4-0.1,0.5,0.1,0.5,0.5c0,0.3,0,0.6,0,0.9c0,18.2,0,36.5,0,54.7c0,1.6,0,1.4-1.6,1.2c-5.2-0.7-10-2.8-14.6-5.2
	c-2.7-1.4-5.1-3.2-7.4-5.2c-5.1-4.3-9.2-9.4-12.7-15c-3.4-5.3-6.3-11-8.3-17c-1.8-5.3-4.4-10-8.7-13.6c-3.4-2.8-7.1-4.8-11.6-5.2
	c-5-0.4-10.1-0.7-15-2.2c-4.4-1.3-4.8-4-2.9-7.5c1.9-3.5,5.2-5.1,8.9-5.6c7.8-1.1,15.2,0.5,22.2,3.8c1.8,0.8,3.3,2.2,4.8,3.4
	C454.9,60.2,456.6,62.1,458.1,64.4z"/>
<path class="st2" d="M499.9,476.3c0,7.5,0,14.9,0,22.4c0,1.1-0.3,1.3-1.3,1.3c-15,0-30,0-45,0c-0.9,0-1.2-0.2-1.2-1.2
	c0-15,0-30.1,0-45.1c0-1,0.3-1.2,1.2-1.2c15,0,30,0,45,0c1,0,1.3,0.2,1.3,1.3C499.9,461.3,499.9,468.8,499.9,476.3z"/>
<path class="st2" d="M34.5,0.1c-1.5,0.4-3.1,0.3-4.6,0.7c-5.5,1.5-10.3,6.9-10.2,12.9c0,2.5,0.5,4.8,1.6,7.1c0.1,0.3,0.4,0.5,0.2,1
	c-1.6-0.8-3.3-1.6-5.1-1.9c-4.2-0.6-8.1,0.2-11.4,3.1c-2.6,2.3-4,5.3-4.8,8.6c-0.2,0.9,0.2,1.9-0.3,2.8C0,23.3,0,12.1,0,0.9
	C0,0.2,0.2,0,0.9,0C12.1,0,23.3,0,34.5,0.1z"/>
<path class="st3" d="M316.5,499.9c-9.7,0-19.5,0-29.2,0c-0.4,0-0.8-0.1-1.1-0.4c-0.2-0.2-0.4-0.4-0.6-0.6
	C213,426.4,140.5,353.8,68,281.3c-1.2-1.2-1.2-1.2,0-2.4c16.7-16.7,33.5-33.5,50.2-50.2c0.9-0.9,0.8-1.3,0-2.2
	c-2.4-3-4.6-6.1-6.5-9.4c-2.8-4.9-5.2-10-6.8-15.4c-1.3-4.3-2.3-8.7-2.9-13.2c-0.5-3.9-0.9-7.9-0.7-11.9c0.2-5.1,0.8-10.2,1.9-15.3
	c1.4-6.2,3.5-12.2,6.4-17.8c2.7-5.2,5.9-10.1,9.7-14.6c6.3-7.5,13.8-13.6,22.4-18.3c7.1-3.9,14.6-6.4,22.4-8
	c3.2-0.6,6.4-0.9,9.7-1.1c2.3-0.1,4.6-0.2,6.8-0.2c6.4,0.3,12.7,1.2,18.8,2.9c5.4,1.5,10.6,3.7,15.5,6.3c4.1,2.2,7.9,4.8,11.5,7.6
	c1.3,1,1.3,1.1,2.4-0.1c16.7-16.7,33.3-33.3,50-50c1.2-1.2,1.2-1.2,2.4,0c72.6,72.6,145.1,145.1,217.7,217.7c0.7,0.7,1,1.4,1,2.4
	c-0.1,9.5,0,19-0.1,28.5c-0.5,0.4-1.1,0.3-1.7,0.4c-4.8,0.6-8.9,2.7-12.6,5.7c-4.3,3.5-7.6,7.7-9.7,13c-0.6,1.5-0.9,3-1.3,4.6
	c-0.4,1.4-0.6,1.7-2.1,1.5c-2.2-0.3-4.3-0.3-6.5-0.2c-7.6,0.3-14.9,1.9-21.4,5.9c-5.4,3.4-9.5,7.8-11.4,14c-0.4,1.3-0.7,2.6-0.7,3.9
	c0,0.8,0.3,1.1,1,1.3c1.9,0.3,3.8,0.2,5.7,0.4c5,0.7,9.8,2,14.2,4.5c6.4,3.6,9,11.1,8.1,17.1c-0.6,3.9-1.9,7.3-4.9,10
	c-2.3,2.1-4.9,3.4-8,3.8c-5.9,0.8-10.8-1.4-15.1-5.2c-3.9-3.4-6.4-7.8-9.1-12.1c-2.3-3.7-4.6-7.4-7.7-10.4c-4-4-8.9-5.9-14.5-6.1
	c-5.9-0.2-11.7,0.7-17.1,3.4c-0.3,0.2-0.7,0.3-1.1,0.3c-0.5-0.2-0.9-0.6-1.3-1c-4.8-4.8-9.7-9.5-14.4-14.4
	c-5-5.2-9.8-10.4-14.6-15.7c-7.8-8.8-15.3-17.8-22.3-27.3c-6.2-8.4-11.9-17.2-16.9-26.4c-4.3-8-7.9-16.2-10.2-25.1
	c-1.9-7.4-2.7-14.9-0.7-22.5c1.1-4.3,3.2-8,6.8-10.8c7.8-6,17.9-2.6,20.6,6c1.5,4.6,1.4,9-1.4,13.1c-1.6,2.4-3.8,4.2-6.2,5.7
	c-1.7,1.1-3.5,2-5.2,3.1c-1.1,0.7-2.1,1.5-3.1,2.4c-2.7,2.5-3.3,5.5-2.1,8.9c1.2,3.5,3.4,6.2,6.1,8.6c8,6.9,17.4,10.7,27.9,11.9
	c2.1,0.2,4.3,0.5,6.5,0.5c1.5,0,1.7,0.2,1.7,1.8c0,3.4,0,6.8,0.6,10.2c2.5,13.1,12.6,22.6,25.9,24.2c7.2,0.9,13.9-0.2,20.2-4
	c1.9-1.1,3.4-2.6,5-4.2c1.1-1.2,1.5-1.2,2.7-0.1c7.5,6.3,16.2,9.2,25.9,8.5c6.6-0.4,12.8-2.5,18.6-5.7c5.5-3,10.4-6.7,14.7-11.3
	c3.1-3.3,5.9-6.9,7.7-11.2c0.3-0.8,0.6-1.6,0.8-2.4c0.2-0.8,0-1.1-0.9-0.9c-2.4,0.6-4.7,1-7.1,1.4c-3.7,0.5-7.4,0.9-11.1,0.9
	c-6.4-0.2-12.8-1-18.8-3.5c-4.5-1.9-8.6-4.5-12.3-7.7c-7-6-12.1-13.5-16.8-21.3c-4.3-7.1-8.1-14.4-12.2-21.5
	c-4.8-8.3-9.8-16.5-16-23.8c-8.1-9.5-17.7-16.8-29.8-20.7c-5.6-1.8-11.2-3-17.1-3.4c-8.6-0.7-16.7,0.6-24.3,4.6
	c-3.9,2-7.4,4.6-10.7,7.6c-8.9,8.3-14.2,18.5-16.1,30.6c-1,6.2-0.6,12.4,0.5,18.6c1.3,7.8,4.1,15.2,7.5,22.3c0.3,0.6,1.2,1.5,0.5,2
	c-0.5,0.4-1.2-0.6-1.6-1.1c-19.1-19.1-38.1-38.1-57.2-57.2c-0.1-0.1-0.2-0.2-0.3-0.3c-1.3-1.3-1.3-1.5,0-2.8
	c3.2-3.2,6.4-6.4,9.6-9.6c1.7-1.7,3.5-3.4,5-5.2c3.5-4.3,5.9-9,6.5-14.6c0.4-3.9-0.2-7.5-2.2-10.8c-2.7-4.2-6.6-6.4-11.5-6.7
	c-7.9-0.5-14.4,2.6-20,8c-2.2,2.2-4.4,4.4-6.6,6.6c-1.1,1.1-1.3,1.1-2.4,0c-2.3-2.3-4.6-4.6-6.9-6.9c-4-4-8.8-6.7-14.5-7.6
	c-4.6-0.7-9.1-0.3-13,2.5c-3.7,2.7-5.6,6.4-6,10.9c-0.6,7.9,2.5,14.4,7.9,19.9c2.1,2.1,4.2,4.2,6.4,6.4c1.6,1.6,1.6,1.6,0,3.2
	c-2.2,2.2-4.5,4.4-6.7,6.7c-3.9,4.1-6.6,8.8-7.4,14.4c-0.7,4.7-0.2,9.2,2.8,13.2c2.5,3.3,5.9,5.1,10.1,5.6c7.3,0.8,13.5-1.8,19-6.4
	c5.1-4.3,9.6-9.4,14.4-14.1c0.4-0.3,0.7-0.7,1.1-1.1c0.6-0.7,1.3-0.7,1.9,0c0.2,0.2,0.5,0.5,0.7,0.7c19.1,19.1,38.1,38.1,57.2,57.2
	c0.5,0.5,1.5,1.1,1.1,1.6c-0.5,0.7-1.3-0.2-2-0.5c-8.2-3.9-16.7-6.9-25.8-8c-15.1-1.9-28.6,1.8-40.4,11.3
	c-7.2,5.7-12.5,12.9-15.4,21.7c-2,5.9-2.5,12-2,18.2c0.6,7.4,2.3,14.5,5.1,21.4c2.6,6.4,6.2,12,10.7,17.2
	c6.6,7.6,14.7,13.5,23.2,18.9c9,5.7,18.5,10.5,27.8,15.9c7.9,4.6,15.6,9.6,22.1,16.2c7.4,7.6,11.8,16.6,12.8,27.3
	c0.8,8.1,0,16-1.7,23.9c-0.3,1.5-0.2,1.6,1.3,1.1c4.1-1.3,7.6-3.6,10.8-6.4c5.8-4.9,10.4-10.8,13.9-17.5c3.7-7.1,5.7-14.7,5.2-22.9
	c-0.4-6.4-2.5-12.3-6.1-17.6c-0.8-1.2-1.6-2.3-2.5-3.4c-0.9-1-0.9-1.5,0.1-2.4c2.2-2.1,4.1-4.4,5.5-7.2c3.3-6.6,3.8-13.5,2.4-20.6
	c-0.9-4.5-2.7-8.6-5.5-12.2c-4.8-6.3-11.2-9.9-19-11.3c-3.1-0.5-6.3-0.5-9.5-0.5c-1.9,0-1.8,0-1.9-1.8c-0.2-7.1-1.3-13.9-4-20.5
	c-2.3-5.7-5.5-10.9-9.8-15.2c-2.1-2.1-4.6-3.9-7.5-4.8c-3.2-1-6-0.4-8.4,2c-1.7,1.7-2.8,3.7-4,5.7c-1.8,3-3.5,5.9-6.3,8.2
	c-3.4,2.7-7.1,3.7-11.3,3c-3.5-0.6-6.7-1.9-9-4.8c-4-4.9-3.9-11.5,0-16.5c3.6-4.7,8.6-6.8,14.3-7.6c5.7-0.8,11.5-0.3,17.1,1
	c9.5,2.2,18.3,6,26.9,10.6c12.4,6.6,23.8,14.7,34.9,23.3c6.9,5.4,13.5,11,20,16.8c4.3,3.9,8.6,7.9,12.8,11.9
	c5.5,5.2,10.8,10.7,16.3,16.1c0.4,0.4,0.9,0.8,1.1,1.3c0,0.7-0.3,1.2-0.6,1.7c-1.7,3.5-2.5,7.2-2.9,11c-0.3,2.9-0.3,5.7,0.2,8.6
	c0.9,5.3,3.6,9.6,7.7,13.1c3.3,2.8,7,4.9,10.6,7.2c3.6,2.3,7.1,4.6,10,7.8c3.3,3.6,5.4,7.9,5.4,12.8c0,6.1-2.9,11.4-9.2,13.9
	c-6.7,2.7-13,1.8-18.6-2.8c-2.8-2.4-4.4-5.6-5.6-9c-1.5-4.3-2.4-8.7-2.4-13.2c0-2.8-0.4-3.1-3.2-2.5c-5.3,1-9.6,3.8-13.1,7.9
	c-5,5.7-7.4,12.5-8.5,19.9c-0.6,4-0.8,8-0.3,12.1c0.2,1.5,0,1.8-1.5,2.1c-5.8,1.1-10.8,4-14.9,8.1c-4.4,4.4-7.7,9.6-8.3,16.1
	C316.8,499.3,316.8,499.6,316.5,499.9z"/>
<path class="st3" d="M34.5,0.1c0.4,0,0.8,0,1.3,0c34,0,68,0,102,0c0.4,0,0.8,0,1.2,0c0.3,1.1,0.1,2.2,0,3.2c-1,6.9-3.5,13.3-8,18.7
	c-4.7,5.7-10.8,8.8-18.4,8.9c-5.3,0-10.3-1.2-15.2-3c-6.9-2.6-13.3-6.1-19.7-9.8c-5.6-3.2-11.4-6.3-17.7-8
	c-5.1-1.4-9.9-0.8-14.1,2.6c-0.5,0.4-0.9,0.8-1.3,1.4C40,20.8,40,27.5,46.7,33.5C50,36.4,54,37.8,58,39.2c5.5,2,11.2,3.3,16.8,5
	c7.6,2.3,15.1,4.9,21.7,9.5c5,3.5,8.9,7.8,10.8,13.8c1.6,4.9,1.3,9.9,0,14.8c-1.5,5.3-3.8,10.1-7.3,14.4c-2.2,2.8-5,4.9-8.1,6.6
	c-4.4,2.5-9.1,4.3-14.2,4.9c-7.5,0.9-14.1-1.2-19.6-6.4c-3.9-3.7-6.7-8.3-8.9-13.2c-3.7-8.1-5.8-16.7-8.3-25.1
	c-1.4-4.9-3.1-9.8-5.7-14.2c-2.6-4.4-6.4-7.1-11.6-7.8c-1.1-0.1-2.2,0-3.2,0.3c-5.3,1.4-9.4,4.1-10.7,9.9c-0.6,2.9-0.5,5.7,0.3,8.5
	c1.5,5.4,4,10.4,6.8,15.3c4,7.1,8.1,14.1,11,21.7c2,5.3,3.3,10.6,3.1,16.3c-0.2,5.7-2.2,10.7-6.2,14.9c-5.9,6.2-13.3,9.3-21.6,10.6
	c-1,0.1-2,0.4-3.1,0c0-0.4,0-0.8,0-1.1c0-34.1,0-68.2,0-102.3c0-0.4,0-0.7,0-1.1c0.3-1.1,0-2.1,0.2-3.2C1.1,24.6,7,19.5,13.6,19.4
	c2.6,0,5,0.5,7.5,1.8c-0.2-0.8-0.6-1.3-0.8-1.9c-3.1-8.2,1.2-16.2,9.1-18.7C31.1,0.1,32.8,0.3,34.5,0.1z"/>
<path class="st3" d="M0,288.7c0.3,0.3,0.7,0.6,1,0.9c69.8,69.8,139.5,139.5,209.3,209.3c0.3,0.3,0.6,0.7,0.9,1c-12,0-23.9,0-35.9,0
	c-0.5,0-1-0.1-1.3-0.5c-0.2-0.2-0.4-0.4-0.6-0.6C116,441.4,58.6,383.9,1.1,326.5c-0.8-0.8-1.2-1.7-1.1-2.8C0,312,0,300.4,0,288.7z"
	/>
<path class="st3" d="M499.9,210.8c-0.9-0.6-1.8-1.2-2.5-2c-69.3-69.3-138.7-138.7-208-208c-0.2-0.2-0.4-0.5-0.7-0.7
	c12,0,23.9,0,35.9,0c0.5,0,1,0.1,1.3,0.5c0.2,0.2,0.4,0.4,0.6,0.6C384,58.6,441.4,116.1,498.9,173.6c0.7,0.7,1.1,1.4,1.1,2.5
	c0,11.1,0,22.2,0,33.2C499.9,209.8,499.9,210.3,499.9,210.8z"/>
</svg>
